<?xml version="1.0" encoding="UTF-8"?>
<svg xmlns="http://www.w3.org/2000/svg" version="1.1" viewBox="0 0 636.44 792">
  <defs>
    <style>
      .cls-1 {
        fill: #5599ae;
      }

      .cls-2 {
        fill: #2b2b2b;
      }

      .cls-3 {
        fill: #569baf;
      }

      .cls-4 {
        fill: #2d2e2d;
      }

      .cls-5 {
        fill: #5296ab;
      }

      .cls-6 {
        fill: #84c7ca;
      }

      .cls-7 {
        fill: #569aaf;
      }

      .cls-8 {
        fill: #66a6a8;
      }

      .cls-9 {
        fill: #e2c9b7;
      }

      .cls-10 {
        fill: #579bb0;
      }

      .cls-11 {
        fill: #467b7e;
      }

      .cls-12 {
        fill: #4e91a7;
      }

      .cls-13 {
        fill: #5497ac;
      }

      .cls-14 {
        fill: #87cce0;
      }

      .cls-15 {
        fill: #8e8e8e;
      }

      .cls-16 {
        fill: #599db3;
      }

      .cls-17 {
        fill: #579aad;
      }

      .cls-18 {
        fill: #5e9eb2;
      }

      .cls-19 {
        fill: #ab9382;
      }

      .cls-20 {
        fill: #bb987f;
      }

      .cls-21 {
        fill: #5b9fb4;
      }

      .cls-22 {
        fill: #5396ac;
      }

      .cls-23 {
        fill: #bc987e;
      }

      .cls-24 {
        fill: #c8d5da;
      }

      .cls-25 {
        fill: #8e8f8f;
      }

      .cls-26 {
        fill: #d9bca6;
      }

      .cls-27 {
        fill: #5598ae;
      }

      .cls-28 {
        fill: #4d90a6;
      }

      .cls-29 {
        fill: #d8bca6;
      }

      .cls-30 {
        fill: #387477;
      }

      .cls-31 {
        fill: #bc977e;
      }

      .cls-32 {
        fill: #2e2e2d;
      }

      .cls-33 {
        fill: #75bdd5;
      }

      .cls-34 {
        fill: #589cb1;
      }

      .cls-35 {
        fill: #464646;
      }

      .cls-36 {
        fill: #3f7889;
      }

      .cls-37 {
        fill: #876956;
      }

      .cls-38 {
        fill: #5599af;
      }

      .cls-39 {
        fill: #b7c6ca;
      }

      .cls-40 {
        fill: #31302f;
      }

      .cls-41 {
        fill: #4a8ca2;
      }

      .cls-42 {
        fill: #bd987f;
      }

      .cls-43 {
        fill: #336567;
      }

      .cls-44 {
        fill: #bc987f;
      }

      .cls-45 {
        fill: #589db2;
      }

      .cls-46 {
        fill: #2e2d2d;
      }

      .cls-47 {
        fill: #569db4;
      }

      .cls-48 {
        fill: #6e7073;
      }

      .cls-49 {
        fill: #dbe8ee;
      }

      .cls-50 {
        fill: #d6e6ed;
      }

      .cls-51 {
        fill: #917868;
      }

      .cls-52 {
        fill: #474848;
      }

      .cls-53 {
        fill: #d4e0e6;
      }

      .cls-54 {
        fill: #4f9093;
      }

      .cls-55 {
        fill: #5295ab;
      }

      .cls-56 {
        fill: #579bb1;
      }

      .cls-57 {
        fill: #5498ae;
      }

      .cls-58 {
        fill: #4d90a5;
      }

      .cls-59 {
        fill: #86cce0;
      }

      .cls-60 {
        fill: #599cb1;
      }

      .cls-61 {
        fill: #484848;
      }

      .cls-62 {
        fill: #72a6a9;
      }

      .cls-63 {
        fill: #856754;
      }
    </style>
  </defs>
  <!-- Generator: Adobe Illustrator 28.7.1, SVG Export Plug-In . SVG Version: 1.2.0 Build 142)  -->
  <g>
    <g id="Layer_1">
      <g>
        <path class="cls-30" d="M366.56,610.9c3.94,18.54,7.91,37.07,11.79,55.62,1.82,8.7,3.49,17.44,5.22,26.16.87,4.77-2.86,5.14-5.83,5.59-7.97,1.21-15.95,2.4-23.91,3.62-1.62.46-3.27.63-4.94.45-2.01-.25-3.85.58-5.75,1.02-20.23,3.23-40.52,6.06-60.8,8.94-1.77.25-3.54.57-5.33.12-.65-.19-1.21-.54-1.69-1.01-1.68-2.77-.38-5.48.47-8.02,14.3-42.97,29.15-85.76,43.64-128.66.75-2.23,1.47-4.62,4.19-5.38,3.2-.31,5.05,1.93,6.99,3.85,10.54,10.45,20.96,21.01,31.52,31.44,1.88,1.86,2.96,4.15,4.42,6.25Z"/>
        <path class="cls-31" d="M249.55,333.63c-6.03-16.1-13.95-31.38-20.64-47.19-.61-1.45-1.22-2.9-1.84-4.35-1.02-10.78,2.13-21.14,3.14-31.71.32-3.33,1.36-6.6.87-9.99-.11-5.75-2.16-11.31-1.73-17.11,1.2-3.75,4.55-5.3,7.55-7.07,3.41-2.01,4.63-4.48,3.2-8.33-2.74-7.38-4.72-15.02-7.73-22.31-4.47-11.76-7.9-23.88-12.25-35.68-.62-1.68-.92-3.42-.32-5.2,6.11-5.88,14.01-6.79,21.86-7.81,9.47,8.45,19.68,16.1,28.27,25.57,3.42,11.28,3.93,23.09,6.34,34.56.98,4.65,1.67,9.39,2.4,14.11,1.79,21.88,3.21,43.79,4.94,65.68.11,1.39-.03,2.77-.47,4.09-2.33,4.49-7.04,3.76-10.89,4.8-5.34,1.44-5.71,1.91-3,6.71,8.18,14.48,16.68,28.78,24.89,43.23,1.18,2.08,4.04,4.4,1.08,7.31-2.14.82-4.31.44-6.41,0-11.37-2.33-22.86-4.04-34.15-6.72-1.9-.45-3.9-.76-5.12-2.58Z"/>
        <path class="cls-6" d="M208.84,356.52c8.2-5.87,17.55-9.63,26.42-14.26,5.67,1.68,10.01,5.63,14.69,8.9,15.48,10.79,31.31,21.06,46.63,32.08,4.9,3.52,6.12,3.22,9.38-1.99,4.95-7.92,9.79-15.9,14.62-23.9,1.94-3.22,3.61-6.66,6.54-9.18,3.33,1.09,3.28,4.53,4.79,6.88,9.99,19.69,16.7,40.72,25.05,61.08,1.69,4.13,1.01,7.44-3.84,8.84-15.82.9-31.61,2.32-47.42,2.92-20.58.78-41.11,2.29-61.67,3.36-2.19.11-4.35.19-6.49-.29-.68-.1-1.33-.31-1.95-.62-2.77-2.02-3.48-5.25-4.55-8.19-6.91-19.08-14.15-38.04-21.23-57.05-1.04-2.78-2.34-5.53-.96-8.58Z"/>
        <path class="cls-54" d="M324.72,570.26c-2.68.3-2.68,2.71-3.27,4.44-14.87,43.72-29.69,87.46-44.49,131.21-.56,1.66-.75,3.45-1.12,5.18-.47.51-1.01.6-1.62.29-4.27-5.74-5.02-12.82-6.95-19.36-5.37-18.18-11.91-36.03-16.05-54.57-.3-1.32-1.09.16-1.57-.22,1.2-11.25-3.92-21.17-6.69-31.58-2.07-7.81-4.54-15.51-6.82-23.26,2.13-4.2,6.01-6.8,9.44-9.66,13.22-11.03,26.15-22.41,39.2-33.64,1.5-1.29,2.87-2.76,4.94-3.13.57-.04,1.14.01,1.7.16,11.19,9.57,21.43,20.14,31.94,30.43.73,1.13,1.98,2.08,1.36,3.71Z"/>
        <path class="cls-26" d="M281.85,282.07c-1.7-23.84-4.07-47.63-4.94-71.52,2.57-3.49,6.24-3.25,9.93-2.97,14.77.37,29.51-.23,44.26-.89,3.35-.15,6.67-.86,9.8.92,2.31,1.49,3.25,3.92,4.34,6.25,1.5,3.06,3.81,6.9,6.73,6.62,3.58-.34,5.27-4.63,6.48-8.17-.05-3.02-1.73-5.92-.68-9.02,7.59-5.87,16.16-10.3,23.62-16.37,1.34-.68,2.69-1.49,4.02.03.2,8.84.2,17.69.63,26.52.74,15.21,1.77,30.4,2.62,45.6.17,3-2.52,3.1-4.41,3.95-1.88-.86-3.45-.59-4.58,1.26-.45,0-.89.02-1.34.03-3.63.2-7.06,1.27-10.51,2.32-26,6.54-52.49,10.6-78.68,16.15-2.41.51-5.07,1.56-7.29-.71Z"/>
        <path class="cls-33" d="M471.53,386.29c3.04,5.54,5.99,11.14,9.18,16.59,1.31,2.24.42,3.07-1.46,4.05-10.51,5.49-20.97,11.06-31.45,16.61-1.55-.22-2.32-1.39-3.09-2.56q-3.69-5.6-9.3-1.46c-1.76,1.3-3.5,2.63-5.37,3.75-7.25,4.32-14.37,8.7-14.98,18.45-.06.94-.85,1.77-1.53,2.52-16.48,9.45-33.34,18.19-49.99,27.32-4.15,2.28-8.27,4.64-12.64,6.51-.31.45-.62.9-.93,1.35-13.3,5.74-25.53,13.53-38.34,20.21-4.91,2.56-9.89,5.02-14.72,7.75-7.61,4.42-15.42,8.49-23.13,12.74-5.75,2.45-10.42,7.3-17.07,7.77-5.87-3.03-10.26-7.95-15.34-11.99-1.25-.99-2.1-2.38-1.93-4.13,2.63-4.53,7.61-5.71,11.66-8.23,1.46-.79,2.86-1.7,4.26-2.6,10.03-5.63,20.4-10.62,30.34-16.39,1.44-.89,2.85-1.82,4.35-2.61,10.23-5.2,20.5-10.31,30.26-16.38,1.48-.7,2.88-1.55,4.32-2.34,10.59-4.49,20.23-10.75,30.3-16.2,1.77-.48,3.05-1.74,4.43-2.85,10.99-4.34,20.72-11.08,31.23-16.34,1.53-.65,2.95-1.5,4.42-2.27,10.09-5.54,20.2-11.03,30.36-16.44,1.55-.65,2.85-1.72,4.28-2.58,10.46-4.91,20.27-11.01,30.43-16.47,1.55-.56,2.9-1.48,4.27-2.38,2.3-.91,4.44-2.64,7.16-1.42Z"/>
        <path class="cls-24" d="M460.78,750.73c-15.2.94-30.2,3.48-45.28,5.39-17.04,2.15-34.07,4.39-51.1,6.6-12.92,1.68-25.93,2.92-38.74,5.23-8.18,1.48-15.76-1.1-23.43-2.15-19.36-2.65-38.72-5.31-58.09-7.92-23.65-3.18-47.29-6.44-70.97-10.63,14.2-2.02,28.43-3.89,42.59-6.15,6.15-.98,12.62-.6,18.34-3.76,3.34.67,3.53,3.78,4.62,6.12,1.22,2.6,1.38,5.67,3.53,7.84,1.76,2.1,4.22,2.04,6.59,2.06,11.73.09,23.46.05,35.19.03,3.5,0,6.5-.5,6.13-5.1.18-4.13-3.02-6.62-4.74-9.82-1.36-2.53-3.61-4.93-.9-7.92,3.46-2.44,7.61-1.7,11.41-2.58,16.23-3.75,32.47-3.98,48.78-.76,4.39,1.9,3.29,6.29,4.37,9.7.57,1.79-.03,4.51,2.48,4.88,2.58.38,2.81-2.29,3.57-4.02,2.7-6.18,4.08-7.14,9.57-2.75,14.58,11.62,31.4,6.87,47.49,7.52,4.03.16,3.24-3.82,4.45-6.06.31-.58.77-1.02,1.36-1.31.32,7.36,5.57,7.83,11.21,8.52,10.55,1.29,20.88,4.13,31.55,4.68.73.78.73,1.57,0,2.35Z"/>
        <path class="cls-41" d="M385.41,186.95c-1.12.36-2.23.72-3.35,1.08-7.9,4.36-16.22,7.38-25.33,7.86-2.98-1.35-3.25-4.3-3.93-6.92-2.11-8.04-4.03-16.12-6.09-24.17-1.58-6.2-2.53-6.63-7.97-5.53-5.25,1.06-4.62,4.32-3.75,8.06,1.7,7.32,3.12,14.71,4.76,22.04.64,2.88,1.42,5.79.66,8.8-1.47,3.84-5.07,4.15-8.31,4.83-15.11,3.13-30.39,5.06-45.76,6.36-3.15.4-6.3.8-9.45,1.2-3.56-16.07-6.08-32.31-8.13-48.63,1.43-2.62,4.16-2.74,6.59-3.31,7.08-1.65,14.19-3.19,21.29-4.71,7.57-2.1,15.48-2.79,22.85-5.7,16.49-3.58,32.95-7.3,49.41-11.03,1.96-.44,3.92-.73,5.78.41,7.53-1.63,15.1-3.07,22.56-4.98,2.91-.74,3.73-.09,4.25,2.71,2.51,13.63,5.18,27.23,7.86,40.82.58,2.96-.5,4.21-3.41,4.94-6.9,1.75-13.71,3.88-20.55,5.86Z"/>
        <path class="cls-26" d="M297.35,155.54c-9.52,2.12-19.05,4.25-28.57,6.38-6.26-3.52-11.18-8.7-16.27-13.57-3.47-3.33-8.77-4.97-10.12-10.37,1.27-3.05,4.28-3.28,6.85-4.05,19.52-5.82,38.9-12.11,58.43-17.89,19.08-5.97,38.08-12.23,57.49-17.15,3.3.68,1.02,3.89,2.46,5.43.98,7.69,2.73,15.22,4.85,22.66-.01,3.7,1.09,7.17,2.25,10.62-18.08,4.45-36.12,9.02-54.51,12.09-12.58.38-25.03-.91-35.28-2.85,3.37,1.74,9.94,1.88,12.43,8.71Z"/>
        <path class="cls-35" d="M220.51,145.08c4.51,13.46,9.03,26.92,13.54,40.38-.57,2.04-2.28,2.58-4.03,3.03-22.79,5.88-45.49,12.14-68.31,17.91-.95.24-1.97.19-2.92.48-3.54-1.74-1.28-4.65-.95-6.73,2.27-14.61,4.86-29.17,7.37-43.74.33-1.89,1.38-3.84-.61-5.46.57-7.12.72-14.33,4.47-20.77,2.17-1.56,4.57-1.2,6.88-.59,13.46,3.51,26.78,7.51,39.95,12,1.92.65,3.68,1.52,4.62,3.49Z"/>
        <path class="cls-15" d="M208.84,356.52c8.3,22.49,16.61,44.98,24.88,67.48.61,1.65.96,3.4,1.43,5.1-1.21,2.82-4.05,2.88-6.39,3.81-7.71,3.07-16.44,3.38-23.31,8.69-4.6-.14-8.99.87-13.39,2.17-11.77,3.49-23.59,6.83-35.37,10.29-2.8.82-5.65,2.15-8.59.39,7.86-15.15,17.64-29.14,26.51-43.67,11.15-18.25,22.8-36.2,34.23-54.28Z"/>
        <path class="cls-48" d="M111.83,126.92c5.27-17.66,10.53-35.32,15.81-52.97q2.13-7.11,9.04-3.73c3.72,1.83,7.41,3.7,11.11,5.55,4.16-.12,7.51,2.1,11.02,3.84,6.9,3.43,13.6,7.24,20.27,11.11.91,2.08-.44,3.35-1.66,4.67-8.29,7.45-14.97,16.4-22.6,24.47-6.4,6.77-12.1,14.22-18.66,20.88-2.12,2.15-3.65,4.7-4.8,7.48-2.93-.14-5.11.95-7.17,3.21-8.64,9.47-17.51,18.73-27.38,27.46,5.01-17.33,10.01-34.65,15.02-51.98Z"/>
        <path class="cls-63" d="M281.85,282.07c26.99-5.28,53.98-10.56,80.97-15.82,1.94-.38,3.91-.53,5.87-.79,1.21-.44,2.49-1.06,2.49,1.14-14.49,4.74-28.89,9.75-43.5,14.06-5.46,1.61-8.03,3.73-8.36,9.84-1,18.41-3.87,36.68-4.26,55.15-7.09,2.37-13.41.79-19.15-3.76-9.94-17.17-19.83-34.36-29.87-51.48-2.29-3.91-1.79-5.51,3-5.92,4.31-.36,8.55-1.59,12.82-2.44Z"/>
        <path class="cls-35" d="M148.1,454.47c16.85-4.84,33.71-9.67,50.55-14.54,2.49-.72,4.97-1.94,6.57,1.38,2.07.88,2.71,2.81,3.26,4.71,4.35,15.05,8.71,30.1,12.91,45.19.43,1.53.72,3.1.28,4.69-.57,1.56-1.74,2.63-3.17,3.28-6.04,2.73-12.19,5.22-18.26,7.89-1.45.64-3.02.79-4.54.01-16.11-17.32-32.39-34.49-47.6-52.62Z"/>
        <path class="cls-35" d="M295.9,341.9c6.38,1.25,12.77,2.51,19.15,3.76,4.02.84,8.04,1.67,12.06,2.51-2.55,8.49-8.58,15.04-12.73,22.64-2.85,5.21-6.23,10.13-9.32,15.21-1.29,2.13-2.56,3.3-5.16,1.51-21.19-14.65-42.43-29.21-63.64-43.82-.45-.31-.68-.95-1.01-1.44,4.76-2.88,9.52-5.76,14.29-8.63,14.48,2.65,28.96,5.31,43.44,7.95.96.18,1.94.22,2.92.32Z"/>
        <path class="cls-26" d="M195.69,507.09c8.31-3.64,16.62-7.29,24.93-10.93,4.97-.5,6.71,4.43,10.37,6.14,2.58,3.48,7.36,4.95,8.78,9.51,5.7,5.1,11.4,10.2,17.1,15.31.32.56.33,1.13.05,1.7-10.34,7.05-21.7,12.31-32.61,18.36-3.04,1.69-5.83,4.32-9.74,3.99l-.35.06h-.36c-5.38-5.48-6.76-13.04-10.13-19.56-1.16-4.23-4.48-7.89-3.39-12.73-1.55-3.95-3.09-7.9-4.64-11.85Z"/>
        <path class="cls-8" d="M324.72,570.26l-2.4-2.35c5.78-17.67,12.93-34.83,19.32-52.27.71-1.94,1.47-4.29,4.44-3.81,6.69,31.45,13.39,62.89,20.04,94.34.33,1.54.31,3.15.45,4.73-12.33-12.09-24.66-24.18-37.01-36.25-1.56-1.52-3.22-2.93-4.83-4.4Z"/>
        <path class="cls-6" d="M346.07,511.83c-4.89,6.86-6.4,15.15-9.54,22.75-4.09,9.88-7.6,20-11.36,30.02-.55,1.46-.76,3.19-2.86,3.31-10.37-10.34-20.73-20.69-31.1-31.03-.84-2.63,1.01-4.12,2.6-5.48,7.04-6.03,13.98-12.18,20.9-18.35,3.98-3.54,8.32-5.95,13.8-5.76,5.81.49,11.91-1.69,17.38,1.86.06.89.12,1.79.18,2.68Z"/>
        <path class="cls-2" d="M158.79,206.88c1.48-2.47,4.01-2.9,6.53-3.56,20.06-5.26,40.11-10.56,60.12-15.99,2.85-.77,6.02-.01,8.61-1.87,2.99,8.32,5.91,16.65,8.99,24.93.95,2.55.19,4.07-1.99,5.38-3.55,2.12-7.01,4.38-10.52,6.58-5.47-2.15-7.21-7.6-10.17-11.86-6.37-9.16-6.2-9.23-14.74-2.22-2.75,2.26-5.43,4.64-8.37,6.63-3.36,2.28-3.67,4.75-1.27,7.94,1.78,2.37,3.42,4.86,4.91,7.42.96,1.64,2.45,3.31.79,5.38-2.61-.06-4.27-1.98-6.18-3.3-12.27-8.45-24.48-16.97-36.71-25.47Z"/>
        <path class="cls-11" d="M256.44,528.17c.09-.37.23-.72.43-1.05,5.49-2.72,10.98-5.44,16.47-8.16,7.09,4.55,13.71,9.54,16.76,17.87-16.03,13.85-32.09,27.67-48.07,41.58-1.83,1.59-3.71,2.97-5.89,3.97-1.83-5.65-3.66-11.3-5.49-16.96-.24-1.01-.21-2.05.4-2.87,8.41-11.5,14.97-24.38,25.4-34.38Z"/>
        <path class="cls-35" d="M350.9,478.07c-.04-1.37.76-2.1,1.9-2.7,20.13-10.59,39.72-22.18,60.21-32.09,2.8,3.59.3,7.14-.14,10.68-.29,2.33-.92,4.62-1.64,6.87-1.6,2.94.3,5.26,1.3,7.8,1.12,2.83,4,5.08,2.98,8.65-14.68,3.91-29.37,7.83-44.05,11.73-2.16.57-3.75-.59-5.45-1.67-5-3.16-10.07-6.19-15.11-9.27Z"/>
        <path class="cls-30" d="M249.65,637.22c.57-1.18,1.14-2.35,1.79-3.68,7.35,24.26,14.64,48.29,21.89,72.34.51,1.69.76,3.45,1.13,5.18-.24.32-.43.84-.72.91-10.23,2.36-20.4,3.36-30.24-1.6,2.05-24.38,4.1-48.77,6.15-73.15Z"/>
        <path class="cls-26" d="M409.29,461.58c1.24-6.1,2.49-12.19,3.73-18.29.54-10.69,7.08-16.82,15.9-21.46,3.47-1.83,6.65-4.31,9.73-6.78,3.36-2.7,5-1.91,6.13,2.05.64,2.25,1.99,4.31,3.03,6.45,1.06,1.68.71,4.39,3.51,4.79,2.47,4.02,3.72,8.6,5.74,12.83-.64,1.7-1.71,2.99-3.42,3.69-9.77,6.94-21.3,10.37-31.8,15.86-2.79,1.45-5.66,2.91-8.72,3.72-2.21.59-4.56.78-3.81-2.86Z"/>
        <path class="cls-26" d="M201.68,235.65c-1.94-5.3-5.8-9.4-8.82-14.01-1.67-2.56-2.1-4.05.77-6.18,6.2-4.61,12.14-9.58,18.02-14.59,2.25-1.92,3.34-1.66,4.92.78,4.51,6.99,9.28,13.82,13.95,20.71.78,6.02,2.69,11.91,2.21,18.09-4.85,6.18-10.63,10.72-18.94,10.86-4.04-5.22-8.08-10.44-12.12-15.66Z"/>
        <path class="cls-2" d="M131.37,148.22c-2.92-1.61-1.08-3,.19-4.45,7.54-8.61,15.04-17.25,22.61-25.82,6.14-6.95,12.36-13.83,18.53-20.74,1.06-1.19,2.1-2.39,3.89-2.39,1.41,1.13,1.67,2.73,1.39,4.31-1.65,9.36-3.54,18.67-5.96,27.86-.36,1.38-1.34,2.4-2.34,3.38-.87,5.16-1.8,10.32-2.6,15.5-.31,2-.85,3.79-2.49,5.09-11.07-.91-22.15-1.82-33.22-2.73Z"/>
        <path class="cls-31" d="M243.49,710.37c10.31.61,20.63,1.21,30.97.69.46,0,.92.02,1.38.03,0,0-.18.29-.18.29,3.96,4.8,5.46,10.42,5.5,16.53-3.42,4.14-8.53,5.53-13.08,7.69-8.33,3.95-16.46,8.39-25.27,11.31-1.06-.07-1.96-.44-2.57-1.37-2.3-7.84.31-15.53.79-23.28.21-3.28,1.44-6.49,1.42-9.85.35-.68.69-1.35,1.04-2.03Z"/>
        <path class="cls-25" d="M354.58,422.93c4.04-2.15,1.17-4.87.32-7.06-7.4-19.05-14.98-38.04-22.46-57.06-.46-1.16-1.85-2.31-.52-3.76,5.3,4.69,8.33,11.07,12.28,16.75,11.58,16.66,22.95,33.46,34.4,50.2.32.49.35,1.01.13,1.55-.34.44-.74.82-1.2,1.13-1.88,1.03-3.75,2.08-5.63,3.12-.91.5-1.85.95-2.79,1.41-1.86.87-3.7,1.79-5.52,2.74-1.48.67-2.83,1.59-4.33,2.25-1.17.38-2.3.59-3.16-.61-1.53-3.41-1.2-7.08-1.52-10.66Z"/>
        <path class="cls-31" d="M353.17,700.5c8.56-2.9,17.64-2.81,26.39-4.61,2.07-.42,3.89-.61,4.01-3.21,2.53,8.43,7.88,15.42,11.69,23.2.61,1.34-.14,2.36-1.02,3.11-5.09,4.31-9.79,9.13-15.94,12.03-13.47-5.34-23.41-17.27-25.13-30.52Z"/>
        <path class="cls-63" d="M409.29,461.58c1.06,4.36,3.47,1.22,4.85.59,11.17-5.03,22.24-10.29,33.35-15.45,1.95-.9,3.78-2.25,6.13-1.86-3.46,9.33-9.82,17.02-14.53,25.64-.71,1.3-2.11,1.63-3.5,1.96-6.7,1.57-13.38,3.21-20.06,4.83-2.02-3.62-4.04-7.25-6.05-10.88-.87-1.57-1.89-3.15-.19-4.82Z"/>
        <path class="cls-33" d="M205.19,530.88c2.89,6.78,5.77,13.57,8.66,20.35-7.89,4.13-15.84,8.16-23.64,12.46-2.92,1.61-4.48,1.32-5.92-1.81-2.39-5.21-5.16-10.24-7.77-15.35-.31-3.17,2.71-3.73,4.25-5.46,1.37-.89,2.75-1.77,4.19-2.55,4.88-1.59,9.35-4.01,13.79-6.54,1.97-1.12,3.93-2.89,6.44-1.1Z"/>
        <path class="cls-43" d="M296.09,505.82c16.25-8.74,32.48-17.54,48.81-26.13,1.33-.7,3.24-4.13,5.08-.26-.43,2.41-.14,4.97-1.38,7.23-3.63,7.06-10.54,10.87-16.1,15.98-2.79,2.56-5.21,6.06-9.68,6.14-6.91,2.18-13.93,2.02-20.93.86-2.31-.38-5.29-.39-5.79-3.81Z"/>
        <path class="cls-63" d="M256.44,528.17c-8.13,12.74-16.84,25.08-25.8,37.25-5.36-4.75-10.72-9.5-16.08-14.25,13.53-8.46,27.63-15.86,41.87-23Z"/>
        <path class="cls-48" d="M378.38,730.22c5.63-4.78,11.25-9.56,16.88-14.35,7.59,6.43,15.17,12.86,22.75,19.29-.07.41-.13.83-.2,1.24-1.88,1.54-4.12,1.2-6.28,1.13-7.73-.27-15.48.23-23.2-.28-4.57-.3-9.22-1.05-9.96-7.04Z"/>
        <path class="cls-63" d="M213.8,251.31c6.81-2.76,12.66-7.18,18.94-10.86.86,9.28-1.99,18.17-2.99,27.25-.53,4.82-.58,9.83-2.68,14.39-4.44-10.25-9.88-20.07-13.27-30.78Z"/>
        <path class="cls-59" d="M426.24,410.08c-9.94,6.32-20.34,11.8-31,16.8-4.09-1.93-5.29-6.06-7.28-9.59,2.81-1.54,5.63-3.07,8.44-4.61.68.46.85,1.39,1.62,1.76-.5-.62-.53-1.38-.64-2.12,2.34-1.68,4.63-3.45,7.47-4.27.72.7,1.26,1.54,1.73,2.41-.33-.87-.74-1.73-.72-2.7,1.97-1.88,4.4-2.92,6.96-3.7,1.42.3,1.86,1.76,2.87,2.54-.77-1.06-1.91-1.95-1.49-3.51,2.36-1.25,4.72-2.49,7.08-3.74,3.17,2.87,6.16,5.82,4.95,10.72Z"/>
        <path class="cls-59" d="M460.9,390.91c-9.76,6.65-19.93,12.55-30.98,16.84-4.21-1.87-5.23-5.79-6.21-9.73,2.16-1.6,4.5-2.83,7.12-3.48.76.1,1.26.67,1.85,1.06-.32-.69-.57-1.41-.53-2.19,2.06-1.77,4.4-3.01,7.05-3.64,1.91.44,2.15,2.32,3.05,3.52-.42-1.44-2.11-2.77-.59-4.56,1.53-2.02,3.95-2.55,6.05-3.61,1.67.85,1.94,2.87,3.32,3.96-1.33-1.14-1.61-3.15-3.33-3.96,2.36-2.36,5.49-3.35,8.41-4.71,2.93,2.89,6.25,5.6,4.78,10.5Z"/>
        <path class="cls-59" d="M378.52,423.19c-.05-.4-.03-.79.06-1.18,2.65-1.21,5.29-2.41,7.94-3.62,3.41,2.82,6.24,5.91,5.15,10.87-8.76,4.78-17.51,9.59-26.31,14.3-1.8.97-3.59,2.67-5.96,1.25-3.86-1.91-5.51-5.13-5.54-9.32.59-1.2,1.5-1.85,2.88-1.69l2.69-1.06c1.84-.99,2.73.19,3.51,1.49.27-.12-.08-.22-.04-.33-.48-1.11-1.04-2.2-.01-3.28,2-.9,4-1.79,6-2.69.42-1.02,3.31,2.98,2.22-1.1,1.81-1.46,3.52-3.1,5.99-3.4,1.01.35,1.61,1.26,2.46,1.83-.52-.6-.86-1.3-1.04-2.08Z"/>
        <path class="cls-30" d="M324.67,508.09c7.15-8.07,15.85-14.4,23.93-21.44-.9,7.5-1.8,14.99-2.7,22.49-6.23.02-12.45.04-18.68.06-.75-.6-1.96-.14-2.55-1.11Z"/>
        <path class="cls-59" d="M205.19,530.88c-5.34,1.49-9.43,5.45-14.56,7.35-1.75.65-3.29,2.36-5.4.95-4.17-1.77-5.41-5.14-5.08-9.36,2.37-1.27,4.74-2.54,7.11-3.81.67.71,1.07,1.62,1.73,2.33-.64-.74-1.07-1.62-1.67-2.39,2.8-1.54,5.61-3.09,8.41-4.63.79,1.05,1.44,2.17,1.98,3.37-.49-1.22-1.19-2.32-1.95-3.39,1.52-.79,3.05-1.57,4.57-2.36,1.62,3.98,3.24,7.95,4.86,11.93Z"/>
        <path class="cls-61" d="M242.45,712.39c2.79,7.64-.96,15.15-.53,22.76.2,3.52-.47,7.1-.75,10.65,1.25,2.29,2.65,4.61-1.03,6.07-2.02-4.84-4.04-9.69-6.05-14.53-1.23-3.14-.51-5.98.95-8.92,2.62-5.27,4.95-10.68,7.4-16.04Z"/>
        <path class="cls-42" d="M457.05,441.16c-4.67-3.04-5.62-7.75-5.74-12.83,1.93-1.36,3.99-2.56,5.76-4.1,4.08-3.54,6.68.39,9.11,2.19,3,2.23-.49,3.99-1.68,5.61-2.32,3.17-4.95,6.1-7.45,9.14Z"/>
        <path class="cls-14" d="M471.53,386.29c-2.26.97-4.28,2.65-6.97,2.32-4.04-1.96-5.62-5.21-5.01-9.6,5.43-4.65,6.25-4.57,9.49,1.34,1.03,1.87,1.67,3.95,2.49,5.94Z"/>
        <path class="cls-14" d="M181.6,541.39c-.25,3.14-3.74,3.07-5.08,5.13-1.98-1.24-2.38-3.55-3.6-5.3-3.58-5.1-1.68-7.82,3.74-9.18,4.1,1.82,6.16,4.71,4.94,9.34Z"/>
        <path class="cls-12" d="M423.71,398.02c3.49,2.34,3.92,6.63,6.21,9.73-.75,1.53-1.91,2.41-3.68,2.33-1.1-3.83-4.28-6.69-4.95-10.72.81-.45,1.61-.89,2.42-1.34Z"/>
        <path class="cls-12" d="M459.55,379.01c1.67,3.2,3.34,6.4,5.01,9.6-.37,2.12-1.76,2.62-3.66,2.3-.69-3.91-4.42-6.44-4.78-10.5,1.14-.47,2.29-.93,3.43-1.4Z"/>
        <path class="cls-12" d="M391.67,429.26c-1.71-3.62-3.43-7.25-5.15-10.87.48-.36.96-.73,1.44-1.09,4.4,1.7,4.95,6.32,7.28,9.59-1.19.79-2.38,1.58-3.57,2.38Z"/>
        <path class="cls-28" d="M181.6,541.39c-1.65-3.11-3.29-6.23-4.94-9.34,1.16-.74,2.33-1.49,3.49-2.23,1.69,3.12,3.38,6.24,5.08,9.36-.34,2.16-1.67,2.7-3.63,2.21Z"/>
        <path class="cls-56" d="M405.87,407.77c1.84,2.05,3.2,4.31,3.63,8.1-3.21-2.4-4.14-4.98-4.64-7.82.33-.13.66-.23,1.01-.29Z"/>
        <path class="cls-34" d="M441.66,388.73c-.08,2.61,2.78,4.36,2.03,7.78-2.61-1.82-3.17-4.56-4.49-6.74.82-.35,1.64-.69,2.46-1.04Z"/>
        <path class="cls-10" d="M414.21,403.1c1.48,2.21,3.37,4.24,3.58,8.08-3.05-2.17-3.57-4.95-4.96-7.11.46-.32.92-.65,1.38-.97Z"/>
        <path class="cls-51" d="M371.18,266.6c-.83-.38-1.66-.76-2.49-1.14,3.14-.98,6.17-2.87,9.63-1.16-2.38.77-4.76,1.53-7.14,2.3Z"/>
        <path class="cls-1" d="M432.15,393.41c1.83,1.62,2.69,3.76,3.67,7.14-3.1-1.65-3.74-4.11-4.98-6.01.44-.38.88-.75,1.32-1.13Z"/>
        <path class="cls-57" d="M397.39,412.32c1.85,1.75,2.8,3.95,3.95,7.79-2.98-2.81-4.4-4.82-4.92-7.44.32-.14.64-.26.98-.36Z"/>
        <path class="cls-53" d="M460.78,750.73c0-.78,0-1.57,0-2.35,1.05.19,2.79-.42,2.79,1.17s-1.74.99-2.79,1.17Z"/>
        <path class="cls-19" d="M379.67,264.28c.79-3.11,2.55-2.68,4.58-1.26-1.53.42-3.06.84-4.58,1.26Z"/>
        <path class="cls-48" d="M169.68,130.36c2.12-10.28,4.26-20.56,6.34-30.85.31-1.54.39-3.13.57-4.7.82-1.15,1.63-2.3,2.45-3.45,1.74-5.18,6.61-2.15,9.72-3.71,11.87-4.06,23.75-8.12,35.62-12.18,1.42-1.72,3.22-2.87,5.32-3.58,15.25-5.1,30.07-11.57,46.08-14.22,5.09-.57,9.53-3.21,14.37-4.56,1.84-.51,3.84-2.54,5.85-.21,4.48,14.85,6.22,30.26,9.18,45.41,1.25,6.37,3.57,12.63,2.97,19.31-21.92,6.78-43.84,13.56-65.76,20.34-7.43,1.95-15.05,3.29-21.88,7.11-16.86-5.19-33.44-11.34-50.83-14.72Z"/>
        <path class="cls-35" d="M304.2,57.76c20.39,13.93,40.79,27.87,61.18,41.8-5.79,3.52-12.49,4.42-18.79,6.43-12.75,4.07-25.63,7.78-38.45,11.63-4.06-7.23-3.95-15.49-5.6-23.29-2.72-12.88-4.96-25.86-7.41-38.8-.2-1.06,0-1.94.86-2.63,2.74,1.62,5.47,3.23,8.21,4.85Z"/>
        <path class="cls-35" d="M345.18,727.73c-1.98-8.47-1.12-16.67,2.34-24.62.46-.8.13-1.94,1.09-2.53,1.52-.03,3.04-.06,4.56-.09,4.84,12.93,12.94,23.1,25.21,29.73,3.2,3.98,7.28,5.17,12.41,5.17,9.01,0,18.1-1.3,27.03,1.02q.45,8.55-8.12,8.55c-5.35,0-10.76-.51-16.03.1-11.68,1.36-21.78-1.79-30.76-9.18-1.19-.98-2.67-1.61-4.45-2.66-.7,2.79-1.35,5.22-1.9,7.67-.56,2.5-1.33,4.17-4.63,3.87-3.01-.28-4.1-1.42-4.47-4.24-.57-4.29-1.49-8.53-2.27-12.79Z"/>
        <path class="cls-39" d="M348.61,700.59c.03,1.01-.23,1.9-1.09,2.53-.93-1.49-2.56-1.17-3.93-1.54,1.52-1.13,3.26-1.12,5.02-.99Z"/>
        <path class="cls-30" d="M356.75,433.79c-.72.5-1.44,1.01-2.16,1.51-.97,1.23-1.7,2.69-3.22,3.4-1.77,1.04-3.51,2.15-5.43,2.89-1.42.45-2.71,1.17-3.95,1.99-1.46.96-2.98,1.81-4.54,2.6-1.34.64-2.64,1.36-3.87,2.21-1.47.97-3.02,1.81-4.65,2.47-.92.36-1.82.76-2.67,1.29-1.94,1.14-3.92,2.21-5.92,3.24-1.57.76-3.15,1.51-4.58,2.52-1.48.98-3.03,1.84-4.61,2.64-1.36.64-2.69,1.33-4,2.07-1.74.95-3.42,2.03-5.24,2.82-.69.27-1.3.68-1.95,1.04-1.93,1.13-3.89,2.18-5.86,3.22-.88.48-1.77.93-2.64,1.41-1.77.96-3.46,2.09-5.36,2.8-1.91.62-3.52,1.79-5.18,2.87-1.74,1.02-3.59,1.8-5.34,2.81-.67.4-1.31.83-1.97,1.24-2.03,1.3-4.17,2.4-6.31,3.48-.69.38-1.4.73-2.11,1.07-1.9.88-3.76,1.84-5.63,2.78-1.55.68-3.04,1.6-4.84,1.43-1.28-.29-2.21-1.04-2.9-2.13-6.32-17.42-10.85-35.38-16.13-53.11-.51-1.71-.72-3.55.7-5.07,39.39-2.12,78.79-4.24,118.18-6.37,4.78,2.81,1.34,7.26,2.18,10.86Z"/>
        <path class="cls-62" d="M324.67,508.09c.85.37,1.7.74,2.55,1.11-4.41-.54-7.42,1.93-10.43,4.65-8.5,7.7-17.77,14.54-25.58,23.02-.37-.01-.74-.03-1.11-.03-5.59-5.96-11.18-11.92-16.76-17.87,7.06-5.29,15.38-8.4,22.75-13.14,9.29,3.71,19.01,2.03,28.58,2.27Z"/>
        <path class="cls-9" d="M339.39,197.66c-2.29-10.87-4.4-21.78-6.97-32.58-1.09-4.58-.61-6.71,4.67-7.62,9.5-1.64,9.23-1.96,11.72,7.24,2.74,10.1,4.26,20.52,8.09,30.33,2.68,2.42,3.53,5.13,1.29,8.32,1.06,3.2,2.14,6.4,2.26,9.81-5.18,3.25-10.6,4.88-16.6,2.37-.82-2.06-1.64-4.11-2.47-6.17-3.12-3.48-2.72-7.57-1.99-11.71Z"/>
        <path class="cls-36" d="M305.29,241.78c-2.61-1.37-5.22-2.74-7.77-4.07,13.36-4.06,36.22-1.67,51.07,5.38-3.1,3.15-7.19,1.62-10.82,2.2-5.84.94-11.76.99-17.68,1.11-5.51.11-10.57-.83-14.8-4.62Z"/>
        <path class="cls-23" d="M339.39,197.66c.66,3.9,1.33,7.81,1.99,11.71-2.8-1.49-5.76-1.1-8.74-.8-15.4,1.51-30.85.89-46.29.78,12.81-3.35,26.03-4.52,38.94-7.26,4.76-1.01,10.41.18,14.1-4.43Z"/>
        <path class="cls-47" d="M305.29,241.78c14.33,3.72,28.81,2.78,43.3,1.31,1.62,1.54.31,1.85-.92,2.07-9.16,1.61-18.44,2.74-27.46,4.92-8.02,1.94-11.43-2.88-14.92-8.29Z"/>
        <path class="cls-44" d="M358.19,203.35c-.43-2.77-.86-5.55-1.29-8.32,8.39-2.34,16.77-4.67,25.16-7.01-7.33,6.08-14.69,12.13-23.87,15.33Z"/>
        <path class="cls-37" d="M343.85,215.54c5.53-.79,11.07-1.58,16.6-2.37-.38.7-.71,1.43-1.13,2.09q-7.04,10.94-15.47.28Z"/>
        <path class="cls-59" d="M249.37,492.36c1.52-1.28,3.79-1.91,3.82-4.46.74.35,1.49.7,2.23,1.06,2.64,1.13,2.96.95,3.75-2.16,1.94-.86,3.88-1.72,5.82-2.58.75.33,1.25.94,1.7,1.6-.26-.85-.98-1.65-.33-2.61,2.32-1.15,4.63-2.3,6.95-3.46.79.49,1.32,1.18,1.55,1.92.06-.95-.87-2.05-.09-3.18,1.89-.97,3.78-1.95,5.68-2.92,5.25,1.32,6.47,5.11,6.03,9.9-1.01,2.21-3.21,2.89-5.16,3.72-8.88,3.81-16.66,9.82-25.86,13-3.9-2.12-5.57-5.62-6.1-9.83Z"/>
        <path class="cls-59" d="M328.22,449.57c1.58-.84,3.17-1.68,4.75-2.51,2.29-1.13,3.13.51,4.14,2.36-.5-1.67-1.94-3-.4-4.51,1.56-.84,3.12-1.67,4.69-2.51,3.55-.66,3.09,3.21,4.75,4.27-.78-1.94-3.52-3.71-.97-6.45,1.93-.87,3.86-1.75,5.79-2.62,3.72,2.15,5.52,5.25,4.78,9.62-4.66,6.09-12.15,7.75-18.36,11.32-3.86,2.22-7.09,6.81-12.62,5.39-3.72-2.14-6.07-4.99-5.01-9.63,2.04-1.13,4.08-2.26,6.13-3.39,1.1.15,1.54,1.03,2.02,1.77.15-.44-.25-.66-.29-1.01-.2-.84.07-1.52.61-2.11Z"/>
        <path class="cls-59" d="M293.48,468.62c2.04-1.12,4.09-2.24,6.13-3.37.8.26,1.29.86,1.74,1.52-.24-.85-.94-1.66-.23-2.59,1.86-.95,3.72-1.89,5.59-2.84,2.57,1.62,3.06-.39,3.7-2.13,1.57-.86,3.13-1.73,4.7-2.59,5.07,1.29,6.94,4.59,6.05,9.63-9.36,7.4-19.98,12.49-31.02,16.79-3.93-2.48-7.05-5.32-4.64-10.58,1.92-.88,3.84-1.76,5.77-2.63.39.09.74.27,1.02.53.58.53.93,1.22,1.33,1.87-.18-.68-.63-1.28-.68-2-.05-.6.19-1.14.54-1.62Z"/>
        <path class="cls-14" d="M239.84,497.6c2.12-1.17,4.23-2.33,6.35-3.5,4.56,2.13,5.98,5.92,5.63,10.65-4.01,2.36-8.03,4.71-12.05,7.07-3.58-2.44-7.06-5-9.78-8.44,2.3-2.59,5.41-3.78,8.55-4.91,1.08.48,1.32,1.65,2,2.46-.53-1.05-.92-2.12-.7-3.33Z"/>
        <path class="cls-58" d="M285.51,472.47c-.21,4.3,3.3,6.96,4.64,10.58-.67,1.63-1.89,2.44-3.65,2.41-1.99-3.31-2.79-7.35-6.03-9.9,1.25-1.74,3.13-2.45,5.05-3.09Z"/>
        <path class="cls-12" d="M251.81,504.75c-1.88-3.55-3.75-7.1-5.63-10.65,1.06-.58,2.12-1.16,3.19-1.74,2.87,2.75,4.11,6.53,6.1,9.83-.68,1.62-2.04,2.28-3.66,2.56Z"/>
        <path class="cls-12" d="M355.74,447.22c-1.59-3.21-3.18-6.41-4.78-9.62,1.21-.76,2.42-1.53,3.63-2.29,1.6,3.17,3.21,6.33,4.81,9.5-.21,2.35-1.07,3.69-3.66,2.41Z"/>
        <path class="cls-12" d="M321.16,466.26c-1.62-3.46-2.83-7.17-6.05-9.63,1.29-1.28,2.84-2.07,4.64-2.33,1.67,3.21,3.34,6.42,5.01,9.63-.23,2.28-1.73,2.58-3.6,2.33Z"/>
        <path class="cls-52" d="M240.15,751.88c1.57-1.82.73-4.04,1.03-6.07.74.03,1.48.07,2.22.11,14.39-4.21,29.08-1.81,43.65-1.96,2.23-.02,4.15,1.21,5.41,3.21q.36,8.19-7.43,8.19c-13.06,0-26.13-.03-39.19.02-2.71.01-5.27.09-5.68-3.5Z"/>
        <path class="cls-48" d="M292.46,747.16c-2.35-1.39-4.95-1.16-7.52-1.17-13.85-.03-27.69-.06-41.54-.08,11.82-7.11,24.63-12.17,37.08-17.96,1.06,1.31,2.12,2.61,3.18,3.92,2.23,5.5,7.21,9.41,8.79,15.29Z"/>
        <path class="cls-26" d="M323.52,170.14c2.77,5.39,2.7,11.51,4.38,17.18.59,1.99-.27,2.95-2.21,3.28-13.25,2.27-26.49,4.59-39.75,6.8-.57.1-1.28-.67-1.93-1.03.7-8.76,5.24-16.1,8.87-23.77.6-1.26,1.76-2.4,3.14-2.58,9.16-1.14,18.35-1.97,27.5.12Z"/>
        <path class="cls-49" d="M377.19,148.72c2.1-.53,4.19-1.1,6.3-1.57q9.52-2.13,11.32,7.51c.82,4.46,1.38,8.99,2.41,13.4.72,3.09-.54,4.36-3.24,5.08-3.62.97-7.2,2.07-10.8,3.12-.19-.03-.46.02-.57-.09-4.1-3.88-7.68-22.04-5.42-27.44Z"/>
        <path class="cls-23" d="M323.52,170.14c-7.45,1.84-15.04,1.1-22.54.91-4.67-.12-6.77,1.79-8.3,5.8-2.54,6.65-5.07,13.33-8.67,19.53-2.26-7.19-2.12-14.76-3.47-22.09-.47-2.54.52-3.93,3.28-4.52,11.56-2.49,23.01-5.58,34.64-7.7,6.66-1.21,4.45,4.67,5.06,8.09Z"/>
        <path class="cls-29" d="M377.19,148.72c1.11,9.37,3.29,18.51,5.99,27.53-5.95,1.97-11.94,3.81-17.82,5.95-2.58.94-3.51.14-4.08-2.29-1.34-5.73-2.84-11.41-4.27-17.12,3.96-7.11,11.31-9.62,17.87-13.21.77-.29,1.53-.59,2.3-.88Z"/>
        <path class="cls-4" d="M297.35,155.54c-5.12-3.17-10.24-6.34-15.35-9.51,12.86,1.04,25.75.19,38.2,3.65-7.29,3.22-15.16,4.21-22.85,5.86Z"/>
        <path class="cls-20" d="M374.89,149.6c-5.96,4.4-11.91,8.8-17.87,13.21-2.92-8.03-2.95-8.11,5.23-10.35,4.16-1.14,8.42-1.92,12.64-2.86Z"/>
        <path class="cls-40" d="M366.6,123.93c-8.03,4.36-15.29,8.51-23.69,11.82,7.49-13.6,11.58-15.68,23.69-11.82Z"/>
        <path class="cls-37" d="M220.91,227.89c-6.18-1.66-11.26-3.03-16.29-4.38,0-.68-.16-1.19.02-1.43,2.17-2.77,5.28-7.75,7.33-6.82,4.24,1.93,6.18,7.14,8.94,12.63Z"/>
        <path class="cls-34" d="M378.52,423.19c2.48,1.29,2.73,3.93,3.88,6.08-3.64-.39-3.52-3.93-5.3-5.83.47-.08.94-.16,1.41-.25Z"/>
        <path class="cls-60" d="M371.12,426.83c1.04,2.1,2.08,4.21,3.71,7.49-4.02-1.45-4.1-4.75-5.93-6.39.74-.37,1.48-.73,2.22-1.1Z"/>
        <path class="cls-18" d="M362.78,435.46c-1.09-.94-1.56-2.64-3.34-2.73,1.16-.71,2.31-1.41,3.46-2.11.38,1.16.75,2.32,1.13,3.48-.34.52-.46,1.25-1.25,1.36Z"/>
        <path class="cls-50" d="M191.8,553.64c-2.79-.11-4.45-1.24-4.34-3.93.1-2.48,1.65-4.17,4.06-4.18,2.44-.02,3.95,1.77,4.09,4.18.15,2.66-1.54,3.82-3.8,3.93Z"/>
        <path class="cls-57" d="M447.71,385.12c3.2.72,3.86,3.32,3.65,6.56-1.21-2.19-2.43-4.37-3.64-6.56,0,0,0,0,0,0Z"/>
        <path class="cls-16" d="M362.78,435.46c.42-.45.83-.91,1.25-1.36.6,1.32,1.2,2.64,1.89,4.16-2.64.3-2.63-1.5-3.14-2.79Z"/>
        <path class="cls-7" d="M187.32,525.96c2.61,1.31,3.93,3.48,4.66,7.95-3.12-2.84-4.14-5.21-4.72-7.89,0,0,.06-.05.06-.05Z"/>
        <path class="cls-5" d="M195.77,521.31c2.74,1.32,3.06,4,3.75,6.47-2.3-1.56-3.45-3.77-3.79-6.45,0,0,.03-.02.03-.02Z"/>
        <path class="cls-10" d="M336.72,444.91c.87,2.49,1.75,4.99,2.81,8.03-3.77-.68-3.13-5.65-6.55-5.88,1.25-.72,2.49-1.43,3.74-2.15Z"/>
        <path class="cls-22" d="M345.18,440.22c-.81,3.04,2.24,5.2,2.17,8.44-3.17-1.36-3.14-5.16-5.95-6.26,1.26-.73,2.52-1.45,3.78-2.18Z"/>
        <path class="cls-55" d="M293.48,468.62c1.01,2.44,2.01,4.88,3.43,8.3-4.02-1.67-4.19-4.88-5.64-7.09.74-.41,1.47-.81,2.21-1.22Z"/>
        <path class="cls-38" d="M310.42,459.22c-.72,2.81,2.03,4.89,1.97,8.12-3.19-1.29-3.02-5.01-5.67-5.99,1.23-.71,2.47-1.42,3.7-2.13Z"/>
        <path class="cls-27" d="M259.17,486.79c-.81,2.74,1.79,4.64,1.9,7.64-3.1-.86-3.1-4.58-5.65-5.47,1.25-.72,2.5-1.44,3.75-2.16Z"/>
        <path class="cls-3" d="M274.78,478.48c1.05,2.4,2.09,4.81,3.78,8.68-3.75-2.49-4.54-4.93-5.25-7.42.49-.42.98-.84,1.47-1.26Z"/>
        <path class="cls-7" d="M266.37,483.2c1.17,2.31,2.33,4.62,3.5,6.92-3.12-1.04-3.71-3.67-4.87-5.91.46-.34.91-.68,1.37-1.02Z"/>
        <path class="cls-13" d="M301.13,464.18c.58,2.5,3.1,4.14,3.11,7.77-2.84-1.84-3.31-4.6-4.63-6.7.51-.36,1.01-.72,1.52-1.08Z"/>
        <path class="cls-17" d="M328.22,449.57c.04.78.08,1.55.12,2.33.56,1.3-.1,1.46-1.16,1.26-.44-.75-.87-1.49-1.31-2.24.51-.91,1.32-1.31,2.34-1.34Z"/>
        <path class="cls-21" d="M239.84,497.6c1.22,2.29,2.44,4.58,3.66,6.87-3.4-.95-4.34-3.37-4.97-6,.43-.29.87-.58,1.3-.87Z"/>
        <path class="cls-45" d="M327.19,453.15c.39-.42.77-.84,1.16-1.25,1.17,1.45,2.59,2.81,2,5.12-1.77-.82-2.35-2.44-3.16-3.86Z"/>
        <path class="cls-46" d="M308.03,173.36c4.08.3,6.51,2.58,6.54,6.39.03,4.11-2.63,6.81-6.76,6.62-3.74-.17-6.17-2.66-6.08-6.67.09-4.02,2.5-6,6.31-6.34Z"/>
        <path class="cls-32" d="M375.27,165.01c-.56,3.62-2.27,6.28-6.42,6.12-4.2-.15-6.7-2.68-6.6-6.75.09-3.76,2.57-6.28,6.47-6.26,4.2.02,6.33,2.61,6.55,6.88Z"/>
      </g>
    </g>
  </g>
</svg>