<?xml version="1.0" encoding="UTF-8"?>
<svg xmlns="http://www.w3.org/2000/svg" version="1.1" viewBox="0 0 880 800">
  <defs>
    <style>
      .cls-1 {
        fill: #fefdfd;
      }

      .cls-2 {
        fill: #84c7ca;
      }

      .cls-3 {
        fill: #474746;
      }

      .cls-4 {
        fill: #66a6a8;
      }

      .cls-5 {
        fill: #e2c9b7;
      }

      .cls-6 {
        fill: #4a8da3;
      }

      .cls-7 {
        fill: #8e8e8e;
      }

      .cls-8 {
        fill: #549cb5;
      }

      .cls-9 {
        fill: #75bdd4;
      }

      .cls-10 {
        fill: #3d7789;
      }

      .cls-11 {
        fill: #74bdd5;
      }

      .cls-12 {
        fill: #dcdcdb;
      }

      .cls-13 {
        fill: #bc987e;
      }

      .cls-14 {
        fill: #c8d5da;
      }

      .cls-15 {
        fill: #d9bca6;
      }

      .cls-16 {
        fill: #387376;
      }

      .cls-17 {
        fill: #477e81;
      }

      .cls-18 {
        fill: #c3c3c3;
      }

      .cls-19 {
        fill: #2d2c2c;
      }

      .cls-20 {
        fill: #387477;
      }

      .cls-21 {
        fill: #bc977e;
      }

      .cls-22 {
        fill: #484747;
      }

      .cls-23 {
        fill: #75bdd5;
      }

      .cls-24 {
        fill: #3d7788;
      }

      .cls-25 {
        fill: #4c8ea4;
      }

      .cls-26 {
        fill: #846754;
      }

      .cls-27 {
        fill: #4b8da3;
      }

      .cls-28 {
        fill: #464646;
      }

      .cls-29 {
        fill: #866855;
      }

      .cls-30 {
        fill: #77acac;
      }

      .cls-31 {
        fill: #74bdd4;
      }

      .cls-32 {
        fill: #dfc64f;
      }

      .cls-33 {
        fill: #5e969a;
      }

      .cls-34 {
        fill: #2c5d5e;
      }

      .cls-35 {
        fill: #4a8ca2;
      }

      .cls-36 {
        fill: #2e2d2d;
      }

      .cls-37 {
        fill: #6e7073;
      }

      .cls-38 {
        fill: #549db6;
      }

      .cls-39 {
        fill: #4f9093;
      }

      .cls-40 {
        fill: #4a8da2;
      }

      .cls-41 {
        fill: #856754;
      }
    </style>
  </defs>
  <!-- Generator: Adobe Illustrator 28.7.1, SVG Export Plug-In . SVG Version: 1.2.0 Build 142)  -->
  <g>
    <g id="Layer_1">
      <g>
        <path class="cls-18" d="M191.52,655.37c-1.25-1.96-1.9-4.26-4.66-5.05-9.44-2.68-18.82-5.57-28.23-8.38-.39-2.63-.33-5.2.37-7.81,6.75-25.19,13.26-50.44,20.2-75.58,9.34-36.42,19.25-72.7,28.8-109.07.88-3.36,1.28-6.92,3.57-9.77.49-.52,1.09-.9,1.77-1.13,1.07-.15,2.02.17,2.93.69,32.54,25.33,64.88,50.94,97.35,76.37,2.69,2.1,5.85,4.01,6.86,7.72-.2,3.13-2.7,4.32-4.91,5.69-5.03,3.12-10.07,6.24-15.31,9-3.37,1.77-4.06,4.07-2.37,7.56,1.88,3.88,4.86,7.43,4.38,12.19-2.56,7.09-7.03,13.13-10.97,19.42-2.9,4.62-2.91,8.3.74,12.4,16.18,18.17,32,36.65,48.09,54.91,8.4,9.54,16.87,19.02,25.1,28.7,6.36,7.49,7.08,7.74,16.19,4.36,23.43-8.69,47.01-16.98,70.65-25.11,2.78-.96,5.62-2.78,8.79-1-6.38,24.56-12.79,49.11-19.11,73.68-.95,3.7-2.68,4.09-6.18,2.97-30.26-9.64-60.57-19.11-90.89-28.58-9.4-2.94-18.86-5.71-28.28-8.59-1.51-.46-2.96-.8-4.44,0-1.01-.02-2.03-.04-3.04-.18-28.64-8.84-57.15-18.11-85.81-26.88-10.42-3.19-20.54-7.63-31.59-8.54Z"/>
        <path class="cls-15" d="M662.46,107.92c-1.9,10.64-6.18,20.56-9.51,30.75-21.28,65.09-42.75,130.11-64.12,195.17-2.88,8.75-5.54,17.57-8.31,26.36-.53.47-1.13.82-1.8,1.04-11.51-.79-21.93-5.69-32.83-8.79-16.19-4.95-32.56-9.27-48.61-14.69-13.03-4.87-26.55-8.23-39.64-12.92-2.6-.93-5.63-1.21-6.93-4.28-.63-3.2.78-6.04,1.68-8.95,22.56-73.27,45.26-146.49,67.69-219.8,2.5-8.16,4.21-16.62,8.11-24.32.43-.54.98-.92,1.63-1.16,3.32-.5,5.16,1.91,7.26,3.77,18.74,16.52,38.08,32.32,56.86,48.8.48.42,1.16.6,1.79.82,14.23-1.49,27.83-5.97,41.83-8.52,5.6-1.02,11.16-2.35,16.68-3.76,2.77-.71,5.59-1.41,8.23.47Z"/>
        <path class="cls-2" d="M214.14,438.99c-.45.03-.91.06-1.36.09-.2-.28-.4-.56-.61-.84-.51-6.09,2.09-11.57,3.52-17.25,2.32-9.14,5.16-18.14,6.95-27.42,7.11-21.28,11.92-43.21,18.07-64.76,7.42-25.99,14.2-52.17,21.28-78.26,1.62-5.95,3.72-11.7,6.25-17.31-.45-4.95,3.19-5.72,6.7-6.22,19.61-2.79,39.23-5.48,58.85-8.18,3.66-.5,7.33-.92,11-1.37.31.3.61.6.93.9,1.26,1.92,1.5,4.12,1.51,6.32.07,8.77,1.2,17.57,1.11,26.26-.43,45.43,2.31,90.81,1.52,136.23-.55,3.39-.83,6.79-.24,10.22-.02.37-.05.75-.07,1.12-.17.74-.55,1.35-1.12,1.85-14.72,5.74-30.14,9.26-45.2,13.94-25.13,7.8-50.4,15.16-75.6,22.76-4.4,1.33-8.76,2.96-13.5,1.94Z"/>
        <path class="cls-18" d="M348.5,399.51l.16-1.31c.42-3.05,2.92-4.23,5.15-5.57,7.71-4.63,15.19-9.64,23.02-14.04,4.57-2.57,8.6-5.32,8.66-11.3.01-1.08.79-2.02,1.95-2.42.21.07.56.1.6.23,2.68,8.41,9.95,9.45,17.13,11.2,17.34,4.23,34.67,8.53,51.86,13.36,18.35,4.58,36.8,8.77,54.74,14.85,5,3.16,7.58,8.43,10.71,13.08,4.49,6.67,10.68,12.23,13.39,20.08.06.87.13,1.8-.29,2.57-6.91,12.6-13.92,25.15-21.81,37.18-.34.52-1.03.79-1.57,1.16-2.69,3.97-5.37,7.94-8.06,11.91-3.61.07-4.89-2.92-5.88-5.32-6.72-16.31-18.88-26.05-35.62-30.69-3.73-1.03-6.99-3.59-11.04-3.81-10.25,3.08-18.44,9.98-27.66,14.95-3.07,1.65-5.79,4.05-9.6,3.78-11.13-3.29-21.83-7.82-32.81-11.54-.62-.26-1.18-.61-1.69-1.04-10.79-16.86-20.3-34.47-30.42-51.73-.98-1.66-1.79-3.54-.89-5.59Z"/>
        <path class="cls-14" d="M303.74,759.61c14.62-.02,29.26-.5,43.85.04,26.67.99,53.33,2.31,79.96,4.03,15.28.99,30.54,1.9,45.84,2.59,28.82,1.3,57.61,3.42,86.42,5.02,12.68.71,25.38.95,38.07,1.48,2.69.11,5.74-.85,8.22,2.46-14.43-.01-28.26,1.84-42.16,2.71-23.33,1.46-46.62,3.52-69.94,5.04-15.05.98-30.11,1.98-45.16,2.95-22.67,1.46-45.35,2.74-67.97,5.06-7.82.8-15.71.68-23.58,1.3-11.32.9-22.65,2-33.97,2.59-10,.52-20.1-.69-30.13-1.37-8.71-.59-17.39-1.58-26.09-2.29-21.33-1.74-42.67-3.42-64-5.11-12.2-.96-24.4-1.86-36.6-2.82-21.77-1.71-43.52-3.96-65.33-4.98-14.59-.68-29-2.79-43.59-3.75,8.34.18,16.52-1.41,24.78-1.82,17.91-.9,35.84-1.7,53.74-2.74,20.29-1.18,40.57-2.58,60.85-3.88,1.46.98,1.93,2.44,2.01,4.09.05.77.12,1.55.21,2.32,1.15,8.16,1.15,8.27,9.2,8.28,33.05.06,66.1.07,99.15,0,8.27-.02,8.87-.9,7.53-9.33-1.44-2.94-4.61-3.89-6.83-5.92-1.85-1.7-4.64-2.71-4.46-5.94Z"/>
        <path class="cls-23" d="M632.43,371.77c-.01-3.96-.03-7.91-.04-11.87,2.33-2.48,5.61-1.62,8.42-2.44,56.21-.29,112.42-.21,168.62-.1,2.36.19,4.88.76,5.84-2.46.51-4.41.18-8.81.2-13.2.01-3.86-1.94-5.57-5.71-5.56-2.64,0-5.27-.05-7.91-.05-52.5,0-105.01.02-157.51-.04-4.08,0-8.45.84-11.9-2.45-.02-9.28-.04-18.55-.07-27.83,1.63-1.48,3.63-1.29,5.6-1.29,58.52.13,117.04.03,175.56.05,1.1,0,2.19.09,3.26.37.87.11,1.67.41,2.39.91-.02,22.42-.04,44.85-.06,67.27-.39.18-.78.36-1.17.55-.43.03-.86.05-1.29.08-58.08,0-116.15.02-174.23-.04-3.4,0-7.1.93-10.01-1.91Z"/>
        <path class="cls-2" d="M679.62,462.69c-23.36,11.96-46.73,23.92-70.08,35.9-10.3,5.28-20.55,10.67-30.9,15.85-1.72.86-3.41,3.23-5.82,1.18,1.29-13.12,4.63-25.87,7.22-38.75,3.85-19.13,7.87-38.22,11.72-57.35.59-2.95.78-6.17,3.57-8.21,5.25.07,10.53-.14,15.75.28,5.13.41,7.34-1.32,6.69-6.6-.23-1.86-.57-3.98,1.08-5.59.35.26.93.51.97.84,1.12,9.21,7.76,8.75,14.54,8.65,11.42-.18,22.84-.15,34.26.01,3.47.05,7.15-.11,9.53,3.29,2.14,8.53,2.13,17.3,2.67,25.99.37,5.89-.22,11.82.58,17.7.34,2.51-.3,4.77-1.77,6.81Z"/>
        <path class="cls-35" d="M118.98,214.77c15.82-20.51,31.59-41.06,47.46-61.54,30.95-39.93,61.94-79.82,92.93-119.72,1.21-1.56,2.51-3.06,3.76-4.58,4.53,1.58,3.65,5.56,3.36,8.75-1.58,17.4-2.66,34.83-4.24,52.22-.77,8.47-.99,17.01-2.52,25.4-.27,10.52-7.28,15.82-15.3,20.98-39.05,25.14-77.28,51.54-116.7,76.11-2.54,1.59-4.98,4.8-8.75,2.38Z"/>
        <path class="cls-4" d="M595.32,411.31c-3.24,16.92-6.37,33.85-9.74,50.74-3.2,16.04-6.71,32.02-9.95,48.05-.44,2.2-.48,4.38-2.81,5.51-20.21-12.34-40.42-24.69-60.62-37.03,5.71-13.08,13.93-24.76,20.85-37.16.63-1.13,1.1-2.35,1.65-3.52,2.39-10.08,9-18,13.84-26.8,8.68-15.79,18.33-31.02,27.18-46.72,1-1.78,2.27-3.21,3.94-4.33.29.07.58.12.87.15,4.93,17.04,9.87,34.07,14.8,51.11Z"/>
        <path class="cls-8" d="M118.98,214.77c9.03-3.56,16.73-9.47,24.76-14.67,34.4-22.31,68.56-45,102.86-67.48,5.74-3.76,10.73-7.89,11.02-15.45,1.72,3.83,3.91,4.43,7.94,2.5,3.94-1.88,8.24-5.79,13.08-1.37,1.95,12.98,2.42,26.1,3.74,39.13.66,6.52,1.55,13.02,1.82,19.59.11,2.65.56,5.26-1.43,7.46-15.6,4.36-31.57,7.02-47.41,10.24-36.92,7.5-73.89,14.79-110.84,22.15-1.72.34-3.45.64-5.19.82-.85.09-2.49,1.08-2.06-1.07.14-.7,1.12-1.24,1.71-1.85Z"/>
        <path class="cls-23" d="M277.54,117.32c-4.41,1.17-8.59,2.92-12.77,4.74-6.85,2.98-6.93,2.8-7.14-4.9,2.17-25.82,4.42-51.63,6.44-77.46.28-3.54,1.49-7.38-.93-10.77.48-.94.96-1.88,1.44-2.82,6.38-4.29,13.39-6.9,20.99-7.95l2.47,1.39c4.75,2.05,8.17,5.88,11.84,9.25,17.1,15.72,34.82,30.75,51.53,46.9,2.15,2.08,4.78,4.02,4.64,7.59-2.05,4.49-6.98,4.5-10.48,6.73-8.68,3.72-17.29,7.63-26.24,10.71-7.51,3.61-15.3,6.56-22.9,9.95-6.54,1.52-11.64,7.15-18.89,6.64Z"/>
        <path class="cls-7" d="M460.85,651.48c-27.85,9.9-55.73,19.72-83.52,29.79-4.09,1.48-6.74,1.09-9.66-2.29-16.74-19.37-33.69-38.56-50.54-57.84-9.79-11.21-19.42-22.55-29.33-33.66-2.19-2.46-2.25-4.36-.64-6.93,4.76-7.6,9.42-15.25,14.12-22.89,3.68.07,4.23,3.31,5.54,5.64,12.72,22.74,23.44,46.53,36,69.36,5.02,9.11,4.79,9.15,14.07,3.76,3.51-2.04,6.71-5.16,11.36-4.23.59.28,1.1.66,1.54,1.13,2.95,4.35,5.13,9.15,7.62,13.76,2.31,4.27,4.64,4.83,8.86,2.57,15.61-8.38,30.72-17.66,46.28-26.13,11.91-6.48,23.48-13.57,35.54-19.78,1.87-.97,3.72-2.54,6.04-1-4.11,16.33-8.1,32.7-13.28,48.75Z"/>
        <path class="cls-8" d="M811.5,359.89c-57.11,0-114.23,0-171.34-.01-2.37-1.68-5.41.43-7.76-1.36.01-8.3.02-16.6.04-24.91,59.9-.04,119.81-.04,179.71-.19,4.55-.01,6.29,1.38,6.05,6.03-.33,6.35-.1,12.73-.11,19.09-1.95,1.66-4.63-.25-6.59,1.36Z"/>
        <path class="cls-8" d="M355.44,83.04c-8.43-10.51-19.29-18.48-28.97-27.68-12.69-12.06-26.67-22.74-38.42-35.8,18,2.28,36.02,4.45,54.01,6.87,25.14,3.39,50.26,6.97,75.39,10.46.51.58.92,1.22,1.24,1.92.18,11.31-2.78,22.14-5.17,33.05-.29,1.31-1.24,2.3-2.41,3.02-14.76,4.14-30,5.77-45.01,8.62-3.51.67-7.23,2.42-10.65-.46Z"/>
        <path class="cls-40" d="M818.21,305.82c-2.04,1.88-4.57,1.23-6.92,1.23-56.62.03-113.25.01-169.87.06-3.12,0-6.1-.42-9.05-1.34.02-10.47.03-20.95.05-31.42,2.86-.79,4.43,1.29,6.14,2.88,2.72,2.53,5.37,5.14,7.89,7.87,2.81,3.04,5.39,3.26,8.27.13,1.92-2.09,4-4.03,6.02-6.03,7.47-7.4,9.26-7.43,16.55-.22,2.02,2,4.13,3.92,6.01,6.04,3.05,3.43,5.61,2.99,8.76-.1,4.02-3.94,7.28-8.81,12.67-11.21,3.78-.38,6.72,1.23,9.32,3.82,2.63,2.62,5.32,5.18,7.88,7.87,2.67,2.8,5.08,2.85,7.77.03,2.71-2.84,5.53-5.58,8.34-8.34,2.07-2.03,4.24-3.82,7.42-3.43,5.6,2.45,8.9,7.55,13.12,11.57,2.97,2.84,5.24,3.07,8.25.09,3.85-3.8,7.16-8.22,11.88-11.09,4.67-1.79,7.4,1.35,10.24,4.09q10.58,10.21,21.97.69c1.18-.99,2.27-2.1,3.64-2.82,2.33-1.23,4.33-1.62,4.21,2.09-.3,9.18.69,18.39-.54,27.56Z"/>
        <path class="cls-28" d="M593.95,121.36c-21.1-18.08-42.2-36.16-63.3-54.24-5.3-.8-8.62-4.82-12.26-8.03-9.29-8.22-18.37-16.67-27.54-25.02-1.95-1.78-5.66-4.51.29-6.31,25.85-2.55,51.71-5.09,77.56-7.63,1.05-.1,2.18-.42,2.97.67,2.78,4.03,4.43,8.5,5.51,13.27,5.99,26.34,12.32,52.59,18.28,78.94.62,2.74,3.09,6.34-1.52,8.34Z"/>
        <path class="cls-39" d="M181.08,558.98c-6.98,26.45-13.96,52.9-20.97,79.34-.33,1.25-.98,2.42-1.48,3.62-.39-.3-.78-.6-1.17-.9-3.02-3.56-4.8-7.83-6.72-12-12.66-27.44-26.77-54.17-39.78-81.45-1-2.1-2.79-4.12-.98-6.66,19.73-5.33,39.47-10.65,59.19-16.01,2.04-.56,4.39-.6,5.66-2.78,5.1,2.36,2.69,7.2,3.63,10.94-.44,2.6-.61,5.18.87,7.57,2.36,5.94,1.31,12.2,1.75,18.32Z"/>
        <path class="cls-34" d="M98.29,618.64c-12.02,18.81-24.03,37.62-36.05,56.43-4.78.77-4.12-2.97-4.05-5.43.45-15.53,1.3-31.05,2.37-46.53.75-10.91,1.13-21.83,1.89-32.74,1.15-16.58,1.81-33.19,3.05-49.77.23-3.11-.46-7.72,5.34-6.79,12.62,2.34,25.24,4.69,37.86,7.03,2.16,4.93,2.46,9.97,1.65,15.32-2.57,17.04-5.31,34.06-7.55,51.15-.54,4.13-1.36,8.22-4.51,11.34Z"/>
        <path class="cls-10" d="M474.13,602.73c-25.79,14.47-51.57,28.94-77.37,43.39-4.59,2.57-9.39,4.8-13.81,7.61-2.8,1.78-3.78.6-4.95-1.66-3.11-6.03-6.33-12.01-9.51-18.01,3.08-2.2,5.99-.69,8.61.77,3.75,2.08,7.04,1.44,10.52-.56,38.76-22.25,78.01-43.62,116.78-65.86,5.13-2.94,10.48-5.5,15.46-8.7,1.6-1.03,3.77-1.47,4.16-3.81-5.13-11.95-12.72-22.49-19.05-33.73-8.28-14.69-17.07-29.09-25.33-43.79-2.69-4.79-6.09-8.42-11.31-10.4-2.85-1.08-5.74-2.18-8.32-3.89-4.28-4.44-8.97-8.68-8.41-15.72,11.76,3.48,22.56,9.32,33.92,13.79,2.39.94,3.29,3.38,4.54,5.44,4.65,7.65,9.37,15.26,14.06,22.89,9.07,17.56,20.18,33.93,29.99,51.05,3.06,5.33,6.16,10.65,9.47,15.82,2.08,3.26,1.86,4.94-1.89,7.03-22.62,12.6-45.07,25.52-67.57,38.34Z"/>
        <path class="cls-20" d="M268.26,233.25c-1.66,13.32-6.35,25.89-9.76,38.76-10.25,38.73-20.93,77.34-31.56,115.96-.65,2.36-.28,5.48-3.35,6.74-2.43,1.38-4.73.33-6.94-.53-9.62-3.71-19.21-7.5-28.73-11.47-2.53-1.05-5.65-1.81-5.5-5.61,24.06-40.81,48.05-81.65,72.22-122.39,4.32-7.28,7.73-15.17,13.61-21.47Z"/>
        <path class="cls-34" d="M303.74,759.61c4,3.06,8.01,6.11,12.01,9.17-1.63,4.84-5.93,3.76-9.34,3.82-14.91.24-29.82.15-44.73.09-19.07-.07-38.15.26-57.23-.15-2.45-.63-5.25-.33-7.16-2.5-.12-1.3-.23-2.61-.35-3.91,1.32-15.85,2.63-31.7,3.95-47.55,2.81-2.69,6.18-1.89,9.31-1.14,15.75,3.74,31.58,7.13,47.19,11.41,2.76.76,5.46,1.68,7.29,4.11,13.02,8.89,26.04,17.78,39.06,26.67Z"/>
        <path class="cls-20" d="M191.52,655.37c.75-4.27,3.37-2.19,5.45-1.55,25.34,7.83,50.68,15.65,75.99,23.56,12.53,3.92,25.27,7.18,37.38,12.38-1.8,3.72-5.55,4.51-8.92,5.31-29.79,7.14-59.45,14.81-89.32,21.61-3.92.89-9.75,3.76-12.11-3.3-2.82-19.34-5.65-38.68-8.47-58.02Z"/>
        <path class="cls-7" d="M593.95,121.36c1.32-7.13-2.01-13.53-3.48-20.14-5.99-26.86-12.48-53.62-18.78-80.41,8.62,8.05,17.31,16.03,25.85,24.17,20.27,19.31,40.47,38.69,60.67,58.08,1.55,1.49,2.84,3.24,4.25,4.87-20.38,4.55-40.77,9.1-61.15,13.65-2.48.55-4.97,2-7.36-.21Z"/>
        <path class="cls-20" d="M181.08,558.98c-3.2-5.74-1.21-12.57-3.85-18.44-.94-2.14-.87-4.29-.04-6.45-2.39-3.67.16-8.3-2.35-11.94-4.54-33.87-9.07-67.74-13.61-101.62-1.33-5.37,1.75-5.67,5.54-4.57,3.8,1.1,7.19,3.25,10.81,4.84,10.04,4.43,20.07,8.9,29.92,13.75,2.21,1.09,4.32,2.18,5.37,4.58,0,0-.08-.05-.08-.05-10.57,39.96-21.13,79.93-31.7,119.89Z"/>
        <path class="cls-37" d="M491.15,27.76c-2.52,1.53-1.65,2.89.08,4.42,13.16,11.62,26.28,23.29,39.42,34.94-.38.09-.76.16-1.15.19-1.22.93-2.47,1.88-4.02,2.15-20.49,3.49-41,6.84-61.69,8.81-3.4-.51-6.06-2.54-8.49-4.7-11.94-10.59-23.32-21.79-35.41-32.21-.99-.86-1.45-2.18-2.29-3.19-.12-.42-.17-.84-.16-1.27,23.7-3.09,47.4-6.18,71.1-9.25.85-.11,1.74.07,2.61.12Z"/>
        <path class="cls-10" d="M677.17,412.41c-7.71-1.97-15.56-.61-23.34-.83-9.14-.26-18.31-.44-27.42.07-6.14.35-8.34-1.77-7.48-7.69.22-1.49-.05-3.04-.09-4.56,0,0,.18-.12.18-.12,12.85-.77,25.56-2.68,38.53-2.58,48.99.37,97.99.24,146.98.07,9.44-.03,18.56,2.42,27.92,2.69.73,12.69.73,12.57-11.75,12.72-18.35.22-36.71-.73-55.05.54-5.4,2.12-11,2.63-16.77,2.59-20.42-.13-40.84-.02-61.26-.08-3.7-.01-7.57.35-10.43-2.84Z"/>
        <path class="cls-11" d="M832.45,399.46c-67.41-.02-134.83-.03-202.24-.06-3.73,0-7.46-.08-11.19-.12.99-.36,1.96-.98,2.97-1.05q10.04-.77,10.26-10.75c.02-.87.12-1.75.18-2.62,3.46-3.28,7.85-2.63,11.9-2.41,44.12,2.44,88.29.62,132.42,1.33,11.02.18,21.9-1.57,32.89-1.46,3.24.03,5.52-1.04,6.05-4.63.26-1.74.88-3.42,2.39-4.56.35-.02.7-.03,1.05-.05.05,6.12.49,12.28.04,18.37-.42,5.75,1.93,7.33,7.18,6.8,2.01-.2,4.42-.94,6.1,1.2Z"/>
        <path class="cls-20" d="M98.29,618.64c3.31-21.34,6.71-42.67,9.85-64.03.67-4.52.4-9.18.56-13.77.43.03.86.07,1.29.1,10.95,22.19,21.93,44.36,32.82,66.57,4.53,9.24,8.86,18.58,13.31,27.86.87,1.81,1.57,3.62,1.35,5.67-18.08-6.93-36.16-13.87-54.24-20.79-1.61-.62-3.29-1.08-4.94-1.61Z"/>
        <path class="cls-6" d="M818.08,373.14c.08,13.85,1.58,11.21-11.82,11.95-37.31,2.07-74.65.4-111.97,1.13-20.65.4-41.23-1.43-61.87-1.35,0-3.89,0-7.79,0-11.68,1.55-1.22,3.37-.73,5.08-.73,58.49-.03,116.98-.03,175.48,0,1.71,0,3.52-.43,5.11.66v.02Z"/>
        <path class="cls-18" d="M212.86,439.13c-15.45-7.05-30.9-14.08-46.32-21.18-2.99-1.38-5.49-2.32-5.32,2.58-2.36-2.88-.53-5.35.85-7.77,6.76-11.9,13.56-23.78,20.35-35.66,8.96,6.42,19.88,8.4,29.63,13.02,3.73,1.77,7.68,3.07,11.53,4.58,1.16,8.05-3.25,14.97-4.68,22.51-1.41,7.42-3.98,14.62-6.04,21.92Z"/>
        <path class="cls-21" d="M677.17,412.41c29.49.11,58.98.21,88.47.32-21.83,12.8-43.65,25.64-65.51,38.4-6.78,3.96-13.67,7.71-20.51,11.56-.82-16.76-1.63-33.52-2.45-50.28Z"/>
        <path class="cls-35" d="M277.54,117.32c5.91-3.22,11.79-6.51,18.42-8.08,2.64,1.24,3.51,3.83,4.53,6.2,5.72,13.26,12.43,26.06,17.92,39.42,1.36,2.96,2.98,5.81,4.13,8.86.85,2.25,1.73,4.71-1.57,5.95-12.79,4.78-25.09,10.85-38.2,14.8-2.14-19.97-4.23-39.94-5.48-59.99-.15-2.45.27-4.77.25-7.16Z"/>
        <path class="cls-20" d="M70.84,533.81c-1.96.46-3.05,1.62-2.95,3.71.32,6.37-.91,12.64-1.26,18.95-1.53,28.16-2.17,56.38-4.4,84.48-.79,9.99.48,20.17-2.14,30.03-.46,1.74-.19,3.58,2.15,4.09-2.9,6.27-8.51,3.52-12.67,2.99-3.77-.48-1.75-4.81-1.67-7.33,1.39-44.25,3.03-88.5,4.34-132.75.17-5.9,1.51-8.49,7.78-6.54,3.51,1.09,7.2,1.59,10.81,2.36Z"/>
        <path class="cls-39" d="M199.99,713.39c2.55,3.68,5.94,2.7,9.43,1.84,26.52-6.53,53.05-13.06,79.6-19.48,7.19-1.74,14.5-2.99,21.33-5.98.54.4,1.08.8,1.61,1.21-15.76,13.99-31.52,27.98-47.28,41.97-16.96-4.15-33.92-8.29-50.87-12.45-4.25-1.04-8.46-2.26-12.91-1.92-.75-1.65-1.31-3.33-.9-5.18Z"/>
        <path class="cls-23" d="M320.98,169.67c2.25-5.77-3.66-9.2-4.08-14.21-.34-1.38-.03-2.91.95-3.61,5.68-4.07,9.03-11.22,16.7-12.63,6.26,5.57,7.14,13.94,10.8,20.86,6.86,15.37,13.4,30.88,19.9,46.4,1.08,2.58,2.38,5.25.98,8.19-6.85,3.46-13.83,5.84-21.5,2.73,0,0,.08.07.08.07-5.9-12.99-11.69-26.03-17.79-38.93-1.51-3.19-1.76-7.48-6.03-8.88Z"/>
        <path class="cls-11" d="M704.81,274.21c-4.68,4.89-9.45,9.71-14.01,14.71-2.36,2.59-4.15,2.35-6.44-.09-3.89-4.15-8.11-7.98-11.99-12.14-2.32-2.49-4.04-2.57-6.4-.01-3.7,4.02-7.87,7.61-11.54,11.66-2.66,2.93-4.57,3.11-7.4.11-4.64-4.91-9.71-9.41-14.6-14.09.51-1.19,1.55-1.35,2.66-1.46q9.16-.9,9.16-9.81c0-12.43-.05-24.86.04-37.29.02-2.3-.86-4.84,1.15-6.84,2.67,2.59,2.33,5.98,2.35,9.22.09,11.34.31,22.7-.07,34.03-.21,6.23,1.56,10.07,8.13,10.72,8.8-.04,17.59-.08,26.39-.12.62.07,1.23.2,1.83.37,3.8.42,7.59.91,11.42.33,3.1.33,6.31-.77,9.32.69Z"/>
        <path class="cls-25" d="M803.59,218.25l1.31.66c1.5,8.91.42,17.88.64,26.82.2,8.11,0,16.22.06,24.34.02,2.54,0,5-3.08,5.7-3.22.72-6.53,1.36-8.08-2.83.1-15.92.15-31.85.34-47.77.03-2.42-1.18-5.41,2.12-6.9,2.23-1.75,4.46-1.41,6.7,0Z"/>
        <path class="cls-27" d="M765.73,218.26c3.13,1.24,2.06,4,2.08,6.21.14,16.12.18,32.24.25,48.36.39.79.25,1.47-.42,2.05-3.35,1.88-6.68,1.9-10-.09-.61-.61-.74-1.32-.42-2.11.05-15.96.06-31.92.19-47.88.02-2.25-1-4.92,1.69-6.54,2.21-1.59,4.42-1.66,6.62.01Z"/>
        <path class="cls-9" d="M706.06,254.24c-2.52-1.83-1-3.37.42-4.81,5.53-5.61,11.14-11.14,16.63-16.79,1.54-1.59,2.99-1.73,4.52-.31,6.69,6.21,13.18,12.6,18.92,19.71.08.1-.41.65-.64,1-3.28,1.94-6.84,2.68-10.64,2.56-9.75-.31-19.56.92-29.22-1.36Z"/>
        <path class="cls-25" d="M655.85,272.93c-8.89,3.13-10.39,2.14-10.39-6.85-.01-15.71-.01-31.41-.02-47.12.45-.24.89-.48,1.34-.72,2.22-1.43,4.43-1.72,6.64,0,.41.21.81.41,1.22.62,1.39,10.83.23,21.7.64,32.54.27,7.15-.7,14.34.54,21.47l.03.05Z"/>
        <path class="cls-27" d="M683.62,218.92c.29-.27.62-.49.98-.66,2.23-1.75,4.47-1.56,6.72-.02,2.57,1.68,1.62,4.33,1.64,6.59.13,15.94.15,31.89.21,47.83-2.78,4.21-6.48,1.77-9.9,1.38-.28-18.38-.93-36.76.35-55.12Z"/>
        <path class="cls-31" d="M767.9,274.12c.02-.44.07-.87.16-1.29,8.79.03,17.59.06,26.38.09,8.89,3.14,10.45,2.13,10.45-6.83,0-15.73,0-31.46,0-47.19,2.09,1.98,1.17,4.55,1.18,6.85.09,13.6.22,27.2-.05,40.79-.1,4.79,1.19,7.16,6.22,6.33,5.89-.97,7.66,1.55,7.3,7.31-.52,8.52-.28,17.09-.37,25.64-.33,0-.65,0-.97,0,0-9.72,0-19.45,0-30.65-5.66,5.03-10.42,8.76-14.54,13.09-3.11,3.26-5.11,2.9-7.88-.19-3.5-3.89-7.42-7.4-11.07-11.16-1.8-1.85-3.49-3.44-6.07-1.3-3.72.47-7.57,1.9-10.74-1.5Z"/>
        <path class="cls-10" d="M706.06,254.24c1.86-2.25,4.43-1.33,6.69-1.33,11.05-.04,22.11.08,33.16.14-6.24,6.6-12.49,13.2-18.73,19.8-1.85,1.3-3.06.52-3.97-1.23-5.72-5.79-11.43-11.59-17.15-17.38Z"/>
        <path class="cls-23" d="M723.2,271.62c1.32.41,2.65.82,3.97,1.23,10.02-.06,20.04-.12,30.06-.18.07.5.14,1,.22,1.5-3.97,3.68-7.95,2.13-11.94.03-5.84,1.71-8.64,7.06-12.71,10.83-7.27,6.71-6.98,6.76-14.36-.19-4.19-3.94-7.19-9.54-13.63-10.63-3.55-.01-7.09-.03-10.64-.04-.39-.27-.53-.53-.4-.8.13-.27.26-.4.39-.4,7.63-.03,15.26,0,22.89-.12,2.09-.03,4.41.74,6.15-1.22Z"/>
        <path class="cls-38" d="M285.57,18.16c-6.42,4.18-13.52,6.57-20.99,7.95-5.25-15.02-5.14-14.74,8.93-20.08,5.65-2.14,8.33-1.13,9.54,4.7.53,2.54,1.66,4.95,2.53,7.42Z"/>
        <path class="cls-11" d="M818.08,373.12c-61.89.02-123.78.04-185.66.06,0-.47,0-.94,0-1.42,59.17,0,118.34-.01,177.5.05,2.73,0,5.74-1.02,8.15,1.3Z"/>
        <path class="cls-32" d="M803.59,218.25c-2.23,0-4.46,0-6.7,0-5.59-10.25-5.52-10.69,3.3-21.25,8.68,10.18,8.83,11.13,3.4,21.24Z"/>
        <path class="cls-32" d="M691.32,218.24c-2.24,0-4.48.01-6.72.02-5.21-9.28-4.97-11.54,1.23-19.39,1.97-2.5,2.72-1.52,4.18.39,4.68,6.1,7.21,12.21,1.3,18.98Z"/>
        <path class="cls-32" d="M653.42,218.25c-2.22,0-4.43,0-6.65,0q-5.08-9.57,2.88-21c8.36,7.2,9.1,11.35,3.76,21Z"/>
        <path class="cls-32" d="M765.73,218.26c-2.21,0-4.42,0-6.62-.01-7.26-8.25-2.02-14.63,3.15-21.02,8.61,8.31,9.05,11.01,3.48,21.03Z"/>
        <path class="cls-25" d="M683.62,218.92c0,18.39,0,36.78,0,55.17-.44.59-.88.56-1.31-.01.02-.42,0-.84-.08-1.26.07-15.71.08-31.43.26-47.14.02-2.25-1.07-4.82,1.13-6.75Z"/>
        <path class="cls-11" d="M655.82,272.88c-1.93-2.02-1.15-4.55-1.16-6.87-.06-15.71-.03-31.43-.02-47.14,1.86,1.51,1.21,3.62,1.21,5.5.03,16.17,0,32.34-.03,48.52Z"/>
        <path class="cls-11" d="M682.31,274.07c.44.05.87.06,1.31.01,3.22-.22,6.7,1.34,9.55-1.42.35.03.68.12,1,.3,0,.4,0,.8,0,1.21-3.97,2.03-7.92,2.19-11.86-.09Z"/>
        <path class="cls-11" d="M632.4,358.51c2.58.48,5.47-.79,7.76,1.36-2.59,0-5.18.01-7.77.02,0-.46,0-.92.01-1.39Z"/>
        <path class="cls-8" d="M451.6,448.37c2.59,5.1,5.13,10.23,9.15,14.42,9.44,11.87,15.91,25.6,23.85,38.4,8.65,13.94,16.78,28.2,25.17,42.3,1.42,2.38,3.41,4.66,2.8,7.82-9.15,7.28-19.77,12.14-29.81,17.94-33.45,19.34-67.32,37.96-100.71,57.42-4.34,2.53-8.52,5.49-13.7,6.18-5.63,1.43-10.28,4.86-14.92,8.02-5.24,3.56-7.62,2.37-10.36-3.08-12.78-25.36-25.96-50.53-39.02-75.75-.79-1.53-1.84-2.93-2.77-4.39-.75-3.94-2.71-7.47-4.93-10.59-4.16-5.83-1.67-8.51,3.65-11.26,6.93-3.58,13.86-7.28,20-12.21.56-.47,1.18-.58,1.87-.36,8.48,5.96,15.05,13.95,22.23,21.25,4.51,4.59,8.88,6.16,15.18,4.32,12.79-3.73,26.26-4.57,38.99-8.67,2.39-1.19,3.2-3.44,3.91-5.77,3.15-10.43,6.46-20.83,9.23-31.37.43-3.99-2.68-6.23-4.48-9.12-3.16-5.09-8.51-8.93-8.98-15.58,4.11-5.76,9.73-9.02,16.69-10.06,8.63-4.94,17.22-9.94,25.89-14.8,3.54-1.98,6.75-4.76,11.07-5.07Z"/>
        <path class="cls-4" d="M348.5,399.51c9.87,17.07,19.73,34.15,29.61,51.22.98,1.7,2.24,3.28,2.22,5.39-.36,2.24-2.17,3.18-3.86,4.18-13.39,7.91-26.98,15.46-40.41,23.3-1.91,1.11-3.94,1.93-6.21,1.92-9.46-1.45-17.91-5.93-26.68-9.31-25-9.65-50.09-19.08-74.99-28.99-4.53-1.8-8.49-4.57-12.75-6.82-.43-.47-.86-.93-1.29-1.4,18.15-5.52,36.28-11.11,54.45-16.56,24.27-7.28,48.58-14.44,72.87-21.68,2.31-.69,4.55-1.61,7.04-1.24Z"/>
        <path class="cls-7" d="M215.43,440.39c22.82,8.75,45.63,17.54,68.47,26.23,15.51,5.9,31.06,11.68,46.6,17.51,6.42,8.08,9.9,17.46,12.1,27.41-6.55,5.07-12.77,10.72-21.42,12.07-.39-.01-.78-.02-1.17-.01-31.23-25.31-62.89-50.08-94.73-74.61-3.44-2.65-6.57-5.72-9.84-8.59Z"/>
        <path class="cls-21" d="M462.19,76.36c20.27-2.89,40.54-5.79,60.82-8.64,2.14-.3,4.32-.29,6.49-.42-4.52,15.34-8.89,30.72-13.59,46-19.84,64.53-39.76,129.02-59.69,193.52-1.42,4.6-3.17,9.11-4.77,13.65-5.92,6.28-12.82,10.88-21.45,12.52-2.32-.81-3.24-2.84-4.12-4.86-15.81-36-31.69-71.97-47.13-108.14-.73-1.9-1.9-3.64-2.06-5.75,0-1.1.33-2.07,1.14-2.85,7.43-3.72,15.66-2.81,23.52-4.07.67.09,1.28.35,1.81.76,2.16,3.19,2.45,6.94,2.74,10.58.38,4.67,2.29,4.97,5.86,2.81,10.4-6.28,21.21-11.89,31.22-18.85.94-.51,1.94-.78,3.01-.84,6.51-.95,13.03-1.71,19.56-2.44,8.13-.91,8.56-1.33,7.65-9.29-3.98-35.04-8.56-70-12.49-105.05-.34-3.03-1.16-6.13,1.47-8.65Z"/>
        <path class="cls-2" d="M512.11,405.97c-18.42-4.88-36.85-9.76-55.27-14.63-.47-.46-.71-1.02-.77-1.67,3.16-7.89,9.53-13.54,14.39-20.23,6.56-9.04,13.49-17.82,20.33-26.66,1.94-2.51,3.45-5.71,7.04-6.54,16.23,4.83,32.47,9.66,48.7,14.49,1.27,3.16-.68,5.53-2.17,7.85-9.22,14.38-18.28,28.86-27.5,43.24-1.16,1.81-2.25,3.84-4.76,4.16Z"/>
        <path class="cls-12" d="M512.11,405.97c11.48-18.42,22.95-36.83,34.43-55.25,11.11,2.85,21.79,7.2,33.1,9.33-4.75,11.87-12.34,22.17-18.51,33.25-7.25,13.03-14.88,25.85-22.36,38.75-1.2,2.06-1.9,4.48-4.08,5.86-7.53-10.64-15.05-21.29-22.58-31.93Z"/>
        <path class="cls-26" d="M497.84,336.23c-13.67,18.05-27.34,36.09-41.01,54.14-3.37.29-4.46-2.24-5.54-4.61-7.09-15.69-13.71-31.59-20.64-47.35-.85-1.94-1.96-4.02-.21-6.12,7-3.94,14.01-7.87,21.01-11.81,13.48,4.39,26.97,8.75,40.43,13.19,2.04.67,3.97,1.7,5.95,2.56Z"/>
        <path class="cls-5" d="M568.01,159.44c8.53,2.35,17.32,4.06,24.75,9.34,1.81,1.89,1.22,4.1.64,6.19-3.07,10.96-6.46,21.82-9.96,32.65-.75,2.33-2.09,4.33-4.04,5.86-1.82,6.18-3.53,12.4-5.5,18.54-.88,2.73-.93,6.33-5.11,6.61-8.53,1.57-15.83-1.02-22.26-6.57.41-1.84.81-3.69,1.22-5.53-.99-5.08.35-9.98,1.77-14.67,4.61-15.25,9.41-30.44,13.93-45.72.79-2.66,1.37-5.62,4.58-6.69Z"/>
        <path class="cls-13" d="M492,242.37c34.79,11.02,67.69,21.45,101.05,32.01-2.47,3.22-5.84,2.33-8.51,3.05-12.45,3.36-24.96,6.47-37.49,9.52-2.61.64-5.14,1.67-7.87-.9-15.1-14.23-30.42-28.23-47.17-43.68Z"/>
        <path class="cls-13" d="M568.01,159.44c-7.06,22.27-14.21,44.51-20.28,67.08-2.69-6.01-1.62-12.43-.87-18.41.95-7.58.72-15.09.91-22.64,1.28-5.88-.11-11.08-3.96-15.66-3.93-3.48-7.86-6.97-11.79-10.45,1.17-1.47,2.83-2.08,4.58-2.19,8.69-.55,17.38-.52,26.07-.02,1.76.1,3.4.75,4.61,2.15.26-.01.5.04.73.14Z"/>
        <path class="cls-21" d="M579.39,213.48c4.45-14.9,8.91-29.8,13.36-44.69.41-.49.83-.98,1.24-1.46,1.74-.97,3.4-.35,4.95.39,7.61,3.62,15.14,7.41,22.59,11.34,1.52.8,3.01,1.81,2.93,3.9-6.06,1.94-12.91,0-18.58,3.83-5.82,2.04-8.66,6.65-10.51,12.13-4,2.68-6.94,6.36-9.94,10.06-1.54,1.9-2.38,5.28-6.05,4.5Z"/>
        <path class="cls-22" d="M567.28,159.3c-11.75.02-23.51.04-35.26.06-1.7-3.18.3-6.28.23-9.44-.04-1.94,1.53-2.41,3.22-2.35,10.64.42,21.28.9,31.92,1.23,2.97.09,3.19,1.54,2.39,3.79-.8,2.25-1.66,4.47-2.5,6.71Z"/>
        <path class="cls-3" d="M624.47,182.95c-10.16-5.21-20.32-10.42-30.47-15.63,0-.22-.04-.45.02-.65,3.2-11.32,1.55-9.32,11.03-5.46,5.05,2.05,9.95,4.46,14.91,6.73,10.22,4.68,10.3,4.96,4.52,15.02Z"/>
        <path class="cls-36" d="M595.38,198.91c-.56-9.74,1.79-12.45,10.51-12.13,4.24,1.63,6.21,4.88,5.91,9.25-.27,3.91-2.76,6.41-6.47,7.46-4.53,1.27-7.5-1.15-9.95-4.58Z"/>
        <path class="cls-19" d="M543.81,169.81c8.01,4.12,9.07,8.31,3.96,15.66-3.79,1.91-7.48,2.42-10.93-.74-2.74-2.51-3.29-5.65-2.26-9,1.37-4.47,5.05-5.66,9.23-5.92Z"/>
        <path class="cls-29" d="M546.51,232.06c7.42,2.19,14.84,4.38,22.26,6.57.77,4.77-3.79,3.74-5.85,4.86-8.02,4.38-8.15,4.15-12.74-3.87-1.4-2.44-3.17-4.69-3.67-7.56Z"/>
        <path class="cls-12" d="M377.85,212.22l.08,2.47c1.44,4.53,1.59,9.34,3.03,13.88,1,16.84,2.24,33.67,3.34,50.5,1.53,23.39,2.99,46.79,4.66,70.17.38,5.34,2.01,10.94-1.87,15.83,1.51,8.01-2.96,11.95-9.42,15.48-9.91,5.43-19.35,11.72-29,17.65,0,0,.02-.01.02-.01-1.59-2.93.27-6.29-1.15-9.23-.94-57.18-1.87-114.36-2.81-171.54,7.16-.98,14.42-1.42,21.3-3.91,3.67-2.99,7.65-3.03,11.83-1.27Z"/>
        <path class="cls-18" d="M347.53,388.95c2.11,2.86.75,6.16,1.15,9.23-2.36-2.83-.96-6.13-1.15-9.23Z"/>
        <path class="cls-4" d="M387.08,365.06c-2.14-33.61-4.34-67.22-6.4-100.84-.74-12.01-1.16-24.04-1.72-36.06-.39-3.2-2.16-6.58,1.25-9.27,16.04,36.71,32.07,73.43,48.13,110.13.51,1.17,1.39,2.18,2.1,3.27,7.93,18.43,15.84,36.86,23.83,55.26.48,1.1,1.69,1.89,2.55,2.82.02.32.03.65.02.97-11.65-2.89-23.32-5.75-34.96-8.67-7-1.76-13.9-4.07-20.99-5.3-7.45-1.29-14.19-2.58-13.82-12.3Z"/>
        <path class="cls-15" d="M341.93,511.71c-3.81-9.19-7.62-18.38-11.43-27.58,16.61-9.34,33.22-18.67,49.83-28.01.46.04.93.08,1.39.11,7.6,5.88,13.68,12.92,16.78,22.21,4.46,6.34,8.92,12.68,13.37,19.02.93,1.32,2.79,2.35,1.52,4.44-1.6,2.73-4.02,4.49-6.7,6.1-15.39,9.22-31.11,17.89-46.4,27.3-2.4,1.48-4.84,3.15-7.95,1.99-5.68-7.62-10.14-15.75-10.41-25.58Z"/>
        <path class="cls-13" d="M398.5,478.44c-5.6-7.4-11.19-14.8-16.78-22.21,11.25,3.25,22.25,7.2,32.93,12.02-5.38,3.4-10.76,6.79-16.14,10.19Z"/>
        <path class="cls-16" d="M203.6,770.15c34.87-.02,69.75-.02,104.62-.09,2.54,0,5.31.84,7.53-1.28,5.5,3.09,3.05,8.34,2.63,12.41-.4,3.94-4.71,2-7.19,2.01-34.43.13-68.86.09-103.3.09q-11.32,0-10.6-11.84c1.85-1.63,4.43.23,6.31-1.3Z"/>
        <path class="cls-17" d="M203.6,770.15c-1.78,1.99-4.17,1.02-6.31,1.3,0-.47,0-.95,0-1.42,2.1.04,4.21.08,6.31.12Z"/>
        <path class="cls-11" d="M811.5,359.89c1.88-2,4.37-.99,6.59-1.36-1.85,2.15-4.35,1.1-6.59,1.36Z"/>
        <path class="cls-24" d="M355.44,83.04c16.71-2.92,33.42-5.86,50.14-8.76,1.71-.3,3.45-.38,5.18-.56,2.14,1.82,2.09,4.31,1.71,6.68-2.85,17.74-6.25,35.38-9.33,53.07-.15.86-.66,1.62-1.17,2.33-4.27,2.86-8.05,6.62-13.44,7.5-3.18-.22-4.92-2.52-6.75-4.69-11.79-14.02-23.36-28.23-35.02-42.36-1.91-2.31-4.47-4.55-1.97-7.99,3.55-1.74,7.1-3.48,10.65-5.22Z"/>
        <path class="cls-35" d="M344.78,88.26c-.52,5.05,4.01,7.02,6.47,10.1,11.13,13.95,22.56,27.65,33.93,41.41.82.99,2,1.67,3.01,2.49.39,3.07-2.24,3.55-4.08,4.3-11.39,4.66-22.6,9.76-34.22,13.83-2.12.74-4.21,1.26-6.42.43-3.1-7.05-6.2-14.1-9.29-21.15-2.01-1.14-3.08-3.02-3.93-5.06-3.87-9.25-8.04-18.36-11.61-27.73-.99-2.6-2.49-5.26-.18-7.97,8.77-3.55,17.55-7.1,26.32-10.65Z"/>
        <path class="cls-8" d="M318.46,98.91c2.15,10.12,7.35,19.05,11,28.59,1.55,4.06,3.15,8.11,4.73,12.17-5.76,5.26-11.52,10.53-17.29,15.79-7.26-15.28-14.85-30.41-20.93-46.22,7.5-3.44,15-6.89,22.5-10.33Z"/>
        <path class="cls-18" d="M368.36,632.86c9.27-7,19.72-12.04,29.73-17.79,36.04-20.71,72.23-41.15,108.39-61.66,1.69-.96,3.58-1.58,5.38-2.36,6.47-2.39,10.43,2.21,14.9,5.36,1.1,3.13-1.98,2.86-3.26,3.58-44.22,24.97-88.54,49.77-132.73,74.8-5.45,3.09-10.21,5.63-16.06,1.09-1.59-1.23-4.12-1.25-6.21-1.82.04-.41,0-.81-.13-1.2Z"/>
        <path class="cls-28" d="M400.28,135.59c3.56-20.61,8.17-41.05,10.47-61.87,3.38-11.64,4.49-23.72,6.84-35.56,5.22,2.05,8.8,6.25,12.82,9.84,10.6,9.44,20.32,19.87,31.78,28.36,2.4,20.61,4.76,41.23,7.23,61.84,2.28,19.09,4.71,38.17,7,57.26.22,1.8,1.02,4.43-1.8,4.85-9.82,1.49-19.59,3.72-29.64,2.65-3.12-3.06-2.9-7.22-3.41-11.04-1.24-9.34-2.28-18.7-3.28-28.07-.53-5.03-2.43-7.26-8.04-6.41-8.65,1.31-17.32,2.64-26.05,3.46-2.84.27-5.68.89-8.23-1.03-2.12-8.72-.15-16.72,4.32-24.28Z"/>
        <path class="cls-11" d="M745.51,274.2c3.98-.01,7.96-.02,11.94-.03,3.49-.02,6.97-.03,10.46-.05,3.56.64,7.48-1.3,10.74,1.5-4.4,4.54-8.84,9.05-13.17,13.65-1.92,2.04-3.51,2.07-5.45.02-4.78-5.08-9.67-10.06-14.51-15.08Z"/>
        <path class="cls-33" d="M177.19,534.09c.02,2.15.03,4.3.05,6.45-1.81-2.14-1.81-4.29-.05-6.45Z"/>
        <path class="cls-12" d="M526.76,556.42c-4.97-1.79-9.93-3.57-14.9-5.36-15.78-26.68-31.57-53.35-47.32-80.05-1.53-2.59-3.66-4.95-3.78-8.21,11.47,2.96,18.65,10.14,24.31,20.71,13.22,24.67,27.71,48.65,41.69,72.91Z"/>
        <path class="cls-26" d="M352.95,536.86c18.99-11.06,37.98-22.12,56.97-33.16,1.12-.65,2.31-1.2,3.47-1.79-2.22,12.89-7.22,25-10.55,37.58-.58,2.19-2.15,2.48-3.98,2.52-14.02,1.61-27.9.03-41.76-1.91-1.77-.25-4.13-.43-4.15-3.23Z"/>
        <path class="cls-10" d="M352.95,536.86c10.12,2.93,20.69,1.95,30.97,3.62,4.93.8,9.96,1.03,14.94,1.52-14.94,4.76-30.65,6.11-45.72,10.3-2.26.63-4.23-.27-5.9-1.99-8.66-8.92-17.37-17.81-26.06-26.7,6.91-3.98,12.95-9.47,20.75-11.91,3.67,8.38,7.35,16.77,11.02,25.15Z"/>
        <path class="cls-15" d="M402.68,207.88c-1.72-12.95-3.45-25.89-5.16-38.84-.43-3.23-.78-6.48-1.16-9.72,12.36-1.55,24.75-2.93,37.07-4.74,4.21-.62,6.2-.37,6.65,4.73,1.28,14.58,3.22,29.11,4.9,43.66-.45.46-.9.92-1.36,1.39-10.62,4.63-22.07,4.66-33.27,6.06-2.63.33-5.24.04-7.46-1.69-.06-.28-.12-.56-.2-.84Z"/>
        <path class="cls-41" d="M402.88,208.72c13.58-1.45,27.16-2.91,40.74-4.36-10.85,8.05-23.14,13.75-34.47,21.01-2.82,1.81-4.55.8-4.91-2.42-.53-4.73-.91-9.48-1.36-14.23Z"/>
        <path class="cls-30" d="M380.21,218.89c-2.25,2.84-.61,6.21-1.25,9.27-2.07-4.36-1.05-8.95-1.03-13.47.76,1.4,1.52,2.8,2.28,4.2Z"/>
        <path class="cls-1" d="M520.22,257.99c16.76,5.25,33.52,10.51,50.28,15.76.04.45.09.9.13,1.34-8.63,2.47-17.27,4.92-25.9,7.42-1.81.53-2.87-.52-4-1.59-7.29-6.91-14.58-13.81-21.87-20.71.45-.74.91-1.49,1.36-2.23Z"/>
        <path class="cls-29" d="M409.4,170.67c1.79-.48,2.2-.65,2.63-.7,18.3-1.99,19.59-.63,17.84,19.76-3.68-3.51-6.89-6.64-10.17-9.7-3.15-2.94-6.38-5.8-10.3-9.37Z"/>
      </g>
    </g>
  </g>
</svg>