<?xml version="1.0" encoding="UTF-8"?>
<svg xmlns="http://www.w3.org/2000/svg" version="1.1" viewBox="0 0 636.44 792">
  <defs>
    <style>
      .cls-1 {
        fill: #fefdfd;
      }

      .cls-2 {
        fill: #84c7ca;
      }

      .cls-3 {
        fill: #474746;
      }

      .cls-4 {
        fill: #66a6a8;
      }

      .cls-5 {
        fill: #e2c9b7;
      }

      .cls-6 {
        fill: #4a8da3;
      }

      .cls-7 {
        fill: #8e8e8e;
      }

      .cls-8 {
        fill: #549cb5;
      }

      .cls-9 {
        fill: #75bdd4;
      }

      .cls-10 {
        fill: #3d7789;
      }

      .cls-11 {
        fill: #74bdd5;
      }

      .cls-12 {
        fill: #dcdcdb;
      }

      .cls-13 {
        fill: #bc987e;
      }

      .cls-14 {
        fill: #c8d5da;
      }

      .cls-15 {
        fill: #d9bca6;
      }

      .cls-16 {
        fill: #387376;
      }

      .cls-17 {
        fill: #477e81;
      }

      .cls-18 {
        fill: #c3c3c3;
      }

      .cls-19 {
        fill: #2d2c2c;
      }

      .cls-20 {
        fill: #387477;
      }

      .cls-21 {
        fill: #bc977e;
      }

      .cls-22 {
        fill: #484747;
      }

      .cls-23 {
        fill: #75bdd5;
      }

      .cls-24 {
        fill: #3d7788;
      }

      .cls-25 {
        fill: #4c8ea4;
      }

      .cls-26 {
        fill: #846754;
      }

      .cls-27 {
        fill: #4b8da3;
      }

      .cls-28 {
        fill: #464646;
      }

      .cls-29 {
        fill: #866855;
      }

      .cls-30 {
        fill: #77acac;
      }

      .cls-31 {
        fill: #74bdd4;
      }

      .cls-32 {
        fill: #dfc64f;
      }

      .cls-33 {
        fill: #5e969a;
      }

      .cls-34 {
        fill: #2c5d5e;
      }

      .cls-35 {
        fill: #4a8ca2;
      }

      .cls-36 {
        fill: #2e2d2d;
      }

      .cls-37 {
        fill: #6e7073;
      }

      .cls-38 {
        fill: #549db6;
      }

      .cls-39 {
        fill: #4f9093;
      }

      .cls-40 {
        fill: #4a8da2;
      }

      .cls-41 {
        fill: #856754;
      }
    </style>
  </defs>
  <!-- Generator: Adobe Illustrator 28.7.1, SVG Export Plug-In . SVG Version: 1.2.0 Build 142)  -->
  <g>
    <g id="Layer_1">
      <g>
        <path class="cls-18" d="M137.98,610.53c-.93-1.46-1.41-3.17-3.46-3.75-7.02-1.99-14-4.14-20.99-6.23-.29-1.95-.25-3.87.27-5.81,5.02-18.73,9.86-37.51,15.02-56.2,6.95-27.09,14.32-54.06,21.42-81.11.66-2.5.95-5.14,2.65-7.27.37-.39.81-.67,1.31-.84.79-.11,1.51.13,2.18.51,24.2,18.84,48.25,37.88,72.39,56.8,2,1.56,4.35,2.98,5.1,5.74-.15,2.33-2.01,3.21-3.65,4.23-3.74,2.32-7.49,4.64-11.39,6.69-2.5,1.32-3.02,3.03-1.76,5.63,1.4,2.88,3.61,5.53,3.26,9.06-1.91,5.27-5.23,9.77-8.16,14.44-2.16,3.44-2.16,6.17.55,9.22,12.03,13.51,23.8,27.26,35.76,40.83,6.25,7.09,12.55,14.14,18.67,21.35,4.73,5.57,5.26,5.75,12.04,3.24,17.43-6.46,34.96-12.63,52.54-18.67,2.07-.71,4.18-2.07,6.53-.75-4.74,18.26-9.51,36.52-14.21,54.79-.71,2.75-1.99,3.04-4.6,2.21-22.5-7.17-45.04-14.21-67.59-21.25-6.99-2.18-14.02-4.25-21.03-6.39-1.12-.34-2.2-.59-3.3,0-.75-.01-1.51-.03-2.26-.14-21.3-6.58-42.5-13.47-63.81-19.99-7.75-2.37-15.27-5.68-23.49-6.35Z"/>
        <path class="cls-15" d="M488.19,203.42c-1.41,7.91-4.59,15.29-7.07,22.86-15.82,48.4-31.79,96.76-47.69,145.14-2.14,6.51-4.12,13.07-6.18,19.61-.39.35-.84.61-1.34.78-8.56-.59-16.31-4.23-24.42-6.53-12.04-3.68-24.22-6.89-36.15-10.92-9.69-3.62-19.74-6.12-29.48-9.61-1.93-.69-4.19-.9-5.15-3.19-.46-2.38.58-4.49,1.25-6.66,16.77-54.49,33.66-108.94,50.34-163.45,1.86-6.07,3.13-12.36,6.03-18.09.32-.4.73-.69,1.21-.86,2.47-.37,3.83,1.42,5.4,2.8,13.93,12.28,28.32,24.04,42.28,36.29.36.32.86.45,1.33.61,10.58-1.11,20.7-4.44,31.11-6.34,4.16-.76,8.3-1.75,12.41-2.8,2.06-.53,4.15-1.05,6.12.35Z"/>
        <path class="cls-2" d="M154.8,449.62c-.34.02-.67.04-1.01.07-.15-.21-.3-.42-.45-.62-.38-4.53,1.55-8.6,2.62-12.83,1.72-6.8,3.84-13.49,5.17-20.39,5.29-15.83,8.86-32.13,13.44-48.16,5.52-19.33,10.56-38.79,15.83-58.2,1.2-4.43,2.77-8.7,4.65-12.87-.33-3.68,2.38-4.26,4.98-4.63,14.58-2.08,29.17-4.07,43.76-6.08,2.72-.37,5.45-.68,8.18-1.02.23.22.46.45.69.67.94,1.43,1.11,3.06,1.13,4.7.05,6.53.89,13.06.83,19.53-.32,33.78,1.72,67.53,1.13,101.3-.41,2.52-.62,5.05-.18,7.6-.02.28-.04.56-.05.83-.13.55-.41,1-.84,1.37-10.95,4.27-22.41,6.89-33.62,10.37-18.69,5.8-37.48,11.27-56.22,16.92-3.27.99-6.51,2.2-10.04,1.44Z"/>
        <path class="cls-18" d="M254.71,420.26l.12-.98c.31-2.27,2.17-3.14,3.83-4.14,5.73-3.44,11.29-7.17,17.12-10.44,3.4-1.91,6.39-3.95,6.44-8.41,0-.8.59-1.5,1.45-1.8.16.05.41.08.44.17,1.99,6.26,7.4,7.03,12.74,8.33,12.9,3.14,25.79,6.34,38.57,9.94,13.64,3.4,27.37,6.52,40.7,11.05,3.72,2.35,5.64,6.27,7.96,9.73,3.34,4.96,7.94,9.09,9.96,14.93.05.65.09,1.34-.22,1.91-5.14,9.37-10.35,18.7-16.22,27.65-.25.38-.77.59-1.17.86l-6,8.85c-2.68.05-3.64-2.17-4.37-3.96-5-12.13-14.04-19.37-26.49-22.82-2.78-.77-5.2-2.67-8.21-2.83-7.62,2.29-13.71,7.42-20.57,11.11-2.28,1.23-4.3,3.01-7.14,2.81-8.28-2.44-16.23-5.81-24.4-8.58-.46-.19-.88-.46-1.26-.78-8.02-12.53-15.1-25.63-22.62-38.47-.73-1.24-1.33-2.63-.66-4.15Z"/>
        <path class="cls-14" d="M221.43,688.05c10.87-.02,21.76-.37,32.61.03,19.83.74,39.66,1.72,59.46,3,11.36.73,22.71,1.42,34.09,1.93,21.43.97,42.84,2.54,64.26,3.74,9.43.52,18.87.71,28.31,1.1,2,.08,4.27-.63,6.11,1.83-10.73,0-21.01,1.37-31.35,2.01-17.35,1.08-34.67,2.62-52.01,3.75-11.19.73-22.39,1.47-33.59,2.19-16.86,1.09-33.73,2.04-50.54,3.76-5.81.59-11.68.51-17.54.97-8.42.67-16.84,1.49-25.26,1.93-7.43.38-14.94-.51-22.41-1.02-6.48-.44-12.93-1.18-19.4-1.7-15.86-1.29-31.73-2.55-47.6-3.8-9.07-.72-18.15-1.38-27.22-2.1-16.19-1.27-32.36-2.94-48.58-3.7-10.85-.51-21.57-2.08-32.41-2.79,6.2.14,12.28-1.05,18.43-1.35,13.32-.67,26.65-1.26,39.96-2.04,15.09-.88,30.17-1.92,45.25-2.88,1.09.73,1.44,1.81,1.49,3.04.04.57.09,1.15.15,1.72.86,6.07.86,6.15,6.84,6.16,24.58.05,49.15.05,73.73,0,6.15-.01,6.6-.67,5.6-6.94-1.07-2.19-3.43-2.89-5.08-4.4-1.37-1.26-3.45-2.02-3.32-4.42Z"/>
        <path class="cls-23" d="M465.86,399.63c0-2.94-.02-5.88-.03-8.83,1.73-1.84,4.17-1.21,6.26-1.81,41.8-.22,83.6-.16,125.4-.07,1.76.14,3.63.56,4.34-1.83.38-3.28.14-6.55.15-9.82,0-2.87-1.44-4.14-4.25-4.13-1.96,0-3.92-.04-5.88-.04-39.04,0-78.09.02-117.13-.03-3.03,0-6.28.63-8.85-1.82-.02-6.9-.03-13.79-.05-20.69,1.21-1.1,2.7-.96,4.17-.96,43.52.1,87.04.02,130.56.04.82,0,1.63.07,2.42.28.65.08,1.24.31,1.78.67-.01,16.68-.03,33.35-.04,50.03-.29.14-.58.27-.87.41-.32.02-.64.04-.96.06-43.19,0-86.38.01-129.56-.03-2.53,0-5.28.69-7.44-1.42Z"/>
        <path class="cls-2" d="M500.95,467.25c-17.37,8.9-34.75,17.79-52.12,26.7-7.66,3.93-15.28,7.94-22.98,11.79-1.28.64-2.53,2.4-4.33.88.96-9.76,3.44-19.24,5.37-28.82,2.86-14.22,5.85-28.42,8.71-42.65.44-2.2.58-4.59,2.65-6.1,3.91.05,7.83-.1,11.71.21,3.82.31,5.46-.98,4.97-4.91-.17-1.38-.42-2.96.8-4.15.26.2.7.38.72.63.83,6.85,5.77,6.51,10.81,6.43,8.49-.14,16.99-.11,25.48,0,2.58.04,5.32-.08,7.08,2.45,1.59,6.34,1.58,12.86,1.98,19.33.27,4.38-.17,8.79.43,13.16.26,1.87-.22,3.55-1.32,5.06Z"/>
        <path class="cls-35" d="M84.03,282.88c11.76-15.26,23.49-30.54,35.29-45.76,23.01-29.69,46.07-59.36,69.11-89.03.9-1.16,1.86-2.27,2.8-3.41,3.37,1.18,2.71,4.14,2.5,6.5-1.17,12.94-1.98,25.9-3.16,38.84-.57,6.3-.74,12.65-1.87,18.89-.2,7.82-5.41,11.76-11.38,15.6-29.04,18.69-57.47,38.33-86.79,56.6-1.89,1.18-3.7,3.57-6.51,1.77Z"/>
        <path class="cls-4" d="M438.26,429.03c-2.41,12.58-4.74,25.17-7.24,37.73-2.38,11.93-4.99,23.81-7.4,35.74-.33,1.63-.35,3.26-2.09,4.1-15.03-9.18-30.06-18.36-45.08-27.54,4.25-9.73,10.36-18.41,15.51-27.63.47-.84.82-1.75,1.23-2.62,1.78-7.49,6.69-13.38,10.29-19.93,6.45-11.74,13.63-23.07,20.21-34.74.74-1.32,1.69-2.39,2.93-3.22.21.05.43.09.65.11,3.67,12.67,7.34,25.34,11,38Z"/>
        <path class="cls-8" d="M84.03,282.88c6.72-2.65,12.44-7.04,18.41-10.91,25.58-16.59,50.99-33.46,76.49-50.18,4.27-2.8,7.98-5.86,8.19-11.49,1.28,2.85,2.91,3.29,5.91,1.86,2.93-1.4,6.13-4.3,9.73-1.02,1.45,9.65,1.8,19.41,2.78,29.1.49,4.85,1.15,9.69,1.35,14.57.08,1.97.42,3.91-1.06,5.54-11.6,3.24-23.48,5.22-35.26,7.62-27.46,5.58-54.95,11-82.43,16.47-1.28.25-2.57.47-3.86.61-.63.07-1.85.8-1.53-.79.1-.52.83-.92,1.27-1.38Z"/>
        <path class="cls-23" d="M201.94,210.41c-3.28.87-6.39,2.17-9.5,3.53-5.09,2.22-5.15,2.08-5.31-3.64,1.62-19.2,3.29-38.39,4.79-57.6.21-2.64,1.11-5.49-.69-8.01.36-.7.72-1.4,1.07-2.1,4.74-3.19,9.96-5.13,15.61-5.91l1.84,1.04c3.53,1.52,6.08,4.37,8.8,6.88,12.72,11.69,25.9,22.86,38.32,34.87,1.6,1.55,3.56,2.99,3.45,5.64-1.53,3.34-5.19,3.35-7.8,5-6.46,2.77-12.86,5.68-19.51,7.97-5.58,2.68-11.38,4.88-17.03,7.4-4.86,1.13-8.65,5.32-14.05,4.94Z"/>
        <path class="cls-7" d="M338.26,607.64c-20.71,7.36-41.44,14.67-62.11,22.16-3.04,1.1-5.01.81-7.18-1.71-12.45-14.41-25.06-28.68-37.58-43.02-7.28-8.33-14.44-16.77-21.81-25.03-1.63-1.83-1.67-3.24-.47-5.15,3.54-5.65,7-11.34,10.5-17.02,2.74.05,3.15,2.46,4.12,4.19,9.46,16.91,17.43,34.6,26.77,51.58,3.73,6.78,3.56,6.81,10.46,2.8,2.61-1.52,4.99-3.84,8.45-3.15.44.21.82.49,1.15.84,2.19,3.24,3.82,6.8,5.67,10.23,1.72,3.18,3.45,3.59,6.59,1.91,11.61-6.23,22.84-13.14,34.41-19.43,8.86-4.82,17.46-10.09,26.43-14.71,1.39-.72,2.77-1.89,4.49-.74-3.06,12.15-6.02,24.32-9.88,36.25Z"/>
        <path class="cls-8" d="M599.02,390.8c-42.47,0-84.94,0-127.42-.01-1.76-1.25-4.02.32-5.77-1.01,0-6.17.02-12.35.03-18.52,44.55-.03,89.1-.03,133.64-.14,3.38,0,4.68,1.03,4.5,4.48-.25,4.72-.07,9.46-.08,14.2-1.45,1.24-3.44-.19-4.9,1.01Z"/>
        <path class="cls-8" d="M259.87,184.92c-6.27-7.82-14.34-13.75-21.54-20.59-9.44-8.97-19.83-16.91-28.57-26.62,13.39,1.7,26.79,3.31,40.16,5.11,18.7,2.52,37.37,5.18,56.06,7.78.38.43.69.9.92,1.43.13,8.41-2.07,16.46-3.85,24.58-.21.97-.92,1.71-1.79,2.25-10.97,3.08-22.31,4.29-33.47,6.41-2.61.5-5.37,1.8-7.92-.34Z"/>
        <path class="cls-40" d="M604.02,350.59c-1.52,1.4-3.4.92-5.14.92-42.11.02-84.22,0-126.33.04-2.32,0-4.54-.31-6.73-.99.01-7.79.02-15.58.04-23.37,2.13-.59,3.29.96,4.57,2.14,2.02,1.88,3.99,3.83,5.87,5.85,2.09,2.26,4.01,2.42,6.15.09,1.43-1.55,2.98-3,4.48-4.49,5.55-5.5,6.89-5.52,12.3-.16,1.5,1.49,3.07,2.92,4.47,4.49,2.27,2.55,4.17,2.22,6.52-.08,2.99-2.93,5.41-6.55,9.42-8.34,2.81-.28,5,.92,6.93,2.84,1.96,1.95,3.96,3.85,5.86,5.85,1.98,2.09,3.78,2.12,5.77.02,2.02-2.11,4.11-4.15,6.2-6.2,1.54-1.51,3.15-2.84,5.52-2.55,4.17,1.82,6.62,5.61,9.75,8.6,2.21,2.11,3.9,2.28,6.14.06,2.86-2.83,5.32-6.11,8.83-8.25,3.48-1.33,5.5,1,7.62,3.04q7.87,7.59,16.34.51c.88-.73,1.69-1.56,2.71-2.1,1.74-.92,3.22-1.2,3.13,1.55-.22,6.83.52,13.68-.4,20.5Z"/>
        <path class="cls-28" d="M437.24,213.42c-15.69-13.44-31.38-26.89-47.07-40.33-3.94-.6-6.41-3.58-9.11-5.97-6.91-6.11-13.66-12.39-20.48-18.61-1.45-1.32-4.21-3.35.22-4.69,19.23-1.89,38.45-3.79,57.68-5.67.78-.08,1.62-.31,2.21.5,2.06,3,3.29,6.32,4.1,9.87,4.45,19.59,9.16,39.11,13.59,58.7.46,2.04,2.3,4.72-1.13,6.2Z"/>
        <path class="cls-39" d="M130.22,538.85c-5.19,19.67-10.38,39.34-15.59,59-.25.93-.73,1.8-1.1,2.69-.29-.22-.58-.44-.87-.67-2.25-2.65-3.57-5.83-5-8.92-9.41-20.41-19.91-40.29-29.58-60.57-.74-1.56-2.08-3.07-.73-4.95,14.67-3.96,29.35-7.92,44.02-11.91,1.52-.41,3.26-.45,4.21-2.07,3.79,1.76,2,5.35,2.7,8.13-.33,1.94-.45,3.85.65,5.63,1.76,4.42.97,9.07,1.3,13.62Z"/>
        <path class="cls-34" d="M68.64,583.22c-8.94,13.99-17.87,27.98-26.81,41.97-3.55.58-3.06-2.21-3.01-4.04.34-11.55.97-23.09,1.76-34.6.56-8.11.84-16.24,1.4-24.35.85-12.33,1.35-24.68,2.27-37.01.17-2.32-.34-5.74,3.97-5.05,9.39,1.74,18.77,3.48,28.16,5.23,1.61,3.67,1.83,7.42,1.23,11.39-1.91,12.67-3.95,25.33-5.61,38.04-.4,3.07-1.01,6.11-3.36,8.43Z"/>
        <path class="cls-10" d="M348.14,571.39c-19.18,10.76-38.35,21.52-57.53,32.27-3.41,1.91-6.98,3.57-10.27,5.66-2.08,1.33-2.81.45-3.68-1.24-2.32-4.49-4.71-8.93-7.07-13.39,2.29-1.64,4.45-.51,6.41.57,2.79,1.55,5.24,1.07,7.82-.42,28.82-16.55,58.02-32.44,86.84-48.97,3.82-2.19,7.79-4.09,11.5-6.47,1.19-.76,2.8-1.09,3.09-2.83-3.81-8.89-9.46-16.72-14.17-25.08-6.15-10.92-12.7-21.63-18.83-32.57-2-3.56-4.53-6.26-8.41-7.73-2.12-.81-4.27-1.62-6.19-2.89-3.18-3.3-6.67-6.45-6.25-11.69,8.74,2.59,16.78,6.93,25.22,10.26,1.78.7,2.45,2.51,3.38,4.04,3.46,5.69,6.97,11.35,10.46,17.02,6.74,13.06,15,25.23,22.3,37.97,2.27,3.97,4.58,7.92,7.04,11.77,1.55,2.43,1.38,3.67-1.41,5.22-16.82,9.37-33.51,18.98-50.25,28.51Z"/>
        <path class="cls-20" d="M195.04,296.62c-1.24,9.9-4.72,19.25-7.26,28.82-7.62,28.8-15.56,57.51-23.47,86.24-.48,1.75-.21,4.08-2.49,5.01-1.81,1.02-3.52.24-5.16-.39-7.15-2.76-14.29-5.57-21.36-8.53-1.88-.78-4.2-1.35-4.09-4.17,17.89-30.35,35.74-60.72,53.71-91.01,3.21-5.41,5.75-11.28,10.12-15.96Z"/>
        <path class="cls-34" d="M221.43,688.05l8.93,6.82c-1.21,3.6-4.41,2.8-6.94,2.84-11.09.18-22.18.11-33.27.07-14.18-.05-28.37.2-42.56-.11-1.83-.47-3.9-.25-5.33-1.86-.09-.97-.17-1.94-.26-2.91.98-11.79,1.96-23.58,2.94-35.36,2.09-2,4.6-1.4,6.92-.85,11.71,2.78,23.48,5.31,35.09,8.48,2.05.56,4.06,1.25,5.42,3.05,9.68,6.61,19.37,13.22,29.05,19.83Z"/>
        <path class="cls-20" d="M137.98,610.53c.56-3.18,2.5-1.63,4.06-1.15,18.84,5.82,37.69,11.64,56.51,17.52,9.32,2.91,18.79,5.34,27.8,9.2-1.34,2.77-4.13,3.35-6.63,3.95-22.15,5.31-44.21,11.02-66.42,16.07-2.91.66-7.25,2.8-9.01-2.45-2.1-14.38-4.2-28.76-6.3-43.15Z"/>
        <path class="cls-7" d="M437.24,213.42c.98-5.3-1.49-10.06-2.59-14.98-4.45-19.98-9.28-39.87-13.97-59.8,6.41,5.99,12.87,11.92,19.22,17.97,15.07,14.36,30.1,28.77,45.12,43.19,1.15,1.11,2.11,2.41,3.16,3.62-15.16,3.38-30.32,6.76-45.47,10.15-1.84.41-3.69,1.49-5.47-.16Z"/>
        <path class="cls-20" d="M130.22,538.85c-2.38-4.27-.9-9.35-2.86-13.71-.7-1.59-.64-3.19-.03-4.79-1.78-2.73.12-6.18-1.75-8.88-3.37-25.19-6.75-50.38-10.12-75.57-.99-4,1.3-4.21,4.12-3.4,2.83.82,5.35,2.42,8.04,3.6,7.47,3.29,14.93,6.62,22.25,10.23,1.64.81,3.21,1.62,3.99,3.4,0,0-.06-.04-.06-.04-7.86,29.72-15.71,59.44-23.57,89.16Z"/>
        <path class="cls-37" d="M360.8,143.81c-1.87,1.13-1.23,2.15.06,3.29,9.78,8.64,19.54,17.32,29.31,25.98-.28.07-.57.12-.86.14-.91.69-1.84,1.4-2.99,1.6-15.24,2.59-30.49,5.09-45.88,6.55-2.53-.38-4.5-1.89-6.32-3.5-8.88-7.87-17.34-16.2-26.33-23.95-.74-.64-1.08-1.62-1.7-2.37-.09-.31-.12-.62-.12-.95,17.63-2.3,35.25-4.6,52.88-6.88.63-.08,1.3.05,1.94.09Z"/>
        <path class="cls-10" d="M499.13,429.85c-5.74-1.46-11.57-.45-17.35-.62-6.79-.19-13.62-.33-20.39.05-4.56.26-6.2-1.32-5.56-5.72.16-1.1-.04-2.26-.07-3.39,0,0,.13-.09.13-.09,9.55-.57,19.01-1.99,28.66-1.92,36.43.27,72.87.18,109.3.05,7.02-.02,13.8,1.8,20.76,2,.55,9.44.55,9.35-8.74,9.46-13.65.16-27.3-.54-40.94.4-4.01,1.57-8.18,1.96-12.47,1.93-15.19-.1-30.37-.01-45.56-.06-2.75,0-5.63.26-7.76-2.11Z"/>
        <path class="cls-11" d="M614.6,420.23c-50.13-.01-100.26-.02-150.4-.04-2.78,0-5.55-.06-8.32-.09.74-.27,1.46-.73,2.21-.78q7.46-.57,7.63-7.99c.01-.65.09-1.3.14-1.95,2.57-2.44,5.84-1.96,8.85-1.79,32.81,1.82,65.65.46,98.47.99,8.2.13,16.29-1.17,24.46-1.09,2.41.02,4.1-.77,4.5-3.44.19-1.29.66-2.54,1.78-3.39.26-.01.52-.03.78-.04.04,4.55.37,9.13.03,13.66-.31,4.27,1.44,5.45,5.34,5.06,1.49-.15,3.29-.7,4.54.89Z"/>
        <path class="cls-20" d="M68.64,583.22c2.46-15.87,4.99-31.73,7.33-47.62.49-3.36.3-6.82.42-10.24.32.03.64.05.96.08,8.14,16.5,16.31,32.99,24.41,49.5,3.37,6.87,6.59,13.82,9.9,20.72.64,1.34,1.17,2.69,1.01,4.22-13.45-5.15-26.89-10.31-40.34-15.46-1.2-.46-2.45-.8-3.67-1.2Z"/>
        <path class="cls-6" d="M603.92,400.65c.06,10.3,1.18,8.34-8.79,8.89-27.75,1.54-55.52.29-83.27.84-15.36.3-30.66-1.06-46.01-1.01,0-2.9,0-5.79,0-8.69,1.15-.91,2.51-.54,3.78-.54,43.5-.02,87-.02,130.49,0,1.28,0,2.62-.32,3.8.49v.02Z"/>
        <path class="cls-18" d="M153.85,449.73c-11.49-5.24-22.98-10.47-34.45-15.75-2.22-1.02-4.09-1.72-3.95,1.92-1.76-2.14-.39-3.98.63-5.78,5.02-8.85,10.09-17.68,15.14-26.52,6.66,4.77,14.78,6.24,22.04,9.69,2.77,1.32,5.71,2.28,8.58,3.41.86,5.99-2.42,11.13-3.48,16.74-1.05,5.52-2.96,10.87-4.49,16.3Z"/>
        <path class="cls-21" d="M499.13,429.85c21.93.08,43.86.16,65.79.24-16.23,9.52-32.46,19.07-48.72,28.55-5.04,2.94-10.17,5.74-15.25,8.6-.61-12.46-1.21-24.93-1.82-37.39Z"/>
        <path class="cls-35" d="M201.94,210.41c4.39-2.4,8.77-4.84,13.7-6.01,1.96.92,2.61,2.85,3.37,4.61,4.25,9.86,9.25,19.38,13.33,29.32,1.01,2.2,2.22,4.32,3.07,6.59.63,1.67,1.29,3.5-1.17,4.43-9.51,3.55-18.65,8.07-28.41,11.01-1.59-14.85-3.14-29.7-4.08-44.61-.11-1.82.2-3.55.19-5.32Z"/>
        <path class="cls-20" d="M48.23,520.14c-1.46.34-2.27,1.2-2.19,2.76.24,4.74-.68,9.4-.93,14.1-1.14,20.94-1.62,41.93-3.27,62.82-.59,7.43.36,15-1.59,22.34-.34,1.29-.14,2.67,1.6,3.04-2.15,4.67-6.33,2.62-9.42,2.23-2.8-.35-1.3-3.58-1.24-5.45,1.04-32.91,2.25-65.81,3.23-98.72.13-4.39,1.12-6.32,5.79-4.86,2.61.81,5.35,1.18,8.04,1.75Z"/>
        <path class="cls-39" d="M144.27,653.68c1.89,2.74,4.41,2,7.01,1.37,19.72-4.86,39.45-9.71,59.19-14.49,5.35-1.29,10.78-2.22,15.86-4.45.4.3.8.6,1.2.9-11.72,10.4-23.44,20.81-35.16,31.21-12.61-3.09-25.22-6.16-37.83-9.26-3.16-.78-6.29-1.68-9.6-1.43-.56-1.23-.97-2.48-.67-3.85Z"/>
        <path class="cls-23" d="M234.25,249.34c1.67-4.29-2.72-6.84-3.03-10.57-.25-1.03-.02-2.16.71-2.68,4.22-3.02,6.71-8.34,12.42-9.39,4.65,4.15,5.31,10.36,8.03,15.51,5.1,11.43,9.96,22.96,14.8,34.51.8,1.92,1.77,3.9.73,6.09-5.09,2.58-10.28,4.35-15.99,2.03,0,0,.06.05.06.05-4.39-9.66-8.7-19.36-13.23-28.95-1.12-2.38-1.31-5.56-4.49-6.6Z"/>
        <path class="cls-11" d="M519.68,327.08c-3.48,3.64-7.03,7.22-10.42,10.94-1.76,1.93-3.09,1.75-4.79-.07-2.89-3.09-6.03-5.93-8.92-9.03-1.73-1.85-3.01-1.91-4.76,0-2.75,2.99-5.85,5.66-8.58,8.67-1.98,2.18-3.4,2.31-5.5.08-3.45-3.65-7.22-7-10.86-10.47.38-.88,1.15-1,1.98-1.09q6.81-.67,6.81-7.3c0-9.24-.03-18.49.03-27.73.01-1.71-.64-3.6.85-5.08,1.98,1.92,1.73,4.45,1.75,6.85.07,8.44.23,16.88-.05,25.31-.15,4.63,1.16,7.49,6.05,7.97,6.54-.03,13.08-.06,19.63-.09.46.05.92.15,1.36.28,2.82.31,5.64.68,8.49.25,2.31.24,4.69-.57,6.93.51Z"/>
        <path class="cls-25" d="M593.14,285.47l.97.49c1.11,6.62.31,13.3.48,19.95.15,6.03,0,12.06.05,18.1.01,1.89,0,3.72-2.29,4.24-2.39.54-4.86,1.01-6.01-2.11.07-11.84.11-23.68.25-35.52.02-1.8-.88-4.02,1.57-5.13,1.66-1.3,3.32-1.05,4.98,0Z"/>
        <path class="cls-27" d="M564.99,285.48c2.32.92,1.53,2.98,1.55,4.62.11,11.99.14,23.98.19,35.96.29.59.18,1.09-.31,1.52-2.49,1.4-4.97,1.41-7.43-.07-.45-.45-.55-.98-.31-1.57.04-11.87.04-23.74.14-35.61.01-1.67-.74-3.66,1.25-4.86,1.64-1.18,3.29-1.24,4.92,0Z"/>
        <path class="cls-9" d="M520.61,312.23c-1.87-1.36-.75-2.5.31-3.58,4.11-4.17,8.28-8.28,12.36-12.48,1.15-1.18,2.22-1.28,3.36-.23,4.97,4.61,9.8,9.37,14.07,14.66.06.07-.31.49-.47.74-2.44,1.44-5.09,1.99-7.91,1.9-7.25-.23-14.55.69-21.73-1.01Z"/>
        <path class="cls-25" d="M483.27,326.13c-6.61,2.33-7.72,1.59-7.73-5.1,0-11.68-.01-23.36-.02-35.04.33-.18.67-.36,1-.53,1.65-1.07,3.3-1.28,4.94,0,.3.15.6.31.91.46,1.03,8.05.17,16.14.48,24.2.2,5.32-.52,10.66.4,15.96l.02.04Z"/>
        <path class="cls-27" d="M503.92,285.96c.22-.2.46-.37.73-.49,1.66-1.3,3.33-1.16,4.99-.01,1.91,1.25,1.21,3.22,1.22,4.9.1,11.86.11,23.71.16,35.57-2.07,3.13-4.82,1.32-7.36,1.02-.21-13.67-.69-27.33.26-40.99Z"/>
        <path class="cls-31" d="M566.6,327.02c.01-.32.05-.64.12-.96,6.54.02,13.08.05,19.62.07,6.61,2.33,7.77,1.58,7.77-5.08,0-11.7,0-23.4,0-35.09,1.56,1.47.87,3.38.88,5.09.07,10.11.17,20.23-.04,30.33-.07,3.56.88,5.32,4.63,4.71,4.38-.72,5.69,1.16,5.43,5.44-.39,6.34-.21,12.71-.28,19.07-.24,0-.48,0-.72,0,0-7.23,0-14.46,0-22.79-4.21,3.74-7.75,6.51-10.82,9.74-2.31,2.43-3.8,2.16-5.86-.14-2.6-2.89-5.52-5.5-8.23-8.3-1.34-1.38-2.6-2.56-4.51-.96-2.76.35-5.63,1.41-7.99-1.11Z"/>
        <path class="cls-10" d="M520.61,312.23c1.39-1.67,3.29-.99,4.98-.99,8.22-.03,16.44.06,24.66.1-4.64,4.91-9.29,9.82-13.93,14.73-1.38.97-2.28.39-2.95-.92-4.25-4.31-8.5-8.62-12.75-12.92Z"/>
        <path class="cls-23" d="M533.36,325.16c.98.31,1.97.61,2.95.92,7.45-.04,14.9-.09,22.35-.13.05.37.11.74.16,1.11-2.95,2.73-5.91,1.59-8.88.03-4.34,1.27-6.42,5.25-9.45,8.05-5.41,4.99-5.19,5.03-10.68-.14-3.12-2.93-5.35-7.09-10.14-7.91-2.64-.01-5.27-.02-7.91-.03-.29-.2-.39-.4-.29-.6.1-.2.19-.3.29-.3,5.67-.02,11.35,0,17.02-.09,1.55-.02,3.28.55,4.57-.91Z"/>
        <path class="cls-38" d="M207.92,136.67c-4.77,3.11-10.05,4.88-15.61,5.91-3.9-11.17-3.83-10.96,6.64-14.93,4.2-1.59,6.19-.84,7.09,3.5.39,1.89,1.24,3.68,1.88,5.52Z"/>
        <path class="cls-11" d="M603.92,400.64c-46.02.02-92.05.03-138.07.05,0-.35,0-.7,0-1.05,44,0,88-.01,132,.04,2.03,0,4.27-.76,6.06.97Z"/>
        <path class="cls-32" d="M593.14,285.47c-1.66,0-3.32,0-4.98,0-4.16-7.62-4.1-7.95,2.45-15.8,6.46,7.57,6.57,8.28,2.53,15.8Z"/>
        <path class="cls-32" d="M509.65,285.46c-1.66,0-3.33.01-4.99.02-3.88-6.9-3.69-8.58.92-14.42,1.47-1.86,2.02-1.13,3.11.29,3.48,4.54,5.37,9.08.97,14.11Z"/>
        <path class="cls-32" d="M481.46,285.47c-1.65,0-3.29,0-4.94,0q-3.78-7.12,2.14-15.62c6.22,5.36,6.77,8.44,2.8,15.62Z"/>
        <path class="cls-32" d="M564.99,285.48c-1.64,0-3.29,0-4.93,0-5.4-6.14-1.5-10.88,2.34-15.63,6.4,6.18,6.73,8.19,2.59,15.64Z"/>
        <path class="cls-25" d="M503.92,285.96c0,13.67,0,27.35,0,41.02-.33.44-.65.41-.97,0,.02-.31,0-.63-.06-.93.05-11.69.06-23.37.19-35.06.02-1.67-.8-3.58.84-5.02Z"/>
        <path class="cls-11" d="M483.25,326.09c-1.43-1.5-.86-3.39-.87-5.11-.05-11.69-.02-23.37-.01-35.06,1.39,1.12.9,2.69.9,4.09.02,12.03,0,24.05-.02,36.08Z"/>
        <path class="cls-11" d="M502.95,326.98c.32.04.65.04.97,0,2.39-.17,4.99.99,7.1-1.06.26.02.51.09.74.22,0,.3,0,.6,0,.9-2.95,1.51-5.89,1.63-8.82-.07Z"/>
        <path class="cls-11" d="M465.84,389.78c1.92.36,4.07-.59,5.77,1.01-1.93,0-3.85.01-5.78.02,0-.34,0-.69,0-1.03Z"/>
        <path class="cls-8" d="M331.39,456.6c1.92,3.8,3.82,7.61,6.81,10.73,7.02,8.83,11.83,19.03,17.74,28.56,6.43,10.37,12.48,20.97,18.72,31.46,1.06,1.77,2.54,3.47,2.08,5.81-6.81,5.41-14.7,9.03-22.16,13.34-24.88,14.39-50.06,28.23-74.89,42.7-3.22,1.88-6.34,4.08-10.19,4.6-4.19,1.06-7.64,3.62-11.1,5.96-3.89,2.65-5.66,1.76-7.71-2.29-9.5-18.86-19.3-37.57-29.02-56.33-.59-1.14-1.37-2.18-2.06-3.27-.56-2.93-2.01-5.56-3.67-7.87-3.09-4.34-1.24-6.33,2.72-8.37,5.16-2.66,10.31-5.41,14.87-9.08.42-.35.88-.43,1.39-.27,6.3,4.43,11.19,10.37,16.53,15.81,3.35,3.41,6.6,4.58,11.29,3.21,9.51-2.77,19.53-3.4,28.99-6.45,1.78-.88,2.38-2.55,2.9-4.29,2.34-7.76,4.8-15.49,6.86-23.32.32-2.97-1.99-4.63-3.33-6.78-2.35-3.79-6.32-6.64-6.68-11.59,3.06-4.29,7.24-6.71,12.41-7.48,6.41-3.68,12.81-7.39,19.26-11.01,2.63-1.48,5.02-3.54,8.23-3.77Z"/>
        <path class="cls-4" d="M254.71,420.26c7.34,12.7,14.67,25.4,22.02,38.09.73,1.26,1.66,2.44,1.65,4.01-.27,1.67-1.61,2.36-2.87,3.11-9.96,5.88-20.06,11.5-30.05,17.33-1.42.83-2.93,1.43-4.62,1.43-7.04-1.08-13.32-4.41-19.84-6.93-18.59-7.18-37.25-14.19-55.77-21.56-3.37-1.34-6.31-3.4-9.48-5.07-.32-.35-.64-.69-.96-1.04,13.5-4.11,26.98-8.26,40.49-12.31,18.05-5.41,36.13-10.74,54.19-16.12,1.72-.51,3.39-1.19,5.23-.93Z"/>
        <path class="cls-7" d="M155.76,450.67c16.97,6.51,33.93,13.04,50.92,19.51,11.53,4.39,23.1,8.68,34.65,13.02,4.77,6.01,7.36,12.98,9,20.38-4.87,3.77-9.5,7.97-15.93,8.98-.29,0-.58-.01-.87-.01-23.22-18.82-46.77-37.24-70.45-55.48-2.56-1.97-4.88-4.25-7.32-6.39Z"/>
        <path class="cls-21" d="M339.26,179.96c15.07-2.15,30.15-4.31,45.23-6.42,1.59-.22,3.22-.21,4.83-.31-3.36,11.41-6.61,22.85-10.1,34.21-14.75,47.98-29.57,95.95-44.39,143.91-1.06,3.42-2.36,6.77-3.55,10.15-4.4,4.67-9.53,8.09-15.95,9.31-1.73-.6-2.41-2.11-3.07-3.62-11.76-26.77-23.56-53.52-35.05-80.41-.54-1.41-1.41-2.71-1.53-4.28,0-.82.25-1.54.85-2.12,5.52-2.77,11.65-2.09,17.49-3.03.5.07.95.26,1.35.57,1.61,2.37,1.82,5.16,2.04,7.87.28,3.48,1.71,3.69,4.36,2.09,7.74-4.67,15.77-8.85,23.22-14.02.7-.38,1.44-.58,2.24-.63,4.84-.71,9.69-1.27,14.55-1.82,6.05-.68,6.36-.99,5.69-6.91-2.96-26.06-6.36-52.06-9.29-78.12-.25-2.25-.86-4.56,1.09-6.43Z"/>
        <path class="cls-2" d="M376.39,425.07c-13.7-3.63-27.4-7.26-41.1-10.88-.35-.34-.53-.76-.57-1.25,2.35-5.87,7.09-10.07,10.7-15.04,4.88-6.72,10.03-13.25,15.12-19.83,1.45-1.87,2.57-4.25,5.24-4.86,12.07,3.59,24.15,7.18,36.22,10.78.94,2.35-.51,4.11-1.61,5.84-6.85,10.69-13.6,21.46-20.45,32.15-.86,1.35-1.67,2.85-3.54,3.1Z"/>
        <path class="cls-12" d="M376.39,425.07c8.53-13.7,17.07-27.39,25.6-41.09,8.26,2.12,16.21,5.35,24.62,6.94-3.53,8.83-9.18,16.49-13.77,24.73-5.39,9.69-11.07,19.22-16.63,28.81-.89,1.53-1.42,3.33-3.03,4.36-5.6-7.91-11.19-15.83-16.79-23.75Z"/>
        <path class="cls-26" d="M365.77,373.2c-10.17,13.42-20.33,26.84-30.5,40.26-2.5.22-3.32-1.67-4.12-3.43-5.27-11.67-10.19-23.49-15.35-35.21-.64-1.44-1.46-2.99-.15-4.55,5.21-2.93,10.42-5.85,15.63-8.78,10.02,3.26,20.06,6.51,30.07,9.81,1.52.5,2.95,1.26,4.43,1.9Z"/>
        <path class="cls-5" d="M417.95,241.74c6.35,1.75,12.88,3.02,18.4,6.95,1.35,1.41.91,3.05.47,4.6-2.28,8.15-4.81,16.23-7.41,24.28-.56,1.73-1.55,3.22-3.01,4.36-1.35,4.6-2.63,9.22-4.09,13.79-.65,2.03-.69,4.71-3.8,4.92-6.34,1.16-11.77-.76-16.56-4.88.3-1.37.6-2.74.91-4.12-.74-3.77.26-7.42,1.31-10.91,3.43-11.34,7-22.63,10.36-34,.59-1.98,1.02-4.18,3.41-4.98Z"/>
        <path class="cls-13" d="M361.43,303.4c25.87,8.2,50.34,15.95,75.14,23.81-1.84,2.4-4.34,1.73-6.33,2.27-9.26,2.5-18.56,4.81-27.88,7.08-1.94.47-3.82,1.24-5.86-.67-11.23-10.58-22.62-20.99-35.08-32.49Z"/>
        <path class="cls-13" d="M417.95,241.74c-5.25,16.56-10.57,33.1-15.08,49.88-2-4.47-1.21-9.24-.65-13.69.71-5.64.54-11.22.68-16.83.95-4.37-.08-8.24-2.95-11.65l-8.77-7.77c.87-1.1,2.1-1.55,3.41-1.63,6.46-.41,12.92-.39,19.38-.02,1.31.07,2.53.56,3.43,1.6.19,0,.37.03.54.11Z"/>
        <path class="cls-21" d="M426.42,281.92c3.31-11.08,6.63-22.16,9.94-33.24.31-.36.61-.73.92-1.09,1.29-.72,2.53-.26,3.68.29,5.66,2.69,11.26,5.51,16.8,8.43,1.13.6,2.24,1.35,2.18,2.9-4.5,1.44-9.6,0-13.82,2.85-4.33,1.51-6.44,4.94-7.81,9.02-2.97,1.99-5.16,4.73-7.39,7.48-1.14,1.41-1.77,3.93-4.5,3.35Z"/>
        <path class="cls-22" d="M417.41,241.63c-8.74.02-17.48.03-26.22.05-1.27-2.37.22-4.67.17-7.02-.03-1.45,1.14-1.8,2.39-1.75,7.91.31,15.82.67,23.74.92,2.21.07,2.37,1.15,1.77,2.82-.6,1.67-1.24,3.33-1.86,4.99Z"/>
        <path class="cls-3" d="M459.94,259.22c-7.55-3.88-15.11-7.75-22.66-11.63,0-.16-.03-.33.02-.49,2.38-8.42,1.15-6.93,8.2-4.06,3.75,1.53,7.4,3.32,11.08,5.01,7.6,3.48,7.66,3.69,3.36,11.17Z"/>
        <path class="cls-36" d="M438.31,271.09c-.41-7.24,1.33-9.26,7.81-9.02,3.16,1.21,4.62,3.63,4.39,6.88-.2,2.91-2.05,4.77-4.81,5.55-3.37.95-5.58-.86-7.4-3.4Z"/>
        <path class="cls-19" d="M399.95,249.45c5.96,3.06,6.75,6.18,2.95,11.65-2.82,1.42-5.56,1.8-8.13-.55-2.04-1.87-2.44-4.2-1.68-6.69,1.02-3.32,3.75-4.21,6.86-4.4Z"/>
        <path class="cls-29" d="M401.97,295.74c5.52,1.63,11.04,3.26,16.56,4.88.58,3.55-2.82,2.78-4.35,3.62-5.96,3.26-6.06,3.09-9.48-2.88-1.04-1.81-2.35-3.49-2.73-5.62Z"/>
        <path class="cls-12" d="M276.54,280.99l.06,1.83c1.07,3.37,1.18,6.95,2.25,10.32.74,12.52,1.67,25.04,2.48,37.56,1.13,17.39,2.22,34.79,3.46,52.18.28,3.97,1.49,8.14-1.39,11.77,1.12,5.96-2.2,8.88-7.01,11.51-7.37,4.04-14.39,8.72-21.56,13.12,0,0,.01,0,.01,0-1.18-2.18.2-4.67-.85-6.87-.7-42.52-1.39-85.05-2.09-127.57,5.32-.73,10.72-1.06,15.84-2.91,2.73-2.23,5.69-2.25,8.8-.95Z"/>
        <path class="cls-18" d="M253.99,412.41c1.57,2.13.56,4.58.85,6.87-1.75-2.11-.71-4.56-.85-6.87Z"/>
        <path class="cls-4" d="M283.4,394.65c-1.59-25-3.23-49.99-4.76-74.99-.55-8.93-.86-17.88-1.28-26.82-.29-2.38-1.61-4.9.93-6.89,11.93,27.3,23.85,54.61,35.79,81.9.38.87,1.04,1.62,1.56,2.43,5.9,13.7,11.78,27.41,17.72,41.09.36.82,1.25,1.41,1.9,2.1.02.24.02.48.01.72-8.67-2.15-17.34-4.27-26-6.45-5.21-1.31-10.34-3.03-15.61-3.94-5.54-.96-10.55-1.92-10.28-9.15Z"/>
        <path class="cls-15" d="M249.83,503.7c-2.83-6.84-5.67-13.67-8.5-20.51,12.35-6.94,24.7-13.89,37.05-20.83.34.03.69.06,1.03.08,5.65,4.38,10.17,9.61,12.48,16.51,3.31,4.71,6.63,9.43,9.94,14.15.69.98,2.07,1.75,1.13,3.3-1.19,2.03-2.99,3.34-4.98,4.53-11.45,6.86-23.14,13.31-34.51,20.3-1.79,1.1-3.6,2.34-5.91,1.48-4.22-5.67-7.54-11.71-7.74-19.02Z"/>
        <path class="cls-13" d="M291.9,478.96c-4.16-5.5-8.32-11.01-12.48-16.51,8.37,2.42,16.55,5.35,24.49,8.94-4,2.53-8,5.05-12,7.58Z"/>
        <path class="cls-16" d="M146.96,695.89c25.93-.01,51.87-.01,77.8-.07,1.89,0,3.95.63,5.6-.95,4.09,2.3,2.27,6.2,1.96,9.23-.3,2.93-3.5,1.49-5.35,1.5-25.6.1-51.21.07-76.82.07q-8.42,0-7.88-8.8c1.38-1.21,3.29.17,4.69-.97Z"/>
        <path class="cls-17" d="M146.96,695.89c-1.33,1.48-3.1.76-4.69.97,0-.35,0-.7,0-1.06,1.56.03,3.13.06,4.69.09Z"/>
        <path class="cls-11" d="M599.02,390.8c1.4-1.49,3.25-.73,4.9-1.01-1.37,1.6-3.24.82-4.9,1.01Z"/>
        <path class="cls-24" d="M259.87,184.92c12.43-2.17,24.85-4.36,37.28-6.51,1.27-.22,2.57-.28,3.85-.42,1.59,1.35,1.55,3.2,1.27,4.97-2.12,13.19-4.65,26.31-6.94,39.47-.11.64-.49,1.2-.87,1.73-3.18,2.12-5.99,4.93-9.99,5.58-2.36-.16-3.66-1.87-5.02-3.49-8.77-10.43-17.37-20.99-26.04-31.5-1.42-1.72-3.32-3.39-1.47-5.94,2.64-1.29,5.28-2.59,7.92-3.88Z"/>
        <path class="cls-35" d="M251.95,188.8c-.38,3.75,2.98,5.22,4.81,7.51,8.27,10.37,16.78,20.56,25.23,30.79.61.73,1.49,1.24,2.24,1.85.29,2.28-1.67,2.64-3.03,3.2-8.47,3.46-16.81,7.26-25.45,10.29-1.58.55-3.13.94-4.77.32-2.3-5.24-4.61-10.49-6.91-15.73-1.49-.85-2.29-2.24-2.93-3.76-2.88-6.88-5.98-13.66-8.64-20.62-.74-1.93-1.85-3.91-.13-5.93,6.52-2.64,13.05-5.28,19.57-7.92Z"/>
        <path class="cls-8" d="M232.37,196.72c1.6,7.52,5.47,14.17,8.18,21.26,1.15,3.02,2.34,6.03,3.51,9.05-4.28,3.92-8.57,7.83-12.85,11.74-5.4-11.36-11.04-22.61-15.57-34.37,5.58-2.56,11.15-5.12,16.73-7.68Z"/>
        <path class="cls-18" d="M269.48,593.8c6.89-5.2,14.67-8.95,22.11-13.23,26.8-15.4,53.72-30.6,80.6-45.85,1.26-.71,2.66-1.17,4-1.75,4.81-1.78,7.75,1.64,11.08,3.99.82,2.32-1.48,2.12-2.42,2.66-32.88,18.57-65.84,37.01-98.7,55.62-4.05,2.29-7.59,4.19-11.94.81-1.18-.92-3.06-.93-4.62-1.36.03-.3,0-.6-.1-.89Z"/>
        <path class="cls-28" d="M293.22,224c2.65-15.33,6.07-30.52,7.78-46.01,2.51-8.66,3.34-17.64,5.08-26.45,3.88,1.52,6.54,4.65,9.54,7.32,7.88,7.02,15.11,14.78,23.63,21.09,1.79,15.33,3.54,30.66,5.37,45.99,1.7,14.2,3.5,28.38,5.2,42.58.16,1.34.76,3.29-1.34,3.61-7.3,1.11-14.57,2.77-22.04,1.97-2.32-2.28-2.16-5.37-2.54-8.21-.93-6.94-1.7-13.91-2.44-20.88-.4-3.74-1.81-5.4-5.98-4.77-6.43.98-12.88,1.96-19.37,2.57-2.11.2-4.22.67-6.12-.76-1.58-6.49-.11-12.44,3.21-18.05Z"/>
        <path class="cls-11" d="M549.95,327.08c2.96,0,5.92-.02,8.88-.03,2.59-.01,5.19-.02,7.78-.03,2.65.47,5.56-.97,7.99,1.11-3.27,3.38-6.57,6.73-9.8,10.15-1.43,1.51-2.61,1.54-4.05.01-3.56-3.78-7.19-7.48-10.79-11.22Z"/>
        <path class="cls-33" d="M127.32,520.35c.01,1.6.02,3.2.03,4.8-1.35-1.59-1.34-3.19-.03-4.8Z"/>
        <path class="cls-12" d="M387.27,536.95c-3.69-1.33-7.39-2.66-11.08-3.99-11.73-19.84-23.48-39.68-35.19-59.53-1.14-1.93-2.72-3.68-2.81-6.1,8.53,2.2,13.87,7.54,18.08,15.4,9.83,18.34,20.61,36.18,31,54.22Z"/>
        <path class="cls-26" d="M258.02,522.4c14.12-8.22,28.24-16.45,42.37-24.66.84-.49,1.72-.89,2.58-1.33-1.65,9.59-5.37,18.59-7.84,27.95-.43,1.63-1.6,1.85-2.96,1.87-10.43,1.2-20.75.02-31.05-1.42-1.32-.18-3.07-.32-3.09-2.4Z"/>
        <path class="cls-10" d="M258.02,522.4c7.52,2.18,15.39,1.45,23.03,2.69,3.67.6,7.41.77,11.11,1.13-11.11,3.54-22.79,4.54-34,7.66-1.68.47-3.15-.2-4.39-1.48-6.44-6.64-12.92-13.24-19.38-19.86,5.14-2.96,9.63-7.04,15.43-8.85,2.73,6.24,5.46,12.47,8.19,18.71Z"/>
        <path class="cls-15" d="M295.01,277.76c-1.28-9.63-2.57-19.26-3.84-28.89-.32-2.4-.58-4.82-.87-7.22,9.19-1.15,18.4-2.18,27.57-3.52,3.13-.46,4.61-.28,4.94,3.51.95,10.85,2.39,21.65,3.64,32.47-.34.34-.67.69-1.01,1.03-7.89,3.44-16.41,3.47-24.74,4.5-1.95.24-3.9.03-5.55-1.26-.04-.21-.09-.42-.15-.62Z"/>
        <path class="cls-41" d="M295.15,278.38c10.1-1.08,20.2-2.16,30.3-3.25-8.07,5.99-17.21,10.22-25.63,15.63-2.1,1.35-3.38.6-3.65-1.8-.39-3.52-.68-7.05-1.01-10.58Z"/>
        <path class="cls-30" d="M278.29,285.95c-1.67,2.11-.46,4.62-.93,6.89-1.54-3.24-.78-6.66-.76-10.02.57,1.04,1.13,2.08,1.7,3.12Z"/>
        <path class="cls-1" d="M382.42,315.02c12.46,3.91,24.93,7.82,37.39,11.72.03.33.06.67.1,1-6.42,1.84-12.84,3.66-19.26,5.52-1.35.39-2.14-.39-2.97-1.18-5.42-5.14-10.84-10.27-16.27-15.4.34-.55.67-1.11,1.01-1.66Z"/>
        <path class="cls-29" d="M300,250.09c1.33-.36,1.64-.48,1.96-.52,13.61-1.48,14.57-.47,13.27,14.7-2.73-2.61-5.12-4.94-7.56-7.21-2.34-2.19-4.74-4.32-7.66-6.97Z"/>
      </g>
    </g>
  </g>
</svg>