<?xml version="1.0" encoding="UTF-8"?>
<svg xmlns="http://www.w3.org/2000/svg" version="1.1" viewBox="0 0 636.44 800">
  <defs>
    <style>
      .cls-1 {
        fill: #5599ae;
      }

      .cls-2 {
        fill: #2b2b2b;
      }

      .cls-3 {
        fill: #569baf;
      }

      .cls-4 {
        fill: #2d2e2d;
      }

      .cls-5 {
        fill: #5296ab;
      }

      .cls-6 {
        fill: #84c7ca;
      }

      .cls-7 {
        fill: #569aaf;
      }

      .cls-8 {
        fill: #66a6a8;
      }

      .cls-9 {
        fill: #e2c9b7;
      }

      .cls-10 {
        fill: #579bb0;
      }

      .cls-11 {
        fill: #467b7e;
      }

      .cls-12 {
        fill: #4e91a7;
      }

      .cls-13 {
        fill: #5497ac;
      }

      .cls-14 {
        fill: #87cce0;
      }

      .cls-15 {
        fill: #8e8e8e;
      }

      .cls-16 {
        fill: #599db3;
      }

      .cls-17 {
        fill: #579aad;
      }

      .cls-18 {
        fill: #5e9eb2;
      }

      .cls-19 {
        fill: #ab9382;
      }

      .cls-20 {
        fill: #bb987f;
      }

      .cls-21 {
        fill: #5b9fb4;
      }

      .cls-22 {
        fill: #5396ac;
      }

      .cls-23 {
        fill: #bc987e;
      }

      .cls-24 {
        fill: #c8d5da;
      }

      .cls-25 {
        fill: #8e8f8f;
      }

      .cls-26 {
        fill: #d9bca6;
      }

      .cls-27 {
        fill: #5598ae;
      }

      .cls-28 {
        fill: #4d90a6;
      }

      .cls-29 {
        fill: #d8bca6;
      }

      .cls-30 {
        fill: #387477;
      }

      .cls-31 {
        fill: #bc977e;
      }

      .cls-32 {
        fill: #2e2e2d;
      }

      .cls-33 {
        fill: #75bdd5;
      }

      .cls-34 {
        fill: #589cb1;
      }

      .cls-35 {
        fill: #464646;
      }

      .cls-36 {
        fill: #3f7889;
      }

      .cls-37 {
        fill: #876956;
      }

      .cls-38 {
        fill: #5599af;
      }

      .cls-39 {
        fill: #b7c6ca;
      }

      .cls-40 {
        fill: #31302f;
      }

      .cls-41 {
        fill: #4a8ca2;
      }

      .cls-42 {
        fill: #bd987f;
      }

      .cls-43 {
        fill: #336567;
      }

      .cls-44 {
        fill: #bc987f;
      }

      .cls-45 {
        fill: #589db2;
      }

      .cls-46 {
        fill: #2e2d2d;
      }

      .cls-47 {
        fill: #569db4;
      }

      .cls-48 {
        fill: #6e7073;
      }

      .cls-49 {
        fill: #dbe8ee;
      }

      .cls-50 {
        fill: #d6e6ed;
      }

      .cls-51 {
        fill: #917868;
      }

      .cls-52 {
        fill: #474848;
      }

      .cls-53 {
        fill: #d4e0e6;
      }

      .cls-54 {
        fill: #4f9093;
      }

      .cls-55 {
        fill: #5295ab;
      }

      .cls-56 {
        fill: #579bb1;
      }

      .cls-57 {
        fill: #5498ae;
      }

      .cls-58 {
        fill: #4d90a5;
      }

      .cls-59 {
        fill: #86cce0;
      }

      .cls-60 {
        fill: #599cb1;
      }

      .cls-61 {
        fill: #484848;
      }

      .cls-62 {
        fill: #72a6a9;
      }

      .cls-63 {
        fill: #856754;
      }
    </style>
  </defs>
  <!-- Generator: Adobe Illustrator 28.7.1, SVG Export Plug-In . SVG Version: 1.2.0 Build 142)  -->
  <g>
    <g id="Layer_1">
      <g id="Layer_1-2" data-name="Layer_1">
        <g>
          <path class="cls-30" d="M404.62,623.89c4.39,20.67,8.82,41.33,13.15,62.02,2.03,9.7,3.89,19.45,5.82,29.17.97,5.32-3.19,5.73-6.5,6.23-8.89,1.35-17.78,2.68-26.66,4.04-1.81.51-3.65.7-5.51.5-2.24-.28-4.29.65-6.41,1.14-22.56,3.6-45.18,6.76-67.79,9.97-1.97.28-3.95.64-5.94.13-.72-.21-1.35-.6-1.88-1.13-1.87-3.09-.42-6.11.52-8.94,15.94-47.91,32.5-95.62,48.66-143.46.84-2.49,1.64-5.15,4.67-6,3.57-.35,5.63,2.15,7.79,4.29,11.75,11.65,23.37,23.43,35.14,35.06,2.1,2.07,3.3,4.63,4.93,6.97h.01Z"/>
          <path class="cls-31" d="M274.15,314.74c-6.72-17.95-15.55-34.99-23.01-52.62-.68-1.62-1.36-3.23-2.05-4.85-1.14-12.02,2.37-23.57,3.5-35.36.36-3.71,1.52-7.36.97-11.14-.12-6.41-2.41-12.61-1.93-19.08,1.34-4.18,5.07-5.91,8.42-7.88,3.8-2.24,5.16-5,3.57-9.29-3.06-8.23-5.26-16.75-8.62-24.88-4.98-13.11-8.81-26.63-13.66-39.78-.69-1.87-1.03-3.81-.36-5.8,6.81-6.56,15.62-7.57,24.37-8.71,10.56,9.42,21.94,17.95,31.52,28.51,3.81,12.58,4.38,25.75,7.07,38.53,1.09,5.18,1.86,10.47,2.68,15.73,2,24.4,3.58,48.83,5.51,73.23.12,1.55-.03,3.09-.52,4.56-2.6,5.01-7.85,4.19-12.14,5.35-5.95,1.61-6.37,2.13-3.34,7.48,9.12,16.15,18.6,32.09,27.75,48.2,1.32,2.32,4.5,4.91,1.2,8.15-2.39.91-4.81.49-7.15,0-12.68-2.6-25.49-4.5-38.08-7.49-2.12-.5-4.35-.85-5.71-2.88h.01Z"/>
          <path class="cls-6" d="M228.76,340.26c9.14-6.55,19.57-10.74,29.46-15.9,6.32,1.87,11.16,6.28,16.38,9.92,17.26,12.03,34.91,23.48,51.99,35.77,5.46,3.92,6.82,3.59,10.46-2.22,5.52-8.83,10.92-17.73,16.3-26.65,2.16-3.59,4.03-7.43,7.29-10.24,3.71,1.22,3.66,5.05,5.34,7.67,11.14,21.95,18.62,45.4,27.93,68.1,1.88,4.6,1.13,8.3-4.28,9.86-17.64,1-35.25,2.59-52.87,3.26-22.95.87-45.84,2.55-68.76,3.75-2.44.12-4.85.21-7.24-.32-.76-.11-1.48-.35-2.17-.69-3.09-2.25-3.88-5.85-5.07-9.13-7.7-21.27-15.78-42.41-23.67-63.61-1.16-3.1-2.61-6.17-1.07-9.57h-.01Z"/>
          <path class="cls-54" d="M357.97,578.58c-2.99.33-2.99,3.02-3.65,4.95-16.58,48.75-33.1,97.52-49.61,146.3-.62,1.85-.84,3.85-1.25,5.78-.52.57-1.13.67-1.81.32-4.76-6.4-5.6-14.29-7.75-21.59-5.99-20.27-13.28-40.17-17.9-60.85-.33-1.47-1.22.18-1.75-.25,1.34-12.54-4.37-23.6-7.46-35.21-2.31-8.71-5.06-17.29-7.6-25.93,2.37-4.68,6.7-7.58,10.53-10.77,14.74-12.3,29.16-24.99,43.71-37.51,1.67-1.44,3.2-3.08,5.51-3.49.64-.04,1.27.01,1.9.18,12.48,10.67,23.89,22.46,35.61,33.93.81,1.26,2.21,2.32,1.52,4.14Z"/>
          <path class="cls-26" d="M310.17,257.25c-1.9-26.58-4.54-53.11-5.51-79.74,2.87-3.89,6.96-3.62,11.07-3.31,16.47.41,32.9-.26,49.35-.99,3.74-.17,7.44-.96,10.93,1.03,2.58,1.66,3.62,4.37,4.84,6.97,1.67,3.41,4.25,7.69,7.5,7.38,3.99-.38,5.88-5.16,7.23-9.11-.06-3.37-1.93-6.6-.76-10.06,8.46-6.55,18.02-11.48,26.34-18.25,1.49-.76,3-1.66,4.48.03.22,9.86.22,19.72.7,29.57.83,16.96,1.97,33.9,2.92,50.84.19,3.34-2.81,3.46-4.92,4.4-2.1-.96-3.85-.66-5.11,1.4-.5,0-.99.02-1.49.03-4.05.22-7.87,1.42-11.72,2.59-28.99,7.29-58.53,11.82-87.73,18.01-2.69.57-5.65,1.74-8.13-.79h0Z"/>
          <path class="cls-33" d="M521.66,373.45c3.39,6.18,6.68,12.42,10.24,18.5,1.46,2.5.47,3.42-1.63,4.52-11.72,6.12-23.38,12.33-35.07,18.52-1.73-.25-2.59-1.55-3.45-2.85-2.74-4.16-6.2-4.71-10.37-1.63-1.96,1.45-3.9,2.93-5.99,4.18-8.08,4.82-16.02,9.7-16.7,20.57-.07,1.05-.95,1.97-1.71,2.81-18.38,10.54-37.17,20.28-55.74,30.46-4.63,2.54-9.22,5.17-14.09,7.26-.35.5-.69,1-1.04,1.51-14.83,6.4-28.47,15.09-42.75,22.53-5.47,2.85-11.03,5.6-16.41,8.64-8.49,4.93-17.19,9.47-25.79,14.21-6.41,2.73-11.62,8.14-19.03,8.66-6.55-3.38-11.44-8.86-17.1-13.37-1.39-1.1-2.34-2.65-2.15-4.6,2.93-5.05,8.49-6.37,13-9.18,1.63-.88,3.19-1.9,4.75-2.9,11.18-6.28,22.75-11.84,33.83-18.27,1.61-.99,3.18-2.03,4.85-2.91,11.41-5.8,22.86-11.5,33.74-18.26,1.65-.78,3.21-1.73,4.82-2.61,11.81-5.01,22.56-11.99,33.78-18.06,1.97-.54,3.4-1.94,4.94-3.18,12.25-4.84,23.1-12.35,34.82-18.22,1.71-.72,3.29-1.67,4.93-2.53,11.25-6.18,22.52-12.3,33.85-18.33,1.73-.72,3.18-1.92,4.77-2.88,11.66-5.47,22.6-12.28,33.93-18.36,1.73-.62,3.23-1.65,4.76-2.65,2.56-1.01,4.95-2.94,7.98-1.58l.02.02Z"/>
          <path class="cls-24" d="M509.68,779.8c-16.95,1.05-33.67,3.88-50.49,6.01-19,2.4-37.99,4.89-56.98,7.36-14.41,1.87-28.91,3.26-43.2,5.83-9.12,1.65-17.57-1.23-26.12-2.4-21.59-2.95-43.17-5.92-64.77-8.83-26.37-3.55-52.73-7.18-79.13-11.85,15.83-2.25,31.7-4.34,47.49-6.86,6.86-1.09,14.07-.67,20.45-4.19,3.72.75,3.94,4.21,5.15,6.82,1.36,2.9,1.54,6.32,3.94,8.74,1.96,2.34,4.71,2.27,7.35,2.3,13.08.1,26.16.06,39.24.03,3.9,0,7.25-.56,6.83-5.69.2-4.6-3.37-7.38-5.29-10.95-1.52-2.82-4.03-5.5-1-8.83,3.86-2.72,8.49-1.9,12.72-2.88,18.1-4.18,36.2-4.44,54.39-.85,4.89,2.12,3.67,7.01,4.87,10.82.64,2-.03,5.03,2.77,5.44,2.88.42,3.13-2.55,3.98-4.48,3.01-6.89,4.55-7.96,10.67-3.07,16.26,12.96,35.01,7.66,52.95,8.38,4.49.18,3.61-4.26,4.96-6.76.35-.65.86-1.14,1.52-1.46.36,8.21,6.21,8.73,12.5,9.5,11.76,1.44,23.28,4.6,35.18,5.22.81.87.81,1.75,0,2.62h.02Z"/>
          <path class="cls-41" d="M425.64,151.19c-1.25.4-2.49.8-3.74,1.2-8.81,4.86-18.09,8.23-28.24,8.76-3.32-1.51-3.62-4.79-4.38-7.72-2.35-8.96-4.49-17.97-6.79-26.95-1.76-6.91-2.82-7.39-8.89-6.17-5.85,1.18-5.15,4.82-4.18,8.99,1.9,8.16,3.48,16.4,5.31,24.57.71,3.21,1.58,6.46.74,9.81-1.64,4.28-5.65,4.63-9.27,5.39-16.85,3.49-33.88,5.64-51.02,7.09-3.51.45-7.02.89-10.54,1.34-3.97-17.92-6.78-36.03-9.06-54.22,1.59-2.92,4.64-3.06,7.35-3.69,7.89-1.84,15.82-3.56,23.74-5.25,8.44-2.34,17.26-3.11,25.48-6.36,18.39-3.99,36.74-8.14,55.09-12.3,2.19-.49,4.37-.81,6.44.46,8.4-1.82,16.84-3.42,25.15-5.55,3.24-.83,4.16-.1,4.74,3.02,2.8,15.2,5.78,30.36,8.76,45.51.65,3.3-.56,4.69-3.8,5.51-7.69,1.95-15.29,4.33-22.91,6.53h.02Z"/>
          <path class="cls-26" d="M327.45,116.17c-10.61,2.36-21.24,4.74-31.86,7.11-6.98-3.92-12.47-9.7-18.14-15.13-3.87-3.71-9.78-5.54-11.28-11.56,1.42-3.4,4.77-3.66,7.64-4.52,21.76-6.49,43.37-13.5,65.15-19.95,21.27-6.66,42.46-13.64,64.1-19.12,3.68.76,1.14,4.34,2.74,6.05,1.09,8.57,3.04,16.97,5.41,25.27-.01,4.13,1.22,7.99,2.51,11.84-20.16,4.96-40.27,10.06-60.78,13.48-14.03.42-27.91-1.01-39.34-3.18,3.76,1.94,11.08,2.1,13.86,9.71h-.01Z"/>
          <path class="cls-35" d="M241.77,104.5c5.03,15.01,10.07,30.02,15.1,45.02-.64,2.27-2.54,2.88-4.49,3.38-25.41,6.56-50.72,13.54-76.17,19.97-1.06.27-2.2.21-3.26.54-3.95-1.94-1.43-5.18-1.06-7.5,2.53-16.29,5.42-32.52,8.22-48.77.37-2.11,1.54-4.28-.68-6.09.64-7.94.8-15.98,4.98-23.16,2.42-1.74,5.1-1.34,7.67-.66,15.01,3.91,29.86,8.37,44.54,13.38,2.14.72,4.1,1.69,5.15,3.89h-.01Z"/>
          <path class="cls-15" d="M228.76,340.26c9.25,25.08,18.52,50.15,27.74,75.24.68,1.84,1.07,3.79,1.59,5.69-1.35,3.14-4.52,3.21-7.12,4.25-8.6,3.42-18.33,3.77-25.99,9.69-5.13-.16-10.02.97-14.93,2.42-13.12,3.89-26.3,7.62-39.44,11.47-3.12.91-6.3,2.4-9.58.43,8.76-16.89,19.67-32.49,29.56-48.69,12.43-20.35,25.42-40.36,38.17-60.52v.02Z"/>
          <path class="cls-48" d="M120.6,84.25c5.88-19.69,11.74-39.38,17.63-59.06,1.58-5.29,4.94-6.67,10.08-4.16,4.15,2.04,8.26,4.13,12.39,6.19,4.64-.13,8.37,2.34,12.29,4.28,7.69,3.82,15.16,8.07,22.6,12.39,1.01,2.32-.49,3.74-1.85,5.21-9.24,8.31-16.69,18.29-25.2,27.28-7.14,7.55-13.49,15.86-20.81,23.28-2.36,2.4-4.07,5.24-5.35,8.34-3.27-.16-5.7,1.06-7.99,3.58-9.63,10.56-19.52,20.88-30.53,30.62,5.59-19.32,11.16-38.63,16.75-57.96h0Z"/>
          <path class="cls-63" d="M310.17,257.25c30.09-5.89,60.19-11.77,90.28-17.64,2.16-.42,4.36-.59,6.55-.88,1.35-.49,2.78-1.18,2.78,1.27-16.16,5.29-32.21,10.87-48.5,15.68-6.09,1.8-8.95,4.16-9.32,10.97-1.11,20.53-4.32,40.9-4.75,61.49-7.91,2.64-14.95.88-21.35-4.19-11.08-19.14-22.11-38.31-33.3-57.4-2.55-4.36-2-6.14,3.34-6.6,4.81-.4,9.53-1.77,14.29-2.72v.02Z"/>
          <path class="cls-35" d="M161.04,449.47c18.79-5.4,37.59-10.78,56.36-16.21,2.78-.8,5.54-2.16,7.33,1.54,2.31.98,3.02,3.13,3.63,5.25,4.85,16.78,9.71,33.56,14.39,50.39.48,1.71.8,3.46.31,5.23-.64,1.74-1.94,2.93-3.53,3.66-6.73,3.04-13.59,5.82-20.36,8.8-1.62.71-3.37.88-5.06.01-17.96-19.31-36.11-38.46-53.07-58.67h0Z"/>
          <path class="cls-35" d="M325.83,323.96c7.11,1.39,14.24,2.8,21.35,4.19,4.48.94,8.96,1.86,13.45,2.8-2.84,9.47-9.57,16.77-14.19,25.24-3.18,5.81-6.95,11.29-10.39,16.96-1.44,2.37-2.85,3.68-5.75,1.68-23.63-16.33-47.31-32.57-70.96-48.86-.5-.35-.76-1.06-1.13-1.61,5.31-3.21,10.61-6.42,15.93-9.62,16.15,2.95,32.29,5.92,48.44,8.86,1.07.2,2.16.25,3.26.36h0Z"/>
          <path class="cls-26" d="M214.1,508.14c9.27-4.06,18.53-8.13,27.8-12.19,5.54-.56,7.48,4.94,11.56,6.85,2.88,3.88,8.21,5.52,9.79,10.6,6.36,5.69,12.71,11.37,19.07,17.07.36.62.37,1.26.06,1.9-11.53,7.86-24.2,13.73-36.36,20.47-3.39,1.88-6.5,4.82-10.86,4.45l-.39.07h-.4c-6-6.11-7.54-14.54-11.29-21.81-1.29-4.72-5-8.8-3.78-14.19-1.73-4.4-3.45-8.81-5.17-13.21h-.01Z"/>
          <path class="cls-8" d="M357.97,578.58l-2.68-2.62c6.44-19.7,14.42-38.84,21.54-58.28.79-2.16,1.64-4.78,4.95-4.25,7.46,35.07,14.93,70.12,22.34,105.19.37,1.72.35,3.51.5,5.27-13.75-13.48-27.5-26.96-41.27-40.42-1.74-1.69-3.59-3.27-5.39-4.91h-.01Z"/>
          <path class="cls-6" d="M381.77,513.43c-5.45,7.65-7.14,16.89-10.64,25.37-4.56,11.02-8.47,22.3-12.67,33.47-.61,1.63-.85,3.56-3.19,3.69-11.56-11.53-23.11-23.07-34.68-34.6-.94-2.93,1.13-4.59,2.9-6.11,7.85-6.72,15.59-13.58,23.3-20.46,4.44-3.95,9.28-6.63,15.39-6.42,6.48.55,13.28-1.88,19.38,2.07.07.99.13,2,.2,2.99h0Z"/>
          <path class="cls-2" d="M172.96,173.41c1.65-2.75,4.47-3.23,7.28-3.97,22.37-5.86,44.72-11.77,67.03-17.83,3.18-.86,6.71-.01,9.6-2.09,3.33,9.28,6.59,18.56,10.02,27.8,1.06,2.84.21,4.54-2.22,6-3.96,2.36-7.82,4.88-11.73,7.34-6.1-2.4-8.04-8.47-11.34-13.22-7.1-10.21-6.91-10.29-16.44-2.48-3.07,2.52-6.05,5.17-9.33,7.39-3.75,2.54-4.09,5.3-1.42,8.85,1.98,2.64,3.81,5.42,5.47,8.27,1.07,1.83,2.73,3.69.88,6-2.91-.07-4.76-2.21-6.89-3.68-13.68-9.42-27.3-18.92-40.93-28.4h0Z"/>
          <path class="cls-11" d="M281.84,531.65c.1-.41.26-.8.48-1.17,6.12-3.03,12.24-6.07,18.36-9.1,7.91,5.07,15.29,10.64,18.69,19.93-17.87,15.44-35.78,30.85-53.6,46.36-2.04,1.77-4.14,3.31-6.57,4.43-2.04-6.3-4.08-12.6-6.12-18.91-.27-1.13-.23-2.29.45-3.2,9.38-12.82,16.69-27.18,28.32-38.33h-.01Z"/>
          <path class="cls-35" d="M387.16,475.79c-.04-1.53.85-2.34,2.12-3.01,22.44-11.81,44.29-24.73,67.13-35.78,3.12,4,.33,7.96-.16,11.91-.32,2.6-1.03,5.15-1.83,7.66-1.78,3.28.33,5.86,1.45,8.7,1.25,3.16,4.46,5.66,3.32,9.64-16.37,4.36-32.75,8.73-49.12,13.08-2.41.64-4.18-.66-6.08-1.86-5.57-3.52-11.23-6.9-16.85-10.34h0Z"/>
          <path class="cls-30" d="M274.27,653.24c.64-1.32,1.27-2.62,2-4.1,8.2,27.05,16.32,53.84,24.41,80.66.57,1.88.85,3.85,1.26,5.78-.27.36-.48.94-.8,1.01-11.41,2.63-22.75,3.75-33.72-1.78,2.29-27.18,4.57-54.38,6.86-81.56h0Z"/>
          <path class="cls-26" d="M452.26,457.4c1.38-6.8,2.78-13.59,4.16-20.39.6-11.92,7.89-18.75,17.73-23.93,3.87-2.04,7.41-4.81,10.85-7.56,3.75-3.01,5.57-2.13,6.83,2.29.71,2.51,2.22,4.81,3.38,7.19,1.18,1.87.79,4.89,3.91,5.34,2.75,4.48,4.15,9.59,6.4,14.31-.71,1.9-1.91,3.33-3.81,4.11-10.89,7.74-23.75,11.56-35.46,17.68-3.11,1.62-6.31,3.24-9.72,4.15-2.46.66-5.08.87-4.25-3.19h-.02Z"/>
          <path class="cls-26" d="M220.78,205.49c-2.16-5.91-6.47-10.48-9.83-15.62-1.86-2.85-2.34-4.52.86-6.89,6.91-5.14,13.54-10.68,20.09-16.27,2.51-2.14,3.72-1.85,5.49.87,5.03,7.79,10.35,15.41,15.55,23.09.87,6.71,3,13.28,2.46,20.17-5.41,6.89-11.85,11.95-21.12,12.11-4.5-5.82-9.01-11.64-13.51-17.46h.01Z"/>
          <path class="cls-2" d="M142.38,108c-3.26-1.8-1.2-3.34.21-4.96,8.41-9.6,16.77-19.23,25.21-28.79,6.85-7.75,13.78-15.42,20.66-23.13,1.18-1.33,2.34-2.66,4.34-2.66,1.57,1.26,1.86,3.04,1.55,4.81-1.84,10.44-3.95,20.82-6.65,31.06-.4,1.54-1.49,2.68-2.61,3.77-.97,5.75-2.01,11.51-2.9,17.28-.35,2.23-.95,4.23-2.78,5.68-12.34-1.01-24.7-2.03-37.04-3.04h0Z"/>
          <path class="cls-31" d="M267.4,734.8c11.5.68,23,1.35,34.53.77.51,0,1.03.02,1.54.03l-.2.32c4.42,5.35,6.09,11.62,6.13,18.43-3.81,4.62-9.51,6.17-14.58,8.57-9.29,4.4-18.35,9.35-28.18,12.61-1.18-.08-2.19-.49-2.87-1.53-2.56-8.74.35-17.32.88-25.96.23-3.66,1.61-7.24,1.58-10.98.39-.76.77-1.51,1.16-2.26h0Z"/>
          <path class="cls-25" d="M391.26,414.3c4.5-2.4,1.3-5.43.36-7.87-8.25-21.24-16.7-42.41-25.04-63.62-.51-1.29-2.06-2.58-.58-4.19,5.91,5.23,9.29,12.34,13.69,18.68,12.91,18.58,25.59,37.31,38.36,55.97.36.55.39,1.13.14,1.73-.38.49-.83.91-1.34,1.26-2.1,1.15-4.18,2.32-6.28,3.48-1.01.56-2.06,1.06-3.11,1.57-2.07.97-4.13,2-6.15,3.06-1.65.75-3.16,1.77-4.83,2.51-1.3.42-2.56.66-3.52-.68-1.71-3.8-1.34-7.89-1.69-11.89h0Z"/>
          <path class="cls-31" d="M389.69,723.79c9.54-3.23,19.67-3.13,29.42-5.14,2.31-.47,4.34-.68,4.47-3.58,2.82,9.4,8.79,17.19,13.03,25.87.68,1.49-.16,2.63-1.14,3.47-5.68,4.81-10.92,10.18-17.77,13.41-15.02-5.95-26.1-19.26-28.02-34.03Z"/>
          <path class="cls-63" d="M452.26,457.4c1.18,4.86,3.87,1.36,5.41.66,12.45-5.61,24.8-11.47,37.19-17.23,2.17-1,4.21-2.51,6.83-2.07-3.86,10.4-10.95,18.98-16.2,28.59-.79,1.45-2.35,1.82-3.9,2.19-7.47,1.75-14.92,3.58-22.37,5.39-2.25-4.04-4.5-8.08-6.75-12.13-.97-1.75-2.11-3.51-.21-5.37h0Z"/>
          <path class="cls-33" d="M224.69,534.67c3.22,7.56,6.43,15.13,9.66,22.69-8.8,4.6-17.66,9.1-26.36,13.89-3.26,1.8-5,1.47-6.6-2.02-2.66-5.81-5.75-11.42-8.66-17.12-.35-3.53,3.02-4.16,4.74-6.09,1.53-.99,3.07-1.97,4.67-2.84,5.44-1.77,10.43-4.47,15.38-7.29,2.2-1.25,4.38-3.22,7.18-1.23h0Z"/>
          <path class="cls-43" d="M326.05,506.73c18.12-9.75,36.22-19.56,54.42-29.13,1.48-.78,3.61-4.6,5.66-.29-.48,2.69-.16,5.54-1.54,8.06-4.05,7.87-11.75,12.12-17.95,17.82-3.11,2.85-5.81,6.76-10.79,6.85-7.7,2.43-15.53,2.25-23.34.96-2.58-.42-5.9-.43-6.46-4.25h-.01Z"/>
          <path class="cls-63" d="M281.84,531.65c-9.06,14.21-18.78,27.96-28.77,41.53l-17.93-15.89c15.09-9.43,30.81-17.68,46.68-25.64h.01Z"/>
          <path class="cls-48" d="M417.8,756.93c6.28-5.33,12.54-10.66,18.82-16,8.46,7.17,16.91,14.34,25.37,21.51-.08.46-.14.93-.22,1.38-2.1,1.72-4.59,1.34-7,1.26-8.62-.3-17.26.26-25.87-.31-5.1-.33-10.28-1.17-11.11-7.85h.01Z"/>
          <path class="cls-63" d="M234.29,222.95c7.59-3.08,14.12-8.01,21.12-12.11.96,10.35-2.22,20.26-3.33,30.38-.59,5.37-.65,10.96-2.99,16.04-4.95-11.43-11.02-22.38-14.8-34.32h0Z"/>
          <path class="cls-59" d="M471.16,399.98c-11.08,7.05-22.68,13.16-34.56,18.73-4.56-2.15-5.9-6.76-8.12-10.69,3.13-1.72,6.28-3.42,9.41-5.14.76.51.95,1.55,1.81,1.96-.56-.69-.59-1.54-.71-2.36,2.61-1.87,5.16-3.85,8.33-4.76.8.78,1.4,1.72,1.93,2.69-.37-.97-.83-1.93-.8-3.01,2.2-2.1,4.91-3.26,7.76-4.13,1.58.33,2.07,1.96,3.2,2.83-.86-1.18-2.13-2.17-1.66-3.91,2.63-1.39,5.26-2.78,7.89-4.17,3.53,3.2,6.87,6.49,5.52,11.95h.01Z"/>
          <path class="cls-59" d="M509.81,378.6c-10.88,7.41-22.22,13.99-34.54,18.78-4.69-2.09-5.83-6.46-6.92-10.85,2.41-1.78,5.02-3.16,7.94-3.88.85.11,1.4.75,2.06,1.18-.36-.77-.64-1.57-.59-2.44,2.3-1.97,4.91-3.36,7.86-4.06,2.13.49,2.4,2.59,3.4,3.92-.47-1.61-2.35-3.09-.66-5.08,1.71-2.25,4.4-2.84,6.75-4.03,1.86.95,2.16,3.2,3.7,4.42-1.48-1.27-1.8-3.51-3.71-4.42,2.63-2.63,6.12-3.74,9.38-5.25,3.27,3.22,6.97,6.24,5.33,11.71h.01Z"/>
          <path class="cls-59" d="M417.96,414.59c-.06-.45-.03-.88.07-1.32,2.95-1.35,5.9-2.69,8.85-4.04,3.8,3.14,6.96,6.59,5.74,12.12-9.77,5.33-19.52,10.69-29.34,15.94-2.01,1.08-4,2.98-6.65,1.39-4.3-2.13-6.14-5.72-6.18-10.39.66-1.34,1.67-2.06,3.21-1.88l3-1.18c2.05-1.1,3.04.21,3.91,1.66.3-.13-.09-.25-.04-.37-.54-1.24-1.16-2.45-.01-3.66,2.23-1,4.46-2,6.69-3,.47-1.14,3.69,3.32,2.48-1.23,2.02-1.63,3.92-3.46,6.68-3.79,1.13.39,1.8,1.4,2.74,2.04-.58-.67-.96-1.45-1.16-2.32h0Z"/>
          <path class="cls-30" d="M357.91,509.26c7.97-9,17.67-16.06,26.68-23.91-1,8.36-2.01,16.71-3.01,25.08-6.95.02-13.88.04-20.83.07-.84-.67-2.19-.16-2.84-1.24Z"/>
          <path class="cls-59" d="M224.69,534.67c-5.95,1.66-10.51,6.08-16.23,8.2-1.95.72-3.67,2.63-6.02,1.06-4.65-1.97-6.03-5.73-5.66-10.44,2.64-1.42,5.29-2.83,7.93-4.25.75.79,1.19,1.81,1.93,2.6-.71-.83-1.19-1.81-1.86-2.66,3.12-1.72,6.26-3.45,9.38-5.16.88,1.17,1.61,2.42,2.21,3.76-.55-1.36-1.33-2.59-2.17-3.78,1.69-.88,3.4-1.75,5.1-2.63,1.81,4.44,3.61,8.86,5.42,13.3h0Z"/>
          <path class="cls-61" d="M266.24,737.05c3.11,8.52-1.07,16.89-.59,25.38.22,3.92-.52,7.92-.84,11.87,1.39,2.55,2.95,5.14-1.15,6.77-2.25-5.4-4.5-10.8-6.75-16.2-1.37-3.5-.57-6.67,1.06-9.95,2.92-5.88,5.52-11.91,8.25-17.88h.01Z"/>
          <path class="cls-42" d="M505.52,434.63c-5.21-3.39-6.27-8.64-6.4-14.31,2.15-1.52,4.45-2.85,6.42-4.57,4.55-3.95,7.45.43,10.16,2.44,3.34,2.49-.55,4.45-1.87,6.26-2.59,3.53-5.52,6.8-8.31,10.19h0Z"/>
          <path class="cls-14" d="M521.66,373.45c-2.52,1.08-4.77,2.95-7.77,2.59-4.5-2.19-6.27-5.81-5.59-10.7,6.05-5.18,6.97-5.1,10.58,1.49,1.15,2.09,1.86,4.4,2.78,6.62h0Z"/>
          <path class="cls-14" d="M198.39,546.39c-.28,3.5-4.17,3.42-5.66,5.72-2.21-1.38-2.65-3.96-4.01-5.91-3.99-5.69-1.87-8.72,4.17-10.24,4.57,2.03,6.87,5.25,5.51,10.41h0Z"/>
          <path class="cls-12" d="M468.34,386.53c3.89,2.61,4.37,7.39,6.92,10.85-.84,1.71-2.13,2.69-4.1,2.6-1.23-4.27-4.77-7.46-5.52-11.95.9-.5,1.8-.99,2.7-1.49Z"/>
          <path class="cls-12" d="M508.3,365.33c1.86,3.57,3.72,7.14,5.59,10.7-.41,2.36-1.96,2.92-4.08,2.56-.77-4.36-4.93-7.18-5.33-11.71,1.27-.52,2.55-1.04,3.82-1.56Z"/>
          <path class="cls-12" d="M432.62,421.36c-1.91-4.04-3.82-8.08-5.74-12.12.54-.4,1.07-.81,1.61-1.22,4.91,1.9,5.52,7.05,8.12,10.69-1.33.88-2.65,1.76-3.98,2.65h0Z"/>
          <path class="cls-28" d="M198.39,546.39c-1.84-3.47-3.67-6.95-5.51-10.41,1.29-.83,2.6-1.66,3.89-2.49,1.88,3.48,3.77,6.96,5.66,10.44-.38,2.41-1.86,3.01-4.05,2.46Z"/>
          <path class="cls-56" d="M448.45,397.4c2.05,2.29,3.57,4.81,4.05,9.03-3.58-2.68-4.62-5.55-5.17-8.72.37-.14.74-.26,1.13-.32h0Z"/>
          <path class="cls-34" d="M488.36,376.17c-.09,2.91,3.1,4.86,2.26,8.67-2.91-2.03-3.53-5.08-5.01-7.52.91-.39,1.83-.77,2.74-1.16Z"/>
          <path class="cls-10" d="M457.75,392.19c1.65,2.46,3.76,4.73,3.99,9.01-3.4-2.42-3.98-5.52-5.53-7.93.51-.36,1.03-.72,1.54-1.08Z"/>
          <path class="cls-51" d="M409.77,240c-.93-.42-1.85-.85-2.78-1.27,3.5-1.09,6.88-3.2,10.74-1.29-2.65.86-5.31,1.71-7.96,2.56h0Z"/>
          <path class="cls-1" d="M477.75,381.39c2.04,1.81,3,4.19,4.09,7.96-3.46-1.84-4.17-4.58-5.55-6.7.49-.42.98-.84,1.47-1.26h-.01Z"/>
          <path class="cls-57" d="M439,402.47c2.06,1.95,3.12,4.4,4.4,8.69-3.32-3.13-4.91-5.37-5.49-8.3.36-.16.71-.29,1.09-.4h-.01Z"/>
          <path class="cls-53" d="M509.68,779.8v-2.62c1.17.21,3.11-.47,3.11,1.3s-1.94,1.1-3.11,1.3h0Z"/>
          <path class="cls-19" d="M419.24,237.41c.88-3.47,2.84-2.99,5.11-1.4-1.71.47-3.41.94-5.11,1.4Z"/>
          <path class="cls-48" d="M185.1,88.09c2.36-11.46,4.75-22.92,7.07-34.4.35-1.72.43-3.49.64-5.24.91-1.28,1.82-2.56,2.73-3.85,1.94-5.78,7.37-2.4,10.84-4.14,13.24-4.53,26.48-9.05,39.72-13.58,1.58-1.92,3.59-3.2,5.93-3.99,17-5.69,33.53-12.9,51.38-15.86,5.68-.64,10.63-3.58,16.02-5.08,2.05-.57,4.28-2.83,6.52-.23,5,16.56,6.94,33.74,10.24,50.63,1.39,7.1,3.98,14.08,3.31,21.53-24.44,7.56-48.88,15.12-73.32,22.68-8.28,2.17-16.78,3.67-24.4,7.93-18.8-5.79-37.29-12.64-56.68-16.41h0Z"/>
          <path class="cls-35" d="M335.09,7.14c22.73,15.53,45.48,31.07,68.22,46.61-6.46,3.92-13.93,4.93-20.95,7.17-14.22,4.54-28.58,8.67-42.87,12.97-4.53-8.06-4.4-17.27-6.24-25.97-3.03-14.36-5.53-28.83-8.26-43.26-.22-1.18,0-2.16.96-2.93,3.06,1.81,6.1,3.6,9.15,5.41h0Z"/>
          <path class="cls-49" d="M308.64,754.4c-1.72-6.19-4.64-12.02-5.37-18.49,25.24-3.63,50.49-7.28,75.74-10.92,1.92-.67,3.75-.89,5.13,1.04.81,1.68.85,3.49.19,5.15-2.36,5.89-3.06,11.87-1.94,18.14.31,1.74-.16,3.52-1.61,4.83-2.3,2.63-5.44,2.13-8.01,1.34-14.7-4.52-29.18-1.76-43.66.9-5.62,1.04-11.44.43-16.91,2.37-2.7-.23-3.6-1.92-3.55-4.37h-.01Z"/>
          <path class="cls-35" d="M380.78,754.16c-2.21-9.44-1.25-18.59,2.61-27.45.51-.89.14-2.16,1.22-2.82,1.69-.03,3.39-.07,5.08-.1,5.4,14.42,14.43,25.76,28.11,33.15,3.57,4.44,8.12,5.76,13.84,5.76,10.05,0,20.18-1.45,30.14,1.14.33,6.36-2.68,9.53-9.05,9.53-5.97,0-12-.57-17.87.11-13.02,1.52-24.28-2-34.3-10.24-1.33-1.09-2.98-1.8-4.96-2.97-.78,3.11-1.51,5.82-2.12,8.55-.62,2.79-1.48,4.65-5.16,4.32-3.36-.31-4.57-1.58-4.98-4.73-.64-4.78-1.66-9.51-2.53-14.26h-.01Z"/>
          <path class="cls-39" d="M384.61,723.9c.03,1.13-.26,2.12-1.22,2.82-1.04-1.66-2.85-1.3-4.38-1.72,1.69-1.26,3.63-1.25,5.6-1.1h0Z"/>
          <path class="cls-30" d="M393.68,426.41c-.8.56-1.61,1.13-2.41,1.68-1.08,1.37-1.9,3-3.59,3.79-1.97,1.16-3.91,2.4-6.05,3.22-1.58.5-3.02,1.3-4.4,2.22-1.63,1.07-3.32,2.02-5.06,2.9-1.49.71-2.94,1.52-4.32,2.46-1.64,1.08-3.37,2.02-5.18,2.75-1.03.4-2.03.85-2.98,1.44-2.16,1.27-4.37,2.46-6.6,3.61-1.75.85-3.51,1.68-5.11,2.81-1.65,1.09-3.38,2.05-5.14,2.94-1.52.71-3,1.48-4.46,2.31-1.94,1.06-3.81,2.26-5.84,3.14-.77.3-1.45.76-2.17,1.16-2.15,1.26-4.34,2.43-6.53,3.59-.98.54-1.97,1.04-2.94,1.57-1.97,1.07-3.86,2.33-5.98,3.12-2.13.69-3.92,2-5.78,3.2-1.94,1.14-4,2.01-5.95,3.13-.75.45-1.46.93-2.2,1.38-2.26,1.45-4.65,2.68-7.04,3.88-.77.42-1.56.81-2.35,1.19-2.12.98-4.19,2.05-6.28,3.1-1.73.76-3.39,1.78-5.4,1.59-1.43-.32-2.46-1.16-3.23-2.37-7.05-19.42-12.1-39.45-17.98-59.22-.57-1.91-.8-3.96.78-5.65,43.92-2.36,87.85-4.73,131.77-7.1,5.33,3.13,1.49,8.09,2.43,12.11v.02Z"/>
          <path class="cls-49" d="M259.48,421.41c6.24,21.78,12.49,43.56,18.72,65.34,1.64,3.37-1,4.6-3.04,6.14-1.32.76-2.7,1.36-4.04,2.09-2.29,1.24-4.42,2.74-6.75,3.91-.76.42-1.53.85-2.31,1.24-3.28,1.22-5.98,3.9-9.73,3.88-4.18-1.76-6.59-5.84-10.44-8.05-5.73-20.38-11.45-40.78-17.18-61.16-.46-3.88,2.25-4.55,5.13-5.36,9.44-2.66,18.83-5.49,28.25-8.25.46.07.93.14,1.38.21h0Z"/>
          <path class="cls-62" d="M357.91,509.26c.95.41,1.9.83,2.84,1.24-4.92-.6-8.27,2.15-11.63,5.18-9.48,8.59-19.81,16.21-28.52,25.67-.41-.01-.83-.03-1.24-.03-6.23-6.65-12.47-13.29-18.69-19.93,7.87-5.9,17.15-9.37,25.37-14.65,10.36,4.14,21.2,2.26,31.87,2.53h0Z"/>
          <path class="cls-9" d="M374.33,163.13c-2.55-12.12-4.91-24.28-7.77-36.33-1.22-5.11-.68-7.48,5.21-8.5,10.59-1.83,10.29-2.19,13.07,8.07,3.06,11.26,4.75,22.88,9.02,33.82,2.99,2.7,3.94,5.72,1.44,9.28,1.18,3.57,2.39,7.14,2.52,10.94-5.78,3.62-11.82,5.44-18.51,2.64-.91-2.3-1.83-4.58-2.75-6.88-3.48-3.88-3.03-8.44-2.22-13.06h0Z"/>
          <path class="cls-36" d="M336.3,212.32c-2.91-1.53-5.82-3.06-8.66-4.54,14.9-4.53,40.39-1.86,56.94,6-3.46,3.51-8.02,1.81-12.06,2.45-6.51,1.05-13.11,1.1-19.71,1.24-6.14.12-11.79-.93-16.5-5.15h0Z"/>
          <path class="cls-23" d="M374.33,163.13c.74,4.35,1.48,8.71,2.22,13.06-3.12-1.66-6.42-1.23-9.75-.89-17.17,1.68-34.4.99-51.61.87,14.28-3.74,29.02-5.04,43.42-8.09,5.31-1.13,11.61.2,15.72-4.94h0Z"/>
          <path class="cls-47" d="M336.3,212.32c15.98,4.15,32.12,3.1,48.28,1.46,1.81,1.72.35,2.06-1.03,2.31-10.21,1.8-20.56,3.06-30.62,5.49-8.94,2.16-12.74-3.21-16.64-9.24h0Z"/>
          <path class="cls-44" d="M395.29,169.47c-.48-3.09-.96-6.19-1.44-9.28,9.35-2.61,18.7-5.21,28.05-7.82-8.17,6.78-16.38,13.52-26.61,17.09Z"/>
          <path class="cls-37" d="M379.3,183.07c6.17-.88,12.34-1.76,18.51-2.64-.42.78-.79,1.59-1.26,2.33-5.23,8.13-10.98,8.24-17.25.31Z"/>
          <path class="cls-59" d="M273.95,491.72c1.69-1.43,4.23-2.13,4.26-4.97.83.39,1.66.78,2.49,1.18,2.94,1.26,3.3,1.06,4.18-2.41,2.16-.96,4.33-1.92,6.49-2.88.84.37,1.39,1.05,1.9,1.78-.29-.95-1.09-1.84-.37-2.91,2.59-1.28,5.16-2.56,7.75-3.86.88.55,1.47,1.32,1.73,2.14.07-1.06-.97-2.29-.1-3.55,2.11-1.08,4.21-2.17,6.33-3.26,5.85,1.47,7.21,5.7,6.72,11.04-1.13,2.46-3.58,3.22-5.75,4.15-9.9,4.25-18.58,10.95-28.83,14.49-4.35-2.36-6.21-6.27-6.8-10.96h.01Z"/>
          <path class="cls-59" d="M361.87,444.01c1.76-.94,3.53-1.87,5.3-2.8,2.55-1.26,3.49.57,4.62,2.63-.56-1.86-2.16-3.34-.45-5.03,1.74-.94,3.48-1.86,5.23-2.8,3.96-.74,3.45,3.58,5.3,4.76-.87-2.16-3.92-4.14-1.08-7.19,2.15-.97,4.3-1.95,6.46-2.92,4.15,2.4,6.15,5.85,5.33,10.73-5.2,6.79-13.55,8.64-20.47,12.62-4.3,2.48-7.91,7.59-14.07,6.01-4.15-2.39-6.77-5.56-5.59-10.74,2.27-1.26,4.55-2.52,6.83-3.78,1.23.17,1.72,1.15,2.25,1.97.17-.49-.28-.74-.32-1.13-.22-.94.08-1.69.68-2.35h-.01Z"/>
          <path class="cls-59" d="M323.14,465.25c2.27-1.25,4.56-2.5,6.83-3.76.89.29,1.44.96,1.94,1.69-.27-.95-1.05-1.85-.26-2.89,2.07-1.06,4.15-2.11,6.23-3.17,2.87,1.81,3.41-.43,4.13-2.37,1.75-.96,3.49-1.93,5.24-2.89,5.65,1.44,7.74,5.12,6.75,10.74-10.44,8.25-22.28,13.93-34.59,18.72-4.38-2.77-7.86-5.93-5.17-11.8,2.14-.98,4.28-1.96,6.43-2.93.43.1.83.3,1.14.59.65.59,1.04,1.36,1.48,2.09-.2-.76-.7-1.43-.76-2.23-.06-.67.21-1.27.6-1.81h0Z"/>
          <path class="cls-14" d="M263.33,497.56c2.36-1.3,4.72-2.6,7.08-3.9,5.08,2.37,6.67,6.6,6.28,11.87-4.47,2.63-8.95,5.25-13.44,7.88-3.99-2.72-7.87-5.57-10.9-9.41,2.56-2.89,6.03-4.21,9.53-5.47,1.2.54,1.47,1.84,2.23,2.74-.59-1.17-1.03-2.36-.78-3.71h0Z"/>
          <path class="cls-58" d="M314.25,469.54c-.23,4.79,3.68,7.76,5.17,11.8-.75,1.82-2.11,2.72-4.07,2.69-2.22-3.69-3.11-8.2-6.72-11.04,1.39-1.94,3.49-2.73,5.63-3.45h-.01Z"/>
          <path class="cls-12" d="M276.67,505.53c-2.1-3.96-4.18-7.92-6.28-11.87,1.18-.65,2.36-1.29,3.56-1.94,3.2,3.07,4.58,7.28,6.8,10.96-.76,1.81-2.27,2.54-4.08,2.85Z"/>
          <path class="cls-12" d="M392.56,441.39c-1.77-3.58-3.55-7.15-5.33-10.73,1.35-.85,2.7-1.71,4.05-2.55,1.78,3.53,3.58,7.06,5.36,10.59-.23,2.62-1.19,4.11-4.08,2.69Z"/>
          <path class="cls-12" d="M354,462.62c-1.81-3.86-3.16-7.99-6.75-10.74,1.44-1.43,3.17-2.31,5.17-2.6,1.86,3.58,3.72,7.16,5.59,10.74-.26,2.54-1.93,2.88-4.01,2.6h0Z"/>
          <path class="cls-52" d="M263.67,781.08c1.75-2.03.81-4.5,1.15-6.77.83.03,1.65.08,2.48.12,16.04-4.69,32.42-2.02,48.67-2.19,2.49-.02,4.63,1.35,6.03,3.58.27,6.09-2.49,9.13-8.28,9.13-14.56,0-29.13-.03-43.7.02-3.02.01-5.88.1-6.33-3.9h-.01Z"/>
          <path class="cls-48" d="M322,775.82c-2.62-1.55-5.52-1.29-8.38-1.3-15.44-.03-30.87-.07-46.32-.09,13.18-7.93,27.46-13.57,41.34-20.03,1.18,1.46,2.36,2.91,3.55,4.37,2.49,6.13,8.04,10.49,9.8,17.05h.01Z"/>
          <path class="cls-26" d="M356.63,132.44c3.09,6.01,3.01,12.83,4.88,19.16.66,2.22-.3,3.29-2.46,3.66-14.77,2.53-29.54,5.12-44.32,7.58-.64.11-1.43-.75-2.15-1.15.78-9.77,5.84-17.95,9.89-26.5.67-1.4,1.96-2.68,3.5-2.88,10.21-1.27,20.46-2.2,30.66.13h0Z"/>
          <path class="cls-49" d="M416.47,108.56c2.34-.59,4.67-1.23,7.02-1.75,7.08-1.58,11.28,1.21,12.62,8.37.91,4.97,1.54,10.02,2.69,14.94.8,3.45-.6,4.86-3.61,5.66-4.04,1.08-8.03,2.31-12.04,3.48-.21-.03-.51.02-.64-.1-4.57-4.33-8.56-24.57-6.04-30.6h0Z"/>
          <path class="cls-23" d="M356.63,132.44c-8.31,2.05-16.77,1.23-25.13,1.01-5.21-.13-7.55,2-9.25,6.47-2.83,7.41-5.65,14.86-9.67,21.78-2.52-8.02-2.36-16.46-3.87-24.63-.52-2.83.58-4.38,3.66-5.04,12.89-2.78,25.66-6.22,38.62-8.59,7.43-1.35,4.96,5.21,5.64,9.02v-.02Z"/>
          <path class="cls-29" d="M416.47,108.56c1.24,10.45,3.67,20.64,6.68,30.7-6.63,2.2-13.31,4.25-19.87,6.63-2.88,1.05-3.91.16-4.55-2.55-1.49-6.39-3.17-12.72-4.76-19.09,4.42-7.93,12.61-10.73,19.93-14.73.86-.32,1.71-.66,2.56-.98v.02Z"/>
          <path class="cls-4" d="M327.45,116.17c-5.71-3.53-11.42-7.07-17.12-10.6,14.34,1.16,28.71.21,42.59,4.07-8.13,3.59-16.9,4.69-25.48,6.53Z"/>
          <path class="cls-20" d="M413.91,109.54c-6.65,4.91-13.28,9.81-19.93,14.73-3.26-8.95-3.29-9.04,5.83-11.54,4.64-1.27,9.39-2.14,14.09-3.19h0Z"/>
          <path class="cls-40" d="M404.66,80.92c-8.95,4.86-17.05,9.49-26.41,13.18,8.35-15.16,12.91-17.48,26.41-13.18Z"/>
          <path class="cls-37" d="M242.22,196.84c-6.89-1.85-12.55-3.38-18.16-4.88,0-.76-.18-1.33.02-1.59,2.42-3.09,5.89-8.64,8.17-7.6,4.73,2.15,6.89,7.96,9.97,14.08Z"/>
          <path class="cls-34" d="M417.96,414.59c2.77,1.44,3.04,4.38,4.33,6.78-4.06-.43-3.92-4.38-5.91-6.5.52-.09,1.05-.18,1.57-.28h.01Z"/>
          <path class="cls-60" d="M409.7,418.65c1.16,2.34,2.32,4.69,4.14,8.35-4.48-1.62-4.57-5.3-6.61-7.12.83-.41,1.65-.81,2.48-1.23h0Z"/>
          <path class="cls-18" d="M400.41,428.28c-1.22-1.05-1.74-2.94-3.72-3.04,1.29-.79,2.58-1.57,3.86-2.35.42,1.29.84,2.59,1.26,3.88-.38.58-.51,1.39-1.39,1.52Z"/>
          <path class="cls-50" d="M209.76,560.05c-3.11-.12-4.96-1.38-4.84-4.38.11-2.77,1.84-4.65,4.53-4.66,2.72-.02,4.4,1.97,4.56,4.66.17,2.97-1.72,4.26-4.24,4.38h-.01Z"/>
          <path class="cls-57" d="M495.1,372.15c3.57.8,4.3,3.7,4.07,7.31-1.35-2.44-2.71-4.87-4.06-7.31h-.01Z"/>
          <path class="cls-16" d="M400.41,428.28c.47-.5.93-1.01,1.39-1.52.67,1.47,1.34,2.94,2.11,4.64-2.94.33-2.93-1.67-3.5-3.11h0Z"/>
          <path class="cls-7" d="M204.77,529.18c2.91,1.46,4.38,3.88,5.2,8.86-3.48-3.17-4.62-5.81-5.26-8.8l.07-.06h0Z"/>
          <path class="cls-5" d="M214.19,524c3.06,1.47,3.41,4.46,4.18,7.21-2.56-1.74-3.85-4.2-4.23-7.19l.03-.02h.01Z"/>
          <path class="cls-10" d="M371.35,438.81c.97,2.78,1.95,5.56,3.13,8.95-4.2-.76-3.49-6.3-7.3-6.56,1.39-.8,2.78-1.59,4.17-2.4Z"/>
          <path class="cls-22" d="M380.78,433.58c-.9,3.39,2.5,5.8,2.42,9.41-3.53-1.52-3.5-5.75-6.63-6.98,1.4-.81,2.81-1.62,4.21-2.43Z"/>
          <path class="cls-55" d="M323.14,465.25c1.13,2.72,2.24,5.44,3.82,9.25-4.48-1.86-4.67-5.44-6.29-7.91.83-.46,1.64-.9,2.46-1.36h0Z"/>
          <path class="cls-38" d="M342.02,454.77c-.8,3.13,2.26,5.45,2.2,9.05-3.56-1.44-3.37-5.59-6.32-6.68,1.37-.79,2.75-1.58,4.13-2.37Z"/>
          <path class="cls-27" d="M284.88,485.51c-.9,3.06,2,5.17,2.12,8.52-3.46-.96-3.46-5.11-6.3-6.1l4.18-2.41h0Z"/>
          <path class="cls-3" d="M302.29,476.24c1.17,2.68,2.33,5.36,4.21,9.68-4.18-2.78-5.06-5.5-5.85-8.27.55-.47,1.09-.94,1.64-1.4h0Z"/>
          <path class="cls-7" d="M292.91,481.51c1.3,2.58,2.6,5.15,3.9,7.72-3.48-1.16-4.14-4.09-5.43-6.59.51-.38,1.01-.76,1.53-1.14h0Z"/>
          <path class="cls-13" d="M331.67,460.3c.65,2.79,3.46,4.62,3.47,8.66-3.17-2.05-3.69-5.13-5.16-7.47.57-.4,1.13-.8,1.69-1.2h0Z"/>
          <path class="cls-17" d="M361.87,444.01c.04.87.09,1.73.13,2.6.62,1.45-.11,1.63-1.29,1.4-.49-.84-.97-1.66-1.46-2.5.57-1.01,1.47-1.46,2.61-1.49h.01Z"/>
          <path class="cls-21" d="M263.33,497.56c1.36,2.55,2.72,5.11,4.08,7.66-3.79-1.06-4.84-3.76-5.54-6.69.48-.32.97-.65,1.45-.97h.01Z"/>
          <path class="cls-45" d="M360.72,448c.43-.47.86-.94,1.29-1.39,1.3,1.62,2.89,3.13,2.23,5.71-1.97-.91-2.62-2.72-3.52-4.3h0Z"/>
          <path class="cls-46" d="M339.36,136.03c4.55.33,7.26,2.88,7.29,7.12.03,4.58-2.93,7.59-7.54,7.38-4.17-.19-6.88-2.97-6.78-7.44.1-4.48,2.79-6.69,7.04-7.07h-.01Z"/>
          <path class="cls-32" d="M414.33,126.72c-.62,4.04-2.53,7-7.16,6.82-4.68-.17-7.47-2.99-7.36-7.53.1-4.19,2.87-7,7.21-6.98,4.68.02,7.06,2.91,7.3,7.67h0Z"/>
        </g>
      </g>
    </g>
  </g>
</svg>