<?xml version="1.0" encoding="UTF-8"?>
<svg xmlns="http://www.w3.org/2000/svg" version="1.1" viewBox="0 0 850 800">
  <defs>
    <style>
      .cls-1 {
        fill: #fefdfd;
      }

      .cls-2 {
        fill: #84c7ca;
      }

      .cls-3 {
        fill: #474746;
      }

      .cls-4 {
        fill: #66a6a8;
      }

      .cls-5 {
        fill: #e2c9b7;
      }

      .cls-6 {
        fill: #4a8da3;
      }

      .cls-7 {
        fill: #8e8e8e;
      }

      .cls-8 {
        fill: #549cb5;
      }

      .cls-9 {
        fill: #75bdd4;
      }

      .cls-10 {
        fill: #3d7789;
      }

      .cls-11 {
        fill: #74bdd5;
      }

      .cls-12 {
        fill: #dcdcdb;
      }

      .cls-13 {
        fill: #bc987e;
      }

      .cls-14 {
        fill: #c8d5da;
      }

      .cls-15 {
        fill: #d9bca6;
      }

      .cls-16 {
        fill: #387376;
      }

      .cls-17 {
        fill: #477e81;
      }

      .cls-18 {
        fill: #c3c3c3;
      }

      .cls-19 {
        fill: #2d2c2c;
      }

      .cls-20 {
        fill: #387477;
      }

      .cls-21 {
        fill: #bc977e;
      }

      .cls-22 {
        fill: #484747;
      }

      .cls-23 {
        fill: #75bdd5;
      }

      .cls-24 {
        fill: #3d7788;
      }

      .cls-25 {
        fill: #4c8ea4;
      }

      .cls-26 {
        fill: #846754;
      }

      .cls-27 {
        fill: #4b8da3;
      }

      .cls-28 {
        fill: #464646;
      }

      .cls-29 {
        fill: #866855;
      }

      .cls-30 {
        fill: #77acac;
      }

      .cls-31 {
        fill: #74bdd4;
      }

      .cls-32 {
        fill: #dfc64f;
      }

      .cls-33 {
        fill: #5e969a;
      }

      .cls-34 {
        fill: #2c5d5e;
      }

      .cls-35 {
        fill: #4a8ca2;
      }

      .cls-36 {
        fill: #2e2d2d;
      }

      .cls-37 {
        fill: #6e7073;
      }

      .cls-38 {
        fill: #549db6;
      }

      .cls-39 {
        fill: #dbe8ee;
      }

      .cls-40 {
        fill: #4f9093;
      }

      .cls-41 {
        fill: #4a8da2;
      }

      .cls-42 {
        fill: #856754;
      }
    </style>
  </defs>
  <!-- Generator: Adobe Illustrator 28.7.1, SVG Export Plug-In . SVG Version: 1.2.0 Build 142)  -->
  <g>
    <g id="Layer_1">
      <g id="Layer_1-2" data-name="Layer_1">
        <g>
          <path class="cls-18" d="M173.69,658.26c-1.26-1.99-1.92-4.31-4.71-5.1-9.55-2.71-19.04-5.63-28.55-8.47-.39-2.65-.34-5.26.37-7.9,6.83-25.47,13.41-51.01,20.43-76.43,9.45-36.84,19.48-73.52,29.13-110.31.9-3.4,1.29-6.99,3.6-9.89.5-.53,1.1-.91,1.78-1.14,1.07-.15,2.05.18,2.96.69,32.91,25.62,65.62,51.52,98.45,77.25,2.72,2.12,5.92,4.05,6.94,7.81-.2,3.17-2.73,4.37-4.96,5.75-5.09,3.16-10.19,6.31-15.49,9.1-3.4,1.8-4.11,4.12-2.39,7.66,1.9,3.92,4.91,7.52,4.43,12.32-2.6,7.17-7.11,13.29-11.1,19.64-2.94,4.68-2.94,8.39.75,12.54,16.36,18.37,32.37,37.07,48.63,55.53,8.5,9.64,17.07,19.23,25.39,29.04,6.43,7.58,7.15,7.82,16.37,4.41,23.7-8.79,47.55-17.18,71.45-25.39,2.82-.97,5.68-2.82,8.88-1.02-6.45,24.83-12.93,49.67-19.33,74.51-.97,3.74-2.71,4.13-6.26,3.01-30.6-9.75-61.25-19.33-91.92-28.9-9.51-2.96-19.07-5.78-28.6-8.69-1.52-.46-2.99-.8-4.49,0-1.02-.01-2.05-.04-3.07-.19-28.97-8.95-57.8-18.32-86.78-27.19-10.54-3.22-20.77-7.72-31.95-8.64h.01Z"/>
          <path class="cls-15" d="M649.97,104.59c-1.92,10.76-6.24,20.79-9.62,31.09-21.52,65.82-43.23,131.59-64.86,197.39-2.91,8.85-5.6,17.78-8.4,26.67-.53.48-1.14.83-1.82,1.06-11.64-.8-22.18-5.75-33.21-8.88-16.37-5-32.94-9.37-49.16-14.85-13.18-4.92-26.85-8.32-40.09-13.07-2.62-.94-5.7-1.22-7-4.34-.63-3.24.79-6.11,1.7-9.06,22.81-74.11,45.78-148.16,68.46-222.29,2.53-8.26,4.26-16.81,8.2-24.6.44-.54.99-.94,1.65-1.17,3.36-.5,5.21,1.93,7.34,3.81,18.94,16.7,38.52,32.69,57.5,49.35.49.44,1.17.61,1.81.83,14.39-1.51,28.15-6.04,42.31-8.62,5.66-1.03,11.29-2.38,16.88-3.81,2.8-.72,5.64-1.43,8.32.48h0Z"/>
          <path class="cls-2" d="M196.56,439.42c-.46.03-.91.05-1.37.1-.2-.29-.41-.57-.61-.84-.52-6.16,2.11-11.7,3.56-17.45,2.34-9.25,5.22-18.35,7.03-27.73,7.19-21.53,12.05-43.7,18.28-65.5,7.51-26.29,14.36-52.75,21.53-79.15,1.63-6.02,3.77-11.83,6.32-17.5-.45-5,3.24-5.79,6.77-6.3,19.83-2.83,39.67-5.54,59.51-8.27,3.7-.5,7.41-.92,11.12-1.39.31.3.63.61.94.91,1.28,1.94,1.51,4.16,1.54,6.39.07,8.88,1.21,17.76,1.13,26.56-.44,45.94,2.34,91.84,1.54,137.77-.56,3.43-.84,6.87-.24,10.34-.03.38-.05.76-.07,1.13-.18.75-.56,1.36-1.14,1.86-14.89,5.81-30.48,9.37-45.72,14.1-25.42,7.89-50.97,15.33-76.46,23.01-4.45,1.35-8.85,2.99-13.65,1.96h0Z"/>
          <path class="cls-18" d="M332.44,399.49l.16-1.33c.42-3.09,2.95-4.27,5.21-5.63,7.79-4.68,15.35-9.75,23.28-14.2,4.62-2.6,8.69-5.37,8.76-11.44,0-1.09.8-2.04,1.97-2.45.22.07.56.11.6.23,2.71,8.51,10.06,9.56,17.33,11.33,17.54,4.27,35.07,8.62,52.46,13.52,18.55,4.62,37.22,8.87,55.35,15.03,5.06,3.2,7.67,8.53,10.83,13.23,4.54,6.75,10.8,12.36,13.55,20.3.07.88.12,1.82-.3,2.6-6.99,12.74-14.08,25.43-22.06,37.6-.34.52-1.05.8-1.59,1.17l-8.16,12.04c-3.64.07-4.95-2.95-5.94-5.39-6.8-16.5-19.09-26.34-36.03-31.04-3.78-1.05-7.07-3.63-11.17-3.85-10.36,3.11-18.65,10.09-27.98,15.11-3.1,1.67-5.85,4.09-9.71,3.82-11.26-3.32-22.07-7.9-33.18-11.67-.63-.26-1.2-.63-1.71-1.06-10.91-17.04-20.54-34.86-30.76-52.32-.99-1.69-1.81-3.58-.9-5.64v.03Z"/>
          <path class="cls-14" d="M287.18,763.69c14.78-.03,29.59-.5,44.35.04,26.97,1.01,53.94,2.34,80.87,4.08,15.45.99,30.89,1.93,46.36,2.62,29.14,1.32,58.26,3.45,87.39,5.09,12.82.71,25.66.97,38.5,1.5,2.72.11,5.81-.86,8.31,2.49-14.59,0-28.57,1.86-42.64,2.73-23.6,1.47-47.15,3.56-70.73,5.1-15.22.99-30.45,2-45.68,2.98-22.93,1.48-45.87,2.77-68.73,5.11-7.9.8-15.88.69-23.85,1.32-11.45.91-22.9,2.03-34.35,2.62-10.1.52-20.32-.69-30.48-1.39-8.81-.6-17.58-1.6-26.38-2.31-21.57-1.75-43.15-3.47-64.74-5.17-12.34-.98-24.68-1.88-37.02-2.86-22.02-1.73-44.01-4-66.07-5.03-14.76-.69-29.34-2.83-44.08-3.79,8.43.19,16.7-1.43,25.06-1.84,18.12-.91,36.24-1.71,54.35-2.77,20.52-1.2,41.03-2.61,61.54-3.92,1.48.99,1.96,2.46,2.03,4.13.05.78.12,1.56.2,2.34,1.17,8.26,1.17,8.36,9.3,8.38,33.43.07,66.84.07,100.27,0,8.36-.01,8.98-.91,7.62-9.44-1.46-2.98-4.66-3.93-6.91-5.98-1.86-1.71-4.69-2.75-4.52-6.01l.03-.03Z"/>
          <path class="cls-23" d="M619.6,371.44c0-4-.03-8-.04-12.01,2.35-2.5,5.67-1.65,8.51-2.46,56.85-.3,113.7-.22,170.54-.1,2.39.19,4.94.76,5.9-2.49.52-4.46.19-8.91.2-13.36,0-3.9-1.96-5.63-5.78-5.62-2.67,0-5.33-.05-8-.05-53.09,0-106.2.03-159.3-.04-4.12,0-8.54.86-12.04-2.48-.03-9.38-.04-18.75-.07-28.14,1.65-1.5,3.67-1.31,5.67-1.31,59.19.14,118.37.03,177.56.05,1.12,0,2.22.1,3.29.38.88.11,1.69.42,2.42.91-.01,22.68-.04,45.36-.05,68.04-.39.19-.79.37-1.18.56-.44.03-.87.05-1.31.08-58.74,0-117.48.01-176.2-.04-3.44,0-7.18.94-10.12-1.93h-.03Z"/>
          <path class="cls-2" d="M667.33,463.4c-23.62,12.1-47.26,24.19-70.88,36.31-10.42,5.34-20.78,10.8-31.25,16.03-1.74.87-3.44,3.26-5.89,1.2,1.31-13.27,4.68-26.17,7.3-39.2,3.89-19.34,7.96-38.65,11.85-58,.6-2.99.79-6.24,3.6-8.3,5.32.07,10.65-.14,15.93.29,5.2.42,7.43-1.33,6.76-6.68-.23-1.88-.57-4.03,1.09-5.64.35.27.95.52.98.86,1.13,9.32,7.85,8.85,14.7,8.74,11.55-.19,23.11-.15,34.65,0,3.51.05,7.24-.11,9.63,3.33,2.16,8.62,2.15,17.49,2.69,26.29.37,5.96-.23,11.95.58,17.9.35,2.54-.3,4.83-1.8,6.88h.05Z"/>
          <path class="cls-35" d="M100.31,212.66c15.99-20.75,31.95-41.53,47.99-62.23,31.29-40.38,62.66-80.73,93.99-121.08,1.22-1.58,2.53-3.09,3.81-4.64,4.58,1.6,3.69,5.63,3.4,8.84-1.59,17.6-2.69,35.22-4.3,52.82-.78,8.57-1.01,17.2-2.54,25.69-.27,10.64-7.36,15.99-15.48,21.22-39.49,25.42-78.16,52.13-118.03,76.98-2.57,1.6-5.03,4.86-8.85,2.41h.01Z"/>
          <path class="cls-4" d="M582.07,411.42c-3.28,17.11-6.45,34.23-9.85,51.31-3.24,16.22-6.79,32.38-10.06,48.61-.45,2.22-.48,4.43-2.84,5.58-20.44-12.48-40.88-24.97-61.31-37.45,5.78-13.23,14.09-25.04,21.09-37.58.64-1.14,1.12-2.38,1.67-3.56,2.42-10.19,9.1-18.2,13.99-27.1,8.77-15.97,18.54-31.38,27.49-47.25,1.01-1.8,2.3-3.25,3.98-4.38.29.07.58.12.88.15,4.99,17.23,9.98,34.46,14.96,51.68h-.01Z"/>
          <path class="cls-8" d="M100.31,212.66c9.14-3.6,16.92-9.57,25.04-14.84,34.79-22.56,69.35-45.51,104.03-68.24,5.81-3.81,10.85-7.97,11.14-15.63,1.74,3.88,3.96,4.47,8.04,2.53,3.98-1.9,8.34-5.85,13.23-1.39,1.97,13.12,2.45,26.4,3.78,39.58.67,6.6,1.56,13.18,1.84,19.82.11,2.68.57,5.32-1.44,7.53-15.78,4.41-31.93,7.1-47.95,10.36-37.35,7.59-74.73,14.96-112.11,22.4-1.74.34-3.5.64-5.25.83-.86.1-2.52,1.09-2.08-1.07.14-.71,1.13-1.25,1.73-1.88h.01Z"/>
          <path class="cls-23" d="M260.67,114.1c-4.46,1.18-8.69,2.95-12.92,4.8-6.92,3.02-7,2.83-7.22-4.95,2.2-26.11,4.47-52.21,6.51-78.34.29-3.59,1.51-7.47-.94-10.89.49-.95.98-1.9,1.46-2.86,6.45-4.34,13.55-6.98,21.23-8.04l2.5,1.41c4.8,2.07,8.27,5.94,11.97,9.36,17.3,15.9,35.22,31.09,52.12,47.42,2.18,2.11,4.84,4.07,4.69,7.67-2.08,4.54-7.06,4.56-10.61,6.8-8.79,3.77-17.49,7.72-26.53,10.84-7.59,3.64-15.48,6.64-23.16,10.06-6.61,1.54-11.76,7.24-19.11,6.72h.01Z"/>
          <path class="cls-7" d="M446.07,654.33c-28.17,10.01-56.36,19.95-84.47,30.14-4.13,1.5-6.81,1.1-9.76-2.33-16.93-19.6-34.08-39-51.11-58.51-9.9-11.33-19.64-22.81-29.66-34.04-2.22-2.49-2.27-4.41-.64-7,4.81-7.68,9.52-15.42,14.28-23.15,3.73.07,4.28,3.35,5.6,5.7,12.87,23,23.7,47.06,36.41,70.15,5.07,9.22,4.84,9.26,14.23,3.81,3.55-2.07,6.79-5.22,11.49-4.28.6.29,1.12.67,1.56,1.14,2.98,4.41,5.2,9.25,7.71,13.91,2.34,4.32,4.69,4.88,8.96,2.6,15.79-8.47,31.06-17.87,46.8-26.42,12.05-6.56,23.75-13.72,35.94-20.01,1.89-.98,3.77-2.57,6.11-1.01-4.16,16.52-8.19,33.08-13.44,49.3h-.01Z"/>
          <path class="cls-8" d="M800.7,359.43c-57.76,0-115.52,0-173.29-.01-2.39-1.7-5.47.44-7.85-1.37,0-8.39.03-16.8.04-25.19,60.59-.04,121.18-.04,181.75-.19,4.6,0,6.36,1.4,6.12,6.09-.34,6.42-.1,12.87-.11,19.31-1.97,1.69-4.68-.26-6.66,1.37h0Z"/>
          <path class="cls-8" d="M339.46,79.43c-8.53-10.64-19.5-18.7-29.29-28-12.84-12.2-26.97-23-38.86-36.2,18.21,2.31,36.43,4.5,54.62,6.95,25.43,3.43,50.82,7.04,76.24,10.58.52.58.94,1.22,1.25,1.94.18,11.44-2.82,22.39-5.24,33.43-.29,1.32-1.25,2.33-2.43,3.06-14.92,4.19-30.34,5.83-45.52,8.72-3.55.68-7.3,2.45-10.77-.46h0Z"/>
          <path class="cls-41" d="M807.5,304.74c-2.07,1.9-4.62,1.25-6.99,1.25-57.27.03-114.54,0-171.81.05-3.16,0-6.17-.42-9.15-1.35.01-10.59.03-21.19.05-31.78,2.9-.8,4.47,1.31,6.22,2.91,2.75,2.56,5.43,5.21,7.98,7.96,2.84,3.07,5.45,3.29,8.36.12,1.94-2.11,4.05-4.08,6.09-6.11,7.55-7.48,9.37-7.51,16.73-.22,2.04,2.03,4.18,3.97,6.08,6.11,3.09,3.47,5.67,3.02,8.87-.11,4.07-3.98,7.36-8.91,12.81-11.34,3.82-.38,6.8,1.25,9.42,3.86,2.67,2.65,5.39,5.24,7.97,7.96,2.69,2.84,5.14,2.88,7.85.03,2.75-2.87,5.59-5.64,8.43-8.43,2.09-2.05,4.28-3.86,7.51-3.47,5.67,2.48,9,7.63,13.26,11.7,3.01,2.87,5.3,3.1,8.35.08,3.89-3.85,7.24-8.31,12.01-11.22,4.73-1.81,7.48,1.36,10.36,4.13,7.14,6.88,14.54,7.11,22.22.69,1.2-.99,2.3-2.12,3.69-2.86,2.37-1.25,4.38-1.63,4.26,2.11-.3,9.29.71,18.6-.54,27.88l-.03.04Z"/>
          <path class="cls-28" d="M580.68,118.19c-21.34-18.28-42.68-36.57-64.02-54.85-5.36-.82-8.72-4.87-12.39-8.12-9.4-8.31-18.58-16.85-27.85-25.31-1.97-1.8-5.73-4.56.3-6.38,26.15-2.57,52.29-5.15,78.44-7.71,1.06-.11,2.2-.42,3.01.68,2.8,4.08,4.47,8.6,5.58,13.42,6.05,26.64,12.46,53.19,18.48,79.83.63,2.77,3.13,6.42-1.54,8.43h-.01Z"/>
          <path class="cls-40" d="M163.13,560.78c-7.06,26.75-14.12,53.5-21.2,80.24-.34,1.26-.99,2.45-1.5,3.66-.39-.3-.79-.6-1.18-.91-3.06-3.6-4.86-7.93-6.8-12.13-12.8-27.76-27.08-54.79-40.23-82.38-1.01-2.12-2.83-4.18-.99-6.73,19.95-5.39,39.92-10.77,59.87-16.2,2.07-.56,4.43-.61,5.73-2.82,5.15,2.39,2.72,7.28,3.67,11.06-.45,2.64-.61,5.24.88,7.66,2.39,6.01,1.32,12.34,1.77,18.52v.03Z"/>
          <path class="cls-34" d="M79.38,621.12c-12.16,19.03-24.3,38.05-36.46,57.08-4.83.79-4.16-3.01-4.09-5.49.46-15.71,1.32-31.4,2.39-47.06.76-11.03,1.14-22.09,1.9-33.12,1.16-16.77,1.84-33.56,3.09-50.33.23-3.16-.46-7.81,5.4-6.87,12.77,2.37,25.53,4.73,38.3,7.11,2.19,4.99,2.49,10.09,1.67,15.49-2.6,17.23-5.37,34.45-7.63,51.73-.54,4.18-1.37,8.31-4.57,11.46h0Z"/>
          <path class="cls-10" d="M459.5,605.03c-26.08,14.63-52.16,29.27-78.24,43.89-4.64,2.6-9.49,4.86-13.97,7.7-2.83,1.81-3.82.61-5-1.69-3.16-6.11-6.41-12.14-9.62-18.21,3.11-2.23,6.05-.69,8.72.78,3.79,2.11,7.13,1.46,10.64-.57,39.2-22.51,78.91-44.12,118.1-66.6,5.2-2.98,10.59-5.56,15.64-8.8,1.62-1.03,3.81-1.48,4.2-3.85-5.18-12.09-12.87-22.74-19.27-34.11-8.36-14.85-17.27-29.42-25.61-44.3-2.72-4.84-6.16-8.51-11.44-10.51-2.88-1.1-5.81-2.2-8.42-3.93-4.32-4.49-9.07-8.77-8.5-15.9,11.89,3.52,22.82,9.42,34.3,13.95,2.42.95,3.33,3.41,4.6,5.49,4.71,7.74,9.48,15.44,14.23,23.15,9.17,17.76,20.4,34.31,30.33,51.64,3.09,5.4,6.23,10.77,9.57,16.01,2.11,3.3,1.88,4.99-1.92,7.1-22.88,12.74-45.57,25.81-68.34,38.77h0Z"/>
          <path class="cls-20" d="M251.29,231.34c-1.69,13.46-6.42,26.18-9.87,39.2-10.36,39.17-21.16,78.21-31.92,117.29-.65,2.38-.29,5.55-3.39,6.81-2.46,1.39-4.79.33-7.02-.53-9.72-3.75-19.43-7.58-29.05-11.6-2.56-1.06-5.71-1.84-5.56-5.67,24.33-41.28,48.61-82.58,73.05-123.77,4.37-7.36,7.82-15.34,13.76-21.71h0Z"/>
          <path class="cls-34" d="M287.18,763.69l12.14,9.28c-1.65,4.9-6,3.81-9.44,3.86-15.08.24-30.16.15-45.25.1-19.28-.07-38.58.27-57.88-.15-2.49-.64-5.3-.34-7.25-2.53-.12-1.32-.23-2.64-.35-3.96,1.33-16.03,2.67-32.07,4-48.09,2.84-2.72,6.26-1.9,9.41-1.16,15.93,3.78,31.93,7.22,47.72,11.53,2.79.76,5.52,1.7,7.37,4.15,13.16,8.99,26.34,17.98,39.51,26.97h.01Z"/>
          <path class="cls-20" d="M173.69,658.26c.76-4.32,3.4-2.22,5.52-1.56,25.62,7.92,51.26,15.83,76.85,23.83,12.68,3.96,25.55,7.26,37.81,12.51-1.82,3.77-5.62,4.56-9.02,5.37-30.12,7.22-60.13,14.99-90.33,21.86-3.96.9-9.86,3.81-12.25-3.33-2.86-19.56-5.71-39.11-8.57-58.68h-.01Z"/>
          <path class="cls-7" d="M580.68,118.19c1.33-7.21-2.03-13.68-3.52-20.37-6.05-27.17-12.62-54.22-19-81.33,8.72,8.15,17.5,16.21,26.14,24.44,20.5,19.53,40.94,39.13,61.36,58.74,1.56,1.51,2.87,3.28,4.3,4.92-20.62,4.6-41.24,9.19-61.84,13.8-2.5.56-5.02,2.03-7.44-.22h0Z"/>
          <path class="cls-20" d="M163.13,560.78c-3.24-5.81-1.22-12.72-3.89-18.65-.95-2.16-.87-4.34-.04-6.51-2.42-3.71.16-8.4-2.38-12.08-4.58-34.26-9.18-68.52-13.76-102.78-1.35-5.44,1.77-5.73,5.6-4.62,3.85,1.12,7.28,3.29,10.93,4.9,10.16,4.47,20.3,9,30.26,13.91,2.23,1.1,4.37,2.2,5.43,4.62l-.08-.05c-10.69,40.42-21.37,80.84-32.06,121.26h-.01Z"/>
          <path class="cls-37" d="M476.72,23.52c-2.54,1.54-1.67,2.92.08,4.47,13.3,11.75,26.57,23.56,39.86,35.33-.38.1-.78.16-1.17.19-1.24.94-2.5,1.9-4.07,2.18-20.73,3.52-41.47,6.92-62.4,8.91-3.44-.52-6.12-2.57-8.6-4.76-12.08-10.7-23.58-22.03-35.81-32.57-1.01-.87-1.47-2.2-2.31-3.22-.12-.42-.16-.84-.16-1.29,23.98-3.13,47.94-6.26,71.92-9.36.86-.11,1.77.07,2.64.12h.01Z"/>
          <path class="cls-10" d="M664.85,412.54c-7.81-1.99-15.74-.61-23.6-.84-9.23-.26-18.52-.45-27.73.07-6.2.35-8.43-1.8-7.56-7.78.22-1.5-.05-3.07-.1-4.61l.18-.12c12.99-.78,25.85-2.71,38.98-2.61,49.54.37,99.1.24,148.65.07,9.55-.03,18.77,2.45,28.23,2.72.75,12.84.75,12.72-11.89,12.87-18.56.22-37.13-.73-55.68.54-5.45,2.14-11.12,2.67-16.96,2.62-20.66-.14-41.3-.01-61.96-.08-3.74,0-7.66.35-10.55-2.87v.03Z"/>
          <path class="cls-11" d="M821.89,399.45c-68.18-.01-136.35-.03-204.54-.05-3.78,0-7.55-.08-11.32-.12,1.01-.37,1.99-.99,3.01-1.06,6.76-.52,10.22-4.14,10.38-10.87.01-.88.12-1.77.19-2.65,3.5-3.32,7.94-2.67,12.04-2.43,44.62,2.48,89.28.63,133.92,1.35,11.15.18,22.15-1.59,33.27-1.48,3.28.03,5.58-1.05,6.12-4.68.26-1.75.9-3.45,2.42-4.61.35-.01.71-.04,1.06-.05.05,6.19.5,12.42.04,18.58-.42,5.81,1.96,7.41,7.26,6.88,2.03-.2,4.47-.95,6.17,1.21h-.01Z"/>
          <path class="cls-20" d="M79.38,621.12c3.35-21.58,6.79-43.15,9.97-64.76.67-4.57.41-9.28.57-13.93.44.04.87.07,1.31.11,11.07,22.44,22.18,44.87,33.2,67.32,4.58,9.34,8.96,18.8,13.46,28.18.87,1.82,1.59,3.66,1.37,5.74-18.29-7-36.57-14.02-54.86-21.03-1.63-.63-3.33-1.09-4.99-1.63h-.03Z"/>
          <path class="cls-6" d="M807.37,372.82c.08,14.01,1.6,11.34-11.95,12.09-37.74,2.09-75.51.39-113.25,1.14-20.89.41-41.7-1.44-62.57-1.37v-11.82c1.56-1.24,3.41-.73,5.14-.73,59.16-.03,118.32-.03,177.47,0,1.74,0,3.56-.44,5.17.67v.03h0Z"/>
          <path class="cls-18" d="M195.27,439.57c-15.63-7.13-31.25-14.24-46.85-21.42-3.02-1.39-5.56-2.34-5.37,2.61-2.39-2.91-.53-5.41.86-7.86,6.83-12.04,13.72-24.04,20.59-36.07,9.06,6.49,20.1,8.49,29.97,13.18,3.77,1.8,7.77,3.1,11.67,4.64,1.17,8.15-3.29,15.14-4.73,22.77-1.43,7.51-4.03,14.78-6.11,22.17h-.03Z"/>
          <path class="cls-21" d="M664.85,412.54c29.82.11,59.65.22,89.47.33-22.07,12.95-44.15,25.94-66.26,38.83-6.85,4-13.83,7.81-20.74,11.7-.83-16.95-1.65-33.9-2.48-50.85h0Z"/>
          <path class="cls-35" d="M260.67,114.1c5.97-3.26,11.93-6.58,18.63-8.17,2.67,1.25,3.55,3.88,4.58,6.27,5.78,13.41,12.58,26.36,18.13,39.88,1.37,2.99,3.02,5.88,4.18,8.96.86,2.27,1.75,4.76-1.59,6.02-12.93,4.83-25.36,10.98-38.64,14.97-2.16-20.2-4.27-40.39-5.55-60.67-.15-2.48.27-4.83.26-7.24v-.03Z"/>
          <path class="cls-20" d="M51.63,535.33c-1.99.46-3.09,1.63-2.98,3.75.33,6.45-.92,12.78-1.26,19.18-1.55,28.48-2.2,57.02-4.45,85.44-.8,10.1.49,20.4-2.16,30.38-.46,1.75-.19,3.63,2.18,4.13-2.92,6.35-8.61,3.56-12.81,3.03-3.81-.48-1.77-4.87-1.69-7.41,1.41-44.76,3.06-89.5,4.39-134.26.18-5.97,1.52-8.6,7.87-6.61,3.55,1.1,7.28,1.6,10.93,2.38h-.03Z"/>
          <path class="cls-40" d="M182.24,716.95c2.57,3.73,6,2.72,9.53,1.86,26.82-6.61,53.65-13.21,80.5-19.71,7.28-1.75,14.66-3.02,21.57-6.05.54.41,1.09.82,1.63,1.22-15.94,14.14-31.88,28.3-47.82,42.45-17.15-4.2-34.3-8.38-51.45-12.59-4.3-1.06-8.55-2.28-13.06-1.94-.76-1.67-1.32-3.37-.91-5.24h0Z"/>
          <path class="cls-23" d="M304.61,167.04c2.27-5.83-3.7-9.3-4.12-14.38-.34-1.4-.03-2.94.97-3.64,5.74-4.11,9.13-11.34,16.89-12.77,6.32,5.64,7.22,14.09,10.92,21.09,6.94,15.54,13.55,31.23,20.13,46.93,1.09,2.61,2.41,5.3.99,8.28-6.92,3.51-13.98,5.92-21.75,2.76l.08.07c-5.97-13.14-11.83-26.33-17.99-39.37-1.52-3.24-1.78-7.56-6.11-8.98h-.01Z"/>
          <path class="cls-11" d="M692.8,272.77c-4.73,4.95-9.56,9.82-14.17,14.88-2.39,2.62-4.2,2.38-6.51-.1-3.93-4.2-8.2-8.06-12.13-12.28-2.35-2.52-4.09-2.6-6.47,0-3.74,4.07-7.96,7.7-11.67,11.79-2.69,2.96-4.62,3.14-7.48.11-4.69-4.96-9.82-9.52-14.77-14.24.52-1.2,1.56-1.36,2.69-1.48,6.17-.61,9.26-3.92,9.26-9.93,0-12.57-.04-25.15.04-37.71.01-2.33-.87-4.9,1.16-6.91,2.69,2.61,2.35,6.05,2.38,9.32.1,11.48.31,22.96-.07,34.42-.2,6.3,1.58,10.19,8.23,10.84,8.89-.04,17.79-.08,26.7-.12.63.07,1.25.2,1.85.38,3.84.42,7.67.92,11.55.34,3.14.33,6.38-.78,9.42.69h0Z"/>
          <path class="cls-25" d="M792.7,216.18l1.32.67c1.51,9,.42,18.09.65,27.13.2,8.2,0,16.4.07,24.62.01,2.57,0,5.06-3.11,5.77-3.25.73-6.61,1.37-8.17-2.87.1-16.1.15-32.2.34-48.31.03-2.45-1.2-5.47,2.14-6.98,2.26-1.77,4.52-1.43,6.77,0v-.03Z"/>
          <path class="cls-27" d="M754.42,216.19c3.16,1.25,2.08,4.05,2.11,6.28.15,16.31.19,32.61.26,48.91.39.8.24,1.48-.42,2.07-3.39,1.9-6.76,1.92-10.1-.1-.61-.61-.75-1.33-.42-2.14.05-16.14.05-32.29.19-48.43.01-2.27-1.01-4.98,1.7-6.61,2.23-1.6,4.47-1.69,6.69,0h0Z"/>
          <path class="cls-9" d="M694.06,252.57c-2.54-1.85-1.02-3.4.42-4.87,5.59-5.67,11.26-11.26,16.81-16.97,1.56-1.6,3.02-1.74,4.57-.31,6.76,6.27,13.33,12.74,19.14,19.94.08.1-.42.67-.64,1.01-3.32,1.96-6.92,2.71-10.76,2.58-9.86-.31-19.79.94-29.55-1.37h.01Z"/>
          <path class="cls-25" d="M643.28,271.48c-8.99,3.17-10.5,2.16-10.51-6.94,0-15.88-.01-31.77-.03-47.65.45-.24.91-.49,1.36-.72,2.24-1.46,4.49-1.74,6.72,0,.41.2.82.42,1.24.63,1.4,10.95.23,21.95.65,32.91.27,7.24-.71,14.5.54,21.71l.03.05h0Z"/>
          <path class="cls-27" d="M671.36,216.85c.3-.27.63-.5.99-.67,2.26-1.77,4.53-1.58,6.79-.01,2.6,1.7,1.65,4.38,1.66,6.66.14,16.13.15,32.25.22,48.38-2.82,4.26-6.56,1.8-10.01,1.39-.29-18.59-.94-37.17.35-55.75h0Z"/>
          <path class="cls-31" d="M756.61,272.69c.01-.44.07-.87.16-1.31,8.89.03,17.79.07,26.68.1,8.99,3.17,10.57,2.15,10.57-6.91v-47.72c2.12,2,1.18,4.6,1.2,6.92.1,13.75.23,27.51-.05,41.25-.1,4.84,1.2,7.24,6.3,6.41,5.96-.98,7.74,1.58,7.38,7.4-.53,8.62-.29,17.29-.38,25.94h-.98v-30.99c-5.73,5.09-10.54,8.85-14.72,13.25-3.14,3.3-5.17,2.94-7.97-.19-3.54-3.93-7.51-7.48-11.19-11.29-1.82-1.88-3.54-3.48-6.13-1.31-3.75.48-7.66,1.92-10.87-1.51v-.03Z"/>
          <path class="cls-10" d="M694.06,252.57c1.89-2.27,4.47-1.35,6.77-1.35,11.18-.04,22.36.08,33.54.14-6.31,6.68-12.63,13.36-18.94,20.03-1.88,1.32-3.1.53-4.01-1.25-5.78-5.86-11.56-11.72-17.34-17.57h-.01Z"/>
          <path class="cls-23" d="M711.4,270.16c1.33.42,2.68.83,4.01,1.25,10.13-.05,20.26-.12,30.4-.18.07.5.15,1.01.22,1.51-4.01,3.71-8.04,2.16-12.08.04-5.9,1.73-8.73,7.14-12.85,10.95-7.36,6.79-7.06,6.84-14.52-.19-4.24-3.98-7.28-9.64-13.79-10.76-3.59-.01-7.17-.03-10.76-.04-.39-.27-.53-.54-.39-.82s.26-.41.39-.41c7.71-.03,15.44,0,23.15-.12,2.11-.03,4.46.75,6.22-1.24h.01Z"/>
          <path class="cls-38" d="M268.8,13.81c-6.49,4.23-13.67,6.64-21.23,8.04-5.3-15.19-5.21-14.91,9.03-20.3,5.71-2.16,8.42-1.14,9.64,4.76.53,2.57,1.69,5,2.56,7.51Z"/>
          <path class="cls-11" d="M807.37,372.81c-62.59.03-125.19.04-187.78.07v-1.43c59.84,0,119.68-.01,179.52.05,2.76,0,5.81-1.03,8.24,1.32h.01Z"/>
          <path class="cls-32" d="M792.7,216.18h-6.77c-5.66-10.36-5.58-10.81,3.33-21.49,8.79,10.3,8.94,11.26,3.44,21.49h0Z"/>
          <path class="cls-32" d="M679.16,216.17c-2.26,0-4.53.01-6.79.03-5.28-9.38-5.02-11.67,1.25-19.61,2-2.53,2.75-1.54,4.23.39,4.73,6.17,7.3,12.35,1.32,19.19h-.01Z"/>
          <path class="cls-32" d="M640.82,216.18h-6.72c-3.43-6.46-2.46-13.54,2.91-21.24,8.46,7.29,9.21,11.48,3.81,21.24Z"/>
          <path class="cls-32" d="M754.42,216.19h-6.7c-7.34-8.35-2.04-14.8,3.18-21.26,8.7,8.4,9.15,11.14,3.52,21.27h0Z"/>
          <path class="cls-25" d="M671.36,216.85v55.79c-.45.6-.88.56-1.32,0,.03-.42,0-.86-.08-1.26.07-15.9.08-31.78.26-47.68.03-2.27-1.09-4.87,1.14-6.83h0Z"/>
          <path class="cls-11" d="M643.25,271.42c-1.94-2.04-1.17-4.61-1.18-6.95-.07-15.9-.03-31.78-.01-47.68,1.89,1.52,1.22,3.66,1.22,5.56.03,16.36,0,32.71-.03,49.07h0Z"/>
          <path class="cls-11" d="M670.05,272.63c.44.05.88.05,1.32,0,3.25-.23,6.79,1.35,9.66-1.44.35.03.69.12,1.01.3v1.22c-4.01,2.05-8.01,2.22-12-.1h.01Z"/>
          <path class="cls-11" d="M619.58,358.04c2.61.49,5.54-.8,7.85,1.37-2.62,0-5.24.01-7.86.03v-1.4h.01Z"/>
          <path class="cls-8" d="M436.72,448.92c2.61,5.17,5.2,10.35,9.26,14.59,9.55,12.01,16.09,25.88,24.13,38.84,8.74,14.1,16.97,28.52,25.46,42.79,1.44,2.41,3.45,4.72,2.83,7.9-9.26,7.36-19.99,12.28-30.14,18.14-33.84,19.57-68.08,38.39-101.85,58.07-4.38,2.56-8.62,5.55-13.86,6.26-5.7,1.44-10.39,4.92-15.1,8.11-5.29,3.6-7.7,2.39-10.49-3.11-12.92-25.65-26.25-51.1-39.47-76.61-.8-1.55-1.86-2.96-2.8-4.45-.76-3.98-2.73-7.56-4.99-10.7-4.2-5.9-1.69-8.61,3.7-11.38,7.02-3.62,14.02-7.36,20.22-12.35.57-.48,1.2-.58,1.89-.37,8.57,6.02,15.22,14.1,22.48,21.5,4.56,4.64,8.98,6.23,15.35,4.37,12.93-3.77,26.56-4.62,39.43-8.77,2.42-1.2,3.24-3.47,3.94-5.83,3.18-10.55,6.53-21.07,9.33-31.72.44-4.04-2.71-6.3-4.53-9.22-3.2-5.15-8.6-9.03-9.08-15.76,4.16-5.83,9.85-9.13,16.88-10.17,8.72-5,17.42-10.05,26.19-14.97,3.58-2.01,6.83-4.81,11.19-5.13h.01Z"/>
          <path class="cls-4" d="M332.44,399.49c9.98,17.27,19.95,34.54,29.95,51.8.99,1.71,2.26,3.32,2.24,5.45-.37,2.27-2.19,3.21-3.9,4.23-13.55,8-27.28,15.64-40.87,23.57-1.93,1.13-3.98,1.94-6.28,1.94-9.57-1.47-18.12-6-26.98-9.42-25.28-9.76-50.66-19.3-75.85-29.32-4.58-1.82-8.58-4.62-12.89-6.9-.44-.48-.87-.94-1.31-1.41,18.36-5.59,36.69-11.23,55.07-16.74,24.55-7.36,49.14-14.61,73.7-21.92,2.34-.69,4.61-1.62,7.11-1.26h.01Z"/>
          <path class="cls-7" d="M197.87,440.85c23.08,8.85,46.14,17.73,69.25,26.53,15.68,5.97,31.42,11.8,47.12,17.71,6.49,8.17,10.01,17.65,12.24,27.72-6.62,5.13-12.92,10.84-21.66,12.21-.39,0-.79-.01-1.18-.01-31.58-25.6-63.61-50.65-95.81-75.45-3.48-2.68-6.64-5.78-9.96-8.69h0Z"/>
          <path class="cls-21" d="M447.43,72.68c20.5-2.92,41-5.86,61.51-8.73,2.16-.3,4.38-.29,6.57-.42-4.57,15.52-8.99,31.08-13.74,46.53-20.06,65.25-40.22,130.49-60.37,195.72-1.44,4.65-3.21,9.21-4.83,13.8-5.98,6.35-12.96,11-21.69,12.66-2.35-.82-3.28-2.87-4.18-4.92-15.99-36.41-32.04-72.79-47.67-109.36-.73-1.92-1.92-3.69-2.08-5.82,0-1.12.34-2.09,1.16-2.88,7.51-3.77,15.84-2.84,23.79-4.12.68.1,1.29.35,1.84.78,2.19,3.22,2.48,7.02,2.77,10.7.38,4.73,2.33,5.02,5.93,2.84,10.53-6.35,21.45-12.04,31.58-19.07.95-.52,1.96-.79,3.05-.86,6.58-.97,13.18-1.73,19.79-2.48,8.23-.92,8.65-1.35,7.74-9.4-4.03-35.44-8.65-70.8-12.63-106.24-.34-3.06-1.17-6.2,1.48-8.74h-.01Z"/>
          <path class="cls-2" d="M497.92,406.04c-18.63-4.94-37.26-9.87-55.9-14.8-.48-.46-.72-1.03-.78-1.7,3.2-7.98,9.64-13.7,14.55-20.45,6.64-9.14,13.64-18.02,20.56-26.97,1.97-2.54,3.5-5.78,7.13-6.61,16.42,4.88,32.84,9.76,49.26,14.66,1.28,3.2-.69,5.59-2.19,7.94-9.32,14.54-18.5,29.19-27.81,43.72-1.17,1.84-2.27,3.88-4.81,4.22h-.01Z"/>
          <path class="cls-12" d="M497.92,406.04c11.6-18.63,23.22-37.25,34.82-55.88,11.23,2.88,22.05,7.28,33.48,9.44-4.8,12.01-12.48,22.43-18.73,33.63-7.33,13.18-15.06,26.14-22.62,39.18-1.21,2.08-1.93,4.53-4.12,5.93-7.62-10.76-15.22-21.53-22.83-32.3Z"/>
          <path class="cls-26" d="M483.48,335.49c-13.83,18.25-27.65,36.5-41.48,54.75-3.4.3-4.52-2.27-5.6-4.66-7.17-15.87-13.86-31.95-20.88-47.89-.87-1.96-1.99-4.07-.2-6.19,7.09-3.98,14.17-7.96,21.26-11.94,13.63,4.43,27.28,8.85,40.9,13.34,2.07.68,4.01,1.71,6.02,2.58h-.01Z"/>
          <path class="cls-5" d="M554.45,156.71c8.64,2.38,17.52,4.11,25.02,9.45,1.84,1.92,1.24,4.15.64,6.26-3.1,11.08-6.54,22.07-10.08,33.02-.76,2.35-2.11,4.38-4.09,5.93-1.84,6.26-3.58,12.54-5.56,18.75-.88,2.76-.94,6.41-5.17,6.69-8.62,1.58-16.01-1.03-22.52-6.64.41-1.86.82-3.73,1.24-5.6-1.01-5.13.35-10.09,1.78-14.84,4.66-15.42,9.52-30.78,14.09-46.24.8-2.69,1.39-5.68,4.64-6.77h.01Z"/>
          <path class="cls-13" d="M477.58,240.56c35.18,11.15,68.46,21.69,102.19,32.38-2.5,3.26-5.9,2.35-8.61,3.09-12.59,3.4-25.24,6.54-37.92,9.63-2.64.64-5.2,1.69-7.97-.91-15.27-14.39-30.76-28.55-47.71-44.19h.01Z"/>
          <path class="cls-13" d="M554.45,156.71c-7.14,22.52-14.38,45.02-20.51,67.84-2.72-6.08-1.65-12.57-.88-18.62.97-7.67.73-15.26.92-22.89,1.29-5.94-.11-11.21-4.01-15.84l-11.93-10.57c1.18-1.5,2.86-2.11,4.64-2.22,8.79-.56,17.57-.53,26.36-.03,1.78.1,3.44.76,4.66,2.18.26,0,.5.04.73.15h.01Z"/>
          <path class="cls-21" d="M565.96,211.35c4.5-15.07,9.02-30.14,13.52-45.21.42-.49.83-.99,1.25-1.48,1.75-.98,3.44-.35,5,.39,7.7,3.66,15.31,7.49,22.85,11.46,1.54.82,3.05,1.84,2.96,3.94-6.12,1.96-13.06,0-18.8,3.88-5.89,2.05-8.76,6.72-10.62,12.27-4.04,2.71-7.02,6.43-10.05,10.17-1.55,1.92-2.41,5.34-6.12,4.56h0Z"/>
          <path class="cls-22" d="M553.71,156.56c-11.89.03-23.77.04-35.66.07-1.73-3.22.3-6.35.23-9.55-.04-1.97,1.55-2.45,3.25-2.38,10.76.42,21.52.91,32.29,1.25,3.01.1,3.22,1.56,2.41,3.84-.82,2.27-1.69,4.53-2.53,6.79h.01Z"/>
          <path class="cls-3" d="M611.55,180.48c-10.27-5.28-20.55-10.54-30.82-15.82,0-.22-.04-.45.03-.67,3.24-11.45,1.56-9.42,11.15-5.52,5.1,2.08,10.06,4.52,15.07,6.81,10.34,4.73,10.42,5.02,4.57,15.19h0Z"/>
          <path class="cls-36" d="M582.14,196.62c-.56-9.85,1.81-12.59,10.62-12.27,4.3,1.65,6.28,4.94,5.97,9.36-.27,3.96-2.79,6.49-6.54,7.55-4.58,1.29-7.59-1.17-10.06-4.62h.01Z"/>
          <path class="cls-19" d="M529.97,167.19c8.11,4.16,9.18,8.4,4.01,15.84-3.84,1.93-7.56,2.45-11.06-.75-2.77-2.54-3.32-5.71-2.28-9.1,1.39-4.52,5.1-5.73,9.33-5.98h0Z"/>
          <path class="cls-29" d="M532.71,230.15c7.51,2.22,15.01,4.43,22.52,6.64.79,4.83-3.84,3.78-5.92,4.92-8.11,4.43-8.24,4.2-12.89-3.92-1.41-2.46-3.2-4.75-3.71-7.64h0Z"/>
          <path class="cls-12" d="M362.13,210.09l.08,2.49c1.46,4.58,1.6,9.45,3.06,14.04,1.01,17.03,2.27,34.05,3.37,51.08,1.54,23.65,3.02,47.31,4.71,70.96.38,5.4,2.03,11.07-1.89,16.01,1.52,8.11-2.99,12.08-9.53,15.65-10.02,5.49-19.57,11.86-29.32,17.84h.01c-1.6-2.96.27-6.35-1.16-9.34-.95-57.83-1.89-115.67-2.84-173.5,7.24-.99,14.58-1.44,21.54-3.96,3.71-3.03,7.74-3.06,11.97-1.29h0Z"/>
          <path class="cls-18" d="M331.46,388.82c2.14,2.9.76,6.23,1.16,9.34-2.38-2.87-.97-6.2-1.16-9.34Z"/>
          <path class="cls-4" d="M371.46,364.66c-2.16-34-4.39-67.99-6.47-101.99-.75-12.14-1.17-24.32-1.74-36.48-.39-3.24-2.19-6.66,1.26-9.37,16.22,37.13,32.44,74.27,48.67,111.38.52,1.18,1.41,2.2,2.12,3.3,8.02,18.63,16.02,37.28,24.1,55.88.49,1.12,1.7,1.92,2.58,2.86.03.33.03.65.01.98-11.79-2.92-23.58-5.81-35.36-8.77-7.09-1.78-14.06-4.12-21.23-5.36-7.53-1.31-14.35-2.61-13.98-12.44h.03Z"/>
          <path class="cls-15" d="M325.8,512.97c-3.85-9.3-7.71-18.59-11.56-27.89,16.8-9.44,33.59-18.89,50.39-28.33.46.04.94.08,1.4.11,7.68,5.96,13.83,13.07,16.97,22.45,4.5,6.41,9.02,12.82,13.52,19.24.94,1.33,2.82,2.38,1.54,4.49-1.62,2.76-4.07,4.54-6.77,6.16-15.57,9.33-31.47,18.1-46.93,27.61-2.43,1.5-4.9,3.18-8.04,2.01-5.74-7.71-10.25-15.93-10.53-25.87h.01Z"/>
          <path class="cls-13" d="M383.02,479.33c-5.66-7.48-11.32-14.97-16.97-22.45,11.38,3.29,22.51,7.28,33.31,12.16-5.44,3.44-10.88,6.87-16.32,10.31h-.01Z"/>
          <path class="cls-16" d="M185.9,774.35c35.26-.01,70.54-.01,105.81-.1,2.57,0,5.37.86,7.62-1.29,5.56,3.13,3.09,8.43,2.67,12.55-.41,3.98-4.76,2.03-7.28,2.04-34.82.14-69.65.1-104.48.1-7.63,0-11.21-3.99-10.72-11.97,1.88-1.65,4.47.23,6.38-1.32h0Z"/>
          <path class="cls-17" d="M185.9,774.35c-1.81,2.01-4.22,1.03-6.38,1.32v-1.44c2.12.04,4.26.08,6.38.12Z"/>
          <path class="cls-11" d="M800.7,359.43c1.9-2.03,4.42-.99,6.66-1.37-1.86,2.18-4.41,1.12-6.66,1.37Z"/>
          <path class="cls-24" d="M339.46,79.43c16.9-2.95,33.8-5.93,50.7-8.85,1.73-.3,3.5-.38,5.24-.57,2.16,1.84,2.11,4.35,1.73,6.76-2.88,17.94-6.32,35.78-9.44,53.68-.15.87-.67,1.63-1.18,2.35-4.32,2.88-8.15,6.7-13.59,7.59-3.21-.22-4.98-2.54-6.83-4.75-11.93-14.18-23.62-28.55-35.41-42.84-1.93-2.34-4.52-4.61-2-8.08,3.59-1.75,7.18-3.52,10.77-5.28h.01Z"/>
          <path class="cls-35" d="M328.68,84.71c-.52,5.1,4.05,7.1,6.54,10.21,11.25,14.1,22.82,27.96,34.31,41.87.83.99,2.03,1.69,3.05,2.52.39,3.1-2.27,3.59-4.12,4.35-11.52,4.71-22.86,9.87-34.61,13.99-2.15.75-4.26,1.28-6.49.44-3.13-7.13-6.27-14.27-9.4-21.39-2.03-1.16-3.11-3.05-3.98-5.11-3.92-9.36-8.13-18.58-11.75-28.04-1.01-2.62-2.52-5.32-.18-8.06,8.87-3.59,17.75-7.18,26.62-10.77h.01Z"/>
          <path class="cls-8" d="M302.06,95.48c2.18,10.23,7.44,19.27,11.12,28.91,1.56,4.11,3.18,8.2,4.77,12.31-5.82,5.33-11.66,10.65-17.48,15.97-7.34-15.45-15.01-30.75-21.18-46.74,7.59-3.48,15.16-6.96,22.75-10.44h0Z"/>
          <path class="cls-18" d="M352.53,635.51c9.37-7.07,19.95-12.17,30.07-17.99,36.45-20.94,73.06-41.62,109.62-62.36,1.71-.97,3.62-1.59,5.44-2.38,6.54-2.42,10.54,2.23,15.07,5.43,1.12,3.16-2.01,2.88-3.29,3.62-44.72,25.26-89.54,50.33-134.23,75.64-5.51,3.11-10.32,5.7-16.24,1.1-1.6-1.25-4.16-1.26-6.28-1.85.04-.41,0-.82-.14-1.21h-.01Z"/>
          <path class="cls-28" d="M384.81,132.58c3.6-20.85,8.26-41.51,10.58-62.57,3.41-11.78,4.54-23.99,6.91-35.97,5.28,2.07,8.89,6.32,12.97,9.96,10.72,9.55,20.55,20.1,32.14,28.68,2.43,20.85,4.81,41.7,7.3,62.55,2.31,19.31,4.76,38.6,7.07,57.91.22,1.82,1.03,4.47-1.82,4.91-9.93,1.51-19.82,3.77-29.97,2.68-3.16-3.1-2.94-7.3-3.45-11.17-1.26-9.44-2.31-18.92-3.32-28.4-.54-5.09-2.46-7.34-8.13-6.49-8.74,1.33-17.52,2.67-26.34,3.5-2.87.27-5.74.91-8.32-1.03-2.15-8.83-.15-16.92,4.37-24.55h.03Z"/>
          <path class="cls-11" d="M733.97,272.77c4.03,0,8.05-.03,12.08-.04,3.52-.01,7.06-.03,10.58-.04,3.6.64,7.56-1.32,10.87,1.51-4.45,4.6-8.94,9.15-13.33,13.8-1.94,2.05-3.55,2.09-5.51.01-4.84-5.14-9.78-10.17-14.67-15.26h-.01Z"/>
          <path class="cls-33" d="M159.19,535.62c.01,2.18.03,4.35.04,6.53-1.84-2.16-1.82-4.34-.04-6.53Z"/>
          <path class="cls-12" d="M512.72,558.19c-5.02-1.81-10.05-3.62-15.07-5.43-15.95-26.98-31.93-53.96-47.86-80.96-1.55-2.62-3.7-5-3.82-8.3,11.6,2.99,18.86,10.25,24.59,20.94,13.37,24.94,28.03,49.2,42.16,73.74Z"/>
          <path class="cls-39" d="M384.81,132.58c-1.32,8-2.65,15.99-3.97,23.99,1.84,1.69,3.03,3.71,3.28,6.26,1.16,12.02,3.1,23.94,4.27,35.96.23,2.35.72,4.86-1.16,6.9-7.92,4.05-16.81,2.54-25.12,4.39-3.82,1.97-7.96,1.1-11.97,1.29-7.6-17.76-15.19-35.51-22.79-53.27,14.96-6.54,30.59-11.48,45.23-18.77,4.08-2.24,8.15-4.49,12.23-6.73h0Z"/>
          <path class="cls-26" d="M336.94,538.4c19.2-11.18,38.41-22.37,57.62-33.54,1.14-.67,2.34-1.21,3.51-1.81-2.24,13.04-7.3,25.28-10.66,38.01-.58,2.22-2.18,2.52-4.03,2.54-14.18,1.63-28.22.03-42.23-1.93-1.8-.24-4.18-.44-4.2-3.26h-.01Z"/>
          <path class="cls-10" d="M336.94,538.4c10.23,2.96,20.93,1.97,31.32,3.66,4.99.82,10.08,1.05,15.11,1.54-15.11,4.81-30.99,6.17-46.24,10.42-2.28.64-4.28-.27-5.97-2.01-8.76-9.03-17.57-18.01-26.36-27.01,6.99-4.03,13.1-9.57,20.98-12.04,3.71,8.49,7.43,16.96,11.14,25.45h.01Z"/>
          <path class="cls-15" d="M387.25,205.69c-1.74-13.1-3.5-26.19-5.22-39.29-.44-3.26-.79-6.56-1.18-9.82,12.5-1.56,25.02-2.96,37.5-4.79,4.26-.63,6.27-.38,6.72,4.77,1.29,14.76,3.25,29.44,4.95,44.16-.46.46-.91.94-1.37,1.4-10.73,4.68-22.32,4.72-33.65,6.12-2.65.33-5.3.04-7.55-1.71-.05-.29-.12-.57-.2-.84h.01Z"/>
          <path class="cls-42" d="M387.44,206.54c13.74-1.47,27.47-2.94,41.21-4.42-10.98,8.15-23.41,13.9-34.86,21.26-2.86,1.84-4.6.82-4.96-2.45-.53-4.79-.92-9.59-1.37-14.39h-.01Z"/>
          <path class="cls-30" d="M364.51,216.83c-2.27,2.87-.63,6.28-1.26,9.37-2.09-4.41-1.06-9.06-1.03-13.63.78,1.41,1.54,2.83,2.31,4.24h-.01Z"/>
          <path class="cls-1" d="M506.12,256.37c16.95,5.32,33.9,10.64,50.85,15.94.04.45.08.91.14,1.36-8.73,2.5-17.46,4.98-26.19,7.51-1.84.53-2.91-.53-4.04-1.6-7.37-6.99-14.74-13.97-22.13-20.94.46-.75.91-1.51,1.37-2.26Z"/>
          <path class="cls-29" d="M394.03,168.06c1.81-.49,2.23-.65,2.67-.71,18.51-2.01,19.82-.64,18.05,19.99-3.71-3.55-6.96-6.72-10.28-9.81-3.18-2.98-6.45-5.88-10.42-9.48h-.01Z"/>
        </g>
      </g>
    </g>
  </g>
</svg>