<?xml version="1.0" encoding="UTF-8"?>
<svg xmlns="http://www.w3.org/2000/svg" version="1.1" viewBox="0 0 636.44 800">
  <defs>
    <style>
      .cls-1 {
        fill: #5599ae;
      }

      .cls-2 {
        fill: #2b2b2b;
      }

      .cls-3 {
        fill: #569baf;
      }

      .cls-4 {
        fill: #2d2e2d;
      }

      .cls-5 {
        fill: #5296ab;
      }

      .cls-6 {
        fill: #84c7ca;
      }

      .cls-7 {
        fill: #569aaf;
      }

      .cls-8 {
        fill: #66a6a8;
      }

      .cls-9 {
        fill: #e2c9b7;
      }

      .cls-10 {
        fill: #579bb0;
      }

      .cls-11 {
        fill: #467b7e;
      }

      .cls-12 {
        fill: #4e91a7;
      }

      .cls-13 {
        fill: #5497ac;
      }

      .cls-14 {
        fill: #87cce0;
      }

      .cls-15 {
        fill: #8e8e8e;
      }

      .cls-16 {
        fill: #599db3;
      }

      .cls-17 {
        fill: #579aad;
      }

      .cls-18 {
        fill: #5e9eb2;
      }

      .cls-19 {
        fill: #ab9382;
      }

      .cls-20 {
        fill: #bb987f;
      }

      .cls-21 {
        fill: #5b9fb4;
      }

      .cls-22 {
        fill: #5396ac;
      }

      .cls-23 {
        fill: #bc987e;
      }

      .cls-24 {
        fill: #c8d5da;
      }

      .cls-25 {
        fill: #8e8f8f;
      }

      .cls-26 {
        fill: #d9bca6;
      }

      .cls-27 {
        fill: #5598ae;
      }

      .cls-28 {
        fill: #4d90a6;
      }

      .cls-29 {
        fill: #d8bca6;
      }

      .cls-30 {
        fill: #387477;
      }

      .cls-31 {
        fill: #bc977e;
      }

      .cls-32 {
        fill: #2e2e2d;
      }

      .cls-33 {
        fill: #75bdd5;
      }

      .cls-34 {
        fill: #589cb1;
      }

      .cls-35 {
        fill: #464646;
      }

      .cls-36 {
        fill: #3f7889;
      }

      .cls-37 {
        fill: #876956;
      }

      .cls-38 {
        fill: #5599af;
      }

      .cls-39 {
        fill: #b7c6ca;
      }

      .cls-40 {
        fill: #31302f;
      }

      .cls-41 {
        fill: #4a8ca2;
      }

      .cls-42 {
        fill: #bd987f;
      }

      .cls-43 {
        fill: #336567;
      }

      .cls-44 {
        fill: #bc987f;
      }

      .cls-45 {
        fill: #589db2;
      }

      .cls-46 {
        fill: #2e2d2d;
      }

      .cls-47 {
        fill: #569db4;
      }

      .cls-48 {
        fill: #6e7073;
      }

      .cls-49 {
        fill: #dbe8ee;
      }

      .cls-50 {
        fill: #d6e6ed;
      }

      .cls-51 {
        fill: #917868;
      }

      .cls-52 {
        fill: #474848;
      }

      .cls-53 {
        fill: #d4e0e6;
      }

      .cls-54 {
        fill: #4f9093;
      }

      .cls-55 {
        fill: #5295ab;
      }

      .cls-56 {
        fill: #579bb1;
      }

      .cls-57 {
        fill: #5498ae;
      }

      .cls-58 {
        fill: #4d90a5;
      }

      .cls-59 {
        fill: #86cce0;
      }

      .cls-60 {
        fill: #599cb1;
      }

      .cls-61 {
        fill: #484848;
      }

      .cls-62 {
        fill: #72a6a9;
      }

      .cls-63 {
        fill: #856754;
      }
    </style>
  </defs>
  <!-- Generator: Adobe Illustrator 28.7.1, SVG Export Plug-In . SVG Version: 1.2.0 Build 142)  -->
  <g>
    <g id="Layer_1">
      <g>
        <path class="cls-30" d="M403.65,621.37c4.34,20.44,8.72,40.87,13,61.32,2.01,9.59,3.85,19.22,5.76,28.84.95,5.26-3.16,5.67-6.43,6.16-8.79,1.33-17.58,2.64-26.36,3.99-1.79.5-3.6.69-5.45.49-2.22-.27-4.24.64-6.33,1.12-22.3,3.56-44.67,6.68-67.03,9.86-1.95.28-3.91.63-5.88.14-.71-.21-1.33-.59-1.86-1.12-1.85-3.05-.42-6.04.52-8.84,15.76-47.38,32.14-94.54,48.12-141.84.83-2.46,1.62-5.1,4.62-5.93,3.52-.34,5.57,2.13,7.71,4.25,11.62,11.52,23.11,23.17,34.75,34.66,2.07,2.05,3.27,4.58,4.87,6.89Z"/>
        <path class="cls-31" d="M274.65,315.69c-6.65-17.75-15.37-34.6-22.76-52.03-.68-1.6-1.35-3.2-2.02-4.79-1.13-11.88,2.34-23.31,3.46-34.96.35-3.67,1.5-7.27.96-11.02-.12-6.34-2.38-12.47-1.91-18.86,1.32-4.13,5.01-5.85,8.32-7.8,3.76-2.21,5.11-4.94,3.53-9.18-3.02-8.13-5.2-16.56-8.52-24.59-4.93-12.97-8.71-26.33-13.51-39.34-.68-1.85-1.01-3.77-.35-5.73,6.74-6.48,15.44-7.48,24.1-8.61,10.44,9.32,21.7,17.75,31.16,28.19,3.78,12.43,4.33,25.46,6.99,38.1,1.08,5.13,1.84,10.35,2.65,15.55,1.98,24.13,3.54,48.28,5.44,72.41.12,1.53-.03,3.06-.52,4.51-2.57,4.95-7.76,4.15-12,5.29-5.89,1.59-6.3,2.11-3.3,7.4,9.02,15.96,18.39,31.72,27.44,47.66,1.3,2.29,4.45,4.85,1.19,8.06-2.36.91-4.75.48-7.07,0-12.53-2.57-25.2-4.46-37.65-7.41-2.09-.5-4.3-.84-5.65-2.85Z"/>
        <path class="cls-6" d="M229.77,340.93c9.05-6.47,19.34-10.62,29.13-15.72,6.25,1.86,11.03,6.21,16.19,9.81,17.06,11.89,34.52,23.22,51.41,35.36,5.4,3.88,6.75,3.55,10.34-2.2,5.45-8.73,10.8-17.53,16.12-26.35,2.14-3.54,3.98-7.34,7.21-10.12,3.67,1.2,3.61,5,5.28,7.59,11.01,21.7,18.41,44.89,27.61,67.34,1.87,4.55,1.11,8.2-4.24,9.75-17.44.99-34.84,2.55-52.28,3.21-22.69.86-45.33,2.52-67.99,3.71-2.42.13-4.8.21-7.16-.32-.75-.11-1.47-.34-2.15-.68-3.05-2.23-3.84-5.78-5.01-9.03-7.62-21.03-15.6-41.93-23.41-62.9-1.14-3.07-2.58-6.1-1.06-9.46Z"/>
        <path class="cls-54" d="M357.52,576.56c-2.95.33-2.95,2.99-3.6,4.9-16.4,48.2-32.74,96.42-49.04,144.65-.62,1.83-.83,3.8-1.23,5.71-.52.56-1.11.67-1.79.32-4.7-6.33-5.54-14.14-7.67-21.35-5.92-20.05-13.13-39.72-17.69-60.16-.33-1.46-1.2.18-1.73-.24,1.32-12.4-4.32-23.34-7.37-34.81-2.29-8.61-5-17.1-7.52-25.64,2.35-4.64,6.63-7.49,10.4-10.64,14.58-12.16,28.82-24.71,43.21-37.09,1.65-1.42,3.16-3.05,5.45-3.45.63-.05,1.26.01,1.87.18,12.33,10.55,23.62,22.2,35.22,33.55.8,1.25,2.18,2.3,1.5,4.09Z"/>
        <path class="cls-26" d="M310.26,258.85c-1.87-26.28-4.49-52.51-5.44-78.85,2.83-3.85,6.88-3.59,10.95-3.27,16.28.4,32.54-.26,48.79-.99,3.69-.17,7.35-.95,10.81,1.02,2.54,1.64,3.59,4.32,4.78,6.89,1.66,3.37,4.2,7.6,7.42,7.3,3.95-.38,5.81-5.1,7.15-9.01-.06-3.33-1.91-6.52-.75-9.94,8.36-6.47,17.82-11.36,26.04-18.05,1.48-.75,2.97-1.64,4.43.03.22,9.75.22,19.51.69,29.24.82,16.76,1.95,33.51,2.89,50.27.19,3.31-2.78,3.41-4.86,4.36-2.07-.95-3.8-.65-5.05,1.38-.49.01-.99.02-1.48.03-4,.22-7.79,1.4-11.58,2.56-28.66,7.21-57.87,11.69-86.75,17.81-2.66.56-5.58,1.72-8.04-.79Z"/>
        <path class="cls-33" d="M519.38,373.75c3.35,6.11,6.6,12.28,10.12,18.29,1.44,2.47.46,3.39-1.61,4.47-11.58,6.05-23.12,12.2-34.67,18.31-1.71-.24-2.56-1.54-3.41-2.83q-4.07-6.17-10.25-1.61c-1.94,1.43-3.86,2.9-5.92,4.14-7.99,4.77-15.84,9.59-16.51,20.34-.06,1.04-.94,1.96-1.68,2.78-18.16,10.42-36.76,20.05-55.11,30.12-4.57,2.51-9.12,5.11-13.93,7.18-.34.5-.68.99-1.02,1.49-14.66,6.33-28.14,14.92-42.27,22.29-5.42,2.83-10.91,5.53-16.23,8.55-8.39,4.88-17,9.36-25.5,14.04-6.34,2.7-11.48,8.04-18.82,8.57-6.47-3.34-11.31-8.77-16.92-13.22-1.38-1.09-2.31-2.62-2.12-4.56,2.89-5,8.39-6.3,12.85-9.07,1.61-.88,3.15-1.87,4.7-2.86,11.06-6.2,22.49-11.7,33.45-18.07,1.59-.98,3.14-2,4.79-2.87,11.28-5.74,22.61-11.37,33.36-18.06,1.63-.77,3.18-1.71,4.76-2.58,11.68-4.95,22.31-11.85,33.41-17.86,1.95-.53,3.36-1.92,4.88-3.14,12.11-4.79,22.84-12.22,34.43-18.01,1.68-.72,3.25-1.66,4.87-2.51,11.12-6.11,22.27-12.16,33.47-18.12,1.71-.72,3.14-1.9,4.72-2.85,11.53-5.41,22.35-12.14,33.55-18.15,1.71-.62,3.2-1.64,4.71-2.63,2.54-1,4.9-2.91,7.9-1.56Z"/>
        <path class="cls-24" d="M507.53,775.52c-16.75,1.04-33.29,3.84-49.92,5.94-18.79,2.37-37.56,4.84-56.34,7.28-14.25,1.85-28.58,3.22-42.71,5.77-9.02,1.63-17.37-1.21-25.83-2.37-21.34-2.93-42.69-5.86-64.05-8.73-26.07-3.5-52.13-7.1-78.24-11.72,15.66-2.23,31.34-4.29,46.96-6.78,6.78-1.08,13.91-.66,20.22-4.14,3.68.74,3.89,4.17,5.09,6.75,1.34,2.86,1.52,6.25,3.89,8.65,1.94,2.32,4.66,2.25,7.27,2.27,12.93.1,25.86.05,38.79.03,3.86,0,7.16-.55,6.76-5.62.2-4.55-3.33-7.3-5.22-10.83-1.5-2.78-3.97-5.43-.99-8.73,3.81-2.69,8.39-1.88,12.58-2.85,17.89-4.13,35.79-4.39,53.77-.84,4.84,2.09,3.63,6.93,4.82,10.69.63,1.97-.03,4.97,2.73,5.38,2.85.42,3.1-2.53,3.94-4.43,2.98-6.81,4.49-7.87,10.55-3.04,16.07,12.81,34.62,7.57,52.36,8.29,4.45.18,3.57-4.22,4.9-6.68.35-.64.85-1.12,1.5-1.44.36,8.12,6.14,8.64,12.36,9.4,11.63,1.42,23.02,4.56,34.79,5.16.8.86.8,1.73,0,2.59Z"/>
        <path class="cls-41" d="M424.44,153.98c-1.23.4-2.46.79-3.7,1.19-8.71,4.8-17.88,8.13-27.92,8.66-3.28-1.48-3.58-4.74-4.34-7.62-2.32-8.86-4.45-17.77-6.71-26.65-1.74-6.84-2.79-7.3-8.78-6.1-5.79,1.16-5.09,4.77-4.13,8.88,1.88,8.07,3.44,16.21,5.25,24.3.71,3.17,1.57,6.38.73,9.7-1.62,4.24-5.59,4.58-9.16,5.32-16.66,3.45-33.51,5.58-50.45,7.01-3.47.44-6.94.88-10.41,1.32-3.93-17.71-6.71-35.62-8.96-53.61,1.58-2.88,4.58-3.02,7.26-3.65,7.81-1.82,15.64-3.52,23.48-5.2,8.34-2.32,17.07-3.08,25.19-6.28,18.18-3.94,36.33-8.04,54.47-12.16,2.16-.49,4.33-.8,6.37.46,8.3-1.8,16.65-3.39,24.87-5.49,3.21-.82,4.11-.1,4.68,2.99,2.77,15.02,5.72,30.02,8.67,45.01.64,3.26-.55,4.64-3.76,5.45-7.61,1.93-15.11,4.28-22.65,6.46Z"/>
        <path class="cls-26" d="M327.35,119.36c-10.5,2.34-21,4.68-31.5,7.03-6.9-3.88-12.33-9.59-17.94-14.96-3.83-3.67-9.67-5.48-11.16-11.44,1.4-3.36,4.71-3.62,7.55-4.47,21.52-6.41,42.89-13.35,64.42-19.73,21.04-6.58,41.99-13.48,63.38-18.9,3.63.75,1.13,4.29,2.71,5.98,1.08,8.48,3.01,16.78,5.35,24.99-.01,4.08,1.2,7.9,2.48,11.71-19.93,4.91-39.83,9.95-60.09,13.33-13.87.42-27.59-1.01-38.9-3.14,3.71,1.92,10.96,2.07,13.71,9.6Z"/>
        <path class="cls-35" d="M242.64,107.82c4.98,14.84,9.95,29.68,14.93,44.52-.63,2.25-2.52,2.84-4.45,3.34-25.13,6.48-50.15,13.38-75.31,19.75-1.04.26-2.17.21-3.22.53-3.91-1.92-1.41-5.12-1.05-7.42,2.5-16.11,5.36-32.16,8.12-48.22.36-2.09,1.52-4.23-.68-6.02.63-7.85.79-15.8,4.93-22.9,2.4-1.72,5.03-1.32,7.59-.65,14.84,3.87,29.52,8.28,44.04,13.23,2.12.72,4.06,1.68,5.09,3.85Z"/>
        <path class="cls-15" d="M229.77,340.93c9.15,24.8,18.31,49.59,27.43,74.4.67,1.82,1.06,3.75,1.58,5.62-1.34,3.11-4.47,3.17-7.05,4.2-8.5,3.39-18.13,3.72-25.7,9.58-5.07-.15-9.91.96-14.76,2.39-12.98,3.85-26.01,7.53-38.99,11.35-3.09.91-6.23,2.37-9.48.43,8.66-16.7,19.44-32.12,29.23-48.14,12.29-20.12,25.13-39.91,37.74-59.84Z"/>
        <path class="cls-48" d="M122.82,87.8c5.81-19.47,11.61-38.93,17.43-58.4q2.34-7.84,9.97-4.11c4.1,2.01,8.17,4.08,12.25,6.12,4.59-.14,8.28,2.31,12.15,4.24,7.61,3.78,15,7.98,22.35,12.25,1,2.29-.48,3.69-1.82,5.15-9.13,8.22-16.51,18.08-24.92,26.98-7.06,7.47-13.34,15.68-20.58,23.01-2.34,2.37-4.03,5.18-5.29,8.25-3.23-.15-5.63,1.04-7.91,3.54-9.53,10.44-19.3,20.65-30.19,30.27,5.52-19.1,11.04-38.2,16.56-57.3Z"/>
        <path class="cls-63" d="M310.26,258.84c29.76-5.82,59.51-11.64,89.27-17.44,2.13-.42,4.32-.58,6.47-.87,1.33-.49,2.75-1.17,2.75,1.25-15.97,5.22-31.85,10.75-47.96,15.5-6.02,1.77-8.85,4.11-9.22,10.85-1.1,20.29-4.27,40.44-4.7,60.8-7.82,2.61-14.79.87-21.12-4.14-10.96-18.93-21.87-37.88-32.93-56.75-2.53-4.31-1.98-6.07,3.3-6.52,4.75-.4,9.42-1.76,14.13-2.69Z"/>
        <path class="cls-35" d="M162.8,448.91c18.58-5.34,37.16-10.66,55.73-16.03,2.75-.79,5.48-2.14,7.24,1.52,2.29.97,2.99,3.09,3.6,5.19,4.8,16.59,9.61,33.18,14.23,49.82.47,1.69.79,3.41.3,5.17-.63,1.72-1.91,2.9-3.5,3.62-6.66,3.01-13.44,5.76-20.13,8.7-1.59.7-3.33.88-5,.02-17.76-19.09-35.7-38.02-52.47-58.02Z"/>
        <path class="cls-35" d="M325.76,324.81c7.04,1.38,14.08,2.76,21.12,4.14,4.43.92,8.86,1.85,13.3,2.77-2.81,9.36-9.45,16.58-14.03,24.96-3.14,5.75-6.87,11.17-10.28,16.76-1.43,2.34-2.82,3.64-5.69,1.66-23.36-16.15-46.78-32.2-70.16-48.31-.5-.34-.74-1.05-1.11-1.58,5.25-3.17,10.5-6.35,15.75-9.52,15.96,2.93,31.92,5.86,47.89,8.77,1.06.19,2.14.24,3.22.35Z"/>
        <path class="cls-26" d="M215.28,506.93c9.16-4.02,18.32-8.03,27.48-12.05,5.47-.55,7.4,4.88,11.43,6.77,2.85,3.84,8.11,5.46,9.68,10.49,6.29,5.62,12.57,11.25,18.86,16.87.35.62.36,1.24.05,1.88-11.4,7.77-23.92,13.57-35.95,20.24-3.36,1.86-6.42,4.77-10.74,4.4l-.39.07h-.4c-5.94-6.05-7.45-14.38-11.17-21.57-1.28-4.67-4.94-8.7-3.74-14.03-1.7-4.36-3.41-8.71-5.11-13.07Z"/>
        <path class="cls-8" d="M357.52,576.56l-2.65-2.59c6.37-19.48,14.25-38.4,21.3-57.63.78-2.14,1.62-4.74,4.9-4.2,7.37,34.67,14.76,69.33,22.1,104.01.36,1.7.34,3.48.49,5.22-13.6-13.32-27.19-26.66-40.8-39.96-1.72-1.68-3.55-3.24-5.33-4.85Z"/>
        <path class="cls-6" d="M381.06,512.15c-5.39,7.56-7.05,16.71-10.52,25.08-4.51,10.89-8.38,22.05-12.52,33.1-.6,1.61-.84,3.52-3.15,3.65-11.43-11.4-22.86-22.81-34.29-34.21-.92-2.9,1.12-4.54,2.86-6.04,7.76-6.65,15.41-13.43,23.04-20.23,4.38-3.9,9.17-6.55,15.22-6.35,6.41.54,13.13-1.87,19.16,2.05.06.98.13,1.97.19,2.95Z"/>
        <path class="cls-2" d="M174.59,175.96c1.63-2.73,4.42-3.19,7.2-3.92,22.11-5.8,44.22-11.65,66.28-17.63,3.15-.85,6.63-.01,9.49-2.07,3.29,9.17,6.51,18.36,9.91,27.49,1.05,2.81.21,4.49-2.2,5.93-3.91,2.34-7.73,4.83-11.59,7.25-6.03-2.37-7.94-8.37-11.21-13.07-7.02-10.09-6.84-10.18-16.25-2.45-3.03,2.49-5.98,5.11-9.23,7.31-3.7,2.51-4.04,5.23-1.41,8.75,1.96,2.61,3.77,5.36,5.42,8.18,1.05,1.8,2.7,3.65.87,5.93-2.88-.07-4.7-2.18-6.82-3.64-13.53-9.31-26.99-18.71-40.48-28.08Z"/>
        <path class="cls-11" d="M282.25,530.17c.1-.41.26-.79.47-1.16,6.05-3,12.1-6,18.16-9,7.82,5.01,15.11,10.52,18.48,19.71-17.68,15.27-35.38,30.5-53,45.84-2.01,1.75-4.09,3.28-6.49,4.38-2.02-6.23-4.04-12.46-6.06-18.7-.26-1.11-.23-2.26.44-3.17,9.27-12.68,16.5-26.87,28.01-37.9Z"/>
        <path class="cls-35" d="M386.39,474.93c-.04-1.51.84-2.32,2.09-2.98,22.19-11.68,43.79-24.46,66.38-35.38,3.08,3.96.33,7.87-.15,11.78-.32,2.57-1.01,5.1-1.81,7.57-1.76,3.24.33,5.8,1.44,8.59,1.24,3.12,4.41,5.6,3.29,9.54-16.19,4.31-32.37,8.63-48.56,12.94-2.38.63-4.13-.65-6.01-1.84-5.51-3.48-11.1-6.83-16.66-10.22Z"/>
        <path class="cls-30" d="M274.76,650.38c.63-1.3,1.26-2.59,1.97-4.05,8.1,26.74,16.14,53.24,24.14,79.75.56,1.86.84,3.8,1.25,5.71-.26.35-.47.92-.8,1-11.28,2.6-22.49,3.71-33.34-1.76,2.26-26.88,4.52-53.76,6.79-80.64Z"/>
        <path class="cls-26" d="M450.76,456.75c1.37-6.72,2.74-13.44,4.11-20.17.6-11.79,7.8-18.54,17.53-23.66,3.83-2.02,7.33-4.75,10.72-7.48,3.7-2.97,5.51-2.1,6.76,2.26.71,2.48,2.2,4.75,3.34,7.11,1.17,1.85.78,4.84,3.87,5.28,2.73,4.44,4.11,9.48,6.33,14.14-.71,1.87-1.88,3.3-3.77,4.07-10.77,7.65-23.48,11.44-35.06,17.48-3.07,1.6-6.24,3.21-9.62,4.1-2.44.65-5.03.86-4.2-3.15Z"/>
        <path class="cls-26" d="M221.88,207.67c-2.14-5.84-6.39-10.36-9.72-15.45-1.85-2.83-2.31-4.47.85-6.82,6.84-5.08,13.39-10.56,19.87-16.09,2.48-2.11,3.69-1.83,5.42.86,4.97,7.71,10.23,15.23,15.38,22.83.86,6.64,2.96,13.13,2.44,19.94-5.35,6.81-11.72,11.82-20.88,11.98-4.45-5.75-8.91-11.51-13.36-17.26Z"/>
        <path class="cls-2" d="M144.36,111.29c-3.22-1.78-1.2-3.3.21-4.9,8.31-9.49,16.58-19.01,24.93-28.47,6.76-7.66,13.62-15.25,20.43-22.87,1.17-1.31,2.32-2.64,4.29-2.64,1.55,1.24,1.84,3.01,1.53,4.75-1.82,10.32-3.9,20.58-6.57,30.71-.4,1.52-1.48,2.65-2.58,3.72-.96,5.69-1.98,11.38-2.86,17.09-.34,2.2-.94,4.18-2.75,5.62-12.21-1-24.42-2.01-36.63-3.01Z"/>
        <path class="cls-31" d="M267.98,731.03c11.37.67,22.74,1.34,34.14.76.51.01,1.02.02,1.53.03,0,0-.2.32-.2.32,4.36,5.29,6.02,11.48,6.06,18.22-3.77,4.57-9.41,6.1-14.42,8.48-9.18,4.36-18.15,9.25-27.86,12.47-1.17-.08-2.17-.49-2.83-1.51-2.53-8.64.34-17.13.87-25.67.23-3.62,1.59-7.15,1.56-10.86.38-.75.77-1.49,1.15-2.24Z"/>
        <path class="cls-25" d="M390.44,414.14c4.46-2.37,1.29-5.37.35-7.78-8.16-21.01-16.51-41.93-24.76-62.9-.51-1.28-2.04-2.54-.58-4.15,5.84,5.17,9.18,12.2,13.53,18.46,12.76,18.36,25.3,36.89,37.92,55.35.35.55.39,1.12.14,1.71-.37.49-.82.9-1.32,1.24-2.07,1.13-4.14,2.29-6.2,3.44-1.01.55-2.04,1.05-3.07,1.56-2.05.96-4.07,1.98-6.09,3.02-1.63.74-3.12,1.76-4.77,2.48-1.29.42-2.54.65-3.49-.68-1.69-3.76-1.33-7.8-1.67-11.75Z"/>
        <path class="cls-31" d="M388.89,720.15c9.43-3.2,19.45-3.1,29.1-5.08,2.28-.47,4.28-.67,4.42-3.53,2.79,9.29,8.69,17,12.88,25.58.67,1.48-.15,2.6-1.12,3.42-5.61,4.75-10.79,10.07-17.57,13.26-14.85-5.89-25.81-19.04-27.71-33.65Z"/>
        <path class="cls-63" d="M450.76,456.75c1.17,4.8,3.83,1.34,5.35.66,12.32-5.55,24.52-11.35,36.77-17.04,2.15-1,4.17-2.48,6.76-2.05-3.82,10.28-10.82,18.76-16.02,28.27-.79,1.44-2.33,1.8-3.86,2.16-7.38,1.73-14.75,3.54-22.12,5.32-2.22-4-4.46-7.99-6.67-11.99-.96-1.73-2.08-3.47-.21-5.32Z"/>
        <path class="cls-33" d="M225.75,533.15c3.18,7.48,6.36,14.96,9.54,22.44-8.7,4.56-17.47,8.99-26.06,13.74-3.22,1.78-4.94,1.46-6.53-2-2.64-5.74-5.69-11.29-8.57-16.92-.34-3.5,2.99-4.11,4.68-6.02,1.51-.98,3.03-1.95,4.62-2.81,5.38-1.75,10.31-4.42,15.21-7.21,2.17-1.24,4.33-3.18,7.1-1.22Z"/>
        <path class="cls-43" d="M325.96,505.52c17.92-9.64,35.81-19.34,53.81-28.81,1.46-.77,3.58-4.56,5.6-.29-.47,2.66-.15,5.48-1.52,7.97-4,7.79-11.62,11.98-17.75,17.62-3.07,2.82-5.75,6.69-10.67,6.77-7.61,2.4-15.36,2.23-23.08.95-2.55-.42-5.83-.43-6.39-4.2Z"/>
        <path class="cls-63" d="M282.25,530.17c-8.96,14.05-18.56,27.65-28.44,41.07-5.91-5.24-11.82-10.47-17.72-15.71,14.91-9.32,30.46-17.48,46.16-25.36Z"/>
        <path class="cls-48" d="M416.68,752.92c6.2-5.27,12.41-10.54,18.61-15.82,8.36,7.09,16.72,14.18,25.09,21.27-.07.46-.15.91-.22,1.37-2.08,1.7-4.54,1.32-6.92,1.24-8.53-.29-17.07.25-25.58-.31-5.04-.33-10.16-1.15-10.98-7.76Z"/>
        <path class="cls-63" d="M235.24,224.94c7.51-3.04,13.96-7.92,20.88-11.98.95,10.23-2.19,20.03-3.29,30.04-.58,5.32-.64,10.83-2.96,15.87-4.89-11.3-10.9-22.13-14.63-33.93Z"/>
        <path class="cls-59" d="M469.45,399.97c-10.96,6.96-22.43,13.01-34.17,18.52-4.51-2.13-5.83-6.68-8.02-10.57,3.1-1.69,6.21-3.39,9.31-5.08.75.51.93,1.54,1.79,1.95-.55-.68-.59-1.52-.71-2.34,2.58-1.85,5.11-3.81,8.23-4.71.79.77,1.38,1.69,1.91,2.66-.37-.96-.82-1.9-.8-2.97,2.18-2.08,4.85-3.22,7.67-4.08,1.57.34,2.05,1.94,3.16,2.8-.85-1.17-2.1-2.15-1.64-3.87,2.6-1.37,5.2-2.75,7.81-4.12,3.49,3.17,6.79,6.42,5.46,11.82Z"/>
        <path class="cls-59" d="M507.66,378.84c-10.76,7.34-21.98,13.84-34.16,18.56-4.64-2.07-5.77-6.38-6.85-10.73,2.38-1.76,4.96-3.12,7.85-3.84.84.11,1.39.73,2.04,1.17-.36-.77-.62-1.55-.59-2.41,2.28-1.95,4.85-3.32,7.78-4.01,2.1.48,2.37,2.56,3.36,3.88-.46-1.58-2.33-3.05-.65-5.02,1.69-2.22,4.35-2.82,6.67-3.98,1.85.93,2.14,3.16,3.66,4.37-1.46-1.25-1.78-3.47-3.67-4.37,2.61-2.6,6.06-3.69,9.27-5.19,3.23,3.19,6.89,6.17,5.27,11.57Z"/>
        <path class="cls-59" d="M416.84,414.42c-.06-.44-.04-.87.07-1.3,2.92-1.33,5.84-2.66,8.76-3.99,3.76,3.11,6.88,6.52,5.67,11.99-9.66,5.27-19.3,10.58-29.01,15.77-1.99,1.06-3.96,2.94-6.57,1.38-4.25-2.1-6.07-5.65-6.11-10.27.65-1.33,1.65-2.04,3.18-1.87l2.97-1.17c2.03-1.09,3.01.21,3.87,1.64.3-.14-.09-.24-.04-.36-.53-1.23-1.15-2.42-.01-3.61,2.2-.99,4.41-1.98,6.61-2.96.46-1.12,3.65,3.29,2.45-1.21,2-1.61,3.88-3.42,6.6-3.75,1.12.38,1.77,1.39,2.71,2.02-.58-.67-.95-1.43-1.15-2.29Z"/>
        <path class="cls-30" d="M357.47,508.03c7.89-8.89,17.48-15.88,26.38-23.63-.99,8.27-1.98,16.53-2.98,24.8-6.86.02-13.73.04-20.59.06-.83-.66-2.16-.15-2.81-1.22Z"/>
        <path class="cls-59" d="M225.75,533.15c-5.88,1.65-10.4,6.01-16.06,8.1-1.93.72-3.63,2.6-5.95,1.05-4.6-1.95-5.97-5.66-5.6-10.32,2.61-1.4,5.23-2.8,7.84-4.2.74.78,1.18,1.79,1.91,2.57-.7-.82-1.18-1.79-1.84-2.63,3.09-1.7,6.18-3.41,9.27-5.11.87,1.15,1.59,2.4,2.18,3.71-.54-1.35-1.31-2.56-2.15-3.73,1.68-.87,3.36-1.73,5.03-2.6,1.78,4.38,3.57,8.77,5.36,13.15Z"/>
        <path class="cls-61" d="M266.83,733.26c3.07,8.43-1.06,16.7-.58,25.1.22,3.89-.52,7.83-.82,11.74,1.38,2.53,2.93,5.09-1.13,6.7-2.22-5.34-4.45-10.68-6.67-16.02-1.35-3.46-.57-6.59,1.05-9.83,2.89-5.81,5.46-11.78,8.16-17.68Z"/>
        <path class="cls-42" d="M503.41,434.24c-5.15-3.35-6.2-8.54-6.33-14.14,2.13-1.49,4.4-2.83,6.35-4.52,4.5-3.9,7.37.43,10.04,2.41,3.31,2.45-.54,4.4-1.85,6.18-2.56,3.49-5.46,6.73-8.22,10.07Z"/>
        <path class="cls-14" d="M519.38,373.75c-2.49,1.07-4.72,2.92-7.68,2.56-4.46-2.16-6.2-5.74-5.52-10.59,5.98-5.13,6.89-5.04,10.46,1.48,1.13,2.06,1.84,4.36,2.74,6.55Z"/>
        <path class="cls-14" d="M199.74,544.74c-.28,3.46-4.13,3.38-5.6,5.66-2.18-1.37-2.62-3.92-3.97-5.84-3.95-5.62-1.85-8.63,4.13-10.12,4.51,2,6.79,5.19,5.45,10.3Z"/>
        <path class="cls-12" d="M466.66,386.68c3.84,2.58,4.32,7.31,6.85,10.73-.83,1.68-2.11,2.65-4.06,2.57-1.21-4.22-4.72-7.38-5.46-11.82.89-.49,1.78-.99,2.67-1.48Z"/>
        <path class="cls-12" d="M506.17,365.72c1.84,3.53,3.68,7.06,5.52,10.59-.41,2.34-1.94,2.89-4.03,2.53-.76-4.31-4.88-7.09-5.27-11.57,1.26-.51,2.52-1.03,3.78-1.54Z"/>
        <path class="cls-12" d="M431.34,421.12c-1.89-4-3.78-7.99-5.67-11.99.53-.4,1.06-.8,1.59-1.21,4.85,1.87,5.45,6.97,8.02,10.57-1.31.87-2.62,1.75-3.94,2.62Z"/>
        <path class="cls-28" d="M199.74,544.74c-1.82-3.43-3.63-6.87-5.45-10.3,1.28-.82,2.57-1.64,3.85-2.46,1.86,3.44,3.73,6.88,5.6,10.32-.37,2.39-1.85,2.97-4,2.44Z"/>
        <path class="cls-56" d="M446.99,397.43c2.03,2.26,3.52,4.76,4,8.93-3.54-2.64-4.56-5.49-5.11-8.62.36-.15.73-.25,1.11-.31Z"/>
        <path class="cls-34" d="M486.45,376.44c-.09,2.87,3.06,4.81,2.24,8.58-2.88-2.01-3.5-5.03-4.95-7.43.9-.38,1.8-.77,2.71-1.15Z"/>
        <path class="cls-10" d="M456.18,392.27c1.63,2.44,3.71,4.68,3.94,8.91-3.36-2.39-3.94-5.46-5.46-7.84.51-.36,1.01-.72,1.52-1.07Z"/>
        <path class="cls-51" d="M408.75,241.8c-.92-.42-1.83-.84-2.75-1.25,3.46-1.08,6.8-3.16,10.62-1.28-2.62.84-5.25,1.69-7.87,2.53Z"/>
        <path class="cls-1" d="M475.97,381.6c2.02,1.78,2.96,4.14,4.04,7.87-3.42-1.82-4.13-4.53-5.5-6.63.48-.41.97-.83,1.45-1.24Z"/>
        <path class="cls-57" d="M437.64,402.45c2.04,1.93,3.08,4.36,4.35,8.59-3.29-3.1-4.85-5.31-5.43-8.2.35-.16.71-.29,1.08-.39Z"/>
        <path class="cls-53" d="M507.53,775.52c0-.86,0-1.73,0-2.59,1.16.2,3.08-.46,3.08,1.3s-1.92,1.09-3.08,1.29Z"/>
        <path class="cls-19" d="M418.1,239.23c.88-3.42,2.81-2.96,5.05-1.38-1.68.46-3.37.92-5.05,1.38Z"/>
        <path class="cls-48" d="M186.6,91.6c2.34-11.33,4.69-22.66,6.99-34.01.34-1.7.43-3.45.63-5.18.9-1.27,1.8-2.54,2.7-3.81,1.92-5.71,7.28-2.37,10.72-4.09,13.09-4.48,26.18-8.95,39.27-13.43,1.56-1.9,3.55-3.17,5.86-3.94,16.81-5.63,33.15-12.76,50.8-15.67,5.62-.63,10.51-3.54,15.84-5.03,2.02-.56,4.23-2.8,6.45-.23,4.94,16.37,6.86,33.36,10.13,50.07,1.37,7.02,3.94,13.93,3.27,21.28-24.16,7.47-48.33,14.95-72.49,22.42-8.19,2.15-16.6,3.63-24.12,7.84-18.59-5.73-36.87-12.5-56.04-16.23Z"/>
        <path class="cls-35" d="M334.91,11.56c22.48,15.36,44.96,30.72,67.45,46.08-6.38,3.88-13.77,4.87-20.71,7.09-14.06,4.49-28.25,8.57-42.39,12.83-4.48-7.97-4.36-17.07-6.17-25.68-3-14.2-5.47-28.51-8.17-42.78-.22-1.16,0-2.14.95-2.9,3.02,1.78,6.03,3.57,9.05,5.35Z"/>
        <path class="cls-35" d="M380.08,750.17c-2.18-9.34-1.24-18.37,2.58-27.14.51-.88.14-2.14,1.2-2.79,1.67-.03,3.35-.07,5.02-.1,5.34,14.26,14.27,25.47,27.79,32.77,3.53,4.39,8.02,5.7,13.68,5.7,9.93,0,19.96-1.43,29.8,1.12q.5,9.43-8.95,9.43c-5.9,0-11.86-.56-17.68.11-12.87,1.5-24.01-1.97-33.91-10.12-1.31-1.08-2.95-1.78-4.91-2.93-.77,3.08-1.49,5.75-2.1,8.45-.62,2.76-1.47,4.6-5.11,4.26-3.31-.3-4.52-1.56-4.93-4.68-.63-4.73-1.65-9.4-2.5-14.1Z"/>
        <path class="cls-39" d="M383.87,720.25c.03,1.12-.26,2.09-1.2,2.79-1.03-1.64-2.83-1.29-4.33-1.69,1.67-1.24,3.59-1.23,5.54-1.09Z"/>
        <path class="cls-30" d="M392.84,426.12c-.79.56-1.59,1.11-2.38,1.67-1.07,1.36-1.88,2.96-3.55,3.75-1.95,1.15-3.87,2.37-5.99,3.19-1.57.5-2.99,1.29-4.36,2.2-1.61,1.05-3.29,2-5.01,2.87-1.48.7-2.91,1.5-4.26,2.43-1.62,1.07-3.33,1.99-5.13,2.72-1.02.39-2.01.84-2.94,1.42-2.14,1.25-4.32,2.44-6.52,3.58-1.73.84-3.47,1.67-5.05,2.78-1.64,1.08-3.34,2.03-5.08,2.91-1.5.7-2.97,1.47-4.41,2.28-1.92,1.05-3.77,2.23-5.78,3.11-.76.3-1.44.75-2.15,1.14-2.12,1.24-4.29,2.4-6.46,3.55-.97.52-1.95,1.03-2.91,1.56-1.95,1.06-3.81,2.3-5.91,3.09-2.11.68-3.88,1.98-5.72,3.16-1.92,1.12-3.96,1.99-5.88,3.1-.74.44-1.44.92-2.17,1.37-2.24,1.43-4.6,2.64-6.96,3.84-.76.42-1.54.81-2.32,1.18-2.09.97-4.14,2.02-6.21,3.06-1.71.75-3.35,1.76-5.34,1.58-1.41-.32-2.43-1.15-3.2-2.35-6.97-19.2-11.97-39-17.78-58.55-.56-1.89-.8-3.91.77-5.59,43.43-2.34,86.86-4.68,130.29-7.02,5.27,3.09,1.47,8.01,2.4,11.97Z"/>
        <path class="cls-62" d="M357.47,508.03c.94.41,1.87.82,2.81,1.22-4.86-.6-8.18,2.12-11.5,5.13-9.38,8.48-19.6,16.03-28.2,25.38-.41-.02-.82-.03-1.23-.04-6.16-6.57-12.32-13.14-18.48-19.71,7.78-5.83,16.95-9.26,25.08-14.49,10.24,4.09,20.96,2.24,31.51,2.5Z"/>
        <path class="cls-9" d="M373.7,165.79c-2.53-11.98-4.85-24.01-7.69-35.91-1.2-5.04-.67-7.4,5.15-8.4,10.47-1.8,10.17-2.16,12.92,7.98,3.02,11.13,4.7,22.63,8.92,33.44,2.96,2.67,3.89,5.66,1.42,9.18,1.17,3.53,2.35,7.05,2.49,10.82-5.71,3.59-11.68,5.38-18.3,2.61-.91-2.27-1.81-4.53-2.72-6.8-3.44-3.84-3-8.34-2.2-12.91Z"/>
        <path class="cls-36" d="M336.1,214.43c-2.88-1.51-5.76-3.02-8.56-4.49,14.73-4.48,39.93-1.84,56.3,5.93-3.42,3.47-7.93,1.79-11.93,2.42-6.44,1.03-12.97,1.09-19.49,1.22-6.07.12-11.65-.91-16.32-5.09Z"/>
        <path class="cls-23" d="M373.7,165.79c.73,4.3,1.47,8.61,2.2,12.91-3.09-1.64-6.34-1.21-9.64-.88-16.98,1.67-34.01.98-51.03.86,14.12-3.7,28.69-4.99,42.93-8.01,5.24-1.11,11.47.19,15.54-4.88Z"/>
        <path class="cls-47" d="M336.1,214.43c15.8,4.11,31.76,3.06,47.73,1.44,1.78,1.7.35,2.04-1.01,2.28-10.1,1.77-20.33,3.02-30.27,5.42-8.84,2.13-12.6-3.17-16.45-9.14Z"/>
        <path class="cls-44" d="M394.43,172.07c-.47-3.06-.95-6.12-1.42-9.18,9.25-2.58,18.49-5.15,27.74-7.73-8.09,6.7-16.2,13.37-26.32,16.9Z"/>
        <path class="cls-37" d="M378.62,185.5c6.1-.87,12.2-1.74,18.3-2.61-.41.77-.78,1.57-1.25,2.31q-7.76,12.06-17.05.3Z"/>
        <path class="cls-59" d="M274.45,490.68c1.67-1.41,4.18-2.1,4.21-4.92.82.39,1.64.78,2.46,1.16,2.91,1.25,3.27,1.04,4.14-2.38,2.14-.95,4.28-1.89,6.42-2.84.83.37,1.38,1.03,1.87,1.76-.29-.94-1.08-1.82-.36-2.88,2.55-1.27,5.11-2.54,7.66-3.81.87.54,1.45,1.3,1.71,2.11.07-1.04-.95-2.26-.09-3.51,2.09-1.07,4.17-2.14,6.26-3.22,5.79,1.46,7.14,5.63,6.65,10.92-1.12,2.44-3.54,3.18-5.69,4.1-9.8,4.2-18.37,10.83-28.51,14.33-4.29-2.33-6.14-6.19-6.73-10.83Z"/>
        <path class="cls-59" d="M361.39,443.51c1.75-.92,3.49-1.85,5.24-2.77,2.52-1.25,3.45.56,4.56,2.61-.55-1.84-2.14-3.31-.44-4.97,1.72-.92,3.44-1.85,5.17-2.77,3.91-.73,3.4,3.53,5.24,4.71-.87-2.14-3.88-4.09-1.07-7.11,2.13-.96,4.25-1.93,6.38-2.89,4.11,2.37,6.09,5.79,5.26,10.61-5.14,6.71-13.4,8.55-20.24,12.48-4.26,2.44-7.82,7.5-13.91,5.94-4.1-2.36-6.7-5.5-5.52-10.61,2.25-1.25,4.5-2.49,6.75-3.74,1.21.16,1.7,1.14,2.22,1.96.16-.48-.27-.73-.32-1.11-.22-.93.08-1.68.68-2.33Z"/>
        <path class="cls-59" d="M323.09,464.52c2.25-1.24,4.51-2.47,6.76-3.71.88.28,1.43.94,1.92,1.67-.27-.94-1.04-1.83-.25-2.86,2.05-1.04,4.11-2.09,6.16-3.13,2.83,1.79,3.37-.43,4.08-2.34,1.73-.95,3.46-1.9,5.18-2.85,5.59,1.42,7.66,5.06,6.67,10.62-10.32,8.16-22.03,13.77-34.2,18.51-4.33-2.73-7.77-5.86-5.11-11.66,2.12-.97,4.24-1.94,6.36-2.9.43.1.81.3,1.13.59.64.58,1.03,1.34,1.47,2.06-.2-.75-.69-1.41-.75-2.2-.05-.66.21-1.25.59-1.79Z"/>
        <path class="cls-14" d="M263.95,496.46c2.33-1.29,4.66-2.57,7-3.86,5.02,2.35,6.6,6.52,6.21,11.74-4.43,2.6-8.85,5.2-13.28,7.8-3.95-2.69-7.78-5.51-10.78-9.3,2.54-2.85,5.96-4.17,9.42-5.42,1.19.53,1.46,1.82,2.21,2.71-.59-1.15-1.02-2.34-.77-3.67Z"/>
        <path class="cls-58" d="M314.29,468.76c-.23,4.74,3.64,7.68,5.11,11.66-.74,1.8-2.08,2.69-4.03,2.65-2.2-3.65-3.07-8.11-6.65-10.92,1.37-1.92,3.45-2.7,5.56-3.4Z"/>
        <path class="cls-12" d="M277.15,504.34c-2.07-3.91-4.14-7.83-6.21-11.74,1.17-.64,2.34-1.28,3.51-1.91,3.16,3.04,4.53,7.19,6.73,10.83-.75,1.79-2.25,2.52-4.03,2.82Z"/>
        <path class="cls-12" d="M391.73,440.92c-1.75-3.54-3.51-7.07-5.26-10.61,1.33-.84,2.66-1.68,4-2.53,1.77,3.49,3.54,6.98,5.31,10.47-.23,2.59-1.18,4.07-4.04,2.66Z"/>
        <path class="cls-12" d="M353.61,461.91c-1.79-3.81-3.12-7.91-6.67-10.62,1.42-1.41,3.13-2.28,5.11-2.57,1.84,3.54,3.68,7.07,5.52,10.61-.25,2.51-1.91,2.85-3.97,2.57Z"/>
        <path class="cls-52" d="M264.29,776.8c1.74-2,.81-4.45,1.13-6.7.82.04,1.63.08,2.45.12,15.86-4.65,32.06-2,48.12-2.16,2.46-.03,4.58,1.34,5.96,3.54q.39,9.03-8.19,9.03c-14.4,0-28.81-.03-43.21.03-2.99.01-5.81.1-6.26-3.85Z"/>
        <path class="cls-48" d="M321.96,771.59c-2.59-1.53-5.46-1.28-8.29-1.28-15.26-.03-30.53-.06-45.79-.09,13.03-7.84,27.15-13.41,40.88-19.8,1.17,1.44,2.34,2.88,3.5,4.32,2.46,6.06,7.95,10.38,9.69,16.85Z"/>
        <path class="cls-26" d="M356.2,135.45c3.05,5.95,2.98,12.69,4.83,18.94.65,2.2-.3,3.25-2.44,3.62-14.61,2.51-29.2,5.06-43.82,7.5-.63.11-1.42-.74-2.13-1.14.77-9.66,5.77-17.75,9.77-26.21.66-1.39,1.94-2.65,3.46-2.84,10.1-1.26,20.23-2.17,30.32.13Z"/>
        <path class="cls-49" d="M415.37,111.84c2.32-.58,4.62-1.21,6.95-1.73q10.5-2.35,12.48,8.27c.91,4.92,1.52,9.91,2.66,14.78.8,3.41-.59,4.8-3.57,5.6-3.99,1.07-7.94,2.28-11.9,3.43-.21-.03-.5.02-.63-.1-4.52-4.28-8.46-24.3-5.98-30.25Z"/>
        <path class="cls-23" d="M356.2,135.45c-8.21,2.02-16.58,1.22-24.85,1-5.15-.14-7.46,1.97-9.15,6.39-2.8,7.33-5.59,14.7-9.55,21.53-2.49-7.93-2.33-16.27-3.83-24.36-.52-2.8.58-4.33,3.62-4.99,12.75-2.75,25.37-6.15,38.19-8.49,7.34-1.34,4.91,5.15,5.58,8.91Z"/>
        <path class="cls-29" d="M415.37,111.84c1.22,10.33,3.62,20.41,6.61,30.36-6.56,2.17-13.16,4.2-19.64,6.56-2.85,1.04-3.87.16-4.5-2.52-1.48-6.31-3.13-12.58-4.71-18.87,4.37-7.83,12.47-10.61,19.7-14.56.85-.32,1.69-.65,2.54-.97Z"/>
        <path class="cls-4" d="M327.35,119.36c-5.64-3.5-11.28-6.99-16.93-10.49,14.17,1.15,28.39.21,42.12,4.02-8.04,3.55-16.71,4.64-25.19,6.46Z"/>
        <path class="cls-20" d="M412.83,112.8c-6.57,4.85-13.13,9.71-19.7,14.56-3.22-8.85-3.25-8.94,5.76-11.41,4.59-1.26,9.29-2.11,13.94-3.15Z"/>
        <path class="cls-40" d="M403.7,84.5c-8.85,4.8-16.86,9.38-26.12,13.03,8.26-14.99,12.77-17.29,26.12-13.03Z"/>
        <path class="cls-37" d="M243.08,199.12c-6.81-1.83-12.42-3.34-17.96-4.83,0-.75-.18-1.31.03-1.57,2.39-3.05,5.82-8.55,8.08-7.52,4.68,2.13,6.81,7.87,9.85,13.92Z"/>
        <path class="cls-34" d="M416.84,414.42c2.74,1.43,3.01,4.34,4.28,6.7-4.01-.43-3.88-4.33-5.84-6.43.52-.09,1.04-.18,1.56-.27Z"/>
        <path class="cls-60" d="M408.68,418.44c1.15,2.32,2.3,4.64,4.09,8.26-4.43-1.6-4.52-5.24-6.54-7.05.82-.41,1.63-.81,2.45-1.21Z"/>
        <path class="cls-18" d="M399.49,427.96c-1.2-1.03-1.72-2.91-3.69-3.01,1.27-.78,2.55-1.56,3.82-2.33.41,1.28.83,2.56,1.25,3.84-.38.58-.51,1.38-1.38,1.5Z"/>
        <path class="cls-50" d="M210.99,558.25c-3.08-.12-4.91-1.37-4.79-4.33.11-2.74,1.82-4.59,4.47-4.61,2.69-.02,4.36,1.95,4.51,4.61.17,2.94-1.7,4.22-4.19,4.33Z"/>
        <path class="cls-57" d="M493.11,372.46c3.53.79,4.26,3.66,4.02,7.23-1.34-2.41-2.68-4.82-4.01-7.23,0,0,0,0,0,0Z"/>
        <path class="cls-16" d="M399.49,427.96c.46-.5.92-1,1.38-1.5.66,1.46,1.32,2.91,2.08,4.58-2.91.33-2.9-1.65-3.46-3.08Z"/>
        <path class="cls-7" d="M206.05,527.73c2.88,1.44,4.34,3.83,5.14,8.76-3.44-3.13-4.57-5.75-5.2-8.7,0,0,.06-.06.06-.06Z"/>
        <path class="cls-5" d="M215.36,522.6c3.02,1.45,3.37,4.41,4.14,7.14-2.53-1.72-3.81-4.16-4.17-7.12,0,0,.03-.02.03-.02Z"/>
        <path class="cls-10" d="M370.75,438.37c.96,2.75,1.92,5.5,3.1,8.85-4.15-.75-3.45-6.23-7.22-6.48,1.37-.79,2.75-1.58,4.12-2.37Z"/>
        <path class="cls-22" d="M380.08,433.2c-.89,3.35,2.47,5.73,2.39,9.3-3.49-1.5-3.46-5.68-6.55-6.9,1.39-.8,2.78-1.6,4.17-2.4Z"/>
        <path class="cls-55" d="M323.09,464.52c1.11,2.69,2.22,5.38,3.78,9.15-4.43-1.84-4.62-5.38-6.22-7.81.81-.45,1.62-.89,2.44-1.34Z"/>
        <path class="cls-38" d="M341.76,454.15c-.8,3.1,2.24,5.39,2.18,8.95-3.52-1.42-3.33-5.52-6.25-6.61,1.36-.78,2.72-1.56,4.08-2.34Z"/>
        <path class="cls-27" d="M285.26,484.55c-.89,3.02,1.97,5.11,2.09,8.42-3.42-.94-3.42-5.05-6.23-6.03,1.38-.8,2.76-1.59,4.14-2.38Z"/>
        <path class="cls-3" d="M302.47,475.38c1.15,2.65,2.31,5.3,4.17,9.57-4.13-2.75-5-5.43-5.78-8.18.54-.46,1.08-.93,1.62-1.39Z"/>
        <path class="cls-7" d="M293.19,480.58c1.29,2.54,2.57,5.09,3.86,7.63-3.44-1.14-4.09-4.04-5.37-6.51.5-.37,1.01-.75,1.51-1.12Z"/>
        <path class="cls-13" d="M331.52,459.62c.63,2.75,3.42,4.56,3.43,8.57-3.14-2.03-3.65-5.07-5.1-7.39.56-.4,1.11-.79,1.67-1.19Z"/>
        <path class="cls-17" d="M361.39,443.51c.05.86.09,1.71.14,2.57.62,1.43-.11,1.61-1.28,1.38-.48-.82-.96-1.65-1.44-2.47.57-1.01,1.46-1.45,2.58-1.48Z"/>
        <path class="cls-21" d="M263.95,496.46c1.35,2.52,2.69,5.05,4.04,7.57-3.75-1.04-4.78-3.72-5.48-6.61.48-.32.96-.64,1.44-.96Z"/>
        <path class="cls-45" d="M360.25,447.46c.43-.46.85-.92,1.28-1.38,1.29,1.6,2.86,3.09,2.2,5.64-1.96-.91-2.59-2.69-3.48-4.26Z"/>
        <path class="cls-46" d="M339.12,139c4.5.33,7.18,2.85,7.21,7.05.03,4.53-2.9,7.51-7.46,7.3-4.13-.19-6.8-2.93-6.7-7.35.1-4.43,2.75-6.62,6.95-6.99Z"/>
        <path class="cls-32" d="M413.25,129.8c-.62,3.99-2.5,6.92-7.08,6.75-4.63-.17-7.38-2.95-7.27-7.44.1-4.15,2.83-6.92,7.13-6.9,4.64.02,6.97,2.87,7.23,7.59Z"/>
      </g>
    </g>
  </g>
</svg>