<?xml version="1.0" encoding="UTF-8"?>
<svg xmlns="http://www.w3.org/2000/svg" version="1.1" viewBox="0 0 636.44 800">
  <defs>
    <style>
      .cls-1 {
        fill: #84c7ca;
      }

      .cls-2 {
        fill: #8f8f8f;
      }

      .cls-3 {
        fill: #e2c9b7;
      }

      .cls-4 {
        fill: #8e8e8e;
      }

      .cls-5 {
        fill: #747475;
      }

      .cls-6 {
        fill: #549cb5;
      }

      .cls-7 {
        fill: #3e7789;
      }

      .cls-8 {
        fill: #3d7789;
      }

      .cls-9 {
        fill: #bb987f;
      }

      .cls-10 {
        fill: #dcdcdb;
      }

      .cls-11 {
        fill: #c8d5da;
      }

      .cls-12 {
        fill: #d9bca6;
      }

      .cls-13 {
        fill: #9c9fa0;
      }

      .cls-14 {
        fill: #c3c3c3;
      }

      .cls-15 {
        fill: #d8bca6;
      }

      .cls-16 {
        fill: #387477;
      }

      .cls-17 {
        fill: #bc977e;
      }

      .cls-18 {
        fill: #bb987e;
      }

      .cls-19 {
        fill: #464646;
      }

      .cls-20 {
        fill: #866855;
      }

      .cls-21 {
        fill: #876956;
      }

      .cls-22 {
        fill: #ba977e;
      }

      .cls-23 {
        fill: #31302f;
      }

      .cls-24 {
        fill: #9d9fa0;
      }

      .cls-25 {
        fill: #4a8ca2;
      }

      .cls-26 {
        fill: #4f5252;
      }

      .cls-27 {
        fill: #6e7073;
      }

      .cls-28 {
        fill: #4f9093;
      }

      .cls-29 {
        fill: #2d2d2d;
      }

      .cls-30 {
        fill: #737373;
      }

      .cls-31 {
        fill: #47879c;
      }

      .cls-32 {
        fill: #856754;
      }

      .cls-33 {
        fill: #3f788a;
      }
    </style>
  </defs>
  <!-- Generator: Adobe Illustrator 28.7.1, SVG Export Plug-In . SVG Version: 1.2.0 Build 142)  -->
  <g>
    <g id="Layer_1">
      <g>
        <path class="cls-12" d="M372.35,142.08c1.4,18.97,4.74,37.69,7.39,56.5,1.55,11.03,2.78,22.11,4.72,33.06.94,5.3-1.47,6.64-5.78,7.55-22.87,4.79-45.71,9.7-68.56,14.58-2.14.46-4.26.96-6.39,1.45-3.06,3.38-7.42,3.34-11.38,4.09-6.16,1.16-12.19,3.15-18.55,3.1-4.77.06-7.07-2.65-8.07-7.02-6.17-26.91-13.18-53.62-19.47-80.5-.66-2.8-1.02-5.63.47-8.34,2.16-2.84,5.24-3.19,8.46-3.18,11.32.08,22.57-1.3,33.67-3.11,8.71-1.42,15.94-.38,21.79,6.54,1.25.49,2.55.91,3.64,1.74.16.13.35.25.47.43,6.62,9.14,9.13,8.85,14.15-1.65,1.38-3.24-.28-6.9,1.38-10.1,11.87-5.76,24.34-10.13,36.4-15.45,1.92-.51,3.89-1.6,5.67.33Z"/>
        <path class="cls-12" d="M348.76,19.55c3.28,17.36,6.54,34.73,9.84,52.09.61,3.21,1.38,6.4,2.07,9.6-1.14,3.26-4.13,3.74-6.87,4.27-12.04,2.33-24.04,4.89-36.14,6.93-6.82.92-13.43,2.95-20.23,3.96-18.24,3.67-36.48,7.3-54.72,10.95-3.2.64-6.45,1.54-9.6-.26-1.82-1.46-2.35-3.62-2.96-5.7-5.05-17.14-10.27-34.24-15.08-51.45-.79-2.82-2.35-5.78-.27-8.77,2.13-1.55,4.55-1.53,6.95-1.11,9.71,1.7,19.54,2.63,29.22,4.53,26.84-7.87,53.7-15.7,80.64-23.24,5.57-1.56,11.25-2.97,17.15-1.81Z"/>
        <path class="cls-1" d="M123.94,505.18c-1.34-12.15,1.08-24.15,1.6-36.22.66-15.26,2.36-30.47,3.51-45.7,1.79-23.51,3.56-47.03,5.17-70.56.2-2.91,1.71-4.16,3.91-5.43,15.35-8.81,30.66-17.71,45.98-26.57,1.64-.2,2.1.88,2.35,2.18.59,13.51.59,27.01.06,40.52.6,29.32.67,58.63.02,87.93-.52,3.78-3.18,6.12-5.87,8.4-16.69,14.2-33.83,27.88-50.31,42.32-1.92,1.68-4.35,1.97-6.43,3.13Z"/>
        <path class="cls-4" d="M187.31,585.64c-11.21-1.78-22.4-3.66-33.62-5.3-7.73-1.13-8.32-1.85-7.01-9.58,2.01-11.81,3.91-23.64,5.86-35.47,4.37,1.66,8.93,1.68,13.53,1.78,28.36.66,56.67,2.44,85.01,3.53,16.56.63,33.11,1.66,49.68,1.92,1.75.02,3.13.76,4.16,2.16,1.72,3.07,1.13,6.31.59,9.53-1.68,10.05-3.24,20.12-4.78,30.19-.69,4.23-1.08,8.52-2.07,12.7-.89,3.76-2.76,6.28-7.07,5.92-2.59-.35-5.11-1.23-7.78-.96-15.69-1.35-31.17-4.19-46.73-6.46-13.63-1.99-27.24-4.18-40.87-6.26-3.26-.5-6.51-1.05-8.89-3.69Z"/>
        <path class="cls-17" d="M247.38,166.77c1.94,14.98,6.6,29.36,9.81,44.06,3.12,14.28,6.77,28.45,10.29,42.64.84,3.4.8,7.89,6.43,7.05-.7,3.59-3.9,2.8-6.2,3.5-2.65.81-5.57.61-8.76,2.11,7.93,11.77,15.53,23.22,22.99,34.76,1.58,2.45,4.36,4.66,2.42,8.2-3.25,1.54-6-.2-8.69-1.51-18.71-9.09-37.01-19.01-56.09-27.34-2.65-1.16-5.06-2.65-6.22-5.52-6.02-12.72-11.08-25.91-18.6-37.89.09-.31.18-.61.26-.92,5.28-14.22,11.4-28.12,16.05-42.57-.95-5.52-5.23-9.99-4.95-15.88,1.74-3.49,5.54-3.85,8.49-5.45,3.06-1.66,3.85-3.65,2.32-6.85-1.84-3.85-4.47-7.44-4.38-12.02.16-.68.49-1.24,1-1.7,7.76-3.85,16.08-6.15,24.24-8.88,1.65-.55,3.39-.73,4.95.45,3.39,7.56,5.33,15.4,4.63,23.76Z"/>
        <path class="cls-11" d="M326.04,758.36c15.32-.4,30.43,2.14,45.64,3.24,12.39.89,24.76,2.09,37.15,3.1,21.51,1.74,43,3.78,64.54,4.99,8.72.49,17.31,2.67,26.15,1.79-5.96,3.14-12.6,2.8-18.9,3.6-20.31,2.59-40.65,4.81-60.93,7.71-20.05,2.87-40.26,4.61-60.38,7.01-12.11,1.44-24.21,3-36.26,4.88-6.46,1.01-12.69-.61-18.87-1.31-27.49-3.11-54.98-6.23-82.5-9.03-25.57-2.6-51.05-6.03-76.58-8.95-10.52-1.2-21.08-2.04-31.87-3.07,1.29-2.2,3.09-2.18,4.81-2.29,21.34-1.34,42.71-2.25,64-4.17,10.78-.97,21.76-.78,32.32-3.8,2.5,2.15.76,4.9,1.05,7.36.08,4.62,2.82,6.4,7.03,6.91,7.18.87,14.39.37,21.58.52,9.15.19,18.38-.78,27.42,1.09,6.73,1.39,10.63-1.46,12.97-7.42,6.8-2.28,13.8-.78,20.7-1.1,5-.23,10.01-.03,15-.06,4.56.18,6.05-2.32,5.58-6.5-.2-1.52-.68-3.06.35-4.48Z"/>
        <path class="cls-28" d="M123.94,505.18c20.19-17.11,40.38-34.22,60.57-51.33,2.49-2.03,5.04-.85,7.48,0,18.02,6.26,35.85,13.04,53.92,19.13,2.71.91,5.31,2.17,6.68,4.98.99,2.59.45,5.18-.05,7.75-2.04,10.5-4.53,20.9-6.55,31.4-.54,2.79-1.21,5.58-3.66,7.46-2.86,1.64-5.89,1.17-8.92.74-23.93-3.35-47.7-7.69-71.63-10.99-2.14-.3-4.37-.5-5.81-2.49-8.02-3.43-16.82-3.02-25.13-5.04-2.29-.56-4.6-1.07-6.9-1.61Z"/>
        <path class="cls-1" d="M473.91,409.17c-22.46,17.42-45.01,34.73-67.32,52.34-4.42,3.49-7.02,3.69-11.08-.72-11.27-12.21-23.13-23.87-34.76-35.75-.35-.57-.41-1.18-.24-1.82,3.47-5.06,9.19-7.07,14.03-10.26,8.69-5.73,17.79-10.82,26.43-16.65,2.13-1.44,4.33-2.97,7.11-2.94,10.37-4.72,19.2-11.95,28.87-17.81,3.91-2.37,7.44-5.37,11.78-7.03,2.77.87,3.89,3.39,5.34,5.51,6.28,9.19,11.89,18.82,18.19,28.01,1.42,2.08,3.4,4.22,1.66,7.13Z"/>
        <path class="cls-26" d="M290.99,601.29c3.46.65,4.79-.6,5.51-4.27.82-4.22.3-8.72,2.33-12.71,1.91-3.79,5.66-5.35,9.04-7.28,18.75-10.69,36.76-22.63,56.78-33.15-3.54,1.16-6.12,2.46-6.43-1.99,6.66-3,9.05-2.36,10.55,2.81-13.35,33.8-26.71,67.6-40.06,101.4-1.95,2.16-4.26,3.6-7.17,4.24-12.56,2.73-25.08,5.68-37.57,8.73-2.34.57-4.71,1.01-7.05-.1-.67-.41-1.16-.97-1.48-1.68-.95-2.84-.24-5.66.22-8.45,2.24-13.62,4.42-27.25,6.86-40.83.83-4.62,2.19-8.87,8.48-6.71Z"/>
        <path class="cls-28" d="M368.76,544.7c-3.13-4.6-7.08-2.29-10.88-1.3-1.46,1.97-3.66,2.41-5.83,2.4-13.08-.06-26.13.63-39.18,1.43-1.95.12-3.92-.12-5.78-.8-.66-.26-1.26-.67-1.76-1.18-1.26-2.89,1.27-4.1,2.85-5.12,6.44-4.14,9.86-10.27,12.51-17.14,2.04-5.3,4.06-10.63,6.54-15.74,1.52-3.15.92-5.29-2.2-7.04-4.38-2.45-8.62-5.16-12.64-8.2-.71-.71-1.18-1.55-1.4-2.53-.2-3.32.51-6.49,1.65-9.58.21-.95.61-1.83,1.14-2.64,13.06-16.88,27.29-32.8,40.64-49.44,1.47-1.83,2.73-4.03,5.39-4.48.29.11.59.21.88.32.02.46.04.92.06,1.37,1.49,20.11,2.91,40.22,4.49,60.32,1.42,18.14,3.02,36.26,4.5,54.4.14,1.7.59,3.54-.98,4.94Z"/>
        <path class="cls-26" d="M220.4,734.35c-5.52-25.31-11.05-50.61-16.57-75.92-1.05-4.54,2.29-4.73,5.09-4.65,20.32.58,40.67.19,60.96,1.82,2.46.2,4.77.67,6.6,2.48l-.04-.04c1.82,1.97,1.79,4.35,1.42,6.77-2.85,18.52-5.6,37.05-8.55,55.55-.35,2.17-1.05,4.22-2.09,6.16-.62,1.03-1.46,1.82-2.5,2.42-12.75,3.71-25.96,4.95-39,7.11-1.93.32-3.93.08-5.31-1.71Z"/>
        <path class="cls-10" d="M136.81,182.7c-3.16-4.95-.11-9.92.47-14.65,2.98-24.21,7.2-48.27,9.05-72.64.06-.79.71-1.54,1.09-2.31,4.71,1.4,8.45-1.12,12.29-3.1,13.16-6.79,26.52-13.18,39.78-19.75,5.89-2.92,6.86-2.41,9.3,3.19.1,18.36-2.54,36.51-4.17,54.72-.38,4.22-3.62,6.29-6.58,8.46-14.95,10.95-29.22,22.78-44.05,33.87-5.93,3.78-10.26,9.82-17.18,12.2Z"/>
        <path class="cls-27" d="M276.48,658.08c-20.86-.02-41.68-2.33-62.54-1.22-3.3.18-7.68-4.51-10.11,1.57-3.49-15.44-6.99-30.89-10.48-46.33,1.59-2.22,4.07-2.4,6.42-2.68,24.64-3.02,49.12-7.33,73.91-9.08,3.47-.25,6.9,1.39,10.34,0,2.38-.08,4.85-.87,6.97.96-5.07-.77-5.67,3.01-6.26,6.43-2.39,13.97-4.64,27.97-6.93,41.96-.46,2.79-.88,5.6-1.32,8.39Z"/>
        <path class="cls-28" d="M408.07,393.37c-10.9,8.82-23.45,15.09-35.09,22.77-4.01,2.64-8.19,5.03-12.3,7.54,0,0-.3-.23-.3-.23-2.33-1.74-2.93-4.31-3.16-6.95-3.04-35.96-6.52-71.89-9.15-107.89.14-1.24.4-2.39,2.05-2.27,19.31,29.01,38.63,58.02,57.94,87.03Z"/>
        <path class="cls-25" d="M317.27,90.61c12.81-2.62,25.62-5.23,38.42-7.89,1.69-.35,3.33-.98,4.99-1.49,4.65.2,9.04-1.2,13.48-2.2,3.05-.68,4.7-.19,5.35,3.43,3.13,17.34,6.52,34.64,9.86,51.94.59,3.05-.64,4.31-3.63,4.81-4.5.75-8.93,1.89-13.39,2.87-1.7.39-3.4.78-5.09,1.17-9.58,2.63-18.93,6.14-28.81,7.63-3.2.48-6.42,1.44-9.51-.44-2.62-2.39-3-5.74-3.66-8.93-2.5-11.99-4.76-24.03-6.98-36.08-.36-4.94-3.15-9.72-1.03-14.84Z"/>
        <path class="cls-14" d="M185.61,322c-.5-.43-.99-.87-1.49-1.31,7.53-5.67,15.06-11.34,22.59-17.01,3.71-2.28,6.74.05,9.82,1.54,18.12,8.78,36.26,17.53,54.5,26.05,7.45,4.2,15.83,6.71,22.56,12.26.36.56.56,1.17.62,1.83-2.81,8.65-8.95,15.34-13.6,22.9-.92,1.5-2.51,2.39-4.35,2.63-9.82-2.14-17.85-8.13-26.52-12.64-19.23-10.01-38.28-20.36-57.44-30.5-2.63-1.39-5.89-2.18-6.68-5.76Z"/>
        <path class="cls-27" d="M265.97,726.58c3.49-22.85,6.98-45.7,10.46-68.54,8.57-.52,16.56-3.77,24.91-5.39,9.19-1.78,18.24-4.33,27.35-6.54-10.52,25.55-21.04,51.1-31.56,76.64-.47,1.66-1.73,2.53-3.26,2.88-7.86,1.83-15.88,2.45-23.91,2.83-1.53.07-2.98-.57-4-1.88Z"/>
        <path class="cls-27" d="M155.96,511.83c15.04.4,29.63,4.13,44.47,6.05,13.98,1.81,27.74,5.22,41.88,5.87,5.7-2.19,11.1.61,16.64,1.02,12.61,3.56,24.3,9.51,36.47,14.21,2.38.92,4.93,1.94,5.94,4.72-5.26,2.3-10.85,1.4-16.09.74-5.24-.66-10.43-.76-15.66-.94-25.74-.89-51.51-1.24-77.2-2.93-11.37-.75-22.69-.71-34.03-1.01-3.13-.08-5.77-.23-5.84-4.25,1.14-7.82,2.28-15.64,3.42-23.46Z"/>
        <path class="cls-6" d="M220.4,734.35c12.56-1.96,25.12-3.93,37.68-5.86,2.13-.33,4.28-.5,6.42-.75,4.67-.24,5.42,3.68,6.74,6.68,4.28,9.7,8.35,19.5,12.71,29.17,1.71,3.47,4.83,3.99,8.23,4.03,7.59.1,15.19-.18,22.78.16,2.76.12,6.35-.81,7.48,3.32-12.6.09-25.19.18-37.79.26-1.2.53-2.39,1.15-3.73,1.15-20.74.04-41.49.5-62.19-1.5-2.01-.19-3.85-.76-5.31-2.26.31-2.23.62-4.47.93-6.7,2.01-9.23,4.03-18.47,6.04-27.7Z"/>
        <path class="cls-10" d="M348.76,19.55c-14.26,2.16-27.76,7.2-41.58,11.01-18.66,5.15-37.15,10.93-55.71,16.44-2.14-1.9-3.87-4.1-5.02-6.75-4.16-9.57-8.92-18.87-12.93-28.5-.9-2.15-2.31-4.34-.59-6.75,14.64,1.72,29.27,3.44,43.91,5.18,16.57,1.97,33.17,3.78,49.71,6.04,7.41,1.01,15.06.58,22.21,3.32Z"/>
        <path class="cls-10" d="M271.11,332.78c-2.56.25-4.64-1.06-6.8-2.11-16.93-8.26-33.87-16.5-50.8-24.77-2.17-1.06-4.29-2.23-6.8-2.21,2.84-9.51,5.15-19.15,6.66-28.97,23.82,11.15,46.94,23.74,71.1,34.19.22.24.43.48.65.72.27.59.43,1.21.47,1.85-3.5,7.99-6.68,16.22-14.47,21.3Z"/>
        <path class="cls-14" d="M206.88,72.18c-1.28-4.53-3.8-1.5-5.5-.66-14.72,7.22-29.36,14.62-44.04,21.91-2.15,1.07-4.41,1.89-6.65,2.77-3.24,1.27-3.04-1.14-3.26-3.09,1.63-13.34,3.32-26.66,4.83-40.01.42-3.68,2.15-5.82,5.52-7.26,6.8-2.9,13.47-6.1,20.19-9.17,5.57,2.12,8.72,7.13,12.9,10.89,5.87,5.28,10.4,11.79,15.85,17.47,1.86,1.94,4.59,4.69.16,7.15Z"/>
        <path class="cls-17" d="M206.88,72.18c2.5-3.1-.26-4.68-1.94-6.49-8.97-9.69-17.98-19.35-26.97-29.03.35-.13.71-.23,1.07-.3,10.95-2.15,21.41,1.24,32.03,2.83,1.49.22,2.77,1.19,3.55,2.62,6.57,21.47,13.51,42.83,18.63,64.72.4,2-.74,3.38-2.12,4.43-7.9,6.04-15.6,12.35-23.7,18.12-1.37.97-2.91,1.99-4.78,1.02,1.41-19.3,2.82-38.61,4.23-57.91Z"/>
        <path class="cls-14" d="M350.12,306.34c-.39.51-.78,1.02-1.16,1.53.11,3.23-1.45,5.88-3.1,8.45-7.3,11.4-14.03,23.16-21.1,34.7-1.57,2.57-2.82,5.52-6.18,6.4-9.03-2.92-18.01-5.97-25.05-12.81l.06.13c-1.28-2.92.63-5.04,1.91-7.26,3.3-5.68,6.8-11.24,9.99-16.98,4.1-5.85,7.95-11.86,11.54-18.04,1.32-2.27,2.67-4.49,5.49-5.16,9.2,3.01,18.39,6.03,27.59,9.04Z"/>
        <path class="cls-32" d="M284.46,308.92c-8.57-13.15-17-26.4-25.78-39.41-3.22-4.76-2-6.07,3.2-6.6,4.04-.41,8.23-.54,12.03-2.39,9.94-1.77,19.87-3.54,29.81-5.31.06,9.08.12,18.16.17,27.23-.23,6.13-4.75,10.09-7.61,14.87-1.9,3.18-3.95,6.29-6.23,9.22-1.41,1.8-2.68,4.31-5.77,2.72l.17-.34Z"/>
        <path class="cls-25" d="M281.64,763.45c-3.98-9.21-7.92-18.43-11.95-27.61-1.3-2.96-2.03-6.33-5.2-8.11.49-.39.98-.77,1.47-1.16,10.47-.58,20.89-1.64,31.16-3.83,9.25,12.18,18.76,24.16,28.91,35.62.54,1.25,1.08,2.49,1.62,3.74-1.86,1.89-4.23,2.31-6.68,2.01-13.09-1.64-26.22-.71-39.34-.66Z"/>
        <path class="cls-14" d="M214.61,41.81c-11.86-1.82-23.72-3.63-35.58-5.45,17.64-11.02,35.51-21.65,53.9-31.36,5.28,11.78,10.56,23.55,15.82,35.34.98,2.19,1.82,4.44,2.72,6.66-12.26-1.9-24.45-4.33-36.86-5.19Z"/>
        <path class="cls-19" d="M284.02,600.33c-11.68,2.67-23.65,3.34-35.47,4.99-15.12,2.1-30.27,3.95-45.42,5.86-3.25.41-6.52.62-9.78.92-2.88-8.62-4.16-17.61-6.04-26.47,24.5,3.73,48.99,7.45,73.49,11.18,7.74,1.18,15.48,2.35,23.22,3.52Z"/>
        <path class="cls-13" d="M136.81,182.7c4.46-5.46,10.39-9.14,15.97-13.24,5.29,1.4,4.91,6.63,6.76,10.29,1.14,2.25,1.41,4.9,1.34,6.35-.49-4.29-1.93-9.89,1.61-14.9,4.04-1.73,4.75,2.01,6.05,4.06,6.26,9.92,12.07,20.11,18.38,30.01,2.12,7.6,4.88,14.97,7.62,22.35,1.05,2.84,2.54,5.68.86,8.81-.21.14-.42.28-.63.42-19.32-18.04-38.64-36.09-57.96-54.13Z"/>
        <path class="cls-17" d="M511.99,348.54q13.14,3.98,8.12,16.99c-4.78,12.34-9.59,24.66-14.39,36.99-6.16-1.74-12.33-2.59-18.52-.13-.11-1.24-.22-2.48-.33-3.73-.45-.62-.7-1.31-.75-2.07.56-8.03.3-16.15,2.57-23.99,1.47-1.97,3.71-2.05,5.86-2.43,6.57-1.17,6.79-1.55,5.1-8.18-.87-3.39-2.03-6.71-2.82-10.12-.58-2.54-1.4-5.14.41-7.58,5.92-2.07,10.61.15,14.76,4.24Z"/>
        <path class="cls-26" d="M511.99,348.54c-4.83-1.3-9.67-2.59-14.5-3.89-3.09-1.32-3.73-3.69-2.85-6.71,2.52-17.5,3.35-35.22,6.75-52.61,6.25-2.44,12.12-2.43,17.21,2.66-2.2,20.18-4.4,40.36-6.6,60.54Z"/>
        <path class="cls-12" d="M494.63,337.95c.95,2.24,1.9,4.47,2.85,6.71,1.68,6.5,2.82,13.2,5.18,19.44,2.36,6.24-.39,7.81-5.61,8.11-2.38.14-4.78-.03-7.16-.06-3.34-1.53-3.61-4.37-3.68-6.66-2.86,4.99-3.76,12.27-9.82,16.48-7.09-6.15-13.61-12.67-14.37-22.82,10.87-7.07,21.74-14.14,32.62-21.2Z"/>
        <path class="cls-10" d="M462.02,359.15c3.69,8.18,9.47,15.01,14.46,22.34,5.95,3.59,9.76,8.65,10.75,15.64-.12.51-.24,1.02-.37,1.53-4.32,3.5-8.64,7-12.96,10.5-6.98-11.1-13.97-22.2-20.92-33.32-1.5-2.4-2.85-4.89-4.27-7.33,4.43-3.12,8.87-6.25,13.3-9.37Z"/>
        <path class="cls-10" d="M284.3,309.25c3.73-.79,4.52-4.38,6.3-6.91,4.58-6.53,8.89-13.25,13.3-19.89,5.42,5.94,12.55,9.74,18.64,14.85-5.47,7.66-9,16.6-15.52,23.57-2.46,1.65-4.57.1-6.59-.91-5.55-2.79-11.29-5.27-16.04-9.43-.03-.42-.06-.84-.09-1.27Z"/>
        <path class="cls-26" d="M487.2,402.4c3.1-5.19,13.88-5.11,18.52.14-.1,1.08-.2,2.16-.29,3.25-1.14,14.56-1.13,14.45-15.61,12.59-3.37-.43-4.57-1.62-3.99-4.98.62-3.63.93-7.32,1.37-10.99Z"/>
        <path class="cls-2" d="M518.59,288c-5.57-1.99-11.52-1.46-17.21-2.66,2.39-8.67,6.88-16.49,10.06-24.84.27-.71.88-1.3,2.1-3.05,1.77,10.97,4.46,20.57,5.05,30.56Z"/>
        <path class="cls-31" d="M163.32,170.82c-.56,5.64-1.13,11.29-1.83,18.36-3.22-7.29-5.96-13.5-8.7-19.71,12.71-9.98,25.43-19.95,38.12-29.95,3.94-3.1,7.83-6.28,11.74-9.42,10.6-7.33,20.75-15.24,30.6-23.56,19.69-3.78,39.39-7.58,59.08-11.34,1.7-.32,3.44-.43,5.17-.63,3.55,4.18,3.22,9.56,4.5,14.44,2.74,12.52,4.71,25.19,7.08,37.79.44,2.35.83,4.73-.34,7.02-2.19,2.87-5.53,3.21-8.68,3.93-14.79,3.33-29.83,5.18-44.75,7.75-2.72-.09-5.36.29-7.91,1.29-3.21-7.58-3.59-15.81-5.46-23.7-3.43-2.31-3.43-5.72-3.16-8.74-8.41,4.98-17.69,9.11-27.01,13.15-5.14,2.4-10.18,4.99-15.2,7.63-11.06,5.28-21.82,11.19-33.25,15.7Z"/>
        <path class="cls-3" d="M307.85,153.61c-2.56-14.86-5.11-29.71-7.67-44.57,6.03-3.9,12.34-6.47,19.68-4.21,3.75,12.21,4.9,24.97,7.81,37.35.59,2.53,1.06,5.08,1.59,7.63,3.16,2.16,3.51,4.75,1.21,7.76,1.28,3.59,2.47,7.18-.2,10.7-4.9,2.93-9.9,4.76-15.38,1.42-1.41-.06-2.82-.12-4.23-.18-2.92-4.95-6.07-9.86-2.8-15.9Z"/>
        <path class="cls-21" d="M352.65,199.7c.03,2.04-1.33,2.45-2.96,2.77-17.97,3.59-35.93,7.2-53.87,10.89-1.93.4-3.44.62-4.14-1.67-.93-3.05,1.53-3.32,3.29-3.68,17.75-3.59,35.52-7.1,53.3-10.56,1.89-.37,4.11-.77,4.39,2.25Z"/>
        <path class="cls-9" d="M307.85,153.61c.93,5.3,1.87,10.6,2.8,15.9-8.31-11.94-20.11-6.61-30.84-6.08-8.19.4-16.35,1.35-24.52,2.06,15.15-4.63,30.85-6.77,46.22-10.43,2.11-.5,4.22-.96,6.34-1.44Z"/>
        <path class="cls-18" d="M330.46,157.57c-.01-2.65-.1-5.29-1.21-7.76,10.91-.94,21.42-4.07,32.19-5.82,1.93-.31,3.88-.49,5.81-.73-10.76,4.65-21.5,9.35-32.3,13.89-1.32.56-2.99.3-4.49.42Z"/>
        <path class="cls-21" d="M314.88,169.69c5.21.46,10.14-2.19,15.38-1.42.29,2.23-1.33,3.63-2.45,5.14-1.45,1.95-2.16,5.89-5.15,4.89-3.5-1.17-7.04-3.28-8.78-7.05-.14-.3.65-1.03,1-1.56Z"/>
        <path class="cls-7" d="M319.86,104.83c-6.56,1.4-13.12,2.81-19.68,4.21-1.65-4.69-2.74-9.48-2.69-14.48,6.49-1.83,13.01-3.47,19.77-3.95,1.57,4.61,2.69,9.3,2.6,14.22Z"/>
        <path class="cls-4" d="M314.87,477.49c-.13.96-.26,1.92-.39,2.88-3.77,2.45-7.47.61-10.51-1.07-8.47-4.68-16.41-4.3-24.6.56-2.95,1.75-6.24,3.1-9.68,3.87-.64.16-1.28.23-1.94.23-5.6-1.41-11.47-2.14-16.01-6.26-22.31-8.24-44.56-16.64-67.24-23.85-.04-30.25-.08-60.5-.13-90.75,2.46-1.47,5.11-1.07,7.69-.61,35.15,6.31,70.5,11.5,105.53,18.5,2.16.25,4.33.45,6.48.89,5.44.6,10.75,1.87,16.12,2.85,8.75,1.6,10.75,4.23,9.34,13.1-2.68,16.83-5.17,33.69-7.89,50.51-.9,5.61-1.85,11.21-2.59,16.84-.57,4.38-1.77,8.55-4.19,12.3Z"/>
        <path class="cls-16" d="M298.86,382.89c-22.32-3.74-44.66-7.4-66.96-11.23-15.86-2.73-31.68-5.69-47.52-8.55-.09-11.7-.2-23.4-.23-35.1,0-2.07-.67-4.41,1.47-6,30.34,16.08,60.68,32.15,91.02,48.23,8.39.54,14.85,5.41,21.54,9.72.91.58,1.17,1.79.7,2.94Z"/>
        <path class="cls-12" d="M301.36,543.69c-14.05-5.68-28.1-11.36-42.15-17.05,3.55-11.12,3.72-22.81,5.79-34.18.62-3.4.51-7.06,3.53-9.57l.14-.33c14.81-.37,29.28,1.37,43.12,6.98.45.51.9,1.02,1.35,1.53,1.79,2.05,1.4,4.47,1.07,6.82-1.79,13.11-4.14,26.14-6.1,39.23-.36,2.41-1.08,4.65-2.71,6.51-.07.3-.09.6-.06.9-.23.57-.6.7-1.13.39-.95-.41-1.9-.82-2.85-1.23Z"/>
        <path class="cls-19" d="M304.21,544.92c.37-.14.75-.27,1.13-.39,17.51-.38,35.03-.76,52.54-1.14,2.61,0,5.23,0,7.84,0,.2.47.4.94.6,1.4-22.5,13.17-45,26.34-67.51,39.51,1.8-13.13,3.6-26.26,5.39-39.39Z"/>
        <path class="cls-12" d="M163.32,170.82c.1-1.17.6-2.08,1.7-2.59,10.32-4.76,20.65-9.52,30.97-14.27,2.36.82,3.13,3.02,4.26,4.91,1.73,6.33,6.79,11.49,6.5,18.53,2.18,5.3,4.36,10.59,6.54,15.89-6.98,6.49-15.93,9.17-24.49,12.58-1.02.41-2.12.12-3.06-.55-7.22-6.97-10.53-16.51-16.1-24.56-2.23-3.23-4.23-6.62-6.33-9.93Z"/>
        <path class="cls-32" d="M185.74,205.31c9.18-4.01,18.37-8.02,27.55-12.03-5.08,13.58-10.15,27.16-15.23,40.73-.46,1.23-1.04,2.42-2.66,2.42-2.8-7.82-5.52-15.67-8.46-23.44-.96-2.53-1.5-5-1.2-7.67Z"/>
        <path class="cls-24" d="M206.76,177.39c-3.13-5.9-6.31-11.77-8.04-18.28,3.84-5.31,8.71-7.12,14.53-5.41,1.96,3.89,3.69,7.92,5.96,11.62,2.5,4.09,1.36,6.35-2.8,7.94-3.26,1.25-6.43,2.74-9.65,4.13Z"/>
        <path class="cls-32" d="M210.72,145.93c7.27-3.46,14.53-6.93,21.8-10.37,7.05-3.33,7.1-3.28,8.56,4.36.2,1.06.56,2.1.85,3.14-9.52,3.14-18.69,7.36-28.58,9.39-3.07-1.29-4.44-3.27-2.63-6.53Z"/>
        <path class="cls-5" d="M210.72,145.93c.88,2.17,1.75,4.35,2.63,6.52-.02.41-.06.82-.11,1.23-5.24.72-9.88,3.08-14.53,5.41-1.62-1.34-2.33-3.16-2.73-5.15,4.3-3.8,9.78-5.41,14.73-8.02Z"/>
        <path class="cls-8" d="M213.43,768.74c21.82,1.25,43.67,1.35,65.52,1.37,1.9,0,3.8.81,5.7,1.25-.05,9.95,1.12,9.12-9.17,8.77-18.11-.61-36.23-.9-54.33-1.76-8.55-.41-8.53-.87-7.72-9.63Z"/>
        <path class="cls-33" d="M281.64,763.45c.96-3.76,4.06-2.6,6.44-2.61,13.21-.06,26.43-.43,39.58,1.26-.42,3.77,3.87,10.27-5.22,8.99-10.45-2.57-21.06-.77-31.58-.99-5.11-.11-8.37-1.32-9.22-6.65Z"/>
        <path class="cls-10" d="M268.53,482.89c-1.76,13.13-3.56,26.25-5.25,39.39-.33,2.59-1.66,3.89-4.07,4.36-5.73-.4-11.38-1.24-16.9-2.9,3.14-15.35,6.29-30.69,9.43-46.04,5.86.89,11.29,3.13,16.79,5.19Z"/>
        <path class="cls-16" d="M314.87,477.49c4.07-26.27,8.02-52.56,12.26-78.8,1.58-9.8,1.21-10.46-8.68-12.01-5.3-.83-10.83-1.06-15.69-3.82-.52-3.62,1.76-6.22,3.55-8.84,4-5.85,6.36-12.89,12.31-17.37,10.12-16.26,20.23-32.53,30.35-48.79,4.05,8.38,2.54,17.59,3.54,26.36,2.84,24.9,4.58,49.93,6.74,74.91.41,4.77.76,9.55,1.13,14.32-14.57,17.8-29.13,35.6-43.74,53.37-.35.42-1.17.45-1.77.67Z"/>
        <path class="cls-17" d="M305.4,543.64c1.41-17.69,5-35.06,7.74-52.56.62.21,1.28.32,1.84.63,16.81,9.27,16.7,9.23,9.61,26.89-4.09,10.19-7.6,20.67-19.19,25.04Z"/>
        <path class="cls-17" d="M311.78,489.55c-14.52-1.42-28.81-4.29-43.12-6.98,2.74-1.27,5.62-2.31,8.2-3.85,9.29-5.54,18.51-7.16,28.34-1.09,2.65,1.64,6.17,1.87,9.28,2.74-1.85,2.78-.18,6.6-2.7,9.18Z"/>
        <path class="cls-15" d="M365.83,101c1.36,6.79,2.66,13.59,4.12,20.36.63,2.95.45,4.73-3.26,5.3-8.17,1.27-16.11,4.13-24.56,3.39-1-5.48-1.34-11.05-1.77-16.59-.39-5.07,1.69-8.38,7.46-7.88,2.22,1,1.96,3.07,2.09,4.97.14,2.02.61,3.87,2.77,4.65,1.34.48,2.56.13,3.51-.91,1.78-1.94,1.27-3.92-.05-5.86-.36-.53-.76-1.04-1.14-1.57-2.72-3.84.5-4.84,2.99-5.87,2.53-1.05,5.23-2.14,7.84,0Z"/>
        <path class="cls-22" d="M348.92,107.74c-4.2-1.72-6.56-.45-6.64,4.23-.1,6.03-.1,12.06-.15,18.09-2.86-7.54-3.12-15.64-5.02-23.39-.8-3.28.97-4.82,3.99-5.41,6.59-1.29,13.17-2.63,19.76-3.93,2.98-.59,5.33-.28,4.97,3.68-3.11.84-6.28,1.53-9.33,2.57-2.77.94.27,1.69.24,2.57-2.19,2.58-4.87,2.8-7.83,1.6Z"/>
        <path class="cls-30" d="M318.61,356.65c-4.48,9.22-10.31,17.62-15.86,26.2-1.29.42-2.58,1.85-3.89.03-6.33-6.12-15.1-7.95-22.23-12.66,6.52-7.96,11.37-17.02,16.91-25.63,8.36,4.02,16.72,8.03,25.07,12.05Z"/>
        <path class="cls-26" d="M284.39,310.52c8.33,1.72,14.89,7.32,22.63,10.34-3.16,8.69-9.53,15.58-13.42,23.87-7.26-4.43-15.52-6.96-22.48-11.95,4.43-7.42,10.26-14,13.28-22.26Z"/>
        <path class="cls-20" d="M487.23,397.14c-3.58-5.21-7.17-10.43-10.75-15.64,3.08-5.95,6.15-11.9,9.4-18.17,2.45,2.98,2.92,6.04,4.02,8.83-.32,8.39-.46,16.8-2.66,24.98Z"/>
        <path class="cls-12" d="M285.61,116.9c1.64,7.68,3.24,15.38,4.96,23.05.6,2.67-.85,3.66-3,4.06-9.85,1.84-19.71,3.62-29.57,5.42-1.44-5.97-.94-12.07-.98-18.1-.06-9.13,2.73-11.64,12.37-11.81,2.92.67,2.56,3.08,2.7,5.22.13,2.03.43,3.98,2.71,4.76,1.38.47,2.63.08,3.56-.98,1.54-1.77,1-3.65.06-5.49-.69-1.35-1.61-2.64-1.16-4.31,2.26-3.01,5.13-3.24,8.36-1.83Z"/>
        <path class="cls-18" d="M285.61,116.9c-2.37,1.83-5.96.24-8.03,2.88-1.76,1.77-3.67,2.63-6.03,1.09-2.78.44-5.55.93-8.34,1.31-2.65.36-3.65,1.97-3.79,4.47-.44,7.59-.94,15.18-1.42,22.77-2.98-9.14-3.91-18.7-5.77-28.06-.5-2.49.66-2.99,2.66-3.37,9.01-1.72,18.02-3.47,27-5.33,3.97-.82,3.77,1.7,3.71,4.24Z"/>
        <path class="cls-20" d="M196.03,185.43c-7.12-4.99-14.23-9.98-21.63-15.17.84-.7,1.14-1.03,1.51-1.24q10.48-5.81,15.93,4.74c1.78,3.47,3.48,6.98,5.22,10.47-.35.4-.69.79-1.04,1.19Z"/>
        <path class="cls-29" d="M348.92,107.74c2.35-1.8,5.06-1.86,7.83-1.6,3.46,2.59,4.43,5.91,1.97,9.52-1.94,2.85-4.98,3.46-7.95,1.59-3.84-2.41-3.93-5.81-1.85-9.51Z"/>
        <path class="cls-23" d="M271.55,120.87c2.01-.36,4.02-.73,6.03-1.09,3.23,1.58,4.96,3.99,4.26,7.73-.44,2.37-1.98,3.8-4.12,4.57-2.5.9-4.81.19-6.46-1.73-2.71-3.14-1.8-6.37.29-9.48Z"/>
      </g>
    </g>
  </g>
</svg>