<?xml version="1.0" encoding="UTF-8"?>
<svg xmlns="http://www.w3.org/2000/svg" version="1.1" viewBox="0 0 636.44 800">
  <defs>
    <style>
      .cls-1 {
        fill: #2b2b2b;
      }

      .cls-2 {
        fill: #4f9194;
      }

      .cls-3 {
        fill: #84c7ca;
      }

      .cls-4 {
        fill: #66a6a8;
      }

      .cls-5 {
        fill: #e2c9b7;
      }

      .cls-6 {
        fill: #c4d1d6;
      }

      .cls-7 {
        fill: #515453;
      }

      .cls-8 {
        fill: #549cb5;
      }

      .cls-9 {
        fill: #549db5;
      }

      .cls-10 {
        fill: #3d7789;
      }

      .cls-11 {
        fill: #9cdcda;
      }

      .cls-12 {
        fill: #438194;
      }

      .cls-13 {
        fill: #a3afa4;
      }

      .cls-14 {
        fill: #d9bca6;
      }

      .cls-15 {
        fill: #2d2c2c;
      }

      .cls-16 {
        fill: #bc977e;
      }

      .cls-17 {
        fill: #a28c7c;
      }

      .cls-18 {
        fill: #8f7f74;
      }

      .cls-19 {
        fill: #886a57;
      }

      .cls-20 {
        fill: #397477;
      }

      .cls-21 {
        fill: #56979a;
      }

      .cls-22 {
        fill: #4f5252;
      }

      .cls-23 {
        fill: #fefefe;
      }

      .cls-24 {
        fill: #2e2d2d;
      }

      .cls-25 {
        fill: #6e7073;
      }

      .cls-26 {
        fill: #4f9093;
      }

      .cls-27 {
        fill: #82aca7;
      }

      .cls-28 {
        fill: #72a6a9;
      }

      .cls-29 {
        fill: #856754;
      }
    </style>
  </defs>
  <!-- Generator: Adobe Illustrator 28.7.1, SVG Export Plug-In . SVG Version: 1.2.0 Build 142)  -->
  <g>
    <g id="Layer_1">
      <g>
        <path class="cls-14" d="M428.53,193.11c-.35,12.07,2.27,23.86,3.56,35.77,2.16,19.98,4.63,39.92,7.25,59.85.51,3.86-1,5.14-4.23,5.64-23.07,3.6-46.15,7.15-69.2,10.84-4.16.66-8.85.02-11.97,3.94-15.59,2.99-31.33,5.01-47.06,7.13-1.73.23-3.47.23-5.18-.25-4-1.28-5.01-4.62-5.5-8.21-6.14-44.78-11.9-89.62-18.17-134.38-.45-3.25.26-6.59-.76-9.8.37-6.15,5.44-6.82,9.74-8,16.46-4.49,32.78-9.44,49.21-14.04,24.77-6.96,49.49-14.12,74.21-21.3,2.3-.67,4.58-1.46,7.01-1.56.74.03,1.36.31,1.86.85.05.45.1.9.15,1.35,4.06,7.35,3.31,15.67,4.48,23.56,1.82,12.28,3.16,24.64,4.71,36.97.49,3.92.6,7.77-.1,11.65Z"/>
        <path class="cls-4" d="M377.48,627.88c1.59,2.01.96,4.38,1.05,6.63-1.92,2.38-4.71,3.02-7.45,3.8-36.16,10.22-71.84,22.06-108,32.26-1.48.42-2.83,1.15-4.3,1.59-.68.23-1.38.3-2.09.22-.69-.19-1.32-.51-1.88-.95-2.97-8.81-5.95-17.63-8.92-26.44,23.24-29.06,46.3-58.25,69.38-87.44,6.52-8.24,12.93-16.58,19.65-24.64,3.2-3.84,4.25-6.69.16-10.17,2.15-2.77,5.08-2.06,7.92-1.82,1.46.4,2.69,1.18,3.69,2.31,4.16,6.83,5.46,14.7,7.62,22.21,7.16,24.96,15.31,49.64,21.67,74.84.24,2.59.29,5.21,1.52,7.6Z"/>
        <path class="cls-22" d="M336.64,143.27c-17.38,6.14-35.34,10.31-52.95,15.66-2.14.65-5.06.47-5,3.97-.52.48-1.12.86-1.77,1.14-35.31,8.6-70.12,19.04-104.94,29.43-2.66.79-5.45,2.14-8-.39,9.38-12.25,18.75-24.51,28.13-36.76,1.9-6.01,6.06-10.58,10-15.23,6.61-7.81,11.9-16.78,20.1-23.24,12.94-6,26.57-10.22,39.84-15.35,24.32-9.39,48.7-18.65,73.3-27.3,2.9-1.02,6.1-3.29,8.98.28,2.98,8.26.08,16.49-.34,24.69-.54,10.46-1.78,20.9-2.77,31.34-.4,4.24-.34,8.92-4.59,11.76Z"/>
        <path class="cls-3" d="M343.05,74.78c-26.94,8.98-53.25,19.66-79.87,29.51-13.73,5.08-27.4,10.3-41.1,15.45-2.55.45-4.11-1.17-5.49-2.86-10.44-12.86-20.13-26.28-30-39.57-1.17-1.57-1.42-3.66-2.59-5.26.01-.87.03-1.74.04-2.61,5.68-2.64,11.35-5.28,17.03-7.92,17.01-6.63,33.47-14.5,49.95-22.32,13.49-4.99,26.39-11.34,39.46-17.32,6.2-6.28,14.41-8.19,22.48-10.42,4.75-1.82,9.51-3.63,14.26-5.45,3.27-1.39,4.11,1.23,4.93,3.28,1.18,2.96,1.79,6.09,1.26,9.32-3.2,3.56-4.76,7.32-3.27,12.38,1.56,5.32-.49,9.4-6.06,11.28-1.43.48-2.85,1.12-4.04,2.12-1.58,1.33-1.69,3-.92,4.74.86,1.94,2.48,1.33,3.95.97.85-.21,1.64-.59,2.48-.83,6.3-1.79,7.98-1.15,9.53,5.03,1.06,4.24,3.03,7.05,7.25,8.21,2.59,3.57,3.54,7.49,2.54,11.83-.49.65-1.1.8-1.83.44Z"/>
        <path class="cls-16" d="M277.65,163.12c.35-.07.7-.14,1.05-.22,1.74,11.61,3.58,23.2,5.19,34.83,2.54,18.33,4.93,36.69,7.36,55.04,2.4,18.13,4.8,36.27,7.14,54.41.39,3.03.04,6.33,4.03,7.3-4.08,5.94-9.71,2.6-13.05,3.19,11.85,3.77,25.06,9.31,38.48,14.27,5.05,1.87,10.53,3.03,14.55,7.09,1.2,2.1.82,4.26,0,6.32-5.54,13.76-10.56,27.73-16.27,41.43-.42,1.01-1.05,1.91-1.84,2.68-2.76,1.84-4.58.07-6.13-1.82-13.56-16.6-27.09-33.23-40.58-49.89-1.12-1.38-1.89-2.94-1.78-4.81-12.66-15.81-25.32-31.62-37.97-47.44-.28-9.87,2.54-19.24,4.78-29.12.18-.42-1.16.13-.28.23.41.05.52.27.26.6-4.69,5.99-11.57,8.8-17.93,12.36-9.17-11.38-18.35-22.75-27.52-34.13.29-2.27,2.06-3.28,3.79-4.19,7.93-4.17,15.71-8.59,23.56-12.91,4.25-2.34,7.4-1.21,9.96,2.81,3.86,6.03,7.15,12.43,11.54,18.59,2.58-2.02,3.02-4.69,3.9-7,7.63-20.25,15-40.6,22.65-60.84,1.2-3.18,1.66-6.9,5.14-8.78Z"/>
        <path class="cls-26" d="M335.17,523.72c1.31.04,2.63.11,3.94.11,3.65,0,4.36,1.08,1.92,4.14-9.65,12.13-19.14,24.4-28.75,36.56-14.21,17.99-28.48,35.94-42.72,53.91-5.83,7.36-11.56,14.8-17.49,22.07-1.6,1.96-3.16,4.34-6.19,4.46-11.54-35.97-23.08-71.94-34.62-107.92,1.23-4.32,5.07-4.39,8.4-4.84,13.42-1.85,26.94-2.8,40.41-4.11,21.51-2.09,43.05-4.02,64.56-6.09,3.64-.35,7.43-1.38,10.54,1.7Z"/>
        <path class="cls-11" d="M344.47,74.35c-1.73-3.63-1.93-7.61-2.61-11.47,3.68-1.6,2.99-4.43,2.41-7.55-1.37-7.4-.94-7.78,6.31-6.98,1.08.12,2.28.57,2.91-.56.72-1.29.1-2.53-.81-3.56-1.34-1.51-3.13-2.38-4.98-2.99-5.08-1.67-8.14-5.18-8.61-10.39-.45-5-4.76-7.59-6.42-11.75-2.93-3.89.08-10.27-5.45-13.08,2.7-2.48,4.74.3,7.06.89,4.39,1.12,8.04,4.28,12.72,4.59,11.15,6.63,23.63,10.2,35.41,15.38,14.21,6.25,28.6,12.1,43.02,17.85,4.95,1.97,4.84,5.33,4.11,9.56-3.42,20.01-6.71,40.03-10,60.06-.28,1.72-.17,3.5-.25,5.26-.45.02-.9.03-1.35.05-3,.17-5.47-1.17-7.93-2.67-20.32-12.43-40.55-25.01-60.76-37.62-1.99-1.24-4.4-2.18-4.79-5Z"/>
        <path class="cls-6" d="M439.15,758.35c.31,15.41,13.19,12,21.91,14.29,7.89,2.07,16.07,3.01,25.25,4.65-5.79,3.45-11.31,2.37-16.29,3.03-23.97,3.21-48.07,5.53-72.1,8.35-16.66,1.95-33.25,4.65-49.95,6.12-7.96.7-16.11-.55-24.15-1.16-15.22-1.14-30.42-2.48-45.63-3.7-21.52-1.72-43.04-3.44-64.56-5.09-13.27-1.01-26.54-2.32-39.84-2.66-7.89-.21-15.56-2.61-23.64-2.65,13.47-2.25,26.94-4.53,40.42-6.75,24.09-3.97,48.18-7.91,72.28-11.86,3.35,3.97-1.19,7.38-.76,11.14-1.1,4.71,1.18,6.31,5.55,6.32,12.61.05,25.23.08,37.84-.02,4.14-.03,6.94-1.23,5.54-6.2-.74-4.35-2.9-8.21-4.21-12.35-.82-2.58-2.55-5.3.2-7.84,17.27-5.16,34.52-4.56,51.75.23,1.28.35,2.45.93,3.4,1.9,2.39,3.67,1.84,7.75,1.61,11.78.11,3.57,2.59,4.27,5.42,4.3,20.81.27,41.63.23,62.44.04,3.14-.03,4.85-1.33,5.09-4.65.19-2.57.11-5.35,2.45-7.23Z"/>
        <path class="cls-3" d="M238.12,351.37c.88-3.19,3.76-4.06,6.26-5.33,7.81-3.96,15.75-7.68,23.44-11.87,4.48-2.44,5.81-1.91,5.76,3.47-.22,23.24-.15,46.48.04,69.71.01,1.44-2.58,5.41,2.46,4.55.68-2.78,3.21-3.36,5.31-4.43,10.51-5.38,21.34-10.1,31.92-15.32,3.9-1.92,8.12-1.42,11.98-2.89,6.23-.33,12.01,1.88,17.93,3.23,10.84,2.46,21.74,4.64,32.54,7.33,5.84,5.01,7.96,11.75,8.8,19.09-.56,1.18-1.57,1.65-2.79,1.81-34.91,1.43-69.68,5.07-104.56,7.01-4.57.25-9.08,1.41-13.7.99-1.51-.2-3.02-.51-4.57-.44-5.36.24-8.1-2.58-8.93-7.63-3.72-22.71-8.9-45.17-11.3-68.1-.04-.41-.35-.79-.58-1.17Z"/>
        <path class="cls-1" d="M277.65,163.12c-10,27.18-20,54.35-30.52,82.93-5.38-8.93-10.01-16.3-14.3-23.86-1.99-3.52-3.59-4.54-7.56-2.17-9.18,5.49-18.74,10.33-28.15,15.43-11.8-13.02-22.31-27.1-33.29-40.79-.41-.51-.61-1.13.16-1.58,12.14-3.48,24.28-6.97,36.43-10.43,20.77-5.91,41.47-12.1,62.38-17.49,4.69-1.21,9.56-4.08,14.85-2.04Z"/>
        <path class="cls-14" d="M235.4,480.46c-16.89-1.33-33.68-3.93-50.67-4.19-1.65-.03-3.03-.41-3.5-2.25.67-1.98,2.15-3.24,3.82-4.33,20.5-13.36,40.88-26.9,61.44-40.17,3.28-2.12,6.54-3.5,10.41-1.79,7.53,2.64,13.6,7.78,20.28,11.87,9.69,5.93,19.28,12,28.88,18.06,2.93,1.85,6.09,3.57,7.23,7.28.65,7.5,2.16,15.04-1.25,22.3-1.78,1.55-3.94,1.84-6.16,1.68-20.92-1.51-41.8-3.53-62.69-5.46-2.79-.26-5.69-.73-7.8-2.99Z"/>
        <path class="cls-4" d="M256.43,428.71c-3.08-1.84-5.28.12-7.67,1.68-19.87,13.01-39.77,25.99-59.67,38.95-2.55,1.66-5.23,3.13-7.85,4.69-1.64-2.51.8-4.02,1.62-5.75,18.35-39,36.82-77.95,55.26-116.9,5.36,3.94,3.67,10.27,4.7,15.44,3.65,18.32,6.46,36.8,9.57,55.23,1.19,7.05,6.88,3.22,10.5,4.39-.94,4.21-4.18,1.88-6.46,2.29Z"/>
        <path class="cls-26" d="M257.63,671.2c5.06-3.84,11.32-4.46,17.12-6.21,33.28-10.03,66.61-19.92,99.93-29.84,1.24-.37,2.57-.44,3.85-.64,1.66,16.61,3.32,33.23,4.98,49.84-.78.99-1.84,1.39-3.06,1.43-11.29-.71-22.57-1.53-33.83-2.69-4.34-.45-8.57-1.45-12.91-1.78-10.12-.26-20.1-1.9-30.17-2.74-12.82-1.1-25.55-2.97-38.36-4.12-2.77-.25-5.65-.77-7.57-3.25Z"/>
        <path class="cls-28" d="M235.4,480.46c16.9,1.46,33.81,2.93,50.71,4.37,8.45.72,16.91,1.36,25.36,2.03.9-.66,1.9-1.06,3.03-1.04,14.02,1.68,27.81,4.76,41.76,6.89,2.37.36,4.68.99,6.83,2.09.63.41,1.1.95,1.42,1.63-.08.77-.16,1.53-.23,2.3-5,9.24-10.62,18.02-18.54,25.09-.92-.46-1.84-.91-2.76-1.37-35.09-5.87-69.02-16.64-103.61-24.64-3.34-.77-7-1.12-9.23-4.35,1.75-4.33,3.5-8.66,5.25-12.99Z"/>
        <path class="cls-3" d="M230.15,493.45c31.59,7.89,63.21,15.65,94.75,23.76,6.06,1.56,12.62,1.56,18.08,5.23-2.61.38-5.46-.72-7.81,1.28-21.93,2.02-43.9,3.66-65.78,6.27-15.81,1.88-31.71,2.96-47.57,4.39-3.66.33-7.41.33-10.56,2.69-1.63-3.66,1.4-6.07,2.63-8.81,5.24-11.68,10.81-23.21,16.26-34.8Z"/>
        <path class="cls-4" d="M383.87,418.35c-2.62-5.68-5.25-11.36-7.87-17.04-2.02-1.09-3.19-2.84-4.12-4.89-8.52-18.86-16.81-37.82-25.45-56.62-.81-1.76-1.72-3.59-.6-5.59,9.86,1.63,18.42,4.72,24.49,13.91,19.51,29.55,39.63,58.7,59.47,88.04.7,1.03,1,2.34,1.48,3.53-2.16,1.62-4.18.43-6.15-.4-12.49-5.26-24.41-11.74-36.8-17.2-1.85-.82-3.35-2.02-4.45-3.73Z"/>
        <path class="cls-14" d="M383.87,418.35c14.32,5.14,27.41,13,41.42,18.84,1.99.83,3.99,1.66,5.98,2.49,3.13,7.93-.52,15.41-1.56,23.06-.17,1.23-1.39,1.55-2.49,1.79-15.77,3.52-31.54,7.05-47.31,10.57-.26-.21-.53-.42-.8-.63-3.3-6.77-3.02-14.44-5.35-21.45.11-2.07.52-4.13.28-6.23.97-7.73,3.85-14.99,5.66-22.51.45-1.88,1.22-3.71,3.22-4.58.32-.45.63-.9.95-1.35Z"/>
        <path class="cls-23" d="M324.63,390.41c-11.33,2.92-21.27,9.12-31.88,13.73-5.62,2.44-11.12,5.16-16.68,7.75-1.32-1.13-1.31-2.68-1.31-4.23,0-23.68-.01-47.36.04-71.04,0-1.23.64-2.46.98-3.69,13.89,16.97,27.74,33.97,41.7,50.88,1.73,2.09,2.63,5.22,5.97,5.66,1.05-.5,1.23.07,1.17.94Z"/>
        <path class="cls-16" d="M254.8,671.43c.55.02,1.11.05,1.66.07,15.3,3.4,29.39,10.11,43.71,16.17,1.41.6,2.68,1.43,3.38,2.91,1.91,5.44.21,10.91-.41,16.21-.96,8.37.09,17.14-3.91,25.05-9.06,3.74-17.78,1.34-26.48-1.53-5.24-16.9-10.5-33.79-15.71-50.69-.83-2.7-1.51-5.46-2.25-8.19Z"/>
        <path class="cls-23" d="M324.63,390.41c-.39-.31-.78-.63-1.17-.94,5.44-14.41,10.89-28.81,16.3-43.24.83-2.22,1.43-4.53,2.13-6.79-.44-3.23-.16-6.08,3.73-7.01.07.59.14,1.19.21,1.78,10.06,22.37,20.11,44.73,30.17,67.1-10.01-.56-19.47-3.94-29.24-5.78-7.44-1.4-14.76-3.39-22.13-5.12Z"/>
        <path class="cls-22" d="M428.53,193.11c-3.05-9.44-3.21-19.34-4.38-29.05-1.73-14.35-4.5-28.6-4.71-43.12,13.09,8.26,26.13,16.62,39.33,24.72,2.77,1.7,3.01,2.83,1.07,5.4-10.53,13.95-20.89,28.02-31.31,42.05Z"/>
        <path class="cls-2" d="M345.74,523.81c5.4-8.94,11.08-17.68,18.54-25.09,1.48,13.48,3.01,26.95,4.42,40.44,2.48,23.73,4.89,47.47,7.29,71.22.22,2.17.14,4.37.19,6.56.16,1.66,1.84,3.83-1.45,4.33-9.67-32.49-19.33-64.98-29-97.47Z"/>
        <path class="cls-26" d="M184,72.05c10.3,10.92,18.13,23.76,27.57,35.35,3.41,4.19,6.08,9.03,10.51,12.34-9.99,12.19-19.97,24.38-29.96,36.57-2.63-25.24-5.28-50.48-7.87-75.73-.29-2.82-.18-5.69-.25-8.53Z"/>
        <path class="cls-10" d="M361.8,766.13c-.04-3.91-.09-7.83-.13-11.74-2.81-8.33-1.4-16.64.1-24.96,7.85-5.93,16.54-7.02,25.85-4.39,7.16,6.65,14.33,13.3,21.49,19.95.66,3.43-1.76,5.19-3.97,6.89-6.55,5.02-13.19,10.05-20.37,14-7.23,3.99-15.27,4.05-22.97.25Z"/>
        <path class="cls-16" d="M387.62,725.05c-8.17,1.03-16.4,1.64-24.33,4.11-2.42-.45-3.53-2.39-4.66-4.24-4.63-7.61-9.2-15.26-13.92-22.82-1.44-2.3-3.3-4.78-1.39-7.81,12.06-5.54,24.71-8.77,37.93-9.79.75-.05,1.5-.1,2.25-.15,1.37,13.57,2.73,27.13,4.1,40.7Z"/>
        <path class="cls-8" d="M361.8,766.13c15.65,3.51,27.37-4.47,38.72-13.38,3.02-2.38,6.78-4.01,8.59-7.75,10.01,4.45,20.03,8.9,30.04,13.35q.46,14.45-14.18,14.45c-19.04,0-38.09-.19-57.12.12-5.42.09-7.19-1.69-6.05-6.78Z"/>
        <path class="cls-10" d="M272.77,730.31c8.61-.95,16.99,1.68,25.53,1.64,6.16,5.68,8.41,12.88,8.23,21.04,2.2,6.18,4.4,12.37,6.6,18.55-5.26.78-7.38-3.87-10.6-6.4-4.16-3.27-8.03-6.03-13.81-6.27-7.78-.31-13.84,1.74-18.97,7.75-2.25,2.64-4.43,6.98-9.46,4.88-.66-3.89,2.96-6.74,2.55-10.57,3.31-10.21,6.62-20.42,9.93-30.62Z"/>
        <path class="cls-29" d="M345.62,332.43c-1.24,2.34-2.49,4.67-3.73,7.01-18.46-6.97-36.91-13.94-55.99-21.15,5.52-3.82,11.57-1.34,16.51-3.82,14.69-2.09,29.36-4.28,44.07-6.16,2.38-.3,5.4-2.85,7.46.84-2.55,7.84-6.61,15.14-8.32,23.29Z"/>
        <path class="cls-29" d="M224.64,269.57c4.38-7.09,12.77-8.52,19.17-13.42-2.15,9.87-2.06,19.99-6,29.34-4.39-5.31-8.78-10.61-13.17-15.92Z"/>
        <path class="cls-16" d="M379.91,475.11c-4.2,7.78-10.21,14.25-15.4,21.32-.19-.14-.37-.3-.52-.48-5.15-5.28-5.25-12.7-8.04-18.99.46-1.11,1.35-1.72,2.42-2.13,7.19-.22,14.42-3.34,21.55.34v-.05Z"/>
        <path class="cls-21" d="M374.74,621.28c1.48-1.11,1.2-2.81,1.45-4.33,1.8,3.48.99,7.27,1.3,10.93-1.95-1.77-2.19-4.25-2.74-6.6Z"/>
        <path class="cls-25" d="M344.47,74.35c24.49,15.1,48.99,30.19,73.48,45.29-12.63,5.44-26.09,8.19-39.21,11.99-13.98,4.05-27.76,8.9-42.1,11.65,3.04-8.29,2.77-17.14,3.4-25.68,1.05-14.26,3.82-28.42,3.01-42.81.47-.14.95-.29,1.42-.43Z"/>
        <path class="cls-5" d="M349.81,174.77c5.53-1.78,11.18-2.75,17.01-2.67.41.16,1.04.26,1.15.57,3.94,11.31,7.28,22.71,4.19,34.87.81,4.21,1.55,8.44,2.46,12.63.77,3.55-.64,5.74-3.88,6.99-3.76,4.22-8.14,4.19-12.85,1.86l-.23-.24c-2.4-2.97-3.67-6.34-4.18-10.17-1.59-11.95-3.46-23.86-5.01-35.82-.36-2.77-1.18-5.7,1.35-8.02Z"/>
        <path class="cls-16" d="M349.81,174.77c2.61,18,5.23,36,7.84,54.01-6.85-5.93-12.25-13.22-18.46-19.75-.98-1.59.17-2.86.61-4.24,2.13-6.62-.63-9.9-7.62-9.02-1.48.19-2.93.8-4.43.12-6.1-4.22-10.95-9.62-14.86-15.89,1.85-1,4.03-1.15,5.84-2.28,9.98-3.19,19.96-6.36,30.68-4.59.14.55.27,1.1.41,1.64Z"/>
        <path class="cls-16" d="M372.15,207.54c-1.17-11.91-2.93-23.72-5.34-35.44.06-.5.12-1,.18-1.51,9.41-5.21,19.65-5.48,30-5.09,1.88.15,3.92-.35,5.41,1.34-3.95,6.07-7.9,12.15-11.86,18.22-.11.19-.19.51-.34.54-6.95,1.54-9.67,6.08-9.21,12.91-3.79,2.18-4.58,7.32-8.86,9.02Z"/>
        <path class="cls-4" d="M387.83,255.33c3.44.4,5.95-2.55,9.71-2.7-3.7,4.07-7.48,7.68-10.62,11.78-8.54,11.13-18.19,12.53-29.91,4.87-4.5-2.94-9.97-4.37-14.99-6.49.43-3.18,2.42-1.43,3.91-1.23,2.17.04,4.34.08,6.51.12.51-.42,1.1-.75,1.76-.61,11.96,2.43,22.98-.55,33.64-5.74Z"/>
        <path class="cls-20" d="M387.83,255.33c-10.37,10.08-22.53,10.18-35.4,6.35,4.68-3.13,9.41-6.19,14.03-9.42,2.21-1.55,4.45-1.5,6.86-.85,4.84,1.31,9.68,2.61,14.51,3.91Z"/>
        <path class="cls-24" d="M327.75,195.88c4.45-3.09,9.13-4.81,13.31,0,4.18,4.81,1.98,9.21-1.87,13.14-10.16,2.17-14.55-2.87-11.44-13.14Z"/>
        <path class="cls-7" d="M349.4,173.12c-10.41,1.9-20.83,3.8-31.24,5.7-1.33.35-1.66-.21-1.3-1.41,8.48-4.37,17.08-8.51,25.38-13.19,4.29-2.41,6.24-2.29,6.26,3.13,0,1.93.59,3.85.9,5.77Z"/>
        <path class="cls-15" d="M381.01,198.52c-4.32-9.02-1.05-13.63,9.55-13.45,4.76,3.2,7.14,7.2,3.55,12.63-2.9,4.38-7.21,4.53-13.1.82Z"/>
        <path class="cls-7" d="M396.88,166.7c-9.96,1.3-19.92,2.6-29.88,3.9-1.04-11.33-1.05-11.27,10.53-9.42,7.32,1.17,14.67,2.12,22,3.17.81,2.7-1.98,1.32-2.65,2.35Z"/>
        <path class="cls-19" d="M357.89,229.02c4.28-.62,8.56-1.24,12.85-1.86,1.56.41,4.28-.58,2.62,3.05-4.25,9.26-6.82,9.11-15.46-1.19Z"/>
        <path class="cls-17" d="M396.88,166.7c.88-.78,1.77-1.57,2.65-2.35,3.68-.15,3.77-.08,2.89,2.5-1.84-.05-3.69-.1-5.54-.15Z"/>
        <path class="cls-27" d="M345.92,261.57c-1.36.23-2.9-.1-3.91,1.23-.98-.41-1.96-.82-4.29-1.79,3.72-.87,5.99-1.01,8.2.56Z"/>
        <path class="cls-18" d="M316.86,177.41c.43.47.87.94,1.3,1.41-1.5,1.55-3.44,1.11-5.27,1.18.88-1.54,2.43-2.06,3.97-2.59Z"/>
        <path class="cls-29" d="M302.23,689.77c-11.65-2.85-22.09-8.86-33.3-12.86-4.26-1.52-8.32-3.6-12.46-5.42.4-.07.78-.17,1.17-.29,15.33,1.81,30.67,3.63,46,5.44,3.27,4.77,2.87,9.16-1.4,13.12Z"/>
        <path class="cls-12" d="M332.67,19.09c4.98,1.84,7.68,5.31,8.06,10.7.36,5.08,2.86,8.49,8.07,9.73,1.66.39,3.12,1.55,4.71,2.28,4.11,1.88,3.45,5.76,2.46,8.52-1.26,3.49-3.9.24-5.89-.13-1.43-.27-2.76-1.09-4.4-1.78-.8,5.26,1.87,9.72,1.59,14.69-1.79,1.31-3.6-.98-5.42-.22-5.35,2.35-6.98-.26-8.04-5.23-1.97-9.32-.29-8.92-10.16-5.55-2.29.78-5.59,3.89-6.67-1.1-.72-3.33-3.38-7.29,2.89-9.39,9.53-3.19,9.52-3.68,7.51-13.84-.95-4.81-.35-8.13,5.27-8.69Z"/>
        <path class="cls-29" d="M237.2,248.71c-9.82-2.83-17.59-5.82-25.45-10.08,3.56-4.11,8.27-5.18,11.95-7.8,2.36-1.69,3.46.41,4.47,2.17,2.7,4.71,5.41,9.42,9.04,15.71Z"/>
        <path class="cls-9" d="M260.29,771.5c5.55-1.77,8.29-6.86,12.27-10.47,5.72-5.19,21.3-5.86,27.12-.87,4.46,3.82,8.97,7.59,13.45,11.38,2.12,7.87,1.45,8.88-6.25,8.9-13.48.04-26.95.03-40.43,0-7.77-.02-8.51-1.13-6.16-8.94Z"/>
        <path class="cls-26" d="M382.92,419.71c-2.32,9.21-4.65,18.42-6.97,27.63-.64,1.24-1.4,2.37-2.88,2.73-8.15-.06-15.23-4.3-22.98-5.93-2.93-1.1-4.94.87-7.1,2.2-8.12,4.98-16.08,10.21-24.34,14.97-2.17,1.25-4.22,3.26-7.13,2.04-18.37-11.55-36.73-23.09-55.1-34.64,1.73-1.98,4.79-.15,6.46-2.29,27.96-2.15,55.92-4.38,83.89-6.43,10.2-.75,20.42-1.11,30.64-1.6,1.92-.09,3.97-.4,5.5,1.31Z"/>
        <path class="cls-16" d="M311.52,463.34c10.77-6.62,21.52-13.27,32.33-19.82,1.72-1.04,3.25-3.23,5.77-1.62,3.86,9.31,5.68,19.26,8.84,28.79.63,1.9.8,3.87-.62,5.61-.51.42-1.03.85-1.54,1.27-.97,2.28-3.04,3.05-5.17,3.5-12.26,2.61-24.32,6.49-37.09,5.93-.85-.05-1.71-.1-2.56-.14.02-7.84.03-15.68.05-23.52Z"/>
        <path class="cls-29" d="M343.1,695.1c-3.51-5.03-6.96-10.09-9.55-15.68,15.9,1.69,31.81,3.39,47.71,5.08-12.48,4.4-25.4,7.2-38.16,10.6Z"/>
        <path class="cls-29" d="M314.04,487.01c11.99-2.64,23.99-5.27,35.98-7.92,2.1-.46,4.19-1,6.28-1.51,4.77,1.29,3.55,5.95,4.93,9.09,1.29,2.93,1.88,6.18,2.77,9.29-16.77-2.32-33.5-4.89-49.96-8.94Z"/>
        <path class="cls-5" d="M357.84,476.3c-2.72-9.44-5.46-18.87-8.13-28.33-.56-1.98-2.22-4.03-.08-6.07,7.89,2.37,15.79,4.75,23.68,7.12,1.69.68,2.64,1.67,1.48,3.54,4.13,6.98,3.92,14.95,5.13,22.6-7.36.4-14.66,1.97-22.08,1.14Z"/>
        <path class="cls-13" d="M374.79,452.56c-.49-1.18-.99-2.36-1.48-3.54.88-.56,1.76-1.12,2.64-1.68,0,1.83.52,3.77-1.16,5.22Z"/>
      </g>
    </g>
  </g>
</svg>