<?xml version="1.0" encoding="UTF-8"?>
<svg xmlns="http://www.w3.org/2000/svg" version="1.1" viewBox="0 0 636.44 800">
  <defs>
    <style>
      .cls-1 {
        fill: #84c7ca;
      }

      .cls-2 {
        fill: #8f8f8f;
      }

      .cls-3 {
        fill: #e2c9b7;
      }

      .cls-4 {
        fill: #8e8e8e;
      }

      .cls-5 {
        fill: #747475;
      }

      .cls-6 {
        fill: #549cb5;
      }

      .cls-7 {
        fill: #3e7789;
      }

      .cls-8 {
        fill: #3d7789;
      }

      .cls-9 {
        fill: #bb987f;
      }

      .cls-10 {
        fill: #dcdcdb;
      }

      .cls-11 {
        fill: #c8d5da;
      }

      .cls-12 {
        fill: #d9bca6;
      }

      .cls-13 {
        fill: #9c9fa0;
      }

      .cls-14 {
        fill: #c3c3c3;
      }

      .cls-15 {
        fill: #d8bca6;
      }

      .cls-16 {
        fill: #387477;
      }

      .cls-17 {
        fill: #bc977e;
      }

      .cls-18 {
        fill: #bb987e;
      }

      .cls-19 {
        fill: #464646;
      }

      .cls-20 {
        fill: #866855;
      }

      .cls-21 {
        fill: #876956;
      }

      .cls-22 {
        fill: #ba977e;
      }

      .cls-23 {
        fill: #31302f;
      }

      .cls-24 {
        fill: #9d9fa0;
      }

      .cls-25 {
        fill: #4a8ca2;
      }

      .cls-26 {
        fill: #4f5252;
      }

      .cls-27 {
        fill: #6e7073;
      }

      .cls-28 {
        fill: #4f9093;
      }

      .cls-29 {
        fill: #2d2d2d;
      }

      .cls-30 {
        fill: #737373;
      }

      .cls-31 {
        fill: #47879c;
      }

      .cls-32 {
        fill: #856754;
      }

      .cls-33 {
        fill: #3f788a;
      }
    </style>
  </defs>
  <!-- Generator: Adobe Illustrator 28.7.1, SVG Export Plug-In . SVG Version: 1.2.0 Build 142)  -->
  <g>
    <g id="Layer_1">
      <g id="Layer_1-2" data-name="Layer_1">
        <g>
          <path class="cls-12" d="M373.83,139.15c1.42,19.19,4.79,38.12,7.47,57.14,1.57,11.15,2.82,22.35,4.77,33.44.95,5.36-1.48,6.72-5.84,7.63-23.13,4.84-46.23,9.81-69.34,14.75-2.16.46-4.31.97-6.47,1.46-3.1,3.43-7.5,3.38-11.51,4.13-6.22,1.17-12.33,3.19-18.77,3.14-4.82.06-7.15-2.68-8.17-7.1-6.24-27.22-13.32-54.23-19.69-81.41-.66-2.83-1.04-5.69.47-8.43,2.18-2.87,5.29-3.23,8.56-3.22,11.45.09,22.82-1.31,34.06-3.15,8.81-1.43,16.13-.38,22.04,6.61,1.27.5,2.58.92,3.68,1.76.16.13.35.26.47.43,6.7,9.24,9.23,8.96,14.3-1.68,1.4-3.28-.29-6.98,1.4-10.22,12.01-5.83,24.62-10.25,36.82-15.63,1.94-.52,3.94-1.61,5.73.33h0Z"/>
          <path class="cls-12" d="M349.97,15.22c3.31,17.56,6.62,35.12,9.96,52.68.62,3.26,1.4,6.47,2.1,9.7-1.15,3.3-4.17,3.79-6.95,4.32-12.18,2.36-24.32,4.94-36.55,7.01-6.9.93-13.58,2.98-20.46,4-18.45,3.71-36.89,7.39-55.34,11.07-3.23.65-6.52,1.56-9.71-.27-1.84-1.47-2.37-3.66-2.99-5.76-5.11-17.34-10.39-34.63-15.25-52.04-.8-2.86-2.38-5.85-.27-8.87,2.16-1.56,4.6-1.55,7.02-1.12,9.82,1.72,19.77,2.66,29.55,4.58,27.14-7.96,54.31-15.88,81.56-23.5,5.63-1.57,11.38-3.01,17.35-1.83l-.02.02Z"/>
          <path class="cls-1" d="M122.58,506.38c-1.36-12.29,1.09-24.42,1.61-36.63.66-15.42,2.38-30.82,3.55-46.22,1.8-23.78,3.6-47.56,5.23-71.36.2-2.95,1.73-4.22,3.95-5.49,15.53-8.91,31.01-17.91,46.51-26.88,1.65-.2,2.12.89,2.38,2.21.6,13.66.6,27.32.06,40.99.61,29.65.67,59.3.02,88.93-.53,3.82-3.22,6.19-5.93,8.5-16.89,14.36-34.21,28.19-50.88,42.8-1.94,1.7-4.4,2-6.5,3.17v-.02Z"/>
          <path class="cls-4" d="M186.67,587.75c-11.34-1.79-22.65-3.69-34.01-5.36-7.82-1.14-8.42-1.87-7.09-9.69,2.04-11.94,3.96-23.91,5.92-35.87,4.42,1.68,9.03,1.7,13.68,1.8,28.68.67,57.31,2.48,85.97,3.57,16.75.64,33.49,1.69,50.24,1.94,1.77.02,3.16.77,4.21,2.18,1.74,3.11,1.14,6.38.6,9.64-1.7,10.16-3.28,20.35-4.84,30.54-.7,4.28-1.09,8.61-2.09,12.84-.9,3.8-2.8,6.35-7.15,5.99-2.62-.35-5.17-1.25-7.88-.97-15.86-1.37-31.53-4.24-47.27-6.53-13.79-2.01-27.55-4.23-41.33-6.33-3.3-.5-6.59-1.07-9-3.74h.02Z"/>
          <path class="cls-17" d="M247.44,164.12c1.96,15.15,6.67,29.7,9.93,44.57,3.15,14.44,6.85,28.77,10.41,43.12.85,3.44.81,7.98,6.5,7.13-.7,3.63-3.95,2.83-6.28,3.54-2.68.82-5.64.62-8.86,2.13,8.03,11.9,15.71,23.48,23.26,35.16,1.6,2.48,4.41,4.71,2.44,8.29-3.29,1.56-6.06-.2-8.79-1.53-18.93-9.19-37.43-19.22-56.73-27.65-2.68-1.17-5.11-2.68-6.29-5.58-6.08-12.86-11.2-26.21-18.81-38.32.09-.31.18-.62.27-.93,5.34-14.38,11.53-28.44,16.23-43.05-.96-5.58-5.28-10.11-5.01-16.06,1.76-3.52,5.6-3.9,8.59-5.51,3.1-1.68,3.9-3.69,2.35-6.93-1.86-3.9-4.53-7.53-4.43-12.16.16-.68.5-1.25,1.01-1.72,7.85-3.9,16.27-6.22,24.52-8.99,1.68-.56,3.43-.74,5.01.45,3.43,7.64,5.39,15.57,4.69,24.03h-.01Z"/>
          <path class="cls-11" d="M326.99,762.45c15.49-.41,30.77,2.17,46.16,3.28,12.53.91,25.04,2.11,37.57,3.13,21.75,1.76,43.49,3.82,65.27,5.05,8.82.49,17.51,2.7,26.45,1.81-6.03,3.18-12.75,2.83-19.11,3.64-20.54,2.63-41.12,4.86-61.62,7.79-20.28,2.9-40.71,4.66-61.07,7.09-12.24,1.46-24.49,3.04-36.68,4.94-6.53,1.01-12.84-.62-19.09-1.32-27.81-3.15-55.6-6.3-83.44-9.14-25.85-2.64-51.63-6.1-77.45-9.05-10.64-1.22-21.33-2.07-32.23-3.11,1.3-2.23,3.13-2.21,4.87-2.32,21.58-1.36,43.2-2.27,64.73-4.23,10.9-.98,22.01-.79,32.7-3.84,2.53,2.18.77,4.95,1.07,7.45.07,4.66,2.85,6.48,7.11,6.99,7.27.88,14.55.37,21.83.52,9.25.19,18.58-.79,27.73,1.11,6.8,1.41,10.75-1.47,13.12-7.5,6.87-2.31,13.96-.79,20.94-1.11,5.05-.23,10.13-.03,15.17-.06,4.61.18,6.12-2.34,5.65-6.58-.2-1.54-.69-3.1.35-4.54h-.03Z"/>
          <path class="cls-28" d="M122.58,506.38c20.42-17.3,40.84-34.61,61.26-51.92,2.52-2.05,5.09-.85,7.56,0,18.22,6.33,36.26,13.19,54.54,19.35,2.74.93,5.37,2.19,6.76,5.04,1,2.62.46,5.23-.05,7.83-2.06,10.62-4.58,21.14-6.63,31.76-.54,2.82-1.22,5.65-3.7,7.55-2.89,1.65-5.96,1.17-9.02.75-24.2-3.38-48.24-7.78-72.45-11.12-2.17-.3-4.42-.5-5.88-2.52-8.11-3.47-17.01-3.05-25.42-5.1-2.32-.57-4.65-1.09-6.97-1.62h.01Z"/>
          <path class="cls-1" d="M476.54,409.27c-22.72,17.61-45.53,35.12-68.08,52.93-4.47,3.53-7.1,3.73-11.21-.73-11.4-12.35-23.4-24.15-35.16-36.15-.35-.58-.42-1.2-.25-1.85,3.51-5.11,9.3-7.15,14.19-10.38,8.79-5.8,18-10.95,26.73-16.84,2.16-1.45,4.38-3,7.18-2.98,10.49-4.77,19.42-12.08,29.19-18.02,3.96-2.4,7.53-5.43,11.91-7.11,2.81.88,3.93,3.43,5.4,5.57,6.35,9.3,12.03,19.03,18.39,28.33,1.44,2.1,3.45,4.27,1.68,7.21h.02Z"/>
          <path class="cls-26" d="M291.54,603.58c3.5.65,4.85-.61,5.57-4.32.83-4.27.3-8.82,2.35-12.85,1.93-3.83,5.72-5.41,9.15-7.37,18.97-10.81,37.18-22.89,57.43-33.53-3.58,1.17-6.19,2.49-6.5-2.02,6.74-3.03,9.15-2.38,10.66,2.84-13.5,34.19-27.02,68.37-40.52,102.56-1.97,2.18-4.31,3.64-7.25,4.28-12.7,2.76-25.36,5.74-38,8.83-2.36.58-4.76,1.01-7.13-.1-.68-.41-1.17-.98-1.49-1.71-.96-2.87-.25-5.72.22-8.54,2.26-13.77,4.46-27.56,6.94-41.3.84-4.68,2.22-8.97,8.58-6.79h-.01Z"/>
          <path class="cls-28" d="M370.19,546.34c-3.16-4.65-7.16-2.32-11.01-1.31-1.47,2-3.69,2.44-5.89,2.43-13.24-.06-26.43.64-39.62,1.45-1.97.12-3.97-.12-5.85-.81-.67-.27-1.27-.67-1.78-1.2-1.27-2.92,1.28-4.15,2.88-5.18,6.51-4.18,9.97-10.39,12.65-17.34,2.07-5.36,4.11-10.75,6.61-15.93,1.54-3.18.93-5.35-2.22-7.12-4.43-2.49-8.72-5.22-12.79-8.29-.72-.72-1.2-1.56-1.41-2.56-.2-3.36.51-6.56,1.67-9.69.21-.96.62-1.85,1.15-2.67,13.2-17.07,27.59-33.18,41.11-50,1.48-1.85,2.75-4.08,5.44-4.53.3.11.59.21.89.33.02.46.04.93.06,1.39,1.51,20.33,2.95,40.68,4.54,61,1.44,18.35,3.05,36.68,4.55,55.02.14,1.72.6,3.59-.99,5h.02Z"/>
          <path class="cls-26" d="M220.15,738.15c-5.58-25.6-11.18-51.18-16.76-76.78-1.06-4.59,2.32-4.78,5.15-4.7,20.55.59,41.13.19,61.66,1.84,2.49.2,4.82.67,6.67,2.51l-.04-.04c1.84,2,1.81,4.4,1.44,6.85-2.88,18.73-5.66,37.47-8.66,56.18-.35,2.2-1.06,4.27-2.11,6.23-.63,1.05-1.47,1.85-2.52,2.44-12.89,3.75-26.26,5.01-39.44,7.19-1.95.32-3.97.07-5.37-1.73h-.01Z"/>
          <path class="cls-10" d="M135.61,180.23c-3.2-5.01-.11-10.03.48-14.82,3.01-24.49,7.29-48.82,9.15-73.46.06-.8.73-1.56,1.1-2.34,4.76,1.41,8.55-1.13,12.44-3.14,13.31-6.86,26.81-13.33,40.23-19.97,5.96-2.96,6.94-2.43,9.41,3.23.11,18.57-2.57,36.92-4.23,55.35-.38,4.27-3.66,6.36-6.66,8.56-15.11,11.08-29.55,23.04-44.54,34.25-6,3.82-10.38,9.93-17.38,12.34h0Z"/>
          <path class="cls-27" d="M276.86,661.02c-21.09-.02-42.15-2.35-63.25-1.23-3.34.18-7.77-4.56-10.23,1.58-3.53-15.62-7.07-31.23-10.6-46.86,1.6-2.24,4.12-2.42,6.49-2.71,24.91-3.05,49.68-7.41,74.75-9.18,3.51-.25,6.98,1.4,10.45,0,2.4-.09,4.91-.88,7.05.97-5.12-.78-5.74,3.04-6.33,6.51-2.41,14.13-4.69,28.29-7.01,42.43-.46,2.83-.89,5.66-1.33,8.49h.01Z"/>
          <path class="cls-28" d="M409.95,393.3c-11.03,8.92-23.72,15.26-35.49,23.02-4.06,2.68-8.28,5.09-12.44,7.62l-.31-.22c-2.36-1.75-2.97-4.36-3.19-7.03-3.07-36.38-6.6-72.71-9.25-109.12.15-1.26.41-2.41,2.07-2.29,19.53,29.34,39.07,58.69,58.6,88.02h.01Z"/>
          <path class="cls-25" d="M318.12,87.09c12.96-2.66,25.92-5.29,38.85-7.98,1.71-.35,3.36-.99,5.05-1.51,4.7.2,9.14-1.22,13.64-2.23,3.08-.69,4.76-.19,5.41,3.47,3.16,17.54,6.6,35.03,9.97,52.54.6,3.08-.65,4.37-3.67,4.87-4.55.76-9.03,1.91-13.55,2.9-1.72.39-3.44.79-5.16,1.18-9.69,2.66-19.14,6.21-29.14,7.72-3.25.49-6.49,1.45-9.62-.44-2.65-2.42-3.03-5.81-3.7-9.03-2.53-12.13-4.81-24.31-7.07-36.48-.36-5-3.19-9.83-1.04-15.01h.01Z"/>
          <path class="cls-14" d="M184.96,321.12c-.5-.44-1-.88-1.51-1.32,7.61-5.73,15.23-11.46,22.84-17.2,3.75-2.31,6.82.05,9.93,1.56,18.33,8.88,36.67,17.73,55.12,26.34,7.54,4.25,16.01,6.79,22.81,12.4.36.57.57,1.18.62,1.86-2.85,8.74-9.05,15.51-13.75,23.16-.93,1.52-2.54,2.42-4.4,2.66-9.93-2.16-18.05-8.22-26.82-12.79-19.45-10.12-38.72-20.59-58.1-30.85-2.66-1.41-5.96-2.2-6.75-5.83h0Z"/>
          <path class="cls-27" d="M266.23,730.3c3.52-23.11,7.06-46.22,10.58-69.33,8.67-.52,16.75-3.81,25.19-5.45,9.3-1.8,18.45-4.38,27.67-6.62-10.64,25.84-21.28,51.67-31.93,77.52-.48,1.68-1.75,2.56-3.29,2.91-7.95,1.86-16.05,2.48-24.18,2.86-1.55.07-3.02-.58-4.05-1.9h0Z"/>
          <path class="cls-27" d="M154.97,513.1c15.21.39,29.97,4.17,44.97,6.12,14.14,1.83,28.05,5.28,42.36,5.93,5.76-2.22,11.22.62,16.83,1.04,12.76,3.61,24.57,9.62,36.89,14.37,2.41.93,4.98,1.95,6,4.77-5.32,2.33-10.97,1.41-16.28.75-5.31-.67-10.55-.77-15.84-.95-26.03-.9-52.1-1.26-78.08-2.97-11.5-.76-22.95-.72-34.41-1.02-3.16-.09-5.84-.23-5.9-4.3,1.15-7.91,2.31-15.82,3.46-23.73h.01Z"/>
          <path class="cls-6" d="M220.15,738.15c12.7-1.97,25.4-3.97,38.11-5.92,2.16-.33,4.32-.51,6.49-.76,4.72-.25,5.49,3.73,6.82,6.76,4.33,9.81,8.44,19.72,12.85,29.49,1.73,3.51,4.88,4.03,8.33,4.08,7.67.11,15.37-.18,23.04.16,2.79.13,6.42-.81,7.57,3.36-12.73.09-25.48.18-38.21.27-1.22.53-2.42,1.16-3.78,1.16-20.98.04-41.97.5-62.89-1.52-2.03-.19-3.9-.77-5.37-2.28.31-2.26.63-4.52.94-6.78,2.04-9.34,4.08-18.68,6.12-28.01h0Z"/>
          <path class="cls-10" d="M349.97,15.22c-14.42,2.19-28.07,7.28-42.06,11.13-18.87,5.21-37.57,11.06-56.34,16.63-2.17-1.92-3.91-4.14-5.07-6.82-4.21-9.68-9.02-19.09-13.08-28.83-.91-2.18-2.33-4.39-.6-6.82,14.81,1.74,29.61,3.48,44.41,5.24,16.76,2,33.55,3.83,50.28,6.12,7.49,1.02,15.23.59,22.47,3.36h-.01Z"/>
          <path class="cls-10" d="M271.44,332.01c-2.59.26-4.7-1.08-6.87-2.13-17.12-8.35-34.25-16.68-51.38-25.05-2.2-1.07-4.33-2.25-6.88-2.23,2.87-9.62,5.21-19.36,6.74-29.29,24.09,11.27,47.47,24.02,71.9,34.57.21.25.44.48.66.73.28.6.43,1.22.48,1.88-3.54,8.08-6.76,16.4-14.63,21.54h-.01Z"/>
          <path class="cls-14" d="M206.46,68.45c-1.29-4.58-3.85-1.52-5.56-.67-14.89,7.3-29.69,14.78-44.54,22.16-2.17,1.08-4.46,1.91-6.72,2.8-3.28,1.29-3.07-1.15-3.3-3.13,1.64-13.49,3.36-26.96,4.89-40.47.42-3.73,2.18-5.89,5.58-7.34,6.87-2.94,13.62-6.17,20.42-9.28,5.64,2.15,8.82,7.21,13.05,11.02,5.93,5.35,10.51,11.92,16.03,17.67,1.89,1.96,4.64,4.74.16,7.24h-.01Z"/>
          <path class="cls-17" d="M206.46,68.45c2.53-3.14-.27-4.73-1.96-6.56-9.07-9.8-18.19-19.58-27.28-29.35.35-.13.72-.23,1.08-.3,11.07-2.18,21.66,1.25,32.4,2.86,1.51.22,2.81,1.21,3.59,2.65,6.65,21.71,13.66,43.32,18.85,65.46.39,2.03-.75,3.42-2.15,4.48-8,6.11-15.78,12.49-23.96,18.32-1.38.98-2.95,2.02-4.84,1.02,1.43-19.52,2.85-39.05,4.28-58.57h0Z"/>
          <path class="cls-14" d="M351.35,305.27c-.39.51-.78,1.02-1.17,1.55.12,3.27-1.47,5.95-3.13,8.54-7.39,11.53-14.19,23.42-21.34,35.1-1.59,2.6-2.86,5.58-6.24,6.48-9.14-2.96-18.21-6.04-25.33-12.96l.05.13c-1.29-2.96.63-5.09,1.93-7.33,3.34-5.74,6.88-11.37,10.11-17.18,4.14-5.92,8.04-12,11.67-18.24,1.33-2.29,2.7-4.55,5.55-5.22,9.3,3.05,18.61,6.1,27.9,9.15h0Z"/>
          <path class="cls-32" d="M284.94,307.88c-8.67-13.3-17.19-26.7-26.08-39.86-3.26-4.81-2.03-6.14,3.25-6.67,4.09-.42,8.33-.54,12.17-2.42,10.04-1.79,20.1-3.58,30.14-5.37.05,9.18.12,18.36.17,27.54-.23,6.2-4.8,10.2-7.7,15.04-1.92,3.21-3.99,6.36-6.3,9.32-1.42,1.83-2.71,4.36-5.83,2.74l.17-.34v.02Z"/>
          <path class="cls-25" d="M282.09,767.59c-4.02-9.31-8.01-18.64-12.08-27.92-1.31-2.99-2.05-6.4-5.26-8.2.49-.39.99-.78,1.48-1.17,10.59-.59,21.12-1.65,31.52-3.87,9.36,12.32,18.98,24.43,29.24,36.03.54,1.26,1.1,2.52,1.64,3.78-1.88,1.91-4.28,2.34-6.75,2.03-13.25-1.65-26.53-.72-39.79-.66h0Z"/>
          <path class="cls-14" d="M214.29,37.73c-12-1.84-23.99-3.67-35.98-5.51,17.84-11.14,35.91-21.89,54.51-31.72,5.34,11.91,10.69,23.83,16,35.75.98,2.21,1.84,4.48,2.75,6.74-12.4-1.92-24.73-4.39-37.29-5.25h0Z"/>
          <path class="cls-19" d="M284.48,602.62c-11.82,2.7-23.92,3.37-35.88,5.04-15.3,2.12-30.61,3.99-45.93,5.93-3.29.42-6.59.63-9.88.93-2.91-8.72-4.22-17.82-6.11-26.77,24.78,3.77,49.55,7.54,74.33,11.3,7.82,1.18,15.66,2.37,23.48,3.57h-.01Z"/>
          <path class="cls-13" d="M135.61,180.23c4.52-5.52,10.5-9.24,16.15-13.4,5.35,1.42,4.97,6.7,6.84,10.41,1.15,2.27,1.43,4.96,1.36,6.42-.49-4.34-1.95-10,1.63-15.07,4.08-1.74,4.8,2.03,6.12,4.1,6.33,10.02,12.21,20.33,18.58,30.35,2.15,7.69,4.94,15.14,7.71,22.61,1.07,2.87,2.57,5.74.86,8.91-.21.15-.43.29-.64.42-19.53-18.25-39.08-36.5-58.61-54.75h0Z"/>
          <path class="cls-17" d="M515.06,347.96c8.86,2.69,11.6,8.42,8.22,17.19-4.84,12.48-9.7,24.95-14.56,37.41-6.23-1.76-12.47-2.62-18.73-.14-.11-1.26-.22-2.51-.33-3.77-.45-.63-.7-1.32-.76-2.09.57-8.12.3-16.33,2.59-24.26,1.48-2,3.76-2.07,5.92-2.46,6.65-1.18,6.87-1.57,5.16-8.27-.88-3.44-2.05-6.78-2.85-10.24-.59-2.57-1.42-5.2.42-7.66,5.99-2.09,10.73.15,14.92,4.28h0Z"/>
          <path class="cls-26" d="M515.06,347.96c-4.89-1.31-9.78-2.62-14.67-3.93-3.13-1.33-3.78-3.74-2.88-6.78,2.55-17.7,3.39-35.62,6.83-53.21,6.32-2.47,12.25-2.46,17.4,2.69-2.22,20.41-4.45,40.82-6.67,61.23h-.01Z"/>
          <path class="cls-12" d="M497.5,337.24c.96,2.26,1.92,4.53,2.88,6.78,1.7,6.58,2.85,13.35,5.23,19.66,2.38,6.31-.39,7.9-5.67,8.21-2.4.14-4.82-.03-7.25-.05-3.37-1.55-3.65-4.42-3.73-6.74-2.89,5.04-3.81,12.4-9.93,16.66-7.16-6.22-13.77-12.81-14.54-23.08,10.99-7.15,21.99-14.29,32.98-21.44h.01Z"/>
          <path class="cls-10" d="M464.52,358.69c3.74,8.27,9.57,15.18,14.62,22.6,6.02,3.63,9.87,8.74,10.88,15.82-.13.51-.25,1.04-.37,1.55-4.37,3.54-8.74,7.09-13.11,10.62-7.06-11.23-14.12-22.45-21.16-33.7-1.52-2.42-2.88-4.94-4.32-7.42,4.48-3.16,8.97-6.32,13.45-9.48h.01Z"/>
          <path class="cls-10" d="M284.77,308.22c3.78-.8,4.57-4.43,6.37-6.99,4.63-6.6,8.99-13.4,13.46-20.12,5.49,6.01,12.69,9.84,18.85,15.02-5.53,7.75-9.09,16.79-15.69,23.84-2.49,1.68-4.62.11-6.66-.93-5.61-2.82-11.41-5.34-16.23-9.53-.03-.43-.05-.85-.1-1.28h-.01Z"/>
          <path class="cls-26" d="M489.97,402.42c3.14-5.25,14.04-5.17,18.73.14-.1,1.09-.2,2.19-.29,3.28-1.15,14.72-1.14,14.61-15.79,12.73-3.41-.44-4.62-1.63-4.03-5.04.63-3.67.94-7.41,1.39-11.11h-.01Z"/>
          <path class="cls-2" d="M521.73,286.72c-5.63-2.02-11.66-1.47-17.4-2.69,2.42-8.76,6.96-16.67,10.17-25.13.28-.73.89-1.31,2.12-3.08,1.78,11.1,4.5,20.8,5.11,30.9h-.01Z"/>
          <path class="cls-31" d="M162.41,168.2c-.57,5.71-1.14,11.42-1.85,18.57-3.26-7.38-6.03-13.65-8.8-19.94,12.85-10.1,25.71-20.17,38.56-30.29,3.99-3.14,7.92-6.35,11.87-9.53,10.72-7.42,20.99-15.41,30.94-23.83,19.92-3.83,39.84-7.66,59.76-11.46,1.72-.33,3.48-.43,5.23-.64,3.59,4.23,3.26,9.67,4.55,14.6,2.78,12.67,4.76,25.48,7.16,38.21.45,2.38.84,4.78-.34,7.1-2.21,2.9-5.59,3.26-8.79,3.97-14.95,3.37-30.18,5.24-45.26,7.83-2.75-.1-5.42.29-8,1.3-3.24-7.66-3.63-15.99-5.52-23.97-3.47-2.33-3.47-5.79-3.19-8.84-8.51,5.04-17.89,9.21-27.32,13.3-5.2,2.42-10.3,5.04-15.37,7.72-11.19,5.34-22.07,11.31-33.62,15.88h-.02Z"/>
          <path class="cls-3" d="M308.6,150.81c-2.58-15.03-5.17-30.05-7.76-45.08,6.1-3.94,12.48-6.54,19.91-4.26,3.8,12.35,4.95,25.24,7.9,37.78.6,2.55,1.07,5.15,1.6,7.72,3.2,2.18,3.54,4.8,1.22,7.85,1.29,3.63,2.5,7.26-.2,10.82-4.95,2.97-10.01,4.81-15.55,1.44-1.43-.06-2.85-.12-4.28-.18-2.95-5.01-6.15-9.97-2.83-16.08h0Z"/>
          <path class="cls-21" d="M353.9,197.42c.03,2.07-1.34,2.48-3,2.81-18.17,3.63-36.34,7.28-54.48,11.01-1.95.41-3.48.63-4.18-1.69-.94-3.08,1.55-3.36,3.33-3.73,17.95-3.63,35.92-7.17,53.91-10.67,1.91-.37,4.16-.78,4.44,2.27h-.01Z"/>
          <path class="cls-9" d="M308.6,150.81c.94,5.36,1.89,10.72,2.83,16.08-8.41-12.08-20.33-6.68-31.19-6.15-8.28.41-16.53,1.37-24.8,2.08,15.32-4.69,31.2-6.84,46.74-10.55,2.13-.51,4.27-.97,6.4-1.46h.01Z"/>
          <path class="cls-18" d="M331.46,154.81c-.01-2.68-.1-5.35-1.22-7.85,11.04-.95,21.67-4.12,32.56-5.88,1.95-.32,3.92-.5,5.88-.74-10.88,4.71-21.74,9.46-32.67,14.05-1.33.57-3.02.3-4.55.43h0Z"/>
          <path class="cls-21" d="M315.71,167.06c5.27.47,10.26-2.22,15.55-1.44.3,2.26-1.34,3.67-2.48,5.2-1.46,1.97-2.18,5.96-5.21,4.94-3.54-1.17-7.12-3.32-8.88-7.13-.14-.3.65-1.04,1.01-1.57Z"/>
          <path class="cls-7" d="M320.74,101.47c-6.64,1.42-13.27,2.84-19.91,4.26-1.68-4.74-2.76-9.59-2.71-14.65,6.56-1.85,13.16-3.5,19.99-3.99,1.59,4.66,2.72,9.4,2.63,14.38Z"/>
          <path class="cls-4" d="M315.69,478.37c-.13.97-.27,1.94-.39,2.91-3.81,2.48-7.56.62-10.63-1.08-8.57-4.73-16.6-4.34-24.88.57-2.99,1.77-6.31,3.14-9.79,3.91-.64.17-1.29.23-1.96.23-5.66-1.43-11.59-2.17-16.19-6.33-22.57-8.34-45.07-16.83-68.01-24.12-.04-30.59-.09-61.19-.13-91.78,2.49-1.48,5.17-1.09,7.78-.62,35.56,6.38,71.3,11.62,106.73,18.71,2.19.25,4.39.46,6.55.9,5.5.6,10.88,1.89,16.3,2.88,8.85,1.62,10.88,4.27,9.45,13.26-2.71,17.01-5.23,34.07-7.97,51.09-.92,5.67-1.87,11.34-2.62,17.04-.58,4.43-1.79,8.65-4.24,12.44Z"/>
          <path class="cls-16" d="M299.5,382.68c-22.58-3.78-45.16-7.48-67.73-11.36-16.04-2.75-32.04-5.75-48.07-8.65-.09-11.84-.2-23.67-.23-35.5,0-2.1-.67-4.46,1.48-6.07,30.69,16.26,61.37,32.51,92.06,48.77,8.49.54,15.02,5.48,21.79,9.83.92.59,1.18,1.8.7,2.97h0Z"/>
          <path class="cls-12" d="M302.03,545.32c-14.21-5.74-28.42-11.5-42.63-17.24,3.59-11.25,3.77-23.07,5.85-34.57.62-3.44.52-7.14,3.58-9.67l.14-.33c14.98-.37,29.61,1.39,43.6,7.07.46.51.92,1.04,1.37,1.55,1.8,2.07,1.41,4.53,1.09,6.9-1.81,13.26-4.18,26.44-6.17,39.68-.36,2.43-1.09,4.7-2.74,6.59-.06.3-.09.6-.06.91-.22.58-.61.7-1.14.39-.96-.42-1.92-.83-2.88-1.25h.01Z"/>
          <path class="cls-19" d="M304.91,546.57c.37-.14.76-.27,1.14-.39,17.72-.38,35.43-.77,53.14-1.15h7.93c.2.47.41.95.61,1.42-22.76,13.32-45.52,26.64-68.27,39.96,1.81-13.28,3.64-26.56,5.45-39.84Z"/>
          <path class="cls-12" d="M162.41,168.2c.1-1.18.61-2.1,1.73-2.63,10.44-4.81,20.88-9.63,31.32-14.43,2.39.83,3.17,3.05,4.31,4.96,1.74,6.4,6.87,11.62,6.58,18.74,2.2,5.36,4.41,10.72,6.61,16.08-7.07,6.56-16.11,9.28-24.78,12.72-1.04.41-2.15.12-3.1-.56-7.3-7.05-10.64-16.69-16.28-24.84-2.25-3.27-4.27-6.69-6.4-10.04h.01Z"/>
          <path class="cls-32" d="M185.09,203.1c9.29-4.06,18.57-8.11,27.86-12.17-5.13,13.73-10.26,27.47-15.4,41.19-.47,1.25-1.06,2.44-2.69,2.44-2.83-7.91-5.58-15.85-8.56-23.71-.97-2.56-1.52-5.06-1.21-7.76h0Z"/>
          <path class="cls-24" d="M206.35,174.85c-3.17-5.97-6.37-11.9-8.12-18.49,3.89-5.37,8.81-7.21,14.69-5.48,1.99,3.93,3.74,8.01,6.02,11.75,2.53,4.13,1.38,6.43-2.83,8.04-3.3,1.26-6.51,2.78-9.76,4.17Z"/>
          <path class="cls-32" d="M210.36,143.03c7.35-3.5,14.69-7.01,22.05-10.48,7.13-3.36,7.18-3.32,8.66,4.41.2,1.08.57,2.12.86,3.18-9.63,3.17-18.9,7.44-28.91,9.49-3.11-1.3-4.49-3.3-2.66-6.6h-.01Z"/>
          <path class="cls-5" d="M210.36,143.03l2.66,6.6c-.02.42-.05.83-.11,1.25-5.31.74-9.99,3.12-14.69,5.48-1.64-1.36-2.36-3.2-2.75-5.21,4.34-3.84,9.9-5.48,14.89-8.11h0Z"/>
          <path class="cls-8" d="M213.09,772.94c22.07,1.26,44.17,1.37,66.27,1.38,1.92,0,3.84.82,5.76,1.26-.04,10.07,1.13,9.22-9.28,8.87-18.32-.62-36.65-.91-54.95-1.78-8.65-.42-8.62-.88-7.81-9.74h.01Z"/>
          <path class="cls-33" d="M282.09,767.59c.97-3.8,4.11-2.64,6.51-2.65,13.35-.06,26.73-.44,40.03,1.28-.43,3.81,3.92,10.39-5.28,9.09-10.57-2.59-21.3-.78-31.94-1-5.17-.11-8.46-1.33-9.32-6.72h0Z"/>
          <path class="cls-10" d="M268.82,483.83c-1.78,13.28-3.61,26.55-5.31,39.84-.33,2.63-1.69,3.94-4.12,4.41-5.8-.41-11.52-1.25-17.09-2.94,3.18-15.52,6.36-31.04,9.54-46.56,5.92.9,11.42,3.16,16.98,5.25h-.01Z"/>
          <path class="cls-16" d="M315.69,478.37c4.11-26.57,8.11-53.16,12.39-79.71,1.6-9.91,1.23-10.58-8.79-12.15-5.37-.84-10.95-1.07-15.87-3.86-.52-3.66,1.78-6.29,3.6-8.93,4.05-5.92,6.44-13.03,12.45-17.56,10.23-16.45,20.46-32.9,30.69-49.35,4.1,8.48,2.57,17.79,3.59,26.66,2.87,25.18,4.63,50.5,6.82,75.77.42,4.82.77,9.65,1.14,14.49-14.74,18-29.46,36-44.23,53.98-.35.43-1.18.46-1.79.67h.01Z"/>
          <path class="cls-17" d="M306.12,545.28c1.42-17.89,5.06-35.46,7.82-53.16.62.21,1.29.32,1.86.64,17,9.37,16.89,9.33,9.72,27.2-4.14,10.31-7.7,20.91-19.41,25.33h0Z"/>
          <path class="cls-17" d="M312.57,490.57c-14.69-1.44-29.13-4.33-43.6-7.07,2.78-1.29,5.68-2.34,8.29-3.9,9.39-5.6,18.71-7.24,28.66-1.1,2.68,1.65,6.23,1.89,9.39,2.78-1.88,2.81-.18,6.67-2.73,9.29h-.01Z"/>
          <path class="cls-15" d="M367.23,97.59c1.38,6.86,2.69,13.75,4.16,20.59.64,2.98.46,4.78-3.3,5.36-8.26,1.28-16.29,4.17-24.84,3.43-1-5.55-1.36-11.18-1.79-16.78-.39-5.12,1.71-8.48,7.54-7.97,2.24,1.01,1.99,3.11,2.11,5.03.14,2.05.62,3.92,2.8,4.71,1.36.49,2.59.13,3.54-.92,1.8-1.96,1.28-3.97-.04-5.92-.36-.53-.77-1.06-1.15-1.59-2.75-3.89.5-4.89,3.03-5.93,2.56-1.06,5.29-2.17,7.93,0h.01Z"/>
          <path class="cls-22" d="M350.13,104.41c-4.25-1.74-6.64-.46-6.71,4.28-.1,6.1-.11,12.19-.15,18.3-2.89-7.62-3.16-15.82-5.07-23.65-.81-3.31.98-4.88,4.03-5.47,6.66-1.3,13.32-2.66,19.98-3.97,3.01-.6,5.39-.28,5.03,3.71-3.15.85-6.35,1.55-9.44,2.59-2.8.95.27,1.71.25,2.59-2.22,2.62-4.92,2.83-7.92,1.62h0Z"/>
          <path class="cls-30" d="M319.47,356.16c-4.54,9.33-10.43,17.83-16.04,26.5-1.31.43-2.62,1.87-3.94.03-6.4-6.19-15.28-8.04-22.49-12.8,6.6-8.05,11.5-17.22,17.1-25.92,8.45,4.07,16.91,8.12,25.36,12.19h.01Z"/>
          <path class="cls-26" d="M284.87,309.5c8.42,1.74,15.06,7.4,22.89,10.46-3.2,8.8-9.64,15.77-13.57,24.15-7.34-4.48-15.7-7.05-22.74-12.08,4.47-7.5,10.39-14.15,13.43-22.52h-.01Z"/>
          <path class="cls-20" d="M490.02,397.11c-3.63-5.27-7.25-10.55-10.88-15.82,3.11-6.02,6.22-12.04,9.5-18.38,2.48,3.01,2.96,6.12,4.07,8.93-.32,8.49-.46,16.98-2.69,25.27Z"/>
          <path class="cls-12" d="M286.09,113.67c1.67,7.77,3.28,15.55,5.02,23.31.61,2.7-.86,3.7-3.03,4.11-9.96,1.87-19.94,3.66-29.91,5.48-1.45-6.04-.95-12.2-.99-18.31-.06-9.23,2.76-11.77,12.51-11.94,2.96.68,2.59,3.12,2.73,5.28.13,2.05.43,4.02,2.74,4.81,1.4.48,2.66.09,3.6-.98,1.56-1.79,1.01-3.69.06-5.55-.69-1.37-1.63-2.67-1.17-4.36,2.29-3.04,5.19-3.28,8.45-1.85h-.01Z"/>
          <path class="cls-18" d="M286.09,113.67c-2.39,1.85-6.02.23-8.12,2.91-1.77,1.79-3.71,2.67-6.1,1.11-2.81.45-5.61.94-8.43,1.32-2.68.36-3.68,2-3.83,4.53-.45,7.67-.95,15.36-1.43,23.04-3.01-9.24-3.96-18.9-5.84-28.38-.5-2.52.67-3.03,2.69-3.42,9.12-1.74,18.22-3.51,27.32-5.39,4.01-.83,3.81,1.72,3.76,4.29h-.01Z"/>
          <path class="cls-20" d="M195.5,182.99c-7.19-5.05-14.4-10.1-21.87-15.34.85-.7,1.15-1.05,1.53-1.25,7.07-3.92,12.44-2.32,16.12,4.79,1.8,3.51,3.52,7.06,5.27,10.59-.35.41-.69.8-1.05,1.21h0Z"/>
          <path class="cls-29" d="M350.13,104.41c2.38-1.81,5.11-1.89,7.92-1.62,3.49,2.63,4.48,5.98,2,9.63-1.96,2.88-5.03,3.5-8.04,1.61-3.89-2.43-3.98-5.88-1.87-9.62h-.01Z"/>
          <path class="cls-23" d="M271.88,117.69c2.03-.37,4.07-.74,6.1-1.11,3.27,1.6,5.02,4.03,4.31,7.82-.45,2.39-2.01,3.84-4.16,4.62-2.52.91-4.86.19-6.53-1.75-2.73-3.17-1.83-6.45.29-9.59h0Z"/>
        </g>
      </g>
    </g>
  </g>
</svg>