<?xml version="1.0" encoding="UTF-8"?>
<svg xmlns="http://www.w3.org/2000/svg" version="1.1" viewBox="0 0 636.44 800">
  <defs>
    <style>
      .cls-1 {
        fill: #2b2b2b;
      }

      .cls-2 {
        fill: #4f9194;
      }

      .cls-3 {
        fill: #84c7ca;
      }

      .cls-4 {
        fill: #66a6a8;
      }

      .cls-5 {
        fill: #e2c9b7;
      }

      .cls-6 {
        fill: #c4d1d6;
      }

      .cls-7 {
        fill: #515453;
      }

      .cls-8 {
        fill: #549cb5;
      }

      .cls-9 {
        fill: #549db5;
      }

      .cls-10 {
        fill: #3d7789;
      }

      .cls-11 {
        fill: #9cdcda;
      }

      .cls-12 {
        fill: #438194;
      }

      .cls-13 {
        fill: #a3afa4;
      }

      .cls-14 {
        fill: #d9bca6;
      }

      .cls-15 {
        fill: #2d2c2c;
      }

      .cls-16 {
        fill: #bc977e;
      }

      .cls-17 {
        fill: #a28c7c;
      }

      .cls-18 {
        fill: #8f7f74;
      }

      .cls-19 {
        fill: #886a57;
      }

      .cls-20 {
        fill: #397477;
      }

      .cls-21 {
        fill: #56979a;
      }

      .cls-22 {
        fill: #4f5252;
      }

      .cls-23 {
        fill: #fefefe;
      }

      .cls-24 {
        fill: #2e2d2d;
      }

      .cls-25 {
        fill: #6e7073;
      }

      .cls-26 {
        fill: #dbe8ee;
      }

      .cls-27 {
        fill: #4f9093;
      }

      .cls-28 {
        fill: #82aca7;
      }

      .cls-29 {
        fill: #72a6a9;
      }

      .cls-30 {
        fill: #856754;
      }
    </style>
  </defs>
  <!-- Generator: Adobe Illustrator 28.7.1, SVG Export Plug-In . SVG Version: 1.2.0 Build 142)  -->
  <g>
    <g id="Layer_1">
      <g id="Layer_1-2" data-name="Layer_1">
        <g>
          <path class="cls-14" d="M423.86,195.36c-.35,12.21,2.3,24.13,3.6,36.18,2.18,20.21,4.68,40.38,7.33,60.53.51,3.9-1.02,5.2-4.28,5.71-23.33,3.65-46.68,7.23-69.99,10.96-4.2.67-8.95.01-12.11,3.99-15.77,3.03-31.69,5.07-47.6,7.21-1.75.24-3.51.24-5.25-.25-4.05-1.29-5.07-4.67-5.56-8.31-6.21-45.3-12.04-90.64-18.38-135.91-.46-3.28.27-6.67-.77-9.91.37-6.22,5.5-6.91,9.85-8.09,16.65-4.54,33.15-9.55,49.77-14.2,25.06-7.05,50.05-14.28,75.05-21.54,2.33-.67,4.63-1.48,7.09-1.58.75.03,1.37.32,1.88.86.05.46.1.91.15,1.37,4.11,7.44,3.35,15.84,4.53,23.83,1.84,12.42,3.2,24.92,4.77,37.39.5,3.97.6,7.86-.11,11.78h.02Z"/>
          <path class="cls-4" d="M372.22,635.09c1.61,2.04.96,4.43,1.06,6.7-1.95,2.41-4.77,3.06-7.54,3.84-36.57,10.33-72.65,22.31-109.24,32.63-1.5.43-2.87,1.17-4.35,1.61-.69.24-1.4.3-2.12.21-.69-.19-1.33-.51-1.9-.96-3-8.92-6.02-17.82-9.02-26.74,23.5-29.39,46.83-58.92,70.17-88.43,6.6-8.34,13.07-16.77,19.87-24.92,3.24-3.88,4.3-6.77.16-10.28,2.17-2.8,5.14-2.07,8.01-1.84,1.49.41,2.72,1.19,3.73,2.33,4.21,6.92,5.53,14.86,7.71,22.46,7.25,25.25,15.49,50.2,21.92,75.69.24,2.62.29,5.27,1.53,7.69h.01Z"/>
          <path class="cls-22" d="M330.91,144.95c-17.58,6.21-35.74,10.42-53.55,15.83-2.16.65-5.12.48-5.06,4.01-.53.49-1.13.87-1.79,1.15-35.72,8.7-70.92,19.25-106.13,29.76-2.68.8-5.52,2.16-8.09-.4,9.48-12.39,18.97-24.79,28.45-37.18,1.92-6.08,6.13-10.7,10.11-15.41,6.69-7.9,12.04-16.98,20.32-23.5,13.09-6.07,26.87-10.34,40.29-15.52,24.6-9.5,49.25-18.87,74.14-27.6,2.93-1.03,6.17-3.32,9.09.29,3.01,8.36.07,16.68-.34,24.97-.55,10.58-1.8,21.14-2.8,31.7-.41,4.29-.34,9.01-4.65,11.9h0Z"/>
          <path class="cls-3" d="M337.39,75.69c-27.24,9.09-53.86,19.88-80.78,29.85-13.89,5.14-27.72,10.41-41.58,15.63-2.59.45-4.16-1.18-5.55-2.9-10.55-13-20.37-26.58-30.35-40.02-1.19-1.59-1.43-3.7-2.62-5.32.01-.88.02-1.76.04-2.64,5.74-2.67,11.48-5.35,17.22-8.02,17.2-6.71,33.86-14.67,50.52-22.57,13.65-5.05,26.69-11.47,39.91-17.51,6.26-6.35,14.58-8.27,22.74-10.53,4.81-1.84,9.61-3.68,14.42-5.52,3.31-1.4,4.16,1.24,4.98,3.31,1.2,2.99,1.81,6.16,1.27,9.42-3.24,3.59-4.81,7.4-3.3,12.53,1.58,5.38-.49,9.5-6.14,11.41-1.45.49-2.89,1.12-4.08,2.14-1.6,1.35-1.71,3.04-.93,4.79.87,1.96,2.5,1.35,4,.98.86-.21,1.67-.6,2.51-.83,6.37-1.81,8.07-1.17,9.64,5.09,1.07,4.29,3.06,7.13,7.33,8.31,2.62,3.61,3.58,7.58,2.57,11.96-.49.66-1.11.81-1.85.45h.01Z"/>
          <path class="cls-16" d="M271.25,165.03c.35-.07.71-.15,1.06-.22,1.75,11.74,3.62,23.47,5.25,35.23,2.57,18.54,4.98,37.11,7.44,55.67,2.43,18.35,4.85,36.68,7.22,55.03.4,3.06.04,6.39,4.07,7.39-4.13,6.01-9.81,2.63-13.2,3.23,12,3.82,25.35,9.42,38.91,14.43,5.11,1.89,10.65,3.07,14.71,7.17,1.21,2.13.83,4.31,0,6.38-5.6,13.92-10.68,28.05-16.45,41.91-.43,1.03-1.06,1.94-1.86,2.7-2.79,1.86-4.64.06-6.2-1.84-13.72-16.8-27.4-33.61-41.04-50.46-1.13-1.39-1.9-2.98-1.8-4.86-12.8-15.99-25.6-31.99-38.4-47.98-.29-9.99,2.57-19.46,4.84-29.44.18-.42-1.17.14-.29.24.41.04.52.27.26.6-4.75,6.05-11.71,8.89-18.13,12.51-9.28-11.5-18.56-23.01-27.83-34.51.3-2.3,2.08-3.31,3.83-4.23,8.02-4.21,15.9-8.69,23.83-13.06,4.3-2.37,7.48-1.22,10.07,2.83,3.9,6.1,7.24,12.57,11.66,18.81,2.61-2.04,3.06-4.74,3.94-7.08,7.72-20.48,15.17-41.06,22.9-61.54,1.22-3.22,1.68-6.98,5.21-8.88h0Z"/>
          <path class="cls-27" d="M329.43,529.75c1.33.04,2.66.12,3.99.12,3.69,0,4.4,1.09,1.95,4.19-9.76,12.27-19.35,24.67-29.08,36.98-14.38,18.2-28.81,36.35-43.2,54.53-5.89,7.44-11.69,14.97-17.69,22.32-1.63,1.99-3.2,4.39-6.26,4.51-11.67-36.38-23.35-72.76-35.02-109.14,1.25-4.37,5.13-4.44,8.5-4.9,13.57-1.87,27.24-2.83,40.87-4.16,21.76-2.12,43.53-4.07,65.3-6.16,3.68-.35,7.52-1.4,10.66,1.72v-.02Z"/>
          <path class="cls-11" d="M338.84,75.25c-1.75-3.67-1.95-7.7-2.64-11.6,3.73-1.62,3.03-4.49,2.44-7.63-1.39-7.48-.95-7.87,6.38-7.07,1.09.12,2.3.58,2.94-.57.73-1.3.1-2.57-.82-3.6-1.36-1.53-3.16-2.41-5.04-3.03-5.14-1.69-8.23-5.24-8.7-10.51-.45-5.06-4.81-7.68-6.49-11.88-2.96-3.93.07-10.38-5.52-13.22,2.74-2.5,4.8.3,7.14.9,4.44,1.13,8.14,4.33,12.86,4.64,11.28,6.7,23.9,10.32,35.81,15.56,14.37,6.32,28.93,12.23,43.51,18.05,5,2,4.89,5.39,4.16,9.66-3.45,20.24-6.79,40.49-10.11,60.75-.29,1.74-.17,3.54-.25,5.31-.46.02-.91.03-1.36.05-3.04.17-5.54-1.19-8.02-2.69-20.56-12.57-41.01-25.29-61.45-38.05-2.02-1.26-4.45-2.2-4.84-5.06h-.01Z"/>
          <path class="cls-6" d="M434.59,767.05c.32,15.59,13.34,12.13,22.15,14.45,7.98,2.1,16.26,3.05,25.54,4.7-5.86,3.5-11.44,2.39-16.47,3.07-24.25,3.24-48.61,5.59-72.91,8.45-16.85,1.98-33.63,4.7-50.51,6.19-8.05.71-16.29-.56-24.43-1.18-15.39-1.15-30.77-2.51-46.15-3.74-21.77-1.74-43.53-3.47-65.3-5.14-13.43-1.03-26.84-2.34-40.29-2.69-7.99-.2-15.74-2.64-23.92-2.67,13.63-2.28,27.25-4.58,40.88-6.83,24.36-4.02,48.73-8,73.1-12,3.39,4.01-1.21,7.46-.77,11.27-1.11,4.76,1.2,6.38,5.61,6.39,12.75.04,25.52.07,38.27-.02,4.19-.03,7.02-1.24,5.6-6.28-.75-4.4-2.93-8.3-4.27-12.49-.82-2.61-2.59-5.36.2-7.93,17.47-5.22,34.92-4.61,52.33.22,1.29.36,2.48.94,3.44,1.92,2.42,3.72,1.86,7.84,1.62,11.91.12,3.6,2.62,4.32,5.47,4.35,21.05.27,42.1.24,63.15.03,3.18-.03,4.91-1.35,5.15-4.7.19-2.6.11-5.41,2.48-7.31v.02Z"/>
          <path class="cls-3" d="M231.28,355.42c.89-3.23,3.81-4.12,6.33-5.39,7.9-4,15.93-7.77,23.7-12.01,4.53-2.47,5.88-1.94,5.83,3.51-.22,23.5-.15,47.01.03,70.51.01,1.46-2.61,5.47,2.48,4.61.69-2.81,3.25-3.4,5.37-4.48,10.63-5.44,21.58-10.22,32.28-15.5,3.94-1.95,8.21-1.43,12.12-2.93,6.3-.33,12.14,1.9,18.14,3.27,10.96,2.49,21.99,4.69,32.91,7.41,5.9,5.07,8.05,11.89,8.89,19.31-.57,1.2-1.59,1.67-2.82,1.83-35.31,1.45-70.47,5.13-105.75,7.09-4.62.26-9.18,1.42-13.86,1-1.53-.2-3.06-.51-4.62-.44-5.42.25-8.2-2.61-9.03-7.72-3.76-22.96-9-45.69-11.43-68.87-.04-.42-.35-.8-.59-1.18l.02-.02Z"/>
          <path class="cls-1" d="M271.25,165.03c-10.11,27.49-20.23,54.97-30.88,83.88-5.44-9.03-10.12-16.49-14.45-24.14-2.02-3.56-3.63-4.6-7.64-2.19-9.28,5.55-18.95,10.44-28.47,15.61-11.94-13.17-22.57-27.4-33.67-41.26-.42-.51-.62-1.14.16-1.6,12.28-3.52,24.56-7.05,36.84-10.55,21.01-5.99,41.95-12.23,63.09-17.69,4.75-1.22,9.66-4.13,15.02-2.06h0Z"/>
          <path class="cls-14" d="M228.52,485.99c-17.08-1.35-34.07-3.98-51.24-4.24-1.67-.02-3.07-.42-3.54-2.28.67-2,2.17-3.28,3.87-4.38,20.73-13.51,41.35-27.21,62.15-40.63,3.31-2.14,6.62-3.54,10.53-1.82,7.61,2.67,13.76,7.87,20.52,12.01,9.79,6,19.5,12.13,29.21,18.26,2.96,1.87,6.16,3.61,7.31,7.37.66,7.58,2.19,15.21-1.26,22.56-1.81,1.57-3.99,1.86-6.23,1.7-21.16-1.53-42.28-3.57-63.41-5.53-2.82-.26-5.75-.74-7.89-3.03h-.01Z"/>
          <path class="cls-4" d="M249.79,433.65c-3.12-1.86-5.35.12-7.75,1.7-20.1,13.16-40.22,26.29-60.35,39.38-2.58,1.68-5.29,3.16-7.94,4.74-1.66-2.53.81-4.06,1.64-5.82,18.56-39.45,37.24-78.83,55.89-118.24,5.42,3.99,3.71,10.39,4.76,15.61,3.69,18.53,6.53,37.23,9.68,55.86,1.21,7.13,6.96,3.26,10.62,4.44-.95,4.25-4.23,1.9-6.53,2.32h0Z"/>
          <path class="cls-27" d="M251.01,678.9c5.12-3.88,11.45-4.51,17.32-6.28,33.67-10.15,67.36-20.15,101.06-30.18,1.25-.37,2.6-.44,3.9-.65,1.68,16.81,3.36,33.6,5.04,50.41-.79,1-1.86,1.41-3.1,1.44-11.42-.72-22.82-1.54-34.21-2.72-4.38-.45-8.67-1.46-13.05-1.8-10.23-.27-20.33-1.91-30.51-2.78-12.96-1.11-25.84-3-38.8-4.17-2.8-.26-5.71-.78-7.65-3.29h.01Z"/>
          <path class="cls-29" d="M228.52,485.99c17.09,1.48,34.19,2.96,51.28,4.42,8.55.73,17.11,1.37,25.66,2.05.92-.67,1.91-1.08,3.07-1.05,14.18,1.7,28.13,4.82,42.24,6.97,2.39.36,4.73.99,6.91,2.12.63.42,1.11.96,1.43,1.65-.07.77-.16,1.55-.24,2.32-5.06,9.34-10.73,18.22-18.75,25.37-.93-.46-1.86-.92-2.79-1.39-35.49-5.93-69.81-16.83-104.79-24.92-3.38-.78-7.08-1.13-9.33-4.4,1.77-4.38,3.54-8.76,5.31-13.14h0Z"/>
          <path class="cls-3" d="M223.21,499.13c31.95,7.98,63.93,15.83,95.83,24.03,6.13,1.57,12.76,1.57,18.29,5.29-2.64.38-5.53-.73-7.9,1.29-22.18,2.04-44.4,3.7-66.53,6.34-15.98,1.9-32.07,2.99-48.11,4.44-3.71.33-7.49.33-10.68,2.72-1.65-3.7,1.41-6.15,2.66-8.92,5.29-11.81,10.94-23.48,16.45-35.19h-.02Z"/>
          <path class="cls-4" d="M378.68,423.18c-2.65-5.74-5.3-11.49-7.96-17.23-2.04-1.1-3.23-2.88-4.17-4.94-8.62-19.07-17-38.25-25.74-57.26-.81-1.77-1.74-3.63-.61-5.66,9.97,1.66,18.63,4.77,24.77,14.07,19.74,29.89,40.08,59.38,60.15,89.04.71,1.05,1,2.37,1.5,3.56-2.19,1.65-4.23.43-6.22-.41-12.63-5.32-24.69-11.88-37.23-17.39-1.87-.82-3.39-2.04-4.5-3.77h.02Z"/>
          <path class="cls-14" d="M378.68,423.18c14.49,5.2,27.72,13.15,41.89,19.05,2.02.84,4.03,1.68,6.05,2.51,3.16,8.02-.52,15.59-1.57,23.33-.17,1.24-1.41,1.56-2.52,1.82-15.95,3.56-31.9,7.13-47.84,10.69-.27-.21-.53-.43-.81-.64-3.34-6.85-3.06-14.6-5.42-21.7.11-2.1.52-4.18.28-6.3.98-7.83,3.89-15.16,5.73-22.77.46-1.9,1.24-3.75,3.26-4.63.32-.46.64-.91.96-1.37h0Z"/>
          <path class="cls-23" d="M318.76,394.91c-11.46,2.96-21.51,9.23-32.24,13.89-5.69,2.47-11.25,5.22-16.87,7.84-1.34-1.14-1.33-2.72-1.33-4.28,0-23.95-.01-47.91.04-71.85,0-1.25.64-2.49.99-3.74,14.05,17.16,28.05,34.36,42.18,51.45,1.75,2.12,2.66,5.28,6.04,5.73,1.06-.5,1.24.07,1.19.95h0Z"/>
          <path class="cls-16" d="M248.15,679.13c.56.02,1.12.04,1.68.06,15.48,3.43,29.72,10.22,44.21,16.36,1.42.6,2.72,1.45,3.42,2.94,1.94,5.51.2,11.03-.41,16.4-.97,8.47.09,17.33-3.96,25.34-9.17,3.78-17.98,1.35-26.78-1.55-5.3-17.08-10.62-34.18-15.89-51.27-.84-2.74-1.52-5.52-2.28-8.29h0Z"/>
          <path class="cls-23" d="M318.76,394.91c-.4-.32-.79-.64-1.19-.95,5.5-14.57,11.02-29.14,16.49-43.74.84-2.25,1.44-4.58,2.16-6.87-.44-3.27-.16-6.16,3.77-7.09.06.6.14,1.2.2,1.8,10.17,22.62,20.34,45.24,30.51,67.87-10.12-.57-19.69-3.99-29.57-5.85-7.52-1.41-14.92-3.43-22.39-5.17h.01Z"/>
          <path class="cls-22" d="M423.86,195.36c-3.09-9.55-3.25-19.56-4.44-29.39-1.75-14.52-4.55-28.93-4.76-43.61,13.25,8.36,26.43,16.81,39.77,25.01,2.8,1.72,3.05,2.87,1.09,5.46-10.65,14.1-21.13,28.34-31.67,42.53Z"/>
          <path class="cls-2" d="M340.12,529.83c5.46-9.04,11.2-17.88,18.75-25.37,1.5,13.63,3.05,27.26,4.47,40.9,2.5,24,4.95,48.01,7.38,72.02.22,2.19.14,4.43.19,6.64.16,1.68,1.86,3.87-1.46,4.38-9.77-32.86-19.55-65.72-29.32-98.58h0Z"/>
          <path class="cls-27" d="M176.54,72.93c10.41,11.04,18.33,24.03,27.88,35.75,3.44,4.23,6.15,9.13,10.64,12.48-10.1,12.33-20.21,24.66-30.3,36.99-2.66-25.53-5.35-51.06-7.95-76.59-.29-2.85-.18-5.75-.26-8.63h-.01Z"/>
          <path class="cls-10" d="M356.37,774.92c-.04-3.96-.09-7.91-.14-11.88-2.84-8.42-1.42-16.83.1-25.24,7.94-6,16.73-7.1,26.15-4.44,7.25,6.72,14.49,13.45,21.73,20.17.66,3.47-1.79,5.25-4.02,6.96-6.62,5.08-13.34,10.16-20.6,14.15-7.31,4.03-15.44,4.11-23.23.25v.02Z"/>
          <path class="cls-16" d="M382.48,733.36c-8.26,1.05-16.59,1.66-24.61,4.15-2.45-.46-3.57-2.42-4.7-4.29-4.68-7.7-9.3-15.44-14.08-23.08-1.45-2.33-3.34-4.84-1.4-7.89,12.2-5.6,25-8.87,38.37-9.9.76-.05,1.52-.1,2.28-.15,1.38,13.72,2.77,27.44,4.15,41.16h0Z"/>
          <path class="cls-8" d="M356.37,774.92c15.83,3.55,27.69-4.52,39.16-13.53,3.06-2.41,6.85-4.05,8.69-7.85,10.12,4.5,20.26,9,30.38,13.5.31,9.74-4.47,14.61-14.34,14.61-19.25,0-38.52-.19-57.77.12-5.48.09-7.28-1.71-6.12-6.86h-.01Z"/>
          <path class="cls-10" d="M266.31,738.69c8.7-.96,17.18,1.7,25.83,1.66,6.22,5.74,8.5,13.03,8.33,21.29,2.22,6.25,4.45,12.51,6.67,18.76-5.32.79-7.47-3.91-10.72-6.47-4.2-3.31-8.13-6.1-13.97-6.34-7.87-.32-13.99,1.75-19.18,7.84-2.28,2.66-4.48,7.07-9.57,4.93-.66-3.93,2.99-6.81,2.58-10.69,3.35-10.33,6.69-20.64,10.04-30.97Z"/>
          <path class="cls-30" d="M340,336.27c-1.26,2.36-2.51,4.73-3.77,7.09-18.67-7.05-37.33-14.1-56.63-21.39,5.59-3.87,11.71-1.35,16.7-3.86,14.85-2.12,29.69-4.33,44.57-6.23,2.41-.31,5.45-2.88,7.55.84-2.58,7.93-6.69,15.31-8.41,23.55h0Z"/>
          <path class="cls-30" d="M217.63,272.7c4.44-7.17,12.93-8.62,19.39-13.58-2.17,9.97-2.08,20.22-6.07,29.68-4.44-5.37-8.88-10.73-13.32-16.1Z"/>
          <path class="cls-16" d="M374.68,480.58c-4.24,7.87-10.33,14.41-15.58,21.56-.19-.14-.37-.3-.53-.49-5.21-5.33-5.31-12.85-8.14-19.21.47-1.12,1.37-1.74,2.45-2.16,7.27-.22,14.58-3.38,21.79.34v-.05h.01Z"/>
          <path class="cls-21" d="M369.44,628.41c1.5-1.12,1.22-2.83,1.46-4.38,1.82,3.52,1,7.36,1.31,11.05-1.98-1.79-2.21-4.3-2.78-6.67h0Z"/>
          <path class="cls-25" d="M338.84,75.25c24.77,15.27,49.54,30.53,74.32,45.8-12.76,5.51-26.38,8.29-39.65,12.12-14.14,4.09-28.07,9-42.58,11.78,3.08-8.39,2.8-17.33,3.44-25.97,1.06-14.42,3.87-28.75,3.04-43.3.48-.15.96-.29,1.44-.44h-.01Z"/>
          <path class="cls-5" d="M344.23,176.81c5.59-1.8,11.31-2.78,17.2-2.69.42.16,1.06.27,1.17.58,3.99,11.44,7.36,22.97,4.23,35.27.82,4.25,1.56,8.53,2.48,12.78.78,3.59-.65,5.81-3.92,7.07-3.81,4.27-8.23,4.24-12.99,1.88l-.24-.25c-2.43-3-3.71-6.41-4.23-10.28-1.6-12.09-3.5-24.14-5.07-36.23-.36-2.8-1.19-5.76,1.37-8.11Z"/>
          <path class="cls-16" d="M344.23,176.81c2.64,18.21,5.29,36.41,7.93,54.62-6.93-6-12.39-13.37-18.68-19.97-.98-1.6.17-2.89.62-4.29,2.16-6.69-.64-10.02-7.71-9.12-1.5.19-2.97.81-4.48.12-6.17-4.27-11.08-9.73-15.03-16.07,1.87-1,4.08-1.17,5.9-2.31,10.09-3.23,20.18-6.44,31.02-4.65.14.56.28,1.11.42,1.66h0Z"/>
          <path class="cls-16" d="M366.83,209.96c-1.19-12.04-2.96-23.99-5.4-35.85.06-.51.12-1.02.18-1.53,9.51-5.27,19.87-5.55,30.35-5.14,1.9.16,3.97-.35,5.47,1.36-4,6.15-8,12.28-12,18.43-.12.19-.19.51-.34.55-7.02,1.56-9.78,6.16-9.31,13.06-3.84,2.2-4.63,7.41-8.96,9.13h0Z"/>
          <path class="cls-4" d="M382.69,258.3c3.47.4,6.02-2.58,9.81-2.73-3.74,4.12-7.57,7.77-10.74,11.92-8.64,11.26-18.39,12.67-30.25,4.93-4.54-2.97-10.08-4.43-15.17-6.56.44-3.22,2.45-1.44,3.96-1.24,2.19.04,4.39.07,6.59.12.51-.43,1.11-.76,1.77-.62,12.09,2.46,23.24-.56,34.02-5.81h.02Z"/>
          <path class="cls-20" d="M382.69,258.3c-10.49,10.2-22.79,10.3-35.8,6.43,4.74-3.16,9.51-6.26,14.19-9.53,2.23-1.56,4.5-1.52,6.94-.86,4.9,1.33,9.78,2.64,14.68,3.96h0Z"/>
          <path class="cls-24" d="M321.92,198.17c4.5-3.13,9.24-4.86,13.47,0,4.22,4.86,2,9.32-1.89,13.29-10.27,2.2-14.71-2.9-11.57-13.29h-.01Z"/>
          <path class="cls-7" d="M343.82,175.15c-10.53,1.92-21.06,3.84-31.59,5.76-1.34.35-1.68-.21-1.31-1.43,8.57-4.42,17.28-8.61,25.67-13.34,4.33-2.44,6.31-2.32,6.33,3.16,0,1.95.59,3.89.92,5.84h-.01Z"/>
          <path class="cls-15" d="M375.79,200.83c-4.37-9.12-1.06-13.78,9.65-13.61,4.82,3.24,7.23,7.28,3.59,12.78-2.93,4.43-7.29,4.59-13.25.83h0Z"/>
          <path class="cls-7" d="M391.84,168.65c-10.07,1.31-20.15,2.63-30.22,3.94-1.06-11.46-1.07-11.4,10.65-9.53,7.4,1.19,14.84,2.15,22.26,3.21.82,2.73-2,1.34-2.68,2.37Z"/>
          <path class="cls-19" d="M352.4,231.69c4.33-.63,8.66-1.25,12.99-1.88,1.57.42,4.33-.59,2.64,3.09-4.3,9.37-6.9,9.22-15.64-1.21h.01Z"/>
          <path class="cls-17" d="M391.84,168.65c.9-.79,1.79-1.58,2.68-2.37,3.72-.16,3.81-.07,2.92,2.52-1.87-.05-3.73-.1-5.6-.15h0Z"/>
          <path class="cls-28" d="M340.3,264.6c-1.38.24-2.93-.11-3.96,1.25-.99-.42-1.98-.83-4.34-1.82,3.76-.89,6.05-1.03,8.3.57Z"/>
          <path class="cls-18" d="M310.91,179.48c.44.48.88.95,1.31,1.43-1.52,1.57-3.49,1.12-5.33,1.19.9-1.56,2.46-2.08,4.02-2.62h0Z"/>
          <path class="cls-30" d="M296.11,697.69c-11.78-2.89-22.33-8.96-33.68-13-4.31-1.54-8.41-3.65-12.6-5.48.4-.07.79-.17,1.18-.29,15.51,1.84,31.01,3.67,46.53,5.51,3.3,4.83,2.91,9.26-1.42,13.28h0Z"/>
          <path class="cls-12" d="M326.9,19.36c5.04,1.86,7.76,5.37,8.16,10.83.36,5.13,2.89,8.58,8.17,9.84,1.68.4,3.15,1.57,4.77,2.31,4.16,1.9,3.5,5.83,2.48,8.62-1.27,3.54-3.94.25-5.95-.13-1.45-.28-2.79-1.1-4.45-1.8-.8,5.32,1.89,9.84,1.6,14.86-1.82,1.33-3.65-.98-5.48-.22-5.41,2.37-7.07-.26-8.13-5.29-2-9.42-.3-9.02-10.28-5.61-2.31.79-5.64,3.93-6.75-1.11-.73-3.37-3.41-7.38,2.93-9.49,9.63-3.23,9.63-3.72,7.6-13.99-.96-4.86-.35-8.23,5.33-8.79h0Z"/>
          <path class="cls-30" d="M230.34,251.6c-9.93-2.87-17.79-5.88-25.74-10.2,3.59-4.16,8.37-5.24,12.08-7.89,2.38-1.71,3.5.42,4.52,2.2,2.74,4.77,5.47,9.53,9.14,15.9h0Z"/>
          <path class="cls-26" d="M296.11,697.69c.47-4.43.94-8.85,1.42-13.28,10.09.94,20.17,1.87,30.27,2.81,4.96,4.22,8.92,9.06,9.65,15.85,6.8,11.48,13.61,22.96,20.42,34.45-.9,8.48,0,17.08-1.64,25.52-4.8-.64-9.75-.79-14.39-2.04-9.88-2.66-19.71-2.51-29.52-.31-3.98.9-7.88.95-11.86.93-2.78-7.1-5.55-14.19-8.33-21.29,1.33-14.22,2.65-28.44,3.98-42.66h-.01Z"/>
          <path class="cls-9" d="M253.69,780.35c5.61-1.79,8.39-6.94,12.41-10.59,5.78-5.25,21.54-5.92,27.43-.89,4.51,3.87,9.07,7.68,13.61,11.51,2.15,7.96,1.46,8.98-6.33,9-13.63.03-27.26.03-40.88,0-7.87-.02-8.61-1.14-6.23-9.04h-.01Z"/>
          <path class="cls-27" d="M377.72,424.55c-2.35,9.31-4.7,18.63-7.05,27.95-.65,1.26-1.42,2.39-2.91,2.76-8.24-.05-15.41-4.35-23.24-6-2.96-1.11-5,.88-7.18,2.22-8.21,5.04-16.27,10.33-24.61,15.14-2.2,1.27-4.27,3.29-7.22,2.06-18.57-11.67-37.15-23.35-55.72-35.03,1.74-2,4.85-.16,6.53-2.32,28.28-2.18,56.55-4.43,84.84-6.5,10.32-.76,20.65-1.12,30.99-1.61,1.95-.1,4.02-.41,5.57,1.33h-.01Z"/>
          <path class="cls-16" d="M305.51,468.68c10.89-6.69,21.77-13.42,32.69-20.05,1.73-1.05,3.29-3.27,5.84-1.64,3.9,9.42,5.74,19.48,8.94,29.12.63,1.91.81,3.92-.63,5.68-.52.43-1.04.86-1.56,1.28-.98,2.31-3.07,3.08-5.23,3.54-12.4,2.64-24.6,6.56-37.51,6-.87-.05-1.73-.1-2.59-.15.02-7.93.03-15.85.05-23.79h0Z"/>
          <path class="cls-30" d="M337.46,703.08c-3.55-5.09-7.03-10.21-9.65-15.85,16.08,1.71,32.17,3.42,48.25,5.13-12.63,4.46-25.69,7.28-38.59,10.72Z"/>
          <path class="cls-30" d="M308.06,492.61c12.13-2.67,24.26-5.33,36.39-8.01,2.13-.47,4.23-1.02,6.35-1.53,4.83,1.3,3.58,6.02,4.98,9.19,1.3,2.96,1.89,6.25,2.8,9.4-16.97-2.34-33.88-4.95-50.52-9.04h0Z"/>
          <path class="cls-5" d="M352.35,481.79c-2.75-9.55-5.53-19.08-8.22-28.65-.57-2-2.25-4.07-.09-6.15,7.99,2.39,15.97,4.8,23.96,7.21,1.71.68,2.67,1.69,1.5,3.58,4.18,7.07,3.97,15.13,5.19,22.86-7.44.41-14.83,1.99-22.33,1.15Z"/>
          <path class="cls-13" d="M369.5,457.77c-.5-1.2-.99-2.38-1.5-3.58.89-.57,1.79-1.13,2.67-1.7,0,1.85.52,3.82-1.18,5.28Z"/>
        </g>
      </g>
    </g>
  </g>
</svg>