<?xml version="1.0" encoding="UTF-8"?>
<svg xmlns="http://www.w3.org/2000/svg" version="1.1" viewBox="0 0 636.44 792">
  <defs>
    <style>
      .cls-1 {
        fill: #2b2b2b;
      }

      .cls-2 {
        fill: #4f9194;
      }

      .cls-3 {
        fill: #84c7ca;
      }

      .cls-4 {
        fill: #66a6a8;
      }

      .cls-5 {
        fill: #e2c9b7;
      }

      .cls-6 {
        fill: #c4d1d6;
      }

      .cls-7 {
        fill: #515453;
      }

      .cls-8 {
        fill: #549cb5;
      }

      .cls-9 {
        fill: #549db5;
      }

      .cls-10 {
        fill: #3d7789;
      }

      .cls-11 {
        fill: #9cdcda;
      }

      .cls-12 {
        fill: #438194;
      }

      .cls-13 {
        fill: #a3afa4;
      }

      .cls-14 {
        fill: #d9bca6;
      }

      .cls-15 {
        fill: #2d2c2c;
      }

      .cls-16 {
        fill: #bc977e;
      }

      .cls-17 {
        fill: #a28c7c;
      }

      .cls-18 {
        fill: #8f7f74;
      }

      .cls-19 {
        fill: #886a57;
      }

      .cls-20 {
        fill: #397477;
      }

      .cls-21 {
        fill: #56979a;
      }

      .cls-22 {
        fill: #4f5252;
      }

      .cls-23 {
        fill: #fefefe;
      }

      .cls-24 {
        fill: #2e2d2d;
      }

      .cls-25 {
        fill: #6e7073;
      }

      .cls-26 {
        fill: #4f9093;
      }

      .cls-27 {
        fill: #82aca7;
      }

      .cls-28 {
        fill: #72a6a9;
      }

      .cls-29 {
        fill: #856754;
      }
    </style>
  </defs>
  <!-- Generator: Adobe Illustrator 28.7.1, SVG Export Plug-In . SVG Version: 1.2.0 Build 142)  -->
  <g>
    <g id="Layer_1">
      <g>
        <path class="cls-14" d="M416.65,204.88c-.33,11.42,2.15,22.57,3.37,33.84,2.04,18.9,4.38,37.77,6.86,56.62.48,3.65-.95,4.86-4,5.34-21.82,3.41-43.66,6.76-65.47,10.25-3.93.63-8.37.01-11.33,3.73-14.75,2.83-29.64,4.74-44.52,6.74-1.64.22-3.28.22-4.91-.23-3.79-1.21-4.74-4.37-5.2-7.77-5.81-42.37-11.26-84.78-17.19-127.13-.43-3.07.25-6.24-.72-9.27.35-5.82,5.14-6.46,9.21-7.57,15.57-4.25,31.01-8.93,46.55-13.28,23.44-6.59,46.82-13.36,70.2-20.15,2.18-.63,4.33-1.38,6.63-1.48.7.03,1.28.3,1.76.8.05.43.09.85.14,1.28,3.84,6.96,3.13,14.82,4.24,22.29,1.72,11.62,2.99,23.31,4.46,34.97.47,3.71.56,7.35-.1,11.02Z"/>
        <path class="cls-4" d="M368.35,616.2c1.51,1.91.9,4.14.99,6.27-1.82,2.25-4.46,2.86-7.05,3.59-34.21,9.66-67.96,20.87-102.18,30.52-1.4.4-2.68,1.09-4.07,1.51-.65.22-1.31.28-1.98.2-.65-.18-1.24-.48-1.78-.9-2.81-8.34-5.63-16.67-8.44-25.01,21.98-27.49,43.8-55.11,65.64-82.72,6.17-7.8,12.23-15.69,18.59-23.31,3.03-3.63,4.02-6.33.15-9.62,2.03-2.62,4.81-1.94,7.49-1.72,1.39.38,2.54,1.11,3.49,2.18,3.94,6.47,5.17,13.9,7.21,21.01,6.78,23.62,14.49,46.96,20.5,70.8.22,2.45.27,4.93,1.43,7.19Z"/>
        <path class="cls-22" d="M329.71,157.73c-16.44,5.81-33.43,9.75-50.09,14.81-2.02.61-4.79.45-4.73,3.75-.5.46-1.06.81-1.67,1.08-33.41,8.14-66.34,18.01-99.27,27.84-2.51.75-5.16,2.02-7.57-.37,8.87-11.59,17.74-23.19,26.61-34.78,1.8-5.69,5.73-10.01,9.46-14.41,6.26-7.39,11.26-15.88,19.01-21.98,12.24-5.68,25.13-9.67,37.69-14.52,23.01-8.89,46.07-17.65,69.35-25.82,2.74-.96,5.77-3.11,8.5.27,2.82,7.82.07,15.6-.32,23.36-.51,9.9-1.68,19.77-2.62,29.65-.38,4.01-.32,8.43-4.35,11.13Z"/>
        <path class="cls-3" d="M335.77,92.94c-25.48,8.5-50.38,18.6-75.56,27.92-12.99,4.81-25.93,9.74-38.89,14.62-2.42.42-3.89-1.1-5.19-2.71-9.87-12.16-19.05-24.86-28.39-37.43-1.11-1.49-1.34-3.46-2.45-4.98.01-.82.02-1.65.04-2.47,5.37-2.5,10.74-5,16.11-7.5,16.09-6.28,31.67-13.72,47.26-21.11,12.77-4.72,24.97-10.73,37.33-16.38,5.86-5.94,13.64-7.74,21.27-9.85,4.5-1.72,8.99-3.44,13.49-5.16,3.1-1.31,3.89,1.16,4.66,3.1,1.12,2.8,1.69,5.76,1.19,8.81-3.03,3.36-4.5,6.92-3.09,11.72,1.48,5.03-.46,8.89-5.74,10.67-1.36.46-2.7,1.05-3.82,2-1.5,1.26-1.6,2.84-.87,4.48.81,1.83,2.34,1.26,3.74.92.8-.2,1.56-.56,2.35-.78,5.96-1.69,7.55-1.09,9.02,4.76,1,4.01,2.86,6.67,6.86,7.77,2.45,3.38,3.35,7.09,2.4,11.19-.46.62-1.04.76-1.73.42Z"/>
        <path class="cls-16" d="M273.9,176.51c.33-.07.66-.14.99-.21,1.64,10.98,3.39,21.95,4.91,32.95,2.4,17.34,4.66,34.71,6.96,52.07,2.27,17.16,4.54,34.31,6.75,51.47.37,2.86.04,5.98,3.81,6.91-3.86,5.62-9.18,2.46-12.35,3.02,11.22,3.57,23.71,8.81,36.4,13.5,4.78,1.77,9.96,2.87,13.76,6.71,1.13,1.99.78,4.03,0,5.97-5.24,13.02-9.99,26.24-15.39,39.2-.4.96-.99,1.81-1.74,2.53-2.61,1.74-4.34.06-5.8-1.72-12.83-15.71-25.63-31.44-38.39-47.2-1.06-1.3-1.78-2.79-1.68-4.55-11.97-14.96-23.95-29.92-35.92-44.88-.27-9.34,2.4-18.2,4.53-27.54.17-.39-1.09.13-.27.22.38.04.49.25.24.56-4.44,5.66-10.95,8.32-16.96,11.7-8.68-10.76-17.36-21.52-26.03-32.28.28-2.15,1.95-3.1,3.58-3.96,7.5-3.94,14.87-8.13,22.29-12.22,4.02-2.22,7-1.14,9.42,2.65,3.65,5.71,6.77,11.76,10.91,17.59,2.44-1.91,2.86-4.43,3.69-6.62,7.22-19.16,14.19-38.41,21.42-57.56,1.14-3.01,1.57-6.53,4.87-8.31Z"/>
        <path class="cls-26" d="M328.32,517.66c1.24.04,2.49.11,3.73.11,3.45,0,4.12,1.02,1.82,3.92-9.13,11.48-18.1,23.08-27.2,34.59-13.45,17.02-26.95,34-40.41,51.01-5.51,6.96-10.93,14-16.55,20.88-1.52,1.86-2.99,4.11-5.86,4.22-10.92-34.03-21.84-68.06-32.76-102.09,1.17-4.09,4.8-4.15,7.95-4.58,12.69-1.75,25.48-2.65,38.23-3.89,20.35-1.98,40.72-3.81,61.08-5.76,3.44-.33,7.03-1.31,9.97,1.61Z"/>
        <path class="cls-11" d="M337.12,92.53c-1.64-3.43-1.82-7.2-2.47-10.85,3.49-1.52,2.83-4.2,2.28-7.14-1.3-7-.89-7.36,5.97-6.61,1.02.11,2.15.54,2.75-.53.68-1.22.09-2.4-.77-3.37-1.27-1.43-2.96-2.25-4.71-2.83-4.81-1.58-7.7-4.9-8.14-9.83-.42-4.73-4.5-7.18-6.07-11.11-2.77-3.68.07-9.71-5.16-12.37,2.56-2.34,4.49.28,6.68.84,4.15,1.06,7.61,4.05,12.03,4.34,10.55,6.27,22.36,9.65,33.5,14.55,13.44,5.91,27.06,11.44,40.7,16.88,4.68,1.87,4.57,5.04,3.89,9.04-3.23,18.93-6.35,37.87-9.46,56.82-.27,1.63-.16,3.31-.23,4.97-.43.02-.85.03-1.27.05-2.84.16-5.18-1.11-7.5-2.52-19.23-11.76-38.36-23.66-57.48-35.59-1.89-1.18-4.16-2.06-4.53-4.73Z"/>
        <path class="cls-6" d="M426.69,739.63c.3,14.58,12.48,11.35,20.72,13.52,7.46,1.96,15.21,2.85,23.89,4.4-5.48,3.27-10.7,2.24-15.41,2.87-22.68,3.03-45.47,5.23-68.2,7.9-15.76,1.85-31.46,4.4-47.25,5.79-7.53.66-15.24-.52-22.85-1.1-14.4-1.08-28.78-2.35-43.17-3.5-20.36-1.63-40.72-3.25-61.08-4.81-12.56-.96-25.11-2.19-37.69-2.52-7.47-.19-14.72-2.47-22.37-2.5,12.75-2.13,25.49-4.28,38.24-6.39,22.79-3.76,45.58-7.48,68.38-11.22,3.17,3.75-1.13,6.98-.72,10.54-1.04,4.45,1.12,5.97,5.25,5.98,11.93.04,23.87.07,35.8-.02,3.92-.03,6.57-1.16,5.24-5.87-.7-4.12-2.74-7.76-3.99-11.68-.77-2.44-2.42-5.01.19-7.42,16.34-4.88,32.66-4.31,48.95.21,1.21.34,2.32.88,3.22,1.8,2.26,3.48,1.74,7.33,1.52,11.14.11,3.37,2.45,4.04,5.12,4.07,19.69.25,39.38.22,59.07.03,2.97-.03,4.59-1.26,4.82-4.4.18-2.43.1-5.06,2.32-6.84Z"/>
        <path class="cls-3" d="M236.51,354.6c.83-3.02,3.56-3.85,5.92-5.04,7.39-3.74,14.9-7.27,22.17-11.23,4.24-2.31,5.5-1.81,5.45,3.28-.21,21.98-.14,43.97.03,65.95.01,1.37-2.44,5.12,2.32,4.31.65-2.63,3.04-3.18,5.02-4.19,9.94-5.09,20.19-9.56,30.19-14.5,3.69-1.82,7.68-1.34,11.34-2.74,5.89-.31,11.36,1.78,16.97,3.06,10.25,2.33,20.57,4.39,30.78,6.93,5.52,4.74,7.53,11.12,8.32,18.06-.53,1.12-1.49,1.56-2.64,1.71-33.03,1.36-65.92,4.8-98.92,6.63-4.32.24-8.59,1.33-12.96.94-1.43-.19-2.86-.48-4.32-.41-5.07.23-7.67-2.44-8.45-7.22-3.52-21.48-8.42-42.74-10.69-64.42-.04-.39-.33-.75-.55-1.1Z"/>
        <path class="cls-1" d="M273.9,176.51c-9.46,25.71-18.92,51.42-28.88,78.46-5.09-8.45-9.47-15.42-13.52-22.58-1.89-3.33-3.4-4.3-7.15-2.05-8.68,5.19-17.73,9.77-26.63,14.6-11.17-12.32-21.11-25.63-31.49-38.59-.39-.48-.58-1.07.15-1.5,11.49-3.29,22.97-6.59,34.46-9.87,19.65-5.6,39.24-11.44,59.01-16.55,4.44-1.14,9.04-3.86,14.05-1.93Z"/>
        <path class="cls-14" d="M233.93,476.73c-15.98-1.26-31.87-3.72-47.93-3.97-1.56-.02-2.87-.39-3.31-2.13.63-1.87,2.03-3.07,3.62-4.1,19.39-12.64,38.68-25.45,58.13-38,3.1-2,6.19-3.31,9.85-1.7,7.12,2.5,12.87,7.36,19.19,11.23,9.16,5.61,18.24,11.35,27.32,17.08,2.77,1.75,5.76,3.38,6.84,6.89.62,7.09,2.05,14.23-1.18,21.1-1.69,1.47-3.73,1.74-5.83,1.59-19.79-1.43-39.55-3.34-59.31-5.17-2.64-.24-5.38-.69-7.38-2.83Z"/>
        <path class="cls-4" d="M253.83,427.77c-2.92-1.74-5,.11-7.25,1.59-18.8,12.31-37.62,24.59-56.45,36.84-2.41,1.57-4.95,2.96-7.43,4.43-1.55-2.37.76-3.8,1.53-5.44,17.36-36.9,34.83-73.74,52.28-110.6,5.07,3.73,3.47,9.72,4.45,14.6,3.45,17.33,6.11,34.82,9.05,52.25,1.13,6.67,6.51,3.05,9.93,4.15-.89,3.98-3.96,1.78-6.11,2.17Z"/>
        <path class="cls-26" d="M254.97,657.18c4.79-3.63,10.71-4.22,16.2-5.87,31.49-9.49,63.01-18.85,94.53-28.23,1.17-.35,2.43-.41,3.65-.61,1.57,15.72,3.14,31.43,4.71,47.15-.74.94-1.74,1.32-2.9,1.35-10.68-.67-21.35-1.44-32-2.54-4.1-.42-8.11-1.37-12.21-1.68-9.57-.25-19.02-1.79-28.54-2.6-12.12-1.04-24.17-2.81-36.29-3.9-2.62-.24-5.34-.73-7.16-3.08Z"/>
        <path class="cls-28" d="M233.93,476.73c15.99,1.38,31.98,2.77,47.97,4.13,8,.68,16,1.28,24,1.92.86-.63,1.79-1.01,2.87-.98,13.26,1.59,26.31,4.51,39.51,6.52,2.24.34,4.42.93,6.46,1.98.59.39,1.04.9,1.34,1.54-.07.72-.15,1.45-.22,2.17-4.73,8.74-10.04,17.04-17.54,23.73-.87-.43-1.74-.86-2.61-1.3-33.2-5.55-65.3-15.74-98.02-23.31-3.16-.73-6.62-1.06-8.73-4.12,1.66-4.1,3.31-8.19,4.97-12.29Z"/>
        <path class="cls-3" d="M228.97,489.02c29.89,7.46,59.8,14.81,89.64,22.48,5.73,1.47,11.94,1.47,17.11,4.95-2.47.36-5.17-.68-7.39,1.21-20.75,1.91-41.53,3.46-62.23,5.93-14.95,1.78-30,2.8-45,4.15-3.47.31-7.01.31-9.99,2.54-1.54-3.46,1.32-5.75,2.49-8.34,4.95-11.05,10.23-21.96,15.39-32.92Z"/>
        <path class="cls-4" d="M374.39,417.98c-2.48-5.37-4.96-10.75-7.45-16.12-1.91-1.03-3.02-2.69-3.9-4.62-8.06-17.84-15.9-35.78-24.08-53.56-.76-1.66-1.63-3.4-.57-5.29,9.33,1.55,17.43,4.46,23.17,13.16,18.46,27.96,37.49,55.54,56.26,83.29.66.98.94,2.22,1.4,3.33-2.05,1.54-3.96.4-5.82-.38-11.81-4.98-23.09-11.11-34.82-16.27-1.75-.77-3.17-1.91-4.21-3.53Z"/>
        <path class="cls-14" d="M374.39,417.98c13.55,4.86,25.93,12.3,39.18,17.82,1.89.79,3.77,1.57,5.66,2.35,2.96,7.5-.49,14.58-1.47,21.82-.16,1.16-1.32,1.46-2.36,1.7-14.92,3.33-29.84,6.67-44.75,10-.25-.2-.5-.4-.76-.6-3.12-6.41-2.86-13.66-5.07-20.3.1-1.96.49-3.91.26-5.89.92-7.32,3.64-14.18,5.36-21.3.43-1.78,1.16-3.51,3.05-4.33.3-.43.6-.85.9-1.28Z"/>
        <path class="cls-23" d="M318.34,391.54c-10.72,2.77-20.12,8.63-30.16,12.99-5.32,2.31-10.52,4.88-15.78,7.33-1.25-1.07-1.24-2.54-1.24-4,0-22.4-.01-44.81.04-67.21,0-1.17.6-2.33.93-3.5,13.14,16.05,26.24,32.14,39.45,48.13,1.64,1.98,2.49,4.94,5.65,5.36.99-.47,1.16.07,1.11.89Z"/>
        <path class="cls-16" d="M252.29,657.39c.52.02,1.05.04,1.57.06,14.48,3.21,27.8,9.56,41.35,15.3,1.33.56,2.54,1.36,3.2,2.75,1.81,5.15.19,10.32-.38,15.34-.91,7.92.08,16.21-3.7,23.7-8.58,3.54-16.82,1.26-25.05-1.45-4.96-15.98-9.93-31.97-14.86-47.96-.79-2.56-1.42-5.16-2.13-7.75Z"/>
        <path class="cls-23" d="M318.34,391.54c-.37-.3-.74-.6-1.11-.89,5.14-13.63,10.31-27.26,15.42-40.91.79-2.1,1.35-4.28,2.02-6.43-.41-3.06-.15-5.76,3.53-6.63.06.56.13,1.12.19,1.68,9.51,21.16,19.03,42.32,28.54,63.48-9.47-.53-18.42-3.73-27.66-5.47-7.03-1.32-13.96-3.21-20.94-4.84Z"/>
        <path class="cls-22" d="M416.65,204.88c-2.89-8.93-3.04-18.3-4.15-27.49-1.64-13.58-4.26-27.06-4.45-40.79,12.39,7.82,24.72,15.72,37.2,23.39,2.62,1.61,2.85,2.68,1.02,5.11-9.96,13.19-19.76,26.51-29.62,39.78Z"/>
        <path class="cls-2" d="M338.32,517.74c5.11-8.46,10.48-16.72,17.54-23.73,1.4,12.75,2.85,25.5,4.18,38.26,2.34,22.45,4.63,44.91,6.9,67.37.21,2.05.13,4.14.18,6.21.15,1.57,1.74,3.62-1.37,4.1-9.14-30.74-18.29-61.47-27.43-92.21Z"/>
        <path class="cls-26" d="M185.31,90.36c9.74,10.33,17.15,22.48,26.08,33.44,3.22,3.96,5.75,8.54,9.95,11.67-9.45,11.53-18.9,23.07-28.34,34.6-2.49-23.88-5-47.76-7.44-71.64-.27-2.67-.17-5.38-.24-8.07Z"/>
        <path class="cls-10" d="M353.52,746.99c-.04-3.7-.08-7.4-.13-11.11-2.66-7.88-1.33-15.74.09-23.61,7.43-5.61,15.65-6.64,24.46-4.15,6.78,6.29,13.55,12.58,20.33,18.87.62,3.25-1.67,4.91-3.76,6.51-6.19,4.75-12.48,9.5-19.27,13.24-6.84,3.77-14.44,3.84-21.73.23Z"/>
        <path class="cls-16" d="M377.94,708.12c-7.73.98-15.52,1.55-23.02,3.88-2.29-.43-3.34-2.26-4.4-4.01-4.38-7.2-8.7-14.44-13.17-21.59-1.36-2.18-3.12-4.53-1.31-7.38,11.41-5.24,23.38-8.3,35.89-9.26.71-.05,1.42-.09,2.13-.14,1.29,12.83,2.59,25.67,3.88,38.5Z"/>
        <path class="cls-8" d="M353.52,746.99c14.81,3.32,25.9-4.23,36.63-12.66,2.86-2.25,6.41-3.79,8.13-7.34,9.47,4.21,18.95,8.42,28.42,12.63q.43,13.67-13.41,13.67c-18.01,0-36.03-.18-54.04.11-5.13.08-6.81-1.6-5.72-6.42Z"/>
        <path class="cls-10" d="M269.28,713.1c8.14-.9,16.07,1.59,24.16,1.55,5.82,5.37,7.95,12.19,7.79,19.91,2.08,5.85,4.16,11.7,6.24,17.55-4.98.74-6.99-3.66-10.03-6.05-3.93-3.1-7.6-5.71-13.07-5.93-7.36-.3-13.09,1.64-17.94,7.33-2.13,2.49-4.19,6.61-8.95,4.61-.62-3.68,2.8-6.37,2.41-10,3.13-9.66,6.26-19.31,9.39-28.97Z"/>
        <path class="cls-29" d="M338.21,336.69c-1.18,2.21-2.35,4.42-3.53,6.63-17.46-6.59-34.92-13.19-52.97-20.01,5.23-3.62,10.95-1.26,15.62-3.61,13.89-1.98,27.77-4.05,41.69-5.83,2.25-.29,5.1-2.69,7.06.79-2.41,7.42-6.26,14.32-7.87,22.03Z"/>
        <path class="cls-29" d="M223.75,277.22c4.15-6.71,12.09-8.06,18.14-12.7-2.03,9.33-1.95,18.91-5.68,27.76-4.15-5.02-8.31-10.04-12.46-15.06Z"/>
        <path class="cls-16" d="M370.65,471.67c-3.97,7.36-9.66,13.48-14.57,20.17-.18-.13-.35-.28-.5-.46-4.87-4.99-4.97-12.02-7.61-17.97.44-1.05,1.28-1.63,2.29-2.02,6.8-.21,13.64-3.16,20.38.32v-.05Z"/>
        <path class="cls-21" d="M365.75,609.95c1.4-1.05,1.14-2.65,1.37-4.1,1.7,3.29.94,6.88,1.23,10.34-1.85-1.67-2.07-4.02-2.6-6.24Z"/>
        <path class="cls-25" d="M337.12,92.53c23.17,14.28,46.34,28.56,69.52,42.84-11.94,5.15-24.68,7.75-37.09,11.34-13.23,3.83-26.26,8.42-39.83,11.02,2.88-7.85,2.62-16.21,3.22-24.29.99-13.49,3.62-26.89,2.84-40.5.45-.14.9-.27,1.35-.41Z"/>
        <path class="cls-5" d="M342.17,187.53c5.23-1.68,10.58-2.6,16.09-2.52.39.15.99.25,1.09.54,3.73,10.7,6.88,21.49,3.96,32.99.77,3.98,1.46,7.98,2.32,11.95.73,3.36-.61,5.43-3.67,6.61-3.56,3.99-7.7,3.97-12.15,1.76l-.22-.23c-2.27-2.81-3.47-6-3.96-9.62-1.5-11.31-3.27-22.58-4.74-33.89-.34-2.62-1.11-5.39,1.28-7.59Z"/>
        <path class="cls-16" d="M342.17,187.53c2.47,17.03,4.95,34.06,7.42,51.09-6.48-5.61-11.59-12.51-17.47-18.68-.92-1.5.16-2.7.58-4.01,2.02-6.26-.6-9.37-7.21-8.53-1.4.18-2.78.76-4.19.11-5.77-3.99-10.36-9.1-14.06-15.03,1.75-.94,3.82-1.09,5.52-2.16,9.44-3.02,18.88-6.02,29.02-4.35.13.52.26,1.04.39,1.55Z"/>
        <path class="cls-16" d="M363.31,218.54c-1.11-11.26-2.77-22.44-5.05-33.53.06-.48.11-.95.17-1.43,8.9-4.93,18.59-5.19,28.39-4.81,1.78.15,3.71-.33,5.12,1.27-3.74,5.75-7.48,11.49-11.22,17.24-.11.18-.18.48-.32.51-6.57,1.46-9.15,5.76-8.71,12.22-3.59,2.06-4.33,6.93-8.38,8.54Z"/>
        <path class="cls-4" d="M378.14,263.75c3.25.37,5.63-2.41,9.18-2.55-3.5,3.85-7.08,7.27-10.05,11.15-8.08,10.53-17.2,11.85-28.3,4.61-4.25-2.78-9.43-4.14-14.19-6.14.41-3.01,2.29-1.35,3.7-1.16,2.05.04,4.11.07,6.16.11.48-.4,1.04-.71,1.66-.58,11.31,2.3,21.74-.52,31.82-5.43Z"/>
        <path class="cls-20" d="M378.14,263.75c-9.81,9.54-21.32,9.63-33.49,6.01,4.43-2.96,8.9-5.86,13.27-8.91,2.09-1.46,4.21-1.42,6.49-.8,4.58,1.24,9.15,2.47,13.73,3.7Z"/>
        <path class="cls-24" d="M321.3,207.51c4.21-2.93,8.64-4.55,12.6,0,3.95,4.55,1.87,8.72-1.77,12.43-9.61,2.06-13.76-2.71-10.82-12.43Z"/>
        <path class="cls-7" d="M341.78,185.98c-9.85,1.8-19.7,3.59-29.55,5.39-1.25.33-1.57-.2-1.23-1.34,8.02-4.13,16.16-8.05,24.01-12.48,4.05-2.28,5.9-2.17,5.92,2.96,0,1.82.55,3.64.86,5.46Z"/>
        <path class="cls-15" d="M371.69,210c-4.09-8.53-.99-12.89,9.03-12.73,4.51,3.03,6.76,6.81,3.36,11.95-2.74,4.14-6.82,4.29-12.39.78Z"/>
        <path class="cls-7" d="M386.7,179.9c-9.42,1.23-18.85,2.46-28.27,3.69-.99-10.72-1-10.66,9.96-8.91,6.92,1.11,13.88,2.01,20.82,3,.77,2.55-1.87,1.25-2.51,2.22Z"/>
        <path class="cls-19" d="M349.81,238.86c4.05-.59,8.1-1.17,12.15-1.76,1.47.39,4.05-.55,2.47,2.89-4.02,8.76-6.45,8.62-14.63-1.13Z"/>
        <path class="cls-17" d="M386.7,179.9c.84-.74,1.67-1.48,2.51-2.22,3.48-.15,3.56-.07,2.73,2.36-1.75-.05-3.49-.09-5.24-.14Z"/>
        <path class="cls-27" d="M338.49,269.65c-1.29.22-2.74-.1-3.7,1.17-.93-.39-1.85-.78-4.06-1.7,3.52-.83,5.66-.96,7.76.53Z"/>
        <path class="cls-18" d="M311,190.03c.41.45.82.89,1.23,1.34-1.42,1.47-3.26,1.05-4.99,1.11.84-1.46,2.3-1.95,3.76-2.45Z"/>
        <path class="cls-29" d="M297.16,674.75c-11.02-2.7-20.89-8.38-31.5-12.16-4.03-1.44-7.87-3.41-11.79-5.13.37-.07.74-.16,1.1-.27,14.51,1.72,29.01,3.43,43.52,5.15,3.09,4.52,2.72,8.66-1.33,12.42Z"/>
        <path class="cls-12" d="M325.96,40.25c4.71,1.74,7.26,5.02,7.63,10.13.34,4.8,2.7,8.03,7.64,9.2,1.57.37,2.95,1.47,4.46,2.16,3.89,1.78,3.27,5.45,2.32,8.06-1.19,3.31-3.69.23-5.57-.12-1.36-.26-2.61-1.03-4.16-1.68-.75,4.98,1.77,9.2,1.5,13.9-1.7,1.24-3.41-.92-5.13-.21-5.06,2.22-6.61-.24-7.6-4.95-1.87-8.81-.28-8.44-9.62-5.25-2.16.74-5.28,3.68-6.31-1.04-.68-3.15-3.19-6.9,2.74-8.88,9.01-3.02,9.01-3.48,7.11-13.09-.9-4.55-.33-7.7,4.99-8.22Z"/>
        <path class="cls-29" d="M235.64,257.49c-9.29-2.68-16.64-5.5-24.08-9.54,3.36-3.89,7.83-4.9,11.3-7.38,2.23-1.6,3.27.39,4.23,2.06,2.56,4.46,5.12,8.91,8.55,14.87Z"/>
        <path class="cls-9" d="M257.48,752.07c5.25-1.67,7.85-6.49,11.61-9.91,5.41-4.91,20.15-5.54,25.66-.83,4.22,3.62,8.48,7.18,12.73,10.77,2.01,7.45,1.37,8.4-5.92,8.42-12.75.03-25.5.03-38.24,0-7.36-.02-8.05-1.07-5.83-8.46Z"/>
        <path class="cls-26" d="M373.49,419.26c-2.2,8.71-4.4,17.43-6.59,26.14-.61,1.18-1.33,2.24-2.72,2.58-7.71-.05-14.41-4.07-21.74-5.61-2.77-1.04-4.68.82-6.72,2.08-7.68,4.71-15.22,9.66-23.02,14.16-2.06,1.19-3.99,3.08-6.75,1.93-17.37-10.92-34.75-21.84-52.12-32.77,1.63-1.87,4.54-.15,6.11-2.17,26.45-2.04,52.9-4.14,79.36-6.08,9.65-.71,19.32-1.05,28.99-1.51,1.82-.09,3.76-.38,5.21,1.24Z"/>
        <path class="cls-16" d="M305.95,460.54c10.19-6.26,20.36-12.55,30.58-18.75,1.62-.98,3.08-3.06,5.46-1.53,3.65,8.81,5.37,18.22,8.36,27.24.59,1.79.76,3.67-.59,5.31-.49.4-.97.8-1.46,1.2-.92,2.16-2.87,2.88-4.89,3.31-11.6,2.47-23.01,6.14-35.09,5.61-.81-.05-1.62-.09-2.42-.14.02-7.42.03-14.83.05-22.25Z"/>
        <path class="cls-29" d="M335.83,679.79c-3.32-4.76-6.58-9.55-9.03-14.83,15.04,1.6,30.09,3.2,45.13,4.8-11.81,4.17-24.03,6.81-36.1,10.03Z"/>
        <path class="cls-29" d="M308.33,482.92c11.35-2.5,22.69-4.99,34.04-7.49,1.99-.44,3.96-.95,5.94-1.43,4.52,1.22,3.35,5.63,4.66,8.6,1.22,2.77,1.77,5.85,2.62,8.79-15.87-2.19-31.69-4.63-47.26-8.46Z"/>
        <path class="cls-5" d="M349.76,472.8c-2.57-8.93-5.17-17.85-7.69-26.8-.53-1.87-2.1-3.81-.08-5.75,7.47,2.24,14.94,4.49,22.41,6.74,1.6.64,2.5,1.58,1.4,3.35,3.91,6.61,3.71,14.15,4.85,21.38-6.96.38-13.87,1.86-20.89,1.08Z"/>
        <path class="cls-13" d="M365.8,450.34c-.47-1.12-.93-2.23-1.4-3.35.83-.53,1.67-1.06,2.5-1.59,0,1.73.49,3.57-1.1,4.94Z"/>
      </g>
    </g>
  </g>
</svg>