<?xml version="1.0" encoding="UTF-8"?>
<svg xmlns="http://www.w3.org/2000/svg" version="1.1" viewBox="0 0 600 500">
  <defs>
    <style>
      .cls-1 {
        fill: #8c6d5a;
      }

      .cls-2 {
        fill: #f9f6f1;
      }

      .cls-3 {
        fill: #67774a;
      }

      .cls-4 {
        fill: #2b2b2b;
      }

      .cls-5 {
        fill: #c1c5c4;
      }

      .cls-6 {
        fill: #909090;
      }

      .cls-7 {
        fill: #505354;
      }

      .cls-8 {
        fill: #d5b16d;
      }

      .cls-9 {
        fill: #010101;
      }

      .cls-10 {
        fill: #a1be77;
      }

      .cls-11 {
        fill: #d8e0e0;
      }

      .cls-12 {
        fill: #333130;
      }

      .cls-13 {
        fill: #bb997f;
      }

      .cls-14 {
        fill: #d5b9a3;
      }

      .cls-15 {
        fill: #bd9980;
      }

      .cls-16 {
        fill: #e3e5e1;
      }

      .cls-17 {
        fill: #896b58;
      }

      .cls-18 {
        fill: #8f667b;
      }

      .cls-19 {
        fill: #866b56;
      }

      .cls-20 {
        fill: #bf9d84;
      }

      .cls-21 {
        fill: #9b9b9a;
      }

      .cls-22 {
        fill: #937461;
      }

      .cls-23 {
        fill: #66a6a8;
      }

      .cls-24 {
        fill: #e2e2e0;
      }

      .cls-25 {
        fill: #e7ec87;
      }

      .cls-26 {
        fill: #755c20;
      }

      .cls-27 {
        fill: #e2c9b7;
      }

      .cls-28 {
        fill: #c09d83;
      }

      .cls-29 {
        fill: #474747;
      }

      .cls-30 {
        fill: #607344;
      }

      .cls-31 {
        fill: #896b59;
      }

      .cls-32 {
        fill: #856855;
      }

      .cls-33 {
        fill: gray;
      }

      .cls-34 {
        fill: #e7e7e8;
      }

      .cls-35 {
        fill: #eaebea;
      }

      .cls-36 {
        fill: #826520;
      }

      .cls-37 {
        fill: #9b7a2d;
      }

      .cls-38 {
        fill: #a9cb86;
      }

      .cls-39 {
        fill: #8e667b;
      }

      .cls-40 {
        fill: #4a7a62;
      }

      .cls-41 {
        fill: #559db6;
      }

      .cls-42 {
        fill: #568e72;
      }

      .cls-43 {
        fill: #8b7c3e;
      }

      .cls-44 {
        fill: #735a1d;
      }

      .cls-45 {
        fill: #559eb6;
      }

      .cls-46 {
        fill: #595b5c;
      }

      .cls-47 {
        fill: #4f6332;
      }

      .cls-48 {
        fill: #030303;
      }

      .cls-49 {
        fill: #c7ac3d;
      }

      .cls-50 {
        fill: #8e8e8e;
      }

      .cls-51 {
        fill: #987726;
      }

      .cls-52 {
        fill: #343231;
      }

      .cls-53 {
        fill: #997e3b;
      }

      .cls-54 {
        fill: #819d66;
      }

      .cls-55 {
        fill: #9b792c;
      }

      .cls-56 {
        fill: #ddc654;
      }

      .cls-57 {
        fill: #397578;
      }

      .cls-58 {
        fill: #d9bda8;
      }

      .cls-59 {
        fill: #866955;
      }

      .cls-60 {
        fill: #8c6e5a;
      }

      .cls-61 {
        fill: #727e53;
      }

      .cls-62 {
        fill: #705261;
      }

      .cls-63 {
        fill: #b7987b;
      }

      .cls-64 {
        fill: #7f624a;
      }

      .cls-65 {
        fill: #be9b81;
      }

      .cls-66 {
        fill: #c4d895;
      }

      .cls-67 {
        fill: #71581a;
      }

      .cls-68 {
        fill: #4c4e4a;
      }

      .cls-69 {
        fill: #585b5c;
      }

      .cls-70 {
        fill: #b58e41;
      }

      .cls-71 {
        fill: #627546;
      }

      .cls-72 {
        fill: #bc987e;
      }

      .cls-73 {
        fill: #8a6b58;
      }

      .cls-74 {
        fill: #6e4f5f;
      }

      .cls-75 {
        fill: #69794c;
      }

      .cls-76 {
        fill: #2e6062;
      }

      .cls-77 {
        fill: #647749;
      }

      .cls-78 {
        fill: #6f7173;
      }

      .cls-79 {
        fill: #997826;
      }

      .cls-80 {
        fill: #90725e;
      }

      .cls-81 {
        fill: #d8bca6;
      }

      .cls-82 {
        fill: #747372;
      }

      .cls-83 {
        fill: #387477;
      }

      .cls-84 {
        fill: #40798b;
      }

      .cls-85 {
        fill: #f3f5f1;
      }

      .cls-86 {
        fill: #6bac8d;
      }

      .cls-87 {
        fill: #7b9b5d;
      }

      .cls-88 {
        fill: #548c70;
      }

      .cls-89 {
        fill: #bb987e;
      }

      .cls-90 {
        fill: #9c7929;
      }

      .cls-91 {
        fill: #548c71;
      }

      .cls-92 {
        fill: #788b5e;
      }

      .cls-93 {
        fill: #509295;
      }

      .cls-94 {
        fill: #75bdd5;
      }

      .cls-95 {
        fill: #e4e6e2;
      }

      .cls-96 {
        fill: #ac899b;
      }

      .cls-97 {
        fill: #4c602f;
      }

      .cls-98 {
        fill: #4b8da3;
      }

      .cls-99 {
        fill: #8e705d;
      }

      .cls-100 {
        fill: #72591c;
      }

      .cls-101 {
        fill: #a3a09e;
      }

      .cls-102 {
        fill: #86c5a7;
      }

      .cls-103 {
        fill: #bd997f;
      }

      .cls-104 {
        fill: #8b6f5b;
      }

      .cls-105 {
        fill: #509294;
      }

      .cls-106 {
        fill: #866854;
      }

      .cls-107 {
        fill: #c9b6c0;
      }

      .cls-108 {
        fill: #866754;
      }

      .cls-109 {
        fill: #f9f8f7;
      }

      .cls-110 {
        fill: #e5e6e2;
      }

      .cls-111 {
        fill: #ae8a2d;
      }

      .cls-112 {
        fill: #af8a2d;
      }

      .cls-113 {
        fill: #b99346;
      }

      .cls-114 {
        fill: #866753;
      }

      .cls-115 {
        fill: #8c715c;
      }

      .cls-116 {
        fill: #545654;
      }

      .cls-117 {
        fill: #d8bca7;
      }

      .cls-118 {
        fill: #9a7827;
      }

      .cls-119 {
        fill: #4f5253;
      }

      .cls-120 {
        fill: #ba977e;
      }

      .cls-121 {
        fill: #6e505f;
      }

      .cls-122 {
        fill: #3a3735;
      }

      .cls-123 {
        fill: #4b5f2e;
      }

      .cls-124 {
        fill: #be9a80;
      }

      .cls-125 {
        fill: #bbd2d2;
      }

      .cls-126 {
        fill: #788b5d;
      }

      .cls-127 {
        fill: #637747;
      }

      .cls-128 {
        fill: #31302f;
      }

      .cls-129 {
        fill: #d9bea8;
      }

      .cls-130 {
        fill: #a2bf77;
      }

      .cls-131 {
        fill: #ebebea;
      }

      .cls-132 {
        fill: #bc997f;
      }

      .cls-133 {
        fill: #7c9c5d;
      }

      .cls-134 {
        fill: #8e9e7a;
      }

      .cls-135 {
        fill: #9c7e2a;
      }

      .cls-136 {
        fill: #d9a955;
      }

      .cls-137 {
        fill: #2e2e2e;
      }

      .cls-138 {
        fill: #e0c64d;
      }

      .cls-139 {
        fill: #a2a2a1;
      }

      .cls-140 {
        fill: #509194;
      }

      .cls-141 {
        fill: #7a9b5c;
      }

      .cls-142 {
        fill: #fafaf9;
      }

      .cls-143 {
        fill: #fefefe;
      }

      .cls-144 {
        fill: #9f8335;
      }

      .cls-145 {
        fill: #86c8ca;
      }

      .cls-146 {
        fill: #85c5a7;
      }

      .cls-147 {
        fill: #798b5e;
      }

      .cls-148 {
        fill: #bc987f;
      }

      .cls-149 {
        fill: #bc997e;
      }

      .cls-150 {
        fill: #617445;
      }

      .cls-151 {
        fill: #4e6231;
      }

      .cls-152 {
        fill: #788a5d;
      }

      .cls-153 {
        fill: #ab8c2f;
      }

      .cls-154 {
        fill: #ba997f;
      }

      .cls-155 {
        fill: #a1a2a2;
      }

      .cls-156 {
        fill: #85c8ca;
      }

      .cls-157 {
        fill: #f9faf8;
      }

      .cls-158 {
        fill: #373533;
      }

      .cls-159 {
        fill: #799a5c;
      }

      .cls-160 {
        fill: #46765f;
      }

      .cls-161 {
        fill: #c9a2b6;
      }

      .cls-162 {
        fill: #8ba373;
      }

      .cls-163 {
        fill: #2f2e2d;
      }

      .cls-164 {
        fill: #d9aa56;
      }

      .cls-165 {
        fill: #d9aa57;
      }

      .cls-166 {
        fill: #b58f41;
      }

      .cls-167 {
        fill: #9a8142;
      }

      .cls-168 {
        fill: #6c7a4d;
      }

      .cls-169 {
        fill: #494949;
      }

      .cls-170 {
        fill: #494948;
      }

      .cls-171 {
        fill: #b08b2e;
      }

      .cls-172 {
        fill: #737373;
      }

      .cls-173 {
        fill: #4e514b;
      }

      .cls-174 {
        fill: #4b4a4a;
      }

      .cls-175 {
        fill: #7a9a5c;
      }

      .cls-176 {
        fill: #bd9a80;
      }

      .cls-177 {
        fill: #af8b2d;
      }

      .cls-178 {
        fill: #c5c8c7;
      }

      .cls-179 {
        fill: #6bac8c;
      }

      .cls-180 {
        fill: #eaeae9;
      }

      .cls-181 {
        fill: #85c4a5;
      }

      .cls-182 {
        fill: #a1be76;
      }

      .cls-183 {
        fill: #7a9a5b;
      }

      .cls-184 {
        fill: #4b4b4b;
      }

      .cls-185 {
        fill: #e3cab8;
      }

      .cls-186 {
        fill: #504b47;
      }

      .cls-187 {
        fill: #484848;
      }

      .cls-188 {
        fill: #b9977e;
      }

      .cls-189 {
        fill: #4f3241;
      }

      .cls-190 {
        fill: #5a9071;
      }

      .cls-191 {
        fill: #d9bda7;
      }

      .cls-192 {
        fill: #e8e8e8;
      }

      .cls-193 {
        fill: #eeece3;
      }

      .cls-194 {
        fill: #71581b;
      }

      .cls-195 {
        fill: #3d778a;
      }

      .cls-196 {
        fill: #bb9878;
      }

      .cls-197 {
        fill: #fdfdfd;
      }

      .cls-198 {
        fill: #856754;
      }

      .cls-199 {
        fill: #4a5f2d;
      }
    </style>
  </defs>
  <!-- Generator: Adobe Illustrator 28.7.1, SVG Export Plug-In . SVG Version: 1.2.0 Build 142)  -->
  <g>
    <g id="Layer_1">
      <g>
        <path class="cls-192" d="M239.39,461.17c-5.3-1.61-10.83-1.8-16.26-2.59-10.1-1.48-20.24-2.66-30.36-3.96-10.55-1.35-21.11-2.66-31.66-4.07-9.54-1.27-19.06-2.64-28.59-3.95-4.26-.58-8.52-1.13-13.62-1.8,3.7-2.96,7.46-3.71,10.85-5.11,7.71-3.19,15.54-6.08,23.34-9.05.8-.3,1.72-.28,2.59-.4,3.05,1.23,2.39,4.34,3.33,6.63.85,2.08.34,5.19,3.01,5.91,3.51.95,7.25.75,10.83.08,1.62-.3.85-1.86.63-2.95-.53-2.65-2.51-5.03-1.45-7.97,2.34-1.74,5.1-.86,7.66-1.19,4.68-.59,4.98-1.02,3.67-5.46-.56-1.9-1.82-3.78-.56-5.88,1.51-1.03,3.12-.65,4.68-.26,13.53,3.43,27.25,6.1,40.71,9.82,1.93,1.05,1.91,3.11,2.46,4.86,1.47,4.69,1.9,9.68,4.11,14.15,3.01,6.32,7.9,8.19,14.48,6.15,1.26-.39,2.64,0,4.02-.47-2.96-4.64-8.16-7.07-11.06-11.67.13-2.84-.28-5.79,1.75-8.21,21.43,5.05,42.87,10.09,64.3,15.14,0,.21,0,.42,0,.63-18.79,3.59-37.57,7.17-56.35,10.78-.67.13-1.28.56-1.92.85h-10.6Z"/>
        <path class="cls-192" d="M520.13,347.97c-.45,3.92,1.57,5.52,5.14,6.79,16.02,5.69,31.91,11.72,47.84,17.65.38.14.68.48,1.52,1.09-12.54,1.6-24.59,3.09-36.62,4.69-12.29,1.63-24.56,3.37-36.85,5.02-11.86,1.59-23.73,3.11-35.59,4.67-13.01,1.71-26.02,3.47-39.04,5.16-14.33,1.85-28.67,3.59-42.99,5.47-14.75,1.94-29.48,4.02-44.23,5.98-11.86,1.58-23.73,3.09-35.6,4.59-5.5.69-11.1.92-16.5,2.06-2.66.56-4.88-.65-7.33-.37-.15-.43-.1-.84.18-1.2,4.51-2.87,9.77-3.95,14.62-6.04,1.77-.76,3.55-1.4,4.91-2.83,2.48-2.46,4.36-5.42,6.68-8,2.25-2.5,1.63-3.64-1.47-4.12-1-.16-1.99-.37-3.02-.33-3.86-.22-7.73-.35-11.37-1.89-1.65-3.42-1.89-7.07-1.85-10.77,1.51-7.11,5.18-13.53,7.14-21.19-6.14,2.21-11.53,4.7-16.96,7.08-2,.88-3.88,2.08-6.17,2.06-.43-.09-.74-.34-.94-.73-.36-4.97,1.75-9.69,1.65-15.08-8.96,4.37-15.39,10.35-17.42,20.17-1.81,3.9-5.8,4.04-9.13,5.33-1.61.55-3.19.34-4.76-.16-13.17-4.19-26.47-7.98-39.63-12.18-7.18-4.38-13.05-10.44-19.67-15.55-.69-.53-1.1-1.37-1.21-2.29,2.08-4.72,6.82-6.88,10.14-10.41.98-1.04,2.31-1.76,3.2-2.93,1.07-1.41.3-2.07-1.03-2.52-3.22-1.08-6.5-1.94-9.6-3.3-1.27-.56-3.12-1.08-2.77-2.85.3-1.51,2.09-1.29,3.36-1.43,1.02-.11,2.05-.06,3.08-.06,47.74,0,95.47,0,143.21,0,1.61,0,3.23-.08,4.83.22,2.45.78,1.94,2.18.52,3.42-3.02,2.63-5.56,5.86-9.25,7.68-2.53.71-4.08-1.1-5.83-2.33-1.21-.85-2.42-2.05-3.86-.7-3.68,3.47-7.53,6.81-10.39,11.18,2.52,1.72,5.47,1.17,7.6,2.86,1.01,3.49-2.68,5.03-3.25,7.87.69,4.3,3.51,8.06,3.17,12.61-.89,4.67-3.59,8.66-5.19,13.07,7.09,2.01,8.67,1.13,10.36-5.5.58-2.26.8-4.66,2.25-6.64,1.04-.86,2.2-.41,3.33-.33.72.08,1.43.23,2.12.42,1.39.4,2.82.62,4.23.8,3.59.46,5.47,2.26,5.2,5.99.03,2.33.05,4.68-.22,7-.27,2.31.86,3.06,2.99,3.29,6.5.72,7.37-.28,6.67-6.82-.52-4.92-1.49-9.82-1.2-14.81.04-.45.15-.88.3-1.3,1.78-3.4,5.28-4.88,8.04-7.2.84-.64,1.6-1.39,2.4-2.08,1.62-1.21,3.22-2.46,5.28-2.86,2.59-.11,5.22-.61,7.72.53,1.53,1.69.34,3.33-.2,4.91-1.15,3.34-2.78,6.49-4.03,9.79-.76,1.99-.33,3.14,2,3.15.88,0,1.76.02,2.65.02,6.93.02,6.96.03,8.33-6.73.62-3.03,1.32-6.03,2.22-8.99.56-1.38.52-2.81.42-4.26.12-5.66-.42-11.33.37-16.97.35-1.28.59-2.57.76-3.88.21-1.59,1.01-3.02,2.67-3.06,8.3-.15,16.63-1.38,24.87.67.9.87,1.16,2.01,1.19,3.2.18,7.15.59,14.3-.14,21.44-1.13,3.61-4.72,3.78-7.38,5.24-1.36.6-2.73,1.21-4.04,1.92-2.11,1.03-4.22,2.04-6.34,3.03-.34,2.41,1.62,1.97,2.9,2.34,4.73,1.41,9.97.9,14.29,3.83,1.65,4.99.66,10.13.8,15.2.2,7.4,2.67,9.02,9.86,6.11,1.3-1.52.88-3.35.89-5.07.03-9.8.2-19.61-.06-29.41-.13-4.83.88-8.95,4.37-12.35,1.99-1.54,2.53-4.92,5.92-4.72,4.78,8.88,8.29,18.31,11.9,27.68,1.67,4.35-1.42,8.11-3.15,11.92-.39.78-.79,1.55-1.14,2.35-1.34,2.89-1.7,6.23-3.99,8.68-.75.58-1.66,0-2.33.26,2.64.6,5.19,0,7.58-1.41,4.26-2.5,8.6-4.86,12.78-7.48,4.7-2.95,4.72-2.92,1.41-7.55-4.09-2.71-6.12-6.35-6.33-11.39-.2-4.82-.74-9.66-1.28-14.48-.19-1.72-.2-3.56,1.09-5.03,4.31-.95,6.1,3.19,9.26,4.56,3.72,2.8,7.63,5.35,11.31,8.2,1.27.98,2.56,1.95,3.05,3.6-.68,6.84-2.62,13.43-3.95,20.15-.51,2.57-.76,5,2.28,6.26,3.08.13,3.91-1.97,4.48-4.41,1.42-6.12,2.86-12.24,4.03-18.41.55-2.87,1.93-4.74,4.77-5.65,5.54-1.79,10.74-4.64,16.67-5.17,3.73,1.78,8.03,2.32,11.32,5.07,1.49,4.68,1.07,9.66,2.24,14.37.78.84,1.64.69,2.53.17,3.2-2.07,2.12-5.36,2.45-8.28.29-2.52-1.18-5.56,1.94-7.35Z"/>
        <path class="cls-112" d="M441.73,222.66c3.46,4.12,5.94,8.88,8.8,13.39,1.06,2.3-.85,3.11-2.17,4.08-2.47,1.82-5.02,3.54-7.65,5.11-2.2,1.31-2.5,2.73-1.45,5.05,3.17,7.05,6.28,14.14,9.46,21.19,2.34,4.03,5.38,7.56,8.16,11.27,2.84,1.73,5.58-.41,8.52-.11-.2-1.42-1.24-2.33-1.59-3.54-1.45-4.22-2.83-8.46-3.42-12.91.47-3.12,1.38-6.09,2.95-8.84,1.98-.94,2.46.9,3.27,1.89,1.83,2.22,2.94,4.95,4.78,7.18,5.58,9.41,11.78,18.44,17.45,27.79,1.82,3,4.04,5.69,6.18,8.46.41,2.5,2.06,4.39,3.15,6.56.65,1.3,2.12,2.61.42,4.19-1.36.61-2.74.5-4.14.19-61.14-14.99-122.29-29.94-183.45-44.8-1.7-.41-3.51-.58-4.76-2.05-.36-.66-.64-1.48-.3-2.09,1.7-3.05,1.31-6.39,1.53-9.65,4.68-2.92,10.19-3.1,15.3-4.6,4.02-1.18,8.12-2.13,12.28-2.74,3.41.82,6.95,1.3,10.27,2.36,7.04,2.24,12.9.47,18.14-4.4-1.27-1.1-3.45-.93-4.22-2.84,0-.5.21-.88.62-1.17,2.38-1.26,5.03-1.66,7.6-2.25,21.66-4.97,43.1-10.83,64.77-15.74,3.12-.71,6.25-1.59,9.52-.97Z"/>
        <path class="cls-140" d="M256.32,410.94c-.28.34-.55.68-.83,1.02-2.96.35-5.94-.11-8.89.25-4.42,1.15-7.59,4.34-11.2,6.81-2.89,1.97-5.59,4.31-9.17,5.05-2.04,0-3.57-1.27-5.21-2.21-9.07-5.16-17.94-10.65-26.89-16-2.77-6.33-6.46-11.76-13.61-13.77-5.57-2.58-11.19-4.97-17.04-6.89-7.07-2.32-13.58-6-20.26-9.23-.22-4.48,3.95-5.67,6.2-8.31,9.42-8.75,18.8-17.54,28.31-26.2.5-.46,1.07-.74,1.78-.67,1.13.41,2.05.96,1.8,2.4,2.04,15.52,4.38,30.98,8.12,47.31,2.65-8.13,5.25-15.2,7.81-22.29,1.01-2.81,1.37-6.08,4.26-7.92,6.13,2.36,8.9,8.22,12.94,12.69,10.29,11.4,20.15,23.19,30.3,34.72.28.32.72.5,1.12.69,3.36.93,6.99-.5,10.25,1.24.38.38.45.82.22,1.3Z"/>
        <path class="cls-192" d="M112.36,388.08c-.58-2.84-3.27-2.4-4.97-2.65-19.19-2.85-38.42-5.42-57.62-8.19-12.22-1.76-24.41-3.72-37.76-5.77,3.64-1.89,6.34-3.54,9.23-4.73,8.16-3.37,15.75-7.91,23.82-11.43,3.85-1.67,6.09-3.81,5.42-8.18,2.31.71,1.81,2.73,1.92,4.37.17,2.64-.09,5.3.13,7.93.22,2.65,1.3,4.53,4.43,4.1,1.78-3.27,1.28-6.94,1.88-10.41.27-1.54,0-3.17.58-4.69,2.18-3.08,5.66-4,8.89-5.33,7.48,1.1,14.32,4.15,21.25,6.94,2,.8,2.39,2.81,2.83,4.7,1.42,6.15,2.79,12.31,4.08,18.49.52,2.49,1.46,4.52,4.51,4.38,2.77-1.17,2.73-3.38,2.31-5.85-1.18-6.88-3.32-13.58-4.05-20.55.18-1.85,1.67-2.62,2.94-3.55,7.04-5.14,14.18-10.13,21.17-15.33,1.59-1.04,3.12-2.19,4.8-3.09,1.12-.6,2.37-1.5,3.34.29.96,4.92,1.7,9.85,1.35,14.89-.16,2.67-1.73,3.79-4.26,4.06-2.15.22-4.41.2-6.2,1.73-2.65,7.44-3.54,15.29-5.34,22.93-.9,3.82-1.51,7.72-2.53,11.52-.36,1.34-.34,3-2.17,3.44Z"/>
        <path class="cls-138" d="M248.05,221.85c7.33-.01,14.67-.02,22-.03,3.03,2.9,5.14,6.72,8.99,8.81.52.28.26,1.02-.26,1.43-1.29.75-2.72.68-4.13.73-3.79.33-7.65-.58-11.39.62q-1.18,4.92,4.28,6.59c.33.31.55.68.65,1.12-1.57,5.08-3.63,9.88-7.91,13.36-4.83.33-9.25-1.52-13.75-2.74-29.81-8.05-59.64-16.02-89.47-24.02-2.42-.65-4.83-1.31-7.2-2.09-1.65-.54-3.51-.97-3.61-3.28.15-.55.47-.94.98-1.19,8.29-1.42,16.64-.45,24.96-.61,11.59-.85,23.11.9,34.67.93,2.05,0,4.12.17,6.1-.56,10.94-.85,21.88-.53,32.83-.21.88.12,1.66.42,2.24,1.13Z"/>
        <path class="cls-191" d="M77.94,145.9c3.73,14.81,12.49,27.34,18.63,41.07,1.17,2.62,1.67,4.51-2.04,4.87-6.9,4.48-14.6,7.33-22.05,10.64-4.63,2.06-8.82,5.27-14.08,5.84-2.58-.49-3.16-2.81-4.22-4.67-6.52-11.45-11.76-23.57-18.38-34.97-1.91-3.29-4.13-6.39-6-9.71-.85-1.51-2.02-2.92-1.72-4.85,1.19-1.78,3.15-1.89,4.97-2.33,8.32-2.05,16.74-3.64,25.01-5.88,3.86-2.01,6.33-5.53,9.29-8.52,1.19-1.2,1.98-3.05,4.22-2.39,3.05,3.1,3.49,7.72,6.37,10.92Z"/>
        <path class="cls-191" d="M193.42,153.88c-4.91-1.42-9.99-1.48-15.02-1.7-8.59-.38-7.76.6-7.86-7.81-.02-1.88.23-3.8-.86-5.51-.66-2.68-.36-5.41-.43-8.12-.01-1.77.02-3.54,0-5.31-.41-4.11.61-8.29-.6-12.36-.64-4.23-.29-8.48-.37-12.72.4-2.72-.6-5.88,2.4-7.79,6.83-2.39,13.58-5.04,20.65-6.72,5.54,1.14,21.08,14.21,22.7,19.07,1.09,15.01-.79,29.96-.68,44.95,0,1.33-.14,2.65-.86,3.83-2.45,2.24-5.48,1.39-8.3,1.47-3.63.1-7.22-.45-10.76-1.27Z"/>
        <path class="cls-191" d="M358.54,147.71c-2.53-2.82-6.03-2.4-9.26-2.66-6.78-.54-7.24-.87-6.45-7.55,1.02-8.65,2.27-17.28,3.41-25.92-.85-1.31-.9-2.76-.74-4.25.66-6.28.83-12.63,2.54-18.76,1.66-2.57,3.36-.72,4.82.14,5.28,3.1,10.65,6.03,15.85,9.25,1.21.65,2.16-.21,3.2-.58,6.39-1.67,12.37-4.45,18.58-6.59,1.84-.64,3.73-2.01,5.72-.27,1.58,4.48,2.29,9.12,2.42,13.85-2.66,13.68-6.19,27.18-9.02,40.83-.38,1.83-.61,3.83-2.54,4.9-6.27.58-12.36-1.17-18.56-1.59-3.32-.23-6.63-.75-9.97-.79Z"/>
        <path class="cls-156" d="M394.01,166.05c1.9-.61,3.84-1.12,5.69-1.85,1.47-.58,2.48-.43,3.12,1.09,2.22,14.67,3.2,29.49,5.26,44.17-2.33,4.15.77,8.25.15,12.38-.96,1.09-2.28,1.32-3.59,1.32-10.96,0-21.92.48-32.87-.24-.68-.19-1.74-.55-1.68-1.08.37-2.96-1.81-4.93-2.64-7.41.09-3.4.32-6.77,1.6-9.98,3.76-2.37,3.74-5.29,1.22-8.57-.34-1.26-.34-2.52,0-3.78,1.32-4.02,4.88-5.85,8.16-7.58,7.37-3.87,11.56-10.06,14.18-17.62.28-.59.65-1.04,1.4-.87Z"/>
        <path class="cls-29" d="M482.47,136.24c-1.88-2.37-3.75-4.74-5.63-7.1,2.43-1.43,4.22.43,6.06,1.35,20.72,10.38,41.11,21.41,61.86,31.74,5.65,2.81,11.29,5.63,16.94,8.45,1.34.75,2.71,1.42,4.17,1.9,1.08.45,2.39.93,2,2.37-.32,1.19-1.58,1.67-2.74,1.86-4.43.73-8.89,1.24-13.31,2.03-7.38.93-14.72,2.15-22.1,3.09-.67.18-1.35.29-2.03.35-5.38,1.37-9.07-.65-12.12-5.22-1.99-2.99-4.42-5.79-7.07-8.31-.57-.63-1.06-1.32-1.54-2.01-7.39-8.84-14.8-17.66-22.39-26.33-1.08-1.23-2.11-2.42-2.09-4.17Z"/>
        <path class="cls-50" d="M561.7,171.58c-12.75-5.62-25.03-12.19-37.41-18.55-15.12-7.77-30.23-15.57-45.36-23.33-.63-.32-1.39-.38-2.09-.56-1.77-.93-1.74-1.81.07-2.64,7.99-3.66,16-7.27,23.96-11,1.58-.74,2.65-.17,3.42.94,6.23,9.02,15.25,10.02,25.15,9.24,5.54-.43,11.14-.08,16.71.03,1.36.03,2.96-.68,4.06.81-1.59,1.48-3.59,1.06-5.45,1.08-8.47.06-16.95,0-26.05.05,13.99,13.56,28.07,26.08,41.66,39.1.59.85,1.25,1.66,2,2.39.44.49.71,1.04.67,1.72-.23.65-.54,1.15-1.35.73Z"/>
        <path class="cls-191" d="M501.84,215.75c.4-4.15-1.15-5.64-5.61-5.7-3.89-.05-7.86-.69-11.77-.51-3.74.18-5.43-.83-4.9-4.87.45-3.45-.15-6.99.72-10.46.43-1.7.26-3.49-.59-5.13-.14-2.26-.53-4.51-.34-6.78.08-2.03.94-4.01.41-6.09.21-3.12.58-6.22.34-9.36,0-2.29-.07-4.59.37-6.85,1-3.72.28-7.51.49-11.26.09-1.59-.04-3.2.55-4.73,1.01-1.8,2.52-1.46,3.63-.42,2.72,2.53,5.68,4.96,6.43,8.93-.86,2.35-3.95,1.72-5.01,3.78-.03,2.52,2.46,4.49,1.58,7.18-1.82,2.92-.23,4.11,2.42,4.76.93.47,1.51,1.26,1.93,2.16.5,1.08.58,2.91,2.46,1.26.98,1.46.56,3.02.38,4.58-.11.97-.44,2.16.94,2.46,1.1.24,1.39-.76,1.69-1.57.34-.93.47-2,1.68-2.28,1.31.77,1.25,1.79.62,2.96,1.34-2.28,1.38-5.32,3.9-6.95,1.46-.51,2.95-.79,4.51-.62,4.98,4.64,10.25,9.05,13.03,15.55-.76,8.6-1.15,17.24-3.78,25.56-1.62,1.31-3.62,1.41-5.4.94-4.4-1.17-8.08-.7-10.68,3.44Z"/>
        <path class="cls-140" d="M371.02,191.91c0,1.43,0,2.86,0,4.29-2.25,2.52-3.53,5.13-.82,8.15-1.48,3.34-1.24,7-1.91,10.49-2.43,2.01-1.54,5.42-3.29,7.73-1.61.51-3.17.53-4.66-.38-1.48-1.77-1.04-3.96-1.31-6-.06-1.16.68-1.99,1.17-2.92.43-2.1-1.36-2.65-2.57-2.82-5.82-.85-11.73-2.07-17.25,1.27-1.29,1.33-.1,2.6.11,3.89,1.47,6.84,0,8.07-8.41,7.11-.49-.18-.9-.47-1.22-.88,1.06-3.81,2.12-7.62,3.18-11.43-.09-3.4.96-6.58,1.9-9.79,3.17-10.79,6.08-21.66,9.38-32.42.61-1.99,1.36-3.85,2.75-5.41,2.28.3,4.56.6,6.84.9.73.5,1.82.17,2.4,1.02.82,1.48.85,3.14.62,4.69-.83,5.48,1.84,9.13,5.94,12.17,2.69,2,5.25,4.15,7.04,7.06.44,1.09.78,2.18.1,3.3Z"/>
        <path class="cls-136" d="M40.72,313.58c-.32-.23-.63-.47-.95-.7-.75-.9-1.48-1.81-2.04-2.85-4.41-10.24-8.27-20.69-12.22-31.11-1.41-3.71-.45-4.74,3.56-4.58,4.55.18,9.03.97,13.56,1.38,3.23.29,5.46,1.87,6.05,5.33,1.45,8.52,3.21,16.99,4.35,25.56-.09.89-.35,1.92-1.14,2.23-4.17,1.65-2.68,4.33-1.42,7.02.74,1.58,1.54,3.12,2.22,4.73q2.1,4.99,6.76,3.1c5.8,1.19,10.85,4.29,16.27,6.42,2.99,1.18,6.05,2.26,8.89,3.75,3.61,1.89,7.17,2.21,10.95.83,5.09-.77,10.07-2.02,15.05-3.25,1.28-.32,2.55-.72,3.87-.83,1.16-.09,2.56-.25,3.01,1.14.35,1.1-.66,1.88-1.46,2.49-5.75,4.34-11.71,8.37-17.82,12.18-2.19,1.36-4.53,1.12-6.8.28-12.41-4.56-25.02-8.56-37.54-12.79-1.42-.48-2.75-1.07-3.42-2.54-.21-.3-.42-.6-.63-.9-1.9-6.23-3.52-12.61-9.08-16.87Z"/>
        <path class="cls-179" d="M213.08,103.51c-6.67-6.18-13.33-12.38-21.27-16.98-.82-.76-1.88-1.45-.77-2.74,5.59-.22,9.77,3.54,14.66,5.27,6.22,2.2,11.83,5.82,18.05,8.04,10.75,3.86,20.77,9.38,31.38,13.57,4.2,1.66,8.41,3.33,12.52,5.22.82,1.2,1.64,2.41,2.46,3.61-2.15,7.4-5.42,14.45-6.82,22.08-.92.54-1.84,1.09-2.76,1.63-5.25-3.49-9.77-7.88-14.61-11.86-8.85-7.26-17.79-14.4-26.52-21.8-1.12-.95-2.37-1.74-3.75-2.28-.38-.15-.74-.35-1.08-.57-1.12-.77-1.11-2.07-1.52-3.18Z"/>
        <path class="cls-138" d="M335.57,248.26c-9.38,2.39-18.75,4.78-28.13,7.17-1.08.36-1.68-.37-2.06-1.11-2.28-4.47-5.39-8.51-7.1-13.29.15-.69.62-1.1,1.23-1.38,5.39-.98,5.57-1.23,4.24-6.17-4.02-1.7-8.42.26-12.44-1.33-1.94-2.35.4-3.04,1.68-3.78,3.52-2.03,6.94-4.2,10.23-6.57,9.21.01,18.42.02,27.63.03.19.02.38.06.56.12,2.14.74,4.35.34,6.52.31,2.04-.03,3.19.88,3.2,2.74.01,6.27,1.92,12.46.78,18.77-1.22,2.75-3.33,4.25-6.34,4.48Z"/>
        <path class="cls-156" d="M256.32,410.94c-.04-.33-.08-.65-.12-.98,2.17-1.85,4.78-1,7.2-1.09,3.92-.14,7.84-.02,12.24-.05-8.52-9.81-16.95-18.97-25.26-28.23-1.46-1.63-3.28-2.98-3.91-5.24-.28-1.08-.42-2.16.04-3.23,2.9-1.51,6.85-1.07,8.63-4.66,4.12-1.44,8.28-2.78,12.44-4.12,1.47-.47,2.99-1.38,4.57-.22l-.08-.04c3.96,2.94,4.63,7.75,6.23,11.87,1.33,3.42,2.65,3.37,5.37,2.01,1.9-.95,3.56-2.72,6-2.35.32,3.82.64,7.64.97,11.47,1.16,1.48.2,2.81-.42,4.06-3.36,6.64-6.43,13.43-10.12,19.91-.06.24-.12.47-.19.7-7.86.06-15.72.13-23.57.19Z"/>
        <path class="cls-30" d="M248.05,221.85c-.53,0-1.06,0-1.59.01-2.45-1.46-2.72-4.16-3.31-6.47-1.2-4.69-2.37-9.38-3.67-14.04-.02-.45.04-.89.17-1.32,4.92-5.41,8.59-11.97,14.74-16.27,3.91-4.64,7.82-9.29,11.73-13.93,2.44-1.48,3.76.94,5.59,1.59,2.54,1.68,5.52,2.79,7.3,5.5.08.12.14.28.25.36,2.14,1.51,5.86,2.83,6.05,4.55.26,2.42-3.14,4.23-5.04,6.23-10.7,11.29-21.47,22.52-32.22,33.78Z"/>
        <path class="cls-148" d="M28.32,154.75c5.37,8.22,10.57,16.52,14.92,25.35,4.08,8.29,8.45,16.44,12.71,24.65.6,1.16,1.01,2.48,2.41,3.01.03,2.17-2.19,1.91-3.23,2.98,6.74.16,13.31,1.58,19.98,2.1,1.16.09,2.35.27,2.88,1.58-.28,1.72-1.66,2.4-3.02,2.86-8.03,2.7-15.91,5.84-24.18,7.82-.48-.05-.9-.24-1.25-.58-4.14-5.54-8.29-11.09-12.43-16.63-1.86-3.94-1.61-8.28-2.35-12.42-.39-1.9-1.88-3.32-2.34-5.2,2.76-3.41,2.29-6.22-.77-9.49-3.58-3.83-7.27-7.66-10.07-12.18.72-5.06,3.13-9.45,5.51-13.86.41-.28.82-.27,1.22.03Z"/>
        <path class="cls-172" d="M370.99,98.27c-.12,1.15-.35,2.12-1.77,1.04-3.22-4.66-4.03-10.25-5.76-15.46-2.02-6.08-3.87-12.22-5.78-18.34,5.7-4.78,12.21-8.39,18.21-12.73,1.08-.79,1.96-.98,3.02.14,5.22,5.49,11.07,10.36,15.93,16.21.28,3.07-2.16,4.6-3.76,6.59-5.24,6.51-10.73,12.8-16.04,19.25-1.16,1.41-2.58,2.34-4.04,3.3Z"/>
        <path class="cls-102" d="M223.5,98.23c-8.62-3.86-17.24-7.69-25.84-11.59-2.25-1.02-4.45-2.15-6.93-2.49-1.92,1.02-2.8-.31-3.7-1.62.32-3.71,3.17-5.99,5.01-8.85,1.01-1.57,2.23-3.01,3.07-4.69,1.67-1.44,3.64-1.02,5.44-.6,13.36,3.16,26.7,6.4,40.03,9.64.52.13.96.57,1.44.87.23.59.18,1.23-.23,1.66-5.84,6.16-11.34,12.67-18.3,17.67Z"/>
        <path class="cls-138" d="M360.51,222.08c1.73-.07,3.46-.14,5.2-.21,1.38-1.06,2.77-1.3,4.17-.03,12.78,0,25.56,0,38.34-.01,9.63.05,19.26.08,28.88.19,1.55.02,3.22-.54,4.63.63-20,4.86-39.97,9.85-60.02,14.51-7.37,1.72-14.6,4.16-22.17,5.01-.85-.7-1.21-1.68-1.22-2.7-.04-5.89-.21-11.81,2.19-17.4Z"/>
        <path class="cls-175" d="M530.86,312.89c-.33.2-.66.39-.99.59-.62-.08-1.26.05-1.56.55-3.08,5.2-6.38,10.3-7.44,16.42-.21.31-.41.61-.62.92-.98,1.92-2.9,2.36-4.7,2.98-11.95,4.14-24.09,7.74-35.92,12.24-3.13,1.19-5.97.9-8.77-1.04-3.27-2.26-6.59-4.44-9.71-6.9-.86-.67-2.27-1.32-1.7-2.7.5-1.23,1.95-1.3,3.09-1.23,4.39.3,8.79.64,13.16,1.18,1.91.24,3.77.48,5.68.17,9.37-.17,18.1-3.55,27.1-5.54,2.53-.56,2.5-2.99,3.21-4.85,1.16-1.8,3.9.65,4.83-1.81,1.53-4.06,4.03-7.72,5.17-11.93.43-1.61-1.15-2.12-2.3-2.73-1.36-.73-3.14-1.04-3.2-3.11,1.9-7.16,5.84-13.39,9.15-19.91.94-1.85,2.63-2.76,4.75-2.46,2.32.32,4.66.48,7,.64,2.81.2,4.18,1.87,3.19,4.45-3.08,8.04-5.11,16.5-9.41,24.07Z"/>
        <path class="cls-145" d="M348.08,162.79c-4.18,14.68-8.35,29.37-12.56,44.04-.35,1.23-.98,2.39-1.48,3.58-.55-2.13-1.75-.85-2.64-.43-3.18,1.51-6.29,3.17-9.49,4.63-.9.41-1.89,1.79-3.04.3-2.19-5.81-1.87-11.95-2.13-17.96-.13-2.88-1.64-6.02.56-8.8,6.22-3.94,11.23-9.35,16.93-13.93,4.67-3.75,9.24-7.62,13.85-11.44Z"/>
        <path class="cls-50" d="M28.32,154.75c-.28.02-.55.04-.83.05-6.76,2.65-14.01,2.83-21.02,4.22-.87.17-1.75-.09-2.31-.92,15.47-11.99,31.02-23.89,47.15-35.01,3.83,4.54,4.64,10.37,6.53,15.71.89,2.51,2.72,5,1.41,7.95-8.72,2.08-17.44,4.16-26.16,6.22-1.67.39-3.45.44-4.76,1.78Z"/>
        <path class="cls-105" d="M408.07,209.46c-2.8-1.87-2.07-5.07-2.41-7.59-1.49-11.1-2.54-22.25-3.71-33.39-.12-1.12-.36-2.38.85-3.19,7.94,9.45,15.89,18.89,23.83,28.34,1.23.51,1.98,1.57,1.79,2.77-1.16,7.63-1.04,15.53-4.53,22.7-5.6-2.68-10.53-6.46-15.83-9.63Z"/>
        <path class="cls-119" d="M560.03,167.92c-7.52-6.21-14.27-13.29-21.45-19.86-7.44-6.82-15.28-13.37-22.42-21.53h34.06c3.22,10.64,5.71,21.46,8.18,32.29,1.75,2.02,2.8,4.34,2.98,7.01.06.94.28,2.16-1.34,2.09Z"/>
        <path class="cls-39" d="M17.43,274.1c-5.93-7.01-12.03-13.88-17.4-21.34,5.76-2.55,11.88-1.63,17.74-1.18,8.04.63,16.06.53,24.09.68,2.31.04,4.73-.22,6.66,1.54,1.93,4.14,2.44,8.54,2.31,13.05-.76,1.43-2.15,1.87-3.59,2.19-8.52,1.86-17.05,3.66-25.58,5.46-1.44.31-2.88.45-4.22-.4Z"/>
        <path class="cls-166" d="M50.43,331.35c14.13,4.86,28.26,9.72,42.39,14.59,1.76.61,3.33.6,4.98-.55,6.35-4.41,12.78-8.7,18.88-13.94-7.09,1.45-14.18,2.9-21.26,4.35-.25-1.63,1.1-1.97,2.11-2.29,9.43-3.04,18.58-6.89,28.1-9.65.57-.16,1.15-.17,1.73-.09,2.06,2.53-.63,3.19-1.86,3.98-2.26,1.45-2.92,3.09-1.7,5.47-8,5.85-16,11.71-24,17.56-.39,1.08-1.33,1.65-2.14,2.32-.91,1.25-.07,2.42.19,3.61,1.78,6.23,2.62,12.65,4.11,18.93.27,1.14.45,2.32-.36,3.37-3.93.38-5.66-1.36-6.32-5.33-1.11-6.76-2.88-13.4-4.27-20.11-.34-1.63-1.04-2.51-2.66-3.03-6.8-2.18-13.56-4.48-20.34-6.74-1.97.38-3.75-.53-5.61-.81-2.1.48-.88,2.37-1.47,3.48-.21.55-.44,1.08-.69,1.61-.31,4.3-.66,8.59-.89,12.89-.09,1.66-.21,3.17-1.98,3.92-2.35-.57-1.96-2.59-2.03-4.19-.18-3.65-.33-7.33,0-10.95.45-5-.56-9.21-4.83-12.24-.03-2.06-.06-4.11-.09-6.17Z"/>
        <path class="cls-93" d="M317.3,188.15c.51,8.92,1.87,17.8,1.58,26.77-7.74-8.55-15.44-17.13-23.24-25.63-1.25-1.37-.87-2.69-.52-4.06,1.71-6.64,3.47-13.26,5.22-19.89,5.81-.96,11.01.55,15.76,3.89.4,6.31.8,12.61,1.21,18.92Z"/>
        <path class="cls-18" d="M146.65,222c-.08.26-.12.52-.1.79.61,7.45.5,14.82-2.35,21.9-1.26.78-1.91-.24-2.51-.99-4.78-5.94-9.47-11.95-13.86-18.18-.57-.81-1.2-1.71-.69-2.83,1.57-9.92,3.15-19.84,4.72-29.76.27-.43.67-.67,1.18-.71,4.48.69,8.63,2.57,12.98,3.75,1.78.48,3.03,1.7,3.43,3.62-.2,7.57-.18,15.16-2.79,22.43Z"/>
        <path class="cls-161" d="M127.14,222.68c4.87,6.49,9.73,12.98,14.61,19.46.61.81,1.36,1.53,1.39,2.63-.51.67-1.22.97-2.02,1.12-4.87.53-9.65-1.17-14.52-.66-5.84-.81-11.76-.79-17.6-1.64-.75-.09-1.35-.43-1.82-1.02-3.34-6.94-6.07-14.14-8.93-21.29-.47-1.18-1.18-2.41-.26-3.71,8.57,1.58,17.13,3.16,25.7,4.72,1.13.21,2.3.26,3.45.38Z"/>
        <path class="cls-30" d="M481.36,336.84c-4.92,1.36-9.74-.44-14.61-.63-2.15-.09-4.34-.27-7.31-.53,4.79,4.25,9.61,7.15,14.28,10.26,1.29.86,2.8.44,4.24-.06,14.09-4.86,28.19-9.69,42.28-14.52-.03,2.05-.07,4.11-.1,6.16-1.11,1.71-3.41,2.08-4.42,3.9-.98,6.27-.12,12.58-.47,18.85-.1,1.73.53,3.9-2.02,4.61-1.79-.8-1.87-2.37-1.96-4.04-.21-3.95-.55-7.89-.84-11.83-1.79-1.53.16-4.79-2.16-5.64-1.99-.73-4.03,1.2-6.18,1.32-.71.04-1.42.2-2.13,0-5.84,1.95-11.65,3.98-17.52,5.8-1.86.58-2.47,1.65-2.83,3.4-1.36,6.61-3.13,13.15-4.22,19.81-.66,3.98-2.4,5.73-6.34,5.33-.97-2.83.12-5.52.71-8.19,1.04-4.71,1.95-9.46,3.04-14.15.23-1.22,1.1-2.41.15-3.68-.86-.62-1.4-1.59-2.35-2.09-4.68-3.55-9.36-7.1-14.03-10.65.7-3.35-.76-5.44-3.56-7.24-2.37-1.52-5.45-2.44-6.38-5.67.12-.47.41-.78.85-.96,1.18-.39,2.32-.12,3.44.21,8.79,2.65,17.67,5.01,26.39,7.92,1.49.5,3.16.76,4.06,2.33Z"/>
        <path class="cls-96" d="M49.54,224.51c.27,0,.53,0,.8,0,4.61.52,8.55,2.91,12.71,4.65,5.54,2.31,11.27,4.19,16.56,7.09.54.43.93.97,1.08,1.65-.31,1.72-1.77,2.31-3.08,2.86-8.81,3.7-17.16,8.35-25.77,12.48-.93.44-1.86.88-2.94.75-5.99-4.02-9.13-10.59-13.95-15.66-1.28-1.34-2.86-2.67-2.17-4.93,5.59-2.97,11.18-5.94,16.77-8.91Z"/>
        <path class="cls-23" d="M143.2,375.49c7.78,1.73,14.11,6.94,21.79,9.04,5.62,1.53,11,3.86,16.07,6.81-.42.95-1.34,1.33-2.14,1.84-1.3.81-2.59,1.62-3.76,2.62-3.8,3.38-8.08,6.21-11.47,10.06-2.61,1.53-4.83,3.55-7.07,5.56-1.24,1.11-2.54,2.4-4.5,2.06-1.89-7.34-3.78-14.69-5.66-22.03-2.74-4.98-4.88-10.09-3.26-15.96Z"/>
        <path class="cls-148" d="M517.52,211.13c1.18-8.74,2.35-17.47,3.53-26.21,3.03-1.66,4.58.08,5.77,2.56.78,1.61.61,3.44,1.11,5.12.17.4.32.81.48,1.21.92,2.11,2.8,3.3,4.5,4.67,1.6,1.29,3.22,2.59,3.07,4.98-2.11,5.12-4.14,10.29-7.64,14.69-3.85,5.94-6.89,12.31-9.82,18.73-.23.2-.51.48-.74.41-5.95-1.66-11.35-4.31-15.67-8.87-.08-2.25,1.61-3.32,3.07-4.53,4.2-3.45,8.47-6.85,12.89-9.99,2.68-1.9-.31-1.89-.56-2.77Z"/>
        <path class="cls-91" d="M223.5,98.23c4.63-5.72,10.33-10.39,15.35-15.73,1.1-1.17,2.12-2.4,3.18-3.6,1.02.07,1.47.86,1.95,1.58,7.9,11.8,15.8,23.6,23.7,35.39-4.56.5-8.08-2.36-11.99-3.83-10.93-4.1-21.15-9.89-32.17-13.82Z"/>
        <path class="cls-4" d="M562.66,170.62c-.28-.29-.57-.59-.85-.88,1.94-3.48,5.52-2.79,8.47-2.92,6.87-.31,13.73-1.43,20.64-.66.98.09,1.96.18,3.39.3-3.98,4.24-7.69,8.19-11.4,12.13-1.87,3.99-5.72,6.22-8.4,9.5-3.96,3.89-7.77,7.92-11.83,11.71-1.2,1.12-2.64,3.42-4.47.5-1.85-5.63-3.74-11.25-5.84-16.8-.69-1.82-1.82-3.74-.38-5.76,4.24-.97,8.54-1.54,12.88-1.91.91-.08,2.29-.19,2.4-1.4.12-1.26-1.61-.22-1.98-1.15-1.04-.73-2.1-1.44-2.63-2.67Z"/>
        <path class="cls-41" d="M112.36,388.08c2.59-11.75,5.17-23.51,7.77-35.26.28-1.28.65-2.53.98-3.8,1.02-.72,1.68-.32,2.16.68,3.47,13.18,8,26.02,12.43,38.9.09.71-.08,1.36-.53,1.92-8.31,3.98-16.62,7.95-25.49,12.2.97-5.29,1.83-9.97,2.69-14.65Z"/>
        <path class="cls-145" d="M423.91,219.09c1.07-6.79,2.08-13.6,3.27-20.37.32-1.82.41-3.47-.54-5.09,2-.76,1.56-2.58,1.79-4.12.59-3.91,1.19-7.82,1.78-11.73,4.74-3.45,9.99-4.54,15.72-3.4.33,7-.16,14.04.83,21.02.26,1.8.55,3.8-1.22,5.29-7.23,6.11-14.43,12.26-21.64,18.4Z"/>
        <path class="cls-191" d="M502.59,228.01c4.84,3.81,10.16,6.75,15.94,8.85,4.79,1.58,8.98,4.33,13.32,6.79.3.47.28.93-.05,1.38-8.78,2.45-17.84,3.5-26.75,5.29-3.14.63-6.27,1.65-9.57,1.36-.49-.13-.91-.38-1.26-.74-3.37-7.79-4.21-16.29-6.77-24.31-.58-1.82-1.11-3.64-.05-5.48,3.41,1.62,6.82,3.25,10.23,4.86,1.28.61,2.55,1.63,3.93.16.92.27.5,1.31,1.04,1.81Z"/>
        <path class="cls-91" d="M215.54,106.2c5.41,1.89,8.94,6.38,13.22,9.78,9.81,7.78,19.32,15.92,28.91,23.96,1.1.92,1.93,2.17,2.89,3.26-3.23,4.17-6.44,8.35-9.7,12.48-.63.8-1.2,2.34-2.63.82-4.44-4.64-7.3-10.41-11.09-15.51-1.54-2.34-2.75-4.89-4.56-7.06-2.96-4.34-5.88-8.71-8.79-13.08-.87-1.36-1.76-2.69-2.72-3.99-1.58-3.69-5.67-6.08-5.53-10.66Z"/>
        <path class="cls-70" d="M17.43,274.1c10.92-2.41,21.84-4.82,32.76-7.22,2.68,3.1,1.89,7.13,2.87,10.69.76,4.66.96,9.38,1.74,14.04.35,4.96,2.38,9.76,1.37,14.85-1.08,1.31-2.3,2.11-4.01,1.09-1.51-8.76-3.02-17.52-4.55-26.28-.41-2.35-1.42-3.95-4.15-4.19-5.37-.47-10.7-1.36-16.08-1.7-2.69-.17-1.36,1.68-.88,2.9,4.13,10.63,8.27,21.25,12.4,31.88.77,2.08-.1,2.46-1.92,1.84-2.75.08-5-1.07-6-3.56-4.61-11.41-9.05-22.88-13.55-34.33Z"/>
        <path class="cls-29" d="M559.11,200.65c2.01.9,2.36-1.17,3.26-1.99,3.99-3.66,7.83-7.49,11.72-11.25,1.73-.64,3.12.35,4.53,1.03,3.81,1.84,7.35,4.18,11.13,6.08,1.31.66,3.2,1.32,2.06,3.55-.92,1.23-2.19,1.97-3.56,2.58-9.82,3.85-19.5,8.07-29.32,11.91-5.93,2.32-5.95,2.35-8.76-3.46-2.11-4.36-4.55-8.55-6.29-13.09-.37-1.66-1.76-3.14-.89-5.02,1.19-.75,2.27-.16,3.21.46,4.42,2.9,9.49,4.9,12.91,9.2Z"/>
        <path class="cls-93" d="M152.12,413.48c4.23-1.92,6.27-6.92,11.16-7.92,2.82,1.96,2.73,5.34,3.86,8.1,1.05,2.56,1.8,5.24,2.66,7.88.42,1.46.91,2.9,1.43,4.32.42,2.07,1.95,3.95,1.06,6.24,1.02,3.19,1.95,6.4,3.08,9.55.77,2.16.14,2.73-2.07,2.88-12.99.84-12.98.89-16.53-11.49-.28-.96-.71-1.87-1.08-2.8-1.19-5.59-2.37-11.17-3.56-16.76Z"/>
        <path class="cls-18" d="M97.99,217.57c3.25,8.21,6.5,16.43,9.75,24.64-1.17,1.21-2.65,1.07-4.08.82-6.72-1.16-13.5-1.98-20.16-3.52-.98-.32-1.85-.81-2.46-1.67-.87-1.55-1.06-3.31-1.56-4.98.19-5.83-2.3-11.59-.5-17.47.18-.19.36-.37.54-.56,6.26.22,12.37,1.47,18.47,2.74Z"/>
        <path class="cls-72" d="M213.08,103.51c.53.86,1.06,1.72,1.59,2.57,2.68,4.89,4.11,10.2,5.4,15.57.59,3.93-2.23,7.35-1.71,11.27,3,5.35,7.59,9.37,11.59,13.87.42.47.79.96.46,1.64-1.65,2.85-.01,6.02-.89,8.94-3.14-1.71-1.49-4.06-1.13-6.28-2.38,5.56-5.95,10.63-8.51,16.25-1.18,1.7-2.67,3.02-4.65,3.73-2.44-.11-4.92.12-7.27-.81-1.43-2.58.75-3.98,1.98-5.55,2.31-2.95,5-5.61,6.8-8.92-1.4-1.56-3.73-.3-4.8-2.06.38-16.74.76-33.49,1.14-50.23Z"/>
        <path class="cls-10" d="M215.51,170.61c.67-1.7,2.52-2.19,3.58-3.49,3.34-2.56,5.83-6.37,10.4-7.13.37.48.74.96,1.11,1.44,4.03,9.33,5.77,19.32,8.37,29.07.81,3.04,2.66,5.98,1.44,9.35-.04.28-.08.56-.13.84-1.57,1.1-2.82.02-4.02-.7-5.42-3.23-10.61-6.81-16-10.09-3.97-2.42-3.1-6.25-3.22-9.83,0-1.04-.1-2.07-.15-3.11,0-1.16,1.04-2.04.84-3.24-.36-1.31-1.96-1.74-2.22-3.11Z"/>
        <path class="cls-161" d="M32.77,233.42c5.28,6.74,10.56,13.49,15.84,20.23.1.15.2.29.3.44-.1.15-.2.3-.3.44-1.19-.63-2.47-.82-3.81-.85-14.92-.29-29.85-.61-44.77-.92,2.27-3.07,5.9-4.13,8.99-5.94,7.86-4.57,15.82-8.95,23.74-13.41Z"/>
        <path class="cls-132" d="M572.33,259.8c-3.92,5.62-8.25,11.01-11.64,16.93-2.78,4.85-6.23,5.97-11.14,4.37-1.82,1.37-3.97,1.07-6.03,1.19-.51.06-1.03.05-1.54,0-4.49-.31-9.1.92-13.48-.94-1.1-2.25,1.06-2.68,2.15-3.48,3.98-2.93,8.37-5.31,12.14-8.54,1.75-1.03,3.63-1.83,5.26-3.07,3.28-1.45,5.36-4.88,9.12-5.53,4.06-1.27,6.78-4.78,10.65-6.37,3.06.53,5.3,1.73,4.52,5.44Z"/>
        <path class="cls-72" d="M447.89,272.18c-3.45-7.71-6.84-15.45-10.39-23.11-.88-1.9-.45-2.77,1.26-3.8,3.11-1.88,6.04-4.06,9.07-6.09,1.2-.8,2.66-1.35,2.7-3.13,2.65.5,3.92-2.16,6.13-2.67,2.11,2.49,1.25,5.5,1.35,8.3.11,3.02.15,6.05-.06,9.06-.06,5.34.42,10.69-.33,16.01-2.2,3.67-5.53,5.34-9.74,5.43Z"/>
        <path class="cls-191" d="M456.67,251.05c0-5.9,0-11.79,0-17.69,9.72-4.47,19.77-8.07,29.85-11.61.89,1.24-.03,2.27-.57,3.16-5.49,9.12-10.46,18.55-16.41,27.4-.49.48-1.06.84-1.73,1.02-2.28.16-4.5-.37-6.75-.53-1.56-.34-3.14-.64-4.39-1.75Z"/>
        <path class="cls-30" d="M528.23,280.14c4.59,1.81,9.43.3,14.1,1.01-1.12,4.51,3.06,3.77,5.1,5.15-2.61,7.38-5.18,14.77-7.84,22.13-1.5,4.13-5.6,3.38-8.72,4.45,1.68-7.92,5.11-15.25,7.92-22.78,1.32-3.53.69-4.06-3.02-4.87-7.29-1.6-10.58,1.46-12.81,7.8-1.65,4.69-4.13,9.08-6.25,13.6-1.63,1.07-2.78.27-3.81-.97.25-8.15,2.98-15.84,4.39-23.78.45-2.56.63-5.29,2.24-7.55,4.67-.71,6.63,2.64,8.7,5.82Z"/>
        <path class="cls-86" d="M195.11,68.99c1.12,2.24-1.02,3.34-1.87,4.75-1.78,2.96-3.94,5.69-5.94,8.51-1.49,3.53-5.11,4.48-7.88,6.43-2.47,1.74-5.22,3.02-7.99,4.25-2.85,1.74-1.44,4.66-1.95,7.04-1.5-1.41-2.68-3.49-5.31-2.57-1.99-4.07-3.89-8.18-6-12.18-1.04-1.97-.5-2.77,1.45-3.47,11.85-4.21,23.67-8.5,35.5-12.76Z"/>
        <path class="cls-172" d="M4.16,158.1c7.11-1.15,14.22-2.29,21.33-3.45.69-.11,1.38-.53,2.01.14-1.76,4.65-3.52,9.3-5.28,13.94-.57,3.73-2.68,6.78-4.51,9.93-2.28,3.94-4.13,8.09-6.16,12.16-.83.11-1.47-.16-1.65-1.01-2.15-9.93-4.28-19.87-6.4-29.81-.16-.74-.07-1.45.66-1.91Z"/>
        <path class="cls-4" d="M370.99,98.27c7.95-9.72,15.89-19.43,23.84-29.15,5.45,4.52,10.28,9.68,15.12,14.81.33,1-.07,1.91-.88,2.25-4.42,1.83-8.55,4.6-13.64,4.3-6.31,2.26-12.62,4.49-18.92,6.79-1.8.66-3.58,1.24-5.52,1Z"/>
        <path class="cls-191" d="M528.23,280.14c-2.64-2.1-5.28-4.19-7.91-6.29-.34-.32-.52-.72-.55-1.19,3.48-9.51,7.15-18.95,11.98-27.89.03-.37.07-.74.1-1.11.9.22,1.95.1,2.55,1.05,3.1,6.45,5.36,13.24,8.3,19.76.7,1.54,1.68,3.16.67,4.99-4.06,4.96-9.71,7.66-15.13,10.68Z"/>
        <path class="cls-23" d="M225.93,423.33c5.73-2.21,10-6.68,15.15-9.78,1.49-.89,2.96-1.81,4.44-2.71,2.44,4.85-.23,9.77.17,14.65.06.69-.38,1.41-.12,2.15-.71,2-2.25,3.78-1.62,6.13-.27,2.89-.53,5.79-.8,8.68-2.12,3.39-6.31,3.83-9.06,6.33-3.14-5.09-3.19-11.15-5.16-16.6-.34-.94-.13-2.08-.99-2.84-1.61-1.69-2.32-3.67-2.02-6Z"/>
        <path class="cls-4" d="M357.68,65.51c1.29,0,1.65.86,1.97,1.94,3.17,10.63,6.38,21.24,9.57,31.86-6.7-3.84-13.4-7.68-20.1-11.52-4.87-.5-7.81-2.76-8.12-6.25,5.56-5.34,11.12-10.68,16.68-16.02Z"/>
        <path class="cls-4" d="M544.95,195.34c1.95,5.87,5.51,11,7.78,16.71.93,2.33,2.05.84,3.05.45,9.24-3.69,18.44-7.49,27.7-11.11,1.45-.57,2.93-2.23,4.77-.74-9.5,6.9-18.99,13.81-28.5,20.7-1.32.96-2.67,1.98-4.34.63-5.48-5.03-11.11-9.9-16.56-14.97-1.27-1.18-2.71-2.3-3.1-4.16.22-3.37,1.49-6.19,4.33-8.18,1.74-.63,3.36-.34,4.88.66Z"/>
        <path class="cls-141" d="M151.08,194.55c1.88.12,2.83-1.4,4-2.4,10.44-8.93,20.85-17.9,31.26-26.87,1.93.02,1.63,1.49,1.34,2.48-2.25,7.82-4.34,15.69-7.11,23.36-.2.54-.7.92-1.17,1.27-9.45,2.57-18.88,5.32-28.82,5.26-1.36-1.28-.46-2.2.49-3.12Z"/>
        <path class="cls-51" d="M469.03,251.89c5.83-10.04,11.66-20.09,17.48-30.13.29-.19.59-.38.88-.57,2.44,9.91,4.89,19.82,7.33,29.73-.67,1.15-1.75,1.47-2.98,1.5-3.17-.26-6.34-.57-9.47.3-2.09.34-4.16.92-6.31.76-2.25-.79-4.94.31-6.93-1.58Z"/>
        <path class="cls-148" d="M386.88,149.46c3-8.33,4.05-17.13,6.18-25.67,1.61-6.47,3.03-12.99,4.54-19.49,2.01.34,1.62,2.12,2.02,3.42.5,1.64.27,3.52,1.67,4.85.9.75,2.49.76,2.57,2.38-4.28,2.41-6.16,7.53-5.04,13.7.24,2.09,1.48,3.73,2.43,5.51.67,1.25,1.7,2.44.69,3.98-2.64,6.98-6.44,13.39-9.86,19.99-2.8,2.28-5.9,3.6-9.59,3.06-.79-4.75,1.86-8.22,4.4-11.72Z"/>
        <path class="cls-4" d="M403.78,114.92c-1.19-.33-2.38-.67-3.57-1-1.1-1.23-.35-2.57,0-3.71,2.31-7.52,5.23-14.83,8.16-22.12.46-1.13.97-3.64,3.16-1.33,2.73,7.22,5.38,14.48,8.25,21.64.72,1.8.32,2.94-.73,4.34-3.41,4.55-6.72,9.17-10.07,13.76-1.29.27-1.47-.71-1.77-1.55-.13-.73-.22-1.51.06-2.17,1.67-3.9.74-6.6-3.5-7.85Z"/>
        <path class="cls-185" d="M132.54,192.76c-.21.1-.44.16-.68.16-1.58-5.02-2.98-10.11-4.81-15.04-.9-2.41.16-3.59,1.77-4.75,1.86-1.34,2.61.55,3.56,1.44q5.9,5.56,11.23-.32c.49-.54,1.02-1.06,1.55-1.57,2.1-2.04,3.91-5.15,6.39-5.83,2.91-.81,4.21,3.4,6.73,4.81,3.5,1.95,4.2,4.45,1.38,7.79-1.87,2.22-3.28,4.83-4.9,7.26-4.6-.9-9.16-1.95-13.76-2.86-2.43-.48-3.89.14-4.75,2.55-.83,2.32-1.61,4.75-3.7,6.36Z"/>
        <path class="cls-175" d="M240.42,199.84c-3.4-12.77-7.34-25.41-9.82-38.42,7.93,7.45,15.86,14.9,23.79,22.36-4.64,5.37-8.55,11.38-13.97,16.06Z"/>
        <path class="cls-108" d="M386.88,149.46c-1.48,3.8-2.97,7.6-4.45,11.41-1.45,2.79-4.65,2.5-6.87,3.95-.42.06-.84.02-1.24-.12-3.72-2.97-8.54-4.07-12.21-7.14-1.19-3.28-2.38-6.55-3.57-9.83.22-2.06,1.54-1.5,2.88-1.33,8.48,1.07,16.97,2.06,25.46,3.07Z"/>
        <path class="cls-10" d="M179.28,191.8c2.56-8.35,5.12-16.69,7.68-25.04.2-.64-.09-1.12-.61-1.48.37-.82,1.01-1.35,1.86-1.61,3.52,1.47,5.43,4.76,8.16,7.13.42.44.78.92,1.08,1.45.18.35.32.73.44,1.11.24,1.37,1.35,2.45,1.31,3.92-.44,2.54,1.02,5.02.27,7.57-2.27,3.09-5.66,4.58-8.92,6.25-3.73.64-7.4,2.37-11.27.7Z"/>
        <path class="cls-108" d="M197,172.39c-.3-.28-.59-.56-.89-.84-1.75-4.02-3.54-8.04-1.82-12.57-.29-1.7-.57-3.4-.86-5.1,2.79-1.95,5.63.04,8.45-.1,3.35-.16,6.71-.03,10.06-.03,2.2.64,5.59-1.07,6.47,1.05.76,1.82-2.09,3.8-3.55,5.6-2.5,3.07-4.87,6.23-7.29,9.36-3.4,1.34-6.86,2.48-10.56,2.63Z"/>
        <path class="cls-130" d="M285.17,218.35c-3.72.55-4.54-1.7-4.35-4.65-2.01-1.17-3.64,2.29-5.27.3-1.55-1.9-3.91-4.13.16-6.13,2.29-1.12,2.47-2.46.22-4.09-.99-.72-3.06-1.75-1.27-3.39,1.47-1.35,2.03-4.85,5.35-2.9,1.49.88,2.67,1.27,2.89-1.17.25-2.76,1.88-2.74,3.99-1.9,1.81.72,4.4.55,3.19,3.83-.81,2.18-.58,4.07,2.19,4.67,2.82.62,2.96,2.61,2.9,5.04-.05,2.61-1.51,3.17-3.6,3.45-2.07.27-3.15,1.39-2.71,3.61.3,1.52-.12,2.89-.95,4.16-1.2.65-1.92-.23-2.74-.83Z"/>
        <path class="cls-29" d="M11.54,190.83c-1.01-3.3,1.57-5.44,2.78-7.92,2.37-4.85,5.23-9.46,7.89-14.17,4.37,4.9,8.91,9.66,13.03,14.76,2.46,3.05-.27,4.88-2.5,6.55-2.29.08-3.76-1.55-5.16-2.88-2.22-2.1-3.27-1.35-4.3,1.01-.81,1.86-1.7,3.72-3.89,4.39-2.62-.58-5.24-1.17-7.85-1.75Z"/>
        <path class="cls-108" d="M77.77,214.77c-6.2-1.61-12.6-1.74-18.91-2.56-2.03-.27-4.06-.32-6.03-1.22,1.33-1.99,3.94-1.75,5.52-3.24,10.41-4.74,20.8-9.5,31.23-14.19,1.59-.71,3.29-1.16,4.94-1.72-2.28,4.05-6.23,6.44-9.81,8.93-5.29,3.68-8.35,7.55-5.19,14.06,0,0,.03-.07.03-.07-.59.57-1.18.5-1.78.02Z"/>
        <path class="cls-126" d="M285.17,218.35c.91.28,1.83.56,2.74.83,3.45,4.23,3.36,4.14,7.31.11,2.92-2.98,7.06-3.63,11.5-5.66-1.38,3.25-2.43,5.72-3.49,8.18-1.19,3.86-5.16,4.35-7.82,6.42-1.56,1.21-3.86,1.4-4.85,3.43-.15.2-.29.39-.43.59-3.7,1.74-7.35,2.52-10.75-.65-4.08-2.33-8.2-4.63-9.33-9.78-.4-1.08-.8-2.15-1.35-3.67,3.15.91,6.11,1.11,7.96,3.8,2.44,1,3.12,3.73,5.21,5.42,1.7-1.52,1.52-4.18,3.44-5.41-.04-1.2-.09-2.4-.13-3.6Z"/>
        <path class="cls-172" d="M59.24,146.75c-2.65-7.89-5.29-15.78-7.94-23.66,8,1.26,15.51,4.37,23.34,6.29,1.18.29,1.45,1.29,1.22,2.42-1.77.88-2.73,2.72-4.43,3.68-3.67,1.45-5.11,5.28-8.03,7.55-1.47,1.14-2.36,2.94-4.16,3.72Z"/>
        <path class="cls-91" d="M164.16,97.39c1.38-.47,2.2-1.99,4.12-2.04,1.16,1.22-.26,3.39,1.19,4.61.1,4.43.19,8.86.29,13.3-.66,7.09-4.23,12.71-9,17.7-4.42-2.03-4.91-5.14-3.45-9.59,2.59-7.89,4.6-15.98,6.85-23.98Z"/>
        <path class="cls-9" d="M536.05,203.23c6.29,5.56,12.58,11.12,18.86,16.7.57.51,1.58,1.06.51,2.04-9.02-1.28-18.05-2.56-27.07-3.84,1.45-5.33,4.93-9.7,6.99-14.74.15-.44.39-.49.72-.16Z"/>
        <path class="cls-58" d="M438.26,156.36c.65.19.69,2.5,1.99.5,1.26-1.94,2.67-3.77,4.01-5.65,3.61-2.31,7.86-.7,11.65-1.9,1.02,1.05.7,2.03-.02,3.12-3.62,5.43-7.21,10.89-10.81,16.34-4.25,1.78-8.53,3.09-13.09,1.1.57-5.21,4.7-8.76,6.27-13.51Z"/>
        <path class="cls-58" d="M132.54,192.76c1.16-3,2.36-5.98,3.44-9.01.42-1.17,1.13-1.79,2.27-1.57,5.14,1.01,10.28,2.07,15.39,3.2.44.1.74.86,1.11,1.31-1.22,2.62-2.44,5.24-3.67,7.86.19,1.05-.49,1.78-.98,2.58.1.61-.08,1.15-.42,1.65-.3.29-.65.36-1.05.23-2.56-3.14-6.67-2.54-9.91-4.07-1.96-.93-4.12-1.46-6.19-2.18Z"/>
        <path class="cls-58" d="M302.2,158.17c-1.96-4.69-3.96-9.37-5.86-14.09-.44-1.09-1.8-2.15-.51-3.53,3.84-.33,7.69-.66,11.52.06.57,3.59.76,7.36,4.34,9.6,2.47,3.12,2.49,7.05,3.54,10.63,0,.56,0,1.12,0,1.67-4.8-.08-9.09-1.69-13.03-4.35Z"/>
        <path class="cls-191" d="M279,176.94c-2.57-1.58-5.15-3.16-7.72-4.73-.25-.18-.56-.47-.48-.68,1.76-3.98,1.88-8.12,1.24-12.33l4.37-3.63c4.87,1.4,8.42,4.82,12.2,7.9-2.04,5.32-5.94,9.31-9.62,13.47Z"/>
        <path class="cls-141" d="M543.36,269.46c-2.81-6.97-5.67-13.92-8.4-20.92-.46-1.17-2.13-2.31-.56-3.82,5.96,3.21,11.92,6.41,17.89,9.62-.15,4.54-3.09,8.26-3.73,12.66-1.57,1.16-2.89,2.83-5.18,2.47Z"/>
        <path class="cls-29" d="M411.53,86.76c-.52-.18-1.29-.64-1.52.02-3.22,9.07-7.31,17.82-9.8,27.15-2.18-2.85-.98-6.63-2.62-9.63-.72-4.6-1.44-9.21-2.16-13.81,3.68-1.41,7.35-2.84,11.03-4.24,1.35-.51,2.92-.64,3.49-2.31,1.14.6,1.58,1.59,1.58,2.82Z"/>
        <path class="cls-91" d="M263.31,141.57c-.28-.33-.85-.73-.79-.98,1.8-7.3,3.2-14.74,7.61-21.1,2.88,4.43,5.68,8.92,8.69,13.27,1.31,1.89.94,2.67-1.1,3.4-4.83,1.72-9.61,3.6-14.4,5.41Z"/>
        <path class="cls-119" d="M482.38,143.38c-.33,5.61.3,11.26-.87,16.83-4.99-3.22-10.86-4.44-16.07-7.14-1.74-1.37-.06-1.95.68-2.57,5.06-4.24,10.16-8.42,15.24-12.61,2.96,1.35,2.09,3.4,1.01,5.49Z"/>
        <path class="cls-108" d="M502.59,228.01c-.83-.33-.76-1.17-1.04-1.81.1-3.49.2-6.97.29-10.46,1.38-5.86,1.53-6.04,7.79-5.07,2.64.41,5.25.57,7.89.46,1.26.11,2.53.23,4.39.39-6.07,6.48-13.85,10.17-19.33,16.5Z"/>
        <path class="cls-129" d="M572.33,259.8c-.41-2.73-2.75-3.85-4.52-5.44.31-.23.62-.47.93-.7,3.51-2.29,7.27-3.96,11.47-4.47,4.23.84,7.76-1.62,11.63-2.48,2.09,3.27,1.5,6.52-.04,9.78-3.72,1.29-7.59,1.57-11.48,1.59-2.8,0-5.5.37-7.99,1.73Z"/>
        <path class="cls-34" d="M135.16,390.52c.02-.56.05-1.12.07-1.68-.74-6.27,1.59-12.07,2.75-18.06,2.7-4.48,9.02-5.7,12.28-2.37-2.45,2.26-5.29,4.13-7.06,7.08.25,5.49,2.44,10.59,3.26,15.96-3.73-.7-7.41-2.17-11.3-.93Z"/>
        <path class="cls-180" d="M375.49,164.33c1.72-2.34,4.88-1.79,6.93-3.47,3.22-.91,6.43-1.83,9.65-2.74,1.14,2.52,1.81,5.15,1.93,7.92-.34.31-.67.62-1.01.93-3.24,3.78-7.69,5.43-12.24,6.87-2.08-.3-2.57-2.11-3.43-3.58-.88-1.89-2.02-3.71-1.83-5.94Z"/>
        <path class="cls-172" d="M590.91,166.16c-5.94,1.59-12.07,1.3-18.11,1.79-3.73.3-7.49.19-10.99,1.79-.92-.29-1.49-.92-1.78-1.82,1.13-3.33-1.27-6.04-1.63-9.1,8.41,2.85,17.29,3.59,25.87,5.64,2.22.53,4.6.48,6.64,1.71Z"/>
        <path class="cls-103" d="M288.62,163.47c-4.74-1.59-8.18-5.19-12.2-7.9,1.8-2.57,4.69-4.03,6.67-6.36,2.25-2.65,3.93-2.02,6.61-.37,4.07,2.51,4.47,5,1.87,8.72-1.25,1.78-1.98,3.93-2.95,5.91Z"/>
        <path class="cls-180" d="M362.1,157.54c4.41,1.85,9.24,2.94,12.48,6.89.22,2.96-2.6,3.86-3.92,5.78-1.07.95-1.97,2.14-3.44,2.56-4.63-1.25-7.61-4.64-10.51-8.13-.6-.32-1.2-.64-1.8-.96,4.16.02,4.7-4.2,7.19-6.14Z"/>
        <path class="cls-164" d="M50.52,337.52c4.93,1.11,6.41,4.06,6.22,9.14-.23,6.05-1.17,12.23.64,18.25-4.04.41-5.71-.83-6.04-4.35-.41-4.47.59-9.02-.86-13.42.01-3.21.02-6.41.03-9.62Z"/>
        <path class="cls-160" d="M230.41,148.43c-.26-.28-.52-.57-.78-.85-.7-3.88,1.2-6.46,4.23-8.48,1.55-.34,2.66.42,3.67,1.45,4.31,4.82,7.77,10.2,10.69,15.95-5.94-2.69-11.88-5.38-17.82-8.07Z"/>
        <path class="cls-4" d="M465.44,153.06c5.83,1.31,11.93,2.04,16.07,7.14-.09,2.27-.18,4.55-.28,6.82-.85,1.62-1.2,3.67-3.47,4.08-4.23-2.62-6.32-6.93-8.66-11.04.13-3.04-2.83-4.47-3.66-7Z"/>
        <path class="cls-119" d="M591.81,198.07c-2.77-4.37-8.14-4.72-11.87-7.66-1.69-1.33-3.89-2.02-5.86-3.01,2.58-3.29,5.48-6.26,8.81-8.8.32.28.64.56.96.84,3.57,5.67,8.37,10.72,9,17.87-.35.25-.7.51-1.05.76Z"/>
        <path class="cls-169" d="M340.99,81.53c1.39,3.8,5.45,4.12,8.12,6.25-.96,7.93-1.91,15.87-2.87,23.8-1.37-.14-1.48-1.22-1.65-2.23-1.46-8.39-2.92-16.78-4.35-25.17-.16-.96-.58-2.08.75-2.65Z"/>
        <path class="cls-81" d="M403.78,114.92c.88.05,1.75.12,2.63.15,2.74.08,4.14.93,2.88,4.04-.7,1.73-.85,3.68-1.25,5.53-.87,1.1.27,2.64-.82,3.69-.51,1.19-1.03,2.38-1.54,3.57-2.41-.96-5.24-.89-7.23-2.89-1.22-.91-2.1-1.77-1.37-3.63.73-1.87,1.08-3.94,1.31-5.96.38-3.33,1.95-4.99,5.41-4.5Z"/>
        <path class="cls-117" d="M19.4,192.58c.2-.21.42-.4.6-.63,1.9-2.35,2.37-6.95,4.85-7.25,2.92-.35,5.29,3.38,7.9,5.34,1.15,1.26,2.63,2.32,2.57,4.31-.4,2.71-1.42,4.91-4.48,5.44-3.81-2.41-7.62-4.81-11.44-7.22Z"/>
        <path class="cls-87" d="M514.95,339.32c1.73-.6,3.47-1.2,5.2-1.8,0,3.48-.01,6.96-.02,10.44-1.27,3.7-.71,7.56-.72,11.33-.01,3.31-.99,5.36-4.41,5.86-.84-8.61-.71-17.22-.05-25.83Z"/>
        <path class="cls-198" d="M482.38,143.38c-.53-1.8.64-3.91-1.02-5.49.37-.55.73-1.09,1.1-1.64,8.47,9.99,16.94,19.98,25.41,29.97-.85.91-1.89.97-3.02.72-2.22-.89-3.5-2.9-5.2-4.4-.44-.41-.86-.85-1.28-1.28-1.6-1.45-2.66-3.4-4.4-4.72-.33-.22-.64-.47-.94-.74-.84-.85-1.84-1.59-2-2.91-2.02-3.96-4.35-7.64-8.66-9.52Z"/>
        <path class="cls-10" d="M160.76,130.97c2.95-5.93,7.04-11.28,9-17.71,1.42,4.08.54,8.27.58,12.41-1.44,1.71-1.28,3.42.02,5.12-.11,2.7.92,5.49-.69,8.06-2.97-2.63-5.94-5.26-8.92-7.89Z"/>
        <path class="cls-100" d="M477.74,170.63c1.17-1.2,2.34-2.41,3.5-3.61.45,3.34-.11,6.62-.55,9.91.07.59,0,1.26-.41,1.61-1.55,1.39-1.66,2.63.18,3.83-.26,2.23.77,4.62-.77,6.7-2.92-2.43-7.18-4.34-8.39-7.44-1.23-3.14,4.1-5.48,4.81-9.14.08-1.03.86-1.44,1.62-1.86Z"/>
        <path class="cls-15" d="M307.35,140.61c-3.85,1.24-7.69,1.65-11.52-.06.41-1.39.8-2.79,1.24-4.17,2.13-6.67,1.97-6.19,8.38-3.91,5.74,2.04,3.36,4.96,1.9,8.14Z"/>
        <path class="cls-103" d="M272.05,159.2c3.68,4.57.94,8.76-.76,13.01-1.81-.6-3.03-2.49-5.17-2.36-.12-3.81-.05-7.65-.45-11.44-.23-2.15.05-4.21,1.91-4.84,2.09-.71,1.86,2,2.79,3.09.65.77,1.13,1.69,1.68,2.54Z"/>
        <path class="cls-15" d="M455.91,149.31c-.31,2.02-1.82,1.93-3.32,1.92-2.78-.02-5.55-.02-8.33-.02.15-2.74-.18-5.83,1.96-7.81,1.98-1.83,4.45-4.6,6.89-4.08,2.17.46,1.48,4.26,2.19,6.55.34,1.1.41,2.29.61,3.44Z"/>
        <path class="cls-35" d="M302.2,158.17c4.52.94,8.78,2.62,13.04,4.35.13,2.26,0,4.55.85,6.72-5.25-1.3-10.51-2.59-15.76-3.89.31-2.47.75-4.91,1.87-7.17Z"/>
        <path class="cls-57" d="M245.57,427.63c-1.93-3.62-.84-7.42-.47-11.11.19-1.9.4-3.78.42-5.69,3.31.49,6.85-1.16,9.96,1.12-3.3,5.23-6.61,10.45-9.91,15.68Z"/>
        <path class="cls-131" d="M432.07,168.73c1.66,2,3.81,1.09,5.63.64,2.47-.61,4.93-.33,7.38-.6,1.15,1.73,1.06,3.66.85,5.6-5.32.76-10.58,1.83-15.72,3.4,1.41-3.12.05-6.7,1.61-9.8.3.09.44.23.41.43-.03.22-.08.34-.16.34Z"/>
        <path class="cls-6" d="M592.87,197.31c-1.59-4.76-4.67-8.72-7-13.09-.81-1.52-2.02-2.91-2-4.78,2.93.52,5.23,2.43,7.88,3.58.98.42,1.81,1.06,1.73,2.26-.27,4.01.66,8.07-.61,12.03Z"/>
        <path class="cls-150" d="M548.55,266.99c-1.97-2.26.09-4.14.82-5.94.91-2.25,1-4.9,2.91-6.71,2.63,1.37,6.92,1.46,4.88,6.39-2.58,2.49-5.49,4.52-8.62,6.27Z"/>
        <path class="cls-47" d="M229.49,159.98c-3.58,2.21-6.17,5.86-10.4,7.13,2.24-6.11,5.91-11.41,9.25-17.39,1.18,2.84-.12,5.44,1.18,7.66,0,.87-.02,1.74-.02,2.6Z"/>
        <path class="cls-176" d="M591.81,256.48c.01-3.26.02-6.52.04-9.78,2.12-1.42,4.24-2.85,6.41-4.3,2.52,7.19-1.53,10.85-6.45,14.08Z"/>
        <path class="cls-65" d="M432.07,168.73c-.07-.26-.15-.51-.26-.76.52-3.93,1.12-7.84,1.53-11.78.22-2.17.98-3.83,3.34-3.62,2.48.22,1.12,2.48,1.57,3.79.49,5.4-3.58,8.52-6.19,12.37Z"/>
        <path class="cls-48" d="M477.74,170.63c-.11,1-.83,1.46-1.62,1.86-.9-.43-1.82-.85-2.71-1.31q-6.98-3.59-4.29-11.12c3.78,2.78,5.26,7.44,8.63,10.56Z"/>
        <path class="cls-31" d="M580.21,249.19c-3.34,2.73-7.6,3.11-11.47,4.47,2.4-2.75,4.79-5.52,7.21-8.26,1.27-1.44,2.6-3.15,4.77-1.64,1.92,1.34-.03,2.76-.19,4.15-.05.43-.21.86-.31,1.28Z"/>
        <path class="cls-184" d="M71.43,135.48c.83-2,1.17-4.6,4.43-3.68.69,4.7,1.39,9.4,2.08,14.1-.39.21-.11,2.51-1.18.47-1.88-3.58-3.57-7.25-5.33-10.89Z"/>
        <path class="cls-97" d="M194.29,158.97c-.01,4.28,2.14,8.25,1.82,12.57-2.87-2.39-5.83-4.68-7.9-7.87,2.03-1.57,4.05-3.13,6.08-4.7Z"/>
        <path class="cls-113" d="M40.72,313.58c1.32-1.27,2.52-.77,3.18.56,2.43,4.93,4.74,9.91,7.03,14.91.41.9-.37,1.24-1.13,1.4-3.03-5.62-6.05-11.25-9.08-16.87Z"/>
        <path class="cls-77" d="M520.87,330.44c-1.51-.24-1.4-1.05-.86-2.17,2.11-4.43,4.16-8.89,6.27-13.32.73-1.52,1.6-2.94,3.6-1.48-3,5.66-6,11.31-9,16.97Z"/>
        <path class="cls-73" d="M30.84,199.8c1.49-1.81,2.98-3.62,4.48-5.44,1.6,4.37,1.99,8.9,1.8,13.51-2.38-2.47-4.75-4.94-6.27-8.07Z"/>
        <path class="cls-65" d="M315.24,160.84c-1.77-3.35-3.46-6.72-3.54-10.63.08-.73.03-1.51.28-2.17.36-.93.08-2.64,1.82-2.29,1.37.28,2.26,1.21,2.15,2.85-.28,4.08-.48,8.16-.71,12.25Z"/>
        <path class="cls-17" d="M398.43,129.01c2.47.8,5.71-.29,7.23,2.89-1.18,2.12-1.68,4.64-3.72,6.24-.44-2.55-2.33-4.35-3.46-6.55-.47-.92-1.37-1.68-.05-2.57Z"/>
        <path class="cls-56" d="M285.3,221.95c-.47,2.6-1.59,4.93-3.01,7.46-2.71-1.98-3.84-4.99-5.64-7.47,2.88,0,5.77,0,8.65,0Z"/>
        <path class="cls-151" d="M547.43,286.3c-.72,0-1.43.01-2.15.01-5.51,0-5.56-.1-2.95-5.16.3,0,.6,0,.9,0,1.54,1.39,4.54-1.49,5.4,1.85.05,1.26-.53,2.3-1.21,3.3Z"/>
        <path class="cls-30" d="M548.64,283c-1.29-2.12-3.96-.19-5.4-1.85,2.1-.02,4.21-.03,6.31-.05-.13.72-.09,1.52-.91,1.91Z"/>
        <path class="cls-186" d="M407.2,128.33c-.19-1.33-.11-2.61.82-3.69.17.7.18,1.48.96,1.87-.2.99-.75,1.64-1.78,1.83Z"/>
        <path class="cls-166" d="M36.99,311.99c1.16-.07,1.88-.6,1.92-1.84,1.02.68.87,1.73.86,2.73-1-.07-2.05.02-2.79-.89Z"/>
        <path class="cls-83" d="M172.29,432.11c-.87-2.05-1.75-4.11-1.86-6.39-.98-3.25-.88-6.66-1.52-9.95-.51-2.09-.12-4.07.87-5.93,2.26-4.26,3.77-8.86,6.04-13.11.84-1.53,1.76-3,2.73-4.45.84-.32,1.68-.63,2.52-.95,7.31,2.09,11.8,6.81,13.33,14.29-.07,3.16-2.86,4.61-4.45,6.75-1.99,2.68-4.32,5.16-6.97,7.27,1.09,3.72,2.18,7.44,3.3,11.3-4.72,1.09-9.38.78-13.99,1.16Z"/>
        <path class="cls-93" d="M234.1,448.78c1.5-4.28,6.22-3.96,9.06-6.33,4.25,3.78,8.51,7.57,12.96,11.54-12.18,3.95-16.7,2.82-22.02-5.2Z"/>
        <path class="cls-156" d="M246.5,372.13c.27.86.54,1.72.8,2.59-2.52,3.61-1.37,7.65-.95,11.42.67,6.15.51,12.28.47,18.42-.01,1.72.52,3.97-2.14,4.58-14.13-16.23-28.25-32.45-42.38-48.68-.26-.16-.35-.32-.26-.49.08-.17.17-.25.25-.25,13.32,4.07,26.64,8.13,39.96,12.2,1.4.43,2.79.94,4.24.21Z"/>
        <path class="cls-177" d="M408.96,346.38c-.02-8.53-.04-17.06-.06-25.59.21-.05.42-.1.63-.16,2.11,1.24.78,5.43,4.87,5.23,2.69-.13,5.13-.67,7.53-1.72.99.63,1.18,1.61,1.23,2.67-.38,9.21-1.55,18.36-1.47,27.61.08,9.96.56,19.94-.32,29.89-3.35,1.52-6.87.59-10.3.62-2.46.02-1.89-2.15-1.91-3.65-.11-6.58-.15-13.17-.22-19.75-1.14-1.38-1.26-3.02-1.22-4.7.05-3.53-.81-7.16,1.25-10.45Z"/>
        <path class="cls-182" d="M310.04,349.03c.91-2.6,4.24-3.72,4.24-6.88,2.64-3.46,6.27-6.01,8.86-9.51,1.04-1.4,2.79-1.43,4.28-1.94,5.18.62,10.47.81,14.97,3.97,2.24,4.49,2.21,9.51,3.32,14.27.3,2.68,1.57,5.37-.08,8.03-3.95,2.24-7.51-.77-11.28-.85-3.7-.92-7.3-2.31-11.21-2.18-4.09-2.38-9.3-1.78-13.11-4.91Z"/>
        <path class="cls-156" d="M202.29,359.71c0,.25,0,.5.01.74-2.59,1.72-2.68,4.73-3.62,7.25-3.1,8.35-6,16.76-9.35,26.22-2.04-5.16-2.53-9.56-3.3-13.85-2.02-11.21-3.87-22.46-5.73-33.7-.21-1.26-.43-2.66.74-3.72.34-.24.62-.18.84.16,6.36,6.17,13.26,11.68,20.41,16.89Z"/>
        <path class="cls-148" d="M438.93,371.04c4.36-6.89,3.4-13.44-.23-20.51-3.11-6.05-5.87-12.39-7.69-19.04-.85-3.55,1.36-4.66,4.04-4.02,4.61,1.11,9.25,2.4,13.11,5.45.44.57.78,1.16.49,1.92-1.83,2.21-.74,4.75-.61,7.08.31,5.35,1.14,10.66,1.5,16.01.14,2.2,1.34,3.41,2.79,4.64,1.2,1.02,2.77,1.64,3.42,3.24-3.48,2.89-5.02,7.8-9.77,9.38-2.84-.55-5.28-1.79-7.04-4.16Z"/>
        <path class="cls-30" d="M341.86,334.87c-4.99-1.2-9.98-2.41-14.97-3.61-.34-.14-.46-.3-.37-.47.1-.18.2-.28.31-.28,3.52-3.26,7.05-6.52,10.57-9.78.35-.85.99-1.29,1.89-1.39,11.6.67,23.15-1.38,34.75-.81,2.18.11,4.43-.3,6.42,1,.49,3.05-2.07,2.29-3.41,2.4-4.53.36-9.09.18-13.64.13-3.25-.03-4.37,1.21-4,4.55.67,6.1,2.24,12.11,1.81,18.32-.22.48-.53.9-.91,1.26l-4.17,2.98c-2.32.06-2.29-1.94-2.72-3.32-.96-3.07-1.75-6.21-2.26-9.39-.43-2.63-1.65-3.5-4.27-2.52-1.58.59-3.15,1.71-5.02.92Z"/>
        <path class="cls-39" d="M338.25,319.96c-.29.25-.57.51-.86.76-45.28-.04-90.56-.07-135.83-.11-6.57,0-13.14,0-20.98,0,5.61,3.24,11.08,3.52,15.46,6.36-.08.93-.58,1.7-1.26,2.22-5.18,3.96-9.66,8.82-15.48,11.95-.29.28-.59.56-.88.85-1.65.98-3.33,1.43-5.11.31-1.13-1.5-.43-3.08-.13-4.61,1.09-5.57,2.55-11.06,3.52-16.67.2-.53.5-.99.9-1.39,1.95-1.37,4.2-1.18,6.39-1.18,49.2-.03,98.41-.03,147.61,0,2.29,0,4.76-.43,6.66,1.5Z"/>
        <path class="cls-98" d="M289.66,374.62c-9.09,6.44-9.66,6.3-14.07-3.55-1.19-2.66-2.35-5.32-3.53-7.98,8.32-3.54,16.65-7.08,26-11.05-3.04,8.18-5.72,15.38-8.4,22.59Z"/>
        <path class="cls-175" d="M360.38,345.48c-.79-6.34-1.44-12.71-2.41-19.02-.77-5-.38-5.52,4.53-5.75,6.08-.28,12.23.97,18.25-.7,1.02-1.3,2.51-1.44,3.97-1.47,6.72-.14,13.44-.16,20.16.01,1.67.04,3.64-.06,4.34,2.14l-.32.1c-7.31-.06-14.63.08-21.93-.26-3.61-.17-5.14.9-4.76,4.54.07.67-.33,1.39-.51,2.09-1.3-.93-.97-2.26-.92-3.08-6.38,6.92-12.11,14.88-19.29,21.58-.41.2-.78.14-1.11-.18Z"/>
        <path class="cls-45" d="M280.08,410.05c-1.19-1.66.46-2.68.99-3.86,3.01-6.78,7.05-13.08,9.56-20.1,4.13.36,8.27.73,12.4,1.09,1.68,5.19-1.05,9.55-2.68,14.11-.73,1.94-2.56,2.23-4.19,2.83-5.36,1.98-10.71,3.96-16.07,5.94Z"/>
        <path class="cls-108" d="M447.86,333.86c-3.96-2.89-8.7-3.96-13.21-5.52-2.54-.88-3.21,1.17-3.63,3.15-2.15.73-2.36,3.44-4.38,4.3-2.89-2.57-3.49-6.19-4.44-9.66l-.79-1.81c-.9-2.76.62-4.1,2.94-4.94,1.95-.71,4-.87,6.06-.88,21.1-.05,42.19-.03,63.29-.01,1.46,0,2.94.01,4.33.56.51.22.91.59,1.18,1.07-.89,2.07-2.84,1.89-4.52,1.9-19.36.11-38.73.09-58.09.03-1.09,0-2.12-.4-2.72-.41,4.1,1.61,9.55.95,13.06,5.3.02.32.04.64.06.95.81,1.92,2.46,3.71.86,5.97Z"/>
        <path class="cls-30" d="M380.77,348.21c-1.12,4.83-2.33,9.64-3.31,14.5-.4,2-1.35,2.46-3.27,2.52-12.86.37-12.86.41-7.92-11.55,1-2.43,1.96-4.87,2.93-7.31,3.09-2.11,6.5-1.21,9.8-.92,1.4.12,2.52.97,1.77,2.75Z"/>
        <path class="cls-126" d="M361.29,345.41c6.17-8.04,13.07-15.45,20.13-23.46.11,2.13.2,3.68.28,5.22-.09,5.81-.17,11.63-.26,17.44-.35.67-.81,1.26-1.62,1.24-6.18-.14-12.38.66-18.53-.44Z"/>
        <path class="cls-45" d="M272.14,363.12c-4.37,1.43-8.71,2.96-13.12,4.23-1.18.34-2.56,1.85-3.89.12,1.29-11.58,10.25-16.5,19.47-22.39.11,6.6-1.56,12.28-2.46,18.05Z"/>
        <path class="cls-147" d="M346.08,358.01c.65,6.52,1.23,13.05,1.97,19.56.31,2.69-.24,3.9-3.37,3.93-9.46.11-9.46.25-8.98-9.06.04-.73.09-1.46.14-2.18.66-6.65,4.8-11.62,10.23-12.25Z"/>
        <path class="cls-141" d="M326.83,330.5c.02.25.04.5.06.75-3.68,1.53-5.15,5.39-8.08,7.72-1.45,1.15-2.44,2.94-4.53,3.17-3.07-.68-6.14-1.35-9.96-2.19,4.63-4.91,8.78-9.21,12.8-13.61,1.43-1.56,2.35-.87,3.64.14,1.9,1.49,3.3,3.81,6.06,4.01Z"/>
        <path class="cls-159" d="M341.86,334.87c8.92-4.3,8.87-4.28,11.21,4.87.82,3.2.82,6.68,3.05,9.43-.64.52-1.29,1.05-1.93,1.57-3.27-.24-6.64.06-9.66-1.68-.89-4.73-1.78-9.46-2.67-14.19Z"/>
        <path class="cls-92" d="M322.44,363.19c-.33,1.58-.62,3.16-1.01,4.73q-2.48,10.17-13.88,9.01c2.11-4.93,4.18-9.75,6.25-14.56,3.18-2.91,5.9-.86,8.64.82Z"/>
        <path class="cls-66" d="M322.44,363.19c-2.91,0-5.63-1.95-8.64-.82-.15-4.76-3.18-8.7-3.77-13.34,4.38,1.42,9.44.87,13.08,4.46,2.69.72,3.56,2.93,4.3,5.25-.12,2.02-.7,3.83-2.29,5.2-.89-.25-1.79-.5-2.68-.76Z"/>
        <path class="cls-66" d="M346.08,358.01c-4.76,2.96-9.16,6.21-10.23,12.25.24-3.02-.69-4.71-4.18-4.9-1.53-.09-3.49.13-4.9-1.14-.19-1.79.05-3.52.57-5.23,1.66-2.24,3.83-3.6,6.67-3.74,4-.59,7.53,2.09,11.51,1.62.32-.18.58-.11.77.2-.07.31-.13.63-.2.94Z"/>
        <path class="cls-87" d="M470.6,350.91c1.35-.2,2.26.4,2.85,1.58,1.02,1.01-.12,2.51.81,3.54-1.74,7.66-3.48,15.33-5.22,22.99-3.23-1.43-3.85-3.61-2.95-7.08,1.8-6.93,3.03-14.01,4.5-21.03Z"/>
        <path class="cls-196" d="M422.2,326.14c2.15,2.91,3.23,6.31,4.44,9.66-4.91,4.78-4.75,10.87-4.63,17.07.19,9.08.07,18.17.03,27.25,0,1.41.49,2.95-.67,4.2,0-17.82,0-35.64.05-53.47,0-1.57.51-3.14.78-4.71Z"/>
        <path class="cls-44" d="M446.05,374.64c3.76-2.36,5.23-7.23,9.69-8.82q3.42,5-1.74,8.02c-4.37,2.53-8.78,5.02-13.17,7.53-.54-.42-.56-.97-.4-1.57.44-.9,1.16-1.59,1.83-2.31,1.12-1.14,2.21-2.32,3.79-2.85Z"/>
        <path class="cls-123" d="M447.86,333.86c.02-2.03-1.32-3.87-.86-5.97,2.82,1.85,5.64,3.7,8.45,5.56,2.82,1.86,3.68,4.05,1.11,6.8-2.64-1.8-5.28-3.6-7.91-5.41-.26-.33-.52-.65-.78-.98Z"/>
        <path class="cls-62" d="M179.3,341.15c5.01-5.39,11.16-9.44,16.74-14.17,2.41,1.97.15,2.94-.96,3.96-4.35,4.01-8.79,7.93-13.2,11.88-.29-.02-.57-.07-.84-.16-.58-.5-1.16-1.01-1.74-1.51Z"/>
        <path class="cls-84" d="M300.35,401.28c-.09-4.89,2.3-9.31,2.68-14.11,2.27.52,4.54,1.04,7.77,1.79-3.77,4.45-7.11,8.38-10.45,12.32Z"/>
        <path class="cls-149" d="M408.96,346.38c0,3.54,0,7.07,0,10.61-.6.48-1.24.88-2.02.98-4.34-.71-5.49-2.57-5.06-8.23,2.36-1.12,4.72-2.24,7.08-3.36Z"/>
        <path class="cls-157" d="M499.96,344.69c1.08-.42,2.14-.88,3.23-1.26q7.48-2.6,7.25,5.58c-3.61-1.15-7.45-1.76-10.48-4.32Z"/>
        <path class="cls-71" d="M346.28,357.06c-.25-.1-.5-.16-.77-.2-.32-2.6-.65-5.2-.97-7.8,3.31.04,6.74-.59,9.66,1.68-2.64,2.11-5.28,4.21-7.92,6.32Z"/>
        <path class="cls-26" d="M407.18,357.12c.59-.05,1.19-.09,1.78-.14,0,1.51-.02,3.03-.03,4.54-4.97-.99-9.94-1.98-14.9-2.97.33-2.08,2.08-1.56,3.38-1.87.95-.06,1.9-.03,2.85-.02,2.33-.23,4.53,1.5,6.92.45Z"/>
        <path class="cls-154" d="M442.61,378.15c-.61.59-1.23,1.18-1.84,1.78-1.93,1.35-3.82,2.86-6.4,1.58,1.22-2.9,2.45-5.8,3.67-8.7,1.58,1.73,5.17,1.74,4.57,5.34Z"/>
        <path class="cls-37" d="M407.18,357.12c-2.27,1.43-4.75.48-7.13.64-1.55-1.76-2.05-3.83-1.79-6.12.91-1.19,2.17-1.73,3.62-1.9.54,1.48,1.39,2.92,1.54,4.44.24,2.53,1.73,2.97,3.77,2.95Z"/>
        <path class="cls-13" d="M398.26,351.64c1.31,1.83,1.77,3.91,1.79,6.12-.84,0-1.68,0-2.51.01-1.95-1.35-5.46.18-6.24-3.36,2.32-.93,4.64-1.85,6.96-2.78Z"/>
        <path class="cls-55" d="M442.61,378.15c-.27-2.85-4.67-2.17-4.57-5.34.3-.59.59-1.18.89-1.77,2.37,1.2,4.74,2.4,7.12,3.6-.82,1.49-2,2.63-3.44,3.52Z"/>
        <path class="cls-54" d="M514.95,339.32c.02,8.61.04,17.22.05,25.83-.72.76-1.28.53-1.76-.28,1.83-5.64.3-11.45.85-17.15.27-2.8-.93-5.76.86-8.41Z"/>
        <path class="cls-134" d="M361.29,345.41c5.19.03,10.39.05,15.58.09,1.59.01,3.19.11,4.58-.89.15,1.27.37,2.56-.67,3.61-.28-2.09-1.86-1.84-3.3-1.84-2.76,0-5.51,0-8.27,0-2.97-.06-5.93-.12-8.9-.19,0-.24.03-.48.08-.71.3-.02.61-.05.91-.07Z"/>
        <path class="cls-115" d="M434.38,381.51c2.17-.37,4.09-1.73,6.39-1.58.02.48.04.96.06,1.44-2.74,2.7-5.71,2.8-9.36.57,1.26-.19,2.08-.31,2.9-.43Z"/>
        <path class="cls-104" d="M391.3,354.42c2.08,1.12,4.16,2.24,6.24,3.36-1.17.26-2.53-.36-3.5.78-2.24.2-3.43-1.22-4.15-3-.57-1.4.6-1.18,1.42-1.14Z"/>
        <path class="cls-133" d="M327.82,358.84c-.65,1.73.78,3.88-1.06,5.38-.55-.09-1.09-.18-1.64-.27.6-1.75,1.19-3.5,1.79-5.24.34-.23.65-.17.91.14Z"/>
        <path class="cls-51" d="M306.42,265.8c6.27,2.9,13.13,3.67,19.72,5.32,33.19,8.33,66.45,16.37,99.69,24.5,22.3,5.45,44.6,10.86,66.9,16.31.67.16,1.28.58,1.92.88-1.82,1.75-4.13,1.22-6.26,1.22-16.69.05-33.38.02-50.06.03-2.05,0-4.1-.09-6.09.57-3.38.56-6.77.57-10.16.03-17.63-1-35.26-1.02-52.88.05-7.68.59-15.37.64-23.05-.01-1.99-.64-4.04-.64-6.1-.64-52.13,0-104.27,0-156.4,0-2.06,0-4.11.02-6.1.67-2.32.45-4.67.39-7.02.39-28.33,0-56.65.01-84.98,0-2.34,0-4.71.24-6.96-.65-.76-.47-1.28-1.01-.56-1.91,1.83-1.36,4.06-1.65,6.18-2.18,51.41-12.79,102.71-26.07,154.14-38.78,5.86-1.45,11.63-3.23,17.51-4.58,1.71-.39,3.4-1.03,5.21-.7,3.19,2.38,5.55,5.21,5.08,9.54-1.21,1.38-2.8,2.05-4.74,2.47,5.37,1.04,10.63,1.84,15.75,3.19,5.9,1.56,11.49,1.11,17.26-.71,5.28-1.66,10.61-3.35,15.34-3.76-2.33-.16-5.51-.53-8.48-1.89-.43-3.81,1.61-7.51,5.16-9.38Z"/>
        <path class="cls-67" d="M476.02,252.68c2.09-.28,4.19-.56,6.28-.83,3.2-.66,6.41-.56,9.62-.06.93-.29,1.87-.59,2.8-.88,0,0-.03,0-.03,0,4.16,1.47,6.56,5.18,9.83,7.79,4.78,3.82,9.01,8.3,14.02,11.86.86.61,1.34,1.52,1.65,2.52.07.26.11.52.13.78-2.34,10.68-4.68,21.35-7.02,32.03,1.44,2.15.55,4.08-.58,5.98-.34.28-.76.67-1.15.55-6.33-1.88-12.08-4.8-16.88-9.42-5.31-3.78-7.53-9.87-10.93-15.03-4.56-6.9-9.3-13.73-13.03-21.16-1.71-3.76-2.98-7.63-2.78-11.85,1.58-4.71,5.24-2.05,8.09-2.28Z"/>
        <path class="cls-138" d="M494.68,303c5.9,2.81,11.22,6.75,17.39,9.04,2.55,4.32,2.26,8.69.23,13.09.59,4.41-1.15,6.52-5.76,7.28-6.48,1.07-12.85,2.84-19.2,4.57-2.12.58-4.01.56-5.99-.14-9.92-2.96-19.83-5.93-29.75-8.85-1.53-.45-3.11-.7-4.67-1.04-5.81-1.89-11.63-3.78-17.66-5.74,1.5-.97,3.03-.55,4.45-.55,20.23-.03,40.47-.01,60.7-.04,1.57,0,3.24.47,4.68-.62-.45-2.38-.44-4.76-.09-7.15-1.43-2.45-2.83-4.92-4.29-7.35-.52-.86-1.34-1.63-.04-2.48Z"/>
        <path class="cls-146" d="M306.42,265.8c-2.28,2.68-3.72,5.85-5.23,8.98-.03,1.89-.58,3.44-2.63,4.02-2.45-.7-3.54-2.9-4.92-4.68-2.85-3.66-5.71-7.31-8.61-10.92-1-1.25-2.03-2.49-1.83-4.26,3.76-5.88,8.37-11.12,12.66-16.6.69-.88,1.54-1.83,2.94-1.19,2.88,4.76,5.75,9.52,8.63,14.28,3.38,3.82.11,6.99-1.01,10.37Z"/>
        <path class="cls-175" d="M414.19,274.83c-.51-9.77-1.02-19.53-1.53-29.3,5.67,1.33,11.58-.19,17.22,1.45,1.46,4.82-.95,8.93-5.62,9.58-.87.12-1.77.05-2.58.44-4.17,3.41-4.27,4.3-.82,8.15.57.64,1.32,1.12,1.67,1.95-.48,4.21-2.02,8-4.55,11.4-2.46.02-3.83-1.1-3.8-3.67Z"/>
        <path class="cls-30" d="M420.38,256.23c.23-.18.49-.54.68-.51,6.21.92,7.87-3.33,9.15-8.01.42-1.87,1.65-2.4,3.41-2.09-.29,9.74-.58,19.48-.87,29.23-2.7,4.64-9.3,6.16-14.99,3.45,1.48-3.79,2.95-7.58,4.43-11.38.17-.24.37-.48.63-.59,2.56-.97,5.09-2.2,4.67-5.45-.41-3.13-3.19-3.37-5.68-3.74-.59-.09-1.08-.4-1.43-.91Z"/>
        <path class="cls-30" d="M360.51,222.08c-.02,6.72-1.38,13.37-.97,20.1,0,.3-.01.6-.02.89.88,3.79-1.78,4.91-4.53,5.38-3.26.55-6.62.69-9.88-.31-1.68-1.09-1.01-2.62-.48-3.88,1.18-2.8,2.07-5.74,3.77-8.3.54-.51,1.22-.72,1.93-.92,5.13-1.41,5.87-2.93,3.75-7.67-.3-.66-.58-1.33-.7-2.05-.24-3.13,1.56-5.53,2.9-8.1.93-1,1.74-2.28,3.45-1.67,1.39,2.03.26,4.37.79,6.51Z"/>
        <path class="cls-114" d="M447.89,272.18c2.93-1.46,5.85-2.92,8.78-4.38,1.23-1.16,2.38-2.53,4.38-1.72,1.21,4.4,2.43,8.8,3.64,13.2-1.54,3.64-4.07,4.88-8.89,4.38-2.63-3.82-5.27-7.65-7.9-11.47Z"/>
        <path class="cls-51" d="M344.48,247.43c2.88.02,5.77-.04,8.65.09,3.33.15,5.52-1.16,6.4-4.45,2.16.67,4.33,1.34,6.39,1.98-9.31,10.24-19.78,7.22-30.35,3.21,1.78-1.19,3.56-2.37,5.34-3.56,2.19-.4,2.82,1.23,3.57,2.73Z"/>
        <path class="cls-118" d="M461.05,266.07c-1.46.57-2.92,1.15-4.38,1.72,0-5.58,0-11.16,0-16.74,1.52-.14,2.96.12,4.32.84,1.77,1.28,3.84,2.41,2.78,5.2-.27,3.18-1.59,6.05-2.72,8.98Z"/>
        <path class="cls-135" d="M499.02,312.83c1.39,2.37,1.28,4.75.09,7.15,0,0-.28-.14-.28-.14-1.24-4.09-4.14-4.86-8.11-4.82-17.36.18-34.72.1-52.08.05-2.3,0-4.76.46-6.69-1.42,1.48-1.46,3.35-.8,5.03-.81,19.23-.05,38.46-.03,57.68-.03,1.46,0,2.91.01,4.37.02Z"/>
        <path class="cls-79" d="M417.76,278.3c1.75.03,3.53-.13,5.25.12,3.94.57,7.13-.64,9.74-3.57,1.24.36,2.48.71,4.12,1.18-9.63,5.29-18.82,6.65-28.07.11,1.69-.98,3.47-1.43,5.39-1.31.94,1.41,2.03,2.67,3.57,3.47Z"/>
        <path class="cls-24" d="M433.62,245.62c-1.14.7-2.27,1.39-3.41,2.09-3.16-.03-6.33-.22-9.49-.05-2.97.15-5.67-.29-8.06-2.13-.89-.96-1.31-2.05-.92-3.36,1.41-.31,2.5.58,3.72.97,5.52.56,11.03,1.29,16.46-.56.83-.39,1.69-.65,2.62-.46.52,1.39-.09,2.48-.92,3.51Z"/>
        <path class="cls-21" d="M434.54,242.11c-.61.29-1.22.58-1.82.87-6.1,1.14-12.32-.25-18.41.91-.86-.57-1.71-1.15-2.57-1.72,5.36-3.99,17.73-4.02,22.8-.06Z"/>
        <path class="cls-90" d="M455.79,283.65c3.49-.4,6.49-1.78,8.89-4.38,1.07,1.06,1.71,2.33,1.97,4.21-3.7-.36-7.15,2.61-10.87.18Z"/>
        <path class="cls-94" d="M173.19,341.99c1.75,0,3.49,0,5.24,0-8.22,7.72-16.45,15.45-24.67,23.17-1.16,1.09-2.33,2.17-3.49,3.25-4.41-1.52-9.45-.33-11.39,2.7-3.77-6.22-9.13-11.14-13.61-16.79-1.06-1.33-2.43-2.47-2.49-4.36-.31-.73-.93-.93-1.65-.95,2.26-1.57,4.86-1.75,7.47-1.73,1.85.02,3.19-.38,3.29-2.53,7.83.85,15.45-1.4,23.21-1.54,4.08-.94,8.28-.91,12.39-1.57,1.91.13,3.87-.61,5.73.33Z"/>
        <path class="cls-23" d="M244.68,409.13c1.76-7.05,1.04-14.17.36-21.24-.38-3.97-.11-7.9-.35-11.84-.15-2.5,1.45-1.46,2.61-1.34,2.13,4.8,6.59,7.67,9.76,11.61,5.57,6.92,11.85,13.26,17.82,19.85.86.95,2.3,1.92,1.64,3.28-.55,1.14-2.12.47-3.22.48-5.7.06-11.41.03-17.11.02-3.82-.48-7.79.97-11.52-.82Z"/>
        <path class="cls-29" d="M155.6,344.11c-6.61.77-13.22,1.53-19.83,2.32-1.65.2-3.18.22-3.91-1.68-.42-5.29-.85-10.57-1.27-15.86-.84-.82-.95-1.89-1-2.98.05-2.67.83-4.91,3.54-6.01,6.42-1.02,12.89-.64,19.33-.32,3.82.19,4.4,1.64,4.32,8.01-.36,5.51,1.23,11.15-1.18,16.51Z"/>
        <path class="cls-165" d="M101.6,379.02c-1.74-7.66-3.47-15.32-5.21-22.99.9-1.02-.22-2.51.8-3.51.87-.58,1.74-1.16,2.62-1.75,1.75,7.78,3.57,15.54,5.23,23.34.56,2.65-1.45,3.84-3.43,4.9Z"/>
        <path class="cls-43" d="M130.66,326.03c-.02.96-.04,1.91-.07,2.87-2.26,1.44-4.53,2.88-6.79,4.32-3.24-1.83-3.29-3.53-.02-5.51,1.54-.93,3.39-1.62,4.31-3.4-.15-.97.44-1.35,1.21-1.15,1.49.4.63,2.03,1.34,2.87Z"/>
        <path class="cls-2" d="M60.25,348.09c0-.59,0-1.17,0-1.76,1.16-1.29-1.18-4,1.83-4.54,2.1.32,4.07.98,5.93,2.02-2.59,1.43-5.18,2.86-7.76,4.28Z"/>
        <path class="cls-49" d="M261.39,266.91c-38.47,9.7-76.93,19.41-115.4,29.12-21.57,5.45-43.15,10.91-64.72,16.35-.84.21-1.73.26-2.59.39-1.32-1.86.33-2.96,1.16-4.16,4.62-6.7,9.41-13.27,13.95-20.02,6.9-9.85,14.23-19.4,20.58-29.63,1.61-1.52,2.47-3.76,4.56-4.83,7.64-2.66,15.24-5.4,22.44-9.15.59-.07,1.18-.13,1.76-.2,2.74-5.36,1.43-11.34,2.62-16.94.35-1.66-.44-3.51.8-5.04,6.68,3.49,14.11,4.56,21.25,6.5,29.6,8.04,59.26,15.89,88.9,23.78,1.26.33,2.58.42,3.87.62.41.71.34,1.47-.02,2.1-1.53,2.71-1.41,5.25.37,7.83.63.92,1.2,2.07.47,3.29Z"/>
        <path class="cls-152" d="M218.11,179.47c-1.36,6.59,2.22,10.06,7.65,12.68,5.06,2.44,9.17,6.57,14.53,8.54,2.06,7.06,4.11,14.12,6.17,21.18-11.15.04-22.3.07-33.45.11-.22-.08-.44-.16-.66-.24-2.59-4.31-3.4-9.04-3.29-13.99,3.9-1.41,6.93-3.52,6.6-8.31.81-3.99.32-8,.14-12,.93-2.61-1.2-6.11,2.32-7.96Z"/>
        <path class="cls-160" d="M261.39,266.91c-.23-.52-.36-1.14-.72-1.56-3.41-3.88-2.81-7.76-.1-11.67,2.42-4.14,4.85-8.27,7.27-12.41.86-.72,1.82-.44,2.33.25,4.28,5.83,9.91,10.67,12.94,17.43.08.88.15,1.78-.39,2.55-3.8,5.38-7.83,10.58-12.12,15.57-.69.8-1.67,1.18-2.77,1.06-1.27-.31-1.91-1.1-1.83-2.43-.79-3.32-3.05-5.88-4.61-8.8Z"/>
        <path class="cls-179" d="M282.68,258.93c-4.15-5.34-8.32-10.66-12.44-16.02-.65-.84-1.26-1.57-2.39-1.64-.07-.28-.13-.56-.19-.84-2.65-2.11-4.92-4.51-5.94-7.85,4.24-1.95,8.66-.65,13-.69.27.34.39.72.37,1.15-.48,2.15-2.64,3.38-3.2,5.86,3.14.8,6.25.33,9.34.29.81-.12,1.63-.23,2.45-.18,3.71.44,7.41.42,11.53.1-1.02-2.84-3.69-3.96-4.77-6.25-.14-.42-.09-.82.15-1.19,0,0-.03-.02-.03-.02,4.93.54,10-1.1,14.83.92-.83,3.45-3.09,5.82-5.9,7.77-.23.27-.46.54-.69.81-5.1,4.24-8.16,10.18-12.51,15.06-.87.98-1.5,2.15-2.75,2.74-.3.41-.59.43-.87-.01Z"/>
        <path class="cls-126" d="M213.01,221.98c-4.55,1.47-9.29.91-13.83.53-9.02-.76-18.05-.23-27.06-.66-1.27-2.79-.15-5.14,1.34-7.42.84-.85,1.9-1.49,3.06-1.45,5.31.19,8.68-2.25,10.25-7.28,3.99-2.1,7.29-5.72,12.31-5.52,1.9,1.24,1.99,3.11,1.76,5.09-1.5,3.82-1.89,7.91-2.79,11.87-.57,2.52.55,3.37,2.96,3.52,3.88.24,7.88-.85,11.61,1.01.12.1.25.21.36.31Z"/>
        <path class="cls-181" d="M290.59,231.68c.03.29.07.57.09.86-1.07,3.67-3.26,6.2-7.15,6.98-.57.3-1.14.59-1.72.89-3.43-1.7-5.31-4.78-7.08-7.95,0-.19,0-.37,0-.56,1.55-.1,3.1-.2,4.65-.3,3.73,1.21,7.47.98,11.22.08Z"/>
        <path class="cls-40" d="M261.72,232.59c2.02,2.59,4.66,4.7,5.94,7.85q-6.6-.03-5.94-7.85Z"/>
        <path class="cls-185" d="M68.15,178.64c-3.3-1.66-2.35-5.73-4.57-8.01-2.46-2.07-4.17-4.48-3.48-7.94.22-2.74,3.2-2,4.41-3.48,3.93.82,4.3,3.86,4.4,7.07,1.46,3.25,3.65,6.15,4.42,9.71-1.33,1.66-2.47,3.68-5.18,2.65Z"/>
        <path class="cls-99" d="M81.98,183.76c.47,3.01-.54,4.71-3.25,5.6-2.06.68-4.15,1.56-5.93,2.78-3.42,2.35-6.69,1.07-10.02.06-1.78-.54-1.73-1.32-.16-2.12,5.84-2.99,11.59-6.21,17.58-8.86,3.29-1.46,1.1,1.94,1.78,2.53Z"/>
        <path class="cls-170" d="M47.73,162.67c-.91.45-1.81.93-2.73,1.36-1.85.87-2.16-.84-2.9-1.77-.9-1.13-.1-1.64.72-2.42,4.16-3.96,9.12-2.95,14-2.39,1.92.22,1.28,2.41,2.29,3.38-3.52,2.34-7.62,1.05-11.39,1.85Z"/>
        <path class="cls-188" d="M47.73,162.67c3.36-3.29,7.68-.72,11.39-1.85.33.62.65,1.25.98,1.87,1.16,2.65,2.32,5.29,3.48,7.94-2.12.04-3.83-2.62-6.2-.93-.44-2.4-1.94-3.76-4.25-4.34-2.06-.38-3.89-1.22-5.41-2.7Z"/>
        <path class="cls-120" d="M68.91,166.28c-1.54-2.31-1.79-5.43-4.4-7.07,0-.3,0-.6,0-.9,1.36-2.38,2.54-4.94,5.2-6.18,1.44-.67,2.98-1.27,4.49-.06.36,1.44-1.02,2.91.05,4.34-2.08,1.19-3.17,2.85-2.58,5.33-1.51,1.15-1.05,3.51-2.76,4.54Z"/>
        <path class="cls-174" d="M74.2,152.06c-5.02-.7-6.28,4.44-9.69,6.24-1.04-1.83-1.58-3.29.12-5.45,2.02-2.55,4.3-4,7.34-4.05,1.79-.03,2.01,1.79,2.23,3.25Z"/>
        <path class="cls-158" d="M71.68,161.73c-.85-1.12-2.26-2.04-1.51-3.76.81-1.86,2.47-1.72,4.09-1.57,2.27,3.68,1.8,4.65-2.58,5.33Z"/>
        <path class="cls-158" d="M53.13,165.37c4.41-.52,5.04.12,4.25,4.34-1.41,1.01-2.79,1.37-4.2-.05-1.43-1.44-.74-2.85-.05-4.29Z"/>
        <path class="cls-80" d="M68.15,178.64c1.73-.88,3.45-1.77,5.18-2.65.11,1.78-.15,3.94-1.46,4.71-1.16.68-3.01-.35-3.72-2.06Z"/>
        <path class="cls-132" d="M201.67,100.89c1.05,3.15-3.02,4.18-2.88,6.94-2.34.63-3.12,2.51-3.67,4.57-1.74,3.21-3.48,6.41-5.23,9.61-.05.1-.2.14-.3.21-.2-.35-.4-.69-.6-1.04-.82-.73-1.22-1.75-1.1-2.75.61-4.98-.22-10.17,2.06-14.92,1.11-1.63.74-4.04,2.72-5.23,3.17.3,6.23.95,9.01,2.59Z"/>
        <path class="cls-89" d="M175.82,107.07c.95-1.55-.41-2.31-1.04-3.4-.77-1.36-2.75-2.68-.74-4.53,2.72-.19,5.28-1.06,7.89-1.74,4.23,2.65,2.17,6.95,2.77,10.54,1.73,2.65,1.78,5.28-.11,7.88-2.92.02-2.77-3.6-5.09-4.3-.61-1.99-1.86-3.46-3.68-4.45Z"/>
        <path class="cls-185" d="M184.58,115.82c.04-2.63.08-5.26.11-7.88.87-2.52,1.39-5.44,5.25-4.42.52,5.94-.99,11.76-.96,17.67-1.21.97-.7,2.34-.83,3.57-1.2.75-2.39.98-3.54-.11-2.14-2.93.49-5.88-.03-8.82Z"/>
        <path class="cls-59" d="M171.43,92.92c5.29-3.56,10.58-7.11,15.86-10.67,1.28.39,1.9,1.97,3.44,1.9.36.79.72,1.59,1.08,2.38-6.81,2.07-13.32,5.11-20.38,6.39Z"/>
        <path class="cls-47" d="M177.68,137.11c-1.13-.18-1.69-1.03-2.34-2.03,7.3-2.98,14.44-1.36,21.59.35.27,1.59-.81,2.11-2,2.54-5.83,1.35-11.58,1.11-17.24-.86Z"/>
        <path class="cls-85" d="M177.68,137.11c.05-.74.63-1.12,1.15-.87,5.31,2.55,10.84.73,16.27.92.39,2.29-1.81,2.28-2.9,3.25-3.7,2.16-7.39,3.86-11.12.05-.8-1.46-1.92-2.59-3.41-3.35Z"/>
        <path class="cls-75" d="M181.09,140.46c3.89,1.46,7.65,1.28,11.26-.85.95-.43,1.16.04,1.06.88-1.35.89-2.67,1.82-4.04,2.66-4.91,2.98-5.67,2.72-8.28-2.69Z"/>
        <path class="cls-122" d="M195.12,112.41c-1.35-4.13-.49-5.2,3.67-4.57,1.17,1.35,1.5,2.79.23,4.23-1.14,1.29-2.53,1.08-3.9.35Z"/>
        <path class="cls-128" d="M175.82,107.07c3.57-.45,5.41.52,3.68,4.45-1.45,1.05-2.94,1.22-4.13-.25-1.17-1.44-.66-2.9.45-4.2Z"/>
        <path class="cls-3" d="M181.93,97.4c-2.28,2.17-4.8,3.24-7.89,1.74,1.97-3.57,4.72-3.61,7.89-1.74Z"/>
        <path class="cls-168" d="M201.67,100.89c-3.26,0-6.25-.88-9.01-2.6,3.99-2.57,6.72-.73,9.01,2.6Z"/>
        <path class="cls-61" d="M193.41,140.5c-.35-.29-.71-.59-1.06-.88.66-1.1,2.45-.95,2.75-2.46.87-.3,1.49-.87,1.83-1.73.87-.09,1.92-.25,2.33.64.52,1.12-.69,1.4-1.34,1.82-1.47.92-3,1.75-4.5,2.61Z"/>
        <path class="cls-190" d="M170.37,130.79c-3.86-1.69-2.96-3.4-.02-5.12,0,1.71.02,3.41.02,5.12Z"/>
        <path class="cls-1" d="M184.61,124.65c1.18.04,2.36.07,3.54.11-.46,1.05-.8,2.51-2.18,2.33-.99-.13-1.48-1.29-1.36-2.44Z"/>
        <path class="cls-148" d="M390.45,106.27c-2.62,2.12-6.48,1.15-8.97,3.6-1.2,1.18-2.21,2.57-3.71,3.42-2.18,2.18-4.2,4.57-6.59,6.48-1.85,1.48-.64-.9-1.15-1.23-1.76-3.44-.76-6.6.99-9.68.76-5.48,5.7-3.9,8.9-5.26,1.74,1.25,3.7.2,5.55.5,1.87.31,3.86.22,4.99,2.17Z"/>
        <path class="cls-185" d="M371.01,108.87c-.33,3.23-.66,6.45-.99,9.68-1.19.97-.71,2.33-.81,3.55-1.47.54-2.95,1.27-4.38-.09-1.18-.95-3.22-1.23-2.7-3.49-1.45-4.14-.75-7.94,1.84-11.43,1.04-1.09,1.12-3.21,3.81-2.25,2.22.8,3.67,1.45,3.23,4.04Z"/>
        <path class="cls-132" d="M363.97,107.08c-.61,3.81-1.23,7.62-1.84,11.43-.46.67-.93,1.34-1.38,2-2.04-2.17-2-5.68-4.83-7.31-.37-2.13-2.07-3.23-3.51-4.52,1.06-3.28-2.97-3.71-3.43-6.13,3.71-2.04,7.08-.45,10.47.97,2,.56,4.64.32,4.53,3.57Z"/>
        <path class="cls-20" d="M380.36,131.83q-5.92,10.81-17.37,8.33c-.29-.06-.55-.2-.84-.25-7.02-1.33-8.79-3.48-8.96-10.56-.03-1.22-.15-2.13,1.39-1.87,8.47,1.41,16.94,2.86,25.78,4.36Z"/>
        <path class="cls-12" d="M390.45,106.27c-2.32-.88-4.78-.77-7.19-1.04-1.23-.14-3.09.65-3.34-1.63,2.57-.94,5.18-1.8,7.7-2.86,1.55-.65,2.72-.41,2.84,1.26.1,1.39,3.44,2.9,0,4.26Z"/>
        <path class="cls-12" d="M359.45,103.51c-3.49-.32-6.98-.65-10.47-.97,2.2-5.18,2.97-5.45,7.13-2.21,1.21.94,2.88,1.45,3.34,3.19Z"/>
        <path class="cls-158" d="M352.41,108.67c3.32-.16,5.03.93,3.51,4.52-1.63,1.15-3.21,1.38-4.51-.45-1.21-1.69-.37-2.97.99-4.08Z"/>
        <path class="cls-122" d="M377.77,113.3c.12-2.35,1.46-3.39,3.71-3.42,1.7,1.38,3.09,3,.94,4.92-2.12,1.89-3.62.62-4.66-1.5Z"/>
        <path class="cls-124" d="M364.83,122c1.46.03,2.92.06,4.38.09-1.08.91-2.17,1.83-3.25,2.74-.75.63-1.52.77-2.27.04-.6-.58-1.5-1.16-1.12-2.1.38-.94,1.47-.59,2.27-.76Z"/>
        <path class="cls-93" d="M380.69,173.3c4.1-2.11,8.21-4.22,12.31-6.32-1.33,5.62-3.38,10.8-8.19,14.5-4.57,3.51-10.28,5.52-13.78,10.44-.3-.94-.59-1.88-.89-2.83.28-.52.48-1.09.9-1.54,2.19-2.4,3.08-5.55,4.7-8.28,1.71-1.94,2.17-4.93,4.96-5.97Z"/>
        <path class="cls-76" d="M370.21,204.35c-4.95-3.96-4.93-4.25.82-8.15q3.55,4.83-.82,8.15Z"/>
        <path class="cls-76" d="M369.88,221.85c-1.39,0-2.78.02-4.17.03-2.42-3.55-.31-5.43,2.58-7.03,1.14,2.2,5.45,3.68,1.58,7Z"/>
        <path d="M559.11,200.65c-5.3-3.24-10.59-6.48-15.89-9.73-.82.11-1.55-.15-2.25-.54-2.51-1.84-5.27-3.31-7.85-5.04-1.35-1.39-3.5-1.98-4.11-4.11,7.54-2.02,15.29-2.62,22.99-3.49,1.11,6.22,4.24,11.79,5.88,17.83.45,1.68.83,3.38,1.24,5.07Z"/>
        <path class="cls-194" d="M529,181.24c1.53,1.14,3.05,2.28,4.58,3.42.04,2.84,1.42,4.26,4.32,4.32,1.3.03,2.6.41,3.78,1.03.68.02,1.23.27,1.54.91.58,1.47,1.16,2.94,1.73,4.41-1.76.01-3.52.03-5.29.04-4.3,2.3-8.36,1.4-12.33-.9-.08-.27-.12-.54-.12-.82.34-4.13-2.5-8.31.15-12.41.55,0,1.09,0,1.64,0Z"/>
        <path class="cls-198" d="M527.37,181.25c-.05,4.14-.1,8.28-.15,12.41-.94-.95-.72-2.17-.79-3.32-.22-3.37-1.66-5.52-5.37-5.42-4.1-4.73-8.19-9.46-12.29-14.2-.71-.91-.75-1.81.09-2.67,3.38,1.95,5.42,5.31,7.51,8.28,2.9,4.11,5.96,6.32,11.01,4.92Z"/>
        <path class="cls-163" d="M508.85,168.05c-.03.89-.06,1.78-.09,2.67-1.34.78-2.76,1.11-4.29.71-2.59-1.7-2.64-3.41-.02-5.13,1.15-.03,2.29-.06,3.44-.09.32.61.64,1.23.96,1.84Z"/>
        <path class="cls-33" d="M562.66,170.62c1.16.61,2.16,1.38,2.63,2.67-1.44-.07-2.62-.67-3.59-1.71.32-.32.64-.64.96-.96Z"/>
        <path class="cls-36" d="M514.02,188.62c-5.02,5.41-10.01,10.76-14.97,16.14-1.12,1.21-2.02,1.41-3.19-.01-3.25-3.97-6.57-7.88-9.92-11.77-1.58-1.84-.76-2.48,1.09-3.41,6.63-3.35,13.5-3.26,20.54-1.96,2.27.42,4.56.72,6.44,1.02Z"/>
        <path class="cls-27" d="M499.17,160.86c.31.28.62.57.93.85,1.53,4.47,2.27,8.92-.23,13.31-1.03.88-.79,2.1-.82,3.23-.06,2.14-1.56,2.05-3.05,2.06-2.07.01-2.48-1.32-2.14-2.89.43-1.98,1.03-3.9.74-5.96-2.05-3.49-1.69-7.04-.25-10.61,1.61-1.34,3.22-.76,4.83,0Z"/>
        <path class="cls-89" d="M494.73,160.97c-.05,3.5-.09,7-.14,10.5-.45.67-.9,1.34-1.36,2.03-1.4-1.44-1.47-3.72-3.25-4.85.18-2.24-1.05-3.82-2.46-5.32.31-2.98-2.58-4.94-2.5-7.84,2.91-1,5.8-.29,8.7.04l.06.42c1.27,1.5,1.93,3.11.95,5.03Z"/>
        <path class="cls-148" d="M499.87,175.03c.08-4.44.15-8.87.23-13.31,1.45,1.53,2.9,3.05,4.35,4.58-1.32,1.71-1.34,3.42.02,5.13-1.27,2.42-2.55,4.83-3.91,7.43-1.07-1.32-.35-2.66-.68-3.82Z"/>
        <path class="cls-128" d="M487.52,163.33c4.15.23,4.73,2.12,2.46,5.32-1.75.43-3.25.09-3.99-1.68-.67-1.61.16-2.78,1.53-3.64Z"/>
        <path class="cls-52" d="M493.73,155.53c-2.91,2.62-5.8-.39-8.7-.04,1.64-1.71,3.99-1.8,6.02-2.6.89.88,1.79,1.76,2.68,2.64Z"/>
        <path class="cls-193" d="M480.46,182.37c-4.22-2-.66-3.66.23-5.44,1.44,1.88-.56,3.61-.23,5.44Z"/>
        <path class="cls-60" d="M498.71,181.56c-.83,1.21-1.26,2.57-2.73,1.81-.48-.25-.96-1.63-.81-1.76.95-.82,2.1-.6,3.54-.05Z"/>
        <path class="cls-175" d="M344.48,247.43c-1.19-.91-2.38-1.82-3.57-2.73-.28-6.39-.65-12.77-.8-19.16-.06-2.36-1.1-2.92-3.22-2.95-1.82-.03-3.79.72-5.47-.63.73-.04,1.46-.12,2.19-.13q7.23-.09,5.68-6.96c4.85,1.6,9.89,1.24,14.88,1.44,1.01.04,2.01.3,2.7,1.16-.32,2.81-2.85,4.87-2.68,7.84-.65.94-1.69.94-2.67,1.15-4.86,1.02-5.83,3.17-3.44,7.6.34.63.76,1.22.78,1.97-.71,4.09-3.09,7.54-4.38,11.41Z"/>
        <path class="cls-156" d="M371.19,188.19c-.35.3-.7.6-1.06.9-2.39-3.37-5.71-5.76-8.87-8.28-3.48-2.78-5.15-6.03-4.5-10.52.27-1.84-.01-3.77-.05-5.65,3.57,2.61,7.14,5.21,10.72,7.82,1.69,1.46,1.84,3.64,2.61,5.54.11,3.43,2.87,6.56,1.15,10.19Z"/>
        <path class="cls-16" d="M356.87,217.47c-3.05-.04-6.1-.26-9.13-.06-3.21.21-5.99-.5-8.45-2.54-.52-1.15-1.76-2.27-.12-3.49,1.14.03,2.07.63,3.05,1.11,5.63,1.83,11.21,1.73,16.75-.35,1.43-.27,3.06-.81,2.51,1.75-.58.56-1.17,1.12-1.75,1.67-.95.63-1.9,1.27-2.85,1.9Z"/>
        <path class="cls-155" d="M361.47,213.9c-.05-1.69-1-1.47-2.08-.98-6.17-.58-12.33-.81-18.48.16-.58-.56-1.16-1.13-1.74-1.69,4.63-3.49,16.72-4.02,21.27-.95,1.34.9,2.46,1.78,1.03,3.47Z"/>
        <path class="cls-78" d="M94.57,288.91c-4.31,7.44-9.72,14.11-14.53,21.21-.57.84-1.38,1.52-1.35,2.65-.26.3-.52.61-.77.91,1.1,5.34,4.8,5.88,9.49,5.79,13-.25,26.02-.11,39.03-.06,2.15,0,4.43-.35,6.25,1.33-1.26,1.54-2.3,3.17-2.01,5.3-1.23-.02-.11-3.51-2.56-1.72-11.02,3.47-21.97,7.13-32.68,11.49-3.55,1.48-6.75,1.17-10.38-.54-8.46-3.99-17.22-7.36-25.85-10.98-2.84-3.48-3.02-7.69-3.28-11.88,3.08-4.62,8.37-6.25,12.74-9.04,7.15-4.56,14.3-9.12,21.49-13.63.99-.62,2-1.22,3.22-1.3.46.02.86.18,1.21.48Z"/>
        <path class="cls-19" d="M219.1,122.07c-1.48-5.33-2.96-10.66-4.43-15.99.29.04.58.08.87.11,2.07,3.47,4.15,6.93,6.22,10.39-.16,2.18.26,4.64-2.66,5.48Z"/>
        <path class="cls-42" d="M299.49,240.35c1.97-2.59,3.94-5.18,5.9-7.77.07.57.19,1.13.21,1.69q.19,6.23-6.11,6.07Z"/>
        <path class="cls-143" d="M77.77,214.77c.59,0,1.19-.01,1.78-.02.33,6.17.66,12.34.98,18.5.14,1.4,1.27,3.08-1.05,3.8-9.7-4.22-19.78-7.56-29.15-12.55,9.05-3.51,18.53-5.82,27.44-9.74Z"/>
        <path class="cls-191" d="M52.12,277.48c-1.39-3.4-1.3-7.07-1.93-10.6-.61-4.1-1.92-8.12-1.57-12.35,0,0-.03.04-.03.04,3.65-1.14,6.41.91,8.27,3.32,3.54,4.61,6.3,9.79,9.09,14.91.59,1.09,1.27,2.41-.12,3.55-4.48,1.48-8.99,2.58-13.71,1.13Z"/>
        <path class="cls-192" d="M62.09,341.79c-1.91.99-.39,3.36-1.83,4.54.58-1.53-1.99-4.32,1.83-4.54Z"/>
        <path class="cls-8" d="M97.19,352.53c-.14,1.2.42,2.56-.8,3.51.59-1.1-1.73-2.86.8-3.51Z"/>
        <path class="cls-189" d="M94.57,288.91c-.26-.04-.51-.08-.77-.11-1.6-1.1-1.93-2.87-2.37-4.57-3.49-13.64-6.55-27.39-9.94-41.05-.36-1.47-2.44-4.35,1.61-4.61,6.63,1.02,13.25,2.05,19.88,3.05,1.58.24,3.18.4,4.77.6.31.28.62.56.93.84,3.76,4.73,6.25,9.97,6.49,16.12-2.63,6.26-7.35,11.15-11.04,16.71-2.98,4.48-6.35,8.7-9.55,13.04Z"/>
        <path class="cls-171" d="M119.24,254.49c2.36-3.51,4.71-7.03,7.07-10.54,5.07-.44,10.03.93,15.07,1.02.29.68.61,1.39-.37,1.77-7.01,2.73-14.02,5.45-21.05,8.14-.16.06-.47-.25-.71-.39Z"/>
        <path class="cls-162" d="M474.25,356.03c-1.25-.96-.67-2.33-.81-3.54,2.51.67.2,2.44.81,3.54Z"/>
        <path class="cls-74" d="M83.1,238.56c-2.73,1.17-.73,3.09-.42,4.38,3.6,15.31,7.39,30.58,11.12,45.86-12.37,7.7-24.75,15.4-37.12,23.1-.36-1.75-.72-3.51-1.07-5.26-.58-4.99-1.16-9.99-1.74-14.98-.82-1.94-.57-3.85.85-5.29,3.67-3.74,6.94-7.94,11.54-10.69-3.28-5.63-6.43-11.35-9.91-16.85-1.69-2.68-4.76-3.58-7.76-4.26,0-.31.01-.62.02-.93,10.63-5.27,21.25-10.54,31.88-15.81.16-.38.39-.43.7-.16.64.29,1.27.59,1.91.88Z"/>
        <path class="cls-107" d="M81.19,237.68c-.23.07-.46.13-.7.16-.33-.26-.67-.51-1-.77,1.38-.98.57-2.57,1.05-3.8,1.03,1.35.67,2.91.65,4.42Z"/>
        <path class="cls-11" d="M176.76,396.83c-.11-1.15-.7-1.82-1.88-1.92,1.09-1.06,2.16-2.15,3.67-2.63-.09,1.71-.66,3.24-1.79,4.54Z"/>
        <path class="cls-198" d="M527.34,194.48c4.09.64,8.18,1.08,12.33.9-1.21,2.62-2.41,5.24-3.62,7.85-.24.05-.48.11-.72.16-1.04-4.43-6.29-5.09-8-8.92Z"/>
        <path class="cls-195" d="M122.76,349.97c4.69,5.37,9.32,10.81,14.11,16.08,1.39,1.53,2.08,3.08,1.99,5.07-1.21,5.91-2.42,11.82-3.63,17.73-1.28-.94-1.54-2.4-1.99-3.78-3.46-10.66-6.96-21.3-10.37-31.97-.3-.94-1.53-2.05-.11-3.12Z"/>
        <path class="cls-51" d="M520.19,273.06c-9.09-6.71-17.33-14.4-25.5-22.16,10.18-1.84,20.37-3.62,30.53-5.58,2.19-.42,4.34-.49,6.52-.55-1.34,7.12-5.37,13.2-7.77,19.91-1.03,2.88-2.51,5.6-3.78,8.39Z"/>
        <path class="cls-182" d="M219.1,122.07c.89-1.82,1.77-3.65,2.66-5.47,1.44.9,1.96,2.45,2.77,3.81.74,1.91.62,3.8-.13,5.67-1.36,3,.7,3.55,2.89,4.01,2.29.58,4.04,2.09,5.91,3.39,2.16,1.92,3.43,4.39,4.34,7.08-1.17-.32-2.34-.64-3.51-.96-6.14-.43-11.52-2.98-16.72-6.02-1.19-2.5.47-4.62.99-6.86.36-1.54.92-3.02.81-4.64Z"/>
        <path class="cls-32" d="M233.19,133.48c-2.29-.28-4.15-1.62-6.17-2.56-1.54-1.2-3.86-1.74-3.64-4.39.38-2.04.77-4.09,1.15-6.13,2.89,4.36,5.77,8.72,8.66,13.08Z"/>
        <path class="cls-108" d="M66.26,275.69c-2.88,4.03-6.75,7.13-10.19,10.62-1.55,1.57-2.4,3.19-2.2,5.36-1.18-4.65-1.71-9.39-1.75-14.18,4.71-.6,9.42-1.2,14.13-1.79Z"/>
        <path class="cls-125" d="M168.85,422.2c1.59-2.2.11-4.78.89-7.08,1.13,3.48.69,7.05.68,10.6-1.12-.91-1.2-2.28-1.57-3.52Z"/>
        <path class="cls-106" d="M217.31,133.57c5.71,1.62,11.25,3.74,16.72,6.02-2.34,2.18-3.39,5.07-4.39,7.99-4.63-4.22-8.78-8.85-12.33-14.01Z"/>
        <path class="cls-101" d="M197,172.39c3.24-1.98,6.74-2.94,10.56-2.63,2.66.24,5.42-.56,7.95.85,1.26.77,2.86,1.06,3.56,2.61-.57.55-1.24.9-2.03.97-5.98-.7-11.96-.73-17.94.01-.8-.05-1.47-.41-2.06-.92,0-.29-.02-.59-.03-.88Z"/>
        <path class="cls-95" d="M197.03,173.27c.57,0,1.14.01,1.71.02,6.19,2.22,12.39,2.22,18.58,0,.58-.03,1.17-.05,1.75-.08.49,1.72-.77,2.55-1.8,3.49-.35,1.81-1.68,2.5-3.28,2.91-3.47.44-6.96.32-10.44.16-2.09-.1-4.09-.53-4.79-2.96-.93-1.01-2.17-1.87-1.73-3.54Z"/>
        <path class="cls-127" d="M214.65,178.55c.87-.62,1.74-1.23,2.61-1.85,1.12.67.85,1.75.84,2.77-2.01,2.36.49,5.68-1.71,7.99-2.18,1.08-3.52-.17-4.76-1.72-.49-3.02.49-5.43,3.02-7.19Z"/>
        <path class="cls-167" d="M468.96,255.51c-.3-.9-.59-1.8-.89-2.7.32-.31.64-.62.96-.92,2.32.36,4.82-.8,7,.8-2.31,1.05-6.35-2.22-7.07,2.82Z"/>
        <path class="cls-38" d="M173.89,214.83c-3.77.51-7.57.91-11.31,1.56-3.22.56-5.48.23-6.87-3.4-1.83-4.79-4.32-9.32-6.53-13.96.13-.72.12-1.5.92-1.9,9.15-.86,18.01-3.32,27.01-5.03.72-.14,1.45-.2,2.17-.3,3.83-.58,7.66-1.16,11.5-1.74.61,5.71-.67,11-3.5,15.95-.5,6.58-4.84,8.05-10.45,7.99-.97-.01-1.95.53-2.93.82Z"/>
        <path class="cls-53" d="M491.92,251.79c-3.21.02-6.41.04-9.62.06,3.2-1.38,6.41-1.3,9.62-.06Z"/>
        <path class="cls-137" d="M369.94,169.74c1.55-1.77,3.1-3.54,4.65-5.3.3-.04.61-.07.91-.11.89,1.81,1.78,3.61,2.68,5.42.61,2.48-.65,3.98-2.66,5.09-1.49.4-2.83.04-4.09-.77-1.37-1.14-2.29-2.44-1.49-4.33Z"/>
        <path class="cls-191" d="M187.28,206.02c1.17-5.32,2.33-10.64,3.5-15.95,2.66-1.76,5.32-3.52,7.98-5.29,1.51-1.76,2.69-4.39,5.74-2.26-.26,5.07.74,10.25-1.12,15.21-1.17,1.67-2.86,2.47-4.82,2.78-3.76,1.84-7.52,3.67-11.28,5.51Z"/>
        <path class="cls-141" d="M203.97,182.23c-2.17-.04-3.25,2.16-5.21,2.54.63-2.65-2.26-5.31,0-7.96,3.23,2.77,7.12,1.38,10.74,1.66,1.71.13,3.44.06,5.16.08-1.12,2.25-2.17,4.53-2.63,7.04-3.41.61-5.62-1.65-8.06-3.36Z"/>
        <path class="cls-25" d="M287.11,206.62c-.05,1.99-1.09,2.94-3.05,2.92-1.88-.02-3.21-.78-3.08-2.84.12-2.04,1.39-3.24,3.42-3.29,2.07-.05,2.73,1.36,2.72,3.21Z"/>
        <path class="cls-5" d="M375.4,174.17c1.35-1.21,2.58-2.49,2.77-4.43,1.16.95.66,3.09,2.51,3.55-1.9,1.73-2.08,4.66-4.29,6.17-1.68-1.51-2.3-3.22-.99-5.3Z"/>
        <path class="cls-178" d="M369.94,169.74c.56,1.22,1.13,2.43,1.69,3.65.8,2.39-.45,3.61-2.49,4.39-1.12-1.6-1.59-3.4-1.69-5.32.58-1.14,1.37-2.09,2.5-2.72Z"/>
        <path class="cls-28" d="M405.9,118.44c.05,1.09-1.04,1.27-1.67,1.75-1.1.85-1.88,2.92-3.42,2.21-1.44-.66-.26-2.28-.04-3.51.49-2.81,2.29-1.36,3.68-1.24.56.05,1.19.03,1.45.79Z"/>
        <path class="cls-22" d="M29.15,192.38c-2.23.47-3.72.22-4.78-1.1-.17-.22.48-1.62.9-1.7,1.91-.36,2.46,1.4,3.88,2.79Z"/>
        <path class="cls-14" d="M494.73,160.97c-.37-1.67-1.21-3.24-.95-5.03,3.09.22,3.52,3.35,5.39,4.92-1.48.04-2.96.07-4.44.11Z"/>
        <path class="cls-67" d="M132.67,320.73c-16.02-.01-32.04-.03-48.06-.04q-7.03,0-6.71-7.01c33.23,0,66.47-.01,99.7-.02,1.25-.66,2.59-.37,3.9-.37,53.6-.02,107.21-.02,160.81,0,1.3,0,2.65-.28,3.9.36,7.69,0,15.37,0,23.06,0,3.61-.84,7.26-.33,10.89-.35,12.57-.08,25.14-.04,37.7-.01,1.44,0,2.93-.33,4.31.37,3.25,0,6.51,0,9.76,0,20.49.02,40.98.03,61.47.05q5.86,0,5.43,6.14c-23.07.02-46.13,0-69.2.08-3.4.01-7.26-.38-8.22,4.4-.06,1.36-.18,2.67-2.05,2.64-.43,0-.87,0-1.3.02q-7.36.3-8.84-6.29c-1.3-1.37-3-.85-4.53-.85-7.98,0-15.96.1-23.94.16-12.32-.84-24.59.78-36.89.73-1.91,0-3.82.11-5.6-.78-29.69-.04-59.38-.09-89.07-.12-22.2-.02-44.39-.02-66.59.02-1.71,0-3.56-.54-5.07.8-.53.26.24.22-.32.28-4.37.51-7.52,2.67-9.32,6.73-4.08.78-8.18.92-12.28.2q-.31-7.16-7.48-7.16c-5.15,0-10.3,0-15.45,0Z"/>
        <path class="cls-71" d="M327.82,358.84c-.3-.05-.61-.09-.91-.14-1.27-1.74-2.53-3.47-3.8-5.21,4-1.74,7.35.59,10.89,1.75-2.06,1.2-4.12,2.4-6.18,3.6Z"/>
        <path class="cls-68" d="M325.02,345.51c-1.35,0-2.31-.64-2.43-1.98-.14-1.58.8-2.41,2.36-2.46,1.46-.04,2.19.94,2.21,2.18.02,1.24-.67,2.22-2.14,2.25Z"/>
        <path class="cls-173" d="M334.81,343.61c1.33,0,2.27.61,2.44,1.96.18,1.36-.62,2.28-1.91,2.45-1.53.2-2.61-.78-2.7-2.2-.08-1.19.69-2.2,2.17-2.2Z"/>
        <path class="cls-121" d="M173.19,341.99c-1.68.78-3.45.88-5.26.73-2-2.39-1.26-5.14-1.01-7.82,2.84-4.97,5.4-10.18,10.64-13.23-.83,6.91-2.49,13.64-4.36,20.32Z"/>
        <path class="cls-82" d="M177.55,321.67c-3.15,4.11-6.31,8.22-9.46,12.33-2.16-2.27-1.85-4.62-.19-7q1.88-6.28,9.63-6.33c0,.33.01.67.02,1Z"/>
        <path class="cls-67" d="M266,275.71c.57.59,1.13,1.18,1.7,1.77,4.01.85,8.07.32,12.1.44,6.25.19,12.51-.37,18.74.5.88-1.21,1.76-2.42,2.64-3.63,3.43-.08,6.61.97,10.91,2.42-9.38,2.5-17.66,5.77-26.19,6.63-6.12.62-12.57-1.96-18.87-3.15-2.72-.51-5.42-1.11-8.53-1.75,2.44-1.65,4.94-2.49,7.48-3.22Z"/>
        <path class="cls-144" d="M346.21,313.64c-56.2,0-112.41,0-168.61.01,1.33-1.41,3.05-.81,4.6-.81,53.14-.03,106.27-.03,159.41,0,1.55,0,3.27-.6,4.6.8Z"/>
        <path class="cls-144" d="M422.17,313.66c-17.64,0-35.27,0-52.91,0,.88-1.09,2.13-.82,3.28-.83,15.45-.01,30.91-.01,46.36,0,1.15,0,2.39-.27,3.27.83Z"/>
        <path class="cls-88" d="M298.55,278.42c-1.61,1.53-3.61.75-5.41.78-6.99.1-13.98.06-20.97.03-1.68,0-3.62.48-4.47-1.74,3.65-.69,4.75-4.2,6.52-6.59,2.89-3.91,6.91-7.1,8.46-11.96.29.02.58.02.87.01,4.47,6.9,9.9,13.06,15,19.47Z"/>
        <path class="cls-199" d="M420.38,256.23c2.19.47,4.87-.95,6.55,1.14,1.14,1.41,3.09,2.83,1.82,5.3-1.4,2.72-3.01,4.94-6.56,4.25-5.51-2.52-6.07-5.83-1.81-10.69Z"/>
        <path class="cls-199" d="M348.86,236.03c-2.4-1.73-4.13-3.74-3.08-7,1.41-4.42,5.11-3.58,8.4-3.71.54,2.41,3.68,3.92,2.2,7.08-1.58,3.36-4.26,3.99-7.52,3.63Z"/>
        <path class="cls-7" d="M414.31,243.89c.03-.78.29-1.64,1.11-1.64,5.78,0,11.61-1.19,17.3.73-1.05,1.37-2.4,2.18-4.15,1.99-4.74-.51-9.66,1.24-14.26-1.08Z"/>
        <path class="cls-111" d="M167.89,327c.06,2.33.12,4.66.19,7-.05,2.91-.11,5.82-.16,8.73-4.11.46-8.21.93-12.32,1.39,0-5.41,0-10.82,0-16.23,3.99-1.86,8.2-.49,12.29-.88Z"/>
        <path class="cls-183" d="M157.26,280.03c-2.21-2.03-2.86-4.52-2.69-7.5.47-8.2-1.5-16.33-.79-24.54,5.34,1.6,10.99.07,16.34,1.56,2.21,3.36-.29,5.79-1.67,8.44-.89.91-2.07.95-3.23,1.13-5.22.78-6.37,3.42-3.45,7.84.4.61.93,1.14,1.27,1.8.18,4.51-1.56,8.26-4.6,11.48-.46.3-.85.23-1.17-.2Z"/>
        <path class="cls-30" d="M158.17,280.05c1.77-3.67,3.83-7.22,4.35-11.37.47-.63,1.18-.79,1.89-1,4.16-1.28,4.89-2.62,3.7-6.72-.28-.96-.91-1.88-.27-2.93l2.68-7.84c.66-2.1,1.97-3.16,4.25-2.63-.51,9.67-1.02,19.34-1.53,29.01.08,3.05-2.12,3.88-4.46,4.36-3.6.74-7.19.79-10.62-.88Z"/>
        <path class="cls-110" d="M174.78,247.57c-1.42.88-2.83,1.76-4.25,2.63-3.02-.06-6.06-.28-9.07-.12-2.85.15-5.41-.31-7.68-2.09-.4-.55-.79-1.09-1.19-1.64-.19-2.63,1.45-1.64,2.72-1.39,5.52,2.05,11.07,1.99,16.63.18.97-.5,1.91-1.07,3.05-1.09,1.59,1.28.3,2.38-.21,3.53Z"/>
        <path class="cls-139" d="M174.99,244.04c-.62.55-1.24,1.1-1.85,1.65-6.16-.83-12.31-.75-18.47-.05-.89-.34-1.86-.94-2.07.71-1.52-2.94,1.5-3.61,2.7-3.89,6.66-1.53,13.47-3.06,19.7,1.58Z"/>
        <path class="cls-153" d="M158.17,280.05c2.61.05,5.24-.07,7.83.18,3.27.32,5.63-.85,7.24-3.66,2.01.34,4.01.68,6.13,1.04-6.4,4.9-16.09,5.92-22.11,2.41.3,0,.61.01.91.02Z"/>
        <path class="cls-29" d="M212.64,221.66c-4.39.05-8.79.03-13.18.18-2.68.09-3.78-.59-2.97-3.56,1-3.65,1.59-7.41,2.26-11.14.2-1.13.47-1.98,1.77-2.07,1.06.11,1.87.81,2.81,1.2,1.96.69,4.31-.25,6.02,1.46,1.1,4.64,2.2,9.29,3.29,13.93Z"/>
        <path class="cls-72" d="M203.97,182.23c3.03.3,5.29,2.45,8.06,3.36,1.46.62,2.91,1.25,4.37,1.87,1.42,4.16,1.48,8.31-.03,12.45-3.4,2.11-6.75.01-10.12-.12-1.4-.41-2.91-.58-3.93-1.8,1.47-2.71.78-5.66.83-8.51.05-2.46.18-4.88.83-7.26Z"/>
        <path class="cls-30" d="M205.85,198.92c3.58-.47,6.96,1.18,10.51,1,.15,6.39-1,7.67-7.02,7.82-2.35-.39-4.89.85-7.08-.84.57-2.94,1.35-5.79,3.59-7.98Z"/>
        <path class="cls-160" d="M283.53,239.51c2.38-2.33,4.77-4.65,7.15-6.98,2.59,2.01,6.61,4.28,6.09,7.05-.37,1.98-5.4.62-8.34.76-1.63.08-3.5.73-4.91-.83Z"/>
        <path class="cls-91" d="M274.73,232.46c3.03,2.05,4.75,5.27,7.08,7.95-3.38,0-6.76.01-10.14-.01-1.85-.01-2.53-.65-1.19-2.35,1.45-1.84,2.84-3.72,4.25-5.58Z"/>
        <path class="cls-175" d="M205.85,198.92c-.8,2.84-1.45,5.74-3.58,7.98-.58-.61-1.16-1.21-1.74-1.82-1.15-1.31-.32-3.47-1.97-4.57,1.25-.84,2.5-1.68,3.75-2.51,1.22.16,2.62-.35,3.55.92Z"/>
        <path class="cls-109" d="M79.95,183.14c.01,5.01-9.58,9.83-14.67,7.45,4.92-2.5,9.55-4.85,14.67-7.45Z"/>
        <path class="cls-197" d="M371.03,139.74c-4.25-.64-8.3-1.2-12.34-1.86-1.71-.28-4.27-6.02-3.46-7.55.6-1.15,1.55-.48,2.3-.37,5.93.88,11.84,1.86,17.77,2.73,1.91.28,2.06,1.03,1.26,2.65-1.69,3.43-3.02,4.54-5.54,4.41Z"/>
        <path class="cls-187" d="M369.13,177.78c1.08-1.32,2.04-2.71,2.49-4.39,1.26.26,2.52.52,3.78.78.33,1.76.66,3.53.99,5.3-1.46,3.07-1.79,6.81-5.21,8.72-.35-3.54-2.37-6.74-2.05-10.41Z"/>
        <path class="cls-64" d="M541.68,190.01c-1.61.01-3.22.07-4.82.03-4.31-.12-4.9-1.11-3.28-5.38,2.83,1.58,5.75,3.04,8.1,5.35Z"/>
        <path class="cls-142" d="M492.05,195.85c-1.15-1.09-2.4-2.11-2.98-3.93,6.52-1.47,13.15-.54,20.02-1.81-1.03,2.62-2.96,3.81-4.7,5.16-4.01,2.38-8.17,1.64-12.34.59Z"/>
        <path class="cls-116" d="M492.05,195.85c4.11-.2,8.23-.39,12.34-.59-4.79,6.08-8.61,6.26-12.34.59Z"/>
        <path class="cls-46" d="M340.9,213.07c.32-1.12,1.14-1.75,2.22-1.76,4.77-.03,9.55,0,14.32.09.87.02,1.62.59,1.95,1.51-6.14,2.65-12.3,2.58-18.48.16Z"/>
        <path class="cls-63" d="M223.38,126.53c1.21,1.46,2.43,2.93,3.64,4.39-2.41-.47-5.72-.19-3.64-4.39Z"/>
        <path class="cls-69" d="M217.32,173.29c-.64,1.41-1.74,2.45-3.25,2.5-4.04.13-8.08.11-12.12.02-1.57-.04-2.57-1.12-3.21-2.52,6.19-1.34,12.39-1.26,18.58,0Z"/>
        <path class="cls-199" d="M167.84,258.03c.63,2.16,2.85,3.77,2.12,6.41-1.08,3.91-3.88,4.71-7.43,4.24-2.53-1.26-4.25-3.63-3.65-6.1.73-2.97,2.82-5.52,6.77-4.55.69.17,1.46,0,2.2,0Z"/>
        <path class="cls-46" d="M154.66,245.65c.36-1.11,1.22-1.66,2.29-1.67,4.63-.04,9.27-.04,13.9.03,1.05.02,1.94.56,2.28,1.69-6.16,2.46-12.32,2.58-18.47-.05Z"/>
      </g>
    </g>
  </g>
</svg>