<?xml version="1.0" encoding="UTF-8"?>
<svg xmlns="http://www.w3.org/2000/svg" version="1.1" viewBox="0 0 600 500">
  <defs>
    <style>
      .cls-1 {
        fill: #f1f1f1;
      }

      .cls-2 {
        fill: #323232;
      }

      .cls-3 {
        fill: #6e5446;
      }

      .cls-4 {
        fill: #2b2b2b;
      }

      .cls-5 {
        fill: #b9b596;
      }

      .cls-6 {
        fill: #ad8b9c;
      }

      .cls-7 {
        fill: #ab8e7c;
      }

      .cls-8 {
        fill: #a1be77;
      }

      .cls-9 {
        fill: #737272;
      }

      .cls-10 {
        fill: #cdcdcc;
      }

      .cls-11 {
        fill: #8f667b;
      }

      .cls-12 {
        fill: #6bac91;
      }

      .cls-13 {
        fill: #669576;
      }

      .cls-14 {
        fill: #7b8c5f;
      }

      .cls-15 {
        fill: #2c5d5f;
      }

      .cls-16 {
        fill: #7c7c7c;
      }

      .cls-17 {
        fill: #66a6a8;
      }

      .cls-18 {
        fill: #474747;
      }

      .cls-19 {
        fill: #607344;
      }

      .cls-20 {
        fill: #856855;
      }

      .cls-21 {
        fill: gray;
      }

      .cls-22 {
        fill: #8e667b;
      }

      .cls-23 {
        fill: #86c5a8;
      }

      .cls-24 {
        fill: #559db6;
      }

      .cls-25 {
        fill: #9dddda;
      }

      .cls-26 {
        fill: #644c40;
      }

      .cls-27 {
        fill: #d0bbab;
      }

      .cls-28 {
        fill: #3f6955;
      }

      .cls-29 {
        fill: #548c72;
      }

      .cls-30 {
        fill: #7a7a7a;
      }

      .cls-31 {
        fill: #644c3f;
      }

      .cls-32 {
        fill: #654c3f;
      }

      .cls-33 {
        fill: #866955;
      }

      .cls-34 {
        fill: #2c2c2c;
      }

      .cls-35 {
        fill: #6f5665;
      }

      .cls-36 {
        fill: #ab8d7b;
      }

      .cls-37 {
        fill: #9ddbd8;
      }

      .cls-38 {
        fill: #d4d4d4;
      }

      .cls-39 {
        fill: #58888a;
      }

      .cls-40 {
        fill: #dcdcdb;
      }

      .cls-41 {
        fill: #bc987e;
      }

      .cls-42 {
        fill: #6e4f5f;
      }

      .cls-43 {
        fill: #519295;
      }

      .cls-44 {
        fill: #6a5043;
      }

      .cls-45 {
        fill: #373737;
      }

      .cls-46 {
        fill: #387477;
      }

      .cls-47 {
        fill: #b59e8f;
      }

      .cls-48 {
        fill: #9da0a1;
      }

      .cls-49 {
        fill: #6bad8d;
      }

      .cls-50 {
        fill: #6bac8d;
      }

      .cls-51 {
        fill: #876955;
      }

      .cls-52 {
        fill: #f7f8f6;
      }

      .cls-53 {
        fill: #4d6130;
      }

      .cls-54 {
        fill: #548c71;
      }

      .cls-55 {
        fill: #4b8ca2;
      }

      .cls-56 {
        fill: #797979;
      }

      .cls-57 {
        fill: #75bdd5;
      }

      .cls-58 {
        fill: #397477;
      }

      .cls-59 {
        fill: #ab8d7c;
      }

      .cls-60 {
        fill: #a19891;
      }

      .cls-61 {
        fill: #4c602f;
      }

      .cls-62 {
        fill: #e7e7e7;
      }

      .cls-63 {
        fill: #070605;
      }

      .cls-64 {
        fill: #99a3a5;
      }

      .cls-65 {
        fill: #86c5a7;
      }

      .cls-66 {
        fill: #bd997f;
      }

      .cls-67 {
        fill: #4b4a49;
      }

      .cls-68 {
        fill: #90697d;
      }

      .cls-69 {
        fill: #6f5463;
      }

      .cls-70 {
        fill: #8b6b5c;
      }

      .cls-71 {
        fill: #7d7d7d;
      }

      .cls-72 {
        fill: #866754;
      }

      .cls-73 {
        fill: #0b0907;
      }

      .cls-74 {
        fill: #a5b889;
      }

      .cls-75 {
        fill: #f9f9f9;
      }

      .cls-76 {
        fill: #62493c;
      }

      .cls-77 {
        fill: #62493d;
      }

      .cls-78 {
        fill: #060504;
      }

      .cls-79 {
        fill: #788b5d;
      }

      .cls-80 {
        fill: #ebebea;
      }

      .cls-81 {
        fill: #bc997f;
      }

      .cls-82 {
        fill: #d1bbab;
      }

      .cls-83 {
        fill: #509194;
      }

      .cls-84 {
        fill: #858585;
      }

      .cls-85 {
        fill: #fefefe;
      }

      .cls-86 {
        fill: #747474;
      }

      .cls-87 {
        fill: #85c5a7;
      }

      .cls-88 {
        fill: #bc987f;
      }

      .cls-89 {
        fill: #8f715e;
      }

      .cls-90 {
        fill: #788a5d;
      }

      .cls-91 {
        fill: #6f5362;
      }

      .cls-92 {
        fill: #7cb9ca;
      }

      .cls-93 {
        fill: #b59ba3;
      }

      .cls-94 {
        fill: #46765f;
      }

      .cls-95 {
        fill: #c9a2b6;
      }

      .cls-96 {
        fill: #c7a58d;
      }

      .cls-97 {
        fill: #56878a;
      }

      .cls-98 {
        fill: #548b71;
      }

      .cls-99 {
        fill: #ad8c9c;
      }

      .cls-100 {
        fill: #644b3e;
      }

      .cls-101 {
        fill: #d7d5d5;
      }

      .cls-102 {
        fill: #6c7a4d;
      }

      .cls-103 {
        fill: #494949;
      }

      .cls-104 {
        fill: #494948;
      }

      .cls-105 {
        fill: #737373;
      }

      .cls-106 {
        fill: #050403;
      }

      .cls-107 {
        fill: #6bac8c;
      }

      .cls-108 {
        fill: #669b9e;
      }

      .cls-109 {
        fill: #a1be76;
      }

      .cls-110 {
        fill: #b79a7c;
      }

      .cls-111 {
        fill: #8b6a5c;
      }

      .cls-112 {
        fill: #e3cab8;
      }

      .cls-113 {
        fill: #69ab8d;
      }

      .cls-114 {
        fill: #eee;
      }

      .cls-115 {
        fill: #3e6955;
      }

      .cls-116 {
        fill: #8a6c5e;
      }

      .cls-117 {
        fill: #4c4c4c;
      }

      .cls-118 {
        fill: #d9bda7;
      }

      .cls-119 {
        fill: #a38092;
      }

      .cls-120 {
        fill: #657648;
      }

      .cls-121 {
        fill: #3d778a;
      }

      .cls-122 {
        fill: #ccbec5;
      }

      .cls-123 {
        fill: #7b7b7b;
      }

      .cls-124 {
        fill: #fdfdfd;
      }

      .cls-125 {
        fill: #6bac8e;
      }

      .cls-126 {
        fill: #4a5f2d;
      }
    </style>
  </defs>
  <!-- Generator: Adobe Illustrator 28.7.1, SVG Export Plug-In . SVG Version: 1.2.0 Build 142)  -->
  <g>
    <g id="Layer_1">
      <g>
        <path class="cls-22" d="M482.43,473.82c-9.67-.79-18.88-3.79-28.26-5.93-52.33-11.93-104.63-24.02-156.94-36.05-2.75-3.78-2.59-8.59.43-12.57,1.72-.83,3.45-.39,5.18-.02,16.7,3.56,33.46,6.86,50.16,10.44,5.66,1.21,5.98.93,5.99-5,.04-33.26,1.51-66.5.88-99.77-.07-3.7.87-7.31.88-10.99,0-4.56-.62-5.42-5.21-5.88-11.71-1.18-23.41-2.47-35.12-3.75-2.77-.3-5.6-.36-8.05-1.98-1.89-5.1-1.45-10.29-.59-15.49,5.92-1.39,11.66.59,17.46,1.11,8.21.73,16.37,1.95,24.57,2.88,4.43.5,5.15-.11,5.78-4.47.15-1.02.26-2.05.23-3.08-.56-17.38.61-34.73,1.07-52.09.48-18.23.33-36.48,1.53-54.71.68-10.33-.12-10.9-10.58-10.93-19.14-.05-38.22-1.69-57.35-1.79-6.93-.04-7.14.09-7.02,6.76.4,23.25,1.21,46.49,2.06,69.71.44,12.04-.44,24.16,1.36,36.15.24,1.59.09,3.24-.6,4.77-3.67,1.67-8.11.46-11.26-3.07-1.44-7.26-1.46-14.61-1.39-21.97.02-1.61.24-3.24-.3-4.82-.23-1.02-.23-2.05-.08-3.09.97-3.83,1.94-7.66.98-11.65-.83-27.27-1.66-54.54-2.47-81.81-.04-1.19-.69-2.79,1.39-3.08,6.99-.93,13.98-2.02,21.05-.63.86.17,1.76.17,2.65.15,21.95-.55,43.88.75,65.82,1.08,27.52.42,55.04,1.23,82.57,1.81,9.26.2,18.54.53,27.81.68,1.76.03,3.55-.02,5.16.9,2.25,2.31,1.54,5.26,1.54,7.97.05,44.34.03,88.68.03,133.02,0,8.44.02,8.49,7.9,6.05,11.4-3.52,22.78-7.12,34.22-10.5,2.79-.83,5.25-1.91,6.21-4.99.23-.73.85-1.18,1.7-1.12.24.54.07-.21.28.34,1.49,3.91.24,19.58-1.85,23.18-3.1,2.28-6.9,2.41-10.45,3.23-10.61,2.46-21.25,4.73-31.88,7.13-5.95,1.34-6.1,1.47-6.1,7.6-.02,46.2,0,92.39-.03,138.59,0,2.61.47,5.34-1.34,7.65Z"/>
        <path class="cls-38" d="M531.86,309.22c1.33-7.62,1.43-15.32,1.69-23.01-1.31-1.46-1.29-3.28-1.14-5.01,1.32-14.92,1.98-29.88,3.13-44.81.77-10.1,1.36-20.21,2.05-30.32,1.27-18.75,2.17-37.52,3.92-56.24.61-1.73.49-3.74,1.92-5.16.68.56,1.4,1.07,2.03,1.68,13.71,13.35,27.39,26.73,41.11,40.06,2.42,2.35,4.76,4.93,7.58,6.69,6.14,3.85,5.69,9.38,4.85,15.33-2.1,14.77-4.03,29.57-6.05,44.36-2.3,16.81-4.68,33.62-6.9,50.44-2.21,16.83-4.18,33.69-6.41,50.52-2.17,16.39-4.61,32.74-6.81,49.13-1.93,14.36-3.53,28.76-5.62,43.1-.62,4.25.15,8.86-2.53,12.72-4.1.58-8.15-.1-12.14-.79-8.67-1.5-17.34-3-26-4.61-1.69-.31-3.55-.38-4.75-1.97-.72-8.98.72-17.87,1.22-26.8.62-10.99,1.41-21.98,2.21-32.96.85-11.71,1.66-23.43,2.37-35.16.67-11.14,1.5-22.27,2.11-33.42.26-4.65.04-9.41,2.15-13.78Z"/>
        <path class="cls-80" d="M163.89,141.85c-1.51.41-3.08.77-4.61,1.27-6.28,2.07-12.55,4.18-18.83,6.28-.82.27-1.71.91-2.44.09-.75-.84.1-1.65.42-2.4,3.11-7.14,6.18-14.29,9.42-21.38,1.05-2.3,1.22-4.31.23-6.73-3.33-8.15-6.41-16.42-9.65-24.61-.93-2.34-.75-4.34.43-6.66,7.56-14.83,15.04-29.7,22.33-44.66,1.35-2.76,3.24-4.12,6-4.41,11.93-1.27,23.88-2.34,35.8-3.66,14.82-1.64,29.62-3.46,44.44-5.16,10.75-1.23,21.51-2.38,32.26-3.61,2.31-.26,3.08,1.11,3.66,2.95,5.94,18.76,11.88,37.52,17.86,56.27,1.79,5.6,3.61,11.19,5.6,16.73,1.07,2.96.56,5.03-1.8,7.32-9.22,8.91-17.9,18.39-27.36,27.03-9.58,8.75-18.58,18.05-27.76,27.18-1.83,1.82-3.54,1.74-5.52,1.17-16.07-4.64-32.12-9.34-48.18-13.98-9.72-2.8-19.48-5.51-29.22-8.26-.98-.28-1.98-.49-3.1-.76Z"/>
        <path class="cls-42" d="M531.86,309.22c-.93,15.68-1.81,31.37-2.82,47.05-1.04,16.12-2.18,32.23-3.32,48.34-1.12,15.67-2.3,31.33-3.45,47-.42,1.4-1.6,2.1-2.73,2.73-10.62,5.95-21.05,12.25-31.87,17.84-1.19.61-2.44.96-3.67,1.42-.52.07-1.04.14-1.56.22-.01-49.93.04-99.85-.16-149.78-.02-4.12,2.29-4.44,4.98-5.03,14.86-3.28,29.74-6.53,44.61-9.79Z"/>
        <path class="cls-59" d="M181.77,209.29c.29,0,.58.05.85.14,3.15.91,5.99,2.46,8.68,4.27,3.2,2.15,6.36,2.51,9.95.72,4.87-2.43,9.94-4.46,14.92-6.68,1.98-.88,3.95-2.09,6.31-1.7,3.36,1.23,6.89,1.75,10.39,2.42,1.56.55,3.22.48,4.82.8,1.47.42,2.99.74,3.88,2.19,1.48,4.41.1,8.8-.37,13.13-2.37,21.51-4.61,43.03-7,64.54-.21,1.92-.51,3.81-1.89,5.31-1.69,1.17-3.63,1.05-5.52,1.02-4.83-.07-9.67-.24-14.44.81-1.06.12-2.12.1-3.17.05-1.56-.09-3.14-.04-4.68-.41-4.1-.99-8.26-.43-12.4-.42-2.7-.12-5.51.51-7.99-1.14-.77-.95-1.08-2.1-1.03-3.26.31-6.84-1.22-13.59-.92-20.43-.11-.82-.11-1.64-.01-2.46.21-7.82-.69-15.66.46-23.46,2.79-2.68,3.59.19,4.86,1.75q.61,4.86,5.31,4.47c1.17.11,2.07.65,2.68,1.65.9,2.47.78,5.12,1.32,7.66.35,1.61.72,3.09,2.21,4.02,1.47.92-1.79,3.24,1.18,3.79,3.01.56,3.76-1.99,5.23-3.57.2-.36.43-.7.67-1.03,2.76-3.57,3.72-8.32,7.33-11.34,2.17-.6,3.68-1.75,3.59-4.26.6-2.9,3.32-3.86,5.15-5.65,1.77-1.73,3.07-3.57.37-5.62-3.91.41-7.81.48-11.72.42-3.13-.19-2.87,2.08-3.08,4.12-.35,3.55.96,7.29-1.2,10.64-2.65-.56-2.09-2.79-2.19-4.51-.57-9.19-.53-9.19-9.95-9.36-.53,0-1.05,0-1.57-.01-3.47-.28-7.08.9-10.39-1-1.29-1.69-1.17-3.66-1.12-5.62-.25-6.38.11-12.78-.25-19.16-.06-1.02-.07-2.05.75-2.85Z"/>
        <path class="cls-95" d="M543.44,144.66c-.16,1.5.45,3.14-.74,4.47-1.61-2.56-3.76-2.98-6.71-2.38-15.96,3.26-31.9,6.67-47.95,9.49-1.83.32-3.7,1.14-5.57.08-16.45-.34-32.91-.81-49.36-.98-18.52-.2-37.03-.76-55.54-1.23-12.78-.32-25.56-.28-38.34-.65-20.7-.61-41.39-1.18-62.09-1.77,16.13-3.8,32.34-7.31,48.38-11.48,11.48-2.99,22.92-2.89,34.57-1.94,9.38.76,18.82.33,28.24.88,14.84.86,29.74.64,44.6,1.27,18.24.77,36.48,1.23,54.72,1.83,17.5.58,34.99,1.58,52.51,1.66,1.15,0,2.39-.32,3.29.77Z"/>
        <path class="cls-118" d="M100.36,271.18c-7.88-1.52-15.75-3.07-23.64-4.56-2.28-.43-3.22-1.6-2.84-3.99.63-3.89,1.07-7.8,1.6-11.7-2.06-3.16-.55-6.47-.4-9.73-.1-2.79,1.12-5.43.9-8.23-.11-3.83,1.25-7.54.96-11.39,1.37-8.15,1.09-16.5,3.04-24.58.42-1.03,1.21-1.64,2.25-1.96,9.07-1.42,17.86-4.29,27.01-5.27,2.24.23,3.78,1.69,5.04,3.3,4.28,5.48,9.48,10.07,14.26,15.06,2.05,2.13,4.02,4.33,4.64,7.37-.31,8.68-2.44,17.09-3.66,25.64-1.3,9.14-2.91,18.24-4.36,27.36-.34,2.14-.35,4.41-1.62,6.34-.97.81-2.14,1.03-3.32.86-5.67-.85-11.37-1.54-17-2.64-1.19-.23-2.22-.77-2.87-1.87Z"/>
        <path class="cls-114" d="M23.33,449.83c2.06,0,4.12-.02,6.19-.03,1.77-.64,3.54-.63,5.31,0,3.5-.79,7.04-1.03,10.62-.88,1.65-1.05,3.68.28,5.31-.86,1.16,0,2.31-.01,3.47-.02,1.94,1.81,4.27,2.22,6.87,2.27,9.95.17,19.92-.61,29.85.52,2.11.24,3.37-.53,3.65-2.73.13-1.02.38-2.02,1.05-2.86,2.15-1.53,4.63-1.06,7.02-1.17,1.82.15,3.63.15,5.45,0,5.97-1.07,12.02-1.45,17.94-.16,3.5.76,6.03-1.12,8.98-1.95,1.59,2.22.97,4.8,1.09,7.24.11,2.27.79,3.64,3.41,3.3,7-.9,14.04-.32,21.06-.46,5.35-.11,5.49-.27,5.62-5.82.06-2.59-.53-5.3,1.01-7.71,3.16-.1,2.21,2.45,2.4,4.01.58,5,.56,5.28,5.56,5.07,10.76-.47,21.32-2.6,31.99-3.93,7.14-.89,14.21-2.42,21.46-2.43,1.73.87.76,1.81.02,2.67-1.5,1.75-3.58,2.88-5.02,4.68-.83,2.48.61,3.2,2.65,3.35,2.49.19,4.98.09,7.48.08,14.66-.08,29.33.15,43.99.07,9.49.04,18.97-.18,28.46.78,4.43.45,4.88-.39,4.2-4.51-.43-.62-.72-1.28-.48-2.06,8.37.28,16.42,2.68,24.64,3.91,1.55.23,3.09.53,4.78,1.54-5.5,1.13-10.99,2.29-16.5,3.37-19.21,3.77-38.42,7.51-57.63,11.27-3.05.6-6.06.58-9.12-.15-16.34-3.92-32.65-7.96-49.06-11.51-3.56-.77-7.6-.17-11.27.57-3.82.77-7.59.6-11.39.73-1.34,1.01-3.11-.21-4.44.87-11.49,1.13-22.96,2.39-34.46,3.36-13.22,1.11-26.36,2.37-39.68-.27-6.94-1.37-14.24-1.38-21.36-2.19-10.3-1.17-20.61-2.29-30.92-3.38-9.45-.99-18.91-1.9-28.36-2.84-.39-.78-2.3-.04-1.76-1.75Z"/>
        <path class="cls-55" d="M380.65,119.24c-6.33-4.56-12.63-9.15-19-13.64-1.82-1.29-2.72-2.88-3.06-5.07-1.33-8.56-2.76-17.11-4.23-25.66-.54-3.13.09-5.93,1.05-8.98,3.76-11.9,12.78-19.87,20.61-28.77.75-.85,1.56-1.26,2.68-1.2,13.34.69,26.72.42,40.04,1.63,5.46,3.29,8.29,9.03,12.58,13.4,4.2,4.27,5.44,9.13,5.6,15.1.22,8.07.5,16.15.76,24.22.16,4.83-1.4,8.41-4.92,11.65-4.73,4.35-9.18,9.01-13.64,13.59,2.39,1.8,6.2-1.44,7.4,2.8-1.21,1.05-2.69,1.22-4.16,1.18-11.77-.31-23.51.62-35.27.95-2.24.06-4.4-.24-6.44-1.2Z"/>
        <path class="cls-57" d="M297.54,419.68c-.86,4.04-1.58,8.08-.3,12.17-1.92.93-1.29,2.31-.65,3.7-2.66,2.2-6.07,2.69-9.15,3.88-7.2,2.79-14.41,5.54-21.78,7.89-.92.26-1.83.51-2.8.39-.5-.11-.9-.37-1.21-.78-.26-.43-.43-.89-.54-1.38-2.05-14.11-5.26-28.01-7.52-42.08-.28-1.74-.74-3.47-.14-5.22.53-1.3,1.63-2.07,2.79-2.66,8.43-4.32,16.6-9.13,25.18-13.15,1.07-.5,2.19-.81,3.39-.66,1.61.29,2.89,1.24,4.19,2.14.53.43.95.95,1.28,1.54.94,2.11,1.63,4.31,2.13,6.56.68,3.01,1.53,5.66,5.55,4.98.86-.15,1.65.41,2.05,1.31-.11,7.22.06,14.46-2.47,21.39Z"/>
        <path class="cls-90" d="M72.72,373.87c-.12-3.95-2.08-6.43-5.9-7.46-2.98-.8-2.68-2.62-1.89-5.04,3.83-11.67,7.49-23.39,11.21-35.09.09-.43.3-.8.61-1.1,6.79-4.52,13.93-8.47,20.91-12.69,1.36-.82,2.8-1.64,4.53-1,2.57,2.55,4.36,5.56,5.3,9.07.08.44.11.89.11,1.34-.88,6.46-3.57,12.41-5.19,18.66-.55,2.12-1.73,4.09-1.46,6.39.03.43,0,.86-.09,1.28-3.05,2.61-2.62,5.6-1.33,8.99,1.12,2.96,2.8,5.78,2.96,9.08-.1.65-.41,1.2-.81,1.71-2.53,2.43-4.68,5.2-6.97,7.86-1.13,1.31-2.32,2.68-4.25,2.88-3.59-.67-6.46-2.97-9.77-4.27-1.15-.58-2.4-1.04-3.4-1.8-2.14-1.62-3.48-.89-4.55,1.19Z"/>
        <path class="cls-38" d="M380.65,119.24c13.81-.21,27.6-1.5,41.43-1.16,1.52.04,3.26.66,4.56-.82,2.19-4.97,6.95-7.5,10.81-10.69,4.56-3.77,6.53-7.74,6.83-13.81.46-9.25.42-18.49.65-27.73.07-2.77.04-5.62,2.08-7.9,3,4.34,6.49,8.43,8.85,13.1,2.38,4.7,1.21,10.2.66,15.19-.9,8.18-.28,16.42-1.44,24.58-.3,2.14-.51,3.74-2.56,5.11-7.95,5.28-15.73,10.8-23.55,16.27-1.61,1.12-3.23,2.03-5.28,1.84-10.06-.93-20.16-1.55-30.16-2.93-3.61-.5-5.52-4.6-8.54-6.67-1.66-1.14-2.9-2.9-4.33-4.37Z"/>
        <path class="cls-4" d="M278.2,248.07c-.04.9-.09,1.79-.13,2.69.52,1.96-.79,3.35-1.67,4.77-2.93,4.75-5.92,9.45-8.86,14.19-.7,1.13-1.44,2.24-2.85,2.6-3.31-1.72-3.85-5.18-5.13-8.17,0-4.65,2.19-8.73,3.58-13,.98-3.01.37-4.66-2.64-5.68-2.48-.84-5.02-1.58-7.38-2.77-2.62-1.41-5.38-2.64-6.79-5.54-2.37-8.44-4.53-16.93-4.96-25.74-.08-1.84,1.35-2.49,2.62-3.14,6.12-3.13,12.28-6.18,18.44-9.22,1.58-.78,3.24-1.36,5-.41,3.32,15,6.64,29.99,9.95,44.99.69,1.4,1.3,2.81.81,4.43Z"/>
        <path class="cls-87" d="M117.96,169.49c3.45-.57,6.19,1.47,9.15,2.58,14.12,5.31,28.2,10.73,42.28,16.15.9.35,2.06.43,2.47,1.59-8.39,7.26-17.63,13.37-26.55,19.91-2.32.39-3.8-1.27-5.51-2.32-11.14-6.82-22.12-13.9-33.55-20.25-.78-.41-1.47-.91-1.9-1.71-.56-1.76.81-2.65,1.7-3.75,3.61-4.42,7.75-8.32,11.91-12.2Z"/>
        <path class="cls-8" d="M75.52,326.03c-7.99-.98-15.98-1.96-23.98-2.94-2.27-.28-3.54-1.92-4.86-3.5-7.21-8.7-14.32-17.48-21.69-26.04-2.46-2.85-2.92-5.04.3-7.38,3.76-4.32,7.94-8.12,13.16-10.65,3.06-3.11,4.78-2.3,6.99,1.39,4.78,8,9.32,16.18,15.08,23.57,5.52,6.33,9.14,13.92,13.74,20.86.9,1.35,2.56,2.67,1.25,4.69Z"/>
        <path class="cls-121" d="M447.01,57.13c-1.44,13.42-.67,26.94-1.6,40.39-.18,2.53-.79,4.38-2.77,6.02-5.41,4.48-10.67,9.14-15.99,13.73-3.23,0-6.47,0-10.21,0,1.53-3.01,3.98-4.66,5.93-6.72,4.55-4.8,10.97-8.79,13.31-14.47,2.34-5.69.86-13.04.67-19.65-.16-5.71-1.16-11.39-.81-17.13.1-1.68-1.07-2.62-2.01-3.76-4.95-5.97-9.86-11.99-14.78-17.99.15,0,.29,0,.44-.02,15.16-1.82,21.1,9.45,27.83,19.6Z"/>
        <path class="cls-98" d="M145.45,209.26c5.73-5.98,12.94-10.04,19.44-15.02,2.17-1.67,4.07-3.88,6.98-4.42,3.3,6.49,6.61,12.98,9.91,19.47,1.43,7.32.52,14.72.73,22.08-1.39,1.08-2.53.11-3.6-.54-10.28-6.24-20.62-12.37-30.8-18.78-1.1-.69-2.3-1.36-2.65-2.79Z"/>
        <path class="cls-18" d="M222.32,206.6c-7.69,2.53-14.82,6.37-22.24,9.56-2.57,1.1-4.69,1.24-7.02-.29-3.42-2.24-7.42-3.54-10.44-6.43,14.98-5.93,30.01-11.74,44.92-17.86,3.74-1.53,7.19-1.94,11.02-.81,3.65,1.08,7.39,1.87,11.09,2.78.08,1.7-1.34,2.19-2.45,2.69-7.31,3.29-14.53,6.75-21.87,9.98-.97.42-2,.36-3.01.39Z"/>
        <path class="cls-50" d="M117.96,169.49c-.09,2.18-1.94,3.13-3.2,4.46-3.46,3.64-7.24,6.98-10.03,11.22-6.94,4.51-14.39,7.98-22.16,10.77-.62.32-1.24.65-1.87.97-1.94,1.7-3.78,3.67-6.78,2.65-1.78-5.29-3.5-10.6-5.36-15.87-.67-1.9-.45-2.96,1.72-3.45,15.9-3.55,31.79-7.16,47.69-10.76Z"/>
        <path class="cls-62" d="M483.99,473.61c12.76-7.33,25.52-14.66,38.28-21.99,9.69.88,19.13,3.24,28.73,4.71,4.58.7,9.13,1.58,13.69,2.38-8.53,1.74-17.04,3.6-25.6,5.21-15.33,2.89-30.68,5.66-46.03,8.43-3,.54-6.04.85-9.07,1.27Z"/>
        <path class="cls-79" d="M75.52,326.03c-3.97-8.14-9.54-15.32-13.95-23.2-.42-.74-.7-1.56-1.05-2.35,9.43-5.06,18.85-10.12,28.28-15.18,1.41,1.66.47,3.35,0,4.99-1.36,4.64-2.89,9.24-4.31,13.86-1.7,5.52-1.73,5.51,3.38,7.47.32,2.41-1.68,2.09-2.89,2.16-2.83.17-4.02,1.81-4.84,4.24-.93,2.72-1.31,5.73-3.6,7.85-.13.13-.26.27-.39.41-.24,0-.45-.09-.62-.25Z"/>
        <path class="cls-23" d="M95.9,445.39c-.16,7.22-.14,6.83-7.47,6.52-10.1-.44-20.24-.3-30.36-.22-2.76.02-4.2-.7-3.86-3.64.05-.87.12-1.74.13-2.61q.09-8.97,9.28-8.92c3.35.01,6.69,0,10.04-.01,4.78,1.4,8.12,5.04,12.08,7.72,3.64,2.46,3.62,2.42,5.81-1.37,2.08-3.6,2.61-7.39,2.24-11.42.07-1.71-.21-3.52,1.35-4.81.6-.04,1.03.21,1.31.73.96,6.05,1.81,12.1-.56,18.05Z"/>
        <path class="cls-72" d="M100.36,271.18c7.58,1.41,15.15,2.86,22.86,3.42.54-.25,1.12-.38,1.7-.25,1.37.29,3.25-.06,3.68,1.69.35,1.43-1.09,2.24-2.07,3.1-7.38,6.43-14.89,12.7-22.26,19.13-1.2,1.04-2.4,2.28-4.25,1.26-.32-.39-.55-.83-.7-1.32-.57-8.44-.68-16.88.11-25.31.31-.57.62-1.15.93-1.72Z"/>
        <path class="cls-54" d="M73.92,199.56c2.26-.88,4.52-1.76,6.78-2.65-.86,8.22-1.73,16.45-2.59,24.67-2.74,6.43-7.48,11.53-11.44,17.15-.43.61-1.06,1.01-1.89.74q-5.42-5.08-2.7-11.56c3.95-9.45,7.9-18.9,11.84-28.35Z"/>
        <path class="cls-109" d="M87.91,311.92c-.73-.03-1.46-.14-2.18-.06-4.28.5-4.59-1.51-3.4-4.94,1.94-5.61,3.65-11.31,5.4-16.98.47-1.51.72-3.09,1.07-4.64.3-.26.6-.53.9-.79,4.78,4.03,7.73,9.37,10.55,14.8l.09.4c3.63,2.98,7.48,5.81,7.64,11.17-2,1.65-4.16,1.24-6.35.52-3.02.19-5.8,1.69-8.85,1.67-1.71-.01-3.48.21-4.87-1.15Z"/>
        <path class="cls-105" d="M222.32,206.6c9.11-4.35,18.22-8.7,27.33-13.05,5.97,1.55,12.19,2.23,17.78,5.11-5.32.96-9.65,4.18-14.4,6.42-3.83,1.81-7.87,3.29-11.25,5.97-.29.41-.57.41-.86,0-1.29.11-2.44-.31-3.55-.91-1.31-1.08-3.08.15-4.4-.86-3.74-.17-7.49-.26-10.66-2.67Z"/>
        <path class="cls-112" d="M21.58,249.91c2.92,2.34,5.85,4.67,8.77,7.01,1.73,3.55.04,6.83-.81,10.18-3.31,4.7-7.77,8.12-12.52,11.21-2.73-2.39-5.07-5.15-7.54-7.79-2.29-2.44-1.42-3.87.34-5.79,2.41-2.64,5.09-5.12,6.41-8.59,1.07-2.69,3.33-4.36,5.35-6.23Z"/>
        <path class="cls-15" d="M264.94,446.54c9-3.33,18-6.66,27.01-9.98,1.5-.55,2.99-1.17,4.65-1.01,4.43,3.59,8.86,7.17,13.29,10.76.28.35.56.7.84,1.04-.76,2.46-2.89,1.72-4.59,1.96-4.36-.03-8.72-.1-13.07.07-3.81,1-7.34-1.09-11.08-.95-5.18-.21-10.37.3-15.55-.29-.76-.29-1.51-.58-1.5-1.59Z"/>
        <path class="cls-94" d="M94.87,432.12c1.17,5.18-1.44,9.34-3.56,13.69-1.07,2.19-2.16,2.38-3.99.98-4.53-3.47-9.1-6.87-13.66-10.3,2.1-3.82,4.2-7.63,6.29-11.45.71-1.31,1.59-1.83,2.84-.61,3.64,3.17,8.55,4.34,12.07,7.68Z"/>
        <path class="cls-18" d="M72.72,373.87c.13-1.27.25-2.54.4-4.04,2.88.96,5.46,2.09,7.71,3.91,1.02,1.17,1.34,2.58,1.35,4.07.09,11.09.13,22.18-.03,33.27-.01.88-.18,1.74-.52,2.56-2.48,2.65-4.31,1.25-6-.98l-2.91-38.78Z"/>
        <path class="cls-105" d="M75.63,412.66c1.63.95,3.39,1.48,5.27,1.66,2.32-1.36,4.57.02,6.85.18,2.24.59,4.58.66,6.81,1.31,2.35.4,4.78.54,6.77,2.1.62,2.79-.72,5.16-1.72,7.56-.7,1.7-1.93,2.6-3.82,1.4l-.42-.05-.42.05c-4.29.53-8.38-.22-12.35-1.84-.9-1.32-1.77-.2-2.66.03-4.09-.53-3.93-3.81-4.22-6.7-.19-1.88-.08-3.79-.1-5.69Z"/>
        <path class="cls-81" d="M17.02,278.31c3.1-4.4,7.85-7.02,11.59-10.74,4.69.87,7.22,4.45,9.9,7.86,0,0-.07.09-.07.09-4.18,3.81-8.28,7.71-13.16,10.65-2.75-2.62-5.51-5.24-8.27-7.86Z"/>
        <path class="cls-118" d="M38.51,275.43c-3.3-2.62-6.6-5.24-9.9-7.86.58-3.55,1.16-7.1,1.73-10.65.32-2.17.81-4.33.93-6.52.15-2.81,1.74-3.23,4.12-3.27,2.76-.05,3.04,1.4,3.03,3.6-.04,8.23.04,16.46.08,24.7Z"/>
        <path class="cls-66" d="M21.58,249.91c-.79,2.93-3.09,4.57-5.35,6.23-4.76-4.98-9.47-10.01-14.29-14.93-1.56-1.6-2.13-2.77-.31-4.73,1.92-2.07,3.05-1.19,4.66.23,5.04,4.46,10.19,8.81,15.29,13.2Z"/>
        <path class="cls-8" d="M64.78,239.48c4.44-5.96,8.89-11.93,13.33-17.89.58,3.94-1.11,7.7-.9,11.61-1.32,2.47-3.35,4.86-.92,7.78-.27,3.31-.54,6.63-.8,9.94-4.13-3.29-7.29-7.49-10.71-11.44Z"/>
        <path class="cls-126" d="M100.25,299.32c-4.03-4.57-7.23-9.72-10.55-14.8,3.24-3.87,6.49-7.75,9.73-11.62,1.64,1.75.81,3.9.84,5.85.09,6.86,0,13.72-.02,20.57Z"/>
        <path class="cls-122" d="M278.2,248.07c-.22-1.48-1.52-2.77-.81-4.43,1.41-2.23.08-4.77.82-7.07.94,3.83,1.35,7.67,0,11.5Z"/>
        <path class="cls-1" d="M23.33,449.83c.59.58,1.17,1.17,1.76,1.75-1.9.15-3.66-.26-5.4-1.28,1.19-.91,2.47-.29,3.64-.48Z"/>
        <path class="cls-75" d="M50.75,448.06c-1.56,1.58-3.53.61-5.31.86,1.56-1.56,3.54-.58,5.31-.86Z"/>
        <path class="cls-75" d="M34.83,449.8c-1.77,0-3.54,0-5.31,0,1.77-1.31,3.54-1.31,5.31,0Z"/>
        <path class="cls-1" d="M179.89,456.9c1.25-1.47,2.94-.67,4.44-.87-1.26,1.44-2.94.67-4.44.87Z"/>
        <path class="cls-95" d="M465.66,237.14c0,21.06-.09,42.13.09,63.19.03,3.84-1.22,4.9-4.8,4.44-16.14-2.05-32.28-4.03-48.43-5.97-8.59-1.03-17.18-2.02-25.79-2.83-5.75-.54-6.31-.63-5.89-6.13,1.28-16.61,0-33.27.95-49.86.92-16.04.11-32.08.86-48.1.33-7.05.68-14.09.62-21.14-.02-2.63,1.12-3.21,3.47-3.17,25.31.39,50.62.75,75.94,1,3.66.04,3,2.4,3,4.51.02,21.36.01,42.71.01,64.07h-.03Z"/>
        <path class="cls-95" d="M378.96,426.83c1.39-19.27.17-38.59,1.09-57.84.79-16.35.38-32.68.69-49.01.21-10.92.41-10.9,11.09-9.39,11.76,1.67,23.61,2.65,35.43,3.89,11.82,1.24,23.64,2.44,35.46,3.6,2.02.2,3.05,1.15,2.79,3.12-1.25,9.51-.37,19.11-1.23,28.63-.12,1.31-.33,2.63-.37,3.94-.66,20.43-1.22,40.87-1.95,61.3-.42,11.6-1.19,23.18-1.58,34.78-.1,2.98-.95,3.92-3.92,3.3-24.42-5.05-48.86-10.04-73.3-14.99-2.96-.6-4.81-1.64-4.25-5.15.32-2.01.06-4.12.06-6.18Z"/>
        <path class="cls-42" d="M482.46,156.32c16.36-3.28,32.72-6.57,49.09-9.84,2.01-.4,4.11-.53,6.03-1.18,3.78-1.29,5.51-.23,5.11,3.84-3.05,45.69-6.09,91.38-9.14,137.08-.18,5.05-3.76,6.37-7.84,7.56-13.09,3.83-26.15,7.76-39.14,11.92-3.56,1.14-4.24.27-4.24-3.2.11-48.73.1-97.45.13-146.18Z"/>
        <path class="cls-95" d="M289.53,281.64c-.84-21.6-1.35-43.22-1.94-64.83-.46-16.75-1.3-33.49-1.65-50.25-.07-3.17.63-4.45,4.11-4.32,21.76.77,43.52,1.26,65.27,2.04,8.55.31,8.74.54,8.45,9.24-.84,25.44-1.24,50.89-1.96,76.32-.32,11.18-.39,22.35-.65,33.53-.23,9.87-.51,9.94-10.19,8.51-10.87-1.61-21.84-2.62-32.76-3.9-2.18-.25-4.36-.52-6.54-.77-.33.28-.7.68-1.12.62-7.3-1.06-14.57-2.26-21.03-6.18Z"/>
        <path class="cls-95" d="M297.54,419.68c-.21-7.41,1.39-14.67,1.71-22.04-.21-1.17.67-1.69,1.46-1.8,3.91-.55,5.24-3.25,5.79-6.67.61-6.57,2.24-12.97,3.01-19.51-.05-4.26-.21-8.52.14-12.76.14-1.62.57-3.18,1.66-4.47,1.56-1.22,3.33-.78,5.07-.61,7.88.74,15.72,1.79,23.61,2.47,2.23.19,4.57.76,4.79-2.68.21-3.26-1.73-4.02-4.43-3.94-7.04.21-14-1.28-21.07-.98-2.76.12-5.59-.16-7.94-2.02-1.16-2.05-1.17-4.12-.11-6.21,2.02-1.84,4.39-1.19,6.71-.96,7.61.77,15.2,1.8,22.83,2.42,2.72.22,4.22-.49,4.43-3.38.25-3.33-2.18-2.84-4.15-3.06-8.48-.94-17.04-.74-25.52-1.79-1.46-.18-2.96-.13-4.16-1.19-1.07-1.77-1.09-3.55-.1-5.36,1.49-1.41,3.27-.93,5.01-.76,8.04.8,16.05,1.75,24.08,2.63,1.94.21,4.23.98,5.23-1.78,1.07-2.95-.26-4.88-4.17-4.86-7.65.04-15.22-1.19-22.86-1.11-2.46.03-5.1.2-6.68-2.4-.79-4.97-1.79-9.95.73-14.76,12.52,1.37,25.04,2.74,37.57,4.1,1.02.11,2.04.23,3.07.28,8.99.42,9.25.43,8.7,9.15-1.43,22.79-.04,45.61-.93,68.38-.58,14.85-.6,29.69-.63,44.54,0,3.49-1.33,3.83-4.3,3.19-18.77-4.05-37.56-7.97-56.35-11.92-.71-.15-1.47-.13-2.2-.19Z"/>
        <path class="cls-17" d="M311.66,352.55c-1.32,5.83-.56,11.77-.92,17.65-4.32,2.3-9.14,1.52-13.71,2.15-2.88.4-5.85.2-8.78.01-1.65-.02-3.33.06-4.84-.82-.94-.7-1.48-1.65-1.81-2.75-.97-7.72-.89-15.53-1.11-23.27-.34-11.59-1.24-23.16-1.24-34.75,0-2.76.7-5.55-.36-8.27-.79-7.14-.04-14.31-.49-21.46-.19-.75-.2-1.49.04-2.23.21-.54.59-.74,1.15-.6,3,2.04,6.65,2.21,9.94,3.42,7.44,1.61,14.58,4.46,22.15,5.56,2.03,4.87.3,9.98.94,14.94-.04,5.06-.09,10.12-.13,15.17.72,2.7.79,5.35-.63,7.87-.02,1.73-.03,3.46-.05,5.2,1.6,2.66,1.69,5.3-.06,7.93-.01,2.11-.02,4.21-.03,6.32,1.81,2.65,1.72,5.29-.05,7.91Z"/>
        <path class="cls-57" d="M263.84,67.81c3.99,1.67,5.87,4.87,7.1,8.89,2.52,8.29,5.37,16.48,8.12,24.7.47,1.4,1.19,2.74-.26,4.02-3.29,2.9-5.86,6.57-9.64,8.94-3.15-4.13-7.57-6.3-12.33-7.96-4.31-1.06-9.06-.16-12.98-2.94-1.99-2.61-.87-5.62-1.1-8.46.23-2.03,1.72-2.46,3.39-2.63,1.69-.18,3.42-.11,5.21-.49-.78-1.06-1.98-1.4-2.51-2.43.51-1.86.04-3.69-.21-5.53-.84-1.97-2.68-3.41-2.99-5.66.46-3.48-2.05-6.67-4.25-6.63-2.74.05-3.58,3.84-3.66,6.81.34,2.38-2.61,3.85-1.77,6.38-.57,2.29-3.21,4.23-1.2,6.96.15,1.86,1.39,1.75,2.78,1.63,1.8-.15,3.76-.58,4.95,1.46.29,2.56.36,5.12-.03,7.67-1.43,2.12-3.48,1.01-5.21.81-13.3-1.53-8.96-2.71-18.58,6.29-4.53,3.39-8.76,3.1-13.2-.48-2.15-1.73-3.97-4.55-7.43-4.05-2.35.51-4.59,2.54-7.11.47-.83-1.57-.81-3.16-.14-4.77,1.54-1.93,3.64-1.48,5.59-1.12,3.27.6,6.52.49,9.88.52-.23-2.36-2.78-3.53-1.93-5.85,1.76-1.63,3.67-1.29,5.59-.65-1.41-2.71-3.54-5.18-5.38-7.86-.98-1.43-2.21-2.8-1.92-4.75,1.94-1.16,3.04-2.4,1.08-4.6-1.04-1.16-1.7-2.66-1.52-4.36,2.1-3.83,4.69-6.87,9.28-8.07,2.73-.72,5.06-2.38,8.19-2.52,2.67-.12,5.71,1.79,8.27-.95.56-.6,1.75.7,2.27,1.63.79,1.4,1.13,3.04,2.53,4.54,7.17-6.41,12.96-2.4,18.36,3.02,3.11-4.4,8.35-5.12,12.76-2Z"/>
        <path class="cls-85" d="M263.84,67.81c-2.62-1.88-5.63.86-8.67-.96-1.3-.78-2.84,2.52-1.52,5.96-4.14-3.15-7.28-5.51-10.37-7.93-1.18-.92-2.16-1.62-2.89.42-.16.44-.52,1.51-1.04.99-4.49-4.53-4.08,2.52-6.97,2.6-.82-.35-1-1.6-1.37-2.6-1.35-3.62-2.58-7.2-6.85-2.38-.32.37-.99.43-1.5.63-1.78-6.46-3.35,1.02-5.22-.21.07-.53.19-1.31.4-2.78-5.07,4.07-11.8,4.77-15.01,10.69-2.57-.14-2.99-2.01-3.25-4.02.36-1.32.87-2.37,2.5-1.36,4.99-2.7,8.1-7.5,12.35-11.02,2.52-2.09,4.41-5.8,9.05-2.86,2.06,1.31,3.78-1.82,4.78-3.52,1.77-3,3.11-2.69,5.15-.37,4.17,4.72,9.29,8.53,12.9,13.78,1.66,2.42,3.6,3.27,6,.88.31-.31.67-.57,1.04-.82,5.22-3.5,8.56-1.95,10.51,4.86Z"/>
        <path class="cls-54" d="M257.76,105.7c4.27,2.28,10.18,2.39,11.4,8.67-4.05.69-8.63.41-12.07,2.24-9.9,5.28-20.85,3.86-31.21,5.99-1.9-.88-2.5-2.53-2.65-4.44.7-4.01,2.93-7.33,4.84-10.81,1.88-1.83,3.86-.89,5.72-.06,3.09,1.39,6.32,2.44,9.36,3.89,2.78,1.32,4.98.8,7.28-1.06,2.22-1.79,4.04-4.35,7.32-4.42Z"/>
        <path class="cls-50" d="M202.95,81.07c2.76,4.21,5.53,8.41,8.68,13.21h-7c-1.18,1.06-2.64,1.37-4.12,1.19-8.57-1.02-17.15-1.2-25.74-.25,1.56-2.85-.91-2.54-2.65-3,2.93-4.05,7.79-5.91,10.19-10.17,6.8-2.06,13.61-3.67,20.63-.98Z"/>
        <path class="cls-54" d="M198.47,117.13c-8.25,1.14-16.51,2.18-24.73,3.47-4.99.78-8.09-2.27-11.42-5.01,5.84-3.4,11.5-7.44,18.89-5.24,1.16.35,1.95-.26,2.63-1.08.98-1.18,2.23-1.82,3.76-1.96,3.36-.07,6.73-.33,10.08.07,2.98,1.28,6.03,2.49,5.91,6.56-1.61,1.21-2.99,2.8-5.12,3.2Z"/>
        <path class="cls-57" d="M186.93,108.39c-.43.1-1.14.1-1.23.33-1.56,4.14-4.05,3.96-7.22,1.78-1.21-.83-2.53.06-3.77.53-4.12,1.55-8.26,3.04-12.39,4.56,3.2-5.61,6.4-11.21,9.6-16.82,5.5-1.5,10.85-1.13,16.04,1.26,1.45,2.16,1.25,4.47.65,6.83-.31.79-1.01,1.15-1.68,1.53Z"/>
        <path class="cls-49" d="M198.47,117.13c1.68-.86,2.04-3.49,4.48-3.34,5.41.98,10.87,1.63,16.28,2.61,1.7.31,3.47.49,4.84,1.73.6,1.49,1.21,2.98,1.81,4.47-7.5,1.94-15.02,3.86-22.51,5.85-1.81.48-2.39-.23-2.48-1.9-.12-2.05-.37-4.08-.53-6.13-.11-1.41.29-3.09-1.89-3.29Z"/>
        <path class="cls-54" d="M202.95,81.07c-6.88.33-13.75.65-20.63.98-1.18-.14-2.91.2-1.53-2,1.04-1.66,2.52-3.11,2.66-5.24,4.23-4.65,9.87-6.24,15.77-7.2.33-.05.6.57.71,1.01,1.01,1.17,1.34,2.88,2.88,3.64.54,3.08,3.28,5.03,4.21,7.98-1.2,1.29-2.76.49-4.07.83Z"/>
        <path class="cls-54" d="M187.94,100.44c-5.34-.56-10.68-1.12-16.01-1.67.14-1.84,2.07-2.24,2.86-3.55,6.63-3.91,13.81-1.42,20.71-1.51,2.96-.04,6.08.46,9.14.57.56,2.82,3.45,4.32,4.19,7.51-5.91-.41-11.64-.82-17.38-1.22-1.2.83-2.37.85-3.51-.13Z"/>
        <path class="cls-49" d="M199.94,68.62c-6.24.08-11.15,3.7-16.49,6.19-1.15-.12-2.18-.27-1.11-1.8,3.54-5.06,7.05-10.14,10.61-15.18.38-.54,1.06-1.21,1.63-1.23,1.65-.07,7.56,8.21,7.49,10.28-1.14.05-1.85.63-2.13,1.74Z"/>
        <path class="cls-107" d="M145.45,209.26c11.68,7.11,23.37,14.23,35.06,21.33.6.37,1.33.53,1.99.79.05,1.78.1,3.56.14,5.34,1.24,1.77,1.48,3.78,1.46,5.87-.12.45-.36.84-.7,1.16,0,8.26-.02,16.51-.02,24.77-4.16-1.34-6.31-5.1-8.81-8.09-5.96-7.14-12.76-13.46-19.07-20.24-7.11-7.63-13.86-15.65-21.68-22.62-.32-.24-.6-.51-.85-.83-.5-.64-.26-1.53-.71-2.19-6.73-8.71-14.98-15.99-22.42-24.04-1.62-1.04-3.83-1.6-3.35-4.28,11.73,6.14,22.69,13.56,34.04,20.36,1.6.96,2.87,2.53,4.91,2.68Z"/>
        <path class="cls-70" d="M240.93,211.05c.29-.01.57-.01.86,0,1.56,7.54,3.13,15.09,4.68,22.63.26,1.28.45,2.57.67,3.85-.22,4.97-3.17,8.92-5.09,13.24-2.24,5.04-2.4,4.97,2.59,7.2.57.3,1.05.72,1.45,1.22,6.27,8.75,13.4,16.81,19.95,25.33.98,1.28,2.24,2.4,2.11,4.22-.82,2.98-3.25,4.65-5.43,6.45-1.67,1.37-3.23,2.81-4.67,4.42-.55.37-1.16.46-1.8.32-.4-.14-.76-.34-1.1-.58-1.18-.91-2.61-1.28-3.96-1.83-4.14-1.97-8.41-2.79-13.03-2.25-2.05.24-4.37.62-6.14-1.18,3.35-27.64,6.65-55.29,8.91-83.05Z"/>
        <path class="cls-98" d="M133.88,216.36c8.94,7.42,16.14,16.55,24.1,24.91,6.24,6.56,13.02,12.64,18.59,19.85,2.04,2.64,4.52,4.93,6.81,7.38.02.52.04,1.04.05,1.57-3.33,5.7-8.42,9.75-13.27,13.99-1.29,1.12-3.12,1.88-4.7.05-2.62-7.57-6.25-14.64-10.7-21.31-.31-3.55-2.68-6.19-4.11-9.25-2.19-5.43-5.14-10.48-7.69-15.74-1.13-2.48-2.37-4.91-3.67-7.31-1.58-3.25-3.24-6.47-4.81-9.73-.66-1.37-1.82-2.75-.62-4.41Z"/>
        <path class="cls-83" d="M209.1,295.11c.86-.02,1.72-.04,2.58-.05.82.96,2.68-.23,3.13,1.51-.28,18.43-2.35,36.76-3.28,55.14-.21.43-.53.77-.95,1.01-2.67-.17-3.96-2.37-5.42-4.04-4.12-4.73-8.45-9.25-12.84-13.71-1.53-1.55-2.89-3.29-3.4-5.51.54-4.38,3.68-7.5,5.51-11.26.96-1.96,2.31-3.71,3.15-5.74,2.72-4.66,5.78-9.12,8.26-13.92.74-1.44,1.74-2.7,3.27-3.42Z"/>
        <path class="cls-8" d="M209.1,295.11c-3.56,5.89-6.61,12.09-10.71,17.65-6.54,4.78-14.11,7.7-21.11,11.65-1.03.58-2.27.65-3.28-.31-1.97-2.75-1.83-6.06-2.31-9.16-.73-4.71-2.22-9.31-2.04-14.15,4.37-3.32,8.7-6.74,14.62-6.68,2.67.02,5.34.05,8.01.07,4.07,1.22,8.32-.33,12.39.86,1.48.02,2.96.05,4.43.07Z"/>
        <path class="cls-47" d="M194.03,236.67c3.62.27,8.19-1.53,10.62.78,2.47,2.34.56,6.96.89,10.56.12,1.28-.32,2.67.82,3.72,2.43,4.08,1.67,8.18.1,12.29-.02.34-.04.68-.06,1.01-2.31,1.18-4.63,1.84-6.95,0-2.39.12-3.75-.5-3.74-3.41,0-3.03-1.08-6.02-.83-9.12-1.99-5.19-3.45-10.41-.86-15.85Z"/>
        <path class="cls-111" d="M206.47,264.03c-.03-4.1-.07-8.19-.1-12.29.01-3.92.27-7.87-.03-11.77-.28-3.7,1.28-4.69,4.56-4.08.02.88-.24,1.4-1.24.93.35.61.87.21,1.31.2,2.08-.05,3.94.87,5.89,1.34,5.24,1.29,5.23,1.32,7.14-3.31,1.66,3.19,1.92,5.92-1.52,8.42-1.71,1.25-4.37,1.93-4.6,4.75q-4.91-.2-4.37,4.45c-2.7,3.57-3.69,8.2-7.06,11.36Z"/>
        <path class="cls-26" d="M214.34,295.98c-.94-.17-1.99,0-2.66-.93,6.74-1.23,13.56-.72,20.35-.96,6.86.41,14.03-1.5,20.38,2.74-.59,2.74-2.95,1.72-4.62,2.18-4.05-.03-8.1.22-12.14-.22-5.58-.9-11.26-.67-16.85-1.52-1.55-.23-3.22.01-4.46-1.29Z"/>
        <path class="cls-70" d="M194.03,236.67c-.41,5.32.72,10.56.86,15.85-.89-.28-1.78-.56-2.67-.85-1.02-2.27-2.12-4.45-5.17-4.27-.83-1.6-2.08-2.79-3.64-3.66,0-.31,0-.63.01-.94,2.41-3.27,6-4.67,9.61-6.03.33-.03.66-.06.99-.09Z"/>
        <path class="cls-32" d="M205.17,280.69c-2.94-.22-5.42,1.35-8.11,1.95-.94.21-2.28,1.63-2.94-.24-.61-1.74.85-2.1,2.12-2.65,4.41-1.93,8.84-2.82,13.56-1.12,1.78.64,3.69.91,5.53,1.38.91.23,2.39.11,1.96,1.63-.36,1.26-1.61.92-2.63.73-3.16-.57-6.32-1.11-9.49-1.67Z"/>
        <path class="cls-67" d="M224,235.05c.06,1.16.12,2.32.17,3.47.09,2.19-.78,2.77-2.95,2.12-4.01-1.22-8.09-2.19-12.17-3.27.1-1.12,1.51-.65,1.84-1.49,4.37-.28,8.73-.56,13.1-.84Z"/>
        <path class="cls-37" d="M214.52,262.29c.29-3.21,2.47-5.52,3.91-8.33.6,3.48,4.71,6.06,2.2,10.12-2.74,1.8-4.3-.41-6.11-1.79Z"/>
        <path class="cls-104" d="M193.03,236.77c-2.88,2.53-6.28,4.24-9.61,6.03-.5-2-1.05-3.99-.77-6.09,3.46.02,6.92.04,10.39.06Z"/>
        <path class="cls-106" d="M213.52,252.67c-1.89-1.47-2.56-3.21-.78-5.15,1.96-2.14,3.6-.77,5.15.7.57,3.47-1.1,4.74-4.37,4.45Z"/>
        <path class="cls-44" d="M199.46,265.05c2.32,0,4.63,0,6.95,0-.24.37-.43.78-.71,1.1q-4.25,4.86-9.33.17c1.07-.44,2.08-.85,3.09-1.27Z"/>
        <path class="cls-63" d="M187.05,247.4c4.51-1.72,5.54-.87,5.17,4.27-1.57,1.07-3.19,1.62-4.82.18-1.52-1.34-1-2.91-.34-4.45Z"/>
        <path class="cls-92" d="M214.52,262.29c2.13.26,3.78,2.19,6.11,1.79-.67,1.23-1.16,3.44-2.48,3.12-2.14-.52-2.79-2.97-3.63-4.91Z"/>
        <path class="cls-5" d="M204.67,295.03c-4.12-.4-8.37.96-12.39-.86,4.12.38,8.37-.96,12.39.86Z"/>
        <path class="cls-60" d="M232.98,209.27c1.5.14,3.16-.57,4.4.86-1.48-.2-3.16.59-4.4-.86Z"/>
        <path class="cls-41" d="M132.26,214.55c.26.56.53,1.13.79,1.69,2.61,6.95,3.97,14.17,4.63,21.54-.42,4.69-3.93,8.39-4.19,13.12,3.19,6.95,8.25,12.71,12.21,19.17.1.43.02.82-.28,1.16l.09.04c-.59.31-.7.93-.97,1.45-4.9,7.51-10.67,14.37-15.91,21.62-1.29,1.78-2.8,3.4-3.67,5.46-4.37,4.87-10.36,7.5-15.51,11.31-.73.13-1.22-.07-1.23-.92-2.63-3.5-5.26-7-7.89-10.5,5-3.08,8.95-7.43,13.48-11.08,4.86-3.91,9.47-8.14,14.5-12.5-1.8-.92-3.77-.32-5.08-1.53.98-10.9,3.25-21.6,4.85-32.41,1.37-9.22,2.79-18.43,4.19-27.64Z"/>
        <path class="cls-88" d="M121.53,210.13c1.51.67,3.01,1.09.98,3.13-1.96,1.97-4.76,3.33-5.37,6.44-2.61.38-4.46,1.71-5.27,4.3-1.45,3.74-4.07,6.75-6.27,10.01-.97.21-1.33-.45-1.65-1.16.24-6.93,1.46-13.66,4.36-20.02,2.07-2.11,1.09-6.55,5.34-7,2.21,2.21,5.67,2.09,7.89,4.29Z"/>
        <path class="cls-81" d="M92.4,214.71c-.99-3.08-3.88-5.4-3.56-9,3.76-1.65,7.61-2.03,11.58-.87,2.36,2.27,1.44,5.24,1.7,7.95.94,5.07.19,9.82-2.72,14.15-1.47-2.06-2.93-4.12-4.4-6.19.18-2.47.14-4.84-2.6-6.05Z"/>
        <path class="cls-112" d="M99.4,226.94c.91-4.72,1.81-9.43,2.72-14.15,2.08-1.92,4.14-1.16,6.19.05-1.21,6.75-2.42,13.51-3.63,20.26-.57,1.12-.02,2.5-.83,3.56-.3.31-.61.61-.91.92-1.79,1.13-3.21.59-4.41-.98-.86-3.32.65-6.43.87-9.66Z"/>
        <path class="cls-33" d="M106.5,186.22c1.12,1.43,2.23,2.86,3.35,4.29-9.09,1.81-18.19,3.62-27.28,5.43,7.15-4.08,14.36-8.04,22.16-10.77.59.35,1.18.7,1.77,1.06Z"/>
        <path class="cls-14" d="M115.56,253.64c-5.81,2.68-11.63,5.32-17.42,8.05-1.27.6-2.26.54-3.03-.62-3.14-4.71-7.34-8.64-9.97-13.71,2.35-1.13,3.68.61,5.19,1.84q5.32,7.22,18.53,4.85c-1.02.06-2.07.5-3.05.06-1.02-.46-1.99-1.02-.54-2.16,2.37-.99,4.69-.27,7.02.2,1.11.46,2.46.36,3.26,1.48Z"/>
        <path class="cls-53" d="M112.66,252.64c-2.71.03-5.41.06-8.12.1-5.64,2.73-10.3.25-14.86-2.78-1.37-1.12-2.53-2.59-4.53-2.6.14-2.08,1.69-.87,2.48-.92,9.09-.51,17.5,2.35,25.89,5.33.2.77.04,1.18-.86.86Z"/>
        <path class="cls-78" d="M111.87,224.01c-.16-5.01.75-5.75,5.27-4.3.86,1.49,1.38,2.95-.07,4.41-1.78,1.79-3.48.85-5.19-.11Z"/>
        <path class="cls-120" d="M100.41,204.84c-3.82.76-7.68,1.11-11.58.87.15-.24.25-.54.46-.72q5.29-4.79,11.12-.15Z"/>
        <path class="cls-73" d="M92.4,214.71c4.69.94,5.24,2.21,2.6,6.05-1.83.41-3.55.33-4.39-1.65-.83-1.96.36-3.27,1.79-4.4Z"/>
        <path class="cls-120" d="M121.53,210.13c-2.88.05-5.16-1.71-7.74-2.57-1.07-.35-.47-1.11-.15-1.72,4-1.09,6.88-.13,7.89,4.29Z"/>
        <path class="cls-13" d="M76.29,240.97c-3.96-3.26-3.93-3.55.92-7.78-.31,2.59-.61,5.19-.92,7.78Z"/>
        <path class="cls-89" d="M98.52,236.6c1.47.33,2.94.65,4.41.98-.61,1.35-1.64,2.29-3.09,3.11-.61-1.36-2.18-2.27-1.32-4.09Z"/>
        <path class="cls-102" d="M112.66,252.64c.29-.29.57-.57.86-.86,1.18-.06,2.17.36,2.99,1.19-.31.22-.62.45-.94.67-1-.24-2.18.05-2.91-1Z"/>
        <path class="cls-96" d="M103.84,236.66c.05-1.24-.36-2.59.83-3.56.31.31.61.61.92.92-.58.88-1.17,1.76-1.75,2.64Z"/>
        <path class="cls-65" d="M134.64,441.84c.08-.6.17-1.19.25-1.79,3.48.84,2.97,4.8,5.79,7.13,1.64-8.9,7.24-11.54,15.38-9.75,3.7,1.87,7.66.36,11.47.89.03,3.83-.05,7.66.14,11.48.13,2.59-.65,3.62-3.43,3.66-8.82.12-17.66-.56-26.45.63-2.22.3-3.23-.64-3.14-2.99.13-3.08,0-6.18,0-9.26Z"/>
        <path class="cls-15" d="M229.43,441.87c3.85-2.96,7.71-5.92,11.56-8.87.79-.71,1.69-.53,2.41-.04,6.38,4.26,13.21,7.89,18.69,13.4.05.27.07.54.06.82-.8.91-1.87,1.14-3,1.2-5.18.11-10.37-.07-15.55.12-5.15-.32-10.2,1.11-15.33.85-1.85-.09-4.29.66-5.07-2.16,2.07-1.77,4.15-3.54,6.22-5.32Z"/>
        <path class="cls-58" d="M306.32,448.1c1.46-.28,3.11.51,4.41-.75,2.82,1.14,2.34,3.65,1.84,5.63-.54,2.13-2.75,1.09-4.19,1.06-10.11-.19-20.21-.52-30.32-.8-3.9-.7-7.83-.2-11.74-.32-4.5-.14-5.13-1.19-3.25-5.69.62-.23,1.25-.46,1.87-.69.26.22.53.44.79.66,5.56.73,11.13.68,16.69.03,3.38-.68,6.43,2.4,9.88.88,4.67.66,9.35.68,14.02,0Z"/>
        <path class="cls-43" d="M263.07,447.23c-.84,4.26.98,5.55,5.16,5.34,3.24-.16,6.65-.91,9.83.67-17.82.05-35.65.11-53.47.13-1.07,0-2.67.5-2.87-1.18-.22-1.79-.87-3.91,1.49-5.01,3.42,1.72,7.09,1.06,10.54.57,3.33-.47,6.59-.52,9.9-.49,5.26.59,10.52.61,15.78,0,.91-.03,1.82-.06,2.73-.09.31.02.61.04.92.06Z"/>
        <path class="cls-75" d="M102.94,445.38c1.77-1.31,3.54-1.31,5.31,0-1.77,0-3.54,0-5.31,0Z"/>
        <path class="cls-25" d="M393.97,46.01c9.7-3.04,15.98,3.47,23.16,7.93,5.64,3.5,9.66,7.32,9.51,14.7-.12,5.68,1.05,11.38,1.67,17.07.12,1.09-.19,2.01-.79,2.91-.57.86-1.22,1.73-1.51,2.69-3.53,11.36-12.27,16.52-22.98,19.24-4.93,1.26-9.94-.04-14.87.1-8.81.26-14.14-5.82-19.4-10.82-3.92-3.72-4.85-10.31-5.58-15.94-1.1-8.44-1.1-16.82,3.75-24.63,1.65-2.67,3.65-4.48,5.96-6.22,6.25-4.7,12.35-9.87,21.09-7.04Z"/>
        <path class="cls-24" d="M262.1,446.35c-5.89-3.02-10.91-7.37-16.54-10.79-1.49-.9-2.73-2.27-4.56-2.56.15-1.73-.88-3.06-1.57-4.49-9.36-19.39-18.74-38.76-28.09-58.15-.57-1.17-.95-2.43-1.42-3.65,1.26-.67,2.32-.04,3.25.66,13.64,10.19,27.81,19.67,41.1,30.34.46,8.03,2.76,15.76,3.83,23.68,1.12,8.36,4.15,16.41,4.01,24.97Z"/>
        <path class="cls-55" d="M254.26,397.7c-6.77-2.67-11.73-8.02-17.63-11.99-9.06-6.1-17.83-12.65-26.72-19.01-.19-.31-.38-.63-.57-.94,1.63-1.53,3.56-.94,5.45-.81,17.62,1.2,35.2,2.9,52.83,3.98,4.99.31,9.95,1.3,14.96.38.27.59.54,1.19.81,1.78,1.59,3.66,2.22,7.46,1.66,11.43-1.86-.12-3.34.9-4.88,1.7-8.64,4.49-17.28,8.99-25.92,13.49Z"/>
        <path class="cls-59" d="M287.83,371.3c7.64-.36,15.28-.73,22.91-1.09-1.12,6.5-2.24,13.01-3.36,19.51-4.52-.95-9.04-1.86-13.61-2.51-1.61-.23-3.07-.78-4.26-1.93-.28-.24-.55-.49-.83-.73-1.62-4.33-3.39-8.65-.85-13.25Z"/>
        <path class="cls-77" d="M289.51,385.27c5.11.87,10.22,1.79,15.35,2.59,1.25.2,2.27.42,2.52,1.85.46,5.89-4.21,6.52-8.12,7.93q-6.2.97-7.91-5.2c-.65-2.38-1.23-4.78-1.84-7.17Z"/>
        <path class="cls-116" d="M287.83,371.3c-.61,4.47,1.35,8.78.85,13.25-1.21-.68-2.42-1.35-3.62-2.03-1.48-3.67-1.95-7.5-1.66-11.43,1.48.07,2.96.14,4.44.21Z"/>
        <path class="cls-40" d="M111.86,395.11c-.31.26-.61.51-.92.77-3.32-8.89-6.73-17.75-9.32-26.89-.2-.72-.03-1.46.18-2.17-1.27-3.69-2.28-7.49-3.88-11.02-1.58-3.48-1.35-5.95,2.38-7.55.61-.87,1.35-1.57,2.32-2.03,3.96-1.79,7.66-4.07,11.44-6.21,6.77-3.03,13.02-7.02,19.65-10.31,4.66-1.67,8.2-5.79,13.45-6.18.45.08.85.27,1.21.54,4.53,7.15,6.74,15.34,10.31,22.92,2.32,4.93,4.15,10.08,6.42,15.03-.52,3.1-3.64,3.35-5.51,4.98-1.29,1.12-2.82,2-4.26,2.94-13.18,7.45-26.1,15.33-39.21,22.91-1.4.81-2.77,1.66-4.27,2.26Z"/>
        <path class="cls-4" d="M101.81,366.83c2.84,8.11,5.65,16.24,8.56,24.33.57,1.57.65,3.12.58,4.72-3.31,7.34-6.61,14.69-9.92,22.03-2.28-.32-4.57-.64-6.85-.96-1.52-1.75-1.34-3.79-1-5.85,1.99-12.3,3.83-24.63,5.7-36.96.36-2.36,1.06-4.56,2.29-6.59.21-.25.43-.49.64-.74Z"/>
        <path class="cls-4" d="M87.89,415.3c-2.43.4-4.66-.68-7-.98-.02-13.52-.05-27.05-.07-40.57,3.24,1.5,6.47,3,9.71,4.49,1.46,1.37,1.46,3.22,1.29,4.94-1,9.78-1.54,19.61-2.71,29.38-.12,1.03-.38,2.03-1.22,2.75Z"/>
        <path class="cls-18" d="M87.89,415.3c.41-9.9,1.32-19.76,2.52-29.59.3-2.46.09-4.98.12-7.47,4.32-2.78,6.29-7.91,10.64-10.66-1.64,10.67-3.46,21.32-4.85,32.03-.75,5.78-2.61,11.44-2.14,17.36-1.91-1.25-4.5.04-6.29-1.67Z"/>
        <path class="cls-90" d="M134.07,330.53c-6.54,3.48-13.08,6.97-19.63,10.45-3.76-5.97-5.72-12.67-7.92-19.28,0-.37,0-.73-.01-1.1,2.69-2.08,5.12-4.61,8.76-5.03,3.85,1.66,6.62,4.74,9.72,7.4,2.99,2.56,6.2,4.86,9.08,7.55Z"/>
        <path class="cls-18" d="M106.52,321.7c3.62,6.02,5.97,12.57,7.92,19.28-3.85,2.05-7.69,4.1-11.54,6.15-.94-.44-1.8.23-2.71.17-1.67-1.77-.02-3.37.41-4.9,1.93-6.91,4.7-13.59,5.92-20.71Z"/>
        <path class="cls-19" d="M87.91,311.92c4.75-.27,9.49-.54,14.24-.81.19.29.15.53-.13.74-8.33,3.27-15.33,8.88-23.14,13.07-.77.41-1.39,1.08-2.36.95.22-.83.45-1.65.65-2.48,1.41-5.85,2.66-11.85,10.73-11.47Z"/>
        <path class="cls-34" d="M102.02,311.86c.06-.24.1-.49.13-.74,2.02-.3,4.05-.6,6.07-.91.32.12.64.24.96.35,3.37-.62,6.26.42,8.81,2.59.57,2.37-1.34,2.46-2.76,3-3.25.82-5.15,4.26-8.72,4.45-1.5-2.92-2.99-5.83-4.49-8.75Z"/>
        <path class="cls-2" d="M100.19,347.31c.83-1.15,1.73-1.31,2.71-.17-.86.37-1.73.75-2.59,1.12-.04-.32-.08-.63-.12-.95Z"/>
        <path class="cls-76" d="M267.5,289.14c-1.85-4.88-5.99-8.1-8.91-12.21-4.22-5.92-9.51-11.01-13.25-17.3,5.59-.84,10.39,1.08,14.85,4.22,1.78,2.62,2.36,5.93,4.78,8.17,4.7,2.13,9.4,4.27,14.1,6.4-.05.42-.1.85-.15,1.27-3.01,4.11-6.14,8.08-11.42,9.45Z"/>
        <path class="cls-36" d="M260.19,263.85c-4.95-1.41-9.9-2.82-14.85-4.22-.27-.29-.54-.57-.82-.86.43-6.03,3.7-10.97,6.22-16.19.48-1,1.57-1.28,2.68-.73,3.27,1.21,6.51,2.54,9.83,3.59,2.28.72,2.44,1.8,1.68,3.9-1.74,4.78-3.18,9.67-4.74,14.51Z"/>
        <path class="cls-9" d="M253.43,241.85c-4.2,2.08-3.72,6.89-5.89,10.18-1.34,2.02-2.03,4.48-3,6.74-.15-.01-.3,0-.44-.04-6.06-2.09-6.02-2.07-3.28-7.71,2.17-4.47,4.23-8.99,6.33-13.49,2.09,1.44,4.19,2.88,6.28,4.33Z"/>
        <path class="cls-28" d="M82.61,425.02c4.2.03,8.4.12,12.35,1.84-.03,1.75-.06,3.51-.1,5.26-4.5-1.65-8.81-3.62-12.25-7.1Z"/>
        <path class="cls-97" d="M282.42,447.23c-5.57,1.35-11.13,1.41-16.69-.03,5.56.01,11.13.02,16.69.03Z"/>
        <path class="cls-39" d="M306.32,448.1c-4.67,1.35-9.35,1.35-14.02,0,4.67,0,9.35,0,14.02,0Z"/>
        <path class="cls-42" d="M449.71,234.19c5.85-.21,5.82-.12,6.13,5.63.49,9.21.93,18.42,1.83,27.59.44,4.46-.93,5.78-5.08,4.62-.98-.27-1.95-.56-2.92-.85-5.72-2.66-8.03-7.43-8.25-13.45-.15-3.96-.06-7.93-.06-11.89,0-8.26.49-8.93,8.35-11.65Z"/>
        <path class="cls-11" d="M442.03,194.08c-13.79-.91-26.38-1.82-38.98-2.51-2.84-.15-3.06-1.62-2.87-3.73.19-2.2-.7-5.17,3.13-5.02,3.37.13,6.73.54,10.09.7,9.25.43,18.51.14,27.78.6,5.83.28,4.88,3.15,5.04,6.69.21,4.68-3.05,3.16-4.19,3.28Z"/>
        <path class="cls-11" d="M445.3,202.34c-.06,6.59-.15,6.48-6.35,5.62-5.22-.72-10.52-.97-15.78-1.31-6.3-.41-12.61-.68-18.92-1.02-3.04-.17-5.22-.76-5.05-4.83.17-4.1,2.5-4.13,5.29-3.84,11.89,1.25,23.82.73,35.73.78,3.86.01,6.1.7,5.08,4.6Z"/>
        <path class="cls-11" d="M409.32,212.82c10.84,1.06,21.72.86,32.59.83,2.89,0,3.54,1.13,3.14,3.74-.94,6.2-.89,6.4-7.27,6.01-12.14-.75-24.26-1.72-36.39-2.63-1.18-.09-3.27.29-2.43-1.86.79-2.03-1.57-5.54,2.43-6.04,2.61-.32,5.29-.06,7.94-.06Z"/>
        <path class="cls-11" d="M449.71,234.19c-7.35,2.99-7.9,9.04-7.11,15.73.15,1.3.14,2.64,0,3.95-.73,7.05,1.8,12.74,7.07,17.33-3.09,0-6.13-.23-9.21-.64-2.87-.38-3.19-1.69-3.17-4.05.07-9.58.09-19.15-.05-28.73-.04-2.75.59-4.15,3.66-3.86,2.93.27,5.88.2,8.83.28Z"/>
        <path class="cls-42" d="M447.75,389.77c.32,10.94.68,21.87.94,32.81.12,5.16.04,5.16-5.2,4.29-.58-.1-1.16-.14-1.74-.21-5.85-2.79-9.04-7.06-8.44-13.9.43-4.94-.18-9.93.71-14.89,1.12-6.28,3.59-8.59,9.92-8.58,1.27,0,2.64-.45,3.81.49Z"/>
        <path class="cls-11" d="M398.74,342.12c12.13.87,24.25,1.77,36.38,2.59,4.78.32,4.01,3.63,3.77,6.68-.27,3.53-2.01,3.95-5.37,3.42-11.7-1.87-23.45-3.53-35.23-4.72-3.82-.39-4.49-1.67-4.41-5.08.09-4.03,2.7-2.94,4.86-2.89Z"/>
        <path class="cls-11" d="M435.28,341.11c-12.65-1.56-24.83-3.12-37.03-4.53-4.37-.5-3.35-3.58-3.38-6.24-.04-3.52,2.23-1.99,3.97-1.85,12.11.96,24.21,2.19,36.34,2.66,4.49.18,5.07,1.9,4.74,5.54-.29,3.29-.65,6.11-4.63,4.42Z"/>
        <path class="cls-11" d="M438.12,365.24c1.01,4.64-1.32,5.48-5.15,4.93-12.33-1.78-24.66-3.64-37.03-5.12-3.68-.44-2.68-2.69-2.79-4.71-.13-2.42.97-3.55,3.45-3.32,13.15,1.18,26.3,2.32,39.45,3.52,3.5.32,1.57,3.15,2.06,4.71Z"/>
        <path class="cls-11" d="M447.75,389.77c-2.45.13-4.81-.21-7.34.66-6.02,2.06-4.8,7.31-5.67,11.61-.38,1.84.14,3.84-.12,5.72-1.06,7.63.58,14.18,7.14,18.9-1.44-.21-2.87-.45-4.32-.64-9.41-1.2-9.73-1.23-8.79-10.67.71-7.04.65-14.06.69-21.1.02-3.95,1.01-6.29,5.54-5.51,4.25.74,8.72-1.15,12.86,1.02Z"/>
        <path class="cls-11" d="M347.95,185.34c-.06,5.67-.06,5.65-5.66,5.25-12.4-.87-24.8-1.83-37.22-2.5-3.03-.16-3.22-1.6-3.15-3.92.07-2.34-.06-4.26,3.35-4.21,13.07.18,26.14.25,39.21.07,4.6-.06,3.32,2.9,3.47,5.31Z"/>
        <path class="cls-11" d="M313.89,210.07c9.67,0,19.34.14,29.01-.06,4.26-.09,3.33,2.68,3.31,5.02-.02,2.35.82,5.16-3.44,4.89-12.57-.78-25.15-1.29-37.73-2.01-3.17-.18-5.63-1.07-4.88-5.31.42-2.35,1.19-3.39,3.59-3.32,3.37.1,6.75.02,10.13.02,0,.26,0,.51,0,.77Z"/>
        <path class="cls-11" d="M324.01,194.21c6.61,0,13.22.15,19.83-.06,3.44-.11,3.56,1.88,3.18,4.2-.35,2.19,1.67,5.87-3.1,5.65-13.46-.62-26.92-1.29-40.39-1.89-3.47-.15-2.27-2.69-2.45-4.52-.22-2.24.39-3.58,3.1-3.53,6.61.14,13.22.04,19.83.04v.09Z"/>
        <path class="cls-42" d="M350.6,230.45c4.27-.88,5.61.83,5.29,5.12-.55,7.41-.67,14.85-.84,22.28-.14,6.11-.26,6.27-6.2,4.44-5.02-2.4-7.47-5.89-6.71-11.9.56-4.47,1.11-9.02,1.2-13.58.1-4.58,3.97-5.22,7.26-6.36Z"/>
        <path class="cls-11" d="M350.6,230.45c-8.13,2.86-5.75,10.33-7,16.15-.54,2.54.27,5.25-.53,7.85-.62,2,1.3,2.74,2.27,3.91,1.12,1.35,2.33,2.62,3.5,3.92-2.89-.3-5.79-.65-8.68-.89-1.81-.15-2.1-1.32-2-2.76.61-9.02,1.26-18.03,1.85-27.05.12-1.88,1.37-2.05,2.76-1.93,2.61.22,5.21.53,7.82.8Z"/>
        <path class="cls-11" d="M311.86,325.19c-.04-2.65-.61-5.33.64-7.87,6.87.52,13.74,1.09,20.62,1.54,2.79.18,5.6.03,8.4.15,6.23.26,7.65,2.49,5.54,8.28-.66,1.81-2.06,1.47-3.27,1.35-6.72-.63-13.43-1.34-20.13-2.06-3.93-.42-7.85-.92-11.78-1.38Z"/>
        <path class="cls-11" d="M311.75,338.32c.02-2.64.04-5.29.06-7.93,10.81.61,21.62,1.28,32.44,1.77,2.5.11,3.01,1.26,2.65,3.36-.2,1.15-.61,2.31-.58,3.45.06,2.78-1.23,2.9-3.62,2.61-10.3-1.23-20.63-2.2-30.95-3.26Z"/>
        <path class="cls-11" d="M311.66,352.55c.02-2.64.03-5.28.05-7.91,10.07.58,20.14,1.53,30.21,1.61,6.11.04,3.93,3.97,4.16,6.86.32,4.08-2.73,3.02-4.84,2.8-9.87-1.04-19.72-2.22-29.58-3.35Z"/>
        <path class="cls-42" d="M346.25,372.8c3.36-.48,4.63.76,4.43,4.32-.35,6.28-.22,12.58-.26,18.88-.02,3.71-1.52,5.11-5.11,3.36-5.38-2.54-7.55-6.55-5.97-12.48.64-2.41.17-4.95.38-7.42.36-4.32,1.99-5.95,6.52-6.66Z"/>
        <path class="cls-11" d="M346.25,372.8c-3.96,1.64-6.12,4.34-5.39,8.86.18,1.14.33,2.45-.04,3.49-2.15,5.94.04,10.41,4.5,14.2-9.13-1.31-9.19-1.31-8.86-10.06.18-4.99.65-9.97.91-14.95.1-1.96.57-3.14,2.9-2.5,1.95.53,4.16-.42,5.99.96Z"/>
        <path class="cls-46" d="M282.59,369.31c-2.42,3.86-6.18,1.72-9.12,1.58-9.31-.43-18.59-1.63-27.89-2.39-12.07-.99-24.16-1.84-36.24-2.75.19-4.39.38-8.78.56-13.16,2.02-1.73.51-3.89.64-5.83.79-11.55.99-23.16,2.28-34.66.6-5.37-.27-10.88,1.51-16.12,7.13-.21,14.19.62,21.23,1.65,1.76,2.27.16,4.47-.16,6.69-.31,2.16-.92,4.28-1.12,6.46,2.68,5.13,8.03,7.34,12.08,10.98.53.48,1.26.73,1.83,1.18,8.7,7.56,6.19,7.15,15.25-.17,4.55-3.24,8.13-7.59,12.64-10.87,1.14-.83,1.96-2.28,3.71-1.91.84.56.9,1.44.93,2.33.29,7.45.63,14.89.86,22.34.37,11.55.67,23.1.99,34.66Z"/>
        <path class="cls-85" d="M267.5,289.14c3.81-3.15,7.61-6.3,11.42-9.45,1.79,5.9.52,11.97.94,17.94.12,1.76.09,3.53.12,5.3.41.83.3,1.72.28,2.59-.07,3.54-.99,4.3-4.27,2.89-4.18-1.78-8.46-3.37-12.34-5.78-2.15-.73-4.54-1.05-5.81-3.32.7-3.36,4.1-4.24,6.01-6.49,1.12-1.31,2.42-2.47,3.65-3.69Z"/>
        <path class="cls-10" d="M263.65,301.47c3.42,1.59,6.86,3.16,10.27,4.78q5.69,2.7,6.07-3.32c1.06,2.38,1.18,4.73-.19,7.05-5.36,4.2-9.89,9.38-15.62,13.15-3.96-2.83-5.61-7.43-8.5-11.08-.09-.41-.08-.82.05-1.23,2.34-3.37,5.71-5.87,7.92-9.35Z"/>
        <path class="cls-50" d="M257.76,105.7q-10.97,8.67-23.8,2.81c-1.66-.76-3.31-1.98-5.32-.91-3.53.99-6.78,3.78-10.8,1.72,2.11-2.24,4.26-4.45,6.33-6.74,1.28-1.42,2.5-1.9,4.59-1.44,4.27.94,8.66,1.3,13,1.91.89-.67,1.75-.6,2.6.07,4.46.86,8.93,1.72,13.39,2.58Z"/>
        <path class="cls-87" d="M217.84,109.32c3.78.55,6.94-2.77,10.8-1.72-1.52,3.51-3.04,7.02-4.56,10.53-6.55-.95-13.1-1.87-19.64-2.9-.56-.09-1-.94-1.49-1.44-.17-2.87-2.83-3.73-4.41-5.46-1.53-1.44-.42-2.92-.08-4.39,3.3-.84,4.64,2.12,6.57,3.62,4.04,3.15,7.99,5.07,12.81,1.76Z"/>
        <path class="cls-29" d="M241.71,94.35c-1.71.12-3.5-.06-5.11.41-3.58,1.05-3.63-.53-2.67-3.15.24-2.55,1.54-4.19,4.19-3.81,3.61.52,7.54-2.04,10.86,1.12,1.55.98,3.31,1.67,4.48,3.19-3.05,2.2-6.88.3-9.93,2.12-.58.56-1.19.56-1.82.11Z"/>
        <path class="cls-54" d="M235.51,84.62c-1.3-.17-1.86-.67-.97-1.96.97-1.41,1.87-2.86,2.81-4.29,2.95-1.75,5.9-3.5,8.87-.03l3.55,5.34c-.09,1.77-1.72,2.12-2.76,2.17-3.87.21-7.85.78-11.5-1.23Z"/>
        <path class="cls-113" d="M235.51,84.62c4.71-.98,9.67,1.83,14.26-.94-.51,1.71,1.9,3.86-.79,5.24-4.16.03-8.32.09-12.48.08-1.82,0-1.54,1.92-2.57,2.61-2.6-3.04.28-4.84,1.58-6.99Z"/>
        <path class="cls-125" d="M246.22,78.33c-2.96-2.1-5.91.4-8.87.03-2.55-1.8.05-3.18.61-4.41,2.5-5.5,2.6-5.42,6.75-1.14,1.54,1.6,3.34,3.03,1.51,5.51Z"/>
        <path class="cls-12" d="M198.46,103.93c1.62,1.44-.62,2.94.08,4.39-3.87.02-7.74.04-11.61.06.31-.29.62-.58.93-.88.97-1.01,2.02-1.88,3.56-1.72,2.53.06,4.63-1.46,7.04-1.86Z"/>
        <path class="cls-64" d="M191.43,105.79c-.93,1.1-2.16,1.59-3.56,1.72.02-2.36.04-4.71.07-7.07,1.17.04,2.34.08,3.51.13,0,1.74-.01,3.48-.02,5.23Z"/>
        <path class="cls-48" d="M241.71,94.35c.61-.04,1.22-.08,1.82-.11.29,2.96-.48,6.02.83,8.88-.87-.02-1.73-.05-2.6-.07-.02-2.9-.04-5.8-.06-8.7Z"/>
        <path class="cls-51" d="M136.61,238.29c-1.19-7.35-2.37-14.7-3.55-22.04.28.02.56.06.83.12,2.11,4.75,4.22,9.5,6.34,14.25.14,3.19-.03,6.24-3.61,7.68Z"/>
        <path class="cls-124" d="M233.05,311.8c.84-4.72,1.68-9.44,2.51-14.16,4.04.06,8.08.11,12.12.17,2.68,1.04,5.63-.55,8.27.83.04.25.04.49-.01.74-1.03,2.71-4.04,2.78-5.87,4.42-4.05,2.24-8.07,4.55-12.15,6.73-1.49.79-2.97,1.94-4.87,1.26Z"/>
        <path class="cls-103" d="M249.79,303.01c2.05-1.21,4.1-2.42,6.15-3.63.63-.02,1.27-.04,1.9-.06,1.93.72,3.87,1.44,5.8,2.16-.84,4.58-4.43,6.96-7.71,9.59-3.12-1.86-5.37-4.39-6.15-8.05Z"/>
        <path class="cls-3" d="M255.95,298.63c-2.77-.19-5.59.21-8.27-.83,1.55-.45,3.39.52,4.72-.98,1.1.77,2.7.54,3.55,1.81Z"/>
        <path class="cls-109" d="M136.61,238.29c1.98-2.19,2.42-5.12,3.61-7.68,1.67,2.03,2.8,4.32,3.38,6.88.27,2.58-1.24,4.67-1.93,6.99-2.39,3.98,1.6,3.55,3.27,4.71,2.28,1.34,4.79,2.34,6.66,4.32,1.54,2.86,4.38,5.2,3.55,9-1.92,1.02-3.35-.43-4.96-.98-6.01-3.32-12.59-5.6-18.07-9.89,0-4.95,3.67-8.66,4.49-13.34Z"/>
        <path class="cls-94" d="M150.77,260.62c1.46.63,2.92,1.25,4.38,1.88,4.6,3.58,5.6,9.32,8.32,14.02,1.23,2.12,3.01,4.25,2.18,7.08-6.74-4.12-13.49-8.24-20.23-12.36-.06-.31-.13-.62-.19-.93.15-4.2,2.7-7.03,5.54-9.7Z"/>
        <path class="cls-20" d="M140.94,244.6c.07-2.67,1.47-4.85,2.65-7.11,3.23,5.06,5.91,10.39,8,16.02-2.65-.57-4.85-2.02-6.97-3.61-1.61-1.5-3.61-2.73-3.69-5.29Z"/>
        <path class="cls-17" d="M167.46,360.68c7.33-10.46,14.66-20.92,21.99-31.38,4.73,7.33,11.89,12.52,17.13,19.4,1.05,1.38,2.82,2.18,3.27,4.04-8.08,6.96-16.15,13.92-24.24,20.86-1.21,1.04-2.55,1.95-3.82,2.91-2.27.51-2.95-1.41-4-2.68-1.4-1.7-2.99-3.2-4.53-4.75-2.19-2.62-5.22-4.66-5.8-8.4Z"/>
        <path class="cls-79" d="M174.57,324.22c-8.85.43-17.68-.23-26.51-.7-1.84-2.01-1.99-4.6-2.06-7.04-.14-5.01-.53-9.99-1.04-14.96.11-2.61.22-5.23-.13-7.83-.18-2.43-2.06-5.26,1.58-6.8,7.9,4.57,15.79,9.15,23.69,13.72,1.49,7.87,2.98,15.75,4.47,23.62Z"/>
        <path class="cls-8" d="M146.42,286.88c-1.96,2.08-.82,4.3-.31,6.49-.38,2.61-.61,5.22.11,7.82.61,7.44,1.23,14.88,1.84,22.32.03.21,0,.42-.06.61-.34-.04-.67-.09-1.01-.13-9.54-1.86-18.46-5.67-27.62-8.75-.71-.24-1.16-.87-1.56-1.5-2.88-1.06-5.76-2.12-8.64-3.19,3.78-3.69,8.62-5.89,12.76-9.06.8-.61,1.79-.98,2.22-1.99,4.71-4.49,10.38-7.7,15.62-11.47,2.54-1.83,3.68-3.92,3.62-7.01-.06-3.04-.61-6.2,1.13-9.04.33-.24.65-.47.98-.71.33,5.2-1.04,10.49.91,15.59Z"/>
        <path class="cls-61" d="M144.53,271.99c2.28,10.35-1.5,17.55-11.13,21.92-3.28,1.49-5.53,4.77-9.25,5.6,3.85-7.33,9.61-13.29,14.33-20,1.84-2.62,3.49-5.45,6.04-7.52Z"/>
        <path class="cls-72" d="M150.77,260.62c-1.85,3.23-3.69,6.47-5.54,9.7-5.29-5.59-8.68-12.5-13.11-18.69,6.52,2.37,12.46,5.94,18.65,8.99Z"/>
        <path class="cls-52" d="M89.67,249.96c4.99.75,9.49,4.08,14.86,2.78,1.84.29,3.68.57,5.53.87-8,5.37-15.37,5.66-20.39-3.64Z"/>
        <path class="cls-80" d="M111.86,395.11c3.6-4.28,8.87-6.03,13.46-8.8,9.03-5.45,18.15-10.77,27.26-16.1.74-.43,1.64-.58,2.47-.86,2.76,1.82,3.42,4.55,3.34,7.61-2.81,3.57-7.07,5.07-10.78,7.3-6.02,3.62-12.07,7.19-18.1,10.8,8.44-5.21,17.15-9.97,25.6-15.17,1.13-.69,2.26-1.36,3.64-1.38,2.6.64,3.7-.48,4.15-3.03.85-4.77,1.98-5.58,7.01-5.85,4,3.07,6.56,7.42,9.92,11.06.3,4.45,4.19,6.54,6.56,9.55,3.61,4.59,3.85,4.45-.96,7.33-9.95,5.96-19.87,11.97-29.77,18-.59.36-.97,1.06-1.44,1.61-3.38,3.06-7.45,5.08-11.25,7.51-2.95,1.89-5.44,1.53-7.59-1.35-1.04-1.39-2.36-2.58-3.35-4.03-.26-.32-.5-.65-.75-.98-.73-.97-1.63-1.79-2.43-2.7-2.61-4.1-6.84-6.86-9.25-11.12-.76-.84-1.34-1.88-2.45-2.35-.68-3.16-3.71-4.55-5.28-7.04Z"/>
        <path class="cls-94" d="M156.06,437.43c-1.25,1.55-3.07,1.08-4.51.85-4.58-.72-7.14,1.16-8.43,5.47-.58,1.93-1.62,3.73-2.72,6.2-2.01-3.61-3.76-6.75-5.51-9.89.01-1.77.03-3.53.04-5.3,1.7-2.84,4.82-3.68,7.39-5.3,1.59-1,3.58-1.44,4.58-3.27,2.01-1.45,2.96-.23,3.71,1.48,1.82,3.25,3.63,6.51,5.45,9.76Z"/>
        <path class="cls-86" d="M150.61,427.67c-1.18-.2-1.81-2.59-3.48-.89-3.55,2.24-7.36,1.39-11.13.94-.5-.23-.97-.5-1.43-.81-3.29,1.1-4.17-1.62-5.42-3.56-.9-1.4-1.5-3-2.23-4.52,1.57-1.64,3.57-.89,5.41-.99,1.14,2.58,3.66,3.99,5.26,6.19,1.53,2.09,3.08.56,4.54-.17,4.12-2.06,7.54-5.39,12.08-6.7.02.72-.11,1.49.1,2.15,1.19,3.88,1.89,7.48-3.69,8.34Z"/>
        <path class="cls-31" d="M179.82,380.69c-4.76-2.03-6.52-6.92-9.86-10.32.29-2.37,1.75-2.67,3.7-2.1,2.7,2.74,5.41,5.49,8.11,8.24-.65,1.39-1.3,2.79-1.95,4.18Z"/>
        <path class="cls-117" d="M132.33,417.85c-1.54,1.76-3.59.75-5.41.99-2.69-4.7-5.38-9.41-8.07-14.11-.3-.93.1-1.15.94-.93,3.26,3.73,6.51,7.45,9.77,11.18.33,1.49,1.39,2.32,2.65,2.97l.12-.1Z"/>
        <path class="cls-115" d="M135.68,426.89c3.82-.04,7.64-.07,11.46-.11.99,1.55-.55,1.58-1.26,1.98-3.63,2.03-7.29,4-10.94,5.99,0-.88,0-1.76,0-2.64.85-1.66-.31-3.6.75-5.22Z"/>
        <path class="cls-94" d="M135.68,426.89c-.26,1.74.6,3.64-.75,5.22-.12-1.73-.24-3.47-.36-5.2.37,0,.74-.02,1.11-.02Z"/>
        <path class="cls-56" d="M119.79,403.8c-.31.31-.62.62-.94.93-.57-.86-1.14-1.72-1.71-2.57,1.44-.35,2.16.45,2.64,1.64Z"/>
        <path class="cls-108" d="M259.43,447.26c-5.26,1.29-10.52,1.28-15.78,0,5.26,0,10.52,0,15.78,0Z"/>
        <path class="cls-68" d="M389.65,80.15q2.71-7.84,10.53-6.03c.68.71.77,1.56.64,2.48-.43,1.44-.34,3.09-1.59,4.22-.76,4.74-3.63,2.78-6.15,1.94-.79-.05-1.41-.48-2.05-.88-.66-.41-1.15-.96-1.38-1.72Z"/>
        <path class="cls-82" d="M389.65,80.15c.52.31,1.04.61,1.56.92.63,1.43-.03,2.65-.95,3.54-3.85,3.7-6.71,8.34-11.05,11.56-1.02.52-1.38,2.24-3.01,1.65,3.11-6.93,5.77-14.21,13.45-17.67Z"/>
        <path class="cls-99" d="M378.89,96.01c3.72-5.3,9.09-9.24,12.32-14.95.91.24,1.5.84,1.87,1.69-.57,6.33-6.04,8.44-10.14,11.7-1.24.99-2.65,1.77-3.99,2.65-.43-.34-.45-.71-.06-1.09Z"/>
        <path class="cls-27" d="M400.04,76.58c.04-.82.09-1.65.14-2.47,5.04-.73,8.96,2.66,13.52,3.72.54.13.27.96-.35,1.26-1.39-.84-2.82.19-4.22-.08-1.63-.5-3.24-.45-4.85.13-.45.12-.89.18-1.35.2-1.62-.23-3.6-.1-2.88-2.77Z"/>
        <path class="cls-68" d="M409.07,78.27c1.43.22,3.06-.57,4.27.83-3.88.47-7.39,2.54-11.35,2.66-.67-1.75.54-2.57,1.7-3.41.26-.06.52-.09.79-.09,1.53-.52,3.07-.54,4.6.01Z"/>
        <path class="cls-69" d="M392.06,104.74c-.05-1.36-.04-2.47,1.67-2.54,1.97-.08,2.02,1.15,1.96,2.56-.05,1.34,0,2.72-1.94,2.7-2.11-.03-1.49-1.69-1.69-2.71Z"/>
        <path class="cls-35" d="M420.66,78.22c1.45-.12,2.43.08,2.42,1.74,0,1.95-1.28,1.91-2.64,1.89-1.4-.02-2.67-.18-2.55-2.05.13-2.06,1.82-1.33,2.77-1.59Z"/>
        <path class="cls-35" d="M370.14,77.11c-.22,2.63-1.84,2.09-3.05,2.19-1.43.12-2.24-.54-2.16-2.05.11-2.16,1.75-1.5,2.95-1.54,1.31-.04,2.38.3,2.25,1.4Z"/>
        <path class="cls-91" d="M392.11,50.91c.09-1.1-.26-2.49,1.7-2.21,1.68.24,2.05,1.26,1.95,2.77-.09,1.28-.29,2.3-1.9,2.27-2.09-.04-1.54-1.66-1.74-2.83Z"/>
        <path class="cls-119" d="M403.68,78.35c-.57,1.14-1.13,2.27-1.7,3.41-.92-.31-1.84-.63-2.76-.94.2-1.43-.47-3.02.81-4.24.41,2.25,2.23,1.59,3.65,1.77Z"/>
        <path class="cls-93" d="M378.89,96.01c.02.36.04.73.06,1.09-.67.68-1.22,1.68-2.02,1.98-1.47.53-1.76-.1-.73-1.27.9-.6,1.79-1.2,2.69-1.8Z"/>
        <path class="cls-19" d="M117.81,313.75c9.72,3.43,19.81,5.8,29.17,10.25-4.31,2.18-8.62,4.35-12.92,6.53-4.48-.81-6.78-4.77-10.18-7.14-3.07-2.14-5.78-4.8-8.66-7.23.86-.8,1.73-1.6,2.59-2.41Z"/>
        <path class="cls-6" d="M125.74,364.77c-.33,2.26-.67,4.53-1.01,6.91-2.76-.29-1.54-3.33-3.2-4.2-.5-.58.03-1.25-.15-1.86.71-5.38-1.33-10.45-1.91-15.68-.25-2.29.15-3.13,2.23-3.82,3.2-1.07,6.33-2.4,9.43-3.74,1.99-.86,3.14-.12,3.78,1.68.91,2.55-1.27,2.04-2.51,2.37-2.13.56-4.25,1.19-6.42,1.5-2,.29-2.58,1.19-2.72,3.18-.25,3.71.41,5.42,4.75,4.21,2.52-.7,6.11-3.17,7.68,1.7.52.59.51,1.18.03,1.79l.02-.04c-1.07.64-2.25,1.02-3.45,1.33-1.77.4-4.56-1.89-5.01,1.93.3,1.37-1.77,1.42-1.53,2.75Z"/>
        <path class="cls-7" d="M173.67,368.28c-1.33.52-2.83.77-3.7,2.1-3.79.15-6.59,1.29-5.93,5.9.31,2.17-1.31,3.09-2.74,4.04-1.63,1.07-1.64-1.17-2.65-1.43-.54-.4-.84-.93-.84-1.61.01-2.97-1.78-5.3-2.76-7.92,2.73-3.11,6.73-4.47,9.84-7.06.86-.54,1.72-1.07,2.58-1.61,2.07,2.53,4.14,5.07,6.21,7.6Z"/>
        <path class="cls-30" d="M116.9,378.46c11.97-6.53,23.93-13.05,35.9-19.58.28.5.55,1,.83,1.5-11.97,6.55-23.95,13.1-35.92,19.65-.27-.53-.54-1.05-.81-1.58Z"/>
        <path class="cls-71" d="M135.7,358.8c-.01-.6-.02-1.19-.03-1.79,4.47-1.57,8.04-5.1,12.95-5.83-4.05,2.99-8.07,6-12.92,7.62Z"/>
        <path class="cls-123" d="M125.74,364.77c-1.3-1.56.91-1.51,1.1-2.39.93-2.41,2.96-2.81,5.19-2.86,1.19-.46,2.36-1.02,3.69-.77-2.81,2.87-6.58,4.13-9.99,6.01Z"/>
        <path class="cls-21" d="M121.37,365.62c1.04.54.38,1.22.15,1.86-2.11.92-3.84,2.75-7.12,3.15,2.09-3.02,4.72-3.75,6.97-5.01Z"/>
        <path class="cls-100" d="M260.33,249.99c-2.83,2.12-5.28,4.5-8.9,5.31,1.94-8.51,2.22-8.68,8.9-5.31Z"/>
        <path class="cls-10" d="M249.79,303.01c2.05,2.68,4.1,5.37,6.15,8.05,0,.25.01.49,0,.74-.98,5.04-4.06,8.63-8.03,11.6-5.84-2.73-10.51-6.96-14.87-11.6,5.58-2.93,11.16-5.86,16.74-8.79Z"/>
        <path class="cls-18" d="M247.92,323.39c2.68-3.87,5.35-7.73,8.03-11.6,3.82,2.99,5.63,7.45,8.23,11.33-1.69,2.69-4.69,3.9-6.84,6.09-.86.87-1.95.95-3.13.04-2.28-1.76-4.82-3.21-6.28-5.85Z"/>
        <path class="cls-110" d="M140.94,244.6c1.35,1.68,3.13,3.06,3.69,5.3-2.16-1.11-6.96-.39-3.69-5.3Z"/>
        <path class="cls-74" d="M146.22,301.2c-1.33-2.59-1.2-5.2-.11-7.82.03,2.61.07,5.22.11,7.82Z"/>
        <path class="cls-16" d="M157.8,377.28c.67.33.83.93.84,1.61-10.67,6.28-21.35,12.56-32.03,18.84-.3-.49-.59-.98-.89-1.47,10.69-6.32,21.38-12.65,32.08-18.97Z"/>
        <path class="cls-71" d="M164.76,395.58c-8.58,4.8-17.17,9.59-25.75,14.39-.29-.52-.57-1.03-.86-1.55,8.63-4.83,17.26-9.66,25.89-14.49.24.55.48,1.1.72,1.65Z"/>
        <path class="cls-71" d="M147.18,394.16c7.61-4.65,15.21-9.3,22.82-13.96.27.45.53.89.8,1.34-7.32,4.83-14.85,9.35-22.59,13.53-1.02.45-1.14-.1-1.03-.91Z"/>
        <path class="cls-84" d="M143.8,397.73c-2.82,2.26-6,3.84-9.52,4.89,2.28-2.74,5.47-4.16,8.47-5.83.38.28.93.37,1.05.94Z"/>
        <path class="cls-21" d="M143.8,397.73c-.35-.31-.7-.63-1.05-.94,1.48-.88,2.95-1.76,4.43-2.64.34.3.69.61,1.03.91-1.47.89-2.94,1.77-4.41,2.66Z"/>
        <path class="cls-45" d="M132.21,417.95c-1.98-.01-2.74-1.12-2.65-2.97,1.12.78,2.08,1.7,2.65,2.97Z"/>
        <path class="cls-119" d="M409.07,78.27c-1.53,0-3.07,0-4.6-.01,1.54-1.16,3.07-1.14,4.6.01Z"/>
        <path class="cls-101" d="M132.03,359.53c-1.73.95-3.46,1.9-5.19,2.86-1.23-.84-1.44-2.39-.5-2.98,1.72-1.07,3.83-1.3,5.7.12Z"/>
      </g>
    </g>
  </g>
</svg>