<?xml version="1.0" encoding="UTF-8"?>
<svg xmlns="http://www.w3.org/2000/svg" version="1.1" viewBox="0 0 636.44 800">
  <defs>
    <style>
      .cls-1 {
        fill: #464949;
      }

      .cls-2 {
        fill: #896b58;
      }

      .cls-3 {
        fill: #788a5c;
      }

      .cls-4 {
        fill: #e2c9b7;
      }

      .cls-5 {
        fill: #607343;
      }

      .cls-6 {
        fill: #2c2c2c;
      }

      .cls-7 {
        fill: #677546;
      }

      .cls-8 {
        fill: #c2d2cb;
      }

      .cls-9 {
        fill: #d9eae2;
      }

      .cls-10 {
        fill: #bc987e;
      }

      .cls-11 {
        fill: #d9bca6;
      }

      .cls-12 {
        fill: #9c9fa0;
      }

      .cls-13 {
        fill: #c3c3c3;
      }

      .cls-14 {
        fill: #bc977e;
      }

      .cls-15 {
        fill: #84c4a7;
      }

      .cls-16 {
        fill: #548c70;
      }

      .cls-17 {
        fill: #846754;
      }

      .cls-18 {
        fill: #538b70;
      }

      .cls-19 {
        fill: #464646;
      }

      .cls-20 {
        fill: #568d70;
      }

      .cls-21 {
        fill: #4f5252;
      }

      .cls-22 {
        fill: #bb977d;
      }

      .cls-23 {
        fill: #679b79;
      }

      .cls-24 {
        fill: #6e7073;
      }

      .cls-25 {
        fill: #46765f;
      }

      .cls-26 {
        fill: #849c83;
      }

      .cls-27 {
        fill: #538c70;
      }

      .cls-28 {
        fill: #bec5b2;
      }

      .cls-29 {
        fill: #a1be76;
      }

      .cls-30 {
        fill: #4a5e2c;
      }

      .cls-31 {
        fill: #6aab8b;
      }

      .cls-32 {
        fill: #788b5c;
      }

      .cls-33 {
        fill: #fdfdfd;
      }

      .cls-34 {
        fill: #856754;
      }

      .cls-35 {
        fill: #558c70;
      }
    </style>
  </defs>
  <!-- Generator: Adobe Illustrator 28.7.1, SVG Export Plug-In . SVG Version: 1.2.0 Build 142)  -->
  <g>
    <g id="Layer_1">
      <g id="Layer_1-2" data-name="Layer_1">
        <g>
          <path class="cls-3" d="M377,420.01c-2.31,14.23-1.17,28.64-2.09,42.95-1.23,18.93-1.3,37.94-1.87,56.9-1.78,7.17-7.75,11.81-10.93,18.14-7.36,10-14.33,20.27-21.24,30.58-4.08,5.09-7.64,10.57-11.51,15.82-1.53,2.08-2.77,4.47-5.47,5.38-3.73,0-5.17-3.08-6.91-5.48-4.78-6.61-9.55-13.22-14.56-19.67-3.62-4.66-4.71-4.66-8.52-.1-6.79,8.11-13.55,16.25-20.33,24.38-1.69,2.02-3.16,4.28-5.84,5.21-4.41.49-6.05-3.07-8.07-5.79-7.09-9.5-13.82-19.27-20.78-28.86-5.77-8.86-12.31-17.16-18.18-25.95-.41-.47-.79-.96-1.13-1.48-4.23-6.45-9.33-12.29-13.16-19.02-10.62-23.64-21.24-47.3-31.81-70.97-1-2.22-2.22-4.36-2.24-6.9,1.56-6.44,6.35-11,9.62-16.45,2.39-3.97,5.19-7.68,7.33-11.81,9.85-24.74,19.58-49.54,29.2-74.37,3.77-9.73,7.65-19.41,11.57-29.09.86-2.12,1.12-5.6,5.09-4.39,1.85,2.57,1.37,5.45,1.17,8.34-2.22,31.85-4.56,63.69-6.65,95.53-.35,5.41,2.25,4.21,5.12,2.86,10.04-4.73,19.85-9.89,29.82-14.77,4.77-2.33,9.47-4.89,14.83-5.71,3.6-.11,5.48,2.42,7.38,4.86,4.35,5.57,8.38,11.37,12.83,16.86,4.94,6.1,5.64,6.21,10.63-.18,4.92-6.28,11.11-11.37,15.97-17.66.67-.88,1.64-1.46,2.71-1.83,3.39-.43,5.84,1.64,8.34,3.35,10.35,7.06,20.8,13.96,31.07,21.14,2.33,1.63,4.58,3.57,7.79,2.44,1.5.45,1.98,1.61,2.09,3.02-.07,1.07-.5,1.97-1.3,2.69h0Z"/>
          <path class="cls-11" d="M446.38,257.16c-4.61,10.57-6.68,21.89-9.77,32.91-1.3,4.63-2.55,6.23-8.04,5.15-20.76-4.05-41.67-7.31-62.53-10.82-1.73-.29-3.53-.19-5.29-.27-2.4,1.94-5.07,1.11-7.63.64-15.87-2.89-31.5-6.98-47.33-10.03-2.61-.51-5.19-1.24-6.8-3.68-1.46-3.04-.65-6.12,0-9.12,10.75-48.66,20.35-97.57,31.75-146.09.65-2.79,1.01-5.65,1.84-8.4,1.05-3.84,4.23-5.51,7.4-7.05,23.8-11.57,47.84-22.64,71.54-34.45,1.98-.99,4.03-1.83,6.35-1.45,16.91,9.03,32.22,20.62,48.45,30.74,5.59,3.48,11,7.27,16.74,10.55,2.01,1.45,3.91,3,4.45,5.61-.61,8.95-4.05,17.24-6.37,25.76-3.89,14.34-7.93,28.65-11.91,42.98-3.19,9.22-4.91,18.86-7.94,28.12-2.13,6.21-3.09,12.76-5.38,18.92-1.75,7.71-3.81,15.33-6.1,22.9-.78,2.58-2.03,4.84-3.42,7.08Z"/>
          <path class="cls-31" d="M418.17,65.72c-10.83,5.01-21.68,9.95-32.46,15.05-15.79,7.49-31.54,15.09-47.29,22.66-1.59.76-3.28,1.43-3.99,3.28-.41.51-.88.99-1.39,1.41-.56.36-1.17.62-1.8.8-29.06,14.3-58.5,27.8-87.7,41.8-29.41,14.09-59.05,27.7-88.3,42.13-2.31,1.14-4.75,2.75-7.45.72-.79-.48-1.58-.95-2.36-1.43-2.35-7.25-1.57-14.86-2.24-22.28-1.52-16.87-2.61-33.8-4.23-50.66-.32-3.37.44-6.56.84-9.82.9-.83,1.8-1.67,2.72-2.5,3.71-2.01,7.58-3.3,11.83-4.03,49.56-8.57,99.12-17.19,148.74-25.43,1.95-.32,3.94-.64,5.8-1.44,31.28-4.59,62.46-9.72,93.57-15.35,6.97-1.27,13.9-2.67,20.8-4.17,3.04-.66,6.06-1.48,9.03.18,1.76,1.44.91,2.93-.36,3.82-4.12,2.87-8.09,6.32-13.73,5.28h-.02Z"/>
          <path class="cls-15" d="M433.04,57.63c-8.69-.28-16.71,3.2-25.11,4.6-24.08,4.01-48.01,8.98-72.18,12.3-8.88,1.22-17.78,3.24-26.84,3.16-3.55-.04-4.69-3.03-6.15-5.34-13.42-21.29-26.84-42.57-40.26-63.87-1.49-2.36-3.46-4.69-2.82-7.88,31.27-.03,62.52-.19,93.79-.05,19.27.08,38.54.63,57.81.97,1.55.03,3.13-.1,4.38,1.12,8.45,12.2,11.97,26.6,17.81,39.97,1.9,4.36,4.75,8.7,3.15,13.94-.89,1.38-1.96,2.14-3.59,1.08h.01Z"/>
          <path class="cls-14" d="M333.2,107.01c.4-.09.81-.2,1.21-.3-6.01,28.54-12.03,57.08-18.06,85.62-5.53,26.16-11.07,52.32-16.6,78.47-3.98,3.25-8,.44-11.98.02-2.6-.27-5.07-1.33-7.28-1.84,17.2,12.9,34.48,26.19,51.54,39.74,4.74,3.76,11,6.06,12.97,12.68-1.62,9.61-6.82,17.84-10.36,26.7-.96,2.42-2.48,4.61-3.09,7.2-6.08,8.44-15.15,13.15-23.52,18.75-.65.12-1.3.11-1.95-.02-3.38-1.49-5.45-4.41-7.72-7.13-7.08-8.55-15.47-15.84-23.13-23.83-2.92-3.06-5.86-6.09-6.64-10.51-5.87-23.38-11.79-46.74-17.6-70.13-1.92-7.71-4.22-15.34-4.16-23.39-.11-.48-.23-.94-.34-1.42.04-.31.08-.63.11-.95,6.75-7.91,16.21-12.22,24.44-18.13,7.92-5.68,15.74-11.54,23.99-16.77,1.6-1.01,2.72-2.23,3.05-4.12,1.02-6.61.44-13.14-.38-19.71-.63-5.02-.77-10.08.27-15.1,9.61-17.64,20.4-34.59,31.19-51.52,1.09-1.71,2.37-3.16,4.01-4.32h0Z"/>
          <path class="cls-24" d="M85.14,310.77c1.91-15.93,3.82-31.85,5.72-47.78,1.14-2.84,3.37-2.15,5.61-1.84,5.71.79,11.24,2.07,16.71,4.1,16.22,6,32.77,11.08,49.15,16.62,3.33,1.13,6.92,1.86,9.23,4.93,2.41,5.01.17,10.02-.12,15.01-.24,4.18-1.01,8.33-1.48,12.5-.12.69-.29,1.39-.49,2.06-17.82,43.25-37.3,85.76-55.68,128.77-.61,1.42-1.43,2.76-1.42,4.38,2.17,8.42,6.92,15.74,9.97,23.78,1.15,3.02,3.17,6.1-.2,9.05-2.52,1.29-5.14.88-7.76.46-14.96-2.43-30.08-3.76-44.95-6.84-5.86-1.89-4.02-6.52-3.54-10.45,2.93-23.58,5.99-47.15,9.01-70.74,2.19-3.84,5.04-1.58,7.5-.61,10.12,3.97,19.64,9.23,29.45,13.89,7.11,3.37,7.43,3.2,8.62-4.64,3.04-19.94,5.83-39.93,9.02-59.85.4-2.54,1.34-5.23-.22-7.75-12.36-5.39-25.23-9.41-37.82-14.14-5.43-2.04-8.11-5-6.31-10.91h-.01Z"/>
          <path class="cls-8" d="M478.33,762.42c29.48,2.36,58.96,4.73,88.92,7.13-7.16,3.34-14.66,2.48-21.74,3.31-31.78,3.71-63.62,6.75-95.38,10.71-26.27,3.28-52.68,5.4-79.01,8.27-22.37,2.44-44.65,5.87-67.07,7.51-10.41.76-21.07-1.61-31.6-2.74-14.26-1.52-28.52-3.03-42.74-4.89-17.91-2.35-36-3.29-53.79-6.62-.39-.87-.22-1.61.54-2.19,3.17-2.11,6.78-1.73,10.3-1.75,17.7-.06,35.4.04,53.12-.06,7.43-.04,7.64-.55,8.03-7.96.35-6.75-1.6-13.76,1.96-20.22,4.36-3.34,9.7-2.7,14.63-3.43,29.13-4.36,58.22-2.17,87.29.81,5.62.58,11.68-.8,16.48,3.58.87,1.04,1.51,2.23,1.76,3.54,1.72,9.03,1.57,9.33,12.04,9.06,27.73-.69,55.39,2.16,83.11,1.47,5.32-.13,10.11-.45,13.14-5.53h.01Z"/>
          <path class="cls-18" d="M259.69.62c14.08,22.2,28.16,44.42,42.26,66.61,2.25,3.54,4.65,6.99,6.97,10.47-9.79,4.48-20.54,4.49-30.86,6.36-32.74,5.94-65.57,11.37-98.39,16.9-12.37,2.08-24.8,3.94-37.19,5.9,16.29-15.01,32.51-30.11,48.91-45.01,21.99-20,44.1-39.86,66.15-59.77.64-.58,1.43-.99,2.16-1.47h-.01Z"/>
          <path class="cls-18" d="M147.77,193.55c11.42-5.26,22.9-10.4,34.25-15.8,48.49-23.07,96.95-46.23,145.45-69.33,1.37-.65,2.91-.9,4.39-1.34-1.41,5.17-5.21,8.76-9.03,11.91-8.07,6.63-14.87,14.6-23.17,20.95-5.09,5.27-10.89,9.77-16.18,14.81-11.65,10.6-23.41,21.05-34.91,31.82-8.07,6.96-16,14.06-23.66,21.48-14.54,13.07-28.71,26.55-43.43,39.41-1.7,1.48-3.93,1.94-5.52,3.51-3.14,1.92-3.23-1.31-3.83-2.62-8.21-18.22-16.27-36.5-24.37-54.77h0Z"/>
          <path class="cls-29" d="M122.9,481.13c-3.32-11.02-9.52-20.82-13.44-31.6,2.06-1.7,4.16-3.25,6.89-3.84,16.48-3.6,32.78-7.95,49.27-11.5,2.52-.54,5.22-1.59,7.58.6,9.78,21.46,19.67,42.87,29.22,64.42,2.03,4.58,5.25,8.76,5.61,14.04.58,1.86-.63,3.03-1.84,3.91-12.65,9.27-24.98,19.01-38.65,26.81-.31.01-.63.02-.94.03-1.01.4-2.12.64-2.99,1.23-8.75,5.89-8.7,5.89-12.88-4.16-2.28-5.48-4.41-11.04-8.14-15.76-8.07-12.67-13.21-26.77-19.51-40.29-.57-1.23-.5-2.57-.18-3.89h-.01Z"/>
          <path class="cls-3" d="M454.3,398.38c11.12-8.8,22.23-17.6,33.35-26.4,2.72-1.72,4.48.23,6.21,1.75,3.23,2.85,6.15,6.04,9.23,9.04,3.62,4.12,8.44,7.34,9.83,13.13,5.32,5.61,10.52,11.35,16,16.8,2.76,2.74,2.63,4.18-.66,6.47-24.36,16.91-48.59,34.02-72.81,51.12-1.99,1.4-3.58,2.06-5.87.38-14.79-10.85-30.53-20.36-44.8-31.93.24-2.45,2.01-3.83,3.73-5.2,13.23-10.58,26.12-21.56,39.41-32.09,1.92-1.51,3.77-3.06,6.39-3.08h-.01Z"/>
          <path class="cls-31" d="M435.69,56.46c-2.78-12.58-9.13-23.84-13.28-35.9-2.08-6.04-5.77-11.46-6.75-17.9,30.49,19.31,59.77,40.42,89.79,60.43,8.47,5.64,16.71,11.67,25.34,17.07,4.14,2.59,4.07,4.55,1.13,8.02-9.01,10.65-17.79,21.51-26.62,32.31-1.67,2.05-3.15,4.26-4.72,6.39-7.16-3.12-10.85-9.36-14.26-15.87-1.4-1.21-2.8-2.44-4.2-3.65-15.87-14.28-29.57-30.61-43.9-46.35-1.21-1.34-2.08-2.81-2.53-4.55h.01Z"/>
          <path class="cls-18" d="M166.47,690.48c0-.45.02-.9.03-1.35,6.98-2.75,8-8.7,8.11-15.13.52-31.25,3.53-62.37,4.19-93.61.09-4.44.96-8.8,1.78-13.16,1.2-4.01,4.24-6.69,7.22-9.29,8.31-7.28,16.49-14.71,24.84-21.93,2.4-2.07,4.68-4.89,8.53-4.25v.23c2.14,3.3,1.38,6.87.8,10.34-7.57,45.99-15.64,91.9-23.04,137.93-.66,4.11-1.06,8.46-4.75,11.39-9.33,1.91-18.65,3.52-27.7-1.16h-.01Z"/>
          <path class="cls-24" d="M478.33,762.42c1.09,6.82-1.99,8.33-8.49,8.17-30.92-.73-61.86-1.15-92.78-1.14-6.27,0-8.85-1.63-8.65-7.84.07-2.4-.6-4.81-.94-7.22-.62-.8-1.16-1.65-1.47-2.62-.29-2.63-.26-5.3-.85-7.9-.02-1.02.21-1.96.81-2.79,3.27-1.69,6.06.11,8.77,1.42,6,2.87,12.13,5.47,18.12,8.35,5.14,2.48,8.68,2.06,12.62-2.65,6.8-8.15,13.35-16.55,20.75-24.19,13.82,5.34,28.02,9.54,42.33,13.22,7.2,1.86,10.65,4.84,9.57,12.6-.57,4.11.1,8.39.22,12.59h0Z"/>
          <path class="cls-18" d="M486.32,111.01c5.44,4.67,9.6,10.48,14.26,15.87.95,32.11,1.79,64.21,2.97,96.31.17,4.59-1.4,6.82-5.41,8.41-4.51,1.77-8.81,4.09-13.21,6.16-3.6-.26-3.76-3.39-4.46-5.75-4.33-14.61-8.53-29.26-12.5-43.98-.72-2.64-.25-5.27-.46-7.9,2.92-16.15,8.5-31.59,12.56-47.45,1.87-7.28,4.17-14.46,6.27-21.68h-.02Z"/>
          <path class="cls-29" d="M454.3,398.38c-16.18,13.85-32.63,27.39-49.53,40.36-9.26-6.24-18.52-12.49-27.77-18.73-.01-.93-.03-1.87-.04-2.79,7.65-17.06,18.97-31.93,28.7-47.75,1.39-2.26,2.22-5.53,5.92-5.44,14.82,10.72,28.74,22.6,42.74,34.35h-.01Z"/>
          <path class="cls-12" d="M131.72,333.72c2.22,5.63-.32,10.99-1.1,16.4-2.86,19.84-6.13,39.62-8.92,59.45-.59,4.21-1.77,4.57-5.29,2.87-11.53-5.56-23.16-10.94-34.79-16.29-2.08-.95-4.05-3.05-6.72-1.38,1.31-11.11,2.62-22.21,3.93-33.32.67-3.87,2.17-7.07,6.1-8.74,13.29-5.61,26.51-11.4,39.77-17.06,2.27-.97,4.86-.62,7.02-1.93h0Z"/>
          <path class="cls-24" d="M250.52,753.13c0,7.73-.37,15.46.1,23.16.36,5.71-1.19,7.57-7.21,7.49-22.49-.3-44.99,0-67.48.07-9,1.32-10.49.16-10.59-8.89-.05-4.31-.85-8.89,2.67-12.49.48-3.12.94-6.24,1.42-9.36,4.74-.41,6.08,3.81,8.39,6.44,2.67,3.04,4.85,3.21,7.64.36,3.39-3.47,6.97-6.76,10.28-10.31,4.16-4.47,9.12-5.81,15-4.83,6.08,1.02,12.22,1.57,18.4,1.68,5.27.24,10.42,1.38,15.66,1.91,2.77.28,5.86.73,5.71,4.76h.01Z"/>
          <path class="cls-14" d="M506.07,326.7c12.51-13.11,25.06-26.19,37.47-39.38,2.25-2.4,3.72-2.89,6.32-.31,6.26,6.23,12.76,12.25,19.36,18.12,2.65,2.36,3.47,4.51,2.17,8.01-5.48,14.68-10.69,29.48-16.01,44.23-2.83,2.03-5.07.01-7.2-1.29-12.72-7.8-25.45-15.63-38.25-23.31-2.17-1.31-4.79-2.63-3.86-6.06h0Z"/>
          <path class="cls-13" d="M170.69,287.04c-24.16-8.1-48.33-16.21-72.5-24.3-2.46-.82-4.98-2.42-7.34.25.71-4.77,4.47-2.75,6.85-2.75,45.19.09,90.38,1.98,135.58,1.23,3.06-.05,6.25.58,9.03-1.38,2.55,7.3.66,13.73-3.84,19.65-6.6,3.02-13.81,2.79-20.78,3.79-12.91,1.84-25.9,3.1-38.83,4.81-2.87.38-5.75.83-8.2-1.31h.02Z"/>
          <path class="cls-18" d="M139.76,109.36c3.31,4.91,1.79,10.72,2.48,16,1.78,13.93,2.18,28.04,3.08,42.08.39,6.14,1.94,12.2,1.36,18.41-.2,2.14.59,4.47-1.28,6.26-16.61-11.68-33.22-23.36-49.87-34.99-2.5-1.74-3.95-2.9-.82-5.78,15.13-13.88,30.05-27.97,45.06-41.99h-.01Z"/>
          <path class="cls-25" d="M420.72,665.37c4.38,8.03,5.99,17.07,9.29,25.49,1.24,3.17-1.18,3.8-3.24,4.54-5.61,2.03-11.3,3.87-16.86,6.05-2.15.84-4.97.81-6.04,3.57-2.14,1.84-5.01,1.94-7.4,3.17-10.9,3.71-21.35,8.68-32.64,11.29-7.87-7.02-13.81-15.38-17.39-25.37.45-3.53,3.31-4.46,6-5.41,4.79-1.7,9.47-3.69,14.28-5.34,6.57-2.56,13.16-5.1,19.97-7,7.45-3.41,15.17-6.09,22.92-8.69,3.65-1.01,6.84-4.23,11.1-2.3h0Z"/>
          <path class="cls-31" d="M420.72,665.37c-3.47,1.31-6.94,2.6-10.41,3.91-4.19,1.36-4.74-2.14-5.79-4.57-4.29-9.99-7.39-20.43-11.02-30.66-10.6-29.88-20.98-59.83-31.55-89.73-.83-2.34-1.47-4.65-.92-7.13,2.84-6.57,7.1-12.17,12.01-17.31,6.55,19.47,13.2,38.89,19.65,58.39,8.96,27.09,17.8,54.23,26.64,81.35.61,1.87.93,3.83,1.39,5.75h0Z"/>
          <path class="cls-25" d="M166.47,690.48h28.15c4.81-3.84,9.99-.93,15.01-.84,6.82-.32,13.66-.8,20.47.13,5.17,1.79,10.95-.28,15.98,2.47,2.53,2.48,1.03,4.93-.27,7.17-3.75,6.47-7.78,12.78-11.84,19.05-4.2,6.46-10.63,4.92-16.73,4.53-2.58-.09-4.98-1.38-7.6-1.16-11.21.77-22.38,1.06-33.33-2.08-2.69-3.36-8.73,1.4-10.09-3.63-1-3.67-.12-7.85-.04-11.8.08-4.61.21-9.22.32-13.83h-.02Z"/>
          <path class="cls-27" d="M411.56,364.03c-10.29,16.25-20.59,32.5-30.88,48.74-1.05,1.65-1.57,3.74-3.73,4.45-.33-.85-.66-1.7-1.01-2.54-1.72-.99-2.35-2.69-2.5-4.46-2-24.66-4.99-49.25-5.53-74.02,1.11-2.43-.53-6.43,3.95-6.93,13.52,11.25,27.11,22.44,39.69,34.76h.01Z"/>
          <path class="cls-34" d="M343.91,321.37c-10.41-10.56-23.02-18.38-34.48-27.64-11.26-9.09-22.88-17.74-33.81-27.49,8.05,1.52,16.1,3.04,24.14,4.56,18.19,3.96,36.39,7.93,54.58,11.89,2.14.47,4.27.96,6.41,1.44-.03.46-.06.9-.09,1.36-2.67,11.32-8.57,21.36-12.76,32.08-.67,1.73-1.33,3.94-3.98,3.79h-.01Z"/>
          <path class="cls-31" d="M182.57,565.18c-1.74,30.36-3.45,60.72-5.24,91.08-.49,8.37-.26,16.74-.78,25.13-.49,8-4.16,8.48-10.05,7.75.03-48.38.06-96.76.09-145.12l.12-.06c.64-.24,1.48-.4,1.9.04,5.84,6.27,11.85,12.44,13.95,21.19h0Z"/>
          <path class="cls-21" d="M396.97,706.43c2.02-1.83,4.36-2.17,6.91-1.43,7.45,6.34,14.89,12.66,22.34,19,.45,4.97-3.94,7.2-6.29,10.38-4.95,6.69-10.82,12.68-16.1,19.13-2.73,3.33-5.6,1.85-8.31.65-9.64-4.25-19.21-8.72-28.79-13.11-.57-.38-.78-.9-.61-1.58,7.83-9.48,16.45-18.26,24.17-27.82,1.86-2.3,4.37-3.61,6.69-5.23h-.01Z"/>
          <path class="cls-25" d="M175.95,250.95c4.16-6.78,10.91-10.94,16.68-16.01,10.63-9.33,20.18-19.86,31.59-28.31,5.29-4.18,10.98-4.66,17.05-1.92,4.58,6.75,7.81,26.39,5.31,32.31l-.06.62c-23.53,4.4-46.83,10-70.57,13.32h.01Z"/>
          <path class="cls-11" d="M506.07,326.7c4.92,6.03,12.26,8.55,18.58,12.41,10.15,6.2,19.81,13.31,30.72,18.24-9.13,10.2-20.39,18.09-30.11,27.66-3.9,3.85-8.21,7.27-12.33,10.89-3.63-3.94-7.26-7.88-10.89-11.82.43-7.16,4.84-12.69,7.89-18.7,2.82-5.56,3.37-10.62.85-16.39-2.2-5.04-4.1-10.25-5.79-15.49-.72-2.22-2.17-4.52-.07-6.81.38.02.76.02,1.14,0h0Z"/>
          <path class="cls-10" d="M504.93,326.7c3.07,8.45,6.07,16.94,9.25,25.35.96,2.54,2.03,5.06.71,7.61-4.25,8.16-7.4,16.9-12.84,24.44-5.44-3.26-8.03-9.95-14.38-12.11,1.04-10.75-.06-21.51-.62-32.21-.37-7.04-.69-14.08-.88-21.14-.06-2.4-1.23-6.19,2.9-6.01,4.11.19,9.59-3.02,11.95,3.54,1.27,3.53,2.61,7.02,3.93,10.53h-.01Z"/>
          <path class="cls-5" d="M238.41,278.53c1.31-6.14,2.61-12.28,3.93-18.42,1.5-7.02,3.02-14.03,4.52-21.05,6.05,17.79,9.63,36.22,14.23,54.39,3.35,13.24,7.58,26.29,9.31,39.92-2.64,1.02-4.2-.88-5.72-2.36-8.72-8.52-17.32-17.17-25.9-25.85-1.77-1.79-2.77-3.97-3.66-6.25-.56-.84-1.44-1.44-1.7-2.49.19-6.38.39-12.75,4.98-17.89h.01Z"/>
          <path class="cls-21" d="M210.56,719.92c2.26-.21,4.45,0,6.45,1.2,6.44,7.66,11.02,16.11,11.02,26.46-5.36,1.85-10.77.48-15.92-.53-6.52-1.29-11.51-.3-15.88,4.98-3.37,4.08-7.51,7.5-11.14,11.37-2.61,2.78-4.49,3.72-7.09-.29-2.36-3.64-5.68-6.68-8.58-9.98.38-6.04,1.95-11.82,3.71-17.57,12.72-4.59,25.25-9.69,37.42-15.65h0Z"/>
          <path class="cls-8" d="M168.01,762.49c-.02,4.13.36,8.32-.17,12.38-.84,6.47.9,10.02,8.08,8.98v1.27c-15.49.05-30.64-3.35-46.02-4.63-17.55-1.46-35-3.97-52.5-6.03-4.32-.51-8.65-1.04-12.95-2.34,19.6-1.89,39.19-3.79,58.79-5.66,14.91-1.43,29.75-3.62,44.75-3.96h.02Z"/>
          <path class="cls-21" d="M122.9,481.13c7.26,14.42,14.7,28.75,19.68,44.18-24.39-16.45-48.77-32.9-73.16-49.34,2.5-2.16,5.4-1.37,8.15-.96,13.8,2.01,27.6,4.17,41.4,6.21,1.28.19,2.62-.04,3.93-.08h0Z"/>
          <path class="cls-29" d="M467.5,180.13c6.41,17.68,10.18,36.13,15.93,54.01.39,1.23.99,2.41,1.49,3.61-12.41,7.33-25.72,12.88-38.54,19.41.83-10.55,5.59-20.12,7.56-30.39,7.86-1.68,8.19-2.02,6.47-9.22-.77-3.2-.8-6.42-.94-9.65,2.19-9.4,4.35-18.8,8.03-27.77h0Z"/>
          <path class="cls-13" d="M131.72,333.72c-1.04,2.3-3.34,2.73-5.35,3.58-13.63,5.81-27.21,11.69-40.9,17.34-3.35,1.38-5.31,3.68-6.65,6.8,1.5-11.95,2.63-23.96,4.7-35.81.87-4.98-1.12-10.19,1.62-14.88-.69,4.73,1.34,6.92,5.97,8.44,13.65,4.49,27.09,9.62,40.6,14.51v.02Z"/>
          <path class="cls-5" d="M343.91,321.37c4.41-10.12,8.84-20.24,13.21-30.38.88-2.03,1.53-4.18,3.53-5.49,2.79,13.75,5.58,27.51,8.38,41.26-.04.31-.09.63-.13.95-10.29,10.47-22.48,18.54-34.24,27.16-1.22.9-2.86,1.31-4.3.05,2.26-9.74,7.62-18.23,11.08-27.5.76-2.04,1.66-4.03,2.49-6.06h0Z"/>
          <path class="cls-1" d="M210.56,719.92c1.39,3.06-1.39,3.32-2.95,3.98-10.35,4.42-20.78,8.65-31.15,13.01-1.7.72-2.97.97-3.32-1.35,1.05-5.27,2.11-10.55,3.15-15.82,2.36-1.51,5.09-1.66,7.59-1.07,8.84,2.08,17.8.64,26.67,1.24h0Z"/>
          <path class="cls-23" d="M371.87,329.27c-2.3,1.89-1.21,4.57-1.62,6.91-5.49-2.47-2.65-6.07-1.29-9.47l.05.06c.95.83,1.9,1.67,2.85,2.5Z"/>
          <path class="cls-5" d="M173.18,434.79c-21.24,4.92-42.49,9.83-63.73,14.75,19.04-43.73,38.07-87.46,57.12-131.2.34-.79.9-1.47,1.37-2.21,2.97,1.87,3.35,5.1,4.05,8.05,5.76,23.87,12.35,47.54,18.2,71.39,1,4.07,2.06,8.16.47,12.34-4.78,9.63-11.2,18.21-17.48,26.87h0Z"/>
          <path class="cls-29" d="M235.68,298.58c11.35,11.83,22.31,24.04,34.73,34.78,2.17,5.29,6.72,8.6,10.55,12.47,8.78,8.88,17.68,17.63,25.53,27.37-.19,2.01-1.62,3.15-3.2,3.88-7.31,3.37-13.84,8.56-22.15,9.63-14.95,5.04-28.45,13.2-42.59,19.97-11.52,5.52-11.5,5.65-10.74-6.87,1.79-29.3,3.62-58.59,5.49-87.88.28-4.4.86-8.77,1.31-13.16.27-.56.63-.62,1.08-.2h.01Z"/>
          <path class="cls-18" d="M361.01,537.19c5.03,8.91,7.38,18.86,10.82,28.38,11.75,32.63,23.07,65.4,34.64,98.08.76,2.13.65,5.06,3.84,5.61-7.6,3.03-15.2,6.07-22.8,9.09-5.27-5.72-7.2-13.21-10.2-20.06-11.96-27.23-24.41-54.24-36.22-81.52-1.23-2.85-2.72-5.66-1.42-8.92,6.12-10.92,13.09-21.26,21.35-30.68h.01Z"/>
          <path class="cls-18" d="M230.53,691.84c-7.13-.03-14.27-.07-21.39-.1-1.49-2.82-.57-5.66.07-8.43,8.95-39.1,17.89-78.2,27.07-117.25.64-2.74.97-5.77,3.74-7.5,7.45,7.9,12.58,17.55,19.39,25.91,2.56,3.14,3.71,7.66,8.38,8.8.82.82,1.02,1.81.88,2.91-11.1,28.23-21.11,56.85-31.75,85.26-1.43,3.82-1.94,8.37-6.37,10.41h-.02Z"/>
          <path class="cls-18" d="M235.68,298.58c-.36.06-.73.12-1.08.2-7.55,18.81-15.18,37.6-22.64,56.46-6.49,16.43-12.75,32.95-19.16,49.39-.47,1.19-1.4,2.2-2.12,3.29-7.36-29.3-14.74-58.59-22.09-87.89-.32-1.28-.44-2.59-.64-3.9h-.02c2.43-2.86,5.85-3.89,9.25-4.8,16.61-4.47,33.09-9.44,49.67-14.02,2.5-.68,5.09-1.83,7.58.11.41.39.82.78,1.23,1.17h.01Z"/>
          <path class="cls-29" d="M368.97,326.71c.4,3.15-.85,6.54,1.29,9.46,1.01,22.03,3.07,43.97,5.13,65.91.39,4.18.38,8.39.56,12.59-.52,5.48-3.13,2.51-5.11,1.18-12.4-8.35-24.75-16.76-37.14-25.13-1.45-.99-3-1.85-4.5-2.76-8.72-2.65-16.32-6.93-21.52-14.75,5.36-5.79,12.54-9.24,18.48-14.28,1.49-1.27,3.18-2.25,4.17-4.02,11.48-5.73,20.11-15.4,30.74-22.33,2.75-1.79,5.27-3.92,7.89-5.89h.01Z"/>
          <path class="cls-31" d="M240.01,558.55c-3.59,15.9-7.13,31.8-10.76,47.68-6.18,27.06-12.4,54.1-18.64,81.15-.34,1.48-.97,2.9-1.47,4.36-4.84-.43-9.68-.84-14.52-1.27,8.34-49.34,16.68-98.69,24.99-148.03.59-3.47,1.04-6.98,1.56-10.46,7.04,8.32,13.53,17.03,18.83,26.57h.01Z"/>
          <path class="cls-21" d="M270.32,510.57c4.83-17.74,12.45-34.51,18.3-51.9,3.73-11.11,8.13-22,12.2-32.99.91-2.46,1.44-5.08,3.99-7.57,3.81,14.71,7.52,28.94,11.18,43.19,4.35,16.89,8.65,33.81,12.96,50.7-2.07,1.25-4.18,2.53-6.71,2.49-15.13-.21-30.31,1.23-45.39-1.15-2.46-.39-4.72-1-6.53-2.77h0Z"/>
          <path class="cls-31" d="M339.66,567.86c13.57,30.71,27.27,61.36,40.61,92.16,2.6,6,6.57,11.54,7.23,18.34-6.59,2.24-13.18,4.48-19.77,6.72-2.64-.71-3.92-2.81-4.94-5.04-12.96-28.37-26.07-56.67-38.98-85.07-.56-1.22-.75-2.54-.89-3.87.03-.71.27-1.32.72-1.86,5.27-7.19,9.53-15.12,16.01-21.38h.01Z"/>
          <path class="cls-25" d="M323.65,589.26c.02.45.02.88,0,1.33-.07,1.13-.36,2.26-1.22,2.97-8.34,6.74-15.03,15.33-23.84,21.54-1.27.89-2.53,1.73-4.14,1.86-10.73-4.69-19.66-11.66-26.58-21.17-.03-.84-.05-1.68-.08-2.53,8.62-10.6,17.28-21.18,25.83-31.82,3.41-4.24,5.8-4.81,9.35.4,6.44,9.45,13.73,18.3,20.67,27.41h.01Z"/>
          <path class="cls-19" d="M270.32,510.57c19.51,2.07,39.09,1.22,58.63,1.43-8.65,14.09-18.86,27.1-28.29,40.65-1.27,1.81-2.93,2.34-4.18.2-8.34-14.33-19.46-26.95-26.16-42.29h0Z"/>
          <path class="cls-14" d="M182.57,565.18c-5.28-7.07-10.57-14.16-15.85-21.23,9.51-8.95,21.09-15.09,31.31-23.1,3.3-2.58,6.67-5.06,10-7.59,4.89,5.8,9.53,11.79,13.15,18.5-12.87,11.14-25.74,22.29-38.6,33.42h-.01Z"/>
          <path class="cls-19" d="M307.69,373.22c7.17,4.92,14.34,9.83,21.52,14.75-6.13,9.29-14.88,16.29-21.68,24.98-2.7,3.44-4.26,2.13-6.43-.75-6.49-8.62-13.27-17.01-19.95-25.49,7.79-5.76,17.08-8.68,25.36-13.52.39.08.79.09,1.19.03Z"/>
          <path class="cls-14" d="M399.6,190.78c-1.86-.79-2.32-2.36-2.71-4.19-2.6-12.42-5.28-24.83-7.93-37.23-.41-.81-.4-1.66-.3-2.54.74-6.28-1.67-10.67-7.22-13.16-.82-.36-1.48-.88-1.83-1.74,2.89-1.66,2.08-3.61.82-6.01-3.06-5.82-7.04-11.2-8.72-17.7,5.51-2.83,11.86-1.11,17.5-3.27,6.63-1,13.17-1.04,19.42,1.91,3.51,5.51.64,11.7,1.86,17.45,1.98,2.29,1.59,4.96,1.16,7.6-2.78,17.53-5.75,35.03-8.97,52.47-.44,2.37-.84,4.86-3.08,6.41h0Z"/>
          <path class="cls-14" d="M436.98,158.83c-4.7,2.6-8.38,6.42-12.25,10.05-1.33,1.24-2.33,4.43-5.22,1.98-1.47-1.35-1.59-3.14-1.34-4.89,1.55-10.69,3.35-21.34,5.92-31.85.32-1.3,1.03-2.44,2.21-3.18,2.43-6.56,5.44-12.78,10.89-17.46,4.48-1.07,8.09,1.23,11.77,3.11,6.85,3.49,14.38,5.87,19.91,11.64-2.26,4.47-6.48,7.07-10.09,10.16-3.02,2.58-6.05,5.07-8.48,8.22-5.61,2.79-11.02,5.81-13.33,12.22h0Z"/>
          <path class="cls-4" d="M426.31,130.95c-2.26,13.31-4.53,26.61-6.79,39.92-1.29,6.75-2.68,13.49-3.82,20.26-.4,2.43-.77,4.72-2.77,6.39-5.15,2.77-9.45,1.22-13.28-2.63-.02-1.37-.03-2.73-.05-4.1,2.91-17.82,5.82-35.63,8.73-53.45.72-4.35,1.43-8.69,2.15-13.05,3.44.5,6.92.81,10.3,1.55,2.69.59,5.86,1.07,5.53,5.1h.01Z"/>
          <path class="cls-30" d="M362.6,219.99c26.28-.58,51.45,4.48,75.56,14.91-2.27,3.87-6.18,3.27-9.75,3.58-2.22-.52-4.35-.11-6.43.66-5.02.72-10.09.81-15.11,1.62-5.15.84-10.03-.3-14.84-2.22-10.23-4.07-20.5-8.03-30.99-11.39-3.04-1.83-7.17-2.31-8.23-6.62,3.16-1.92,6.48-1.11,9.79-.57v.02Z"/>
          <path class="cls-34" d="M435.69,56.46c7.68,5.48,13.03,13.27,19.21,20.14,9.16,10.17,19.59,19.24,27.22,30.76-21.73-13.25-43.03-27.16-63.95-41.64,4.78-3.02,10.46-4.38,14.87-8.08.88-.39,1.77-.78,2.65-1.17h0Z"/>
          <path class="cls-32" d="M427.52,236.21c3.53-.63,7.33,1.14,10.64-1.3,2.17.02,2.42,1.06.75,2.09-14.45,8.99-28.99,17.82-43.4,26.86-2.56,1.61-3.97.62-5.64-1.12-13.6-14.21-27.23-28.38-40.85-42.57,1.93-1.39,3.06-.12,4.15,1.27,3.04.66,5.93,1.62,8.02,4.14,8.38,3.12,13.76,10.19,20.32,15.67,8.17,6.81,19.75,8.43,28.79,3.02,4.2-2.52,8.55-4.63,13.13-6.25,1.33-.68,2.93-.75,4.11-1.79h0Z"/>
          <path class="cls-6" d="M436.98,158.83c.27-9.73,3.15-12.36,13.33-12.22,4.78,2.49,7.55,6.23,6.32,11.77-.87,3.89-3.36,6.59-7.55,7.35-6,1.11-9.57-1.96-12.09-6.92h0Z"/>
          <path class="cls-6" d="M379.62,131.92c4.46-.13,8.89.05,11.19,4.74,2.24,4.56,1.17,8.83-1.85,12.7-7.62,3.19-12.84,2.14-15.61-3.15-2.83-5.4-.45-10.86,6.26-14.3h0Z"/>
          <path class="cls-35" d="M468.88,128.24c-10.56-4.92-21.12-9.83-31.68-14.75,6.1-3.51,13.2-2.65,19.67-4.56,2.03-.6,2.76.88,3.45,2.25,2.88,5.67,5.7,11.38,8.55,17.06h.01Z"/>
          <path class="cls-16" d="M408.64,106.84c-6.52.07-13.05.13-19.58.21-4.84.03-9.88,2.45-14.43-1.2,2.32-1.22,4.86-2.18,6.95-3.73,7.58-5.65,14.82-6.61,21.95.73,1.49,1.53,3.39,2.69,5.09,4.01h.01Z"/>
          <path class="cls-20" d="M459.47,207.9c2.45,4.49,2.83,9.59,4.27,14.38,1.02,3.39-1.52,4.49-3.59,5.22-1.91.67-4.74,4.04-6.21-.73,1.85-6.29,3.68-12.58,5.53-18.87Z"/>
          <path class="cls-2" d="M399.64,194.88c4.43.88,8.86,1.76,13.28,2.63-.87,4.77-5.53,5.82-8.5,9.28-2.07-4.23-4.63-7.56-4.78-11.93h0Z"/>
          <path class="cls-26" d="M374.63,105.84c4.65,2.33,9.65.34,14.43,1.2-5.64,2.44-11.57.65-17.34,1.16.49-1.39,1.56-2.05,2.92-2.36h-.01Z"/>
          <path class="cls-7" d="M353.15,221.44c-1.38-.43-2.77-.84-4.15-1.27,4.5-2.64,9.04-1.06,13.6-.18-3.08.93-6.59-.93-9.45,1.44Z"/>
          <path class="cls-34" d="M298.43,138.95c8.87-8.22,17.75-16.42,26.57-24.69,2.41-2.26,4.56-4.78,6.83-7.18.46-.02.9-.05,1.36-.07-7.06,14-15.94,26.92-24.03,40.31-2.93,4.86-5.07,10.29-9.36,14.27-3.69-7.35-4.87-14.85-1.38-22.63h.01Z"/>
          <path class="cls-29" d="M298.43,138.95c.46,7.54.91,15.09,1.38,22.63-.95,10.62,1.66,21.09,1.27,31.68-.08,2.35.69,4.92-1.28,6.94-6.69,3.34-13.99,3.61-21.23,4.35-9.87,1.01-19.81,1.06-29.68,2.14-2.65.29-5.29-.11-7.76-1.28-5.66.03-11.35-.08-16.91,1.21,7.22-7.9,15.01-15.15,23.69-21.43,5.72-4.15,12.3-3.6,18.8-3.41,4.29,1.28,8.36-.37,12.34-1.4,4.35-1.11,2.43-4.92,2.42-7.8.59-6.31-2.85-12.81.88-18.96,4.8-5.51,10.59-9.92,16.07-14.67h.01Z"/>
          <path class="cls-34" d="M241.14,205.4c5.57-2.59,11.65-1.24,17.45-1.97,13.66-1.7,27.47-2.23,41.21-3.24-13.21,10.71-27.54,19.83-41.58,29.37-3.8,2.58-6.99,6.18-11.64,7.45-1.81-10.54-3.63-21.07-5.45-31.61h0Z"/>
          <path class="cls-21" d="M234.44,297.41c-22.17,6.23-44.34,12.48-66.52,18.71-.36-9.82,2.46-19.33,2.77-29.08,22.58-2.84,45.14-5.68,67.72-8.52-1.33,6.29-2.64,12.59-3.97,18.9Z"/>
          <path class="cls-9" d="M228.03,747.57c-3.67-8.81-7.35-17.64-11.02-26.46,11.81,2.83,16.8-4.87,21.31-13.61,2.53-4.89,5.52-9.55,8.3-14.31-.52-2.43.81-4.26,1.96-6.15,13.16-21.55,26.6-42.93,40.08-64.29,1.64-2.58,3.08-5.59,7.01-5.06,2.7.95,4.1,3.27,5.58,5.44,14.31,21.01,28.36,42.19,42.95,63,1.83,2.61,2.61,5.5,3.45,8.43,5.34,7.96,10.69,15.93,16.03,23.89,4.29,6.66,5.05,13.79,2.9,21.32-.19.45-.15.87.12,1.28-.08.84-.17,1.69-.25,2.53,1.28,2.62-.19,5.57.99,8.2v2.61c-7.48-2.22-15.3-1.68-22.92-2.31-11.6-.96-23.23-1.57-34.82-2.82-10.58-1.15-21.09.81-31.62,1.63-9.19.72-18.32,2.23-27.58,2.23-4.69-4.7-11.13-1.77-16.49-3.73-1.93-.71-4.32-.06-5.99-1.83h0Z"/>
          <path class="cls-17" d="M282.35,153.63c.12,6.64,2.09,13.14,1.38,19.83-3.58,6.26-10.1,8.03-16.13,10.57-6.56.39-13.14.78-19.7,1.16,10.58-11.51,22.63-21.4,34.45-31.57h0Z"/>
          <path class="cls-8" d="M367.46,751.79c-1.88-2.55-1.08-5.41-.99-8.2,1.46,2.59,1.16,5.4.99,8.2Z"/>
          <path class="cls-18" d="M347.67,694.58c-17.29-25.37-34.58-50.73-51.87-76.11-.84-.61-1.98-1.05-1.45-2.47,10.75-7.33,18.5-18.14,29.3-25.43,10.2,21.86,20.41,43.72,30.61,65.59,4.5,9.63,8.98,19.28,13.47,28.92-5.08,1.93-10.19,3.8-15.24,5.81-1.91.76-4.51.77-4.82,3.67h.01Z"/>
          <path class="cls-1" d="M366.59,739.8c-1.3-7.06-2.63-14.12-2.9-21.32,10.74-4.98,21.96-8.62,33.28-12.03-8.66,10.23-17.31,20.47-25.98,30.68-1.15,1.35-2.45,2.57-4.4,2.68h0Z"/>
          <path class="cls-31" d="M294.34,616c.49.82.96,1.65,1.45,2.47-3.28-.24-3.75,2.69-4.97,4.6-14.78,23.34-29.48,46.74-44.21,70.12-5.35-.49-10.88,1.04-16.07-1.35,10.99-29.63,22.01-59.27,32.98-88.91,1-2.69,1.5-5.62,4.36-7.15,9.09,6.4,16.98,14.37,26.48,20.22h-.01Z"/>
          <path class="cls-33" d="M424.82,238.71c-3.31,1.76-7.06,3-9.84,5.38-8.44,7.23-17.72,6.14-27.38,3.84-2.77-.66-4.68-2.28-6.63-4.1-6.57-6.11-13.2-12.17-19.81-18.26,7.21.33,13.71,3.42,19.81,6.55,13.24,6.8,26.99,6.77,41.11,5.16,1.37-.4,2.91-1.13,2.74,1.43h0Z"/>
          <path class="cls-28" d="M424.82,238.71c-.91-.48-1.83-.95-2.74-1.43,1.67-1.07,3.55-1.11,5.43-1.08-.39,1.38-1.23,2.28-2.7,2.51h0Z"/>
          <path class="cls-22" d="M267.62,184.03c4.73-4.51,10.67-7.17,16.13-10.57.28,1.95.46,3.93.86,5.85.49,2.27-.37,3.33-2.6,3.52-4.79.39-9.59.8-14.38,1.2h0Z"/>
        </g>
      </g>
    </g>
  </g>
</svg>