<?xml version="1.0" encoding="UTF-8"?>
<svg xmlns="http://www.w3.org/2000/svg" version="1.1" viewBox="0 0 636.44 800">
  <defs>
    <style>
      .cls-1 {
        fill: #bbc35a;
      }

      .cls-2 {
        fill: #556837;
      }

      .cls-3 {
        fill: #2b2b2b;
      }

      .cls-4 {
        fill: #788a5c;
      }

      .cls-5 {
        fill: #617d43;
      }

      .cls-6 {
        fill: #e2c9b7;
      }

      .cls-7 {
        fill: #799a5b;
      }

      .cls-8 {
        fill: #e9ec87;
      }

      .cls-9 {
        fill: #607343;
      }

      .cls-10 {
        fill: #8a7a6f;
      }

      .cls-11 {
        fill: #8e6f5c;
      }

      .cls-12 {
        fill: #dcdcdb;
      }

      .cls-13 {
        fill: #d9bca6;
      }

      .cls-14 {
        fill: #528664;
      }

      .cls-15 {
        fill: #9c9fa0;
      }

      .cls-16 {
        fill: #c3c3c3;
      }

      .cls-17 {
        fill: #2d2c2c;
      }

      .cls-18 {
        fill: #bc977e;
      }

      .cls-19 {
        fill: #886a57;
      }

      .cls-20 {
        fill: #538b70;
      }

      .cls-21 {
        fill: #464646;
      }

      .cls-22 {
        fill: #695f59;
      }

      .cls-23 {
        fill: #bc977d;
      }

      .cls-24 {
        fill: #4f5252;
      }

      .cls-25 {
        fill: #8d705b;
      }

      .cls-26 {
        fill: #2c2c2b;
      }

      .cls-27 {
        fill: #6e7073;
      }

      .cls-28 {
        fill: #46765f;
      }

      .cls-29 {
        fill: #538c70;
      }

      .cls-30 {
        fill: #474646;
      }

      .cls-31 {
        fill: #c7d6cf;
      }

      .cls-32 {
        fill: #a1be76;
      }

      .cls-33 {
        fill: #4a5e2c;
      }

      .cls-34 {
        fill: #6aab8b;
      }

      .cls-35 {
        fill: #856754;
      }
    </style>
  </defs>
  <!-- Generator: Adobe Illustrator 28.7.1, SVG Export Plug-In . SVG Version: 1.2.0 Build 142)  -->
  <g>
    <g id="Layer_1">
      <g>
        <path class="cls-9" d="M100.7,752.96c2.89-23.05,5.71-46.12,8.68-69.16,5.44-42.18,10.97-84.35,16.47-126.52,5.56-42.61,11.15-85.21,16.7-127.82,1.16-8.91,2.24-17.84,3.36-26.76,1.39-2.67,3.46-1.74,4.84-.42,9.99,9.6,20.73,18.52,28.54,30.2.73,1.09,1.06,2.37,1.15,3.71.89,10.39-1.42,20.54-2.48,30.76-4.6,44.5-9.39,88.98-14.23,133.45-3.56,32.7-6.89,65.43-10.52,98.12-.17,1.53-.39,3.05-.87,4.51-5.21,6.73-11.13,12.88-16.95,19.09-8.39,8.95-17.71,17.02-25.41,26.65-1.76,2.21-3.76,4.36-6.41,5.56-1.23.55-3.1,1.55-2.87-1.36Z"/>
        <path class="cls-33" d="M452.06,472.72c.88,19.5,1.88,38.99,2.62,58.49,1.98,52.61,3.84,105.22,5.71,157.83.1,2.69.43,5.1,2.15,7.36,14.77,19.33,29.45,38.72,44.16,58.09.76,2.44-.63,4.05-2.61,4.46-12.88,2.64-25.33,7.6-38.76,7.31-3.24-1.75-2.05-4.33-1.14-6.75,1.29-3.43,3.55-6.4,5.32-10.22-6.54-.47-11.69,5.9-18.09,2.69-11.55-10.68-22.66-21.79-33.4-33.27-1.68-1.79-2.82-3.88-3.34-6.32-.63-3.05-.5-6.12-.5-9.18-.01-76.87-.01-153.73,0-230.6,0-3.7-.42-7.47,1.29-10.98,1.69-2.84,4.58-3.02,7.4-3.18,4.11-.24,8.26.22,12.35-.14,7.18-.62,15.89,7.1,16.84,14.42Z"/>
        <path class="cls-34" d="M178.6,434.29c-8.33-11.39-19.14-20.45-28.77-30.62-1.14-1.2-2.24-2.14-3.92-.97-.45-1.46.26-2.62.98-3.77,3.15-3.25,7.25-2.99,11.07-2.4,9.35,1.43,18.74,1.19,28.09.93,11.6-.33,23.04,1.67,34.59,1.71,17.67-1.62,35.26,1.66,52.9.96,13.98-.56,27.84,1.91,41.8,1.46,1.96-.06,3.92.29,5.73,1.14,2.1,1.03,3.47,2.83,3.98,4.98,3.54,14.88,7.89,29.6,9.11,44.95-.17.76-.48,1.46-.91,2.11-2.48,2.93-6.07,3.08-9.44,3.66-7.03,1.2-14.04,2.49-21.12,3.36-28.09,4.75-56.09,10.14-84.36,13.79-2.84-.26-4.51-2.31-6.4-4.11-10.23-9.74-19.11-20.76-29.17-30.65-1.93-1.9-2.85-4.32-4.18-6.54Z"/>
        <path class="cls-4" d="M220.7,401.29c-21.74-1.37-43.57-.35-65.29-2.35-2.81-.26-5.68-.02-8.52-.01.5-9.67,1.01-19.34,1.51-29.01-2.66-12.29.59-24.39,1.45-36.53.99-13.95,1.44-28.01,4.56-41.74.81-3.62,3.62-5.15,6.73-6.27,4.24-1.52,8.46-3.1,12.82-4.27,9.69-3.37,19.45-6.51,29.16-9.83,2.53-.86,5.32-2.57,7.73.44,1.71,19.98,3.83,39.92,5.25,59.93,2.66,20.37,3.41,40.92,5.63,61.33.3,2.81.56,5.7-1.03,8.31Z"/>
        <path class="cls-9" d="M472.16,313.23c15.89,24.19,31.78,48.37,47.64,72.57,1.29,1.97,3.25,3.62,3.28,6.27-6.24,4.49-13.73,4.18-20.76,4.92-22.36,2.38-44.64,5.36-66.99,7.81-4.1.45-8.3,1.18-11.98-1.65-2.16-2.99-1.36-6.37-.96-9.55,4.99-39.36,8.86-78.85,14.18-118.17.38-2.8.38-5.78,3.18-7.55,2.85-.78,4.59,1.02,5.95,2.98,8.19,11.77,16.09,23.75,23.9,35.77,1.3,2,1.28,4.57,2.55,6.61Z"/>
        <path class="cls-3" d="M210.13,271.27c-11.81,3.88-23.63,7.76-35.44,11.64-2.53-2.05-2.93-5.07-2.5-7.81,2.19-14.13.02-28.47,2.23-42.6.48-3.08,1.1-6,2.47-8.77,1.07-22.86,2.15-45.72,3.22-68.58.93-3,.39-6.08.4-9.11.01-3.29,1.64-3.67,4.2-2.78,1.89.66,3.44,1.9,4.99,3.1,8.14,6.27,15.91,13.01,24.2,19.08,4.17,3.05,4.8,7.58,6.06,11.95,1.4,10.96,2.65,21.92,2.79,32.99.98,9.9,1.78,19.81,2.72,29.71-.22,2.22-.32,4.44-.02,6.66.36,2.85.88,5.68,1.14,8.55-.03,2.19-.11,4.38.16,6.57.07,1.92-.29,3.73-1.37,5.36-4.62,3.09-9.31,5.96-15.26,4.02Z"/>
        <path class="cls-31" d="M464.15,765.17c13.33-2.72,26.65-5.45,39.98-8.17,1.4-.29,2.35-1.02,2.57-2.51,5.58,4.88,12.84,3.55,19.3,5.07,9.94,2.34,20.06,3.93,30.21,6.75-13,2.19-26,4.4-39.01,6.58-30.51,5.1-61.03,10.2-91.54,15.27-14.4,2.39-28.74,5.67-43.23,6.67-7.61.52-15.66-.39-23.48-.99-18.91-1.45-37.81-2.9-56.75-3.94-22.4-1.23-44.74-3.53-67.14-4.96-8.92-.57-17.87-.71-26.81-1.33-8.48-.59-16.91-2.23-25.48-1.61-.91.07-1.9-.85-2.85-1.32,2.97-3.03,6.85-2.42,10.48-2.44,18.75-.09,37.49-.01,56.24-.05,8.07-.02,8.07-.05,10.02-8.08.42-1.72.96-3.36,2.4-4.53,2.14-1.44,4.6-1.19,6.98-1.19,24.47-.04,48.95.03,73.42-.06,4.78-.02,8.67.8,10.39,5.92.59,1.76,2.09,2.86,3.68,3.58,9.72,4.41,18.97,9.9,29.32,12.86,8.88-3,17.1-7.52,25.71-11.15,3-1.27,5.95-2.72,9.23-3.21,9.72-1.11,19.47-.37,29.21-.48,5.09-.06,10,.05,13.14-5.06.79-1.29,2.37-1.85,4.03-1.63Z"/>
        <path class="cls-24" d="M217.82,176.29c-.58-5.73-4.59-8.76-8.81-11.94-8.83-6.64-17.37-13.65-26.28-20.71-2.89,3.84-.06,8.3-2.62,11.51-.07-19.61,1.24-39.17,2.13-58.75.13-2.82.04-5.66.05-8.49.15-5.12.3-10.25.44-15.37.97-5.86.19-11.76.46-17.64.69-2.79.57-5.63.67-8.48.2-5.26,1.87-6.34,6.5-3.86,5.42,2.9,9.89,7.22,15,10.6,6.57,4.35,12.89,9.06,19.29,13.65,4.04,2.9,6.35,6.56,5.86,11.69-1.7,22.05-5.16,43.88-7.93,65.8-1.07,8.47-2.58,16.9-2.46,25.49.03,2.39.06,4.89-2.31,6.48Z"/>
        <path class="cls-3" d="M432.39,132.79c1.67,30.89,3.34,61.79,5.03,92.68.08,1.53.38,3.04.58,4.56,3.3,11.77,5.3,23.62,1.94,35.76-.6.65-1.32,1.4-2.15,1.39-12.97-.26-26.04.24-38.41-4.84-2.68-5.42-.83-11.11-.62-16.62.23-6.03.94-12.09,1.46-18.13.13-13.3,1.73-26.49,2.75-39.73,1.11-14.33,2.1-28.67,3.35-42.98.36-4.13.2-8.32,2.64-11.97,5.66-5.11,12.84-4.71,19.71-5.23,3.52-.27,3.01,3,3.71,5.11Z"/>
        <path class="cls-34" d="M423.56,402.64c15.13.29,29.96-2.74,44.92-4.26,18.23-1.85,36.4-4.19,54.6-6.31-12.72,14.87-25.42,29.76-38.18,44.6-5.54,6.44-11.21,12.75-16.83,19.12-2.21.91-4.38,1.88-6.89,1.57-12.49-1.52-24.97-3.11-37.36-5.33-2.14-.38-4.23-1.01-5.91-2.53-1.21-1.44-1.52-3.18-1.29-4.94,1.76-13.43,2.27-27.02,5.32-40.28.37-.71.91-1.26,1.61-1.65Z"/>
        <path class="cls-8" d="M176.89,223.74c-.73,19.72-1.47,39.45-2.2,59.17-6.08,2.99-13.28,3.28-18.76,7.72-1.85,3.74-5.52,5.4-8.67,7.67-7.23,5.21-14.61,10.21-21.95,15.25-2.12,1.46-4.13,3.36-7.08,2.33.1-17.43,2.43-34.7,3.73-52.04.18-2.36,1.6-3.46,3.21-4.57,17.24-11.85,34.48-23.69,51.73-35.53Z"/>
        <path class="cls-7" d="M100.7,752.96c4.66.68,6.09-3.62,8.12-6.05,8.39-10.09,18.26-18.7,27.16-28.25,3.26-3.5,6.31-7.18,9.56-10.69,1.45-1.57,2.79-3.45,5.31-3.42,3.45,1.5,4.08,4.95,5.29,7.91,7,17.18,13.55,34.55,21.28,51.45.27.7.46,1.41.61,2.14.18,4.59,1.42,9.31-1.76,13.45-3.96.11-3.83-3.21-3.82-5.45.04-5.87-3.45-7.19-8.28-7.8-18.36-2.31-36.8-3.97-55.11-6.65-3.4-.5-7.08-.39-9.25-3.86.3-.93.6-1.85.9-2.78Z"/>
        <path class="cls-12" d="M418.35,448.73c16.57,2.35,33.15,4.71,49.72,7.06-5.48,5.51-9.25,12.64-16.02,16.93-8.13-14.56-21.68-13.06-35.12-11.87-2.89,2.6-6.48,2.27-9.87,2.05-5.84-.39-10.45,1.5-14.34,5.89-2.39,2.71-4.87,5.58-8.75,6.37-3.72.25-6.33-1.99-8.34-4.52-5.17-6.48-11.76-8.6-19.75-7.71-2.81.31-5.69.19-8.52-.19-1.09-.02-2.18.31-3.26.2-9.61-1-18.31.19-23.8,9.56-.53.91-1.66,1.39-2.68,1.82-6.55-.99-14.3-8.62-15.04-14.8,10.05-1.86,20.28-2.68,30.16-5.48,3.49-3.21,8.03-3.16,12.29-3.91,7.54-1.33,15.07-2.73,22.72-3.32,14.86-1.16,29.73-.4,44.59-.41,2.26,0,4.26.89,6.01,2.33Z"/>
        <path class="cls-31" d="M99.8,755.74c21.01,2.65,42.02,5.29,63.03,7.94.22.03.44.02.66.04q10.91.93,11.38,11.96c.06,1.3-.1,2.65.99,3.67.43.32.57.75.41,1.26-18.53.1-36.96-1.33-55.36-3.37-8.66-.96-17.38-.5-26.1-1.45-15.33-1.68-30.81-2.06-46.54-4.18,17.18-5.29,34.35-10.57,51.53-15.86Z"/>
        <path class="cls-29" d="M176.28,780.61c-.14-.42-.27-.84-.41-1.26.01-4.77.03-9.55.04-14.32,1.04-2.44,3.13-3.53,5.5-4.2,9.86-2.79,19.56-6.1,29.39-8.99,5.02-1.48,9.88-1.1,14.78.48,7.68,2.47,15.46,4.59,23.12,7.13,3.32,1.1,6.68,2.07,10.25,1.15,2.21.48,2.56,2.05,2.32,3.97-.26.65-.62,1.25-1.09,1.77-1.74,2.6-1.06,5.56-.86,8.28.35,4.74-1.64,5.92-6.08,5.9-24.44-.08-48.88.09-73.32.18-1.21-.03-2.43-.06-3.64-.09Z"/>
        <path class="cls-24" d="M432.39,132.79c-1.18-1.9-1.68-4.01-5.17-3.05-5.54,1.52-11.37,2.04-17.07,2.98-2.25-1.94-2.54-4.66-2.3-7.25,1.64-17.22,1.8-34.57,4.59-51.68.95-3.48,3.98-5.02,6.58-6.96,4.54-3.4,9.2-6.65,13.84-9.9,2.2-1.54,4.42-3.93,7.6-1.88.89,4.91-2.29,9.52-1.06,14.45-2.65,21.06-5.49,42.1-7.02,63.29Z"/>
        <path class="cls-1" d="M118.22,315.88c11.07-7.57,22.14-15.15,33.24-22.7,1.41-.96,2.98-1.71,4.47-2.55-1.39,16.51-2.75,33.02-4.17,49.53-.66,7.6-1.42,15.2-2.15,22.8-.22,2.35.47,4.86-1.2,6.96-10.51-17.76-20.64-35.73-30.18-54.04Z"/>
        <path class="cls-1" d="M472.16,313.23c-10.13-14.94-20.25-29.88-30.38-44.82-1.08-.74-2.22-1.44-1.46-3.06,6.41-7.05,14.75-11.52,22.5-16.76,2.7-1.82,4.52-.54,5,2.61,1.45,20.67,2.89,41.35,4.34,62.02Z"/>
        <path class="cls-8" d="M467.81,251.21c-1.52-2.57-2.93-2.06-5.17-.46-7.25,5.2-14.75,10.06-22.15,15.05-.41.4-.82.42-1.22-.02-.43-11.92-.85-23.84-1.28-35.76,9.93,4.2,18.42,10.88,27.72,16.17,1.98,1.12,2.61,2.84,2.1,5.02Z"/>
        <path class="cls-27" d="M184.07,53.74c-.13-15.5-1.44-11.84,10.76-17.83,5.63-2.76,11.23-5.59,16.84-8.39,14-6.56,28-13.13,42.02-19.66,2.14-1,4.38-1.78,6.58-2.66,2.21,1,4.21,2.19,5.76,4.2,19.42,25.19,39.43,49.93,58.87,75.12,1.48,1.91,4.91,3.98,1.39,7.11-6.45,1.15-12.59-.94-18.75-2.07-21.71-3.95-43.4-7.99-65.13-11.81-3.82-.67-7.7-1.93-11.56-.03-.72.23-1.42.17-2.09-.19.21-3.86-1.5-6.3-4.76-8.54-10.75-7.42-21.18-15.29-31.83-22.86-1.86-1.32-3.59-3.21-6.22-3.31-1.78,3.59.42,7.64-1.87,10.89Z"/>
        <path class="cls-24" d="M327.33,90.53c-22.36-28.44-44.71-56.88-67.07-85.32,36.88-.07,73.76-.14,110.63-.21,1.09,0,2.19,0,2.9,1.06-4.03,11.66-11.05,21.82-16.59,32.71-7.84,15.41-15.94,30.7-24.02,46-1.12,2.12-2.03,4.39-4.02,5.92-.65.34-1.26.28-1.84-.16Z"/>
        <path class="cls-21" d="M328.64,90.46c6.71-16.85,16.59-32.11,24.46-48.38,4.93-10.18,10.67-19.97,16.05-29.94,1.23-2.27,1.94-4.94,4.65-6.08.72.19,1.43.38,2.15.57,3.4-.1,5.61,2.31,8.08,4,14.1,9.7,28.01,19.67,41.75,29.87,2.14,1.59,4.13,3.26,5.32,5.7,2.49,3.62,8.22,3.8,9.37,8.84-7.36,3.01-12.92,8.73-19.43,13-2.37,1.55-4.84,2.94-7.27,4.41-1.25,2.81-3.92,3.33-6.47,3.88-23.96,5.16-47.93,10.29-71.93,15.27-2.33.48-4.79,1.07-6.72-1.13Z"/>
        <path class="cls-33" d="M175.89,763.77c-4.67-5.13-5.96-11.94-8.59-18.03-5.86-13.58-11.01-27.45-16.46-41.2-.31-13.11,2.26-25.98,3.3-38.98,1.15-14.32,3.1-28.57,4.69-42.85,2.1-18.82,4.24-37.64,6.27-56.47,1.5-13.86,2.8-27.74,4.28-41.6,1.55-14.51,3.29-28.99,4.77-43.5,1.59-15.6,2.98-31.23,4.45-46.84,13.62,12.35,25.3,26.57,38.12,39.69,1.86,1.78,2.48,4.08,2.49,6.52.04,8.46.6,16.93-.31,25.37-.07.8-.11,1.61-.1,2.42-.5,11.85-.76,23.73-2.58,35.49-.23,13.57-2.36,26.97-3.74,40.43-3.06,29.78-6.56,59.51-9.48,89.3-.11,1.15-.14,2.32-.24,3.47-1.58,14.51-2.89,29.07-5.25,43.49-4.77,13.58-11.8,26.17-17.44,39.38-.8,1.88-2.38,3.07-4.19,3.94Z"/>
        <path class="cls-15" d="M383.96,473.98c.68-.55,1.56-.96,2.02-1.66,7.53-11.39,18.51-13.39,30.95-11.46,0,84.68.01,169.37.02,254.05,4.6,13.34,2.09,27.02,1.97,40.58-.17,6.24,2.38,12.76-1.96,18.56-11.04,4.98-22.08,9.97-33.11,14.95-2.98-.7-3.25-3.23-3.68-5.59-.35-1.94-.22-3.93-.22-5.9-.01-97.06-.02-194.12.04-291.19,0-4.44-1.1-9.45,3.97-12.35Z"/>
        <path class="cls-20" d="M416.96,774.05c0-6.06,0-12.12.01-18.18.54-.49,1.17-.77,1.89-.85,7.54-.14,15.13,1.07,22.59-.84,3.56-1.35,7.17-2.58,10.85-3.59,6.04,1.53,10.57-2.86,15.92-4.06,1.41-.32,2.86-1.93,4.19-.58,1.4,1.41-.23,2.82-.84,4.07-2.48,5.04-6.31,9.42-7.44,15.13-4.23,10.19-12.89,9.5-21.67,9.13-8.49-.36-17.01-.19-25.52-.25Z"/>
        <path class="cls-34" d="M418.19,755.88h-.61s-.61,0-.61,0c0-13.65-.01-27.31-.02-40.97,11.79,11.9,23.58,23.8,35.36,35.7-1.61,4.34-6.4,3.05-9.23,5.24-8.3,1-16.6.96-24.9.03Z"/>
        <path class="cls-9" d="M220.7,401.29c-2.65-4.61-1.65-9.91-2.19-14.78-2-18.22-3.01-36.54-4.4-54.82,2.78-2.21,5.89-1.29,8.83-.74,32.01,6.06,63.99,12.24,95.99,18.36,2.78.53,5.6,1.14,7.67,3.39,3.4,5.63.9,11.56.39,17.19-1,11.15-.17,22.58-4.04,33.4-.3.27-.61.53-.91.79-33.78-.93-67.56-1.86-101.34-2.78Z"/>
        <path class="cls-9" d="M216.77,506.82c-.02-10.95-.03-21.9-.05-32.85,28.62-4.82,57.25-9.64,85.87-14.45,4.36,5.08,8.97,9.9,14.15,14.16,1.3.97,2.07,2.33,2.2,3.88.74,8.7.86,17.4-.11,26.09-.15,1.3-.82,2.48-1.73,3.47-2.41,2.06-5.36,1.65-8.16,1.66-28.04.05-56.08.04-84.12,0-2.82,0-5.77.33-8.05-1.95Z"/>
        <path class="cls-18" d="M366.74,448.81c-11.3,1.94-22.54,4.32-34,5.23-.02-.44,0-.88.07-1.31.15-10.31,1.73-20.44,3.53-30.56.84-4.74,2.85-8.46,6.64-11.62,8.89-7.42,17.48-15.22,26.75-22.2,1.08-.44,2.14-.73,3.01.41.42.67.69,1.39.82,2.17-.31,16.15-2.6,32.17-3.27,48.31-.14,3.48-.73,7-3.56,9.57Z"/>
        <path class="cls-13" d="M370.73,389.75c-9.68,8.18-19.35,16.39-29.06,24.54-3.67,3.09-2.77,7.64-3.73,11.55-2.19,8.86-1.74,18.25-5.13,26.89-3.59-16.22-7.18-32.44-10.77-48.66,0,0-.05-.07-.05-.07,1.5-2.71,4.05-3.83,6.87-4.58,11.4-3.05,22.56-6.88,33.9-10.12,2.66-.76,5.45-2.09,7.97.46Z"/>
        <path class="cls-34" d="M325.99,352.73c-24.44-4.57-48.89-9.13-73.32-13.72-12.86-2.41-25.7-4.88-38.55-7.33-1.75-17.37-3.54-34.74-5.2-52.13-.27-2.79-.56-5.73,1.21-8.29,4.75-1.47,9.49-2.94,14.24-4.41,5.53,1.62,3.27,6.76,4.65,10.26.71,7.42,2.66,14.66,3.29,22.09.44,5.17,3.38,7.44,8.1,8.91,24.47,7.61,49.19,14.36,73.77,21.57,4.17,1.22,8.59,2.03,11.69,5.56,3,5.41,3.35,10.98,1,16.72-.29.26-.59.51-.89.77Z"/>
        <path class="cls-7" d="M439.28,265.78c.41-.11.81-.11,1.22.02.43.87.85,1.74,1.28,2.61-4.85,3.79-3.02,9.57-3.67,14.31-3.47,25.23-6.24,50.55-9.26,75.83-1.76,14.7-3.53,29.39-5.29,44.09,0,0-.22.52-.22.52-4.13,2.53-8.13.48-12.03-.55-21.93-5.79-18.64-5.38-18.78-23.9-.11-13.8-.16-27.6.06-41.38.13-3.07,2.1-5.17,3.85-7.43,5.37-6.97,5.66-14.34.88-21.91-1.17-1.85-2.58-3.58-2.58-5.93-.13-5.88,0-11.74,1.4-17.49.49-7.74-.7-15.76,3.75-22.84,13.14,1.36,26.27,2.71,39.41,4.07Z"/>
        <path class="cls-18" d="M228.75,77.55c.34-.11.68-.21,1.03-.29,4.03,3.68,3.53,8.72,3.92,13.42,1.22,14.59,2.49,29.18,3.56,43.78,1.89,25.73,4.59,51.39,5.89,77.16.09,1.75.32,3.49-.27,5.19-.78,1.97-2.44,2.51-4.23,2.07-6.5-1.61-13.03-3.23-17.78-8.53-1.01-11.36-2.03-22.71-3.04-34.07-.35-27.2,6.02-53.67,8.8-80.54.63-6.08,1.42-12.14,2.13-18.2Z"/>
        <path class="cls-35" d="M220.87,210.37c6.96,2.68,13.91,5.36,20.87,8.04.3.27.61.54.91.8,2.47,4.15,1.91,8.93,2.34,13.39,1.3,13.65,1.76,27.38,2.77,41.06.13,1.76-.18,3.48-1.12,5.03-2.9,3.62-7.37,1.45-10.85,2.95-3.81.82-6.6-.64-8.6-3.86-2.74-3.18.5-7.89-2.81-10.92.15-1.71.3-3.42.45-5.12.73-2.14.81-4.27-.05-6.39-.69-2.66-1.79-5.26-1.23-8.12.67-2.13.79-4.26-.08-6.37-1.7-10.09-2.51-20.26-2.6-30.49Z"/>
        <path class="cls-11" d="M224.78,255.34c1.69,2.12,1.68,4.25.05,6.39-.02-2.13-.03-4.26-.05-6.39Z"/>
        <path class="cls-25" d="M223.47,240.85c1.69,2.11,1.65,4.23.07,6.38-.02-2.13-.05-4.25-.07-6.38Z"/>
        <path class="cls-16" d="M383.96,473.98c-1.64,2.57-1.33,5.46-1.34,8.3-.03,99.72-.07,199.44-.06,299.16,0,2.56-.7,5.31,1.29,7.56-3.81,1.36-6.6-1.48-9.63-2.67-6.9-2.73-13.54-6.13-20.26-9.31-3.5-1.66-7.12-2.79-7.24-8.08-.08-3.82-4.04-2.46-6.38-2.47-26.72-.12-53.43-.11-80.15-.14-.06-.41-.06-.82,0-1.24,2.95-3,6.77-2.68,10.47-2.69,21.65-.05,43.29.01,64.94-.04,8.51-.02,8.73-.32,8.83-8.92.24-21.21-.53-42.43.43-63.64-.76-47.9-.64-95.79-.07-143.69.01-.87-.01.22.06-.65-.57-12.23-.77-24.46.05-36.69.05-.85.05-1.69-.01-2.54-.94-13-.34-26.02-.32-39.03,0-2.45.74-4.71,2.54-6.5,1.53,0,3.07.17,4.57-.02,11.28-1.49,21.1.62,27.88,10.81.97,1.46,2.52,2.41,4.42,2.48Z"/>
        <path class="cls-13" d="M241.73,218.4c-1.32-16.04-2.58-32.09-3.97-48.13-1.62-18.86-3.38-37.7-5.01-56.55-1.05-12.14-1.98-24.3-2.97-36.45-.15-4.15,2.18-3.71,5.18-3.17,30.78,5.55,61.58,10.97,92.37,16.43.44-.02.87-.04,1.31-.06,28.38-6.01,56.75-12.01,85.13-18.02.27,15.37-1.97,30.58-2.94,45.87-.31,4.8-.82,9.58-.67,14.4-2.15,25.94-4.29,51.89-6.46,77.83-.47,5.67-1.02,11.33-1.54,16.99-3.65,3.54-8.15,2.61-12.45,2.24-12.64-1.09-25.32-1.38-37.98-2.24-18.98-1.29-37.96-2.6-56.96-3.52-11.36-.55-22.69-1.6-34.08-1.83-6.47-.13-13.2.23-18.97-3.79,0,0,0,0,0,0Z"/>
        <path class="cls-18" d="M241.73,218.4c27.59,1.7,55.18,3.42,82.78,5.1,15.65.95,31.3,1.9,46.96,2.73,10.22.54,20.46.88,30.69,1.31.34,11.46-1.38,22.79-2.29,34.17-.51,7.96-1.03,15.92-1.54,23.88-6.44,4.1-13.2,2.54-19.95,1.14-.8-.18-1.6-.33-2.41-.41-29.3.64-58.48-1.83-87.7-3.21-11.13-.53-22.29-.3-33.4-1.51-3.22-.35-6.66.22-9.14-2.64-1.33-20.19-2.67-40.37-4-60.56Z"/>
        <path class="cls-13" d="M394.07,335.65c.04,17.88.24,35.76.02,53.64-.06,4.62,1.6,6.65,5.91,7.67,7.83,1.86,15.56,4.11,23.34,6.2-.69,15.3-3.41,30.37-4.98,45.57-17.2.03-34.41.05-51.62.08,1.36-17.83,2.69-35.67,4.12-53.5.16-1.93.89-3.82,1.36-5.73,4.03-2.94,8.06-.72,11.88.34,5.05,1.4,6.69-.15,6.64-5.22-.14-13.52-.09-27.04-.02-40.57.01-2.18,0-4.37.85-6.45.5-1.09,1.13-2.02,2.5-2.04Z"/>
        <path class="cls-34" d="M175.89,763.77c6.6-14.08,13.2-28.15,19.8-42.23,2.44-2.17,5.35-1.52,8.12-1.21,15.14,1.67,30.22,3.86,45.31,5.91,9.19,1.25,9.63,1.94,10.38,11.5.17,2.2.97,4.24,1.33,6.39.24,5.7,2.2,11.59-1.81,16.82.08,3.32-1.67,3.34-4.21,2.55-8.74-2.71-17.67-4.87-26.24-8.04-7.33-2.71-14.11-3.02-21.54-.3-10.2,3.74-20.72,6.61-31.11,9.86.03-.42.02-.84-.02-1.26Z"/>
        <path class="cls-7" d="M347.1,460.72c-.05,15.39-.1,30.77-.15,46.16-2.26,2.3-5.21,2-7.98,1.87-7.11-.34-14.31,1.11-21.33-.99-.29-.3-.57-.61-.86-.92-.01-11.05-.03-22.11-.04-33.16.1-.2.2-.39.3-.59,6.6-12.44,17.59-14.21,30.06-12.37Z"/>
        <path class="cls-33" d="M259.01,760.96c-.1-5.67-.21-11.35-.31-17.02-.48-11.02-3.09-22.16,1.9-32.86,1.86-5.02,2.52-10.36,4.08-15.47.69-2.25,1.23-4.56,3.06-6.24,3.14-1.97,6.34-.81,9.54-.18,13.73,2.71,27.2,6.58,40.97,9.04,7.1-2.11,13.8-5.28,20.72-7.86,2.57-.96,5.21-2.58,7.98-.41.08,23.62.05,47.25.31,70.87.05,4.68-2.41,4.7-5.76,4.67-27.11-.18-54.22-.29-81.32-.41-.14-1.45-.04-2.97-1.18-4.13Z"/>
        <path class="cls-7" d="M319.28,700.39c-10.14-.41-19.55-4.33-29.41-6.09-7.29-1.3-14.52-2.93-21.78-4.41-2.37.92-4.72.54-7.1,0-17.52-3.92-35.03-7.86-52.48-12.1-2.81-.68-5.48-1.52-7.54-3.68.24-16.22,2.99-32.22,4.54-48.32,1.78-18.5,3.96-36.96,5.96-55.43.96-8.92,1.91-17.83,2.86-26.75,2.58-2.66,5.96-2.39,9.23-2.5,28.72-.96,57.38,1.92,86.09,1.37,2.64-.05,5.27.3,7.47,2.05,2.35,2.72,2.16,6.06,2.29,9.33,1.84,46.1,1.21,92.22,1.34,138.33,0,2.81.48,5.73-1.46,8.21Z"/>
        <path class="cls-32" d="M316.9,545.21c-3.92-.07-7.85-.14-11.77-.2-30.27-.47-60.54-.94-90.81-1.4.83-11.78,1.65-23.55,2.48-35.33,2.21-1.47,4.69-.73,7.03-.73,30.88-.06,61.75-.04,92.63-.04,10.17.37,20.37-.76,30.52.59,0,12.33,0,24.67,0,37-10.01,4.04-20.04,3.91-30.08.1Z"/>
        <path class="cls-20" d="M262.75,711.01c-3.35,10.73-4.53,21.73-4.06,32.93-1.11-1.25-1.06-2.79-1.14-4.33-.51-10.26-.53-10.14-10.79-11.42-17.04-2.13-34.06-4.42-51.09-6.65,1.14-15.01,2.83-29.96,5.22-44.83,3.34-1.93,5.92.44,8.42,1.83,15.92,8.81,31.89,17.52,47.67,26.57,2.49,1.43,5.05,2.75,5.77,5.9Z"/>
        <path class="cls-28" d="M262.75,711.01c-17.13-9.68-34.21-19.44-51.42-28.96-3.4-1.88-6.29-4.88-10.43-5.33.02-.87.04-1.74.07-2.61,22.44,4.98,45.04,9.28,67.12,15.78-1.26,7.17-2.95,14.24-5.33,21.13Z"/>
        <path class="cls-2" d="M316.73,507.97c-33.31.1-66.62.2-99.93.31-.01-.48-.02-.97-.03-1.45,33.34,0,66.67.01,100.01.02,0,0,.02-.02.02-.02.49.28.65.55.46.79-.17.23-.35.35-.53.35Z"/>
        <path class="cls-14" d="M418.19,755.88c8.3,0,16.6-.02,24.9-.03-8.3,2.1-16.6,2.05-24.9.03Z"/>
        <path class="cls-7" d="M370.73,389.75c-16.52,3.82-32.48,9.53-48.74,14.25,1.33-17.09,2.66-34.18,4-51.27,0,0-.07-.01-.07-.01,1.45-1.66,3.08-3,5.2-3.8,11.19-4.24,22.4-8.41,33.68-12.39,3.06-1.08,6.39-2.16,8.71,1.59,2.2,6.85.92,13.89,1.13,20.83.21,6.98.13,13.98,0,20.97-.06,3.03.07,6.2-2.68,8.41-.41.47-.82.95-1.23,1.42Z"/>
        <path class="cls-16" d="M371.96,388.33c-.05-17.18-.11-34.37-.16-51.55-.18-.79.11-1.34.86-1.64,6.71,1.42,13.66-.47,20.33,1.52.05,17.54-.02,35.09.23,52.63.07,4.87-1.51,5.48-5.77,4.08-4.96-1.63-10.15-2.55-15.24-3.78-.07-.42-.16-.84-.25-1.26Z"/>
        <path class="cls-23" d="M377.27,284.26c.56.06,1.12.11,1.68.17,1.85,4.92-.31,9.64-.72,14.44-6.4,5.12-11.89,10.97-14.79,18.86-10.86,6.97-22.73,12.01-34.24,17.73-1.36.68-2.9,1.03-4.4.17-23.68-7.02-47.36-14.03-71.04-21.06-6.08-1.8-12.12-3.74-18.23-5.42-2.94-.81-4.31-2.45-4.7-5.45-1.11-8.65-2.42-17.28-3.65-25.91,2.65.84,4.94,2.69,7.88,2.68,3.62-.27,6.87,1.02,10.1,2.39,24.55,10.44,49.6,19.69,73.96,30.54,7.99,3.56,14.12,3.31,20.87-2.55,7.74-6.72,16.36-12.43,24.54-18.66,4-3.05,8.05-5.99,12.74-7.93Z"/>
        <path class="cls-28" d="M324.8,335.63c12.51-6.39,24.88-13.08,37.89-18.42,2.98,6.2,6.34,12.21,9.11,18.52.09.35.09.71,0,1.06-13.13,3.67-25.62,9.13-38.46,13.65-2.44.86-4.94,1.53-7.42,2.29-.02-5.72.45-11.47-1.13-17.09Z"/>
        <path class="cls-12" d="M371.81,335.72c-5.65-4.88-9.25-10.78-9.11-18.52,1.61-8.63,5.61-15.32,14.59-17.97,6.22-4.75,13.86-3.33,18.62,3.44,10.19,12.36,9.7,21.23-1.83,32.98-.36.34-.72.68-1.08,1.01-7.16,2.01-14.28,2.86-21.18-.94Z"/>
        <path class="cls-28" d="M395.9,302.67c-5.75-3.59-11.87-5.18-18.61-3.44-1.92-5.21.4-9.95,1.66-14.8,6.37,1.99,12.93.69,19.38,1.16-2.49,5.45.23,11.65-2.43,17.08Z"/>
        <path class="cls-35" d="M377.27,284.26c-9.08,9.24-21,14.98-30.17,23.91-11.11,10.81-21.29,11.31-35.36,4.52-23.77-11.47-48.83-20.25-73.34-30.21-1.19-.48-2.23-1.34-3.34-2.02,3.23-2.83,7.12-.93,10.66-1.5,33.82,1.35,67.65,2.34,101.43,4.27,10.05.57,20.07.71,30.11,1.03Z"/>
        <path class="cls-9" d="M316.9,545.21c10.03-.03,20.05-.07,30.08-.1,0,48.29-.01,96.57-.02,144.86-9.23,3.48-18.45,6.95-27.68,10.43-.95-3.61-1.17-7.28-1.17-11.02.02-32.36.44-64.72-.27-97.06-.35-15.7-1.17-31.39-.94-47.1Z"/>
        <path class="cls-5" d="M316.73,507.97c.03-.38.05-.76.07-1.14,10.05.02,20.1.04,30.15.05.15.4.17.81.03,1.22-10.08-.04-20.17-.09-30.25-.13Z"/>
        <path class="cls-6" d="M315.61,144.66c4.76-3.79,12.05-3.79,16.82,0,2.54,1.56,2.95,4.25,3.42,6.81,2.54,14.01,5.41,27.97,7.74,42.02.5,3.02.97,6.06-.46,9-1.38.93-2.77,1.86-4.15,2.79-10.42,7.14-20.83,4.77-31.25,0-2.27-1.84-1.21-4.45-1.56-6.74-2.32-2.06-1.94-4.75-1.47-7.3,2.44-13.29,4.58-26.63,7.39-39.85.54-2.53.97-5.2,3.51-6.73Z"/>
        <path class="cls-18" d="M343.14,202.49c-3.57-19.28-7.14-38.55-10.7-57.83.06-.47.12-.94.19-1.4,2.55-1.28,5.31-1.28,8.06-1.29,15.05-2.63,30.06-.28,45.07.49,6.14.32,10.51,3.86,13.92,8.73,1.8,2.33,1.89,2.55-.81,3.67-6.87,2.84-13.8,5.57-20.78,8.11-2.38.87-4.29,2.06-5.74,4.08-2.3-.97-2.39-3.5-3.68-5.19-2.11-2.77-4.89-3.54-8.11-2.62-2.84.81-4.25,2.94-4.47,5.8-.24,3.12,1,5.48,3.86,6.95,1.88.97,4.35.89,5.55,3.09-8.03,7.06-13.15,16.44-19.7,24.68-.79.99-1.77,1.82-2.66,2.73Z"/>
        <path class="cls-18" d="M315.61,144.66c-2.84,15.6-5.69,31.19-8.5,46.8-.42,2.34-.62,4.73-.93,7.09-1.16.76-1.55,4.98-3.76.49-4.31-8.79-9.01-17.39-13.56-26.06-.8-1.53-1.44-3.26-3.6-3.33-.37-.26-.71-.57-.84-.97-3.43-10.95-3.51-10.99-14.51-7.93-.65.18-1.29.07-1.86-.32-5.92-1.79-11.86-3.54-17.76-5.38-1.88-.59-4.71-.6-3.15-3.99,6.64-7.59,15.2-9.25,24.87-9.06,11.31.23,22.63-2.39,33.97-.09,2.33.15,4.75-.13,6.82,1.37,1.14.04,2.16.34,2.83,1.37Z"/>
        <path class="cls-21" d="M306.2,143.08c-13.06.51-26.12,1.3-39.18,1.41-5.27.04-9.82,1.09-14.04,4.13-1.72,1.24-3.38,2.88-5.84,2.44,3.44-5.79,7.01-11.5,10.26-17.39,1.5-2.71,3.02-3.49,6.2-2.73,14.59,3.47,29.25,6.61,43.89,9.87.76,1.44-.42,1.77-1.29,2.27Z"/>
        <path class="cls-30" d="M399.69,151.19c-10.2-9-23.04-6.27-34.88-7.57-7.99-.88-16.13-.37-24.2-.49-.89-.52-2.2-.81-1.34-2.34,14.93-3.18,29.88-6.25,44.77-9.62,3.24-.73,5.29-.48,6.8,2.71,2.77,5.86,7.56,10.68,8.85,17.3Z"/>
        <path class="cls-17" d="M268.05,160.42c3.64-3.7,7.93-5.65,12.82-3.05,4.91,2.6,5.82,7.14,4.4,12.27-3.23,5.2-7.76,7.28-13.34,4.34-5.65-2.98-6.13-8.02-3.87-13.56Z"/>
        <path class="cls-26" d="M365.51,175.08c-1.75-.07-3.59.2-5.23-.27-4.53-1.31-6.92-4.53-6.84-9.27.08-4.75,2.57-7.93,7.19-8.95,4.53-1,8.36.49,10.5,4.77.84,1.68.84,3.78,1.22,5.69-.81,3.93-3.23,6.49-6.85,8.03Z"/>
        <path class="cls-19" d="M307.74,205.28c.65-.03,1.36-.23,1.94-.05,9.77,2.97,19.53,2.53,29.31.05-3.24,4.91-8.86,6.66-13.29,10-1.7,1.28-3.23.09-4.69-.92-4.4-3.05-8.85-6.05-13.27-9.07Z"/>
        <path class="cls-10" d="M339.27,140.79c.45.78.89,1.56,1.34,2.34-2.66.04-5.32.08-7.99.12,1.65-2.36,4.03-2.72,6.64-2.46Z"/>
        <path class="cls-22" d="M306.2,143.08c.43-.76.86-1.52,1.29-2.27,2.22-.15,4.38-.17,5.29,2.48-2.19-.07-4.39-.14-6.58-.2Z"/>
        <path class="cls-35" d="M281.82,235.89c-3.42,4.98-.34,5.78,3.76,6.65,10.81,2.29,21.72,2.34,32.67,2.19,1.97-.03,3.95.08,5.92-.01,3.01-.14,4.43,1.06,4.35,4.22-.07,2.95-1.64,3.7-4.21,3.69-13.6-.03-27.19-.05-40.79.01-2.45.01-4.2-1.12-5.65-2.85-2.76-3.29-5.56-5.45-9.28.82q1.23-15.72,13.23-14.72Z"/>
      </g>
    </g>
  </g>
</svg>