<?xml version="1.0" encoding="UTF-8"?>
<svg xmlns="http://www.w3.org/2000/svg" version="1.1" viewBox="0 0 636.44 800">
  <defs>
    <style>
      .cls-1 {
        fill: #464949;
      }

      .cls-2 {
        fill: #896b58;
      }

      .cls-3 {
        fill: #788a5c;
      }

      .cls-4 {
        fill: #e2c9b7;
      }

      .cls-5 {
        fill: #607343;
      }

      .cls-6 {
        fill: #2c2c2c;
      }

      .cls-7 {
        fill: #677546;
      }

      .cls-8 {
        fill: #c2d2cb;
      }

      .cls-9 {
        fill: #bc987e;
      }

      .cls-10 {
        fill: #d9bca6;
      }

      .cls-11 {
        fill: #9c9fa0;
      }

      .cls-12 {
        fill: #c3c3c3;
      }

      .cls-13 {
        fill: #bc977e;
      }

      .cls-14 {
        fill: #84c4a7;
      }

      .cls-15 {
        fill: #548c70;
      }

      .cls-16 {
        fill: #846754;
      }

      .cls-17 {
        fill: #538b70;
      }

      .cls-18 {
        fill: #464646;
      }

      .cls-19 {
        fill: #568d70;
      }

      .cls-20 {
        fill: #4f5252;
      }

      .cls-21 {
        fill: #bb977d;
      }

      .cls-22 {
        fill: #679b79;
      }

      .cls-23 {
        fill: #6e7073;
      }

      .cls-24 {
        fill: #46765f;
      }

      .cls-25 {
        fill: #849c83;
      }

      .cls-26 {
        fill: #538c70;
      }

      .cls-27 {
        fill: #bec5b2;
      }

      .cls-28 {
        fill: #a1be76;
      }

      .cls-29 {
        fill: #4a5e2c;
      }

      .cls-30 {
        fill: #6aab8b;
      }

      .cls-31 {
        fill: #788b5c;
      }

      .cls-32 {
        fill: #fdfdfd;
      }

      .cls-33 {
        fill: #856754;
      }

      .cls-34 {
        fill: #558c70;
      }
    </style>
  </defs>
  <!-- Generator: Adobe Illustrator 28.7.1, SVG Export Plug-In . SVG Version: 1.2.0 Build 142)  -->
  <g>
    <g id="Layer_1">
      <g>
        <path class="cls-3" d="M387.62,419.78c-2.23,14.07-1.13,28.32-2.02,42.47-1.19,18.72-1.25,37.51-1.8,56.27-1.72,7.08-7.47,11.68-10.54,17.93-7.1,9.89-13.82,20.04-20.48,30.24-3.93,5.04-7.37,10.44-11.1,15.63-1.48,2.06-2.67,4.42-5.27,5.32-3.6,0-4.99-3.04-6.66-5.42-4.61-6.54-9.21-13.08-14.04-19.45-3.49-4.61-4.54-4.6-8.22-.1-6.55,8.02-13.07,16.07-19.6,24.1-1.63,2-3.05,4.23-5.63,5.14-4.25.48-5.83-3.04-7.78-5.72-6.84-9.39-13.33-19.05-20.04-28.54-5.56-8.75-11.87-16.97-17.53-25.65-.4-.46-.76-.95-1.09-1.46-4.08-6.37-9-12.15-12.69-18.81-10.24-23.38-20.48-46.76-30.67-70.17-.96-2.2-2.14-4.31-2.16-6.82,1.5-6.37,6.12-10.88,9.28-16.27,2.3-3.93,5-7.6,7.07-11.68,9.5-24.47,18.88-48.98,28.16-73.53,3.64-9.62,7.38-19.2,11.16-28.76.83-2.09,1.08-5.53,4.91-4.34,1.78,2.55,1.32,5.39,1.13,8.25-2.14,31.49-4.4,62.96-6.41,94.46-.34,5.35,2.17,4.16,4.94,2.83,9.68-4.67,19.14-9.79,28.75-14.6,4.6-2.31,9.13-4.84,14.3-5.65,3.47-.12,5.28,2.39,7.12,4.81,4.19,5.51,8.08,11.24,12.37,16.67,4.76,6.03,5.44,6.14,10.25-.17,4.74-6.21,10.71-11.24,15.4-17.47.65-.87,1.58-1.45,2.61-1.8,3.27-.42,5.63,1.62,8.04,3.32,9.98,6.98,20.06,13.8,29.96,20.9,2.25,1.61,4.42,3.52,7.51,2.41,1.45.44,1.91,1.59,2.02,2.99-.07,1.06-.48,1.95-1.25,2.65Z"/>
        <path class="cls-10" d="M454.53,258.77c-4.45,10.44-6.44,21.65-9.42,32.54-1.25,4.57-2.46,6.16-7.75,5.1-20.02-4.01-40.18-7.23-60.3-10.69-1.67-.29-3.4-.19-5.1-.27-2.31,1.92-4.89,1.1-7.36.64-15.3-2.86-30.37-6.9-45.64-9.92-2.52-.5-5-1.23-6.56-3.64-1.41-3-.63-6.05,0-9.01,10.37-48.11,19.62-96.47,30.62-144.44.63-2.75.97-5.59,1.77-8.31,1.01-3.8,4.08-5.44,7.14-6.97,22.95-11.44,46.13-22.39,68.98-34.06,1.91-.98,3.89-1.8,6.12-1.44,16.31,8.93,31.07,20.38,46.72,30.39,5.39,3.45,10.61,7.19,16.14,10.42,1.94,1.44,3.77,2.96,4.29,5.55-.59,8.85-3.91,17.04-6.14,25.47-3.75,14.18-7.65,28.33-11.48,42.5-3.08,9.12-4.73,18.65-7.66,27.81-2.05,6.14-2.98,12.61-5.19,18.71-1.69,7.62-3.67,15.16-5.88,22.64-.75,2.55-1.96,4.79-3.3,7Z"/>
        <path class="cls-30" d="M427.32,69.48c-10.44,4.95-20.91,9.83-31.3,14.88-15.23,7.4-30.41,14.92-45.6,22.41-1.53.75-3.16,1.42-3.85,3.24-.4.51-.85.97-1.34,1.39-.54.35-1.13.61-1.74.79-28.02,14.14-56.41,27.49-84.57,41.33-28.36,13.94-56.94,27.39-85.15,41.65-2.23,1.13-4.58,2.71-7.18.7-.76-.47-1.52-.94-2.28-1.41-2.27-7.17-1.51-14.69-2.16-22.02-1.47-16.68-2.52-33.41-4.08-50.09-.31-3.33.42-6.49.81-9.71.87-.82,1.74-1.65,2.62-2.47,3.58-1.99,7.31-3.26,11.41-3.99,47.79-8.47,95.58-17,143.43-25.14,1.88-.32,3.8-.63,5.59-1.43,30.16-4.55,60.23-9.61,90.23-15.18,6.72-1.25,13.4-2.63,20.06-4.12,2.93-.66,5.84-1.47,8.71.18,1.7,1.43.88,2.9-.35,3.78-3.97,2.84-7.8,6.24-13.24,5.22Z"/>
        <path class="cls-14" d="M441.66,61.49c-8.38-.28-16.11,3.16-24.21,4.55-23.22,3.97-46.29,8.88-69.6,12.16-8.56,1.2-17.14,3.2-25.88,3.13-3.42-.04-4.52-2.99-5.93-5.28-12.94-21.05-25.88-42.1-38.82-63.15-1.44-2.34-3.34-4.64-2.72-7.79,30.15-.03,60.29-.19,90.44-.05,18.58.09,37.16.63,55.74.96,1.49.03,3.02-.1,4.22,1.1,8.15,12.05,11.54,26.3,17.17,39.52,1.83,4.31,4.58,8.6,3.04,13.78-.86,1.36-1.89,2.11-3.46,1.07Z"/>
        <path class="cls-13" d="M345.39,110.3c.39-.09.78-.19,1.17-.3-5.8,28.22-11.6,56.44-17.41,84.65-5.33,25.87-10.67,51.73-16.01,77.59-3.84,3.21-7.71.43-11.55.02-2.51-.26-4.89-1.31-7.02-1.82,16.59,12.76,33.25,25.89,49.7,39.3,4.57,3.72,10.61,5.99,12.51,12.54-1.56,9.5-6.58,17.63-9.99,26.4-.93,2.39-2.39,4.56-2.98,7.11-5.86,8.35-14.61,13.01-22.68,18.53-.63.13-1.25.11-1.88-.02-3.26-1.48-5.26-4.36-7.44-7.05-6.83-8.45-14.92-15.66-22.3-23.56-2.82-3.02-5.65-6.02-6.4-10.38-5.66-23.12-11.37-46.21-16.97-69.34-1.85-7.62-4.07-15.16-4.01-23.12-.11-.47-.22-.94-.33-1.4.04-.31.08-.63.11-.94,6.51-7.82,15.63-12.08,23.57-17.93,7.64-5.62,15.18-11.41,23.13-16.58,1.54-1,2.62-2.21,2.94-4.07.98-6.53.42-12.99-.37-19.49-.61-4.96-.74-9.97.26-14.93,9.27-17.44,19.67-34.19,30.08-50.94,1.05-1.69,2.29-3.13,3.87-4.28Z"/>
        <path class="cls-23" d="M106.19,311.77c1.84-15.74,3.68-31.49,5.52-47.23,1.1-2.81,3.25-2.12,5.41-1.82,5.51.78,10.84,2.05,16.11,4.05,15.64,5.93,31.6,10.95,47.39,16.44,3.21,1.11,6.67,1.84,8.9,4.87,2.32,4.95.16,9.9-.12,14.83-.23,4.13-.97,8.24-1.43,12.35-.12.69-.28,1.37-.47,2.04-17.18,42.75-35.97,84.8-53.69,127.32-.59,1.41-1.38,2.73-1.37,4.32,2.09,8.32,6.67,15.57,9.61,23.51,1.11,2.99,3.06,6.03-.19,8.95-2.43,1.27-4.96.87-7.48.45-14.43-2.4-29.01-3.72-43.34-6.76-5.65-1.87-3.88-6.44-3.41-10.34,2.83-23.32,5.78-46.63,8.69-69.94,2.11-3.79,4.86-1.56,7.23-.61,9.76,3.92,18.94,9.13,28.4,13.73,6.86,3.33,7.16,3.16,8.31-4.59,2.93-19.72,5.62-39.48,8.7-59.17.39-2.51,1.29-5.16-.21-7.66-11.92-5.33-24.33-9.3-36.47-13.98-5.24-2.02-7.82-4.94-6.08-10.78Z"/>
        <path class="cls-8" d="M485.33,758.34c28.43,2.34,56.85,4.68,85.74,7.06-6.9,3.31-14.14,2.45-20.96,3.27-30.64,3.67-61.35,6.68-91.97,10.59-25.33,3.24-50.8,5.34-76.19,8.17-21.57,2.41-43.05,5.81-64.67,7.42-10.04.75-20.32-1.59-30.47-2.71-13.75-1.51-27.5-2.99-41.21-4.84-17.27-2.32-34.71-3.25-51.87-6.54-.38-.86-.21-1.58.52-2.16,3.06-2.08,6.54-1.72,9.93-1.73,17.07-.07,34.14.04,51.22-.06,7.16-.04,7.37-.55,7.74-7.88.34-6.68-1.54-13.61,1.89-19.99,4.2-3.31,9.35-2.67,14.11-3.4,28.09-4.31,56.14-2.14,84.17.8,5.42.57,11.26-.79,15.89,3.53.84,1.02,1.46,2.21,1.7,3.5,1.66,8.93,1.51,9.22,11.61,8.96,26.74-.69,53.41,2.13,80.14,1.45,5.13-.13,9.75-.45,12.67-5.47Z"/>
        <path class="cls-17" d="M274.51,5.11c13.58,21.96,27.15,43.92,40.75,65.86,2.17,3.5,4.48,6.91,6.72,10.36-9.44,4.43-19.81,4.44-29.76,6.29-31.57,5.88-63.23,11.24-94.87,16.71-11.93,2.07-23.91,3.9-35.86,5.83,15.71-14.84,31.35-29.76,47.16-44.5,21.2-19.77,42.52-39.41,63.79-59.09.62-.57,1.38-.98,2.08-1.46Z"/>
        <path class="cls-17" d="M166.58,195.87c11.01-5.2,22.08-10.28,33.03-15.62,46.76-22.82,93.49-45.71,140.25-68.55,1.32-.64,2.81-.89,4.23-1.32-1.36,5.12-5.02,8.67-8.71,11.77-7.78,6.55-14.34,14.44-22.34,20.71-4.91,5.21-10.5,9.66-15.6,14.64-11.23,10.48-22.57,20.82-33.66,31.45-7.78,6.88-15.43,13.91-22.81,21.24-14.02,12.92-27.68,26.25-41.88,38.96-1.64,1.46-3.79,1.92-5.32,3.47-3.03,1.89-3.11-1.29-3.69-2.6-7.92-18.01-15.69-36.09-23.5-54.15Z"/>
        <path class="cls-28" d="M142.6,480.21c-3.2-10.9-9.18-20.59-12.96-31.24,1.99-1.68,4.01-3.21,6.64-3.8,15.89-3.56,31.61-7.87,47.51-11.38,2.43-.54,5.03-1.57,7.31.59,9.43,21.22,18.97,42.38,28.18,63.7,1.96,4.53,5.06,8.67,5.41,13.88.56,1.84-.61,3-1.77,3.87-12.2,9.16-24.09,18.79-37.27,26.51-.3.01-.61.02-.91.03-.97.4-2.04.63-2.88,1.22-8.44,5.83-8.39,5.82-12.42-4.11-2.2-5.41-4.25-10.92-7.85-15.59-7.78-12.53-12.74-26.46-18.81-39.84-.55-1.22-.48-2.54-.17-3.84Z"/>
        <path class="cls-3" d="M462.16,398.4c10.72-8.7,21.44-17.4,32.16-26.11,2.62-1.71,4.32.22,5.99,1.73,3.11,2.82,5.93,5.97,8.9,8.94,3.49,4.07,8.14,7.26,9.48,12.98,5.13,5.55,10.14,11.22,15.43,16.61,2.66,2.71,2.54,4.13-.64,6.4-23.49,16.72-46.85,33.63-70.21,50.54-1.92,1.39-3.45,2.04-5.66.38-14.26-10.73-29.44-20.13-43.2-31.57.23-2.42,1.94-3.78,3.6-5.14,12.76-10.46,25.19-21.32,38-31.72,1.85-1.5,3.64-3.02,6.16-3.04Z"/>
        <path class="cls-30" d="M444.22,60.33c-2.68-12.44-8.8-23.57-12.81-35.5-2.01-5.97-5.56-11.33-6.51-17.7,29.4,19.09,57.63,39.97,86.58,59.75,8.17,5.58,16.11,11.53,24.43,16.88,3.99,2.57,3.92,4.5,1.09,7.93-8.69,10.53-17.15,21.26-25.67,31.95-1.61,2.03-3.04,4.21-4.55,6.32-6.9-3.09-10.46-9.26-13.75-15.69-1.35-1.2-2.7-2.41-4.05-3.61-15.3-14.12-28.51-30.27-42.33-45.83-1.17-1.32-2.01-2.78-2.44-4.5Z"/>
        <path class="cls-17" d="M184.62,687.2c0-.44.02-.89.03-1.33,6.73-2.72,7.71-8.6,7.82-14.96.5-30.89,3.4-61.67,4.04-92.56.09-4.39.93-8.71,1.72-13.01,1.16-3.97,4.09-6.62,6.96-9.19,8.01-7.2,15.9-14.54,23.95-21.69,2.31-2.05,4.51-4.84,8.23-4.2v.23c2.06,3.26,1.33,6.78.77,10.23-7.3,45.48-15.08,90.87-22.22,136.38-.64,4.06-1.02,8.37-4.58,11.26-9,1.89-17.98,3.48-26.71-1.15Z"/>
        <path class="cls-23" d="M485.33,758.34c1.05,6.75-1.92,8.23-8.19,8.08-29.82-.72-59.65-1.14-89.47-1.13-6.05,0-8.53-1.61-8.34-7.76.07-2.37-.58-4.76-.91-7.14-.6-.79-1.12-1.63-1.42-2.59-.28-2.6-.25-5.24-.82-7.81-.02-1,.2-1.94.78-2.76,3.15-1.67,5.84.12,8.46,1.4,5.79,2.84,11.7,5.4,17.47,8.26,4.96,2.45,8.37,2.04,12.17-2.63,6.56-8.06,12.87-16.36,20.01-23.92,13.33,5.28,27.02,9.44,40.82,13.08,6.94,1.83,10.27,4.78,9.23,12.46-.55,4.06.1,8.3.21,12.45Z"/>
        <path class="cls-17" d="M493.04,114.26c5.25,4.61,9.26,10.37,13.75,15.69.92,31.74,1.73,63.49,2.86,95.22.16,4.54-1.35,6.75-5.22,8.31-4.35,1.76-8.5,4.04-12.74,6.09-3.47-.26-3.63-3.36-4.3-5.68-4.18-14.45-8.23-28.93-12.05-43.48-.69-2.61-.24-5.21-.44-7.81,2.82-15.96,8.2-31.24,12.11-46.91,1.8-7.2,4.02-14.29,6.05-21.44Z"/>
        <path class="cls-28" d="M462.16,398.4c-15.6,13.7-31.46,27.08-47.76,39.91-8.93-6.17-17.86-12.35-26.78-18.52-.01-.92-.03-1.84-.04-2.76,7.38-16.87,18.29-31.57,27.67-47.21,1.34-2.24,2.14-5.46,5.71-5.38,14.29,10.61,27.71,22.34,41.21,33.96Z"/>
        <path class="cls-11" d="M151.11,334.46c2.14,5.57-.31,10.87-1.06,16.21-2.76,19.61-5.91,39.16-8.6,58.78-.57,4.17-1.71,4.52-5.1,2.84-11.12-5.5-22.33-10.81-33.55-16.11-2.01-.95-3.91-3.01-6.48-1.36,1.26-10.98,2.53-21.97,3.79-32.95.65-3.82,2.09-7,5.88-8.64,12.82-5.54,25.56-11.27,38.35-16.87,2.19-.96,4.69-.61,6.77-1.91Z"/>
        <path class="cls-23" d="M265.66,749.15c0,7.63-.36,15.29.1,22.9.35,5.65-1.15,7.49-6.95,7.41-21.69-.3-43.38,0-65.07.07-8.68,1.3-10.12.15-10.21-8.78-.05-4.27-.82-8.79,2.57-12.34.46-3.09.91-6.17,1.37-9.26,4.57-.41,5.86,3.76,8.09,6.37,2.57,3,4.68,3.18,7.37.35,3.27-3.43,6.72-6.69,9.91-10.2,4.01-4.42,8.79-5.74,14.46-4.78,5.86,1,11.78,1.55,17.74,1.66,5.08.24,10.05,1.36,15.1,1.89,2.67.28,5.65.72,5.51,4.71Z"/>
        <path class="cls-13" d="M512.08,327.52c12.06-12.97,24.16-25.89,36.13-38.94,2.17-2.36,3.59-2.86,6.09-.31,6.04,6.16,12.3,12.1,18.67,17.91,2.56,2.34,3.35,4.46,2.09,7.91-5.28,14.52-10.31,29.15-15.44,43.73-2.73,2.01-4.89.01-6.94-1.27-12.27-7.72-24.54-15.45-36.88-23.05-2.09-1.29-4.62-2.6-3.72-5.99Z"/>
        <path class="cls-12" d="M188.69,288.31c-23.3-8.01-46.6-16.03-69.91-24.03-2.37-.81-4.8-2.39-7.08.25.68-4.72,4.31-2.72,6.61-2.72,43.58.09,87.15,1.95,130.74,1.22,2.95-.05,6.03.57,8.71-1.36,2.46,7.22.64,13.57-3.7,19.43-6.36,2.98-13.32,2.76-20.04,3.74-12.45,1.82-24.97,3.07-37.44,4.76-2.77.38-5.54.82-7.91-1.29Z"/>
        <path class="cls-17" d="M158.86,112.63c3.19,4.85,1.73,10.6,2.39,15.83,1.72,13.77,2.1,27.72,2.97,41.6.38,6.07,1.87,12.06,1.31,18.2-.19,2.11.57,4.42-1.23,6.19-16.02-11.54-32.03-23.1-48.09-34.6-2.41-1.72-3.81-2.87-.79-5.71,14.59-13.72,28.98-27.66,43.45-41.52Z"/>
        <path class="cls-24" d="M429.78,662.37c4.22,7.94,5.78,16.87,8.96,25.2,1.2,3.13-1.14,3.75-3.12,4.49-5.41,2.01-10.9,3.83-16.26,5.98-2.07.83-4.79.8-5.82,3.53-2.06,1.81-4.83,1.91-7.14,3.14-10.51,3.67-20.59,8.58-31.47,11.16-7.59-6.94-13.32-15.21-16.77-25.08.43-3.48,3.19-4.41,5.79-5.35,4.62-1.68,9.13-3.66,13.77-5.29,6.34-2.53,12.69-5.04,19.26-6.92,7.18-3.37,14.63-6.02,22.1-8.59,3.52-.99,6.6-4.19,10.7-2.28Z"/>
        <path class="cls-30" d="M429.78,662.37c-3.35,1.29-6.69,2.58-10.04,3.87-4.04,1.34-4.57-2.11-5.58-4.52-4.14-9.88-7.13-20.2-10.63-30.31-10.22-29.54-20.23-59.16-30.42-88.71-.8-2.31-1.42-4.59-.89-7.05,2.74-6.5,6.85-12.03,11.58-17.12,6.32,19.24,12.73,38.46,18.95,57.73,8.64,26.78,17.16,53.61,25.69,80.43.59,1.85.9,3.79,1.34,5.68Z"/>
        <path class="cls-24" d="M184.62,687.2c9.05,0,18.09,0,27.14,0,4.64-3.79,9.63-.92,14.47-.83,6.58-.32,13.17-.79,19.74.14,4.99,1.78,10.56-.27,15.41,2.44,2.44,2.45.99,4.87-.26,7.08-3.62,6.4-7.5,12.63-11.42,18.84-4.05,6.39-10.25,4.86-16.13,4.48-2.49-.09-4.8-1.36-7.33-1.15-10.81.76-21.58,1.04-32.14-2.06-2.59-3.32-8.42,1.39-9.73-3.58-.96-3.63-.12-7.76-.04-11.67.08-4.56.2-9.12.31-13.68Z"/>
        <path class="cls-26" d="M420.95,364.43c-9.92,16.06-19.85,32.13-29.78,48.19-1.01,1.63-1.51,3.7-3.6,4.4-.32-.84-.64-1.68-.97-2.52-1.66-.97-2.27-2.66-2.41-4.41-1.93-24.38-4.81-48.7-5.33-73.2,1.07-2.4-.51-6.36,3.81-6.85,13.04,11.13,26.14,22.19,38.27,34.37Z"/>
        <path class="cls-33" d="M355.72,322.25c-10.04-10.44-22.2-18.17-33.25-27.32-10.86-8.99-22.06-17.54-32.6-27.18,7.76,1.5,15.52,3.01,23.28,4.51,17.54,3.92,35.09,7.84,52.63,11.76,2.06.46,4.12.95,6.18,1.43-.03.45-.06.9-.09,1.34-2.57,11.19-8.26,21.12-12.3,31.72-.65,1.71-1.28,3.89-3.84,3.74Z"/>
        <path class="cls-30" d="M200.14,563.31c-1.68,30.02-3.33,60.04-5.05,90.05-.47,8.27-.25,16.55-.75,24.85-.47,7.91-4.01,8.39-9.69,7.66.03-47.83.06-95.66.09-143.49,0,0,.12-.06.12-.06.62-.23,1.43-.4,1.83.04,5.63,6.2,11.43,12.3,13.45,20.95Z"/>
        <path class="cls-20" d="M406.88,702.98c1.95-1.8,4.2-2.14,6.66-1.41,7.18,6.26,14.36,12.52,21.54,18.78.43,4.91-3.8,7.11-6.07,10.26-4.77,6.61-10.43,12.54-15.52,18.92-2.63,3.29-5.4,1.82-8.01.64-9.3-4.2-18.52-8.62-27.76-12.96-.55-.38-.75-.89-.59-1.56,7.55-9.37,15.86-18.06,23.31-27.51,1.79-2.27,4.21-3.57,6.45-5.17Z"/>
        <path class="cls-24" d="M193.76,252.62c4.01-6.71,10.52-10.82,16.08-15.84,10.25-9.23,19.46-19.64,30.46-28,5.1-4.13,10.59-4.6,16.44-1.9,4.42,6.68,7.53,26.1,5.12,31.95,0,0-.06.61-.06.61-22.69,4.35-45.16,9.89-68.05,13.17Z"/>
        <path class="cls-10" d="M512.08,327.52c4.74,5.96,11.82,8.45,17.92,12.28,9.79,6.14,19.1,13.15,29.62,18.03-8.8,10.09-19.66,17.88-29.03,27.35-3.76,3.8-7.92,7.19-11.89,10.77-3.5-3.9-7-7.79-10.5-11.68.41-7.07,4.67-12.55,7.61-18.49,2.72-5.5,3.25-10.5.82-16.21-2.12-4.98-3.95-10.13-5.58-15.32-.69-2.2-2.09-4.47-.07-6.73.37.02.73.02,1.1,0Z"/>
        <path class="cls-9" d="M510.98,327.51c2.96,8.36,5.85,16.74,8.92,25.06.93,2.51,1.96,5,.68,7.52-4.1,8.07-7.14,16.71-12.38,24.16-5.25-3.22-7.74-9.83-13.87-11.97,1-10.63-.06-21.26-.6-31.84-.36-6.96-.67-13.93-.85-20.89-.06-2.36-1.19-6.13,2.8-5.94,3.96.18,9.25-2.99,11.52,3.5,1.22,3.48,2.52,6.94,3.79,10.41Z"/>
        <path class="cls-5" d="M253.99,279.88c1.26-6.07,2.52-12.14,3.79-18.21,1.45-6.94,2.91-13.87,4.36-20.81,5.83,17.59,9.29,35.82,13.72,53.78,3.23,13.09,7.31,26,8.98,39.47-2.55,1.01-4.05-.87-5.52-2.34-8.41-8.43-16.7-16.98-24.97-25.56-1.71-1.77-2.67-3.93-3.53-6.19-.54-.83-1.39-1.43-1.64-2.46.18-6.3.38-12.6,4.8-17.69Z"/>
        <path class="cls-20" d="M227.13,716.3c2.18-.21,4.29,0,6.22,1.19,6.21,7.58,10.63,15.92,10.63,26.16-5.17,1.83-10.39.47-15.35-.53-6.29-1.27-11.1-.29-15.31,4.92-3.25,4.03-7.24,7.42-10.74,11.24-2.52,2.75-4.33,3.68-6.84-.29-2.28-3.6-5.48-6.6-8.27-9.86.37-5.97,1.88-11.69,3.58-17.37,12.27-4.55,24.35-9.58,36.08-15.47Z"/>
        <path class="cls-8" d="M186.1,758.4c-.02,4.09.35,8.22-.16,12.25-.81,6.39.87,9.91,7.79,8.88v1.25c-14.94.05-29.55-3.31-44.38-4.57-16.92-1.44-33.75-3.92-50.62-5.96-4.17-.5-8.34-1.02-12.49-2.32,18.9-1.87,37.79-3.74,56.69-5.6,14.38-1.42,28.69-3.58,43.15-3.92Z"/>
        <path class="cls-20" d="M142.6,480.21c7,14.25,14.17,28.43,18.98,43.68-23.52-16.26-47.03-32.52-70.55-48.79,2.41-2.14,5.21-1.35,7.86-.95,13.31,1.99,26.61,4.12,39.92,6.14,1.23.19,2.53-.04,3.79-.08Z"/>
        <path class="cls-28" d="M474.89,182.61c6.18,17.48,9.82,35.73,15.36,53.4.38,1.22.95,2.38,1.44,3.57-11.97,7.25-24.8,12.73-37.16,19.19.8-10.43,5.39-19.89,7.29-30.04,7.58-1.66,7.9-2,6.24-9.12-.74-3.17-.77-6.35-.91-9.55,2.11-9.29,4.19-18.59,7.74-27.46Z"/>
        <path class="cls-12" d="M151.11,334.46c-1,2.28-3.22,2.69-5.16,3.54-13.14,5.74-26.24,11.56-39.44,17.15-3.23,1.37-5.12,3.64-6.41,6.73,1.45-11.81,2.54-23.69,4.53-35.4.84-4.92-1.08-10.07,1.56-14.71-.67,4.68,1.29,6.84,5.76,8.35,13.16,4.44,26.12,9.52,39.15,14.35Z"/>
        <path class="cls-5" d="M355.72,322.25c4.25-10.01,8.52-20.01,12.74-30.03.85-2.01,1.48-4.13,3.4-5.43,2.69,13.6,5.38,27.2,8.08,40.8-.04.31-.09.63-.13.94-9.92,10.35-21.68,18.33-33.02,26.85-1.18.89-2.76,1.29-4.15.05,2.18-9.63,7.35-18.03,10.68-27.19.73-2.02,1.6-3.99,2.4-5.99Z"/>
        <path class="cls-1" d="M227.13,716.3c1.34,3.03-1.34,3.28-2.84,3.94-9.98,4.36-20.04,8.56-30.04,12.87-1.64.71-2.86.97-3.2-1.33,1.01-5.21,2.03-10.42,3.04-15.64,2.28-1.5,4.91-1.64,7.32-1.06,8.52,2.07,17.16.63,25.72,1.23Z"/>
        <path class="cls-22" d="M382.68,330.06c-2.22,1.87-1.17,4.52-1.56,6.83-5.29-2.44-2.56-6-1.24-9.36,0,0,.05.06.05.06.92.82,1.83,1.65,2.75,2.47Z"/>
        <path class="cls-5" d="M191.09,434.39c-20.48,4.86-40.97,9.72-61.45,14.58,18.36-43.24,36.71-86.48,55.08-129.72.33-.78.87-1.46,1.32-2.18,2.86,1.84,3.23,5.04,3.91,7.96,5.55,23.61,11.91,47.01,17.55,70.59.96,4.02,1.99,8.07.45,12.2-4.61,9.53-10.8,18.01-16.86,26.56Z"/>
        <path class="cls-28" d="M251.35,299.72c10.94,11.69,21.51,23.77,33.49,34.39,2.09,5.23,6.48,8.5,10.17,12.32,8.47,8.77,17.05,17.43,24.62,27.06-.18,1.99-1.56,3.12-3.09,3.84-7.05,3.33-13.35,8.45-21.36,9.53-14.42,4.98-27.43,13.05-41.07,19.75-11.11,5.46-11.09,5.59-10.36-6.79,1.73-28.97,3.49-57.93,5.29-86.89.27-4.35.83-8.68,1.26-13.02.26-.55.61-.62,1.04-.19Z"/>
        <path class="cls-17" d="M372.21,535.64c4.85,8.81,7.12,18.65,10.43,28.06,11.33,32.25,22.25,64.66,33.4,96.98.73,2.11.63,5.01,3.7,5.55-7.33,3-14.66,6-21.99,9-5.08-5.66-6.94-13.06-9.84-19.83-11.53-26.92-23.54-53.62-34.93-80.61-1.19-2.82-2.62-5.6-1.37-8.82,5.9-10.8,12.62-21.02,20.59-30.33Z"/>
        <path class="cls-17" d="M246.39,688.55c-6.88-.03-13.76-.07-20.63-.1-1.44-2.79-.55-5.6.07-8.34,8.63-38.66,17.25-77.32,26.1-115.93.62-2.71.94-5.7,3.61-7.42,7.18,7.82,12.13,17.34,18.7,25.62,2.47,3.1,3.58,7.58,8.08,8.7.79.81.98,1.8.85,2.89-10.7,27.91-20.36,56.21-30.62,84.29-1.38,3.77-1.87,8.27-6.14,10.29Z"/>
        <path class="cls-17" d="M251.35,299.72c-.35.06-.7.12-1.04.19-7.28,18.61-14.64,37.18-21.83,55.83-6.26,16.24-12.29,32.57-18.48,48.84-.45,1.18-1.35,2.17-2.04,3.25-7.1-28.97-14.21-57.93-21.3-86.9-.31-1.26-.42-2.57-.62-3.85,0,0-.02,0-.02,0,2.34-2.83,5.64-3.85,8.92-4.75,16.02-4.42,31.91-9.33,47.9-13.87,2.41-.68,4.91-1.8,7.31.12.4.38.79.77,1.19,1.15Z"/>
        <path class="cls-28" d="M379.88,327.53c.39,3.12-.82,6.47,1.24,9.36.97,21.78,2.96,43.48,4.95,65.18.38,4.13.37,8.29.54,12.44-.5,5.42-3.02,2.48-4.93,1.17-11.96-8.25-23.87-16.57-35.81-24.85-1.4-.97-2.89-1.82-4.34-2.73-8.41-2.62-15.74-6.85-20.75-14.58,5.17-5.72,12.09-9.13,17.82-14.12,1.44-1.25,3.07-2.23,4.02-3.98,11.07-5.67,19.39-15.22,29.64-22.07,2.65-1.77,5.08-3.87,7.61-5.82Z"/>
        <path class="cls-30" d="M255.53,556.76c-3.46,15.72-6.88,31.44-10.38,47.15-5.96,26.75-11.96,53.49-17.97,80.23-.33,1.47-.94,2.87-1.42,4.3-4.67-.42-9.33-.83-14-1.25,8.04-48.79,16.08-97.57,24.1-146.36.57-3.44,1-6.9,1.5-10.34,6.79,8.22,13.05,16.83,18.16,26.27Z"/>
        <path class="cls-20" d="M284.76,509.31c4.66-17.55,12.01-34.12,17.65-51.32,3.6-10.98,7.84-21.75,11.76-32.62.88-2.43,1.39-5.02,3.85-7.48,3.67,14.54,7.25,28.62,10.78,42.71,4.19,16.71,8.34,33.42,12.5,50.13-2,1.24-4.03,2.5-6.47,2.46-14.59-.2-29.23,1.22-43.77-1.14-2.37-.38-4.55-.99-6.3-2.74Z"/>
        <path class="cls-30" d="M351.62,565.97c13.09,30.36,26.3,60.67,39.16,91.13,2.51,5.94,6.34,11.41,6.97,18.13-6.35,2.22-12.71,4.43-19.06,6.65-2.55-.7-3.78-2.78-4.76-4.98-12.5-28.05-25.14-56.04-37.59-84.11-.54-1.21-.72-2.51-.86-3.83.03-.69.26-1.31.69-1.84,5.08-7.11,9.19-14.95,15.44-21.15Z"/>
        <path class="cls-24" d="M336.17,587.12c.02.44.02.87,0,1.31-.07,1.11-.35,2.23-1.18,2.93-8.04,6.67-14.49,15.16-22.99,21.3-1.22.88-2.44,1.71-3.99,1.84-10.35-4.63-18.96-11.52-25.63-20.92-.03-.83-.05-1.67-.08-2.5,8.31-10.48,16.66-20.93,24.91-31.46,3.29-4.2,5.59-4.76,9.02.4,6.21,9.34,13.24,18.1,19.93,27.1Z"/>
        <path class="cls-18" d="M284.76,509.31c18.81,2.05,37.69,1.21,56.54,1.42-8.34,13.94-18.19,26.79-27.28,40.2-1.22,1.8-2.83,2.32-4.03.2-8.04-14.18-18.76-26.65-25.23-41.82Z"/>
        <path class="cls-13" d="M200.14,563.31c-5.09-7-10.19-14-15.28-20.99,9.17-8.85,20.34-14.92,30.19-22.84,3.18-2.55,6.43-5.01,9.64-7.51,4.72,5.73,9.19,11.66,12.68,18.29-12.41,11.01-24.82,22.03-37.22,33.05Z"/>
        <path class="cls-18" d="M320.79,373.52c6.91,4.86,13.83,9.72,20.75,14.58-5.91,9.18-14.35,16.11-20.91,24.71-2.6,3.4-4.11,2.1-6.2-.74-6.26-8.52-12.8-16.82-19.24-25.2,7.51-5.69,16.47-8.58,24.45-13.37.38.08.76.09,1.15.03Z"/>
        <path class="cls-13" d="M409.42,193.14c-1.79-.78-2.24-2.34-2.61-4.14-2.51-12.28-5.09-24.54-7.65-36.81-.4-.8-.39-1.64-.29-2.51q1.07-9.32-6.96-13.02c-.79-.36-1.43-.87-1.76-1.72,2.79-1.64,2.01-3.57.79-5.94-2.95-5.76-6.79-11.07-8.41-17.5,5.31-2.8,11.44-1.09,16.87-3.23,6.39-.99,12.7-1.02,18.73,1.88,3.38,5.45.62,11.57,1.79,17.26,1.91,2.26,1.53,4.9,1.12,7.52-2.68,17.33-5.54,34.63-8.65,51.89-.42,2.35-.81,4.81-2.97,6.34Z"/>
        <path class="cls-13" d="M445.46,161.54c-4.53,2.58-8.08,6.35-11.81,9.94-1.28,1.23-2.25,4.38-5.03,1.96-1.42-1.33-1.53-3.1-1.29-4.84,1.49-10.57,3.23-21.1,5.71-31.48.31-1.28.99-2.41,2.13-3.14,2.34-6.5,5.25-12.63,10.5-17.27,4.32-1.05,7.8,1.22,11.35,3.08,6.61,3.45,13.87,5.8,19.2,11.51-2.18,4.42-6.25,6.99-9.73,10.05-2.91,2.55-5.83,5.01-8.18,8.13-5.41,2.76-10.63,5.74-12.85,12.08Z"/>
        <path class="cls-4" d="M435.17,133.97c-2.18,13.16-4.37,26.31-6.55,39.47-1.24,6.68-2.58,13.34-3.68,20.04-.39,2.4-.74,4.66-2.67,6.31-4.97,2.74-9.11,1.21-12.81-2.61-.02-1.35-.03-2.7-.05-4.05,2.81-17.62,5.61-35.23,8.42-52.85.69-4.3,1.38-8.6,2.07-12.89,3.32.49,6.67.8,9.93,1.53,2.59.58,5.65,1.05,5.33,5.05Z"/>
        <path class="cls-29" d="M373.74,222.02c25.34-.57,49.61,4.43,72.86,14.75-2.19,3.83-5.96,3.23-9.4,3.54-2.14-.51-4.19-.11-6.2.66-4.84.71-9.73.8-14.57,1.6-4.97.83-9.67-.3-14.31-2.19-9.86-4.02-19.77-7.94-29.88-11.26-2.93-1.81-6.91-2.29-7.94-6.54,3.05-1.89,6.25-1.1,9.44-.56Z"/>
        <path class="cls-33" d="M444.22,60.33c7.41,5.41,12.56,13.12,18.52,19.91,8.83,10.05,18.89,19.02,26.25,30.41-20.95-13.1-41.49-26.85-61.67-41.17,4.61-2.98,10.09-4.33,14.34-7.99.85-.39,1.71-.77,2.56-1.16Z"/>
        <path class="cls-31" d="M436.34,238.05c3.4-.62,7.07,1.13,10.26-1.28,2.09.02,2.33,1.04.72,2.07-13.93,8.89-27.95,17.62-41.85,26.55-2.47,1.59-3.83.62-5.44-1.11-13.11-14.05-26.26-28.07-39.39-42.09,1.86-1.37,2.95-.12,4,1.25,2.93.65,5.72,1.6,7.73,4.09,8.08,3.09,13.27,10.08,19.59,15.49,7.88,6.74,19.04,8.34,27.76,2.98,4.05-2.49,8.24-4.57,12.66-6.18,1.28-.68,2.83-.74,3.96-1.77Z"/>
        <path class="cls-6" d="M445.46,161.54c.26-9.61,3.04-12.23,12.85-12.08,4.61,2.46,7.28,6.16,6.09,11.64-.84,3.84-3.24,6.51-7.28,7.27-5.79,1.1-9.23-1.94-11.66-6.84Z"/>
        <path class="cls-6" d="M390.15,134.93c4.3-.13,8.57.05,10.79,4.69,2.16,4.51,1.13,8.72-1.78,12.56-7.35,3.16-12.38,2.12-15.05-3.11-2.73-5.35-.43-10.74,6.04-14.14Z"/>
        <path class="cls-34" d="M476.22,131.29c-10.18-4.86-20.37-9.72-30.55-14.58,5.88-3.46,12.73-2.62,18.97-4.51,1.96-.59,2.66.88,3.33,2.23,2.78,5.61,5.5,11.24,8.24,16.87Z"/>
        <path class="cls-15" d="M418.13,110.14c-6.29.07-12.58.14-18.88.2-4.67.04-9.53,2.42-13.91-1.19,2.24-1.21,4.69-2.15,6.7-3.69,7.31-5.59,14.29-6.54,21.17.71,1.44,1.52,3.27,2.65,4.91,3.97Z"/>
        <path class="cls-19" d="M467.15,210.06c2.36,4.44,2.73,9.49,4.12,14.22.98,3.36-1.47,4.44-3.46,5.16-1.84.66-4.57,4-5.99-.71,1.78-6.22,3.55-12.44,5.33-18.66Z"/>
        <path class="cls-2" d="M409.46,197.18c4.27.87,8.54,1.74,12.81,2.61-.84,4.72-5.33,5.75-8.2,9.18-2-4.18-4.46-7.47-4.61-11.79Z"/>
        <path class="cls-25" d="M385.34,109.15c4.48,2.3,9.31.34,13.91,1.19-5.44,2.41-11.16.64-16.72,1.15.47-1.38,1.5-2.03,2.82-2.34Z"/>
        <path class="cls-7" d="M364.63,223.44c-1.33-.42-2.67-.83-4-1.25,4.34-2.62,8.72-1.05,13.11-.17-2.97.93-6.35-.92-9.11,1.42Z"/>
        <path class="cls-33" d="M311.86,141.89c8.55-8.13,17.12-16.23,25.62-24.42,2.32-2.23,4.4-4.72,6.59-7.1.44-.02.87-.05,1.31-.07-6.81,13.84-15.37,26.61-23.17,39.86-2.83,4.8-4.89,10.17-9.03,14.11-3.56-7.26-4.7-14.68-1.33-22.38Z"/>
        <path class="cls-28" d="M311.86,141.89c.44,7.46.88,14.92,1.33,22.38-.92,10.5,1.6,20.85,1.22,31.32-.08,2.33.67,4.86-1.23,6.86-6.45,3.31-13.49,3.57-20.47,4.29-9.52.99-19.1,1.05-28.62,2.11-2.56.29-5.1-.12-7.48-1.26-5.46.03-10.94-.08-16.31,1.2,6.96-7.81,14.47-14.98,22.84-21.18,5.52-4.1,11.86-3.56,18.13-3.38,4.14,1.26,8.06-.37,11.9-1.38,4.19-1.1,2.34-4.86,2.33-7.71.57-6.24-2.75-12.66.85-18.74,4.63-5.45,10.21-9.82,15.5-14.51Z"/>
        <path class="cls-33" d="M256.62,207.59c5.37-2.57,11.23-1.23,16.83-1.95,13.17-1.69,26.49-2.21,39.74-3.2-12.74,10.59-26.56,19.6-40.09,29.04-3.66,2.55-6.74,6.11-11.22,7.36-1.75-10.42-3.5-20.84-5.26-31.25Z"/>
        <path class="cls-20" d="M250.16,298.56c-21.38,6.17-42.76,12.33-64.14,18.5-.35-9.71,2.37-19.11,2.67-28.75,21.77-2.81,43.53-5.62,65.3-8.43-1.28,6.23-2.55,12.45-3.83,18.68Z"/>
        <path class="cls-16" d="M296.36,156.4c.12,6.56,2.02,12.99,1.33,19.61-3.45,6.2-9.74,7.94-15.55,10.45-6.33.39-12.67.77-19,1.15,10.2-11.39,21.82-21.17,33.22-31.21Z"/>
        <path class="cls-8" d="M378.43,747.83c-1.81-2.52-1.04-5.35-.95-8.11,1.41,2.57,1.12,5.34.95,8.11Z"/>
        <path class="cls-17" d="M359.34,691.26c-16.67-25.08-33.34-50.17-50.02-75.25-.81-.6-1.91-1.04-1.4-2.44,10.37-7.25,17.84-17.94,28.25-25.14,9.84,21.62,19.68,43.23,29.52,64.85,4.34,9.53,8.66,19.07,12.99,28.6-4.9,1.9-9.83,3.76-14.7,5.74-1.84.75-4.35.76-4.65,3.63Z"/>
        <path class="cls-1" d="M377.59,735.96c-1.25-6.98-2.54-13.96-2.8-21.09,10.36-4.92,21.18-8.52,32.09-11.9-8.35,10.11-16.69,20.24-25.05,30.33-1.11,1.34-2.36,2.54-4.24,2.65Z"/>
        <path class="cls-30" d="M307.92,613.57c.47.81.93,1.63,1.4,2.44-3.16-.23-3.62,2.65-4.79,4.55-14.25,23.08-28.43,46.21-42.63,69.32-5.16-.49-10.49,1.02-15.5-1.33,10.6-29.3,21.22-58.6,31.8-87.91.96-2.66,1.45-5.55,4.2-7.07,8.77,6.32,16.37,14.21,25.53,19.99Z"/>
        <path class="cls-32" d="M433.74,240.53c-3.19,1.74-6.81,2.97-9.49,5.32-8.14,7.15-17.09,6.07-26.4,3.79-2.67-.65-4.51-2.26-6.39-4.05-6.34-6.04-12.73-12.04-19.1-18.05,6.95.33,13.22,3.38,19.1,6.48,12.77,6.72,26.03,6.69,39.64,5.1,1.32-.4,2.81-1.12,2.64,1.42Z"/>
        <path class="cls-27" d="M433.74,240.53c-.88-.47-1.76-.94-2.64-1.42,1.61-1.05,3.42-1.1,5.24-1.06-.38,1.36-1.19,2.25-2.6,2.48Z"/>
        <path class="cls-21" d="M282.15,186.46c4.56-4.46,10.29-7.08,15.55-10.45.27,1.93.44,3.88.83,5.78.47,2.25-.36,3.29-2.51,3.47-4.62.39-9.25.79-13.87,1.19Z"/>
      </g>
    </g>
  </g>
</svg>