<?xml version="1.0" encoding="UTF-8"?>
<svg xmlns="http://www.w3.org/2000/svg" version="1.1" viewBox="0 0 636.44 800">
  <defs>
    <style>
      .cls-1 {
        fill: #bbc35a;
      }

      .cls-2 {
        fill: #556837;
      }

      .cls-3 {
        fill: #2b2b2b;
      }

      .cls-4 {
        fill: #788a5c;
      }

      .cls-5 {
        fill: #617d43;
      }

      .cls-6 {
        fill: #e2c9b7;
      }

      .cls-7 {
        fill: #799a5b;
      }

      .cls-8 {
        fill: #e9ec87;
      }

      .cls-9 {
        fill: #607343;
      }

      .cls-10 {
        fill: #8a7a6f;
      }

      .cls-11 {
        fill: #8e6f5c;
      }

      .cls-12 {
        fill: #dcdcdb;
      }

      .cls-13 {
        fill: #d9bca6;
      }

      .cls-14 {
        fill: #528664;
      }

      .cls-15 {
        fill: #9c9fa0;
      }

      .cls-16 {
        fill: #c3c3c3;
      }

      .cls-17 {
        fill: #2d2c2c;
      }

      .cls-18 {
        fill: #bc977e;
      }

      .cls-19 {
        fill: #886a57;
      }

      .cls-20 {
        fill: #538b70;
      }

      .cls-21 {
        fill: #464646;
      }

      .cls-22 {
        fill: #695f59;
      }

      .cls-23 {
        fill: #bc977d;
      }

      .cls-24 {
        fill: #4f5252;
      }

      .cls-25 {
        fill: #8d705b;
      }

      .cls-26 {
        fill: #2c2c2b;
      }

      .cls-27 {
        fill: #6e7073;
      }

      .cls-28 {
        fill: #46765f;
      }

      .cls-29 {
        fill: #538c70;
      }

      .cls-30 {
        fill: #474646;
      }

      .cls-31 {
        fill: #c7d6cf;
      }

      .cls-32 {
        fill: #a1be76;
      }

      .cls-33 {
        fill: #4a5e2c;
      }

      .cls-34 {
        fill: #6aab8b;
      }

      .cls-35 {
        fill: #856754;
      }
    </style>
  </defs>
  <!-- Generator: Adobe Illustrator 28.7.1, SVG Export Plug-In . SVG Version: 1.2.0 Build 142)  -->
  <g>
    <g id="Layer_1">
      <g id="Layer_1-2" data-name="Layer_1">
        <g>
          <path class="cls-9" d="M114.38,756.98c2.92-23.32,5.78-46.64,8.79-69.95,5.5-42.66,11.09-85.31,16.66-127.96,5.62-43.09,11.27-86.19,16.89-129.28,1.18-9.02,2.26-18.04,3.4-27.06,1.4-2.71,3.51-1.76,4.89-.42,10.1,9.71,20.97,18.73,28.86,30.54.73,1.1,1.07,2.4,1.16,3.75.89,10.51-1.43,20.77-2.51,31.11-4.65,45.01-9.5,89.99-14.4,134.98-3.6,33.08-6.97,66.17-10.64,99.25-.17,1.54-.39,3.08-.88,4.56-5.27,6.81-11.26,13.03-17.15,19.31-8.49,9.05-17.91,17.21-25.69,26.96-1.78,2.23-3.79,4.41-6.48,5.62-1.24.56-3.13,1.56-2.91-1.38h.01Z"/>
          <path class="cls-33" d="M469.74,473.55c.89,19.72,1.9,39.43,2.65,59.16,2,53.21,3.89,106.42,5.78,159.63.1,2.72.44,5.15,2.18,7.45,14.94,19.55,29.79,39.16,44.67,58.76.76,2.46-.64,4.1-2.63,4.5-13.03,2.67-25.62,7.69-39.2,7.38-3.28-1.76-2.07-4.38-1.15-6.82,1.31-3.47,3.59-6.47,5.38-10.34-6.62-.48-11.83,5.96-18.3,2.72-11.68-10.79-22.92-22.04-33.79-33.65-1.7-1.82-2.86-3.93-3.38-6.4-.64-3.08-.5-6.19-.5-9.29-.01-77.74-.01-155.48,0-233.23,0-3.74-.42-7.55,1.31-11.1,1.71-2.87,4.63-3.05,7.48-3.22,4.15-.24,8.36.21,12.48-.14,7.27-.63,16.08,7.18,17.03,14.58h-.01Z"/>
          <path class="cls-34" d="M193.18,434.67c-8.43-11.52-19.36-20.68-29.09-30.97-1.15-1.21-2.26-2.16-3.96-.99-.46-1.48.26-2.65.99-3.81,3.19-3.29,7.33-3.02,11.2-2.43,9.46,1.44,18.95,1.2,28.41.93,11.73-.33,23.3,1.69,34.99,1.73,17.87-1.64,35.66,1.68,53.51.97,14.14-.56,28.16,1.93,42.28,1.48,1.99-.06,3.96.3,5.79,1.16,2.12,1.04,3.51,2.86,4.03,5.04,3.58,15.04,7.98,29.94,9.21,45.46-.17.78-.48,1.48-.92,2.14-2.51,2.96-6.14,3.12-9.55,3.71-7.11,1.22-14.19,2.52-21.36,3.4-28.41,4.8-56.73,10.25-85.32,13.94-2.87-.25-4.56-2.34-6.47-4.15-10.34-9.85-19.33-20.99-29.51-30.99-1.95-1.91-2.88-4.37-4.23-6.61h.01Z"/>
          <path class="cls-4" d="M235.75,401.3c-21.99-1.38-44.07-.35-66.03-2.38-2.85-.27-5.74-.02-8.62-.01.51-9.79,1.02-19.56,1.53-29.35-2.69-12.43.59-24.66,1.47-36.94,1-14.11,1.46-28.33,4.61-42.21.82-3.67,3.67-5.21,6.8-6.34,4.28-1.54,8.55-3.13,12.96-4.31,9.8-3.4,19.68-6.59,29.49-9.93,2.56-.87,5.38-2.59,7.82.45,1.72,20.21,3.88,40.37,5.31,60.61,2.7,20.6,3.45,41.38,5.69,62.03.31,2.84.56,5.76-1.04,8.4h0Z"/>
          <path class="cls-9" d="M490.08,312.24c16.06,24.46,32.14,48.92,48.18,73.4,1.31,1.99,3.29,3.67,3.33,6.33-6.31,4.55-13.89,4.22-21.01,4.98-22.61,2.4-45.15,5.42-67.75,7.89-4.14.46-8.39,1.19-12.12-1.67-2.18-3.03-1.38-6.44-.97-9.67,5.05-39.81,8.97-79.75,14.33-119.52.38-2.83.38-5.84,3.22-7.64,2.89-.79,4.63,1.03,6.01,3.02,8.29,11.91,16.27,24.01,24.17,36.18,1.32,2.02,1.3,4.62,2.58,6.68h.02Z"/>
          <path class="cls-3" d="M225.06,269.8c-11.95,3.92-23.9,7.85-35.85,11.77-2.56-2.08-2.96-5.12-2.53-7.89,2.22-14.29.02-28.79,2.25-43.08.49-3.11,1.12-6.07,2.51-8.86,1.08-23.12,2.17-46.24,3.26-69.36.93-3.03.39-6.14.4-9.21.01-3.34,1.66-3.72,4.25-2.8,1.91.67,3.47,1.92,5.05,3.13,8.23,6.34,16.1,13.16,24.48,19.29,4.22,3.09,4.86,7.67,6.13,12.09,1.41,11.08,2.69,22.17,2.83,33.36.99,10.01,1.81,20.04,2.75,30.05-.22,2.24-.33,4.49-.02,6.74.37,2.88.89,5.75,1.15,8.65-.03,2.22-.12,4.43.16,6.65.07,1.94-.29,3.77-1.39,5.42-4.67,3.12-9.41,6.02-15.43,4.07h0Z"/>
          <path class="cls-31" d="M481.97,769.33c13.48-2.75,26.96-5.5,40.44-8.26,1.41-.29,2.38-1.03,2.6-2.54,5.64,4.93,12.98,3.59,19.52,5.13,10.05,2.37,20.28,3.97,30.56,6.83-13.15,2.22-26.3,4.45-39.45,6.65-30.87,5.16-61.72,10.32-92.59,15.45-14.56,2.42-29.07,5.74-43.72,6.75-7.7.53-15.84-.39-23.75-1-19.12-1.47-38.24-2.93-57.4-3.98-22.65-1.24-45.25-3.57-67.9-5.01-9.02-.57-18.07-.72-27.11-1.35-8.57-.59-17.11-2.25-25.78-1.63-.92.06-1.92-.86-2.88-1.33,3.01-3.07,6.93-2.44,10.6-2.46,18.95-.09,37.92-.01,56.87-.05,8.16-.02,8.16-.05,10.14-8.17.42-1.74.97-3.4,2.42-4.58,2.17-1.46,4.65-1.2,7.07-1.21,24.76-.03,49.5.03,74.26-.06,4.83-.02,8.78.82,10.51,5.99.59,1.77,2.11,2.89,3.72,3.62,9.83,4.46,19.19,10.01,29.65,13,8.98-3.04,17.3-7.61,26-11.28,3.03-1.27,6.01-2.75,9.33-3.25,9.83-1.12,19.7-.37,29.54-.49,5.14-.05,10.11.04,13.29-5.11.81-1.31,2.4-1.87,4.07-1.65h-.01Z"/>
          <path class="cls-24" d="M232.84,173.74c-.58-5.8-4.64-8.86-8.91-12.07-8.92-6.71-17.57-13.81-26.57-20.94-2.93,3.88-.06,8.39-2.65,11.64-.07-19.84,1.25-39.62,2.16-59.41.13-2.86.03-5.73.04-8.58.15-5.18.3-10.36.45-15.54.98-5.93.19-11.9.47-17.84.7-2.82.57-5.69.68-8.57.2-5.32,1.89-6.42,6.58-3.9,5.48,2.93,10,7.3,15.17,10.72,6.64,4.4,13.04,9.17,19.51,13.81,4.09,2.93,6.43,6.63,5.93,11.83-1.71,22.3-5.22,44.38-8.02,66.54-1.08,8.56-2.6,17.08-2.49,25.78.03,2.42.05,4.95-2.34,6.56h0Z"/>
          <path class="cls-3" d="M449.85,129.74c1.69,31.25,3.38,62.48,5.09,93.73.08,1.54.38,3.07.58,4.61,3.34,11.91,5.37,23.88,1.97,36.17-.61.65-1.34,1.41-2.18,1.4-13.11-.27-26.34.24-38.84-4.89-2.71-5.48-.84-11.24-.63-16.81.23-6.1.95-12.22,1.48-18.34.14-13.45,1.75-26.8,2.78-40.18,1.12-14.49,2.12-29,3.38-43.48.36-4.18.2-8.41,2.68-12.1,5.73-5.17,12.99-4.76,19.93-5.29,3.56-.27,3.04,3.04,3.75,5.17h.01Z"/>
          <path class="cls-34" d="M440.92,402.67c15.31.29,30.3-2.77,45.43-4.31,18.43-1.88,36.82-4.23,55.23-6.39-12.87,15.03-25.71,30.1-38.61,45.1-5.6,6.51-11.35,12.9-17.02,19.34-2.23.91-4.43,1.9-6.97,1.58-12.63-1.54-25.26-3.14-37.78-5.39-2.17-.38-4.28-1.02-5.98-2.56-1.22-1.46-1.53-3.22-1.3-4.99,1.77-13.58,2.29-27.33,5.38-40.74.37-.71.92-1.27,1.63-1.67v.02Z"/>
          <path class="cls-8" d="M191.44,221.73c-.74,19.95-1.49,39.9-2.23,59.85-6.15,3.03-13.43,3.31-18.98,7.8-1.87,3.78-5.59,5.46-8.77,7.76-7.31,5.27-14.77,10.33-22.21,15.43-2.15,1.48-4.18,3.4-7.16,2.36.11-17.63,2.46-35.09,3.77-52.64.18-2.38,1.61-3.5,3.25-4.62,17.44-11.98,34.88-23.96,52.32-35.93h0Z"/>
          <path class="cls-7" d="M114.38,756.98c4.72.69,6.16-3.67,8.21-6.12,8.49-10.2,18.47-18.91,27.47-28.57,3.29-3.54,6.39-7.27,9.67-10.82,1.47-1.58,2.83-3.5,5.37-3.46,3.48,1.52,4.12,5,5.34,8,7.09,17.38,13.71,34.95,21.52,52.03.28.71.47,1.42.63,2.17.18,4.63,1.43,9.41-1.77,13.6-4.01.11-3.88-3.25-3.87-5.5.04-5.94-3.48-7.27-8.37-7.88-18.57-2.34-37.22-4.02-55.74-6.73-3.44-.5-7.16-.39-9.36-3.9.31-.93.61-1.87.91-2.82h0Z"/>
          <path class="cls-12" d="M435.66,449.28c16.77,2.38,33.52,4.76,50.29,7.14-5.55,5.57-9.35,12.79-16.2,17.13-8.22-14.73-21.92-13.21-35.52-12.01-2.92,2.62-6.56,2.29-9.98,2.07-5.91-.39-10.57,1.51-14.5,5.96-2.42,2.74-4.92,5.64-8.85,6.44-3.76.25-6.4-2.02-8.44-4.57-5.23-6.56-11.9-8.69-19.97-7.8-2.84.32-5.76.19-8.62-.2-1.1-.02-2.2.31-3.29.2-9.72-1.01-18.52.19-24.07,9.67-.53.91-1.68,1.4-2.71,1.85-6.62-1-14.46-8.72-15.2-14.97,10.16-1.88,20.52-2.71,30.5-5.55,3.53-3.24,8.12-3.2,12.43-3.95,7.62-1.34,15.24-2.76,22.98-3.36,15.02-1.17,30.07-.4,45.1-.41,2.28,0,4.3.9,6.08,2.36h-.03Z"/>
          <path class="cls-31" d="M113.48,759.79c21.25,2.68,42.5,5.35,63.75,8.03.22.03.45.02.66.04,7.36.63,11.2,4.66,11.52,12.09.05,1.32-.1,2.68,1,3.71.44.33.57.75.41,1.27-18.74.1-37.39-1.34-55.99-3.41-8.77-.98-17.57-.51-26.4-1.47-15.51-1.7-31.16-2.08-47.07-4.23,17.37-5.34,34.74-10.7,52.11-16.04h.01Z"/>
          <path class="cls-29" d="M190.83,784.94c-.14-.43-.28-.85-.41-1.27.01-4.82.03-9.66.04-14.48,1.05-2.48,3.16-3.57,5.57-4.25,9.98-2.82,19.78-6.17,29.73-9.09,5.08-1.5,9.99-1.12,14.95.48,7.77,2.51,15.64,4.64,23.39,7.2,3.36,1.1,6.76,2.09,10.37,1.17,2.24.48,2.59,2.07,2.35,4.02-.27.66-.63,1.26-1.1,1.8-1.76,2.62-1.07,5.62-.87,8.37.36,4.79-1.66,5.98-6.15,5.97-24.72-.09-49.44.1-74.16.18-1.23-.03-2.45-.06-3.69-.1h0Z"/>
          <path class="cls-24" d="M449.85,129.74c-1.19-1.92-1.7-4.06-5.23-3.08-5.61,1.54-11.5,2.06-17.27,3.02-2.28-1.97-2.57-4.72-2.33-7.33,1.66-17.41,1.83-34.97,4.64-52.27.97-3.53,4.03-5.08,6.66-7.04,4.6-3.44,9.3-6.73,14-10.02,2.23-1.56,4.47-3.97,7.69-1.9.9,4.96-2.32,9.63-1.07,14.62-2.68,21.3-5.56,42.58-7.1,64.01h-.01Z"/>
          <path class="cls-1" d="M132.1,314.91c11.2-7.66,22.4-15.33,33.62-22.95,1.43-.98,3.01-1.72,4.52-2.58-1.4,16.69-2.78,33.39-4.22,50.1-.66,7.69-1.44,15.37-2.17,23.06-.22,2.38.48,4.92-1.21,7.04-10.64-17.96-20.88-36.14-30.53-54.65h-.01Z"/>
          <path class="cls-1" d="M490.08,312.24c-10.24-15.11-20.48-30.22-30.73-45.33-1.09-.74-2.24-1.46-1.48-3.09,6.48-7.13,14.92-11.66,22.76-16.95,2.73-1.84,4.57-.54,5.06,2.65,1.47,20.91,2.92,41.82,4.39,62.73h0Z"/>
          <path class="cls-8" d="M485.68,249.52c-1.54-2.6-2.96-2.08-5.23-.47-7.33,5.26-14.92,10.18-22.41,15.23-.41.4-.83.42-1.23-.02-.44-12.06-.86-24.11-1.3-36.17,10.05,4.24,18.63,11.01,28.03,16.35,2,1.14,2.63,2.88,2.11,5.08h.02Z"/>
          <path class="cls-27" d="M198.71,49.8c-.13-15.67-1.46-11.97,10.88-18.03,5.69-2.79,11.36-5.65,17.03-8.48,14.16-6.63,28.32-13.28,42.5-19.88,2.17-1.01,4.43-1.8,6.65-2.69,2.24,1.01,4.26,2.22,5.82,4.25,19.65,25.48,39.88,50.5,59.53,75.97,1.5,1.93,4.96,4.03,1.4,7.19-6.52,1.16-12.73-.96-18.97-2.09-21.95-3.99-43.89-8.07-65.87-11.94-3.87-.68-7.79-1.94-11.69-.03-.73.23-1.43.17-2.11-.19.21-3.9-1.52-6.37-4.81-8.64-10.87-7.5-21.43-15.47-32.19-23.12-1.88-1.34-3.63-3.25-6.29-3.35-1.8,3.63.42,7.72-1.89,11.02h.01Z"/>
          <path class="cls-24" d="M343.59,87c-22.61-28.76-45.22-57.52-67.83-86.28,37.29-.07,74.6-.14,111.89-.21,1.1,0,2.21,0,2.93,1.07-4.08,11.79-11.18,22.07-16.78,33.09-7.93,15.59-16.13,31.05-24.29,46.53-1.14,2.15-2.05,4.44-4.07,5.99-.65.34-1.27.29-1.86-.16v-.02Z"/>
          <path class="cls-21" d="M344.92,86.93c6.79-17.04,16.78-32.48,24.75-48.94,4.98-10.3,10.79-20.2,16.23-30.28,1.24-2.29,1.95-4.99,4.7-6.15.72.19,1.44.38,2.17.57,3.43-.11,5.67,2.34,8.17,4.05,14.26,9.81,28.33,19.89,42.22,30.21,2.17,1.6,4.18,3.29,5.39,5.77,2.52,3.67,8.31,3.85,9.48,8.94-7.45,3.05-13.06,8.83-19.66,13.15-2.39,1.57-4.9,2.97-7.35,4.45-1.26,2.85-3.96,3.37-6.54,3.92-24.24,5.23-48.48,10.4-72.76,15.45-2.35.49-4.84,1.08-6.8-1.15h.01Z"/>
          <path class="cls-33" d="M190.42,767.91c-4.73-5.2-6.03-12.08-8.69-18.23-5.92-13.73-11.13-27.76-16.65-41.67-.32-13.26,2.28-26.28,3.34-39.43,1.16-14.48,3.13-28.89,4.74-43.34,2.12-19.04,4.28-38.07,6.34-57.12,1.51-14.01,2.84-28.06,4.32-42.07,1.56-14.67,3.34-29.31,4.83-44,1.61-15.78,3.01-31.58,4.5-47.38,13.77,12.49,25.58,26.87,38.56,40.14,1.88,1.8,2.51,4.12,2.52,6.59.04,8.55.61,17.12-.31,25.66-.07.81-.12,1.63-.1,2.44-.5,11.98-.78,24-2.61,35.89-.22,13.73-2.38,27.27-3.78,40.88-3.09,30.12-6.63,60.19-9.58,90.32-.12,1.17-.14,2.35-.24,3.51-1.6,14.68-2.92,29.4-5.31,43.98-4.82,13.74-11.93,26.47-17.64,39.82-.82,1.9-2.4,3.11-4.24,3.98v.02Z"/>
          <path class="cls-15" d="M400.87,474.82c.69-.55,1.58-.98,2.05-1.68,7.62-11.52,18.72-13.54,31.3-11.59,0,85.65.01,171.29.02,256.95,4.65,13.49,2.11,27.33,1.99,41.04-.17,6.31,2.41,12.91-1.98,18.77-11.17,5.04-22.32,10.08-33.49,15.12-3.01-.71-3.29-3.27-3.72-5.65-.36-1.97-.22-3.97-.22-5.97,0-98.16-.02-196.34.04-294.5,0-4.49-1.12-9.55,4.02-12.48h-.01Z"/>
          <path class="cls-20" d="M434.25,778.31c0-6.13,0-12.26.01-18.38.54-.49,1.19-.78,1.91-.86,7.63-.14,15.3,1.08,22.85-.85,3.6-1.37,7.26-2.61,10.98-3.62,6.11,1.55,10.7-2.89,16.11-4.1,1.42-.32,2.89-1.94,4.24-.58,1.41,1.42-.23,2.86-.85,4.11-2.51,5.1-6.39,9.53-7.52,15.31-4.27,10.31-13.04,9.62-21.91,9.23-8.6-.36-17.2-.19-25.81-.25h-.01Z"/>
          <path class="cls-34" d="M435.5,759.92h-1.23c0-13.81-.01-27.62-.02-41.44,11.92,12.04,23.84,24.07,35.76,36.1-1.63,4.39-6.48,3.09-9.34,5.3-8.39,1.02-16.79.98-25.18.03h.01Z"/>
          <path class="cls-9" d="M235.75,401.3c-2.68-4.66-1.67-10.02-2.21-14.95-2.02-18.42-3.05-36.95-4.45-55.45,2.8-2.23,5.96-1.31,8.94-.74,32.37,6.13,64.72,12.38,97.08,18.56,2.82.54,5.66,1.15,7.76,3.43,3.44,5.69.9,11.69.39,17.38-1.02,11.28-.18,22.83-4.08,33.78-.31.27-.62.53-.92.8-34.17-.93-68.33-1.88-102.5-2.82h0Z"/>
          <path class="cls-9" d="M231.78,508.04c-.02-11.07-.03-22.15-.05-33.22,28.95-4.88,57.89-9.74,86.85-14.62,4.41,5.13,9.07,10.01,14.31,14.32,1.32.98,2.09,2.36,2.22,3.92.74,8.8.87,17.59-.11,26.39-.15,1.32-.83,2.51-1.74,3.51-2.43,2.08-5.42,1.67-8.26,1.68-28.36.05-56.72.04-85.08,0-2.85,0-5.83.34-8.14-1.98h0Z"/>
          <path class="cls-18" d="M383.46,449.37c-11.43,1.97-22.79,4.37-34.38,5.29-.02-.45,0-.88.07-1.33.15-10.42,1.75-20.67,3.57-30.91.85-4.79,2.89-8.56,6.71-11.75,9-7.51,17.68-15.38,27.06-22.46,1.09-.45,2.17-.73,3.04.41.42.68.69,1.41.83,2.2-.32,16.34-2.62,32.54-3.3,48.85-.15,3.53-.74,7.08-3.6,9.68h0Z"/>
          <path class="cls-13" d="M387.49,389.64c-9.8,8.28-19.57,16.57-29.39,24.82-3.72,3.12-2.8,7.72-3.77,11.68-2.21,8.97-1.76,18.46-5.2,27.2-3.63-16.4-7.26-32.81-10.89-49.21l-.04-.07c1.52-2.74,4.09-3.87,6.95-4.63,11.53-3.09,22.82-6.96,34.29-10.24,2.7-.78,5.51-2.11,8.06.46h-.01Z"/>
          <path class="cls-34" d="M342.24,352.19c-24.72-4.62-49.45-9.23-74.16-13.88-13-2.44-26-4.94-38.99-7.42-1.76-17.57-3.58-35.14-5.26-52.72-.27-2.83-.56-5.8,1.23-8.39,4.8-1.49,9.6-2.97,14.41-4.46,5.6,1.65,3.3,6.84,4.7,10.38.71,7.5,2.69,14.83,3.34,22.34.45,5.23,3.42,7.52,8.19,9.01,24.75,7.7,49.75,14.52,74.61,21.81,4.22,1.23,8.68,2.05,11.83,5.62,3.04,5.47,3.39,11.11,1.01,16.9-.3.25-.59.52-.89.78v.02Z"/>
          <path class="cls-7" d="M456.82,264.25c.41-.12.82-.11,1.23.02.44.88.86,1.76,1.3,2.65-4.91,3.84-3.05,9.68-3.71,14.47-3.51,25.51-6.31,51.13-9.37,76.7-1.77,14.86-3.57,29.73-5.35,44.59l-.22.53c-4.18,2.56-8.22.49-12.18-.55-22.18-5.85-18.85-5.44-19-24.17-.11-13.95-.16-27.91.06-41.85.13-3.1,2.12-5.23,3.89-7.52,5.43-7.04,5.73-14.5.88-22.16-1.19-1.88-2.6-3.61-2.61-6-.13-5.95,0-11.87,1.41-17.69.5-7.83-.71-15.94,3.79-23.11,13.29,1.37,26.57,2.74,39.86,4.12v-.02Z"/>
          <path class="cls-18" d="M243.9,73.88c.34-.12.69-.21,1.04-.29,4.07,3.72,3.57,8.82,3.96,13.58,1.23,14.76,2.52,29.52,3.6,44.28,1.91,26.02,4.64,51.98,5.96,78.04.09,1.77.33,3.53-.28,5.25-.79,1.99-2.48,2.54-4.28,2.09-6.57-1.64-13.17-3.27-17.99-8.63-1.03-11.49-2.05-22.97-3.08-34.46-.35-27.52,6.09-54.28,8.9-81.45.64-6.14,1.43-12.27,2.16-18.41h0Z"/>
          <path class="cls-35" d="M235.92,208.21c7.03,2.71,14.07,5.42,21.1,8.13.31.28.62.54.92.81,2.5,4.2,1.93,9.03,2.37,13.55,1.32,13.81,1.78,27.69,2.8,41.53.13,1.78-.18,3.52-1.14,5.09-2.93,3.67-7.45,1.47-10.96,2.99-3.85.83-6.67-.65-8.7-3.9-2.77-3.21.51-7.98-2.84-11.05.15-1.73.3-3.45.46-5.18.74-2.16.82-4.31-.05-6.46-.7-2.69-1.81-5.32-1.24-8.21.68-2.16.8-4.3-.07-6.45-1.71-10.21-2.54-20.48-2.63-30.83h-.01Z"/>
          <path class="cls-11" d="M239.87,253.69c1.71,2.15,1.7,4.29.05,6.46-.02-2.16-.03-4.31-.05-6.46Z"/>
          <path class="cls-25" d="M238.54,239.04c1.71,2.12,1.67,4.28.07,6.45-.02-2.15-.05-4.3-.07-6.45Z"/>
          <path class="cls-16" d="M400.87,474.82c-1.66,2.6-1.35,5.52-1.35,8.39-.03,100.85-.06,201.71-.06,302.56,0,2.59-.71,5.37,1.3,7.65-3.85,1.38-6.67-1.5-9.74-2.7-6.98-2.76-13.7-6.2-20.5-9.42-3.54-1.68-7.2-2.83-7.32-8.17-.08-3.87-4.09-2.49-6.45-2.5-27.02-.12-54.04-.12-81.07-.14-.06-.41-.06-.84,0-1.25,2.99-3.03,6.85-2.71,10.58-2.72,21.89-.04,43.79.01,65.67-.03,8.61-.02,8.83-.32,8.92-9.02.24-21.45-.53-42.91.44-64.37-.76-48.44-.65-96.89-.07-145.33,0-.88-.01.22.06-.66-.57-12.37-.78-24.73.04-37.11.05-.86.05-1.71-.01-2.56-.95-13.15-.34-26.32-.33-39.47,0-2.48.74-4.76,2.57-6.58,1.54,0,3.11.17,4.62-.02,11.41-1.51,21.35.63,28.2,10.93.98,1.48,2.55,2.43,4.47,2.51h.02Z"/>
          <path class="cls-13" d="M257.02,216.33c-1.33-16.22-2.61-32.46-4.02-48.68-1.65-19.07-3.42-38.13-5.07-57.19-1.06-12.28-2.01-24.58-3.01-36.87-.15-4.2,2.21-3.75,5.24-3.21,31.13,5.61,62.28,11.1,93.42,16.62.44-.02.88-.04,1.32-.06,28.7-6.08,57.4-12.14,86.1-18.22.28,15.54-1.99,30.93-2.97,46.4-.31,4.86-.83,9.69-.68,14.57-2.18,26.24-4.35,52.49-6.53,78.72-.48,5.73-1.03,11.45-1.55,17.18-3.69,3.58-8.24,2.65-12.59,2.26-12.78-1.1-25.62-1.4-38.41-2.26-19.2-1.3-38.4-2.63-57.61-3.56-11.49-.55-22.95-1.63-34.47-1.86-6.54-.13-13.36.23-19.18-3.84h0Z"/>
          <path class="cls-18" d="M257.02,216.32c27.91,1.72,55.81,3.46,83.72,5.15,15.83.97,31.66,1.92,47.49,2.76,10.34.55,20.7.89,31.04,1.33.35,11.59-1.39,23.05-2.32,34.55-.52,8.05-1.04,16.1-1.56,24.15-6.51,4.14-13.34,2.57-20.18,1.15-.81-.18-1.61-.33-2.44-.41-29.63.65-59.15-1.85-88.7-3.25-11.25-.53-22.55-.3-33.78-1.53-3.25-.35-6.74.22-9.24-2.67-1.35-20.42-2.7-40.83-4.05-61.25v.02Z"/>
          <path class="cls-13" d="M411.09,334.91c.04,18.08.24,36.17.02,54.25-.06,4.67,1.63,6.73,5.98,7.76,7.92,1.88,15.74,4.15,23.6,6.27-.69,15.47-3.45,30.72-5.04,46.09-17.4.03-34.81.05-52.2.08,1.37-18.04,2.72-36.08,4.18-54.11.16-1.95.9-3.86,1.37-5.79,4.08-2.97,8.16-.73,12.02.34,5.11,1.42,6.77-.15,6.71-5.28-.14-13.67-.1-27.35-.02-41.03.01-2.2,0-4.42.86-6.52.51-1.09,1.15-2.04,2.53-2.06h-.01Z"/>
          <path class="cls-34" d="M190.42,767.91c6.67-14.24,13.34-28.47,20.02-42.7,2.46-2.19,5.41-1.54,8.21-1.23,15.31,1.69,30.57,3.91,45.83,5.98,9.29,1.26,9.74,1.97,10.5,11.63.17,2.23.98,4.29,1.35,6.46.24,5.76,2.23,11.72-1.83,17.01.08,3.36-1.69,3.38-4.26,2.58-8.84-2.73-17.87-4.93-26.54-8.14-7.42-2.74-14.27-3.06-21.78-.3-10.32,3.78-20.96,6.69-31.46,9.97.03-.43.02-.85-.02-1.27h-.01Z"/>
          <path class="cls-7" d="M363.59,461.41c-.05,15.57-.11,31.12-.15,46.69-2.28,2.33-5.27,2.02-8.07,1.89-7.19-.35-14.47,1.13-21.58-1-.29-.31-.58-.62-.87-.92-.01-11.18-.02-22.37-.04-33.54.11-.2.2-.39.31-.59,6.68-12.58,17.79-14.38,30.4-12.52h.01Z"/>
          <path class="cls-33" d="M274.5,765.08c-.11-5.74-.21-11.47-.32-17.21-.49-11.15-3.12-22.41,1.92-33.23,1.88-5.08,2.55-10.48,4.12-15.64.69-2.27,1.24-4.61,3.1-6.31,3.18-2,6.42-.82,9.65-.18,13.89,2.74,27.51,6.65,41.44,9.14,7.18-2.14,13.96-5.33,20.96-7.95,2.59-.97,5.27-2.6,8.07-.41.07,23.9.04,47.79.32,71.69.05,4.73-2.43,4.75-5.82,4.73-27.41-.18-54.83-.29-82.25-.41-.14-1.47-.04-3-1.19-4.18v-.02Z"/>
          <path class="cls-7" d="M335.45,703.8c-10.25-.41-19.77-4.38-29.75-6.16-7.37-1.32-14.69-2.96-22.04-4.46-2.39.93-4.78.54-7.18,0-17.72-3.97-35.43-7.95-53.07-12.24-2.85-.69-5.55-1.54-7.63-3.72.24-16.4,3.03-32.59,4.59-48.86,1.8-18.71,4.01-37.38,6.02-56.07.98-9.02,1.93-18.04,2.9-27.05,2.61-2.7,6.02-2.42,9.34-2.53,29.05-.98,58.03,1.94,87.07,1.38,2.68-.05,5.33.3,7.55,2.07,2.38,2.75,2.19,6.12,2.32,9.43,1.86,46.62,1.22,93.27,1.35,139.91,0,2.84.49,5.8-1.48,8.3h0Z"/>
          <path class="cls-32" d="M333.04,546.86c-3.96-.06-7.94-.14-11.9-.2-30.61-.48-61.23-.95-91.84-1.42.84-11.91,1.67-23.82,2.51-35.73,2.24-1.48,4.75-.73,7.12-.74,31.23-.05,62.45-.04,93.68-.04,10.28.37,20.6-.78,30.87.59v37.42c-10.13,4.09-20.27,3.96-30.42.11v.02Z"/>
          <path class="cls-20" d="M278.28,714.56c-3.39,10.85-4.58,21.97-4.1,33.31-1.13-1.26-1.07-2.83-1.15-4.38-.51-10.38-.54-10.25-10.91-11.55-17.23-2.15-34.45-4.47-51.67-6.73,1.16-15.18,2.86-30.3,5.27-45.34,3.38-1.94,5.98.45,8.52,1.85,16.1,8.91,32.25,17.72,48.22,26.87,2.52,1.44,5.11,2.78,5.83,5.97h-.01Z"/>
          <path class="cls-28" d="M278.28,714.56c-17.32-9.79-34.61-19.66-52.01-29.29-3.44-1.9-6.35-4.94-10.55-5.4.02-.88.04-1.76.06-2.65,22.69,5.04,45.55,9.38,67.88,15.96-1.27,7.26-2.99,14.4-5.39,21.37h0Z"/>
          <path class="cls-2" d="M332.87,509.2c-33.69.11-67.38.2-101.06.31-.01-.49-.02-.98-.03-1.47,33.71,0,67.44.01,101.15.02l.02-.02c.5.29.66.55.47.8-.18.23-.35.36-.53.36h-.01Z"/>
          <path class="cls-14" d="M435.5,759.92c8.39,0,16.79-.02,25.18-.03-8.39,2.12-16.79,2.07-25.18.03Z"/>
          <path class="cls-7" d="M387.49,389.64c-16.7,3.87-32.85,9.64-49.29,14.41,1.35-17.29,2.7-34.57,4.04-51.85h-.06c1.47-1.69,3.11-3.04,5.26-3.86,11.32-4.29,22.65-8.5,34.06-12.54,3.09-1.09,6.46-2.18,8.81,1.61,2.23,6.93.93,14.05,1.14,21.07.21,7.07.13,14.14,0,21.21-.05,3.07.07,6.27-2.71,8.5-.41.48-.83.96-1.24,1.43h0Z"/>
          <path class="cls-16" d="M388.74,388.19c-.05-17.38-.11-34.75-.16-52.14-.18-.81.12-1.36.87-1.66,6.78,1.43,13.81-.48,20.56,1.54.05,17.74-.02,35.49.23,53.23.07,4.92-1.52,5.55-5.83,4.12-5.01-1.65-10.26-2.58-15.41-3.82-.07-.42-.16-.85-.25-1.27h-.01Z"/>
          <path class="cls-23" d="M394.1,282.93c.56.05,1.13.12,1.7.17,1.87,4.97-.31,9.74-.73,14.61-6.47,5.18-12.03,11.09-14.96,19.07-10.99,7.05-22.98,12.14-34.63,17.93-1.38.69-2.93,1.04-4.44.17-23.95-7.1-47.9-14.19-71.85-21.3-6.14-1.83-12.25-3.78-18.43-5.48-2.97-.82-4.37-2.48-4.76-5.51-1.13-8.75-2.44-17.48-3.7-26.21,2.68.85,5,2.72,7.97,2.72,3.65-.28,6.95,1.03,10.21,2.42,24.83,10.56,50.16,19.91,74.81,30.89,8.09,3.6,14.28,3.35,21.1-2.58,7.83-6.8,16.55-12.57,24.82-18.87,4.05-3.08,8.14-6.07,12.88-8.02h.01Z"/>
          <path class="cls-28" d="M341.04,334.89c12.65-6.47,25.16-13.23,38.32-18.64,3.01,6.27,6.42,12.36,9.22,18.73.1.36.1.71,0,1.07-13.28,3.72-25.91,9.23-38.9,13.8-2.46.87-5,1.55-7.5,2.32-.02-5.79.46-11.6-1.14-17.29h-.01Z"/>
          <path class="cls-12" d="M388.58,334.98c-5.72-4.94-9.36-10.9-9.21-18.73,1.64-8.73,5.67-15.5,14.75-18.18,6.29-4.8,14.02-3.37,18.83,3.48,10.31,12.51,9.81,21.47-1.85,33.35-.36.34-.72.68-1.09,1.02-7.25,2.03-14.44,2.89-21.43-.96h.01Z"/>
          <path class="cls-28" d="M412.94,301.56c-5.82-3.63-12.01-5.24-18.83-3.48-1.94-5.27.4-10.06,1.68-14.97,6.44,2.01,13.08.7,19.6,1.18-2.52,5.51.23,11.78-2.45,17.28Z"/>
          <path class="cls-35" d="M394.1,282.93c-9.18,9.34-21.24,15.15-30.51,24.18-11.23,10.93-21.54,11.43-35.76,4.57-24.04-11.6-49.38-20.48-74.17-30.55-1.2-.49-2.25-1.35-3.38-2.04,3.26-2.86,7.19-.95,10.78-1.52,34.2,1.36,68.42,2.37,102.58,4.31,10.16.58,20.3.72,30.45,1.04h.01Z"/>
          <path class="cls-9" d="M333.04,546.86c10.14-.03,20.28-.07,30.42-.11,0,48.83,0,97.67-.01,146.51-9.33,3.52-18.67,7.03-28,10.55-.96-3.65-1.18-7.36-1.18-11.15.02-32.72.45-65.46-.28-98.16-.35-15.87-1.19-31.75-.96-47.63h0Z"/>
          <path class="cls-5" d="M332.87,509.2c.02-.38.04-.78.06-1.16,10.17.02,20.34.03,30.49.05.16.4.17.82.03,1.23-10.2-.04-20.4-.08-30.59-.13Z"/>
          <path class="cls-6" d="M331.75,141.75c4.81-3.84,12.19-3.84,17.01,0,2.57,1.58,2.99,4.3,3.45,6.9,2.56,14.17,5.47,28.28,7.83,42.5.51,3.05.99,6.13-.46,9.09-1.4.95-2.8,1.88-4.2,2.83-10.54,7.22-21.07,4.82-31.61,0-2.29-1.86-1.22-4.5-1.57-6.82-2.35-2.08-1.97-4.8-1.49-7.38,2.46-13.44,4.63-26.93,7.48-40.3.54-2.56.99-5.26,3.55-6.81Z"/>
          <path class="cls-18" d="M359.59,200.24c-3.61-19.5-7.21-38.99-10.83-58.49.06-.48.13-.95.19-1.42,2.58-1.3,5.37-1.3,8.16-1.31,15.23-2.66,30.4-.29,45.59.5,6.2.32,10.64,3.9,14.08,8.83,1.82,2.35,1.91,2.58-.82,3.71-6.95,2.88-13.95,5.63-21.02,8.2-2.4.87-4.35,2.08-5.8,4.13-2.33-.98-2.41-3.55-3.72-5.25-2.14-2.8-4.94-3.58-8.2-2.65-2.88.82-4.29,2.97-4.52,5.86-.24,3.16,1.02,5.54,3.9,7.02,1.9.98,4.4.9,5.61,3.12-8.12,7.14-13.3,16.63-19.93,24.96-.8,1-1.78,1.84-2.69,2.76h-.01Z"/>
          <path class="cls-18" d="M331.75,141.75c-2.87,15.78-5.76,31.55-8.6,47.33-.42,2.37-.63,4.78-.93,7.17-1.17.76-1.56,5.04-3.8.49-4.36-8.89-9.11-17.58-13.72-26.36-.81-1.54-1.46-3.3-3.64-3.37-.37-.27-.72-.57-.85-.99-3.46-11.07-3.55-11.11-14.68-8.01-.65.18-1.31.06-1.88-.32-5.99-1.81-12-3.58-17.97-5.44-1.9-.59-4.76-.61-3.19-4.03,6.71-7.67,15.36-9.36,25.15-9.16,11.44.22,22.89-2.42,34.35-.1,2.36.16,4.81-.13,6.9,1.39,1.16.04,2.19.35,2.86,1.39h.01Z"/>
          <path class="cls-21" d="M322.23,140.14c-13.21.52-26.41,1.31-39.63,1.42-5.33.04-9.92,1.1-14.21,4.18-1.74,1.25-3.41,2.91-5.91,2.46,3.47-5.85,7.09-11.63,10.38-17.58,1.52-2.74,3.05-3.53,6.28-2.76,14.76,3.51,29.59,6.69,44.39,9.99.78,1.46-.42,1.78-1.31,2.29h0Z"/>
          <path class="cls-30" d="M416.78,148.36c-10.32-9.11-23.3-6.34-35.27-7.66-8.07-.88-16.31-.37-24.47-.49-.9-.53-2.22-.82-1.36-2.37,15.1-3.22,30.23-6.32,45.27-9.73,3.28-.74,5.35-.48,6.87,2.74,2.8,5.92,7.65,10.81,8.96,17.5h0Z"/>
          <path class="cls-17" d="M283.64,157.68c3.69-3.74,8.02-5.72,12.96-3.09,4.96,2.63,5.89,7.22,4.44,12.41-3.27,5.26-7.85,7.36-13.49,4.39-5.72-3.02-6.19-8.11-3.92-13.72h.01Z"/>
          <path class="cls-26" d="M382.2,172.52c-1.76-.07-3.63.2-5.29-.28-4.59-1.33-7-4.58-6.92-9.37.08-4.8,2.59-8.02,7.28-9.05,4.58-1.01,8.45.49,10.61,4.82.85,1.7.85,3.82,1.23,5.76-.82,3.97-3.26,6.57-6.93,8.12h.01Z"/>
          <path class="cls-19" d="M323.79,203.06c.66-.03,1.37-.23,1.97-.05,9.88,3.01,19.75,2.55,29.64.05-3.27,4.96-8.96,6.74-13.44,10.11-1.72,1.3-3.26.1-4.74-.93-4.45-3.09-8.95-6.12-13.43-9.17h0Z"/>
          <path class="cls-10" d="M355.67,137.84c.46.79.9,1.58,1.36,2.37-2.69.04-5.39.09-8.07.13,1.67-2.38,4.08-2.75,6.73-2.5h-.01Z"/>
          <path class="cls-22" d="M322.23,140.14l1.31-2.29c2.24-.15,4.43-.18,5.35,2.51-2.22-.06-4.44-.14-6.65-.2h-.01Z"/>
          <path class="cls-35" d="M297.57,234.02c-3.46,5.04-.34,5.84,3.8,6.73,10.93,2.32,21.97,2.37,33.04,2.21,2-.03,3.99.09,5.99,0,3.05-.15,4.48,1.07,4.4,4.27-.07,2.99-1.66,3.74-4.26,3.73-13.75-.03-27.51-.04-41.26,0-2.48,0-4.25-1.13-5.72-2.88-2.78-3.33-5.63-5.51-9.38.83.84-10.6,5.29-15.56,13.38-14.89h0Z"/>
        </g>
      </g>
    </g>
  </g>
</svg>