<?xml version="1.0" encoding="UTF-8"?>
<svg xmlns="http://www.w3.org/2000/svg" version="1.1" viewBox="0 0 636.44 792">
  <defs>
    <style>
      .cls-1 {
        fill: #464949;
      }

      .cls-2 {
        fill: #896b58;
      }

      .cls-3 {
        fill: #788a5c;
      }

      .cls-4 {
        fill: #e2c9b7;
      }

      .cls-5 {
        fill: #607343;
      }

      .cls-6 {
        fill: #2c2c2c;
      }

      .cls-7 {
        fill: #677546;
      }

      .cls-8 {
        fill: #c2d2cb;
      }

      .cls-9 {
        fill: #bc987e;
      }

      .cls-10 {
        fill: #d9bca6;
      }

      .cls-11 {
        fill: #9c9fa0;
      }

      .cls-12 {
        fill: #c3c3c3;
      }

      .cls-13 {
        fill: #bc977e;
      }

      .cls-14 {
        fill: #84c4a7;
      }

      .cls-15 {
        fill: #548c70;
      }

      .cls-16 {
        fill: #846754;
      }

      .cls-17 {
        fill: #538b70;
      }

      .cls-18 {
        fill: #464646;
      }

      .cls-19 {
        fill: #568d70;
      }

      .cls-20 {
        fill: #4f5252;
      }

      .cls-21 {
        fill: #bb977d;
      }

      .cls-22 {
        fill: #679b79;
      }

      .cls-23 {
        fill: #6e7073;
      }

      .cls-24 {
        fill: #46765f;
      }

      .cls-25 {
        fill: #849c83;
      }

      .cls-26 {
        fill: #538c70;
      }

      .cls-27 {
        fill: #bec5b2;
      }

      .cls-28 {
        fill: #a1be76;
      }

      .cls-29 {
        fill: #4a5e2c;
      }

      .cls-30 {
        fill: #6aab8b;
      }

      .cls-31 {
        fill: #788b5c;
      }

      .cls-32 {
        fill: #fdfdfd;
      }

      .cls-33 {
        fill: #856754;
      }

      .cls-34 {
        fill: #558c70;
      }
    </style>
  </defs>
  <!-- Generator: Adobe Illustrator 28.7.1, SVG Export Plug-In . SVG Version: 1.2.0 Build 142)  -->
  <g>
    <g id="Layer_1">
      <g>
        <path class="cls-3" d="M387.62,418.29c-2.23,13.72-1.13,27.62-2.02,41.42-1.19,18.25-1.25,36.58-1.8,54.87-1.72,6.91-7.47,11.39-10.54,17.49-7.1,9.64-13.82,19.55-20.48,29.49-3.93,4.91-7.37,10.19-11.1,15.25-1.48,2.01-2.67,4.31-5.27,5.19-3.6,0-4.99-2.97-6.66-5.28-4.61-6.37-9.21-12.75-14.04-18.97-3.49-4.49-4.54-4.49-8.22-.1-6.55,7.82-13.07,15.67-19.6,23.51-1.63,1.95-3.05,4.13-5.63,5.02-4.25.47-5.83-2.96-7.78-5.58-6.84-9.16-13.33-18.58-20.04-27.83-5.56-8.54-11.87-16.55-17.53-25.02-.4-.45-.76-.93-1.09-1.43-4.08-6.22-9-11.85-12.69-18.34-10.24-22.8-20.48-45.61-30.67-68.43-.96-2.14-2.14-4.2-2.16-6.65,1.5-6.21,6.12-10.61,9.28-15.86,2.3-3.83,5-7.41,7.07-11.39,9.5-23.86,18.88-47.77,28.16-71.71,3.64-9.38,7.38-18.72,11.16-28.05.83-2.04,1.08-5.4,4.91-4.23,1.78,2.48,1.32,5.26,1.13,8.04-2.14,30.71-4.4,61.41-6.41,92.12-.34,5.22,2.17,4.06,4.94,2.76,9.68-4.56,19.14-9.54,28.75-14.24,4.6-2.25,9.13-4.72,14.3-5.51,3.47-.11,5.28,2.33,7.12,4.69,4.19,5.37,8.08,10.96,12.37,16.26,4.76,5.88,5.44,5.99,10.25-.17,4.74-6.06,10.71-10.96,15.4-17.03.65-.85,1.58-1.41,2.61-1.76,3.27-.41,5.63,1.58,8.04,3.23,9.98,6.81,20.06,13.46,29.96,20.38,2.25,1.57,4.42,3.44,7.51,2.35,1.45.43,1.91,1.55,2.02,2.91-.07,1.03-.48,1.9-1.25,2.59Z"/>
        <path class="cls-10" d="M454.53,261.26c-4.45,10.19-6.44,21.11-9.42,31.73-1.25,4.46-2.46,6.01-7.75,4.97-20.02-3.91-40.18-7.05-60.3-10.43-1.67-.28-3.4-.18-5.1-.26-2.31,1.87-4.89,1.07-7.36.62-15.3-2.79-30.37-6.73-45.64-9.67-2.52-.49-5-1.2-6.56-3.55-1.41-2.93-.63-5.9,0-8.79,10.37-46.92,19.62-94.08,30.62-140.87.63-2.69.97-5.45,1.77-8.1,1.01-3.7,4.08-5.31,7.14-6.8,22.95-11.16,46.13-21.83,68.98-33.22,1.91-.95,3.89-1.76,6.12-1.4,16.31,8.71,31.07,19.88,46.72,29.64,5.39,3.36,10.61,7.01,16.14,10.17,1.94,1.4,3.77,2.89,4.29,5.41-.59,8.63-3.91,16.62-6.14,24.84-3.75,13.83-7.65,27.63-11.48,41.44-3.08,8.89-4.73,18.19-7.66,27.12-2.05,5.99-2.98,12.3-5.19,18.24-1.69,7.43-3.67,14.78-5.88,22.08-.75,2.49-1.96,4.67-3.3,6.83Z"/>
        <path class="cls-30" d="M427.32,76.66c-10.44,4.83-20.91,9.59-31.3,14.51-15.23,7.22-30.41,14.55-45.6,21.85-1.53.73-3.16,1.38-3.85,3.16-.4.49-.85.95-1.34,1.36-.54.35-1.13.6-1.74.77-28.02,13.79-56.41,26.81-84.57,40.31-28.36,13.59-56.94,26.71-85.15,40.62-2.23,1.1-4.58,2.65-7.18.69-.76-.46-1.52-.92-2.28-1.38-2.27-6.99-1.51-14.33-2.16-21.48-1.47-16.27-2.52-32.59-4.08-48.85-.31-3.25.42-6.33.81-9.47.87-.8,1.74-1.61,2.62-2.41,3.58-1.94,7.31-3.18,11.41-3.89,47.79-8.26,95.58-16.58,143.43-24.52,1.88-.31,3.8-.62,5.59-1.39,30.16-4.43,60.23-9.37,90.23-14.8,6.72-1.22,13.4-2.57,20.06-4.02,2.93-.64,5.84-1.43,8.71.17,1.7,1.39.88,2.83-.35,3.68-3.97,2.77-7.8,6.09-13.24,5.09Z"/>
        <path class="cls-14" d="M441.66,68.86c-8.38-.27-16.11,3.09-24.21,4.44-23.22,3.87-46.29,8.66-69.6,11.86-8.56,1.18-17.14,3.12-25.88,3.05-3.42-.04-4.52-2.92-5.93-5.15-12.94-20.53-25.88-41.05-38.82-61.59-1.44-2.28-3.34-4.52-2.72-7.6,30.15-.03,60.29-.18,90.44-.05,18.58.08,37.16.61,55.74.94,1.49.03,3.02-.1,4.22,1.08,8.15,11.76,11.54,25.65,17.17,38.54,1.83,4.2,4.58,8.39,3.04,13.44-.86,1.33-1.89,2.06-3.46,1.04Z"/>
        <path class="cls-13" d="M345.39,116.47c.39-.09.78-.19,1.17-.29-5.8,27.52-11.6,55.04-17.41,82.56-5.33,25.23-10.67,50.45-16.01,75.67-3.84,3.13-7.71.42-11.55.02-2.51-.26-4.89-1.28-7.02-1.77,16.59,12.44,33.25,25.25,49.7,38.32,4.57,3.63,10.61,5.84,12.51,12.23-1.56,9.27-6.58,17.2-9.99,25.75-.93,2.33-2.39,4.45-2.98,6.94-5.86,8.14-14.61,12.68-22.68,18.08-.63.12-1.25.11-1.88-.02-3.26-1.44-5.26-4.25-7.44-6.88-6.83-8.24-14.92-15.27-22.3-22.98-2.82-2.95-5.65-5.87-6.4-10.13-5.66-22.54-11.37-45.07-16.97-67.62-1.85-7.43-4.07-14.79-4.01-22.55-.11-.46-.22-.91-.33-1.37.04-.3.08-.61.11-.92,6.51-7.63,15.63-11.78,23.57-17.48,7.64-5.48,15.18-11.13,23.13-16.17,1.54-.97,2.62-2.15,2.94-3.97.98-6.37.42-12.67-.37-19.01-.61-4.84-.74-9.72.26-14.56,9.27-17.01,19.67-33.35,30.08-49.68,1.05-1.65,2.29-3.05,3.87-4.17Z"/>
        <path class="cls-23" d="M106.19,312.95c1.84-15.36,3.68-30.71,5.52-46.07,1.1-2.74,3.25-2.07,5.41-1.77,5.51.76,10.84,2,16.11,3.95,15.64,5.79,31.6,10.68,47.39,16.03,3.21,1.09,6.67,1.79,8.9,4.75,2.32,4.83.16,9.66-.12,14.47-.23,4.03-.97,8.03-1.43,12.05-.12.67-.28,1.34-.47,1.99-17.18,41.7-35.97,82.7-53.69,124.17-.59,1.37-1.38,2.66-1.37,4.22,2.09,8.12,6.67,15.18,9.61,22.93,1.11,2.91,3.06,5.88-.19,8.73-2.43,1.24-4.96.85-7.48.44-14.43-2.34-29.01-3.63-43.34-6.6-5.65-1.82-3.88-6.29-3.41-10.08,2.83-22.74,5.78-45.47,8.69-68.21,2.11-3.7,4.86-1.52,7.23-.59,9.76,3.83,18.94,8.9,28.4,13.39,6.86,3.25,7.16,3.09,8.31-4.47,2.93-19.23,5.62-38.5,8.7-57.71.39-2.45,1.29-5.04-.21-7.47-11.92-5.2-24.33-9.07-36.47-13.63-5.24-1.97-7.82-4.82-6.08-10.52Z"/>
        <path class="cls-8" d="M485.33,748.47c28.43,2.28,56.85,4.56,85.74,6.88-6.9,3.22-14.14,2.39-20.96,3.19-30.64,3.58-61.35,6.51-91.97,10.33-25.33,3.16-50.8,5.21-76.19,7.97-21.57,2.35-43.05,5.66-64.67,7.24-10.04.73-20.32-1.55-30.47-2.64-13.75-1.47-27.5-2.92-41.21-4.72-17.27-2.27-34.71-3.17-51.87-6.38-.38-.84-.21-1.55.52-2.11,3.06-2.03,6.54-1.67,9.93-1.69,17.07-.06,34.14.04,51.22-.06,7.16-.04,7.37-.53,7.74-7.68.34-6.51-1.54-13.27,1.89-19.5,4.2-3.22,9.35-2.6,14.11-3.31,28.09-4.2,56.14-2.09,84.17.78,5.42.56,11.26-.77,15.89,3.45.84,1,1.46,2.15,1.7,3.41,1.66,8.71,1.51,9,11.61,8.74,26.74-.67,53.41,2.08,80.14,1.42,5.13-.13,9.75-.43,12.67-5.33Z"/>
        <path class="cls-17" d="M274.51,13.88c13.58,21.41,27.15,42.83,40.75,64.23,2.17,3.41,4.48,6.74,6.72,10.1-9.44,4.32-19.81,4.33-29.76,6.13-31.57,5.73-63.23,10.96-94.87,16.3-11.93,2.01-23.91,3.8-35.86,5.69,15.71-14.47,31.35-29.03,47.16-43.4,21.2-19.29,42.52-38.44,63.79-57.63.62-.56,1.38-.95,2.08-1.42Z"/>
        <path class="cls-17" d="M166.58,199.92c11.01-5.07,22.08-10.03,33.03-15.24,46.76-22.25,93.49-44.58,140.25-66.85,1.32-.63,2.81-.87,4.23-1.29-1.36,4.99-5.02,8.45-8.71,11.48-7.78,6.39-14.34,14.08-22.34,20.2-4.91,5.08-10.5,9.42-15.6,14.28-11.23,10.22-22.57,20.3-33.66,30.68-7.78,6.71-15.43,13.56-22.81,20.71-14.02,12.6-27.68,25.6-41.88,38-1.64,1.43-3.79,1.87-5.32,3.38-3.03,1.85-3.11-1.26-3.69-2.53-7.92-17.57-15.69-35.2-23.5-52.81Z"/>
        <path class="cls-28" d="M142.6,477.23c-3.2-10.63-9.18-20.08-12.96-30.47,1.99-1.64,4.01-3.13,6.64-3.7,15.89-3.47,31.61-7.67,47.51-11.09,2.43-.52,5.03-1.53,7.31.58,9.43,20.69,18.97,41.34,28.18,62.12,1.96,4.42,5.06,8.45,5.41,13.54.56,1.79-.61,2.92-1.77,3.77-12.2,8.94-24.09,18.33-37.27,25.85-.3.01-.61.02-.91.03-.97.39-2.04.62-2.88,1.19-8.44,5.68-8.39,5.68-12.42-4.01-2.2-5.28-4.25-10.65-7.85-15.2-7.78-12.22-12.74-25.81-18.81-38.85-.55-1.19-.48-2.48-.17-3.75Z"/>
        <path class="cls-3" d="M462.16,397.43c10.72-8.49,21.44-16.97,32.16-25.46,2.62-1.66,4.32.22,5.99,1.69,3.11,2.75,5.93,5.82,8.9,8.72,3.49,3.97,8.14,7.08,9.48,12.66,5.13,5.41,10.14,10.94,15.43,16.2,2.66,2.64,2.54,4.03-.64,6.24-23.49,16.31-46.85,32.8-70.21,49.29-1.92,1.35-3.45,1.99-5.66.37-14.26-10.46-29.44-19.63-43.2-30.79.23-2.36,1.94-3.69,3.6-5.01,12.76-10.2,25.19-20.79,38-30.94,1.85-1.46,3.64-2.95,6.16-2.97Z"/>
        <path class="cls-30" d="M444.22,67.73c-2.68-12.13-8.8-22.99-12.81-34.62-2.01-5.82-5.56-11.05-6.51-17.26,29.4,18.62,57.63,38.98,86.58,58.27,8.17,5.44,16.11,11.25,24.43,16.46,3.99,2.5,3.92,4.39,1.09,7.73-8.69,10.27-17.15,20.74-25.67,31.16-1.61,1.98-3.04,4.11-4.55,6.16-6.9-3.01-10.46-9.03-13.75-15.3-1.35-1.17-2.7-2.35-4.05-3.52-15.3-13.77-28.51-29.52-42.33-44.69-1.17-1.29-2.01-2.71-2.44-4.39Z"/>
        <path class="cls-17" d="M184.62,679.1c0-.43.02-.87.03-1.3,6.73-2.65,7.71-8.39,7.82-14.59.5-30.13,3.4-60.14,4.04-90.27.09-4.28.93-8.49,1.72-12.69,1.16-3.87,4.09-6.45,6.96-8.96,8.01-7.02,15.9-14.18,23.95-21.15,2.31-2,4.51-4.72,8.23-4.1v.22c2.06,3.18,1.33,6.62.77,9.97-7.3,44.35-15.08,88.62-22.22,133-.64,3.96-1.02,8.16-4.58,10.98-9,1.84-17.98,3.39-26.71-1.12Z"/>
        <path class="cls-23" d="M485.33,748.47c1.05,6.58-1.92,8.03-8.19,7.88-29.82-.7-59.65-1.11-89.47-1.1-6.05,0-8.53-1.57-8.34-7.56.07-2.31-.58-4.64-.91-6.96-.6-.77-1.12-1.59-1.42-2.53-.28-2.54-.25-5.11-.82-7.62-.02-.98.2-1.89.78-2.69,3.15-1.63,5.84.11,8.46,1.37,5.79,2.77,11.7,5.27,17.47,8.05,4.96,2.39,8.37,1.99,12.17-2.56,6.56-7.86,12.87-15.96,20.01-23.33,13.33,5.15,27.02,9.2,40.82,12.75,6.94,1.79,10.27,4.67,9.23,12.15-.55,3.96.1,8.09.21,12.14Z"/>
        <path class="cls-17" d="M493.04,120.33c5.25,4.5,9.26,10.11,13.75,15.3.92,30.96,1.73,61.92,2.86,92.87.16,4.43-1.35,6.58-5.22,8.11-4.35,1.71-8.5,3.94-12.74,5.94-3.47-.25-3.63-3.27-4.3-5.54-4.18-14.09-8.23-28.21-12.05-42.41-.69-2.55-.24-5.08-.44-7.62,2.82-15.57,8.2-30.46,12.11-45.75,1.8-7.02,4.02-13.94,6.05-20.91Z"/>
        <path class="cls-28" d="M462.16,397.43c-15.6,13.36-31.46,26.41-47.76,38.92-8.93-6.02-17.86-12.04-26.78-18.06-.01-.9-.03-1.8-.04-2.69,7.38-16.45,18.29-30.79,27.67-46.04,1.34-2.18,2.14-5.33,5.71-5.25,14.29,10.34,27.71,21.79,41.21,33.12Z"/>
        <path class="cls-11" d="M151.11,335.08c2.14,5.43-.31,10.6-1.06,15.81-2.76,19.13-5.91,38.2-8.6,57.33-.57,4.06-1.71,4.41-5.1,2.77-11.12-5.36-22.33-10.55-33.55-15.71-2.01-.92-3.91-2.94-6.48-1.33,1.26-10.71,2.53-21.42,3.79-32.13.65-3.73,2.09-6.82,5.88-8.43,12.82-5.41,25.56-10.99,38.35-16.45,2.19-.94,4.69-.6,6.77-1.86Z"/>
        <path class="cls-23" d="M265.66,739.51c0,7.45-.36,14.91.1,22.33.35,5.51-1.15,7.3-6.95,7.22-21.69-.29-43.38,0-65.07.07-8.68,1.27-10.12.15-10.21-8.57-.05-4.16-.82-8.57,2.57-12.04.46-3.01.91-6.02,1.37-9.03,4.57-.4,5.86,3.67,8.09,6.21,2.57,2.93,4.68,3.1,7.37.35,3.27-3.35,6.72-6.52,9.91-9.94,4.01-4.31,8.79-5.6,14.46-4.66,5.86.98,11.78,1.51,17.74,1.62,5.08.23,10.05,1.33,15.1,1.84,2.67.27,5.65.7,5.51,4.59Z"/>
        <path class="cls-13" d="M512.08,328.31c12.06-12.64,24.16-25.25,36.13-37.97,2.17-2.31,3.59-2.79,6.09-.3,6.04,6.01,12.3,11.81,18.67,17.47,2.56,2.28,3.35,4.35,2.09,7.72-5.28,14.16-10.31,28.43-15.44,42.65-2.73,1.96-4.89.01-6.94-1.24-12.27-7.52-24.54-15.07-36.88-22.48-2.09-1.26-4.62-2.54-3.72-5.84Z"/>
        <path class="cls-12" d="M188.69,290.07c-23.3-7.81-46.6-15.63-69.91-23.43-2.37-.79-4.8-2.33-7.08.24.68-4.6,4.31-2.65,6.61-2.65,43.58.09,87.15,1.91,130.74,1.19,2.95-.05,6.03.56,8.71-1.33,2.46,7.04.64,13.24-3.7,18.95-6.36,2.91-13.32,2.69-20.04,3.65-12.45,1.77-24.97,2.99-37.44,4.64-2.77.37-5.54.8-7.91-1.26Z"/>
        <path class="cls-17" d="M158.86,118.74c3.19,4.73,1.73,10.34,2.39,15.43,1.72,13.43,2.1,27.04,2.97,40.58.38,5.92,1.87,11.76,1.31,17.75-.19,2.06.57,4.31-1.23,6.04-16.02-11.26-32.03-22.53-48.09-33.74-2.41-1.68-3.81-2.8-.79-5.57,14.59-13.38,28.98-26.97,43.45-40.49Z"/>
        <path class="cls-24" d="M429.78,654.88c4.22,7.74,5.78,16.46,8.96,24.58,1.2,3.06-1.14,3.66-3.12,4.38-5.41,1.96-10.9,3.73-16.26,5.83-2.07.81-4.79.78-5.82,3.44-2.06,1.77-4.83,1.87-7.14,3.06-10.51,3.58-20.59,8.37-31.47,10.89-7.59-6.77-13.32-14.83-16.77-24.46.43-3.4,3.19-4.3,5.79-5.22,4.62-1.64,9.13-3.56,13.77-5.15,6.34-2.47,12.69-4.92,19.26-6.75,7.18-3.29,14.63-5.87,22.1-8.38,3.52-.97,6.6-4.08,10.7-2.22Z"/>
        <path class="cls-30" d="M429.78,654.88c-3.35,1.26-6.69,2.51-10.04,3.77-4.04,1.31-4.57-2.06-5.58-4.41-4.14-9.63-7.13-19.7-10.63-29.56-10.22-28.81-20.23-57.69-30.42-86.52-.8-2.26-1.42-4.48-.89-6.88,2.74-6.34,6.85-11.74,11.58-16.69,6.32,18.77,12.73,37.5,18.95,56.3,8.64,26.12,17.16,52.29,25.69,78.44.59,1.8.9,3.69,1.34,5.54Z"/>
        <path class="cls-24" d="M184.62,679.1c9.05,0,18.09,0,27.14,0,4.64-3.7,9.63-.9,14.47-.81,6.58-.31,13.17-.77,19.74.13,4.99,1.73,10.56-.27,15.41,2.38,2.44,2.39.99,4.75-.26,6.91-3.62,6.24-7.5,12.32-11.42,18.37-4.05,6.23-10.25,4.74-16.13,4.37-2.49-.09-4.8-1.33-7.33-1.12-10.81.74-21.58,1.02-32.14-2.01-2.59-3.24-8.42,1.35-9.73-3.5-.96-3.54-.12-7.57-.04-11.38.08-4.45.2-8.89.31-13.34Z"/>
        <path class="cls-26" d="M420.95,364.31c-9.92,15.67-19.85,31.34-29.78,47-1.01,1.59-1.51,3.61-3.6,4.29-.32-.82-.64-1.64-.97-2.45-1.66-.95-2.27-2.59-2.41-4.3-1.93-23.78-4.81-47.49-5.33-71.38,1.07-2.34-.51-6.2,3.81-6.68,13.04,10.85,26.14,21.64,38.27,33.52Z"/>
        <path class="cls-33" d="M355.72,323.17c-10.04-10.18-22.2-17.72-33.25-26.65-10.86-8.77-22.06-17.11-32.6-26.51,7.76,1.47,15.52,2.93,23.28,4.4,17.54,3.82,35.09,7.65,52.63,11.47,2.06.45,4.12.93,6.18,1.39-.03.44-.06.87-.09,1.31-2.57,10.92-8.26,20.6-12.3,30.93-.65,1.67-1.28,3.8-3.84,3.65Z"/>
        <path class="cls-30" d="M200.14,558.27c-1.68,29.28-3.33,58.55-5.05,87.83-.47,8.07-.25,16.14-.75,24.23-.47,7.71-4.01,8.18-9.69,7.47.03-46.65.06-93.3.09-139.94,0,0,.12-.06.12-.06.62-.23,1.43-.39,1.83.04,5.63,6.05,11.43,12,13.45,20.43Z"/>
        <path class="cls-20" d="M406.88,694.48c1.95-1.76,4.2-2.09,6.66-1.38,7.18,6.11,14.36,12.21,21.54,18.32.43,4.79-3.8,6.94-6.07,10.01-4.77,6.45-10.43,12.23-15.52,18.45-2.63,3.21-5.4,1.78-8.01.63-9.3-4.1-18.52-8.41-27.76-12.64-.55-.37-.75-.87-.59-1.52,7.55-9.14,15.86-17.61,23.31-26.83,1.79-2.22,4.21-3.48,6.45-5.04Z"/>
        <path class="cls-24" d="M193.76,255.27c4.01-6.54,10.52-10.55,16.08-15.44,10.25-9,19.46-19.15,30.46-27.3,5.1-4.03,10.59-4.49,16.44-1.85,4.42,6.51,7.53,25.45,5.12,31.16,0,0-.06.6-.06.6-22.69,4.24-45.16,9.64-68.05,12.84Z"/>
        <path class="cls-10" d="M512.08,328.31c4.74,5.81,11.82,8.24,17.92,11.97,9.79,5.98,19.1,12.83,29.62,17.59-8.8,9.84-19.66,17.44-29.03,26.67-3.76,3.71-7.92,7.01-11.89,10.5-3.5-3.8-7-7.6-10.5-11.4.41-6.9,4.67-12.24,7.61-18.03,2.72-5.36,3.25-10.24.82-15.8-2.12-4.86-3.95-9.88-5.58-14.94-.69-2.14-2.09-4.36-.07-6.57.37.02.73.02,1.1,0Z"/>
        <path class="cls-9" d="M510.98,328.31c2.96,8.15,5.85,16.33,8.92,24.44.93,2.45,1.96,4.88.68,7.34-4.1,7.87-7.14,16.3-12.38,23.57-5.25-3.14-7.74-9.59-13.87-11.68,1-10.37-.06-20.74-.6-31.06-.36-6.79-.67-13.58-.85-20.38-.06-2.31-1.19-5.97,2.8-5.8,3.96.18,9.25-2.91,11.52,3.41,1.22,3.4,2.52,6.77,3.79,10.15Z"/>
        <path class="cls-5" d="M253.99,281.86c1.26-5.92,2.52-11.84,3.79-17.76,1.45-6.77,2.91-13.53,4.36-20.3,5.83,17.15,9.29,34.93,13.72,52.45,3.23,12.77,7.31,25.35,8.98,38.49-2.55.98-4.05-.85-5.52-2.28-8.41-8.22-16.7-16.56-24.97-24.93-1.71-1.73-2.67-3.83-3.53-6.03-.54-.81-1.39-1.39-1.64-2.4.18-6.15.38-12.29,4.8-17.25Z"/>
        <path class="cls-20" d="M227.13,707.48c2.18-.2,4.29,0,6.22,1.16,6.21,7.39,10.63,15.53,10.63,25.51-5.17,1.78-10.39.46-15.35-.51-6.29-1.24-11.1-.29-15.31,4.8-3.25,3.93-7.24,7.23-10.74,10.96-2.52,2.68-4.33,3.59-6.84-.28-2.28-3.51-5.48-6.44-8.27-9.62.37-5.82,1.88-11.4,3.58-16.94,12.27-4.43,24.35-9.34,36.08-15.09Z"/>
        <path class="cls-8" d="M186.1,748.53c-.02,3.98.35,8.02-.16,11.94-.81,6.24.87,9.66,7.79,8.66v1.22c-14.94.05-29.55-3.23-44.38-4.46-16.92-1.41-33.75-3.83-50.62-5.81-4.17-.49-8.34-1-12.49-2.26,18.9-1.82,37.79-3.65,56.69-5.46,14.38-1.38,28.69-3.49,43.15-3.82Z"/>
        <path class="cls-20" d="M142.6,477.23c7,13.9,14.17,27.72,18.98,42.6-23.52-15.86-47.03-31.72-70.55-47.58,2.41-2.08,5.21-1.32,7.86-.93,13.31,1.94,26.61,4.02,39.92,5.99,1.23.18,2.53-.04,3.79-.08Z"/>
        <path class="cls-28" d="M474.89,186.98c6.18,17.05,9.82,34.84,15.36,52.08.38,1.19.95,2.32,1.44,3.48-11.97,7.07-24.8,12.42-37.16,18.72.8-10.17,5.39-19.4,7.29-29.3,7.58-1.62,7.9-1.95,6.24-8.89-.74-3.09-.77-6.19-.91-9.31,2.11-9.06,4.19-18.13,7.74-26.78Z"/>
        <path class="cls-12" d="M151.11,335.08c-1,2.22-3.22,2.63-5.16,3.45-13.14,5.6-26.24,11.27-39.44,16.72-3.23,1.33-5.12,3.55-6.41,6.56,1.45-11.52,2.54-23.1,4.53-34.53.84-4.8-1.08-9.83,1.56-14.35-.67,4.56,1.29,6.67,5.76,8.14,13.16,4.33,26.12,9.28,39.15,13.99Z"/>
        <path class="cls-5" d="M355.72,323.17c4.25-9.76,8.52-19.52,12.74-29.29.85-1.96,1.48-4.03,3.4-5.29,2.69,13.26,5.38,26.53,8.08,39.79-.04.3-.09.61-.13.92-9.92,10.1-21.68,17.88-33.02,26.19-1.18.87-2.76,1.26-4.15.05,2.18-9.39,7.35-17.58,10.68-26.52.73-1.97,1.6-3.89,2.4-5.84Z"/>
        <path class="cls-1" d="M227.13,707.48c1.34,2.95-1.34,3.2-2.84,3.84-9.98,4.26-20.04,8.34-30.04,12.55-1.64.69-2.86.94-3.2-1.3,1.01-5.08,2.03-10.17,3.04-15.25,2.28-1.46,4.91-1.6,7.32-1.03,8.52,2.01,17.16.62,25.72,1.2Z"/>
        <path class="cls-22" d="M382.68,330.79c-2.22,1.82-1.17,4.41-1.56,6.66-5.29-2.38-2.56-5.85-1.24-9.13,0,0,.05.06.05.06.92.8,1.83,1.61,2.75,2.41Z"/>
        <path class="cls-5" d="M191.09,432.54c-20.48,4.74-40.97,9.48-61.45,14.22,18.36-42.17,36.71-84.34,55.08-126.51.33-.76.87-1.42,1.32-2.13,2.86,1.8,3.23,4.92,3.91,7.76,5.55,23.02,11.91,45.84,17.55,68.84.96,3.92,1.99,7.87.45,11.9-4.61,9.29-10.8,17.56-16.86,25.91Z"/>
        <path class="cls-28" d="M251.35,301.2c10.94,11.41,21.51,23.18,33.49,33.54,2.09,5.1,6.48,8.29,10.17,12.02,8.47,8.56,17.05,17,24.62,26.39-.18,1.94-1.56,3.04-3.09,3.74-7.05,3.25-13.35,8.25-21.36,9.29-14.42,4.86-27.43,12.73-41.07,19.26-11.11,5.32-11.09,5.45-10.36-6.62,1.73-28.25,3.49-56.5,5.29-84.74.27-4.24.83-8.46,1.26-12.69.26-.54.61-.6,1.04-.19Z"/>
        <path class="cls-17" d="M372.21,531.28c4.85,8.59,7.12,18.19,10.43,27.37,11.33,31.46,22.25,63.06,33.4,94.58.73,2.05.63,4.88,3.7,5.41-7.33,2.92-14.66,5.85-21.99,8.77-5.08-5.52-6.94-12.74-9.84-19.34-11.53-26.26-23.54-52.3-34.93-78.61-1.19-2.75-2.62-5.46-1.37-8.6,5.9-10.53,12.62-20.5,20.59-29.58Z"/>
        <path class="cls-17" d="M246.39,680.41c-6.88-.03-13.76-.07-20.63-.1-1.44-2.72-.55-5.46.07-8.13,8.63-37.7,17.25-75.41,26.1-113.06.62-2.64.94-5.56,3.61-7.23,7.18,7.62,12.13,16.92,18.7,24.98,2.47,3.03,3.58,7.39,8.08,8.49.79.79.98,1.75.85,2.81-10.7,27.22-20.36,54.82-30.62,82.21-1.38,3.68-1.87,8.07-6.14,10.04Z"/>
        <path class="cls-17" d="M251.35,301.2c-.35.06-.7.12-1.04.19-7.28,18.14-14.64,36.26-21.83,54.44-6.26,15.84-12.29,31.77-18.48,47.63-.45,1.15-1.35,2.12-2.04,3.17-7.1-28.25-14.21-56.5-21.3-84.75-.31-1.23-.42-2.5-.62-3.76,0,0-.02,0-.02,0,2.34-2.76,5.64-3.75,8.92-4.63,16.02-4.31,31.91-9.1,47.9-13.52,2.41-.66,4.91-1.76,7.31.11.4.38.79.75,1.19,1.13Z"/>
        <path class="cls-28" d="M379.88,328.32c.39,3.04-.82,6.31,1.24,9.12.97,21.24,2.96,42.4,4.95,63.56.38,4.03.37,8.09.54,12.14-.5,5.28-3.02,2.42-4.93,1.14-11.96-8.05-23.87-16.16-35.81-24.23-1.4-.95-2.89-1.78-4.34-2.66-8.41-2.56-15.74-6.68-20.75-14.22,5.17-5.58,12.09-8.91,17.82-13.77,1.44-1.22,3.07-2.17,4.02-3.88,11.07-5.53,19.39-14.85,29.64-21.53,2.65-1.73,5.08-3.78,7.61-5.68Z"/>
        <path class="cls-30" d="M255.53,551.88c-3.46,15.33-6.88,30.66-10.38,45.98-5.96,26.09-11.96,52.17-17.97,78.25-.33,1.43-.94,2.8-1.42,4.2-4.67-.41-9.33-.81-14-1.22,8.04-47.58,16.08-95.16,24.1-142.74.57-3.35,1-6.73,1.5-10.09,6.79,8.02,13.05,16.42,18.16,25.62Z"/>
        <path class="cls-20" d="M284.76,505.61c4.66-17.11,12.01-33.28,17.65-50.05,3.6-10.71,7.84-21.21,11.76-31.81.88-2.37,1.39-4.9,3.85-7.3,3.67,14.18,7.25,27.91,10.78,41.65,4.19,16.29,8.34,32.6,12.5,48.89-2,1.21-4.03,2.44-6.47,2.4-14.59-.2-29.23,1.19-43.77-1.11-2.37-.38-4.55-.96-6.3-2.67Z"/>
        <path class="cls-30" d="M351.62,560.86c13.09,29.61,26.3,59.17,39.16,88.87,2.51,5.79,6.34,11.13,6.97,17.68-6.35,2.16-12.71,4.32-19.06,6.48-2.55-.68-3.78-2.71-4.76-4.86-12.5-27.36-25.14-54.65-37.59-82.03-.54-1.18-.72-2.45-.86-3.73.03-.68.26-1.27.69-1.79,5.08-6.93,9.19-14.58,15.44-20.62Z"/>
        <path class="cls-24" d="M336.18,581.49c.02.43.02.85,0,1.28-.07,1.09-.35,2.18-1.18,2.86-8.04,6.5-14.49,14.78-22.99,20.77-1.22.86-2.44,1.67-3.99,1.79-10.35-4.52-18.96-11.24-25.63-20.41-.03-.81-.05-1.62-.08-2.44,8.31-10.22,16.66-20.42,24.91-30.68,3.29-4.09,5.59-4.64,9.02.39,6.21,9.11,13.24,17.65,19.93,26.43Z"/>
        <path class="cls-18" d="M284.76,505.61c18.81,2,37.69,1.18,56.54,1.38-8.34,13.59-18.19,26.13-27.28,39.2-1.22,1.75-2.83,2.26-4.03.19-8.04-13.82-18.76-25.99-25.23-40.78Z"/>
        <path class="cls-13" d="M200.14,558.27c-5.09-6.82-10.19-13.65-15.28-20.47,9.17-8.63,20.34-14.55,30.19-22.27,3.18-2.49,6.43-4.88,9.64-7.32,4.72,5.59,9.19,11.37,12.68,17.84-12.41,10.74-24.82,21.49-37.22,32.23Z"/>
        <path class="cls-18" d="M320.79,373.17c6.91,4.74,13.83,9.48,20.75,14.22-5.91,8.96-14.35,15.71-20.91,24.09-2.6,3.32-4.11,2.05-6.2-.72-6.26-8.31-12.8-16.4-19.24-24.58,7.51-5.55,16.47-8.37,24.45-13.04.38.08.76.09,1.15.03Z"/>
        <path class="cls-13" d="M409.42,197.25c-1.79-.76-2.24-2.28-2.61-4.04-2.51-11.98-5.09-23.94-7.65-35.9-.4-.78-.39-1.6-.29-2.45q1.07-9.09-6.96-12.69c-.79-.35-1.43-.85-1.76-1.68,2.79-1.6,2.01-3.48.79-5.8-2.95-5.61-6.79-10.8-8.41-17.07,5.31-2.73,11.44-1.07,16.87-3.15,6.39-.96,12.7-1,18.73,1.84,3.38,5.31.62,11.28,1.79,16.83,1.91,2.21,1.53,4.78,1.12,7.33-2.68,16.9-5.54,33.78-8.65,50.6-.42,2.29-.81,4.69-2.97,6.18Z"/>
        <path class="cls-13" d="M445.46,166.44c-4.53,2.51-8.08,6.19-11.81,9.69-1.28,1.2-2.25,4.27-5.03,1.91-1.42-1.3-1.53-3.03-1.29-4.72,1.49-10.31,3.23-20.58,5.71-30.71.31-1.25.99-2.35,2.13-3.07,2.34-6.33,5.25-12.32,10.5-16.84,4.32-1.03,7.8,1.19,11.35,3,6.61,3.37,13.87,5.66,19.2,11.22-2.18,4.31-6.25,6.82-9.73,9.8-2.91,2.49-5.83,4.89-8.18,7.93-5.41,2.69-10.63,5.6-12.85,11.78Z"/>
        <path class="cls-4" d="M435.17,139.56c-2.18,12.83-4.37,25.66-6.55,38.49-1.24,6.51-2.58,13.01-3.68,19.54-.39,2.34-.74,4.55-2.67,6.16-4.97,2.67-9.11,1.18-12.81-2.54-.02-1.32-.03-2.63-.05-3.95,2.81-17.18,5.61-34.36,8.42-51.54.69-4.19,1.38-8.38,2.07-12.58,3.32.48,6.67.78,9.93,1.49,2.59.57,5.65,1.03,5.33,4.92Z"/>
        <path class="cls-29" d="M373.74,225.42c25.34-.56,49.61,4.32,72.86,14.38-2.19,3.73-5.96,3.15-9.4,3.45-2.14-.5-4.19-.11-6.2.64-4.84.69-9.73.78-14.57,1.56-4.97.81-9.67-.29-14.31-2.14-9.86-3.92-19.77-7.74-29.88-10.98-2.93-1.76-6.91-2.23-7.94-6.38,3.05-1.85,6.25-1.07,9.44-.55Z"/>
        <path class="cls-33" d="M444.22,67.73c7.41,5.28,12.56,12.8,18.52,19.42,8.83,9.81,18.89,18.55,26.25,29.66-20.95-12.78-41.49-26.19-61.67-40.15,4.61-2.91,10.09-4.22,14.34-7.79.85-.38,1.71-.75,2.56-1.13Z"/>
        <path class="cls-31" d="M436.34,241.06c3.4-.61,7.07,1.1,10.26-1.25,2.09.02,2.33,1.02.72,2.02-13.93,8.67-27.95,17.18-41.85,25.9-2.47,1.55-3.83.6-5.44-1.08-13.11-13.7-26.26-27.37-39.39-41.05,1.86-1.34,2.95-.12,4,1.22,2.93.64,5.72,1.56,7.73,3.99,8.08,3.01,13.27,9.83,19.59,15.11,7.88,6.57,19.04,8.13,27.76,2.91,4.05-2.43,8.24-4.46,12.66-6.03,1.28-.66,2.83-.72,3.96-1.73Z"/>
        <path class="cls-6" d="M445.46,166.44c.26-9.38,3.04-11.92,12.85-11.78,4.61,2.4,7.28,6.01,6.09,11.35-.84,3.75-3.24,6.35-7.28,7.09-5.79,1.07-9.23-1.89-11.66-6.67Z"/>
        <path class="cls-6" d="M390.15,140.49c4.3-.13,8.57.05,10.79,4.57,2.16,4.4,1.13,8.51-1.78,12.25-7.35,3.08-12.38,2.06-15.05-3.04-2.73-5.21-.43-10.47,6.04-13.79Z"/>
        <path class="cls-34" d="M476.22,136.94c-10.18-4.74-20.37-9.48-30.55-14.22,5.88-3.38,12.73-2.56,18.97-4.4,1.96-.58,2.66.85,3.33,2.17,2.78,5.47,5.5,10.97,8.24,16.45Z"/>
        <path class="cls-15" d="M418.13,116.31c-6.29.07-12.58.13-18.88.2-4.67.03-9.53,2.36-13.91-1.16,2.24-1.18,4.69-2.1,6.7-3.6,7.31-5.45,14.29-6.37,21.17.7,1.44,1.48,3.27,2.59,4.91,3.87Z"/>
        <path class="cls-19" d="M467.15,213.76c2.36,4.33,2.73,9.25,4.12,13.87.98,3.27-1.47,4.33-3.46,5.03-1.84.65-4.57,3.9-5.99-.7,1.78-6.07,3.55-12.13,5.33-18.2Z"/>
        <path class="cls-2" d="M409.46,201.2c4.27.85,8.54,1.7,12.81,2.54-.84,4.6-5.33,5.61-8.2,8.95-2-4.08-4.46-7.29-4.61-11.5Z"/>
        <path class="cls-25" d="M385.34,115.34c4.48,2.25,9.31.33,13.91,1.16-5.44,2.35-11.16.63-16.72,1.12.47-1.34,1.5-1.98,2.82-2.28Z"/>
        <path class="cls-7" d="M364.63,226.81c-1.33-.41-2.67-.81-4-1.22,4.34-2.55,8.72-1.02,13.11-.17-2.97.9-6.35-.9-9.11,1.39Z"/>
        <path class="cls-33" d="M311.86,147.27c8.55-7.93,17.12-15.83,25.62-23.81,2.32-2.18,4.4-4.61,6.59-6.92.44-.02.87-.05,1.31-.07-6.81,13.5-15.37,25.96-23.17,38.87-2.83,4.69-4.89,9.92-9.03,13.76-3.56-7.09-4.7-14.32-1.33-21.82Z"/>
        <path class="cls-28" d="M311.86,147.27c.44,7.27.88,14.55,1.33,21.82-.92,10.24,1.6,20.34,1.22,30.55-.08,2.27.67,4.74-1.23,6.69-6.45,3.22-13.49,3.48-20.47,4.19-9.52.97-19.1,1.02-28.62,2.06-2.56.28-5.1-.11-7.48-1.23-5.46.03-10.94-.08-16.31,1.17,6.96-7.62,14.47-14.61,22.84-20.66,5.52-4,11.86-3.47,18.13-3.29,4.14,1.23,8.06-.36,11.9-1.35,4.19-1.07,2.34-4.74,2.33-7.52.57-6.08-2.75-12.35.85-18.28,4.63-5.31,10.21-9.57,15.5-14.15Z"/>
        <path class="cls-33" d="M256.62,211.35c5.37-2.5,11.23-1.2,16.83-1.9,13.17-1.64,26.49-2.15,39.74-3.12-12.74,10.33-26.56,19.12-40.09,28.32-3.66,2.49-6.74,5.96-11.22,7.18-1.75-10.16-3.5-20.32-5.26-30.48Z"/>
        <path class="cls-20" d="M250.16,300.07c-21.38,6.01-42.76,12.03-64.14,18.04-.35-9.47,2.37-18.64,2.67-28.04,21.77-2.74,43.53-5.48,65.3-8.22-1.28,6.07-2.55,12.14-3.83,18.22Z"/>
        <path class="cls-16" d="M296.36,161.43c.12,6.4,2.02,12.67,1.33,19.12-3.45,6.04-9.74,7.74-15.55,10.19-6.33.38-12.67.75-19,1.12,10.2-11.1,21.82-20.64,33.22-30.44Z"/>
        <path class="cls-8" d="M378.43,738.22c-1.81-2.46-1.04-5.22-.95-7.91,1.41,2.5,1.12,5.21.95,7.91Z"/>
        <path class="cls-17" d="M359.34,683.05c-16.67-24.46-33.34-48.92-50.02-73.39-.81-.59-1.91-1.01-1.4-2.38,10.37-7.07,17.84-17.49,28.25-24.52,9.84,21.08,19.68,42.16,29.52,63.25,4.34,9.29,8.66,18.59,12.99,27.89-4.9,1.86-9.83,3.66-14.7,5.6-1.84.73-4.35.74-4.65,3.54Z"/>
        <path class="cls-1" d="M377.59,726.65c-1.25-6.81-2.54-13.62-2.8-20.56,10.36-4.8,21.18-8.31,32.09-11.6-8.35,9.86-16.69,19.74-25.05,29.58-1.11,1.3-2.36,2.48-4.24,2.58Z"/>
        <path class="cls-30" d="M307.92,607.28c.47.79.93,1.59,1.4,2.38-3.16-.23-3.62,2.59-4.79,4.44-14.25,22.51-28.43,45.07-42.63,67.61-5.16-.47-10.49,1-15.5-1.3,10.6-28.57,21.22-57.15,31.8-85.73.96-2.59,1.45-5.42,4.2-6.89,8.77,6.17,16.37,13.86,25.53,19.5Z"/>
        <path class="cls-32" d="M433.74,243.47c-3.19,1.7-6.81,2.89-9.49,5.19-8.14,6.97-17.09,5.92-26.4,3.7-2.67-.64-4.51-2.2-6.39-3.95-6.34-5.89-12.73-11.74-19.1-17.61,6.95.32,13.22,3.3,19.1,6.32,12.77,6.56,26.03,6.53,39.64,4.98,1.32-.39,2.81-1.09,2.64,1.38Z"/>
        <path class="cls-27" d="M433.74,243.47c-.88-.46-1.76-.92-2.64-1.38,1.61-1.03,3.42-1.07,5.24-1.04-.38,1.33-1.19,2.2-2.6,2.42Z"/>
        <path class="cls-21" d="M282.15,190.74c4.56-4.35,10.29-6.91,15.55-10.19.27,1.88.44,3.79.83,5.64.47,2.19-.36,3.21-2.51,3.39-4.62.38-9.25.77-13.87,1.16Z"/>
      </g>
    </g>
  </g>
</svg>