<?xml version="1.0" encoding="UTF-8"?>
<svg xmlns="http://www.w3.org/2000/svg" version="1.1" viewBox="0 0 636.44 792">
  <defs>
    <style>
      .cls-1 {
        fill: #909090;
      }

      .cls-2 {
        fill: #788a5c;
      }

      .cls-3 {
        fill: #eaeaea;
      }

      .cls-4 {
        fill: #8f8f8f;
      }

      .cls-5 {
        fill: #e2c9b7;
      }

      .cls-6 {
        fill: #856855;
      }

      .cls-7 {
        fill: #477760;
      }

      .cls-8 {
        fill: #607343;
      }

      .cls-9 {
        fill: #8e8e8e;
      }

      .cls-10 {
        fill: #876b58;
      }

      .cls-11 {
        fill: #2c2c2c;
      }

      .cls-12 {
        fill: #dcdcdb;
      }

      .cls-13 {
        fill: #bc987e;
      }

      .cls-14 {
        fill: #d9bca6;
      }

      .cls-15 {
        fill: #c3c3c3;
      }

      .cls-16 {
        fill: #bc977e;
      }

      .cls-17 {
        fill: #84c4a7;
      }

      .cls-18 {
        fill: #6aab8c;
      }

      .cls-19 {
        fill: #908f8f;
      }

      .cls-20 {
        fill: #46765f;
      }

      .cls-21 {
        fill: #856956;
      }

      .cls-22 {
        fill: #2d2d2c;
      }

      .cls-23 {
        fill: #c7d6cf;
      }

      .cls-24 {
        fill: #a1be76;
      }

      .cls-25 {
        fill: #4a5e2c;
      }

      .cls-26 {
        fill: #6aab8b;
      }

      .cls-27 {
        fill: #856754;
      }
    </style>
  </defs>
  <!-- Generator: Adobe Illustrator 28.7.1, SVG Export Plug-In . SVG Version: 1.2.0 Build 142)  -->
  <g>
    <g id="Layer_1">
      <g>
        <path class="cls-2" d="M400.36,557.31l.33,24.69c.64,6.97,1.35,13.95-.54,20.86-.61,2.22.09,4.07,1.5,5.74.09,6.55.19,13.1.28,19.65,1.14,7.17.23,14.38.51,21.57-4.37,6.39-11.47,6.3-17.99,7.58-1.71.23-4.47-3.7-5,1.28-1.75,2.04-4.3,2.46-6.65,3.22-42.19,13.51-84.63,26.22-126.79,39.79-4.55,1.47-8.93,1.51-13.35-.52-30.43-13.96-60.87-27.9-91.27-41.91-1.68-.77-3.49-1.46-4.33-3.36,3.75-14.91,9.84-29.01,14.99-43.43,19.56-54.65,39.29-109.25,58.95-163.86.71-2.27,2.6-3.22,4.6-3.83,9.35-2.84,18.39-6.65,27.9-8.97,2.21-.54,4.48-1.27,6.52.52,3.1,5.89,2.17,12.35,1.46,18.36-1.53,12.85-1.21,25.77-1.83,38.62-1.16,23.87-1.96,47.77-3.07,71.65-1.09,23.25-1.9,46.51-3.18,69.75-.83,15.14-.95,30.33-1.6,45.5-.17,3.9.07,7.82-.29,10.24,4.47-10.55,10.55-21.91,15.87-33.61,23.09-50.75,47.84-100.72,71.32-151.29,2.42-5.21,4.06-11.01,8.95-14.76,3.21-1.34,5.52.65,7.78,2.32,5.27,3.89,10.79,7.42,16.09,11.27,1.46,1.06,2.97,3.32,5.26,1.13,3.94-5.79,5.08-13.26,10.83-17.95,1.11-.57,2.41-.54,3.53-1.05,4.15-1.89,4.13-3.6-.05-6.7-4-3.36-6.08-7.97-8.2-12.57-1.34-4.45-2.21-8.98-2.38-13.64.98-4.77,1.46-9.81,6.43-12.54,3.83-.94,7.78-.93,11.66-1.24,5.79-.45,8.69,2.63,8.84,8.35.13,4.73-.46,9.49.39,14.2.11,8.24.22,16.47.33,24.71,1.43,7.54-.32,15.21.92,22.76.11,8.22.22,16.45.34,24.67,1.41,7.56-.33,15.24.92,22.8Z"/>
        <path class="cls-14" d="M348.15,78.96c5.66,3.17,5.23,9.1,6.12,14.23,4.48,25.72,8.74,51.47,13.1,77.21.06.37.46.68.69,1.02,1.53,1.53,2.27,3.43,2.6,5.53,1.51,9.62,3.74,19.13,4.48,28.87,2.64,11.67,4.53,23.47,6.17,35.32,1.35,5.38,2.27,10.86,2.94,16.35.85,6.9-.83,8.69-7.95,9.03-3.44-1.05-3.75-4.09-4.27-6.91-1.54-8.34-2.76-16.73-4.25-25.07-.47-2.65-.83-5.41-3.3-7.09-11.95-8.1-23.54-16.78-36.68-22.98-1.34-.15-2.57-.53-3.49-1.59,2.76-9.05-1.54-17.32-2.89-25.91-.61-3.85-2.3-7.52-1.91-11.54,1.88-4.03,1.79-8.9,5.2-12.28.7-.44,1.47-.71,2.28-.9,9.07-2.2,10.01-5.52,3.55-12.43-2.25-2.22-1.95-4.86-1.24-7.55,1.33-5.01,2.65-10.02,4.33-14.92,1.1-3.4-.41-4.98-3.67-5.7-5.27-1.15-10.52-2.42-15.74-3.74-4.67-1.19-7.16-.66-6.01,4.88-1.24,3.85-3.96,6.53-7,8.97-6.38,2.7-13.32,2.82-19.97,4.29-5.68-1.16-10.49-3.99-14.86-7.69-1.54-3.22-3.54-4.12-6.76-1.84-4.52,3.19-9.16,6.23-13.83,9.21q-6.65,4.23-2.56,11.32c3.31,5.09,8.08,8.82,12.17,13.19,2.11,2.25,4.57,4.23,5.58,7.33.3,6.11,4.36,8.17,9.62,8.94,6.01,4.15,10.63,9.72,15.48,15.07,6.78,7.48,13.36,15.18,21.67,21.08,1.37.63,2.8,1.2,3.33,2.83-.09.99-.62,1.74-1.34,2.37-13.64,11.55-26.67,23.81-40.12,35.57-3.85,3.37-5.05,7.19-4.06,12.21,1.93,9.8,3.25,19.7,5.12,29.52.62,3.24,1.48,6.6-1.22,9.47-4.43,2.16-8.98,3.67-13.99,2.31-2.77-1.83-2.95-4.86-3.5-7.69-11.57-60.51-22.8-121.08-34.09-181.65-1.99-10.69-7.77-19.13-12.67-28.24-2.17-4.04-6.4-7.44-4.76-12.93,3.36-2.39,6.8-.73,10.13-.05,19.01,3.91,37.96,8.06,56.96,12.03,1.59.33,3.16,1.09,4.81.28,7.91-6.45,13.95-14.71,21.06-21.92,2.16-2.19,4.15-4.7,7.49-5.26,7.17,1.2,12.56,6.07,18.75,9.26,8.27,4.26,16.1,9.33,24.22,13.88,1.84,1.03,3.44,2.3,4.28,4.32Z"/>
        <path class="cls-16" d="M200.79,66.5c.84,4.22,3.52,7.57,5.83,10.91,8.4,12.16,12.94,25.5,15.55,40.06,9.07,50.51,18.89,100.89,28.31,151.34,1.7,9.13,2.98,18.34,5.41,27.33-2.37,3.81-6.55,2.79-9.99,3.75-5.53-.21-10.23-3.07-15.22-4.95-13.52-5.11-27.01-10.32-40.44-15.67-2.3-.92-4.61-1.84-6.49-3.55-4.34-6.76-3.83-14.72-5.47-22.14-.05-.63,0-1.26.11-1.88,3.38-9.28,7.5-18.28,11.31-28.05-5.55.11-9.98,1.9-14.16,4.53-2.04.33-4.1.08-6.16.31-10.38,1.15-10.26,1.08-13.89-8.39-2.21-5.77-4.26-11.52-4.42-17.77-1.04-3.54-1.88-7.15-3.17-10.6-1.13-3.02-.36-4.53,2.67-5.54,4.28-1.43,8.44-3.22,12.65-4.86,5.04-4.46,8.25-4.89,14-1.9,9.55,4.98,9.38,4.96,10.57-5.28,1.47-12.57,1.62-25.26,3.35-37.8.98-7.07-1.12-12.2-7.96-14.98-.57-.23-1.08-.61-1.62-.93-9.11-5.29-9.64-6.94-4.98-16.27,5.38-10.77,11.41-21.19,16.71-32.01,1.26-2.57,2.58-5.28,5.68-6.28.69-.05,1.3.16,1.81.62Z"/>
        <path class="cls-3" d="M328.5,202.59c6.91,1.54,11.61,6.98,17.67,10.04,2.94,1.49,5.33,4.18,8.34,5.39,12.61,5.08,16.66,15.09,17.5,27.7.44,6.51,1.32,13.13,3.55,19.4,5.05,7.34,4.03,16.09,5.53,24.24.4,2.19.3,4.48,1.21,6.59,2.52,13.66,4.69,27.39,7.3,41.04,2.11,14.76,4.93,29.41,7.19,44.15.47,3.05,1.31,6.18-1.2,8.85l-1.03,2.88c1.72,2.17.67,4.43-.07,6.47-4.71,13-9.77,25.88-14.69,38.81-.67,1.75-1.5,3.42-3.45,4.11-1.52,3.66-3.04,7.32-4.56,10.97-4.1,3.89-8.79,4.11-13.82,2.25-2.48-2.59-2.69-6.02-3.17-9.25-9.46-64.06-19.54-128.03-28.98-192.09-.54-3.7-1.25-7.37-1.7-11.08-.39-3.18-.39-6.27,2.51-8.47,2.77-1.95,6.09-2.18,9.27-2.9,1.12-.25,2.69-.32,2.53-2.04-.17-1.87-1.66-2.13-3.19-2.06-3.44.16-6.89,1.28-10.32-.12-4.47-2.79-4.06-7.4-4.41-11.74,1.56-5.05,3.57-9.83,7.98-13.15Z"/>
        <path class="cls-23" d="M395.98,733.53c6.51,2.73,13.51,1.3,20.26,2.15,13.94,1.77,28.09,1.83,42.13,2.88,19.8,1.48,39.58,3.3,59.39,4.8,4.93.37,9.91.06,14.87.38-8.98,3.1-18.39,2.53-27.56,3.3-25.36,2.12-50.74,3.94-76.08,6.32-18.34,1.72-36.77,2.48-55.13,3.95-23.51,1.88-46.97,4.39-70.49,5.98-16.11,1.09-32.18,2.64-48.28,3.82-10.77.79-21.43-1.77-32.14-2.78-13.79-1.3-27.54-3.03-41.3-4.58-17.05-1.92-34.1-3.89-51.16-5.75-13.57-1.48-27.17-2.72-40.73-4.29-7.34-.85-14.83-.7-23.6-3.12,14.12-1.56,26.7-2.71,39.2-4.39,15.95-2.15,32.12-2.62,47.88-6.23,2,1.55.73,3.64.93,5.49.68,2.91-.82,6.25,1.81,8.75,2.18,1.58,4.68,1.46,7.17,1.46,16.12,0,32.23.03,48.35-.02,7.68-.02,9.82-2.88,8.22-10.51-.91-4.31-4.02-8.38-1.51-13.1.8-.69,1.71-1.24,2.75-1.38,25.28-3.36,50.57-6.12,76.04-1.84,1.86.31,3.67.69,5.2,1.89,1.8,1.89,1.94,4.22,1.76,6.63q1.21,10.24,11.38,10.26c22.44.01,44.88.01,67.32,0q9.22,0,11.69-8.59c.39-.67.95-1.16,1.66-1.47Z"/>
        <path class="cls-20" d="M383.13,656.1c6.24-1.7,12.47-3.4,18.71-5.1.38-.63.73-.62,1.06.05,1.29,14.86,1.27,14.8-12.59,18.77-9.32,2.67-18.5,5.88-27.91,8.19-4.92,1.21-7.37,3.54-8.09,8.44-.48,3.25-1.65,6.39-2.51,9.58-.72,3.28-3.37,4.58-6.04,5.8-11.91,5.45-23.82,10.93-35.63,16.61-2.7,1.3-5.52,3.25-8.76,1.17-2.61-4.68-1.42-9.79-1.41-14.69,0-4.44-1.53-5.49-5.6-4.2-13.09,4.12-26.57,7.13-39.29,12.29-11.81,4.8-22.82,5.1-33.78-1.89-2.97-1.89-6.44-2.9-9.61-4.47-5.13-.63-9.7,1.56-14.34,3.05-10.4,3.34-20.89,6.37-31.26,9.81-2.8.93-5.82,2.55-8.8.22,1.9-10.15,3.64-20.34,5.78-30.44.92-4.35.09-6.81-4.34-8.52-7.31-2.82-14.25-6.63-21.59-9.39-4.28-1.61-4.78-3.71-3.1-7.43,1.18-2.61,2.02-5.36,3.02-8.05,7.27,1.34,13.43,5.43,20.01,8.38,25.95,11.61,51.72,23.63,77.53,35.57,3.03,1.4,5.9,1.44,9.04.46,35.61-11.21,71.24-22.34,106.86-33.55,9.66-3.04,19.26-6.27,28.89-9.41.9-1.48,2.32-1.35,3.74-1.22Z"/>
        <path class="cls-2" d="M70.11,434.93c1.1-1.26,2.2-2.52,3.3-3.78,7.24-6.42,16.08-10.22,24.37-14.92,29.83-16.93,59.62-33.92,89.66-50.48,2-1.1,3.76-2.6,5.82-3.6,1.06-.07,1.74.48,2.19,1.38.87,3.28-1.29,5.53-2.8,7.94-14.36,22.89-29.39,45.36-44.16,67.99-11.48,17.58-22.75,35.3-34.58,52.65-1.71,2.5-2.95,5.65-6.62,6.07-3.07-.54-4.32-3.07-5.61-5.4-9.69-17.4-18.83-35.11-29.26-52.1-1.1-1.79-1.75-3.75-2.29-5.76Z"/>
        <path class="cls-8" d="M107.25,497.52c7.37-8.48,12.87-18.28,19.06-27.57,14.26-21.41,28.41-42.91,42.18-64.64,8.76-13.82,18.58-26.97,26.27-41.47,2.52-1.02,4.51.47,6.24,1.74,5.71,4.18,13.03,6.33,16.73,13.09-.31,3.94-3.02,6.77-4.67,10.08-4.27,8.56-9.29,16.71-13.45,25.34-1.15,2.39-2.27,4.97-5.07,6.05-9.71,17.71-19.4,35.42-29.13,53.12-2.18,3.96-4.49,7.84-6.74,11.76-1.84,2.09-4.19,3.37-6.84,4.05-12.43,3.22-24.77,6.8-37.24,9.87-2.36.58-5.65,2.78-7.34-1.42Z"/>
        <path class="cls-9" d="M199.58,66.37c-9.15,14.14-16.04,29.49-23.95,44.3-1.35,2.52,0,3.97,1.87,5.12,2.29,1.41,4.61,2.94,7.12,3.83,9.02,3.18,9.42,10.2,8.69,18.09-1.37,14.82-2.56,29.66-3.67,44.5-.43,5.76-1.21,6.34-6.13,3.42-.89-.53-1.78-1.08-2.58-1.73-5.4-4.35-11.22-5.69-17.7-2.6-7.9-25.38-15.78-50.77-23.74-76.14-.8-2.55-1.21-4.35,1.45-6.42,17.56-13.62,34.95-27.47,52.4-41.24,5.36.64,6.82,4.03,6.25,8.86Z"/>
        <path class="cls-24" d="M193.27,362.62c.09,1.99-1.23,2.9-2.75,3.75-38.05,21.31-76.09,42.65-114.16,63.95-.87.49-1.97.57-2.96.83,12.06-16.36,24.05-32.76,36.19-49.05,11.78-15.8,23.73-31.48,35.58-47.24.48-.63.63-1.51.94-2.28.48-.41,1.04-.57,1.67-.49,15.16,7.77,28.91,17.79,43.14,27.05,1.21.79,2.28,1.83,2.35,3.47Z"/>
        <path class="cls-2" d="M444.34,310.22c10.3-12.62,20.61-25.24,30.91-37.86,2.23.8,2.93,2.83,3.63,4.76,6.51,18.15,14.21,35.82,21.14,53.81,1.25,3.26,2.87,6.65-.32,9.82-23.47,10.07-47.17,19.59-70.94,28.92-2.27.89-4.62,2.12-7.15.62-1.78-2.69-.44-5.23.49-7.7,5.6-14.97,11.2-29.95,17.1-44.8,1.16-2.91,2.24-5.85,5.13-7.56Z"/>
        <path class="cls-8" d="M421.76,369.96c18.79-6.45,36.88-14.65,55.33-21.95,7.28-2.88,14.39-6.28,22.08-8.07,1.16,3.43-1.37,5.45-3.14,7.59-12.62,15.17-25.49,30.14-37.96,45.44-2.01,2.47-4.32,4.48-7.44,5.4-18.35-2.78-36.69-5.57-55.04-8.35-1.79-17-5.37-33.72-8.02-50.58-.13-.84-.49-1.51.42-2.05,2.47-.92,3.91.85,5.36,2.22,10.12,9.52,19.37,19.85,28.42,30.37Z"/>
        <path class="cls-24" d="M421.76,369.96c-5.55-2.04-8.51-7-12.27-11.01-6.95-7.42-13.54-15.19-21.51-21.58-3.91-13.44-5.15-27.36-7.58-41.07-.55-1.33-.58-2.66.03-3.98.34-.25.71-.64,1.06-.59,11.04,1.4,21.74,3.93,31.5,9.56,10.31,3.47,20.71,6.59,31.34,8.93-7.52,19.92-15.05,39.83-22.57,59.74Z"/>
        <path class="cls-15" d="M199.58,66.37c-1.68-3.24-2.75-6.9-6.25-8.86,14.24-11.23,28.42-22.55,42.79-33.61,2.72-2.09,4.44-5.63,8.34-6.13,3.13,2.91,4.56,6.85,6.3,10.57,8.05,17.23,16.11,34.45,23.72,51.88-5.86,2.71-11.31-.51-16.73-1.57-19.05-3.71-37.97-8.06-56.95-12.16-.4-.06-.81-.1-1.22-.13Z"/>
        <path class="cls-20" d="M450.63,398.36c16.38-19.3,33.2-38.25,48.54-58.42,2-2.99-.01-5.55-1-8.14-7.56-19.85-16.48-39.17-22.92-59.45,2.6-3.37,5.2-6.73,7.8-10.1,3.73-.05,4.63,3.01,5.78,5.54,2.04,4.49,3.73,9.14,5.67,13.67,1.32,3,2.46,6.07,3.62,9.14.32,1.41.62,2.82,1.53,4.02,1.66,3.71,4.8,7.01,3.36,11.62,4.43,10.47,8.73,21,13.36,31.39,1.46,3.27,1.31,5.38-1.28,8.15-14.97,16.05-29.89,32.17-44.4,48.63-4.08,4.63-8.05,6.56-13.94,4.73-1.94-.6-4.08-.54-6.14-.78Z"/>
        <path class="cls-26" d="M302.31,719.66c16.59-7.67,33.47-14.74,49.48-23.63,10.55,10.11,22.22,18.9,33.35,28.33,3.61,3.06,7.22,6.11,10.83,9.17,0,0-.36.04-.36.04l-.36-.06c-2.16,2.53-5.16,2.47-8.06,2.47-25.59.06-51.17.06-76.76,0-2.9,0-5.89.08-8.14-2.32-.15-2.14-.29-4.29-.44-6.43-1.94-2.65-2.43-5.22.45-7.58Z"/>
        <path class="cls-25" d="M194.54,420.14c7-14.08,13.89-28.21,22.57-41.38,1.01-.43,1.78.04,2.5.67,10.2,16.23,19.25,33.14,28.97,49.65,1.14,1.94,2.32,3.96,1.54,6.4-.2.23-.4.46-.6.69-12.84,4.14-25.67,8.27-38.51,12.41-5.49-9.48-10.98-18.97-16.48-28.45Z"/>
        <path class="cls-26" d="M157.29,719.72c16.37-4.98,32.74-9.98,49.13-14.92,1.85-.56,3.74-2.25,5.71-.21,2.95,5.89,4.36,12.31,6.25,18.56.54,1.77,1.04,3.58,0,5.36,1.56,6.83,4.63,13.34,3.83,20.65-.28,2.55-.5,4.43-3.73,4.42-21.39-.07-42.78-.06-64.17-.15-.64,0-1.28-.82-1.91-1.25,2.63-2.71,6.09-2.32,9.36-2.33,15.97-.08,31.94-.01,47.91-.05,1.86,0,3.74.1,5.58-.3,1.59-.35,2.57-1.29,2.7-2.96.15-1.86-.54-3.25-2.4-3.85-2.02-.64-4.11-.46-6.18-.47-16.59-.01-33.18-.05-49.77,0-2.42,0-5.01.71-7.17-1.13.27-1.71.54-3.42.81-5.13,1.36-5.42,2.71-10.83,4.07-16.25Z"/>
        <path class="cls-16" d="M554.15,214.2c-.84,18.89-1.73,37.78-2.48,56.67-.11,2.79-.91,4.62-3.49,5.96-9.76,5.09-19.42,10.35-29.12,15.55-1.99-2.1-1.53-4.62-1.05-7.04,1.63-8.32,2.68-16.74,4.46-25.03,2.33-12.74,4.25-25.56,7.06-38.21.27-1.23.18-2.45-.07-3.68-.04-2.62,1.16-4.49,3.45-5.71.34-.15.7-.19,1.06-.13,6.85-.95,13.76-2.67,20.18,1.62Z"/>
        <path class="cls-9" d="M179.49,252.05c1.71,7.67,3.42,15.33,5.13,23,2.11,6.54.54,12.71-1.83,18.81-.49.55-1.09.96-1.77,1.24-9.8.9-18.93-2.93-28.44-4.14-4.15-.53-8.73-.7-11.63-4.66-6.25-7.32-12.5-14.65-18.76-21.97-1.06-1.24-2.4-2.29-2.42-4.13,2.29-2.42,5.33-3,8.43-3.45,14.31-2.09,28.67-3.77,42.97-5.92,2.88-.43,5.78-.76,8.32,1.23Z"/>
        <path class="cls-12" d="M274.47,80.22c-1.67-.14-2.52-1.29-3.12-2.65-8.87-19.98-18.92-39.42-26.89-59.8,17.1,4.98,34.19,9.97,51.29,14.95,4.63,5.85,6.79,12.32,5.03,19.8-9.78,8.27-17.36,18.64-26.3,27.71Z"/>
        <path class="cls-20" d="M107.25,497.52c2.27,1.76,4.46.02,6.44-.49,15.03-3.85,29.99-7.97,44.98-12.01-3.86,8.57-8.94,15.34-19.15,17.46-7.65,1.59-14.92,4.96-22.37,7.54-4.76,3.43-9.76,6.22-15.92,5.8-1.95-.68-3.17-2.15-4.16-3.86-6.93-13.16-14.59-25.92-21.87-38.89-1.85-3.31-3.34-6.61-3.77-10.36-1.19-2.16-2.38-4.33-3.58-6.49q-6.36-11.37,2.25-21.28c5.04,4.46,7.59,10.62,10.8,16.26,7.78,13.66,15.13,27.56,22.72,41.32.99,1.79,2.41,3.34,3.62,5Z"/>
        <path class="cls-12" d="M179.49,252.05c-19.91,2.71-39.82,5.43-59.73,8.15,3.58-9.74,9.9-17.97,14.91-26.92,5.03-8.99,10.26-17.87,15.31-26.85.67-1.2.74-2.74,1.09-4.12,2.47,6.74,5.23,13.4,7.32,20.26,1.38,4.52,3.36,5.74,8.06,4.52,2.78-.72,6.5-3.97,9.16.68,4.82,7.21,5.82,15.1,4.17,23.46-.2.24-.29.52-.29.83Z"/>
        <path class="cls-15" d="M380.71,292.5c-.1,1.27-.2,2.53-.3,3.8-1.62-10.39-3.23-20.77-4.85-31.16,5.18.07,8.36-1.03,6.5-7.58-1.51-5.31-1.77-10.98-2.58-16.5,6.89-3.43,13.98-2.56,21.1-.99,7.63,7.92,16.54,14.33,25.01,21.26,2,1.63,5.06,2.8,2.86,6.33-12.11,6.7-24.46,12.96-36.43,19.93-3.6,2.1-7.43,3.52-11.31,4.9Z"/>
        <path class="cls-14" d="M532.9,212.7c.04,2.05-1.81,3.17-2.43,4.9.21,5.35-1.83,9.82-5.35,13.71-10.47,6.63-14.5,16.2-12.87,28.34,0,.63-.03,1.26-.08,1.89-1.33,5.23-2.97,10.32-6.57,14.52-4.02,2.51-6.8,7.42-12.58,6.56-3.82-6.54-4.5-14.62-9.95-20.36,2.5-8.09,5.1-16.15,7.44-24.28,1.08-3.77,2.97-6.5,6.4-8.6,8.45-5.19,16.83-10.51,24.94-16.21,3.89-2.74,7.23-3.62,11.07-.46Z"/>
        <path class="cls-4" d="M400.58,240.08c-6.94,2.21-14.06.71-21.1.99-2.1-11.56-4.19-23.12-6.29-34.68,1.28-1.67,2.84-2.95,4.88-3.6,10.41-3.28,20.58-7.23,30.89-10.77,2.21-.76,4.42-.85,6.69-.44,2.02,1.71.49,3.47-.07,5.09-4.96,14.49-10,28.94-15.01,43.41Z"/>
        <path class="cls-14" d="M98.46,511.35c.85,1.17,1.7,2.35,2.55,3.52.48.78.54,1.69,0,2.33-5.7,6.74-11.37,13.52-18.59,18.75-.45.08-.89.15-1.34.23-9.41-11.55-18.45-23.38-26.14-36.18,3.59-7.95,7.17-15.91,10.76-23.86,8.93,6.76,16.31,15.12,23.77,23.36,3.31,3.66,6.16,7.77,8.98,11.85Z"/>
        <path class="cls-16" d="M54.95,500c7.38,6.43,12.2,14.91,17.83,22.69,3.07,4.25,7.7,7.68,8.31,13.49-5.38,6.31-10.84,12.56-16.11,18.96-2.3,2.8-3.9,2.3-5.7-.4-4.14-6.22-8.21-12.48-12.63-18.5-1.69-2.3-1.04-4.22-.4-6.39,2.9-9.95,5.8-19.9,8.7-29.85Z"/>
        <path class="cls-15" d="M140.95,286.29c13.3,2.57,26.6,5.14,39.91,7.71.83.85,1.07,2.05.4,2.84-5.28,6.27-9.19,13.93-17.27,17.44-8.76,2.73-17.83,4.01-26.78,5.81-2.69.54-5.39.71-7.58-1.47,1.96-9.05,6.36-17.22,9.3-25.91.72-2.13,1.35-4.28,2.02-6.42Z"/>
        <path class="cls-20" d="M554.15,214.2c-6.74-.42-13.56.21-20.18-1.62,5.36-3.78,10.61-7.73,16.14-11.26,2.65-1.69,3.42-3.47,3.11-6.54-.73-7.36-1.03-14.76-1.51-22.15.52-.9.99-1.97,1.83-2.49,9.62-5.94,12.21-16.36,16.41-25.72,2.89-6.44,5.67-12.94,8.58-19.38.86-1.9,1.63-3.96,3.6-4.93,1.38-.68,3.28-1.58,3.34,1.38-5.64,13.78-11.06,27.66-17.01,41.3-2.64,6.06-4.14,12.04-3.44,18.62.31,2.87-.23,5.87.27,8.69,1.93,10.74-1.28,18.93-11.16,24.11Z"/>
        <path class="cls-12" d="M415.66,191.58c-14.16,4.94-28.31,9.87-42.47,14.81-1.22-11.73-4.56-23.15-5.13-34.98,16.11,6.15,32.35,11.98,47.6,20.17Z"/>
        <path class="cls-3" d="M300.77,52.52c-1.68-6.6-3.35-13.2-5.03-19.8,5.33,1.58,10.6,3.39,16,4.68,6.51,1.56,11.3,4.85,15.15,10.55,5.98,8.86,12.87,17.11,19.28,25.68,1.13,1.51,3.25,2.84,1.98,5.32-15.79-8.81-31.58-17.63-47.38-26.44Z"/>
        <path class="cls-4" d="M380.71,292.5c3.1-4.23,8.25-5.25,12.44-7.72,10.3-6.07,20.95-11.55,31.46-17.27,1.3-.71,2.62-1.4,3.84.16-5.15,11.21-10.3,22.41-15.45,33.62-11.06-1.83-21.44-6.19-32.29-8.79Z"/>
        <path class="cls-2" d="M376.35,442.28c5.37-14.31,10.75-28.62,16.1-42.94.79-2.12,1.42-4.3,2.12-6.45,2.21.12,1.87,1.83,1.9,3.2.48,22.1.94,44.19,1.41,66.29-2.15-4.51-.6-9.28-1-13.92-.33-3.77-4.88-8.36-8.06-6.89-4.32,2-8.32.67-12.47.72Z"/>
        <path class="cls-20" d="M504.26,275.33c2.83-4.37,4.74-9.17,6.49-14.04,4.26-3.15,8.64-4.99,13.53-1.24-1.74,10.77-3.48,21.55-5.22,32.32-.27.18-.57.26-.89.26-6.42,3.61-13.49,1.8-20.27,2.41-1.25-.96-1.17-2.35-1.19-3.71.59-6.25,3.41-11.44,7.55-16Z"/>
        <path class="cls-13" d="M82.43,535.95c4.68-8.37,13.02-13.5,18.59-21.08,5.38-1.62,10.76-3.23,16.14-4.85-6.84,9.59-13.71,19.17-20.52,28.77-4.36,6.14-4.32,6.15-10.03.84-1.36-1.27-2.78-2.47-4.18-3.7Z"/>
        <path class="cls-27" d="M98.46,511.35c-11.09-11.58-22.82-22.56-32.75-35.22,1.91-4.48,3.82-8.96,5.73-13.43,9.12,16.15,18.86,31.96,27.02,48.65Z"/>
        <path class="cls-18" d="M585.47,121.48c-4.13-2.56-3.94,1.75-4.69,3.36-4.35,9.35-8.94,18.65-12.36,28.35-3.14,8.89-8.15,15.53-16.71,19.43,7.29-14.6,14.57-29.2,21.86-43.79,1.57-3.15,3.1-6.33,4.83-9.39,1.72-3.04,4.93-2.3,7.26-1.68,2.48.66.79,2.47-.19,3.71Z"/>
        <path class="cls-4" d="M129.62,318.63c10.7-.47,20.9-3.78,31.38-5.5,1.21-.2,2.42-.36,3.64-.54.04,5.79-4.6,8.51-7.93,12.09-3.68,2.07-4.91,7.15-9.65,7.93-.32-.01-.63-.02-.95-.01-4.85-3.66-9.73-7.29-14.53-11.03-.9-.7-3.09-.79-1.97-2.93Z"/>
        <path class="cls-6" d="M497.89,295.05c.52-2.93,2.82-2.51,4.83-2.51,5.15,0,10.3.06,15.45.1-5.05,4.54-10.1,9.07-15.15,13.61-1.71-3.73-3.42-7.46-5.13-11.19Z"/>
        <path class="cls-2" d="M401.66,608.59c-4.18-1.25-4.93-3.4-2.67-7.33,3.47-6.04.77-12.86,1.71-19.26,1.7,8.81.92,17.72.96,26.59Z"/>
        <path class="cls-2" d="M402.89,651.05c-.35.01-.71,0-1.06-.05.03-7.59.07-15.17.1-22.76,1.6,7.55.86,15.19.96,22.81Z"/>
        <path class="cls-2" d="M400.36,557.31c-2.14-7.52-.58-15.2-.92-22.8,1.59,7.55.9,15.19.92,22.8Z"/>
        <path class="cls-2" d="M399.11,509.84c-2.14-7.51-.57-15.17-.92-22.76,1.59,7.53.9,15.16.92,22.76Z"/>
        <path class="cls-24" d="M339.59,490.93c-4.78,4.11-6.32,10.14-8.88,15.48-14.18,29.6-28.15,59.3-42.12,89-15.47,32.89-30.86,65.82-46.31,98.72-.76,1.62-1.75,3.13-3.31,4.55,1.39-10.69-.16-21.34,1.11-31.88.38-3.11.58-6.18.68-9.29.87-26.75,1.37-53.52,2.74-80.25,1-19.47,1.63-38.95,2.56-58.42,1.32-27.55,3.01-55.07,3.45-82.65,0,0,0,0,0,0,.92-1.36,1.64-3.02,3.3-3.55,11.14-3.52,21.74-8.82,33.48-10.4,3.42.63,5.08,3.41,6.97,5.86,13.57,17.65,27.22,35.24,40.67,52.98,1.88,2.48,3.81,4.93,5.92,7.23.37.92.36,1.8-.27,2.62Z"/>
        <path class="cls-15" d="M339.59,490.93c-.16-.8-.31-1.61-.47-2.41-2.03-6.7.49-12.44,3.82-18.01,5.76-2.34,11.65-3.7,17.89-2.2,1.98,1.77,2.5,4.22,2.82,6.65,1.44,10.76,3.54,21.43,4.2,32.29-1.3,3.34-3.39,1.5-4.87.46-7.86-5.5-15.61-11.17-23.4-16.78Z"/>
        <path class="cls-3" d="M367.85,507.25c-3.67-3.98-2.9-9.11-3.59-13.87-1.16-8.12-2.36-16.23-3.54-24.34,4.05-4.26,8.57-4.9,13.58-1.76,2.47,3.82,4.95,7.63,7.42,11.45,2.3,4.73-.66,7.34-3.95,9.82-3.31,6.23-6.62,12.47-9.93,18.7Z"/>
        <path class="cls-25" d="M374.31,467.28c-4.62-.11-9.09.89-13.58,1.76-5.81.82-11.62,1.64-17.43,2.47-3.66-4.22-4.24-8.9-2.14-14,5.25-3.55,10.92-4.46,17.01-2.66,4.54-.53,9.07-1.07,13.61-1.6,1.66,4.53,1.94,9.31,2.53,14.03Z"/>
        <path class="cls-2" d="M377.78,488.55c.85-3.46,3.97-6.01,3.95-9.82,3.15-.19,5.21.93,5.07,4.44-.14,3.39-2,5.21-5.36,5.44-1.21.08-2.44-.04-3.66-.06Z"/>
        <path class="cls-2" d="M383.13,656.1c-.97,1.26-2.36,1.22-3.74,1.22-2.6-.55-3.31-2.33-1.34-3.84,2.79-2.13,3.75.97,5.07,2.62Z"/>
        <path class="cls-15" d="M358.17,454.85c-5.41.95-10.83,1.89-16.24,2.84-5.17-.03-7.91-4.21-11.06-7.11-12.31-11.3-24.42-22.8-36.8-34.02-2.72-2.47-5.59-4.99-6.36-8.93-4.37-19.7-6.72-39.74-10.45-59.54-1.11-5.91-1.65-11.92-3.13-17.76-1.31-7.11-2.53-14.24-3.91-21.34,0-5.13-2.67-10.14-.68-15.36-2.16-14.07-4.24-28.15-6.57-42.19-.37-2.26-.48-3.94,1.32-5.56,14.44-13.01,28.84-26.05,43.28-39.05.41-.37,1.17-.33,1.77-.49,4.86,1.82,9.91,3.35,12.44,8.55,2.28,3.56-.38,8.86,4.09,11.65-1.22,3.89-4.84,3.38-7.67,3.93-4.66.9-9.43,1.26-14,2.61-1.1.32-2.69.6-2.41,2.28.26,1.59,1.77,1.58,2.97,1.52,5.38-.27,10.64-1.44,15.92-2.39,2.54-.45,5.25-1.77,7.53.75-2.48,1.57-2.66,3.77-2.24,6.5,5.82,37.86,11.51,75.74,17.3,113.61,4.85,31.73,9.79,63.44,14.66,95.16.22,1.43.15,2.9.22,4.36Z"/>
        <path class="cls-16" d="M259.59,157.7c-4.63-4.87-9.26-9.72-13.87-14.6-1.52-1.6-3.5-2.9-3.73-5.4-.62-1.67.26-2.9,1.41-3.77,7.08-5.36,13.87-11.11,21.38-15.89.71-.45,1.58-.45,2.41-.44,4.52,2.52,9.04,5.04,13.56,7.56,1.28.17,2.5.66,3.23,1.7,6.57,9.46,14.71,17.86,16.61,30.16,2,12.91,4.66,25.75,7.24,38.58.55,2.75,1.72,5.71-.75,8.25-1.16,1.07-1.86.07-2.57-.61-11.73-11.39-22.76-23.45-33.75-35.55-.91-1.88.7-3.03,1.33-4.44,1.1-2.46,1.3-4.85-.79-6.8-2.23-2.07-4.78-2-7.38-.53-1.36.77-2.4,2.38-4.33,1.79Z"/>
        <path class="cls-5" d="M307.07,203.84c-3.41-18.11-6.58-36.28-10.37-54.31-1.16-5.5-5.94-9.38-8.99-14.05-2.27-3.48-4.64-6.89-6.96-10.33,6.04-4.11,13.59-2.21,19.97-5,8.62,6.35,14.16,15.16,17.59,24.92,2.19,6.22,4.76,12.96,2.42,19.99,2.28,10.03,4.37,20.1,6.95,30.05.97,3.74.06,5.89-3.26,7.35-3.8,4.34-8.31,5.27-13.51,2.78-1.28-.47-2.56-.94-3.83-1.4Z"/>
        <path class="cls-16" d="M320.72,165.06c-.88-17.55-9.9-31.47-20.01-44.91,2.15-2.52,4.3-5.03,6.45-7.55,1.49-1.43,3.33-1.43,5.18-1.19,6.29.81,12.52,1.97,18.77,3.02,1.9.32,3.47,1.2,4.32,3.05-1.48,5.29-2.91,10.59-4.45,15.86-.59,2.01-1.24,3.93.97,5.39-.38.77-1.03,1.22-1.8,1.54-7.43,3.14-7.63,3.63-4.59,11.17.31.77.53,1.53.24,2.35-2.68,3.31-1.55,8.35-5.08,11.27Z"/>
        <path class="cls-4" d="M267.18,117.6c-7.01,6.54-15.01,11.82-22.64,17.56-.95.72-1.71,1.69-2.56,2.54-5.6-6.87-5.38-8.39,1.41-12.68,5.43-3.43,10.74-7.06,16.09-10.61,5.83-3.87,6.02-3.8,7.7,3.19Z"/>
        <path class="cls-19" d="M335.44,117.49c-9.42-1.63-18.85-3.25-28.27-4.88-.68-2.55-1.35-5.1-2.15-8.09,10.26.93,19.59,4.06,29.14,5.98,4.76.96,1.7,4.47,1.28,6.99Z"/>
        <path class="cls-6" d="M269.55,293.63c1.68,4.92,2.64,9.95,2.49,15.17-2.25,1.34-4.39.34-6.48-.42-5.01-1.83-10-3.69-14.95-5.67-2.06-.82-4.37-1.45-4.9-4.13,3.39-.81,6.78-1.63,10.18-2.44,4.55-.83,9.11-1.66,13.66-2.5Z"/>
        <path class="cls-11" d="M325.81,153.79c-3.63-2.75-5.63-6.08-3.79-10.75,1.87-4.75,5.91-4.52,9.94-4.3,4.45,2.1,6.13,5.77,4.61,10.23-1.72,5.08-6.06,5.67-10.76,4.83Z"/>
        <path class="cls-22" d="M259.59,157.7c2.17-3.11,4.49-5.89,8.93-5.12,3.08.53,5.21,2.05,6.25,5.12,1.53,4.52-.89,7.37-4,9.98-8.6.63-11.02-1.54-11.17-9.97Z"/>
        <path class="cls-1" d="M310.9,205.25c4.5-.93,9.01-1.85,13.51-2.78,1.36.04,2.72.09,4.09.13-1.78,4.35-3.73,8.61-6.71,12.3-4.05-2.99-9.14-4.47-12.44-8.55.52-.36,1.03-.73,1.55-1.09Z"/>
        <path class="cls-20" d="M245.71,298.57c8.78,3.41,17.55,6.82,26.33,10.22,2.17,6.88,2.88,14.03,3.91,21.12.64,1.67.78,3.25-.8,4.53-2.59,1.19-4.85-.03-7.09-1.06-26.38-11.99-53.36-22.55-79.85-34.27-2.48-1.1-5.88-1.36-6.14-5.2.45-6.35.92-12.69,2.56-18.88,20.36,7.84,40.72,15.68,61.08,23.53Z"/>
        <path class="cls-27" d="M179.79,251.22c-1.39-7.82-2.78-15.64-4.17-23.46.15-2.35,1.18-3.66,3.69-4.15,4.24-.84,8.4-2.09,13.72-3.46-4.28,11.01-7.97,21.35-13.24,31.07Z"/>
        <path class="cls-27" d="M158.47,193.13c4.94-3.07,9.91-3.71,14.58-5.19,1.04-.33,2.2-.17,2.7.92,2.45,5.28,3.78,10.94,4.94,16.6.34,1.68-1.13,1.97-2.46,1.08-6.44-4.34-12.85-8.72-19.75-13.41Z"/>
        <path class="cls-6" d="M328.23,235.23c-8.11,1.38-16.29,2.48-24.32,4.26-3.85.85-4.62-.9-5.37-3.8-.89-3.41.68-4.16,3.71-4.66,7.91-1.29,15.76-2.96,23.63-4.48,3.07-.42,6.19-.63,9.21-1.3,3.68-.81,5.59-.03,6.4,4.1.9,4.62-2.23,4.02-4.68,4.48-2.85.54-5.72.94-8.58,1.4Z"/>
        <path class="cls-20" d="M302.3,733.67c30.98-.05,61.97-.11,92.95-.16.06.2.17.39.19.59q1.23,11.9-10.57,11.9c-24.93,0-49.86,0-74.79,0q-8.04,0-7.98-7.98c.01-1.45.13-2.9.2-4.35Z"/>
        <path class="cls-7" d="M152.42,741.09c2.57-.84,5.17-1.27,7.92-1.26,17.82.07,35.63.01,53.45.05,6.54.01,9.02,3.74,7.04,10.08-.89,2.84-3.08,2.36-5.04,2.36-21.13-.02-42.26-.09-63.39-.14,0-3.69.02-7.39.02-11.08Z"/>
        <path class="cls-20" d="M289.33,408.86c17.03,16.82,34.74,32.9,52.6,48.83.45,4.61.91,9.21,1.36,13.82-1.39,5.67-2.78,11.34-4.18,17.01-2.82.03-3.64-2.35-4.99-4.11-15.7-20.29-31.41-40.58-47.12-60.86-5.08-.86-9.16-3.82-13.32-6.5-16.25-10.48-32.41-21.12-48.86-31.28-2.55-1.57-4.03-4.18-6.46-5.81-.42-.39-.84-.79-1.25-1.18-6.97-5.69-14.81-10.09-22.35-14.92-.49-.41-.99-.81-1.48-1.22-15.4-10.01-30.8-20.01-46.21-30.02,2.81-2.92,4.34-7.11,8.56-8.64,2.98-.31,5.05,1.62,7.32,3.03,16.25,10.07,32.11,20.74,48.47,30.63,23.58,15.54,47.73,30.18,71.38,45.59,2.43,1.59,4.97,3.05,6.53,5.65Z"/>
        <path class="cls-21" d="M504.26,275.33c-2.46,5.36-3.87,11.22-7.55,16-1.23-2.9-2.46-5.81-3.7-8.71,3.75-2.43,7.5-4.86,11.25-7.29Z"/>
        <path class="cls-2" d="M218.36,379.95c8.52,3.88,15.94,9.58,23.79,14.54,15.06,9.52,29.91,19.36,44.85,29.06-12.75,3.45-25.17,7.89-37.48,12.64-4.75-12.18-12.69-22.63-18.66-34.15-3.89-7.51-8.31-14.74-12.5-22.09Z"/>
        <path class="cls-26" d="M524.28,260.05c-4.51.41-9.02.83-13.53,1.24-.01-.42.03-.83.12-1.23,2.39-10.91,7.81-20.49,13.22-30.07,3.09-3.63,4.51-8.12,6.38-12.39,2.41,5.55-.42,10.72-1.27,16-1.43,8.85-3.25,17.64-4.91,26.45Z"/>
        <path class="cls-17" d="M210.66,358.98c-12.73-6.6-24.32-15.03-36.4-22.66-6.29-3.97-13.08-7.25-18.63-12.35,3-3.79,6.01-7.59,9.01-11.38,6.22-5.48,11.77-11.55,16.21-18.58.4-.08.8-.11,1.21-.08,19.96,8.62,39.92,17.24,59.88,25.87,10.84,4.69,21.67,9.41,32.51,14.11,1.57,3.25-1.18,4.09-3.08,4.8-18.01,6.76-35.97,13.65-54.05,20.22-2.16.79-4.43,1.05-6.66.06Z"/>
        <path class="cls-10" d="M524.08,229.99c-2.64,10.8-8.05,20.38-13.22,30.06-.03-.2-.05-.41-.08-.61-2.17-12.8,1.46-22.99,13.3-29.45Z"/>
        <path class="cls-26" d="M210.66,358.98c20.29-7.47,40.57-14.95,60.87-22.39,1.4-.51,2.8-.87,2.92-2.69,1.54-.93,1.17-2.59,1.5-3.98,3.81,15.71,5.75,31.75,8.52,47.64,1.81,10.4,3.26,20.86,4.87,31.3-10.52-5-19.88-11.92-29.59-18.22-16.34-10.59-33.42-20.01-49.07-31.66Z"/>
      </g>
    </g>
  </g>
</svg>