<?xml version="1.0" encoding="UTF-8"?>
<svg xmlns="http://www.w3.org/2000/svg" version="1.1" viewBox="0 0 636.44 800">
  <defs>
    <style>
      .cls-1 {
        fill: #909090;
      }

      .cls-2 {
        fill: #788a5c;
      }

      .cls-3 {
        fill: #eaeaea;
      }

      .cls-4 {
        fill: #8f8f8f;
      }

      .cls-5 {
        fill: #e2c9b7;
      }

      .cls-6 {
        fill: #856855;
      }

      .cls-7 {
        fill: #477760;
      }

      .cls-8 {
        fill: #607343;
      }

      .cls-9 {
        fill: #8e8e8e;
      }

      .cls-10 {
        fill: #876b58;
      }

      .cls-11 {
        fill: #2c2c2c;
      }

      .cls-12 {
        fill: #d9eae2;
      }

      .cls-13 {
        fill: #dcdcdb;
      }

      .cls-14 {
        fill: #bc987e;
      }

      .cls-15 {
        fill: #d9bca6;
      }

      .cls-16 {
        fill: #c3c3c3;
      }

      .cls-17 {
        fill: #bc977e;
      }

      .cls-18 {
        fill: #84c4a7;
      }

      .cls-19 {
        fill: #6aab8c;
      }

      .cls-20 {
        fill: #908f8f;
      }

      .cls-21 {
        fill: #46765f;
      }

      .cls-22 {
        fill: #856956;
      }

      .cls-23 {
        fill: #2d2d2c;
      }

      .cls-24 {
        fill: #c7d6cf;
      }

      .cls-25 {
        fill: #a1be76;
      }

      .cls-26 {
        fill: #4a5e2c;
      }

      .cls-27 {
        fill: #6aab8b;
      }

      .cls-28 {
        fill: #856754;
      }
    </style>
  </defs>
  <!-- Generator: Adobe Illustrator 28.7.1, SVG Export Plug-In . SVG Version: 1.2.0 Build 142)  -->
  <g>
    <g id="Layer_1">
      <g id="Layer_1-2" data-name="Layer_1">
        <g>
          <path class="cls-2" d="M407.87,575.68l.35,26.32c.68,7.43,1.44,14.87-.58,22.24-.65,2.37.1,4.34,1.6,6.12.1,6.98.2,13.97.3,20.95,1.22,7.64.25,15.33.54,22.99-4.66,6.81-12.23,6.72-19.18,8.08-1.82.25-4.77-3.94-5.33,1.36-1.87,2.17-4.58,2.62-7.09,3.43-44.98,14.4-90.22,27.95-135.17,42.42-4.85,1.57-9.52,1.61-14.23-.55-32.44-14.88-64.89-29.74-97.3-44.68-1.79-.82-3.72-1.56-4.62-3.58,4-15.89,10.49-30.93,15.98-46.3,20.85-58.26,41.89-116.47,62.84-174.68.76-2.42,2.77-3.43,4.9-4.08,9.97-3.03,19.6-7.09,29.74-9.56,2.36-.58,4.78-1.35,6.95.55,3.3,6.28,2.31,13.17,1.56,19.57-1.63,13.7-1.29,27.47-1.95,41.17-1.24,25.45-2.09,50.93-3.27,76.38-1.16,24.79-2.03,49.58-3.39,74.36-.88,16.14-1.01,32.33-1.71,48.51-.18,4.16.07,8.34-.31,10.92,4.77-11.25,11.25-23.36,16.92-35.83,24.62-54.1,51-107.37,76.03-161.28,2.58-5.55,4.33-11.74,9.54-15.74,3.42-1.43,5.88.69,8.29,2.47,5.62,4.15,11.5,7.91,17.15,12.01,1.56,1.13,3.17,3.54,5.61,1.2,4.2-6.17,5.42-14.14,11.55-19.14,1.18-.61,2.57-.58,3.76-1.12,4.42-2.01,4.4-3.84-.05-7.14-4.26-3.58-6.48-8.5-8.74-13.4-1.43-4.74-2.36-9.57-2.54-14.54,1.04-5.09,1.56-10.46,6.85-13.37,4.08-1,8.29-.99,12.43-1.32,6.17-.48,9.26,2.8,9.42,8.9.14,5.04-.49,10.12.42,15.14.12,8.78.23,17.56.35,26.34,1.52,8.04-.34,16.21.98,24.26.12,8.76.23,17.54.36,26.3,1.5,8.06-.35,16.25.98,24.31h.02Z"/>
          <path class="cls-15" d="M352.22,65.73c6.03,3.38,5.58,9.7,6.52,15.17,4.78,27.42,9.32,54.87,13.97,82.31.06.39.49.72.74,1.09,1.63,1.63,2.42,3.66,2.77,5.9,1.61,10.26,3.99,20.39,4.78,30.78,2.81,12.44,4.83,25.02,6.58,37.65,1.44,5.74,2.42,11.58,3.13,17.43.91,7.36-.88,9.26-8.48,9.63-3.67-1.12-4-4.36-4.55-7.37-1.64-8.89-2.94-17.84-4.53-26.73-.5-2.83-.88-5.77-3.52-7.56-12.74-8.64-25.1-17.89-39.1-24.5-1.43-.16-2.74-.57-3.72-1.7,2.94-9.65-1.64-18.46-3.08-27.62-.65-4.1-2.45-8.02-2.04-12.3,2-4.3,1.91-9.49,5.54-13.09.75-.47,1.57-.76,2.43-.96,9.67-2.35,10.67-5.88,3.78-13.25-2.4-2.37-2.08-5.18-1.32-8.05,1.42-5.34,2.83-10.68,4.62-15.91,1.17-3.62-.44-5.31-3.91-6.08-5.62-1.23-11.21-2.58-16.78-3.99-4.98-1.27-7.63-.7-6.41,5.2-1.32,4.1-4.22,6.96-7.46,9.56-6.8,2.88-14.2,3.01-21.29,4.57-6.06-1.24-11.18-4.25-15.84-8.2-1.64-3.43-3.77-4.39-7.21-1.96-4.82,3.4-9.77,6.64-14.74,9.82-4.73,3.01-5.64,7.03-2.73,12.07,3.53,5.43,8.61,9.4,12.97,14.06,2.25,2.4,4.87,4.51,5.95,7.81.32,6.51,4.65,8.71,10.26,9.53,6.41,4.42,11.33,10.36,16.5,16.07,7.23,7.97,14.24,16.18,23.1,22.47,1.46.67,2.98,1.28,3.55,3.02-.1,1.06-.66,1.85-1.43,2.53-14.54,12.31-28.43,25.38-42.77,37.92-4.1,3.59-5.38,7.66-4.33,13.02,2.06,10.45,3.46,21,5.46,31.47.66,3.45,1.58,7.04-1.3,10.1-4.72,2.3-9.57,3.91-14.91,2.46-2.95-1.95-3.14-5.18-3.73-8.2-12.33-64.51-24.31-129.08-36.34-193.65-2.12-11.4-8.28-20.39-13.51-30.11-2.31-4.31-6.82-7.93-5.07-13.78,3.58-2.55,7.25-.78,10.8-.05,20.27,4.17,40.47,8.59,60.72,12.82,1.7.35,3.37,1.16,5.13.3,8.43-6.88,14.87-15.68,22.45-23.37,2.3-2.33,4.42-5.01,7.98-5.61,7.64,1.28,13.39,6.47,19.99,9.87,8.82,4.54,17.16,9.95,25.82,14.8,1.96,1.1,3.67,2.45,4.56,4.61h0Z"/>
          <path class="cls-17" d="M195.12,52.45c.9,4.5,3.75,8.07,6.22,11.63,8.95,12.96,13.79,27.18,16.58,42.71,9.67,53.85,20.14,107.55,30.18,161.34,1.81,9.73,3.18,19.55,5.77,29.14-2.53,4.06-6.98,2.97-10.65,4-5.9-.22-10.91-3.27-16.23-5.28-14.41-5.45-28.79-11-43.11-16.71-2.45-.98-4.91-1.96-6.92-3.78-4.63-7.21-4.08-15.69-5.83-23.6-.05-.67,0-1.34.12-2,3.6-9.89,8-19.49,12.06-29.9-5.92.12-10.64,2.03-15.1,4.83-2.17.35-4.37.09-6.57.33-11.07,1.23-10.94,1.15-14.81-8.94-2.36-6.15-4.54-12.28-4.71-18.94-1.11-3.77-2-7.62-3.38-11.3-1.2-3.22-.38-4.83,2.85-5.91,4.56-1.52,9-3.43,13.49-5.18,5.37-4.75,8.79-5.21,14.92-2.03,10.18,5.31,10,5.29,11.27-5.63,1.57-13.4,1.73-26.93,3.57-40.3,1.04-7.54-1.19-13.01-8.49-15.97-.61-.25-1.15-.65-1.73-.99-9.71-5.64-10.28-7.4-5.31-17.34,5.74-11.48,12.16-22.59,17.81-34.12,1.34-2.74,2.75-5.63,6.06-6.69.74-.05,1.39.17,1.93.66h.01Z"/>
          <path class="cls-3" d="M331.27,197.53c7.37,1.64,12.38,7.44,18.84,10.7,3.13,1.59,5.68,4.46,8.89,5.75,13.44,5.42,17.76,16.09,18.66,29.53.47,6.94,1.41,14,3.78,20.68,5.38,7.82,4.3,17.15,5.9,25.84.43,2.33.32,4.78,1.29,7.03,2.69,14.56,5,29.2,7.78,43.75,2.25,15.74,5.26,31.35,7.66,47.07.5,3.25,1.4,6.59-1.28,9.43l-1.1,3.07c1.83,2.31.71,4.72-.07,6.9-5.02,13.86-10.42,27.59-15.66,41.37-.71,1.87-1.6,3.65-3.68,4.38-1.62,3.9-3.24,7.8-4.86,11.69-4.37,4.15-9.37,4.38-14.73,2.4-2.64-2.76-2.87-6.42-3.38-9.86-10.08-68.29-20.83-136.49-30.89-204.78-.58-3.94-1.33-7.86-1.81-11.81-.42-3.39-.42-6.68,2.68-9.03,2.95-2.08,6.49-2.32,9.88-3.09,1.19-.27,2.87-.34,2.7-2.17-.18-1.99-1.77-2.27-3.4-2.2-3.67.17-7.35,1.36-11-.13-4.77-2.97-4.33-7.89-4.7-12.52,1.66-5.38,3.81-10.48,8.51-14.02h.01Z"/>
          <path class="cls-24" d="M403.21,763.54c6.94,2.91,14.4,1.39,21.6,2.29,14.86,1.89,29.95,1.95,44.91,3.07,21.11,1.58,42.19,3.52,63.31,5.12,5.26.39,10.56.06,15.85.41-9.57,3.3-19.6,2.7-29.38,3.52-27.04,2.26-54.09,4.2-81.11,6.74-19.55,1.83-39.2,2.64-58.77,4.21-25.06,2-50.07,4.68-75.15,6.38-17.17,1.16-34.31,2.81-51.47,4.07-11.48.84-22.85-1.89-34.26-2.96-14.7-1.39-29.36-3.23-44.03-4.88-18.18-2.05-36.35-4.15-54.54-6.13-14.47-1.58-28.96-2.9-43.42-4.57-7.82-.91-15.81-.75-25.16-3.33,15.05-1.66,28.46-2.89,41.79-4.68,17-2.29,34.24-2.79,51.04-6.64,2.13,1.65.78,3.88.99,5.85.72,3.1-.87,6.66,1.93,9.33,2.32,1.68,4.99,1.56,7.64,1.56,17.18,0,34.36.03,51.54-.02,8.19-.02,10.47-3.07,8.76-11.2-.97-4.59-4.29-8.93-1.61-13.97.85-.74,1.82-1.32,2.93-1.47,26.95-3.58,53.91-6.52,81.06-1.96,1.98.33,3.91.74,5.54,2.01,1.92,2.01,2.07,4.5,1.88,7.07.86,7.28,4.9,10.92,12.13,10.94,23.92.01,47.84.01,71.77,0,6.55,0,10.71-3.05,12.46-9.16.42-.71,1.01-1.24,1.77-1.57h-.03Z"/>
          <path class="cls-21" d="M389.51,681c6.65-1.81,13.29-3.62,19.95-5.44.41-.67.78-.66,1.13.05,1.38,15.84,1.35,15.78-13.42,20.01-9.94,2.85-19.72,6.27-29.75,8.73-5.25,1.29-7.86,3.77-8.62,9-.51,3.46-1.76,6.81-2.68,10.21-.77,3.5-3.59,4.88-6.44,6.18-12.7,5.81-25.39,11.65-37.98,17.71-2.88,1.39-5.88,3.46-9.34,1.25-2.78-4.99-1.51-10.44-1.5-15.66,0-4.73-1.63-5.85-5.97-4.48-13.95,4.39-28.33,7.6-41.89,13.1-12.59,5.12-24.33,5.44-36.01-2.01-3.17-2.01-6.87-3.09-10.24-4.77-5.47-.67-10.34,1.66-15.29,3.25-11.09,3.56-22.27,6.79-33.33,10.46-2.98.99-6.2,2.72-9.38.23,2.03-10.82,3.88-21.68,6.16-32.45.98-4.64.1-7.26-4.63-9.08-7.79-3.01-15.19-7.07-23.02-10.01-4.56-1.72-5.1-3.96-3.3-7.92,1.26-2.78,2.15-5.71,3.22-8.58,7.75,1.43,14.32,5.79,21.33,8.93,27.66,12.38,55.14,25.19,82.65,37.92,3.23,1.49,6.29,1.54,9.64.49,37.96-11.95,75.95-23.82,113.92-35.77,10.3-3.24,20.53-6.68,30.8-10.03.96-1.58,2.47-1.44,3.99-1.3v-.03Z"/>
          <path class="cls-2" d="M55.81,445.22c1.17-1.34,2.35-2.69,3.52-4.03,7.72-6.84,17.14-10.9,25.98-15.91,31.8-18.05,63.56-36.16,95.58-53.81,2.13-1.17,4.01-2.77,6.2-3.84,1.13-.07,1.85.51,2.33,1.47.93,3.5-1.38,5.9-2.98,8.46-15.31,24.4-31.33,48.36-47.08,72.48-12.24,18.74-24.25,37.63-36.86,56.13-1.82,2.67-3.14,6.02-7.06,6.47-3.27-.58-4.61-3.27-5.98-5.76-10.33-18.55-20.07-37.43-31.19-55.54-1.17-1.91-1.87-4-2.44-6.14h-.02Z"/>
          <path class="cls-8" d="M95.4,511.94c7.86-9.04,13.72-19.49,20.32-29.39,15.2-22.82,30.29-45.74,44.97-68.91,9.34-14.73,19.81-28.75,28.01-44.21,2.69-1.09,4.81.5,6.65,1.85,6.09,4.46,13.89,6.75,17.84,13.95-.33,4.2-3.22,7.22-4.98,10.75-4.55,9.13-9.9,17.81-14.34,27.01-1.23,2.55-2.42,5.3-5.4,6.45-10.35,18.88-20.68,37.76-31.05,56.63-2.32,4.22-4.79,8.36-7.19,12.54-1.96,2.23-4.47,3.59-7.29,4.32-13.25,3.43-26.41,7.25-39.7,10.52-2.52.62-6.02,2.96-7.82-1.51h0Z"/>
          <path class="cls-9" d="M193.83,52.31c-9.75,15.07-17.1,31.44-25.53,47.23-1.44,2.69,0,4.23,1.99,5.46,2.44,1.5,4.91,3.13,7.59,4.08,9.62,3.39,10.04,10.87,9.26,19.29-1.46,15.8-2.73,31.62-3.91,47.44-.46,6.14-1.29,6.76-6.53,3.65-.95-.57-1.9-1.15-2.75-1.84-5.76-4.64-11.96-6.07-18.87-2.77-8.42-27.06-16.82-54.12-25.31-81.17-.85-2.72-1.29-4.64,1.55-6.84,18.72-14.52,37.26-29.28,55.86-43.96,5.71.68,7.27,4.3,6.66,9.45h-.01Z"/>
          <path class="cls-25" d="M187.1,368.13c.1,2.12-1.31,3.09-2.93,4-40.56,22.72-81.12,45.47-121.7,68.17-.93.52-2.1.61-3.16.88,12.86-17.44,25.64-34.92,38.58-52.29,12.56-16.84,25.3-33.56,37.93-50.36.51-.67.67-1.61,1-2.43.51-.44,1.11-.61,1.78-.52,16.16,8.28,30.82,18.97,45.99,28.84,1.29.84,2.43,1.95,2.51,3.7h0Z"/>
          <path class="cls-2" d="M454.76,312.27c10.98-13.45,21.97-26.91,32.95-40.36,2.38.85,3.12,3.02,3.87,5.07,6.94,19.35,15.15,38.19,22.54,57.36,1.33,3.48,3.06,7.09-.34,10.47-25.02,10.74-50.29,20.88-75.63,30.83-2.42.95-4.93,2.26-7.62.66-1.9-2.87-.47-5.58.52-8.21,5.97-15.96,11.94-31.93,18.23-47.76,1.24-3.1,2.39-6.24,5.47-8.06h.01Z"/>
          <path class="cls-8" d="M430.69,375.96c20.03-6.88,39.32-15.62,58.99-23.4,7.76-3.07,15.34-6.69,23.54-8.6,1.24,3.66-1.46,5.81-3.35,8.09-13.45,16.17-27.17,32.13-40.47,48.44-2.14,2.63-4.61,4.78-7.93,5.76-19.56-2.96-39.11-5.94-58.68-8.9-1.91-18.12-5.72-35.95-8.55-53.92-.14-.9-.52-1.61.45-2.19,2.63-.98,4.17.91,5.71,2.37,10.79,10.15,20.65,21.16,30.3,32.38v-.02Z"/>
          <path class="cls-25" d="M430.69,375.96c-5.92-2.17-9.07-7.46-13.08-11.74-7.41-7.91-14.43-16.19-22.93-23.01-4.17-14.33-5.49-29.17-8.08-43.78-.59-1.42-.62-2.84.03-4.24.36-.27.76-.68,1.13-.63,11.77,1.49,23.18,4.19,33.58,10.19,10.99,3.7,22.08,7.03,33.41,9.52-8.02,21.24-16.04,42.46-24.06,63.69h0Z"/>
          <path class="cls-16" d="M193.83,52.31c-1.79-3.45-2.93-7.36-6.66-9.45,15.18-11.97,30.3-24.04,45.62-35.83,2.9-2.23,4.73-6,8.89-6.53,3.34,3.1,4.86,7.3,6.72,11.27,8.58,18.37,17.17,36.73,25.29,55.31-6.25,2.89-12.06-.54-17.84-1.67-20.31-3.96-40.48-8.59-60.71-12.96-.43-.06-.86-.11-1.3-.14h0Z"/>
          <path class="cls-21" d="M461.47,406.23c17.46-20.57,35.39-40.78,51.75-62.28,2.13-3.19-.01-5.92-1.07-8.68-8.06-21.16-17.57-41.76-24.43-63.38,2.77-3.59,5.54-7.17,8.32-10.77,3.98-.05,4.94,3.21,6.16,5.91,2.17,4.79,3.98,9.74,6.04,14.57,1.41,3.2,2.62,6.47,3.86,9.74.34,1.5.66,3.01,1.63,4.29,1.77,3.96,5.12,7.47,3.58,12.39,4.72,11.16,9.31,22.39,14.24,33.46,1.56,3.49,1.4,5.74-1.36,8.69-15.96,17.11-31.86,34.3-47.33,51.84-4.35,4.94-8.58,6.99-14.86,5.04-2.07-.64-4.35-.58-6.55-.83h.02Z"/>
          <path class="cls-27" d="M303.35,748.76c17.69-8.18,35.68-15.71,52.75-25.19,11.25,10.78,23.69,20.15,35.55,30.2,3.85,3.26,7.7,6.51,11.55,9.78l-.38.04-.38-.06c-2.3,2.7-5.5,2.63-8.59,2.63-27.28.06-54.55.06-81.83,0-3.09,0-6.28.09-8.68-2.47-.16-2.28-.31-4.57-.47-6.85-2.07-2.83-2.59-5.56.48-8.08h.01Z"/>
          <path class="cls-26" d="M188.46,429.45c7.46-15.01,14.81-30.07,24.06-44.11,1.08-.46,1.9.04,2.67.71,10.87,17.3,20.52,35.33,30.88,52.93,1.22,2.07,2.47,4.22,1.64,6.82-.21.25-.43.49-.64.74-13.69,4.41-27.37,8.82-41.05,13.23-5.85-10.11-11.71-20.22-17.57-30.33h.01Z"/>
          <path class="cls-27" d="M148.75,748.82c17.45-5.31,34.9-10.64,52.38-15.91,1.97-.6,3.99-2.4,6.09-.22,3.14,6.28,4.65,13.12,6.66,19.79.58,1.89,1.11,3.82,0,5.71,1.66,7.28,4.94,14.22,4.08,22.01-.3,2.72-.53,4.72-3.98,4.71-22.8-.07-45.61-.06-68.41-.16-.68,0-1.36-.87-2.04-1.33,2.8-2.89,6.49-2.47,9.98-2.48,17.02-.09,34.05-.01,51.07-.05,1.98,0,3.99.11,5.95-.32,1.7-.37,2.74-1.38,2.88-3.16.16-1.98-.58-3.46-2.56-4.1-2.15-.68-4.38-.49-6.59-.5-17.69-.01-35.37-.05-53.06,0-2.58,0-5.34.76-7.64-1.2.29-1.82.58-3.65.86-5.47,1.45-5.78,2.89-11.55,4.34-17.32h-.02Z"/>
          <path class="cls-17" d="M571.82,209.91c-.9,20.14-1.84,40.28-2.64,60.41-.12,2.97-.97,4.93-3.72,6.35-10.4,5.43-20.7,11.03-31.04,16.58-2.12-2.24-1.63-4.93-1.12-7.51,1.74-8.87,2.86-17.85,4.75-26.68,2.48-13.58,4.53-27.25,7.53-40.73.29-1.31.19-2.61-.07-3.92-.04-2.79,1.24-4.79,3.68-6.09.36-.16.75-.2,1.13-.14,7.3-1.01,14.67-2.85,21.51,1.73h0Z"/>
          <path class="cls-9" d="M172.41,250.26c1.82,8.18,3.65,16.34,5.47,24.52,2.25,6.97.58,13.55-1.95,20.05-.52.59-1.16,1.02-1.89,1.32-10.45.96-20.18-3.12-30.32-4.41-4.42-.57-9.31-.75-12.4-4.97-6.66-7.8-13.33-15.62-20-23.42-1.13-1.32-2.56-2.44-2.58-4.4,2.44-2.58,5.68-3.2,8.99-3.68,15.26-2.23,30.56-4.02,45.81-6.31,3.07-.46,6.16-.81,8.87,1.31h0Z"/>
          <path class="cls-13" d="M273.67,67.08c-1.78-.15-2.69-1.38-3.33-2.83-9.46-21.3-20.17-42.02-28.67-63.75,18.23,5.31,36.45,10.63,54.68,15.94,4.94,6.24,7.24,13.13,5.36,21.11-10.43,8.82-18.51,19.87-28.04,29.54h-.01Z"/>
          <path class="cls-21" d="M95.4,511.94c2.42,1.88,4.75.02,6.87-.52,16.02-4.1,31.97-8.5,47.95-12.8-4.11,9.14-9.53,16.35-20.42,18.61-8.16,1.7-15.91,5.29-23.85,8.04-5.07,3.66-10.4,6.63-16.97,6.18-2.08-.72-3.38-2.29-4.43-4.11-7.39-14.03-15.55-27.63-23.31-41.46-1.97-3.53-3.56-7.05-4.02-11.04-1.27-2.3-2.54-4.62-3.82-6.92-4.52-8.08-3.72-15.64,2.4-22.69,5.37,4.75,8.09,11.32,11.51,17.33,8.29,14.56,16.13,29.38,24.22,44.05,1.06,1.91,2.57,3.56,3.86,5.33h.01Z"/>
          <path class="cls-13" d="M172.41,250.26c-21.23,2.89-42.45,5.79-63.68,8.69,3.82-10.38,10.55-19.16,15.89-28.7,5.36-9.58,10.94-19.05,16.32-28.62.71-1.28.79-2.92,1.16-4.39,2.63,7.19,5.58,14.29,7.8,21.6,1.47,4.82,3.58,6.12,8.59,4.82,2.96-.77,6.93-4.23,9.77.72,5.14,7.69,6.2,16.1,4.45,25.01-.21.26-.31.55-.31.88h0Z"/>
          <path class="cls-16" d="M386.93,293.38c-.11,1.35-.21,2.7-.32,4.05-1.73-11.08-3.44-22.14-5.17-33.22,5.52.07,8.91-1.1,6.93-8.08-1.61-5.66-1.89-11.71-2.75-17.59,7.35-3.66,14.9-2.73,22.49-1.06,8.13,8.44,17.63,15.28,26.66,22.66,2.13,1.74,5.39,2.98,3.05,6.75-12.91,7.14-26.08,13.82-38.84,21.25-3.84,2.24-7.92,3.75-12.06,5.22h0Z"/>
          <path class="cls-15" d="M549.17,208.31c.04,2.19-1.93,3.38-2.59,5.22.22,5.7-1.95,10.47-5.7,14.62-11.16,7.07-15.46,17.27-13.72,30.21,0,.67-.03,1.34-.09,2.01-1.42,5.58-3.17,11-7,15.48-4.29,2.68-7.25,7.91-13.41,6.99-4.07-6.97-4.8-15.59-10.61-21.7,2.67-8.62,5.44-17.22,7.93-25.88,1.15-4.02,3.17-6.93,6.82-9.17,9.01-5.53,17.94-11.2,26.59-17.28,4.15-2.92,7.71-3.86,11.8-.49h-.02Z"/>
          <path class="cls-4" d="M408.11,237.5c-7.4,2.36-14.99.76-22.49,1.06-2.24-12.32-4.47-24.65-6.71-36.97,1.36-1.78,3.03-3.14,5.2-3.84,11.1-3.5,21.94-7.71,32.93-11.48,2.36-.81,4.71-.91,7.13-.47,2.15,1.82.52,3.7-.07,5.43-5.29,15.45-10.66,30.85-16,46.28h.01Z"/>
          <path class="cls-15" d="M86.03,526.69c.91,1.25,1.81,2.51,2.72,3.75.51.83.58,1.8,0,2.48-6.08,7.19-12.12,14.41-19.82,19.99-.48.09-.95.16-1.43.25-10.03-12.31-19.67-24.92-27.87-38.57,3.83-8.48,7.64-16.96,11.47-25.44,9.52,7.21,17.39,16.12,25.34,24.9,3.53,3.9,6.57,8.28,9.57,12.63h.01Z"/>
          <path class="cls-17" d="M39.65,514.59c7.87,6.85,13.01,15.89,19.01,24.19,3.27,4.53,8.21,8.19,8.86,14.38-5.74,6.73-11.56,13.39-17.17,20.21-2.45,2.98-4.16,2.45-6.08-.43-4.41-6.63-8.75-13.3-13.46-19.72-1.8-2.45-1.11-4.5-.43-6.81,3.09-10.61,6.18-21.21,9.27-31.82h0Z"/>
          <path class="cls-16" d="M131.33,286.76c14.18,2.74,28.36,5.48,42.55,8.22.88.91,1.14,2.19.43,3.03-5.63,6.68-9.8,14.85-18.41,18.59-9.34,2.91-19.01,4.27-28.55,6.19-2.87.58-5.75.76-8.08-1.57,2.09-9.65,6.78-18.36,9.91-27.62.77-2.27,1.44-4.56,2.15-6.84h0Z"/>
          <path class="cls-21" d="M571.82,209.91c-7.19-.45-14.46.22-21.51-1.73,5.71-4.03,11.31-8.24,17.21-12,2.83-1.8,3.65-3.7,3.32-6.97-.78-7.85-1.1-15.74-1.61-23.61.55-.96,1.06-2.1,1.95-2.65,10.26-6.33,13.02-17.44,17.49-27.42,3.08-6.87,6.04-13.79,9.15-20.66.92-2.03,1.74-4.22,3.84-5.26,1.47-.72,3.5-1.68,3.56,1.47-6.01,14.69-11.79,29.49-18.13,44.03-2.81,6.46-4.41,12.84-3.67,19.85.33,3.06-.25,6.26.29,9.26,2.06,11.45-1.36,20.18-11.9,25.7h.02Z"/>
          <path class="cls-13" d="M424.19,185.79c-15.1,5.27-30.18,10.52-45.28,15.79-1.3-12.5-4.86-24.68-5.47-37.29,17.17,6.56,34.49,12.77,50.74,21.5Z"/>
          <path class="cls-3" d="M301.71,37.55c-1.79-7.04-3.57-14.07-5.36-21.11,5.68,1.68,11.3,3.61,17.06,4.99,6.94,1.66,12.05,5.17,16.15,11.25,6.38,9.45,13.72,18.24,20.55,27.38,1.2,1.61,3.46,3.03,2.11,5.67-16.83-9.39-33.67-18.79-50.51-28.19h0Z"/>
          <path class="cls-4" d="M386.93,293.38c3.3-4.51,8.79-5.6,13.26-8.23,10.98-6.47,22.33-12.31,33.54-18.41,1.39-.76,2.79-1.49,4.09.17-5.49,11.95-10.98,23.89-16.47,35.84-11.79-1.95-22.86-6.6-34.42-9.37h0Z"/>
          <path class="cls-2" d="M382.28,453.05c5.72-15.26,11.46-30.51,17.16-45.78.84-2.26,1.51-4.58,2.26-6.88,2.36.13,1.99,1.95,2.03,3.41.51,23.56,1,47.11,1.5,70.67-2.29-4.81-.64-9.89-1.07-14.84-.35-4.02-5.2-8.91-8.59-7.35-4.61,2.13-8.87.71-13.29.77h0Z"/>
          <path class="cls-21" d="M518.64,275.07c3.02-4.66,5.05-9.78,6.92-14.97,4.54-3.36,9.21-5.32,14.42-1.32-1.85,11.48-3.71,22.97-5.56,34.46-.29.19-.61.28-.95.28-6.84,3.85-14.38,1.92-21.61,2.57-1.33-1.02-1.25-2.51-1.27-3.96.63-6.66,3.64-12.2,8.05-17.06h0Z"/>
          <path class="cls-14" d="M68.94,552.91c4.99-8.92,13.88-14.39,19.82-22.47,5.74-1.73,11.47-3.44,17.21-5.17-7.29,10.22-14.62,20.44-21.88,30.67-4.65,6.55-4.61,6.56-10.69.9-1.45-1.35-2.96-2.63-4.46-3.94v.02Z"/>
          <path class="cls-28" d="M86.03,526.69c-11.82-12.34-24.33-24.05-34.91-37.55,2.04-4.78,4.07-9.55,6.11-14.32,9.72,17.22,20.11,34.07,28.8,51.86Z"/>
          <path class="cls-19" d="M605.21,111.06c-4.4-2.73-4.2,1.87-5,3.58-4.64,9.97-9.53,19.88-13.18,30.22-3.35,9.48-8.69,16.56-17.81,20.71,7.77-15.56,15.53-31.13,23.3-46.68,1.67-3.36,3.3-6.75,5.15-10.01,1.83-3.24,5.26-2.45,7.74-1.79,2.64.7.84,2.63-.2,3.96h0Z"/>
          <path class="cls-4" d="M119.25,321.23c11.41-.5,22.28-4.03,33.45-5.86,1.29-.21,2.58-.38,3.88-.58.04,6.17-4.9,9.07-8.45,12.89-3.92,2.21-5.23,7.62-10.29,8.45-.34-.01-.67-.02-1.01-.01-5.17-3.9-10.37-7.77-15.49-11.76-.96-.75-3.29-.84-2.1-3.12h.01Z"/>
          <path class="cls-6" d="M511.85,296.1c.55-3.12,3.01-2.68,5.15-2.68,5.49,0,10.98.06,16.47.11-5.38,4.84-10.77,9.67-16.15,14.51-1.82-3.98-3.65-7.95-5.47-11.93h0Z"/>
          <path class="cls-2" d="M409.26,630.35c-4.46-1.33-5.26-3.62-2.85-7.81,3.7-6.44.82-13.71,1.82-20.53,1.81,9.39.98,18.89,1.02,28.35h0Z"/>
          <path class="cls-2" d="M410.57,675.61c-.37.01-.76,0-1.13-.05.03-8.09.07-16.17.11-24.26,1.71,8.05.92,16.19,1.02,24.32Z"/>
          <path class="cls-2" d="M407.87,575.68c-2.28-8.02-.62-16.2-.98-24.31,1.7,8.05.96,16.19.98,24.31Z"/>
          <path class="cls-2" d="M406.54,525.08c-2.28-8.01-.61-16.17-.98-24.26,1.7,8.03.96,16.16.98,24.26Z"/>
          <path class="cls-25" d="M343.09,504.92c-5.1,4.38-6.74,10.81-9.47,16.5-15.12,31.56-30.01,63.22-44.9,94.88-16.49,35.06-32.9,70.17-49.37,105.24-.81,1.73-1.87,3.34-3.53,4.85,1.48-11.4-.17-22.75,1.18-33.99.41-3.32.62-6.59.72-9.9.93-28.52,1.46-57.06,2.92-85.55,1.07-20.76,1.74-41.52,2.73-62.28,1.41-29.37,3.21-58.71,3.68-88.11h0c.98-1.45,1.75-3.22,3.52-3.78,11.88-3.75,23.18-9.4,35.69-11.09,3.65.67,5.42,3.64,7.43,6.25,14.47,18.82,29.02,37.57,43.36,56.48,2,2.64,4.06,5.26,6.31,7.71.39.98.38,1.92-.29,2.79h.01Z"/>
          <path class="cls-16" d="M343.09,504.92c-.17-.85-.33-1.72-.5-2.57-2.16-7.14.52-13.26,4.07-19.2,6.14-2.49,12.42-3.94,19.07-2.35,2.11,1.89,2.67,4.5,3.01,7.09,1.54,11.47,3.77,22.85,4.48,34.42-1.39,3.56-3.61,1.6-5.19.49-8.38-5.86-16.64-11.91-24.95-17.89h.01Z"/>
          <path class="cls-3" d="M373.22,522.31c-3.91-4.24-3.09-9.71-3.83-14.79-1.24-8.66-2.52-17.3-3.77-25.95,4.32-4.54,9.14-5.22,14.48-1.88,2.63,4.07,5.28,8.13,7.91,12.21,2.45,5.04-.7,7.82-4.21,10.47-3.53,6.64-7.06,13.29-10.59,19.94h.01Z"/>
          <path class="cls-26" d="M380.1,479.7c-4.93-.12-9.69.95-14.48,1.88-6.19.87-12.39,1.75-18.58,2.63-3.9-4.5-4.52-9.49-2.28-14.92,5.6-3.78,11.64-4.75,18.13-2.84,4.84-.57,9.67-1.14,14.51-1.71,1.77,4.83,2.07,9.93,2.7,14.96Z"/>
          <path class="cls-2" d="M383.8,502.38c.91-3.69,4.23-6.41,4.21-10.47,3.36-.2,5.55.99,5.4,4.73-.15,3.61-2.13,5.55-5.71,5.8-1.29.09-2.6-.04-3.9-.06h0Z"/>
          <path class="cls-2" d="M389.51,681c-1.03,1.34-2.52,1.3-3.99,1.3-2.77-.59-3.53-2.48-1.43-4.09,2.97-2.27,4,1.03,5.4,2.79h.01Z"/>
          <path class="cls-16" d="M362.9,466.45c-5.77,1.01-11.55,2.01-17.31,3.03-5.51-.03-8.43-4.49-11.79-7.58-13.12-12.05-26.03-24.31-39.23-36.27-2.9-2.63-5.96-5.32-6.78-9.52-4.66-21-7.16-42.37-11.14-63.47-1.18-6.3-1.76-12.71-3.34-18.93-1.4-7.58-2.7-15.18-4.17-22.75,0-5.47-2.85-10.81-.72-16.37-2.3-15-4.52-30.01-7-44.98-.39-2.41-.51-4.2,1.41-5.93,15.39-13.87,30.75-27.77,46.14-41.63.44-.39,1.25-.35,1.89-.52,5.18,1.94,10.56,3.57,13.26,9.11,2.43,3.8-.41,9.45,4.36,12.42-1.3,4.15-5.16,3.6-8.18,4.19-4.97.96-10.05,1.34-14.92,2.78-1.17.34-2.87.64-2.57,2.43.28,1.7,1.89,1.68,3.17,1.62,5.74-.29,11.34-1.54,16.97-2.55,2.71-.48,5.6-1.89,8.03.8-2.64,1.67-2.84,4.02-2.39,6.93,6.2,40.36,12.27,80.74,18.44,121.12,5.17,33.83,10.44,67.63,15.63,101.45.23,1.52.16,3.09.23,4.65l.02-.02Z"/>
          <path class="cls-17" d="M257.81,149.67c-4.94-5.19-9.87-10.36-14.79-15.56-1.62-1.71-3.73-3.09-3.98-5.76-.66-1.78.28-3.09,1.5-4.02,7.55-5.71,14.79-11.84,22.79-16.94.76-.48,1.68-.48,2.57-.47,4.82,2.69,9.64,5.37,14.46,8.06,1.36.18,2.67.7,3.44,1.81,7,10.08,15.68,19.04,17.71,32.15,2.13,13.76,4.97,27.45,7.72,41.13.59,2.93,1.83,6.09-.8,8.79-1.24,1.14-1.98.07-2.74-.65-12.5-12.14-24.26-25-35.98-37.9-.97-2,.75-3.23,1.42-4.73,1.17-2.62,1.39-5.17-.84-7.25-2.38-2.21-5.1-2.13-7.87-.57-1.45.82-2.56,2.54-4.62,1.91h0Z"/>
          <path class="cls-5" d="M308.42,198.86c-3.64-19.31-7.01-38.68-11.06-57.9-1.24-5.86-6.33-10-9.58-14.98-2.42-3.71-4.95-7.35-7.42-11.01,6.44-4.38,14.49-2.36,21.29-5.33,9.19,6.77,15.1,16.16,18.75,26.57,2.33,6.63,5.07,13.82,2.58,21.31,2.43,10.69,4.66,21.43,7.41,32.04,1.03,3.99.06,6.28-3.48,7.84-4.05,4.63-8.86,5.62-14.4,2.96-1.36-.5-2.73-1-4.08-1.49h-.01Z"/>
          <path class="cls-17" d="M322.97,157.52c-.94-18.71-10.55-33.55-21.33-47.88,2.29-2.69,4.58-5.36,6.88-8.05,1.59-1.52,3.55-1.52,5.52-1.27,6.71.86,13.35,2.1,20.01,3.22,2.03.34,3.7,1.28,4.61,3.25-1.58,5.64-3.1,11.29-4.74,16.91-.63,2.14-1.32,4.19,1.03,5.75-.41.82-1.1,1.3-1.92,1.64-7.92,3.35-8.13,3.87-4.89,11.91.33.82.57,1.63.26,2.51-2.86,3.53-1.65,8.9-5.42,12.01h0Z"/>
          <path class="cls-4" d="M265.9,106.92c-7.47,6.97-16,12.6-24.14,18.72-1.01.77-1.82,1.8-2.73,2.71-5.97-7.32-5.74-8.94,1.5-13.52,5.79-3.66,11.45-7.53,17.15-11.31,6.22-4.13,6.42-4.05,8.21,3.4h0Z"/>
          <path class="cls-20" d="M338.67,106.81c-10.04-1.74-20.1-3.46-30.14-5.2-.72-2.72-1.44-5.44-2.29-8.62,10.94.99,20.88,4.33,31.06,6.38,5.07,1.02,1.81,4.77,1.36,7.45h0Z"/>
          <path class="cls-6" d="M268.42,294.58c1.79,5.25,2.81,10.61,2.65,16.17-2.4,1.43-4.68.36-6.91-.45-5.34-1.95-10.66-3.93-15.94-6.04-2.2-.87-4.66-1.55-5.22-4.4,3.61-.86,7.23-1.74,10.85-2.6,4.85-.88,9.71-1.77,14.56-2.67h0Z"/>
          <path class="cls-11" d="M328.4,145.51c-3.87-2.93-6-6.48-4.04-11.46,1.99-5.06,6.3-4.82,10.6-4.58,4.74,2.24,6.53,6.15,4.91,10.91-1.83,5.42-6.46,6.04-11.47,5.15h0Z"/>
          <path class="cls-23" d="M257.81,149.67c2.31-3.32,4.79-6.28,9.52-5.46,3.28.57,5.55,2.19,6.66,5.46,1.63,4.82-.95,7.86-4.26,10.64-9.17.67-11.75-1.64-11.91-10.63h-.01Z"/>
          <path class="cls-1" d="M312.5,200.36c4.8-.99,9.61-1.97,14.4-2.96,1.45.04,2.9.1,4.36.14-1.9,4.64-3.98,9.18-7.15,13.11-4.32-3.19-9.74-4.77-13.26-9.11.55-.38,1.1-.78,1.65-1.16h0Z"/>
          <path class="cls-21" d="M243.01,299.85c9.36,3.64,18.71,7.27,28.07,10.9,2.31,7.33,3.07,14.96,4.17,22.52.68,1.78.83,3.46-.85,4.83-2.76,1.27-5.17-.03-7.56-1.13-28.12-12.78-56.88-24.04-85.12-36.53-2.64-1.17-6.27-1.45-6.55-5.54.48-6.77.98-13.53,2.73-20.13,21.7,8.36,43.41,16.72,65.11,25.08h0Z"/>
          <path class="cls-28" d="M172.73,249.37c-1.48-8.34-2.96-16.67-4.45-25.01.16-2.51,1.26-3.9,3.93-4.42,4.52-.9,8.95-2.23,14.63-3.69-4.56,11.74-8.5,22.76-14.11,33.12Z"/>
          <path class="cls-28" d="M150.01,187.44c5.27-3.27,10.56-3.96,15.54-5.53,1.11-.35,2.35-.18,2.88.98,2.61,5.63,4.03,11.66,5.27,17.7.36,1.79-1.2,2.1-2.62,1.15-6.87-4.63-13.7-9.3-21.05-14.3h-.01Z"/>
          <path class="cls-6" d="M330.98,232.33c-8.65,1.47-17.37,2.64-25.93,4.54-4.1.91-4.93-.96-5.72-4.05-.95-3.64.72-4.43,3.96-4.97,8.43-1.38,16.8-3.16,25.19-4.78,3.27-.45,6.6-.67,9.82-1.39,3.92-.86,5.96-.03,6.82,4.37.96,4.93-2.38,4.29-4.99,4.78-3.04.58-6.1,1-9.15,1.49h0Z"/>
          <path class="cls-12" d="M213.87,758.19c-2.47-7.55-4.94-15.11-7.42-22.65-.38-1.15-.42-2.14.77-2.85,1,.47,1.98.97,3,1.42,25.52,11.41,25.47,11.26,52.12,2.13,11.9-4.07,24.07-7.31,36.05-11.12,3.86-1.23,4.95-.27,4.82,3.73-.22,6.62.07,13.26.15,19.89-.16,2.7-.32,5.38-.48,8.08-9.88-.81-19.76-1.52-29.63-2.45-11.1-1.04-22.09.48-33.04,1.62-8.77.92-17.45,2.59-26.33,2.19h-.01Z"/>
          <path class="cls-21" d="M303.34,763.69c33.03-.05,66.06-.12,99.09-.17.06.21.18.42.2.63.87,8.46-2.88,12.69-11.27,12.69h-79.73c-5.71,0-8.55-2.84-8.51-8.51.01-1.55.14-3.09.21-4.64h0Z"/>
          <path class="cls-7" d="M143.56,771.6c2.74-.9,5.51-1.35,8.44-1.34,19,.07,37.98.01,56.98.05,6.97.01,9.62,3.99,7.51,10.75-.95,3.03-3.28,2.52-5.37,2.52-22.53-.02-45.05-.1-67.58-.15,0-3.93.02-7.88.02-11.81h0Z"/>
          <path class="cls-21" d="M289.51,417.43c18.15,17.93,37.03,35.07,56.07,52.06.48,4.91.97,9.82,1.45,14.73-1.48,6.04-2.96,12.09-4.46,18.13-3.01.03-3.88-2.51-5.32-4.38-16.74-21.63-33.48-43.26-50.23-64.88-5.42-.92-9.77-4.07-14.2-6.93-17.32-11.17-34.55-22.52-52.09-33.35-2.72-1.67-4.3-4.46-6.89-6.19-.45-.42-.9-.84-1.33-1.26-7.43-6.07-15.79-10.76-23.83-15.91-.52-.44-1.06-.86-1.58-1.3-16.42-10.67-32.83-21.33-49.26-32,3-3.11,4.63-7.58,9.13-9.21,3.18-.33,5.38,1.73,7.8,3.23,17.32,10.74,34.23,22.11,51.67,32.65,25.14,16.57,50.88,32.17,76.1,48.6,2.59,1.7,5.3,3.25,6.96,6.02v-.02Z"/>
          <path class="cls-22" d="M518.64,275.07c-2.62,5.71-4.13,11.96-8.05,17.06-1.31-3.09-2.62-6.19-3.94-9.29,4-2.59,8-5.18,11.99-7.77Z"/>
          <path class="cls-2" d="M213.85,386.61c9.08,4.14,16.99,10.21,25.36,15.5,16.05,10.15,31.89,20.64,47.81,30.98-13.59,3.68-26.83,8.41-39.96,13.48-5.06-12.98-13.53-24.12-19.89-36.41-4.15-8.01-8.86-15.71-13.33-23.55h0Z"/>
          <path class="cls-27" d="M539.98,258.78c-4.81.44-9.62.88-14.42,1.32-.01-.45.03-.88.13-1.31,2.55-11.63,8.33-21.84,14.09-32.06,3.29-3.87,4.81-8.66,6.8-13.21,2.57,5.92-.45,11.43-1.35,17.06-1.52,9.43-3.46,18.81-5.23,28.2h-.01Z"/>
          <path class="cls-18" d="M205.64,364.25c-13.57-7.04-25.93-16.02-38.8-24.16-6.71-4.23-13.94-7.73-19.86-13.17,3.2-4.04,6.41-8.09,9.61-12.13,6.63-5.84,12.55-12.31,17.28-19.81.43-.09.85-.12,1.29-.09,21.28,9.19,42.56,18.38,63.84,27.58,11.56,5,23.1,10.03,34.66,15.04,1.67,3.46-1.26,4.36-3.28,5.12-19.2,7.21-38.35,14.55-57.62,21.56-2.3.84-4.72,1.12-7.1.06h0Z"/>
          <path class="cls-10" d="M539.77,226.74c-2.81,11.51-8.58,21.73-14.09,32.05-.03-.21-.05-.44-.09-.65-2.31-13.65,1.56-24.51,14.18-31.4h0Z"/>
          <path class="cls-27" d="M205.64,364.25c21.63-7.96,43.25-15.94,64.89-23.87,1.49-.54,2.98-.93,3.11-2.87,1.64-.99,1.25-2.76,1.6-4.24,4.06,16.75,6.13,33.85,9.08,50.79,1.93,11.09,3.48,22.24,5.19,33.37-11.21-5.33-21.19-12.71-31.54-19.42-17.42-11.29-35.63-21.33-52.31-33.75h-.02Z"/>
        </g>
      </g>
    </g>
  </g>
</svg>