<?xml version="1.0" encoding="UTF-8"?>
<svg xmlns="http://www.w3.org/2000/svg" version="1.1" viewBox="0 0 636.44 800">
  <defs>
    <style>
      .cls-1 {
        fill: #bbc35a;
      }

      .cls-2 {
        fill: #7a8d5f;
      }

      .cls-3 {
        fill: #866956;
      }

      .cls-4 {
        fill: #788a5c;
      }

      .cls-5 {
        fill: #e2c9b7;
      }

      .cls-6 {
        fill: #856855;
      }

      .cls-7 {
        fill: #e9ec87;
      }

      .cls-8 {
        fill: #bdc25f;
      }

      .cls-9 {
        fill: #607343;
      }

      .cls-10 {
        fill: #adc595;
      }

      .cls-11 {
        fill: #c2bf6c;
      }

      .cls-12 {
        fill: #9da674;
      }

      .cls-13 {
        fill: #798c5d;
      }

      .cls-14 {
        fill: #e9ec88;
      }

      .cls-15 {
        fill: #bc987e;
      }

      .cls-16 {
        fill: #d9bca6;
      }

      .cls-17 {
        fill: #637645;
      }

      .cls-18 {
        fill: #bc977e;
      }

      .cls-19 {
        fill: #637646;
      }

      .cls-20 {
        fill: #6aac8c;
      }

      .cls-21 {
        fill: #6aab8c;
      }

      .cls-22 {
        fill: #538b70;
      }

      .cls-23 {
        fill: #a2be76;
      }

      .cls-24 {
        fill: #bcc35c;
      }

      .cls-25 {
        fill: #8b6d5a;
      }

      .cls-26 {
        fill: #b1bb61;
      }

      .cls-27 {
        fill: #afbf90;
      }

      .cls-28 {
        fill: #627443;
      }

      .cls-29 {
        fill: #47765f;
      }

      .cls-30 {
        fill: #788b5d;
      }

      .cls-31 {
        fill: #bc987f;
      }

      .cls-32 {
        fill: #dbdf6a;
      }

      .cls-33 {
        fill: #2e2d2d;
      }

      .cls-34 {
        fill: #f9fbf8;
      }

      .cls-35 {
        fill: #647747;
      }

      .cls-36 {
        fill: #dbdf6b;
      }

      .cls-37 {
        fill: #46765f;
      }

      .cls-38 {
        fill: #538c70;
      }

      .cls-39 {
        fill: #2d2d2c;
      }

      .cls-40 {
        fill: #8db6a3;
      }

      .cls-41 {
        fill: #b7c37a;
      }

      .cls-42 {
        fill: #c7d6cf;
      }

      .cls-43 {
        fill: #abc392;
      }

      .cls-44 {
        fill: #a0b38e;
      }

      .cls-45 {
        fill: #a1be76;
      }

      .cls-46 {
        fill: #b0ba62;
      }

      .cls-47 {
        fill: #b0ba5e;
      }

      .cls-48 {
        fill: #6aab8b;
      }

      .cls-49 {
        fill: #a1be75;
      }

      .cls-50 {
        fill: #617344;
      }

      .cls-51 {
        fill: #788b5c;
      }

      .cls-52 {
        fill: #9fb28e;
      }

      .cls-53 {
        fill: #6aac8b;
      }

      .cls-54 {
        fill: #856754;
      }
    </style>
  </defs>
  <!-- Generator: Adobe Illustrator 28.7.1, SVG Export Plug-In . SVG Version: 1.2.0 Build 142)  -->
  <g>
    <g id="Layer_1">
      <g id="Layer_1-2" data-name="Layer_1">
        <g>
          <path class="cls-16" d="M437.13,64.27c.83,2.2,1.66,4.41,2.5,6.61,4.48,18.73,11.11,36.82,16.68,55.21,8.78,29,17.94,57.87,27.25,86.7,1.48,4.59-.45,5.65-3.89,7.01-22.2,8.79-44.36,17.69-66.52,26.55-11.25,6.83-23.15,11.83-36.45,12.86-3.26-1.94-3.61-5.42-4.36-8.58-11.76-50.55-25.03-100.73-35.83-151.51-.83-3.87-2.14-7.64-2.7-11.57-.04-.69.09-1.34.38-1.97,3.36-2.79,6.21-.11,9.08,1.01,9.92,3.85,9.07,5.3,13.95-5.14,1.38-2.95,2.54-6.2,6.41-6.86,4-.2,7.3,1.85,10.46,3.75,4.88,2.94,7.61,1.57,9.63-3.42,1.23-3.05,2.57-6.14,4.74-8.72,4.68-3.46,8.29.27,12.04,2,7.95,3.67,7.79,3.78,11.4-4.15,1.58-3.48,2.44-7.66,6.84-9.11,6.99,1.41,13.5,3.78,18.39,9.31h0Z"/>
          <path class="cls-22" d="M258.6,581.37c4.56-1.44,2-3.7.62-5.74-7.94-11.83-15.94-23.62-23.82-35.49-1.27-1.91-3.43-3.56-2.83-6.36,3.65-2.66,7.82-3.94,12.14-5,41.83-10.28,83.92-19.43,125.75-29.73,3.02-.74,6.09-1.18,9.14-1.42,2.64-.2,5.66.03,4.42,4.25-9.5,32.62-18.96,65.24-28.51,97.85-7.31,24.98-14.72,49.95-22.13,74.91-.68,2.3-1.65,4.52-2.47,6.78-4.4.45-5.24-3.5-6.92-5.99-17.86-26.64-35.72-53.3-53.74-79.84-3.46-5.1-6.67-10.39-11.66-14.22h.01Z"/>
          <path class="cls-36" d="M232.44,338.14c-15.41-8.14-30.67-16.56-46.3-24.26-5.86-2.88-6.04-5.18-2.42-10.12,9.14-12.44,17.7-25.31,26.73-37.85,2.89-4.02,4.79-8.29,5.72-13.08,8.35-9.4,15.18-19.95,22.37-30.19,26.96-38.4,54.5-76.37,81.57-114.68,1.38-1.95,2.66-6.58,6.73-2.58,1.26,2.97,1.3,6.12.84,9.16-1.68,11.13-1.41,22.51-4.37,33.46-6.55,17.18-14.91,33.56-22.75,50.14-19.67,41.63-38.48,83.66-58,125.35-2.42,5.16-4.23,10.78-9.11,14.41-.33.09-.66.16-.99.24h-.02Z"/>
          <path class="cls-37" d="M258.6,581.37c4.21-.45,6.22,2.28,8.27,5.35,20.08,30.06,40.22,60.07,60.38,90.08,1.1,1.63,2.45,3.09,3.68,4.64-1.84,12.76-7.07,24.63-9.73,37.18-.74.67-1.6.96-2.59.8-7.46-4.51-14.13-9.83-18.09-17.9-33.8-30.69-67.62-61.37-101.42-92.05-7.55-3.87-14.85-7.98-17.37-16.99,13.9-3.46,28.22-4.08,42.28-6.47,11.45-1.96,23.06-3.1,34.59-4.6h.01Z"/>
          <path class="cls-36" d="M239.27,85.54c4.24-9.01,7.67-18.34,10.52-27.88,3.37-5.52,4.89-11.79,7.14-17.76,1.37-3.6,3.18-5.95,6.97-7.16,8.16-2.61,16.22-5.59,24.31-8.41,14.81-4.41,29.58-8.93,43.91-14.75,6.95-5.92,15.76-6.88,24.1-9.01,1.29-.33,2.53.45,3.45,1.48,4.59,10.46,9.05,20.98,11.41,32.24-.05,2.28-.95,4.28-2.24,6.08-5.36,7.49-10.45,15.14-15.41,22.9-1.17,1.84-2.62,3.53-4.7,4.47-4.42.66-5.73,4.31-7.54,7.61-1.96,3.57-2.75,8.17-7.65,9.39-4.28-.47-7.79-2.9-11.38-4.92-3.69-2.07-5.89-1.71-7.69,2.33-1.59,3.58-3.05,7.29-5.58,10.4-4.7,3.45-8.32-.3-12.07-2.03-7.32-3.38-7.15-3.48-10.96,3.78-1.79,3.4-2.57,7.64-6.82,9.26-4.47.15-7.93-2.53-11.58-4.42-4.42-2.28-6.93-1.12-8.72,3.32-1.55,3.82-2.46,8.14-6.58,10.37-7.64-.53-13.84-4.14-19.45-9.06,2.17-6.09,4.36-12.18,6.53-18.26h.02Z"/>
          <path class="cls-42" d="M310.82,754.49c48.35,8.13,96.69,16.26,146.48,24.64-6.15,3.38-11.65,2.16-16.63,2.84-15.49,2.11-31.14,2.97-46.71,4.48-16.22,1.57-32.41,3.42-48.62,5-15.79,1.53-31.61,2.81-47.4,4.3-12.06,1.14-24.08,2.61-36.15,3.61-9.82.81-19.17-2.55-28.7-4.12-32.83-5.43-65.61-11.14-98.39-16.84-8.15-1.42-16.47-2.1-26.16-5.09,24.5-2.41,47.29-4.48,70.04-6.94,22.33-2.4,44.6-5.29,66.93-7.74,10.95-1.2,21.95-1.96,32.93-2.79,2.73-.2,5.28-.53,7.21-2.72,3.5-.13,4.1,2.89,5.25,5.07,3.19,6.02,6.11,12.18,9.26,18.22.98,1.87,1.43,4.29,4.07,4.8,7.89.76,15.77.57,24.31-.12-6.54-6.08-14.67-9.16-20.4-15.36-2.18-4.48-2.22-8.45,2.69-11.24h0Z"/>
          <path class="cls-1" d="M325.45,104.04c-15.52,21.72-31.08,43.39-46.54,65.13-19.69,27.69-39.28,55.44-58.99,83.12-.74,1.04-1.93,4.73-3.75.53,2.22-36.34,4.4-72.7,6.66-109.04.44-7.03-.41-14.18,1.53-21.1,5.16-1.6,8.68,2.2,12.62,4.16,3.87,1.91,5.67,1.25,7.72-2.51,2.22-4.04,2.13-9.72,7.56-11.69,6.7.24,11.66,4.42,17.39,6.88,2.9-4.79,4.27-11.25,8.95-15.86,2.7-1.19,5.08-.09,7.5,1.01,7.34,3.34,13.04,1.37,17.1-5.9,1.17-2.11,2.24-4.3,4.83-5.04,6.61,1.26,12.53,3.96,17.64,8.38.26.68.18,1.31-.22,1.91v.02Z"/>
          <path class="cls-9" d="M277.42,451.3c-5.38-10.91-8.78-22.61-13.39-33.81-1.08-2.61-1.53-5.57-3.73-7.65-1.93-1.59-3.15-3.65-4-5.96-6.97-18.8-14.52-37.37-21.45-56.19-1.04-2.85-3.43-6.02-.15-9.1,2.01-.77,3.96-.26,5.78.54,18.95,8.37,38.22,16,56.81,25.18,1.17.58,2.24,1.41,3.29,2.2,8.85,11.1,15.71,23.54,23.67,35.26,10.34,15.2,20.38,30.59,30.22,46.11,3.75,5.92,3.25,7.2-2.99,9.58-18.75-.42-37.47-1.22-56.09-3.27-5.99-.66-12.53,1.36-17.96-2.91v.02Z"/>
          <path class="cls-36" d="M378.24,308.73c9.31,17.55,18.63,35.11,27.92,52.68,3.81,7.2,3.78,7.24-4.17,7.35-5.53.08-11.05.05-16.57.14-2.15.03-4.53-.39-5.92,2-12.68,1.01-25.36,2.25-38.12,1.62-2.65-.13-5.3-.3-7.37-2.33-1.91-2.69-1.89-5.81-1.89-8.89-.04-22.48.01-44.95-.05-67.43-.01-5.04,2.08-9.98.61-15.06,1.39-9.37.51-18.84,1.18-28.24-.41-4.57-.76-9.14.83-13.58,4.59-4.12,5.69.86,7.03,3.15,5.37,9.15,10.46,18.46,15.6,27.75,6.93,11.26,12.76,23.15,19.4,34.56,1.15,1.98,1.68,4.04,1.51,6.3h.01Z"/>
          <path class="cls-4" d="M334.7,369.85c10.74.05,21.48.44,32.23-.57,4.15-.4,8.78-1.82,12.57,1.61.67,17.39,1.32,34.79,1.99,52.2,2.74,4.44.98,9.78,2.86,14.39.28,1.13.39,2.28.27,3.44-.13,4.19-.02,8.4-.05,12.59.06,4.47-.45,9,1.12,13.36.18.75.24,1.51.19,2.28.11,6.08-.2,12.15.23,18.22.38,2.82,1.24,5.65-.09,8.44-3.69,2.73-5.15-.71-6.65-2.74-4.31-5.86-8.26-11.98-12.02-18.22-4.16-6.9-8.8-13.47-14.1-19.54,4.92-1.66.98-3.88.06-5.3-9.7-15.05-19.65-29.93-29.38-44.96-8.03-12.39-15.87-24.91-23.8-37.37.24-.33.46-.66.7-.99,11.57-2.07,22.91-1.52,33.86,3.16h.01Z"/>
          <path class="cls-45" d="M383.94,468.5c-.06-.42-.08-.83-.04-1.25-1.38-4.25-.28-8.6-.62-12.9-.35-4.57.74-9.22-.63-13.75-.02-.87-.05-1.73-.08-2.6-.29-4.36-2.42-8.88,1.24-12.86,28.4-8.11,56.81-16.23,85.23-24.34,5.85,4.28,10.3,9.44,10.69,17.13-31.44,26.65-62.88,53.31-94.3,79.97-.2-.13-.41-.27-.6-.4-.18-.51-.04-.89.43-1.16-.37-2.68-.73-5.36-1.1-8.03.68-6.6.96-13.21-.2-19.8h0Z"/>
          <path class="cls-48" d="M384.04,501.87c-.86-3.66-3.3-2.61-5.74-2.04-27.94,6.54-55.9,13.05-83.85,19.55-20.63,4.8-41.26,9.59-61.88,14.38,14.21-18.52,28.42-37.06,42.64-55.57,2.55-3.32,5.23-6.55,7.85-9.82,2.82-2.48,5.88-1.28,8.8-.41,28.18,8.44,56.44,16.58,84.61,25.09,3.23.97,6.06,2.68,8.71,4.69,0,0,.22.14.22.15-.13,1.44-.19,2.9-1.38,3.98h.01Z"/>
          <path class="cls-4" d="M235.12,339.33c1.37,11.03,7.2,20.52,10.66,30.82,4.48,13.35,10.77,26.05,14.52,39.68-8.8,2.34-17.61,4.68-26.4,7.02-1.42,1.41-2.81,2.88-4.76,3.48-11.41,3.53-22.99,6.41-34.58,9.26-1.74.43-3.53.35-4.99-.99,9.28-21.77,20.36-42.69,30.43-64.08,4.14-8.8,8.3-17.58,12.44-26.38h.23c1.48-1,2.3-.61,2.45,1.17h.01Z"/>
          <path class="cls-45" d="M385.2,497.75c-31.69-9.31-63.36-18.64-95.06-27.91-2.3-.68-4.71-.98-7.08-1.46-1.88-5.69-3.76-11.39-5.65-17.08,20.73-.15,41.29,2.59,61.96,3.41,4.62.18,9.25.41,13.87.6,3.7,1.16,6.25,3.44,8.35,6.82,6.2,9.95,12.78,19.65,19.18,29.46,1.2,1.86,2.22,3.86,4.45,4.73-.01.47-.02.95-.04,1.42h.01Z"/>
          <path class="cls-16" d="M185.9,619.95c-7.25,8.8-16.86,15-25.02,22.81-2.1,2-3.29,3.88-3.16,6.69-4.35,1.69-7.06,5.59-10.84,8.04-1.91,1.24-3.42,3.47-6.23,2.58,2.82-16.29,5.61-32.6,8.48-48.88,1.37-7.82,2.95-15.61,4.24-23.44.58-3.53,1.7-5.06,5.56-3.5,7.16,2.9,14.47,5.46,21.7,8.17,4.58,6.35,5.15,13.97,6.78,21.26.51,2.29-.2,4.37-1.48,6.27l-.02-.02Z"/>
          <path class="cls-16" d="M310.82,754.49c-1.13,3.43-3.9,6.65-1.33,10.54-2.03,6.24-2.57,13.01-6.57,18.56-4.55-2.97-5.25-8.35-7.72-12.59-3.4-5.83-6.39-11.91-9.54-17.88-3.81-7.94-7.47-15.96-11.51-23.78-1.6-3.11-1.43-4.93,1.53-7.07,6.94-5.02,13.62-10.42,20.39-15.66,8.08,2.89,15.26,7.53,22.67,11.73.83.08,1.65.15,2.47.23-3.46,11.97-6.92,23.94-10.38,35.91h-.01Z"/>
          <path class="cls-45" d="M189.56,428.61c14.78-3.91,29.57-7.84,44.34-11.76-6.27,25.9-12.53,51.8-18.81,77.69-.61,2.53-.76,5.25-2.65,7.32-2.6.38-3.61-1.57-4.14-3.39-3.71-12.56-9.54-24.55-10.2-37.93-2.5-8.36-5.02-16.7-7.46-25.07-.65-2.23-1.9-4.4-1.09-6.87h0Z"/>
          <path class="cls-54" d="M378.24,308.73c-7.42-13.24-14.84-26.49-22.26-39.73-.63-2.44.9-3.88,2.67-4.76,5.89-2.94,11.8-6,18.69-5.76,11.93-4.03,23.87-8.08,35.79-12.11-11.64,20.79-23.26,41.58-34.9,62.37h.01Z"/>
          <path class="cls-1" d="M511.42,356.74c-13.56,1.52-27.12,3.03-40.69,4.56-1.75.19-3.48.55-5.24.66-7.7.47-7.77.37-4.96-6.73,3.09-7.79,6.25-15.55,9.14-23.4,1.34-3.65,2.83-4.75,6.75-2.88,11.54,5.47,23.29,10.53,34.94,15.75,2.82,1.69,1.82,4.74,2.57,7.17.1.67.08,1.32-.05,1.99-.39,1.34-1.06,2.43-2.47,2.9h0Z"/>
          <path class="cls-1" d="M542.26,347.63c17.83-1.72,35.27-5.87,52.89-8.85,4.87-.83,7.1-.86,5.65,5.07-1.42,5.78-2.18,11.72-3.02,17.63-.68,4.76-2.38,6.85-7.81,5.45-15.82-4.08-31.77-7.65-47.68-11.41-.98-.1-1.63-.63-2.09-1.48-.18-.58-.26-1.17-.24-1.77.4-1.72.45-3.61,2.29-4.62h0Z"/>
          <path class="cls-21" d="M204.59,48.26c1.09.53,4.42-1.59,2.74,2.17-1.26,2.81-2.9,5.45-4.38,8.16-8.51,13.96-17.03,27.91-26.31,43.14-4.8-13.62-9.23-26.18-13.65-38.75-.35-.34-.48-.69-.39-1.05.11-.37.22-.55.32-.55,12.52-5.15,25.82-7.77,38.64-11.95,1.02-.33,2-.77,3.01-1.17Z"/>
          <path class="cls-38" d="M125.99,57.45c8.58-14.28,17.15-28.57,25.89-43.11,2.01,2.07,1.67,4.79,2.33,7.13,2.59,13.34,5.19,26.67,7.79,40.01-.49.48-1.05.59-1.69.31-13.01,2.31-26.04,4.61-39.86,7.07,2.16-4.45,3.84-7.93,5.53-11.41h.01Z"/>
          <path class="cls-1" d="M532.57,337.95c6.56-12.29,14.99-23.39,22.4-35.13,1.27-2.01,2.3-2.87,4.68-1.38,9.09,5.73,18.28,11.29,28.48,17.57-15.95,8.18-30.84,15.81-45.71,23.44-3.19-1.7-7.26-1.51-9.85-4.51Z"/>
          <path class="cls-1" d="M542.37,360.6c15.78,6.94,31.53,13.93,47.36,20.76,3.74,1.61,2.66,3.11.55,5.15-5.56,5.4-11.2,10.73-16.52,16.35-2.87,3.03-4.47,2.17-6.61-.73-8.25-11.23-16.67-22.34-25.03-33.49-2.17-2.75-2.54-5.44.25-8.03h.01Z"/>
          <path class="cls-1" d="M524.65,410.15c-3.42-.16-6.84-.32-10.26-.48-.79-1.18-.89-2.52-.62-3.83,2.51-12.33,4.38-24.8,8.56-36.74.82-1.29,1.99-2.09,3.41-2.56.69-.2,1.4-.27,2.11-.23,2.55.8,5.73-.25,7.58,2.58,3.46,12.57,9.58,24.12,13.91,36.36.57,1.61,1.82,3.05,1.37,4.94h-18.99c-2.37,1.76-4.72,1.73-7.08-.02l.02-.02Z"/>
          <path class="cls-21" d="M67.41,351.44c-5.56,3.67-7.79,9.95-11.64,14.94-2.52,3.26-4.8,6.69-8.18,11.47-4.36-21.87-8.37-42.06-12.39-62.25.45-.33.89-.66,1.34-.99,10.84,9.71,21.67,19.42,32.51,29.13,3.93,3.52,2.03,5.8-1.65,7.7h0Z"/>
          <path class="cls-38" d="M71.29,343.6c5.87-13.2,11.76-26.39,17.63-39.59.45.06.91.12,1.37.18,4.39,19.71,8.78,39.43,13.18,59.14.77,1.68.79,2.95-1.57,2.96-7.08-4.86-14.13-9.76-21.24-14.57-1.95-1.32-3.67-3.31-6.44-2.81-1.76-.11-2.71-1.18-3.24-2.75-.23-.89-.33-1.76.31-2.56h.01Z"/>
          <path class="cls-1" d="M511.79,338.22c-6.95-7.11-13.89-14.24-20.84-21.33-2.15-2.19-2.2-3.54,1.15-4.42,11.54-3.04,23.05-6.21,34.55-9.37,4.76-1.31,3.28,2.14,3.11,4.19-.86,10.35-2.52,20.63-2.2,31.06.35.74.17,1.3-.55,1.7-.67.25-1.36.32-2.05.25-4.41-.48-9.22,1.45-13.14-2.08h-.01Z"/>
          <path class="cls-1" d="M482.32,387.1c-5.16-4.33-10.34-8.67-16.62-13.95,16.03-3.56,30.81-6.84,45.59-10.12,2.48,1.66,4.6,3.81,7.21,5.31,1.39,2.31.16,4.23-.98,6.1-4.46,7.3-9.09,14.51-13.45,21.87-2.42,4.09-5.42,5.03-9.14,2-4.36-3.55-9.94-5.76-12.61-11.22h0Z"/>
          <path class="cls-38" d="M549.99,57.54c1.87-14.15,3.73-28.32,5.6-42.47,1.04-.62,1.36-4.36,3.37-.83,8.77,15.35,17.62,30.64,26.21,46.09,2.62,4.73-1.43,3.99-3.83,3.59-9.12-1.55-18.21-3.33-27.31-5.02-1.83,1-3.45,1.37-4.04-1.34h0Z"/>
          <path class="cls-20" d="M510.31,39.97c12.87,5.98,25.74,11.97,38.61,17.95.63.85,1.11,1.76,1.31,2.81-2.14,8.62-3.94,17.36-9.62,24.6-2.19,2.51-1.67,6.37-4.3,8.73-3.11-2.79-3.7-6.97-6.08-10.08-3.33-.88-3.61-4.14-5.03-6.5-4.66-7.73-8.51-15.9-12.57-23.93-1.5-2.95-2.85-5.94-2.42-9.39.54-1.39-2.01-2.84.09-4.19h.01Z"/>
          <path class="cls-16" d="M198.11,460.55c3.86,11.84,7.75,23.67,11.53,35.55.67,2.1.97,4.28,2.81,5.76.23,2.79-1.26,3.86-3.86,4.15-5.84.66-11.67,1.45-17.51,2.19-3.1-3.96-7.34-6.65-11-9.97-1.68-1.52-4.16-2.61-3.62-5.6.82-.28,2-.31,2.4-.89,6.99-10.03,14.42-19.81,19.26-31.19h0Z"/>
          <path class="cls-15" d="M176.45,492.63c3.69,2.99,7.57,5.79,10.99,9.06,1.74,1.67,5.63,2.61,3.64,6.53-2.85.32-5.75.38-8.54,1-10.2,2.28-19.5.79-27.93-5.71-2.05-1.58-3.97-2.73-3.16-5.75,1.82-6.75,3.55-13.53,5.51-21.04,6.93,5.65,13.21,10.78,19.5,15.91h0Z"/>
          <path class="cls-54" d="M482.32,387.1c5.4,2.57,9.69,6.73,14.48,10.19,1.81,1.31,3.02,2.4,4.6-.32,5.51-9.44,11.17-18.79,16.78-28.18,1.84-1.7,3.68-1.71,5.51.02-2.8,13.68-5.11,27.48-9.29,40.85-.45.06-.89.13-1.34.18-3.78.13-7.22-1-10.64-2.53-6.98-3.12-14.04-6.1-21.08-9.08-2.19-.92-4.54-1.75-5.5-4.3,1.48-2.93,4.02-4.85,6.5-6.84h-.01Z"/>
          <path class="cls-16" d="M475.82,393.94c12.4,5.3,24.81,10.6,37.21,15.9-10.81,3.93-22.3,5.1-33.33,8.09-3.56-5.71-7.13-11.42-10.69-17.13,1.74-2.81,4-5.1,6.81-6.85Z"/>
          <path class="cls-53" d="M252.33,113.24c-2.17,4.28-4.66,8.42-6.41,12.86-1.86,4.68-4.07,6.03-8.68,3.14-4.07-2.55-8.57-4.39-12.88-6.55,1.66-6.81,5.96-12.43,8.39-18.89,7.03,1.42,12.56,6.41,19.46,8.16.32.25.45.52.39.82-.08.3-.15.45-.25.45h-.01Z"/>
          <path class="cls-23" d="M160.31,61.79c.56-.11,1.13-.2,1.69-.31.3-.12.61-.15.94-.11.02.54.04,1.06.05,1.6-2.25,6.44-.82,13.09-1.04,19.64-.29,8.07-.06,16.14-.06,25.44-5.04-3.91-7.61-8.04-10.03-12.08-3.01-5.06-6.77-8.46-12.78-8.95,7.66-2.77,10.74-9.7,14.46-16.03,1.9-3.25,4.51-5.88,7.01-8.63l-.24-.57h.01Z"/>
          <path class="cls-23" d="M548.96,60.24c-.01-.77-.02-1.54-.03-2.31.34-.16.7-.3,1.08-.4,1.03,1.39,2.66,1.01,4.04,1.34-.11.45-.2.9-.31,1.37,3.68,8.53,9.55,15.79,13.81,23.98-6.79,4.41-11.24,11.45-18.8,16.91v-15.78c-3.47-4.51-2.56-9.43-1.29-14.34.92-3.55,2.09-7.03,1.52-10.78h-.01Z"/>
          <path class="cls-51" d="M71.59,346.11c.88.92,1.75,1.86,2.64,2.79,7.88,9.91,15.77,19.8,24.93,31.31-8.83-1.84-15.66-3.27-22.49-4.69-.57-.33-1.38-.56-1.6-1.11-3.75-9.1-7.31-18.25-3.48-28.29h.01Z"/>
          <path class="cls-13" d="M160.54,62.37c-3.14,7.61-8.26,14.1-12.1,21.31-2.23,4.18-6.15,2.53-9.38,3.34-5.38-.51-10.87.08-17.54-1.88,13.72-8.01,26.37-15.39,39.02-22.77Z"/>
          <path class="cls-23" d="M71.59,346.11c.39,10.02,2.4,19.77,5.09,29.41-5.76,3.56-11.54,7.13-18.38,11.36,1.45-13.19,8.09-23.62,9.11-35.44.95-2.48,3.53-4.61,1.63-7.7.75-.04,1.51-.1,2.25-.14.1.84.19,1.68.3,2.52h0Z"/>
          <path class="cls-30" d="M567.52,84.22c-5.23-1.18-5.52-6.52-8.11-9.88-2.55-3.3-4.33-7.18-6.52-10.78-.89-1.47-1.77-2.79.82-3.32,10.51,5.88,21.01,11.76,32.34,18.1-6.41,3.19-12.58,4.21-18.53,5.88h0Z"/>
          <path class="cls-15" d="M140.65,660.07c4.01-3.37,8.06-6.69,12.01-10.11,1.63-1.41,3.02-3.65,5.06-.52,1.51,9.3,3.01,18.61,4.52,27.91-7.84-5.44-16.21-9.56-21.59-17.28Z"/>
          <path class="cls-2" d="M531.3,422c.08,7.07.11,14.13.24,21.2.04,2.48-.27,4.23-3.47,4.27-3.26.04-4.28-1.33-4.16-4.37.4-10.58.7-21.18,1.03-31.77,4.11-1.69,6.29-.79,5.97,4.13-.14,2.16-.42,4.4.39,6.54h.01Z"/>
          <path class="cls-6" d="M185.9,619.95c-1.76-9.17-3.52-18.35-5.28-27.53.37-.12.74-.11,1.11.02,4.73,6.74,12.06,10.84,17.36,16.99-4.35,3.56-7.77,8.29-13.19,10.51h0Z"/>
          <path class="cls-34" d="M548.96,60.24c2.13,8.39-.62,16.74-.23,25.11-2.7,0-5.4,0-8.1-.01,2.77-8.37,5.55-16.74,8.32-25.1h0Z"/>
          <path class="cls-17" d="M535.45,368.88c-2.52-.69-5.43.92-7.68-1.33,2.51-6.32,6.86-10.8,13.27-13.2.42.39.84.77,1.25,1.16.02,1.7.04,3.39.08,5.09-.09,2.68-.17,5.36-.25,8.03-2.23.09-4.44.16-6.67.25h0Z"/>
          <path class="cls-28" d="M523.69,368.82c-1.84,0-3.67-.02-5.51-.02-4.36.55-7.34-.55-6.89-5.75.04-2.1.09-4.19.13-6.29.43-.79.86-1.58,1.29-2.37,6.45,2.33,10.71,6.89,13.33,13.13-.43,1.08-1.42,1.14-2.34,1.3h0Z"/>
          <path class="cls-35" d="M527.67,339.35c0-.33-.03-.67-.12-1,1.68-.13,3.34-.27,5.02-.4,3.25,1.58,9.13-2.61,9.85,4.5-.05,1.72-.11,3.44-.16,5.17-.46,1.69.56,3.78-1.38,5.07-6.13-2.74-10.65-7.09-13.22-13.35h0Z"/>
          <path class="cls-19" d="M511.79,338.22c4.75.68,9.72-1.24,14.34,1.16-2.66,6.2-7.1,10.6-13.26,13.28-2.45-2.3-.69-5.39-1.48-7.99.14-2.15.27-4.3.41-6.45Z"/>
          <path class="cls-3" d="M318.72,718.36c-7.55-1.85-14.14-5.95-21.16-9.05-1.18-.52-1.44-1.55-1.51-2.69,1.48-1.71,2.97-3.43,4.45-5.14,6.08,5.63,12.14,11.25,18.21,16.88Z"/>
          <path class="cls-27" d="M531.3,422c-1.3-1.72-1.1-3.76-.95-5.67.32-4.12-1.54-5.57-5.41-4.99-.12-.39-.22-.79-.29-1.18,2.36,0,4.71.02,7.08.02-.14,3.95-.28,7.88-.43,11.83h0Z"/>
          <path class="cls-52" d="M383.8,425.13c-2.24,4.11-.75,8.58-1.24,12.86-2.31-4.83-1.11-9.92-1.08-14.92.77.69,1.54,1.37,2.31,2.05Z"/>
          <path class="cls-40" d="M101.89,366.29c1.22-.61,1.29-1.84,1.57-2.96,1,1.19,1.9,2.69.8,3.98-.86,1-1.81-.08-2.37-1.02Z"/>
          <path class="cls-14" d="M358.79,2.72c17.54,8.66,35.08,17.32,52.63,25.95,2.37,1.16,4.76,2.24,7.15,3.36,3.04,1.6,6.09,3.22,9.14,4.82-1.13,7.04-4.51,12.97-9.06,18.33-4.6,1.65-7.92-1.59-11.63-3.18-2.61-1.12-5.15-2.42-7.74-3.59-7.56-3.09-15.32-5.64-22.9-8.66-2.7-1.08-5.26-2.3-6.98-4.79-2.08-8.72-5.8-16.88-8.69-25.32-.77-2.26-1.3-4.6-1.94-6.9h.01Z"/>
          <path class="cls-29" d="M418.38,54.72c2.89-6.07,5.07-12.52,9.32-17.88,5.88,2.97,14.97,4.67,16.79,9.26,2.07,5.22-4.46,12.07-7.38,18.17-6.18-2.79-12.37-5.58-18.55-8.37-.51-.19-.7-.43-.59-.72.12-.31.26-.47.4-.47h.01Z"/>
          <path class="cls-18" d="M377.35,258.47c-5.24,2.14-10.5,4.21-15.68,6.44-2.15.92-4.66,1.52-5.68,4.08-5.26-9.2-10.52-18.39-15.78-27.59-1.19-2.09-1.85-4.55-4.14-5.87-4.28-4.17-1.52-9.48-2.3-14.21-.14-8-.59-16-.75-24.02,1.52-8.67,1.94-17.34-.14-26-1.53-10.08-.48-20.2-.54-30.31-.55-14.57-.31-29.16-.11-43.73.04-3.57-.41-7.61,2.65-10.58,5.98,19.14,9.65,38.87,14.42,58.3,9,36.6,17.72,73.28,26.53,109.93.31,1.29.4,2.64,1.53,3.55h-.01Z"/>
          <path class="cls-15" d="M374.56,134.32c-5.52-2.16-11.78-.88-17.15-3.69,4.8-7.84,13.05-11.56,20.05-16.78,2.46-1.83,5.53-2.72,7.85-4.81,1.98-1.68,4.01-2.91,6.49-.88,3.03,1.63,3.8,4.79,4.73,7.64,4.41,13.37,9.38,26.54,13.9,39.88.75,2.23,2.03,4.52.23,6.87-5.89-2.01-7.72-8.14-11.97-11.82-5.28-4.58-7.63-12.07-14.71-14.87-3.4,1.1-6.56.8-9.4-1.53h0Z"/>
          <path class="cls-18" d="M401.06,105.36c.51-.47,1-.94,1.51-1.41,3.55-1.8,7.57-2.11,11.24-3.57,6.07-1,11.78-3.5,17.9-4.27,2.81-.35,5.7-1.15,8.1,1.24-2.11,6.21-5.84,11.53-9.23,17.04-3.23,3.97-4.57,8.69-5.49,13.59-5.67,3.26-6.02,10.37-10.49,14.5-4.96-4.48-14.7-31.22-13.52-37.11h-.02Z"/>
          <path class="cls-5" d="M401.06,105.36c4.51,12.37,9.01,24.74,13.52,37.11,1.86,7.21,6.43,13.57,6.57,21.31-1.72,3.65-4.61,3.89-7.99,2.75-.84-1.32-1.69-2.66-2.53-3.98-6.28-18.13-12.56-36.26-18.85-54.39,2.02-4.46,5.81-3.12,9.27-2.81h.01Z"/>
          <path class="cls-7" d="M334.87,86.67c-.03,18.13-.06,36.27-.1,54.4-2.77,4.39-6.83,7.04-11.69,8.6-.66-.01-1.18-.29-1.57-.83,1.23-14.95,4.09-29.75,3.95-44.81.02-.43.03-.86.03-1.29.68-6.71,3.11-12.66,7.65-17.69.73-.29,1.27-.08,1.61.62,0,.33.03.67.12.99Z"/>
          <path class="cls-21" d="M418.38,54.72c.13.39.18.79.18,1.18-3.55,4.28-5.03,9.63-7.24,14.57-1.55,3.47-3.16,3.64-6.52,2.18-5.02-2.17-9.15-6.87-15.38-5.89-.91-.69-1.13-1.63-1.04-2.7,1.65-4.35,3.97-8.39,5.73-12.68,1.01-2.45,2.36-4.87,5.63-4.88,6.21,2.73,12.41,5.47,18.62,8.21h.02Z"/>
          <path class="cls-29" d="M389.34,64.17c.03.86.06,1.73.1,2.59-2.79,5.57-3.74,14.3-9.07,15.67-4.58,1.17-10.86-4.28-16.39-6.8-1.11-.3-1.87-.97-2.19-2.1.26-6.21,4.01-10.94,6.84-16.04,1.01-1.82,2.89-3.12,4.93-2.55,6.02,1.68,12.24,3.24,15.79,9.23h0Z"/>
          <path class="cls-48" d="M362.66,73.54c.44.7.88,1.4,1.32,2.1-5.04,2.97-5.51,8.75-7.84,13.29-1.82,3.55-3.11,4.43-6.88,2.64-4.69-2.24-9.12-5.3-14.5-5.88-.33-.11-.67-.17-1.02-.22-.41-.35-.54-.71-.38-1.04.15-.32.3-.49.45-.49,3.86-4,5.43-9.3,7.77-14.13,1.53-3.14,3.28-4.23,6.47-2.88,5.66.46,10.55,2.61,14.62,6.6v.02Z"/>
          <path class="cls-45" d="M450.27,182.64c2.44,1.9.12,2.98-.82,4.15-5.39,6.71-10.92,13.3-16.22,20.09-2.72,3.48-5.54,4.96-10.16,3.53-9.45-2.93-19.08-5.29-28.63-7.88.3-1.12,1.06-1.74,2.14-2.02,7.96-1.68,16.12-1.46,24.16-2.62,4.26-.62,8.11-1.96,11.42-4.61,5.53-4.43,11.72-7.67,18.11-10.62h0Z"/>
          <path class="cls-50" d="M450.27,182.64c-7.06,6.31-14.73,11.99-23.05,16.22-5.49,2.79-12.41,2.19-18.79,2.2-4.18.01-8.37.12-12.55.18-1.29.33-1.62-.18-1.2-1.36,3.67-.72,7.67-.75,10.71-3.04,13.34-9.99,29.59-10.53,44.87-14.21h.01Z"/>
          <path class="cls-33" d="M374.56,134.32c3.36-.86,6.52-.52,9.4,1.53,1.39,2.48,2.97,4.92,1.96,8-1.14,3.44-3.43,5.7-7.07,6-3.61.3-6.56-1.33-7.89-4.72-1.75-4.43-.44-8.15,3.61-10.8h-.01Z"/>
          <path class="cls-39" d="M425.07,127.96c-3.04-7.55-1.99-10.17,5.49-13.59,4.43.4,7.58,2.48,8.49,7.02.69,3.43-.97,6.02-3.72,7.88-3.75,2.55-7.12,1.36-10.26-1.31h.01Z"/>
          <path class="cls-24" d="M385.3,109.05c-8.24,8.57-18.62,14.36-27.9,21.59-.81-6.5.75-11.1,7.86-13.53,6.78-2.31,12.93-6.39,20.04-8.06h0Z"/>
          <path class="cls-8" d="M439.79,97.34c-8.86,1.34-17.71,2.69-26.58,4.03-1.4.55-1.61-.13-1.32-1.3,6.97-2.59,13.97-5.12,20.91-7.79,5.06-1.95,7.27-.25,6.98,5.06h.01Z"/>
          <path class="cls-25" d="M413.17,166.52c2.67-.91,5.32-1.84,7.99-2.75.81,3.11.76,7.41-1.66,8.25-2.68.94-4.73-2.91-6.33-5.49h0Z"/>
          <path class="cls-11" d="M411.9,100.08c.44.43.88.87,1.32,1.3-3.3,1.88-7.04,1.96-10.66,2.57,2.61-2.5,6-3.11,9.34-3.87Z"/>
          <path class="cls-12" d="M394.69,199.9c.4.45.81.9,1.2,1.36-.48.43-.97.85-1.45,1.28-1.23-.4-3.5.85-3.53-1.09-.02-1.28,2.19-1.68,3.76-1.55h.01Z"/>
          <path class="cls-1" d="M235.12,339.33c-.82-.39-1.63-.79-2.45-1.17,16.99-32.47,30.87-66.39,46.65-99.43,14.26-29.86,28.15-59.9,42.2-89.85l-.02.55c1.88,1.69,1.68,3.9,1.54,6.11-.48,7.66-1.37,15.28-2.42,22.88-1.3,10.34-1.38,20.8-3.12,31.09-.12,7.02-1.1,13.95-2.2,20.88-1.31,6.42-1.02,12.99-1.74,19.48-.56,4.98-1.65,9.89-1.88,14.91-.12,8.65-1.08,17.21-2.97,25.65-.87,2.89-1.6,5.81-.61,8.84.14,1.65-.23,3.21-.83,4.71-1.46,2.51-1.16,5.14-.52,7.79.15,1.89-.37,3.66-.97,5.41-1.34,2.58-.95,5.25-.34,7.93.13,1.98-.41,3.83-.98,5.68-1.53,2.9-.42,5.84-.1,8.78-.06,7.23-1.15,14.36-1.83,21.53-.2,2.18-.42,4.38-2.33,5.89.01.24,0,.47-.04.71-21.67-9.45-43.34-18.91-65.03-28.35h0Z"/>
          <path class="cls-16" d="M362.66,73.54c-5.49-.85-10.05-3.74-14.62-6.6,7.55-10.38,14.8-20.96,21.37-32,10.12,3.86,20.23,7.71,30.35,11.57-5.32,4.8-4.95,12.96-10.43,17.67-6.12-2.26-12.31-9.38-17.63-6.93-4.55,2.1-6.14,10.62-9.05,16.29h0Z"/>
          <path class="cls-53" d="M308.05,94.55c-3.11,3.5-4.71,7.87-6.41,12.05-2.25,5.53-5.12,6.07-9.98,3.18-3.9-2.31-8.27-3.85-12.43-5.72-.43-.2-.61-.46-.54-.76.09-.32.18-.48.3-.48,3.08-3.79,4.84-8.3,6.67-12.69,1.89-4.55,3.83-5.76,8.63-3.19,4.21,2.26,8.06,6.21,13.61,5.16.89.77,1,1.59.15,2.47h.01Z"/>
          <path class="cls-37" d="M279,102.81c0,.43.09.84.23,1.25-.8,1.81-1.55,3.65-2.4,5.43-4.2,8.73-10.6,10.89-19.21,6.49-1.76-.9-3.52-1.82-5.28-2.73-.02-.43-.06-.85-.14-1.27,1.79-3.81,3.84-7.51,5.28-11.43,1.91-5.21,4.36-7.13,9.66-3.64,3.66,2.42,7.88,3.97,11.86,5.92h0Z"/>
          <path class="cls-29" d="M308.05,94.55c-.05-.83-.1-1.65-.15-2.47,4.99-12.22,13.3-15.22,24.92-9,.38.2.66.57.98.87-.02.52-.04,1.02-.08,1.53-2.5,5.88-4.82,11.84-8.24,17.28-5.81-2.74-11.63-5.47-17.43-8.21Z"/>
          <path class="cls-31" d="M302.91,783.6c1.03-6.59.86-13.62,6.57-18.56,7.72,5.3,15.44,10.6,24.21,16.63-10.98,3.08-20.95,1.65-30.78,1.94Z"/>
          <path class="cls-7" d="M305.42,303.6c.38-1.4.76-2.8,1.14-4.19-.57-2.7-1.01-5.39.89-7.8,7.64-6.33,15.49-12.28,25.82-13.43,3.04.6,3.01,2.99,2.67,5.16-2.57,16.44-.71,32.99-1.14,49.47-.32,12.34-.1,24.69-.11,37.04-11.51-.96-23.02-1.91-34.51-2.87-.3-9.74,1.29-19.33,2.45-28.95-.67-2.62-.86-5.24.15-7.84.4-1.83.79-3.65,1.18-5.47-.66-2.62-.85-5.24.15-7.83.39-1.83.79-3.66,1.17-5.49-.65-2.61-.83-5.22.14-7.8h-.01Z"/>
          <path class="cls-9" d="M333.28,278.17c-8.36,4.53-16.7,9.06-25.06,13.57-.54.49-1.01.42-1.43-.16.91-8.86,1.83-17.72,2.75-26.59,7.38-7.25,15.25-13.57,26.2-14.25.02,7.02-.03,14.06.09,21.08.04,2.56-.34,4.76-2.55,6.33h0Z"/>
          <path class="cls-49" d="M335.75,250.75c-9.31,3.68-17.26,9.88-26.2,14.25,1.17-11.54,2.36-23.08,3.53-34.61,5.51-.57,9.79-3.88,14.47-6.35,2.64-1.39,4.92-3.99,8.42-3.02.03,4.84.08,9.67.11,14.51-.11,5.08-.22,10.14-.32,15.22h0Z"/>
          <path class="cls-43" d="M383.94,468.5c2.26,6.58,1.96,13.19.19,19.8-.06-6.6-.13-13.2-.19-19.8Z"/>
          <path class="cls-10" d="M382.65,440.6c2.59,4.21.74,8.85,1.28,13.26-.42.69-.81.68-1.18-.04-.03-4.41-.06-8.81-.1-13.22h0Z"/>
          <path class="cls-44" d="M382.74,453.82c.4.02.79.04,1.18.04,0,4.46-.01,8.93-.02,13.39-2.4-4.3-.95-8.94-1.16-13.42h0Z"/>
          <path class="cls-32" d="M512.87,352.66c4.42-4.43,8.84-8.86,13.26-13.28.52,0,1.03-.02,1.54-.03,4.41,4.45,8.82,8.89,13.22,13.35.05.55.1,1.11.15,1.66-4.42,4.4-8.85,8.8-13.27,13.2-.58-.01-1.15-.02-1.73-.03-4.44-4.38-8.88-8.75-13.33-13.13.05-.57.1-1.14.15-1.71h.01Z"/>
          <path class="cls-9" d="M335.96,221.02c-6.2,3.6-12.39,7.2-18.57,10.81-2,1.17-3.7,1.49-4.31-1.44.61-7.07,1.23-14.13,1.83-21.21,4.29-7.28,11.67-9.82,19.03-12.4.27.15.55.31.82.47,1.59,7.86.97,15.84,1.22,23.78h0Z"/>
          <path class="cls-9" d="M318.41,178.7c1.02-9.76,2.05-19.52,3.08-29.28,4.43-2.77,8.85-5.56,13.28-8.34,0,10.24.01,20.49.02,30.73-.08.31-.15.63-.22.95-3.13,4.35-7.64,6.98-12.21,9.38-3.55,1.87-4.81.2-3.96-3.44h0Z"/>
          <path class="cls-41" d="M334.79,171.8c2.03,8.49,2.1,16.96-.04,25.45l-.05-.04c-4.32-8.45-3.73-16.9.03-25.34l.05-.05h.01Z"/>
          <path class="cls-49" d="M334.73,171.86c-.01,8.44-.02,16.9-.03,25.34-6.31,4.45-13.86,6.88-19.79,11.98,1.17-10.16,2.34-20.33,3.51-30.49.22,2.47.81,3.64,3.46,1.71,4.16-3.01,8.56-5.71,12.85-8.55h0Z"/>
          <path class="cls-46" d="M306.79,291.58c.47.05.95.11,1.43.16-1.83,2.28-1.23,5.08-1.66,7.66-1.57-2.66-1.74-5.27.24-7.82h-.01Z"/>
          <path class="cls-46" d="M302.77,330.19c-.04,2.61-.1,5.23-.15,7.84-1.67-2.65-1.77-5.26.15-7.84Z"/>
          <path class="cls-26" d="M304.11,316.89c-.04,2.61-.1,5.23-.14,7.83-1.67-2.65-1.77-5.26.14-7.83Z"/>
          <path class="cls-47" d="M305.42,303.6c-.04,2.6-.1,5.21-.14,7.81-1.66-2.64-1.75-5.24.14-7.81Z"/>
        </g>
      </g>
    </g>
  </g>
</svg>