<?xml version="1.0" encoding="UTF-8"?>
<svg xmlns="http://www.w3.org/2000/svg" version="1.1" viewBox="0 0 636.44 800">
  <defs>
    <style>
      .cls-1 {
        fill: #909090;
      }

      .cls-2 {
        fill: #788a5c;
      }

      .cls-3 {
        fill: #eaeaea;
      }

      .cls-4 {
        fill: #8f8f8f;
      }

      .cls-5 {
        fill: #e2c9b7;
      }

      .cls-6 {
        fill: #856855;
      }

      .cls-7 {
        fill: #477760;
      }

      .cls-8 {
        fill: #607343;
      }

      .cls-9 {
        fill: #8e8e8e;
      }

      .cls-10 {
        fill: #876b58;
      }

      .cls-11 {
        fill: #2c2c2c;
      }

      .cls-12 {
        fill: #dcdcdb;
      }

      .cls-13 {
        fill: #bc987e;
      }

      .cls-14 {
        fill: #d9bca6;
      }

      .cls-15 {
        fill: #c3c3c3;
      }

      .cls-16 {
        fill: #bc977e;
      }

      .cls-17 {
        fill: #84c4a7;
      }

      .cls-18 {
        fill: #6aab8c;
      }

      .cls-19 {
        fill: #908f8f;
      }

      .cls-20 {
        fill: #46765f;
      }

      .cls-21 {
        fill: #856956;
      }

      .cls-22 {
        fill: #2d2d2c;
      }

      .cls-23 {
        fill: #c7d6cf;
      }

      .cls-24 {
        fill: #a1be76;
      }

      .cls-25 {
        fill: #4a5e2c;
      }

      .cls-26 {
        fill: #6aab8b;
      }

      .cls-27 {
        fill: #856754;
      }
    </style>
  </defs>
  <!-- Generator: Adobe Illustrator 28.7.1, SVG Export Plug-In . SVG Version: 1.2.0 Build 142)  -->
  <g>
    <g id="Layer_1">
      <g>
        <path class="cls-2" d="M404.91,573.71c.12,8.67.23,17.35.35,26.02.67,7.35,1.42,14.71-.57,21.99-.64,2.34.09,4.28,1.58,6.05.1,6.9.2,13.81.3,20.71,1.2,7.56.24,15.16.53,22.73-4.61,6.74-12.09,6.64-18.97,7.99-1.8.24-4.71-3.9-5.27,1.35-1.85,2.15-4.53,2.6-7.01,3.39-44.47,14.24-89.2,27.63-133.65,41.94-4.8,1.54-9.41,1.59-14.07-.55-32.08-14.71-64.16-29.41-96.21-44.18-1.77-.82-3.68-1.54-4.56-3.54,3.95-15.71,10.37-30.58,15.81-45.78,20.62-57.61,41.41-115.15,62.14-172.72.74-2.39,2.74-3.39,4.85-4.03,9.85-2.99,19.38-7.01,29.41-9.45,2.32-.56,4.72-1.34,6.87.55,3.27,6.21,2.29,13.02,1.54,19.35-1.61,13.55-1.27,27.16-1.93,40.71-1.22,25.16-2.06,50.36-3.24,75.52-1.14,24.5-2.01,49.02-3.36,73.52-.88,15.95-1,31.97-1.69,47.96-.18,4.11.07,8.24-.31,10.8,4.71-11.12,11.12-23.09,16.73-35.43,24.34-53.49,50.43-106.16,75.18-159.47,2.55-5.49,4.27-11.6,9.43-15.55,3.38-1.41,5.82.68,8.2,2.45,5.55,4.1,11.38,7.82,16.96,11.88,1.53,1.12,3.14,3.5,5.55,1.19,4.16-6.1,5.35-13.98,11.42-18.92,1.17-.6,2.54-.57,3.73-1.11,4.38-1.99,4.36-3.79-.05-7.07-4.22-3.54-6.41-8.4-8.64-13.25-1.42-4.69-2.33-9.47-2.51-14.38,1.03-5.03,1.54-10.34,6.78-13.22,4.03-.99,8.2-.98,12.29-1.3,6.11-.48,9.16,2.77,9.32,8.8.14,4.99-.48,10,.41,14.97.12,8.68.23,17.36.35,26.05,1.5,7.95-.34,16.03.97,23.99.12,8.67.24,17.33.35,26,1.49,7.96-.35,16.06.97,24.03Z"/>
        <path class="cls-14" d="M349.87,69.5c5.96,3.34,5.51,9.59,6.45,15,4.72,27.11,9.21,54.25,13.8,81.38.07.39.48.71.73,1.07,1.61,1.62,2.39,3.61,2.74,5.83,1.6,10.14,3.94,20.17,4.72,30.43,2.78,12.3,4.77,24.74,6.5,37.23,1.43,5.68,2.39,11.44,3.1,17.24.89,7.27-.88,9.16-8.38,9.52-3.62-1.1-3.96-4.31-4.5-7.29-1.62-8.79-2.9-17.63-4.48-26.43-.5-2.79-.87-5.71-3.48-7.48-12.59-8.54-24.81-17.69-38.66-24.22-1.41-.16-2.71-.56-3.68-1.67,2.91-9.54-1.62-18.26-3.05-27.32-.64-4.06-2.43-7.92-2.02-12.16,1.99-4.24,1.89-9.38,5.48-12.94.74-.46,1.55-.75,2.41-.95,9.56-2.32,10.56-5.81,3.74-13.1-2.37-2.34-2.06-5.12-1.31-7.96,1.4-5.28,2.8-10.56,4.56-15.72,1.16-3.58-.43-5.25-3.87-6-5.55-1.21-11.09-2.55-16.59-3.94-4.92-1.25-7.54-.69-6.34,5.15-1.31,4.05-4.18,6.88-7.38,9.45-6.73,2.84-14.04,2.97-21.05,4.52-5.98-1.22-11.06-4.21-15.66-8.11-1.62-3.4-3.73-4.34-7.12-1.94-4.77,3.36-9.65,6.57-14.58,9.7q-7.01,4.46-2.7,11.94c3.49,5.36,8.52,9.3,12.83,13.9,2.22,2.37,4.81,4.46,5.88,7.72.31,6.44,4.6,8.62,10.14,9.43,6.33,4.37,11.2,10.24,16.32,15.89,7.14,7.88,14.08,16,22.84,22.22,1.45.67,2.95,1.27,3.51,2.98-.1,1.05-.65,1.83-1.42,2.5-14.38,12.18-28.11,25.09-42.29,37.49-4.06,3.55-5.32,7.58-4.28,12.88,2.03,10.32,3.43,20.77,5.4,31.11.65,3.42,1.57,6.96-1.28,9.98-4.67,2.28-9.46,3.86-14.75,2.44-2.92-1.93-3.11-5.12-3.68-8.11-12.2-63.78-24.03-127.63-35.93-191.47-2.1-11.26-8.18-20.16-13.35-29.77-2.29-4.26-6.75-7.84-5.02-13.63,3.54-2.52,7.17-.77,10.67-.05,20.03,4.12,40.01,8.5,60.04,12.68,1.68.35,3.33,1.15,5.07.29,8.34-6.8,14.7-15.5,22.2-23.11,2.27-2.31,4.38-4.95,7.89-5.54,7.56,1.26,13.23,6.4,19.76,9.76,8.72,4.49,16.97,9.83,25.53,14.63,1.94,1.08,3.63,2.42,4.51,4.56Z"/>
        <path class="cls-16" d="M194.55,56.36c.88,4.45,3.71,7.98,6.14,11.5,8.85,12.82,13.64,26.88,16.39,42.22,9.56,53.24,19.91,106.34,29.84,159.52,1.8,9.62,3.14,19.33,5.7,28.8-2.5,4.02-6.9,2.94-10.53,3.95-5.83-.22-10.78-3.23-16.04-5.22-14.25-5.39-28.47-10.88-42.62-16.52-2.42-.97-4.86-1.94-6.84-3.74-4.57-7.13-4.03-15.51-5.76-23.34-.05-.66,0-1.33.12-1.98,3.56-9.78,7.9-19.27,11.93-29.57-5.86.12-10.52,2-14.92,4.78-2.15.35-4.33.08-6.49.32-10.94,1.21-10.81,1.14-14.64-8.85-2.33-6.08-4.49-12.14-4.66-18.73-1.09-3.73-1.99-7.54-3.34-11.17-1.19-3.19-.38-4.77,2.81-5.84,4.51-1.51,8.89-3.4,13.33-5.12,5.31-4.7,8.69-5.16,14.75-2,10.06,5.25,9.88,5.23,11.14-5.57,1.55-13.25,1.7-26.63,3.53-39.84,1.03-7.46-1.18-12.86-8.39-15.79-.6-.24-1.14-.65-1.71-.98-9.6-5.57-10.16-7.31-5.25-17.15,5.67-11.35,12.03-22.34,17.62-33.74,1.33-2.71,2.72-5.57,5.98-6.62.73-.05,1.37.17,1.91.66Z"/>
        <path class="cls-3" d="M329.16,199.81c7.28,1.62,12.24,7.35,18.62,10.59,3.1,1.57,5.61,4.41,8.79,5.69,13.3,5.35,17.56,15.91,18.44,29.2.46,6.87,1.39,13.84,3.74,20.45,5.33,7.74,4.25,16.96,5.83,25.55.42,2.31.31,4.72,1.28,6.95,2.66,14.4,4.95,28.87,7.69,43.25,2.22,15.56,5.19,31,7.58,46.53.49,3.22,1.38,6.52-1.26,9.32l-1.09,3.03c1.82,2.29.71,4.67-.07,6.82-4.97,13.71-10.3,27.28-15.49,40.9-.7,1.85-1.58,3.61-3.64,4.34-1.6,3.86-3.21,7.71-4.81,11.57-4.32,4.1-9.26,4.34-14.57,2.37-2.61-2.73-2.84-6.34-3.34-9.76-9.97-67.52-20.6-134.95-30.54-202.48-.57-3.9-1.31-7.77-1.79-11.68-.41-3.35-.41-6.61,2.65-8.93,2.92-2.06,6.42-2.3,9.77-3.06,1.18-.27,2.83-.34,2.67-2.15-.18-1.97-1.75-2.24-3.36-2.17-3.63.17-7.26,1.35-10.88-.12-4.71-2.94-4.28-7.8-4.64-12.37,1.64-5.32,3.77-10.36,8.42-13.86Z"/>
        <path class="cls-23" d="M400.29,759.45c6.86,2.88,14.24,1.37,21.35,2.27,14.69,1.87,29.61,1.93,44.41,3.03,20.88,1.56,41.72,3.48,62.6,5.05,5.2.39,10.45.06,15.67.4-9.47,3.27-19.39,2.67-29.05,3.48-26.73,2.24-53.48,4.15-80.2,6.66-19.33,1.81-38.75,2.62-58.11,4.17-24.78,1.99-49.5,4.62-74.3,6.3-16.98,1.15-33.92,2.78-50.89,4.03-11.35.84-22.59-1.86-33.88-2.93-14.53-1.37-29.02-3.19-43.53-4.83-17.98-2.02-35.95-4.1-53.93-6.06-14.3-1.56-28.64-2.87-42.93-4.52-7.74-.89-15.63-.74-24.88-3.29,14.88-1.65,28.14-2.86,41.32-4.63,16.81-2.26,33.86-2.76,50.47-6.57,2.1,1.63.77,3.84.98,5.78.72,3.06-.86,6.59,1.91,9.22,2.3,1.67,4.93,1.54,7.55,1.54,16.99,0,33.97.03,50.96-.02,8.1-.02,10.35-3.03,8.66-11.08-.95-4.54-4.24-8.83-1.59-13.8.85-.73,1.81-1.31,2.9-1.45,26.65-3.54,53.31-6.45,80.15-1.94,1.96.33,3.87.73,5.48,1.99,1.89,1.99,2.04,4.45,1.85,6.99q1.27,10.79,11.99,10.82c23.65.01,47.31.01,70.96,0q9.72,0,12.32-9.06c.41-.71,1-1.22,1.75-1.55Z"/>
        <path class="cls-20" d="M386.74,677.84c6.57-1.79,13.15-3.58,19.72-5.38.4-.67.77-.65,1.11.05,1.36,15.66,1.34,15.6-13.27,19.79-9.82,2.82-19.5,6.2-29.42,8.63-5.18,1.27-7.77,3.73-8.52,8.9-.5,3.42-1.74,6.73-2.65,10.1-.76,3.46-3.55,4.83-6.37,6.12-12.56,5.75-25.1,11.52-37.55,17.51-2.85,1.37-5.82,3.42-9.24,1.24-2.75-4.93-1.49-10.32-1.49-15.49,0-4.68-1.61-5.79-5.91-4.43-13.8,4.35-28.01,7.51-41.41,12.96-12.45,5.06-24.05,5.38-35.6-1.99-3.13-2-6.79-3.05-10.13-4.72-5.4-.66-10.23,1.65-15.11,3.22-10.96,3.52-22.02,6.72-32.95,10.34-2.95.98-6.13,2.68-9.27.23,2-10.7,3.83-21.44,6.1-32.09.97-4.58.1-7.17-4.58-8.98-7.71-2.98-15.02-6.99-22.75-9.9-4.51-1.7-5.03-3.92-3.27-7.83,1.24-2.75,2.13-5.65,3.18-8.49,7.66,1.41,14.15,5.73,21.09,8.83,27.36,12.24,54.52,24.91,81.72,37.49,3.19,1.48,6.22,1.52,9.53.48,37.53-11.82,75.1-23.55,112.63-35.37,10.18-3.21,20.3-6.61,30.45-9.92.94-1.56,2.44-1.43,3.94-1.29Z"/>
        <path class="cls-2" d="M56.8,444.71c1.16-1.33,2.32-2.66,3.47-3.98,7.63-6.76,16.95-10.77,25.68-15.73,31.44-17.85,62.85-35.75,94.51-53.21,2.11-1.16,3.96-2.74,6.14-3.8,1.12-.07,1.83.51,2.31,1.46.92,3.46-1.36,5.83-2.96,8.37-15.14,24.13-30.98,47.81-46.55,71.66-12.1,18.53-23.98,37.21-36.45,55.5-1.8,2.64-3.11,5.96-6.98,6.4-3.23-.57-4.55-3.24-5.91-5.69-10.21-18.34-19.85-37.01-30.84-54.91-1.16-1.89-1.84-3.95-2.41-6.07Z"/>
        <path class="cls-8" d="M95.95,510.68c7.77-8.94,13.56-19.27,20.09-29.06,15.03-22.57,29.94-45.23,44.46-68.13,9.24-14.57,19.59-28.43,27.69-43.71,2.65-1.07,4.76.49,6.58,1.83,6.02,4.41,13.74,6.68,17.63,13.8-.32,4.15-3.18,7.13-4.92,10.63-4.5,9.02-9.8,17.62-14.17,26.71-1.21,2.52-2.39,5.24-5.35,6.37-10.23,18.67-20.44,37.34-30.7,55.99-2.29,4.17-4.73,8.27-7.11,12.4-1.94,2.2-4.41,3.55-7.21,4.27-13.11,3.4-26.11,7.17-39.26,10.4-2.49.61-5.95,2.93-7.73-1.5Z"/>
        <path class="cls-9" d="M193.27,56.23c-9.64,14.9-16.91,31.09-25.25,46.69-1.42,2.66.01,4.19,1.98,5.4,2.42,1.49,4.86,3.1,7.5,4.03,9.51,3.36,9.93,10.75,9.16,19.07-1.45,15.62-2.7,31.26-3.87,46.91-.45,6.08-1.28,6.68-6.47,3.6-.94-.56-1.87-1.14-2.72-1.83-5.69-4.59-11.83-6-18.66-2.74-8.33-26.76-16.64-53.52-25.03-80.25-.84-2.69-1.28-4.59,1.53-6.76,18.51-14.36,36.84-28.95,55.23-43.47,5.65.67,7.19,4.25,6.59,9.34Z"/>
        <path class="cls-24" d="M186.62,368.49c.09,2.1-1.29,3.06-2.9,3.96-40.11,22.47-80.21,44.95-120.33,67.4-.92.51-2.07.6-3.12.88,12.71-17.24,25.35-34.53,38.15-51.7,12.42-16.66,25.02-33.18,37.5-49.79.5-.67.67-1.59.99-2.4.51-.43,1.1-.6,1.76-.52,15.98,8.19,30.48,18.75,45.47,28.51,1.28.83,2.4,1.93,2.48,3.66Z"/>
        <path class="cls-2" d="M451.26,313.25c10.86-13.3,21.72-26.61,32.59-39.91,2.35.85,3.09,2.98,3.82,5.02,6.86,19.13,14.98,37.76,22.28,56.72,1.32,3.44,3.02,7.01-.34,10.35-24.74,10.61-49.72,20.65-74.77,30.49-2.39.94-4.87,2.24-7.53.65-1.87-2.83-.46-5.51.52-8.12,5.9-15.78,11.8-31.56,18.03-47.22,1.22-3.06,2.36-6.16,5.41-7.97Z"/>
        <path class="cls-8" d="M427.46,376.23c19.8-6.8,38.88-15.44,58.32-23.14,7.67-3.04,15.17-6.61,23.27-8.5,1.22,3.62-1.44,5.75-3.31,8-13.3,15.99-26.87,31.77-40.01,47.89-2.12,2.6-4.55,4.72-7.84,5.69-19.34-2.93-38.67-5.87-58.01-8.8-1.89-17.92-5.66-35.54-8.46-53.32-.14-.88-.52-1.6.44-2.16,2.6-.97,4.12.9,5.65,2.34,10.66,10.03,20.42,20.92,29.96,32.02Z"/>
        <path class="cls-24" d="M427.46,376.23c-5.84-2.15-8.97-7.38-12.93-11.61-7.33-7.82-14.27-16.01-22.67-22.75-4.12-14.16-5.43-28.84-7.99-43.29-.58-1.4-.61-2.8.04-4.19.35-.26.75-.67,1.12-.62,11.64,1.47,22.92,4.14,33.2,10.08,10.86,3.66,21.83,6.95,33.03,9.41-7.93,20.99-15.86,41.98-23.79,62.97Z"/>
        <path class="cls-15" d="M193.27,56.23c-1.77-3.41-2.9-7.28-6.59-9.34,15.01-11.84,29.95-23.77,45.1-35.43,2.86-2.21,4.68-5.94,8.79-6.46,3.3,3.06,4.81,7.22,6.64,11.14,8.49,18.16,16.99,36.31,25,54.68-6.17,2.85-11.92-.54-17.64-1.65-20.08-3.91-40.03-8.49-60.02-12.82-.43-.06-.85-.1-1.28-.13Z"/>
        <path class="cls-20" d="M457.89,406.16c17.27-20.35,34.99-40.32,51.17-61.57,2.11-3.16-.01-5.85-1.05-8.58-7.97-20.92-17.37-41.29-24.16-62.67,2.74-3.55,5.48-7.1,8.23-10.64,3.93-.05,4.88,3.17,6.09,5.84,2.15,4.73,3.94,9.63,5.98,14.41,1.39,3.16,2.6,6.4,3.82,9.63.33,1.49.66,2.98,1.61,4.23,1.75,3.92,5.06,7.39,3.54,12.24,4.67,11.04,9.21,22.14,14.08,33.08,1.53,3.44,1.38,5.67-1.34,8.59-15.78,16.92-31.5,33.91-46.8,51.26-4.3,4.88-8.49,6.91-14.69,4.99-2.04-.63-4.31-.57-6.47-.82Z"/>
        <path class="cls-26" d="M301.56,744.83c17.49-8.08,35.28-15.54,52.15-24.9,11.12,10.66,23.42,19.93,35.15,29.87,3.8,3.22,7.61,6.44,11.42,9.66,0,0-.38.04-.38.04l-.38-.07c-2.28,2.66-5.44,2.6-8.49,2.61-26.97.07-53.94.06-80.91,0-3.06,0-6.21.08-8.58-2.45-.15-2.26-.31-4.52-.46-6.78-2.05-2.79-2.56-5.5.48-7.99Z"/>
        <path class="cls-25" d="M187.96,429.12c7.38-14.84,14.65-29.74,23.79-43.61,1.07-.45,1.87.04,2.64.71,10.76,17.1,20.29,34.93,30.54,52.33,1.2,2.04,2.45,4.17,1.63,6.75-.21.24-.42.49-.63.73-13.53,4.36-27.06,8.72-40.59,13.08-5.79-10-11.58-19.99-17.37-29.99Z"/>
        <path class="cls-26" d="M148.7,744.89c17.26-5.25,34.51-10.52,51.79-15.73,1.95-.59,3.94-2.37,6.02-.22,3.11,6.21,4.6,12.97,6.59,19.56.56,1.86,1.09,3.77,0,5.65,1.64,7.2,4.88,14.06,4.04,21.77-.29,2.69-.53,4.67-3.93,4.66-22.55-.08-45.1-.06-67.64-.16-.67,0-1.35-.86-2.02-1.32,2.78-2.86,6.42-2.44,9.86-2.46,16.83-.09,33.66-.01,50.5-.05,1.96,0,3.94.11,5.88-.32,1.68-.37,2.71-1.35,2.85-3.12.16-1.96-.57-3.43-2.53-4.05-2.12-.68-4.33-.49-6.51-.49-17.49-.02-34.98-.05-52.46,0-2.56,0-5.29.75-7.56-1.19.28-1.8.57-3.6.85-5.41,1.43-5.71,2.86-11.42,4.29-17.13Z"/>
        <path class="cls-16" d="M567,212.04c-.89,19.91-1.83,39.82-2.61,59.73-.12,2.94-.96,4.87-3.67,6.28-10.28,5.36-20.47,10.91-30.7,16.39-2.09-2.21-1.61-4.87-1.11-7.42,1.72-8.77,2.83-17.64,4.7-26.38,2.46-13.43,4.48-26.94,7.44-40.28.29-1.29.18-2.59-.08-3.88-.05-2.76,1.22-4.74,3.63-6.02.36-.15.74-.2,1.12-.13,7.22-1,14.5-2.82,21.28,1.71Z"/>
        <path class="cls-9" d="M172.1,251.94c1.8,8.08,3.6,16.16,5.41,24.24,2.22,6.89.57,13.4-1.93,19.83-.52.58-1.15,1.01-1.87,1.31-10.33.94-19.95-3.09-29.97-4.37-4.38-.56-9.2-.74-12.26-4.91-6.59-7.72-13.18-15.45-19.78-23.16-1.12-1.3-2.53-2.41-2.55-4.35,2.41-2.55,5.62-3.16,8.88-3.64,15.08-2.2,30.22-3.97,45.3-6.24,3.03-.46,6.1-.8,8.77,1.29Z"/>
        <path class="cls-12" d="M272.21,70.83c-1.76-.15-2.65-1.35-3.29-2.8-9.35-21.06-19.94-41.55-28.35-63.03,18.02,5.25,36.04,10.51,54.06,15.76,4.88,6.16,7.16,12.99,5.3,20.87-10.31,8.72-18.3,19.65-27.72,29.2Z"/>
        <path class="cls-20" d="M95.95,510.68c2.39,1.85,4.7.02,6.79-.51,15.84-4.06,31.61-8.4,47.41-12.66-4.07,9.04-9.42,16.17-20.18,18.41-8.06,1.67-15.73,5.23-23.58,7.95-5.02,3.62-10.28,6.55-16.78,6.11-2.05-.72-3.34-2.26-4.39-4.07-7.3-13.87-15.38-27.32-23.05-40.99-1.95-3.48-3.52-6.96-3.97-10.92-1.26-2.28-2.5-4.57-3.78-6.84q-6.71-11.99,2.37-22.43c5.31,4.7,8,11.2,11.39,17.14,8.2,14.39,15.94,29.05,23.95,43.56,1.04,1.88,2.54,3.52,3.82,5.27Z"/>
        <path class="cls-12" d="M172.1,251.94c-20.99,2.86-41.97,5.72-62.96,8.59,3.77-10.27,10.43-18.94,15.72-28.38,5.31-9.47,10.82-18.83,16.13-28.3.71-1.26.78-2.89,1.15-4.34,2.61,7.1,5.51,14.12,7.72,21.35,1.46,4.76,3.54,6.05,8.49,4.77,2.93-.76,6.85-4.18,9.65.71,5.08,7.6,6.14,15.92,4.4,24.73-.21.26-.31.55-.31.88Z"/>
        <path class="cls-15" d="M384.19,294.58c-.11,1.34-.21,2.67-.32,4.01-1.7-10.95-3.41-21.89-5.11-32.84,5.46.07,8.82-1.09,6.86-7.99-1.59-5.6-1.86-11.58-2.72-17.39,7.26-3.62,14.73-2.7,22.24-1.04,8.04,8.35,17.43,15.11,26.36,22.41,2.1,1.72,5.33,2.95,3.01,6.68-12.77,7.06-25.79,13.66-38.4,21.01-3.79,2.21-7.83,3.71-11.92,5.16Z"/>
        <path class="cls-14" d="M544.61,210.47c.04,2.17-1.91,3.34-2.56,5.16.23,5.64-1.93,10.35-5.64,14.46-11.04,6.99-15.28,17.07-13.56,29.87,0,.67-.03,1.33-.09,1.99-1.41,5.51-3.13,10.88-6.93,15.3-4.24,2.64-7.17,7.83-13.26,6.91-4.02-6.9-4.75-15.41-10.49-21.46,2.63-8.53,5.38-17.02,7.84-25.6,1.14-3.97,3.14-6.85,6.75-9.07,8.9-5.47,17.74-11.08,26.29-17.09,4.1-2.89,7.62-3.82,11.67-.48Z"/>
        <path class="cls-4" d="M405.14,239.32c-7.32,2.32-14.82.75-22.24,1.05-2.21-12.19-4.42-24.37-6.63-36.56,1.35-1.76,2.99-3.11,5.15-3.79,10.97-3.46,21.69-7.62,32.56-11.36,2.33-.8,4.66-.89,7.05-.46,2.13,1.81.51,3.66-.07,5.36-5.23,15.27-10.54,30.51-15.83,45.76Z"/>
        <path class="cls-14" d="M86.69,525.26c.9,1.24,1.79,2.47,2.69,3.71.51.82.57,1.79,0,2.45-6.01,7.1-11.98,14.25-19.6,19.76-.47.08-.94.16-1.41.24-9.92-12.18-19.45-24.64-27.55-38.14,3.78-8.38,7.56-16.77,11.34-25.15,9.41,7.12,17.19,15.94,25.06,24.63,3.49,3.85,6.49,8.19,9.47,12.49Z"/>
        <path class="cls-16" d="M40.82,513.29c7.78,6.78,12.86,15.71,18.8,23.92,3.24,4.48,8.11,8.1,8.76,14.22-5.67,6.65-11.42,13.24-16.98,19.99-2.43,2.95-4.11,2.43-6.01-.42-4.36-6.55-8.66-13.16-13.31-19.5-1.78-2.43-1.09-4.44-.42-6.73,3.06-10.49,6.11-20.98,9.17-31.47Z"/>
        <path class="cls-15" d="M131.47,288.04c14.02,2.71,28.04,5.42,42.06,8.13.88.9,1.13,2.16.42,2.99-5.57,6.61-9.69,14.68-18.2,18.38-9.23,2.87-18.79,4.23-28.23,6.13-2.84.57-5.68.75-7.99-1.55,2.06-9.54,6.71-18.15,9.81-27.31.76-2.24,1.42-4.51,2.13-6.77Z"/>
        <path class="cls-20" d="M567,212.04c-7.1-.45-14.29.22-21.28-1.71,5.65-3.98,11.19-8.15,17.01-11.86,2.79-1.78,3.6-3.66,3.28-6.9-.77-7.76-1.09-15.56-1.59-23.35.55-.95,1.04-2.08,1.93-2.63,10.14-6.26,12.87-17.25,17.3-27.12,3.05-6.79,5.98-13.64,9.04-20.43.9-2,1.72-4.17,3.79-5.2,1.46-.72,3.45-1.66,3.52,1.46-5.94,14.53-11.66,29.15-17.93,43.54-2.78,6.38-4.36,12.69-3.62,19.62.32,3.03-.25,6.18.29,9.16,2.04,11.32-1.35,19.95-11.76,25.41Z"/>
        <path class="cls-12" d="M421.03,188.2c-14.92,5.2-29.84,10.41-44.76,15.61-1.28-12.37-4.81-24.4-5.41-36.87,16.98,6.48,34.1,12.63,50.17,21.26Z"/>
        <path class="cls-3" d="M299.94,41.63c-1.77-6.96-3.53-13.91-5.3-20.87,5.62,1.67,11.17,3.58,16.86,4.94,6.86,1.64,11.91,5.11,15.97,11.12,6.31,9.34,13.57,18.03,20.32,27.07,1.19,1.59,3.42,2.99,2.09,5.6-16.65-9.29-33.29-18.58-49.94-27.87Z"/>
        <path class="cls-4" d="M384.19,294.58c3.27-4.46,8.7-5.54,13.11-8.14,10.86-6.4,22.08-12.18,33.16-18.2,1.37-.75,2.76-1.48,4.04.17-5.43,11.81-10.85,23.62-16.28,35.43-11.66-1.93-22.6-6.52-34.03-9.26Z"/>
        <path class="cls-2" d="M379.59,452.45c5.66-15.09,11.33-30.17,16.97-45.26.83-2.23,1.49-4.53,2.23-6.8,2.33.13,1.97,1.93,2,3.37.51,23.29.99,46.58,1.48,69.87-2.26-4.75-.63-9.79-1.05-14.67-.34-3.97-5.15-8.82-8.49-7.27-4.55,2.11-8.77.71-13.14.76Z"/>
        <path class="cls-20" d="M514.42,276.48c2.98-4.61,5-9.66,6.84-14.8,4.49-3.32,9.11-5.26,14.26-1.31-1.83,11.36-3.67,22.71-5.5,34.07-.29.19-.6.28-.94.28-6.77,3.8-14.22,1.9-21.37,2.54-1.32-1.02-1.23-2.48-1.25-3.91.62-6.59,3.59-12.06,7.96-16.87Z"/>
        <path class="cls-13" d="M69.79,551.19c4.93-8.82,13.72-14.23,19.59-22.22,5.67-1.7,11.35-3.41,17.02-5.11-7.21,10.11-14.45,20.2-21.63,30.33-4.59,6.47-4.55,6.49-10.57.89-1.44-1.33-2.93-2.6-4.4-3.9Z"/>
        <path class="cls-27" d="M86.69,525.26c-11.69-12.2-24.05-23.78-34.52-37.12,2.01-4.72,4.02-9.44,6.04-14.16,9.62,17.03,19.88,33.69,28.48,51.28Z"/>
        <path class="cls-18" d="M600.03,114.32c-4.35-2.7-4.15,1.84-4.94,3.54-4.59,9.86-9.42,19.66-13.03,29.89-3.31,9.37-8.59,16.36-17.62,20.48,7.68-15.39,15.36-30.78,23.05-46.16,1.66-3.32,3.26-6.67,5.09-9.9,1.82-3.2,5.2-2.43,7.66-1.77,2.61.7.83,2.61-.2,3.92Z"/>
        <path class="cls-4" d="M119.53,322.12c11.28-.5,22.03-3.99,33.08-5.8,1.27-.21,2.56-.38,3.83-.57.04,6.11-4.85,8.97-8.36,12.75-3.88,2.18-5.18,7.53-10.17,8.36-.33-.01-.67-.02-1-.02-5.11-3.86-10.26-7.68-15.31-11.62-.95-.74-3.26-.83-2.07-3.09Z"/>
        <path class="cls-6" d="M507.71,297.26c.54-3.09,2.97-2.65,5.09-2.65,5.43,0,10.85.07,16.28.11-5.32,4.78-10.64,9.56-15.97,14.34-1.8-3.93-3.6-7.87-5.4-11.8Z"/>
        <path class="cls-2" d="M406.27,627.76c-4.4-1.31-5.2-3.59-2.82-7.73,3.66-6.37.82-13.55,1.8-20.3,1.79,9.29.97,18.68,1.02,28.03Z"/>
        <path class="cls-2" d="M407.57,672.51c-.37.01-.74,0-1.11-.05.04-8,.07-15.99.11-23.99,1.69,7.95.9,16.02,1.01,24.04Z"/>
        <path class="cls-2" d="M404.91,573.71c-2.26-7.93-.61-16.02-.97-24.03,1.67,7.95.95,16.01.97,24.03Z"/>
        <path class="cls-2" d="M403.59,523.67c-2.26-7.92-.6-15.99-.97-23.99,1.68,7.94.95,15.98.97,23.99Z"/>
        <path class="cls-24" d="M340.85,503.74c-5.04,4.33-6.66,10.69-9.36,16.32-14.95,31.2-29.67,62.5-44.39,93.81-16.31,34.67-32.53,69.38-48.81,104.05-.8,1.71-1.84,3.3-3.48,4.8,1.46-11.26-.17-22.49,1.17-33.61.4-3.28.61-6.52.72-9.79.92-28.2,1.44-56.42,2.89-84.59,1.06-20.53,1.72-41.06,2.7-61.58,1.39-29.03,3.18-58.05,3.63-87.12,0,0,0,0,0,0,.96-1.43,1.73-3.18,3.48-3.74,11.74-3.71,22.91-9.29,35.29-10.97,3.61.67,5.36,3.6,7.34,6.18,14.3,18.61,28.69,37.15,42.87,55.84,1.99,2.62,4.02,5.19,6.24,7.62.39.97.38,1.9-.28,2.76Z"/>
        <path class="cls-15" d="M340.85,503.74c-.17-.85-.33-1.69-.5-2.54-2.14-7.07.52-13.11,4.03-18.98,6.07-2.47,12.28-3.9,18.86-2.32,2.08,1.87,2.63,4.45,2.97,7.01,1.52,11.34,3.73,22.59,4.43,34.03-1.37,3.52-3.57,1.58-5.13.49-8.29-5.8-16.45-11.77-24.66-17.68Z"/>
        <path class="cls-3" d="M370.64,520.94c-3.87-4.2-3.06-9.6-3.78-14.62-1.22-8.55-2.49-17.1-3.73-25.65,4.27-4.49,9.04-5.16,14.32-1.86,2.61,4.02,5.22,8.04,7.82,12.06,2.43,4.99-.69,7.74-4.16,10.36-3.49,6.57-6.98,13.14-10.47,19.71Z"/>
        <path class="cls-25" d="M377.45,478.81c-4.87-.12-9.58.94-14.32,1.86-6.12.87-12.25,1.73-18.37,2.6-3.86-4.44-4.47-9.38-2.25-14.76,5.53-3.74,11.51-4.71,17.93-2.8,4.78-.56,9.56-1.12,14.34-1.69,1.75,4.77,2.05,9.81,2.66,14.79Z"/>
        <path class="cls-2" d="M381.11,501.23c.9-3.65,4.19-6.33,4.16-10.36,3.32-.2,5.5.98,5.34,4.68-.15,3.57-2.11,5.5-5.64,5.74-1.28.09-2.57-.04-3.86-.07Z"/>
        <path class="cls-2" d="M386.74,677.84c-1.02,1.33-2.49,1.29-3.94,1.29-2.74-.58-3.49-2.46-1.41-4.05,2.94-2.24,3.95,1.02,5.35,2.76Z"/>
        <path class="cls-15" d="M360.44,465.71c-5.71,1-11.41,1.99-17.12,2.99-5.44-.03-8.33-4.44-11.66-7.49-12.97-11.91-25.74-24.03-38.79-35.86-2.87-2.6-5.89-5.26-6.7-9.41-4.6-20.76-7.08-41.89-11.01-62.76-1.17-6.23-1.74-12.56-3.3-18.72-1.38-7.5-2.67-15.01-4.12-22.49,0-5.41-2.81-10.69-.71-16.19-2.28-14.83-4.46-29.67-6.92-44.47-.4-2.38-.51-4.16,1.39-5.86,15.22-13.71,30.4-27.46,45.62-41.16.43-.39,1.24-.35,1.87-.51,5.12,1.92,10.45,3.53,13.11,9.01,2.41,3.75-.4,9.34,4.31,12.28-1.28,4.1-5.1,3.56-8.08,4.14-4.91.95-9.94,1.33-14.76,2.75-1.15.34-2.83.63-2.54,2.4.28,1.68,1.86,1.66,3.13,1.6,5.68-.28,11.21-1.52,16.79-2.52,2.68-.48,5.54-1.86,7.94.79-2.61,1.66-2.8,3.98-2.36,6.85,6.13,39.91,12.13,79.83,18.23,119.75,5.11,33.44,10.31,66.87,15.45,100.3.23,1.51.16,3.06.23,4.59Z"/>
        <path class="cls-16" d="M256.52,152.5c-4.88-5.13-9.76-10.25-14.62-15.39-1.6-1.69-3.69-3.06-3.93-5.69-.66-1.76.28-3.06,1.49-3.98,7.46-5.65,14.62-11.71,22.53-16.75.75-.48,1.66-.47,2.54-.46,4.77,2.66,9.53,5.31,14.3,7.97,1.35.18,2.64.69,3.4,1.79,6.93,9.97,15.51,18.82,17.51,31.79,2.1,13.61,4.91,27.14,7.63,40.66.58,2.9,1.81,6.02-.79,8.7-1.22,1.13-1.97.07-2.71-.65-12.36-12.01-23.99-24.72-35.57-37.47-.96-1.98.74-3.2,1.41-4.68,1.16-2.6,1.37-5.11-.84-7.16-2.35-2.19-5.04-2.1-7.78-.56-1.44.81-2.53,2.5-4.57,1.89Z"/>
        <path class="cls-5" d="M306.57,201.13c-3.59-19.09-6.94-38.24-10.93-57.25-1.22-5.8-6.26-9.89-9.48-14.81-2.39-3.66-4.89-7.26-7.34-10.88,6.37-4.33,14.33-2.33,21.05-5.27,9.09,6.7,14.92,15.98,18.54,26.27,2.31,6.56,5.01,13.66,2.55,21.07,2.41,10.57,4.61,21.19,7.33,31.68,1.02,3.94.06,6.2-3.44,7.74-4.01,4.57-8.75,5.56-14.24,2.93-1.35-.49-2.69-.99-4.04-1.48Z"/>
        <path class="cls-16" d="M320.97,160.26c-.93-18.5-10.43-33.18-21.09-47.33,2.27-2.65,4.53-5.31,6.8-7.96,1.57-1.51,3.51-1.5,5.46-1.25,6.63.85,13.2,2.08,19.79,3.18,2,.34,3.65,1.27,4.55,3.22-1.56,5.57-3.07,11.16-4.69,16.71-.62,2.12-1.3,4.14,1.02,5.68-.4.81-1.09,1.28-1.9,1.62-7.83,3.31-8.05,3.82-4.83,11.77.33.81.56,1.61.25,2.47-2.82,3.49-1.63,8.8-5.36,11.88Z"/>
        <path class="cls-4" d="M264.53,110.22c-7.39,6.89-15.82,12.46-23.86,18.51-1,.76-1.81,1.78-2.7,2.68-5.91-7.25-5.67-8.85,1.49-13.37,5.72-3.62,11.32-7.44,16.96-11.19,6.15-4.08,6.34-4,8.11,3.37Z"/>
        <path class="cls-19" d="M336.47,110.1c-9.93-1.71-19.87-3.43-29.8-5.14-.71-2.69-1.43-5.38-2.26-8.53,10.81.98,20.64,4.28,30.72,6.3,5.02,1.01,1.79,4.72,1.35,7.37Z"/>
        <path class="cls-6" d="M267.02,295.77c1.77,5.18,2.78,10.49,2.63,15.99-2.38,1.41-4.62.36-6.83-.45-5.28-1.93-10.54-3.89-15.76-5.97-2.18-.87-4.6-1.53-5.16-4.36,3.57-.86,7.15-1.72,10.73-2.58,4.8-.88,9.6-1.75,14.4-2.63Z"/>
        <path class="cls-11" d="M326.32,148.37c-3.82-2.9-5.94-6.41-3.99-11.33,1.97-5.01,6.23-4.77,10.47-4.54,4.69,2.21,6.46,6.08,4.86,10.78-1.82,5.35-6.39,5.97-11.34,5.09Z"/>
        <path class="cls-22" d="M256.52,152.5c2.29-3.28,4.74-6.21,9.41-5.4,3.25.56,5.49,2.17,6.58,5.4,1.61,4.77-.94,7.77-4.22,10.52-9.06.66-11.62-1.62-11.77-10.51Z"/>
        <path class="cls-1" d="M310.61,202.61c4.75-.98,9.5-1.95,14.24-2.93,1.44.05,2.87.09,4.31.14-1.87,4.59-3.93,9.07-7.07,12.97-4.27-3.15-9.63-4.72-13.11-9.02.54-.38,1.09-.77,1.63-1.15Z"/>
        <path class="cls-20" d="M241.89,300.98c9.25,3.59,18.5,7.18,27.75,10.78,2.28,7.25,3.03,14.79,4.12,22.26.67,1.76.82,3.43-.84,4.77-2.73,1.25-5.11-.04-7.48-1.11-27.8-12.63-56.24-23.77-84.17-36.13-2.61-1.16-6.2-1.44-6.47-5.48.48-6.69.97-13.38,2.7-19.9,21.46,8.27,42.92,16.53,64.39,24.8Z"/>
        <path class="cls-27" d="M172.41,251.07c-1.47-8.24-2.93-16.49-4.4-24.73.15-2.48,1.24-3.85,3.89-4.38,4.47-.88,8.85-2.2,14.46-3.64-4.51,11.61-8.4,22.51-13.96,32.75Z"/>
        <path class="cls-27" d="M149.94,189.84c5.21-3.24,10.45-3.91,15.37-5.47,1.1-.35,2.32-.18,2.85.97,2.59,5.57,3.98,11.53,5.2,17.5.36,1.77-1.19,2.08-2.59,1.14-6.78-4.58-13.55-9.19-20.82-14.13Z"/>
        <path class="cls-6" d="M328.88,234.21c-8.55,1.45-17.17,2.62-25.63,4.49-4.06.9-4.86-.95-5.67-4.01-.94-3.6.72-4.39,3.91-4.91,8.34-1.36,16.61-3.12,24.91-4.73,3.24-.44,6.53-.67,9.71-1.37,3.88-.86,5.89-.03,6.74,4.32.95,4.87-2.35,4.23-4.93,4.73-3,.57-6.03.99-9.04,1.48Z"/>
        <path class="cls-20" d="M301.54,759.6c32.66-.06,65.32-.11,97.98-.17.07.21.18.41.2.63q1.3,12.55-11.14,12.55c-26.28,0-52.56,0-78.83,0q-8.47,0-8.41-8.42c.01-1.53.14-3.06.21-4.59Z"/>
        <path class="cls-7" d="M143.56,767.42c2.71-.89,5.45-1.34,8.35-1.33,18.78.07,37.56.01,56.34.05,6.9.01,9.51,3.94,7.42,10.63-.94,3-3.25,2.49-5.32,2.49-22.27-.02-44.54-.09-66.82-.15,0-3.89.02-7.79.02-11.68Z"/>
        <path class="cls-20" d="M287.87,417.23c17.95,17.73,36.62,34.68,55.45,51.47.48,4.86.96,9.71,1.44,14.57-1.47,5.98-2.94,11.95-4.4,17.93-2.97.03-3.83-2.48-5.26-4.33-16.55-21.39-33.11-42.77-49.67-64.16-5.35-.91-9.65-4.03-14.04-6.86-17.13-11.05-34.16-22.26-51.5-32.98-2.69-1.66-4.25-4.41-6.81-6.13-.44-.42-.88-.83-1.32-1.25-7.35-6-15.61-10.63-23.56-15.73-.52-.43-1.04-.86-1.56-1.28-16.24-10.55-32.47-21.09-48.71-31.64,2.96-3.08,4.58-7.5,9.03-9.1,3.14-.32,5.32,1.71,7.71,3.19,17.13,10.61,33.85,21.86,51.09,32.28,24.85,16.38,50.31,31.81,75.24,48.06,2.56,1.67,5.24,3.22,6.88,5.95Z"/>
        <path class="cls-21" d="M514.42,276.48c-2.6,5.65-4.08,11.83-7.96,16.87-1.3-3.06-2.6-6.12-3.9-9.19,3.95-2.56,7.91-5.12,11.86-7.68Z"/>
        <path class="cls-2" d="M213.07,386.75c8.98,4.09,16.8,10.09,25.08,15.33,15.87,10.03,31.53,20.4,47.27,30.64-13.44,3.64-26.53,8.32-39.51,13.32-5.01-12.84-13.38-23.85-19.67-36-4.1-7.91-8.76-15.53-13.17-23.28Z"/>
        <path class="cls-26" d="M535.52,260.38c-4.76.44-9.51.87-14.26,1.31-.01-.44.03-.87.13-1.3,2.52-11.5,8.23-21.59,13.94-31.69,3.26-3.83,4.76-8.56,6.72-13.06,2.54,5.85-.44,11.3-1.34,16.86-1.51,9.33-3.43,18.59-5.18,27.88Z"/>
        <path class="cls-17" d="M204.95,364.66c-13.41-6.95-25.63-15.84-38.37-23.89-6.63-4.19-13.78-7.64-19.63-13.02,3.16-4,6.33-8,9.5-12,6.55-5.78,12.4-12.17,17.09-19.58.42-.08.85-.11,1.27-.09,21.04,9.09,42.08,18.17,63.12,27.27,11.43,4.94,22.84,9.91,34.26,14.87,1.65,3.42-1.25,4.31-3.24,5.06-18.98,7.12-37.91,14.39-56.97,21.32-2.28.83-4.67,1.11-7.02.06Z"/>
        <path class="cls-10" d="M535.32,228.69c-2.78,11.39-8.48,21.48-13.94,31.69-.03-.21-.05-.43-.08-.64-2.28-13.5,1.54-24.23,14.02-31.05Z"/>
        <path class="cls-26" d="M204.95,364.66c21.38-7.87,42.77-15.75,64.16-23.6,1.47-.54,2.95-.91,3.07-2.84,1.63-.98,1.23-2.73,1.58-4.2,4.02,16.56,6.06,33.47,8.98,50.22,1.91,10.96,3.43,21.99,5.13,32.99-11.09-5.27-20.95-12.57-31.19-19.2-17.22-11.16-35.23-21.1-51.73-33.37Z"/>
      </g>
    </g>
  </g>
</svg>