<?xml version="1.0" encoding="UTF-8"?>
<svg xmlns="http://www.w3.org/2000/svg" version="1.1" viewBox="0 0 636.44 800">
  <defs>
    <style>
      .cls-1 {
        fill: #bbc35a;
      }

      .cls-2 {
        fill: #7a8d5f;
      }

      .cls-3 {
        fill: #866956;
      }

      .cls-4 {
        fill: #788a5c;
      }

      .cls-5 {
        fill: #e2c9b7;
      }

      .cls-6 {
        fill: #856855;
      }

      .cls-7 {
        fill: #e9ec87;
      }

      .cls-8 {
        fill: #bdc25f;
      }

      .cls-9 {
        fill: #607343;
      }

      .cls-10 {
        fill: #adc595;
      }

      .cls-11 {
        fill: #c2bf6c;
      }

      .cls-12 {
        fill: #9da674;
      }

      .cls-13 {
        fill: #798c5d;
      }

      .cls-14 {
        fill: #e9ec88;
      }

      .cls-15 {
        fill: #bc987e;
      }

      .cls-16 {
        fill: #d9bca6;
      }

      .cls-17 {
        fill: #637645;
      }

      .cls-18 {
        fill: #bc977e;
      }

      .cls-19 {
        fill: #637646;
      }

      .cls-20 {
        fill: #6aac8c;
      }

      .cls-21 {
        fill: #6aab8c;
      }

      .cls-22 {
        fill: #538b70;
      }

      .cls-23 {
        fill: #a2be76;
      }

      .cls-24 {
        fill: #bcc35c;
      }

      .cls-25 {
        fill: #8b6d5a;
      }

      .cls-26 {
        fill: #b1bb61;
      }

      .cls-27 {
        fill: #afbf90;
      }

      .cls-28 {
        fill: #627443;
      }

      .cls-29 {
        fill: #47765f;
      }

      .cls-30 {
        fill: #788b5d;
      }

      .cls-31 {
        fill: #bc987f;
      }

      .cls-32 {
        fill: #dbdf6a;
      }

      .cls-33 {
        fill: #2e2d2d;
      }

      .cls-34 {
        fill: #f9fbf8;
      }

      .cls-35 {
        fill: #647747;
      }

      .cls-36 {
        fill: #dbdf6b;
      }

      .cls-37 {
        fill: #46765f;
      }

      .cls-38 {
        fill: #538c70;
      }

      .cls-39 {
        fill: #2d2d2c;
      }

      .cls-40 {
        fill: #8db6a3;
      }

      .cls-41 {
        fill: #b7c37a;
      }

      .cls-42 {
        fill: #c7d6cf;
      }

      .cls-43 {
        fill: #abc392;
      }

      .cls-44 {
        fill: #a0b38e;
      }

      .cls-45 {
        fill: #a1be76;
      }

      .cls-46 {
        fill: #b0ba62;
      }

      .cls-47 {
        fill: #b0ba5e;
      }

      .cls-48 {
        fill: #6aab8b;
      }

      .cls-49 {
        fill: #a1be75;
      }

      .cls-50 {
        fill: #617344;
      }

      .cls-51 {
        fill: #788b5c;
      }

      .cls-52 {
        fill: #9fb28e;
      }

      .cls-53 {
        fill: #6aac8b;
      }

      .cls-54 {
        fill: #856754;
      }
    </style>
  </defs>
  <!-- Generator: Adobe Illustrator 28.7.1, SVG Export Plug-In . SVG Version: 1.2.0 Build 142)  -->
  <g>
    <g id="Layer_1">
      <g>
        <path class="cls-16" d="M435.24,68.05c.82,2.18,1.64,4.36,2.46,6.54,4.43,18.52,10.99,36.4,16.5,54.59,8.68,28.67,17.73,57.22,26.95,85.72,1.47,4.54-.45,5.58-3.85,6.93-21.95,8.68-43.85,17.49-65.77,26.26-11.12,6.75-22.89,11.7-36.04,12.72-3.22-1.92-3.58-5.36-4.3-8.48-11.62-49.98-24.75-99.61-35.43-149.81-.81-3.83-2.12-7.55-2.67-11.44-.04-.68.09-1.33.37-1.95,3.31-2.75,6.14-.1,8.98,1,9.8,3.8,8.97,5.24,13.8-5.08,1.36-2.91,2.51-6.13,6.33-6.79,3.96-.2,7.22,1.83,10.35,3.71,4.83,2.9,7.53,1.55,9.52-3.38,1.22-3.02,2.54-6.07,4.69-8.62,4.62-3.43,8.2.27,11.9,1.98,7.86,3.63,7.7,3.73,11.27-4.11,1.57-3.45,2.42-7.57,6.76-9,6.91,1.4,13.35,3.73,18.19,9.21Z"/>
        <path class="cls-22" d="M258.72,579.32c4.51-1.42,1.98-3.66.62-5.68-7.85-11.7-15.76-23.36-23.55-35.09-1.26-1.89-3.39-3.52-2.8-6.28,3.6-2.62,7.73-3.89,12.01-4.94,41.36-10.17,82.98-19.21,124.34-29.39,2.98-.73,6.02-1.17,9.04-1.4,2.61-.2,5.59.03,4.37,4.2-9.39,32.25-18.75,64.51-28.19,96.75-7.23,24.71-14.56,49.39-21.88,74.07-.67,2.27-1.62,4.47-2.45,6.7-4.35.45-5.18-3.46-6.84-5.92-17.67-26.34-35.32-52.7-53.14-78.94-3.43-5.04-6.59-10.27-11.53-14.06Z"/>
        <path class="cls-36" d="M232.85,338.84c-15.24-8.05-30.33-16.38-45.79-23.99-5.8-2.85-5.98-5.13-2.39-10.01,9.04-12.3,17.5-25.03,26.43-37.42,2.86-3.98,4.74-8.2,5.65-12.94,8.26-9.29,15-19.72,22.12-29.85,26.66-37.96,53.89-75.51,80.65-113.39,1.36-1.93,2.62-6.51,6.66-2.55,1.24,2.94,1.28,6.05.83,9.06-1.66,11-1.39,22.26-4.32,33.09-6.48,16.98-14.74,33.18-22.49,49.58-19.45,41.16-38.05,82.71-57.35,123.94-2.39,5.1-4.18,10.66-9.01,14.25-.32.08-.65.16-.98.23Z"/>
        <path class="cls-37" d="M258.72,579.32c4.16-.45,6.15,2.26,8.17,5.28,19.85,29.72,39.77,59.39,59.7,89.06,1.08,1.61,2.42,3.06,3.64,4.58-1.82,12.62-6.98,24.36-9.62,36.76-.73.66-1.58.95-2.57.79-7.38-4.46-13.97-9.72-17.88-17.69-33.43-30.34-66.86-60.68-100.28-91.02-7.46-3.82-14.69-7.89-17.17-16.81,13.73-3.43,27.9-4.03,41.81-6.4,11.33-1.93,22.8-3.06,34.2-4.55Z"/>
        <path class="cls-36" d="M239.61,89.08c4.19-8.92,7.58-18.13,10.41-27.57,3.33-5.45,4.83-11.66,7.06-17.55,1.35-3.57,3.15-5.88,6.89-7.08,8.07-2.58,16.03-5.52,24.04-8.32,14.64-4.36,29.25-8.83,43.42-14.58,6.87-5.85,15.58-6.8,23.84-8.91,1.28-.33,2.5.45,3.41,1.47,4.54,10.35,8.94,20.75,11.28,31.88-.05,2.25-.94,4.24-2.21,6.01-5.29,7.4-10.34,14.97-15.23,22.64-1.16,1.82-2.59,3.48-4.65,4.42-4.37.65-5.67,4.26-7.45,7.53-1.93,3.53-2.72,8.09-7.56,9.28-4.24-.47-7.7-2.87-11.25-4.86-3.65-2.04-5.82-1.69-7.6,2.31-1.57,3.54-3.02,7.21-5.52,10.29-4.65,3.41-8.23-.3-11.94-2.01-7.24-3.34-7.07-3.44-10.84,3.73-1.76,3.36-2.54,7.55-6.74,9.16-4.42.15-7.84-2.5-11.46-4.37-4.37-2.26-6.85-1.1-8.62,3.28-1.53,3.77-2.43,8.05-6.51,10.25-7.55-.52-13.69-4.1-19.23-8.95,2.15-6.02,4.31-12.03,6.46-18.05Z"/>
        <path class="cls-42" d="M310.35,750.51c47.8,8.04,95.61,16.08,144.84,24.36-6.09,3.34-11.52,2.14-16.45,2.81-15.31,2.08-30.79,2.94-46.18,4.43-16.04,1.56-32.04,3.39-48.08,4.94-15.61,1.51-31.25,2.78-46.87,4.25-11.92,1.13-23.81,2.59-35.74,3.57-9.71.8-18.95-2.52-28.37-4.08-32.46-5.37-64.87-11.02-97.29-16.65-8.07-1.4-16.28-2.07-25.87-5.03,24.23-2.38,46.76-4.44,69.26-6.86,22.08-2.37,44.11-5.23,66.18-7.65,10.83-1.19,21.7-1.93,32.57-2.75,2.71-.2,5.22-.53,7.12-2.7,3.45-.13,4.05,2.86,5.19,5.01,3.15,5.95,6.04,12.04,9.16,18.01.97,1.85,1.41,4.24,4.02,4.74,7.8.75,15.59.56,24.03-.12-6.47-6-14.5-9.06-20.17-15.19-2.16-4.44-2.19-8.36,2.66-11.11Z"/>
        <path class="cls-1" d="M324.83,107.38c-15.34,21.47-30.73,42.9-46.02,64.4-19.47,27.38-38.84,54.83-58.33,82.19-.74,1.04-1.91,4.68-3.71.52,2.19-35.94,4.35-71.87,6.59-107.81.43-6.96-.4-14.01,1.51-20.86,5.11-1.59,8.59,2.18,12.48,4.11,3.82,1.9,5.6,1.23,7.63-2.48,2.19-4,2.11-9.61,7.48-11.56,6.62.23,11.52,4.37,17.19,6.81,2.87-4.73,4.22-11.13,8.85-15.68,2.67-1.19,5.02-.09,7.41,1q10.89,4.96,16.91-5.83c1.16-2.08,2.21-4.25,4.78-4.98,6.54,1.24,12.39,3.92,17.45,8.29.25.67.18,1.3-.21,1.9Z"/>
        <path class="cls-9" d="M277.34,450.72c-5.32-10.79-8.68-22.35-13.24-33.44-1.06-2.58-1.52-5.51-3.69-7.56-1.9-1.57-3.11-3.6-3.96-5.89-6.89-18.58-14.36-36.95-21.21-55.55-1.04-2.81-3.39-5.96-.15-9,1.99-.76,3.91-.26,5.71.54,18.73,8.28,37.79,15.82,56.17,24.9,1.16.58,2.21,1.39,3.25,2.18,8.75,10.98,15.53,23.28,23.41,34.86,10.22,15.02,20.15,30.25,29.88,45.59,3.71,5.85,3.21,7.11-2.96,9.48-18.53-.42-37.05-1.21-55.46-3.23-5.92-.65-12.39,1.34-17.76-2.88Z"/>
        <path class="cls-36" d="M377.02,309.75c9.21,17.36,18.42,34.71,27.61,52.08,3.76,7.11,3.73,7.15-4.13,7.27-5.46.08-10.93.05-16.39.13-2.13.03-4.48-.39-5.85,1.98-12.54,1-25.07,2.22-37.68,1.61-2.62-.13-5.24-.3-7.28-2.31-1.89-2.66-1.87-5.75-1.87-8.79-.04-22.22.02-44.44-.05-66.67-.02-4.99,2.05-9.87.61-14.89,1.37-9.26.5-18.63,1.17-27.93-.41-4.52-.75-9.04.81-13.44,4.54-4.07,5.63.85,6.96,3.12,5.3,9.05,10.35,18.25,15.42,27.43,6.85,11.13,12.61,22.88,19.18,34.17,1.14,1.96,1.66,4,1.49,6.23Z"/>
        <path class="cls-4" d="M333.97,370.19c10.63.05,21.24.44,31.87-.57,4.11-.39,8.68-1.8,12.43,1.6.65,17.2,1.31,34.4,1.97,51.61,2.71,4.39.97,9.66,2.83,14.23.28,1.12.39,2.26.27,3.41-.12,4.15-.02,8.3-.05,12.46.06,4.43-.45,8.9,1.1,13.21.18.74.24,1.49.19,2.25.11,6.01-.2,12.02.23,18.01.37,2.78,1.22,5.58-.09,8.34-3.64,2.7-5.09-.7-6.57-2.71-4.26-5.8-8.17-11.84-11.89-18.01-4.11-6.82-8.7-13.31-13.95-19.33,4.87-1.63.97-3.84.07-5.24-9.59-14.88-19.43-29.6-29.06-44.45-7.94-12.25-15.7-24.63-23.53-36.95.23-.33.46-.65.69-.98,11.45-2.04,22.65-1.5,33.48,3.12Z"/>
        <path class="cls-45" d="M382.66,467.73c-.07-.41-.08-.82-.04-1.23-1.36-4.2-.28-8.51-.62-12.76-.35-4.52.74-9.11-.63-13.59-.03-.86-.05-1.71-.08-2.57-.29-4.31-2.39-8.79,1.22-12.72,28.09-8.02,56.18-16.04,84.26-24.07,5.79,4.24,10.18,9.34,10.57,16.94-31.08,26.36-62.17,52.71-93.25,79.07-.2-.13-.4-.27-.6-.4-.18-.5-.04-.89.43-1.15-.36-2.65-.72-5.3-1.08-7.94.67-6.53.95-13.06-.2-19.58Z"/>
        <path class="cls-48" d="M382.75,500.73c-.85-3.62-3.26-2.58-5.68-2.02-27.63,6.47-55.27,12.9-82.9,19.33-20.39,4.75-40.79,9.48-61.18,14.22,14.05-18.32,28.09-36.64,42.17-54.94,2.52-3.28,5.17-6.47,7.76-9.71,2.79-2.45,5.81-1.27,8.7-.4,27.86,8.35,55.82,16.4,83.66,24.81,3.19.96,5.98,2.64,8.62,4.63,0,0,.21.14.21.14-.13,1.42-.19,2.87-1.36,3.93Z"/>
        <path class="cls-4" d="M235.51,340.01c1.35,10.91,7.12,20.29,10.54,30.48,4.44,13.2,10.65,25.76,14.36,39.23-8.7,2.31-17.4,4.63-26.11,6.94-1.4,1.39-2.77,2.85-4.72,3.45-11.28,3.48-22.73,6.34-34.19,9.16-1.72.42-3.49.35-4.94-.98,9.18-21.53,20.13-42.21,30.08-63.36,4.09-8.7,8.21-17.39,12.31-26.09,0,0,.22,0,.22,0,1.47-.99,2.28-.6,2.43,1.16Z"/>
        <path class="cls-45" d="M383.9,496.65c-31.33-9.21-62.65-18.43-93.99-27.59-2.28-.67-4.66-.97-7-1.45-1.86-5.63-3.72-11.26-5.58-16.89,20.49-.15,40.83,2.57,61.27,3.37,4.57.18,9.14.4,13.72.6,3.65,1.14,6.18,3.4,8.26,6.74,6.12,9.83,12.63,19.43,18.96,29.13,1.2,1.83,2.19,3.82,4.4,4.68-.01.47-.03.94-.04,1.4Z"/>
        <path class="cls-16" d="M186.84,617.47c-7.16,8.7-16.67,14.84-24.74,22.56-2.07,1.98-3.26,3.84-3.13,6.61-4.3,1.67-6.98,5.53-10.72,7.95-1.89,1.23-3.38,3.44-6.15,2.55,2.79-16.11,5.55-32.23,8.38-48.34,1.35-7.73,2.91-15.43,4.19-23.17.57-3.49,1.68-5,5.5-3.46,7.08,2.87,14.3,5.4,21.46,8.08,4.53,6.28,5.09,13.82,6.7,21.02.5,2.27-.2,4.31-1.47,6.2Z"/>
        <path class="cls-16" d="M310.35,750.51c-1.12,3.39-3.86,6.57-1.32,10.42-2.01,6.17-2.54,12.87-6.5,18.35-4.5-2.94-5.19-8.25-7.64-12.45-3.36-5.76-6.31-11.77-9.44-17.67-3.77-7.85-7.39-15.78-11.38-23.52-1.59-3.08-1.42-4.87,1.51-6.98,6.86-4.97,13.46-10.3,20.17-15.48,7.99,2.86,15.09,7.45,22.41,11.6.82.07,1.63.15,2.45.22-3.42,11.84-6.84,23.67-10.26,35.51Z"/>
        <path class="cls-45" d="M190.46,428.29c14.61-3.88,29.23-7.75,43.84-11.62-6.2,25.61-12.39,51.21-18.6,76.81-.61,2.5-.75,5.19-2.62,7.24-2.57.37-3.57-1.56-4.1-3.34-3.67-12.42-9.44-24.28-10.08-37.5-2.47-8.26-4.97-16.51-7.38-24.79-.64-2.2-1.88-4.35-1.08-6.79Z"/>
        <path class="cls-54" d="M377.02,309.75c-7.34-13.1-14.67-26.19-22.01-39.29-.63-2.41.89-3.84,2.64-4.71,5.83-2.91,11.67-5.93,18.48-5.7,11.8-3.99,23.59-7.98,35.39-11.98-11.5,20.56-23,41.11-34.51,61.67Z"/>
        <path class="cls-1" d="M508.71,357.23c-13.41,1.5-26.82,3-40.23,4.51-1.73.19-3.45.54-5.18.65-7.62.47-7.67.36-4.9-6.65,3.05-7.7,6.18-15.37,9.04-23.15,1.33-3.61,2.8-4.7,6.68-2.85,11.41,5.42,23.02,10.41,34.55,15.56,2.79,1.67,1.8,4.69,2.54,7.09.1.66.07,1.31-.05,1.97-.38,1.33-1.05,2.41-2.44,2.88Z"/>
        <path class="cls-1" d="M539.2,348.22c17.63-1.7,34.87-5.8,52.3-8.75,4.82-.81,7.02-.86,5.58,5.01-1.4,5.71-2.16,11.59-2.99,17.43-.67,4.71-2.35,6.78-7.72,5.39-15.64-4.03-31.42-7.56-47.14-11.28-.97-.1-1.62-.63-2.06-1.47-.18-.57-.26-1.15-.23-1.75.4-1.7.45-3.58,2.26-4.57Z"/>
        <path class="cls-21" d="M205.31,52.21c1.08.52,4.38-1.58,2.71,2.14-1.24,2.78-2.87,5.39-4.32,8.07-8.42,13.8-16.83,27.6-26.01,42.65-4.74-13.46-9.12-25.89-13.5-38.32-.35-.34-.48-.69-.38-1.04.1-.36.21-.54.32-.54,12.38-5.1,25.53-7.68,38.21-11.82,1.01-.33,1.98-.77,2.97-1.16Z"/>
        <path class="cls-38" d="M127.59,61.3c8.48-14.12,16.96-28.25,25.6-42.63,1.99,2.04,1.65,4.73,2.31,7.05,2.57,13.19,5.14,26.38,7.7,39.56-.49.48-1.04.59-1.67.31-12.87,2.28-25.74,4.57-39.41,6.99,2.13-4.4,3.8-7.84,5.47-11.28Z"/>
        <path class="cls-1" d="M529.61,338.66c6.49-12.15,14.82-23.13,22.16-34.74,1.26-1.99,2.28-2.84,4.63-1.36,8.98,5.67,18.07,11.17,28.16,17.37-15.78,8.09-30.49,15.63-45.2,23.17-3.16-1.68-7.17-1.48-9.75-4.45Z"/>
        <path class="cls-1" d="M539.3,361.05c15.6,6.86,31.18,13.78,46.83,20.52,3.7,1.6,2.63,3.07.54,5.1-5.5,5.33-11.07,10.61-16.34,16.17-2.84,3-4.43,2.15-6.54-.73-8.16-11.1-16.48-22.09-24.75-33.12-2.15-2.72-2.51-5.38.25-7.94Z"/>
        <path class="cls-1" d="M521.79,410.04c-3.38-.16-6.76-.32-10.15-.48-.77-1.17-.88-2.49-.61-3.78,2.48-12.19,4.33-24.52,8.46-36.33.81-1.27,1.97-2.06,3.37-2.54.68-.2,1.38-.26,2.09-.22,2.52.79,5.66-.24,7.5,2.55,3.42,12.43,9.47,23.85,13.75,35.95.56,1.6,1.8,3.02,1.35,4.88h-18.78c-2.34,1.74-4.67,1.71-6.99-.03Z"/>
        <path class="cls-21" d="M69.68,351.98c-5.5,3.62-7.7,9.83-11.51,14.78-2.48,3.22-4.74,6.62-8.09,11.33-4.3-21.62-8.28-41.59-12.25-61.55.44-.32.88-.65,1.33-.97,10.72,9.6,21.43,19.2,32.15,28.8,3.89,3.48,2.01,5.73-1.62,7.61Z"/>
        <path class="cls-38" d="M73.52,344.24c5.81-13.05,11.62-26.1,17.43-39.15.45.06.9.12,1.36.18,4.34,19.49,8.68,38.99,13.02,58.48.77,1.66.78,2.91-1.55,2.92-7-4.81-13.97-9.65-21-14.41-1.93-1.31-3.63-3.28-6.37-2.78-1.75-.11-2.68-1.17-3.2-2.72-.23-.88-.32-1.75.3-2.53Z"/>
        <path class="cls-1" d="M509.07,338.92c-6.87-7.03-13.72-14.08-20.61-21.09-2.13-2.17-2.18-3.5,1.14-4.37,11.41-3.01,22.79-6.13,34.16-9.26,4.71-1.3,3.25,2.12,3.08,4.15-.85,10.23-2.49,20.4-2.18,30.71.35.73.17,1.29-.55,1.68-.66.25-1.34.32-2.04.24-4.36-.48-9.11,1.43-13-2.05Z"/>
        <path class="cls-1" d="M479.93,387.25c-5.11-4.29-10.22-8.57-16.43-13.79,15.85-3.52,30.47-6.76,45.08-10.01,2.46,1.64,4.55,3.77,7.12,5.26,1.37,2.28.16,4.18-.97,6.03-4.41,7.22-8.98,14.35-13.3,21.62-2.4,4.04-5.36,4.98-9.04,1.98-4.31-3.51-9.82-5.7-12.46-11.09Z"/>
        <path class="cls-38" d="M546.84,61.39c1.85-14,3.69-28,5.54-42,1.03-.62,1.34-4.3,3.33-.82,8.67,15.17,17.42,30.3,25.91,45.57,2.6,4.67-1.41,3.95-3.78,3.55-9.02-1.53-18.01-3.29-27-4.97-1.81.99-3.41,1.35-3.99-1.33Z"/>
        <path class="cls-20" d="M507.61,44.03c12.73,5.92,25.45,11.83,38.18,17.75.63.84,1.1,1.75,1.3,2.78-2.12,8.51-3.89,17.17-9.5,24.32-2.17,2.48-1.65,6.3-4.25,8.64-3.07-2.75-3.66-6.89-6.01-9.96-3.3-.87-3.57-4.09-4.98-6.42-4.61-7.64-8.41-15.71-12.43-23.67-1.48-2.92-2.82-5.88-2.39-9.29.53-1.37-1.99-2.81.09-4.15Z"/>
        <path class="cls-16" d="M198.91,459.87c3.81,11.71,7.67,23.41,11.4,35.15.66,2.07.95,4.23,2.78,5.7.22,2.76-1.24,3.82-3.82,4.11-5.78.64-11.54,1.44-17.31,2.17-3.06-3.91-7.25-6.58-10.88-9.86-1.66-1.5-4.12-2.59-3.59-5.54.81-.28,1.97-.31,2.37-.88,6.91-9.93,14.26-19.59,19.05-30.84Z"/>
        <path class="cls-15" d="M177.5,491.59c3.65,2.96,7.49,5.72,10.87,8.96,1.73,1.65,5.56,2.58,3.59,6.45-2.82.31-5.69.38-8.44.99-10.08,2.25-19.28.77-27.62-5.64-2.03-1.56-3.93-2.7-3.13-5.69,1.79-6.68,3.51-13.38,5.44-20.8,6.84,5.58,13.06,10.65,19.28,15.73Z"/>
        <path class="cls-54" d="M479.93,387.25c5.34,2.54,9.58,6.66,14.31,10.07,1.79,1.29,2.99,2.38,4.56-.32,5.44-9.34,11.05-18.58,16.59-27.86,1.82-1.68,3.64-1.69,5.44.02-2.76,13.53-5.05,27.17-9.19,40.39-.44.06-.89.12-1.33.19-3.74.13-7.13-.99-10.52-2.5-6.91-3.08-13.87-6.03-20.84-8.97-2.17-.92-4.48-1.74-5.44-4.25,1.47-2.89,3.98-4.8,6.42-6.77Z"/>
        <path class="cls-16" d="M473.51,394.02c12.27,5.24,24.53,10.48,36.8,15.72-10.69,3.88-22.04,5.04-32.96,8-3.52-5.65-7.05-11.3-10.57-16.94,1.72-2.77,3.95-5.04,6.73-6.77Z"/>
        <path class="cls-53" d="M252.53,116.46c-2.14,4.23-4.6,8.33-6.34,12.72-1.84,4.63-4.01,5.97-8.58,3.11-4.02-2.52-8.48-4.34-12.74-6.47,1.63-6.73,5.89-12.29,8.29-18.68,6.95,1.41,12.43,6.33,19.24,8.07.32.25.45.52.38.81-.07.3-.15.45-.25.45Z"/>
        <path class="cls-23" d="M161.54,65.59c.56-.1,1.11-.21,1.67-.31.3-.11.61-.15.93-.1.02.53.04,1.05.06,1.58-2.22,6.37-.81,12.95-1.04,19.42-.28,7.97-.07,15.97-.07,25.15-4.99-3.87-7.53-7.95-9.92-11.95-2.98-4.99-6.68-8.37-12.63-8.85,7.57-2.75,10.62-9.59,14.3-15.85,1.88-3.21,4.46-5.82,6.93-8.53l-.23-.57Z"/>
        <path class="cls-23" d="M545.82,64.06c-.01-.76-.03-1.52-.04-2.28.34-.16.7-.29,1.06-.39,1.03,1.37,2.63,1,4,1.33-.1.45-.21.9-.31,1.35,3.64,8.43,9.44,15.61,13.66,23.71-6.71,4.36-11.12,11.32-18.59,16.72v-15.61c-3.43-4.45-2.53-9.33-1.28-14.17.91-3.51,2.06-6.95,1.5-10.66Z"/>
        <path class="cls-51" d="M73.82,346.73c.87.92,1.74,1.84,2.6,2.75,7.8,9.79,15.59,19.58,24.65,30.96-8.73-1.82-15.48-3.23-22.23-4.64-.56-.33-1.36-.55-1.59-1.1-3.72-9-7.23-18.04-3.44-27.97Z"/>
        <path class="cls-13" d="M161.77,66.16c-3.1,7.53-8.17,13.94-11.96,21.07-2.2,4.14-6.09,2.5-9.27,3.3-5.31-.5-10.75.07-17.35-1.86,13.57-7.92,26.07-15.21,38.58-22.51Z"/>
        <path class="cls-23" d="M73.82,346.73c.38,9.91,2.37,19.55,5.03,29.07-5.7,3.52-11.41,7.05-18.17,11.23,1.43-13.04,7.99-23.36,9.01-35.04.93-2.46,3.49-4.57,1.62-7.62.74-.04,1.48-.09,2.22-.13.1.83.19,1.66.29,2.49Z"/>
        <path class="cls-30" d="M564.18,87.78c-5.17-1.17-5.45-6.45-8.02-9.77-2.52-3.26-4.28-7.11-6.44-10.66-.88-1.45-1.76-2.75.8-3.29,10.39,5.81,20.77,11.63,31.98,17.9-6.34,3.16-12.44,4.16-18.32,5.81Z"/>
        <path class="cls-15" d="M142.1,657.15c3.97-3.32,7.97-6.61,11.88-9.99,1.62-1.4,2.99-3.6,4.99-.51,1.49,9.2,2.98,18.39,4.47,27.59-7.76-5.38-16.03-9.46-21.34-17.09Z"/>
        <path class="cls-2" d="M528.36,421.75c.07,6.99.11,13.97.24,20.96.04,2.46-.27,4.18-3.43,4.22-3.22.04-4.23-1.32-4.12-4.32.39-10.47.69-20.94,1.02-31.41,4.06-1.67,6.22-.77,5.9,4.08-.14,2.14-.41,4.35.39,6.46Z"/>
        <path class="cls-6" d="M186.84,617.47c-1.74-9.07-3.48-18.15-5.22-27.22.37-.11.73-.11,1.09.02,4.68,6.67,11.92,10.72,17.17,16.81-4.3,3.52-7.68,8.2-13.03,10.39Z"/>
        <path class="cls-34" d="M545.82,64.06c2.1,8.3-.61,16.55-.22,24.83-2.67,0-5.34,0-8.01-.02,2.74-8.27,5.49-16.55,8.23-24.82Z"/>
        <path class="cls-17" d="M532.46,369.23c-2.49-.68-5.37.91-7.59-1.32,2.48-6.25,6.79-10.67,13.12-13.05.41.38.83.76,1.24,1.15.02,1.68.05,3.35.07,5.03-.08,2.65-.17,5.29-.25,7.94-2.2.08-4.39.16-6.59.25Z"/>
        <path class="cls-28" d="M520.83,369.17c-1.81,0-3.63-.02-5.44-.02-4.31.55-7.25-.54-6.81-5.69.04-2.07.08-4.15.13-6.22.42-.78.85-1.56,1.27-2.34,6.38,2.31,10.6,6.82,13.18,12.98-.42,1.07-1.4,1.13-2.32,1.29Z"/>
        <path class="cls-35" d="M524.77,340.03c0-.33-.03-.66-.12-.98,1.66-.13,3.31-.26,4.97-.39,3.21,1.56,9.03-2.59,9.74,4.45-.05,1.7-.11,3.41-.16,5.11-.46,1.67.55,3.74-1.36,5.01-6.06-2.71-10.52-7.01-13.07-13.2Z"/>
        <path class="cls-19" d="M509.07,338.92c4.7.67,9.61-1.22,14.17,1.15-2.62,6.12-7.02,10.48-13.11,13.14-2.42-2.28-.68-5.33-1.46-7.91.13-2.13.27-4.25.4-6.38Z"/>
        <path class="cls-3" d="M318.17,714.78c-7.46-1.83-13.98-5.88-20.92-8.94-1.17-.51-1.43-1.53-1.49-2.66,1.47-1.69,2.94-3.39,4.41-5.08,6,5.56,12.01,11.12,18.01,16.69Z"/>
        <path class="cls-27" d="M528.36,421.75c-1.29-1.7-1.09-3.72-.94-5.61.32-4.07-1.52-5.51-5.35-4.94-.12-.39-.21-.78-.28-1.17,2.33,0,4.66.02,6.99.03-.14,3.9-.28,7.8-.42,11.69Z"/>
        <path class="cls-52" d="M382.52,424.86c-2.21,4.07-.74,8.49-1.22,12.72-2.29-4.77-1.09-9.8-1.07-14.75.76.68,1.52,1.35,2.28,2.03Z"/>
        <path class="cls-40" d="M103.78,366.67c1.2-.61,1.27-1.82,1.55-2.92.98,1.18,1.88,2.66.79,3.93-.85.99-1.79-.07-2.34-1.01Z"/>
        <path class="cls-14" d="M357.78,7.18c17.35,8.56,34.69,17.12,52.04,25.66,2.34,1.15,4.72,2.21,7.07,3.32,3.01,1.59,6.02,3.18,9.03,4.77-1.12,6.96-4.46,12.82-8.95,18.12-4.56,1.63-7.82-1.58-11.5-3.15-2.58-1.1-5.09-2.39-7.65-3.56-7.47-3.05-15.14-5.57-22.64-8.56-2.67-1.07-5.2-2.27-6.9-4.73-2.05-8.63-5.73-16.69-8.6-25.04-.77-2.23-1.28-4.55-1.91-6.83Z"/>
        <path class="cls-29" d="M416.71,58.6c2.86-6,5.01-12.38,9.22-17.67,5.81,2.94,14.8,4.62,16.6,9.16,2.05,5.16-4.42,11.94-7.29,17.96-6.12-2.76-12.23-5.51-18.35-8.27-.5-.19-.69-.42-.58-.71.12-.31.25-.46.4-.46Z"/>
        <path class="cls-18" d="M376.14,260.06c-5.17,2.11-10.38,4.16-15.51,6.37-2.13.92-4.6,1.5-5.61,4.03-5.2-9.09-10.4-18.19-15.6-27.28-1.18-2.07-1.83-4.5-4.09-5.8-4.23-4.13-1.5-9.37-2.28-14.05-.14-7.91-.59-15.82-.75-23.74,1.5-8.58,1.91-17.15-.14-25.71-1.51-9.97-.48-19.98-.53-29.97-.54-14.41-.3-28.83-.11-43.24.05-3.53-.4-7.53,2.62-10.47,5.91,18.93,9.53,38.43,14.26,57.65,8.9,36.19,17.52,72.45,26.23,108.69.31,1.28.39,2.6,1.51,3.51Z"/>
        <path class="cls-15" d="M373.38,137.31c-5.46-2.13-11.64-.87-16.96-3.65,4.75-7.75,12.9-11.43,19.82-16.59,2.43-1.81,5.46-2.69,7.76-4.75,1.95-1.66,3.96-2.88,6.41-.87,3,1.62,3.75,4.73,4.68,7.55,4.36,13.22,9.27,26.25,13.74,39.43.75,2.2,2.01,4.47.22,6.79-5.83-1.99-7.63-8.05-11.84-11.69-5.23-4.53-7.54-11.94-14.54-14.71-3.36,1.08-6.49.79-9.29-1.51Z"/>
        <path class="cls-18" d="M399.58,108.67c.5-.46.99-.93,1.49-1.39,3.51-1.78,7.49-2.08,11.11-3.53,6-.99,11.65-3.46,17.69-4.22,2.78-.35,5.64-1.13,8.01,1.22-2.08,6.14-5.77,11.4-9.13,16.84-3.19,3.92-4.52,8.59-5.43,13.44-5.61,3.22-5.95,10.25-10.37,14.33-4.9-4.44-14.54-30.87-13.37-36.68Z"/>
        <path class="cls-5" d="M399.58,108.67c4.46,12.23,8.91,24.46,13.37,36.69,1.84,7.12,6.36,13.42,6.5,21.07-1.7,3.61-4.56,3.85-7.9,2.73-.83-1.31-1.67-2.62-2.5-3.93-6.21-17.93-12.43-35.85-18.64-53.77,2-4.42,5.74-3.09,9.17-2.77Z"/>
        <path class="cls-7" d="M334.13,90.2c-.03,17.93-.07,35.86-.1,53.79-2.75,4.34-6.75,6.97-11.56,8.51-.65-.01-1.17-.29-1.55-.81,1.22-14.78,4.04-29.41,3.9-44.31.02-.43.03-.85.03-1.28.67-6.63,3.07-12.52,7.56-17.5.72-.28,1.25-.08,1.59.62,0,.33.03.66.12.98Z"/>
        <path class="cls-21" d="M416.71,58.6c.12.38.19.77.18,1.17-3.51,4.24-4.97,9.52-7.16,14.41-1.53,3.44-3.13,3.59-6.44,2.16-4.97-2.14-9.05-6.8-15.21-5.82-.9-.68-1.11-1.61-1.03-2.67,1.63-4.29,3.92-8.29,5.67-12.54,1-2.43,2.33-4.82,5.56-4.82,6.14,2.71,12.27,5.41,18.41,8.12Z"/>
        <path class="cls-29" d="M387.99,67.95c.03.85.07,1.71.1,2.56-2.76,5.5-3.7,14.14-8.96,15.49-4.53,1.16-10.74-4.23-16.21-6.72-1.09-.3-1.85-.96-2.17-2.07.26-6.13,3.97-10.81,6.76-15.85.99-1.79,2.86-3.09,4.87-2.53,5.96,1.66,12.1,3.2,15.61,9.12Z"/>
        <path class="cls-48" d="M361.61,77.21c.44.69.87,1.38,1.3,2.07-4.99,2.93-5.45,8.65-7.75,13.15-1.8,3.51-3.08,4.39-6.81,2.6-4.63-2.21-9.02-5.24-14.34-5.81-.33-.1-.66-.17-1.01-.21-.4-.36-.53-.7-.37-1.03.15-.32.3-.48.44-.48,3.82-3.95,5.37-9.2,7.68-13.97,1.51-3.1,3.24-4.18,6.4-2.85,5.59.46,10.44,2.58,14.45,6.53Z"/>
        <path class="cls-45" d="M448.24,185.09c2.41,1.89.12,2.94-.81,4.1-5.32,6.64-10.8,13.16-16.04,19.86-2.69,3.44-5.47,4.91-10.05,3.49-9.35-2.89-18.86-5.23-28.31-7.79.29-1.1,1.05-1.72,2.12-2,7.87-1.66,15.94-1.44,23.88-2.6,4.21-.61,8.01-1.93,11.3-4.56,5.46-4.38,11.6-7.58,17.91-10.5Z"/>
        <path class="cls-50" d="M448.24,185.09c-6.97,6.24-14.57,11.85-22.79,16.04-5.42,2.76-12.27,2.17-18.57,2.18-4.14.01-8.27.11-12.41.18-1.27.33-1.6-.18-1.19-1.34,3.62-.71,7.58-.75,10.6-3.01,13.18-9.88,29.25-10.41,44.37-14.04Z"/>
        <path class="cls-33" d="M373.38,137.31c3.32-.85,6.44-.52,9.29,1.51,1.37,2.46,2.94,4.86,1.93,7.91-1.13,3.41-3.39,5.64-6.98,5.93-3.57.29-6.48-1.32-7.81-4.67-1.74-4.39-.44-8.06,3.57-10.68Z"/>
        <path class="cls-39" d="M423.33,131.02c-3.01-7.47-1.96-10.06,5.43-13.44,4.38.4,7.5,2.45,8.39,6.94.68,3.39-.96,5.95-3.68,7.8-3.71,2.52-7.04,1.35-10.14-1.3Z"/>
        <path class="cls-24" d="M384,112.31c-8.14,8.47-18.41,14.2-27.58,21.34-.8-6.42.75-10.98,7.77-13.38,6.7-2.29,12.79-6.32,19.81-7.96Z"/>
        <path class="cls-8" d="M437.88,100.74c-8.76,1.33-17.52,2.66-26.28,3.99-1.39.54-1.59-.12-1.31-1.29,6.89-2.56,13.81-5.06,20.68-7.7,5-1.92,7.19-.24,6.91,5Z"/>
        <path class="cls-25" d="M411.56,169.15c2.63-.91,5.27-1.82,7.9-2.73.8,3.07.75,7.32-1.64,8.15-2.65.92-4.68-2.88-6.26-5.43Z"/>
        <path class="cls-11" d="M410.3,103.45c.44.43.87.86,1.31,1.29-3.27,1.86-6.97,1.94-10.54,2.54,2.58-2.47,5.94-3.08,9.23-3.83Z"/>
        <path class="cls-12" d="M393.28,202.15c.4.45.79.89,1.19,1.34-.48.42-.95.84-1.43,1.27-1.22-.39-3.45.84-3.49-1.08-.02-1.26,2.17-1.66,3.73-1.53Z"/>
        <path class="cls-1" d="M235.51,340.01c-.81-.39-1.62-.77-2.43-1.16,16.8-32.1,30.52-65.65,46.12-98.32,14.1-29.52,27.83-59.22,41.73-88.84,0,0-.02.54-.02.54,1.86,1.67,1.66,3.86,1.52,6.04-.48,7.57-1.35,15.11-2.39,22.62-1.29,10.22-1.36,20.57-3.09,30.74-.12,6.94-1.09,13.8-2.18,20.64-1.3,6.35-1.01,12.85-1.72,19.26-.55,4.93-1.62,9.78-1.86,14.74-.12,8.56-1.06,17.02-2.94,25.36-.86,2.86-1.58,5.75-.61,8.75.14,1.63-.22,3.16-.82,4.66-1.44,2.48-1.15,5.08-.51,7.7.14,1.87-.37,3.62-.95,5.35-1.33,2.56-.94,5.19-.34,7.84.13,1.95-.41,3.78-.97,5.61-1.52,2.87-.42,5.78-.09,8.68-.07,7.15-1.13,14.2-1.81,21.29-.21,2.16-.41,4.33-2.31,5.83.02.24,0,.47-.04.7-21.43-9.35-42.86-18.69-64.29-28.04Z"/>
        <path class="cls-16" d="M361.61,77.21c-5.42-.84-9.93-3.7-14.45-6.53,7.46-10.26,14.64-20.72,21.13-31.63,10,3.81,20.01,7.63,30.01,11.44-5.27,4.74-4.89,12.82-10.31,17.47-6.05-2.23-12.18-9.27-17.43-6.85-4.5,2.08-6.08,10.49-8.94,16.11Z"/>
        <path class="cls-53" d="M307.62,97.98c-3.07,3.46-4.65,7.79-6.34,11.92-2.23,5.46-5.06,5.99-9.87,3.14-3.86-2.29-8.18-3.8-12.3-5.66-.43-.2-.6-.45-.53-.75.08-.32.18-.48.3-.48,3.04-3.74,4.79-8.21,6.6-12.55,1.87-4.5,3.78-5.7,8.53-3.16,4.16,2.23,7.96,6.13,13.45,5.1.89.76.99,1.57.15,2.44Z"/>
        <path class="cls-37" d="M278.89,106.15c.01.42.08.83.22,1.23-.79,1.79-1.53,3.6-2.38,5.37q-6.23,12.94-18.99,6.41c-1.74-.89-3.48-1.8-5.22-2.7-.02-.42-.06-.84-.14-1.26,1.76-3.76,3.8-7.42,5.22-11.31,1.89-5.15,4.31-7.05,9.55-3.59,3.62,2.39,7.8,3.93,11.73,5.84Z"/>
        <path class="cls-29" d="M307.62,97.98c-.05-.82-.1-1.63-.15-2.44q7.4-18.12,24.64-8.9c.37.2.65.57.97.86-.02.51-.05,1.01-.07,1.52-2.46,5.81-4.76,11.71-8.15,17.08-5.75-2.71-11.49-5.41-17.24-8.12Z"/>
        <path class="cls-31" d="M302.54,779.29c1.02-6.52.86-13.47,6.5-18.35,7.63,5.24,15.27,10.48,23.94,16.44-10.86,3.04-20.71,1.63-30.44,1.91Z"/>
        <path class="cls-7" d="M305.02,304.68c.38-1.38.75-2.76,1.13-4.15-.56-2.67-1-5.33.89-7.71,7.55-6.26,15.31-12.15,25.53-13.28,3.01.59,2.98,2.95,2.64,5.11-2.54,16.26-.7,32.62-1.13,48.92-.32,12.2-.09,24.42-.11,36.62-11.38-.95-22.75-1.9-34.13-2.84-.29-9.63,1.27-19.11,2.42-28.62-.66-2.6-.85-5.18.14-7.75.39-1.8.78-3.61,1.17-5.41-.65-2.59-.84-5.18.14-7.74.39-1.81.77-3.62,1.16-5.43-.64-2.58-.82-5.16.14-7.71Z"/>
        <path class="cls-9" d="M332.56,279.54c-8.26,4.47-16.52,8.95-24.78,13.42-.53.49-1,.41-1.41-.16.91-8.76,1.81-17.52,2.72-26.28,7.29-7.17,15.08-13.42,25.91-14.09.02,6.95-.04,13.9.09,20.85.05,2.53-.34,4.71-2.53,6.26Z"/>
        <path class="cls-49" d="M335,252.43c-9.21,3.64-17.07,9.77-25.91,14.09,1.16-11.41,2.33-22.82,3.49-34.22,5.44-.56,9.68-3.84,14.3-6.27,2.61-1.38,4.86-3.94,8.33-2.99.04,4.78.07,9.56.11,14.34-.11,5.01-.21,10.03-.32,15.05Z"/>
        <path class="cls-43" d="M382.66,467.73c2.23,6.51,1.93,13.04.2,19.58-.06-6.53-.13-13.05-.2-19.58Z"/>
        <path class="cls-10" d="M381.38,440.15c2.56,4.16.74,8.75,1.26,13.11-.41.69-.8.67-1.17-.04-.03-4.36-.06-8.71-.1-13.07Z"/>
        <path class="cls-44" d="M381.47,453.22c.39.02.78.04,1.17.04,0,4.41-.01,8.82-.02,13.24-2.37-4.25-.93-8.83-1.15-13.27Z"/>
        <path class="cls-32" d="M510.13,353.2c4.37-4.38,8.74-8.76,13.11-13.14.51-.01,1.02-.02,1.53-.03,4.36,4.4,8.72,8.8,13.07,13.2.05.55.1,1.09.15,1.64-4.37,4.35-8.75,8.7-13.12,13.05-.57-.01-1.14-.02-1.71-.04-4.39-4.33-8.78-8.66-13.18-12.99.05-.56.1-1.13.15-1.69Z"/>
        <path class="cls-9" d="M335.21,223.04c-6.12,3.56-12.25,7.12-18.36,10.69-1.98,1.16-3.65,1.48-4.26-1.43.6-6.99,1.21-13.98,1.81-20.97,4.25-7.19,11.54-9.71,18.81-12.27.27.15.54.31.81.46,1.58,7.78.96,15.67,1.2,23.51Z"/>
        <path class="cls-9" d="M317.86,181.18c1.01-9.65,2.03-19.3,3.04-28.95,4.38-2.75,8.75-5.49,13.13-8.24,0,10.13.01,20.25.02,30.38-.07.31-.14.63-.22.94-3.09,4.3-7.55,6.9-12.07,9.28-3.51,1.85-4.75.21-3.91-3.41Z"/>
        <path class="cls-41" d="M334.05,174.37c2.01,8.39,2.08,16.77-.04,25.16,0,0-.05-.04-.05-.04-4.28-8.36-3.69-16.71.03-25.06l.06-.05Z"/>
        <path class="cls-49" d="M334,174.42c-.01,8.35-.02,16.71-.03,25.06-6.25,4.4-13.71,6.8-19.57,11.84,1.16-10.05,2.31-20.1,3.47-30.15.21,2.45.8,3.59,3.42,1.69,4.12-2.98,8.46-5.65,12.71-8.45Z"/>
        <path class="cls-46" d="M306.37,292.81c.47.05.94.1,1.41.16-1.8,2.25-1.21,5.02-1.64,7.57-1.55-2.63-1.72-5.21.23-7.73Z"/>
        <path class="cls-46" d="M302.4,330.97c-.05,2.58-.09,5.17-.14,7.75-1.65-2.62-1.76-5.2.14-7.75Z"/>
        <path class="cls-26" d="M303.71,317.82c-.05,2.58-.09,5.16-.14,7.74-1.65-2.61-1.75-5.2.14-7.74Z"/>
        <path class="cls-47" d="M305.02,304.68c-.05,2.57-.09,5.15-.14,7.72-1.63-2.6-1.73-5.18.14-7.72Z"/>
      </g>
    </g>
  </g>
</svg>