<?xml version="1.0" encoding="UTF-8"?>
<svg xmlns="http://www.w3.org/2000/svg" version="1.1" viewBox="0 0 600 500">
  <defs>
    <style>
      .cls-1 {
        fill: #8c6d5a;
      }

      .cls-2 {
        fill: #be9c82;
      }

      .cls-3 {
        fill: #c7ad48;
      }

      .cls-4 {
        fill: #c9a2b7;
      }

      .cls-5 {
        fill: #797b7c;
      }

      .cls-6 {
        fill: #b4954f;
      }

      .cls-7 {
        fill: #838484;
      }

      .cls-8 {
        fill: #98793a;
      }

      .cls-9 {
        fill: #ba987d;
      }

      .cls-10 {
        fill: #f3efe4;
      }

      .cls-11 {
        fill: #705061;
      }

      .cls-12 {
        fill: #607344;
      }

      .cls-13 {
        fill: #799a5b;
      }

      .cls-14 {
        fill: #a9cb86;
      }

      .cls-15 {
        fill: #8b779c;
      }

      .cls-16 {
        fill: #b59145;
      }

      .cls-17 {
        fill: #b09047;
      }

      .cls-18 {
        fill: #ac8a9b;
      }

      .cls-19 {
        fill: #f2ede1;
      }

      .cls-20 {
        fill: #d9bda8;
      }

      .cls-21 {
        fill: #9f89b5;
      }

      .cls-22 {
        fill: #8c789d;
      }

      .cls-23 {
        fill: #a8914a;
      }

      .cls-24 {
        fill: #745f85;
      }

      .cls-25 {
        fill: #899167;
      }

      .cls-26 {
        fill: #b3944d;
      }

      .cls-27 {
        fill: #cabcb4;
      }

      .cls-28 {
        fill: #dcdcdb;
      }

      .cls-29 {
        fill: #6f5061;
      }

      .cls-30 {
        fill: #b28e43;
      }

      .cls-31 {
        fill: #574564;
      }

      .cls-32 {
        fill: #bdc55c;
      }

      .cls-33 {
        fill: #6e4f60;
      }

      .cls-34 {
        fill: #7c9d5e;
      }

      .cls-35 {
        fill: #a3886a;
      }

      .cls-36 {
        fill: #bb987e;
      }

      .cls-37 {
        fill: #564763;
      }

      .cls-38 {
        fill: #a9924a;
      }

      .cls-39 {
        fill: #ac899b;
      }

      .cls-40 {
        fill: #dcaf5e;
      }

      .cls-41 {
        fill: #b8a59b;
      }

      .cls-42 {
        fill: #725a2d;
      }

      .cls-43 {
        fill: #e6e688;
      }

      .cls-44 {
        fill: #9f8ab5;
      }

      .cls-45 {
        fill: #866754;
      }

      .cls-46 {
        fill: #765e2e;
      }

      .cls-47 {
        fill: #e4cbb9;
      }

      .cls-48 {
        fill: #8d7553;
      }

      .cls-49 {
        fill: #dbdf6d;
      }

      .cls-50 {
        fill: #31302f;
      }

      .cls-51 {
        fill: #ebebea;
      }

      .cls-52 {
        fill: #c5d896;
      }

      .cls-53 {
        fill: #f6f3eb;
      }

      .cls-54 {
        fill: #8e677b;
      }

      .cls-55 {
        fill: #bc997e;
      }

      .cls-56 {
        fill: #788a5d;
      }

      .cls-57 {
        fill: #2e2d2d;
      }

      .cls-58 {
        fill: #998646;
      }

      .cls-59 {
        fill: #787a7a;
      }

      .cls-60 {
        fill: #71592d;
      }

      .cls-61 {
        fill: #ac8a9c;
      }

      .cls-62 {
        fill: #e6e687;
      }

      .cls-63 {
        fill: #745f84;
      }

      .cls-64 {
        fill: #554463;
      }

      .cls-65 {
        fill: #474748;
      }

      .cls-66 {
        fill: #7f6472;
      }

      .cls-67 {
        fill: #574664;
      }

      .cls-68 {
        fill: #725a2e;
      }

      .cls-69 {
        fill: #bec65f;
      }

      .cls-70 {
        fill: #8b6c59;
      }

      .cls-71 {
        fill: #fbf9f5;
      }

      .cls-72 {
        fill: #564663;
      }

      .cls-73 {
        fill: #876855;
      }

      .cls-74 {
        fill: #bb997e;
      }

      .cls-75 {
        fill: #a1be76;
      }

      .cls-76 {
        fill: #806d92;
      }

      .cls-77 {
        fill: #a68961;
      }

      .cls-78 {
        fill: #886f57;
      }

      .cls-79 {
        fill: #9e814c;
      }

      .cls-80 {
        fill: #705162;
      }

      .cls-81 {
        fill: #d9bda7;
      }

      .cls-82 {
        fill: #d9aa55;
      }

      .cls-83 {
        fill: #f5f2e9;
      }

      .cls-84 {
        fill: #8a779c;
      }

      .cls-85 {
        fill: #e4e486;
      }
    </style>
  </defs>
  <!-- Generator: Adobe Illustrator 28.7.1, SVG Export Plug-In . SVG Version: 1.2.0 Build 142)  -->
  <g>
    <g id="Layer_1">
      <g>
        <path class="cls-14" d="M598.3,380.85c2.22.58.76,1.86.36,2.66-4.03,8.16-8.18,16.26-12.21,24.42-.86,1.75-2.21,2.59-3.92,3.24-20.41,7.81-40.8,15.65-61.2,23.48-9.15-1.33-17.88-4.34-26.77-6.7-13.99-3.72-28.01-7.33-41.91-11.36-.7-.08-1.38-.25-2.05-.46-5.41-1.54-10.82-3.07-16.19-4.75-1.51-.48-3.09-.79-4.23-2.04-3.27-9.88-5.36-20.06-7.82-30.15-.76-3.13-1.44-6.28-2.27-9.39-.28-1.06-.22-2.46-1.86-2.58-15.65,3.81-31.09,8.41-46.67,12.44-3.37.87-6.63,2.4-10.27,1.89-1.52-.62-2.17-1.88-2.41-3.39-1.49-9.05-2.79-18.13-4.08-27.21-.12-.88,0-1.74.51-2.51,6.63.89,13.24,1.91,19.89,2.59,9.04.92,18.03,2.35,27.11,2.89,12.74,2.79,25.73,4.08,38.57,6.28,10.68,1.83,21.42,3.29,32.14,4.88,16.31,2.04,32.65,3.78,48.97,5.72,21.57,2.56,43.16,5.01,64.74,7.5,3.94.45,7.79,1.37,11.58,2.54Z"/>
        <path class="cls-13" d="M153.42,454.28c-25.87-12.53-51.75-25.05-77.6-37.61-6.18-3-12.3-6.16-18.44-9.24,1.53-1.83,3.8-2.15,5.89-2.69,16.18-4.21,32.3-8.61,48.44-12.97,1.84-.5,3.8-.38,5.59-1.13,27.74-7.63,55.5-15.17,83.33-22.44,11.2-3.6,22.71-6.07,33.99-9.37,1.26-.37,2.56-.72,3.9-.42,1.82,1.68.04,2.86-.73,3.97-2.59,3.7-5.86,6.84-8.8,10.25-1.98,2.29-3.95,4.62-5.99,6.87-6.2-.38-11.99-2.93-18.17-3.37-1.16.13-1.75.99-2.27,1.87-3.26,5.53-6.58,11.03-9.71,16.63-.66,1.18-1.91,2.6.45,3.47,15.56,3.71,30.99,7.85,46.48,11.77,1.95.49,4.11.61,5.53,2.39.45,2.45-1.6,2.87-3.07,3.54-27.2,12.45-54.45,24.8-81.6,37.36-2.27,1.05-4.65,1.73-7.21,1.11Z"/>
        <path class="cls-75" d="M153.42,454.28c5.57-.56,10.14-3.77,15.04-5.96,24.98-11.2,49.83-22.71,74.71-34.13.78-.36,1.44-.96,2.16-1.45.53-.58,1.22-.76,1.97-.77,19.08,6.6,38.79,11.51,56.2,22.43,9.43,5.91,19.4,10.96,29.19,16.29,3.05,1.66,6.23,2.45,9.71,2.28,11.74-.57,23.43.76,35.16.89,2.26.02,4.33.66,6.31,1.68,5.34,2.76,10.92,5.08,15.98,8.37,5.98,3.89,12.89,4.63,19.59,6.18,1.75.41,4.35-.27,4.92,2.59-16.97-1.02-33.94-2.01-50.9-3.08-10.09-.64-20.17-1.45-30.26-2.14-25.3-1.74-50.59-3.48-75.89-5.16-15.21-1.01-30.43-1.89-45.65-2.89-22.23-1.46-44.46-2.97-66.69-4.48-.53-.04-1.04-.43-1.56-.65Z"/>
        <path class="cls-56" d="M117.39,391.59c-20,5.28-40.01,10.56-60.01,15.84-16.23-8.81-32.45-17.63-48.69-26.42-1.26-.68-1.97-1.65-2.34-3.01-1.82-6.64-3.57-13.31-5.57-19.89-.63-2.05-.28-2.91,1.78-3.39,36.81-8.61,73.62-17.25,110.43-25.88,1.76.18,1.56,1.58,1.42,2.64-1.06,8.24-1.91,16.53-4.38,24.51-1.64,1.8-4,1.71-6.1,2.1-13.99,2.63-27.95,5.39-42.97,8.23,4.16,2.16,7.63,3.57,11.04,5.04,14.69,6.34,29.29,12.9,44.01,19.18.55.24,1.03.55,1.39,1.03Z"/>
        <path class="cls-56" d="M239.15,358.91c-12.64,3.62-25.55,6.25-37.99,10.56-15.16-3.96-30.06-8.82-45.07-13.29-1.94-.58-4.09-.87-5.05-3.1-.42-5.27.17-10.53.52-15.75.43-6.43.62-12.86,1.05-19.29.08-1.23-.25-2.76,1.6-3.12-.25,2.76.68,3.52,3.71,3.39,24.45-1.03,48.92-1.79,73.38-2.62,15.82-.53,31.64-1.03,47.46-1.55-.27,3.19-2.78,5.01-4.61,7.14-8.49,9.8-17.28,19.34-25.61,29.27-1.96,1.93-3.92,3.85-5.58,6.07-.91,1.22-1.8,2.75-3.8,2.27Z"/>
        <path class="cls-81" d="M325.55,157.9c2.99,7.22,7.53,13.57,11.78,20.02,13.86,21,25.61,43.11,35.78,66.1.97,2.18,1.45,3.8-1.51,4.74-1.9.61-3.66,1.68-5.48,2.55-12.55,7.13-25.83,12.73-38.88,18.81-.8.37-1.67.51-2.56.34-1.76-.53-2.39-2.09-3.09-3.52-8.93-18.34-18.6-36.31-27.72-54.57-.83-1.66-2.65-3.44-.64-5.54,5.57-1.02,10.76,1.01,16.09,1.94,2.25,1.28,5.03,2.43,1.29,5.2-1.35,1.14-2.05,2.57-.84,4.08,1.4,1.74,3,1.09,4.45-.14,1.35-2.33,2.77-2.23,4.89-.66,3.79,2.79,6.75,6.45,10.46,9.29,1.14.81,2.33,1.56,3.43,2.42,1.23.88,2.41,2.64,4.02,1.65,1.38-.85.43-2.63.3-4.01-1.16-4.95-4.44-8.84-6.6-13.29-.92-1.9-2.78-3.52-1.84-6,1.11-.83,2.21-.05,3.31.04,1.52.11,2.55-.56,2.84-2.03.26-1.34-.54-2.23-1.74-2.6-1.57-.49-2.42.46-2.93,1.8-.35.93-.41,1.99-1.25,2.7-2.27.03-2.63-1.67-3.03-3.33,2-4.51,4.87-8.52,7.17-12.86.75-1.41,2.38-2.69,1.27-4.63-3.51-1.05-7.13-1.6-10.68-2.41-3.83-.88-3.98-.62-3.32,3.42.19,1.15.53,2.27.54,3.46-.02.42-.1.84-.23,1.24-2.65,3.66-6.5,5.92-9.99,8.61-.36.24-.74.44-1.13.63-5.53,1.82-10.74,4.63-16.61,5.45-1.66.52-2.78-.47-3.94-1.38-5.65-4.44-10.88-9.35-16.43-13.91-1.19-.98-2.57-2.1-1.96-4.06,3.33-2.86,7.6-3.64,11.55-5.06,10.74-3.87,21.78-6.86,32.36-11.2,2.94-3.2,4.88-7.11,7.5-10.54.87-1.14,1.25-3.07,3.37-2.72Z"/>
        <path class="cls-64" d="M19.4,79.21c6.7-7.14,13.94-13.72,21.22-20.25,4.19.81,7.25,3.75,10.72,5.86,6.27,3.81,12.18,8.21,18.46,12.03,2.27,1.38,4.5,1.81,7.12,1.32,22.1-4.08,44.16-8.37,66.27-12.35,2.43-.43,4.85-.88,7.31-1.13.46-.07.91-.08,1.37-.04,13.23,3.13,26.09,7.56,39.16,11.24,1.1.31,2.09,1.03,3.07,1.67l.05-.03c-.34,3.05-3.02,2.85-4.96,3.35-12.51,3.24-25.07,6.23-37.63,9.27-28.53,6.91-56.92,14.35-85.47,21.18-2.24.3-4.39,1.06-6.65,1.26-1.87-.05-3.27-1.1-4.64-2.21-10.91-8.78-21.89-17.48-32.79-26.28-1.57-1.26-3.46-2.36-2.61-4.91Z"/>
        <path class="cls-13" d="M424.37,472.7c-2.6-1.47-5.55-1.58-8.38-2.01-7.35-1.12-14.04-3.77-20.27-7.81-2.32-1.51-5.07-2.37-7.42-3.84-5.29-3.31-11.01-3.89-17.15-4.19-10.83-.53-21.66-.66-32.49-.69-2.03,0-3.69-.93-5.34-1.84-15.15-8.3-30.21-16.78-45.44-24.92-8.16-4.36-17.35-6.09-25.97-9.31-4.93-1.84-9.89-3.6-14.84-5.39-.22-.85.22-1.48.88-1.79,8.14-3.86,16.16-7.97,24.54-11.3.54-.21,1.15-.14,1.73-.09,8.76,3.39,16.53,8.67,24.76,13.07,11.34,6.07,22.55,12.37,33.72,18.74,1.72.98,3.47,1.55,5.43.8,9.83-3.02,19.42-6.76,29.37-9.39.66-.15,1.31-.15,1.96.02,2.44,1.2,4.19,3.26,5.85,5.25,7.65,9.15,16.58,17.04,24.84,25.58,2.75,2.76,5.37,5.66,8.39,8.15.95.92,2.13.94,3.29.74,8.78-1.52,17.61-2.7,26.38-4.27.91-.16,2.34-.03,1.39-1.74-6.14-4.29-12.75-7.77-19.05-11.74-1.35-.85-2.88-1.48-3.87-2.83-1.37-2.86-2.45-5.79-2.31-9.04.75-1.4,2.1-2,3.47-2.51,9.03-3.41,18.02-6.95,27.01-10.46,1.22-.48,2.48-.95,3.83-.54,1.88,1.76.27,3.24-.54,4.6-3.43,5.79-6.91,11.55-10.53,17.22-1.75,2.74-1.26,4.32,1.18,6.17,5.25,3.97,10.33,8.16,15.45,12.3,1.31,1.06,3.08,1.91,2.67,4.11-8.85,3.09-17.73,6.12-26.54,9.32-2.17.79-4.02-.31-6.03-.36Z"/>
        <path class="cls-64" d="M87.35,184.28c-13.49-.56-26.99-1.22-40.49-1.62-2.79-.08-4.44-.77-5.85-3.36-6.79-12.48-13.83-24.82-20.78-37.22,1-2.99,3.38-1.54,5.06-1.31,10.77,1.49,21.51,3.23,32.26,4.89,18.01,2.78,36.02,5.5,54.01,8.4.99.15,1.95.39,2.91.67,13.16,2.39,26.2,5.38,39.31,8.05,1.84.37,3.81.6,5.21,2.13.68,1.62-.44,2.49-1.49,3.26-7.68,5.66-15.47,11.17-23.27,16.66-1.21.85-2.61,1.33-4.11,1.48-12.9.97-25.72-1.23-38.61-.75-1.5.06-2.86-.55-4.15-1.28Z"/>
        <path class="cls-63" d="M112.11,155.12c-10.68-1.53-21.38-2.99-32.05-4.61-14.56-2.21-29.11-4.54-43.67-6.81-4.75-.74-9.52-1.44-14.26-2.23-.83-.14-1.42-.07-1.9.61-1.47-.87-1.63-2.24-1.63-3.79.03-18.9.02-37.8.03-56.7,0-.86-.08-1.78.76-2.39,2.01,4.92,6.96,6.79,10.61,9.93,8.48,7.29,17.38,14.08,26.14,21.04.9.72,2,1.18,3,1.77,4.83,1.74,8.15,5.66,12.03,8.69,12.8,10.03,25.48,20.22,38.11,30.47,1.29,1.05,3.21,1.75,2.81,4.02Z"/>
        <path class="cls-21" d="M61.01,38.79c6.87-2.19,14.08-2.35,21.13-3.38,20.88-3.07,41.82-5.75,62.73-8.6.87-.12,1.74-.45,2.3.58,2.91,9.14,2.82,18.74,4.17,28.12.46,3.22,1.95,6.6-.41,9.74v.02c-8.39,1.24-16.84,1.26-25.3,1.19-12.71-.1-25.42.15-38.12-.12-2.53-.31-4.16-2.09-5.61-3.87-5.53-6.81-12.06-12.64-18.12-18.94-1.29-1.34-2.89-2.55-2.77-4.73Z"/>
        <path class="cls-36" d="M270.83,187.78c6.97,6.79,14.04,13.48,22.3,18.75l-.13.39c2.28,7.47,6.48,14.04,9.91,20.96,6.43,12.99,13.15,25.83,19.77,38.72.59,1.15,1.37,2.21,2.07,3.31-.05,2.08-1.86,2.54-3.22,3.05-3.07,1.14-3.03,2.8-1.63,5.32,2.11,3.8,3.98,7.74,5.88,11.65.75,1.54,1.77,3.06,1.09,4.94-.24.42-.59.7-1.06.85-8.51-.51-16.76-2.57-25.11-4.06-1.01-.18-1.94-.66-2.55-1.58-2.59-5.6-5.17-11.2-7.76-16.8-.73-4.76-.29-9.58-.71-14.35.47-3.32-.68-6.52-.75-9.8.51-2.08,1.77-3.76,3.29-5.11,2.87-2.54,2.15-4.48-.3-6.87-8.41-8.21-16.65-16.59-24.98-24.89-2.4-2.39-4.6-4.94-6.34-7.86-.38-1.17-.26-2.36.38-3.34,2.9-4.43,4.66-9.6,8.59-13.38.43-.14.85-.12,1.25.11Z"/>
        <path class="cls-75" d="M456.94,463.74c-4.91-5.42-11.04-9.4-16.7-13.91-6.16-4.91-6.25-4.67-2.27-11.31,3.73-6.22,8.01-12.13,11.14-18.71.21-1.09,1.05-1.96,1.93-1.95,2.19.02.88-1.65,1.38-2.4,22.25,5.93,44.5,11.86,66.74,17.83.8.21,1.47.9,2.2,1.36-21.47,9.7-42.94,19.39-64.41,29.09Z"/>
        <path class="cls-65" d="M261.19,204.51c11.05,11.24,22.06,22.51,33.17,33.69,1.68,1.69,1.99,2.94.28,4.69-1.82,1.87-3.5,3.88-5.24,5.83-4.73.53-8.11-2.88-12.19-4.26-4.54-1.53-7.52-.41-9.19,4.05-.67,1.78.48,2.66,1.37,3.82,1.43,1.87,4.24,2.83,3.94,5.86-9.14-1.09-18.27-2.29-27.42-3.21-2.43-.24-3.23-1-3.22-3.43.11-15.36.09-30.72.12-46.07.24-.78.68-1.38,1.46-1.69,4.52-.98,9.16-.18,13.7-.98,1.37-.24,2.5.47,3.22,1.71Z"/>
        <path class="cls-52" d="M402.36,354.55c-3.29,1.89-6.61,0-9.81-.23-10.55-.78-21.05-2.17-31.54-3.55-1.86-.24-4.16-.35-5.33-2.46-2.96-5.74-3.6-11.85-2.97-18.18,4.04-4.69,9.44-7.71,14.28-11.42.69-.53,1.59-.74,2.49-.38,8.63,1.18,17.26,2.35,25.89,3.53,6.77.93,13.53,1.88,20.29,2.82.95,2.01-.48,3.41-1.52,4.63-2.79,3.26-2.64,6.28-.38,9.8,1.44,2.24,3.12,4.58,2.97,7.54-4.12,3.84-8.54,7.16-14.37,7.89Z"/>
        <path class="cls-52" d="M598.3,380.85c-8.84-.98-17.68-1.94-26.51-2.94-8.98-1.02-17.97-2.07-26.95-3.12-11.44-1.34-22.88-2.73-34.32-4.06-8.84-1.03-17.69-1.98-26.53-3-3.72-.43-7.5-.43-11.09-1.73.22-1.11,1.04-1.75,1.91-2.29,6.76-4.22,13.65-8.24,20.28-12.23-3.14-.8-7-.2-9.98-2.77-.29-4.27,2.73-6.88,4.97-9.89.2-.08.39-.16.59-.24,35.25,13.73,70.49,27.46,105.74,41.21.67.26,1.26.71,1.89,1.08Z"/>
        <path class="cls-7" d="M270.83,187.78c-.29,0-.57,0-.86.02-9.26.07-18.34-.98-27.04-4.39,14.66-12.12,29.29-24.27,44-36.33,4.62-3.79,8.94-7.96,14.06-11.13,1.11.54,1.91,1.44,2.3,2.55,3.94,11.19,8.85,22.01,12.46,33.32-5.23,2.99-11.14,4.14-16.73,6.16-9.36,3.38-18.79,6.55-28.19,9.8Z"/>
        <path class="cls-84" d="M231.15,164.73c-.61.3-1.21.6-1.82.9-9.2,1.62-18.4,3.26-27.52,5.24-5.3,1.15-8.78-.05-11.79-4.68-4.86-7.47-10.21-14.62-15.36-21.89-1.01-1.43-2.09-2.84-2.27-4.68.14-2.29,2-3.08,3.61-4,8.1-4.59,15.93-9.65,24.08-14.16,2.31-1.28,4.28-2.99,6.46-4.44,2.14.33,2.49,2.27,3.3,3.75,6.67,12.18,13.18,24.44,19.94,36.57,1.28,2.3,2.5,4.64,1.36,7.4Z"/>
        <path class="cls-28" d="M457.87,115.48c.56,1.12,1.87.59,3.16,1.54-6.94,2.48-13.53,4.92-20.18,7.2-8.17,2.8-16.4,5.39-24.56,8.23-2.25.78-4.17.66-6.32-.29-8.82-3.92-17.73-7.64-26.54-11.59-2.28-1.02-4.26-.57-6.34.23-5.74,2.19-11.51,4.29-17.19,6.63-3.34,1.37-6.23,1.29-9.6-.35-10.78-5.26-21.74-10.13-32.63-15.16.79-2.85,3-1.7,4.64-1.45,9.74,1.46,19.44,3.16,29.14,4.82,2.96.51,5.8.39,8.73-.17,15.89-2.99,31.78-5.92,47.68-8.88,2.5-.47,4.94-.48,7.43.02,11.52,2.34,23.05,4.61,34.61,6.77,2.75.51,5.32,1.61,7.96,2.45Z"/>
        <path class="cls-39" d="M109.32,356.31c1.36-8.5,2.7-17.01,4.1-25.5.13-.79.2-1.42-.44-1.97,2.86-6.83,2.9-14.23,4.19-21.36,2.38-13.06,4.27-26.2,6.37-39.31-1.79-4.53.54-8.83.85-13.24.19-2.79.14-5.92,2.69-8.04.93-5.87,1.85-11.74,2.78-17.61.98-.06,1.32.64,1.63,1.37,1.24,9.08,3.2,18.06,3.91,27.22.08,14.72-2.01,29.28-3.12,43.91-1.16,15.22-2.48,30.43-3.91,45.63-.71,7.57-.55,15.26-2.54,22.69-1.44,1.62-3.22,1.05-4.9.69-3.43-.75-6.86-1.48-10.28-2.33-2.93-.73-4.27-2.33-3.62-5.38.5-2.34-.29-5.12,2.28-6.76Z"/>
        <path class="cls-51" d="M457.87,115.48c-10.32-.99-20.57-2.9-30.45-5.64-12.05-3.35-23.48-1.89-35.21.55-11.68,2.43-23.4,4.75-35.18,6.62-4.88.77-9.76-1.26-14.64-2-7.62-1.15-15.2-2.59-22.8-3.89-.77-.13-1.44.13-1.92.79-2.87-1.83,0-2.19.82-2.55,5.63-2.49,11.32-4.83,16.99-7.21,6.35-2.65,12.81-5.07,19.03-8.02,3.24-1.54,6.09-1.18,9.23-.18,6.7,2.12,13.58,3.75,20.13,6.24,6.35,2.41,11.7-.93,17.47-1.92,1.29-.22,2.57-.68,3.76-1.22,7.61-3.48,14-.25,20.7,3.11,10.58,5.31,21.82,9.27,32.06,15.33Z"/>
        <path class="cls-33" d="M134.21,257.45c-1.02-6.93-1.94-13.88-3.11-20.78-.37-2.19-.51-4.35-.49-6.55,3-.26,4.36,2.2,5.81,3.97,5,6.11,10.57,11.68,16.4,16.93,4.34,3.91,5.52,8.24,4.39,13.61-1,16.76-2.01,33.52-3.01,50.28-1.67,1.99-.29,4.24-.45,6.35-.83,10.77-1.31,21.56-1.91,32.34,1.5,3.67,2.57,7.32-.57,10.75-1.84-1.05-1.68-3-1.95-4.66-4.75-29.12-9.34-58.27-13.86-87.42-.76-4.91-.52-9.91-1.25-14.83Z"/>
        <path class="cls-64" d="M172.86,139.34c6.88,9.84,13.8,19.66,20.62,29.55,1.16,1.68,2.46,1.64,4.16,1.33,9.05-1.66,18.12-3.24,27.18-4.87,1.54-.28,3.09-1.16,4.51.27-10.75,6.58-21.53,13.11-32.21,19.79-1.77,1.11-2.99,1.02-4.66-.03-4.96-3.1-10.02-6.03-15.05-9.02-3.06.24-4.49-2.86-7.13-3.46-2.89-1.39-5.55-3.19-8.31-4.79-1.45-.84-2.57-1.89-2.95-3.59-1.14-3.98-1.16-8.16-1.2-12.16-.1-10.23-1.55-20.4-1.1-30.63.06-.74.22-1.45.55-2.11.85-1.31,1.82-.8,2.46.08,4.61,6.39,9.9,12.33,13.13,19.64Z"/>
        <path class="cls-84" d="M61.01,38.79c3.3,3.46,6.51,7.03,9.94,10.36,5.21,5.06,10.04,10.45,14.68,16.03,1.5.91,3.16.45,4.74.45,16.46.04,32.92-.01,49.38.09,1.32,0,3.26-1.15,4.03,1.15-22.91,4.29-45.82,8.57-68.72,12.93-1.44.27-2.61.15-3.74-.59-10.24-6.74-20.47-13.5-30.7-20.26,6.52-7,13.2-13.83,20.38-20.17Z"/>
        <path class="cls-21" d="M65.42,110.28c30.12-7.46,60.24-14.92,90.36-22.38,11.51-2.85,23.01-5.71,34.53-8.53,1.43-.35,2.9-.51,3.85-1.83,1.84,3.53.43,7.31.79,10.95.24,2.44.18,4.92.25,7.38-.16.21-.33.42-.49.63-.68.46-1.44.67-2.24.73-13.54,1.62-27.08,3.26-40.62,4.89-27.23,3.27-54.47,6.48-81.71,9.74-1.71.2-3.88,1.13-4.71-1.58Z"/>
        <path class="cls-33" d="M369.47,318.34c-5.25,3.81-10.5,7.62-15.74,11.42-2.75-.53-2.5-2.94-2.79-4.81-.8-5.05-1.65-10.1-2.29-15.17-3.54-5.56-7.84-10.57-11.65-15.93-.98-1.38-2.5-2.6-1.73-4.65,11.54-.09,22.9,2.06,34.38,2.83,8.51-1.3,16.88.45,25.29,1.22,1.61.15,3.71-.19,4.07,2.32-9.08,6.92-18.17,13.84-27.24,20.77-.8.61-1.53,1.33-2.29,2Z"/>
        <path class="cls-18" d="M399,295.56c-4.05-1.75-8.42-1.4-12.65-1.89-5.56-.65-11.14-1.11-16.71-1.65,2.18-.14,3.23-1.89,4.48-3.27,10.57-11.61,21.11-23.26,31.66-34.89,4.2-.97,13.96,2.33,16.06,5.44-7.36,12.25-14.27,24.78-22.85,36.26Z"/>
        <path class="cls-54" d="M247.9,350.05c4.89-7.15,11.32-12.99,16.76-19.68,4.51-5.56,9.38-10.82,14.09-16.22,4.43-4.85,8.86-9.71,13.29-14.56,1.68,1.78.97,3.83.6,5.79-1.21,6.44-2.54,12.85-3.8,19.28-1.58,8.02-3.34,16.01-4.72,24.07-.36,2.08-.34,4.48-2.75,5.63-7.46.2-14.81-1.02-22.18-1.85-3.82-.43-7.99.47-11.28-2.47Z"/>
        <path class="cls-39" d="M157.21,264.64c1.1-6.28-2.43-10.23-6.59-14.22-6.86-6.57-13.36-13.51-20.01-20.3-.25-.28-.5-.57-.75-.85-6.6-7-13.2-14-19.79-21.01-6.69-7.11-13.37-14.23-20.05-21.34,1.85-1.22,2.97.35,4.22,1.17,6.81,4.47,13.24,9.48,20.03,13.96,13.74,9.82,27.68,19.35,41.47,29.11,2.17,1.53,4.19,3.19,6,5.11.87.64.73,1.57.51,2.38-2.32,8.53-4.18,17.15-5.04,25.97Z"/>
        <path class="cls-3" d="M416.38,346.56c-.18-.4-.3-.84-.55-1.18-4.9-6.86-7.13-13.73-.17-20.69,2.49-1.26,2.55-5.06,5.8-5.53,5.87-1.45,11.59.49,17.32,1.04,10.14.97,20.27,1.98,30.42,2.84,3.3.28,6.24-1.11,9.05-2.74,1.61-.3,2.79.17,3.6,1.72,2.91,5.54,5.89,11.03,8.84,16.55-.14.05-.27.12-.4.19-1.88,2.62-4.81,2.86-7.62,3.39-2.61-.11-3.74-2.1-4.86-3.98-1.65-2.77-3.35-5.53-4.78-8.41-1.35-2.71-3.04-3.15-5.66-1.77-7.27,3.81-14.31,8.06-21.87,11.31-1.97.76-4.04-.07-6.01.41-1.11,3.87-4.12,5.62-7.6,6.8-.92.31-1.97.71-2.6-.56-.06-2.47,1.93-3.84,3.09-5.65,1.76-2.74.13-8.35-3.31-11.08-2.2-1.75-7.39-1.37-9.24.99-1.45,1.85-4.31,3.64-2.97,6.34,1.96,3.94,3.64,8.66,9.46,8.51,3.27,1.96,3.37,2.75.4,4.57-1.86,1.14-3.79,2.17-5.92,2.79-3.59-.35-4.57-2.66-4.39-5.84Z"/>
        <path class="cls-21" d="M231.15,164.73c.33-4.99-3.35-8.29-5.38-12.21-6.19-11.89-12.79-23.56-19.24-35.32-3.53-1.94-3.9-5.96-5.8-8.97-2.38-3.76-4.97-7.51-5.81-12.05,0,0,.27-.32.27-.32,11.39,6.93,22.76,13.87,34.16,20.79,1.54.94,2.78,1.78,2.77,3.99-.1,13.93-.05,27.86-.04,41.79,0,.89,0,1.78-.93,2.29Z"/>
        <path class="cls-84" d="M150.93,65.24c-.24-9.88-2.33-19.56-3.19-29.38-.25-2.82-.38-5.65-.57-8.48,15.65,16.73,31.29,33.45,46.94,50.18-9.59-1.86-18.73-5.33-28.14-7.87-5.05-1.36-10.03-2.96-15.04-4.46Z"/>
        <path class="cls-54" d="M161.74,236.29c-16.25-10.76-32.22-21.91-47.88-33.51-.12-.28-.27-.63-.12-.84,4.86-6.64,10.75-12.16,17.9-16.29,1.49.25,2.17,1.45,2.82,2.56,4.28,7.33,9.02,14.39,12.95,21.93,2.36,5.08,6.31,9.3,8.03,14.73,2.1,3.81,4.2,7.61,6.3,11.42Z"/>
        <path class="cls-63" d="M40.68,238.95c-1.24-.46-2.2-1.13-1.89-2.69,1.19-1.63,2.99-2.24,4.76-2.91,8.03-3.06,16.18-5.8,24.2-8.88,1.62-.62,3.26-1.32,5.07-1.09,2.57.9,3.53,3.32,4.86,5.33,2.47,3.74,5.24,7.27,7.37,11.23-.15,1.94-1.73,2.58-3.13,3.36-5.38,3.01-10.89,5.77-16.16,8.97-2.99,1.82-5.57,1.85-8.43-.46-5.46-4.4-11.85-7.61-16.67-12.86Z"/>
        <path class="cls-64" d="M40.68,238.95c6.11,4.22,12.25,8.39,18.31,12.68,1.26.89,2.29,1.85,3.89.88,7.22-4.36,15.11-7.54,21.95-12.56,2.77-3.37,6.76-4.79,10.57-6.46.96-.42,2.68-1.23,2.71,1.16l-3.76,8.69c0,3.37-2.17,6.08-2.78,9.26-.12.4-.34.73-.66,1-.51.24-1.39.4-1.46.73-1.3,6.17-5.69,6.96-11.05,7.04-6.28.09-12.55.9-18.82,1.42-1.5.13-2.81.16-3.84-1.33-4.91-7.11-9.91-14.15-14.84-21.24-.22-.32-.14-.85-.2-1.28Z"/>
        <path class="cls-4" d="M287.67,324.49c1.1-8.36,3.89-16.43,4.37-24.9.2-.24.39-.48.59-.72,2.19-.85,2.74,1.17,3.68,2.24,5.6,6.4,10.92,13.04,16.57,19.4,4.26,5.42,8.74,10.67,13.22,15.91,1.22,1.43,3.34,2.73,1.81,5.2-2.2.59-3.99-.67-5.83-1.44-9.7-4.09-19.45-8.04-29.2-11.99-2.02-.82-4.18-1.48-5.22-3.7Z"/>
        <path class="cls-44" d="M73.28,223.95c-11.49,4.11-22.99,8.21-34.48,12.32,5.19-9.32,11.7-17.78,17.46-26.73.62-.96,1.31-1.48,2.53-1.13,10.59,3.08,21.55,4.77,31.95,8.54-5.4,3.38-11.12,5.95-17.45,7Z"/>
        <path class="cls-15" d="M312.2,321.1c-5.87-6.86-11.73-13.73-17.63-20.57-.55-.64-1.29-1.11-1.94-1.66,1.84-2.93,3.68-5.86,5.53-8.79,9.42,1.76,18.84,3.52,28.25,5.28.14.17.27.34.41.51.48,2.13-1.02,3.54-1.89,5.17-2.96,5.52-6.22,10.87-9.28,16.33-.83,1.48-1.54,3.2-3.45,3.74Z"/>
        <path class="cls-65" d="M315.74,171.82c-4.09-5.31-5.15-11.94-7.74-17.9-2.56-5.9-4.7-11.97-7.02-17.97,10.31,2.94,19.97,7.62,30.04,11.23,1.93.69,1.73,1.52.7,2.81-2.08,2.62-4.12,5.27-6.17,7.91-3.27,4.64-6.54,9.28-9.81,13.92Z"/>
        <path class="cls-4" d="M335.26,289.2c4.19,6.87,9.5,12.91,14.17,19.43.79,2.08-.53,3.65-1.45,5.19-4.82,8.14-9.62,16.29-14.78,24.22-.85,1.31-1.67,3.92-4.03,1.38-1.01-4.28.27-8.49.54-12.69.48-7.46,1.29-14.91,1.95-22.37,1.06-3.26.1-6.7.85-9.98.47-2.09.2-4.43,1.96-6.11.26.31.53.62.79.93Z"/>
        <path class="cls-59" d="M242.93,183.41c9.03,1.35,18.11,2.38,27.04,4.39-2.77,5.65-7.25,10.41-8.78,16.71-4.29-1.5-8.56.7-12.86.06-1.56-.23-3.19,0-4.79.01-1.15-4.06.2-8.27-.74-12.34-.16-2.95-.39-5.9.13-8.83Z"/>
        <path class="cls-49" d="M433.21,184.28c3.15-2.6,2.61-6.93,4.78-10.13,4,2.11,6.86,4.82,5.69,9.9-.6,2.63.65,4.73,2.47,6.18,3.47,2.77,3.04,5.36.56,8.47-.93,1.18-2.25,2.4-2.07,4.22,3.33,1.14,7.06,1.17,9.92,3.58,1.07,1.99,6.03,1.14,3.74,5.8-1.19,2.41-2.15,2.57-4.22,1.78-5.06-1.95-10.13-3.91-15.26-5.68-1.25-.43-2.55-1.76-4.08-.54-3.98-2.23-4.81-6.24-5.8-10.18.74-1.53.67-3.28,1.28-4.85.58-1.66,1.16-3.33,1.73-5,.58-1.12.6-2.45,1.24-3.55Z"/>
        <path class="cls-45" d="M326.52,294.49c-2.7-5.63-5.22-11.34-8.16-16.84-1.49-2.8-1.55-4.3,1.83-5.26,1.62-.46,3.04-1.63,4.55-2.48,11.63-5.38,23.26-10.76,34.89-16.13,2.11-.97,4.11-2.21,6.49-2.46-.3,1.72-1.88,2.09-3.06,2.86-6.58,4.3-12.88,9.19-19.87,12.68-6.75,3.37-8.65,9.33-10.95,15.4-.29,3.4-1.69,6.48-2.81,9.64-.46,1.31-.9,2.92-2.92,2.6Z"/>
        <path class="cls-33" d="M131.61,186.02c-6.31,5.17-12.53,10.43-17.75,16.76-7.44-4.29-14.03-9.82-21.16-14.56-.84-.56-1.54-1.35-2.67-1.29-.89-.88-1.78-1.76-2.67-2.64,14.79-.62,29.52,1.26,44.3.93.19.19.24.37.17.54-.07.17-.14.26-.21.26Z"/>
        <path class="cls-74" d="M426.18,245.22c1.2-8.86,8.4-11.94,15-15.62,3.31-1.85,6.55-3.81,9.83-5.72,1.46,1.83.04,3-.56,4.14-3.8,7.28-7.75,14.48-11.54,21.77-.95,1.82-2.25,2.96-4.12,3.69-4.08,1.6-8.13,3.3-12.19,4.96-.9-4.97,1.58-9.03,3.58-13.22Z"/>
        <path class="cls-33" d="M90.9,253.61v-.14c1.07-2.2,3.25-2.21,5.21-2.52,9.44-1.45,18.74-3.84,28.36-3.97.87-.03,1.74-.06,2.61-.1-1.18,7.09-2.36,14.19-3.54,21.28-10.88-4.85-21.77-9.71-32.65-14.56Z"/>
        <path class="cls-18" d="M155.44,224.87c-3.76-4.24-6.1-9.37-8.92-14.19,4.38-7.91,9.56-15.31,14.36-22.95,2.33-3.7,4.45-7.54,7.08-11.03.83-1.11,1.52-3.02,3.61-1.75.46,1.37-.19,2.58-.58,3.83-3.45,11.03-6.48,22.18-10.39,33.06-.63,1.68-1.41,3.32-1.71,5.12-.39,2.97-1.61,5.58-3.46,7.92Z"/>
        <path class="cls-84" d="M73.28,223.95c5.68-2.68,11.37-5.33,17.45-7,2.57,4.65,5.09,9.33,7.73,13.95.82,1.44,1.02,2.63-.36,3.76-1.19-1.78-2.32-.3-3.32.18-3.36,1.62-6.65,3.4-9.96,5.12-4.97-4.53-7.55-10.77-11.55-16Z"/>
        <path class="cls-81" d="M273.32,258.19c-.84-1-1.62-2.06-2.52-3-5.59-5.83-5.53-5.76-.27-11.92,1.43-1.68,2.58-1.79,4.47-.91,4.74,2.23,9.58,4.25,14.39,6.36.71,3.13,2.71,6.15.83,9.51-1.47,2.3-4.07,2.69-6.28,3.75-4.57,1.64-7.71-.75-10.61-3.79Z"/>
        <path class="cls-17" d="M511.84,298.07q-4.82,3.73-9.64-1.44c2.39-1.41,3.82-4.88,7.61-2.87.08-.43.23-.83.23-1.24.03-10.15.05-10.06,10.24-12.6,2.08-.52,2.24.27,2.3,1.8.12,3.06.02,6.17.47,9.18.5,3.3-1.42,4.84-3.72,6.25-2.42,1.49-3.09-1.38-4.67-2-.4-.16-.73-.46-1.1-.7-.16-3.49.73-4.43,5.51-5.86-2.93-1.5-5.45-.48-6.17,2.64-.52,2.24-.76,4.54-1.06,6.83Z"/>
        <path class="cls-29" d="M159.7,212.46c3.76-12.69,7.52-25.38,11.28-38.08-.58-.82-.47-1.61.1-2.39,2.11,1.45,4.23,2.91,6.34,4.36-5.66,12.61-11.33,25.22-16.99,37.82-1.47-.06-1.17-.86-.72-1.72Z"/>
        <path class="cls-55" d="M406.65,251.26c.81-4.01,2.07-8,2.32-12.04.29-4.85,3.97-4.81,7-5.75,2.12-.66,1.87,1.42,2,2.49.51,3.92.82,7.86,1.2,11.8-2.71,3.42-6.86,3.88-10.63,5.05-.87.27-2.11,0-1.9-1.55Z"/>
        <path class="cls-61" d="M124.47,246.98c-9.36,1.73-18.73,3.46-28.09,5.22-1.85.35-3.67.84-5.5,1.26-.59-3.96,2.22-6.77,3.46-10.12.52,2.37,2.48,1.59,3.92,1.7,8.73.69,17.47,1.3,26.2,1.94Z"/>
        <path class="cls-38" d="M478.24,320.3c-1.91,3.94-5.76,4.38-9.2,4.09-14.46-1.23-28.88-2.86-43.31-4.38-1.44-.15-2.85-.56-4.27-.85,2.39-1.85,5.25-2.7,8.02-3.75,2.28.98,3.96,3.36,6.84,2.96,2.28,1,4.21.1,6.07-1.15,3.67,2.39,7.8,2.7,12.01,2.6,2.05.12,4.02.8,6.08.81,2.41.14,4.67.07,5.78-2.72.34-.86,1.26-1.17,2.19-.53.15,1.81,1.38,1.97,2.81,1.83.25-.25.53-.3.85-.16.36.25.65.59,1,.85.27.03.54.02.82-.02,1.44.14,2.88.27,4.33.41Z"/>
        <path class="cls-20" d="M406.65,251.26c1.07,1.49,2.22.64,3.4.15,3.03-1.25,6.08-2.44,9.13-3.66,2.33-.84,4.67-1.69,7-2.53-.15,4.69-2.75,8.71-3.58,13.22-.25.29-.5.58-.75.87-5.15-2.41-10.51-4.22-16.06-5.44.08-.94.04-1.92.86-2.61Z"/>
        <path class="cls-34" d="M429.46,197.59c1.77,3.42,3.54,6.84,5.31,10.26,2.55,4.36,5.11,8.71,7.66,13.07-3.89-2.22-5.98-5.83-8.5-9.06-2.97-3.82-5.93-7.67-8.6-11.69-.9-1.36-2.75-3.19-.66-5.05,2.29-2.04,2.51,1.65,4.11,1.64.42.12.65.39.68.83Z"/>
        <path class="cls-22" d="M326.52,294.49c3.39-3.39,2.84-8.62,5.73-12.24.74,2.01,1.48,4.02,2.22,6.02-.75,5.3-.42,10.73-1.83,15.96-4.04-1.52-4.37-5.66-6.15-8.77,0,0-.08-.11-.08-.11.03-.29.07-.58.11-.87Z"/>
        <path class="cls-32" d="M429.46,197.59c-.23-.28-.45-.55-.68-.83-1.48-7.21-4.53-13.93-5.78-21.88,3.4,3.13,6.81,6.27,10.21,9.4.82,1.19.02,2.36-.04,3.53-1.49.6-2.3-.85-3.84-1.25,1.19,2.18,1.45,4.42,2.07,6.57-.65,1.49-1.3,2.97-1.95,4.46Z"/>
        <path class="cls-68" d="M454.38,320.99c-2.9.03-5.75-.32-8.63-.65-2.22-.25-2.86-1.49-3.7-2.96-.51-2.16,1.24-2.56,2.57-3.28,3.81.32,7.62.64,11.42.96.07,2.15-.46,4.13-1.66,5.93Z"/>
        <path class="cls-6" d="M504.81,272.92c0-2.72-.02-5.46,0-8.2,0-.86-.02-1.91,1.26-1.8.91.08,1.02.92,1.03,1.65.05,3.65.25,7.3.05,10.93-.14,2.65-2.46,4.25-4.54,4.73-2.02.47-3.2-2.13-4.72-3.41-.67-.57-.45-1.43.28-1.82,1.67-.89,2.58-3.35,5.07-2.52.5.17.82.89,1.55.43Z"/>
        <path class="cls-26" d="M494.76,290.37c2.54,6.11,2.15,14.46-.52,16.54-1.12.88-2.26,2.82-4.01.99-1.24-1.29-4.05-2.21-3.34-3.96.69-1.7,3.05-4.09,5.08-3.3,2.79,1.08,2.08-.39,2.15-1.77.15-2.56-.52-5.17.64-8.5Z"/>
        <path class="cls-73" d="M283.94,261.97c1.17-2.79,4.18-2.51,6.28-3.75,1.79,5,1.25,10.02.18,15.06-2.15-3.77-4.31-7.54-6.46-11.31Z"/>
        <path class="cls-69" d="M454.58,206.5c-3.64-.28-7-1.33-9.92-3.58,5.12-1.05,10.25-2.09,15.94-3.25-1.27,3.41-2.1,6.42-6.01,6.83Z"/>
        <path class="cls-53" d="M511.84,298.07c.03-1.89.3-3.82.04-5.68-.47-3.39.92-4.96,4.14-5.85,4.77-1.31,4.72-1.49,4.72,3.87-3.55-1.24-5.89.08-7.18,4.04-1.49.77-.4,2.76-1.72,3.61Z"/>
        <path class="cls-82" d="M468.44,317.39c-.4.16-1.13.28-1.14.47-.37,4.54-3.54,4.25-6.72,3.97-1.64-2.31-2.33-4.49.85-6.14,2.35.51,5.2-1.05,7.01,1.7Z"/>
        <path class="cls-40" d="M436.65,319.15c-3.32.53-6.09.01-7.17-3.74,3.86-3.33,8.23-2.67,12.65-1.6-2.1,1.5-5.31,1.86-5.47,5.34Z"/>
        <path class="cls-30" d="M436.65,319.15c-1.06-4.28-.37-4.96,5.47-5.34.83.1,1.66.19,2.49.29-.86,1.09-1.71,2.19-2.57,3.28-.59,4.29-3.06,2.82-5.4,1.77Z"/>
        <path class="cls-16" d="M461.43,315.7c-2.03,1.81-.69,4.08-.85,6.14-2.06-.28-4.13-.56-6.2-.85-.1-2.16-.23-4.32,1.66-5.93,1.84-.16,3.66-.18,5.39.63Z"/>
        <path class="cls-35" d="M472.06,319.33c-.27-.04-.54-.08-.81-.11.36-2.14-.31-4.37.58-6.46.91.52.3,1.57.59,2.01.33-4.53-.48-9.31.45-14.05,1.77,3.26.42,6.76.71,10.13.26,3-.48,6.05.34,9.04,0,0-.22.32-.22.32-.88.34-1.18-.4-1.63-.88Z"/>
        <path class="cls-77" d="M472.87,300.72v16.64c-.23,0-.45.01-.68.02-.12-1.54-.24-3.08-.36-4.62.09-4.02-.74-8.05.17-12.06.29-.4.61-.42.95-.06l-.08.08Z"/>
        <path class="cls-5" d="M242.79,192.24c1.53,4.03.38,8.23.74,12.34-.24.3-.49.6-.73.9,0-4.41,0-8.82-.01-13.23Z"/>
        <path class="cls-27" d="M472.1,296.32c.03-2.24-.66-4.57,1.2-7.67-.19,3.26-.32,5.45-.45,7.64-.24.38-.49.39-.76.03Z"/>
        <path class="cls-66" d="M159.7,212.46c.24.57.48,1.15.72,1.72-.31,1.03-.46,2.14-1.52,2.77-.6-1.65-.27-3.13.8-4.49Z"/>
        <path class="cls-41" d="M472.1,296.32c.25-.02.5-.03.76-.03.03,1.45.06,2.9.09,4.35-.31.02-.63.04-.95.06.03-1.46.07-2.92.1-4.38Z"/>
        <path class="cls-54" d="M329.94,340.46c3.91-4.17,6.31-9.34,9.21-14.16,3.52-5.84,7.57-11.37,10.28-17.68.87,5.13,1.82,10.24,2.55,15.39.29,2.04.41,4.05,1.75,5.74-1.23,5.03,1.19,9.74,1.31,14.66.03,1.3.41,2.6.64,3.9,1.46,10.11,2.93,20.22,4.37,30.33.16,1.1.66,1.92,1.65,2.43-.22,2.05-2.04,1.83-3.32,2.2-7.16,2.1-14.36,4.08-21.88,6.25,14.27,2.79,28.34,4.75,42.27,7.5.41.2.7.51.89.93-.23,2.5-2.25,3.71-3.91,5.05-6.51,5.26-13.09,10.42-19.5,15.8-6.19,4.64-11.88,9.94-18.35,14.24-1.9,1.82-3.59.4-5.17-.48-17.51-9.71-34.99-19.48-52.48-29.21-1.92-1.07-3.9-2.01-5.86-3.01-.27-.54-.16-.98.32-1.34,4.8-2.02,10-2.33,15.04-3.21,11.01-1.9,21.99-3.96,33.02-5.72,6.66-1.06,7.23-1.34,6.69-8.22-1.03-13.21-.6-26.43-.87-39.64.18-.79.47-1.49,1.34-1.75Z"/>
        <path class="cls-84" d="M355.56,418.01c7.94-6.47,15.88-12.93,23.82-19.4,3.41-2.16,7.15-1.31,10.71-.87,13,1.61,13.05,1.72,18.52-10.07,3.21-6.93,6.3-13.91,9.62-20.79.29-.37.58-.74.85-1.13,1-.54,1.38.27,1.53.9,3.35,14.14,6.66,28.29,9.98,42.43.04.14.16.37.11.41-5.79,5.3-12.13,9.71-19.65,12.24-3.28-4.65-4.01-10.31-5.97-15.47-1.68-4.42-1.57-4.5-5.53-1.87-8.3,5.52-16.6,11.05-24.9,16.58-1.57,1.04-3.02,2.38-5.08,2.41-.54-.02-1.08-.04-1.62-.07-4.58-.73-9.2-1.35-12.38-5.32Z"/>
        <path class="cls-33" d="M419.07,365.75c0,.36-.02.72-.03,1.08-5.08,5.77-11.49,9.97-17.31,14.88-5.27,4.44-10.67,8.72-15.99,13.11-1.79,1.48-3.43,3.79-6.38,2.97-10.32-.93-20.43-3.12-30.63-4.83-5.22-.88-10.42-1.8-15.69-3.61,9.55-2.75,19.1-5.51,28.66-8.26,19.12-5.11,38.25-10.22,57.37-15.32Z"/>
        <path class="cls-75" d="M416.38,346.56c1.48,1.77,1.26,4.94,4.41,5.32,1.96-.04,3.95-.66,5.86.26,1.6,1.48,2.77,3.95,5.66,2.43,1.25-.35,2.17-1.36,3.42-1.72,6.25-.1,12.38,1.12,18.59,1.52,1.51.1,2.68,1.03,3.67,2.13.88,1.01,2.05,1.29,3.34,1.24,1.54.12,2.72-.86,4.06-1.35,1.7-.5,3.45-.35,5.18-.49,4.96-.87,9.69-2.14,12.7-6.71.4-.61,1.03-1.03,1.85-.86,3.92.88,7.83,1.76,12.58,2.83-8.7,5.21-16.74,10.02-24.78,14.83-11.32-.69-22.4-3.1-33.6-4.64-10.91-1.5-21.76-3.41-32.65-5.05-1.63-.25-3.17-.41-4.3-1.75,4.67-2.66,9.35-5.32,14.02-7.99Z"/>
        <path class="cls-63" d="M411.17,421.56c6.47-4.16,12.94-8.32,19.41-12.48,6.73,2.14,13.68,3.57,20.24,6.26.26,1.62-1.11,1.93-2.08,2.34-10.88,4.53-21.91,8.68-32.95,12.8-.69.26-1.42.31-2.14.05-1.92-2.69-3.66-5.43-2.48-8.97Z"/>
        <path class="cls-72" d="M413.89,430.41c10.34-4.12,20.68-8.22,31-12.37,2.01-.81,3.95-1.79,5.93-2.69.53.04,1.06.07,1.59.11,1.81,3.66-2.16,2.94-3.31,4.35-11.64,3.83-22.91,8.63-34.31,13.09-.98-.59-1.5-1.34-.9-2.49Z"/>
        <path class="cls-12" d="M150.93,364.17c1.77-3.39.38-7.05.91-10.55,15.37,4.68,30.72,9.37,46.11,13.99,1.28.38,2.62.41,3.21,1.87-14.53,3.82-29.06,7.63-43.58,11.47-13.4,3.54-26.79,7.09-40.18,10.64-6.43-.66-11.72-4.4-17.5-6.75-12.61-5.13-24.98-10.85-37.44-16.36-1.29-.57-2.48-1.35-4.97-2.73,7.4-1.34,13.51-2.37,19.59-3.56,9.73-1.9,19.44-3.91,29.17-5.82.99-.19,2.05-.05,3.07-.06-1.45,2.68-.25,5.76-1.35,8.53-.49,1.23.42,1.77,1.59,2.02,5.23,1.1,10.45,2.26,15.68,3.4,8.21-3.53,16.76-5.6,25.69-6.09Z"/>
        <path class="cls-56" d="M274.38,399.54c0,.27,0,.54.02.81-4.79.5-8.54,3.6-12.87,5.27-4.99,1.92-9.66,4.67-14.47,7.06-.58.02-1.15.04-1.73.06-16.06-4.13-32.13-8.27-48.2-12.36-1.68-.43-3.45-.52-4.78-1.84.32-2.26,2.3-1.91,3.71-2.2,5.4-1.12,10.89-1.75,16.28-2.92,1.19-.28,2.39-.39,3.6-.25.93.17,1.79.45,2.22,1.41-.09,1.83-1.43,2.73-2.9,3.79,7.9.8,12.92-4.62,18.75-8.15.51-.43,1.05-.82,1.64-1.14,1.09-.54,2.21-.85,3.44-.65,9.91-.37,19.65-2.38,29.53-3.11,2.57-.19,5.14-1.28,7.73-.09,1.4,5.05-.04,9.71-1.98,14.3Z"/>
        <path class="cls-33" d="M238.25,388.92c-.91.31-1.82.62-2.72.93-5.23-2.31-9.42-5.81-12.3-10.8-.29-2.05,1.2-3.12,2.37-4.39,4.71-5.09,9.41-10.18,13.56-15.75,3.58-2.3,5-6.73,8.76-8.86,11.18,1.19,22.36,2.38,33.54,3.56.28.37.29.76.09,1.16-13.27,11.59-27.33,22.21-40.88,33.46-.67.55-1.44,1.03-2.41.67Z"/>
        <path class="cls-81" d="M223.22,379.04c4.1,3.6,8.2,7.2,12.3,10.8-.24.32-.48.64-.72.96-4.61,2.26-9.65,2.78-14.62,3.58-1.38.21-2.65-1.24-4.08-.24-1.14.05-2.28.1-3.43.15-1.59.67-3.02.41-3.66-1.24-2.15-5.6-4.27-11.21-5.65-17.06-.1-.42.21-.83.45-1.21,6.61.79,13.04,2.34,19.4,4.26Z"/>
        <path class="cls-74" d="M203.82,374.78c1.9,5.54,3.82,11.07,5.67,16.62.54,1.61,1.07,3.09,3.19,2.89-5.82,1.96-11.96,2.28-17.94,3.4-.86.16-1.77.06-2.39.84-.97-.17-3.1.23-2.04-1.51,4.5-7.42,7.99-15.46,13.51-22.26Z"/>
        <path class="cls-47" d="M310.6,200.07c3.19-2.61,6.38-5.22,9.58-7.83,3.5,3.01,5.9,6.63,6.31,11.36.77,1.28,1.4,2.67,2.77,3.49h-.02c1.17,5.21,4.82,9.19,7.02,13.91.82,1.75,2.79,3.17,1.64,5.5-1.07,2.22-2.8,3.19-5.27,2.75-1.52.13-2.27-1.25-3.47-1.75-6.19-6.99-11.12-14.92-16.55-22.46-1.03-1.43-2.71-2.76-2-4.96Z"/>
        <path class="cls-36" d="M326.48,203.61c-2.1-3.79-4.21-7.57-6.31-11.36.04-.31.08-.62.12-.93,4.79-3.1,10.29-4.35,15.64-5.99.69.13,1.09.65.79,1.22-3.1,5.87-5.84,11.96-10.24,17.06Z"/>
        <path class="cls-36" d="M310.6,200.07c5.73,8.26,11.44,16.52,17.19,24.76.59.84,1.3,1.58,1.36,2.67-3.68-3.24-7.55-6.29-10.97-9.78-2.23-2.29-2.27.2-3.18.95-1.03-2.53-2.91-4.22-5.33-5.37,2.52-1.11,2.42-2.26.05-3.44-2.09-3.19-1.76-6.4-.1-9.63.33-.05.65-.1.98-.15Z"/>
        <path class="cls-31" d="M335.93,185.32c-4.75,3.19-10.2,4.59-15.64,5.99-.32-1.56-.68-3.11-.97-4.67q-.94-5.08,4.31-3.95c4.1.88,8.2,1.75,12.3,2.63Z"/>
        <path class="cls-67" d="M309.62,200.22c.03,3.21.07,6.42.1,9.63-5.58-.98-11.15-1.96-16.73-2.94,0,0,.13-.39.13-.39,5.5-2.1,10.99-4.2,16.49-6.3Z"/>
        <path class="cls-70" d="M321.73,248.67c9.32-3.9,18.64-7.81,27.96-11.71.19.47.38.93.57,1.4-9.12,4.43-18.47,8.32-27.89,12.05-.21-.58-.42-1.16-.63-1.73Z"/>
        <path class="cls-50" d="M329.25,207.09c-.04-1.02-.32-2.1-.07-3.05.6-2.35,2.31-3.52,4.65-2.8,2.23.69,3.33,2.49,2.52,4.83-.78,2.26-2.5,3.22-4.88,2.36-.8-.29-1.5-.9-2.24-1.36,0,0,.02.01.02.01Z"/>
        <path class="cls-57" d="M309.67,213.3c4.18-.59,5.88,1.27,5.33,5.37-1.74,1.91-3.78,3.03-5.96.92-2.26-2.18-1.57-4.39.63-6.29Z"/>
        <path class="cls-2" d="M332.62,229.25c1.76-.92,3.51-1.83,5.27-2.75,1.35,1.96,1.78,4.51-.33,5.49-1.51.71-4.27-.04-4.94-2.75Z"/>
        <path class="cls-84" d="M65.42,110.28c3.14,2.11,6.31-.01,9.31-.3,13.48-1.3,26.89-3.34,40.34-4.95,13.46-1.61,26.95-2.96,40.41-4.57,10.85-1.3,21.67-2.83,32.51-4.19,1.74-.22,3.52-.11,5.27-.15.39,1.24-.42,1.97-1.27,2.49-11.27,6.92-22.43,14.04-33.97,20.53-.06.55-.11,1.1-.17,1.66-2.45.45-4.15,2.17-5.91,3.68-11.46,9.88-23.17,19.45-34.69,29.25-1.02.87-2.1,1.59-3.3,2.17-.62-.25-1.24-.5-1.85-.75-6.23-6.12-13.47-11.02-20.15-16.6-10.81-9.02-22.29-17.2-32.8-26.58,2.09-.56,4.18-1.11,6.26-1.67Z"/>
        <path class="cls-76" d="M143.77,66.87c-1.34-1.34-3.04-.76-4.58-.76-16.35-.04-32.7-.01-49.04-.05-1.53,0-3.25.59-4.53-.88,21.77.03,43.54.06,65.31.08-2.22,1.3-4.84.81-7.17,1.61Z"/>
        <path class="cls-21" d="M413.89,430.41c.3.83.6,1.66.9,2.49.86,2.97,1.71,5.94,2.57,8.9.34,1.48-.87,2.06-1.72,2.75-3.95,3.22-8.21,6.03-12.34,9.01-1.05.76-2.2,1.53-3.61.74-10.55-9.81-20.51-20.19-30.12-30.92,10.77-7.3,21.53-14.61,32.32-21.89,1.57-1.06,2.56-1.32,3.26,1.26,1.74,6.34,3.98,12.55,6.02,18.8.91,2.95,1.81,5.9,2.72,8.84Z"/>
        <path class="cls-63" d="M399.68,454.31c6.36-3.51,12-8.02,17.67-12.5,7.73,4.55,15.77,8.6,22.91,14.1.06,1.66-1.29,1.83-2.37,2.03-9.07,1.68-18.22,2.83-27.3,4.45-1.03.18-2.04-.21-3.06-.28-2.93-2.28-5.52-4.91-7.84-7.8Z"/>
        <path class="cls-63" d="M355.56,418.01c4.13,1.77,8.25,3.54,12.38,5.32-9.92,3.53-19.85,7.01-30.03,9.72,4.98-6.08,11.89-9.88,17.65-15.03Z"/>
        <path class="cls-37" d="M407.53,462.11c6.24-1.98,12.79-2.36,19.17-3.56,4.53-.85,9.21-.89,13.56-2.65,1.18.12,1.96.74,1.92,1.95-.04.99-1.07.9-1.69,1.01-9.91,1.69-19.82,3.34-29.74,4.97-1.45.24-2.57-.35-3.22-1.73Z"/>
        <path class="cls-21" d="M113.97,155.88c6.11-6.97,13.86-12.08,20.69-18.26,6.49-5.88,13.49-11.2,20.18-16.87,1.22-1.03,2.03-1.56,3.03.03.64,14.95,1.29,29.91,1.93,44.86-.26.34-.56.37-.91.14-6.3-2.75-13.14-3.25-19.75-4.68-8.37-1.81-16.77-3.48-25.16-5.21Z"/>
        <path class="cls-42" d="M485.11,348.32c-2.75,5.86-8.29,7.3-13.84,8.72,2.25-6.35,5.2-12.2,11.33-15.75,2.56-.85,5.12-1.69,7.68-2.54-.64,3.77-3.96,6.1-5.17,9.57Z"/>
        <path class="cls-63" d="M158.02,119.12c4.63-5.01,11.05-7.36,16.57-11.05,6.15-4.11,12.87-7.32,18.67-11.97.55.03,1.11.05,1.66.08,4.34,6.75,7.89,13.93,11.61,21.02-.44,3.03-3.24,3.58-5.27,4.79-8.93,5.33-17.95,10.51-26.92,15.78-.6.35-1,1.04-1.49,1.57-4.95-6.74-9.89-13.48-14.83-20.22Z"/>
        <path class="cls-54" d="M150.93,364.17c-8.45,2.5-17.04,4.43-25.69,6.09,1.17-13.34,2.37-26.68,3.49-40.03.69-8.28,1.17-16.57,1.9-24.84,1.04-11.89,2.3-23.75,3.3-35.64.34-4.08.2-8.19.27-12.29,1.15,6.7,2.36,13.38,3.43,20.09,1.62,10.19,3.11,20.41,4.71,30.61,2.23,14.21,4.58,28.41,6.74,42.64.68,4.45,1.98,8.83,1.83,13.39Z"/>
        <path class="cls-39" d="M281.4,354.43c.04-.27.06-.54.05-.81,2.61-8.12,3.18-16.66,5.28-24.89.36-1.4.63-2.82.94-4.24,13.37,5.98,26.95,11.46,40.6,16.76.29-.25.59-.26.89,0,.27,1.13.76,2.25.76,3.38.09,13.74-.12,27.48.93,41.19.19,2.43-.21,4.3-3.12,4.8-17.06,2.92-34.1,5.9-51.15,8.84-.71.12-1.46.06-2.19.08-.29-4.83,1.64-9.38,1.75-14.17-.08-.12-.22-.25-.22-.37.38-10.45,2.12-20.66,5.48-30.57Z"/>
        <path class="cls-23" d="M482.6,341.29c-4.89,4.45-7.56,10.5-11.33,15.75-2.08.05-4.17.09-6.25.14-1.15.05-2.3.23-3.46.16-1.29-.03-2.53.25-3.73.73-1.07-1.12-1.72-2.57-3.71-2.71-6.4-.45-12.78-1.13-19.17-1.72-.98.9-2.2.83-3.39.87-1.67-.21-3.27-.6-4.58-1.76-2.06-.33-4.3.69-6.18-.87,1.49-1.67,3.61-2.31,5.53-3.17,3.1-1.39,1.42-2.09-.23-2.94,1.17-1.17,2.37-1.05,3.58-.06,5.14-.13,7.76-3.16,8.98-7.81,1.42,1.78.97,3.9,1.06,5.91.09,2.12.99,3.26,3.18,3.31,1.17.02,2.32.25,3.48.37,1.93.2,4.36,1.26,4.86-1.89.4-2.55.38-5.1-3.05-5.75-.99-.19-2.03-.37-2.67-1.31,7.71-4.11,15.43-8.19,23.12-12.35,2.16-1.17,3.42-.64,4.55,1.48,1.97,3.73,4.17,7.34,6.27,11,.73,1.28,1.38,2.63,3.17,2.62Z"/>
        <path class="cls-60" d="M429.67,345.71c-1.19.02-2.38.04-3.58.06-4.62-.25-10.38-5.46-10.95-9.92-.18-1.38,4.59-8.16,6.12-8.69,3.54-1.24,8.4.56,10.39,3.84q4.05,6.68-1.97,14.71Z"/>
        <path class="cls-60" d="M445.5,338.54c7.42.35,7.61.69,7.14,7.91-.16,2.47-1.3,2.95-3.33,2.74-2.88-.3-5.76-.67-8.65-.88-1.69-.13-2.29-.98-2.24-2.54.08-2.62.15-5.24.22-7.86,2.29.21,4.57.43,6.86.64Z"/>
        <path class="cls-46" d="M434.2,325.62c5.08-.76,9.73.91,14.47,1.02,2.32.05,4.63.4,6.93.68.77.09,1.39.52,1.17,1.46-.16.68-.74.87-1.34.81-6.5-.65-12.99-1.31-19.49-2.02-.66-.07-1.39-.41-1.75-1.95Z"/>
        <path class="cls-24" d="M329.16,341.24c-.3,0-.59,0-.89,0-3.72-5.79-8.77-10.52-12.93-15.95-1.06-1.39-2.09-2.8-3.14-4.2,4.74-8.56,10.17-16.73,14.29-25.64,2.97,2.28,3.58,6.21,6.15,8.77-.08,12.14-2.13,24.13-2.7,36.23-.26.26-.52.52-.78.78Z"/>
        <path class="cls-43" d="M435.35,200.32c2.66-2.4,5.31-4.81,7.99-7.18,1.18-1.04,1.85.03,2.45.8,1.05,1.33.46,2.5-.63,3.43-2.65,2.25-6.07,2.53-9.82,2.95Z"/>
        <path class="cls-62" d="M434.02,192.99c1.21-3.73,2.41-7.45,3.63-11.18.36-1.1.9-1.95,2.2-1.01.9.66,2.19,1.13,1.21,2.7-2.07,3.31-4.1,6.64-6.14,9.97-.3-.16-.59-.32-.89-.49Z"/>
        <path class="cls-85" d="M431.41,193.13c-2.18-2.27-2.22-5.38-3.88-8.12,3.02-.29,3.86,2.11,5.65,2.81-.59,1.77-1.18,3.54-1.77,5.32Z"/>
        <path class="cls-1" d="M272.52,247.74c3.99,1.03,7.3,1.88,10.74,2.76-5.83,4.41-7.24,4.13-10.74-2.76Z"/>
        <path class="cls-83" d="M518.1,291.99c.93.44,1.95.98,1.76,2.11-.08.47-1.12,1.14-1.66,1.09-.8-.07-1.71-.67-1.81-1.62-.11-1.08.88-1.31,1.7-1.58Z"/>
        <path class="cls-71" d="M509.01,296.99c-.05.94-.7,1.54-1.31,1.5-1.02-.07-1.95-.77-1.95-1.87,0-.38,1-1.04,1.58-1.08.9-.07,1.47.65,1.68,1.45Z"/>
        <path class="cls-79" d="M472.06,319.33c.54.29,1.09.58,1.63.87-.03.58-.15,1.35-.81,1.23-1.22-.21-.74-1.32-.82-2.11Z"/>
        <path class="cls-10" d="M502.2,274.6c.94.17,1.68.76,1.87,1.59.26,1.11-.76,1.49-1.58,1.55-.91.06-1.74-.59-1.92-1.44-.24-1.12.89-1.3,1.63-1.69Z"/>
        <path class="cls-19" d="M493.2,304.56c-.22.92-.76,1.55-1.75,1.36-.85-.16-1.66-.68-1.64-1.64.02-.99.83-1.5,1.74-1.42.91.08,1.43.8,1.65,1.71Z"/>
        <path class="cls-63" d="M379.36,397.78c6.39-3.29,11.17-8.66,16.81-12.92,7.75-5.84,14.76-12.63,22.87-18.03-2.88,8.32-6.99,16.1-10.71,24.04-4.43,9.44-5.53,10.09-15.83,8.45-4.41-.7-8.75-.56-13.13-.7,0-.28,0-.55-.01-.83Z"/>
        <path class="cls-11" d="M340.44,347.52c-.87,1.12-1.45,3.11-3.29,2.72-1.24-.26-2.77-1.52-2.44-3.16.25-1.29.82-3.18,2.7-2.83,1.48.28,3.14,1,3.04,3.27Z"/>
        <path class="cls-29" d="M343.03,380.2c-.78,1.28-1.58,3.05-3.06,2.72-1.25-.28-3.3-1.31-2.89-3.08.26-1.13.95-3.23,2.76-2.94,1.57.25,2.67,1.64,3.2,3.29Z"/>
        <path class="cls-33" d="M339.01,366.73c-1.66-.61-3.14-1.61-3.14-2.96,0-1.33,1.4-2.76,2.91-2.76,1.51,0,2.91,1.39,2.95,2.74.04,1.42-1.62,2.2-2.72,2.98Z"/>
        <path class="cls-58" d="M426.98,352.75c1.56-.11,3.07.02,4.44.87.54.51.99,1.06.94,1.87-2.91,1.27-5.23,1.4-5.39-2.74Z"/>
        <path class="cls-8" d="M457.83,358.07c.32-2.36,2.14-1.69,3.59-1.78.7.86.71,1.73-.01,2.58-1.24-.04-2.6.43-3.57-.8Z"/>
        <path class="cls-48" d="M461.41,358.87c0-.86,0-1.72.01-2.58,1.26.07,2.64-.39,3.6.9-.75,1.53-2.08,1.82-3.61,1.68Z"/>
        <path class="cls-78" d="M432.36,355.48c-.75-.4-.94-1.09-.94-1.87,1.18,0,2.35.02,3.53.02-.09,1.69-1.35,1.75-2.59,1.84Z"/>
        <path class="cls-13" d="M281.4,354.43c-1.27,10.4-3.33,20.66-5.27,30.94-9.14,1.92-18.48,2.27-27.71,3.44-3.33.42-6.77,2.38-10.17.1,13.72-11.2,27.44-22.41,41.18-33.59.54-.44,1.3-.61,1.96-.9Z"/>
        <path class="cls-9" d="M219.69,393.33c5.04-.84,10.08-1.69,15.12-2.53-6.27,4.16-11.82,10.11-20.91,8.41,1.06-1.97,2.5-3.11,4.03-4.16.34-.83,1.1-1.23,1.76-1.73Z"/>
        <path class="cls-25" d="M219.69,393.33c-.3.86-.92,1.41-1.76,1.73-.39-.73-1.1-.83-1.82-.91,1.01-1.07,2.33-.78,3.58-.81Z"/>
        <path class="cls-54" d="M303.63,348.25c2.85,1.79,6.01.6,9.02.96.86.1,1.93-.02,2.04,1.14.15,1.53-1.1,1.49-2.1,1.5-4.98.03-9.96.05-14.94,0-1.07,0-2.72.4-2.68-1.35.04-1.73,1.69-1.17,2.75-1.28.72-.08,1.46-.01,2.2-.01,1.05-1.05,2.33-1.18,3.71-.95Z"/>
        <path class="cls-80" d="M303.63,348.25c-.97,1.35-2.41.85-3.71.95-.93-3.04-1.89-6.07-2.8-9.11-.42-1.42-1.73-3.19.7-3.93,2.11-.65,2.22,1.37,2.66,2.62,1.12,3.13,2.1,6.31,3.14,9.47Z"/>
        <path class="cls-60" d="M467.97,350.04c-4.82.07-12.35-6.28-12.47-10.5-.06-2.2,6.04-8.8,8.15-8.81,5.02-.02,11.89,6.1,11.87,10.57-.01,2.3-5.55,8.71-7.55,8.73Z"/>
      </g>
    </g>
  </g>
</svg>