<?xml version="1.0" encoding="UTF-8"?>
<svg xmlns="http://www.w3.org/2000/svg" version="1.1" viewBox="0 0 600 500">
  <defs>
    <style>
      .cls-1 {
        fill: #2b2b2b;
      }

      .cls-2 {
        fill: #417588;
      }

      .cls-3 {
        fill: #a1be77;
      }

      .cls-4 {
        fill: #bd9980;
      }

      .cls-5 {
        fill: #3b3836;
      }

      .cls-6 {
        fill: #ab899a;
      }

      .cls-7 {
        fill: #caa4b7;
      }

      .cls-8 {
        fill: #64a5a7;
      }

      .cls-9 {
        fill: #2c5d5f;
      }

      .cls-10 {
        fill: #d7bca6;
      }

      .cls-11 {
        fill: #66a6a8;
      }

      .cls-12 {
        fill: #474747;
      }

      .cls-13 {
        fill: #607344;
      }

      .cls-14 {
        fill: #939392;
      }

      .cls-15 {
        fill: #8e667b;
      }

      .cls-16 {
        fill: #559db6;
      }

      .cls-17 {
        fill: #4a7660;
      }

      .cls-18 {
        fill: #595552;
      }

      .cls-19 {
        fill: #748457;
      }

      .cls-20 {
        fill: #8ea966;
      }

      .cls-21 {
        fill: #2c5c5e;
      }

      .cls-22 {
        fill: #8e8e8e;
      }

      .cls-23 {
        fill: #343231;
      }

      .cls-24 {
        fill: #8e667a;
      }

      .cls-25 {
        fill: #4c612f;
      }

      .cls-26 {
        fill: #397578;
      }

      .cls-27 {
        fill: #d9bda8;
      }

      .cls-28 {
        fill: #3a3836;
      }

      .cls-29 {
        fill: #868686;
      }

      .cls-30 {
        fill: #2c2c2c;
      }

      .cls-31 {
        fill: #969696;
      }

      .cls-32 {
        fill: #f8f9f7;
      }

      .cls-33 {
        fill: #2d5e5f;
      }

      .cls-34 {
        fill: #c1c1c1;
      }

      .cls-35 {
        fill: #66a7a8;
      }

      .cls-36 {
        fill: #bb987f;
      }

      .cls-37 {
        fill: #c9a3b6;
      }

      .cls-38 {
        fill: #919191;
      }

      .cls-39 {
        fill: #8c6f5e;
      }

      .cls-40 {
        fill: #65a5a7;
      }

      .cls-41 {
        fill: #dcdcdb;
      }

      .cls-42 {
        fill: #4f6232;
      }

      .cls-43 {
        fill: #6e4f5f;
      }

      .cls-44 {
        fill: #6f7173;
      }

      .cls-45 {
        fill: #85c7ca;
      }

      .cls-46 {
        fill: #a0ad81;
      }

      .cls-47 {
        fill: #c3c3c3;
      }

      .cls-48 {
        fill: #519295;
      }

      .cls-49 {
        fill: #387477;
      }

      .cls-50 {
        fill: #9da0a1;
      }

      .cls-51 {
        fill: #467e80;
      }

      .cls-52 {
        fill: #bb987e;
      }

      .cls-53 {
        fill: #989897;
      }

      .cls-54 {
        fill: #4b8ca2;
      }

      .cls-55 {
        fill: #929292;
      }

      .cls-56 {
        fill: #797979;
      }

      .cls-57 {
        fill: #509295;
      }

      .cls-58 {
        fill: #ac899b;
      }

      .cls-59 {
        fill: #bd9a7f;
      }

      .cls-60 {
        fill: #866855;
      }

      .cls-61 {
        fill: #898988;
      }

      .cls-62 {
        fill: #323130;
      }

      .cls-63 {
        fill: #866754;
      }

      .cls-64 {
        fill: #2c5b5d;
      }

      .cls-65 {
        fill: #87c8ca;
      }

      .cls-66 {
        fill: #417589;
      }

      .cls-67 {
        fill: #846855;
      }

      .cls-68 {
        fill: #d6bca5;
      }

      .cls-69 {
        fill: #3d777a;
      }

      .cls-70 {
        fill: #ab899b;
      }

      .cls-71 {
        fill: #7e8f63;
      }

      .cls-72 {
        fill: #929190;
      }

      .cls-73 {
        fill: #4f5253;
      }

      .cls-74 {
        fill: #ba977e;
      }

      .cls-75 {
        fill: #919190;
      }

      .cls-76 {
        fill: #8e705c;
      }

      .cls-77 {
        fill: #4b5f2e;
      }

      .cls-78 {
        fill: #316365;
      }

      .cls-79 {
        fill: #788b5d;
      }

      .cls-80 {
        fill: #d9bea8;
      }

      .cls-81 {
        fill: #4e4c4b;
      }

      .cls-82 {
        fill: #ebebea;
      }

      .cls-83 {
        fill: #bc997f;
      }

      .cls-84 {
        fill: #353332;
      }

      .cls-85 {
        fill: #4a4949;
      }

      .cls-86 {
        fill: #509194;
      }

      .cls-87 {
        fill: #417b8d;
      }

      .cls-88 {
        fill: #86c8ca;
      }

      .cls-89 {
        fill: #bc987f;
      }

      .cls-90 {
        fill: #a2a2a2;
      }

      .cls-91 {
        fill: #dbdbda;
      }

      .cls-92 {
        fill: #788a5d;
      }

      .cls-93 {
        fill: #2c2c2b;
      }

      .cls-94 {
        fill: #85c8ca;
      }

      .cls-95 {
        fill: #8a8a8a;
      }

      .cls-96 {
        fill: #90966f;
      }

      .cls-97 {
        fill: #be9b82;
      }

      .cls-98 {
        fill: #c9a2b6;
      }

      .cls-99 {
        fill: #474848;
      }

      .cls-100 {
        fill: #8c8c8c;
      }

      .cls-101 {
        fill: #c8a4b4;
      }

      .cls-102 {
        fill: #4f9093;
      }

      .cls-103 {
        fill: #2e5e60;
      }

      .cls-104 {
        fill: #494949;
      }

      .cls-105 {
        fill: #737373;
      }

      .cls-106 {
        fill: #4f8f92;
      }

      .cls-107 {
        fill: #8b6676;
      }

      .cls-108 {
        fill: #7a9a5c;
      }

      .cls-109 {
        fill: #8b6c59;
      }

      .cls-110 {
        fill: #2b2c2c;
      }

      .cls-111 {
        fill: #a1be76;
      }

      .cls-112 {
        fill: #2d5d5f;
      }

      .cls-113 {
        fill: #5d7140;
      }

      .cls-114 {
        fill: #504e4c;
      }

      .cls-115 {
        fill: #e3cab8;
      }

      .cls-116 {
        fill: #484848;
      }

      .cls-117 {
        fill: #967864;
      }

      .cls-118 {
        fill: #caa3b7;
      }

      .cls-119 {
        fill: #b6b6b6;
      }

      .cls-120 {
        fill: #85c7c9;
      }

      .cls-121 {
        fill: #8b986f;
      }

      .cls-122 {
        fill: #898989;
      }

      .cls-123 {
        fill: #d9bda7;
      }

      .cls-124 {
        fill: #4d4c4b;
      }

      .cls-125 {
        fill: #3f3e3d;
      }

      .cls-126 {
        fill: #7b7b7b;
      }

      .cls-127 {
        fill: #856754;
      }

      .cls-128 {
        fill: #4a5f2d;
      }
    </style>
  </defs>
  <!-- Generator: Adobe Illustrator 28.7.1, SVG Export Plug-In . SVG Version: 1.2.0 Build 142)  -->
  <g>
    <g id="Layer_1">
      <g>
        <path class="cls-82" d="M511.47,412.76c5.64,2.54,11.83,2.26,17.75,3.25,12.66,2.12,25.4,3.73,38.12,5.45,10.61,1.44,21.24,2.73,32.16,4.13-5.81,2.88-11.9,1.39-17.68,2.16-10.63,1.41-21.45,1.34-32.18,2.13-14.48,1.07-28.92,2.63-43.41,3.47-14.19.83-28.36,1.89-42.63-.48-12.35-2.06-24.98-2.36-37.41-4.02-16.58-2.22-32.87.86-49.27,1.86-11.34.69-22.7,1.11-34.03,1.93-14.48,1.04-28.94,2.4-43.41,3.54-4.37.34-8.79.61-13.14.78-17.72.67-35.34,3.69-53.1,2.84-10.4-.5-20.74-2.08-31.11-3.2-6.01-.65-12-1.39-18.02-2-7.07-.72-14.16-1.29-21.23-2.01-6.82-.7-13.37.89-19.66,3-6.39,2.15-12.55,1.29-18.84.4-12.11-1.71-24.22-3.48-36.33-5.21-14.5-2.07-29-4.17-43.51-6.17-14.66-2.02-29.32-3.95-44.05-6.64,13.66-1.53,27.31-3.06,40.97-4.58,1.3.95,1.18,2.49,1.61,3.8.24.39.54.95.92.96,4.94.06,9.8,1.75,14.78.71,1.18-2.61.47-5.37.66-8.06.14-1.93-.24-3.97,1.17-5.64.15-.02.41-.1.44-.05,2.81,5.44,7.48,4.02,12.09,3.48,13.57-1.59,27.17-2.88,40.72-4.59,2.68-.36,3.09,1.83,3.92,3.53,2.31,4.72,4.08,9.68,6.61,14.28.86,1.65,2.1,1.33,3.45.69,9.96-4.69,19.43-10.33,29.3-15.19.9-.44,1.42-1.1.96-2.18-.69-1.79-2.95-3.4-.64-5.53,4.56-1.9,9.47-1.63,14.22-2.27,8.38-1.12,16.77-2.13,25.18-2.97,1.65-.16,3.3-.52,4.85.42,1.61,1.43,1.95,3.4,2.09,5.37.26,3.45,2.15,4.65,5.44,4.59,5.46-.1,10.93-.04,16.39-.01,1.82,0,3.65-.1,5.39.59,1.81.92,1.63,2.73,1.95,4.34.97,4.87,4.19,7.85,8.56,7.96,4.25.1,7.54-2.49,8.88-7.06.46-1.57.43-3.38,2.2-4.29,5.21-1.32,10.52-.44,15.78-.65,4.07-.16,8.15.2,12.2-.42,4.5-.88,5.22,2.22,5.79,5.48,1.38,4.3,3.86,7.16,8.82,7.05,4.25-.09,7.14-2.1,8.67-6.11.81-2.12.53-4.13-.21-6.21-.51-1.43-1.96-2.97-.06-4.5,1.03-.43,2.08-.46,3.16-.25,3.16.87,6.36.28,9.54.28,45.45.03,90.89.01,136.34.03,2.12,0,4.26-.12,6.33.47,3.03,1.31,1.67,3.47.88,5.36-2.34,5.62-4.75,11.21-7.03,16.86-1.7,4.23-1.32,4.85,3.01,4.99,7.22.23,7.36.15,10.04-6.54,1.07-2.69,2.13-5.38,3.15-8.09.57-1.51.94-3.32,3.04-3.57,1.14.59,1.56,1.74,2.21,2.74.68,1.05.95,2.97,2.69,2.37,1.46-.5,1.11-2.25,1.27-3.56.39-3.33-.97-6.9,1.4-9.96.65-.45,1.37-.68,2.14-.78,4.31.17,8.68-.95,12.92.61,1.8,1.53,1.28,3.53,1.1,5.48-.45,4.97-1.22,9.91-1.53,14.89-.18,2.91.77,4.02,3.9,3.84,9.09-.54,9.07-.41,9.26-9.56.04-2.06-.4-4.3,1.45-5.95,1.7-.25,2.32.78,2.6,2.21Z"/>
        <path class="cls-3" d="M481.23,402.29c-.55.04-1.11.09-1.66.13-.21-.19-.42-.38-.63-.56-2.34-5.93-2.05-12.27-2.5-18.42-1.51-20.9-3.58-41.76-4.92-62.68-.5-7.88-1.67-15.71-1.73-23.62-.01-2.01-.15-4.09,2.58-4.56,3.18-.33,6.22.56,9.28,1.18,2.43,1.14,3.2,3.51,4.12,5.72,2.42,5.86,4.6,11.82,7.2,17.61,2.2,6.22,5.16,12.17,6.5,18.69,4.05,12.9,9.72,25.18,14.52,37.79,2.16,5.67,4.38,11.31,6.58,16.97-2.62,3.73-7.44,2.72-10.74,4.98-4.96.71-9.71,2.2-14.45,3.78-4.7,1.06-9.36,2.35-14.15,2.99Z"/>
        <path class="cls-1" d="M58.96,328.33c-3.49-.9-6.96-1.94-10.49-2.63-2.24-.44-3.14-1.02-2.26-3.52,4.32-12.2,8.49-24.45,12.71-36.69,1.7-.93,3.29-.13,4.81.43,13.54,5.06,27.36,9.26,41.03,13.94,2.15.74,4.43,1.35,5.35,3.84.75,10.15.73,20.33,1.35,30.48.12,1.95-.11,4.03-2.32,5.04-3.23.92-6.3-.28-9.34-.96-11.5-2.57-23.03-5.03-34.54-7.54-2.24-.49-4.38-1.11-6.3-2.4Z"/>
        <path class="cls-11" d="M55.39,228.81l-.04-.97c2.59-1.03,5.06-.26,7.53.48,16.76,5.03,33.61,9.74,50.36,14.8.45.1.88.27,1.3.48,5.26,4.48,7.64,11.16,12.25,16.14.22,1-.25,1.74-.9,2.41-9.27,5.94-19.15,10.87-28.49,16.7-3.8,1.9-7.41,4.16-11.11,6.23-2.98,1.67-5.11,1.31-6.62-1.93-7.69-16.49-15.1-33.11-22.79-49.6-.71-1.53-.48-3.32-1.48-4.75Z"/>
        <path class="cls-123" d="M152.96,209.58c-3.32.3-6.63.6-9.95.91-3.08,1.98-6.2,1.82-9.35.18-2.2-4.87-1.78-10.21-1.84-15.22-.15-12.46-1.38-24.89-1.18-37.35.04-2.41-.21-4.91,1.51-6.96,2.66-2.07,5.98-2.06,9.05-2.78,10.67-2.49,21.46-4.43,32.2-6.61,1.74-.35,3.57-1.06,5.29.17-.34,19.16-.62,38.32-1.06,57.48-.19,8.11-.86,8.65-8.96,9.18-1.21.08-2.44.06-3.65.08-3.84-.74-3.98-4.87-6.05-6.65-1.68,2.72-1.87,6.58-6.01,7.57Z"/>
        <path class="cls-123" d="M431.01,151.99c1.92-5.96,3.5-11.99,3.69-18.3.94-3.74.1-7.88,2.56-11.28,6.88-2.75,14.18-3.84,21.38-5.36,1.22-.06,2.48.02,3.53.65,7.14,4.28,14.05,8.89,20.55,14.1.48.39.64,1.01.73,1.62-2.11,3.62-4.48,6.9-9.22,7.12-.44,0-.88-.03-1.32-.09-2.24-1.55-4.32-3.5-7.41-2.86-1.93-.1-3.84.29-5.76.16-2.1-1.23-4.28-1.98-6.73-1.11-1.26-1.19-2.26-2.68-4.02-3.26-2.1-1.12-4.04-2.93-6.67-1.41-.55,1.69,1.86,2.64,1.08,4.35-1.86,4.08.78,3.63,3.31,3.28,2.45.84,1.7,4.05,3.81,5.15.47,3.78-2.44,6.79-2.37,10.47.38,2.99,1.6,2.52,3.13.76.7-.86.96-2.14,2.25-2.45,2.5-1.07,3.63-3.64,5.65-5.24,1.38-1.1,2.47-2.67,4.57-2.36,3.37,1.77,4.06-.34,4.36-3.02,1.51-2.51,3.96-2.29,6.37-2.22,1.58,1.76.76,3.75.34,5.56-2.94,12.5-5.66,25.05-8.44,37.58-.39,1.76-.77,3.56-2.17,4.9-1.75,1.08-3.48.39-5.21-.09-4.77-1.34-9.51-2.76-14.34-3.85-4.96-1.77-10.05-3.13-15.1-4.61-3.68-1.08-4.75-3.27-4.02-6.76.52-2.5,1.18-4.97,1.63-7.49.4-1.66.8-3.32,1.18-4.99,1-2.96.62-6.33,2.66-8.97Z"/>
        <path class="cls-98" d="M217.94,152.88c11.77-.46,10.03,1.13,10.29-10.73.1-4.34-.75-8.74.56-13.03,1.91,1.6,1.45,3.84,1.52,5.89.1,3.01.01,6.03.03,9.05.04,6.28.15,6.39,6.22,6.55.75.02,1.51.02,2.26.12.84.03,1.67.13,2.48.36,5.73,1.17,11.51.35,17.26.43,15.66.23,31.33.09,46.99.07,5.78.03,11.57-.18,17.35.08,3.84.17,5.65-.88,5.33-5.06-.16-2.04-.7-4.7,2.24-5.74,1.44,1.43,1.42,3.32,1.33,5.09-.19,3.65,1.68,4.66,4.97,4.64,7.24-.04,14.47-.15,21.71.07.84,0,1.67,0,2.51,0,7.69.1,15.4-.68,23.08.36,3.43,3.03,4.22,6.01,2.62,9.77-1.83.96-3.83.85-5.8.86-40.42.29-80.84,1.44-121.27.93-8.97-.11-17.94-.22-26.9-.18-1.8,0-3.7-.32-5.09,1.28-1.18,1.79-.86,3.81-.86,5.76-.01,8.64-.06,17.27.02,25.91.01,1.49.32,3.05-.65,4.4-6.77,1-8.57-.47-8.57-7.04,0-11.79-.01-23.58.02-35.37,0-1.49-.33-3.03.37-4.47Z"/>
        <path class="cls-108" d="M330.55,101.73c-1.28-2.67-2.56-5.35-3.84-8.02-.47-2.36,1.63-2.61,2.92-3.34,12.39-6.97,24.83-13.85,37.27-20.73,1.39-.77,2.75-2.1,4.54-.84l.22-.06c.77,8.22-1.28,16.1-2.8,24.05-2.41,3.83-6.97,4.52-10.28,7.09,1.72,3.45,3.72,6.84,5.73,10.22.93,1.57,1.87,3.15,1.5,5.11-1.13,10.44-3.09,20.75-4.49,31.15-.22,1.63-.29,3.36-1.5,4.7-3.45.98-4.05-2.04-5.1-3.95-6.33-11.44-12.72-22.85-19.08-34.27-1.47-2.65-3.31-5.12-4.24-8.05-.32-1.01-.84-1.96-.85-3.05Z"/>
        <path class="cls-3" d="M330.55,101.73c.93.37,1.44,1.07,1.56,2.05-.46,10.31-.11,20.63-.28,30.95-.04,2.2.49,4.64-1.67,6.31-1.2,2.76-.54,5.66-.55,8.49-.01,2.57-.95,3.43-3.47,3.38-6.79-.14-13.59-.1-20.39-.14-.25-.47-.17-.87.25-1.2,4.72-1.54,9.59-.43,14.37-.78,1.61-.12,3.26.33,4.96-.24-7.48-5.59-14.71-11.29-22.04-16.87-1.55-1.18-4.31-2.21-2.47-5.2,3.49-1.5,7.32.11,10.81-1.21,1.93-3.89.91-7.99.78-11.99-.06-1.95-1.88-2.14-3.42-2.16-7.24-.1-14.48,0-21.72-.06-1.77-.01-2.85.73-3.42,2.34-1.95,2.62-3.61.44-4.97-.57-5.12-3.8-10.24-7.62-15.12-11.74-.31-.39-.35-.82-.14-1.27,22.31-.04,44.62-.07,66.93-.11Z"/>
        <path class="cls-90" d="M176.78,253.22c.06-1.17.12-2.34.18-3.52,1.11-2.42.04-5.49,2.23-7.59,2.46-1.84,5.75-1.93,8.17-3.85,3.73-3.7,3.72-3.86-.57-7.66-3.5-3.11-3.48-3.37.25-4.8,9.42.95,18.58,3.39,27.9,4.93.89.15,1.66.68,2.31,1.35,1.36,1.97.07,4.02.18,6.04-1.57,10.51-3.96,20.85-6,31.27-.66,3.35-2.51,4.47-5.88,3.84-7.46-1.4-14.77-3.49-22.31-4.47-.6-.1-1.18-.26-1.77-.41-9.37-2.43-10.39-4.89-5.54-13.52.3-.53.62-1.04.85-1.6Z"/>
        <path class="cls-3" d="M358.58,151.19c2.28-4.87,1.93-10.25,2.95-15.37,1.41-7.06,1.68-14.32,3.63-21.29,3.08.92,3.49,3.99,4.89,6.21,2.68,4.25,2.81,4.35,6.99,1.92.26-.15.51-.33.78-.47,10.19-5.65,8.17-4.13,3.5-12.84-2.14-4-4.59-7.88-6.56-11.95-1.52-3.14-3.29-4.71-6.76-4.01,1.22-8.22,2.44-16.44,3.65-24.66,10.49,18.65,20.95,37.32,31.5,55.94,1.11,1.96.76,2.89-1.17,3.82-2.59,1.25-5.07,2.73-7.6,4.12-2.21-1.55-4.4-3.14-7.76-2.63.59,2.64,3.88,5.03.82,7.76-2.36,1.49-4.92,2.63-7.21,4.23-6.6,3.24-12.51,7.85-19.67,10.01l-1.93-.02c-.21-.15-.3-.32-.24-.49.05-.18.11-.27.18-.27Z"/>
        <path class="cls-44" d="M483.07,133.68c-7.49-5.88-14.84-11.97-23.75-15.69,3.1-5.48,6.74-10.62,10.07-15.96.86-1.38,2.17-2.52,2.49-4.23,1.76-1.71,3.01-.37,4.27.74,10.99,9.62,21.98,19.24,32.97,28.86,1.04.91,2.02,1.83,1.98,3.4-.34,12.6.76,25.22-.4,37.82-2.46-3.1-1.31-6.76-1.22-10.1.13-4.5-1.5-7.42-5.29-9.75-5.31-3.27-10.51-6.74-15.5-10.52-1.48-1.12-3.15-1.83-4.95-2.28-.98-.54-1.38-1.25-.66-2.28Z"/>
        <path class="cls-49" d="M55.39,228.81c4.64,6.77,7.16,14.58,10.66,21.9,5.17,10.78,9.97,21.74,14.86,32.65,1.05,2.35,2.23,2.17,4.26,1.09,3.99-2.13,7.54-5.09,11.99-6.34,4.51,2.78,7.01,7.44,10.38,11.27,1.3,1.48,2.46,3.1,3.84,4.52.43.49.76,1.03.94,1.66,0,2.65-1.05,4.92-2.58,7-.18.11-.36.22-.54.33-12.63-4.31-25.26-8.6-37.87-12.94-4.16-1.43-8.27-2.98-12.41-4.47-1.6-5.33-.81-10.85-1.23-16.27-1.02-13.45-1.57-26.94-2.3-40.41Z"/>
        <path class="cls-82" d="M217.06,232.56c-10.29-2.26-20.63-4.22-31.05-5.77-.8-.71-2.13.23-2.8-.88,6.76-9.28,13.57-18.53,20.24-27.87,2.89-4.04,6.59-1.5,9.58-.96,3.66.66,4.1-.35,4.07-3.47-.11-11.99-.07-23.99-.02-35.99,0-1.6-.6-3.38.85-4.74,0,12.74.2,25.49-.1,38.23-.11,4.84.7,7.99,6.29,7.84.73-.02,1.46.27,2.19.42,3.32-1.89,6.55-.37,9.58.64,2.42.8,1.43,2.92.48,4.56-3.18,5.51-6.86,10.71-10.12,16.17-2.09,2.79-3.59,5.96-5.65,8.77-.93,1.26-1.43,3.13-3.55,3.05Z"/>
        <path class="cls-11" d="M79.69,148.32c-5.17-2.08-10.69-1.23-16.79-2.05,13.06-7.71,25.6-15.12,38.14-22.52,9.7,1.97,19.5,3.47,28.95,6.55.43.3.75.68.98,1.14,1.99,5.65,1.27,11.65,2.27,17.44-1.66,2.15-3.99,1.69-6.16,1.44-2.36-.27-4.71-.64-7.1-.69-3.61.21-7.21-.05-10.82.07-9.86.36-19.67-.46-29.48-1.37Z"/>
        <path class="cls-88" d="M133.02,148.43c-3.18-5.45-1.49-11.66-2.72-17.41.14-.27.26-.65.51-.74,10.65-3.83,21.14-8.23,32.55-9.45,13.45,2.85,26.9,5.7,41.21,8.73-4.72,2.34-9.15,2.96-13.39,4.15-2.32.65-4.64,1.42-7.02,1.77-3.23.48-5.16,1.94-5.23,5.36-1.54-2.24-3.45-2.1-5.88-1.43-11.57,3.14-23.18,6.18-34.81,9.08-1.7.42-3.5,1.3-5.22-.06Z"/>
        <path class="cls-82" d="M509.5,395.01c3.01-3.18,7.63-2.35,11.07-4.47,8.67,2.82,17.78,3.49,26.66,5.27,13.78,2.76,27.67,5.01,41.52,7.45,1.03.18,2.09.16,3.17.59-4.24,2.1-8.96,1.49-13.41,2.11-11.07,1.54-22.22,2.55-33.36,3.61-10.99,1.04-22,1.87-33.01,2.8,2.51-3.79,1.35-7.24-.86-10.7-1.05-1.64-1.79-3.5-2.15-5.46-.02-.44.1-.84.36-1.19Z"/>
        <path class="cls-128" d="M499.43,242.54c.41,1.78.82,3.57,1.23,5.35.71,2.09.6,4.09-.52,6.03-2.52,4.38-3.93,9.38-7.32,13.28-.39.25-.83.36-1.3.34-5.44-4.09-10.17-8.95-15-13.73-.71-1.01-1.39-2.02-1.71-3.23-.36-6.08-.81-12.14-1.25-18.21-.1-2.73-.09-5.46-.05-8.19.43-6.87,1.2-7.81,8.07-7.67,3.51.07,7.13-1.63,10.55.45,3.94,8.09,6.02,16.72,7.29,25.59Z"/>
        <path class="cls-89" d="M137.5,223.26c.09.29.13.58.14.88-.04.22-.09.43-.13.65-2.85,3.97-6.73,6.96-10,10.53-2.15,2.34-4.28,2.2-6.85.6-7.59-4.73-15.23-9.4-22.84-14.1-1.43-.88-2.89-1.66-4.44-2.29-.96-.62-1.98-1.21-1.57-2.65,2.47-7.31,4.95-14.63,7.42-21.94,3.52-2.1,7.16-3.04,11.09-1.14,1.81,3.02,1.09,6.27.85,9.47-.85,3.39-1.03,6.89-1.65,10.32-.51,2.83.68,3.5,3.28,2.99,2.84-.56,5.67-1.12,8.52-1.61,9.23-1.6,11.75-.3,16.19,8.3Z"/>
        <path class="cls-89" d="M176.78,253.22c-.71,2.76-1.23,5.59-2.18,8.27-1.08,3.04.23,4.29,2.95,4.67,2.09.29,4.18.47,5.83,2,.74,1.01.4,2.04,0,3.02-3.71,9.12-8.07,17.94-12.22,26.86-.26.55-.77.93-1.28,1.26-1.47.55-2.69-.14-3.79-.94-6.7-4.94-13.36-9.94-19.98-14.99-.49-.38-.76-.93-.94-1.52-.14-.97.15-1.77.9-2.4,4.67-3.35,8.8-7.34,13.07-11.17,1.39-1.25,2.36-3.29,4.77-2.92,4.29-4.05,8.57-8.1,12.86-12.15Z"/>
        <path class="cls-3" d="M387.06,160.19c-.88-2.73-1.75-5.46-2.63-8.2-.52-.47-.82-1.05-.88-1.75-.04-2.08,1.6-3.02,2.87-4.21,1.86-1.31,3.32-3.4,6.01-3.15l5.56,9.28c2.56,1.86,3.1,5,4.73,7.45,1.22,2,2.4,4.03,3.49,6.11,1.87,5.41,6.41,9.58,7.24,15.48-3.07,6.05-7.74,10.95-11.74,16.33-.7.94-1.76,1.71-3.11.87-3.2-4.58-3.63-10.17-5.46-15.25-2-5.53-3.59-11.22-5.28-16.86-.16-2.04-1.64-3.91-.79-6.08Z"/>
        <path class="cls-1" d="M41.51,391.56c8.87-8.86,17.75-17.71,26.62-26.57,1.34-.56,2.35.27,3.33.91,4.95,3.2,9.86,6.47,14.72,9.82,1.34.92,2.93,1.8,2.38,3.93-5.8,5.69-13.38,8.71-19.98,13.21-2.57,1.75-5,4.04-8.41,4.22-5.08-.57-10.03-1.81-15.01-2.84-1.51-.31-3.4-.48-3.65-2.67Z"/>
        <path class="cls-88" d="M91.81,216.87c.6.6,1.2,1.2,1.81,1.79,7.8,6.92,13.84,15.36,20.33,23.42.49.61.45,1.41-.02,2.11-9.18-2.55-18.35-5.14-27.54-7.65-10.36-2.83-20.47-6.57-31.04-8.7,8.29-3.96,17.41-5.24,26.03-8.11,3.41-1.13,6.94-1.92,10.42-2.86Z"/>
        <path class="cls-3" d="M492.07,267.02c2.96-6.33,7.49-11.97,8.6-19.13,7.59,11.43,16.64,21.76,24.78,32.77,1.16,1.57,2.3,3.16,3.45,4.75-1.23,4.32-3.59,6.4-7.44,6.55-7.28-6.07-14.55-12.13-21.83-18.2-3.42-.63-5.14-3.6-7.62-5.52-.19-.42-.15-.82.06-1.22Z"/>
        <path class="cls-128" d="M371.44,68.8c-9.45,5.1-18.97,10.07-28.31,15.36-5.5,3.12-11.36,5.65-16.42,9.55-.23-.19-.52-.34-.68-.57q-5.51-8.37,3.05-13.17c11.12-6.21,22.34-12.25,33.34-18.67,3.25-1.9,5.07-1.86,6.39,1.78.72,1.98,2.41,3.51,2.63,5.72Z"/>
        <path class="cls-128" d="M263.62,101.84c.05.24.11.48.17.73,1.23,1.51,1.37,3.33,1.38,5.16.05,13.04.05,26.08,0,39.12,0,1.81.03,3.67-1.27,5.18-.6.08.19.11-.42.17q-11.19,1.15-11.19-9.9c0-11.5-.01-23,.01-34.49,0-2.09-.31-4.29,1.4-6,3.31.01,6.62.02,9.93.03Z"/>
        <path class="cls-128" d="M239.01,151.93q-9.97.79-9.98-9.17c-.02-4.55-.15-9.1-.24-13.65.05-7.75.27-15.5.06-23.24-.09-3.35.75-4.74,4.24-4.21,1.94.29,3.94.15,5.91.2,1.61,1.56,1.37,3.59,1.37,5.54.02,12.99.02,25.99,0,38.98,0,1.96.15,3.97-1.37,5.56Z"/>
        <path class="cls-11" d="M163.36,120.83c-11.02,3.39-22.04,6.79-33.06,10.18,0,0-.11-.11-.11-.11-1.63-1.87-1.46-4.25-1.64-6.45-.58-7.33-1.94-14.62-1.3-22.02.42-.57.98-.68,1.56-.36,11.52,6.25,23.03,12.5,34.54,18.76Z"/>
        <path class="cls-128" d="M241.78,101.85c3.03-.01,6.05-.03,9.08-.04,1.71,1.72,1.39,3.92,1.39,6.02.02,12.46.02,24.92,0,37.38,0,7.23-.07,7.28-7.4,7.2-1.06-.01-2.13.14-3.15-.29-1.39-1.65-1.32-3.64-1.32-5.62,0-13.03,0-26.07.01-39.1,0-1.95-.24-3.99,1.37-5.55Z"/>
        <path class="cls-9" d="M88.22,379.38c-1.92-3.31-5.53-4.48-8.39-6.59-3.77-2.78-7.79-5.22-11.7-7.81,2.13-6.41,4.25-12.82,6.38-19.22.37-.29.78-.35,1.22-.21,7.17,6.99,13.59,14.69,20.45,21.98.75.79,1.07,1.83.93,2.96-2.5,3.43-3.68,8.17-8.89,8.88Z"/>
        <path class="cls-12" d="M471.87,97.81c.21.36.68.91.58,1.06-4.33,6.41-7.27,13.77-13.13,19.13-7.24,1.6-14.47,3.2-21.71,4.8-1.37.92-2.36,2.35-3.99,2.92-.17-.42-.42-.83-.49-1.26q-1.59-9.15,7.02-12.92c10.56-4.59,21.14-9.15,31.71-13.72Z"/>
        <path class="cls-57" d="M127.26,102.44c2.59,3.6.92,7.88,1.78,11.82,1.18,5.38.84,11.09,1.16,16.65-9.18-1.88-18.37-3.74-27.54-5.69-.62-.13-1.09-.96-1.63-1.47,8.74-7.1,17.48-14.21,26.23-21.31Z"/>
        <path class="cls-12" d="M483.87,135.58c1.35-1.68,2.55-.27,3.52.38,6.79,4.53,13.5,9.16,20.24,13.76,2.02,1.38,2.92,3.19,2.85,5.76-.13,4.38.12,8.76.21,13.15-.06.54-.12,1.09-.18,1.63-2.73.38-3.69-2.05-5.29-3.41-1.35-1.15-2.59-2.41-4.09-3.37-3.02-2.84-6.51-5.06-9.99-7.28-1.98-1.55-3.55-3.59-5.82-4.82-.8-5.24-3.29-10.33-1.44-15.81Z"/>
        <path class="cls-98" d="M492.33,267.98c3.14,1.03,4.82,3.91,7.29,5.78-.05,20.67-.1,41.35-.15,62.02-3.13-5.82-5.36-12-7.25-18.31-1.02-3.04-1.46-6.18-1.46-9.38,0-11.23-.04-22.46.02-33.69.01-2.23-.34-4.61,1.55-6.42Z"/>
        <path class="cls-49" d="M75.28,345.77h-.39s-.39,0-.39,0c-5.18-5.81-10.36-11.62-15.54-17.43,13.6,2.87,27.2,5.74,40.81,8.6,2.81.59,5.63,1.1,8.45,1.64.3.51.24.96-.18,1.37-1.17,1.09-2.67,1.33-4.16,1.61-7.89,1.44-15.78,2.88-23.67,4.29-1.65.3-3.29.54-4.92-.07Z"/>
        <path class="cls-12" d="M501.42,175.75c1.48,4.77,2.72,9.64,4.51,14.29,1.42,3.69.91,6.29-2.43,8.49-1.5.99-2.68,2.44-4.01,3.69-1.8,2.73-2.95,6.34-7.41,5.54-1.52-1.5-2.01-3.46-1.95-5.43.21-6.55-1.05-13.01-1.15-19.53,2.68-4.92,7.36-6.33,12.43-7.04Z"/>
        <path class="cls-94" d="M41.51,391.56c6.16,2.78,12.96,2.93,19.38,4.69,1.32,4.18-1.88,7.18-2.79,10.78-4.04,5.09-10,7.57-15.16,11.15-.44.11-.86.07-1.26-.15-.07-1.55-.14-3.11-.2-4.66.02-6.03.34-12.06-.58-18.06-.19-1.21-.83-2.71.62-3.75Z"/>
        <path class="cls-12" d="M87.28,165.68c-1.45-3.36-2.9-6.73-4.35-10.09,2.45-1.83,5.41-1.82,8.23-2.06,3.01-.27,6.04-.28,9.05-.72,6.01-.88,7.1-.03,11.01,7.6.37,1.04.06,1.93-.61,2.74-3.66,2.61-8.07,3.88-11.76,6.47-3.75-1.65-8.2-1.23-11.58-3.94Z"/>
        <path class="cls-35" d="M163.92,265.37c-4.54,4.1-9.08,8.22-13.63,12.31-1.09.98-1.94,2.36-3.7,2.25-1.64-2.05-.53-4.11.14-6.05,2.98-8.63,5.25-17.5,8.36-26.09.83-2.29.96-4.41-.39-6.52.97-1.93,2.29-1.53,3.7-.57,1.84,8.22,3.68,16.44,5.52,24.67Z"/>
        <path class="cls-123" d="M521.46,291.96c3.49-1.04,5.21-4.08,7.44-6.55,5.47,3.95,11.39,7.29,16.43,11.84-1.44,4.62-4.01,8.66-6.42,12.79-1.9-1.58-3.8-3.15-5.7-4.73-4.75-2.27-6.74-7.12-10.06-10.73-.56-.87-1.12-1.74-1.69-2.61Z"/>
        <path class="cls-98" d="M401.84,160.19c-1.28-2.68-2.57-5.36-3.85-8.03,11-.05,22.01-.11,33.02-.16.04,3.16-.52,6.21-1.73,9.14-8.01,1.01-16.04.39-24.07.34-1.23,0-2.33-.61-3.36-1.29Z"/>
        <path class="cls-88" d="M158.4,240.7c-1.24,0-2.57-.4-3.54.8-5.84,2.75-11.88,4.34-18.4,3.02-.58-.65-.85-1.43-1.01-2.26-.14-6.13-1.11-12.35,2.02-18.11,0,0,.16,0,.17,0,7.72,4.52,14.99,9.6,20.76,16.56Z"/>
        <path class="cls-93" d="M87.28,165.68c3.96,1.1,8.49.4,11.76,3.69,3.67,3.49,5.22,7.99,6.13,12.81-.68,3.35-2.25,6.39-3.38,9.59-.41,1.16-.85,2.65-2.69,2.34-4.24-9.35-8.55-18.67-11.82-28.42Z"/>
        <path class="cls-63" d="M137.5,223.26c-1.01-.9-2.39-1.6-2.98-2.72-3.38-6.38-8.68-5.65-14.29-4.15-2.03.54-4.11.97-6.18,1.31-6.49,1.07-6.74,1-5.57-5.38.5-2.76.06-5.74,1.57-8.32,2.11,2.14,1.06,4.84,1.23,7.37,4.7-.51,9.16-2.07,13.85-2.19,3.01,0,6.1-.67,8.87,1.13,3,.06,6.01.11,9.01.17-1.83,4.26-3.67,8.52-5.5,12.78Z"/>
        <path class="cls-60" d="M133.02,148.43c13.8-3.56,27.63-7.02,41.39-10.74,3.25-.88,4.74-.39,4.52,3.15-.08.36-.17.72-.25,1.08-15.22,3.09-30.44,6.18-45.65,9.27-3.77,2.85-8.17,2.1-12.43,2.19-1.77-1.55-2.63-3.17-.38-5.02,4.27-.57,8.53,2.14,12.81.06Z"/>
        <path class="cls-110" d="M110.88,161.07c-4.65-11.89-14.4-5.42-22.11-5.94-1.82-.12-3.87.45-5.84.47-1.08-2.42-2.16-4.85-3.24-7.27,3.39-1.9,7.04-.87,10.48-.58,6.3.53,12.6.55,18.9.67,3.9,2,4.68,7.47,1.81,12.66Z"/>
        <path class="cls-20" d="M241.81,151.88c9.1.29,9.13.29,9.13-8.81,0-13.75-.04-27.51-.07-41.26.94,0,1.88,0,2.83,0-.06,15.37-.03,30.74-.23,46.11-.04,3.21.96,4.45,4.15,4.1,1.96-.21,3.95-.11,5.93-.15,1.83-1.39,3.98-1.36,6.11-1.37,10.04-.02,20.09-.04,30.13.02,2.1.01,4.32-.23,6.01,1.5-.01.25-.03.51-.05.76-17.63-.06-35.25-.13-52.88-.19-4.04-.01-8.11,1.09-12.09-.46.27-.39.61-.49,1.03-.24Z"/>
        <path class="cls-93" d="M501.42,175.75c-3.99,2.08-7.99,4.16-11.98,6.24-1.58,1.86-3.16,3.73-5.79,1.48-.4-2.7,1.52-4.61,2.35-6.89.94-1.43,1.32-3.33,3.27-3.91,2.59,1.18,4.21.48,5.83-2.01,1.81-2.78,2.81-6.41,6.47-7.67,4,1.18,5.49,5.42,8.93,7.27-2.28,3.08-6.2,3.43-9.09,5.49Z"/>
        <path class="cls-7" d="M493.13,207.72c2.12-1.84,4.24-3.67,6.37-5.51-.02,13.44-.04,26.89-.06,40.33-2.44-8.25-4.87-16.5-7.31-24.75-1.39-2.43-1.23-5.05-.9-7.68.26-1.09.85-1.93,1.9-2.39Z"/>
        <path class="cls-4" d="M538.9,310.04c.73-4.97,3.41-8.97,6.42-12.79,2.24,2.83,4.45,5.68,6.73,8.47,1.07,1.31,1.12,2.42.37,4.05-1.84,4-4.13,5.51-8.21,2.74-1.6-1.08-3.53-1.67-5.32-2.48Z"/>
        <path class="cls-113" d="M241.81,151.88c-.34.08-.69.16-1.03.24-.59-.06-1.18-.13-1.76-.19,0-16.69,0-33.38,0-50.08.93,0,1.85,0,2.78,0,0,16.68.01,33.36.02,50.03Z"/>
        <path class="cls-27" d="M183.21,225.91c.98.16,2.06-.03,2.8.88-.38.25-1.56.14-.87.93,1.07,1.24,2.43,2.25,3.73,3.27,3.67,2.86,3.3,5.51-1.12,7.93-2.66,1.44-4.94-.36-7.37-.88-1.49-.55-3.12-.78-4.35-1.92,1.81-3.82,4.49-7.02,7.18-10.22Z"/>
        <path class="cls-85" d="M152.96,209.58c2-2.81,4.01-5.61,6.29-8.8,1.98,2.7,3.87,5.29,5.77,7.88.66,1.33,1.32,2.66,2.28,4.61-5.42.25-10.57.49-15.69.73-.63-2.09,1.32-2.93,1.36-4.43Z"/>
        <path class="cls-59" d="M392.43,142.88c-1.78,1.21-3.56,2.42-5.34,3.64-3.41-3.12-1.12-6.21.03-9.31,1.77-2.37.23-3.87-1.4-5.37-1.14-1.05-1.77-2.22,0-3.26,2.08-1.23,7.67,1.4,8.67,4.04-1.21,3.32-1.47,6.81-1.96,10.27Z"/>
        <path class="cls-127" d="M99.1,194.11c2.93-3.51,2.92-8.35,5.41-12.06,2.31,1.5,4.23,3.48,6.33,5.25.65,2.33,1.05,4.63-.74,6.68-3.63.32-7.25.64-10.88.95-.16-.26-.2-.53-.13-.82Z"/>
        <path class="cls-97" d="M523.15,294.57c4.37,2.62,6.64,7.22,10.06,10.74-.34,1.33,1.86,2.64-.08,4.05-2.03,1.48-3.03-.39-4.32-1.16-5.22-3.13-4.24-8.89-5.66-13.63Z"/>
        <path class="cls-104" d="M509.62,396.02c1.29,2.57,2.34,5.29,3.91,7.67,2.31,3.48,2.12,6.27-1.39,8.68-.3,0-.53.13-.67.4-1.17-.25-1.7-1.05-1.85-2.16-3.33-3.59-3.33-11.71,0-14.57Z"/>
        <path class="cls-39" d="M176.03,236.13c1.6-.29,3.09-.01,4.46.88.8,2,.43,3.81-.9,5.45-1.32,2.25-.69,5.21-2.63,7.24-.31-4.52-.62-9.05-.93-13.57Z"/>
        <path class="cls-125" d="M433.62,125.71c.37-2.28,2.03-2.8,3.99-2.92-.97,3.63-.66,7.61-2.91,10.9-.36-2.66-.72-5.32-1.08-7.98Z"/>
        <path class="cls-49" d="M201.49,395.11c-1.66-12.44-3.31-24.88-4.99-37.32-1.36-10.04-2.77-20.08-4.16-30.12-1.67-2.29-2.54-4.78-1.98-7.66,1.57-1.89,3.45-3.31,5.94-3.78,13.84-.51,27.69-.26,41.53-.16,4.21-.09,8.43-.15,12.64.03,3.22-.04,6.44.02,9.65-.3,4.22.35,8.45.27,12.69.32,1.61-.07,3.21-.07,4.82,0,3.51-.09,7.02-.14,10.53-.01,3.97,0,7.95-.02,11.92-.31,3.31.57,6.77-.27,9.99,1.11,1.68,1.63.72,3.43.18,5.08-8.88,27.11-18.12,54.1-27.34,81.09-.4,1.17-.99,2.21-1.72,3.18-5.95,1.31-11.96.22-17.94.47-3.75.15-7.51.18-11.26.26-.26.04-.52.09-.77.14-4.7.39-9.42.24-14.13.25-1.92.09-3.82.05-5.44-1.19-8.15-.03-16.31-.22-24.45,0-3.14.08-4.22-1.1-4.48-3.96-.22-2.39-.78-4.74-1.19-7.11Z"/>
        <path class="cls-86" d="M281.16,406.26c1.41-8.25,4.78-15.9,7.38-23.78,7.14-21.71,14.55-43.34,21.85-65,.52-1.46.9-3.05,2.95-3.02,3.82,1.57,7.38-.37,11.06-.84,3.88-.51,7.71-1.33,11.58-1.94,4.81-.33,9.45-1.68,14.21-2.33,1.5-.2,2.96-.52,4.42.11,2.18,1.79.68,3.62-.1,5.28-8.58,18.39-16.93,36.89-25.69,55.2-3.72,8.27-7.49,16.52-11.41,24.71-1.76,6.03-6.5,6.89-11.79,6.8-.87.03-1.74.06-2.61.1-1.75,2.31-4.48,2.47-6.94,2.83-4.79.68-9.05,1.85-10.63,7.15-.74-.64-.89-1.55-.74-2.39.56-3.18-1.3-3.24-3.55-2.88Z"/>
        <path class="cls-37" d="M305.63,401.45c.66-.29,1.3-.78,1.98-.85,4.25-.45,7.53-2.21,9.06-6.45,1.5-1.26,3.32-1.42,5.16-1.42,40.43-.02,80.85-.11,121.28.05.46,0,.91.08,1.35.12,5.93,1.05,11.82,2.29,17.46,4.52,1.44,2.4.41,3.93-1.79,5.04-49.43-.04-98.86-.09-148.29-.14-2.11,0-4.28.31-6.23-.87Z"/>
        <path class="cls-12" d="M114.77,404.11c-4.29-9.68-8.58-19.35-12.88-29.03.22-1.17,1.09-1.78,2.03-2.26,6.15-3.15,12.31-6.31,18.55-9.29.96-.46,1.97-.79,3.03-.29,2.24,10.97,4.49,21.95,6.73,32.92,1.09,3.32.6,6.51-.78,9.62-2.13,4.81-3.22,10.03-5.72,14.7-.47.83-1,1.63-1.91,2.06-3.93-5.7-5.48-12.56-9.05-18.43Z"/>
        <path class="cls-73" d="M509.62,396.02c-1.56,4.86-1.42,9.72,0,14.57-2.3,3.75-.82,7.91-1.15,11.86-.27,3.24-.93,5.26-4.7,4.7-.89-.13-1.82.04-2.74.09-8.54.43-8.59.43-7.87-7.97.48-5.6,1.12-11.19,1.69-16.79-.82-1.32-1.03-2.58.38-3.68,4.44-2.46,9.07-4.2,14.26-3.8.04.34.08.67.12,1.01Z"/>
        <path class="cls-73" d="M460.15,402.46c.86-1.38,1.7-2.78,1.72-4.48,4.8-.5,9.16.73,13.21,3.27.35,3.61-.82,6.76-3.02,9.57-2.94,4.62-4.35,9.89-6.19,14.95-1.07,2.94-2.59,3.83-5.62,3.86-11.43.14-11.42.25-6.97-10.39,2.33-5.58,4.59-11.18,6.88-16.78Z"/>
        <path class="cls-99" d="M215.99,408.73c5.79.07,10.37,4.83,10.18,10.57-.19,5.67-4.95,10.12-10.8,10.09-5.32-.03-10-4.93-9.95-10.41.05-5.71,4.81-10.33,10.57-10.26Z"/>
        <path class="cls-12" d="M276.57,418.91c.03,5.96-4.66,10.54-10.75,10.49-5.41-.04-9.79-4.76-9.72-10.46.07-5.68,4.41-10.1,10.02-10.21,5.86-.11,10.43,4.34,10.46,10.18Z"/>
        <path class="cls-30" d="M285.46,411.53c-.73-4.52.96-6.84,5.74-7.37,3.99-.44,7.89-1.71,11.83-2.61,1.52,2.77,3.21,5.46,2.5,8.88-.93,4.52-4.6,8.18-8.76,8.58-5.68.55-8.98-1.64-11.31-7.49Z"/>
        <path class="cls-110" d="M231.61,406.18c1.82,0,3.63,0,5.45,0,1.26.79,1.49,2.21,2.12,3.4,1.3,2.43,4.4,2.76,5.15.29,1.38-4.55,4.25-3.54,7.31-2.86,0,0,.31-.03.31-.03.17,7.36-3.61,12-9.83,12.04-6.95.05-10.48-4.27-10.51-12.85Z"/>
        <path class="cls-48" d="M57.12,406.97c1.46.06,2.3-1.17,3.48-1.69-.11,5.09,1.1,10.25-.77,15.26-4.43-1.59-9.14-.75-13.67-1.58-1.29-.24-2.73.1-3.77-1.05,4.38-4.35,10.48-6.4,14.73-10.94Z"/>
        <path class="cls-116" d="M472.06,410.82c.3-3.29,1.66-6.26,2.81-9.29,1.16-1.13,2.33-.77,3.5-.03.29.31.57.63.84.97,0,0,.36-.04.36-.04,0,3.92-.13,7.84.03,11.75.09,2.08-.96,3.07-2.61,3.67-2.33.85-2.26-1.4-2.91-2.51-.82-1.42-1.36-3-2.02-4.51Z"/>
        <path class="cls-69" d="M123.82,422.54c-.06-.76.19-1.38.82-1.83,1.58.14,3-.32,4.33-1.14,5.97-3.67,12.46-6.35,18.5-9.87,2.69-.94,4.88-2.84,7.48-3.94,1.46-.62,2.86-1.77,4.57-.61,1.79,1.51.13,2.03-.82,2.54-10.61,5.6-21.25,11.14-31.86,16.75-2.27,1.2-3.06.41-3.03-1.89Z"/>
        <path class="cls-48" d="M159.53,405.14c-4.47.76-7.57,4.44-11.88,5.54-.89-3.31-.22-6.3,1.88-9,.53-2.03,1.06-4.06,1.75-6.72,1.99,2.15,3.64,3.94,5.29,5.73.99,1.48,1.98,2.97,2.96,4.45Z"/>
        <path class="cls-101" d="M495.24,398.81c-.13,1.23-.25,2.45-.38,3.68-4.54-.07-9.09-.13-13.63-.2,4.55-1.62,8.98-3.75,14.01-3.48Z"/>
        <path class="cls-51" d="M42.39,417.91c5.05.53,10.09,1.33,15.2.98,1.18-.08,2.06.32,2.24,1.65-5.31-.25-10.63-.51-15.94-.74-1.21-.05-2.06-.45-2.2-1.77.24-.05.48-.09.72-.12Z"/>
        <path class="cls-13" d="M479.21,402.46c-.22-.04-.43-.06-.65-.08-5.69-11.47-10.02-23.52-15-35.29-10.51-24.81-20.3-49.92-31.22-74.56-.4-.81-.76-1.64-1.09-2.49-.24-.63-.41-1.28-.54-1.93-.55-2.36-1.15-4.72-1.92-7.03-1.58-4.54-3.06-9.11-4.36-13.75-2.36-6.82-4.21-13.8-6.53-20.63-.68-2.75-1.59-5.43-2.18-8.21,0-.78.2-1.46.84-1.97,1.63-.88,3.25-.37,4.87.05,16.21,4.16,32.37,8.48,48.61,12.5,2.06.51,4.2.87,5.77,2.51.86.37,1.47.97,1.78,1.86.34,4.39.94,8.77-.08,13.15-1.02,2.29-3.26,3.06-5.27,4.08-11.37,5.75-23.12,10.72-34.75,17.07,10.57,1.54,20.84,2.69,31.11,3.79,1.65.18,3.78-.48,4.43,2-1.74-.04-2.18.59-2.02,2.47.58,6.65.75,13.33,1.28,19.98.75,9.36,1.73,18.7,2.52,28.05,1.53,18.11,3,36.23,4.46,54.34.11,1.35-.04,2.72-.07,4.08Z"/>
        <path class="cls-128" d="M473.04,293.55c-7-.88-14-1.76-21-2.63-5.92-.74-11.85-1.48-17.95-3.03,14.24-6.94,28.48-13.87,42.72-20.81.54-.2.98-.06,1.31.41,2.31,7.83,3.81,15.84,5.22,23.87.2,1.13.83,2.78-1.15,3.31-3.05-.37-6.1-.75-9.15-1.12Z"/>
        <path class="cls-43" d="M482.19,294.67c-.01-7.88-2.89-15.25-4.1-22.92-.23-1.48-.36-2.99-.54-4.48,4.57-2.58,9.17-2.03,13.79-.15.24-.03.48-.06.72-.1.09.32.18.64.26.96-.04,16.5-.07,32.99-.11,49.49-3.3-5.48-4.88-11.7-7.42-17.5-.79-1.8-1.73-3.54-2.61-5.3Z"/>
        <path class="cls-12" d="M136.5,309.3c-.15,10.93-.36,21.87-.42,32.8-.01,2.56-.9,3.17-3.26,2.51-3.21-.9-6.47-1.62-9.71-2.41-4.56,1.35-8.52-1.66-12.88-1.76-.75-.17-1.42-.49-1.9-1.11-.03-.26-.07-.51-.12-.76,2.67-.61,1.92-2.8,1.84-4.44-.5-10.41-1.17-20.8-.86-31.23,0,0,.06-.4.06-.4,1.12-.7,2.31-.58,3.51-.31,7.23,1.64,14.32,3.8,21.49,5.64.89.23,1.66.72,2.24,1.46Z"/>
        <path class="cls-86" d="M136.69,244.44c6.06-.98,12.12-1.96,18.18-2.94,3.54.03,2.87,2.02,2.13,4.29-3.05,9.31-6.02,18.66-9.02,27.99-.64,2.01-1.46,3.98-1.39,6.15-.26.6-.51,1.2-.77,1.8-2.35,1.46-3.54-.76-5.06-1.68-1.93-1.18-3.85-2.4-5.49-3.99-3.67-4.51-7.93-8.62-9.6-14.46.31-.58.61-1.17.92-1.75-.21-4.49,3.58-6.96,5.35-10.45,1.04-2.06,1.95-4.48,4.76-4.94Z"/>
        <path class="cls-89" d="M125.66,261.58c3.35,4.56,6.7,9.13,10.05,13.69-6.94,5.72-13.96,11.35-20.76,17.24-1.13.98-2.34,1.91-3.92,2.08-5.27-4.95-9.36-10.88-13.86-16.47,6.99-5.32,15.07-8.82,22.49-13.43,1.91-1.18,4-2.08,6-3.1Z"/>
        <path class="cls-123" d="M137.47,224.15c-.68,6.06-1.04,12.14-.88,18.24-.5,1.46-1.15,2.95-2.9,3-6.37.17-12.82,1.46-19.05-.98-.23-.09-.47-.15-.71-.2-4.25-7.04-10.39-12.57-15.27-19.1-1.63-2.18-3.36-4.29-5.04-6.43,7.52,3.01,13.93,7.95,20.75,12.13,9.95,6.11,9.81,6.31,18.12-2,1.61-1.61,3.32-3.1,4.99-4.65Z"/>
        <path class="cls-65" d="M114.63,244.4c5.76-.01,11.53-.09,17.29,0,1.94.03,3.59-.22,4.67-2.01.03.68.06,1.37.09,2.05-3.84,4.82-6.89,10.16-10.1,15.39-.97,0-1.77-.35-2.32-1.18-3.21-4.75-6.41-9.5-9.62-14.25Z"/>
        <path class="cls-89" d="M120.19,152.81c4.28-.54,8.56-1.08,12.84-1.62-2.08,6.67-.93,13.51-.69,20.23.13,3.57.73,7.21.58,10.82-.38,9.4,1.08,18.71,1.07,28.08-3.06.01-6.12.03-9.19.04-2.03-2.26-1.51-5.18-1.75-7.79-.72-8.07-2.28-16.11-1.44-24.28.48-.98,1.29-1.64,2.18-2.26q4.32-2.98,1.33-7.07c-1.79-2.45-3.53-4.93-5.14-7.52-1.05-2.91-1.87-5.81.2-8.64Z"/>
        <path class="cls-12" d="M141.97,189.52c-1.06-1.4-2.11-2.8-3.17-4.2,7.39,2.74,13.55-.76,19.89-3.12,1.11-1.12,2.3-1.04,3.53-.23,2.76,1.66,4.68,5.22,9.02,3.03,1.76-.89,2.3.61,1.13,2.23-.96,1.33-1.83,2.73-2.75,4.1-1.41,2.3-3.5,3.11-6.14,3.11-4.85-.01-9.7-.22-14.54.14-3.87.29-4.91-3.01-6.98-5.04Z"/>
        <path class="cls-115" d="M162.21,181.96c-1.18.08-2.36.16-3.53.23-1.98.12-1.69-2.08-2.85-2.8-.59-4.25-2.69-8.49-.03-12.75.01-1.67.01-3.34.04-5.01.13-7.39-1.33-6.98,7.15-6.88,2.38,3.92,2.27,7.86.09,11.82.32,5.16-.47,10.26-.86,15.38Z"/>
        <path class="cls-83" d="M155.8,166.64c.01,4.25.02,8.5.03,12.75-2.12-3.34-2.35-7.31-3.63-10.93-.58-1.66-.58-3.56-2.1-4.8-.87-1.69-2.03-3.15-3.43-4.43-1.33-1.88-4.2-1.58-5.33-3.76,4.08-1.95,8.38-2.22,12.78-1.7,1.61,2.45.42,5.19.79,7.77.24,1.71-.55,3.59.87,5.1Z"/>
        <path class="cls-60" d="M141.97,189.52c8.84,6.39,18.25,4.07,27.66,1.79-.68,3.53-2.7,4.93-6.38,4.78-3.59-.15-7.21.49-10.83.58-7.36.18-7.37.12-10.45-7.15Z"/>
        <path class="cls-74" d="M163.08,166.58c-.03-3.94-.06-7.88-.09-11.82.29-.33.58-.67.86-1,3.1-.58,6.2-.13,9.3.09,1.59,2.55-.49,3.46-2.05,4.6-1.46,1.27-2.71,2.7-3.43,4.52-1.63,1.07-1.79,4.02-4.59,3.61Z"/>
        <path class="cls-81" d="M154.14,153.78c-4.15,1.37-8.44,1.73-12.78,1.7,6.97-7.95,4.12-6.87,12.78-1.7Z"/>
        <path class="cls-124" d="M173.15,153.84c-3.11,1.65-6.21,1.49-9.3-.09q4.19-4.27,9.3.09Z"/>
        <path class="cls-28" d="M146.68,159.23c3.35-.23,4.36,1.35,3.43,4.43-1.49.91-3,1.36-4.3-.25-1.36-1.69-.33-2.98.87-4.18Z"/>
        <path class="cls-23" d="M167.67,162.97c-.84-3.01.53-4.35,3.43-4.52,1.01,1.38,2.63,2.66.91,4.57-1.45,1.6-2.9.87-4.34-.04Z"/>
        <path class="cls-89" d="M483.87,135.58c.91,5.52,1.83,11.04,2.74,16.57,2.14,2.46,1.6,5.71,2.5,8.53-.04,1.97-.02,3.95-.21,5.91-1.51,2.33-3.21,4.55-4.17,7.2-.27,3.61-1.09,7.14-1.5,10.73-2,6.3-5.74,11.75-8.66,17.61-.26.37-.57.7-.92.99-10.42,6.68-20.91,13.25-31.29,19.99-1.13.73-2.25,1.56-3.74,1.41-.47-.19-.79-.52-.99-.99,0-7.2,1.55-14.16,3.15-21.11,8.79-3.32,17.22-7.45,25.63-11.78-.89-.68-2.29-.76-2.53-2.15,3.41-15.28,6.81-30.55,10.23-45.83.13-.59.37-1.15-.15-1.66-.31-.18-.41-.37-.31-.55.1-.18.21-.28.31-.28,4.19-.53,5.89-4.58,9.1-6.48.27.63.53,1.26.8,1.89Z"/>
        <path class="cls-24" d="M412.77,181.18c-1.67-5.57-5.95-9.88-7.48-15.51,1.02-1.1,2.39-1.43,3.75-1.34,6.41.44,13-1.61,19.23,1.35.04,2.78-.94,5.37-1.57,8.02-.64,2.66-.42,4.34,2.93,5.28,5.08,1.43,10.34,2.45,15.12,4.86,1.59,4.92.2,9.46-1.8,13.91-1,.67-2.09.56-3.03.04-9.32-5.08-18.69-10.11-27.15-16.6Z"/>
        <path class="cls-63" d="M441.93,197.73c1.96-4.43,2.08-9.23,2.82-13.9,6.38,1.55,12.75,3.11,19.13,4.66,1.35,1.26,3.65.38,5.04,2.32-8.32,3.93-16.51,7.8-24.69,11.69-.9.43-1.69.7-2.37-.29-.76-.72-.89-1.63-.85-2.61.09-.73.34-1.37.91-1.87Z"/>
        <path class="cls-115" d="M452.99,136.46c2.56-2.77,4.61-1.95,6.36.91.24,6.18-1.69,11.62-5.54,16.42-.64.94-1.28,1.88-1.92,2.82-1.85,1.15-3.26.51-4.42-1.1-1.01-4.1,2.16-7.14,2.72-10.85-.99-3.39.01-6.1,2.8-8.2Z"/>
        <path class="cls-58" d="M428.27,165.67c-7.66,0-15.32,0-22.98,0-1.15-1.83-2.3-3.65-3.44-5.48,7.57,0,15.15-.03,22.72.03,1.6.01,3.37-.56,4.71.92-.09,1.57-.12,3.15-1,4.54Z"/>
        <path class="cls-83" d="M453.81,153.79c1.85-5.47,3.69-10.94,5.54-16.42,1.98-1.37,4.24-.86,6.41-.91,2.45,1.05,5.15,1.59,7.12,3.59.36.04.72.07,1.08.11v.83c-1.6,1.35-4.42.23-5.47,2.7-1.83.51-3.42,1.39-4.7,2.81-3.95,1.23-5.75,4.95-8.55,7.5-.83.76-1.19,1.43-1.43-.23Z"/>
        <path class="cls-36" d="M452.99,136.46c-.93,2.73-1.87,5.47-2.8,8.2-3.6.38-1.62-3.66-3.62-4.55-1.18-1.3-2.52-2.45-3.7-3.74.02-1.69-1.21-2.49-2.34-3.4-1.45-1.17-.38-1.56.66-1.92,2.63.69,5.5.31,7.98,1.71,2.17.31,4.01.96,3.82,3.7Z"/>
        <path class="cls-42" d="M444.73,162.19c6.44-.41,11.39,3.87,17.2,5.44.29,1.49-.9,1.41-1.77,1.67-.49.06-.97.13-1.45.22-6.46-.05-12.72-1.04-18.62-3.84-.47-.22-.85-.54-1.15-.96-.43-1.59.33-2.16,1.82-2.23,1.32-.06,2.68.25,3.97-.31Z"/>
        <path class="cls-71" d="M459.18,168.53l1.12-.03c.49.44,1.36.7.82,1.65-3.58,1.24-7.19,2.4-10.74,3.72-6,2.24-5.98,2.29-8.68-3.58.32-.34.71-.55,1.16-.65,5.55,1.26,10.94.2,16.32-1.11Z"/>
        <path class="cls-5" d="M463.79,146.52c.1-3.38,1.57-4.48,4.7-2.81,1.12,1.72.84,3.22-.92,4.22-1.69.96-2.84-.06-3.77-1.41Z"/>
        <path class="cls-84" d="M442.87,136.37c2.67-.17,3.91,1.07,3.7,3.74-1.39,1.15-2.79,2.47-4.54.62-1.71-1.8-.79-3.17.84-4.36Z"/>
        <path class="cls-18" d="M449.17,132.76c-2.71-.34-5.74.82-7.98-1.71,3.16-1.79,5.81-1.12,7.98,1.71Z"/>
        <path class="cls-114" d="M472.88,140.05c-2.45-1.05-5.38-1.13-7.12-3.59,3.21-.47,5.95,0,7.12,3.59Z"/>
        <path class="cls-117" d="M447.47,155.5c1.48.37,2.95.74,4.42,1.1-.48,1.37-1.55,2.62-2.85,2.28-1.3-.33-2.51-1.58-1.58-3.39Z"/>
        <path class="cls-19" d="M444.73,162.19c-1.36,1.85-4.79-.8-5.48,2.51.34.83-.04,1.02-.78.88-1.27-1.83-1.7-3.36,1.37-3.44,1.63-.04,3.27.03,4.9.04Z"/>
        <path class="cls-121" d="M438.46,165.58c.26-.29.52-.59.78-.88.33.05.66.1,1,.15,1.41,1.55,3.47,2.78,2.59,5.42-.38,0-.75.02-1.13.03-1.54-1.26-2.38-2.99-3.24-4.72Z"/>
        <path class="cls-96" d="M461.11,170.15c-.27-.55-.54-1.1-.82-1.65.62-.15,1.34-.1,1.63-.87.81.09,1.75.62,1.43,1.25-.32.64-1.47.86-2.25,1.26Z"/>
        <path class="cls-43" d="M225.22,220.51c3.43-5.56,6.76-11.17,10.32-16.65,1.49-2.3,1.08-3.13-1.56-3.39-2.56-.25-5.11-.73-7.66-1.1-.92-.93-1.07-2.09-1.07-3.34.03-11.34.04-22.69.05-34.03,5.71-1.18,11.4.15,17.11.18,6.47.03,12.94.79,19.41,1.25,2.28.16,4.55.36,6.1,2.4.97,1.81.89,3.8.9,5.75.03,8,.04,16,0,24,0,1.95.09,3.95-1.03,5.71-2.93,2.3-6.39,1.3-9.65,1.46-5.19.26-5.74.62-5.77,5.81-.08,12.87-.02,25.75-.04,38.63,0,2.27.13,4.55-.36,6.78-.95,3.23-3.89,4.13-6.51,5.21-4.94,2.03-9.65,4.51-14.42,6.86-1.33.66-2.93,1.05-3.27,2.86-.8,4.94.67,10.01-.96,14.89-.6.7-1.21,1.34-2.03.26-1.12-1.96-.94-4.12-.95-6.24-.03-16.42.01-32.85-.04-49.27,0-2.79.49-5.43,1.41-8.02Z"/>
        <path class="cls-58" d="M267.4,165.65c-9.34-.9-18.68-1.83-28.03-2.67-4.68-.42-9.38-.66-14.07-.98,1.37-1.46,3.16-.82,4.76-.83,15.53-.05,31.06-.23,46.59-.01,36.82.52,73.61-1.16,110.42-.97.61,1.83,1.21,3.66,1.82,5.49-1.73,1.62-3.92,1.48-6.03,1.49-36.47.03-72.95.03-109.42,0-2.12,0-4.3.1-6.03-1.51Z"/>
        <path class="cls-79" d="M368,93.39c3.56-2.96,5.26-1.59,7.11,2.25,3.09,6.42,6.81,12.55,10.47,18.69,1.43,2.4,1.72,3.93-1.18,5.36-3.4,1.68-6.62,3.73-9.87,5.69-1.65.99-2.62.74-3.58-1.04-1.79-3.34-3.84-6.55-5.78-9.81-2.2-4.12-4.35-8.28-6.62-12.36-1.03-1.85-1.37-3.1,1.09-4.19,2.9-1.28,5.59-3.04,8.38-4.59Z"/>
        <path class="cls-108" d="M305.79,152.01c-14.08-.05-28.17-.1-42.25-.14.08-16.43.16-32.87.25-49.3,7.03,3.6,12.27,9.7,19.05,13.65.43.33.75.75.95,1.26.31.86.42,1.76.42,2.67-.01,7.76-.27,7.58,8.31,7.66,2.63.02,5.48-.73,7.79,1.35,3.9,4.95,9.6,7.7,14.31,11.65,4.33,3.63,8.93,6.94,14.48,11.2-8.63,0-15.97,0-23.31,0Z"/>
        <path class="cls-79" d="M282.92,117.25c-.03-.34-.05-.69-.08-1.03-.52-3.61,1.04-4.68,4.61-4.54,7.29.28,14.6.32,21.88.01,3.98-.17,5.17,1.33,4.66,4.97-.58,4.11,1.11,8.4-1,12.39-8.12-3.04-15.29-7.88-22.82-12.04-2.68-1.48-4.91-2.25-7.25.25Z"/>
        <path class="cls-13" d="M282.92,117.25c1.51-1.01.34-2.95,1.72-4.43,9.36,5.44,19.33,9.99,28.36,16.22-4.23.04-8.46.07-12.69.11-4.65-.01-9.31-.12-13.96,0-2.47.06-3.59-.75-3.46-3.34.15-2.84.03-5.7.03-8.55Z"/>
        <path class="cls-118" d="M217.83,287.04c0-15.92.02-31.84-.05-47.76,0-.55,1.27-3.62-1.55-1.36.28-1.79.56-3.58.83-5.37,2.72-4.02,5.44-8.03,8.16-12.05,0,21.3,0,42.59,0,63.89-1.56,2.15-3.79,3.06-6.32,3.4-.46-.1-.81-.35-1.06-.76Z"/>
        <path class="cls-72" d="M179.59,242.46c0-1.87-.1-3.75.9-5.45,2.42.64,4.84,1.28,7.26,1.92-2.08,2.66-5.41,2.44-8.17,3.54Z"/>
        <path class="cls-126" d="M203.45,257.91c-2.24-.47-4.48-.93-6.71-1.4.07-.34.13-.68.2-1.02,2.23.41,4.47.83,6.7,1.24-.06.39-.12.79-.19,1.18Z"/>
        <path class="cls-126" d="M186.78,253.24c3.41.77,5.55,1.25,7.7,1.73-2.34-.06-4.87.9-7.7-1.73Z"/>
        <path class="cls-126" d="M193.31,246.18c2.44.59,4.88,1.19,7.31,1.78.3.19.4.38.3.57-.1.19-.2.28-.3.28-2.44-.59-4.88-1.19-7.31-1.78-.3-.19-.4-.38-.3-.57.1-.19.2-.28.3-.28Z"/>
        <path class="cls-126" d="M202.46,237.91c1.89.37,3.77.74,6.02,1.19-2.41,1.41-4.15-.16-6.01-.3-.32-.19-.43-.39-.32-.59.1-.2.21-.3.31-.3Z"/>
        <path class="cls-56" d="M198.78,237.93c-1.58-.36-3.17-.71-5.27-1.19,2.57-1.31,4.26.65,6.16.27.23.82.06,1.25-.89.91Z"/>
        <path class="cls-126" d="M193.31,246.18c0,.28,0,.57,0,.85-1.69-.02-3.46.22-5.03-1.76,1.96.35,3.49.63,5.03.91Z"/>
        <path class="cls-22" d="M185.86,253.61c-.56.27-.91.58-1.26.58-.65,0-1.1-.43-.79-1.09.12-.25.74-.41,1.1-.36.3.05.55.47.96.86Z"/>
        <path class="cls-126" d="M200.63,248.81c0-.28,0-.57,0-.85,1.33.03,2.74-.26,4.09,1.01-1.55.85-2.82-.48-4.09-.16Z"/>
        <path class="cls-100" d="M198.78,237.93c.3-.3.6-.61.89-.91.93.3,1.86.59,2.79.89,0,.3,0,.59,0,.88-1.28-.06-2.69.4-3.69-.86Z"/>
        <path class="cls-80" d="M384.28,150.15c-1.55-2.99-3.1-5.97-4.64-8.95,2.32-1.67,4.68-3.24,7.49-3.99.81,3.1-1.41,6.2-.03,9.31-.48,1.56-2.71,1.78-2.81,3.63Z"/>
        <path class="cls-123" d="M169.54,299.14c.34.27.68.55,1.02.82-2.31,3.2-2.54,7.56-5.7,10.28-6.98-1.92-13.98-3.79-20.94-5.8-1.77-.51-3.5-.94-5.34-.82-9.08-2.05-18.23-3.89-26.64-8.14-.31-.3-.62-.6-.93-.91,7.24-6.14,14.48-12.28,21.7-18.43.88-.75,1.92-.81,2.98-.88,3.52,1.92,6.16,5.2,10.11,6.45,7.87,5.85,15.44,12.12,23.72,17.42Z"/>
        <path class="cls-86" d="M111.95,295.49c8.98,2.37,18.14,4.18,26.64,8.14-.69,1.89-1.39,3.78-2.08,5.67-9.25-1.58-18.13-4.65-27.24-6.79.9-2.34,1.79-4.68,2.69-7.02Z"/>
        <path class="cls-75" d="M205.22,227.61c-2.97-.2-5.91-.53-9.7-2.43,4.07.45,6.95.84,9.7,1.96,0,.16,0,.32,0,.47Z"/>
        <path class="cls-38" d="M206.12,220.36c-2.53-.77-5.38-.39-8.61-2.68,3.53.92,6.22.62,8.61,1.99.3.15.39.3.3.46-.1.15-.19.23-.29.23Z"/>
        <path class="cls-53" d="M218.92,208.59c2.73.54,4.73.93,6.72,1.32-2.18.64-4.27.8-6.72-1.32Z"/>
        <path class="cls-122" d="M205.22,227.61c0-.16,0-.32,0-.47,2.09.27,4.18.54,6.27.81.28.84.06,1.21-.86.92-1.91.06-3.65-.63-5.41-1.26Z"/>
        <path class="cls-31" d="M216.15,214.34c1.58.31,3.16.63,5.27,1.05-2.26,1.07-3.77.45-5.26-.45,0-.2,0-.4,0-.6Z"/>
        <path class="cls-61" d="M211.6,214.01c-1.76.24-3.44.2-5.26-1.67,2.13.44,3.69.77,5.25,1.09,0,.19,0,.38,0,.58Z"/>
        <path class="cls-95" d="M210.68,220.57c1.48-.14,2.95-.2,4.79,1.55-2.09-.36-3.44-.6-4.78-.83-.32-.16-.42-.31-.32-.48.1-.16.21-.24.31-.24Z"/>
        <path class="cls-22" d="M210.68,220.57c0,.24,0,.48,0,.72-1.52-.31-3.05-.62-4.57-.92,0-.23,0-.46,0-.69,1.63-.27,3.16.02,4.57.9Z"/>
        <path class="cls-100" d="M211.6,214.01c0-.19,0-.38,0-.58,1.52.3,3.04.6,4.56.9,0,.2,0,.4,0,.6-1.64.3-3.18.05-4.56-.93Z"/>
        <path class="cls-29" d="M204.81,212.72c-1.51.34-2.63-.3-4-.89,1.66-.72,2.88-.5,4,.89Z"/>
        <path class="cls-119" d="M210.62,228.87c.29-.31.57-.61.86-.92.72,0,1.85.05,1.52.93-.55,1.44-1.57.64-2.38,0Z"/>
        <path class="cls-55" d="M212.5,207.75h4.76c-2.3,1.17-3.58,1.26-4.71-.07l-.05.07Z"/>
        <path class="cls-14" d="M212.56,207.69h-4.75c2.28-1.15,3.57-1.25,4.7.07,0,0,.05-.07.05-.07Z"/>
        <path class="cls-86" d="M120.19,152.81c-.07,3.02-.17,6.04.9,8.94,1.73,5.21,2.28,10.54,1.71,16-.7,4.46.17,8.9.38,13.34.29,6.44,1.06,12.85,1.62,19.28-3.69.65-7.42,1.14-11.07,1.99-3.17.74-3.95-.49-3.64-3.38.18-1.64-.02-3.31-.05-4.97.02-3.34.04-6.68.06-10.02.01-2.38.03-4.76.04-7.13-2.7-3.81-.37-7.79-.42-11.68.06-1.05-.06-2.09,0-3.14.26-3.09-.41-6.23.48-9.28.23-.56.45-1.11.68-1.67.05-3.01.02-6.03.19-9.04.1-1.73-.47-2.89-2.01-3.62,3.71-.02,7.43-.03,11.14-.05-1.05,1.48.13,2.97-.02,4.45Z"/>
        <path class="cls-92" d="M438.27,224.1c.32.01.64.02.97.04,7.97.11,15.4,2.98,23.07,4.6,4.22.89,8.83.69,12.5,3.59.74,6.41,1.22,12.83,1.01,19.28-18.05-4.55-36.11-9.09-54.15-13.66-1.76-.45-3.45-1.22-5.33-.95-2.02-.39-.63-1.51-.51-2.36,3.19-4.81,5.68-10.09,9.64-14.39.43-.15.88-.18,1.33-.13,3.75,1.56,8.1,1.39,11.49,3.97Z"/>
        <path class="cls-41" d="M474.81,232.32c-12-2.13-23.92-4.56-35.57-8.19,11.2-7.28,22.41-14.55,33.61-21.83,3.41,4.73,2.73,10.06,2.02,15.3-.31,2.27-.73,4.46-.1,6.71.02,2.67.03,5.34.05,8.01Z"/>
        <path class="cls-92" d="M474.76,224.31c-1.55-7.26-.03-14.78-1.92-22,.33-.04.65-.09.98-.13,3.99,1.05,6.45,4.33,9.54,6.66,2.03,1.53,3.85,3.35,6.04,4.64,1.69-.77.18-3.55,2.54-3.76.06,2.7.12,5.39.18,8.09-5.15-.98-10.32-.11-15.38.38-3.2.31-1.11,4.09-1.98,6.14Z"/>
        <path class="cls-6" d="M491.35,267.12c-4.6.05-9.19.1-13.79.15-.24-.09-.48-.16-.74-.2.47-4.52-1.43-9.18.78-13.61,4.33,4.8,9.79,8.48,13.75,13.66Z"/>
        <path class="cls-15" d="M267.4,165.65c40.49,0,80.99.02,121.48.03,3.39,10.95,6.78,21.91,10.17,32.86-.2.2-.4.4-.6.6-3.64,1.55-7.48.85-11.22.82-3.7-.03-5.13,1.42-5.11,5.1.08,11.2.06,22.41.01,33.61,0,2.25.25,4.57-1.09,6.62-7.79,2.29-15.58,1.96-23.37-.05-2.36-1.72-1.17-3.87-.49-5.77,2.26-6.28,4.55-12.56,7.01-18.76,1.97-3.57,2.85-7.6,4.69-11.24.96-1.9.32-3.17-1.75-3.72-.87-.23-1.72-.55-2.58-.82-4.67-1.47-4.87-1.38-6.12,3.47-.64,2.48-1.37,4.93-2.17,7.37-2.9,7.44-5.96,14.82-8.89,22.25-.55,1.39-.95,2.88-2.22,3.87-1.35.62-2.72.33-3.9-.27-5.14-2.62-11.28-3.03-15.73-7.15-.48-4.15,2.09-7.47,3.09-11.21,1.36-3.05,2.4-6.25,3.85-9.26,1.11-2.31.59-3.76-1.88-4.52-1.31-.4-2.61-.83-3.89-1.31-2.24-.83-3.44-.03-3.97,2.23-.71,2.96-1.38,5.93-2.31,8.83-3.47,9.12-7.01,18.21-11.05,27.09-6.52-2.18-13.28-3.61-19.57-6.45-1.49-.67-3.21-.95-4.02-2.65-1.37-8.41-.43-16.87-.6-25.31-.2-9.85.59-9.01-9.08-9.16-2.94-.05-6.09.79-8.72-1.37.01-11.9.02-23.81.04-35.71Z"/>
        <path class="cls-13" d="M426.28,220.5c-.26,0-.52.01-.78.04-4.36-.03-6.13-4.19-9.45-5.9-4.71-4.3-9.83-8.11-14.56-12.39-1.06-.96-2.75-1.55-2.44-3.49,0,0,0-.23,0-.23,5.37-5.15,9.01-11.68,13.72-17.36,7.81,3.37,14.57,8.57,22.01,12.58,2.4,1.29,4.77,2.64,7.15,3.96-.02.7-.03,1.4-.05,2.1-3.17,7.14-8.74,12.65-12.96,19.07-.58.89-1.49,1.51-2.64,1.6Z"/>
        <path class="cls-86" d="M108.34,339.33c.57.02,1.15.03,1.72.05,3.82,1.91,4.77,6.09,7.22,9.08.28,4.21,3.73,6.71,5.5,10.13.82,1.59,1.8,3.09,2.71,4.64-7.87,3.95-15.74,7.9-23.61,11.85-2.12-1.05-2.87-3.74-5.31-4.41-2.56-5.43-7.57-8.83-11.22-13.36-3.19-3.96-7.1-7.36-10.08-11.55,9.4-1.83,18.81-3.66,28.21-5.49,1.62-.31,3.23-.63,4.85-.94Z"/>
        <path class="cls-10" d="M488.62,166.38c-1.48-1.79-.81-3.64-.17-5.49-.39-2.49.42-4.35,2.84-5.35,4.01,1.68,7.56,3.98,10.28,7.44-2.14,3.1-4.56,6.04-6.33,9.34-1.84,3.42-3.57,3.41-5.93.79-.93-2.17.9-4.62-.69-6.72Z"/>
        <path class="cls-62" d="M491.29,155.54c-.95,1.78-1.89,3.57-2.84,5.35-1.64-2.7-1.6-5.76-1.85-8.75,2.83-.62,3.26,2.08,4.68,3.4Z"/>
        <path class="cls-43" d="M491.95,209.71c-1.37,6.33-1.43,6.41-6.84,2.09-3.86-3.08-7.52-6.41-11.28-9.63,1.97-6.19,5.97-11.39,8.51-17.3.61-.51-.14-2.15,1.5-1.8,2.28,1.8,3.64-1.2,5.59-1.09,1.72,5.75,1.91,11.68,1.9,17.62,0,2.84-.16,5.71,1.8,8.12-.4.66-.79,1.33-1.19,1.99Z"/>
        <path class="cls-52" d="M110.2,162.74c1.56,2.98.5,6.15.64,9.23-1.76.64-2.5-1.92-4.62-1.4,1.51,1.75,3.65,2.44,4.6,4.32-.23,3.99-.45,7.97-.68,11.96-3.75.59-4.25-2.62-5.64-4.8-1.82-4.22-3.65-8.45-5.47-12.67.38-3.49,3.82-2.91,5.8-4.24,1.61-1.07,3.57-1.62,5.37-2.4Z"/>
        <path class="cls-17" d="M488.62,166.38c4.55,1.8.88,4.44.69,6.72-.8,1.19-1.6,2.37-2.4,3.56-1.95-.43-3.08-1.55-3.02-3.65,1.3-2.41,1.87-5.34,4.74-6.63Z"/>
        <path class="cls-67" d="M483.89,173.01c1.01,1.22,2.01,2.44,3.02,3.65-1.02,2.14-2.04,4.27-3.06,6.41-.5.6-1,1.2-1.5,1.8.56-3.95.27-8.01,1.54-11.87Z"/>
        <path class="cls-83" d="M164.86,310.24c1.78-3.49,1.57-8.09,5.7-10.28,8.26.82,16.26,3.29,24.57,3.75,1.51.73,1.84,1.72.67,3.04-3.89,3.64-5.63,8.8-9.04,12.79-4.26-.69-8.23-2.06-11.62-4.83-3.43-1.49-6.86-2.97-10.29-4.46Z"/>
        <path class="cls-94" d="M149.53,401.68c-.63,3-1.25,6-1.88,9-6.59,3.56-13.16,7.17-19.8,10.64-.97.51-2.71,2.47-3.2-.61,2.12-5.83,4.2-11.68,6.39-17.48.87-2.3,1.38-4.62,1.19-7.08.92,1.05,1.2,2.46,3.13,2.8,4.73.83,9.31,2.49,14.16,2.73Z"/>
        <path class="cls-103" d="M175.14,314.7c3.93,1.45,7.86,2.9,11.79,4.35,1.66-.73,2.83-.18,3.62,1.38,1.11,2.29,1.69,4.7,1.78,7.24-5.27-1.72-10.53-3.46-15.82-5.13-1.75-.55-2.39-1.47-1.91-3.35.37-1.45.37-2.99.54-4.49Z"/>
        <path class="cls-112" d="M117.29,348.47c-4.02-1.75-4.49-6.31-7.22-9.08,4.54.06,8.69,1.92,13.05,2.82-1.94,2.09-3.89,4.18-5.83,6.26Z"/>
        <path class="cls-86" d="M249.81,328.39c13.71,0,27.41.1,41.12-.06,3.16-.04,3.53.82,2.6,3.6-6.75,20.01-13.42,40.04-20.02,60.1-.81,2.47-2.1,3.17-4.62,3.15-17.21-.12-34.42-.16-51.62-.01-2.99.03-4.21-1.26-4.57-3.77-1.93-13.47-3.76-26.94-5.66-40.41-.8-5.68-1.64-11.36-2.57-17.03-.79-4.81-.24-5.56,4.7-5.57,13.55-.01,27.11,0,40.66,0Z"/>
        <path class="cls-77" d="M218.89,287.3c2.11-.97,4.21-1.93,6.32-2.9.35-.25.69-.5,1.04-.75,2.13-2.92,5.27-3.27,8.5-3.28,10.56-.03,21.13-.1,31.69.02,8.45.36,9.53,1.29,8.56,9.59-.77,6.62-.51,13.24-.82,19.85-.05,2.59.58,5.31-1.4,7.55-4.12-.34-8.35.92-12.38-.82-2.03-1.3-1.72-3.43-1.73-5.33-.01-6.21-.42-12.44.29-18.63.33-2.85-.78-3.93-3.46-3.87-9.54.21-19.09-.52-28.63.53-2.72.3-6.07,1.7-7.98-1.94Z"/>
        <path class="cls-47" d="M288.31,317.2c-3.57.05-7.13.11-10.7.16-1.76-2.43.64-4.31.85-6.48,3.93-10.11,7.35-20.41,11.41-30.47,1.43-4.58,3.38-8.98,4.81-13.56,1.95-4.19,2.56-8.96,5.49-12.73,3.96.17,7.69.8,9.83,4.74-1.06,7.31-4.35,13.91-6.81,20.76-3.97,11.02-7.92,22.06-12.08,33.02-.65,1.71-1.11,3.51-2.81,4.56Z"/>
        <path class="cls-90" d="M288.31,317.2c7.04-19.43,14.07-38.86,21.11-58.29.53-.54,1.17-.86,1.92-.96,3.22.21,6.13,1.15,8.46,3.5.82,2.23-.46,4.14-.96,6.16-1.87,4.43-3.21,9.05-4.95,13.53-3.63,9.72-7.04,19.51-10.63,29.24-1.13,1.95-1.1,4.51-3.17,5.95-3.8,2.07-7.84.75-11.79.86Z"/>
        <path class="cls-111" d="M195.28,306.46c1.22-.99.12-1.85-.15-2.76.24-1,.63-1.83,1.87-1.76,11.77-.74,23.53-1.82,35.35-1.49,6.93.2,8.04,1.28,7.32,8.07-.31,2.94.64,6.14-1.57,8.74-14.32,0-28.64,0-42.95-.01-.69-3.61-.99-7.21.13-10.8Z"/>
        <path class="cls-111" d="M218.89,287.3c2.21,1.5,4.75.92,7.02.65,10.43-1.23,20.88-.32,31.31-.72,2.55-.1,4.08.37,3.62,3.49-1.28,8.58-.52,17.21-.44,25.82-2.99,1.61-6.2.52-9.3.72-2.92-4.14-1.47-8.8-1.36-13.22.15-5.99.25-6.18-5.7-6.23-6.68-.05-13.36.02-20.03-.03-2.1-.02-4.29.24-6.12-1.21-.5-3.12-.6-6.25.05-9.36,0,0-.1-.17-.1-.17.35.09.71.17,1.06.26Z"/>
        <path class="cls-25" d="M217.99,296.49c9.74.03,19.47.19,29.2.03,3.71-.06,4.95,1.2,4.32,4.82-.92,5.27-.45,10.61-.42,15.92-4.33,0-8.66,0-12.99,0,.5-3.92-.33-7.88.66-11.8.78-3.06-1.27-3.59-3.73-3.52-10.48.26-20.95.56-31.43.7-2.19.03-4.55.84-6.6-.7,6.17-3.84,12.86-5.79,20.16-5.48.3-.6.58-.59.83.03Z"/>
        <path class="cls-112" d="M300.1,316.34c.69-2.07,1.39-4.14,2.08-6.22,4.09-1.9,8.16-2.33,12.17.22.77,1.82.66,3.38-1.35,4.34-1.12.7-.72,2.82-2.61,2.79-3.41-.61-7.06,1.07-10.29-1.14Z"/>
        <path class="cls-68" d="M195.28,306.46c.85,3.61,1.18,7.22-.13,10.8-1.51,1.09-2.59,2.8-4.6,3.17-1.2-.46-2.41-.92-3.62-1.38,1.64-4.95,4.25-9.26,8.35-12.59Z"/>
        <path class="cls-21" d="M251.64,407.02c-2.26.42-5.86-2.02-5.65,3.39.08,2.16-3.31,2.21-5.24,2.74-1.8.49-2.08-1.38-2.51-2.6-.5-1.42-.8-2.91-1.18-4.36,4.86.33,9.82-1.22,14.58.83Z"/>
        <path class="cls-33" d="M279.64,311c-.68,2.12-1.36,4.24-2.04,6.36-1.61,0-3.22,0-4.83,0,.05-2.45.11-4.9.16-7.35,2.5-1.46,4.86-2.03,6.7.99Z"/>
        <path class="cls-15" d="M430.01,280.9c.62,2.47,1.24,4.94,1.87,7.41-1.82,1.46-3.99,1.14-6.07,1.17-5.57.07-11.14-.15-16.71.1-3.65.17-3.94.95-2.1,4.38,1.29,3.6.45,7.33.75,10.99.1,19.47.04,38.94.03,58.41,0,2.12.14,4.29-1.12,6.19-4.08,2.17-8.22,1.95-12.38.25-1.51-1.93-1.28-4.24-1.29-6.47-.04-5.54-.09-11.08.11-16.62-.23-10.61-.21-21.23-.02-31.84.05-6.82-.57-13.65.4-20.44,1.48-4.36,1.24-4.85-3.05-4.95-5.15-.12-10.31-.09-15.47,0-4.64.07-4.9.53-3.32,5.09.95,4.08.29,8.18.3,12.27.03,18.53.02,37.06,0,55.6,0,2.12.22,4.26-.47,6.33-.25.57-.64,1.02-1.16,1.35-1.53.8-3.2.83-4.85.83-10.7.05-21.41.05-32.11,0-1.93-.01-3.97.16-5.52-1.42,8.7-18.7,17.4-37.39,26.07-56.1.5-1.08.75-2.27,1.12-3.41-4.79-.85-9.48.53-14.22.67-1.19.03-2.36.42-3.53-.1-1.65-1.46-.64-3.12-.16-4.58,2.53-7.6,5.45-15.06,8.13-22.61.63-1.78,1.57-3.29,3.64-3.68,4.69-.66,9.4-.32,14.09-.33,19.87-.04,39.75-.03,59.62-.01,2.57,0,5.2-.19,7.42,1.52Z"/>
        <path class="cls-58" d="M394.45,369.53c3.93,0,7.86-.01,11.78-.02,2.5,3.07,1.4,6.72,1.4,10.09,0,3.77,1.45,5.2,5.15,5.01,3.79-.19,7.6-.15,11.4-.01,3.38.12,4.5-1.42,4.57-4.65.07-3.58-.9-7.32,1.18-10.7,3.87-1.78,7.8-1.45,11.76-.36.66.4,1.34.93,1.48,1.66,1.49,7.82,3.52,15.6,2.38,23.69-42.95-.03-85.91-.06-128.86-.08,3.72-8.21,7.43-16.42,11.15-24.63,14.26,0,28.52,0,42.78,0,2.43,3.08,1.36,6.71,1.36,10.07,0,3.72,1.38,5.22,5.1,5.03,3.62-.19,7.28-.19,10.9,0,3.68.19,5.15-1.23,5.14-4.99,0-3.37-1.04-7,1.33-10.09Z"/>
        <path class="cls-94" d="M343.01,319.07c-4.35,9.51-8.28,18.21-12.3,26.87-6.38,13.77-12.94,27.47-19.14,41.32-1.72,3.85-3.94,6.35-8.21,6.67-3.69.28-8.17,3.96-10.6,1.19-1.82-2.07,1.41-6.65,2.55-10.06,6.42-19.13,12.96-38.22,19.36-57.35.72-2.14,1.38-3.95,3.93-4.38,7.87-1.34,15.73-2.74,24.4-4.26Z"/>
        <path class="cls-90" d="M347.8,280.85c-3.64,9.73-7.29,19.47-10.93,29.2.68,1.29-.22,2.01-.99,2.79-3.93.79-7.81,1.86-11.86,1.83-1.37-2-.14-3.84.49-5.6,3.98-11.14,8.15-22.2,12.18-33.32.78-2.14,1.41-4.32,2.05-6.5,1.74-3.5,3-7.19,4.32-10.86.82-1.64.79-3.79,2.8-4.71,4.05-.19,7.48,1.24,10.37,4.05.28,3.64-1.97,6.6-2.67,9.97-2.22,4.25-2.42,9.4-5.77,13.16Z"/>
        <path class="cls-47" d="M339.53,269.1c.34,2.55-.86,4.72-1.68,7-4.62,12.85-9.21,25.72-13.82,38.58-2.73.61-5.46,1.27-8.2,1.8-1.39.27-2.75.16-2.83-1.79.43-1.23.86-2.47,1.29-3.7-.44-2.19.29-4.17,1.07-6.17,3.08-7.92,5.95-15.91,8.8-23.91,2.2-4.53,3.15-9.54,5.42-14.05.24-.42.56-.77.96-1.04,3.6-.57,6.52.75,8.98,3.29Z"/>
        <path class="cls-78" d="M335.89,312.84c.33-.93.66-1.86.99-2.79,6.05-.81,12.09-1.59,18.14-.04-6.38.94-12.75,1.88-19.13,2.82Z"/>
        <path class="cls-128" d="M445.54,394.24c-.87-6.3-1.74-12.6-2.63-18.89-.28-1.95-.63-3.88-.95-5.82-2.73-4.35-2.33-9.4-2.88-14.16-2.23-19.34-4.87-38.63-7.17-57.96-.23-1.95-.71-3.95.95-5.59,4.53,6.89,6.84,14.79,9.98,22.3,11.61,27.79,23.11,55.64,34.69,83.44.66,1.58,1.13,3.12,1.04,4.83-1.17-.55-2.35-1.03-3.69-.87-4.33-1.18-8.67-2.36-13-3.55-5.44-1.25-10.89-2.49-16.33-3.74Z"/>
        <path class="cls-102" d="M217.15,414.49c2.81.82,2.86,3.52,2.97,5.36.2,3.44-3.35,3-5.28,3.39-3.15.63-2.88-2.62-3.12-4.41-.54-4.05,3.62-2.62,5.43-4.34Z"/>
        <path class="cls-106" d="M267.67,414.47c2.76.9,3.04,3.67,3,5.45-.09,3.36-3.84,3.32-5.89,3.52-2.59.26-2.48-3.16-2.65-4.88-.36-3.8,3.71-2.46,5.53-4.09Z"/>
        <path class="cls-64" d="M296.73,404.23c2.59,1.04,2.96,3.73,2.9,5.56-.11,3.43-3.84,2.95-5.88,3.23-2.47.34-2.39-2.69-2.52-4.44-.3-3.87,3.5-2.91,5.51-4.35Z"/>
        <path class="cls-49" d="M399.06,198.77c5.49,5.39,12.22,9.36,17.29,15.23,2.59,7.06,2.06,14.12.02,21.18-.12.6-.95,1.19-.03,1.82,0,.58.01,1.16.02,1.74.99,2.46.74,5.12,1.26,7.66.89,12.22.12,13.06-12.05,13.06-6.4,0-12.79.04-19.19-.03-2.11-.02-4.31.14-6-1.58-.53-.75-.79-1.59-.9-2.49.12-3.4-1.01-6.95,1.14-10.12.03-14.09.17-28.18.03-42.26-.03-3.34.85-4.62,4.32-4.4,4.68.3,9.39.14,14.08.18Z"/>
        <path class="cls-43" d="M347.8,280.85c1.54-4.55,3.07-9.09,4.61-13.64,1.93-1.49,4.21-1.56,6.5-1.55,20.16.08,40.31-.06,60.47.01,2.11,0,4.28-.12,6.07,1.38,1.52,4.62,3.05,9.23,4.57,13.85-27.4-.01-54.81-.03-82.21-.04Z"/>
        <path class="cls-58" d="M425.45,267.05c-24.35.05-48.69.11-73.04.16,1.21-3.07,2.41-6.14,3.62-9.21,2.16-1.38,4.08.02,5.96.69,3.39,1.2,6.82,2.34,10.11,3.79,2.71,1.19,4.52.91,5.61-2.16.5-1.41.75-3.38,3.03-3.29,1.21,1.38,2.83.83,4.29.84,8.51.05,17.04-.25,25.53.13,4.8.22,6.3-1.5,5.73-5.99-.25-1.94.01-3.94.04-5.92.93-.73,1.82-.69,2.7.09,2.14,6.95,4.28,13.91,6.42,20.86Z"/>
        <path class="cls-24" d="M432.85,291.82c1.35,11.53,2.69,23.05,4.04,34.58,1.69,14.38,3.38,28.75,5.07,43.13-3.97,0-7.94,0-11.92.01-1.84-2.04-1.42-4.58-1.41-6.97.06-16.13.25-32.27.15-48.4.05-5.32,0-10.64.03-15.96.02-3.14.6-6.04,3.18-8.18.29.6.57,1.19.86,1.79Z"/>
        <path class="cls-2" d="M431.99,290.03c-3.27,7.64-1.45,15.73-2.12,23.61-2.56-.84-1.91-3.1-2.03-4.9-.3-4.51.32-9.05-.45-13.54-1.2-1.69-3-1-4.56-1.09-5.51-.29-11.04.46-16.53-.45-2.26.15-2.92-1.06-2.65-3.1.27-1.96,1.64-2.33,3.29-2.32,8.31.02,16.62.04,24.93.06.04.57.07,1.15.11,1.72Z"/>
        <path class="cls-107" d="M419.03,246.19c-.9-.03-1.8-.06-2.7-.09,0-2.45.01-4.9.02-7.35,1.86,2.13,1.56,5.04,2.68,7.44Z"/>
        <path class="cls-116" d="M122.81,177.74c-1.84-5.19-1.8-10.59-1.71-15.99,2.09,2.79,4.06,5.68,6.3,8.35,2.31,2.75,2.36,4.67-1.35,5.98-1.14.4-2.16,1.1-3.24,1.67Z"/>
        <path class="cls-91" d="M426.28,220.5c5.2-6.89,10.4-13.78,15.6-20.67,0,.79,0,1.58-.01,2.37-1.2,7.3-2.4,14.59-3.59,21.89-4.1-.84-8.42-.98-11.99-3.59Z"/>
        <path class="cls-32" d="M442.83,170.27c-.86-1.81-1.73-3.61-2.59-5.42,6.11,2.25,12.43,3.49,18.94,3.68-5.21,2.8-10.57,4.29-16.35,1.74Z"/>
        <path class="cls-49" d="M267.36,201.36c4.88.02,9.76.23,14.62-.02,3.51-.18,4.8.79,4.72,4.55-.23,10.66-.05,21.32-.02,31.99.45.65.68,1.45.3,2.1-2.31,3.99-1.87,7.74.8,11.38.43,8.04-.44,9.01-8.42,9.03-8.03.02-16.07.18-24.1-.09-4.52-.15-5.17-1.05-4.39-4.97.02-16.24.14-32.48-.01-48.72-.04-3.88,1-5.6,5.12-5.29,3.77.29,7.58.05,11.38.04Z"/>
        <path class="cls-43" d="M295.64,267.2l-4.8,13.56c-5.29,2.78-10.86,1.52-16.31.96-2.7-.28-5.32-.71-7.99,0-9.58.03-19.17.13-28.75.06-3.98-.03-7.88.05-11.53,1.87,0-5.51,0-11.03,0-16.54,4.1-1.17,8.28-1.5,12.55-1.48,16.66.08,33.32,0,49.98.06,2.37,0,4.91-.44,6.88,1.51Z"/>
        <path class="cls-58" d="M295.64,267.2c-23.13-.03-46.27-.06-69.4-.09,8.21-3.93,16.42-7.85,24.63-11.78-.36,3.13,1.28,3.74,4.07,3.7,8.95-.14,17.92-.22,26.87.03,3.68.1,5.41-.81,4.88-4.74-.2-1.48.08-3.02.15-4.54,5.36-.95,9.61,1.34,13.51,4.63-1.57,4.26-3.14,8.53-4.71,12.79Z"/>
        <path class="cls-46" d="M217.99,296.49l-.42.05s-.41-.08-.41-.08c.36-3.08-1.09-6.3.77-9.25.02,3.1.04,6.19.06,9.29Z"/>
        <path class="cls-26" d="M117.52,200.55c1.34.93,3.21,1.58,2.94,3.53-.22,1.6-1.42,3.78-2.75,3.71-1.43-.08-3.64-1.46-3.7-3.36-.06-1.87,1.71-3.01,3.51-3.88Z"/>
        <path class="cls-109" d="M110.82,174.89c-2.58-.87-4.48-2.73-6.71-4.18,3.49-4.25,4.81-.24,6.73,1.26,0,.97-.02,1.94-.03,2.92Z"/>
        <path class="cls-24" d="M416.36,235.18c0-7.06-.01-14.12-.02-21.18,3.68,1.3,5.63,5.03,9.15,6.55-2.46,5.24-5.8,9.94-9.14,14.64Z"/>
        <path class="cls-1" d="M365.24,220.59c-2.79,7.89-5.58,15.77-8.37,23.66.09.93-.18,1.69-1.05,2.15-2.42.04-4.42-1.41-6.69-1.9-1.59-.67-3.4-1.04-4.1-2.95,3.42-8.81,6.83-17.62,10.25-26.43,4.72-1.21,9.55,1.44,9.96,5.46Z"/>
        <path class="cls-1" d="M309.46,246.05c-.38-3.19,1.32-5.78,2.44-8.54,2.54-6.26,5.1-12.51,7.64-18.76,4.21-.39,7.73.76,10.04,4.56-1.2,3.67-2.4,7.35-3.6,11.02.49,4.05-2.33,7.18-2.99,10.91-.69,1.67-1.02,3.53-2.46,4.82-2.95.98-5.23-.99-7.78-1.77-1.26-.5-2.59-.9-3.29-2.24Z"/>
        <path class="cls-50" d="M309.46,246.05c1.17.39,2.34.77,3.5,1.16,1.26,1.23,1.11,2.71.49,4.09-1.1,2.44-1.38,5.09-2.17,7.61-.62,0-1.24.01-1.86.02-2.36-2.83-6.07-2.96-9.07-4.51-4.52-1.51-8.74-3.88-13.51-4.63-3-1.39-4.08-3.32-2.23-6.5.96-1.65,1.4-3.59,2.07-5.4,4.04.29,7.43,2.59,11.21,3.7,2.61.76,5.04,2.39,7.88,1.81,2.36-.48,2.44,1.82,3.69,2.66Z"/>
        <path class="cls-50" d="M322.05,245.16c.82-3.79,2.24-7.36,3.93-10.83,6.35,2.41,12.7,4.82,19.05,7.23,1.5.65,3.01,1.3,4.51,1.96,1.11,4.1-.6,7.27-3.33,10.11-3.82,1.41-6.89-1.71-10.48-1.72-2.85-2.11-6.36-2.76-9.5-4.24-1.48-.69-3.25-.91-4.19-2.5Z"/>
        <path class="cls-12" d="M365.24,220.59c-2.09-4.06-6.21-4.43-9.96-5.46.91-3.33,1.82-6.66,2.71-10,.6-2.26,1.51-3.1,4.19-2.28,9.05,2.79,9.11,2.65,5.77,11.62-.78,2.09-1.03,4.43-2.71,6.13Z"/>
        <path class="cls-12" d="M329.58,223.3c-3.04-2.2-6.57-3.32-10.04-4.56.8-3.22,1.6-6.45,2.4-9.67.14-.59.06-1.5.42-1.73,3.83-2.42,6.81,1.09,10.24,1.63,1.84.29,2.92,1.41,1.84,3.62-1.72,3.52-3.24,7.14-4.85,10.72Z"/>
        <path class="cls-58" d="M355.87,246.07c.12-.72.23-1.45,1.01-1.82,7.86,1.74,15.84.59,23.75.99,0,3.31,0,6.61.01,9.92-1.02.64-2.08.41-3.08.04-6.69-2.5-13.45-4.84-20.02-7.65-.71-.3-1.3-.78-1.67-1.48Z"/>
        <path class="cls-76" d="M490.62,164.03c1.86-3.68,3.6-2.81,6.18-.35-2.29.13-3.88.22-6.18.35Z"/>
        <path class="cls-24" d="M266.53,281.71c3.59-1.8,7.41-.6,11.11-.81,4.39-.24,8.8-.12,13.19-.15-3.73,10.08-7.47,20.17-11.2,30.25-2.04-1.67-4.48-.56-6.7-.99,0-6.81,0-13.61.63-20.43.7-7.57.36-7.6-7.03-7.87Z"/>
        <path class="cls-15" d="M325.13,280.97c-3.05,10.21-7.13,20.05-10.84,30.01-3.92-1.92-8.08-.54-12.11-.86,3.59-9.77,6.7-19.73,10.92-29.27,4.03-2.08,8.05-2.24,12.04.11Z"/>
        <path class="cls-105" d="M311.29,258.9c-1.81-2.2-.25-4.22.44-6.2.62-1.8,1.71-3.46,1.24-5.49,2.43.82,4.86,1.64,7.28,2.47,5.37.32,9.91,3.23,14.91,4.73,2.94,1.64,6.62,1.84,8.98,4.61-1.67,3.3-1.85,7.28-4.6,10.08-3.11-.67-5.77-2.77-9.06-2.85-4.17-.29-7.82-1.83-11-4.53-2.71-.99-5.2-2.62-8.18-2.82Z"/>
        <path class="cls-43" d="M325.13,280.97c-4.01-.04-8.03-.08-12.04-.11,1.53-4.55,3.06-9.1,4.58-13.64,4.23-2.27,8.46-2.05,12.68.02-1.56,4.65-2.9,9.38-5.22,13.74Z"/>
        <path class="cls-70" d="M330.36,267.23c-4.23,0-8.46-.01-12.68-.02.6-1.83,1.19-3.67,1.79-5.5,3.81,1.17,7.55,2.48,11,4.53-.04.33-.07.66-.11.98Z"/>
        <path class="cls-16" d="M429.14,293.68c.54,6.64-.77,13.36.74,19.96.05,18.63.11,37.27.16,55.9-.01,4.23-.14,8.47,0,12.7.08,2.6-.57,3.89-3.51,3.79-5.59-.19-11.19-.19-16.78,0-2.98.1-3.54-1.25-3.46-3.81.12-4.23-.02-8.46-.05-12.7.06-21.64.12-43.27.18-64.91.53-1.13,1.36-1.98,2.49-2.51,6.62-3.12,12.89-7.06,20.24-8.42Z"/>
        <path class="cls-16" d="M394.45,369.53c-.02,4.23-.15,8.47-.02,12.7.08,2.6-.56,3.89-3.5,3.79-5.59-.19-11.2-.19-16.78,0-2.97.1-3.55-1.23-3.48-3.81.12-4.23-.02-8.47-.05-12.7,0,0,.19-.07.19-.07.74-6.36.26-12.73.3-19.1.09-14.29.05-28.58,0-42.86,0-2.38,0-4.68,2.59-5.76,6.44-2.69,12.4-6.46,19.09-8.59.58,0,1.1.18,1.55.55-.04,7.02-.07,14.05-.11,21.07-1.46,1.43-3.37,1.42-5.16,1.29-4.15-.31-5.23,1.8-5.15,5.52.14,6.39.08,12.78.02,19.18-.02,1.95.24,3.99-1.14,5.69-1.55-1.08-1.59-1.08-1.6-3.02-.02-7.45.01-14.91-.04-22.36,0-.62.55-1.46,0-1.76,0,7.19,0,14.57,0,21.95q0,6.84,6.64,6.81c.83,0,1.74.37,2.56-.32.54-.09-.35-.64-.04-.12.13.21.01.43-.28.34-2.43-.7-5.53,1.94-7.41-1.46,3.9-1.68,7.77-2.01,11.61.15.07,7.64.14,15.27.2,22.91Z"/>
        <path class="cls-120" d="M382.57,346.64c0-9.11.19-18.22-.09-27.32-.12-3.93,1.24-5.12,4.92-4.71,2.25.26,4.55.1,6.82.13,0,10.63.01,21.26.02,31.88-3.89,0-7.78.01-11.66.02h0Z"/>
        <path class="cls-54" d="M393.51,293.65c-6.17,2.94-12.3,5.99-18.55,8.77-2.61,1.16-3.47,2.75-3.45,5.58.12,18.88.08,37.76.04,56.63,0,1.61.57,3.37-.74,4.81-.05-25.26-.1-50.53-.14-75.79,3.79-3.43,19.86-3.43,22.85,0Z"/>
        <path class="cls-54" d="M429.14,293.68c-7.58,3.64-15.15,7.29-22.73,10.93-.03-3.65-.07-7.3-.1-10.95,7.61-1.49,15.22-1.51,22.83.01Z"/>
        <path class="cls-66" d="M393.51,293.65c-7.62-1.53-15.23-1.42-22.85,0-2.54-.4-1.91-2.34-1.74-3.88.18-1.64,1.62-1.52,2.82-1.52,7.24-.01,14.49-.01,21.73,0,1.22,0,2.58-.02,2.74,1.62.16,1.59.65,3.48-1.88,3.8-.27,0-.55-.01-.82-.02Z"/>
        <path class="cls-105" d="M355.87,246.07c8.26,3.03,16.51,6.06,24.77,9.1.03.62.07,1.25.1,1.87-.22.2-.49.36-.67.6-1.65,2.28-1.14,6.57-4.04,7.08-2.46.43-5.35-1.62-8.05-2.56-3.99-1.39-7.97-2.77-11.96-4.15-3.21-1.57-6.39-3.2-9.99-3.67-.34-.15-.47-.33-.39-.53.09-.22.18-.33.28-.33,1.68-3.15,2.87-6.47,3.62-9.96,2.11.85,4.21,1.7,6.32,2.55Z"/>
        <path class="cls-34" d="M345.93,253.47c.05.28.08.57.11.86-1.53,1.2-.77,3.32-1.9,4.68-3.14-1.02-6.3-2.01-9.17-3.72-.6-1.48-.16-2.67,1.01-3.66,3.8-1.99,6.46,2.17,9.95,1.84Z"/>
        <path class="cls-8" d="M405.42,228.81c0,4.74-3.05,9.18-6.49,9.45-3.33.26-8.1-5.76-8.09-10.2,0-3.87,4.23-9.03,7.54-9.22,3.5-.19,7.04,4.83,7.04,9.97Z"/>
        <path class="cls-40" d="M260.04,230.2c.01-4.37,4.93-9.32,9.07-9.13,4.64.21,8.42,4.63,8.29,9.7-.11,4.55-4.81,9.83-8.68,9.76-3.98-.07-8.7-5.68-8.68-10.32Z"/>
        <path class="cls-70" d="M335.97,251.63c-.34,1.22-.67,2.44-1.01,3.66-5.04-1.51-10.04-3.15-14.72-5.62.6-1.51,1.2-3.01,1.8-4.52,3.86,1.33,7.74,2.64,11.59,4,1.16.41,2.26.99,2.34,2.48Z"/>
        <path class="cls-45" d="M417.26,315.63c3.22-2,6.75-.69,10.13-.85,1.94-.09,1.8,1.67,1.8,3.02.01,8.62-.05,17.25.04,25.87.03,2.49-1.13,3.1-3.33,3.02-2.57-.09-5.14.01-7.71.03-.18-.21-.36-.42-.54-.63-.84-9.87-.12-19.76-.38-29.64,0-.27-.01-.55-.02-.82Z"/>
        <path class="cls-87" d="M418.19,346.72c2.81,2.01,6.24-.12,9.27,1.35q-11.13,1.57-11.13-8.99c0-6.39-.03-12.79.02-19.18.01-1.46-.52-3.09.91-4.27,0,0,0-.02,0-.02,1.05,6.89.16,13.83.48,20.73.16,3.45-.47,6.92.4,10.34l.05.04Z"/>
        <path class="cls-87" d="M382.58,346.64c2.77,2.19,6.24-.08,10.15,1.85-3.86,0-6.7-.02-9.54,0-1.7.02-2.49-.76-2.49-2.47.02-9.84,0-19.68.97-29.52,0,8.47-.03,16.93.03,25.4.01,1.59-.63,3.38.87,4.73,0,0,0,0,0,0Z"/>
        <path class="cls-16" d="M418.14,346.68c-1.45-1.36-.82-3.14-.83-4.73-.07-8.78-.04-17.56-.05-26.34,1.4,1.19.88,2.81.88,4.26.04,8.94,0,17.88,0,26.81Z"/>
      </g>
    </g>
  </g>
</svg>