<?xml version="1.0" encoding="UTF-8"?>
<svg xmlns="http://www.w3.org/2000/svg" version="1.1" viewBox="0 0 600 500">
  <defs>
    <style>
      .cls-1 {
        fill: #2b2b2b;
      }

      .cls-2 {
        fill: #554363;
      }

      .cls-3 {
        fill: #5e4d6b;
      }

      .cls-4 {
        fill: #6f7172;
      }

      .cls-5 {
        fill: #fbfafa;
      }

      .cls-6 {
        fill: #5a3d49;
      }

      .cls-7 {
        fill: #be9a81;
      }

      .cls-8 {
        fill: #bd9980;
      }

      .cls-9 {
        fill: #cdcdcc;
      }

      .cls-10 {
        fill: #8f667b;
      }

      .cls-11 {
        fill: #74bcd4;
      }

      .cls-12 {
        fill: #66a6a8;
      }

      .cls-13 {
        fill: #8f8f8f;
      }

      .cls-14 {
        fill: #474747;
      }

      .cls-15 {
        fill: #564564;
      }

      .cls-16 {
        fill: #8b779c;
      }

      .cls-17 {
        fill: #8e667b;
      }

      .cls-18 {
        fill: #559db6;
      }

      .cls-19 {
        fill: #735f84;
      }

      .cls-20 {
        fill: #373432;
      }

      .cls-21 {
        fill: #559eb6;
      }

      .cls-22 {
        fill: #ac8a9b;
      }

      .cls-23 {
        fill: #8e8e8e;
      }

      .cls-24 {
        fill: #d9bda8;
      }

      .cls-25 {
        fill: #8d7a9d;
      }

      .cls-26 {
        fill: #e1e1e0;
      }

      .cls-27 {
        fill: #87cce1;
      }

      .cls-28 {
        fill: #bb9981;
      }

      .cls-29 {
        fill: #cbcdcc;
      }

      .cls-30 {
        fill: #3d7789;
      }

      .cls-31 {
        fill: #bb987f;
      }

      .cls-32 {
        fill: #74bdd5;
      }

      .cls-33 {
        fill: #be9b81;
      }

      .cls-34 {
        fill: #d8e1e1;
      }

      .cls-35 {
        fill: #3f788b;
      }

      .cls-36 {
        fill: #dcdcdb;
      }

      .cls-37 {
        fill: #6e4f5f;
      }

      .cls-38 {
        fill: #503341;
      }

      .cls-39 {
        fill: #8e8f8f;
      }

      .cls-40 {
        fill: #6f7173;
      }

      .cls-41 {
        fill: #c3c3c3;
      }

      .cls-42 {
        fill: #387477;
      }

      .cls-43 {
        fill: #40798b;
      }

      .cls-44 {
        fill: #60434e;
      }

      .cls-45 {
        fill: #484747;
      }

      .cls-46 {
        fill: #84c6c8;
      }

      .cls-47 {
        fill: #886a57;
      }

      .cls-48 {
        fill: #4b8ca2;
      }

      .cls-49 {
        fill: #75bdd5;
      }

      .cls-50 {
        fill: #ac899b;
      }

      .cls-51 {
        fill: #8d706f;
      }

      .cls-52 {
        fill: #a18bb6;
      }

      .cls-53 {
        fill: #a18bb5;
      }

      .cls-54 {
        fill: #574566;
      }

      .cls-55 {
        fill: #bd997f;
      }

      .cls-56 {
        fill: #323130;
      }

      .cls-57 {
        fill: #866754;
      }

      .cls-58 {
        fill: #8b6d5a;
      }

      .cls-59 {
        fill: #8b779d;
      }

      .cls-60 {
        fill: #d8bca7;
      }

      .cls-61 {
        fill: #fcfbfa;
      }

      .cls-62 {
        fill: #f9f8f9;
      }

      .cls-63 {
        fill: #cdcdcd;
      }

      .cls-64 {
        fill: #4f5253;
      }

      .cls-65 {
        fill: #2f2e2e;
      }

      .cls-66 {
        fill: #cbcece;
      }

      .cls-67 {
        fill: #746085;
      }

      .cls-68 {
        fill: #ebebea;
      }

      .cls-69 {
        fill: #bc997f;
      }

      .cls-70 {
        fill: #6e7072;
      }

      .cls-71 {
        fill: #353332;
      }

      .cls-72 {
        fill: #509194;
      }

      .cls-73 {
        fill: #9b84b0;
      }

      .cls-74 {
        fill: #735f85;
      }

      .cls-75 {
        fill: #86c8ca;
      }

      .cls-76 {
        fill: #d5d5d5;
      }

      .cls-77 {
        fill: #bc987f;
      }

      .cls-78 {
        fill: #a2a2a2;
      }

      .cls-79 {
        fill: #85c8ca;
      }

      .cls-80 {
        fill: #8bcde1;
      }

      .cls-81 {
        fill: #83c6db;
      }

      .cls-82 {
        fill: #ad8d7a;
      }

      .cls-83 {
        fill: #fcfcfc;
      }

      .cls-84 {
        fill: #594767;
      }

      .cls-85 {
        fill: #bc9981;
      }

      .cls-86 {
        fill: #564464;
      }

      .cls-87 {
        fill: #876856;
      }

      .cls-88 {
        fill: #86695e;
      }

      .cls-89 {
        fill: #8b6c59;
      }

      .cls-90 {
        fill: #876855;
      }

      .cls-91 {
        fill: #76bed5;
      }

      .cls-92 {
        fill: #363332;
      }

      .cls-93 {
        fill: #b99780;
      }

      .cls-94 {
        fill: #e3cab8;
      }

      .cls-95 {
        fill: #d3d3d3;
      }

      .cls-96 {
        fill: #d8bda7;
      }

      .cls-97 {
        fill: #4f3241;
      }

      .cls-98 {
        fill: #85c7c9;
      }

      .cls-99 {
        fill: #d9bda7;
      }

      .cls-100 {
        fill: #e8e8e8;
      }

      .cls-101 {
        fill: #8a779c;
      }

      .cls-102 {
        fill: #3d778a;
      }

      .cls-103 {
        fill: #846b5a;
      }

      .cls-104 {
        fill: #b89880;
      }

      .cls-105 {
        fill: #fdfdfd;
      }

      .cls-106 {
        fill: #302f2e;
      }
    </style>
  </defs>
  <!-- Generator: Adobe Illustrator 28.7.1, SVG Export Plug-In . SVG Version: 1.2.0 Build 142)  -->
  <g>
    <g id="Layer_1">
      <g>
        <path class="cls-68" d="M307.52,197.87c-.39.66-1.03.77-1.72.78-.61.49-1.22.5-1.83-.02,5.55-4.98,11.08-9.99,16.66-14.94,3.71-3.29,7.49-6.5,11.75-10.2-3.59-.21-5.8,1.66-8.32,2.4-2.2.65-2.91-.05-3.28-2.09-3.77-21-7.6-42-11.39-63-.45-2.51.08-4.49,2.54-5.97,28.82-17.3,57.61-34.67,86.39-52.05,3.27-1.97,6.44-4.1,9.69-6.09,1.47-.91,3.22-1.64,3.76.85,1.52,7,3.96,13.8,4.56,21,1.46,5.25,2.57,10.58,3.84,15.88,4.64,18.4,9.08,36.85,13.11,55.4,1.06,4.9.61,5.46-4.24,6.89-22.19,6.57-44.37,13.19-66.53,19.87-3.58,1.08-6.82,2.68-9.98,4.62-13.05,8.03-26.06,16.12-39.6,23.3-1.8,1.13-3.78,1.98-5.42,3.37Z"/>
        <path class="cls-48" d="M103.19,396.78c-8.52-14.42-17.03-28.84-25.55-43.27,2.22-1.44,4.72-1.5,7.24-1.5,46.41,0,92.83-.01,139.24,0,1.76,0,3.54-.06,5.25.51,1.84.64,1.82,2.16,1.42,3.58-1.46,5.13-2.56,10.39-5.1,15.15-1.98,1.44-4.4,1.63-6.65,2.22-10.67,2.81-18.47,9.05-22.66,19.31-1.59,3.89-3.98,5.59-8.07,5.21-1.31-.12-2.66-.13-3.98,0-3.79.38-5.89-1.32-7.4-4.79-5.59-12.88-15.85-19.74-29.57-20.55-11.84-.7-25.2,5.48-31.82,19.83-2.73,5.91-6.09,7.06-12.34,4.31Z"/>
        <path class="cls-100" d="M325.84,430.59c5.89-.15,11.63,1.17,17.4,1.99,2.28.32,4.68-.02,7,1.68-4.35.49-8.69,1.02-13.04,1.46-11.79,1.18-23.57,2.35-35.37,3.45-10.49.98-21,1.77-31.49,2.79-10.62,1.03-21.26,2-31.83,3.42-10.47,1.4-20.65.28-30.93-1.74-24.82-4.89-49.71-9.42-74.58-14.06-13.23-2.47-26.47-4.85-39.7-7.3-.83-.15-1.61-.58-2.4-1.26,9.87.34,19.6-1.65,29.45-1.22,2.22.1,4.48.15,5.96-2.01,1.74.02,2.44,1.46,3.4,2.52,9.5,10.47,24.56,10.09,33.51-.84,1.25-1.52,1.93-3.81,4.54-3.7,9.97-.29,19.94-.65,29.88-1.53,2.35-.21,4.69-.28,7.03.04,1.75.27,2.7,1.54,3.71,2.85,10.72,13.93,24.6,14.58,36.4,1.75.4-.44.87-.78,1.39-1.07.45-.16.9-.16,1.36-.02,1.11.65,1.54,1.71,1.74,2.91.14.88.15,1.78.16,2.67-.04,2.64-.01,5.29-.01,7.93,0,3.02,1.52,2.58,3.35,1.52,7.18,3.25,14.74,1.04,22.93,1.94-3.52-4.11-7.66-6.17-10.86-9.29-1.19-1.16-3.68-1.92-1.94-4.44,2.05-.87,4.08-.15,6.09.12,8.88,1.24,17.77,2.4,26.66,3.58,1.47.19,2.93.38,4.03,1.53,1.59,1.97.67,4.5,1.45,6.64,1.67,2.83,2.92-.41,4.39-.32,6.04,3.22,12.56,1.73,18.9,1.86,3.39.07,1.09-2.5,1.43-3.86Z"/>
        <path class="cls-99" d="M447.32,237.56c-3.22-.93-6.41-2.03-9.68-2.74-3.36-.73-4.11-2.21-3.08-5.57,2.83-9.21,5.3-18.54,7.89-27.82.27-.98.4-2,.6-3,1.15-9.78,4.74-18.95,7.2-28.4.26-.99.71-1.93,1.58-2.56,1.9-.74,3.01.66,4.24,1.62,6.36,4.96,12.31,10.42,18.7,15.34.73.67,1.44.3,2.15-.08,8.93-2.36,18.07-3.66,27.05-5.74,1.42-.33,2.92-.53,4.05.85,1.49,5.42.79,10.91.49,16.38-6.28,16.41-12.79,32.73-19.35,49.03-.59,1.46-1,3.12-2.73,3.79-4.68-.05-8.95-1.88-13.34-3.15-2.08-.79-4.37-.96-6.3-2.18-2.09-1.73-1.6-4.8-3.45-6.66-4.54-2.41-9.05-3.55-13.53.17-.67.56-1.55.84-2.48.72Z"/>
        <path class="cls-100" d="M575.48,355.02c.06,23.88.12,47.77.17,71.65.01,6.77.13,7.2,7.12,7.18,5.61-.02,11.04,1.71,16.73,1.69-11.03,1.83-22.04,3.71-33.08,5.46-10.26,1.63-20.56,3.06-30.82,4.67-16.19,2.54-32.42,4.85-48.51,7.88-9.27,1.74-18.09-.69-27.07-1.45-11.36-.95-22.67-2.64-34-3.98-10.61-1.26-21.23-2.46-31.84-3.71-9.3-1.1-18.59-2.23-27.88-3.38-1.86-.23-3.7-.65-5.53-1.46,6.39-.69,12.78-1.43,19.18-2.04,2.91-.28,5.87-.26,8.03-2.69,1.46,3.56,4.3,4.13,7.81,4.06,8.32-.19,16.65-.09,24.98-.05,2.82.01,4.95-.59,4.98-3.97.06-1.08.33-2.09,1.01-2.96,3.69-2.75,8.18-2.11,12.3-2.53,13.41-1.38,26.78-3.04,40.17-4.52,3.19-.35,6.43-.54,9.61.31,2.6,1.64.66,3.31-.08,4.85-1.71,3.54-4.18,6.73-4.74,10.77.02,2.11,1,3.22,3.19,3.37,7.68.52,15.25-1.03,22.9-1.05,1.16,0,1.82-.84,2.04-1.98-.28-3.09-2.07-5.65-2.9-8.53-.54-1.87-1.65-3.85.52-5.49,3.36-1.27,6.7.02,10.01.27,12.54.97,25.11,1.66,37.6,3.22,1.62.7,1.41,3.16,3.41,3.51,1.62.32,3.24.22,4.86.22,7.65,0,7.69-.03,7.69-7.5.01-21.33,0-42.65.02-63.98,0-2.33-.29-4.72.78-6.95.32-.5.77-.79,1.35-.88Z"/>
        <path class="cls-49" d="M230.47,353.49c-50.94,0-101.88.01-152.82.02,5.29-4.85,11.75-7.94,17.83-11.56,4.95-2.94,9.22-7.29,15.41-7.98,1.58-.17,1.01-1.84,1.15-2.92.38-2.82-.82-5.78.81-8.48,1.58,1.68,1.33,3.81,1.44,5.84.25,4.57.58,4.98,5.24,5.02,11.48.09,22.96.02,34.44.03,7.36,0,14.72-.02,22.08.01,1.9,0,3.84-.15,5.62.78,11.25.17,22.5.62,33.74-.25,1.7-.13,3.18.26,4.54,1.22,3.31,2.32,5.9,5.25,7.52,8.99.22,1.35-1.16,1.92-1.52,3.01,1.68.64,3.51.55,5.15,1.24.38.23.67.55.87.95.41,1.7.03,3.1-1.51,4.08Z"/>
        <path class="cls-72" d="M441.17,265.19c3.57-1,6.91.81,10.4.82,3.3,2.49,2.59,6.6,3.98,9.87.63,1.47.88,3.07,1.17,4.65,1.55,8.78.52,17.63.8,26.45.15,4.56-.22,9.13.27,13.67,1.04,2.3,4.04.05,5.14,2.2.88,1.84.47,3.71.14,5.59-1.45,8.04-3.11,16.04-4.04,24.16-1.86,1.27-3.72.34-5.52-.09-9.88-2.36-19.77-4.7-29.68-6.96-1.79-.63-3.82-.76-5.13-2.41-.25-.41-.4-.86-.47-1.34.81-5.75,3.13-11.12,4.26-16.8,3.07-7.5,4.46-15.52,6.99-23.18,2.47-8.41,4.9-16.83,7.22-25.28,1.09-3.96,2.34-7.8,4.48-11.32Z"/>
        <path class="cls-37" d="M177.55,232.23c-6.84-1.77-13.68-3.54-20.53-5.3-1.08-.28-2.43-.11-2.55-1.75,3.28-3.37,7.86-4.48,11.78-6.74,2.16-1.24,4.44-2.27,6.63-3.47,2.62-1.44,4.01-3.52,4.73-6.48,3.22-13.26,6.08-26.62,9.5-39.83.27-.64.55-1.27,1.03-1.8.89-2.95,1.79-5.89,2.68-8.84,1.49-.3,2.94-.15,4.3.5,5.3,2.57,10.59,5.18,15.81,7.9,1.2.62,2.21,1.47,2.58,2.87-.28,4.96-3.11,9-5.01,13.34-1.56,3.58-2.7,6.96-.68,10.66-2.56,3.21-6.56,3.73-10.05,4.96-2.65.93-3.05,1.88-2.07,4.25.66,1.61,1.33,3.26,1.67,4.99-.39,2.88-1.69,5.43-2.89,8.01-4.14.42-8.26.3-11.53-.16,7.33,3.77,15.43,8.16,23.56,12.48,1.12.63,2.23,1.28,3.23,2.1,3.67,3.53,7.23,7.14,9.6,11.74-.19.45-.51.74-.98.89-5.66.17-10.82-2.2-16.23-3.23-7.02-1.35-13.88-3.47-20.87-4.99-1.48-.32-2.78-.87-3.71-2.11Z"/>
        <path class="cls-79" d="M458.85,352.48c-2.1-5.01.75-9.64,1.19-14.44.48-5.19,2.32-10.21,2.41-15.49.55-1.87,2.24-2.26,3.75-2.72,9.59-2.92,19.26-5.54,28.9-8.29,1.39-.4,2.87-.87,4.23.18.06,5.93.12,11.86.18,17.79,1.7,2.14.61,4.51.53,6.78-.12,3.36.05,6.73-.12,10.09-.15,4.88.75,9.81-.69,14.62-1.48,1.91-3.35.98-5.13.73-9.55-2-19.01-4.43-28.55-6.51-2.36-.52-4.99-.58-6.71-2.75Z"/>
        <path class="cls-99" d="M282.65,187.06c2.6,9.61,6.37,18.82,9.83,28.12,1.23,3.31.59,4.55-2.62,5.79-6.41,2.48-12.6,5.52-18.93,8.2-1.27.54-2.24,1.26-3.08,2.27-5.68,2.98-11.69,5.24-17.48,7.97-1.07.5-2.21.8-3.32,0-4.84-10.22-8.61-20.87-12.83-31.34-.61-1.52-.89-3.14.48-4.53,1.72-1.31,3.65-2.13,5.78-2.45,6.3-.82,12.71-.98,18.72-3.39,2.93-.36,2.47,3.01,4.28,3.89,1.96,1.67,3.88,3.1,5.28-.55,1.29-3.22-2.38-5.73-1.28-8.93,4.64-2.95,9.42-5.45,15.17-5.05Z"/>
        <path class="cls-77" d="M235.03,204.2c-1.06,1.85.17,3.35.79,4.91,3.68,9.21,7.41,18.4,11.08,27.62.31.79.32,1.7.47,2.55-.94,3.73-4.36,2.98-6.71,4.08,5.53,1.99,10.9,5.03,16.62,7.3,1.62.64,3.32,1.28,4.47,2.75.21,3.32-1.06,6.21-2.64,9.01-.4.27-.84.4-1.32.41-7.59-1.22-15.04-3.08-22.51-4.85-1-.27-1.6-.99-2.04-1.88-3.93-4.12-7.87-8.24-11.78-12.37-.66-.69-1.38-1.04-2.33-.88-.23-.13-.34-.29-.31-.48.03-.2.07-.3.14-.3.03-.32.05-.64.08-.97-2.49-4.51-4.31-9.24-4.92-14.39q4.99-1.86.85-6.47c-.39-.43-.75-.89-1.1-1.35-.56-.83-1.48-1.52-1.12-2.73.5-.74,1.25-1.23,1.84-1.9,4.02-4.57,3.92-5.21.48-10.18-1.27-1.84-4.35-3.1-2.8-6.27,4.97-2.44,10.43-2.75,15.75-3.63,1.95-.32,3.37.9,4.12,2.68,1.03,2.43,2.32,4.75,2.91,7.35Z"/>
        <path class="cls-101" d="M498.75,346.41c-.16-5.65-.18-11.29.77-16.89,4.4,0,8.81,0,13.21,0,1.76-1.43,3.84-1.35,5.9-1.17,14.66,1.28,29.38,1.44,44.04,2.56,4.88-.63,9.74-1.42,14.62-2.05,1.59-.2,3.17-.49,4.6.56,3.14-.35,4.55.74,4.2,4.18-.33,3.21-.18,6.48-.04,9.71.1,2.29-.74,3-3.04,3.08-7.33.26-7.32.36-7.53,8.62-.21.09-.42.17-.63.25-.18-.15-.36-.3-.55-.45-.17-.56.05.12-.24-.37-1.16-1.99.48-5.22-2.09-6.29-2.97-1.23-6.32-.53-9.51-.39-1.6.07-2.22,1.21-2.32,2.67-.12,1.89-.08,3.78-.03,5.69.25,24.72.07,49.43.09,74.14,0,1.91.03,3.86-1.4,5.41-1.58-1.2-.42-2.97-.93-4.39-1.79-2.14-1.38-4.73-1.38-7.2-.03-23.12-.01-46.23-.02-69.35,0-6.89-.05-6.93-6.81-6.94-14.73-.02-29.45.02-44.18-.03-2.31,0-4.76.39-6.74-1.37Z"/>
        <path class="cls-40" d="M475.63,185.4c-.29.61-.58.73-.88,0-.98-1.45-1.93-2.85-2.19-4.71-1.66-11.78-3.27-23.57-5.08-35.33-.18-1.19.08-2.34.03-3.51,7.58-4.42,15.78-7.59,23.54-11.63,2.36-1.23,3.1.16,4.16,1.61,5.54,7.54,11.11,15.07,16.68,22.59-10.86,9.31-21.35,19.04-32.3,28.25-1.24,1.04-2.63,1.82-3.95,2.73Z"/>
        <path class="cls-74" d="M389.23,433.19c-.05-19.53-.08-39.07-.16-58.6-.04-9.4-.15-18.8-.24-28.19.49-.29.93-.22,1.33.18.18.56.07-.2.23.37q1.91,6.91,9.68,7.01c1.88.03,3.8-.15,5.56.81.44.34.75.77.96,1.28.37.98.5,2.01.5,3.04,0,20.33.28,40.67-.13,60.99-.22,1.81-1.09,3.26-2.48,4.42-3.79,3.16-8.01,5.71-12.04,8.54-.99.69-2.1.99-3.21.14Z"/>
        <path class="cls-18" d="M134.89,322.39c.36-1.2.01-2.29-.39-3.42-9.08-25.28-18.13-50.57-27.19-75.86,3.01-2.92,6.68-3.95,10.78-3.77,11.53,26.71,23.06,53.41,34.62,80.11.46,1.06,1.22,1.98,1.84,2.97-6.55,2.42-13.11,2.44-19.66-.01Z"/>
        <path class="cls-64" d="M166.81,416.21c-7.55,11.52-17.29,15.39-28.59,11.42-5.21-1.83-8.8-5.55-11.92-9.86-2.78-5.57-3.7-11.41-2.46-17.54-.04-.89-.35-1.78-.01-2.67,4.54-10.3,12.24-15.4,22.91-15.16,10.17.22,17.92,5.91,21.9,16.05.27.93.29,1.91.6,2.83.63,5.21,1.93,10.54-2.42,14.94Z"/>
        <path class="cls-41" d="M331.41,381.77c1.33,2.09-.63,2.88-1.66,3.88-6.53,6.3-13.14,12.54-19.7,18.81-1.15,1.1-2.53,2.07-2.72,3.85-2.3-.73-2.18-2.88-2.56-4.62-1.15-5.26-2.57-10.46-3.42-15.78-3.37-13.94-6.6-27.9-9.96-41.84-.75-3.1-1.91-6.17-1.38-9.47,2.46-2.5,3.66.22,4.71,1.45,5.61,6.57,11.44,12.96,16.98,19.59,4.89,5.84,10.01,11.48,14.92,17.31,1.81,2.15,3.13,4.59,4.79,6.81Z"/>
        <path class="cls-36" d="M214.58,276.39c.83-3.22,3.72-4.75,5.8-6.9,4.15-4.29,8.53-8.36,12.82-12.52,1.33,1.34,1.03,2.96.78,4.56-.47,3.05-1.03,6.08-1.49,9.13-.83,5.45-.64,5.78,4.56,6.84,5.32,1.08,10.65,2.07,16.02,2.84,5.41,2.93,8.41,7.99,11.5,12.98.02.46-.12.88-.39,1.25-10.06,5.87-20.71,10.6-31.09,15.84-.79.4-1.69.52-2.59.32-3.33-1.79-3.13-5.73-5.09-8.35-3.12-6.98-6.08-14.04-9.44-20.91-.77-1.58-1.39-3.25-1.38-5.07Z"/>
        <path class="cls-49" d="M167.87,401c-.04-.75-.08-1.5-.12-2.25,4.14-2.58,4.2-2.64,1.57-6.95-5.27-8.64-13.18-13.08-23.12-12.95-10.59.14-18.72,5.02-24.21,14.39-2.08,3.55.56,4.12,2.33,5.52,0,.55.22,1.17-.49,1.47-2.79-1.32-5.51-2.45-5.66,2.4-.06,1.82-1.19,2.14-2.67,2.11-1.47-.02-2.95.03-4.42-.01-9.7-.3-7.81.89-7.91-7.95,5.96.8,9.69-.47,12.7-7,5.8-12.57,17.27-18.66,30.8-18.35,14.25.33,25.24,7.39,31.09,20.91,1.5,3.47,3.24,5.25,7.12,4.51,1.42-.27,2.95-.17,4.41-.02,2.87.31,4.37-.64,5.53-3.57,5.4-13.67,16.07-20.43,30.31-22.18.77,2.89-.18,5.33-1.97,7.56-7.53,1.51-13.59,5.39-18.26,11.47-1.27,1.65-2.08,3.55-2.96,5.41-1.62,3.43,3.65,1.31,3.09,3.87-.27.38-.62.66-1.04.86-1.04.51-2.49.58-3,1.67-2.04,4.34-5.84,4.17-9.7,4.09-3.65-.07-7.29-.05-10.94,0-3.17.03-6.17-.18-7.78-3.57-1.01-2.12-3.2-.77-4.71-1.45Z"/>
        <path class="cls-97" d="M218.94,242.05c.06.26.12.52.17.79-12.02,13.03-24.04,26.07-36.08,39.08-.57.61-1.32,1.04-1.99,1.56-2.96-7.49-3.04-15.23-1.93-23.06-.52-9.39-1.05-18.78-1.57-28.17,13.8,3.27,27.6,6.54,41.39,9.81Z"/>
        <path class="cls-12" d="M457.15,322.54c-1.52-1.25-.93-2.98-.94-4.52-.06-8.79-.09-17.58-.01-26.37.04-3.95-.11-7.86-.86-11.74.51-4.31-.92-8.55-.51-12.87.18-1.86.03-3.76.52-5.6.05-.81.1-1.62.15-2.43,4.2-3.45,8.8-6.01,14.39-6.32,2.47,3.69,2.16,8.15,3.36,12.19,1.24,5.77,2.56,11.52,3.62,17.32.68,4.49,2.02,8.85,2.78,13.33.08,1.26-.55,2.23-1.32,3.14-6.03,7.12-11.6,14.62-17.68,21.71-.94,1.1-1.73,2.42-3.5,2.18Z"/>
        <path class="cls-99" d="M264.9,150.83c4.38,1.61,6.45,5.1,7.83,9.28.86,2.6,1.32,5.37,3,7.66-.27,2.11-2.17,2.19-3.58,2.71-13.23,4.85-26.46,9.74-39.67,14.65-1.65.61-3.29,1.29-5.12,1.06-1.6-.28-2.64-1.33-3.09-2.77-1.55-4.95-4.75-8.57-8.91-11.48-.97-.68-1.63-1.65-1.88-2.85.55-1.84,2.23-2.25,3.71-2.8,8.14-2.99,16.23-6.14,24.55-8.62,6.21-1.71,12.02-4.53,18.15-6.45,1.62-.51,3.24-1.54,5.01-.41Z"/>
        <path class="cls-50" d="M242.1,158.75c-9.49,3.33-19.26,5.93-28.24,10.63-.22.29-.47.3-.74.07-6.83-4.99-14.68-7.98-22.3-11.42,12.73-6.57,26.1-11.72,39.09-17.72,4.38-2.02,8.79-4,13.25-5.85,1.05-.44,2.09-1.93,3.49-.56-.72,8.43-1.45,16.86-4.55,24.86Z"/>
        <path class="cls-42" d="M457.15,322.54c6.38-6.65,11.7-14.18,17.58-21.24,1.49-1.79,2.9-3.64,4.35-5.46-.18-1.31.62-2.2,1.35-3.11,5.47-6.88,10.89-13.8,16.58-20.51.82-.97,1.52-2.28,3.19-1.72-.28,13.74-.57,27.48-.86,41.22-12.37,3.36-24.81,6.47-36.89,10.82-1.77-.78-3.54,1.91-5.3,0Z"/>
        <path class="cls-2" d="M227.15,185.56c16.35-5.51,32.49-11.58,48.58-17.79q7.68-2.15,10.73,5.71c.21.55.46,1.08.67,1.63q3.23,8.32-4.48,11.94c-4.95,1.73-9.9,3.46-14.84,5.19-3.21-2.35-3.42-6.28-4.94-9.51-1.13-2.4-2.49-3.35-5.14-2.47-2.3.76-2.9,1.91-2.11,4.26,1.11,3.28,3.1,6.31,2.99,9.96-.76,2.21-2.75,2.82-4.64,3.6-4.41,1.81-9.05,2.86-13.62,4.15-1.78.66-3.55,1.31-5.33,1.97-2.76-1.32-2.69-4.29-3.73-6.58-.82-1.82-1.71-2.97-3.92-2.45-5.1,1.2-10.22,2.34-15.32,3.5-1.88,1.93-4.5,1.75-6.83,2.42-1.78.51-3.8.34-5.19,1.89-1.14,1.47-.98,3.9-3.31,4.48-.32-.49-.72-.94-.94-1.47-2.74-6.4-2.54-6.93,3.65-9.46,2.72-1.11,5.46-2.17,8.18-3.25,5.95-4,12.43-6.65,19.53-7.72Z"/>
        <path class="cls-102" d="M134.89,322.39c6.55,0,13.1,0,19.66.01,7.93-.02,15.86.1,23.78-.13,3.06-.09,3.74,1.08,3.56,3.81-.18,2.63.03,5.28.07,7.92.26.26.32.46.16.59-.11.09-.25.14-.39.14-21.76.02-43.53.01-65.29.11-2.59.01-3.8-.64-3.61-3.45.2-2.93.03-5.88.02-8.82,7.35-.06,14.69-.12,22.04-.18Z"/>
        <path class="cls-41" d="M312.02,194.26c12.6-7.54,25.51-14.62,37.7-22.77,8.61-5.75,18.36-7.69,27.8-10.67,17.48-5.52,35.14-10.47,52.74-15.62,1.96-.57,2.77-1.19,2.19-3.64-3.25-13.83-6.23-27.71-9.28-41.58-1.13-5.14-2.2-10.3-3.29-15.45-.54-.94-.72-1.72.79-1.69,5.37,21.03,10.65,42.08,16.19,63.07.92,3.48.1,4.42-3.25,5.33-24.22,6.54-48.38,13.3-72.53,20.08-2.1.59-4.07,1.68-6.04,2.66-14.07,7.03-28.12,14.1-42.18,21.15-.93.35-1.08-.06-.85-.86Z"/>
        <path class="cls-23" d="M300.56,272.11c-.9,15.02-1.81,30.05-2.71,45.07-.74,5.61-3.57,10.38-6.23,15.2-.44.79-1.24,1.22-2.23,1.04-1.66-.88-1.79-2.61-2.19-4.13-3.58-13.65-6.79-27.39-9.53-41.24-.04-.47,0-.93.12-1.39.15-.43.4-.81.73-1.12,5.6-4.02,11.06-8.24,16.61-12.34,1.38-1.02,2.6-2.45,4.55-2.47.68.21,1.16.55.89,1.38Z"/>
        <path class="cls-101" d="M389.81,346.38c-.33,0-.65.01-.98.02-4.55-.02-9.12-.27-13.65.03-3.45.23-4.34-1.06-4.06-4.25.26-2.91.26-5.88,0-8.8-.28-3.13.87-3.95,3.93-3.92,13.8.13,27.6,0,41.39-.03.5-.16.9-.03,1.21.39.94,2.6,1.23,5.29,1.14,8.03-.46,1.61-2.03,2.26-3.18,3.41,1.67.56,3.03,1.25,3.29,3.08.04.96-.15,1.83-.94,2.48-.25.15-.51.36-.78.37-5.11.21-10.37.18-10.24,7.55,0,.38-.65.49-1.09.52-.16-.02-.32-.07-.46-.15-.19-.56-.07.19-.24-.37q-2.07-6.9-9.91-7.06c-1.9-.04-3.86.12-5.45-1.3Z"/>
        <path class="cls-36" d="M335.02,210.26c-.92,12.07-1.84,24.13-2.78,36.2-.1,1.34-.55,2.57-1.57,3.52-6.79,1.32-13.45-.71-20.18-.79-.98-.01-2.06-.45-2.1-1.81,2.72.25,2.87-1.98,3.46-3.68,4.49-12.95,8.94-25.92,13.4-38.88,4.21.1,7.23,2.36,9.77,5.45Z"/>
        <path class="cls-22" d="M188.14,166.86c-.05.55-.1,1.09-.14,1.64-7,14.93-16.23,28.6-24.3,42.92-1.8,3.2-3.52,6.46-5.53,9.54-.92,1.41-1.56,3.19-3.66,3.34,1.26-9.27,2.47-18.54,3.79-27.8.95-6.66,2.19-13.28,3.05-19.95.3-2.3,1.19-3.19,3.4-3.71,7.83-1.86,15.6-3.96,23.39-5.97Z"/>
        <path class="cls-1" d="M475.63,185.4c4.9-5.71,11.13-9.97,16.56-15.1,5.01-4.74,10.31-9.19,15.5-13.74,1.2-1.05,2.38-2.25,4.19-2.14,4.77,6.71,9.54,13.42,14.32,20.14.38,1.39-.67,1.86-1.6,2.13-5,1.45-10.12,2.42-15.26,3.24-.73.12-1.4-.27-2.03-.65-10.56,2.04-21.12,4.09-31.68,6.13Z"/>
        <path class="cls-1" d="M467.5,141.85c2.46,4.2,1.98,9.02,2.75,13.55,1.7,9.97,3.02,20,4.5,30.01-7.87-5.32-14.63-12.03-22.12-17.82-4.17-1.8-8.22-3.73-9.67-8.59,8.18-5.72,16.36-11.43,24.54-17.15Z"/>
        <path class="cls-41" d="M308.39,247.38c5.35,1.45,10.91.71,16.32,1.63,1.98.34,4.09-.13,5.96.97-8.28,6.52-17.4,11.82-26.09,17.76-1.7,1.16-3.35,2.31-4.03,4.38-.34-.33-.67-.66-1.01-.99-2.57-3.82-5.27-7.55-8.6-10.77-.47-.43-.85-.93-1.17-1.49-2.18-3.63-5.28-6.55-7.64-10.03-.64-.95-1.79-2.08-1.13-3.09.78-1.19,2.3-.77,3.55-.27,7.94.64,15.89,1.27,23.83,1.91Z"/>
        <path class="cls-21" d="M42.96,250.81c16.64-6.77,33.28-13.53,49.92-20.29,1.62-.66,3.27-1.24,4.91-1.86-.03,3.92,1.63,7.26,3.59,10.49-15.67,5.85-31.35,11.7-47.03,17.53-2.88,1.07-5.8,2.04-8.71,3.05-.91-2.97-1.77-5.95-2.68-8.92Z"/>
        <path class="cls-68" d="M289.98,333.14c3.37-4.95,4.82-10.84,7.87-15.96,3.22,5.89,6.52,11.74,9.64,17.69,7.75,14.78,15.42,29.6,23.1,44.42.39.76.55,1.64.82,2.47-6.48-7.36-12.92-14.75-19.44-22.06-7.1-7.97-13.53-16.54-21.26-23.95-.86-.26-1.27-.87-1.36-1.73.05-.41.26-.71.63-.9Z"/>
        <path class="cls-1" d="M526.97,176.51c2.16,9.89,4.31,19.78,6.49,29.66.2.9.44,1.74-.33,2.44-6.25,5.74-11.53,12.52-18.55,17.44-.93-3.64,1.95-5.87,3.33-8.59,2.02-3.99,2.17-3.88-2.09-5.35-2.22-.76-4.52-1.29-6.63-2.36-.55-.38-.95-.88-1.16-1.52-.14-1.07.23-2.04.71-2.95,4.76-9.12,10.04-17.94,15.22-26.83.64-1.09,1.31-2.41,3.03-1.94Z"/>
        <path class="cls-78" d="M214.58,276.39c4.35,8.34,8.35,16.84,11.51,25.71-2.12,3.55-6.07,4.53-9.27,6.56-5.97,3.76-12.07,7.3-18.24,10.72-1.32.73-3.71,2.75-3.43-1.32,6.48-13.89,12.95-27.78,19.43-41.67Z"/>
        <path class="cls-77" d="M508.44,208.27c.3.3.6.61.89.91-2.37,5.41-5.36,10.6-5.62,16.72.07,2.26,1.23,4.2,1.81,6.3.42,1.53,1.22,3.04.22,4.63-5.39,7.98-12.03,14.97-17.91,22.56-.53.69-1.05,1.39-1.57,2.09-2.55,2.84-5.93,3.08-9.41,3-1.12-.84-.67-1.93-.16-2.73,2.99-4.66,5.54-9.64,9.56-13.59,6.5-14.37,11.88-29.19,17.74-43.82,1.02-2.55,1.52-5.36,3.43-7.51,2.74,3.6.64,7.63,1.01,11.43Z"/>
        <path class="cls-17" d="M154.51,224.29c6.84-9.93,12.22-20.72,18.53-30.96,5.07-8.23,9.27-16.98,14.96-24.83-3,13.1-6.27,26.16-8.85,39.34-.95,4.85-3.63,7.37-7.6,9.21-5.72,2.65-11.07,6.08-17.08,8.13.01-.3.03-.59.04-.89Z"/>
        <path class="cls-68" d="M290.71,258.79c.29.3.59.59.88.89.78.93.61,1.96.13,2.88-4.15,7.85-7.12,16.33-12.54,23.5l-.87.22c-1.91-.7-2.34-2.5-2.97-4.1-2.31-5.84-4.72-11.65-7.02-17.5-1.52-3.96-3.16-7.88-4.71-11.83-.63-1.61-1.48-3.24-.73-5.07.16-.16.32-.32.47-.48.27-.02.55-.02.82-.02,8.1,2.26,15.55,6.17,23.34,9.19,1.27.49,2.25,1.38,3.2,2.31Z"/>
        <path class="cls-41" d="M195.16,318.06c.39,2.53,1.54,1.23,2.66.57,6.23-3.7,12.48-7.37,18.72-11.05,3.17,6.94,7.43,13.39,9.29,20.91-1.23,3.06-2.5,6.09-5.24,8.19-2.57-1.65-5.4-1.89-8.39-1.87-10.16.07-20.32-.03-30.48-.07.02-.26.1-.51.24-.73,10.63,0,21.26,0,31.89,0,.08-.27.17-.55.25-.82-5.96-3.52-11.86-7.15-17.91-10.52-2.37-1.32-3.01-2.54-1.04-4.6Z"/>
        <path class="cls-30" d="M563.29,332.18c-16.85-.89-33.71-1.78-50.56-2.66,0-2.92,0-5.85,0-8.77,2.01-1.87,4.41-1.18,6.72-1,8.22.63,16.46.9,24.69,1.45,3.32.22,5.38-.95,6-4.31.23-.45.59-.73,1.08-.85,1.4.39,1.41,1.66,1.63,2.73.3,1.42.99,2.33,2.53,2.45,2.92.51,6.35-1.11,8.59,2.11.74,3.02,1.22,6.03-.67,8.85Z"/>
        <path class="cls-77" d="M302.42,387.97c1.63,6.78,3.27,13.57,4.9,20.35.48,3.59,2.08,6.99,1.91,10.7-2.93,2.45-6.36,2.24-9.83,1.88-2.54-2.7-4.09-6.06-5.83-9.25-2.3-4.21-5.34-5.99-10.26-5.79-4.59.18-9.35,1.11-13.85-.88.14-2.67,2.31-2.13,3.84-2.23,3.34-.22,6.71-.05,10.06-.09,4.1-.04,4.11-.06,2.42-3.6-.57-1.19-1.21-2.34-.9-3.74,1-2.22,3.2-2.19,5.1-2.66,3.21-.8,6.42-1.55,9.62-2.37.91-.28,1.5-.94,1.96-1.74.21-.3.49-.49.84-.57Z"/>
        <path class="cls-18" d="M389.23,433.19c6.15-2.99,11.68-6.89,16.65-11.58,1.09-1.45,2.51-2.34,4.32-2.62,3.77.18,7.54.43,11.31.52,2.18.05,4.37.38,5.96,2.19,1.15,3.53,1.52,7.03-.36,10.45-.12.91-.23,1.83-.35,2.74-1.4,1.4-3.22,1.34-4.97,1.35-9.28.07-18.56.07-27.83,0-1.88-.02-3.89.14-5.3-1.57.19-.49.38-.99.57-1.48Z"/>
        <path class="cls-12" d="M441.17,265.19c-3.57,12.33-7.14,24.67-10.71,37-1.07.82-2.23.55-3.33.18-4.14-1.38-8.38-2.47-12.5-3.89-1.25-.43-3.02-.59-2.86-2.66,9.46-10.54,19.43-20.59,29.41-30.63Z"/>
        <path class="cls-102" d="M575.42,312.6c-1.71.05-3.42.09-5.13.14-2.2,1.8-4.81,1.32-7.34,1.31-9.85.14-19.67-.99-29.53-.91-7.5.06-7.85-.59-6.41-8.28l.02-.03c2-1.05,4.15-1.28,6.38-1.3,13.2-.09,26.41.23,39.62-.16,1.56-.05,3.32-.34,4.22,1.56.98,2.93.47,5.52-1.83,7.67Z"/>
        <path class="cls-75" d="M411.77,295.82c5.89,3.12,12.54,4.03,18.7,6.37-2.42,7.56-3.51,15.53-7,22.76-1.72,2.14-3.5,4.2-6.46,4.61-.2,0-.38-.03-.56-.13-.84-10.38-3.32-20.5-4.93-30.76-.16-1-.72-1.97.24-2.85Z"/>
        <path class="cls-42" d="M569.49,295.83c1.34,1.6.19,3.61.88,5.32.66,3.3-1.88,2.69-3.56,2.71-9.1.1-18.21.14-27.31,0-3.62-.05-7.33.81-10.86-.73-2-.06-4-.12-6-.18-1.13-1.46-1.53-3.11-1.2-4.93.39-2.58,2.29-3.34,4.48-3.37,13.11-.21,26.22-.27,39.33.03,1.46.03,2.89.54,4.25,1.15Z"/>
        <path class="cls-102" d="M42.96,250.81c2.88,2.38,3.58,5.41,2.68,8.92-.3.79-.83,1.58-.86,2.38-.12,3.64-1.83,5.79-5.48,6.33-2.38,1.71-4.74,3.48-7.92,1.94-2.95-2.68-5.9-5.37-8.86-8.05-1.61-3.13-1.24-6.02,1.09-8.66,1.13-1.3.19-3.75,2.25-4.44,3.68-1.24,7.4-3.02,11.14-3.12,1.94-.05,3.96,3.03,5.94,4.69Z"/>
        <path class="cls-102" d="M101.38,239.15c-3.67-2.65-5.74-5.85-3.59-10.49,1.07-2.05-.08-5.32,2.2-6.39,3.4-1.6,7.16-2.78,10.88-3.26,3.58-.46,9.95,8.13,9.19,11.76-.6,2.86-1.31,5.71-1.97,8.56-3.59,1.26-7.18,2.52-10.78,3.77-3.12.4-3.76-2.93-5.93-3.96Z"/>
        <path class="cls-42" d="M550.88,316.2c-.23,6.67,1.12,6.5-6.53,6.24-10.55-.37-21.08-1.11-31.62-1.69-6.41-.39-6.66-.73-6.2-5.3.21-2.05,1.38-1.82,2.65-1.9,12.63-1.18,25.22.34,37.82.59,1.49.03,3.39-.13,3.87,2.06Z"/>
        <path class="cls-57" d="M261.42,253.43c-7.23-3.11-14.45-6.22-21.91-9.43,2.36-2.91,5.94-2.38,7.86-4.73,5.78-2.46,11.54-4.95,17.34-7.36.96-.4,1.9-1.61,3.14-.49-1.03,5.42-3.81,10.36-4.5,15.88l-.37.02c-.48,2.05.75,4.53-1.56,6.11Z"/>
        <path class="cls-67" d="M299.79,420.65c2.99-1.46,6.34-.85,9.45-1.64,5.53,3.86,11.07,7.71,16.6,11.57.52.51,1.03,1.04,1.57,1.52.8.71,1.55,1.55,1.1,2.63-.41.97-1.52.68-2.36.69-5.43.02-10.88-.27-16.28.14-2.37.18-2.77-2.56-4.83-2.19-1.56-2.28-2.12-5.07-3.55-7.23-.26,2.62,1.03,5.58-1.2,8.07-1.01-2.37-.15-4.94-.77-7.35-1.17-2.12-1.86-4.22.27-6.2Z"/>
        <path class="cls-14" d="M508.44,208.27c-1.68-3.69-.26-7.66-1.01-11.43-.04-5.86-.08-11.71-.12-17.57,6.24-1.77,12.91-1.86,18.88-4.71.82.43.89,1.16.78,1.96-3.6,3.2-5.09,7.78-7.49,11.74-3.94,6.51-7.39,13.33-11.04,20.02Z"/>
        <path class="cls-10" d="M242.1,158.75c1.13-8.36,1.71-16.82,4.55-24.86,6.24,5.48,12.73,10.7,18.25,16.94-7.6,2.64-15.2,5.28-22.8,7.92Z"/>
        <path class="cls-10" d="M179.12,260.41c.64,7.69,1.28,15.38,1.93,23.06-8.54-4.53-15.83-10.87-24.98-16.48,8.45-2.41,15.75-4.5,23.05-6.58Z"/>
        <path class="cls-91" d="M23.62,253.68c-.16,2.91-1.41,5.68-1.09,8.66-3.7-1.43-7.57-.56-11.35-.85-1.94-.15-2.33,1.22-2.76,2.75-1.8,6.46-3.7,12.89-5.78,20.04-1.63-9.62-.94-18.61-2.09-27.46-.33-2.53.7-3.35,3.2-3.28,6.62.16,13.24.11,19.86.15Z"/>
        <path class="cls-79" d="M500.19,270.51c-6.39,6.31-11.35,13.81-17.2,20.57-1.35,1.55-2.61,3.18-3.91,4.77-1.97-4.21-2.32-8.83-3.35-13.28,3.22-4.72,6.94-9.01,11.08-12.95,1.37-1.3,2.86-2.01,4.75-1.2,2.86.79,6.06.18,8.65,2.1Z"/>
        <path class="cls-68" d="M253.59,280.81c-4.24,1.52-8.08-1.21-12.18-1.17-.56,0-1.12-.34-1.69-.45q-10.12-1.88-8.06-11.86c.7-3.43,1.61-6.83,1.54-10.37,0-.29,0-.58.03-.88.56.3,1.12.6,1.68.89,5.69,4.53,9.31,10.83,13.97,16.25,1.7,2.45,4.76,4.06,4.71,7.58Z"/>
        <path class="cls-24" d="M335.02,210.26c-3.26-1.82-6.51-3.63-9.77-5.45.11-1.91.35-3.78,1.7-5.29,2.98-.1,5.74-2.32,8.87-.88,4.55-.24,8.99-1.03,13.24-2.71,2.56,2.98,5.89,5.48,6.26,9.86-6.56,2.44-13.51,3.07-20.3,4.48Z"/>
        <path class="cls-94" d="M469.4,252.76c-4.64,2.08-9.28,4.16-13.91,6.24-1.81-3.92-3.62-7.84-5.43-11.76,4.1-2.81,7.16-6.83,11.24-9.68.94-.66,1.67-1.65,2.94-1.75,2.04,1.95,1.65,4.78,2.61,7.12,2.87,2.21,2.61,5.58,3.19,8.63-.07.47-.28.87-.63,1.19Z"/>
        <path class="cls-91" d="M31.39,270.39c2.64-.65,5.28-1.29,7.92-1.94-1.71,6.84-3.5,13.66-5.08,20.53-.4,1.73-.92,2.66-2.82,2.49-7.95-.73-15.91-1.42-23.96-2.96,5.37-1.07,10.72-2.26,16.12-3.15,3.13-.51,4.99-1.69,5.45-5.13.44-3.32,1.56-6.56,2.39-9.83Z"/>
        <path class="cls-98" d="M569.49,295.83c-14.41.01-28.82.04-43.23.03-1.98,0-3.96-.2-3.93,2.67-2.34-1.76-3.71-4.1-4.22-6.97,14.04-.04,28.09-.09,42.13-.1,3.74,0,6.52,2.16,9.25,4.37Z"/>
        <path class="cls-43" d="M388.66,434.67c12.7.08,25.4.15,38.1.23.84,3.98-.51,5.4-4.8,5.23-9.71-.37-19.44-.38-29.16-.15-4.04.09-5.84-.97-4.82-5.15.22-.06.45-.12.68-.16Z"/>
        <path class="cls-96" d="M503.14,225.86c-2.23-2.6.16-4.75,1.01-6.75,1.46-3.41,1.2-7.83,5.18-9.93,3.35.94,6.69,1.94,10.06,2.8,1.93.49,2.2,1.3,1.22,3.03-2.07,3.64-4.62,7.03-6.04,11.04-.83,1.21-1.66,2.42-2.5,3.62-3.26-.63-6.65-.94-8.94-3.81Z"/>
        <path class="cls-68" d="M491.54,268.41c-4.79.56-6.56,4.87-9.42,7.75-2.12,2.14-3.82,4.71-6.4,6.4-1.18-5.8-2.36-11.6-3.54-17.41,1.17-1.34,2.49-2.14,4.29-1.18,3.27-.83,6.53-1.66,9.8-2.49.6,3.19,2.05,5.73,5.27,6.92Z"/>
        <path class="cls-45" d="M442.96,159c2.53,3.64,6.56,5.59,9.67,8.59-3.82,9.35-5.57,19.33-8.76,28.87-.23.67-.55,1.32-.82,1.97-.21-12.63-.42-25.26-.6-37.9,0-.51.34-1.03.52-1.54Z"/>
        <path class="cls-9" d="M563.29,332.18c.04-2.95.07-5.89.11-8.84,1.22-2.56,3.8-2.25,5.94-2.76,2.64-.62,5.43-.37,8-1.41,3.53-.48,4.74,1.22,4.48,4.56-.15,1.88.03,3.79.07,5.69-6.2.92-12.4,1.84-18.6,2.76Z"/>
        <path class="cls-46" d="M550.88,316.2c-7.37-1.49-14.9-.68-22.34-1.52-6.41-.72-12.97.45-19.36-1.13,3.1-1.45,6.51-1.74,9.79-2,4.49-.35,7.69-1.63,8.03-6.68.06,7.07.06,6.98,7.25,7.11,9.67.18,19.33.52,28.99.79-3,3.99-7.45,3.18-11.56,3.51-.27-.07-.54-.1-.82-.08Z"/>
        <path class="cls-36" d="M290.71,258.79c-8.95-3.6-18.13-6.67-26.54-11.5,4.99-.82,9.96-1.7,14.96-2.44,1.82-.27,3.76-.78,5.43.62-.97.08-1.94.16-3.06.26,2.46,5.02,7.18,8.1,9.21,13.07Z"/>
        <path class="cls-55" d="M464.24,235.82c-3.96,3.76-7.94,7.5-11.88,11.29-.8.77-1.5.65-2.3.14-.91-3.23-1.83-6.46-2.74-9.69,5.12-5.62,10.86-5.17,16.92-1.74Z"/>
        <path class="cls-63" d="M551.7,316.28c3.53-2.23,8.03-1.29,11.56-3.51,2.35,0,4.69-.02,7.04-.02-.17,2.05.38,4.19-.85,6.09-4.58,2.98-9.99,2.41-15.01,3.5-1.34.18-2.76.51-2.72-1.64.02-1.47,0-2.94-.02-4.41Z"/>
        <path class="cls-8" d="M355.32,205.77c-1.69-3.54-5.23-5.9-6.26-9.86,1.08-1.2,2.13-2.42,3.25-3.58,2.34-2.44,6.69-2.66,9.31-.57.88.7.91,1.48.41,2.3-2.36,3.83-3.44,8.4-6.71,11.71Z"/>
        <path class="cls-81" d="M528.64,303.13c12.49-.04,24.99-.06,37.48-.15,1.59-.01,3.72.83,4.25-1.83,3.24.04,6.48.08,9.73.12-.1,2.2-1.37,3.5-3.31,4.29-.34-1.05-1.06-1.04-2.06-1.03-15.9.15-31.8.22-47.7.31.54-.57,1.07-1.14,1.61-1.71Z"/>
        <path class="cls-47" d="M335.82,198.63c-2.96.22-5.69,2.89-8.87.88,1.77-2.35,3.59-4.65,5.29-7.05.94-1.33,1.95-2.32,3.62-1.56,1.71.77,1.12,2.44.63,3.45-.7,1.44-.43,2.87-.67,4.29Z"/>
        <path class="cls-90" d="M503.14,225.86c2.95,1.34,6.48,1.34,8.94,3.81-2.17,2.34-3.56,5.36-6.33,7.16-.92-2.76-1.81-5.54-2.78-8.28-.34-.96-1.04-1.86.17-2.69Z"/>
        <path class="cls-80" d="M554.44,322.33c4.89-1.65,9.82-3.14,15.01-3.5,2.63.11,5.27.22,7.9.34-1.47,2.6-4.25,1.83-6.44,2.31-2.52.55-5.09.87-7.51,1.86-2.85-1.55-6-.39-8.96-1.01Z"/>
        <path class="cls-34" d="M455.34,261.43c1,6.16,1.38,12.32,0,18.47-1.25-4.64-2.5-9.27-3.76-13.9,1.82-1.06,1.61-3.79,3.77-4.57Z"/>
        <path class="cls-66" d="M576.79,305.56c.36-2,2.31-2.78,3.31-4.29,2.97,2.52,2.2,5.38.24,7.84-1.21,1.51-3.25,2.35-4.92,3.5,1.21-2.2.92-4.7,1.37-7.05Z"/>
        <path class="cls-29" d="M518.11,291.55c1.64,2.18,3.89,4,4.22,6.97.1,1.47.2,2.95.3,4.42-5.82-4.33-6.49-6.02-4.53-11.39Z"/>
        <path class="cls-95" d="M420.67,82.84c-.26.56-.53,1.12-.79,1.69-1.77-5.2-2.97-10.52-3.52-15.99,2.62,4.41,2.62,9.61,4.31,14.3Z"/>
        <path class="cls-76" d="M312.02,194.26c.28.29.56.57.85.86-1.51,1.45-3.37,2.2-5.34,2.74.89-1.96,2.93-2.48,4.49-3.6Z"/>
        <path class="cls-26" d="M303.98,198.63c.61,0,1.22.01,1.83.02-.75.86-1.76,1.89-2.78,1.33-.67-.36.43-.99.95-1.34Z"/>
        <path class="cls-74" d="M341.99,130.39q-7.17,1.74-9.98-5.41c-1.16-2.94-2.3-5.88-3.58-9.14,3.9-.09,6.86,2.56,10.38,1,1.93-.86,3.39-1.69,3.22-4.05-.73-9.99,3.94-15.52,13.68-17.77,5.09-1.18,9.9-3.69,14.75-5.81,2.1-.92,3.89-1.19,5.6.54,7.68,7.81,16.21,8.58,25.51,3.09,3.94-2.32,6.49-1.3,7.58,3.22.2.85.55,1.69.99,2.45,1.6,2.76,1.28,4.61-2.15,5.46-1.4.34-2.69,1.16-4.03,1.76-3.84,3.23-8.47,4.48-13.29,5.21-2.64.92-5.29,1.83-7.93,2.75-.78-1.48.16-2.8.36-4.2.08-.55.69-1.03.22-1.65-.45.4-1.01.56-1.57.7-4.47.75-8.36,3.08-12.58,4.51-3.03.64-4.93,2.39-5.56,5.49-.36,1.78-1.06,3.38-2.99,4.03-2.04.9-4.08,1.79-6.12,2.69-3.7,2.85-7.96,4.33-12.5,5.12Z"/>
        <path class="cls-21" d="M418.98,129.59c4.14.62,3.16,4.5,3.92,6.92.61,1.93-2.18,1.81-3.57,2.2-29.4,8.27-58.82,16.44-88.19,24.79-2.9.83-3.72-.07-4.05-2.58-.28-2.18-.64-4.35-.96-6.53,2.24-3.13,5.87-3.3,9.07-3.64,7.5-.8,14.75-2.28,21.78-5.08,7.12-2.84,14.62-4.33,22.1-5.93,13.42-2.87,26.93-5.49,39.9-10.16Z"/>
        <path class="cls-27" d="M418.98,129.59c-6,2.95-12.14,5.01-18.76,6.65-16.18,4.02-33.02,5.77-48.46,12.56-4.45,1.96-9.11,2.31-13.7,2.77-4.17.41-8,1.68-11.92,2.83-1.44-2.17-.98-3.67,1.69-3.94,9.58-.96,17.64-7.86,27.76-6.99,1.96.17,4.16-1.3,6.11-2.29,4.27-2.18,8.9-3.18,13.52-3.32,6.16-.18,11.74-2.32,17.47-3.97,8.61-2.48,17.43-3.49,26.3-4.29Z"/>
        <path class="cls-59" d="M360.62,122.58c.6-1.28,1.69-2.26,1.85-3.85.37-3.7,2.38-6.09,6.17-6.75,2.29.82,3.9-1.2,5.94-1.43,1.5-.17,2.84-1.42,4.49-.65,1.27,2.92-1.31,4.35-2.46,6.34-.51.5-1.3.92-1.5,1.53-2.37,7.09-8.76,8.63-14.71,10.96-1.63-2.23,1.36-4.11.23-6.15Z"/>
        <path class="cls-54" d="M376.6,116.24c.17-2.33,1.8-4.02,2.64-6.05.11-1.62,1.67-1.84,2.59-2.68,1.81-.43,3.27-.43,2.42,2.13-.46,1.37-1.01,2.7-1.52,4.05-2.04.85-4.09,1.7-6.13,2.54Z"/>
        <path class="cls-105" d="M396.87,111.11c-3.69,4.35-8.99,6.64-13.66,9.88,3.1-3.27,6.19-6.54,9.28-9.81,1.44-1.09,2.9-1.45,4.38-.07Z"/>
        <path class="cls-53" d="M396.87,111.11c-1.46.02-2.92.05-4.38.07-.61-.08-1.22-.16-1.83-.24,4.43-1.74,8.86-3.47,13.29-5.21-1.44,3.01-2.88,6.01-7.08,5.38Z"/>
        <path class="cls-52" d="M341.99,130.39c3.92-2.3,8.19-3.76,12.5-5.12-1.33,3.22-3,5.98-7.2,5.34-1.16.56-2.31,1.05-3.49.06-.6-.09-1.2-.19-1.8-.28Z"/>
        <path class="cls-83" d="M343.8,130.67c1.16-.02,2.33-.04,3.49-.06-4.34,3.5-8.68,7.01-13.03,10.51,2.26-4.45,6.17-7.18,9.53-10.45Z"/>
        <path class="cls-41" d="M222.61,378.23c.85-2.38,1.69-4.76,2.54-7.14,1.77-5.87,3.55-11.73,5.32-17.6.34-1.44.68-2.88,1.02-4.32-.57-2.25.24-4.32,1.05-6.3,1.21-3,1.65-5.98.65-9.1,3.31-.88,2.88-5.09,5.71-6.41,7.57.21,15.02,1.37,22.43,2.87.43.19.82.46,1.15.79.25.4.35.83.31,1.3-4.15,8.15-9.6,15.51-14.46,23.23-9.42,14.96-19.07,29.78-28.57,44.69-.99,1.56-1.53,4.45-4.65,3.3-.88-2.55.28-4.86,1-7.16,1.25-4.01,2.51-8.01,3.66-12.05.85-2.09,1.16-4.43,2.86-6.12Z"/>
        <path class="cls-64" d="M220.74,384.47c-1.79,6.45-3.59,12.91-5.38,19.36.28,1,.36,2.03.38,3.06.51,5,3.14,8.39,7.82,10.1,4.7,1.73,8.53-.01,11.93-3.24,1.05-1,2.02-2.12,3.46-2.63,2.48-.47,4.75.13,6.91,1.34,1.44,1.7,2.11,3.49.63,5.52-10.23,15.24-29.95,14.81-39.38-.86-.37-.62-.82-1.18-1.23-1.78-3.68-4.44-4.1-11.19-1-15.94l.19.04c.37-6.58,7.72-14.68,14.11-15.54.62-.08,1.15.1,1.57.57Z"/>
        <path class="cls-74" d="M259.54,419.89c.88.61,1.76,1.22,2.63,1.83,4.02,3.19,8.04,6.38,12.07,9.57,1.29,1.02,2.88,2.23,2.25,3.89-.47,1.21-2.36.51-3.6.53-5,.06-10.01-.16-15,.11-2.4.13-3.84-.79-5.08-2.54-3.04-2.59-2.97-6.56-4.41-9.87,0-.86.02-1.72.02-2.58,3.57-1.91,7.27-2.3,11.12-.93Z"/>
        <path class="cls-3" d="M300.29,434.21v-10.8c2.27,3.17,5.24,5.82,4.75,9.96-1.14,2.79-2.75,2.89-4.75.84Z"/>
        <path class="cls-28" d="M259.54,419.89c-3.66.88-7.41.72-11.12.93-.34-.93-.69-1.86-1.03-2.8,1.55-1.84,3.74-1.86,5.86-2.02,1.56-.12,3.14-.07,4.52-.99.72-.19,1.38-.14,1.91.47-.04,1.47-.09,2.94-.13,4.41Z"/>
        <path class="cls-2" d="M248.39,423.4c2.52,2.82,3.24,6.44,4.41,9.87-.2,2.06-1.43,2.71-3.32,2.42-2.12-.33-1.22-2.02-1.24-3.12-.06-3.05.09-6.11.16-9.17Z"/>
        <path class="cls-58" d="M257.95,415.45c-.13,1.6-1.3,1.58-2.49,1.69-2.7.25-5.39.58-8.08.88-.3-.01-.6-.02-.9-.04.26-1.78-.45-3.38-.93-5.03,4.58-1.36,8.6.03,12.4,2.5Z"/>
        <path class="cls-57" d="M476.48,263.98c-1.43.39-2.86.78-4.3,1.18-.92-4.13-1.85-8.27-2.78-12.4.04-.34.08-.67.12-1.01.56-2.68.53-5.64,3.45-7.19,4.43,1.2,8.86,2.4,13.3,3.6-2.37,5.82-6.93,10.29-9.79,15.82Z"/>
        <path class="cls-94" d="M462.39,210.94c-.31-.87-.62-1.74-.93-2.6-.39-.46-.7-1.02-.51-1.58,1.89-5.51,2.61-11.51,6.74-16.08,2.82.48,6.09-.34,8.02,2.75,1.07,6.28-1.68,11.5-4.61,16.68-.56.6-1.11,1.2-1.67,1.8-2.58,1.39-4.91.95-7.04-.97Z"/>
        <path class="cls-77" d="M467.69,190.68c-2.08,5.89-4.15,11.78-6.23,17.66-.87.39-1.52.61-1.88-.73-.75-2.8-1.69-5.55-2.55-8.32.72-3.13-1.1-4.77-3.53-6.07,1.2-2.9-2.32-3.23-2.77-5.11-.27-1.14-3.5-1.9-.64-3.57,4.75.51,9.57.38,14.23,1.68,1.13,1.49,2.25,2.97,3.38,4.46Z"/>
        <path class="cls-77" d="M471.1,210.11c1.11-5.68,3.83-10.91,4.61-16.68,2.13-.47,2.95,3.08,5.35,1.74,4.33.02,8.62-.45,12.91-.93,1.89-.21,3.74-.44,5.62-.04,1.26,1.98-.5,1.55-1.45,1.86-4.02,1.32-8.63,1.04-11.92,4.36-3.56-.74-5.55.39-5.2,4.33-2.55.25-4.08,2.14-5.94,3.56-1.12.85-2.1,2.48-3.99,1.79Z"/>
        <path class="cls-92" d="M499.59,194.2c-6.08,2.13-12.27,2.31-18.53.96,3.17-1.16,6.46-2.08,9.48-3.55,3.97-1.93,7.13-2.12,9.05,2.59Z"/>
        <path class="cls-33" d="M456.95,220.72c5.45,2.73,10.91,5.44,16.34,8.2.64.32,1.38.82,1.06,1.69-.32.88-1.18.82-1.84.48-5.54-2.82-11.35-5.18-16.25-9.08.23-.43.45-.86.68-1.29Z"/>
        <path class="cls-71" d="M464.3,186.22c-4.9.79-9.65.32-14.23-1.68,2.25-.51,4.6-.78,6.73-1.6,3.73-1.43,6.33-.89,7.49,3.27Z"/>
        <path class="cls-56" d="M453.49,193.22c5.29.08,6.17,1.59,3.53,6.07-1.92.38-3.75.4-4.83-1.63-.99-1.86-.19-3.26,1.29-4.44Z"/>
        <path class="cls-65" d="M481.02,204.76c-1.22-1.78-1.93-3.68-.01-5.33,1.99-1.72,3.68-.42,5.22,1-.12,4.52-.94,5.2-5.2,4.33Z"/>
        <path class="cls-31" d="M472.97,244.56c-1.46,2.24-1.59,5.13-3.45,7.19-.89-2.94-1.79-5.88-2.68-8.81,2.18,0,4.22.56,6.13,1.62Z"/>
        <path class="cls-7" d="M462.39,210.94c2.35.32,4.69.64,7.04.97-.9,1.85-2.9,2.32-4.37,3.45-1.14.88-1.98.18-2.36-.87-.4-1.12-3.29-2.12-.31-3.55Z"/>
        <path class="cls-74" d="M558.82,435.68c.05-26.86.09-53.72.14-80.59,5.16-1.94,10.31-1.97,15.46.02.14.07.29.12.44.15,0,25.55-.05,51.1.07,76.65.01,2.98-.58,4.3-3.81,4.07-4.09-.3-8.2-.22-12.31-.3Z"/>
        <path class="cls-18" d="M489.52,425.95c.39-.81.78-1.62,1.17-2.44,5.29-2.57,10.61-2.25,15.95-.21.78,1.53,1.55,3.07,2.33,4.6,1.51,4.36,3.03,8.73,4.54,13.09-9.45,1.07-18.92.48-28.39.28-.88-.02-1.67-.49-2.32-1.12,1.42-5.13,4.74-9.35,6.72-14.21Z"/>
        <path class="cls-35" d="M482.8,440.17c8.83,0,17.65,0,26.48-.03,1.48,0,2.95-.05,4.24.86.68,2.86-.38,3.83-3.37,3.82-7.51-.02-15.04.04-22.53.57-4.35.31-5.62-1.26-4.81-5.23Z"/>
        <path class="cls-69" d="M233.13,334.08c2.22,1.24,2.79,2.86,1.75,5.33-1.33,3.17-2.28,6.5-3.4,9.76,0,0-.14-.25-.14-.25-1.91-.97-3.69-2.07-4.25-4.36-2.17-2.63-4.34-5.25-6.51-7.88,1.01-3.03,2.83-5.6,4.75-8.11,3.68.31,6.09,2.42,7.8,5.51Z"/>
        <path class="cls-103" d="M227.1,344.56c1.7,1.17,3.2,2.55,4.25,4.36-2.49.4-4.79-.61-7.24-.96.12-1.96,2.14-2.18,2.99-3.4Z"/>
        <path class="cls-64" d="M476.4,402.33c-6.82-9.73-13.63-19.46-20.73-29.61-5.21,8.52-10.28,16.82-15.35,25.12-7.14-3.85-14.89-6.25-22.31-9.42-2.01-.86-4.22-1.46-5.13-3.82-.83-2.82.14-5.55.41-8.3.82-8.33,1.92-16.63,2.85-24.95.2-1.76.55-3.5,1.86-4.85l.25-2.8c.09-.38.33-.63.71-.71,1.49.5,2.98,1.01,4.48,1.51,8.93,5.95,16.52,13.55,24.81,20.28.68.55,1.36,1.14,1.94,1.78,3.72,4.09,7.91,4.41,13.11,2.77,10.19-3.21,20.56-5.85,30.88-8.62,1.44.27,2.88.55,4.32.82,1.46,11.17,2.92,22.35,4.37,33.52-3.27,2.19-7.19,2.25-10.81,3.26-5.2,1.45-10.43,2.76-15.68,4.03Z"/>
        <path class="cls-14" d="M494.19,360.7c-.99,2.67-3.68,2-5.57,2.58-9.22,2.79-18.66,4.9-27.77,7.99-4.94,1.68-7.78-.76-10.86-3.36-8.38-7.05-16.68-14.19-24.98-21.34-.64-.55-1.05-1.38-1.56-2.08,11.95,2.01,23.59,5.4,35.4,7.99,11.78,2.74,23.56,5.48,35.34,8.22Z"/>
        <path class="cls-104" d="M417.01,329.56c1.87-1.93,3.96-3.56,6.46-4.61-.81,5.83-2.95,11.31-4.55,16.93-2.34-.64-1.43-2.1-.87-3.47-.35-2.95-.7-5.9-1.05-8.86Z"/>
        <path class="cls-88" d="M418.05,338.41c.25,1.17-.3,2.53.87,3.47.02.37.03.73.05,1.1-.24.24-.48.48-.72.71-1.01-1.15-2.44-1.53-4.06-1.98.66-2.04,2.45-2.46,3.86-3.3Z"/>
        <path class="cls-77" d="M227.15,185.56c-6.51,2.57-13.02,5.15-19.54,7.72-2.78-2.5-3.06-5.06-1.23-8.52,2.61-4.91,4.52-10.19,6.73-15.31.25,0,.5-.03.74-.06,5.28,3.8,10.21,7.86,11.77,14.67.14.59.99,1.01,1.52,1.51Z"/>
        <path class="cls-99" d="M196.72,207.46c.67-1.73,1.34-3.45,2.01-5.18,1.42-1.18,2.53-.19,3.46.67,3.88,3.61,7.05,7.87,10.58,11.8.41.45.41,1.07.07,1.64.61.54,1.22,1.09,1.82,1.63-4.34,2.52-.7,4.88.14,7.3-2.03,1.54-2.36,4.86-5.48,5.28-.91-.64-1.82-1.27-2.72-1.91-5.07-3.51-8.91-8.16-12.24-13.28-.7-3.09,1.65-5.28,2.36-7.95Z"/>
        <path class="cls-38" d="M194.36,215.41c4.29,4.23,8.62,8.43,12.24,13.28-8.9-3.76-17.09-8.85-25.59-13.74,4.48-.04,8.93-1.24,13.36.46Z"/>
        <path class="cls-87" d="M209.32,230.6c1.99-1.49,2.3-4.62,5.15-5.26l.4.18-.14.41c.77,5.24,3.72,9.86,4.3,15.16-4-2.78-6.26-7.18-9.7-10.48Z"/>
        <path class="cls-94" d="M258.19,194.2c-1.33-3.41-2.54-6.87-4.02-10.21-.95-2.16-1.06-3.83,1.7-4.11,2.41-.25,5.25-4.33,7.25.54,1.61,3.92,3.13,7.88,4.69,11.83-.08,3.14,4.32,5.46,1.63,9.07-1.84,1.31-3.74,2.28-5.99.95-3.2.09-2.24-3.18-3.67-4.52-1.92-.55-1.42-2.2-1.59-3.54Z"/>
        <path class="cls-25" d="M253.78,214.14c8.27-3.35,16.11-6.46,24.87-6.84-1.89,4.74-4.56,9.23-7.08,13.81-1.07,1.94-2.32,1.29-3.67.56-4.53-2.41-9.07-4.83-14.12-7.53Z"/>
        <path class="cls-85" d="M258.19,194.2c.53,1.18,1.06,2.36,1.59,3.54-.15,1.89-1.64,2.35-3.06,2.54-5.44.72-10.91,1.31-16.36,1.95,4.53-1.79,9.06-3.56,13.58-5.37,1.57-.63,3.43-.82,4.25-2.66Z"/>
        <path class="cls-89" d="M263.44,202.26c2.05,0,3.86-1.48,5.99-.95.18,1.54-.04,3.29-1.75,3.35-1.59.05-3.89.24-4.25-2.4Z"/>
        <path class="cls-74" d="M253.59,280.81c-1.78-2.34-3.56-4.68-5.33-7.02-.8-.99-.46-2.02.24-2.75,2.99-3.1,5.47-6.77,9.49-8.76.25-.02.5-.04.76-.05,3.9-1.51,7.38-.69,10.54,1.9,3.01,7.38,6.01,14.76,9.02,22.13-.02.3-.03.6-.05.9-4.26,3.1-8.47,6.34-14.17,6.13-3.5-4.16-7-8.33-10.5-12.49Z"/>
        <path class="cls-37" d="M212.84,216.39c-3.64-4.11-7.26-8.25-10.94-12.33-.83-.92-1.52-2.25-3.17-1.78,3.92-3.12,8.88-2.42,13.32-3.61,1.41,1.84,2.81,3.69,4.23,5.52,3.8,4.89,2.52,9.44-3.45,12.2Z"/>
        <path class="cls-16" d="M257.99,262.29c-2.38,2.54-4.78,5.07-7.15,7.63-1.06,1.15-2.57,2.02-2.58,3.88-4.67-5.43-9.25-10.93-13.35-16.82,7.76,1.46,15.54,2.87,23.08,5.31Z"/>
        <path class="cls-16" d="M269.29,264.15c-3.51-.63-7.03-1.27-10.54-1.9.89-2.94,1.78-5.87,2.67-8.81.52-2.04,1.04-4.08,1.56-6.11,2.1,5.61,4.21,11.22,6.31,16.83Z"/>
        <path class="cls-61" d="M214.73,225.92c-.05-.21-.14-.41-.26-.59-.37-.41-.71-.87-1.12-1.23-3.76-3.31-3.59-4.1,1.32-6.08,1.16,1.32,2.43,2.56,3.44,3.99.83,1.18,3.36,1.74,1.32,4.16-1.95,2.31-3.19.76-4.7-.25Z"/>
        <path class="cls-86" d="M574.42,355.12c-5.15,0-10.31-.01-15.46-.02q-.77-8.74,8-8.74,8.34,0,7.46,8.76Z"/>
        <path class="cls-15" d="M389.81,346.38c3.83,0,7.67.21,11.48-.09,3.51-.27,4.9.93,4.39,4.43-.21,1.45-.19,2.93-.27,4.39-3.49.03-7.02-.22-10.47.15-4.38.48-5.79-1.31-5.18-5.4.17-1.14.05-2.32.06-3.49Z"/>
        <path class="cls-70" d="M145.96,393.3c6.25-.07,12.87,6.48,12.89,12.77.03,6.4-5.89,12.66-12.13,12.84-6.55.19-13.24-6.07-13.45-12.58-.2-6.02,6.55-12.95,12.69-13.02Z"/>
        <path class="cls-39" d="M124.33,398.75c-6.07-.33-6.18-.47-3.34-5.83,5.39-10.19,14.31-15.26,25.42-15.29,11.44-.04,20.07,5.74,25.38,16.04,2.19,4.24,1.7,4.8-4.04,5.08-6.11-16.17-24.78-19.35-35.81-10.57-3.56,2.84-5.83,6.51-7.62,10.58Z"/>
        <path class="cls-101" d="M262.28,332.31c.06-.34.12-.68.18-1.02.34-.27.67-.68,1.11-.65,8.82.51,17.69.53,26.22,3.33.31.6.61,1.19.92,1.79,1.69,11.45,5.05,22.53,7.57,33.79,1.38,6.14,2.76,12.28,4.14,18.41,0,0-.27.07-.27.07-2.28.18-2.86-1.79-3.82-3.14-10.88-15.38-21.48-30.95-32.17-46.46-1.08-1.57-1.98-3.26-4.06-3.71-.29-.83-.2-1.63.18-2.41Z"/>
        <path class="cls-2" d="M289.79,333.97c-9.17-.28-18.23-1.63-27.32-2.68,0,0-.03,0-.03,0-.85-.92-1.18-2.05-1.05-3.25,1.05-10.07-.05-20.24,1.44-30.29.2-1.33.44-2.59,1.16-3.74.04-.23.07-.47.11-.7,4.72-2.04,9.45-4.08,14.17-6.13,2.68,11.18,5.26,22.38,8.1,33.52,1.06,4.17,1.36,8.6,3.62,12.43-.01.29-.07.57-.19.83Z"/>
        <path class="cls-23" d="M263.98,294.01c-.46,12.43-.44,24.88-1.55,37.28-8.02-1.12-16.05-2.24-24.07-3.37-1.23,0-1.81-.9-2.19-1.83-1.69-4.18-4.05-8.06-5.52-12.33-.41-1.19-1.22-2.42-.03-3.64,9.51-4.65,19.02-9.3,28.54-13.93,1.58-.77,3.21-1.45,4.81-2.18Z"/>
        <path class="cls-23" d="M220.74,384.47c-8.13,1.95-12.76,7.57-15.68,14.98-5.65-1.91-5.96-2.15-2.37-7.81,4.61-7.27,10.73-12.74,19.92-13.41-.12,2.23-.89,4.27-1.86,6.24Z"/>
        <path class="cls-6" d="M246.2,174.32c-3.9,1.85-8.25-5.05-11.2,1.97,1.81-7.51,3.34-7.72,11.2-1.97Z"/>
        <path class="cls-44" d="M265.81,163.44c-2.2-.13-1.89,1.82-2.46,3.01-.66,1.37-.57,3.29-2.7,3.58.61-6.93,2.23-8.93,6.09-7.57.23.84-.02,1.23-.93.98Z"/>
        <path class="cls-51" d="M265.81,163.44c.31-.33.62-.66.93-.98.75.34,1.51.67,2.46,1.1-1.45.96-2.44.59-3.39-.12Z"/>
        <path class="cls-60" d="M250.83,188.08q2.66,4.63-2.32,6.56c-2.86,1.11-5.83,1.98-8.57,3.32-2.91,1.43-4.26.48-5.12-2.33-.56-1.81-1.44-3.51-2.17-5.26-.58-1.37-.3-2.27,1.32-2.46,2.83-.73,5.67-1.42,8.62-.9,1.94.49,3.69,1.99,5.89,1.07.79-.2,1.58-.52,2.36,0Z"/>
        <path class="cls-60" d="M273.03,173.86c1.46-.58,2.93-1.15,4.39-1.73,2.34,3.18,3.4,6.79,3.64,10.68-1.98.8-4.07,1.41-5.92,2.43-3.97,2.19-6.02.9-6.73-3.31-.24-.69.07-1.15.61-1.53,1.98-.66,3.23-1.77,2.53-4.1-.13-1.2.59-1.88,1.48-2.45Z"/>
        <path class="cls-5" d="M281.06,182.82c-1.85-3.34-3.06-6.9-3.64-10.68,2.38-1.57,3.97-1.26,4.69,1.78.33,1.41.91,2.79,1.6,4.07,1.64,3.06.79,4.63-2.65,4.84Z"/>
        <path class="cls-93" d="M243.82,188.03c-3.29-.04-6.58-.08-9.86-.12,3.98-2.45,8.51-3.54,12.9-4.78,4.01-1.14,3.45,2.62,3.98,4.95-.57.27-1.13.54-1.7.81-1.4-2.56-3.3-2.08-5.31-.87Z"/>
        <path class="cls-82" d="M269.61,180.82c-.4.37-.81.75-1.21,1.12-3.62-6.26-3.35-6.73,4.63-8.08-.27.82-.54,1.65-.81,2.47-1.94.87-2.9,2.32-2.6,4.49Z"/>
        <path class="cls-36" d="M279.18,286.06c3.49-7.19,6.99-14.37,10.45-21.57.75-1.56,1.31-3.2,1.96-4.81,2.91,3.64,7.26,6.27,7.95,11.44-6.79,4.98-13.58,9.96-20.37,14.94Z"/>
        <path class="cls-19" d="M262.55,334.91c1.5-2.31,2.03-.66,2.9.6,6.94,10.16,13.81,20.36,20.93,30.39,5.24,7.39,9.88,15.21,15.78,22.13.08.98.32,2-.79,2.62-6.16,1.18-12.37,1.62-18.64,1.25-5.87.25-11.74.09-17.6.08-1.61,0-3.24-.07-4.63-1.1-2.36-4.74-1.46-9.82-1.04-14.68.98-11.55.38-23.15,1.53-34.68.23-2.28-.45-4.76,1.56-6.61Z"/>
        <path class="cls-13" d="M260.71,390.57c7.32.02,14.64.04,21.96.06,1.39,1.18,2.45,2.56,2.7,4.43.33,3.16,3.46,5.03,3.9,9.2-6.57,0-13.01,0-19.45,0-3.05.19-6.11.38-9.17.58-1.36.03-1.86-1-1.86-1.99-.02-4.18-.27-8.42,1.92-12.27Z"/>
        <path class="cls-90" d="M285.37,395.06c-1.7-.99-2.31-2.64-2.7-4.43,6.23,0,12.46.02,18.7.03-5.1,2.31-10.77,2.57-16,4.4Z"/>
        <path class="cls-14" d="M409.36,419.77c1.47-11.49,2.93-22.97,4.4-34.46,7.33,2.98,14.69,5.91,21.99,8.96,1.8.75,4.16.97,4.57,3.57-4.47,7.88-8.93,15.76-13.4,23.64-5.78-1.32-11.8-.23-17.56-1.71Z"/>
        <path class="cls-32" d="M35.54,252.25c1.78,1.29,4.4,2.34,4.38,5.47-.03,3.64-3.15,6.93-6.27,6.1-2.27-.6-5.15-1.79-5.19-4.96-.05-3.78,3.15-6.77,7.09-6.61Z"/>
        <path class="cls-11" d="M103.12,232.23c.06-4.69,2.45-7.37,5.91-7.01,2.97.31,5.15,2.21,5.47,5.25.35,3.41-2.69,6.33-6.28,6.17-3.23-.14-4.83-2.2-5.1-4.42Z"/>
        <path class="cls-33" d="M507.96,219.75c1.41-6.52,2.79-7.71,6.42-6.04,1.83.84,1.94,1.63.18,2.58-2.11,1.14-4.26,2.23-6.6,3.45Z"/>
        <path class="cls-105" d="M344.77,114.81c-.02-4.41.71-8.32,1.75-12.09.66-2.4,3.54-2.29,5.48-3.09,6.74-2.78,6.47-2.6,8.93,4.34,1.31,3.7.17,4.88-3.06,5.92-4.31,1.39-8.5,3.17-13.11,4.92Z"/>
        <path class="cls-105" d="M383.35,99.35c-5.98,2.41-11.13,4.48-16.27,6.56-.41.16-.95.57-1.2.44-3.17-1.71-2.24-5.29-3.51-7.9-.64-1.31-1.13-2.73,1.09-3.43,2.79-.88,5.51-1.99,8.21-3.12,1.32-.55,2.26-.03,3.21.72,2.63,2.08,5.26,4.17,8.48,6.72Z"/>
        <path class="cls-73" d="M381.83,107.51c-.44,1.31-1.5,2.01-2.59,2.68-3.64-.01-6.73,3.27-10.61,1.79,4.51-1.18,8.43-4.09,13.21-4.47Z"/>
        <path class="cls-36" d="M260.71,390.57c.58,4.75-2.03,9.5-.05,14.26-.33,3.55-.66,7.1-.98,10.65-.57,0-1.15-.02-1.72-.03-4.13-.83-8.27-1.67-12.4-2.5-2.34-.41-4.68-.81-7.02-1.22-8.23-.47-16.31-1.62-23.8-5.38,0-.9-.24-1.85.63-2.52,5.21-5.07,8.12-11.72,12.03-17.67,11.75-17.87,23.27-35.89,34.89-53.85.09.87.18,1.73.26,2.6-.61,18.55-1.23,37.11-1.84,55.66Z"/>
        <path class="cls-4" d="M214.73,406.35c7.95,1.72,15.99,3.01,23.8,5.38-7.26,11.26-19.47,7.68-23.04-.72-.65-1.53-1.02-3.03-.76-4.67Z"/>
        <path class="cls-14" d="M476.4,402.33c.46-.55.85-1.47,1.4-1.59,8.38-1.82,16.46-4.96,25.08-5.7,1.48,9.39,2.98,18.78,3.76,28.27-5.32.07-10.64.14-15.95.21-4.76-7.06-9.52-14.12-14.29-21.19Z"/>
        <path class="cls-89" d="M198.43,213.5c.49-1.87,1.58-4.45,2.53-4.31,2.41.35,3.69,2.81,5.78,5.18-3.23-.34-5.7-.59-8.32-.87Z"/>
        <path class="cls-62" d="M263.35,215.6c-1.65.01-3.46.64-4.97-1.48,5.69-1.45,11.1-2.82,16.57-4.22.74,2.97-1.86,2.64-2.93,3.67-2.52,2.24-5.35,3.16-8.67,2.03Z"/>
        <path class="cls-84" d="M263.35,215.6c2.89-.68,5.78-1.35,8.67-2.03.84.24,1.7.36,1.1,1.66-.85,1.85-2.3,3.45-4.16,3.32-2.06-.15-4.62-.34-5.61-2.95Z"/>
        <path class="cls-106" d="M243.82,188.03c.78-1.58,1.42-3.39,3.78-2.74,1.99.55,1.57,2.17,1.53,3.61-2.1,1.76-3.84,1.23-5.31-.87Z"/>
        <path class="cls-20" d="M269.61,180.82c-1.02-1.11-1.99-2.27-.92-3.84.93-1.36,2.22-1.14,3.52-.65,1.83,3.06.74,4.43-2.6,4.49Z"/>
      </g>
    </g>
  </g>
</svg>