<?xml version="1.0" encoding="UTF-8"?>
<svg xmlns="http://www.w3.org/2000/svg" version="1.1" viewBox="0 0 600 500">
  <defs>
    <style>
      .cls-1 {
        fill: #494848;
      }

      .cls-2 {
        fill: #6f5060;
      }

      .cls-3 {
        fill: #a79434;
      }

      .cls-4 {
        fill: #4b8da2;
      }

      .cls-5 {
        fill: #2b2b2b;
      }

      .cls-6 {
        fill: #554363;
      }

      .cls-7 {
        fill: #81641f;
      }

      .cls-8 {
        fill: #ad8d75;
      }

      .cls-9 {
        fill: #4f9194;
      }

      .cls-10 {
        fill: #65a6aa;
      }

      .cls-11 {
        fill: #427d7f;
      }

      .cls-12 {
        fill: #333130;
      }

      .cls-13 {
        fill: #725464;
      }

      .cls-14 {
        fill: #bd9980;
      }

      .cls-15 {
        fill: #4c8da3;
      }

      .cls-16 {
        fill: #896b57;
      }

      .cls-17 {
        fill: #8f7884;
      }

      .cls-18 {
        fill: #2c5d5f;
      }

      .cls-19 {
        fill: #66a6a8;
      }

      .cls-20 {
        fill: #8a6c59;
      }

      .cls-21 {
        fill: #dad3d7;
      }

      .cls-22 {
        fill: #474747;
      }

      .cls-23 {
        fill: #607344;
      }

      .cls-24 {
        fill: #856a59;
      }

      .cls-25 {
        fill: #848585;
      }

      .cls-26 {
        fill: #8e667b;
      }

      .cls-27 {
        fill: #d1b88b;
      }

      .cls-28 {
        fill: #777;
      }

      .cls-29 {
        fill: #6d6e70;
      }

      .cls-30 {
        fill: #735f84;
      }

      .cls-31 {
        fill: #c2a83c;
      }

      .cls-32 {
        fill: #9dddda;
      }

      .cls-33 {
        fill: #af8b2f;
      }

      .cls-34 {
        fill: #f6f5f6;
      }

      .cls-35 {
        fill: #c7ac3d;
      }

      .cls-36 {
        fill: #8e8e8e;
      }

      .cls-37 {
        fill: #8e667a;
      }

      .cls-38 {
        fill: #979797;
      }

      .cls-39 {
        fill: #484b4b;
      }

      .cls-40 {
        fill: #b88f2f;
      }

      .cls-41 {
        fill: #90877f;
      }

      .cls-42 {
        fill: #c7ad3d;
      }

      .cls-43 {
        fill: #b88e2f;
      }

      .cls-44 {
        fill: #ae8a2f;
      }

      .cls-45 {
        fill: #8e6f5c;
      }

      .cls-46 {
        fill: #75bdd4;
      }

      .cls-47 {
        fill: #896a57;
      }

      .cls-48 {
        fill: #8c6e5b;
      }

      .cls-49 {
        fill: #796025;
      }

      .cls-50 {
        fill: #3a7679;
      }

      .cls-51 {
        fill: #bc987e;
      }

      .cls-52 {
        fill: #8a6b58;
      }

      .cls-53 {
        fill: #6e4f5f;
      }

      .cls-54 {
        fill: #fcfbfb;
      }

      .cls-55 {
        fill: #6f7173;
      }

      .cls-56 {
        fill: #525252;
      }

      .cls-57 {
        fill: #9d9d9d;
      }

      .cls-58 {
        fill: #757575;
      }

      .cls-59 {
        fill: #b98f2f;
      }

      .cls-60 {
        fill: #bc9980;
      }

      .cls-61 {
        fill: #c8ad3f;
      }

      .cls-62 {
        fill: #387477;
      }

      .cls-63 {
        fill: #9da0a1;
      }

      .cls-64 {
        fill: #514c4f;
      }

      .cls-65 {
        fill: #80641e;
      }

      .cls-66 {
        fill: #54662f;
      }

      .cls-67 {
        fill: #faf9f9;
      }

      .cls-68 {
        fill: #f3f0f2;
      }

      .cls-69 {
        fill: #4f4f4f;
      }

      .cls-70 {
        fill: #886a57;
      }

      .cls-71 {
        fill: #929292;
      }

      .cls-72 {
        fill: #bb987d;
      }

      .cls-73 {
        fill: #75bdd5;
      }

      .cls-74 {
        fill: #397477;
      }

      .cls-75 {
        fill: #886a56;
      }

      .cls-76 {
        fill: #ac899b;
      }

      .cls-77 {
        fill: #4e4e4e;
      }

      .cls-78 {
        fill: #c9ac6b;
      }

      .cls-79 {
        fill: #505050;
      }

      .cls-80 {
        fill: #d9bda6;
      }

      .cls-81 {
        fill: #c6ab3d;
      }

      .cls-82 {
        fill: #717171;
      }

      .cls-83 {
        fill: #72591c;
      }

      .cls-84 {
        fill: #bd997f;
      }

      .cls-85 {
        fill: #848484;
      }

      .cls-86 {
        fill: #4b4a49;
      }

      .cls-87 {
        fill: #323130;
      }

      .cls-88 {
        fill: #866754;
      }

      .cls-89 {
        fill: #e4dfe3;
      }

      .cls-90 {
        fill: #856824;
      }

      .cls-91 {
        fill: #b58e31;
      }

      .cls-92 {
        fill: #fbfaf9;
      }

      .cls-93 {
        fill: #826876;
      }

      .cls-94 {
        fill: #eae5e7;
      }

      .cls-95 {
        fill: #91735f;
      }

      .cls-96 {
        fill: #cdc3c8;
      }

      .cls-97 {
        fill: #325e64;
      }

      .cls-98 {
        fill: #4b474a;
      }

      .cls-99 {
        fill: #4e3442;
      }

      .cls-100 {
        fill: #6c7071;
      }

      .cls-101 {
        fill: #4f5253;
      }

      .cls-102 {
        fill: #65a6a9;
      }

      .cls-103 {
        fill: #ae917e;
      }

      .cls-104 {
        fill: #8d6578;
      }

      .cls-105 {
        fill: #513544;
      }

      .cls-106 {
        fill: #ebebea;
      }

      .cls-107 {
        fill: #886956;
      }

      .cls-108 {
        fill: #bc997f;
      }

      .cls-109 {
        fill: #81641e;
      }

      .cls-110 {
        fill: #353332;
      }

      .cls-111 {
        fill: #e0c64d;
      }

      .cls-112 {
        fill: #4e4b4c;
      }

      .cls-113 {
        fill: #509194;
      }

      .cls-114 {
        fill: #72591b;
      }

      .cls-115 {
        fill: #735f85;
      }

      .cls-116 {
        fill: #4a4a4a;
      }

      .cls-117 {
        fill: #52484e;
      }

      .cls-118 {
        fill: #dfc64e;
      }

      .cls-119 {
        fill: #bc987f;
      }

      .cls-120 {
        fill: #a2a2a2;
      }

      .cls-121 {
        fill: #bc997e;
      }

      .cls-122 {
        fill: #788a5d;
      }

      .cls-123 {
        fill: #85c8ca;
      }

      .cls-124 {
        fill: #ac8498;
      }

      .cls-125 {
        fill: #584a51;
      }

      .cls-126 {
        fill: #509193;
      }

      .cls-127 {
        fill: #c9a2b6;
      }

      .cls-128 {
        fill: #838383;
      }

      .cls-129 {
        fill: #896a56;
      }

      .cls-130 {
        fill: #2d2d2c;
      }

      .cls-131 {
        fill: #474848;
      }

      .cls-132 {
        fill: #fbfbfb;
      }

      .cls-133 {
        fill: #fcfcfc;
      }

      .cls-134 {
        fill: #4f9093;
      }

      .cls-135 {
        fill: #494949;
      }

      .cls-136 {
        fill: #9d8653;
      }

      .cls-137 {
        fill: #9e9e9e;
      }

      .cls-138 {
        fill: #4e4b4d;
      }

      .cls-139 {
        fill: #4f4a4d;
      }

      .cls-140 {
        fill: #bd9a80;
      }

      .cls-141 {
        fill: #a089b6;
      }

      .cls-142 {
        fill: #846722;
      }

      .cls-143 {
        fill: #787878;
      }

      .cls-144 {
        fill: #2d5d5f;
      }

      .cls-145 {
        fill: #76bed5;
      }

      .cls-146 {
        fill: #e3cab8;
      }

      .cls-147 {
        fill: #d8bda7;
      }

      .cls-148 {
        fill: #4f3241;
      }

      .cls-149 {
        fill: #4c4b4a;
      }

      .cls-150 {
        fill: #4a5f2e;
      }

      .cls-151 {
        fill: #d9bda7;
      }

      .cls-152 {
        fill: #8a779c;
      }

      .cls-153 {
        fill: #b78e2f;
      }

      .cls-154 {
        fill: #d6cdd2;
      }

      .cls-155 {
        fill: #71581b;
      }

      .cls-156 {
        fill: #686868;
      }

      .cls-157 {
        fill: #4a5f2d;
      }
    </style>
  </defs>
  <!-- Generator: Adobe Illustrator 28.7.1, SVG Export Plug-In . SVG Version: 1.2.0 Build 142)  -->
  <g>
    <g id="Layer_1">
      <g>
        <path class="cls-106" d="M378.2,409.48c.05,5.1,3.75,6.1,7.7,7.31,22.96,7.05,45.87,14.25,68.8,21.41,1.13.35,2.23.77,3.77,1.31-3.01,2.41-6.47,1.69-9.43,2.15-18.93,2.95-37.9,5.68-56.9,8.08-11.06,1.4-22.04,3.44-33.12,4.44-5.65.51-11.51-1.03-17.24-1.83-13.97-1.95-27.93-4.01-41.89-6.03-11.9-1.72-23.81-3.42-35.71-5.18-3.09-.46-5.76-.09-8.39,1.97-8.57,6.69-17.34,13.14-26,19.71-2.57,1.95-5.48,2.97-8.65,3.25-17.18,1.54-34.39,2.82-51.54,4.63-15.38,1.62-30.79,2.86-46.14,4.64-5.56.65-9.78-.78-14.38-3.01-25.42-12.35-50.88-24.61-76.35-36.84-10.74-5.16-21.56-10.16-32.22-16.08,10.81-1.22,21.63-2.43,32.44-3.65,8.12-.92,16.13-2.74,24.36-2.61-.09,2.11-1.98,2.86-3.16,4.12-5.1,5.44-3.94,14.47,2.41,18.19,5.42,3.18,12.71,1.44,15.75-3.76,3.44-5.88,1.42-13.51-4.36-16.76-1.33-.75-3.4-.54-3.77-2.67l1.05-.88c.93-1.21,2.29-1.33,3.63-1.33,12.97-.05,25.93-.17,38.9.06.6.01,1.17.2,1.73.42,2.19,1.76,1.15,4.1.91,6.16-.75,6.45-1.98,12.85-2.83,19.29-1.46,5.97-2.83,11.95-4.12,17.96-.4,2.51.75,3.63,3.21,3.64,9.12.06,18.24.09,27.37-.02,2.04-.03,3.39-.98,3.92-2.99,1.05-2.07.22-4.08-.16-6.11-1.06-5.7-3.04-11.22-3.36-17.08,2.04-6.42,5.17-12.36,8.25-18.32.7-1.36,1.7-2.46,3.29-2.82,5.45-.52,10.9-.47,16.36-.06,1.4.28,2.48,1.08,3.11,2.32,3.62,7.16,7.77,14.05,10.48,21.65.04,4.53-1.33,8.87-1.77,13.34-1.13,3.45-.1,4.82,3.73,4.77,12.53-.19,25.07-.06,37.61-.07,2.69,0,5.21-.22,5.51-3.72-1.45-5.47-6.22-8.5-9.4-12.68-2.23-2.93-4.56-5.86-7.25-8.43-2.84-2.72-2.46-6.56-3.47-9.92-.19-2.38-.78-4.84,1.35-6.75,8.22-1.59,16.49-.88,24.75-.46.75.04,1.37.52,1.87,1.1,3.83,1.58,7.91,1.66,11.95,1.91-.24,1.85-1.75,2.81-3,3.72-5.02,3.66-3.85,14.13.2,17.28,5.54,4.31,13.25,3.53,17.43-2.17,2.54-3.47,2.28-7.26,1.15-11.12-.41-1.4-1.46-2.66-.83-4.26,9.37.36,18.46,2.68,27.7,3.97,4.26.6,8.45,1.72,12.8,1.39.61,1.59-.54,2.53-1.46,3.35-3.35,2.97-5.71,7.08-10.08,8.87-4.22-3.09-5.68,1.03-7.92,3.05-1.25,1.91.46,1.52,1.29,1.53,4.15.04,8.3.06,12.45-.04,3.45,0,6.89.03,10.34-.03,1.62-.03,3.4.23,4.21-1.76,1.28-2.19.5-4.59.71-6.88.09-2.67.33-5.31,1.55-7.75,5.49-.01,7.44-4.59,10.29-8.01,4.93-1.03,9.71-2.65,14.58-3.92,1.54-.4,3.09-1.21,4.71-.25,1.58,2.29,1.82,4.95,1.88,7.58.06,2.75,1.06,3.56,3.82,2.94,2.09-.47,4.49-2.05,6.47.44.97,2.42-.16,4.74-.35,7.1-.11,1.62-.56,3.19-.85,4.78q-1.06,5.8,4.98,5.82c1.02,0,2.05-.02,3.07-.02.43-.02.86-.02,1.28,0,.42-.01.84,0,1.26,0,3.68.12,7.37.05,11.05.05,1.09,0,2.36.01,1.02-1.6-2.5-2.38-4.22-6.01-8.63-5.25-2.75-3.14-2.4-7.28-3.54-10.95-.14-.71-.16-1.42-.04-2.14.52-2.2,2.42-2.36,4.13-2.82,4.02-1.09,8.17-1.62,12.15-2.84,2.15-.37,2.15-2.77,3.58-3.82Z"/>
        <path class="cls-106" d="M574.05,385.21c7.62,1.18,15.23,2.5,22.88,3.46,2.94.37,3.19.88,1.6,3.38-9.92,15.61-19.67,31.32-29.5,46.99-4.84,7.7-9.82,15.32-14.53,23.1-1.53,2.53-3.04,3.1-5.81,2.07-21.94-8.18-43.92-16.26-65.9-24.35-19.32-7.11-38.65-14.18-57.98-21.26-14.28-5.24-28.58-10.45-42.84-15.74-2.42-.9-4.41-1.58-4.01,2.26-3.36-2.29-2.13-5.25-1.2-8.16,2.7-1.84,5.56-.59,8.25-.17,25.58,3.96,51.17,7.91,76.76,11.8,21.75,3.31,43.49,6.62,65.23,9.99,1.33.21,2.67.34,4.01.31,5.64-1.22,8.8-5.99,12.86-9.33,8.99-7.42,17.92-14.93,26.61-22.71,1.01-.9,2.06-1.76,3.56-1.62Z"/>
        <path class="cls-26" d="M591.9,276.63c1.87.69.98,2.29.93,3.41-.86,19.89-1.82,39.78-2.68,59.67-.08,1.93-.84,2.96-2.52,3.75-4.19,1.98-9.44,3.18-12.14,6.44-2.61,3.16-.05,8.7-1.36,13.07-1.88-1.63-1.21-3.85-1.27-5.85-.16-5.27-.31-5.48-4.83-3.12-10.42,5.45-21.22,10.1-31.71,15.39-1.73.87-3.57,1.49-5.24,2.49-1.67.97-3.34,1.94-5.14,2.6-1.6.59-3.2.99-4.08-1.14-.47-1.61-.36-3.27-.35-4.91.12-21.99-.23-43.97-.18-65.96,0-2.38-.2-4.79.55-7.12,1.33-2.63,4.07-2.88,6.44-3.52,8.22-2.21,16.51-4.2,24.77-6.27,3.95-.87,7.86-1.93,11.77-2.93,7.33-1.54,14.46-3.91,21.84-5.25,1.77-.04,3.5-.33,5.21-.76Z"/>
        <path class="cls-53" d="M563.3,66.07c4.98,1.28,7.55,5.54,10.8,8.9,4.04,4.2,9.14,7.99,11.5,13.03,2.38,5.07.1,11.42-.04,17.21-.28,11.21-1.09,22.4-1.49,33.6-.09,2.62-.96,3.22-3.45,3.02-15.94-1.29-31.89-2.5-47.85-3.57-2.49-.17-2.85-1.16-2.84-3.29.12-16.15.17-32.3.2-48.45,0-1.72.12-3.12,1.9-4.12,9.26-5.17,18.45-10.46,27.69-15.66.74-.41,1.7-.42,2.56-.62.13.15.26.3.4.46.31,1.02-.34,2.23,1.06,3.82-1.34-1.67-.82-2.84-.87-3.92.15-.14.29-.28.44-.42Z"/>
        <path class="cls-151" d="M191.82,178.39c-.83,8.44-1.75,16.87-2.46,25.32-.74,8.76-1.32,17.54-1.87,26.31-.15,2.47-1.18,3.59-3.67,3.22-4.47-1.32-9.2-.55-13.69-1.74-.67-.17-1.29-.45-1.9-.78-7.81-4.84-14.82-10.84-22.54-15.82-.85-.55-1.83-1.12-1.45-2.44,1.44-1.55,3.29-1.8,4.88-.69,5.9,4.12,12.27,6.52,18.27,5.66-4.86-.02-10.55-1.72-15.48-5.57-.82-.64-1.78-1.12-2.49-1.91-3.39-3.78-3.48-3.76-5.27,1.31-1.03,1.82-3.16,3.1-2.7,5.64.19,2.49,1.07,4.83,1.51,7.26.42,2.29-.37,3.68-2.77,3.99-1.87.19-3.7.16-5.45-.66-2.15-1.22-2.44-3.21-2.31-5.41,1.32-21.74,2.86-43.46,2.42-65.27-.03-1.49.01-2.99.54-4.42,1.63-2.73,3.94-1.5,5.97-.84,8.7,2.8,17.35,5.73,26.02,8.61,2.13.71,4.23,1.52,6.5,1.69,4.79-.86,9.36-2.55,14.05-3.75,1.76-.45,3.62-1.52,5.42.02,1.74,5.03-.43,9.92-.51,14.89-.23,1.8-1.77,3.35-1.03,5.35Z"/>
        <path class="cls-53" d="M404.17,78.62c3.39-.39,5.17-3.25,7.63-5.04,3.74-2.71,7.34-5.62,10.99-8.45.33-.18.67-.23,1.03-.15.48.1.56,1.09,1.32.57.15-.25.36-.4.63-.47,2.11,0,2.94,1.65,4.01,3.03,3.13,4.05,5.62,8.58,9.26,12.24,3.67,1.82,4.95,5.17,5.01,8.86.27,15.54.27,31.08,0,46.62-.08,4.87-2.06,5.88-6.66,4.02-8.84-1.28-17.77-1.44-26.66-2.05-1.97-.13-2.27.88-2.15,2.42.27,3.25-1.01,4.07-3.86,2.5.61-1.68,1.49-3.39-.99-4.43-2.27-.96-2.75-3.01-2.75-5.18.02-15.77-1.65-31.5-.88-47.29.15-3.13.59-5.98,4.04-7.2Z"/>
        <path class="cls-53" d="M477.78,90.29c-1.46-7.1,1.81-11.6,7.68-15.18,4.3-2.62,8.1-6.03,12.14-9.07,1.29-.97,2.48-2.21,4.33-1.94.78.82.9,1.67.1,2.62,1.11-.52.05-1.9.98-2.42,1.22.22,2.24.7,2.97,1.78,4.18,6.18,8.38,12.35,12.61,18.5.73,1.07.83,2.2.79,3.41-.49,15.98-1.01,31.95-1.44,47.93-.08,2.78-.75,3.79-3.95,3.39-9.47-1.2-19.01-1.94-28.52-2.81-1.34-.12-3.14-.91-3.31,1.56-4.32.07-5.67-2.54-5.71-6.32-.09-8.8-.02-17.6-.04-26.4,0-3.13.05-6.26-.38-9.38-.3-2.13-.2-4.2,1.75-5.67Z"/>
        <path class="cls-113" d="M109.92,411.49c-14.9-.03-29.8-.06-44.7-.09-12.26-.08-24.52-.26-36.78-.17-2.81.02-3.98-.87-4.39-3.58-6.99-46.19-14.02-92.38-21.12-138.56-.31-2.03-.17-3.22,2.13-3.32,4.49.51,9.07-1.49,13.52.44,1.72,1.72,1.9,4,2.24,6.21,5.84,38.17,11.81,76.31,17.58,114.49.47,3.1.39,6.28,1.49,9.28.43,2.35.75,4.71,1.17,7.06.99,5.54,1.13,5.73,6.94,5.74,18.35.04,36.69,0,55.04.03,2.35,0,4.8-.38,6.96,1.05.44.5.42.97-.07,1.42Z"/>
        <path class="cls-151" d="M309.78,253.94c-5.5-3.54-12.07-2.66-18.02-4.36-1.42-.41-2.95-.84-4.38-.73-5.59.42-5.76-2.88-5.46-7.1,1.01-14.26,1.81-28.54,2.72-42.81.19-2.97.53-5.93.8-8.89-1.41-2.24-1.63-4.55-.42-6.95,3.45-2.25,6.73-.66,10.03.45,1.2,1.54-.33,2.03-1.11,2.79-1.15,1.12-3.07,1.32-3.69,3.06,1.88,2.53,4.64,4.09,6.81,6.27,1.58,1.58,3.83,3.28,1.29,5.89-.56.21.15-.05-.41.18-1.19.48-2.79.33-3.26,1.95-.18.61.04,1.26.61,1.53,1.59.77,2.39-.76,3.52-1.33,3.83-1.02,3.34,2.42,4.42,4.26.52,1.84.34,3.69.01,5.53-.16,1.02.41,1.74,1.04,2.44,3.28,3.56,4.14,3.42,7.04-1.21,1.13-1.29.47-3.82,2.9-4.21.34.3.3.82.52,1.09.19.25.21-.3.25-.45.42-1.55.83-3.08,2.71-3.48.59.11,1.1.4,1.61.69,1.04.59,2.27,1.33,3.06-.09.89-1.61-.37-2.38-1.66-2.96-.54-.24-1.05-.53-1.42-1.01-.67-3.61,1.98-4.3,4.48-5.31,2.91-1.18,6.49-.32,8.87-2.97-.65-3.24-4.82-4.72-4.25-8.56.61-.85,1.51-1.13,2.48-1.3,2.83-.21,5.65-.35,8.45.29,2.97.75,3.54,2.81,3.03,5.5-3.73,19.79-7.19,39.63-11.16,59.37-.46,2.3-1.35,4.33-4.15,4.55-5.87.29-11.47-1.68-17.25-2.13Z"/>
        <path class="cls-123" d="M292.75,367.05c-4.01-2.03-8.39-2.93-12.67-4.12-2.86-.79-3.43-1.96-3.21-5.03,1.01-14.22,3.19-28.36,3.11-42.66,1.69-1.8,3.62-.93,5.41-.36,8.94,2.88,17.82,5.95,26.83,8.64,2.29.68,4.56,1.56,5.56,4.09,1.02,4.74.86,9.58.41,14.28-.86,8.95-.68,17.89-.8,26.85-.02,1.34-.07,2.69-.59,3.96-.43.91-1.23,1.41-2.15,1.2-7.49-1.68-15.02-3.27-21.91-6.86Z"/>
        <path class="cls-53" d="M389.76,62.52c6.23,1.35,7.67,7.22,10.82,11.48.54,1.23,1.24,2.49.99,3.84-1.99,10.67-2.38,21.57-4.73,32.18-.06.28-.25.54-.4.78-2.01,1.64-3.68.27-5.26-.76-3.13-2.05-6.09-4.35-9.2-6.44-1.62-1.09-3.51-2.38-2.15-4.69,1.4-2.39,3.28-4.42,6.54-3.5,1.61.46,2.87,1.6,4.33,2.36.75.39,1.73,1.05,2.27-.18.34-.76-.23-1.46-.93-1.82-2.68-1.37-5.56-2.21-8.45-2.98-1.19-.32-1.88.5-2.56,1.4-4.88,6.49-4.48,8.41,2.68,12.22,1.19.63,2.5,1.09,3.57,1.89,1.53,1.15,4.47,1.77,3,4.55-1.34,2.53-3.67,3.96-6.78,2.95-1.58-.51-2.92-1.52-4.38-2.27-.79-.41-1.78-.91-2.31.23-.49,1.06.46,1.55,1.23,2.04,5.07,3.29,8.05,2.89,12.66-1.22,1.33-1.19,2.49-4.42,5.24-1.61-.41,9.4-1.06,18.75-4.37,27.68-6.6-1.24-13.19-2.54-19.81-3.69-2.41-.42-2.99-1.73-3.07-3.99-.62-16.75-1.3-33.5-2.1-50.24-.12-2.44,1.36-3.46,2.84-4.68,6.23-5.13,12.48-10.24,18.72-15.35.19-.11.38-.21.56-.32.15.15.31.3.46.44.12,1.34.25,2.68-.02,3.89.44-1.09-.01-2.45.23-3.7.13-.16.26-.33.4-.49Z"/>
        <path class="cls-53" d="M469.74,143.38c-6.9.58-13.79,1.16-20.69,1.74.84-11.36-.49-22.65-1.15-33.97-.39-6.71-.31-13.44-.91-20.16-.37-4.19-.72-7.99-4.12-10.88-.68-.58-1.05-1.45-1.17-2.37,4-4.15,8-8.29,12-12.44.78-.65,1.64-.65,2.54-.33.65.76.35,1.81.64,2.68.28.54.67-.44.2-.07-.64-.92-.56-1.77.21-2.58,1.07,0,2.02.24,2.78,1.1,5.03,5.6,10.09,11.18,15.13,16.77,1.84,4.38.68,8.9.24,13.25-1.44,14.37-2.52,28.78-4.27,43.11-.18,1.48-.3,2.98-1.42,4.14Z"/>
        <path class="cls-76" d="M180.37,245.87c12.34,13.21,24.64,26.45,37.07,39.58,2.2,2.32.74,3.17-.95,4.39-7.48,5.39-14.93,10.81-23.16,16.78,9.81,1.07,18.73-.28,27.51,1.16-1.03,1.36-2.58,1.49-4.06,1.49-7.48,0-14.97.42-22.43-.23-2.39-.53-3.69-2.3-4.72-4.3-2.63-5.11-5.69-9.97-8.45-15-4.45-8.1-8.99-16.15-13.63-24.15-1.26-2.17-2.84-4.24-2.89-6.93,4.78-4.82,9.21-10.09,15.72-12.79Z"/>
        <path class="cls-19" d="M316.86,326.79c-12.15-4.3-24.18-8.98-36.88-11.54,0,0,.12-.26.12-.26-1.14-4.38-.37-8.83-.46-13.24-.17-7.84.8-15.63,1.41-23.44,2.64-1.96,6.4-1.08,8.88-3.47,2.54-.12,4.8-1.35,7.26-1.79,1.71-.28,3.45-1.08,5.1.21,4.97,6.73,9.78,13.57,14.33,20.59.74,1.14,1.28,2.36,1.47,3.73.42,8.24.15,16.48.17,24.71,0,1.35-.09,2.7-.81,3.91-.2.2-.4.39-.6.58Z"/>
        <path class="cls-51" d="M326.73,255.04c2.88.25,2.9-2.07,3.25-3.84,2.29-11.79,4.48-23.6,6.71-35.4,1.43-7.57,2.92-15.14,4.27-22.73.34-1.95,1.52-4.37-1.59-5.4,3.41-2.45,6.8-.33,10.2,0,.44.2.78.51,1.01.94.22,4.64-2.11,8.62-3.55,12.8-2.1,6.09-2.06,6.4,4.07,7.86.72.17,1.48.23,2.06.78.31,4.21-2.06,7.63-3.32,11.38-4.05,3.94-4.79,9.46-6.76,14.38-.74,1.85,1.04,2.55,2.49,3.03,2.83.95,5.56,2.17,8.38,3.14,1.67.57,3.5.99,4.24,2.94-.89,3.06-1.79,6.12-2.68,9.18.71,2.83-1.54,4.8-2.08,7.27-4.36,5.45-7.59,11.88-13.53,16-2.08.39-4.16.42-6.22-.1-4.14-3.65-9.35-6.21-11.86-11.55.84-3.36,4.28-3.75,6.45-5.59,1.2-1.02,2.66-1.72,4.14-2.49-1.78-1.51-4.78.31-5.66-2.61Z"/>
        <path class="cls-119" d="M136.13,151.52c.68,16.97.14,33.95-1.06,50.85-.48,6.78.36,13.69-1.45,20.39-.47,1.75.22,3.2,1.8,4.16-2.22,1.87-4.51.25-6.77.15-2.72-1.15-3.73.69-4.61,2.68-2.2,5.01-4.02,10.18-6.18,15.2-.65,1.5-.76,3.61-3.16,3.65-1.05-11.25-1.38-22.58-3.52-33.72-.14-.71.02-1.48.04-2.22.58-.13.93.12,1.07.68-.09-4.98,2.86-9.36,2.87-14.32,2.07-1.76,3.48-3.9,3.81-6.67,4.92-2.57,5.53-6.52,4.24-11.55-1.43-5.58-2.19-11.32-3.15-17.01-.02-1.26.36-2.41,1.36-3.18,4.36-3.35,8.34-7.25,13.46-9.52.47-.02.89.13,1.25.43Z"/>
        <path class="cls-22" d="M192.89,307.83c9.31-.02,18.62-.04,27.93-.05,5.24.04,10.49.3,15.71.05,3.3-.16,3.91,1.04,3.84,4.07-.61,24.69-1.06,49.38-1.55,74.07,1.63,4.45.88,6.57-3.08,6.74-11.18.49-22.38.5-33.57-.02-.75-.03-1.44-.39-2.07-.81-1.95-2.81-1.79-5.69-.3-8.62,1.79-1.43,3.93-1.24,6.01-1.26,7.17-.07,14.35.04,21.51-.1,2.06-.34,1.96-1.92,1.96-3.43.01-19.72-.04-39.44.05-59.16.01-3.06-1.31-3.85-4.04-3.84-8.52.03-17.03.04-25.55,0-1.93,0-3.9.24-5.73-.7-1.99-2.05-2.92-4.28-1.13-6.94Z"/>
        <path class="cls-36" d="M136.13,151.52l-.94-.04c-9.52-2.93-19.07-5.77-27.79-10.76,6.49-1.76,13.22-1.74,19.83-2.52,16.44-1.93,32.91-3.54,49.38-5.25,1.26-.13,2.67-.77,3.73.59-.95,10.09-3.12,19.91-6.26,29.54-6.57-.83-12.48-3.84-18.77-5.62-6.44-1.83-12.55-4.72-19.19-5.93Z"/>
        <path class="cls-26" d="M105.77,249.73c2.33-.11,4.67-.23,7-.34.83-.43,1.72-.28,2.6-.3,5.31,2.54,9.32,6.85,13.89,10.38,6.71,5.19,13.32,10.52,19.89,15.89,1.33,1.08,3.17,1.96,2.47,4.26-1.09,1.59-2.86,2.08-4.5,2.76-9.92,4.11-20,7.81-29.97,11.79-1.92.77-3.86,1.78-5.98.52-1.2-1.11-1.29-2.63-1.48-4.09-1.49-11.63-3.39-23.21-4.78-34.85-.25-2.11-.25-4.13.86-6.02Z"/>
        <path class="cls-76" d="M105.77,249.73c.21,8.19,2.04,16.18,2.89,24.3.62,5.89,1.63,11.75,2.42,17.62.14,1.03-.04,2.12,1.01,2.8.44.62.47,1.28.17,1.97-2.2,2.07-3.49,5.13-6.66,6.17-9.23,1.47-18.57,1.83-27.83,2.97-1.76.22-3.56.21-5.28-.4-2.03-1.02-.92-2.36-.37-3.65,1.21-2.26,2.68-4.36,4.08-6.51,1.71-2.25,2.39-5.29,5.17-6.72,7.6-12.17,15.19-24.35,22.8-36.51.46-.73,1.08-1.36,1.62-2.04Z"/>
        <path class="cls-62" d="M228.84,411.34c-8.98-.02-17.97-.05-26.95-.07-2.82-5.07-3.31-10.28-.89-15.65,1.88-1.21,4.01-1.03,6.08-1.04,17.3-.03,34.6,0,51.91-.04,2.56,0,5.02.63,7.55.74,1.92.35,2.53,1.46,2.65,3.43.73,12.46.78,12.43-11.64,12.46-9.57.02-19.14.11-28.71.17Z"/>
        <path class="cls-43" d="M292.75,367.05c7.97,1.23,15.38,4.54,23.21,6.28,5.32-2.11,10.91-.82,16.36-1.33,1.5.64,1.33,1.93.93,3.03-3.14,8.52-6.02,17.15-9.73,25.45-.24.55-.71.95-1.19,1.32-1.62.8-3.24.3-4.81-.12-8.8-2.37-17.58-4.82-26.22-7.74-1.72-.58-3.96-.76-4.16-3.34,1.87-7.85,3.74-15.69,5.61-23.54Z"/>
        <path class="cls-53" d="M530.86,370.85c13.34-6.52,26.68-13.01,40-19.58,2.28-1.13,3.2-.84,3.13,1.9-.09,3.26.1,6.54.16,9.81-.06,1.43-.12,2.85-.18,4.28-.97,2.14-2.84,3.4-4.64,4.72-10.45,7.68-20.94,15.32-31.49,22.87-2.99,2.14-4.35,4.64-4.08,8.29.2,2.67.22,5.38-.09,8.04-.14,1.19.24,3.26-2.26,2.48-.83-1.16-1-2.5-1.01-3.85-.11-12.1-.09-24.21-.02-36.31,0-.9.38-1.75.48-2.64Z"/>
        <path class="cls-35" d="M306.17,128.94c8.14,1.71,15.86,4.84,23.78,7.28,6.17,1.9,6.15,1.95,8.84-3.69,1.85,1.11,1.84,4.69,5.07,3.91.76,3.53,2.73,6.46,4.67,9.4.97,1.46,2.11,2.86,2.23,4.73-.03.43-.16.82-.36,1.2-4.12,3.19-8.19,6.44-12.36,9.56-3.96,3.4-7.56,7.23-12.11,9.92-7.27-.21-14.44-1.48-21.69-1.89-.75-.04-1.44-.34-1.91-.99-.02-3.75-1.37-7.3-1.72-11,.38-4.02,3.74-5.93,6.16-8.45,5.01-5.22,5.08-5.81,1.88-12.43-1.14-2.36-4.08-4.25-2.49-7.54Z"/>
        <path class="cls-26" d="M532.58,414.01c.03-2.24.41-4.55.01-6.72-1.35-7.42,1.82-12.04,7.91-16.11,11.4-7.6,22.33-15.92,33.45-23.94.03,5.99.06,11.98.08,17.97-13.73,11.77-27.24,23.79-41.42,35.02-1.51-2.06-1.62-4.14-.04-6.22Z"/>
        <path class="cls-18" d="M281.06,278.31c1.65,2.93.89,6.14.63,9.12-.7,8.04-.65,16.08-.82,24.12-.03,1.15-.49,2.3-.76,3.44-5.06,2.15-10.2,4.13-15.15,6.51-2.64,1.28-3.58.51-4.45-1.96-2.11-6.03-4.3-12.04-6.74-17.94-.88-2.13-.47-3.33,1.27-4.43.8-.25,1.59-.03,2.04.56,2.19,2.8,4.68,2.4,7.59,1.17,5.36-2.26,6.74-3.12,5.52-8.85-.62-2.89-1.06-6.6,3.64-7.23,2.94-.64,4.68-3.21,7.21-4.51Z"/>
        <path class="cls-55" d="M107.41,140.72c9.35,3.36,18.99,5.98,27.79,10.76-4.16,3.14-8.3,6.29-12.48,9.4-.85.63-1.76,1.15-1.79,2.38-7.6,5.21-15.72,9.56-23.52,14.45-.76.48-1.67.65-2.47-.08,3.53-12.51,7.71-24.81,12.47-36.9Z"/>
        <path class="cls-119" d="M180.37,245.87c-5.37,3.93-9.74,9.06-15.36,12.67-2.43,1.35-4.11-.62-6.01-1.42-2.28-.96-4.46-2.14-6.68-3.24-3.02-2.1-7.16-2.52-9.17-6.13-.12-1.15.42-2.11,1.29-2.67,8.03-5.19,15.49-11.28,24.26-15.31l.83.9c1.74,1.37,3.84,2.19,5.5,3.67-1.73.82-1.83,1.81-.63,3.33,2.09,2.65,4,5.46,5.98,8.2Z"/>
        <path class="cls-109" d="M352.85,209.94c-3.17,1.69-5.9-.27-8.11-1.75-2.09-1.4.1-3.76.7-5.58,1.48-4.49,3.19-8.9,4.81-13.34,1.79-1.61,4.01-1.09,6.1-1.24,6.35.41,12.68,1.04,18.99,1.82.98,0,1.95.14,2.87.49.44.19.77.51,1,.93-.5,3.54-1.95,6.7-3.86,9.68-1.92,2.62-2.48,5.84-3.8,8.72-3.21,1.12-5.77-.86-8.5-1.87-6.15-2.27-6.13-2.33-10.2,2.12Z"/>
        <path class="cls-148" d="M441.7,77.75c4.58,2.91,6.54,6.68,6.66,12.48.36,16.6,1.61,33.19,2.49,49.78.1,1.93.32,3.94-1.79,5.11-1.75.16-3.51.28-5.26.48-7.22.82-6.11,1.35-6.39-5.75,4.31.74,5.53-1.05,5.44-5.36-.28-12.99-.22-25.99-.02-38.98.08-5.47-.01-10.73-3.77-15.16.88-.87,1.77-1.74,2.65-2.61Z"/>
        <path class="cls-22" d="M94.94,177.62c6.13-3.59,12.26-7.19,18.39-10.78,2.43-1.42,4.76-3.05,7.61-3.59,1.48,7.71,3.01,15.41,4.42,23.14.87,4.78-3.71,4.56-6.08,6.37-2.95-1.45-3.09-4.6-4.05-7.13-1.19-3.12-2.66-3.49-5.31-1.71-1.83,1.23-3.59,2.78-6.03,2.73-3.06-2.93-7.2-4.78-8.94-9.02Z"/>
        <path class="cls-22" d="M64.17,412.28c7.32,2.34,11.05,6.58,11.14,12.67.1,6.59-3.75,11.61-9.97,13-5.97,1.34-11.93-1.54-14.49-6.99-2.67-5.69-1.08-12.11,3.95-15.98.81-.63,1.66-1.22,2.49-1.82,2.29-.29,4.58-.59,6.87-.88Z"/>
        <path class="cls-111" d="M287.15,390.59c1.42,1.76,3.6,2.02,5.54,2.58,9.77,2.82,19.37,6.28,29.39,8.2.58,5.13-1.43,9.4-4.4,13.36-.42.76-1.05,1.48-1.22,2.3-1.05,4.83-3.5,7.12-8.57,5-3.24.15-6.22-.58-8.79-2.65-5.68-2.94-12.26-3.33-17.92-6.32,1.61-1.51,3.64-1.13,5.55-1.15,8.48-.09,16.97.08,26.31-.11-7.53-5.88-14.88-10.64-21.99-15.72-1.57-1.12-3.38-1.96-4.48-3.65-.1-.7-.01-1.35.59-1.83Z"/>
        <path class="cls-148" d="M394.86,111.16c2.18-3.87,1.74-8.27,2.39-12.44,1.28-8.22,2.24-16.49,3.33-24.73,1.67,1.17,2.64,2.9,3.59,4.63-2.96,3.03-2.71,6.81-2.83,10.67-.46,14.8,1.28,29.54.97,44.32-.04,1.92-.01,3.72,2.68,3.56,1.84-.11,2.65.67,2.74,2.62.11,2.3-1.17,2.8-2.99,2.93-4.46-.32-8.87-.9-13.19-2.09,1.03-7.72,1.98-15.46,3.16-23.16.3-1.93.43-3.8.25-5.72-.03-.2-.07-.4-.1-.6Z"/>
        <path class="cls-22" d="M255.74,416.7c4.22,7.5,3.81,13.65-1.22,18.28-5.14,4.74-13.25,4.42-18.14-.72-4.62-4.86-4.58-13.09.19-17.82,1.24-1.23,2.81-2.15,4.22-3.21,5.66-1.78,10.57-.34,14.94,3.46Z"/>
        <path class="cls-42" d="M377.17,396.98c.11,2.73-.5,5.53.79,8.14.08,1.45.16,2.91.24,4.36-.46,1.78,1.2,4.79-2.67,4.59-9.94,1.7-19.96,1.25-29.95.91-2.11-.07-5.34.05-5.84-2.26-.52-2.43,2.6-3.28,4.5-4.27,7.3-3.8,14.73-7.35,22.05-11.12,1.25-.64,3.03-.7,3.39-2.57,1.92-2.59,4.31-1.41,6.63-.84.85.85,1.47,1.78.85,3.04Z"/>
        <path class="cls-55" d="M174.09,163.07c1.11-10.05,3.24-19.89,6.26-29.54,6.45,6.85,12.9,13.7,19.37,20.53,1.15,1.21,1.9,2.37.38,3.8-2.44-.67-4.87,1.41-7.31,0-6.23,1.74-12.46,3.48-18.69,5.21Z"/>
        <path class="cls-109" d="M350.29,151.55c-.01-.28-.02-.56-.02-.85,2.75-5.34,7.73-8.18,12.55-11.19.54-.34,1.13-.03,1.6.36,2.79,2.65,5.58,5.31,8.36,7.96.98,1.4.62,2.85.13,4.28-2.28,6.77-4.47,13.57-7.82,19.92-.31.36-.7.59-1.16.68-1.56.06-2.48-.96-3.21-2.1-3.51-5.55-6.95-11.14-10.13-16.89-.37-.66-.47-1.41-.32-2.17Z"/>
        <path class="cls-35" d="M286.56,392.42c6.91,2.69,12.13,7.99,18.29,11.84,3.73,2.34,7.15,5.19,10.47,8.79-11.38,0-22.76,0-34.14,0,.77-7.15,3.57-13.76,5.38-20.64Z"/>
        <path class="cls-35" d="M531.84,252.33c6.11,2.86,12.47,5.28,17.72,9.7-.98,4.05-1.63,8.17-2.78,12.18-.44,1.54-.63,3.31-2.63,3.8-2.46.07-4.06-1.59-5.79-2.93-5.26-4.08-10.22-8.55-15.77-12.25-1.08-.71-2.31-1.28-2.78-2.64,3.02-4.13,7.9-5.42,12.03-7.86Z"/>
        <path class="cls-18" d="M266.54,395.27c-1.42,1.25-3.14.72-4.72.72-20.28.04-40.56.04-60.83.04-1.09-.9-1.16-2.2-1.31-3.46.03-.44.22-.8.57-1.07,10.98,0,21.96-.25,32.93.11,4.56.15,6.31-1.21,5.65-5.65,10.47-.55,18.66,5.65,27.72,9.3Z"/>
        <path class="cls-40" d="M306.17,128.94c.78,4.22,4.04,7.24,5.4,11.22,1,2.91.71,4.9-1.54,7.18-2.98,3.03-6.92,5.3-8.44,9.63-5.31-3.52-11.09-6.49-14.29-12.44,5.68-3.13,9.55-8.36,14.42-12.43,1.39-1.16,2.13-3.28,4.44-3.16Z"/>
        <path class="cls-8" d="M115.73,249.53c-.99-.05-1.98-.1-2.96-.14.65-.26,1.29-.53,1.94-.79,3.26-5.14,4.62-11.1,7.15-16.55.81-1.74,1.54-3.51,2.41-5.22.95-1.86,2.3-2.13,3.92-.74,1.38,3.48,5.03,4.46,7.46,6.78,1.29,1.23,3.03,1.84,4.34,3.05-3.2,3.57-3.44,6.61,1.19,9.34,1.47.87,1.32,2.55-.65,3.36-6.92,1.37-13.98,1.11-20.95,1.83-1.37.14-2.68-.12-3.84-.92Z"/>
        <path class="cls-148" d="M469.74,143.38c.74-11.95,2.04-23.84,3.34-35.74.9-8.23,1.42-16.51,2.11-24.76,3.16,1.67.33,5.43,2.59,7.41-1.61,3.2.08,6.38.05,9.57-.06,9.38.09,18.76-.08,28.14-.07,4.15-.39,8.16,4.41,10.06,1.14,3.62-.32,5.13-3.97,5.09-2.82-.03-5.64.14-8.46.22Z"/>
        <path class="cls-19" d="M430.11,244.04c5.64-1.61,11.27-3.25,17.21-3.36,2.39,2.45,3.97,5.46,5.69,8.36.83,1.4,1.65,2.84.69,4.54-7.5,3.69-14.54,8.86-23.65,7.5-.48-.19-.87-.48-1.2-.88-.72-5.47-.28-10.86,1.26-16.16Z"/>
        <path class="cls-113" d="M393.21,242.21c2.92-1.84,6.11-.8,9.11-.6,4.21.28,8.55-.15,12.59,1.58-1.14,3.41-1.81,6.94-2.74,10.41-.62,2.33-1.74,4.16-4.48,4.28-2.73.35-5.34-.5-8-.78-5.18.14-10.09,2.4-15.33,2-2.28-1.47-.53-2.92.23-4.09,2.04-3.1,4.41-5.97,6.61-8.95.86-1.17,2.07-2.18,2.01-3.84Z"/>
        <path class="cls-18" d="M393.21,242.21c3.22,1.07.25,2.47-.13,3.04-3.04,4.49-6.32,8.81-9.53,13.18-.05.21-.1.41-.14.62-2,2.26-4.13,4.29-7.45,4.2-4.17-2.58-8.02-5.62-12.01-8.44-1.32-.93-3.26-1.85-1.98-4.15,10.42-2.81,20.84-5.63,31.25-8.44Z"/>
        <path class="cls-109" d="M287.31,144.54c3.71,3.14,7.34,6.38,11.19,9.35,1.2.93,2.07,2.06,3.1,3.1-.21,3.66,3.31,7,.94,10.85-4.16,2.33-8.32-.54-12.48,0-.49-.09-.96-.25-1.41-.46-5.22-4.6-4.98-11.04-5.68-17.15-.08-.68.34-1.43-.02-2.15-.53-2.4-1.06-4.81-1.65-7.48,2.6.85,4.19,2.59,6.02,3.96Z"/>
        <path class="cls-35" d="M363.71,172.38c.27-.08.54-.14.81-.2,6.35-4.26,12.62-8.66,19.76-11.58.71.05,1.29.36,1.79.85,5.18,5.03,10.36,10.06,16.15,15.69-4.32,1-7.42-.05-10.54-.33-2.48,1.74-5.08.84-7.66.34-6.65-1.23-13.52-.84-20.1-2.69-.72-.63-.78-1.33-.21-2.09Z"/>
        <path class="cls-109" d="M531.84,252.33c-1.56,3.2-5.26,3.34-7.66,5.36-1.2,1.01-2.67,1.69-4.02,2.53-2.2,1.54-3.96-.33-5.88-.79-2.47-.59-4.7-1.94-7.24-2.35-1.87-.15-3.85.09-5.35-1.43-1.46-2.59-2.77-5.27-4.29-7.84-.79-1.33-1.95-2.79-.67-4.51,11.7,3.01,23.41,6.01,35.11,9.02Z"/>
        <path class="cls-19" d="M48.13,254.16c2.5-.68,3.3.35,3.69,2.85,1.63,10.43,3.52,20.82,5.31,31.22,1.68,1.98,1.68,4.48,2.14,6.84.14,3.04,1.68,4.45,4.78,4.54,1.54.04,3.74-.45,3.92,2.24-4.92,1.07-9.85,2.03-14.73,3.26-2.3-3.57-1.97-7.76-2.61-11.68-1.73-10.6-3.41-21.21-4.92-31.85-.23-1.62-.61-3.24-.17-4.88.33-1.39,1.64-1.78,2.6-2.54Z"/>
        <path class="cls-109" d="M543.35,277.57c3.37-2.3,2.32-6.32,3.63-9.42.86-2.04-.12-4.84,2.58-6.11,3.8,4.42,6.47,9.74,10.87,13.7,2.25,2.21,5.11,4.06,4.72,7.86-3.87,1.36-7.8,2.47-11.9,2.88-1.26.27-1.72-.81-2.45-1.44-2.34-2.63-6.26-3.7-7.45-7.47Z"/>
        <path class="cls-151" d="M352.85,209.94q2.1-6.06,7.81-4.06c3.63,1.27,7.26,2.54,10.89,3.81-2.24,6.11-4.48,12.23-6.73,18.34-2.24-.33-4.26-1.12-5.97-2.64-1.5-2.88.6-5.47.64-8.23.02-1.71,2.05-2.41,2.16-4.35-2.83-.71-2.87,1.74-3.74,3.16-1.77,2.42-1,6.57-5.06,7.43-1.51-.08-2.87-.43-3.48-2.05.28-4.07,2.52-7.55,3.48-11.41Z"/>
        <path class="cls-51" d="M273.84,282.81c-3.72,1.86-3.3,5.27-2.4,8.18,1.45,4.65-.37,6.49-4.48,8.3-4.8,2.11-8.79,3.43-11.92-2.13-2.81-3.49-1.03-5.54,2.07-7.59,3.21-2.12,6.35-4.46,9.09-7.14,2.94-2.87,5.24-2.83,7.63.38Z"/>
        <path class="cls-18" d="M407.73,256.88c3.02.07,2.69-2.54,3.53-4.3,1.46-3.05-.12-7.27,3.65-9.4.53.26,1.15.43,1.58.8,4.54,3.85,9.06,4.53,13.62.05.82,5.42-.7,10.76-.52,16.15-.36.4-.81.65-1.34.75-6.04-.16-11.94-1.56-17.93-2.22-1.11-.12-2.43-.24-2.6-1.84Z"/>
        <path class="cls-144" d="M453.53,253.05c-1.02-4.66-5.27-7.69-6.22-12.38,9.92,1.45,19.83,2.88,29.75,4.35,1.75.26,3.49.63,5.24.95-.74,3.5-4.41,3.71-6.44,5.76-.44.15-.89.22-1.35.25-5.8,1.05-11.73-.02-17.52,1.14-1.16.19-2.32.63-3.46-.06Z"/>
        <path class="cls-7" d="M384.46,175.83c2.34.8,4.77.9,7.21.98,2.2,6.34,4.39,12.68,6.65,19.18-3.1.27-5.58-2-8.42-.98-3.69-1.1-7.89-.72-10.89-3.8l-.13-.19c-.5-5.93,1.73-10.86,5.59-15.19Z"/>
        <path class="cls-151" d="M306.87,429.95c-.07,2.51.87,5.11-.6,7.51-4.61,2.41-9.5,2.45-14.47,1.65-3.32-.54-6.24-1.66-7.23-5.35,4.25-3.54,8.17-7.41,11.67-11.69.25-.05.51-.05.76,0,4.52,1.09,7.39,4.25,9.87,7.89Z"/>
        <path class="cls-40" d="M364.43,139.87c-5.69,2.34-9.56,7.07-14.16,10.83-2.09-3.41-4.07-6.9-6.31-10.2-1.01-1.49-1.02-2.68-.09-4.05,5.6-1.56,11.25-2.97,16.79-4.72,3.12-.99,3.57.22,3.29,2.88-.18,1.76-.42,3.58.48,5.27Z"/>
        <path class="cls-155" d="M359.19,225.15c1.96.79,4.37.72,5.63,2.88-2.21,5.63-4.43,11.27-6.64,16.9-4.74-1.81-9.46-3.69-14.24-5.4-2.23-.8-3.15-1.71-2.04-4.23,1.74-3.96,3.19-8.05,4.61-12.14.53-1.52,1.16-2.37,2.85-1.8,1.19.44,2.37.89,3.56,1.33,2.59,1.86,1.18,3.35-.43,4.83-2.76.87-3.18,3.42-3.77,5.66-.68,2.55,1.71,2.74,3.24,3.45,1.61.75,3.19,1.05,4.17-.99,1.11-2.33,2.12-4.67.57-7.21-.06-1.77.16-3.33,2.49-3.27Z"/>
        <path class="cls-22" d="M322.22,265.72c3.68,3.55,7.36,7.09,11.04,10.64-2.43,1.98-5.19.74-7.67.46-5.94-.67-12.15.12-17.77-2.71-1.74-2.99-2.91-6.03-.8-9.36,3.24-1.23,6.49-2.45,9.73-3.68,3.22-.1,4.36,2.25,5.47,4.64Z"/>
        <path class="cls-19" d="M361.95,250.65c1.36,4.27,5.95,4.89,8.69,7.62,1.74,1.74,4.4,2.44,5.76,4.71-1.23,3.51-4.48,4.44-7.38,5.83-3.8-.35-6.64-3.14-10.24-4.02-2.03-1.21-4.87-1.11-6.01-3.74.2-2.59,1.68-4.68,2.73-6.94,2.19-1.07,3.85-3.16,6.46-3.46Z"/>
        <path class="cls-40" d="M384.27,161.4c-4.82,2.86-9.62,5.75-14.48,8.55-1.65.95-3.25,2.13-5.28,2.23,2.27-6.26,4.57-12.5,6.77-18.78.64-1.81,1.01-3.71,1.5-5.57.31.01.58.13.8.35,4.12,2.14,6.98,5.72,10.09,8.99,1.11,1.16,2.1,2.59.59,4.23Z"/>
        <path class="cls-59" d="M273.78,177.54c-4.07-2.75-8.14-5.5-12.58-8.49,6.8-6.03,13.28-11.78,19.75-17.52,3.16.94,1.42,3.13.97,4.67-1.99,6.9-4.75,13.54-7.24,20.27-.21.44-.51.8-.91,1.07Z"/>
        <path class="cls-101" d="M14.12,263.23c5.27-1.95,10.54-3.9,15.81-5.86,3.63-2.31,7.36-3.76,11.51-1.23,1.59,6.31.86,7.98-4.64,10.74-1.6.8-3.28,1.44-4.89,2.21-1.66.85-3.36,1.62-5.25,1.82-3.23.09-2.46-3.62-4.47-4.69-1.21-.4-2.5-.36-3.72-.69-1.44-.79-3.74.04-4.35-2.3Z"/>
        <path class="cls-147" d="M103.88,186.64q9.86-7.27,14.27,3.7c.33.82.75,1.61,1.12,2.41.79,3.31-.44,5.43-3.74,6.33-1.17,2.27-2.93,2.9-5.28,1.91-2.85-4.46-4.62-9.41-6.38-14.36Z"/>
        <path class="cls-145" d="M58.06,295.28c-.31-2.35-.63-4.7-.94-7.05,8.08.01,16.15.03,24.23.04-1.49,2.36-2.98,4.71-4.47,7.07-6.28,2.1-12.56,2.44-18.82-.07Z"/>
        <path class="cls-114" d="M273.78,177.54c.11-.17.13-.36.05-.55,2.57-4.61,7.17-6.96,11.15-9.99.92-.7,2.26-.97,3.01.57-.32,5.23.84,10.68-2.3,15.48-.08,2.33-.17,4.67-.25,7-4.41-3.68-7.93-8.19-11.65-12.51Z"/>
        <path class="cls-88" d="M322.22,265.72c-1.82-1.55-3.64-3.09-5.47-4.64-2.32-2.38-4.65-4.76-6.97-7.14,3.8-2.21,7.45.44,11.19.39,1.92-.03,3.84.45,5.76.7,2.23,1.77,5.46-.27,7.72,2.22-3.72,3.31-8.7,4.88-12.23,8.47Z"/>
        <path class="cls-35" d="M287.11,166.89c-4.85,2.81-8.77,6.84-13.28,10.11,1.41-7.31,5.13-13.86,6.98-21.01.36-1.4,2.01-2.92.14-4.45.63-1.18,2.08-1.89,1.98-3.47,1.12,4.67,2.35,9.32,3.31,14.03.41,2.01,1.19,3.57,2.9,4.66-.64.6-1.32.64-2.03.14Z"/>
        <path class="cls-61" d="M384.27,161.4c.48-2.54-1.52-3.71-2.92-5.18-2.57-2.7-5.17-5.36-7.76-8.04,8.18,1.26,16.36,2.51,25.27,3.88-2.98,2.87-6.33,4.02-9.13,5.97-1.36.95-3.56,1.1-3.68,3.42-.6-.02-1.19-.04-1.79-.05Z"/>
        <path class="cls-126" d="M476,251.26c.99-3.09,4.68-2.97,6.31-5.29.29-.06.58-.12.87-.18,6.96,1.67,13.13,4.77,18.19,9.93-3.48,3.95-7.93,1.88-12.04,1.95-4.56-1.88-9.67-2.64-13.33-6.4Z"/>
        <path class="cls-130" d="M565.15,283.6c-.93-3.01-4.01-4.72-4.72-7.86,9.3.29,18.6.59,27.9.88.5.97-.37,1.17-.89,1.57-7.43,1.8-14.86,3.6-22.29,5.4Z"/>
        <path class="cls-118" d="M501.37,255.11c-6.36-2.53-12.11-6.25-18.19-9.32,4.43-1.29,8.92-2.29,13.55-2.48,1.8,3.89,3.6,7.78,5.4,11.68-.21.31-.46.37-.76.12Z"/>
        <path class="cls-91" d="M307.02,264.76c.25,2.98.5,5.96.75,8.94-2.06,1.85-4.1,1.39-6.13-.07-1.51.11-3.02.23-4.53.34-3.04-.85-1.2-3.16-1.45-4.84,3.24-2.87,7.38-3.41,11.36-4.37Z"/>
        <path class="cls-116" d="M192.78,157.86c1.79-.44,3.61-.79,5.35-1.36,1.42-.46,1.79.22,1.96,1.36-2.43,5.97-4.86,11.93-7.28,17.9-1.67.12-1.21-.91-.99-1.82.32-5.36.65-10.72.97-16.08Z"/>
        <path class="cls-83" d="M379,191.22c3.61,1.32,7.81.95,10.89,3.8-4.74,2.24-9.49,4.47-14.55,5.95.21-3.63,1.93-6.69,3.66-9.75Z"/>
        <path class="cls-75" d="M306.87,429.95c-3.29-2.63-6.58-5.26-9.87-7.89.7-.89,1.4-1.78,2.1-2.68,3.1.33,6.05,1.12,8.79,2.65-.34,2.64-.68,5.28-1.02,7.92Z"/>
        <path class="cls-47" d="M110.26,201c1.76-.64,3.52-1.27,5.28-1.91,1.11,5.29-1.86,9.75-2.99,14.58-.44-.34-.88-.67-1.32-1.01-.32-3.89-.65-7.77-.97-11.66Z"/>
        <path class="cls-58" d="M423.96,65.42c-.39-.09-.77-.19-1.16-.28,1.95-1.05,1.72-2.87,1.71-4.66-.02-10.33-.03-20.66.02-30.99,0-1.41-.52-2.95,1.25-4.99v40.6s-.13.41-.13.41c-.58.37-1.14.32-1.68-.08Z"/>
        <path class="cls-156" d="M562.28,66.13V25.42c.34,0,.68,0,1.02,0,0,13.55,0,27.11,0,40.66-.07.15-.16.28-.27.4-.18,0-.36,0-.54-.01l-.21-.33Z"/>
        <path class="cls-45" d="M175.02,234.34c-2.85.3-4.66-.97-5.5-3.67,4.22.32,8.44.65,12.66.97,1.01.08,1.64.52,1.65,1.61-2.94.36-5.87.73-8.81,1.09Z"/>
        <path class="cls-11" d="M41.01,256.71c-3.84-2.11-7.45-.62-11.08.67,1.86-2.68,4.68-3.31,7.65-3.36,3.51-.06,7.03.09,10.55.14.02,1.14-.64,1.62-1.69,1.73-1.68,1.15-3.46,1.6-5.43.82Z"/>
        <path class="cls-50" d="M18.48,264.76c1.5.02,3,.04,4.5.06-.66,2.59-2.38,2.62-4.44,1.83-4.48-.55-9.09.91-13.5-.88,1.84-1.28,3.94-1.16,6.02-1.12,2.48-.63,4.95-.5,7.4.12Z"/>
        <path class="cls-39" d="M295.66,269.13c1.35,1.35-.07,3.54,1.45,4.84-2.35.59-4.55,2.49-7.17.86,1.91-1.9,3.82-3.8,5.72-5.7Z"/>
        <path class="cls-57" d="M387.75,36.7c-1.14-3.84-.64-7.68-.11-11.57,1.55,2.19,1.22,4.6,1.04,6.99-.9,1.4.43,3.26-.93,4.57Z"/>
        <path class="cls-137" d="M388.82,62.56c-.22.09-.45.13-.69.13-.02-2.77-.04-5.54-.06-8.31.84-1.31-.26-2.97.78-4.24.04-.14.04-.33.13-.41.15-.13.35-.18.54-.27.02,2.91.04,5.82.06,8.74-.8,1.36.26,3.04-.75,4.37Z"/>
        <path class="cls-71" d="M503.99,38.34c-1.53-2.49-.84-4.99-.48-8.35,2.05,3.24,1.01,5.85.48,8.35Z"/>
        <path class="cls-128" d="M502.64,56.68c-.53-2.46-.7-4.9.64-7.23.53,2.44.79,4.87-.64,7.23Z"/>
        <path class="cls-128" d="M456.22,65.23c-.84.03-1.68.05-2.52.08,2.75-1.29,1.15-4.14,2.17-6.44,1.67,1.82,1.09,3.76,1.2,5.55-.18.37-.46.65-.84.81Z"/>
        <path class="cls-38" d="M455.3,45.48c1.74,2.3.56,4.88.71,7.33l-.43-.11c-1.83-2.37-1.36-4.81-.22-7.27l-.06.06Z"/>
        <path class="cls-85" d="M454.81,38.67c-1.53-2.08-1.35-3.73-.8-6.09,1.56,2.08,1.45,3.73.8,6.09Z"/>
        <path class="cls-69" d="M388.67,37.44v9.26c-1.09-3.05-.79-6.17-.7-9.29.25-.43.48-.4.7.03Z"/>
        <path class="cls-138" d="M503.02,64.31l-.3,2.85c-.16-.01-.31-.02-.47-.03-.1-1.01-.21-2.01-.31-3.02.1-1.55.21-3.1.35-5.26,1.22,2.16.43,3.87.73,5.46Z"/>
        <path class="cls-100" d="M18.48,264.76c-2.47-.04-4.94-.08-7.41-.12,1.02-.47,2.03-.94,3.05-1.41,1.15,1.36,3.29-.07,4.36,1.53Z"/>
        <path class="cls-41" d="M191.81,173.94c.27.64.16,1.48.99,1.82-.33.88-.66,1.75-.99,2.63-1.22-1.48-.93-2.96,0-4.44Z"/>
        <path class="cls-56" d="M455.36,45.43c-1.67-1.53-.91-3.27-.62-5.62.93,2.28.69,3.98.56,5.68,0,0,.06-.06.06-.06Z"/>
        <path class="cls-77" d="M503.46,46.8c-.67-2.4-.7-3.91-.02-5.56.82,1.63.51,3.12.02,5.56Z"/>
        <path class="cls-82" d="M388.67,37.44h-.35s-.35-.03-.35-.03c-.2-.2-.28-.44-.22-.72.64-1.46-.3-3.24.93-4.57,0,1.77,0,3.55-.01,5.32Z"/>
        <path class="cls-117" d="M587.44,278.19c.3-.52.59-1.05.89-1.57,1.19,0,2.38,0,3.57.01-1.34.94-2.84,1.43-4.46,1.56Z"/>
        <path class="cls-79" d="M504.44,28.79c-.8-1.22-.81-2.46-.16-3.76.96,1.26.26,2.51.16,3.76Z"/>
        <path class="cls-143" d="M388.85,50.14c-.32,1.4.46,3.01-.78,4.24.26-1.41-1.07-3.12.78-4.24Z"/>
        <path class="cls-79" d="M455.58,52.7c.11.15.25.19.43.11.17,1.36.73,2.74-.27,4.13-.64-1.46-.61-2.84-.16-4.24Z"/>
        <path class="cls-28" d="M388.82,62.56c.31-1.45-.47-3.08.75-4.37.06,1.44.12,2.88.19,4.32,0,.17-.05.33-.15.47h-.38s-.35-.14-.35-.14l-.06-.28Z"/>
        <path class="cls-112" d="M456.22,65.23c.28-.27.56-.54.84-.81.17.16.24.36.22.59-.1,1.01-.2,2.01-.32,3.15-1.17-.89-.55-2-.74-2.93Z"/>
        <path class="cls-6" d="M200.07,392.4c1.3.96.75,2.39.92,3.64-.34,5.12.33,10.17.9,15.23.04,2.36.08,4.72.12,7.07.65,6.13.44,6.54-4.97,8.54-5.69,2.1-11.29,4.45-17.01,6.47-1.61.57-3.24,1.67-5.02.36-3.92-7.55-7.84-15.1-11.75-22.65-.88-.8-1.71-1.62-.86-2.93,6.65-4.27,14.22-6.59,21.3-9.98,4-1.92,8.05-3.79,12.2-5.39,1.34-.51,2.66-1.51,4.15-.38Z"/>
        <path class="cls-115" d="M109.92,411.49c.05-.37.11-.73.16-1.1-1.5-2.62-.77-4.84,1.23-6.83,1.5-.83,3.15-.84,4.79-.84,10.29-.03,20.58-.04,30.87-.04,2.58,1.03,1.27,2.82.75,4.34-.52,1.5-1.19,2.99-2.49,4.04-4.18,6.25-6.42,13.49-10.08,20-.9,1.33-2.25,1.89-3.76,2.18-7.17,1.37-14.37,2.62-21.56,3.9-1.18.21-2.39.27-3.35-.71,1.15-8.31,2.3-16.62,3.45-24.93Z"/>
        <path class="cls-26" d="M175.02,433.72c7.96-2.95,15.87-6.07,23.92-8.78,3.74-1.26,2.56-4.18,3.07-6.6.1,6.65,5.26,10.3,8.85,14.86,3.77,4.77,8.24,8.97,11.6,14.08-1.57,1.47-3.56,1.39-5.48,1.39-12.81.05-25.62.06-38.43,0-1.91,0-3.92.15-5.44-1.43.64-4.51,1.28-9.01,1.92-13.52Z"/>
        <path class="cls-26" d="M106.48,436.43c9.56-1.79,19.11-3.58,28.67-5.37,1.39,6.32,2.77,12.64,4.19,18.95.35,1.57,1.03,3.12-.17,4.62-11.19-2.86-22.53-1.33-33.82-1.17-1.03.01-2.04.47-3.09.11,1.41-5.71,2.82-11.42,4.23-17.13Z"/>
        <path class="cls-111" d="M369.94,395.07c.58.09,1.52-.01,1.68.29.54,1.07-.7,1.03-1.17,1.28-6.53,3.33-13.11,6.54-19.63,9.88-3.57,1.83-7.42,3.17-11.08,6.31,12.22,2.25,24.06.56,35.8,1.23-4.39,1.9-9.18,2.19-13.74,3.45-1.16.32-2.37.32-3.02,1.55-3.3,1.1-6.62,2.05-10.15,1.93-2.45-.49-4.67.61-6.95,1.12-2.62.58-3.87-.03-4.04-2.85-.18-2.97-.66-5.91-1.01-8.87-1.61-3.68-2.07-7.48-1.2-11.42,10.22-.72,20.19-3.12,30.3-4.57,1.46-.21,2.97-.55,4.21.68Z"/>
        <path class="cls-148" d="M173.1,447.23c16.45.01,32.9.03,49.35.04q-.26,6.4-6.4,6.4c-13.24,0-26.48,0-39.72,0h-4.49c.2-2.47.26-4.54,1.26-6.44Z"/>
        <path class="cls-105" d="M102.24,453.56c1.46-1.49,3.25-1.81,5.27-1.8,8.46.07,16.91-.03,25.37.09,2.36.03,5.2-.45,6.27,2.77.14,3.2-1.18,4.35-4.55,4.24-9.41-.3-18.83-.4-28.24-.18-4.19.1-5.79-.95-4.11-5.12Z"/>
        <path class="cls-74" d="M145.22,411.06c-.09-2.94,2.37-4.97,2.75-7.74-.19-3.26,1.15-5.82,3.61-7.86,1.12-.5,2.28-.55,3.47-.28,4.6,3.29,6.41,8.12,7.35,13.42.29.83.57,1.65.86,2.48-6.01,0-12.03,0-18.04-.01Z"/>
        <path class="cls-151" d="M359.31,421.12c1.69,3.42,1.01,7.58,3.41,10.78-.02,3.84-3.87,5.16-5.31,8.08-.33,0-.67.01-1,.02-4.97.07-8.68-1.59-9.67-7,.27-1.57.55-3.14.82-4.71,1.47-1.8,3.71-2.23,5.68-3.08,2.3-.99,4.35-2.26,6.07-4.07Z"/>
        <path class="cls-14" d="M284.57,433.76c3.3,4.08,8.07,4.62,12.77,5.37,2.82.45,4.88-.62,6.64-2.75,1.93-2.33,2.14-.58,2.29,1.08.13,2.24-1.13,2.67-3.07,2.61-4.45-.13-8.9-.11-13.35-.16-3.11-.78-6.35-.58-9.47-1.25-1.56-.33-3.24-.42-3.94-2.25.55-.68,1.16-1.32,1.63-2.06,1.92-3.07,4.07-3.26,6.5-.6Z"/>
        <path class="cls-129" d="M359.31,421.12c0,1.33.05,2.75-1.55,3.28-3.45,1.16-6.49,3.42-10.21,3.88.35-2.43.71-4.86,1.06-7.3,3.22-1.53,6.49-2.77,10.15-1.92.18.68.36,1.37.54,2.06Z"/>
        <path class="cls-108" d="M357.42,439.98c-.31-4.06,4.13-5,5.31-8.08,1.08-1.6,2.21-2.35,3.78-.48,1.41,1.68,2.93,3.27,4.4,4.9.02,2.46-2.05,2.03-3.44,2.37-2.98.72-6.11.46-9.09,1.22-.32.02-.63.04-.95.05Z"/>
        <path class="cls-52" d="M276.44,436.42c4.29,1.85,9.21,1.27,13.41,3.49-5.33,0-10.66,0-16.29,0,.35-1.75,1.53-2.69,2.88-3.49Z"/>
        <path class="cls-107" d="M358.37,439.92c3.87-2.26,8.67-1.3,12.53-3.59,1.38.68,2.36,1.76,3.55,3.59h-16.08Z"/>
        <path class="cls-140" d="M346.74,432.99c2.39,3.49,4.87,6.85,9.67,7-1.32.02-2.65.07-3.97.05-7.38-.09-7.57,1.26-5.71-7.06Z"/>
        <path class="cls-148" d="M377.17,396.98c-.31-.92-.63-1.83-.94-2.75-2.08-2.38-1.26-5.38-1.61-8.09-1.07-8.36-1.23-16.81-2.2-25.19-.14-1.19.05-2.37.68-3.43,1.25-1.4,2.92-1.37,4.59-1.34,2.08.22,4.09,1.07,6.23.83,18.29,1.76,36.5,4.27,54.74,6.42,27,3.19,53.99,6.52,80.99,9.74.6.07,1.18.19,1.75.38.49.24.94.54,1.36.9,2.7-1.2,5.39-2.4,8.09-3.59,1.45,1.32.86,3.06.86,4.62.06,11.29.02,22.57.07,33.86,0,1.58-.52,3.3.79,4.68.01,2.07.03,4.15.04,6.22-9.88-.34-19.5-2.55-29.23-4-34.27-5.12-68.51-10.46-102.76-15.71-7.82-1.2-15.65-2.37-23.48-3.55Z"/>
        <path class="cls-76" d="M522.76,374.45c-.29.02-.58.04-.88.06-1.62-1.86-1.43-4.15-1.43-6.37-.03-10.26,0-20.52-.02-30.78,0-2.07.18-4.17-.63-6.16-.76-1.51-2.15-1.89-3.67-2.21-24.43-5.18-48.83-10.51-73.27-15.65-13.32-3-26.7-5.75-40.06-8.59-2.76-.59-5.56-1-8.11-2.3-3.05-5.05-7.43-9.06-10.82-13.85-.07-.8.15-1.47.87-1.91,4.17-1.67,8.28.48,12.44.18,7.9-.49,15.71,1.16,23.59.99.55.05,1.09.16,1.62.3,1,.35,2.02.59,3.08.51,9.58-.68,19.1.86,28.66.92,1.11-.05,2.2.11,3.29.34.59.1,1.15.42,1.73.41,13.36-.09,26.66.99,39.97,1.9,5.09-.45,10.1.58,15.14.93.8-.09,1.59-.08,2.39-.02,2.07.24,4.34-.44,6.08,1.33.02,26.66.04,53.31.06,79.97Z"/>
        <path class="cls-25" d="M522.71,294.47c-2.07-.02-4.13-.03-6.2-.05-.48-1.28.04-2.46.79-3.32,4.4-5.06,4.34-11.1,4.26-17.27-.03-2.51-1.04-5.42,1.63-7.42,1.95,1.05,1.7,2.97,1.8,4.7.15,2.52.06,5.04.07,7.57,0,2.38,1.11,3.39,3.48,3.64,5.17.53,10.33,1.07,15.54.88,2.54-.09,5.05.07,7.37,1.28.61.67,1.21,1.33,1.81,2-10.18,2.67-20.36,5.33-30.55,8Z"/>
        <path class="cls-132" d="M557.45,99.27c5.82.19,7.94,3.09,8.4,11.49.24,4.43-2.05,8.1-6.16,9.83-.4.17-.84.41-1.24.39-3.36-.21-9.06-7.44-8.55-10.82.26-1.77.57-3.53.82-5.29q.82-5.79,6.74-5.6Z"/>
        <path class="cls-67" d="M544.08,100.55c-.76,0-1.21.04-1.66,0-1.85-.18-3.2.08-3.23,2.47-.03,2.19,1.29,2.46,2.9,2.4,2.26-.1,3.84.33,4.71,2.89.88,2.62.98,4.41-1.03,6.78-2.38,2.78-4.55,4.31-8.27,3.23-1.59-.46-2.62-1.13-2.1-2.68.57-1.7,1.8-.24,2.53.03,1.8.67,3.31,1.2,4.62-.86,1.07-1.68,2.91-2.83,1.72-5.45-.98-2.15-2.24-2.73-4.42-2.75-1.21-.01-4.17,1.08-3.22-1.76.82-2.44-1.37-7.07,3.99-6.98,1.04.02,2.13,0,3.11.27,1.43.4,4.11-.7,4.08,1.3-.03,2.23-2.64.7-3.72,1.11Z"/>
        <path class="cls-68" d="M579.24,100.24c1.43,1.25,1.02,2.04.59,2.86-2.52,4.75-5.03,9.51-7.55,14.25-.39.74-.67,1.84-1.85,1.41-.83-.3-.95-1-.5-1.82,3.09-5.52,6.17-11.05,9.32-16.7Z"/>
        <path class="cls-17" d="M569.51,101.63c.27-.15.53-.3.8-.45,1.29.08,2.26.65,2.8,1.86.01.55.03,1.09.04,1.64-.75,1.16-1.65,1.9-3.09,1.07-1.18-1.24-1.37-2.61-.55-4.12Z"/>
        <path class="cls-93" d="M580.22,114.6c.27.7.55,1.41.82,2.11-1.31.42-1.62,2.93-3.69,1.74-.94-.82-1.38-1.8-.96-3.05,1.1-1.12,2.33-1.6,3.83-.8Z"/>
        <path class="cls-21" d="M576.73,115.67c.27.96.55,1.91.82,2.87.02.2.03.4.05.61-2.81-.58-2.33-2.5-1.79-4.44.94-.29,1.17.11.93.96Z"/>
        <path class="cls-89" d="M577.6,119.14c.02-.21,0-.41-.05-.61,1.68.38,1.92-1.99,3.49-1.83-.84,1.25-.58,4.05-3.44,2.43Z"/>
        <path class="cls-94" d="M569.51,101.63c0,1.42.07,2.83.97,4.03-.21.39-.53.65-.95.79-1.13-1.6-2.33-3.2-.03-4.82Z"/>
        <path class="cls-154" d="M576.73,115.67c-.31-.32-.62-.64-.93-.96,1.45-1.06,2.89-2.49,4.42-.1-1.16.36-2.33.71-3.49,1.07Z"/>
        <path class="cls-96" d="M573.11,103.04c-.93-.62-1.87-1.24-2.8-1.86,2.57-1.84,2.59.16,2.8,1.86Z"/>
        <path class="cls-34" d="M569.54,106.45c.32-.26.63-.53.95-.79,1.14.36,1.85-.44,2.66-.98-.01,3.02-2.06,1.89-3.61,1.77Z"/>
        <path class="cls-139" d="M562.49,66.46c.18-.15.37-.14.55,0,.09,1.15.55,2.32-.27,3.45-.8-1.13-.37-2.31-.27-3.46Z"/>
        <path class="cls-146" d="M141.57,247.63c-.65-2.37-2.79-3.5-4.51-4.65-2.82-1.88-2.55-3.1.03-4.71.99-.62,1.82-1.51,2.72-2.27.62-2.18,2.51-3.22,4.1-4.53,1.25-1.03,2.73-1.86,3.11-3.62-1.6-4.11-5.77-6.81-6.31-11.49-.81-2.62.67-3.84,2.84-4.65.71-.09,1.05.15.82.91,8.11,5.71,16.22,11.42,24.33,17.13-6.86,5.75-14.78,9.94-22.11,15-1.23.85-2.58,1.53-3.22,3-.63.42-1.23.42-1.79-.13Z"/>
        <path class="cls-146" d="M161.45,205.29c-1.63-.81-1.13-2.22-.99-3.53-1.67-6.66.7-12.84,2.24-19.12.19-.17.38-.34.57-.51,2.94.63,7.26-.94,7.17,4.51,2.3,3.5.55,6.64-.9,9.8-1.09,2.96-.07,6.4-2.06,9.16-2.07,1.05-4.12,1.73-6.03-.31Z"/>
        <path class="cls-119" d="M169.54,196.43c.3-3.27.6-6.53.9-9.8,1.08-3.02,2.35-5.92,4.6-8.3,5.1-3.57,5.78-3.53,9.67,1.05.81.96,2.12.97,2.84,1.95-1.13,2.68-4.99,2.96-5.49,6.2-3.21-.99-5.24-.2-5.32,3.53-2.4,1.79-4.79,3.57-7.19,5.36Z"/>
        <path class="cls-88" d="M148.67,228.1c-2.09,3.61-5.95,5.23-8.87,7.9-5.61-1.28-8.93-5.95-13.34-9-.59-.41,0-.7.41-.79.43-.09.88-.08,1.33-.12,2.41.28,4.83.55,7.24.83,1.75.08,3.49.17,5.24.25,2.63.6,5.6-1.66,8,.93Z"/>
        <path class="cls-1" d="M155.11,182.93c-3.27-2.53-6.49-5.14-9.85-7.56-1.98-1.42-1.64-2.57-.43-4.35,1.38-2.03,2.39-.94,3.57-.05,4.93,3.75,10.31,6.91,14.87,11.15,0,0-.1-.06-.1-.06-1.63,3.21-4.03,4.19-7.35,2.55-.57-.42-1.05-.88-.71-1.69Z"/>
        <path class="cls-70" d="M144.35,212.64c-.27-.3-.54-.61-.82-.91-.89-5.15,2.43-6.32,7.12-6.94-2.92,3.53-.31,4.55,1.95,6.26,5.54,4.21,12.09,5.24,18.6,6.61-7.37.97-14.64,1.54-20.75-3.93-1.81-1.62-3.83-2.06-6.11-1.09Z"/>
        <path class="cls-86" d="M187.54,181.34c-1.27-.19-3.13,1.33-3.65-1-1.1-4.87-4.01-3.82-7.15-2.38-.52.24-1.13.26-1.7.38-.98-2.21-1.03-3.92,2.01-4.33,1.31-.18,2.56-.75,3.86-.97,1.61-.27,3.78-2.16,4.74,0,1.14,2.53,4.18,4.92,1.9,8.31Z"/>
        <path class="cls-60" d="M155.84,183.84c2.97,1.59,5.15-.12,7.33-1.78.03,6.69-2.67,13.01-2.71,19.7-2.32-1.92-1.68-4.59-1.69-7.04-.02-2.87-.67-5.24-3.65-6.35-.67-1.66-.36-3.16.73-4.54Z"/>
        <path class="cls-14" d="M148.67,228.1c-2.63-.6-5.48.6-8-.94,2.1-.32,1.28-1.59,1.16-2.92-.25-2.65-2.22-5.05-1.13-7.87,2.66,3.91,5.31,7.82,7.97,11.73Z"/>
        <path class="cls-87" d="M176.73,191.07c-1.07-1.82-1.64-3.74.47-5.09,2.03-1.3,3.66-.28,4.85,1.56-.05,3.77-1.77,5.03-5.32,3.53Z"/>
        <path class="cls-12" d="M155.84,183.84c.38,1.61.34,3.16-.73,4.54-1.55.85-3.07,1.09-4.37-.41-.81-.94-1.18-1.94-.54-3.22,1.1-2.19,2.94-2.12,4.91-1.82.24.3.49.6.73.91Z"/>
        <path class="cls-48" d="M161.45,205.29c2.01.1,4.02.2,6.03.31-.42,1.73-1.97,2.52-3.11,3.64-.94.93-2.16.88-2.46-.32-.29-1.13-3.58-2.08-.46-3.62Z"/>
        <path class="cls-54" d="M424.13,92.28c3.63,10.43,6.87,19.76,10.26,29.51-3.81-.23-6.55-.88-5.97-5.29.29-2.19-.74-2.81-2.84-2.69-3.72.22-8.12-.98-8.32,5.09-.04,1.22-.8,2.17-2.42,1.27-1.18-.66-1.91-1.11-1.23-2.7,3.43-8.03,6.73-16.11,10.51-25.18Z"/>
        <path class="cls-125" d="M423.96,65.42c.56.02,1.12.05,1.68.07-.18.99.57,2.76-.88,2.73-1.45-.04-.65-1.79-.8-2.8Z"/>
        <path class="cls-133" d="M504.46,105.7c-.3,2.73-1.77,3.89-4.14,4.12-1.49.14-2.98.25-4.46.46-1.58.22-4.19-.2-4.38,1.32-.26,2.04.84,4.32,1.61,6.4.56,1.5,1.86.42,2.72.23,2.92-.63,5.8-1.41,8.68-2.23,1.48-.42,2.66-.62,2.83,1.46.14,1.73.38,3.27-2.19,3.37-4.63.2-9.26.56-13.88.96-1.84.16-2.72-.25-2.68-2.34.12-6.73.14-13.47.05-20.2-.02-1.84.63-2.73,2.37-3.09,3.51-.72,7.05-1.35,10.5-2.31,2.37-.66,2.99.63,3.27,2.37.39,2.36-1.67,1.66-2.74,1.8-2.52.33-5.07.45-7.61.5-1.92.04-3.55.45-2.69,2.74.71,1.89-1.49,5.76,3.25,5.24,3.11-.34,6.24-.53,9.47-.8Z"/>
        <path class="cls-62" d="M111.1,404.12c-.34,2.09-.68,4.18-1.02,6.27-21.38,0-42.77-.09-64.15.04-3.91.02-6.23-.51-6.01-5.26.14-3.01-1.47-6.03-.75-9.19-.07-1.27.84-1.26,1.71-1.32,21.54-.24,43.08-.06,64.62-.1,2.08,0,4.21-.17,6.16.86,2.4,3.05,1.1,5.88-.55,8.68Z"/>
        <path class="cls-19" d="M40.16,395.2c-.33.26-.66.53-1,.79-3.35-3.09-1.78-7.4-2.39-11.04-3.71-22.39-6.84-44.88-10.25-67.32-2.59-17.01-5.32-33.99-7.98-50.99,1.52-.52,3.19-.66,4.44-1.83,1.5.49,1.74,1.73,1.78,3.05.03,1.21.17,2.3,1.72,2.4,2.61,19.98,6.26,39.8,9.74,59.64.4,4.48.95,8.93,2.19,13.27.37,3.79,1.04,7.55,1.61,11.31.4,4.83,1.09,9.52,5.39,12.7-2.38,1.35-2.97,3.25-2.42,5.95,1.22,5.96,1.97,12,2.94,18.01-.76,3-2.95,3.96-5.77,4.04Z"/>
        <path class="cls-35" d="M287.11,166.89c.68-.05,1.36-.09,2.03-.14,0,0-.08.05-.08.05,20.27,3.44,39.83,9.76,59.65,15,1.3.34,2.57.75,3.77,1.38.42.43-.06-.17.37.24,1.29,1.22,2.94,2.65,1.99,4.43-.97,1.81-3.01,1.04-4.67.55-3.6-.25-7.2-.49-10.8-.74-2.96-.06-5.92-.13-8.89-.2-9.87.89-19.6-.96-29.38-1.6-1.56-.36-3.1-.86-4.75-.63-.49-.04-.84-.28-1.05-.72-3.15-.82-6.32-1.53-9.61-1.47.47-5.39.95-10.78,1.42-16.17Z"/>
        <path class="cls-146" d="M301.68,214.56c1.11-2.05.86-4.27.82-6.47-1.15-5.54-.31-10.94,1.18-16.3,3.31-3.7,10.41-3.21,13.37.91,0,6.19.2,12.43-2.89,18.13-1.68,1.09.28,4.37-2.79,4.62-1.74,1.49-3.73,1.07-5.7.77-1.36-.48-2.68-1.06-3.99-1.67Z"/>
        <path class="cls-121" d="M314.16,210.84c.64-5.96,1.28-11.93,1.92-17.89.54-.91.5-2.35,2.1-2.29,6,.03,11.44,1.59,15.89,5.84,1.26,1.55-.06,1.57-1.06,1.8-3.13.7-6.27,1.39-9.4,2.11-2.36.54-4.04,1.7-3.98,4.43.32,1.6-.27,2.72-1.79,3.33-1.04,1.56-2.07,3.12-3.35,5.04-.14-1-.24-1.68-.34-2.35Z"/>
        <path class="cls-80" d="M317.88,191.13c-.6.61-1.2,1.21-1.8,1.82-2.31-2.59-9.04-3.13-11.67-.93-.55-.28-.92-.75-1.27-1.23-1.43-2.18-4.8-2.5-5.33-5.55.51-.99,1.27-.99,2.13-.52,10.21.56,20.42,1.12,30.54,2.75-.74.04-1.44.16-1.86.88-3.31,1.97-6.93,2.71-10.74,2.78Z"/>
        <path class="cls-84" d="M304.16,190.02c.08.67.16,1.33.24,2-.63,5.36-1.27,10.72-1.9,16.08-1.77-.52,0-4.41-3.31-3.47-1.43-.79-1.62-2.05-1.32-3.5,1.79-2.73-.59-3.87-2.09-5.26-2.46-2.28-5.01-4.47-7.53-6.69,5.42-1.95,10.64-.33,15.9.84Z"/>
        <path class="cls-44" d="M317.76,232.51c-3.22,4.22-7.89,6.71-11.91,9.97-1.13.92-2.21.89-3.04-.36-2.53-3.82-5.59-7.31-7.46-11.56.54-.43,1.14-.54,1.8-.38.55.21,1.06.52,1.48.94,6.64,6.88,6.66,6.78,16.17,1.47.98-.47,1.95-1.05,2.97-.09Z"/>
        <path class="cls-92" d="M317.76,232.51c-.94.31-1.89.63-2.83.94-6.24.96-12.14-.24-17.85-2.72-.58-.05-1.15-.11-1.73-.16.02-.29,0-.58-.09-.87-.45-.49-1.44-.76-.72-1.73.31-.04.62-.08.93-.11,6.53-1.79,12.82.04,19.15,1.25,1.53.94,3.37.91,5,1.54-.11,1.13-.75,1.73-1.85,1.87Z"/>
        <path class="cls-142" d="M317.88,191.13c3.51-1.18,6.85-3.04,10.74-2.78,1.62,2.85,4.4,4.92,5.46,8.14-5.19-2.41-10.48-4.52-16.19-5.37Z"/>
        <path class="cls-49" d="M314.94,229.9c-6.49-.68-12.98-1.37-19.48-2.05,7.08-4.42,13.85-2.68,20.52,1.03.16.86-.03,1.36-1.05,1.02Z"/>
        <path class="cls-90" d="M304.16,190.02c-5.35.7-10.59-.69-15.9-.84,1.86-2.28,4.55-3.31,7.03-4.65.33.04.65.08.98.12.93-.31,1.36.35,1.84.92,2.02,1.48,4.03,2.97,6.05,4.45Z"/>
        <path class="cls-110" d="M317.84,208.15c.6-1.11,1.2-2.22,1.79-3.33,2.11-.52,3.87-.16,4.5,2.2.42,1.61-.25,2.97-1.81,3.57-2.35.91-3.47-.73-4.48-2.44Z"/>
        <path class="cls-110" d="M297.88,201.13c.44,1.17.88,2.33,1.32,3.5-1.05,1.87-2.39,3.24-4.67,1.91-1.21-.71-1.97-1.86-1.42-3.4.85-2.38,2.68-2.53,4.77-2Z"/>
        <path class="cls-20" d="M305.35,215.2c2.01.08,4.02.17,6.02.25,1.36,3.47-2.38,3.24-3.64,4.72-1.05,1.23-1.89-.52-2.57-1.4-.63-.81-1.25-1.63-1.88-2.44.01-1.61.98-1.49,2.07-1.13Z"/>
        <path class="cls-136" d="M314.94,229.9c.35-.34.7-.68,1.05-1.02,1.24.52,2.68.63,3.62,1.76-1.59-.05-3.24.31-4.67-.74Z"/>
        <path class="cls-103" d="M305.35,215.2c-.78.2-1.64.29-2.07,1.13-.53-.59-1.07-1.18-1.6-1.78,1.27-.08,2.58-.36,3.67.64Z"/>
        <path class="cls-78" d="M294.53,227.96c.24.58.48,1.16.72,1.73-1.26-.04-2.3-.34-2.26-1.91.51.06,1.03.12,1.54.18Z"/>
        <path class="cls-62" d="M333.82,373.12l-.34-.05s-.34,0-.34,0c-5.72.11-11.44.79-17.17.25.3-15.51.6-31.03.89-46.54,0,0,.16.05.16.05.99-2.18,3.04-2.09,4.95-2.3,11.24-1.28,22.52-2.07,33.77-3.16,1.65-.16,3.29-.27,4.62,1.03,2.11,4.56,1.39,9.44.94,14.06-.77,7.88-.52,15.75-.81,23.63.53,13.06-.35,14.07-13.38,13.94-4.43-.04-8.96.86-13.29-.91Z"/>
        <path class="cls-133" d="M394.86,111.16c0,.21.03.41.1.6-.76.7-1.57,1.36-2.29,2.11-6.69,6.97-7.62,7.02-16.12,2.73-2.68-1.35-1.35-3.09-.89-4.48.76-2.3,2.12-.39,3.18,0,.69.26,1.38.65,1.93,1.13,3.87,3.37,6.91,2.3,9.55-1.86-4.15-2.35-8.25-4.79-12.46-7.02-1.9-1-2.22-1.99-1.14-3.84,1.8-3.07,2.79-8.15,5.24-8.95,3.61-1.18,7.69,2.24,11.66,3.41,1.25.37,1.48,1.12,1.13,2.4-.65,2.43-1.45,3.98-4.09,1.78-.91-.76-1.99-1.32-3-1.96-2.93-1.84-5.96-.77-7.33,2.43-.79,1.84.85,1.97,1.66,2.55,4.26,3.04,8.58,5.98,12.87,8.96Z"/>
        <path class="cls-98" d="M388.88,62.85c.28-.15.52-.1.73.14,0,1.39,0,2.77,0,4.15-.24,0-.48-.01-.73-.02v-4.27Z"/>
        <path class="cls-54" d="M465.51,119.37c-1.92-.28-3.85-.55-5.77-.83q-8.06-1.16-7.76-9.18c.19-4.94.47-9.87.6-14.81.04-1.63.41-2.43,2.25-2.43,2.27,0,1.8,1.32,1.64,2.68-.65,5.5-1.16,11.01-1.95,16.49-.4,2.81.38,3.81,3.27,3.41,3.26-.45,6.55-.73,9.84-.8,1.15-.02,3.82-1.52,3.1,1.83-.4,1.84.1,4.67-3.42,3.77-.58-.15-1.18-.17-1.78-.25l-.02.12Z"/>
        <path class="cls-148" d="M192.89,307.83l.94,6.47c1.02,1.08,1.27,2.52,1.8,3.83,1.02,3.55,2.03,7.11,1.96,10.86-.2,1.84-1.14,3.1-2.97,3.48-10.97,2.27-21.89,4.79-33.04,6.08-.44.05-.87-.17-1.3-.31-2.09-1.19-2.47-3.29-2.73-5.37-1.99-16.33-4.06-32.65-6.13-48.98-.17-1.35-.23-2.69.42-3.95,1.06-1.72,2.64-1.12,3.99-.69,7.67,2.44,15.3,5,22.92,7.6,1.32.45,2.21,1.49,3.28,2.28,3.62,6.23,7.24,12.46,10.86,18.69Z"/>
        <path class="cls-26" d="M182.04,289.14c-9.84-3.24-19.68-6.48-29.53-9.72-.16-.24-.32-.48-.48-.73-1.39-8.56-2.18-17.11.44-25.6,4.18,1.82,8.36,3.63,12.53,5.45,5.68,10.2,11.35,20.4,17.03,30.61Z"/>
        <path class="cls-113" d="M360.12,322.39c-11.61,1.09-23.23,2.11-34.82,3.34-2.76.29-5.71-.6-8.28,1.11-.03-10.2-.06-20.4-.09-30.6,3.48-4.04,8.4-6.03,12.72-8.87,4.36-2.87,8.81-5.61,13.29-8.28,1.68-1.01,3.37-1.95,5.44-1.67,3.79.72,7.01,2.81,10.48,4.33,3.03,1.84,7.4,1.67,8.88,5.86-1.34,10.77-3.79,21.34-5.83,31.99-.17.88-.58,1.68-1.18,2.37-.2.15-.4.29-.61.43Z"/>
        <path class="cls-18" d="M348.34,278.15c-6.42,1.43-11.03,6.15-16.57,9.17-5.06,2.76-9.9,5.92-14.84,8.91-5.1-7.54-10.19-15.07-15.29-22.61,2.04.02,4.08.04,6.13.07,8.5.89,16.99,1.78,25.49,2.67,2.37.1,4.74.2,7.11.3,2.72.16,5.91-2.18,7.97,1.49Z"/>
        <path class="cls-43" d="M350.16,188.4c1.37-.31,3.43.82,3.98-.88.43-1.31-1.14-2.56-2.16-3.62-.6-.43-1.25-.84-1.64-1.48-2.68-4.31-5.28-8.69-10.26-10.82,1.71-1.47,1.73-2.94.49-4.88-1.23-1.92-2.92-3.71-2.98-6.23,4.3-2.89,7.58-7.23,12.7-8.95,3.45,5.69,6.85,11.42,10.39,17.06.84,1.34,1.44,2.99,3.03,3.77-.01.55-.03,1.09-.04,1.64.75,3.24-1.94,5.1-3.05,7.59-.67,1.49-1.45,2.94-2.18,4.41-.54,1.13-.99,2.31-1.93,3.2-2.09.02-4.17.05-6.26.07-.04-.29-.07-.58-.09-.87Z"/>
        <path class="cls-22" d="M348.34,278.15c-2.39-1.94-5.56.33-7.97-1.49,4.13-5.21,8.27-10.41,12.4-15.62,2.17.98,4.34,1.96,6.51,2.94.58.71,1.16,1.56,1,2.43-.94,5.36.61,11.05-2.14,16.17-3.27-1.48-6.53-2.95-9.8-4.43Z"/>
        <path class="cls-120" d="M196.66,328.63c-.69-3.59-1.38-7.19-2.07-10.78-.71-2.26.84-2.63,2.41-2.66,9.58-.12,19.16-.11,28.74-.02,1.98.02,2.95,1.17,3.33,2.99.22,1.04.19,2.08.19,3.13.01,18.86.01,37.72,0,56.58,0,1.94.14,3.93-1.42,5.47-9.26.03-18.52.06-27.77.09-2.07-2.52-1.85-5.71-1.98-8.58-.58-12.55-1.38-25.08-2.1-37.63-.08-1.34-.01-2.7.18-4.03.28-1.51,1.21-2.95.48-4.57Z"/>
        <path class="cls-30" d="M197.3,332.24c.93,17.06,1.85,34.13,2.78,51.19.05,2.69.11,5.38.16,8.07-.06.3-.12.59-.18.89-11.45,4.98-22.89,9.97-34.34,14.94-1.08.47-2.21.84-3.32,1.25-2.6-4.08-3.71-9-7.13-12.62-1.34-1.04-2.47-2.26-3.17-3.83,1.72-6.56,4.89-12.52,7.64-18.66,5.85-8.12,12.76-15.36,19.25-22.94,4.75-5.55,9.39-11.2,14.37-16.55,1.05-1.13,1.87-2.9,3.94-1.73Z"/>
        <path class="cls-29" d="M227.85,383.35c.02-21.21,0-42.42.1-63.63.01-2.59-.61-3.77-3.48-3.73-8.81.13-17.63.02-26.44.01-1.46,0-3.13-.32-3.44,1.84-1.12-1-.7-2.32-.76-3.55,10.92-.03,21.84,0,32.75-.13,2.86-.03,4.05.98,4.04,3.9-.06,20.79-.04,41.58-.01,62.36,0,1.98-.45,3.25-2.76,2.91Z"/>
        <path class="cls-53" d="M152.51,279.42c.99,8.82,1.94,17.65,2.99,26.47,1.02,8.52,2.19,17.03,3.18,25.55.26,2.23.32,4.44,1.89,6.23-.05,1.38-1.13,1.71-2.13,1.86-9.57,1.4-19.01,3.59-28.64,4.61-2.1-.13-3.71-1.14-4.63-3-4.07-8.24-8.84-16.15-11.9-24.88.25-3.18-.71-6.21-1.24-9.3-.13-.46-.21-.92-.27-1.39.21-3.08-1.93-6.19.13-9.24.06-.63.12-1.25.18-1.88,9.68-2.83,18.83-7.08,28.24-10.63,3.88-1.46,7.65-3.23,11.46-4.85.16-.03.31-.06.47-.09.06.19.14.38.26.55Z"/>
        <path class="cls-106" d="M152.26,278.88c-.16,0-.32.04-.47.09-11.4-9.19-22.81-18.38-34.21-27.58-.68-.55-1.23-1.24-1.85-1.86,8.61-.63,17.22-1.26,25.83-1.9.6.04,1.2.09,1.79.13,2.86,2.08,6.47,2.88,9.11,5.33-.07,8.59-.14,17.19-.22,25.78Z"/>
        <path class="cls-73" d="M53.58,305.26c4.03-4.18,9.23-3.78,14.35-3.69,1.77-1.37,3.52-1.39,5.23.1-.48.91-.97,1.83-1.45,2.74,6.54,5.72,12.04,12.42,17.76,18.91.7.8.99,1.83,1.08,2.91-1.11,19.97-1.84,39.96-2.66,59.98,2.27-8.16,1.51-16.81,3.81-24.96,3.86-1.16,6.31.19,8.75,4.78,1.12,7.86-.41,15.64-.81,23.45-.05.89-.43,1.72-1.08,2.39-1.72,1.16-3.7,1.07-5.63,1.08-12.86.03-25.71.04-38.57,0-2.39,0-4.82.03-6.81-1.66-.92-7.17-3.22-14.26-1.31-21.6,1.7-1.21,3.67-1.04,5.59-1.04,8.48-.02,16.96.04,25.44-.05,1.81-.02,4.67,1.01,5.13-1.25.57-2.77,1.82-6.22-1.47-8.56-1.5-1.47-3.37-1.74-5.36-1.84-8.65-.44-17.29-1.24-25.97-.92-1.64.06-3.3,0-4.85-.69-3.3-2.99-2.74-6.78-2.19-10.57,8.16-.66,16.34-.76,24.48.16,3.14.35,6.24.25,9.36.31,1.08.02,2.44-.19,2.47-1.39.08-3.23,1.81-6.82-1.67-9.43-1.91-1.86-4.35-1.82-6.72-1.69-8.65.47-17.21-1.19-25.84-.99-1.19.03-2.38-.17-3.44-.79-2.62-4.87-2.43-10.25-2.85-15.52,5.14-3.27,9.49-7.74,15.22-10.14Z"/>
        <path class="cls-26" d="M89.52,324.99c-5.03-5.52-10.08-11-15.05-16.57-1.07-1.2-1.85-2.67-2.76-4.01,11.63-.92,23.26-1.85,34.88-2.77,2.11,1.46,3.75,3.57,6.26,4.47,0,.27,0,.54-.03.81-.75,1-1.7.96-2.61.56,1.93,2.46,3.58,5.14,3.6,8.52,3.9,7.84,7.8,15.68,11.72,23.51.78,1.56,1.27,3.46,3.55,3.55.1.88-.46,1.29-1.14,1.61-.45.18-.92.28-1.41.33-6.15.3-12.17,1.82-18.34,2.03-2.97-2.15-3.99-6.02-7.11-8.04-1.97-2.61-4.37-4.83-6.63-7.18-1.57-2.32-3.61-4.31-4.92-6.82Z"/>
        <path class="cls-15" d="M73.16,301.67c-1.74-.03-3.49-.07-5.23-.1-1.05-1.15-2.47-.95-3.71-.77-4.32.61-6.23-1.3-6.16-5.51,6.27.02,12.55.04,18.82.06-1.24,2.11-2.48,4.21-3.73,6.32Z"/>
        <path class="cls-40" d="M325.47,169.42c-3.91-8.42-7.28-15.67-10.65-22.92-.78-1.68-.56-2.52,1.52-3.17,5.54-1.72,11.22-2.74,16.86-4,2.18-.49,2.88.17,2.15,2.25-3.07,8.8-5.51,17.83-9.89,27.83Z"/>
        <path class="cls-111" d="M340.21,171.47c7.68.59,8.59,7.58,11.77,12.43-20.49-5.4-40.81-11.4-61.45-16.23-.53-.12-.98-.57-1.47-.87,4.55-.37,8.97.85,13.48,1.03,8.12.85,16.24,1.7,24.36,2.55,4.64-2.03,9.02-.98,13.32,1.09Z"/>
        <path class="cls-114" d="M340.21,171.47c-4.44-.36-8.88-.73-13.32-1.09,2.75-4.18,7.22-6.49,10.7-9.88,1.56,2.33,3.02,4.72,4.69,6.96,2.13,2.88,1.49,4.15-2.07,4.01Z"/>
        <path class="cls-111" d="M357.43,185.66c2.08-3.88,4.16-7.76,6.23-11.64,6.99-.1,13.87,1.15,20.8,1.82-2.26,4.92-4.24,9.94-5.59,15.19-.88-.02-1.75-.04-2.63-.06-4.83-1.19-9.83-1.57-14.6-3.06-1.54-.48-3.14-.89-4.22-2.25Z"/>
        <path class="cls-81" d="M357.43,185.66c6.27,1.77,12.54,3.54,18.82,5.31-6.58-.59-13.16-1.17-19.74-1.76-.2-1.32.28-2.45.92-3.55Z"/>
        <path class="cls-134" d="M68.56,427c-1.71,2.83-4.99,4.43-7.23,4.27-3.54-.25-4-4.79-4.17-7.34-.2-3.1,4.03-4.16,6.3-4.19,4.08-.05,2.87,4.78,5.1,7.26Z"/>
        <path class="cls-9" d="M251.6,424.07c-1.45,2.48-.34,6.78-4.07,6.7-2.53-.05-6.88-.58-7.22-3.75-.23-2.16-.05-6.88,3.56-7.01,2.49-.09,6.27.54,7.73,4.06Z"/>
        <path class="cls-43" d="M333.82,373.12c6.52-.87,13.1-.62,19.63-.47,3.94.09,5.34-1.33,5.38-4.96.03-2.53.26-5.05.4-7.58,4.32-3.24,8.9-5.8,14.56-5.52.56.93.53,1.83-.12,2.7.84,10.37,1.7,20.74,2.5,31.12.15,1.93.05,3.87.06,5.81-1.98,1.13-4.43-1.25-6.28.85-10.08,1.62-20.18,3.14-30.23,4.96-1.81.33-2.79.06-3.72-1.28-.72-8.54-1.45-17.09-2.17-25.63Z"/>
        <path class="cls-63" d="M522.87,266.44c-.05,2.37-.4,4.78-.11,7.1,1,7.93-.91,14.9-6.26,20.88-.7-.03-1.41-.07-2.12-.1-5.99-2.95-10.32-8.06-15.54-12.02-1.43-1.08-2.77-2.27-4.26-3.28-.7-.51-1.4-1-1.78-1.82-.05-.3-.13-.65,0-.88,4.4-7.2,8.81-14.39,14.81-20.43,4.18,1.44,8.35,2.88,12.53,4.32.92.56,1.84,1.12,2.76,1.69.9,1.52,1.24,3.04-.04,4.54Z"/>
        <path class="cls-5" d="M522.87,266.44c.01-1.51.03-3.02.04-4.53,7.35,4.52,13.49,10.61,20.44,15.66,2.7,2.3,5.39,4.61,8.09,6.91-8.32.26-16.61-.28-24.91-.63-2.44-.1-2.89-1.13-2.98-3.27-.21-4.71.65-9.48-.67-14.14Z"/>
        <path class="cls-148" d="M453.53,253.05l2.76-.85c.54.63.62,1.4.24,2.06-3.35,5.86-5.96,12.17-10.45,17.35-3.88.36-7.64-.11-11.25-1.6-2.42-2.82-5.5-5.33-4.76-9.7,6.18,1.14,11.15-2.28,16.46-4.38,2.34-.93,4.66-1.91,6.99-2.86Z"/>
        <path class="cls-104" d="M430.08,260.3c.76,3.37,3.47,5.74,4.57,8.94-4.46,1.88-8.63.15-12.84-1.01-1.19-.78-1-1.8-.16-2.56,2.15-1.95,3.95-4.39,6.9-5.3.35-.06.69-.11,1.04-.17.17.01.33.05.49.11Z"/>
        <path class="cls-37" d="M383.55,258.43c5.35-.84,10.69-1.68,16.04-2.52,3.38,3.64,5.69,8,8.3,12.17-2.29,2.44-5.66,1.23-8.3,2.49-4.89,2.15-8.86,5.76-13.43,8.4-1.61.93-3.34,3.01-5.28.34-.02-7-.81-14.08,2.4-20.69,0,0,.27-.19.27-.19Z"/>
        <path class="cls-148" d="M407.59,267.67c-4.1-2.94-5.99-7.4-8-11.76,2.71.33,5.43.65,8.14.98,5.51.84,11.01,1.74,16.53,2.47,1.48.19,2.94.28,4.28,1.01-2.43,2.35-4.86,4.71-7.28,7.06-2,2-4.3.25-6.44.5-2.41-.22-4.88,1.41-7.23-.26Z"/>
        <path class="cls-148" d="M383.28,258.61c-.54,7.19-1.08,14.38-1.63,21.57.21,1.44-.62,1.97-1.87,2.13-4.88-3.3-7.64-8.43-11.17-12.9-.13-.43-.1-.85.07-1.26,2.57-1.73,5.14-3.45,7.71-5.18,2.29-1.45,4.59-2.91,6.88-4.36Z"/>
        <path class="cls-5" d="M507.63,255.9c-4.84,7.15-9.67,14.3-14.51,21.45-5.78,1-10.89-1.86-16.33-2.83-.72-.35-1.22-.89-1.51-1.63-.66-4.16.99-7.99,1.72-11.96,1.92-4.84,3.6-5.45,11.64-4.26,4.25-.45,8.77,1.29,12.73-1.57.25-.09.5-.13.76-.12,1.6,1.73,3.7.41,5.5.91Z"/>
        <path class="cls-113" d="M53.58,305.26c-3.6,2.84-7.23,5.62-10.76,8.54-1.16.96-2.14,1.58-3.45.42-1.28-.82-1.51-2.21-1.72-3.51-2.32-14.17-4.67-28.34-6.49-42.58,1.07-.47,2.1-1.05,3.21-1.38,5.01-1.51,7.83-4.43,6.66-10.02,1.68-1.09,3.56-.92,5.43-.82.7,9.35,2.65,18.51,3.97,27.77,1.03,7.2,2.11,14.4,3.17,21.6Z"/>
        <path class="cls-33" d="M359.19,225.15c-1.58.76-1.91,2.14-1.84,3.72-.3,2.36-1.81,2.89-3.75,2.17-1.84-.68-2.96-1.91-1.57-3.99,1.33-1.24,2.13-2.59.9-4.36,3.3-1.36,2.02-5.4,4.31-7.35,1.28,0,2.26.44,2.69,1.75,1.9,2.88-1.81,5.26-.73,8.06Z"/>
        <path class="cls-16" d="M359.92,217.08c-.9-.58-1.79-1.16-2.69-1.75q1.66-5.17,6.98-2.43c-.79,2.06-3.47,2.2-4.29,4.18Z"/>
        <path class="cls-53" d="M477.87,261.21c-.67,3.9-1.34,7.8-2,11.7-.76,2.01-2.65,2.32-4.34,2.53-4.22.52-8.45,1.17-12.73,1.04-3.09-.93-5.73-2.94-8.9-3.69-1.23-.53-2.71-.55-3.58-1.79,3.32-6.27,6.65-12.53,9.97-18.8,6.24-1.55,12.57-.99,18.88-.88,2.22,2.94,3.03,6.26,2.69,9.89Z"/>
        <path class="cls-99" d="M477.87,261.21c-.64-3.37-2.62-6.37-2.69-9.89.28,0,.55-.02.82-.06,4.21,1.8,8.43,3.61,12.64,5.41-2.46.15-4.8,1.33-7.32.91-2.98-.5-2.18,2.53-3.45,3.63Z"/>
        <path class="cls-72" d="M352.03,227.04c1.01,3.87,2.26,4.29,5.32,1.82,4.13,3.15.2,6.06-.85,8.37-1.7,3.73-4.48,0-6.77-.35-1.34-.2-3.93-.57-2.46-2.95,1.46-2.35.03-6.82,4.76-6.89Z"/>
        <path class="cls-153" d="M368.69,268.15c.1.37.19.74.29,1.11,2.24,6.24,2.26,12.5.18,18.79-1.04.61-1.53-.04-1.95-.85-2.63-2.31-6.08-2.99-9.06-4.62.38-6.2.76-12.4,1.14-18.6,3.14,1.39,6.27,2.78,9.41,4.17Z"/>
        <path class="cls-95" d="M113.27,192.27c-1.38-1.69-4.64-1.59-4.26-4.48.07-.55,1.67-1.5,2.13-1.3,2.45,1.11,1.41,3.8,2.14,5.77Z"/>
        <path class="cls-141" d="M127.14,343.95c.33-.02.66-.03,1-.05,5.99,2.19,9.38,7.66,14.14,11.42,5.12,4.05,9.8,8.69,14.75,12.99,1.59,1.38,3.86,2.49,3.52,5.24-2.64,6.32-5.29,12.64-7.93,18.95.87,1.54-.13,2.51-1.07,3.5-1.19,2.44-2.38,4.87-3.57,7.31-3.75,1.37-7.65.65-11.48.72-8.46.14-16.93.07-25.4.09.26-2.71.51-5.43.77-8.14-1.19-1.58-.32-3.26-.25-4.9-.09-2.69.59-5.29.92-7.93.87-6.31,1.35-12.68,2.71-18.92,2.84-7.42,6.25-14.51,11.91-20.28Z"/>
        <path class="cls-97" d="M151.55,396.01c.35-1.17.71-2.34,1.07-3.5,2.13.2,2.15,2.02,2.65,3.47-1.24.01-2.48.02-3.72.03Z"/>
        <path class="cls-26" d="M373.66,357.3c-.08-.87-.16-1.75-.24-2.62-.99-1.18-1.44-2.61-1.55-4.07-.44-5.99-1.42-11.95-1.08-17.98,1.29-3.02,2.94-1.11,4.11-.06,2.7,2.4,4.3,1.79,5.63-1.37,1.39-3.3,3.46-6.26,5.21-9.38,2.16-2.55,4.39-5.01,7.81-5.91,14.31-1.21,28.52-3.32,42.88-3.96,2.07-.09,4.17-.2,6.21.39,10.2,1.3,20.1,4.05,30.14,6.11,14.56,2.99,29.09,6.17,43.63,9.28,1.59.34,3.23.54,4.51,1.71-1.23,1.56-3.1,1.73-4.83,2.08-42.72,8.55-85.53,16.62-128.26,25.11-2.04.41-4.11.81-6.23.71-1.17.14-2.32-.88-3.5-.04-1.48,0-2.96,0-4.44,0Z"/>
        <path class="cls-127" d="M380.82,356.52c17.95-3.46,35.9-6.91,53.85-10.38,28.75-5.56,57.5-11.13,86.25-16.7,1.51,1.3.92,3.07.92,4.64.05,13.48.04,26.95.05,40.43-14.7-1.67-29.4-3.27-44.08-5.01-21.07-2.49-42.14-5.08-63.2-7.63-10.39-1.26-20.77-2.51-31.16-3.77-.59-1-2.88.83-2.63-1.58Z"/>
        <path class="cls-124" d="M380.82,356.52c.88.53,1.75,1.05,2.63,1.58-1.88.43-3.59-.35-5.34-.8.69-1.02,1.72-.82,2.71-.78Z"/>
        <path class="cls-111" d="M407.59,267.67l7.21-.97c5.13,4.62,8.85,10.24,11.65,16.52,0,.43-.08.85-.22,1.26-1.18,2.1-2.92,3.57-5.1,4.55-8.03.47-15.98-1.11-24-1.01-1.34-6.36-.71-12.55,1.6-18.6,2.95-.58,5.9-1.17,8.85-1.75Z"/>
        <path class="cls-23" d="M476.94,273.85c5.56.38,10.8,2.27,16.18,3.5.71,0,1.39.08,1.8.78.96,1.55,1.42,3.27,1.23,5.05-.43,3.92.28,7.42,3.22,10.25-14.12-.83-28.24-1.65-42.36-2.48,5.43-4.64,10.8-9.34,15.95-14.29,1.18-1.14,2.3-2.36,3.97-2.81Z"/>
        <path class="cls-127" d="M442.65,312.33c-14.19,1.48-28.38,2.99-42.58,4.42-2.52.25-5.07.2-7.61.28-.18-.26-.35-.69-.18-.81,4.84-3.45,2.69-6.99.15-10.55-.12-1.67-.07-3.27,1.81-4.04,16.14,3.55,32.43,6.43,48.41,10.69Z"/>
        <path class="cls-157" d="M476.94,273.85c-4.73,6.18-11.44,10.31-16.61,16.03-.89.99-2.14.89-3.31,1.07-.86-.04-1.71-.07-2.57-.11-5.07-3.58-9.67-7.63-12.86-13.07.1-.47.37-.81.8-1.02,1.52-.58,3.15-.72,4.7-1.21,3.63-.12,7.25-1.41,10.88-.03,5.96-.89,12.15-.21,17.9-2.59.36.31.71.62,1.07.94Z"/>
        <path class="cls-122" d="M441.9,277.41c4.18,4.47,8.37,8.95,12.55,13.42-10.14.29-20.22-1.55-30.38-.96-.68.04-1.38-.43-2.07-.66,1.63-1.27,4.47-1.62,3.65-4.77.02-.27.1-.53.22-.77,4.81-3.46,9.81-6.43,16.03-6.26Z"/>
        <path class="cls-22" d="M368.18,288.25c1.86-4.29.38-8.78.74-13.16.16-1.93.05-3.89.06-5.83,4.37,3.57,6.94,8.72,10.93,12.62,2.47,1.03,3.83,2.97,4.53,5.46,0,.57-.01,1.13-.02,1.7-1.57,3.97-4.11,7.01-8.16,8.63-4.11-1.92-6.65-5.19-8.07-9.43Z"/>
        <path class="cls-109" d="M384.43,287.35c-1.97-1.44-3.09-3.59-4.53-5.46.58-.57,1.17-1.14,1.75-1.7,6.14-2.88,11.21-7.47,17.09-10.77-.54,6.2-1.07,12.4-1.6,18.6-4.23-.22-8.47-.45-12.71-.67Z"/>
        <path class="cls-150" d="M499.38,293.42c-4.27-.42-4.92-3.1-4.54-6.77.29-2.81.08-5.68.09-8.53,6.83,4.99,13.33,10.38,19.47,16.2-5.01-.3-10.01-.6-15.02-.9Z"/>
        <path class="cls-119" d="M376.28,297.19c2.71-2.71,5.42-5.43,8.14-8.14,4.26,3.43,8.54,6.85,9.83,12.6-.84,1.36-1.01,2.87-.97,4.42-3.25.27-4.44-2.6-6.2-4.36-2.21-2.21-3.66-2.84-5,.62-.39,1.01-.73,2.39-2.39,2.11-1.22-2.38-4.02-4.01-3.41-7.25Z"/>
        <path class="cls-66" d="M425.65,284.44q1.89,4.47-3.65,4.77c-.29-.04-.58-.1-.87-.18,1.51-1.53,3.01-3.06,4.52-4.59Z"/>
        <path class="cls-2" d="M563.45,111.17c.51,3.98-2.34,5.37-5.21,6.17-1.91.53-6.51-5.38-6.05-7.44.75-3.37-.04-7.68,5.7-7.75,3.05-.04,4.8.21,4.75,3.75-.03,1.76.52,3.52.81,5.28Z"/>
        <path class="cls-13" d="M419.27,111.77c1.37-4.13,2.64-7.91,4.09-12.28.79,1.95,1.39,3.3,1.9,4.68q2.63,7.02-5.99,7.61Z"/>
        <path class="cls-18" d="M112.53,391.49c-.22,1.5-.44,2.99-.66,4.49-22.64.01-45.29.03-67.93.02-1.29,0-2.72.42-3.77-.8,1.79-1.17,3.57-2.34,5.36-3.51.26-1,.77-1.58,1.9-1.14,2.6.8,5.27.74,7.95.74,14.29.02,28.58.06,42.88.1,4.77-1.84,9.54-2.18,14.29.09Z"/>
        <path class="cls-4" d="M35.58,330.54c1.8-.05,3.59-.11,5.39-.16,11.13.3,22.27.63,33.4.88,1.93.04,3.69.02,3.5,2.69,1.63,1.9,1.28,4.2,1.26,6.42-.04,3.07-1.62,4.69-4.69,4.79-2.84.1-5.66.07-8.49-.35-7.56-1.13-15.22.06-22.8-.83-2.04.27-4.09.55-5.78-1.08-1.54-3.99-2.32-8.08-1.79-12.37Z"/>
        <path class="cls-4" d="M44.36,354.52c11.05.33,22.09.67,33.14.99,1.91.06,4.14-.44,4,2.67,1.47,1.78,1.25,3.91,1.24,5.99-.02,3.27-1.25,4.68-4.93,4.53-8.8-.36-17.63-.1-26.44-.13-1.78,0-3.6.19-5.26-.73-.22-.2-.43-.4-.64-.6-7.56-1.44-5.57-7.66-6.28-12.53,1.66-1.65,3.41-1.15,5.17-.2Z"/>
        <path class="cls-27" d="M298.11,185.57c-.61-.31-1.22-.62-1.84-.92,1.24-1.19,2.46-.96,3.67.07-.61.28-1.22.57-1.83.85Z"/>
        <path class="cls-149" d="M297.07,230.72c5.95.91,11.9,1.82,17.86,2.72-1.64.97-3.32,1.88-4.91,2.93-3.48,2.3-6.42,1.47-9.07-1.41-1.3-1.41-2.58-2.83-3.88-4.25Z"/>
        <path class="cls-65" d="M371.8,331.46c.54,7.74,1.08,15.48,1.62,23.21-4.73,1.81-9.47,3.63-14.2,5.44-.61-12.6,1.22-25.14.9-37.73,0,0,0,.03,0,.03,5.15,1.39,8.73,4.81,11.67,9.04Z"/>
        <path class="cls-152" d="M160.54,373.55c-6.43-7.21-14.33-12.84-21.23-19.55-3.6-3.5-7.44-6.74-11.17-10.1.31-.28.62-.57.93-.85,10.5-1.79,21-3.59,31.51-5.38,11.13-2.09,22.25-4.22,33.4-6.22,1.79-.32,2.7-1.01,2.68-2.82,1.09,1.05.66,2.37.64,3.61-3.26.74-4.35,3.89-6.22,5.99-10.35,11.62-20.39,23.52-30.54,35.32Z"/>
        <path class="cls-18" d="M371.8,331.46c-3.89-3.01-7.78-6.03-11.67-9.04,2.1-11.22,4.2-22.43,6.33-33.65.1-.55.49-1.05.74-1.57.33.35.65.7.98,1.05,2.89,2.81,4.69,6.6,8.1,8.94.5,2.75,4.01,3.93,3.69,7.11.36.74.3,1.56-.14,2.14-3.17,4.13-1.13,6.94,2.08,9.82,1.8,1.62,4.23,2.98,4.43,5.89-2.17,4.23-4.35,8.44-6.49,12.68-.68,1.34-1.41,1.75-2.72.66-1.71-1.41-3.54-2.68-5.31-4.02Z"/>
        <path class="cls-64" d="M113.81,315.99c-1-1.99-1.87-4.05-3.03-5.94-1.65-2.69-.55-3.34,2.04-3.13.96,2.96,2.47,5.85.99,9.07Z"/>
        <path class="cls-32" d="M89.52,324.99c2.29,1.63,4.05,3.76,5.56,6.1,2.57,6.33,0,12.63-.22,18.93-.05,1.44-.49,2.91-.54,4.39-.05,1.14-.33,2.23-.87,3.24-.68.93-.76,2.1-1.16,3.14-.83,8.56-1.6,17.13-2.52,25.68-.14,1.29.03,3.4-2.29,3.07-2.24-.32-1.6-2.29-1.5-3.61,1.32-18.4,2.37-36.8,2.71-55.25.03-1.91.54-3.81.83-5.72Z"/>
        <path class="cls-131" d="M112.53,391.49c-4.76-.03-9.52-.06-14.28-.09.51-8.66,1.03-17.31,1.54-25.97,3.1-.66,5.78.32,8.26,2.1,1.07,2.26.89,4.7.7,7.05-.33,4.19.33,7.64,4.97,9-.39,2.64-.79,5.28-1.18,7.91Z"/>
        <path class="cls-102" d="M46.37,369.93c-.3-.89-.6-1.78-.91-2.68,11.28.11,22.57.14,33.84.39,1.73.04,2.08-.49,2.1-1.88.03-2.53.06-5.05.08-7.58,3.08-.08,2.62,2.15,2.6,4.04-.08,9.11.92,7.67-7.39,7.73-10.11.07-20.22,0-30.34-.02Z"/>
        <path class="cls-10" d="M42.93,344.8c-.1-.58-.2-1.16-.31-1.75,9.84-.5,19.65.42,29.47.77,5.71.21,5.72.04,5.73-5.85,0-1.34.03-2.69.04-4.03,1.49.02,2.39.4,2.67,2.22,1.42,9.01.25,10.88-8.74,10.25-8.64-.6-17.27-.65-25.91-.78-.99-.02-1.97-.55-2.96-.84Z"/>
        <path class="cls-119" d="M107.23,367.36c-2.83.69-4.95-1.37-7.46-1.93-2.16-2.09-4.63-3.67-7.48-4.63-.4-.81-1.4-1.57-.17-2.49,2.58-.54,4.78-2.47,7.61-2.13,3.74,2.05,7.19,4.56,10.83,6.78,1.4.85,3.26,1.78,2.13,4.1-1.75,1.55-3.58,1.46-5.46.29Z"/>
        <path class="cls-146" d="M113.02,366.3c-3.92-4.08-9.77-5.49-13.56-9.75.12-1.48,1.34-2.35,1.96-3.55,1.85-2.33,3.75-4.61,6.19-6.37,6.37-1.92,12.94-2.45,19.54-2.68-3.55,6.55-7.87,12.67-10.74,19.59-1.02,1.06-.61,3.87-3.39,2.75Z"/>
        <path class="cls-46" d="M93.13,355.58c.65-8.16,1.3-16.32,1.95-24.48,2.27,2.31,5.09,4.15,6.31,7.36,1.91,4.73,1.35,9.44-.11,14.14-.25.52-.6,1.46-1.07,1.26-2.84-1.18-4.88.56-7.09,1.72Z"/>
        <path class="cls-135" d="M100.21,353.7c1.07-5.03.82-10.16,1.18-15.25,3.5,1.64,5.41,4.49,6.21,8.18-.99,3.09-3.85,4.67-5.7,7.07-.56.57-1.13.59-1.69,0Z"/>
        <path class="cls-109" d="M441.9,277.41c-5.34,2.09-10.69,4.17-16.03,6.26-3.01-6.1-7.64-11.15-11.07-16.97,2.15.24,4.31.48,6.46.72,4.46.6,8.93,1.21,13.39,1.81,3.89.59,7.78,1.18,11.67,1.77,1.26.25,2.75-.3,3.72,1.03-.35,2.83-3.03,3.02-4.81,4.23-1.09.47-2.36.39-3.37,1.09l.04.06Z"/>
        <path class="cls-31" d="M444.55,275.57c1.83-1.18,3.66-2.36,5.49-3.55,3.14.01,5.54,1.73,7.93,3.47-3.81.55-7.6,1.23-11.47,1.08-1,.34-2.01.7-1.94-1.01Z"/>
        <path class="cls-120" d="M113.02,366.3c1.91.04,1.95-2.22,3.39-2.75-.9,6.68-1.8,13.35-2.69,20.03q-6.4-.36-6.37-6.92c0-3.1-.07-6.2-.1-9.29,1.96-.17,4,.08,5.78-1.06Z"/>
        <path class="cls-151" d="M386.33,322.14c-2.29-2.28-4.39-4.8-6.91-6.78-3.13-2.45-3.81-4.85-1.21-8.02.73-.89,1.18-2.02,1.76-3.04q3.6-7.49,9.66-1.44c1.15,1.14,2.43,2.15,3.65,3.21q4.29,5.46-.82,10.97c-2.04,1.7-4.08,3.4-6.13,5.1Z"/>
        <path class="cls-3" d="M444.55,275.57c.4.81,1.2.86,1.94,1.01-1.39,1.17-3.07.67-4.64.77.9-.59,1.8-1.18,2.7-1.78Z"/>
        <path class="cls-24" d="M100.21,353.7c.56,0,1.13,0,1.69,0-.44,1.28-1.46,2.05-2.45,2.85-2.44.61-4.42,3.1-7.32,1.77.33-.91.66-1.83,1-2.74,1.6-3.52,3.72-5.03,7.09-1.87Z"/>
      </g>
    </g>
  </g>
</svg>