<?xml version="1.0" encoding="UTF-8"?>
<svg xmlns="http://www.w3.org/2000/svg" version="1.1" viewBox="0 0 730 800">
  <defs>
    <style>
      .cls-1 {
        fill: #6f505f;
      }

      .cls-2 {
        fill: #e2c9b7;
      }

      .cls-3 {
        fill: #474747;
      }

      .cls-4 {
        fill: #856855;
      }

      .cls-5 {
        fill: #f9f8f8;
      }

      .cls-6 {
        fill: #e2dbe5;
      }

      .cls-7 {
        fill: #ab889b;
      }

      .cls-8 {
        fill: #bc987e;
      }

      .cls-9 {
        fill: #d9bca6;
      }

      .cls-10 {
        fill: #9c9fa0;
      }

      .cls-11 {
        fill: #555758;
      }

      .cls-12 {
        fill: #2d2c2c;
      }

      .cls-13 {
        fill: #8e657a;
      }

      .cls-14 {
        fill: #bc977e;
      }

      .cls-15 {
        fill: #705160;
      }

      .cls-16 {
        fill: #886a57;
      }

      .cls-17 {
        fill: #846754;
      }

      .cls-18 {
        fill: #464646;
      }

      .cls-19 {
        fill: #967d84;
      }

      .cls-20 {
        fill: #525455;
      }

      .cls-21 {
        fill: #876956;
      }

      .cls-22 {
        fill: #6e4f5e;
      }

      .cls-23 {
        fill: #4e3141;
      }

      .cls-24 {
        fill: #d1cbd4;
      }

      .cls-25 {
        fill: #c9a1b6;
      }

      .cls-26 {
        fill: #bb977e;
      }

      .cls-27 {
        fill: #4f5252;
      }

      .cls-28 {
        fill: #8d657a;
      }

      .cls-29 {
        fill: #e4dee8;
      }

      .cls-30 {
        fill: #6e7073;
      }

      .cls-31 {
        fill: #d0c0c4;
      }

      .cls-32 {
        fill: #494948;
      }

      .cls-33 {
        fill: #6e505e;
      }

      .cls-34 {
        fill: #ac899c;
      }

      .cls-35 {
        fill: #99776b;
      }

      .cls-36 {
        fill: #c8a1b6;
      }

      .cls-37 {
        fill: #2c2b2b;
      }

      .cls-38 {
        fill: #856754;
      }
    </style>
  </defs>
  <!-- Generator: Adobe Illustrator 28.7.1, SVG Export Plug-In . SVG Version: 1.2.0 Build 142)  -->
  <g>
    <g id="Layer_1">
      <g id="Layer_1-2" data-name="Layer_1">
        <g id="Layer_1-2">
          <g id="Layer_1-2-2" data-name="Layer_1-2">
            <g>
              <path class="cls-27" d="M328.7,3.8c3.5-2,6.9-4.3,11-5.2,1.8-.6,1.8.6,1.7,1.7-.4,2.5-1.9,4.5-3.2,6.6-28.1,44.9-56.7,89.5-85.2,134.3-9.1,14.3-17.9,28.9-27.4,43-.7.8-1.5,1.4-2.5,1.8-.6.2-1.3.3-2,.2-25.6-7.9-51.1-16-76.8-23.8-3.6-1.1-7.1-2.2-11.6-3.2,12.9,20.6,25.4,40.4,38.1,60.1,4,6.2,7.7,12.6,11.9,18.6,2.5,3.6,3.1,7.3,1.4,11.4-14.1,34.3-28.6,68.4-42.9,102.6-.6,1.5-1.8,2.6-2.4,4-1.4,1.9-3.2,1-4.8.5-21.6-6.6-43.2-13.1-64.9-19.7-1.3-.4-2.5-.9-2.9-2.4,5.5-19.3,12.6-38.2,18.6-57.3,1.4-4.4,3.6-8.7,2.7-13.5,2.9.5,4.3-.9,5.2-3.7,11-33.3,22-66.7,33.2-99.9,1.2-3.6.5-5.3-3.1-6.2-4.7-1.2-9.4-2.7-14-4.2-1.3-.4-4,0-2.7-2.9,12.7-11.4,27.9-19.2,42.2-28.3,49.1-31.5,98.2-62.7,147.6-93.8,9.4-5.9,18.7-12.1,28.7-17.2,1.5-.8,3.3-1.4,4.2-3.1h0s0,0,0,0Z"/>
              <path class="cls-9" d="M223.1,185.2c.4-.5.8-1,1.2-1.6,7.6-8.2,16.9-14.2,27.1-18.9,1.7-.2,3.4-.2,5.1.4,4.1,2.6,7.8,5.5,9.3,10.4,0,.9,0,1.7-.2,2.6-1.3,7.9.4,9.6,9.9,10.6,5.7,1.2,9,5.6,12.4,9.6,5.1,6.1,11,11.6,15.8,18,1.3,1.8,2.9,3.4,4.8,4.6.5.3,1,.8,1.4,1.2,7.6,9.3,10.6,9.1,16.4-1.6.3-.6.3-1.3.3-1.9.1-4.5-1.9-8.8-1.4-13.4,3.5-9.1,5.5-18.9,11.1-27.1.2-.1.4-.3.6-.3,11.8-1.2,15.3-6.1,6.3-16.9-.5-4.2,1.6-7.6,3.8-10.9,1.5-2.5,7.9-1.8,4.9-7.5-2.5-4.7-4.3-5.4-8.7-2.2-8,5.9-15.7,12.3-23.9,18-1.3.9-2.6,1.9-4.1,2.6-5.1,1.3-10.5.9-15.4,3.4-5.6-.5-11.4.6-17-1.2-5.5-1.9-11.9-1.2-16.7-5.4-1.5-3.5,1.3-4.9,3.4-6.4,26.5-17.9,52.8-36.1,79.6-53.5,2.5-1.6,5.3-4,8.2-.3,3.7,13.1,4.3,26.8,6.2,40.2,2.7,18.3,4.8,36.6,7.5,54.9.8,5.5.5,11,.9,16.5-.9,11.4,2.2,22.5,3.6,33.7,1.7,14.1,3.9,28.2,5.8,42.3.3,2.1.2,4.1-2.6,4.5-21.6,3.1-42.8,8.6-64.5,11-.9,2-2.6,3.1-4.6,3.4-16.2,2.9-32.4,5.8-48.6,8.1-.9.1-1.8,0-2.6-.2-4.7-1-6.1-4.9-7.2-8.8-1.9-6.6-3.5-13.4-5.1-20.1-7.1-29.2-15-58.3-22.2-87.5-.9-3.4-2.3-6.9-.5-10.4h0s0,0,0,0h0Z"/>
              <path class="cls-22" d="M211.2,656.1c-1-11.1-2.1-22.2-2.8-33.4-.2-3-.9-4.7-4.1-4.3,1.2-6.5.6-13.1-.2-19.6-.7-5.5-.9-10.9-.4-16.4.3-6.5,5.6-9.9,9.3-14.2,16.7-19.4,33-39,49.8-58.3,1.3-1.5,2.7-3,4.3-4.2,1.3-.9,2.6-1.5,4.2-1.6,12.8-.9,25.6-2.7,38.5-1.9,1.9.5,3.9.4,5.6,1.4,2.9,2.8,1.4,5.8.4,8.7-14.5,40.6-28.9,81.3-43.6,121.9-1.9,5.2-3.6,10.6-5.5,15.8-1.1,3.2-2.3,6.4-5.9,7.8-11.4,2-22.9.9-34.4.8-3.9,0-7.9,0-11.9-.6-1.3-.2-2.4-1-3.2-1.9h0s0,0,0,0Z"/>
              <path class="cls-24" d="M389.5,756.9c14.6,1.5,29.2,3,43.8,4.6,17.7,2,35.3,4.1,53,6.2,14.5,1.7,29.1,3.6,43.5,6.1-13.4,1.5-26.9,3.1-40.3,4.6-18.3,2.1-36.7,4.2-55,6.2-17.7,2-35.4,3.9-53,5.9-13.3,1.5-26.5,3-39.8,4.5-14.8,1.6-29.6,3.2-44.4,4.9-6.2.7-12.4,1.1-18.5,2.3-7.2,1.4-13.7-1.5-20.4-2.9-47.5-9.9-95-20.2-142.4-30.4-.6-.1-1.1-.6-3.5-2,31.8-3.4,61.8-6.6,91.8-9.8,3.3,6.6,5.1,13.7,7.9,20.5,2,4.8,4.9,6.8,10.1,6.7,13.6-.2,27.2-.1,40.8,0,5,0,7.7-1.5,7.1-6.9-2.1-7.1-7.1-12.6-10.6-18.8-1.6-2.9-4.6-5.9-.9-9.3,13.5-3.2,27.3-3.7,41.1-5.2,2.9-.3,5.8-.3,8.6-.9,3.6.4,3.7,3.4,4.3,5.9,1.3,5.9,2,11.9,3,17.8.3,1.9.6,4.3,3.2,4.5,2.7.1,2.9-2.4,3.5-4.2.9-2.5,1.3-5.2,2.2-7.7,2.1-6,4.4-6.7,9.1-2.6,4.4,3.8,8.3,8.1,12.4,12.2,3,3,6.4,4.7,10.7,4.6,10,0,20.1,0,30.2,0,4.7,0,7.4-1.4,6.6-6.6.5-4.1-5.6-5.5-4.2-10h0Z"/>
              <path class="cls-28" d="M261.6,656.1c5-13.5,10.1-27,15-40.6,12.9-35.8,25.7-71.6,38.5-107.5.4-1,.3-2.2.4-3.3.5-.5,1.2-.6,1.9-.4,6.3,6.2,9.2,14.6,13.5,22,6.6,11.4,13.1,22.7,19.4,34.3,1.5,2.7,3.2,5.4,2.5,8.8,1.4,14-1.2,27.9-1,41.8,0,3.5.3,7.2-2.5,10-2.1,9.2-1,18.5-1.6,27.8-.2,2.8.3,5.8-1,8.5-1,.8-1.9,1.6-3.2,1.8-12.6,1.5-25.1-1.1-37.7-.5-2.4.1-4.9,0-7.3.5-11.8,1.6-23.3-.5-35-1.6-.8-.4-1.4-.9-1.8-1.6h0,0Z"/>
              <path class="cls-18" d="M138.8,355.8c.8-9.7,6.1-17.8,9.7-26.5,11.2-27.5,22.7-54.8,34.3-82.1,1.6-3.7-.1-5.8-1.8-8.5-16.9-26.5-33.8-53-50.7-79.5-.6-.9-1-1.8-2.2-3.9,8.7,2.6,16.4,4.7,23.9,7.1,22.5,7.1,45.1,14.3,67.6,21.4.8.2,1.5.9,2.2,1.4.3,5.5-4.7,6.6-7.8,9.3-6.4,3.2-13.5,4.4-20.2,6.7-7.1,2.5-7.3,2.6-4.5,9.9,2.6,6.6,5.6,13.1,7.8,19.9,1.7,5.2,4.5,7.9,10.1,6.9,1.1.4,2.2,1.1,2.4,2.2.9,5.4,4.7,8.1,9.2,10.1.3.9.2-.3.3.6,2.6,19.6,6.1,39,9.2,58.5-.7,1.9-1.4,3.8-4,3.4-12.1,4-22.6,11.2-33.9,16.7-17.4,8.5-34.4,17.5-51.6,26.3h0Z"/>
              <path class="cls-22" d="M361.4,341.1c39.8,1.4,79.5,2.7,119.3,4.1.8.4,1.7.4,2.6.4,7,.3,7.7,1.2,6,7.9-2.2,8.9-4.5,17.7-7,26.5-.8,2.6-1.5,5.2-4.3,6.4-40.5,11.1-81.3,21.1-122.1,31-2.2-1.8-2.4-4.3-2.2-6.7,1.7-19.1,1.7-38.3,4-57.3,0-4.4-1.8-9.5,3.7-12.3h0Z"/>
              <path class="cls-7" d="M267.5,507.3c-19.7,23-39.4,46-59.1,69.1-1.1,1.3-2.6,2.5-2.7,4.5-3.1,7.6-9.3,12.8-14.5,18.8-7.9,9.2-14.6,19.5-24.4,27-1.4.4-1.4-.6-1.4-1.5-.9-25.8-1.8-51.7-2.7-77.5-.1-3.1.9-5.5,2.8-7.9,8.2-10.6,16.2-21.3,24.2-32,1.3-1.8,3.1-3.3,2.5-5.9,7.1-10.2,13.8-20.8,23-29.3,2.6-.8,4.8.2,6.9,1.5,14,8.6,27.8,17.6,41.6,26.5,2.2,1.4,5.5,2.8,3.8,6.7h0Z"/>
              <path class="cls-7" d="M359.7,352.9c-1.1,18.6-2.2,37.3-3.3,55.9-.2,2.9-.3,5.8-.5,8.7-1,16.5-1.9,33.1-2.9,49.6,1,9.6-4.3,15.5-11.7,20.6-6.2,4.3-12.1,9.2-18,13.9-1.9,1.5-3.8,3.2-6.5,3.1h-.7s-.6,0-.7,0c-1.8-.1-3.5-.2-5.3-.3.6-3.6-.4-6.7-2.2-9.9-4.1-7.3-8.7-14.2-11.8-22-.9-2.5-1.5-5.1-.5-7.7,8.8-7,5.3-13.7-.5-20.4-1.1-5.5-.8-10.9-.7-16.4,8.7-7.1,5.6-14.4.4-21.8-.8-8.7-1.1-17.4.2-26,.2-.7.6-1.3,1.1-1.9,3.5-2.8,7.9-3,12-3.7,5-.9,8.4-3.5,11.3-7.5,3.8-5.4,6.1-12,12.3-15.6,9.4-.7,18.8-3,27.9,1.6h0s0,0,0,0Z"/>
              <path class="cls-22" d="M215.1,473.8c-6.5,8.5-12.9,17-19.4,25.6-1,1.3-1.9,2.5-3.6,2.7-13-7.9-25.8-15.9-38.9-23.5-3.9-2.3-4.9-4.6-4.1-9.1,5.6-33.4,11-66.9,16.4-100.3,7.5-4.9,15.6-8,24.7-8.4,3.9,1.2,4.5,4.7,5.3,7.9,7.1,31.4,13.8,62.9,20.7,94.3.8,3.7,1.9,7.5-1.1,10.9h0,0Z"/>
              <path class="cls-25" d="M316.9,504.7c7.3-7.1,15.6-12.8,23.7-19,6.4-4.9,12.3-9.8,12.5-18.7-1.1,8.5,2.8,15.6,6.3,22.8,11.3,23.7,22.7,47.4,34.2,71.1,3.9,8,.3,15.8-.4,23.5-1.2,13-3.3,26-5.1,39-.3,2.2-.7,4.4-2.4,6-6.8-7-10.3-16-15-24.3-5.6-9.7-11-19.4-16.5-29.1-1.5-2.6-2.5-5.2-2.4-8.2-11-19.9-22.1-39.7-33.1-59.6-.6-1.2-1.1-2.4-1.7-3.6h0s0,0,0,0Z"/>
              <path class="cls-18" d="M328.7,3.8c.2,3.1-2.6,3.5-4.4,4.6-39.9,25.4-79.9,50.6-119.8,76-31.6,20.1-63.2,40.3-94.8,60.4-1.1.7-2.4,1-3.7,1.4,9.1-16.8,18.3-33.6,27.4-50.4,1.3-2.4,3.5-3.3,5.7-4.3,11.4-5.4,22.9-10.9,34.3-16.3,1.3-3,4.2-3.9,6.7-5.1,12.1-5.5,24.1-11.3,36.3-16.8,2.5-1.1,5-1.7,7.8-1.3,14.9-6.9,30-13.2,44.4-21.1,14.8-5.7,29-12.6,43-19.9,5.7-2.4,11.3-4.8,17-7.2h0s0,0,0,0Z"/>
              <path class="cls-18" d="M371.8,209.3c-3.6-7.6-3.2-16-4.3-24.1-4.1-29.4-7.9-58.9-11.8-88.3-.8-3.1,1.6-4.3,3.5-5.7,7.2-5.1,14.5-10,22-14.6,1.9-1.2,4.4-3.8,6.6,0,1.6,2.2,3.2,4.4,4.7,6.6,5.1,8.1,10,16.4,15.2,24.3,2.1,3.1,2.3,5.6.9,9.2-12.4,30.8-24.6,61.7-36.8,92.6h0Z"/>
              <path class="cls-18" d="M87.5,263.3c1.8,1.2,3.7,1.9,2.6,5-7.2,21.1-14.2,42.2-21.2,63.4-.5,1.4-1.2,2.3-2.7,2.5-20-26.9-40-53.7-61.2-82.2,28.6,3.9,55.6,7.6,82.5,11.3h0,0Z"/>
              <path class="cls-17" d="M258.1,310.2c18.7-3.2,37.3-6.3,56-9.5.1,4.5-2.8,8.7-1.6,13.4-3.2,20.4-8.7,40.3-13.3,60.4-.4,1.6-1.2,2.8-2.3,4h.1c-.5.5-1.1.6-1.8.5-10.1-7.9-18.7-17.5-27.8-26.4-.9-2.7-3-4.6-4.9-6.6-.4-.5-.8-1-1.1-1.6-4.8-7.8-11-14.5-16-22.1-1.8-2.7-4.8-5.6-2.7-9,2.2-3.6,6.5-3.3,10.2-3.5,1.7,0,3.3,1.5,5.1.4h0,0Z"/>
              <path class="cls-10" d="M715.6,282c-11.9,9.8-25.2,17.5-37.9,26.2-29.2,19.9-58.6,39.4-87.9,59-.7.5-1.2,1.3-1.8,1.9-4.6,6.1-11.8,8.7-17.5,13.4-4.3,2.8-8.1,6.6-13.2,8-5.5,1-9.1,5.1-13.4,8.1-3.7-3-6-7.1-8.5-11,3-5.6,9.1-7.2,13.9-10.4,5.2-1.1,10.5-1.9,15.9-2.2,6.8-.5,9-4.5,6.2-11,3.2-6.6,9-9.5,15.7-11.2,17.3-10.2,33.3-22.4,50.1-33.4,24.1-15.8,47.2-33,71.6-48.2,5.7,2,7.6,5,6.8,10.9h0s0,0,0,0Z"/>
              <path class="cls-22" d="M268.7,351.6c7.3,7.1,14.7,14.2,22,21.4,1.7,1.7,3.2,3.6,4.9,5.5-2.1,2.6-5.2,2.3-8,2.4-12,.1-24,0-36,0-5.9,0-10.3-2-13.6-6.9-5.1-7.8-11-15.1-15.8-23.1-2.7-5.1-8.9-8.5-7.5-15.6,2.9-7.6,7.5-14.5,9.6-22.5.9-.9,1.7-1.8,2.6-2.8,2.6-1.3,4.2.7,5.7,2.1,10.7,10.6,21.7,20.8,30.8,32.8h0c1.5,2.4,3.9,4.2,5.4,6.6h0s0,0,0,0Z"/>
              <path class="cls-28" d="M478,386.4c3.3-12,6.6-23.9,10-35.8.8-2.9.2-4.3-2.9-4.3-1.5,0-3.1,0-4.4-1.1,15.3,0,30.5-2.3,45.6-4.1,8.7-1,8.7-1,8.2,7.6,3.2,3.5.4,7.5.9,11.2.2,6.2-1,12.3-1.7,18.4,0,4.4-.3,8.6-3.2,12.2.2,5.6-2,6.8-7.6,5.5-14.9-3.6-30-6.5-45-9.6h0Z"/>
              <path class="cls-14" d="M211.2,656.1c.8,0,1.6.1,2.4.2,13.8,2.2,26.3,8.2,39.5,12.4,2.1.7,4.2,1.6,5.4,3.6.5,1.3.6,2.6.2,3.9-4.1,15.6-7.4,31.4-12.9,46.5-6.1,6.3-22.7,10.4-29.4,7.2-1.7-24.6-3.5-49.3-5.2-73.9h0Z"/>
              <path class="cls-14" d="M343.9,657.6h2.7c0,17.9-1.5,35.8-2.7,53.7-2.3,3.3-6,3.1-9.4,3.9-6.2,1.3-12.4,2.8-18.7,3.7-.8,0-1.5-.3-2.1-.7-2.5-2.5-3.1-5.8-4-9-2.8-9.4-5.1-18.9-7.8-28.3-.8-2.8-1.8-5.5-.5-8.4,1.6-2.4,4.2-3.1,6.7-4.1,11.6-4.5,23.6-8.1,35.8-10.7h0,0Z"/>
              <path class="cls-9" d="M315.4,718.2c4.9-4.6,11.8-2.9,17.5-5.1,3.4-1.3,7.4-1.3,11.1-1.8,8,8.5,16,16.9,24,25.4-7.6,7-16.1,12.8-25.7,17-5-.7-8.7-3.9-11.8-7.2-6.8-7.5-11-16.7-15.5-25.7-.4-.8,0-1.7.4-2.5h0s0,0,0,0Z"/>
              <path class="cls-22" d="M296.9,378.5c-.2-7.9,3-15.2,4.5-22.8,2.4-12.4,5.9-24.6,8.8-36.9.4-1.8.7-3.5,2.4-4.6,3.4,7.1,6.7,14.2,10.1,21.3,5.1,4.7,9,10,8.1,17.4-4.2,6.6-8.4,13.1-12.5,19.7-2.1,3.3-5.6,3.2-8.9,3.8-4.1.8-8.3,1.4-12.5,2.1h0,0Z"/>
              <path class="cls-23" d="M351.7,567.9c10.8,19.1,21.6,38.2,32.4,57.3.7,1.3,1,2.9,1.5,4.3-12.1-2.7-24.3-5.4-36.5-8.2-.8-16.8,1.9-33.6,1.5-50.4,0-1,.6-2,1-3h0Z"/>
              <path class="cls-7" d="M214.7,335.3c1.6,5.2,5.7,9,8.4,13.6,1.5,3-.8,4.1-2.8,4.8-10.1,3.6-19.9,8.2-30.9,8.5-8.3,1.4-15.6,6.1-24,7-.9-5.6,1.2-11,1.7-16.5.3-3.7,2.5-5.6,6.4-6.5,13.8-3.3,27.8-6.3,41.2-10.9h0Z"/>
              <path class="cls-9" d="M216.4,730c9.7-1.4,19.6-2,28-8.1,4.2,7.3,8.9,14.3,10.1,23-3.6,5.4-9.9,6.6-14.9,9.8-6.2,3.9-13,6.8-19.4,10.4-2.4,1.3-5.1,3.4-7.8.3-2.2-7.9.4-15.6,1-23.4.4-3.1,2.8-5.8,1.7-9.2.4-1,.8-1.9,1.2-2.8h0,0Z"/>
              <path class="cls-1" d="M215.1,740.9c-.4,8.3-.8,16.6-1.2,25,2.3,6.8,7.5,7.5,13.7,7.3,11.6-.3,23.2,0,34.8,0,3.6,0,7.1.3,10.1,2.6.4,6.8-2.7,10.2-9.4,10.2-13.8,0-27.7-.4-41.5.2-6.8.3-10.2-2-11.9-8.4-1.2-4.5-3.2-8.8-5-13.1-1.1-2.6-1.5-5.1-.5-7.7,3.2-6.7,6.4-13.3,9.6-20,3.2.4,1.5,2.5,1.3,4h0,0Z"/>
              <path class="cls-13" d="M342.4,752.5c8.5-5.3,16.1-12,25.5-15.8,7.1,6.8,13.8,14.1,21.6,20.2,1.4,3.3,5.6,4.4,6.5,8.1-1.7,1.5-3.7,1.3-5.7,1.2-8.7-.3-17.3-.3-26-.1-8.2.2-14.4-3.9-20.1-9-1.3-1.2-2.6-2.5-1.8-4.6h0Z"/>
              <path class="cls-23" d="M166.7,626.7c4.1-7.7,10.7-13.3,16.1-20,7.2-8.9,14.4-17.9,22.8-25.8-.3,10.6.8,21.1,2.4,31.6.6,3.8-1.6,4.5-3.7,5.9-12.5,2.8-25.1,5.5-37.6,8.3h0Z"/>
              <path class="cls-8" d="M533.3,359.7c.4-3.6.9-7.3,1.3-11,14.3-1.4,28.7-2.7,43-4.3,9.2-1.1,9.1-1.3,9.5,8.3-5,3.7-10,7.4-15.1,11-2.7,2.6-5.8,1.4-8.8.9-10-1.8-19.7-4.8-29.9-4.9h0s0,0,0,0Z"/>
              <path class="cls-25" d="M330.7,352.8c-2.7-5.8-5.4-11.6-8.1-17.4,12.7,3.6,25.9,3.5,38.8,5.7-2.5,3.6-.9,7.9-1.7,11.8-9.7,0-19.3,0-29,0h0Z"/>
              <path class="cls-4" d="M557.2,390.5c2.9-4.6,8.1-6.2,12.1-9.4,8.7-2.2,14.2-.9,17.5,4.1-1.8,1.3-3.8,2.4-5.3,4-7.8,8.7-15.9,8.6-24.4,1.2h0,0Z"/>
              <path class="cls-26" d="M586.9,385.2c-5.4-3.3-11.8-2.5-17.5-4.1,5.9-4.4,11.8-9,18.5-12-.4,5.4,1.8,10.9-1,16.1h0,0Z"/>
              <path class="cls-20" d="M715.6,282c-1.3-4.2-4.2-7.5-6.8-10.9,1.5-2.5,2.9-4.9,4.6-7.8,4.9,4.6,7.9,10.2,11.6,15.3-2.9,2.3-6.2,2.8-9.4,3.4h0Z"/>
              <path class="cls-6" d="M530.6,390.5c.4-4,.8-8,1.2-12,5.7-3.8,11.5-3.8,17.2,0-3.7,4.1-8.8,6.3-13.4,9.2,0,1.9-1.1,2.7-2.9,2.9h-2.2,0s0,0,0,0Z"/>
              <path class="cls-11" d="M532.8,390.5c.2-1.7,1.4-2.4,2.9-2.9,5.3,1.7,6.6,6.4,8.2,10.9-1.4,1.7-2.5,4.2-4.7.6-1.9-3-4.2-5.8-6.3-8.6h0Z"/>
              <path class="cls-19" d="M215.1,740.9c-.4-1.3.1-3-1.3-4,.4-1.3.9-2.7,1.4-4,2.1,2.7,1.4,5.4,0,8h0Z"/>
              <path class="cls-30" d="M387.8,76.6c-.6-.2-1.5-.7-1.9-.5-10.2,6.7-21,12.7-30.2,20.8-12.3,6.2-23.2,14.8-34.7,22.3-17.3,11.3-34.4,23.1-51.5,34.6-1.3.9-2.8,1.5-3.3,3.1-3.8,5-9.4,7.1-14.9,9.5-9,5.8-18,11.5-27,17.3,8.8-14.2,17.4-28.5,26.4-42.6,29.3-46.4,58.8-92.7,88.1-139,.6-1,2.2-1.9.9-3.4,2.3-2.6,3.5,0,4.8,1.1,4.6,3.8,9.2,7.6,13.8,11.4,16.4,14.3,32.8,28.6,49.3,42.8,3.5,3,4.4,4.8-.4,7.5-5.4,3-10.4,6.8-15.5,10.4-1.7,1.2-4.2,1.9-4,4.8h0s0,0,0,0h0Z"/>
              <path class="cls-14" d="M263.3,345c-10.5-8.6-19.3-18.9-29.1-28.2-2.4-2.3-4.9-4.5-7.3-6.7-4.5-19.9-8.5-39.9-9.1-60.4,1.7-2.8,1.8-5.6.6-8.7-1-2.6-2.4-5.2-.7-8.1,3.9-2.3,4.8-5.2,3.2-9.6-2.4-6.9-4.8-13.9-6.9-21-.9-2.9-2.6-5.9-.3-8.9,2.7-2.7,5.4-5.4,8.1-8.1.4,0,.9,0,1.3,0,8,31.2,16.1,62.5,24.1,93.8,2.2,8.4,4.3,16.8,6.4,25.2.7,2.6,1.1,5.4,4.4,6-3.1,2-6.9,1.6-10.3,2.1-5.7.9-4.9,2.9-2.3,6.4,4.8,6.4,9.5,12.8,14.1,19.4,1.5,2.1,3.6,4,3.8,6.9h0,0Z"/>
              <path class="cls-2" d="M299.4,163.9c4.1-6.3,10.5-3.4,16-4.1,2.7,1.4,3.2,4.1,3.8,6.6,2.5,9.8,4.5,19.8,7.1,29.6.8,3.1,0,6.1,0,9.2.8,5.1,2.7,9.9,2.5,15.1-6.2,3.7-12.6,6.2-19.7,2.6-.5,0-1,0-1.5-.1-2.5-3.2-3.8-6.9-4.4-11-1.8-13.1-3.7-26.1-5.5-39.1-.4-3.1-1.1-6.3,1.5-8.8h0s0,0,0,0h0Z"/>
              <path class="cls-14" d="M299.4,163.9c2.1,19.8,5.2,39.4,8.3,59-7.5-5.6-12.5-13.6-19-20.2-4.2-4.3-7.3-10-13.5-12.2-.6-2,1-3.2,1.8-4.7,2.8-6.1-.2-10.6-6.9-10.2-1.9.1-3.7,1.6-5.6,0-2.7-3.1-5.3-6.1-8-9.2,4.9-6,12-3.8,18.3-4.7,2.8-.4,5.7,1.4,8.4-.5,3.8.5,7.5,2.1,11.4.4,2.4-1.1,3.5.9,4.8,2.3h0Z"/>
              <path class="cls-14" d="M326.4,205.2c-3.6-15.1-7.3-30.3-10.9-45.5.2-1.7,1.1-2.7,2.9-2.8,7-3.4,14.5-5.6,22.1-7.2,2.5-.5,5.2-1.7,7.5.8l-4,10.2c-.6,1.4-1.9,1.7-3,2.2-6.3,3.1-7.1,5.4-4.3,11.9.5,1.2,1.5,2.2.6,3.6-3.8,8.8-6,18.2-10.7,26.7h0Z"/>
              <path class="cls-34" d="M338.7,258.6c-6.3,6.8-14.8,10.4-22.1,15.8-1.3,1-3,1-4.5.2-7.8-3.9-15.5-7.7-23.2-11.6-1.1-.6-1.3-1.7-1.2-2.9,1-.5,2.1-.5,3.2-.5,5-.4,9.8.9,14.6,1.6,10.6,1.5,20.1-3.1,30.3-4,1.2.1,2.2.5,3,1.4h0Z"/>
              <path class="cls-3" d="M347.9,150.7c-10.1,1-19.3,6.1-29.5,6.4,9.1-7,18.2-14,27.2-21.1,2.4-1.9,3.8-1.8,5.1,1,.4.8.9,1.5,1.4,2.3,3.4,5.7,2.1,9.5-4,11.5h0Z"/>
              <path class="cls-15" d="M290.3,260.5c-.9-.1-1.8-.2-2.6-.4,8.5-4.8,17.7-8.2,26.7-12,1.3-.6,2.5-.6,3.9-.1,7.6,2.8,15.8,4.3,23,8.3-2.8,1.6-6.1,1.1-9,2.1-13.9,2.4-27.8,3.9-41.9,2.1h0s0,0,0,0Z"/>
              <path class="cls-37" d="M337.1,178.6c-3.8-3.2-6-7-4-12.1,2-4.9,6.1-5.8,10.7-5.7,5.5,2.3,8.2,6.5,6.4,12.2-2.1,6.4-7.4,6.8-13.1,5.6h0Z"/>
              <path class="cls-12" d="M264.6,175.6c6.6-3.7,11.7-3.3,14.7,1.3,3,4.5,1.7,9.1-4,13.5-4.3.9-8.2.6-11.1-3.3-3-4-1.8-7.8.4-11.6h0,0Z"/>
              <path class="cls-32" d="M283.2,161.2c-5.8,4.8-13.2,1.8-19.6,3.8-2.2.7-4.9,0-7.1,1.4-1.8,0-3.6,0-5.3,0,4.3-4.2,9.1-7.7,14.9-9.5,5.7,1.4,11.4,2.9,17.1,4.3Z"/>
              <path class="cls-21" d="M309.2,223c6.6-.9,13.2-1.7,19.7-2.6-1.7,2.3-3.3,4.7-5.2,6.8-6.7,7.3-11.2,6-14.6-4.1h0,0Z"/>
              <path class="cls-31" d="M332.9,257.5c2.6-1.5,5.5-1,8.3-1.2,1.4,3.2-2.6.5-2.5,2.3-1.1,0-2.1.1-3.2.2-.7-.8-2.2,0-2.6-1.3h0Z"/>
              <path class="cls-28" d="M189.4,362.2c9.9-3.5,19.9-7,29.9-10.3,1.7-.6,3.5-.6,3.8-2.9,5.5,7.8,11.1,15.5,16.4,23.5,2.9,4.4,6.4,6.4,12,6.3,14.7-.5,29.3-.2,44-.2.5,0,1,0,1.4.1,0,9.8,0,19.6-.1,29.4-5.2,6-6.3,12.2-1.3,18.9,2.7,6.1.8,12.6,1.4,18.8,1.3,4.8-5.7,5.1-5.1,9.2.5,3.6,6,4.9,5.2,9.5-.4,2.8.6,5.4,1.2,8-1.6,5.3-5.5,9.1-9,13.1-6.2,7-11.2,15.1-19,20.5-.9.5-1.8,1-2.7,1.5-.9-3.7-4.5-4.7-7.2-6.4-13.2-8.5-26.5-16.8-39.7-25.3-1.7-1.1-3.3-2.2-5.5-1.8-.5-13.2-4.9-25.8-7.5-38.6-4.5-22-9.4-44-14.4-65.9-.6-2.5,0-6.2-3.8-7.1h0s0,0,0,0h0Z"/>
              <path class="cls-25" d="M270.1,505.9c5.3-9.1,13.3-16,19.7-24.2,2.6-3.3,4.5-7.2,8.4-9.4,4.6,8.4,9.1,16.9,13.9,25.1,1.9,3.3,2.1,5.6-1.8,7-13.4.5-26.8,1-40.1,1.4h0,0Z"/>
              <path class="cls-38" d="M257.7,672.2c-14.9-4.7-29.8-9.6-44.1-15.9,16,0,32-.1,48-.2l.5.3c1.6,6.2.4,11.5-4.5,15.8h0Z"/>
              <path class="cls-29" d="M257.7,672.2c1.5-5.3,3-10.5,4.5-15.8,12,.4,24,.8,36,1.2,4,4.2,5.6,9,4.2,14.6,4.1,15.3,8.2,30.5,12.2,45.8,1.1,9-1.6,17.1-5.4,25-.5,2-1.6,3-3.8,3-16.1,0-31.8,3.7-47.9,4.3-3-.7-4.2-2.5-3.7-5.5-2.7-7.8-9-14.2-9.4-22.9,4.4-16.6,8.9-33.1,13.3-49.7h0,0Z"/>
              <path class="cls-22" d="M309.2,743.1c.2-8.7,3-16.8,5.4-25,.3,0,.5.1.9.1,4.6,8.1,9,16.4,14,24.2,3,4.6,8.1,7.5,13,10.1,7.8,8,16.6,12.4,28.4,11.3,8.3-.8,16.9-1.5,25.2,1.1,0,2,0,4,.2,6,.3,3.2-1.2,4.3-4.3,4.2-13.2,0-26.4-.1-39.5,0-3.4,0-5.2-2.1-7.3-4.1-5.7-5.2-11.6-10.3-17.4-15.5-.9,3.4-1.9,7.9-3,12.3-.9,3.4-1,6.8-6.4,6.5-5.6-.3-4.2-4.4-4.8-7.1-1.7-8-2.9-16.2-4.3-24.3h0Z"/>
              <path class="cls-28" d="M253.8,744.9c1.2,1.8,2.5,3.7,3.7,5.5,5,8.4,10,16.9,15,25.3-16.5,0-32.9,0-49.4,0-6.6,0-9.7-3.3-9.3-9.8,13.3-7,26.6-14,39.9-21h0Z"/>
              <path class="cls-38" d="M302.3,672.3c-1.4-4.9-2.8-9.8-4.2-14.6,7.5-3,15.3-1.8,22.8-1,7.7.8,15.4.6,23.1,1-13.3,6.5-27.8,9.7-41.6,14.7h0,0Z"/>
              <path class="cls-9" d="M213.7,193.4c3.2,10.4,6.2,20.9,9.9,31.2,2.2,6.2.8,8.8-5.6,8.9-1.4-.3-2.1-1.5-2.9-2.5-1-1.3-2.3-2-4-1.4-1.9.6-2.8,1.9-2.8,3.9,0,1.9.5,4-1.2,5.5-5.5,3.4-8.6,2.3-10.7-4.4-3-9.5-7.1-18.6-11-27.8-1.5-3.5-.9-5.1,2.9-6.1,8.6-2.2,17.1-4.8,25.6-7.2h0,0Z"/>
              <path class="cls-33" d="M207,238.9c0-.6,0-1.4,0-2-1.2-4.3-3-8.1,3.8-10,6.9-1.9,5.4,3.7,7.1,6.5,1.1,3.3,2,6.7,3.4,9.9,1.5,3.8.7,5.9-3.5,6.3-5.4,2.4-8.1.5-8.9-5.3-.2-1.8-.2-4-1.9-5.5h0Z"/>
              <path class="cls-36" d="M295.5,426.8c-6.4-6.4-5.9-12.7,1.3-18.9,1,1.2,1.9,2.4,3,3.6,5.9,6.8,4.7,11.2-4.2,15.3h0Z"/>
              <path class="cls-25" d="M297,464.3c-2.4-3.7-8-5.7-8.2-9.8-.2-4,6.1-5.1,8.2-8.8,3.1,1.6,4.5,4.8,6.7,7.1,2.3,2.4,2,4.2-.4,5.9-2.3,1.6-3,5.1-6.2,5.6h0s0,0,0,0Z"/>
              <path class="cls-35" d="M268.7,351.6c-2.5-1.7-5-3.3-5.4-6.7,2.6,1.5,5,3.3,5.4,6.7Z"/>
              <path class="cls-9" d="M549,378.5h-17.2c.5-6.3,1-12.5,1.4-18.8,1.7-2.7,3.9-2.7,6.9-2,10.6,2.2,21.2,4.1,31.8,6.1.6,2.1,5.7,0,3.9,3.7-1.8,3.6-1.7,9.2-7.7,9.6-6.4.5-12.8.9-19.2,1.4h0s0,0,0,0Z"/>
              <path class="cls-5" d="M332.9,257.5c.9.4,1.8.9,2.6,1.3-13.9,4.8-27.9,6.1-42.4,2.9-1.1-.2-2.2,0-2.8-1.2,14.2-1,28.4-2,42.6-3h0Z"/>
              <path class="cls-16" d="M210.4,219c-6-3.8-10.9-6.9-16.2-10.2,16.3-6.6,13.7-6.1,16.2,10.2h0Z"/>
            </g>
          </g>
        </g>
      </g>
    </g>
  </g>
</svg>