<?xml version="1.0" encoding="UTF-8"?>
<svg xmlns="http://www.w3.org/2000/svg" version="1.1" viewBox="0 0 636.44 792">
  <defs>
    <style>
      .cls-1 {
        fill: #ab899c;
      }

      .cls-2 {
        fill: #e2c9b7;
      }

      .cls-3 {
        fill: #735f84;
      }

      .cls-4 {
        fill: #8e8e8e;
      }

      .cls-5 {
        fill: #8d6579;
      }

      .cls-6 {
        fill: #c3a690;
      }

      .cls-7 {
        fill: #544362;
      }

      .cls-8 {
        fill: #ab889b;
      }

      .cls-9 {
        fill: #bc987e;
      }

      .cls-10 {
        fill: #d9bca6;
      }

      .cls-11 {
        fill: #735f83;
      }

      .cls-12 {
        fill: #8a779b;
      }

      .cls-13 {
        fill: #8e657a;
      }

      .cls-14 {
        fill: #bc977e;
      }

      .cls-15 {
        fill: #886a57;
      }

      .cls-16 {
        fill: #464646;
      }

      .cls-17 {
        fill: #876956;
      }

      .cls-18 {
        fill: #6e4f5e;
      }

      .cls-19 {
        fill: #cdc7d0;
      }

      .cls-20 {
        fill: #ab899b;
      }

      .cls-21 {
        fill: #a78c7b;
      }

      .cls-22 {
        fill: #4e3141;
      }

      .cls-23 {
        fill: #a088b5;
      }

      .cls-24 {
        fill: #8d657a;
      }

      .cls-25 {
        fill: #2e2d2d;
      }

      .cls-26 {
        fill: #6e7073;
      }

      .cls-27 {
        fill: #2d2d2c;
      }

      .cls-28 {
        fill: #fcfcfc;
      }

      .cls-29 {
        fill: #474646;
      }

      .cls-30 {
        fill: #4f3242;
      }

      .cls-31 {
        fill: #856755;
      }

      .cls-32 {
        fill: #856754;
      }
    </style>
  </defs>
  <!-- Generator: Adobe Illustrator 28.7.1, SVG Export Plug-In . SVG Version: 1.2.0 Build 142)  -->
  <g>
    <g id="Layer_1">
      <g>
        <path class="cls-10" d="M310.43,118.08c1.59,16.6,5.46,32.82,8.33,49.2,4.64,26.55,9.67,53.04,14.47,79.56.36,1.99,1,4.25-1.21,5.8-3.1-.75-5.8.68-8.6,1.59-15.23,4.45-31.06,5.44-46.61,7.92-22.22,3.54-44.43,7.27-66.78,10.04-1.88.23-3.74.61-5.65.43-6.07-.54-7.02-5.37-8.03-9.91-4.11-18.56-7.97-37.18-11.75-55.81-7.73-38.1-15.59-76.16-27.31-113.29-.7-2.21-1.34-4.45-1.11-6.83,1.15-3.17,3.87-2.67,6.36-2.73,11.17-.28,22.25,1.2,33.37,1.82,19.3,1.07,38.57,2.44,57.87,3.37,2.99.46,5.25-1.32,7.57-2.7,7.26-4.31,14.62-8.44,21.85-12.78,2.94-1.76,5.99-3.49,9.22-.44,7.31,14.4,13.49,29.26,18.02,44.79Z"/>
        <path class="cls-12" d="M563.3,439.49c-2.09,2.05-1.52,4.7-1.52,7.18-.02,53.78-.02,107.56-.02,161.34-.21.55-.6.8-1.19.78-7.59,5.43-13.9,12.3-19.87,19.26-9.35,10.91-19.65,20.92-29.53,31.28-14.85,15.56-29.71,31.14-44.66,46.61-13.33,13.79-26.51,27.75-39.55,41.83-1.43,1.55-2.93,3.05-4.64,4.3-2.68,1.95-4.67,1.65-5.69-1.8-1.96-5.8,1.4-11.11,1.39-16.83-.2-75.88-.13-151.76-.14-227.63,1.07-4.29,3.84-2.26,5.86-1.3,3.82,1.82,7.17,4.46,10.61,6.92,39.06,27.89,78.36,55.43,117.51,83.2,1.69,1.2,3.25,2.72,5.83,3.08,1.35-2.24.75-4.79.75-7.18.04-46.52.02-93.05.05-139.57,0-3.56-.52-7.21,1.12-10.62.99-1.31,2.13-1.94,3.67-.85Z"/>
        <path class="cls-14" d="M157.15,87.79c5.56,13.49,8.84,27.67,12.52,41.71,11.22,42.83,18.54,86.52,28.24,129.68.92,4.11-.69,10.38,6.2,11.6-.35,2.94-2.82,2.78-4.77,3.06-4.99.72-9.97,1.6-14.83,1.96,22.31,9.31,44.76,18.72,67.14,28.32,2.09.89,6.58,1.52,3.29,5.91-3.07,1.63-6.42,2.2-9.79,2.2-21.9,0-43.67,2.85-65.58,2.91-9.21.02-18.43,1.36-27.69.99-2.5.5-4.6-.02-6.02-2.32-1.69-15.31-6.62-29.94-9.51-45-.87-4.52-2.14-8.96-3.22-13.44,1.47-13.31,3.68-26.52,5.24-39.81,4.5-5.24,5.4-11.2,3.48-17.72,1.17-3.7,4.34-5.63,7.13-7.81,4.16-3.26,4.7-6.77,2.42-11.6-7.73-16.41-15.19-32.94-22.87-49.38-.8-1.72-1.69-3.41-1.93-5.33-.23-2.74,1.25-4.82,2.82-6.79,6.92-8.68,14.14-17.11,21.11-25.75,1.31-1.62,2.8-3.14,4.87-3.86.64-.1,1.22.05,1.73.46Z"/>
        <path class="cls-23" d="M164.53,661.59c-5.02-23.92-10.05-47.84-15.05-71.76-.56-2.68-1-5.39-1.49-8.09-1.24-3.32-.67-6.63.02-9.94,3.37-16.28,5.74-32.76,9.9-48.88.14-.68.41-1.3.8-1.87.42-.54.98-.85,1.66-.94,6.96,2.88,11.8,8.63,17.43,13.26,25.54,21,50.7,42.45,76.31,63.36,1.15.93,2.33,1.83,2.72,3.38-.22,8.69-3.65,16.7-5.38,25.07-.72,3.48-1.5,6.95-2.38,10.4-1.28,6.09-2.73,12.14-4.29,18.16-.73,2.82-1.37,5.74-4.63,6.89-1.41.52-2.86.79-4.35.78-21.73-.13-43.4,2.18-65.14,1.42-2.13-.07-4.22-.16-6.12-1.25Z"/>
        <path class="cls-24" d="M145.88,313.8c1.46.42,2.91.85,4.37,1.27,2.95-.01,5.11,1.68,7.31,3.33,22.07,16.51,44.25,32.87,66.42,49.24,2.01,1.49,4.19,2.88,5.13,5.42.14.62.17,1.24.1,1.87-.52,2.27-2.29,3.42-4.05,4.62-31.35,21.38-62.63,42.86-93.32,65.2-2.48,1.81-5.09,4.01-8.62,2.24-2.43-2.27-3.36-5.32-4.29-8.34-8.47-27.64-17.64-55.05-26.4-82.6-1.11-3.49-1.69-6.94-1.51-10.55.08-2.83,2.67-3,4.38-3.95,16.8-9.3,33.65-18.51,50.48-27.75Z"/>
        <path class="cls-22" d="M306.67,489.87c-.45,6.74.8,13.38,1.18,20.07.18,3.14.13,6.29.19,9.43-2.32,2.89-5.69,3.56-9.03,4.04-15.28,2.23-30.45,5.08-45.67,7.59-2.74.45-5.48.76-7.94-1.04-2.08-2.32-2.68-5.19-3-8.16-5.02-45.64-9.75-91.31-14.31-137-.34-3.43-.19-6.72.92-9.97,2.34-2.7,5.35-1.99,8.2-1.45,18.78,3.58,37.39,7.99,56.2,11.39,6.3,1.14,7.74,5.65,8.9,10.73,1.1,15.01,2.77,29.99,2.85,45.06,1.58,14.22,2.58,28.49,2.95,42.8.06,2.29.57,4.68-1.44,6.51Z"/>
        <path class="cls-19" d="M418.85,503.97c-.09,1.68-.27,3.37-.27,5.05-.05,79.84-.08,159.69-.1,239.53,0,1.48.14,2.95.21,4.43,5.58-1.46,11.27-1.29,16.96-1.28,38.03.02,76.06.01,114.09,0,8.42,0,8.41-.03,8.41-8.35-.02-41.21-.03-82.41.04-123.62,0-3.9-.9-8.15,2.61-11.29.33-.12.65-.26.97-.42.08,36.79.16,73.57.24,110.36.01,6.77,0,13.53,0,20.3,0,12.92.01,12.59,13.46,13.11,12.76.49,25.49,1.79,39.37,2.82-13.77,2.93-26.66,2.19-39.4,3.28-25.15,2.16-50.35,3.85-75.57,4.99-14.73.66-29.4,2.36-44.12,2.68-24.65.53-49.16,3.23-73.79,4.24-19.53.8-39.15,1.61-58.57,3.75-21,2.32-41.61-1.49-62.41-1.93-19.3-.41-38.61-2.47-57.95-3.55-26.47-1.47-52.9-3.66-79.37-5.23-12.78-.76-25.67-.55-39.13-2.97,10.86-2.56,21.37-3,31.73-4.31,17.93-2.28,35.87-4.45,53.85-6.3,4.76-.49,2.53-4.71,4.51-6.5,2.95,2.33,2.45,5.54,2.22,8.68q1.03,10.57,11.93,10.58c15.2,0,30.4.05,45.6-.02,8.67-.04,8.74-.19,9.17-8.77-.05-2.81-1.63-5.15-2.37-7.74-.61-2.13-1.99-4.35.43-6.3,12.29-2.98,24.94-3.2,37.4-4.89,5.82-.79,11.66-1.56,17.49-2.27,3.54-.43,7.14-.91,10.41,1.2,2.45,2.51,1.91,5.63,1.86,8.71-.05,3.21-.82,6.69,2.34,9.1,2.44,1.04,5.01.73,7.52.74,24.05.03,48.1.04,72.15.01,9.44,0,9.44-.05,10.34-9.59.17-.77.54-1.44,1.08-2q15.08.19,15.08-14.69c0-80.05,0-160.1-.1-240.15,0-2.8,1.79-6.62-2.74-8.05,1.22-2.67,2.94-2.28,4.84-.78,2.5,9.19,3.11,18.35-.43,27.45Z"/>
        <path class="cls-11" d="M247.19,634.96c2.45-11.99,5.39-23.85,8.85-35.59-.42-2.81,1.39-4.75,2.71-6.86,13.78-21.91,28.67-43.09,42.48-64.99,1.12-1.77,2.22-3.6,3.92-4.91,1.53-1.19,3.02-1.58,4.09.61,9.33,35.45,18.66,70.91,27.98,106.36.8,3.04,1.56,6.1,2.34,9.14-20.27,8.85-40.23,18.33-59.84,28.57-1.86.97-3.55,2.3-5.72,2.57-1.36.04-2.58-.48-3.36-1.48-8.34-10.77-17.75-20.79-23.45-33.42Z"/>
        <path class="cls-4" d="M157.15,87.79c-.45.02-.9.04-1.36.06-20.5-1.56-40.93-3.73-61.35-6.08-4.84-.56-10.23,1.03-14.52-2.72.79-2.15,2.93-2.17,4.61-2.81,54.63-20.63,109.26-41.24,163.92-61.77,1.56-.59,3.33-2.31,5.19-.37,1.69,6.97,2.13,14.05,2.4,21.21.55,14.88.82,29.79,2.14,44.63.36,4.03.49,8-2.02,11.51-20-.24-39.92-2.06-59.86-3.3-12.39-.77-24.79-1.51-37.19-2.28-1.41-.09-1.76.83-1.98,1.92Z"/>
        <path class="cls-11" d="M418.43,476.27c-1.44-.07-2.87-.11-4,1.03-6.56,1.48-13.19,2.72-19.66,4.53-3.71,1.03-4.34-.23-4.29-3.5.13-8.64.21-17.28-.04-25.92-.11-3.76,1.36-4.87,4.86-5.72,25.15-6.07,50.23-12.42,75.33-18.67,1.18-1.49,2.52-2.88,4.45-3.21,8.27-1.42,15.96-6.09,24.77-4.46,21.84-5.35,43.68-10.72,65.52-16.05,6.33-1.55,12.73-2.84,19.02-4.56,3.11-.85,4.69-.81,4.62,3.08-.17,8.85-.13,17.7-.01,26.55.04,3.08-1.2,4.54-4.2,5.18-7.19,1.52-14.34,3.28-21.5,4.95-1.21-.13-2.12.37-2.8,1.35-2.02,2.46-4.94,3.09-7.8,3.8-41.9,10.45-83.78,20.95-125.67,31.4-2.82.7-5.69,1.81-8.6.23Z"/>
        <path class="cls-8" d="M91.02,345.5c6.75,20.51,13.51,41.03,20.24,61.54,4.39,13.36,8.76,26.74,13.13,40.11.25.55.31,1.12.2,1.72-2.25,4.76-5.66,8.79-8.33,13.29-10.81,16.68-22.34,32.88-32.78,49.8-.67,1.08-1.39,2.13-2.7,2.55-10.13-8.56-20.18-17.21-30.45-25.6-2.96-2.42-2.57-4.83-1.64-7.84,12.24-39.64,24.38-79.31,36.67-118.93,1.73-5.59,2.59-11.5,5.65-16.64Z"/>
        <path class="cls-12" d="M309.23,523.22c-3.92-1.83-4.13,2.14-5.22,3.79-14.84,22.38-29.48,44.9-44.2,67.37-1.14,1.74-2.51,3.33-3.78,5-9.28-4.02-15.75-11.78-23.39-17.92-19.84-15.95-39.27-32.4-58.79-48.74-4.5-3.77-8.69-7.92-13.03-11.9,1.81-2.06,4.2-1.67,6.48-1.42,23.67,2.59,47.4,4.52,71.04,7.38,2.71.33,5.49.63,7.59,2.72,14.29-2.28,28.58-4.54,42.87-6.85,6.42-1.04,12.82-2.18,19.22-3.28.78,1.17,1.45,2.37,1.2,3.86Z"/>
        <path class="cls-24" d="M300.33,395.17c-.6-5.49-3.58-7.67-9.14-8.68-18.94-3.45-37.76-7.63-56.63-11.46-1.61-.33-3.33-.14-5.01-.19-.44.54-.89.55-1.35.02-.03-.42-.06-.84-.09-1.25,3.55-12.19,10-23.16,14.75-34.85,3.48-8.57,7.57-16.92,11.49-25.32.81-1.74,1.61-3.45,3.35-4.48.31-.07.62-.15.92-.22,19.4,6.46,38.79,12.91,58.19,19.37,2.07,4.14.75,8.21-.42,12.19-4.09,13.95-8.27,27.88-12.54,41.77-1.33,4.34.26,9.45-3.51,13.1Z"/>
        <path class="cls-26" d="M79.93,79.04c13.26-.6,26.27,1.91,39.37,3.18,10.19.99,20.38,2.09,30.58,3.03,2.32.22,4.71-.05,5.91,2.59-8.56,10.42-17.1,20.86-25.68,31.27-1.08,1.31-2.28,2.52-2.32,4.36-.47,2.16-1.77,3.79-3.31,5.29-14.97,14.62-29.38,29.79-43.77,44.98-1.93,2.04-3.65,4.88-7.26,4.24.88-15.55,1.64-31.11,2.66-46.65,1.15-17.44,2.53-34.87,3.81-52.3Z"/>
        <path class="cls-24" d="M80.79,514.51c.98-2.31,1.62-4.85,2.99-6.91,10.39-15.58,20.91-31.07,31.4-46.58,3.78-.37,4.74,2.98,6.41,5.13,4.62,5.97,8.56,12.46,13.75,17.99,6.81,10.18,14.67,19.6,21.57,29.72,1.36,1.99,3.61,3.76,2.71,6.72-.02.42-.03.84-.03,1.26-6.72,12.21-16.71,21.88-25.45,32.51-1.18,1.43-2.79,2.61-4.95,2.07-16.14-13.97-32.27-27.94-48.41-41.91Z"/>
        <path class="cls-7" d="M273.59,669.5c8.87-7.43,19.86-11.01,29.89-16.29,9.51-5.01,19.38-9.34,29.06-14.04,2.33-1.13,4.54-2.43,7.02-.45,4.77,18.18,9.55,36.35,14.32,54.53,1.35,2.85.35,5.18-2.26,6.24-14.73,5.97-28.67,13.93-44.26,17.74-2.84-.25-4.34-2.31-5.83-4.37-8.87-12.26-17.61-24.62-26.12-37.13-1.25-1.84-3.14-3.6-1.82-6.23Z"/>
        <path class="cls-3" d="M164.53,661.59c1.93-.98,4-1.19,6.14-1.23,23.39-.43,46.78-.88,70.17-1.33,1.63,1.42,1.79,3.35,1.36,5.2-3.6,15.47-6.39,31.14-11.52,46.23-1.55,2.51-3.95,3.7-6.72,4.29-13.81,2.93-27.67,5.53-41.63,7.61-2.64.39-5.59,1.04-7.12-2.3-3.56-19.49-7.12-38.98-10.68-58.47Z"/>
        <path class="cls-16" d="M73.46,177.99c15.92-16.22,31.82-32.46,47.78-48.65,2.06-2.09,4.37-3.92,6.56-5.87,9.04,19.33,18.05,38.68,27.17,57.98,1.41,2.98.96,5.08-1.57,7.18-3.57,2.96-6.9,6.19-10.33,9.31-3.3,1.29-4.46-1.46-5.8-3.34-3.79-5.35-8.01-10.39-11.55-15.91-2.27-3.54-4.39-4.07-7.33-.69-3.76,4.3-8.3,7.83-12.34,11.85-2.07,2.06-4.15,3.66-7.24,2.3-8.29-5-17.7-8.01-25.35-14.17Z"/>
        <path class="cls-24" d="M306.53,716.35c13.94-5.76,27.88-11.49,41.8-17.28,2.65-1.1,5.79-1.88,5.54-5.81.98,1.58,1.67,3.46,2.98,4.69,15.06,14.14,30.21,28.18,45.33,42.25,0,.36.02.72.06,1.08-2.85,3.5-6.89,2.69-10.56,2.7-22.97.1-45.94.17-68.91-.02-6.64-.06-12.87-.41-13.46,8.62-.04.58-.72,1.01-1.14,1.48-2.84-3.97-.86-8.43-1.23-12.65-.22-2.51-.21-5.03-.31-7.55-3.25-5.82-3.34-11.65-.1-17.51Z"/>
        <path class="cls-32" d="M256.1,308.6c-14.64-6.32-29.27-12.67-43.92-18.96-10.77-4.62-21.57-9.17-32.22-14.9,8.05-1.32,16.11-2.65,24.16-3.97,29.53-4.47,59.06-8.95,88.59-13.39,10.6-1.59,21.21-3.09,31.82-4.64,1.41-.32,3.12-1.68,3.65,1.06-21.39,9.42-42.75,18.92-64.22,28.17-4.01,1.73-5.89,3.82-5.54,8.42.46,6.08.17,12.23.2,18.34,0,0,.04-.1.04-.1-.86.81-1.72.87-2.56-.03Z"/>
        <path class="cls-26" d="M256.18,91.45c-.9-21.55-1.83-43.1-2.68-64.66-.17-4.23-3.1-8.51.16-12.7,21,13.11,42,26.22,62.98,39.36.92.58,2.59.85,1.71,2.66-4.24,4.23-9.53,6.95-14.63,9.88-4.21,2.42-8.25,5.06-12.17,7.91-2.67-2.33-4.64-.03-6.68,1.12-9.59,5.43-19.13,10.94-28.69,16.42Z"/>
        <path class="cls-24" d="M499.84,420.35c-9.74,2.56-19.48,5.11-29.22,7.67-.08-25.76-.15-51.51-.23-77.27-1.04-10.05-.56-20.13-.31-30.19.16-6.34,8.48-13.44,14.14-13,5.21,37.6,10.41,75.19,15.62,112.79Z"/>
        <path class="cls-5" d="M175.21,720.05c6.13,1.97,11.91-.87,17.77-1.66,10.77-1.44,21.37-4.06,32.08-5.99,1.89-.34,2.96-1.36,4.09-2.58,5.51,9.52,11.05,19.03,12.04,30.35,1.5,3.87,2.99,7.75,4.49,11.62-1.72,1.86-4,2.3-6.35,2.32-19.39.15-38.79.19-58.18-.02-2.38-.02-4.58-.69-6.33-2.44-.06-2.97-.13-5.94-.19-8.92.19-7.56.39-15.13.58-22.69Z"/>
        <path class="cls-8" d="M300.33,395.17c.06-17.44,8.12-32.92,12.14-49.4,1.44-5.89,4.24-11.45,4.34-17.67,3.05,3.42,3.46,7.95,4.84,12.01,5.07,14.86,9.82,29.83,14.69,44.76-.01,1.14-.49,2.34-1.46,2.61-6.57,1.84-6.48,7.08-7.1,12.46-1.37,11.92-1.31,23.95-3.14,35.81-.29.59-.73,1.07-1.27,1.44-3.79-2.07-7.22-1.39-10.9.74-2.73,1.58-5.52,4.01-9.21,2.58-.98-15.12-1.95-30.23-2.93-45.35Z"/>
        <path class="cls-24" d="M303.26,440.52c4.66-2.31,9.41-4.46,13.96-6.97,4.09-2.26,5.18-.73,4.85,3.25,2.85,2.93,1.57,6.35.98,9.57-1.31,7.11-.41,12.86,6.22,17.59,5.76,4.11,10.29,9.89,15.33,14.97,2.55,2.57,4.57,2.66,6.39-.69,5.44-9.96,11.81-19.39,16.86-29.59,1.05-1.3,2.15-2.48,4.06-1.69-2.27,12.21-4.62,24.4-6.77,36.63-.53,2.98-2.26,3.68-4.84,3.8-17.88.8-35.76,1.65-53.64,2.48-1.14-16.45-2.27-32.9-3.41-49.35Z"/>
        <path class="cls-20" d="M484.23,307.57c-7.84,4.92-14.4,10.45-13.71,21.15.47,7.31-.04,14.69-.12,22.04-1.93-7.66-.9-15.48-.84-23.2.04-5.15-1.7-8.55-5.54-11.82-17.44-14.86-34.66-29.97-51.96-44.99.41-4.32,2.27-7.59,6.55-9.11,20.92,14.28,41.83,28.57,62.76,42.83,1.21.83,2.66,1.37,2.86,3.11Z"/>
        <path class="cls-10" d="M98.81,192.16c6.01-1.44,8.52-7.16,12.9-10.59,3.77-2.95,6.48-9.48,10.57-9.1,4.12.38,5.9,7.1,9.01,10.8,4.03,4.81,6.6,10.79,11.77,14.68.12,1.04-.13,2.36.41,3.07,5.02,6.59,1.3,10.39-4.19,13.69-2.33,6-7.51,8.81-12.81,11.5-7.81-10.11-15.59-20.26-23.47-30.31-1.13-1.45-2.78-2.5-4.18-3.73Z"/>
        <path class="cls-2" d="M367.46,391.01c3.41,9.79,9.88,17.87,15.04,26.68,6.54,11.15,6.81,11.05-2.37,20.09-2.37,2.33-4.29,5.2-7.4,6.73-2.78.88-4.28-1.21-5.83-2.76-7.25-7.23-14.7-14.26-21.63-21.82-.71-1.06-1.15-2.19-.94-3.49,5.67-9.06,13.28-16.51,20.3-24.46.71-.8,1.71-1.16,2.83-.97Z"/>
        <path class="cls-9" d="M367.46,391.01c-7.5,8.56-15,17.13-22.5,25.69-4.36-3.05-6.98-12.8-5.13-19.11,10.69-11.64,19.39-24.85,29.43-37,1.38-1.67,2.45-6.4,5.8-2.9,2.72,2.84,9.12,4.47,5.28,10.88-4.43,7.4-8.6,14.95-12.88,22.44Z"/>
        <path class="cls-10" d="M339.84,397.6c1.71,6.37,3.42,12.74,5.12,19.1.42.78.83,1.56,1.25,2.34-1.81,7.77-4.12,15.41-6.29,23.08-.58,2.03-1.36,3.99-3.19,5.29-5.66.21-10.36-3.52-13.37-10.61-.81-15.03,2.23-29.84,2.57-44.8.06-2.66,1.04-4.34,3.96-4.76,2.26-.33,4.61-.74,6.45-2.36,1.17,4.24,2.33,8.48,3.5,12.72Z"/>
        <path class="cls-14" d="M336.03,447.35c2.14-7.46,4.22-14.94,6.48-22.36.68-2.24.38-5.28,3.7-5.95,8.84,8.49,17.68,16.98,26.52,25.47-.27.82-.54,1.64-.81,2.45-1.33.3-2.3,1.06-2.93,2.27-2.91,4.9-6.55,9.2-10.75,13.03-1.95,1.78-4.4,3.3-6.77,1.42-5.23-4.14-10.87-7.88-14.91-13.37-.64-.86-.89-1.89-.53-2.97Z"/>
        <path class="cls-16" d="M291.55,73.91c.15-1.23-.14-2.78,1.11-3.45,8.64-4.64,16.27-11.1,25.7-14.34-2.34,18.15-4.67,36.29-7,54.44-.32,2.5-.61,5.01-.92,7.52-4.07-4.95-5.4-11.19-7.83-16.9-3.84-9.02-7.38-18.18-11.05-27.27Z"/>
        <path class="cls-13" d="M418.61,261.62c-2.18,3.04-4.37,6.08-6.55,9.11-10.93-3.48-21.86-6.96-32.8-10.44-1.06-1.01-1.21-2.4-.58-3.45,5.2-8.73,10.01-17.78,18.27-24.21,8.44,8.75,14.56,19.24,21.67,28.99Z"/>
        <path class="cls-10" d="M129.19,556.42c10.05-9.11,17.26-20.68,26.5-30.49,1.29-1.37,2.6-2.72,3.9-4.08-3.44,20.05-7.12,40.05-11.6,59.89-6.27-8.44-12.53-16.88-18.8-25.32Z"/>
        <path class="cls-1" d="M396.94,232.64c-4.93,7.18-9.86,14.36-14.81,21.52-1.3,1.89-2.79,3.68-2.88,6.14-5.16-4.3-7.3-10.62-10.71-16.09-1.13-1.81,0-3.2.86-4.64,7.51-12.53,7.53-12.59,21.68-9.01,1.97.5,4.29.33,5.85,2.08Z"/>
        <path class="cls-31" d="M126.46,226.2c3.28-4.93,8.68-7.51,12.81-11.5,3.2,4.28-.01,8.58-.28,12.77-.56,8.8-2.32,17.52-3.49,26.29-.22,1.65-.7,2.33-2.35,1.62-2.23-9.72-4.46-19.44-6.69-29.17Z"/>
        <path class="cls-21" d="M328.18,253.81c-.98-1.17-2.4-.79-3.65-1.06,2.47-1.5,4.96-2.03,7.48-.11-1.28.39-2.56.77-3.84,1.16Z"/>
        <path class="cls-2" d="M270.06,165.19c1,5.79,1.81,11.63,3.08,17.36.53,2.41.81,4.53-.59,6.64-5.22,4.26-10.94,6.34-17.66,4.04-.85-.87-1.69-1.74-2.54-2.6-4.44-7.72-4.46-16.5-5.93-24.93-1.19-6.83-2.44-13.66-3.22-20.56-.3-2.7-.96-5.47,1.37-7.71,3.76-3.96,14.75-5.47,19.03-2.6,1.2.58,2.07,1.58,2.34,2.8,2,9.09,5.52,17.96,4.13,27.56Z"/>
        <path class="cls-14" d="M270.06,165.19c-2.15-10.12-4.31-20.24-6.46-30.36-.24-6.47,4.19-11.57,5.14-17.69,2.39-4.93,6.91-7.6,11.24-10.41,2.35-1.52,5.15-1.45,6.79.87,3.82,5.39,8.48,7.84,15.03,5.67-2.52,6.86-8.31,11.95-10.29,19.1-.54.34-1.13.56-1.77.56-9.66-.03-10.8,1.53-8.17,11.05.17.61.13,1.24-.06,1.85-2.87,7.02-6.9,13.34-11.46,19.36Z"/>
        <path class="cls-32" d="M290.13,226.09c-9.34,2.57-18.72,5-28,7.77-4.62,1.38-8.98,1.51-13.59-.01-6.6-2.18-13.41-3.73-19.97-6.01-4.59-1.59-7.52-.93-9.08,3.98-.46,1.45-1.63,2.67-2.48,4.01-1.97-1.24-1.44-2.91-1.73-4.26q-3.63-16.77,12.26-24.78c.13.38.46.83.36,1.13-3.43,10.25-3.07,9.3,7.16,13.34,17.41,6.87,34.95,5.75,52.75,3.44,1.31-.42,2.63-.87,2.32,1.4Z"/>
        <path class="cls-16" d="M196.46,134.66c-2.1-2.46-8.8-.13-6.65-7.23,2.44-8.02,1.98-8.14,10.08-5.65,12.66,3.89,25.35,7.72,38,11.65,1.93.6,4.24.52,5.46,2.64-2.54,9.86-7.58,12.6-16.89,9.65-10.18-3.22-20.39-6.34-30.01-11.06Z"/>
        <path class="cls-14" d="M196.46,134.66c9.86,2.97,19.94,5.37,29.49,9.1,6.34,2.47,10.59,1.98,14.11-3.89.85-1.42,2.19-2.55,3.3-3.81.4.46.8.91,1.2,1.37,2.3,15.46,4.61,30.92,6.91,46.38.34,2.27.59,4.54.88,6.82-5.58-4.55-7.43-11.54-11.19-17.28-4.11-6.3-7.7-12.94-11.51-19.44-3.25-5.43-8.11-7.33-14.21-6.5-3.12-5.29-9.51-5.71-13.82-9.27-1.59-1.31-3.97-1.51-5.16-3.47Z"/>
        <path class="cls-29" d="M301.8,113.27c-.38.16-.88.21-1.13.49-4.35,4.82-7.62,4.19-11.67-.99-5.72-7.3-6.13-6.98-13.22-.76-2.19,1.92-4.17,4.13-7.04,5.12-1.05-1.31-2-2.71-3.16-3.91-2.36-2.47-1.77-4.07,1-5.82,6.19-3.93,12.22-8.13,18.28-12.25,1.39-.94,2.62-2.25,4.27-.36,4.4,5.06,8.87,10.07,13.28,15.13,1.12,1.29.06,2.31-.61,3.34Z"/>
        <path class="cls-27" d="M281.51,145.83c-3.35-3.56-5.64-7.47-2.17-12.09,3.44-4.58,7.79-3.74,12.17-1.36,2.19,3.36,3.45,6.9.77,10.49-2.74,3.66-6.59,4.12-10.77,2.96Z"/>
        <path class="cls-25" d="M215.44,147.4c7.96-4.52,12.34-2.52,14.21,6.5-3.21,6.62-6.72,8.52-11.49,6.21-4.8-2.32-5.69-6.45-2.73-12.71Z"/>
        <path class="cls-17" d="M254.88,193.23c5.89-1.35,11.77-2.69,17.66-4.04.07,5.41-4.25,8.66-6.41,12.96-.39.78-1.37,1.31-2.1.63-3.25-2.99-8.48-4.11-9.15-9.56Z"/>
        <path class="cls-6" d="M290.13,226.09c-.78-.46-1.55-.93-2.33-1.39,1.97-1.51,4.11-1.18,6.38-.67-.85,1.86-2.43,2.01-4.05,2.06Z"/>
        <path class="cls-7" d="M418.43,476.27c26.72-6.78,53.42-13.63,80.17-20.32,20.61-5.15,41.27-10.08,61.91-15.11,0,53.67,0,107.35,0,162.46-10.99-7.75-21.08-14.87-31.16-21.99-36.07-25.44-72.13-50.87-108.21-76.29-.67-.47-1.52-.71-2.28-1.05-.14-9.23-.28-18.46-.42-27.7Z"/>
        <path class="cls-11" d="M560.79,608.43c.04,47.35.06,94.71.21,142.06,0,2.69-.39,3.77-3.29,3.77-45.66-.08-91.31-.07-136.97-.15-.69,0-1.37-.74-2.06-1.14,14.68-13.32,27.45-28.46,41.03-42.84.72-.77,1.38-1.59,2.12-2.35,15.71-16.17,31.63-32.14,47.08-48.55,16.16-17.17,32.12-34.53,48.78-51.22,1.14-1.14,2.75-4.7,3.1.42Z"/>
        <path class="cls-28" d="M256.1,308.6c.85.01,1.71.02,2.56.03-8.91,19.82-17.81,39.65-26.77,59.45-.92,2.03-1.19,4.61-3.79,5.52-24.99-18.7-49.98-37.39-74.96-56.1-1.01-.75-1.93-1.62-2.9-2.44,8.82-2.42,17.94-1.56,26.9-2.04,26.32-1.42,52.67-2.23,78.95-4.44Z"/>
        <path class="cls-18" d="M159.61,520.58c-8.35-11.97-17.92-23.08-25.48-35.62-5.67-9.83-7.26-21.02-10.51-31.66-.5-1.62-.14-3.35.44-4.96.12-.39.23-.79.34-1.19,11.51-8.07,22.93-16.27,34.54-24.18,22.39-15.24,44.08-31.5,67-45.96.86-.54,1.51-1.42,2.26-2.14.45,0,.9-.01,1.35-.02,1.22,12.29,2.4,24.59,3.68,36.88,1.52,14.62,3.15,29.23,4.7,43.85,1.41,13.37,2.97,26.73,4.1,40.13.95,11.31,2.17,22.58,3.93,33.79-14.42-1.29-28.85-2.44-43.25-3.91-13.97-1.42-27.91-3.17-41.87-4.77-.4-.11-.81-.19-1.22-.23Z"/>
        <path class="cls-22" d="M308.18,754.05c-.21-15.47-1.43-12.35,11.96-12.47,27.37-.25,54.74-.22,82.11-.3,2.07,3.3.84,6.94.93,10.4.09,3.96-3.26,2.46-5.17,2.47-21.72.1-43.44.08-65.17.06-8.22,0-16.44-.1-24.67-.16Z"/>
        <path class="cls-30" d="M174.83,751.66c23.62.04,47.24.09,70.86.13q.59,12.05-11.53,12.05c-17.26,0-34.52-.31-51.76.16-6.38.17-9.02-1.49-7.85-7.95.26-1.44.19-2.93.28-4.4Z"/>
        <path class="cls-18" d="M336.03,447.35c4.29,5.81,10.69,9.38,15.56,14.57,2.19,2.34,3.65.62,5.19-.88,4.06-3.95,8.13-7.87,12.2-11.8-4.7,12.21-12.68,22.61-18.82,34.03-1.28,2.39-2.72,1.09-4.01-.12-8.09-7.64-15.67-15.79-24.04-23.18-4.2-3.71-1.06-9.61-.82-14.44.14-2.86.72-5.79.76-8.73.43,0,.86,0,1.29,0,4.45,3.24,7.63,8.01,12.67,10.55Z"/>
        <path class="cls-15" d="M129.51,201.57c-4.96-.81-7.96-3.27-11.45-4.49-5.97-2.08-4.73-4.44-.93-7.83,2.54-2.26,3.86-2.55,5.54.69,1.91,3.68,4.19,7.17,6.84,11.63Z"/>
      </g>
    </g>
  </g>
</svg>