<?xml version="1.0" encoding="UTF-8"?>
<svg xmlns="http://www.w3.org/2000/svg" version="1.1" viewBox="0 0 636.44 800">
  <defs>
    <style>
      .cls-1 {
        fill: #ab899c;
      }

      .cls-2 {
        fill: #e2c9b7;
      }

      .cls-3 {
        fill: #735f84;
      }

      .cls-4 {
        fill: #8e8e8e;
      }

      .cls-5 {
        fill: #8d6579;
      }

      .cls-6 {
        fill: #c3a690;
      }

      .cls-7 {
        fill: #544362;
      }

      .cls-8 {
        fill: #ab889b;
      }

      .cls-9 {
        fill: #bc987e;
      }

      .cls-10 {
        fill: #d9bca6;
      }

      .cls-11 {
        fill: #735f83;
      }

      .cls-12 {
        fill: #8a779b;
      }

      .cls-13 {
        fill: #8e657a;
      }

      .cls-14 {
        fill: #bc977e;
      }

      .cls-15 {
        fill: #886a57;
      }

      .cls-16 {
        fill: #464646;
      }

      .cls-17 {
        fill: #876956;
      }

      .cls-18 {
        fill: #6e4f5e;
      }

      .cls-19 {
        fill: #cdc7d0;
      }

      .cls-20 {
        fill: #ab899b;
      }

      .cls-21 {
        fill: #a78c7b;
      }

      .cls-22 {
        fill: #4e3141;
      }

      .cls-23 {
        fill: #a088b5;
      }

      .cls-24 {
        fill: #8d657a;
      }

      .cls-25 {
        fill: #2e2d2d;
      }

      .cls-26 {
        fill: #6e7073;
      }

      .cls-27 {
        fill: #2d2d2c;
      }

      .cls-28 {
        fill: #fcfcfc;
      }

      .cls-29 {
        fill: #474646;
      }

      .cls-30 {
        fill: #4f3242;
      }

      .cls-31 {
        fill: #856755;
      }

      .cls-32 {
        fill: #856754;
      }
    </style>
  </defs>
  <!-- Generator: Adobe Illustrator 28.7.1, SVG Export Plug-In . SVG Version: 1.2.0 Build 142)  -->
  <g>
    <g id="Layer_1">
      <g>
        <path class="cls-10" d="M296.43,113.87c1.65,17.23,5.67,34.06,8.64,51.07,4.82,27.56,10.04,55.05,15.02,82.59.37,2.07,1.04,4.41-1.26,6.02-3.22-.78-6.02.7-8.93,1.65-15.81,4.62-32.24,5.65-48.38,8.22-23.07,3.68-46.12,7.54-69.32,10.42-1.95.24-3.88.63-5.86.45-6.3-.56-7.29-5.57-8.33-10.29-4.27-19.27-8.28-38.59-12.2-57.93-8.02-39.55-16.19-79.05-28.35-117.6-.72-2.3-1.39-4.62-1.15-7.09,1.2-3.29,4.02-2.77,6.6-2.83,11.59-.29,23.09,1.25,34.63,1.89,20.03,1.11,40.04,2.53,60.06,3.49,3.11.48,5.45-1.37,7.85-2.8,7.53-4.47,15.17-8.76,22.68-13.27,3.05-1.83,6.22-3.62,9.57-.46,7.59,14.95,14,30.37,18.71,46.49Z"/>
        <path class="cls-12" d="M558.9,447.5c-2.17,2.13-1.58,4.88-1.58,7.45-.02,55.82-.02,111.65-.02,167.47-.22.57-.63.83-1.23.81-7.87,5.64-14.43,12.77-20.62,19.99-9.71,11.33-20.39,21.72-30.65,32.47-15.42,16.15-30.84,32.32-46.36,48.38-13.84,14.32-27.52,28.81-41.05,43.42-1.49,1.6-3.04,3.16-4.82,4.46-2.78,2.02-4.85,1.72-5.91-1.86-2.03-6.02,1.46-11.53,1.44-17.47-.21-78.76-.14-157.53-.14-236.28,1.11-4.46,3.99-2.35,6.09-1.35,3.96,1.89,7.44,4.63,11.02,7.18,40.54,28.95,81.34,57.54,121.98,86.36,1.75,1.24,3.38,2.83,6.05,3.2,1.4-2.33.78-4.98.78-7.46.04-48.29.02-96.58.05-144.87,0-3.7-.54-7.49,1.16-11.03,1.02-1.36,2.21-2.02,3.81-.88Z"/>
        <path class="cls-14" d="M137.32,82.43c5.77,14,9.18,28.73,13,43.29,11.65,44.46,19.24,89.8,29.32,134.6.96,4.27-.72,10.77,6.44,12.05-.36,3.05-2.93,2.88-4.95,3.18-5.18.75-10.35,1.67-15.39,2.04,23.15,9.67,46.46,19.43,69.69,29.39,2.17.93,6.83,1.58,3.41,6.14-3.18,1.7-6.66,2.28-10.16,2.28-22.73,0-45.33,2.96-68.07,3.02-9.56.03-19.13,1.41-28.74,1.03-2.59.52-4.78-.02-6.25-2.41-1.76-15.89-6.87-31.07-9.87-46.71-.9-4.69-2.22-9.3-3.35-13.95,1.53-13.81,3.82-27.53,5.44-41.32,4.67-5.44,5.6-11.62,3.61-18.39,1.22-3.84,4.5-5.84,7.4-8.11,4.32-3.38,4.87-7.02,2.51-12.04-8.02-17.03-15.77-34.19-23.74-51.25-.83-1.78-1.76-3.54-2-5.54-.24-2.85,1.3-5,2.93-7.04,7.18-9.01,14.68-17.76,21.91-26.73,1.36-1.68,2.9-3.26,5.05-4,.67-.1,1.27.06,1.8.47Z"/>
        <path class="cls-23" d="M144.98,678.03c-5.21-24.83-10.43-49.66-15.62-74.49-.58-2.78-1.03-5.6-1.55-8.4-1.29-3.44-.69-6.89.02-10.32,3.5-16.9,5.96-34.01,10.28-50.74.14-.71.42-1.35.83-1.94.44-.56,1.02-.88,1.72-.98,7.23,2.99,12.24,8.96,18.09,13.77,26.51,21.8,52.62,44.07,79.21,65.76,1.19.97,2.42,1.9,2.82,3.51-.23,9.02-3.79,17.33-5.58,26.02-.75,3.61-1.56,7.21-2.47,10.8-1.33,6.32-2.84,12.6-4.46,18.85-.76,2.93-1.43,5.96-4.81,7.15-1.46.54-2.97.82-4.51.81-22.55-.14-45.05,2.27-67.62,1.48-2.21-.08-4.38-.16-6.35-1.29Z"/>
        <path class="cls-24" d="M125.63,317.03c1.51.44,3.03.88,4.54,1.32,3.06-.02,5.31,1.75,7.59,3.46,22.91,17.14,45.93,34.12,68.94,51.11,2.09,1.54,4.35,2.99,5.32,5.62.14.64.18,1.29.1,1.94-.54,2.35-2.38,3.55-4.2,4.8-32.54,22.19-65.01,44.49-96.87,67.67-2.58,1.88-5.29,4.17-8.95,2.32-2.52-2.35-3.49-5.52-4.45-8.66-8.79-28.69-18.31-57.14-27.4-85.74-1.15-3.62-1.75-7.2-1.57-10.95.08-2.94,2.77-3.12,4.54-4.1,17.44-9.65,34.93-19.21,52.4-28.8Z"/>
        <path class="cls-22" d="M292.52,499.78c-.47,7,.83,13.88,1.22,20.83.18,3.26.14,6.52.2,9.79-2.41,3-5.91,3.69-9.38,4.2-15.86,2.31-31.6,5.27-47.41,7.88-2.85.47-5.69.79-8.24-1.07-2.16-2.41-2.78-5.39-3.12-8.47-5.21-47.38-10.12-94.78-14.85-142.21-.35-3.56-.2-6.97.96-10.35,2.43-2.81,5.56-2.07,8.52-1.51,19.49,3.71,38.81,8.29,58.34,11.83,6.54,1.18,8.04,5.86,9.24,11.13,1.14,15.58,2.87,31.13,2.96,46.77,1.65,14.77,2.68,29.57,3.06,44.42.06,2.38.59,4.85-1.49,6.76Z"/>
        <path class="cls-19" d="M408.97,514.42c-.1,1.75-.28,3.5-.28,5.24-.05,82.88-.08,165.75-.11,248.63,0,1.53.14,3.06.22,4.59,5.79-1.51,11.7-1.34,17.61-1.33,39.48.02,78.95.01,118.43,0,8.74,0,8.73-.03,8.73-8.67-.02-42.77-.03-85.54.04-128.32,0-4.04-.94-8.46,2.71-11.72.34-.13.68-.27,1.01-.44.08,38.18.17,76.37.24,114.55.01,7.02,0,14.05,0,21.07,0,13.42.01,13.07,13.98,13.6,13.25.51,26.46,1.86,40.87,2.93-14.3,3.04-27.68,2.27-40.9,3.41-26.1,2.24-52.27,4-78.44,5.18-15.29.69-30.52,2.45-45.8,2.78-25.59.55-51.03,3.35-76.59,4.4-20.27.83-40.64,1.67-60.79,3.89-21.8,2.41-43.19-1.54-64.78-2-20.03-.42-40.08-2.57-60.15-3.68-27.48-1.53-54.91-3.8-82.38-5.43-13.27-.79-26.65-.57-40.61-3.09,11.27-2.66,22.18-3.11,32.94-4.48,18.61-2.36,37.24-4.62,55.89-6.54,4.94-.51,2.62-4.89,4.69-6.74,3.06,2.42,2.54,5.75,2.3,9.01q1.07,10.97,12.38,10.98c15.78,0,31.55.06,47.33-.02,9-.05,9.08-.19,9.52-9.1-.05-2.92-1.69-5.35-2.46-8.04-.63-2.21-2.06-4.51.45-6.53,12.76-3.09,25.89-3.32,38.82-5.08,6.04-.82,12.1-1.61,18.16-2.35,3.68-.45,7.41-.94,10.8,1.24,2.54,2.61,1.98,5.85,1.93,9.05-.05,3.34-.85,6.94,2.43,9.45,2.53,1.08,5.2.76,7.8.76,24.96.03,49.93.04,74.89.01,9.8-.01,9.8-.05,10.73-9.95.18-.8.56-1.49,1.13-2.07q15.66.2,15.66-15.25c0-83.09,0-166.19-.1-249.28,0-2.91,1.86-6.88-2.85-8.35,1.27-2.77,3.05-2.37,5.03-.81,2.59,9.54,3.23,19.05-.44,28.49Z"/>
        <path class="cls-11" d="M230.78,650.4c2.54-12.44,5.6-24.76,9.19-36.94-.44-2.92,1.44-4.93,2.81-7.12,14.3-22.74,29.76-44.73,44.09-67.46,1.16-1.84,2.31-3.74,4.06-5.1,1.59-1.23,3.14-1.64,4.24.63,9.68,36.8,19.37,73.6,29.04,110.4.83,3.16,1.62,6.33,2.43,9.49-21.04,9.18-41.76,19.03-62.11,29.65-1.93,1.01-3.69,2.39-5.94,2.67-1.41.04-2.68-.5-3.49-1.54-8.66-11.18-18.43-21.58-24.34-34.69Z"/>
        <path class="cls-4" d="M137.32,82.43c-.47.02-.94.04-1.41.06-21.27-1.62-42.49-3.87-63.68-6.31-5.03-.58-10.62,1.07-15.07-2.83.82-2.24,3.04-2.26,4.79-2.92C118.66,49.02,175.37,27.63,232.11,6.31c1.62-.61,3.46-2.4,5.39-.38,1.75,7.24,2.22,14.58,2.49,22.01.57,15.45.86,30.92,2.22,46.33.37,4.19.51,8.3-2.1,11.95-20.76-.25-41.43-2.14-62.14-3.42-12.87-.8-25.73-1.57-38.6-2.37-1.47-.09-1.82.86-2.06,1.99Z"/>
        <path class="cls-11" d="M408.53,485.67c-1.49-.08-2.98-.12-4.15,1.07-6.81,1.53-13.69,2.82-20.41,4.7-3.85,1.07-4.51-.24-4.46-3.64.13-8.97.22-17.94-.04-26.9-.11-3.9,1.41-5.06,5.04-5.94,26.1-6.3,52.14-12.89,78.19-19.38,1.23-1.55,2.61-2.99,4.62-3.33,8.58-1.48,16.56-6.32,25.71-4.63,22.67-5.56,45.34-11.12,68.01-16.66,6.57-1.6,13.22-2.95,19.74-4.74,3.23-.88,4.87-.84,4.8,3.2-.17,9.18-.13,18.37-.01,27.56.04,3.2-1.24,4.72-4.36,5.38-7.47,1.58-14.88,3.41-22.31,5.14-1.26-.14-2.2.39-2.9,1.4-2.1,2.55-5.12,3.2-8.1,3.94-43.49,10.84-86.96,21.74-130.45,32.6-2.93.73-5.91,1.88-8.93.23Z"/>
        <path class="cls-8" d="M68.68,349.93c7.01,21.29,14.02,42.59,21.01,63.88,4.56,13.87,9.09,27.75,13.63,41.63.26.57.33,1.17.21,1.78-2.34,4.94-5.88,9.12-8.65,13.8-11.22,17.31-23.19,34.13-34.02,51.7-.69,1.12-1.44,2.21-2.8,2.64-10.52-8.88-20.95-17.87-31.6-26.58-3.07-2.51-2.67-5.01-1.71-8.13,12.7-41.15,25.31-82.32,38.07-123.45,1.8-5.8,2.68-11.94,5.87-17.27Z"/>
        <path class="cls-12" d="M295.19,534.41c-4.07-1.9-4.29,2.23-5.42,3.93-15.41,23.24-30.6,46.61-45.88,69.93-1.18,1.81-2.61,3.46-3.92,5.19-9.63-4.17-16.35-12.23-24.28-18.61-20.59-16.56-40.77-33.63-61.02-50.59-4.68-3.92-9.02-8.22-13.52-12.35,1.88-2.14,4.36-1.74,6.73-1.48,24.57,2.69,49.21,4.69,73.74,7.66,2.81.34,5.7.65,7.88,2.83,14.83-2.37,29.67-4.71,44.5-7.11,6.66-1.08,13.3-2.27,19.95-3.4.81,1.21,1.51,2.46,1.24,4.01Z"/>
        <path class="cls-24" d="M285.94,401.49c-.62-5.7-3.71-7.96-9.49-9.01-19.66-3.58-39.19-7.92-58.78-11.89-1.68-.34-3.46-.14-5.2-.19-.46.57-.92.57-1.4.02-.03-.43-.07-.87-.1-1.3,3.68-12.66,10.38-24.04,15.31-36.18,3.62-8.9,7.86-17.56,11.93-26.28.84-1.8,1.67-3.58,3.47-4.65.32-.08.64-.15.96-.23,20.13,6.7,40.27,13.4,60.4,20.1,2.15,4.3.77,8.52-.44,12.66-4.24,14.48-8.59,28.94-13.02,43.36-1.38,4.51.27,9.81-3.65,13.6Z"/>
        <path class="cls-26" d="M57.17,73.35c13.76-.63,27.26,1.98,40.87,3.3,10.58,1.03,21.15,2.16,31.74,3.15,2.41.22,4.89-.05,6.14,2.69-8.88,10.82-17.75,21.65-26.65,32.45-1.12,1.36-2.37,2.61-2.41,4.53-.49,2.24-1.84,3.94-3.43,5.49-15.54,15.17-30.5,30.92-45.43,46.69-2,2.12-3.79,5.07-7.54,4.41.91-16.14,1.7-32.29,2.76-48.42,1.19-18.1,2.63-36.19,3.96-54.29Z"/>
        <path class="cls-24" d="M58.06,525.36c1.02-2.4,1.69-5.04,3.11-7.17,10.78-16.17,21.71-32.25,32.59-48.35,3.93-.38,4.93,3.09,6.66,5.33,4.8,6.19,8.88,12.93,14.27,18.68,7.07,10.56,15.23,20.35,22.39,30.85,1.41,2.07,3.74,3.9,2.81,6.97-.02.44-.03.87-.03,1.31-6.98,12.68-17.34,22.71-26.41,33.74-1.22,1.49-2.89,2.71-5.13,2.14-16.75-14.5-33.5-29-50.25-43.5Z"/>
        <path class="cls-7" d="M258.18,686.25c9.21-7.71,20.61-11.42,31.03-16.91,9.87-5.2,20.12-9.7,30.16-14.57,2.42-1.17,4.71-2.53,7.28-.46,4.95,18.87,9.91,37.74,14.86,56.6,1.4,2.95.37,5.38-2.35,6.48-15.29,6.19-29.76,14.46-45.94,18.41-2.95-.26-4.51-2.4-6.05-4.54-9.2-12.73-18.28-25.55-27.11-38.54-1.3-1.91-3.26-3.74-1.89-6.47Z"/>
        <path class="cls-3" d="M144.98,678.03c2.01-1.01,4.16-1.24,6.38-1.28,24.28-.44,48.56-.92,72.84-1.38,1.69,1.48,1.86,3.48,1.41,5.4-3.73,16.06-6.64,32.32-11.95,47.99-1.61,2.6-4.1,3.84-6.98,4.45-14.33,3.04-28.72,5.74-43.21,7.9-2.74.41-5.8,1.08-7.39-2.39-3.7-20.23-7.39-40.46-11.09-60.69Z"/>
        <path class="cls-16" d="M50.45,176.06c16.52-16.84,33.03-33.69,49.59-50.49,2.13-2.16,4.53-4.07,6.81-6.09,9.39,20.07,18.74,40.15,28.2,60.18,1.46,3.1,1,5.27-1.63,7.45-3.7,3.07-7.16,6.43-10.72,9.66-3.43,1.34-4.63-1.52-6.02-3.47-3.94-5.55-8.31-10.78-11.98-16.51-2.35-3.68-4.56-4.22-7.61-.72-3.9,4.47-8.61,8.13-12.81,12.31-2.14,2.13-4.3,3.8-7.51,2.39-8.61-5.19-18.37-8.32-26.31-14.7Z"/>
        <path class="cls-24" d="M292.38,734.87c14.47-5.97,28.94-11.93,43.39-17.94,2.75-1.14,6.01-1.95,5.75-6.03,1.02,1.64,1.74,3.59,3.09,4.87,15.63,14.68,31.35,29.25,47.05,43.85,0,.38.02.75.07,1.12-2.96,3.63-7.15,2.79-10.96,2.8-23.84.11-47.69.17-71.53-.03-6.89-.06-13.36-.43-13.97,8.94-.04.61-.75,1.05-1.18,1.54-2.95-4.13-.9-8.75-1.28-13.13-.23-2.6-.22-5.23-.32-7.84-3.37-6.04-3.47-12.09-.1-18.17Z"/>
        <path class="cls-32" d="M240.04,311.63c-15.2-6.56-30.38-13.15-45.59-19.68-11.18-4.8-22.39-9.52-33.45-15.47,8.36-1.37,16.72-2.75,25.08-4.12,30.65-4.64,61.3-9.29,91.96-13.9,11-1.66,22.02-3.21,33.03-4.81,1.47-.34,3.24-1.75,3.78,1.1-22.21,9.77-44.38,19.63-66.66,29.24-4.16,1.79-6.12,3.97-5.75,8.74.48,6.32.17,12.69.21,19.04,0,0,.04-.11.04-.11-.9.84-1.78.9-2.66-.04Z"/>
        <path class="cls-26" d="M240.12,86.23c-.94-22.37-1.9-44.74-2.79-67.11-.17-4.39-3.21-8.84.17-13.18,21.8,13.61,43.6,27.22,65.38,40.86.95.6,2.69.89,1.77,2.76-4.4,4.39-9.89,7.21-15.18,10.25-4.38,2.51-8.57,5.26-12.64,8.21-2.78-2.42-4.82-.03-6.93,1.17-9.95,5.63-19.86,11.35-29.78,17.04Z"/>
        <path class="cls-24" d="M493.04,427.63c-10.11,2.65-20.22,5.31-30.33,7.96-.08-26.73-.16-53.47-.24-80.2-1.08-10.43-.59-20.9-.32-31.33.17-6.58,8.8-13.95,14.68-13.5,5.4,39.02,10.81,78.05,16.21,117.07Z"/>
        <path class="cls-5" d="M156.07,738.72c6.37,2.04,12.37-.91,18.44-1.72,11.18-1.49,22.18-4.21,33.3-6.21,1.96-.35,3.07-1.41,4.25-2.68,5.72,9.88,11.47,19.76,12.5,31.5,1.55,4.02,3.11,8.04,4.66,12.06-1.78,1.93-4.15,2.39-6.59,2.41-20.13.16-40.26.19-60.39-.02-2.47-.03-4.76-.71-6.57-2.53-.07-3.09-.13-6.17-.2-9.26.2-7.85.4-15.7.6-23.56Z"/>
        <path class="cls-8" d="M285.94,401.49c.06-18.11,8.43-34.18,12.6-51.27,1.49-6.12,4.4-11.88,4.51-18.34,3.16,3.55,3.59,8.25,5.03,12.46,5.26,15.43,10.19,30.97,15.25,46.46-.01,1.19-.5,2.43-1.51,2.71-6.82,1.91-6.72,7.35-7.37,12.93-1.42,12.37-1.36,24.86-3.26,37.17-.3.61-.75,1.11-1.32,1.49-3.93-2.15-7.5-1.44-11.31.77-2.83,1.64-5.73,4.17-9.56,2.68-1.01-15.69-2.02-31.38-3.04-47.07Z"/>
        <path class="cls-24" d="M288.98,448.56c4.84-2.4,9.77-4.63,14.49-7.24,4.24-2.34,5.37-.75,5.03,3.38,2.96,3.04,1.63,6.59,1.01,9.94-1.36,7.38-.43,13.35,6.46,18.26,5.98,4.26,10.68,10.26,15.91,15.53,2.65,2.67,4.74,2.76,6.64-.72,5.65-10.34,12.26-20.13,17.51-30.71,1.09-1.35,2.23-2.58,4.22-1.75-2.36,12.67-4.79,25.33-7.03,38.02-.55,3.09-2.35,3.82-5.02,3.94-18.56.84-37.12,1.71-55.68,2.57-1.18-17.07-2.36-34.15-3.54-51.22Z"/>
        <path class="cls-20" d="M476.83,310.56c-8.14,5.11-14.95,10.85-14.24,21.95.49,7.59-.04,15.25-.12,22.87-2-7.96-.93-16.07-.87-24.08.04-5.35-1.77-8.88-5.75-12.27-18.1-15.42-35.97-31.11-53.93-46.7.42-4.48,2.35-7.88,6.8-9.46,21.71,14.82,43.42,29.65,65.14,44.46,1.26.86,2.77,1.43,2.97,3.23Z"/>
        <path class="cls-10" d="M76.76,190.76c6.23-1.49,8.84-7.43,13.39-11,3.92-3.06,6.73-9.84,10.98-9.45,4.27.39,6.13,7.37,9.35,11.21,4.19,4.99,6.85,11.19,12.21,15.24.12,1.08-.14,2.45.42,3.19,5.21,6.84,1.35,10.78-4.35,14.21-2.41,6.23-7.8,9.15-13.3,11.94-8.11-10.5-16.18-21.03-24.37-31.47-1.18-1.5-2.88-2.59-4.34-3.87Z"/>
        <path class="cls-2" d="M355.63,397.17c3.54,10.16,10.26,18.55,15.61,27.69,6.79,11.58,7.07,11.47-2.46,20.85-2.46,2.42-4.45,5.4-7.68,6.99-2.89.91-4.44-1.26-6.05-2.86-7.53-7.5-15.26-14.8-22.45-22.65-.73-1.1-1.19-2.27-.98-3.62,5.89-9.4,13.78-17.14,21.07-25.39.73-.83,1.77-1.21,2.94-1.01Z"/>
        <path class="cls-9" d="M355.63,397.17c-7.79,8.89-15.57,17.78-23.36,26.67-4.52-3.16-7.24-13.29-5.32-19.83,11.1-12.08,20.13-25.8,30.55-38.41,1.43-1.74,2.55-6.64,6.02-3.02,2.83,2.95,9.46,4.64,5.48,11.29-4.6,7.68-8.93,15.52-13.37,23.3Z"/>
        <path class="cls-10" d="M326.95,404.01c1.77,6.61,3.55,13.22,5.32,19.83.43.81.86,1.62,1.29,2.42-1.88,8.07-4.27,15.99-6.53,23.95-.6,2.11-1.42,4.14-3.31,5.5-5.87.22-10.75-3.66-13.88-11.01-.84-15.6,2.32-30.97,2.67-46.5.06-2.76,1.08-4.51,4.11-4.95,2.35-.34,4.78-.77,6.69-2.45,1.21,4.4,2.42,8.8,3.63,13.2Z"/>
        <path class="cls-14" d="M323,455.65c2.23-7.74,4.38-15.5,6.72-23.21.71-2.33.4-5.48,3.84-6.18,9.18,8.81,18.36,17.63,27.53,26.44-.28.85-.56,1.7-.84,2.55-1.38.31-2.39,1.11-3.04,2.36-3.02,5.09-6.8,9.55-11.16,13.52-2.03,1.84-4.56,3.42-7.03,1.47-5.43-4.3-11.29-8.18-15.48-13.87-.66-.9-.92-1.96-.55-3.08Z"/>
        <path class="cls-16" d="M276.83,68.02c.16-1.27-.15-2.89,1.15-3.58,8.97-4.81,16.89-11.53,26.67-14.88-2.42,18.84-4.85,37.67-7.27,56.51-.33,2.6-.64,5.2-.95,7.8-4.22-5.14-5.61-11.61-8.13-17.54-3.99-9.37-7.66-18.87-11.47-28.31Z"/>
        <path class="cls-13" d="M408.72,262.87c-2.27,3.15-4.54,6.31-6.8,9.46-11.35-3.61-22.7-7.23-34.04-10.84-1.1-1.04-1.26-2.49-.61-3.58,5.4-9.06,10.39-18.46,18.96-25.13,8.76,9.08,15.11,19.97,22.49,30.09Z"/>
        <path class="cls-10" d="M108.3,568.86c10.43-9.45,17.92-21.46,27.5-31.65,1.34-1.42,2.7-2.82,4.04-4.23-3.57,20.81-7.39,41.57-12.04,62.17-6.51-8.76-13.01-17.52-19.51-26.28Z"/>
        <path class="cls-1" d="M386.23,232.78c-5.12,7.45-10.24,14.9-15.37,22.34-1.35,1.96-2.9,3.82-2.98,6.37-5.36-4.47-7.57-11.03-11.12-16.7-1.18-1.88,0-3.33.9-4.82,7.8-13,7.81-13.06,22.5-9.35,2.04.52,4.45.34,6.08,2.16Z"/>
        <path class="cls-31" d="M105.47,226.1c3.41-5.12,9.01-7.8,13.3-11.94,3.32,4.44-.02,8.9-.29,13.25-.58,9.13-2.41,18.19-3.63,27.29-.23,1.71-.73,2.42-2.44,1.68-2.31-10.09-4.63-20.18-6.94-30.28Z"/>
        <path class="cls-21" d="M314.85,254.75c-1.02-1.21-2.5-.82-3.78-1.1,2.57-1.56,5.15-2.1,7.77-.11-1.33.4-2.66.8-3.98,1.21Z"/>
        <path class="cls-2" d="M254.52,162.77c1.03,6.01,1.88,12.07,3.19,18.02.55,2.5.84,4.7-.61,6.89-5.42,4.42-11.36,6.58-18.33,4.19-.88-.9-1.75-1.8-2.63-2.7-4.61-8.01-4.63-17.13-6.16-25.88-1.24-7.09-2.54-14.18-3.34-21.34-.32-2.8-.99-5.68,1.42-8,3.9-4.11,15.32-5.67,19.76-2.7,1.24.61,2.15,1.64,2.43,2.9,2.08,9.44,5.73,18.64,4.28,28.61Z"/>
        <path class="cls-14" d="M254.52,162.77c-2.24-10.5-4.47-21.01-6.71-31.51-.25-6.71,4.35-12.01,5.34-18.37,2.48-5.12,7.18-7.89,11.67-10.8,2.44-1.58,5.34-1.5,7.05.9,3.97,5.59,8.81,8.14,15.6,5.89-2.61,7.12-8.63,12.4-10.68,19.83-.56.35-1.18.58-1.83.58-10.02-.03-11.21,1.58-8.48,11.47.18.63.13,1.29-.07,1.92-2.98,7.28-7.17,13.85-11.89,20.1Z"/>
        <path class="cls-32" d="M275.35,225.98c-9.69,2.67-19.43,5.19-29.06,8.06-4.8,1.43-9.32,1.57-14.11-.02-6.85-2.26-13.92-3.87-20.73-6.24-4.76-1.65-7.81-.97-9.43,4.13-.48,1.5-1.69,2.78-2.57,4.16-2.05-1.29-1.49-3.02-1.79-4.42q-3.76-17.41,12.72-25.72c.13.4.48.86.37,1.18-3.56,10.64-3.18,9.66,7.43,13.84,18.07,7.13,36.27,5.97,54.75,3.57,1.36-.44,2.73-.91,2.41,1.45Z"/>
        <path class="cls-16" d="M178.13,131.08c-2.18-2.55-9.14-.14-6.9-7.51,2.53-8.32,2.05-8.45,10.46-5.86,13.15,4.04,26.31,8.02,39.44,12.09,2,.62,4.41.54,5.67,2.74-2.64,10.23-7.87,13.08-17.53,10.02-10.57-3.35-21.16-6.58-31.15-11.48Z"/>
        <path class="cls-14" d="M178.13,131.08c10.23,3.08,20.69,5.58,30.61,9.45,6.58,2.57,11,2.05,14.64-4.04.88-1.47,2.27-2.64,3.42-3.95.42.47.83.95,1.25,1.42,2.39,16.05,4.79,32.09,7.17,48.14.35,2.35.61,4.72.91,7.07-5.79-4.72-7.71-11.98-11.61-17.94-4.27-6.54-7.99-13.44-11.95-20.18-3.37-5.64-8.41-7.61-14.75-6.75-3.24-5.49-9.88-5.93-14.34-9.62-1.65-1.36-4.12-1.56-5.35-3.6Z"/>
        <path class="cls-29" d="M287.47,108.88c-.4.16-.91.22-1.17.51-4.52,5-7.91,4.35-12.12-1.03-5.93-7.58-6.36-7.24-13.72-.78-2.27,1.99-4.33,4.29-7.31,5.31-1.09-1.36-2.08-2.81-3.28-4.06-2.45-2.56-1.83-4.22,1.04-6.05,6.43-4.08,12.68-8.44,18.98-12.71,1.44-.98,2.71-2.34,4.43-.37,4.57,5.25,9.21,10.45,13.78,15.7,1.17,1.34.06,2.4-.63,3.47Z"/>
        <path class="cls-27" d="M266.41,142.68c-3.48-3.7-5.85-7.75-2.25-12.55,3.57-4.75,8.09-3.88,12.63-1.42,2.27,3.49,3.58,7.16.8,10.89-2.84,3.8-6.84,4.27-11.18,3.07Z"/>
        <path class="cls-25" d="M197.82,144.31c8.26-4.69,12.81-2.61,14.75,6.75-3.33,6.87-6.98,8.84-11.92,6.45-4.98-2.41-5.9-6.69-2.83-13.2Z"/>
        <path class="cls-17" d="M238.77,191.88c6.11-1.4,12.22-2.79,18.33-4.19.07,5.61-4.41,8.99-6.66,13.46-.41.81-1.42,1.36-2.18.66-3.37-3.1-8.8-4.26-9.49-9.92Z"/>
        <path class="cls-6" d="M275.35,225.98c-.8-.48-1.61-.96-2.41-1.45,2.04-1.57,4.27-1.22,6.62-.69-.88,1.93-2.52,2.08-4.2,2.14Z"/>
        <path class="cls-7" d="M408.53,485.67c27.74-7.04,55.45-14.15,83.21-21.09,21.39-5.35,42.84-10.47,64.26-15.69,0,55.71,0,111.43,0,168.63-11.41-8.05-21.88-15.44-32.35-22.82-37.44-26.4-74.87-52.81-112.32-79.19-.7-.49-1.57-.73-2.37-1.09-.15-9.58-.29-19.17-.44-28.75Z"/>
        <path class="cls-11" d="M556.3,622.86c.04,49.15.06,98.31.22,147.46,0,2.79-.41,3.92-3.41,3.91-47.39-.08-94.78-.08-142.17-.15-.71,0-1.43-.77-2.14-1.18,15.23-13.83,28.5-29.54,42.59-44.47.75-.79,1.44-1.65,2.2-2.43,16.31-16.78,32.83-33.36,48.87-50.4,16.78-17.82,33.34-35.84,50.64-53.17,1.18-1.18,2.85-4.88,3.22.43Z"/>
        <path class="cls-28" d="M240.04,311.63c.89.01,1.77.02,2.66.04-9.25,20.57-18.48,41.16-27.78,61.71-.95,2.11-1.23,4.78-3.93,5.73-25.94-19.41-51.88-38.81-77.8-58.23-1.05-.78-2.01-1.68-3.01-2.53,9.16-2.52,18.62-1.62,27.92-2.12,27.32-1.48,54.68-2.31,81.95-4.6Z"/>
        <path class="cls-18" d="M139.88,531.66c-8.67-12.43-18.6-23.95-26.45-36.97-5.88-10.21-7.53-21.82-10.91-32.86-.52-1.68-.15-3.47.46-5.15.12-.41.24-.82.35-1.23,11.95-8.38,23.8-16.89,35.86-25.1,23.24-15.82,45.75-32.69,69.55-47.7.89-.56,1.57-1.48,2.34-2.23.47,0,.93-.01,1.4-.02,1.27,12.76,2.49,25.53,3.81,38.28,1.58,15.18,3.27,30.34,4.88,45.51,1.47,13.88,3.08,27.75,4.25,41.65.99,11.74,2.25,23.44,4.08,35.07-14.96-1.34-29.94-2.54-44.89-4.06-14.5-1.48-28.97-3.29-43.46-4.96-.41-.12-.84-.2-1.26-.24Z"/>
        <path class="cls-22" d="M294.09,774.01c-.21-16.06-1.48-12.82,12.42-12.95,28.41-.26,56.82-.23,85.23-.31,2.14,3.43.88,7.2.96,10.8.1,4.12-3.38,2.56-5.36,2.57-22.55.11-45.09.08-67.64.06-8.53,0-17.07-.11-25.6-.17Z"/>
        <path class="cls-30" d="M155.67,771.53c24.52.05,49.04.09,73.55.14q.61,12.51-11.97,12.51c-17.91,0-35.83-.32-53.73.17-6.62.18-9.36-1.54-8.14-8.25.27-1.49.2-3.04.29-4.56Z"/>
        <path class="cls-18" d="M323,455.65c4.46,6.04,11.1,9.74,16.15,15.13,2.27,2.43,3.79.65,5.39-.91,4.21-4.1,8.44-8.17,12.67-12.25-4.88,12.67-13.17,23.47-19.53,35.32-1.33,2.48-2.82,1.13-4.16-.12-8.4-7.93-16.26-16.39-24.95-24.06-4.36-3.85-1.1-9.98-.86-14.99.14-2.97.75-6.01.79-9.06.45,0,.89,0,1.34,0,4.62,3.36,7.92,8.32,13.16,10.95Z"/>
        <path class="cls-15" d="M108.64,200.53c-5.15-.84-8.27-3.4-11.89-4.66-6.2-2.16-4.91-4.61-.96-8.13,2.63-2.34,4.01-2.64,5.75.71,1.98,3.82,4.35,7.44,7.1,12.07Z"/>
      </g>
    </g>
  </g>
</svg>