<?xml version="1.0" encoding="UTF-8"?>
<svg xmlns="http://www.w3.org/2000/svg" version="1.1" viewBox="0 0 715.71 792">
  <defs>
    <style>
      .cls-1 {
        fill: #6f505f;
      }

      .cls-2 {
        fill: #e2c9b7;
      }

      .cls-3 {
        fill: #474747;
      }

      .cls-4 {
        fill: #856855;
      }

      .cls-5 {
        fill: #f9f8f8;
      }

      .cls-6 {
        fill: #e2dbe5;
      }

      .cls-7 {
        fill: #ab889b;
      }

      .cls-8 {
        fill: #bc987e;
      }

      .cls-9 {
        fill: #d9bca6;
      }

      .cls-10 {
        fill: #9c9fa0;
      }

      .cls-11 {
        fill: #555758;
      }

      .cls-12 {
        fill: #2d2c2c;
      }

      .cls-13 {
        fill: #8e657a;
      }

      .cls-14 {
        fill: #bc977e;
      }

      .cls-15 {
        fill: #705160;
      }

      .cls-16 {
        fill: #886a57;
      }

      .cls-17 {
        fill: #846754;
      }

      .cls-18 {
        fill: #464646;
      }

      .cls-19 {
        fill: #967d84;
      }

      .cls-20 {
        fill: #525455;
      }

      .cls-21 {
        fill: #876956;
      }

      .cls-22 {
        fill: #6e4f5e;
      }

      .cls-23 {
        fill: #4e3141;
      }

      .cls-24 {
        fill: #d1cbd4;
      }

      .cls-25 {
        fill: #c9a1b6;
      }

      .cls-26 {
        fill: #bb977e;
      }

      .cls-27 {
        fill: #4f5252;
      }

      .cls-28 {
        fill: #8d657a;
      }

      .cls-29 {
        fill: #6e7073;
      }

      .cls-30 {
        fill: #d0c0c4;
      }

      .cls-31 {
        fill: #494948;
      }

      .cls-32 {
        fill: #6e505e;
      }

      .cls-33 {
        fill: #ac899c;
      }

      .cls-34 {
        fill: #99776b;
      }

      .cls-35 {
        fill: #c8a1b6;
      }

      .cls-36 {
        fill: #2c2b2b;
      }

      .cls-37 {
        fill: #856754;
      }
    </style>
  </defs>
  <!-- Generator: Adobe Illustrator 28.7.1, SVG Export Plug-In . SVG Version: 1.2.0 Build 142)  -->
  <g>
    <g id="Layer_1">
      <g>
        <path class="cls-27" d="M325.46,15.22c3.39-1.95,6.66-4.16,10.58-5,1.69-.56,1.77.58,1.62,1.67-.34,2.42-1.86,4.31-3.1,6.3-27,43.07-54.42,85.88-81.69,128.79-8.74,13.75-17.19,27.7-26.3,41.22-.65.77-1.43,1.34-2.37,1.71-.63.19-1.28.25-1.94.19-24.56-7.57-49.05-15.38-73.64-22.85-3.42-1.04-6.83-2.08-11.12-3.11,12.36,19.8,24.39,38.74,36.54,57.62,3.83,5.95,7.42,12.04,11.43,17.87,2.36,3.43,2.95,6.97,1.32,10.93-13.55,32.89-27.45,65.62-41.2,98.42-.58,1.39-1.72,2.46-2.33,3.83-1.38,1.78-3.04.95-4.64.47-20.75-6.3-41.49-12.6-62.23-18.92-1.23-.37-2.41-.87-2.77-2.31,5.32-18.53,12.04-36.61,17.88-54.97,1.35-4.26,3.45-8.32,2.63-13,2.82.47,4.1-.88,4.97-3.52,10.54-31.98,21.15-63.95,31.87-95.87,1.16-3.44.46-5.07-3.01-5.98-4.53-1.19-9.01-2.62-13.47-4.06-1.28-.41-3.8-.02-2.55-2.83,12.21-10.95,26.79-18.39,40.45-27.16,47.05-30.19,94.25-60.14,141.55-89.94,9.06-5.7,17.96-11.66,27.53-16.51,1.48-.75,3.17-1.32,3.99-2.99Z"/>
        <path class="cls-9" d="M224.12,189.21c.4-.5.8-1,1.19-1.51,7.34-7.91,16.18-13.66,25.96-18.09,1.65-.23,3.28-.19,4.87.41,3.9,2.47,7.45,5.25,8.89,9.93.07.84-.07,1.67-.21,2.51-1.23,7.56.36,9.24,9.49,10.13,5.45,1.15,8.64,5.42,11.87,9.25,4.94,5.87,10.54,11.17,15.16,17.31,1.29,1.71,2.79,3.22,4.62,4.38.51.33.96.73,1.38,1.17,7.25,8.95,10.19,8.68,15.73-1.51.3-.56.33-1.23.33-1.87.13-4.35-1.86-8.48-1.36-12.87,3.33-8.77,5.26-18.11,10.66-26.03.17-.11.35-.29.54-.31,11.27-1.15,14.69-5.89,6.06-16.18-.47-4.08,1.51-7.32,3.65-10.49,1.47-2.43,7.58-1.7,4.65-7.17-2.43-4.53-4.15-5.2-8.37-2.09-7.71,5.68-15.07,11.82-22.93,17.29-1.25.91-2.47,1.87-3.89,2.51-4.88,1.24-10.11.84-14.73,3.24-5.41-.5-10.94.62-16.26-1.17-5.32-1.78-11.41-1.14-16.02-5.14-1.4-3.34,1.26-4.73,3.26-6.09,25.38-17.2,50.64-34.59,76.32-51.35,2.38-1.55,5.11-3.84,7.87-.29,3.58,12.6,4.1,25.69,5.99,38.55,2.57,17.53,4.61,35.14,7.15,52.67.77,5.3.44,10.57.87,15.84-.84,10.97,2.12,21.55,3.42,32.3,1.63,13.56,3.71,27.07,5.56,40.61.27,2,.23,3.95-2.48,4.34-20.72,2.97-41.06,8.24-61.9,10.51-.87,1.92-2.46,2.94-4.44,3.29-15.52,2.77-31.04,5.58-46.67,7.73-.84.12-1.7-.07-2.54-.23-4.5-.99-5.83-4.66-6.93-8.4-1.87-6.36-3.35-12.83-4.91-19.27-6.78-28.06-14.37-55.91-21.31-83.93-.81-3.27-2.19-6.57-.52-10Z"/>
        <path class="cls-22" d="M212.76,640.89c-.92-10.68-1.98-21.34-2.69-32.03-.19-2.91-.84-4.49-3.98-4.11,1.2-6.28.59-12.58-.2-18.81-.67-5.27-.91-10.49-.38-15.76.31-6.25,5.41-9.54,8.91-13.61,16-18.58,31.69-37.43,47.77-55.95,1.26-1.45,2.57-2.86,4.15-4,1.21-.83,2.52-1.39,3.99-1.54,12.29-.9,24.53-2.62,36.9-1.78,1.79.47,3.74.35,5.39,1.38,2.78,2.66,1.36,5.57.37,8.35-13.92,38.98-27.68,78.03-41.85,116.92-1.84,5.04-3.47,10.15-5.28,15.2-1.09,3.05-2.23,6.1-5.63,7.44-10.95,1.95-21.99.88-32.97.73-3.78-.05-7.62-.1-11.41-.57-1.28-.2-2.25-.91-3.08-1.85Z"/>
        <path class="cls-24" d="M383.77,737.58c14,1.46,28.01,2.84,42,4.4,16.95,1.89,33.89,3.9,50.82,5.93,13.94,1.67,27.87,3.45,41.78,5.84-12.88,1.48-25.77,2.97-38.65,4.43-17.58,2-35.17,3.99-52.75,5.96-16.95,1.9-33.92,3.75-50.87,5.64-12.72,1.42-25.43,2.9-38.15,4.32-14.2,1.58-28.4,3.11-42.6,4.69-5.93.66-11.91,1.08-17.76,2.2-6.92,1.33-13.14-1.48-19.52-2.81-45.58-9.54-91.09-19.4-136.62-29.19-.57-.12-1.07-.6-3.38-1.95,30.46-3.27,59.24-6.36,88.01-9.45,3.21,6.29,4.94,13.15,7.63,19.65,1.91,4.59,4.73,6.54,9.73,6.47,13.05-.19,26.1-.14,39.14-.02,4.76.05,7.4-1.49,6.8-6.64-2.01-6.82-6.79-12.06-10.22-18.07-1.58-2.77-4.42-5.63-.82-8.97,12.95-3.06,26.23-3.51,39.38-5.02,2.76-.32,5.55-.33,8.28-.87,3.45.38,3.58,3.27,4.11,5.69,1.23,5.66,1.92,11.41,2.87,17.12.31,1.83.61,4.17,3.08,4.3,2.55.13,2.75-2.33,3.37-4.05.87-2.42,1.23-5,2.09-7.42,2.06-5.76,4.18-6.44,8.76-2.51,4.23,3.63,8,7.76,11.92,11.72,2.86,2.89,6.1,4.48,10.26,4.46,9.65-.05,19.3-.09,28.94.02,4.48.05,7.06-1.38,6.35-6.32.49-3.94-5.42-5.23-3.99-9.55Z"/>
        <path class="cls-28" d="M261.09,640.94c4.82-12.99,9.73-25.95,14.43-38.98,12.37-34.34,24.65-68.71,36.92-103.08.35-.97.27-2.1.4-3.15.53-.48,1.13-.59,1.8-.34,6.04,5.98,8.81,14,12.94,21.15,6.29,10.9,12.58,21.81,18.58,32.87,1.43,2.63,3.09,5.17,2.37,8.41,1.32,13.42-1.14,26.73-.97,40.11.04,3.38.26,6.88-2.44,9.6-1.99,8.8-.91,17.78-1.52,26.66-.19,2.73.27,5.55-.95,8.16-.94.74-1.86,1.5-3.09,1.7-12.08,1.43-24.11-1.09-36.19-.52-2.33.11-4.67.07-6.97.53-11.28,1.57-22.39-.48-33.56-1.56-.73-.35-1.31-.88-1.74-1.56Z"/>
        <path class="cls-18" d="M143.25,352.83c.72-9.31,5.89-17.05,9.28-25.37,10.72-26.34,21.79-52.54,32.92-78.71,1.5-3.52-.13-5.57-1.76-8.12-16.24-25.41-32.43-50.85-48.62-76.29-.54-.85-.98-1.77-2.08-3.76,8.38,2.47,15.71,4.51,22.97,6.79,21.62,6.8,43.21,13.68,64.8,20.57.77.24,1.4.9,2.1,1.37.28,5.28-4.47,6.34-7.44,8.9-6.14,3.12-12.97,4.2-19.42,6.42-6.83,2.36-7.05,2.53-4.31,9.5,2.5,6.36,5.36,12.59,7.51,19.07,1.66,4.98,4.34,7.54,9.71,6.66,1.06.37,2.1,1.04,2.28,2.08.88,5.17,4.5,7.73,8.86,9.68.28.82.18-.26.29.57,2.45,18.77,5.84,37.4,8.82,56.09-.64,1.84-1.34,3.61-3.83,3.29-11.61,3.79-21.69,10.71-32.57,16.01-16.65,8.11-33.02,16.81-49.51,25.25Z"/>
        <path class="cls-22" d="M356.86,338.73c38.14,1.3,76.29,2.6,114.43,3.9.79.37,1.64.4,2.5.43,6.68.25,7.4,1.11,5.8,7.61-2.1,8.51-4.29,17-6.73,25.42-.72,2.5-1.46,4.97-4.17,6.1-38.86,10.64-77.98,20.29-117.13,29.78-2.08-1.7-2.27-4.09-2.07-6.45,1.59-18.31,1.6-36.73,3.85-54.99.07-4.26-1.69-9.07,3.52-11.8Z"/>
        <path class="cls-7" d="M266.72,498.22c-18.91,22.09-37.82,44.18-56.73,66.27-1.1,1.29-2.5,2.4-2.63,4.28-3.02,7.26-8.96,12.29-13.93,18.03-7.62,8.8-14.01,18.71-23.38,25.93-1.33.37-1.34-.62-1.36-1.42-.87-24.78-1.69-49.55-2.61-74.33-.11-2.98.83-5.23,2.65-7.57,7.86-10.13,15.5-20.44,23.26-30.65,1.29-1.7,2.99-3.16,2.44-5.63,6.81-9.82,13.22-19.94,22.1-28.14,2.49-.78,4.61.21,6.63,1.47,13.42,8.29,26.67,16.86,39.94,25.37,2.13,1.36,5.29,2.65,3.63,6.4Z"/>
        <path class="cls-7" d="M355.21,350.04c-1.07,17.87-2.15,35.74-3.21,53.62-.17,2.77-.29,5.54-.44,8.31-.91,15.86-1.82,31.71-2.74,47.57.92,9.25-4.12,14.89-11.22,19.81-5.97,4.13-11.57,8.83-17.26,13.37-1.83,1.46-3.64,3.06-6.23,2.95h-.64s-.63.06-.64.06c-1.69-.1-3.38-.2-5.07-.3.6-3.45-.34-6.39-2.07-9.5-3.89-6.98-8.36-13.67-11.33-21.15-.84-2.41-1.43-4.85-.52-7.38,8.45-6.71,5.11-13.16-.46-19.57-1.02-5.23-.77-10.5-.69-15.77,8.32-6.79,5.38-13.83.41-20.93-.73-8.34-1.08-16.67.18-24.98.23-.68.58-1.29,1.03-1.85,3.36-2.69,7.56-2.89,11.52-3.58,4.79-.84,8.05-3.31,10.83-7.23,3.67-5.17,5.9-11.54,11.81-14.98,8.98-.69,18.05-2.87,26.73,1.52Z"/>
        <path class="cls-22" d="M216.47,466.05c-6.2,8.17-12.4,16.34-18.57,24.53-.92,1.22-1.81,2.4-3.48,2.55-12.43-7.54-24.76-15.25-37.33-22.53-3.79-2.19-4.69-4.42-3.96-8.7,5.42-32.05,10.54-64.15,15.75-96.24,7.19-4.74,15-7.68,23.69-8.03,3.72,1.17,4.35,4.47,5.05,7.59,6.77,30.11,13.23,60.29,19.9,90.42.78,3.52,1.8,7.19-1.04,10.42Z"/>
        <path class="cls-25" d="M314.11,495.66c6.97-6.81,15.01-12.31,22.73-18.18,6.14-4.67,11.81-9.4,11.98-17.95-1.04,8.13,2.72,14.95,6.03,21.87,10.88,22.76,21.76,45.52,32.78,68.22,3.72,7.66.28,15.12-.38,22.56-1.11,12.5-3.21,24.92-4.85,37.38-.28,2.16-.67,4.22-2.33,5.8-6.56-6.68-9.86-15.4-14.42-23.3-5.34-9.26-10.55-18.6-15.85-27.89-1.41-2.47-2.38-5.01-2.3-7.88-10.59-19.06-21.19-38.12-31.77-57.18-.62-1.11-1.09-2.29-1.63-3.44Z"/>
        <path class="cls-18" d="M325.46,15.22c.23,3-2.51,3.33-4.19,4.4-38.27,24.34-76.6,48.58-114.88,72.9-30.34,19.28-60.61,38.65-90.94,57.94-1.04.66-2.34.92-3.51,1.37,8.76-16.12,17.54-32.22,26.26-48.36,1.23-2.28,3.39-3.13,5.5-4.13,10.96-5.21,21.93-10.42,32.89-15.62,1.21-2.86,3.99-3.78,6.45-4.9,11.65-5.28,23.16-10.88,34.83-16.14,2.36-1.06,4.81-1.66,7.43-1.25,14.25-6.64,28.81-12.62,42.59-20.24,14.18-5.46,27.82-12.1,41.29-19.09,5.43-2.29,10.85-4.58,16.28-6.87Z"/>
        <path class="cls-18" d="M366.83,212.27c-3.44-7.33-3.04-15.38-4.13-23.12-3.98-28.2-7.61-56.46-11.36-84.69-.8-3,1.57-4.16,3.38-5.42,6.93-4.84,13.93-9.58,21.12-14.01,1.85-1.14,4.2-3.64,6.29-.03,1.51,2.11,3.03,4.22,4.54,6.33,4.85,7.8,9.56,15.7,14.62,23.36,1.98,2.99,2.23,5.37.85,8.8-11.91,29.54-23.57,59.18-35.3,88.79Z"/>
        <path class="cls-18" d="M94.12,264.1c1.7,1.13,3.5,1.83,2.49,4.77-6.91,20.22-13.64,40.5-20.38,60.77-.46,1.37-1.18,2.23-2.61,2.43-19.16-25.76-38.33-51.53-58.65-78.86,27.47,3.78,53.32,7.33,79.16,10.88Z"/>
        <path class="cls-17" d="M257.7,309.13c17.91-3.04,35.82-6.07,53.73-9.11.14,4.37-2.65,8.38-1.54,12.86-3.05,19.56-8.31,38.64-12.76,57.89-.35,1.5-1.2,2.71-2.24,3.81l.1.1c-.51.38-1.08.52-1.71.43-9.71-7.6-17.92-16.78-26.7-25.36-.86-2.62-2.86-4.41-4.65-6.36-.42-.48-.76-1-1.06-1.55-4.57-7.47-10.57-13.9-15.36-21.2-1.72-2.62-4.55-5.34-2.55-8.62,2.11-3.45,6.23-3.18,9.82-3.31,1.63-.06,3.16,1.47,4.91.43Z"/>
        <path class="cls-10" d="M696.55,282c-11.42,9.39-24.2,16.84-36.38,25.13-27.99,19.05-56.21,37.76-84.32,56.64-.69.46-1.19,1.21-1.78,1.82-4.39,5.86-11.34,8.35-16.79,12.82-4.13,2.72-7.74,6.29-12.65,7.72-5.24,1-8.76,4.87-12.89,7.73-3.55-2.88-5.72-6.82-8.11-10.59,2.93-5.33,8.69-6.87,13.3-9.97,5.03-1.08,10.1-1.8,15.26-2.15,6.55-.44,8.65-4.34,5.98-10.51,3.05-6.38,8.68-9.12,15.1-10.78,16.64-9.74,31.94-21.49,48.05-32.03,23.09-15.12,45.23-31.65,68.67-46.26,5.5,1.92,7.29,4.75,6.56,10.41Z"/>
        <path class="cls-22" d="M267.88,348.82c7.03,6.83,14.08,13.63,21.07,20.5,1.67,1.64,3.12,3.49,4.67,5.24-2.05,2.47-4.95,2.23-7.68,2.26-11.52.11-23.04-.06-34.56.08-5.62.07-9.89-1.88-13-6.6-4.92-7.49-10.57-14.47-15.12-22.21-2.63-4.86-8.54-8.16-7.16-14.95,2.77-7.32,7.19-13.95,9.22-21.59.82-.88,1.63-1.76,2.45-2.64,2.54-1.26,4.04.65,5.45,2.04,10.23,10.13,20.84,19.92,29.53,31.5l-.04-.03c1.48,2.33,3.7,4.06,5.18,6.39Z"/>
        <path class="cls-28" d="M468.69,382.18c3.18-11.46,6.31-22.94,9.6-34.37.8-2.79.17-4.09-2.79-4.1-1.49,0-3.01.07-4.21-1.09,14.71.06,29.22-2.2,43.77-3.89,8.36-.97,8.35-1,7.89,7.34,3.06,3.36.43,7.18.89,10.75.2,5.95-.96,11.77-1.67,17.63.09,4.19-.32,8.26-3.05,11.72.21,5.39-1.88,6.56-7.25,5.27-14.3-3.45-28.77-6.22-43.18-9.26Z"/>
        <path class="cls-14" d="M212.76,640.89c.75.07,1.5.14,2.26.21,13.22,2.07,25.26,7.91,37.87,11.9,2.04.65,4.04,1.5,5.23,3.49.46,1.23.56,2.53.23,3.76-3.94,14.94-7.06,30.1-12.42,44.65-5.81,6.09-21.75,9.99-28.17,6.91-1.67-23.64-3.34-47.27-5.01-70.91Z"/>
        <path class="cls-14" d="M340.07,642.36c.86,0,1.71,0,2.57,0-.08,17.2-1.49,34.33-2.57,51.47-2.21,3.18-5.8,3.01-9.02,3.7-5.95,1.26-11.87,2.68-17.9,3.54-.73-.03-1.39-.26-2-.66-2.36-2.4-2.94-5.61-3.84-8.66-2.65-9-4.91-18.1-7.52-27.11-.77-2.64-1.76-5.31-.5-8.1,1.52-2.33,4.06-3.01,6.44-3.94,11.17-4.34,22.6-7.8,34.33-10.25Z"/>
        <path class="cls-9" d="M312.67,700.5c4.74-4.46,11.3-2.77,16.78-4.91,3.27-1.28,7.06-1.22,10.62-1.76,7.67,8.13,15.34,16.25,23.01,24.38-7.32,6.76-15.47,12.28-24.63,16.28-4.77-.66-8.36-3.72-11.28-6.95-6.5-7.19-10.58-16.02-14.91-24.62-.4-.8-.07-1.67.42-2.42Z"/>
        <path class="cls-22" d="M294.9,374.58c-.22-7.61,2.86-14.6,4.28-21.9,2.32-11.9,5.65-23.6,8.45-35.41.41-1.72.69-3.34,2.26-4.39,3.23,6.8,6.47,13.61,9.7,20.41,4.91,4.49,8.61,9.55,7.8,16.71-4.02,6.29-8.05,12.57-12.04,18.87-2.01,3.18-5.4,3.1-8.5,3.67-3.98.73-7.97,1.36-11.96,2.04Z"/>
        <path class="cls-23" d="M347.52,556.29c10.37,18.3,20.75,36.6,31.07,54.92.71,1.26,1,2.76,1.49,4.15-11.66-2.61-23.31-5.22-34.97-7.83-.8-16.14,1.8-32.19,1.44-48.32-.02-.97.63-1.95.96-2.92Z"/>
        <path class="cls-7" d="M216.11,333.16c1.58,5.04,5.5,8.64,8.06,13.09,1.47,2.91-.8,3.9-2.7,4.58-9.66,3.48-19.09,7.84-29.62,8.14-7.93,1.32-14.92,5.82-22.98,6.69-.86-5.42,1.16-10.55,1.6-15.84.3-3.58,2.43-5.33,6.09-6.21,13.25-3.21,26.62-6.01,39.55-10.44Z"/>
        <path class="cls-9" d="M217.77,711.8c9.3-1.34,18.83-1.89,26.82-7.74,4.08,6.97,8.55,13.76,9.7,22.03-3.4,5.14-9.45,6.36-14.25,9.38-5.95,3.74-12.5,6.48-18.63,9.98-2.25,1.28-4.85,3.29-7.44.3-2.14-7.58.34-14.96.99-22.42.41-2.95,2.67-5.57,1.6-8.79.4-.91.8-1.82,1.2-2.73Z"/>
        <path class="cls-1" d="M216.53,722.25c-.4,7.98-.8,15.95-1.2,23.93,2.2,6.48,7.18,7.2,13.18,7.03,11.12-.33,22.25-.1,33.38-.09,3.48,0,6.86.25,9.72,2.53q.61,9.81-9.03,9.81c-13.28,0-26.57-.39-39.83.17-6.54.27-9.8-1.95-11.43-8.08-1.15-4.31-3.09-8.43-4.82-12.57-1.03-2.46-1.46-4.86-.44-7.39,3.06-6.39,6.12-12.78,9.18-19.17,3.07.4,1.46,2.36,1.27,3.84Z"/>
        <path class="cls-13" d="M338.58,733.39c8.15-5.09,15.47-11.5,24.5-15.18,6.79,6.57,13.25,13.49,20.69,19.36,1.33,3.2,5.38,4.21,6.26,7.77-1.6,1.39-3.55,1.27-5.47,1.2-8.31-.32-16.63-.3-24.94-.12-7.92.18-13.81-3.71-19.31-8.61-1.24-1.11-2.5-2.42-1.73-4.42Z"/>
        <path class="cls-23" d="M170.04,612.73c3.92-7.37,10.28-12.81,15.45-19.18,6.94-8.55,13.82-17.19,21.86-24.78-.32,10.18.78,20.28,2.29,30.3.54,3.6-1.54,4.32-3.55,5.68-12.02,2.66-24.04,5.32-36.05,7.97Z"/>
        <path class="cls-8" d="M521.69,356.59c.42-3.5.84-7.01,1.26-10.51,13.74-1.37,27.51-2.58,41.23-4.17,8.8-1.02,8.77-1.27,9.09,7.97-4.82,3.53-9.63,7.06-14.45,10.59-2.57,2.53-5.57,1.36-8.4.86-9.56-1.68-18.91-4.56-28.72-4.74Z"/>
        <path class="cls-25" d="M327.4,350c-2.6-5.57-5.2-11.14-7.8-16.71,12.19,3.41,24.88,3.37,37.26,5.43-2.37,3.5-.87,7.57-1.65,11.31-9.27-.01-18.54-.02-27.81-.03Z"/>
        <path class="cls-4" d="M544.64,386.13c2.76-4.46,7.79-5.99,11.65-9.02,8.37-2.11,13.61-.88,16.82,3.96-1.7,1.28-3.66,2.33-5.05,3.88-7.47,8.33-15.24,8.23-23.43,1.18Z"/>
        <path class="cls-26" d="M573.11,381.07c-5.17-3.17-11.28-2.39-16.82-3.96,5.69-4.21,11.27-8.59,17.79-11.52-.35,5.16,1.75,10.47-.96,15.48Z"/>
        <path class="cls-20" d="M696.55,282c-1.22-4.08-4-7.17-6.56-10.41,1.4-2.35,2.79-4.71,4.46-7.52,4.67,4.46,7.58,9.74,11.13,14.69-2.8,2.19-5.93,2.66-9.03,3.23Z"/>
        <path class="cls-6" d="M519.12,386.17c.4-3.85.8-7.69,1.2-11.54,5.5-3.61,10.99-3.67,16.49,0-3.59,3.96-8.47,6.04-12.89,8.79-.04,1.78-1.07,2.59-2.74,2.76-.69,0-1.38,0-2.07,0Z"/>
        <path class="cls-11" d="M521.19,386.18c.24-1.59,1.35-2.31,2.74-2.76,5.09,1.62,6.34,6.12,7.82,10.44-1.32,1.6-2.37,4.06-4.54.61-1.81-2.89-4-5.53-6.02-8.29Z"/>
        <path class="cls-19" d="M216.53,722.25c-.39-1.29.1-2.88-1.27-3.84.43-1.29.87-2.59,1.3-3.88,1.99,2.58,1.3,5.15-.03,7.72Z"/>
        <path class="cls-29" d="M382.12,85c-.61-.17-1.45-.68-1.81-.45-9.81,6.42-20.1,12.14-28.98,19.91-11.83,5.97-22.24,14.17-33.28,21.38-16.62,10.86-32.97,22.12-49.44,33.21-1.23.83-2.67,1.41-3.17,3-3.64,4.78-9.06,6.77-14.27,9.08-8.62,5.52-17.25,11.05-25.87,16.57,8.43-13.63,16.73-27.33,25.3-40.87,28.14-44.47,56.37-88.88,84.54-133.33.61-.96,2.12-1.79.89-3.29,2.17-2.48,3.31,0,4.61,1.06,4.46,3.6,8.85,7.29,13.26,10.94,15.75,13.71,31.45,27.48,47.31,41.06,3.38,2.9,4.22,4.59-.36,7.16-5.18,2.91-9.96,6.56-14.86,9.96-1.67,1.16-4.02,1.85-3.87,4.59Z"/>
        <path class="cls-14" d="M262.75,342.46c-10.03-8.28-18.52-18.16-27.93-27.09-2.31-2.19-4.7-4.3-7.05-6.45-4.31-19.09-8.14-38.25-8.74-57.9,1.67-2.67,1.72-5.35.6-8.32-.92-2.45-2.31-5.03-.68-7.78,3.7-2.17,4.56-4.97,3.08-9.18-2.35-6.67-4.59-13.39-6.67-20.15-.85-2.74-2.48-5.65-.25-8.56,2.59-2.58,5.17-5.15,7.76-7.73.42-.05.84-.08,1.26-.09,7.71,29.98,15.43,59.96,23.14,89.94,2.07,8.06,4.09,16.14,6.18,24.2.64,2.46,1.06,5.17,4.26,5.78-3.01,1.9-6.6,1.56-9.85,2.05-5.43.82-4.73,2.75-2.24,6.09,4.58,6.13,9.11,12.31,13.5,18.58,1.43,2.04,3.47,3.84,3.64,6.61Z"/>
        <path class="cls-2" d="M297.39,168.73c3.94-6,10.08-3.3,15.39-3.92,2.56,1.35,3.05,3.95,3.67,6.38,2.41,9.43,4.33,18.99,6.82,28.4.78,2.96-.09,5.88,0,8.82.8,4.84,2.59,9.51,2.43,14.5-5.95,3.56-12.05,5.97-18.93,2.5-.46-.04-.93-.08-1.39-.13-2.44-3.11-3.63-6.61-4.18-10.57-1.72-12.52-3.56-25.03-5.32-37.55-.41-2.94-1.09-6.01,1.49-8.45Z"/>
        <path class="cls-14" d="M297.39,168.73c1.99,18.95,4.95,37.77,7.99,56.57-7.22-5.35-11.98-13.02-18.18-19.34-4.08-4.17-6.99-9.61-12.97-11.67-.56-1.93,1-3.07,1.69-4.54,2.72-5.84-.2-10.12-6.59-9.75-1.79.11-3.59,1.55-5.39.03-2.55-2.94-5.09-5.87-7.64-8.81,4.74-5.77,11.54-3.61,17.53-4.53,2.65-.41,5.44,1.33,8.02-.49,3.64.47,7.22,2.04,10.95.35,2.29-1.04,3.33.89,4.59,2.19Z"/>
        <path class="cls-14" d="M323.28,208.41c-3.5-14.54-7-29.07-10.5-43.61.24-1.6,1.08-2.57,2.78-2.64,6.73-3.31,13.89-5.34,21.19-6.88,2.4-.51,5.01-1.67,7.16.76l-3.87,9.78c-.55,1.3-1.81,1.61-2.93,2.16-6.05,3.02-6.83,5.18-4.16,11.38.48,1.11,1.41,2.14.59,3.47-3.6,8.45-5.72,17.5-10.25,25.57Z"/>
        <path class="cls-33" d="M335.07,259.63c-6.03,6.48-14.21,9.96-21.19,15.12-1.26.93-2.86.94-4.28.24-7.45-3.69-14.88-7.41-22.3-11.15-1.09-.55-1.26-1.63-1.18-2.74.97-.47,2.01-.47,3.04-.47,4.76-.42,9.39.86,14,1.51,10.15,1.43,19.31-2.98,29.03-3.82,1.11.11,2.08.53,2.88,1.32Z"/>
        <path class="cls-3" d="M343.91,156.05c-9.67,1-18.52,5.83-28.35,6.12,8.7-6.75,17.45-13.43,26.06-20.28,2.27-1.81,3.65-1.69,4.86.92.35.77.87,1.46,1.3,2.19q4.91,8.18-3.87,11.05Z"/>
        <path class="cls-15" d="M288.66,261.44c-.85-.12-1.69-.23-2.54-.35,8.18-4.6,16.96-7.86,25.57-11.49,1.25-.53,2.4-.59,3.69-.11,7.33,2.69,15.12,4.12,22.05,7.94-2.67,1.54-5.83,1.02-8.63,2.02-13.3,2.26-26.64,3.75-40.15,2Z"/>
        <path class="cls-36" d="M333.53,182.84c-3.62-3.08-5.74-6.69-3.79-11.57,1.88-4.68,5.84-5.55,10.29-5.45,5.31,2.19,7.87,6.23,6.11,11.68-1.98,6.12-7.13,6.53-12.61,5.33Z"/>
        <path class="cls-12" d="M263.94,180.03c6.32-3.59,11.19-3.15,14.12,1.27,2.9,4.36,1.62,8.7-3.83,12.99-4.13.87-7.88.58-10.67-3.17-2.84-3.83-1.71-7.46.37-11.09Z"/>
        <path class="cls-31" d="M281.85,166.19c-5.57,4.62-12.62,1.73-18.76,3.67-2.15.68-4.69.03-6.8,1.35-1.7-.03-3.41-.05-5.11-.08,4.14-3.99,8.68-7.37,14.27-9.08,5.47,1.38,10.93,2.76,16.4,4.14Z"/>
        <path class="cls-21" d="M306.78,225.42c6.31-.83,12.62-1.67,18.93-2.5-1.65,2.17-3.14,4.48-4.97,6.49-6.42,7.03-10.71,5.77-13.97-3.98Z"/>
        <path class="cls-30" d="M329.48,258.55c2.51-1.39,5.28-.92,7.96-1.13,1.36,3.04-2.51.49-2.37,2.21-1.02.06-2.04.12-3.07.19-.68-.74-2.08-.06-2.52-1.27Z"/>
        <path class="cls-28" d="M191.84,358.97c9.55-3.32,19.09-6.69,28.67-9.91,1.64-.55,3.38-.63,3.65-2.81,5.25,7.49,10.61,14.9,15.69,22.5,2.83,4.24,6.13,6.18,11.54,6.01,14.06-.44,28.15-.17,42.23-.19.46.04.91.07,1.37.11-.04,9.39-.08,18.78-.13,28.17-5.03,5.71-6.02,11.7-1.24,18.08,2.56,5.87.75,12.05,1.33,18.06,1.21,4.57-5.45,4.94-4.91,8.81.49,3.49,5.78,4.66,4.98,9.07-.43,2.69.63,5.16,1.15,7.7-1.52,5.12-5.3,8.77-8.67,12.55-5.94,6.67-10.71,14.45-18.23,19.67-.85.47-1.71.94-2.56,1.42-.9-3.59-4.3-4.51-6.87-6.17-12.65-8.17-25.43-16.13-38.12-24.24-1.66-1.06-3.2-2.09-5.26-1.76-.51-12.71-4.65-24.73-7.15-37.05-4.28-21.14-9.05-42.17-13.84-63.2-.55-2.4.08-5.92-3.63-6.84Z"/>
        <path class="cls-25" d="M269.28,496.8c5.08-8.72,12.72-15.36,18.87-23.22,2.46-3.14,4.34-6.91,8.03-9,4.44,8.04,8.75,16.16,13.37,24.1,1.84,3.17,2.04,5.34-1.77,6.75-12.83.46-25.66.91-38.49,1.37Z"/>
        <path class="cls-37" d="M257.32,656.39c-14.32-4.5-28.56-9.2-42.3-15.28,15.36-.05,30.72-.11,46.07-.16,0,0,.52.28.52.28,1.57,5.9.39,11.03-4.29,15.17Z"/>
        <path class="cls-22" d="M306.73,724.37c.17-8.33,2.89-16.11,5.14-23.99.27.07.53.11.81.13,4.45,7.76,8.58,15.73,13.47,23.2,2.91,4.45,7.74,7.16,12.44,9.69,7.45,7.72,15.94,11.93,27.27,10.89,7.95-.73,16.22-1.42,24.18,1.07.06,1.92.03,3.86.21,5.77.29,3.12-1.16,4.1-4.13,4.07-12.63-.09-25.27-.11-37.9,0-3.23.03-4.96-2.03-7.01-3.9-5.5-5.02-11.1-9.93-16.65-14.87-.81,3.3-1.84,7.57-2.91,11.83-.82,3.25-1,6.51-6.15,6.24-5.35-.28-4.08-4.26-4.64-6.85-1.65-7.7-2.78-15.51-4.12-23.27Z"/>
        <path class="cls-28" d="M253.64,726.06c1.18,1.77,2.37,3.54,3.55,5.31,4.81,8.1,9.62,16.19,14.43,24.29-15.78-.02-31.57-.05-47.35-.06q-9.49-.01-8.94-9.4c12.77-6.71,25.54-13.42,38.31-20.13Z"/>
        <path class="cls-37" d="M300.12,656.46c-1.33-4.68-2.67-9.36-4-14.04,7.14-2.93,14.69-1.72,21.82-.99,7.41.76,14.76.54,22.13.93-12.78,6.23-26.67,9.28-39.94,14.11Z"/>
        <path class="cls-9" d="M215.1,197.03c3.12,9.99,5.91,20.09,9.47,29.92,2.14,5.91.8,8.48-5.42,8.53-1.32-.33-2.02-1.41-2.79-2.38-1-1.25-2.19-1.92-3.81-1.39-1.8.59-2.68,1.82-2.67,3.74,0,1.83.5,3.8-1.19,5.26-5.31,3.23-8.26,2.21-10.3-4.18-2.91-9.1-6.82-17.89-10.57-26.7-1.45-3.39-.88-4.92,2.76-5.87,8.22-2.15,16.37-4.61,24.54-6.94Z"/>
        <path class="cls-32" d="M208.68,240.72c-.02-.63.09-1.3-.08-1.89-1.15-4.1-2.84-7.78,3.68-9.56,6.61-1.81,5.17,3.54,6.86,6.2,1.06,3.19,1.95,6.44,3.22,9.54,1.48,3.6.71,5.64-3.34,6.01-5.2,2.29-7.8.52-8.51-5.06-.22-1.74-.17-3.88-1.84-5.24Z"/>
        <path class="cls-35" d="M293.63,420.92q-9.15-9.22,1.24-18.08c.94,1.14,1.85,2.31,2.83,3.42,5.67,6.51,4.49,10.79-4.07,14.66Z"/>
        <path class="cls-25" d="M295.03,456.88c-2.31-3.54-7.72-5.46-7.92-9.42-.19-3.88,5.82-4.94,7.85-8.46,2.97,1.52,4.29,4.58,6.45,6.85,2.22,2.34,1.88,4.02-.42,5.67-2.2,1.57-2.83,4.86-5.95,5.38Z"/>
        <path class="cls-34" d="M267.88,348.82c-2.35-1.63-4.8-3.17-5.18-6.39,2.53,1.48,4.75,3.21,5.18,6.39Z"/>
        <path class="cls-9" d="M536.81,374.62c-5.5,0-11,0-16.49,0,.46-6.02.91-12.03,1.37-18.05,1.63-2.58,3.73-2.57,6.59-1.96,10.13,2.16,20.35,3.93,30.54,5.84.55,2,5.49.09,3.73,3.55-1.76,3.47-1.64,8.83-7.35,9.26-6.13.47-12.25.9-18.38,1.35Z"/>
        <path class="cls-5" d="M329.48,258.55c.84.42,1.68.84,2.52,1.27-13.29,4.56-26.8,5.84-40.62,2.81-1.01-.22-2.14-.04-2.72-1.19,13.61-.96,27.21-1.92,40.82-2.89Z"/>
        <path class="cls-16" d="M212.02,221.58c-5.73-3.61-10.51-6.61-15.57-9.79,15.61-6.37,13.13-5.83,15.57,9.79Z"/>
      </g>
    </g>
  </g>
</svg>