<?xml version="1.0" encoding="UTF-8"?>
<svg xmlns="http://www.w3.org/2000/svg" version="1.1" viewBox="0 0 715.71 800">
  <defs>
    <style>
      .cls-1 {
        fill: #6f505f;
      }

      .cls-2 {
        fill: #e2c9b7;
      }

      .cls-3 {
        fill: #474747;
      }

      .cls-4 {
        fill: #856855;
      }

      .cls-5 {
        fill: #f9f8f8;
      }

      .cls-6 {
        fill: #e2dbe5;
      }

      .cls-7 {
        fill: #ab889b;
      }

      .cls-8 {
        fill: #bc987e;
      }

      .cls-9 {
        fill: #d9bca6;
      }

      .cls-10 {
        fill: #9c9fa0;
      }

      .cls-11 {
        fill: #555758;
      }

      .cls-12 {
        fill: #2d2c2c;
      }

      .cls-13 {
        fill: #8e657a;
      }

      .cls-14 {
        fill: #bc977e;
      }

      .cls-15 {
        fill: #705160;
      }

      .cls-16 {
        fill: #886a57;
      }

      .cls-17 {
        fill: #846754;
      }

      .cls-18 {
        fill: #464646;
      }

      .cls-19 {
        fill: #967d84;
      }

      .cls-20 {
        fill: #525455;
      }

      .cls-21 {
        fill: #876956;
      }

      .cls-22 {
        fill: #6e4f5e;
      }

      .cls-23 {
        fill: #4e3141;
      }

      .cls-24 {
        fill: #d1cbd4;
      }

      .cls-25 {
        fill: #c9a1b6;
      }

      .cls-26 {
        fill: #bb977e;
      }

      .cls-27 {
        fill: #4f5252;
      }

      .cls-28 {
        fill: #8d657a;
      }

      .cls-29 {
        fill: #6e7073;
      }

      .cls-30 {
        fill: #d0c0c4;
      }

      .cls-31 {
        fill: #494948;
      }

      .cls-32 {
        fill: #6e505e;
      }

      .cls-33 {
        fill: #ac899c;
      }

      .cls-34 {
        fill: #99776b;
      }

      .cls-35 {
        fill: #c8a1b6;
      }

      .cls-36 {
        fill: #2c2b2b;
      }

      .cls-37 {
        fill: #856754;
      }
    </style>
  </defs>
  <!-- Generator: Adobe Illustrator 28.7.1, SVG Export Plug-In . SVG Version: 1.2.0 Build 142)  -->
  <g>
    <g id="Layer_1">
      <g>
        <path class="cls-27" d="M322.24,11.2c3.47-2,6.81-4.26,10.82-5.11,1.73-.57,1.81.6,1.66,1.71-.34,2.48-1.9,4.41-3.17,6.44-27.63,44.07-55.68,87.87-83.57,131.76-8.94,14.07-17.59,28.34-26.91,42.18-.66.79-1.47,1.37-2.42,1.75-.65.2-1.31.26-1.98.2-25.12-7.75-50.18-15.73-75.34-23.38-3.5-1.06-6.99-2.13-11.38-3.18,12.64,20.25,24.96,39.64,37.39,58.95,3.92,6.08,7.59,12.32,11.69,18.28,2.42,3.51,3.02,7.13,1.35,11.18-13.86,33.64-28.09,67.13-42.15,100.69-.6,1.42-1.76,2.51-2.39,3.92-1.41,1.83-3.11.98-4.75.48-21.22-6.44-42.45-12.89-63.66-19.35-1.26-.38-2.46-.89-2.84-2.37,5.44-18.96,12.32-37.45,18.29-56.24,1.39-4.35,3.53-8.51,2.69-13.3,2.89.48,4.19-.9,5.08-3.6,10.79-32.72,21.63-65.42,32.61-98.08,1.18-3.52.47-5.19-3.08-6.12-4.64-1.22-9.21-2.68-13.78-4.16-1.31-.42-3.88-.02-2.6-2.9,12.49-11.2,27.41-18.82,41.38-27.79,48.13-30.89,96.43-61.53,144.82-92.01,9.27-5.84,18.38-11.92,28.16-16.89,1.52-.77,3.24-1.35,4.09-3.06Z"/>
        <path class="cls-9" d="M218.56,189.21c.41-.51.82-1.03,1.22-1.54,7.51-8.09,16.55-13.98,26.56-18.5,1.69-.24,3.36-.19,4.98.42,3.99,2.53,7.62,5.37,9.09,10.15.07.86-.07,1.71-.21,2.57-1.25,7.73.36,9.46,9.71,10.37,5.58,1.17,8.84,5.54,12.14,9.47,5.06,6.01,10.78,11.42,15.51,17.71,1.32,1.75,2.86,3.29,4.72,4.48.52.34.98.75,1.42,1.19,7.42,9.16,10.43,8.88,16.09-1.54.31-.57.34-1.25.34-1.91.13-4.45-1.9-8.68-1.39-13.16,3.4-8.97,5.38-18.52,10.9-26.63.18-.12.36-.3.56-.32,11.53-1.17,15.03-6.02,6.2-16.56-.48-4.18,1.54-7.48,3.73-10.73,1.51-2.48,7.76-1.74,4.76-7.34-2.48-4.64-4.25-5.32-8.56-2.14-7.88,5.81-15.42,12.09-23.46,17.69-1.28.93-2.52,1.92-3.98,2.56-4.99,1.27-10.34.86-15.07,3.32-5.53-.51-11.19.64-16.64-1.19-5.44-1.82-11.68-1.17-16.39-5.25-1.44-3.42,1.29-4.84,3.33-6.23,25.97-17.6,51.81-35.39,78.09-52.53,2.43-1.58,5.23-3.93,8.05-.3,3.66,12.9,4.19,26.28,6.12,39.44,2.63,17.93,4.72,35.95,7.31,53.89.78,5.42.45,10.82.89,16.21-.86,11.23,2.17,22.05,3.5,33.04,1.67,13.88,3.8,27.7,5.69,41.55.28,2.04.24,4.04-2.54,4.44-21.2,3.04-42,8.43-63.33,10.75-.89,1.96-2.52,3.01-4.54,3.37-15.88,2.84-31.76,5.71-47.74,7.91-.86.12-1.74-.07-2.6-.24-4.6-1.01-5.96-4.77-7.09-8.6-1.92-6.51-3.43-13.12-5.02-19.71-6.94-28.71-14.7-57.2-21.8-85.87-.83-3.35-2.24-6.72-.54-10.23Z"/>
        <path class="cls-22" d="M206.95,651.31c-.95-10.92-2.02-21.84-2.75-32.77-.2-2.98-.86-4.59-4.07-4.2,1.23-6.43.61-12.87-.2-19.25-.68-5.39-.93-10.74-.39-16.12.32-6.4,5.53-9.76,9.11-13.92,16.37-19.01,32.42-38.3,48.87-57.24,1.29-1.48,2.63-2.92,4.24-4.09,1.24-.85,2.58-1.42,4.08-1.58,12.57-.93,25.1-2.68,37.75-1.82,1.83.48,3.83.36,5.51,1.41,2.84,2.72,1.39,5.7.38,8.54-14.24,39.88-28.32,79.83-42.82,119.62-1.88,5.16-3.55,10.38-5.4,15.55-1.12,3.12-2.28,6.24-5.76,7.61-11.21,2-22.49.9-33.73.75-3.86-.05-7.8-.1-11.67-.58-1.31-.21-2.31-.93-3.16-1.9Z"/>
        <path class="cls-24" d="M381.9,750.23c14.32,1.49,28.65,2.91,42.96,4.5,17.34,1.94,34.67,3.99,52,6.07,14.26,1.71,28.51,3.53,42.75,5.98-13.18,1.51-26.36,3.04-39.54,4.53-17.99,2.04-35.98,4.09-53.97,6.1-17.35,1.94-34.7,3.83-52.04,5.77-13.01,1.45-26.01,2.97-39.03,4.42-14.52,1.62-29.05,3.18-43.58,4.8-6.07.68-12.19,1.1-18.17,2.25-7.08,1.36-13.44-1.51-19.97-2.88-46.63-9.76-93.2-19.85-139.78-29.86-.59-.13-1.1-.62-3.46-1.99,31.16-3.35,60.6-6.51,90.04-9.67,3.28,6.43,5.05,13.46,7.81,20.1,1.95,4.7,4.84,6.69,9.95,6.62,13.35-.19,26.7-.15,40.05-.02,4.87.05,7.57-1.52,6.95-6.79-2.06-6.98-6.94-12.34-10.46-18.48-1.62-2.83-4.52-5.76-.84-9.18,13.25-3.13,26.84-3.59,40.29-5.13,2.82-.32,5.68-.34,8.47-.89,3.53.38,3.67,3.35,4.2,5.83,1.26,5.79,1.96,11.68,2.94,17.52.31,1.88.63,4.27,3.15,4.4,2.61.13,2.82-2.38,3.45-4.15.89-2.48,1.25-5.12,2.14-7.6,2.11-5.9,4.28-6.59,8.96-2.57,4.33,3.71,8.19,7.94,12.2,11.99,2.93,2.96,6.24,4.59,10.5,4.56,9.87-.06,19.74-.09,29.61.02,4.58.05,7.23-1.41,6.5-6.46.5-4.03-5.54-5.35-4.08-9.77Z"/>
        <path class="cls-28" d="M256.39,651.36c4.93-13.29,9.96-26.55,14.76-39.88,12.65-35.13,25.21-70.29,37.77-105.46.36-1,.28-2.14.41-3.22.54-.5,1.15-.61,1.84-.34,6.18,6.12,9.02,14.33,13.24,21.64,6.44,11.15,12.87,22.31,19.01,33.63,1.46,2.69,3.17,5.29,2.42,8.61,1.35,13.73-1.17,27.34-.99,41.03.04,3.45.27,7.04-2.5,9.82-2.03,9-.93,18.19-1.56,27.27-.19,2.8.27,5.67-.97,8.35-.96.76-1.9,1.54-3.16,1.74-12.36,1.47-24.67-1.11-37.02-.54-2.38.11-4.78.07-7.13.54-11.54,1.6-22.91-.49-34.33-1.59-.75-.36-1.34-.9-1.78-1.6Z"/>
        <path class="cls-18" d="M135.83,356.6c.74-9.53,6.03-17.44,9.49-25.95,10.96-26.95,22.29-53.76,33.68-80.53,1.53-3.61-.13-5.7-1.8-8.31-16.62-25.99-33.18-52.02-49.74-78.05-.55-.87-1-1.81-2.13-3.85,8.58,2.53,16.08,4.61,23.5,6.95,22.12,6.95,44.21,14,66.3,21.05.78.25,1.43.92,2.15,1.4.28,5.4-4.58,6.48-7.61,9.11-6.28,3.19-13.27,4.3-19.87,6.57-6.99,2.41-7.21,2.59-4.41,9.72,2.55,6.51,5.48,12.89,7.69,19.51,1.69,5.09,4.44,7.72,9.93,6.82,1.08.38,2.15,1.07,2.33,2.13.9,5.29,4.6,7.91,9.07,9.9.29.84.18-.27.3.59,2.51,19.2,5.98,38.26,9.02,57.39-.66,1.88-1.37,3.7-3.92,3.36-11.88,3.88-22.19,10.96-33.32,16.38-17.04,8.3-33.78,17.2-50.65,25.84Z"/>
        <path class="cls-22" d="M354.37,342.17c39.02,1.33,78.05,2.66,117.07,3.99.81.38,1.68.4,2.56.44,6.84.26,7.57,1.14,5.93,7.79-2.15,8.7-4.39,17.39-6.89,26-.74,2.55-1.49,5.08-4.26,6.24-39.76,10.88-79.78,20.76-119.83,30.47-2.12-1.74-2.32-4.18-2.11-6.6,1.63-18.73,1.64-37.58,3.94-56.26.07-4.36-1.73-9.28,3.6-12.07Z"/>
        <path class="cls-7" d="M262.15,505.35c-19.35,22.6-38.69,45.2-58.04,67.8-1.13,1.32-2.55,2.45-2.69,4.38-3.09,7.43-9.17,12.58-14.25,18.45-7.79,9-14.33,19.15-23.92,26.52-1.36.38-1.37-.63-1.4-1.45-.89-25.35-1.73-50.7-2.67-76.04-.11-3.04.85-5.35,2.71-7.74,8.04-10.37,15.86-20.91,23.79-31.36,1.32-1.73,3.06-3.23,2.49-5.76,6.97-10.04,13.53-20.4,22.61-28.79,2.55-.8,4.71.22,6.79,1.5,13.73,8.48,27.28,17.25,40.86,25.96,2.18,1.39,5.42,2.71,3.71,6.54Z"/>
        <path class="cls-7" d="M352.68,353.74c-1.1,18.28-2.2,36.57-3.29,54.85-.17,2.83-.3,5.67-.45,8.51-.93,16.22-1.87,32.45-2.8,48.67.95,9.47-4.22,15.24-11.48,20.26-6.1,4.23-11.84,9.04-17.66,13.68-1.88,1.5-3.73,3.13-6.38,3.01h-.65s-.65.06-.65.06c-1.73-.1-3.45-.2-5.18-.31.61-3.53-.35-6.54-2.12-9.72-3.98-7.14-8.55-13.99-11.6-21.64-.86-2.47-1.46-4.96-.53-7.55,8.65-6.86,5.23-13.47-.47-20.02-1.04-5.35-.79-10.74-.71-16.13,8.52-6.95,5.51-14.15.42-21.41-.75-8.53-1.11-17.05.18-25.56.23-.69.6-1.32,1.06-1.89,3.44-2.76,7.74-2.96,11.78-3.67,4.9-.86,8.24-3.38,11.08-7.4,3.75-5.29,6.03-11.81,12.08-15.32,9.19-.71,18.46-2.93,27.35,1.55Z"/>
        <path class="cls-22" d="M210.74,472.44c-6.34,8.36-12.69,16.71-19,25.09-.94,1.25-1.85,2.45-3.57,2.61-12.71-7.72-25.33-15.6-38.19-23.05-3.87-2.24-4.8-4.52-4.06-8.9,5.54-32.79,10.78-65.63,16.11-98.46,7.36-4.85,15.35-7.85,24.24-8.21,3.81,1.19,4.45,4.57,5.17,7.76,6.93,30.8,13.54,61.68,20.35,92.51.8,3.6,1.84,7.36-1.06,10.66Z"/>
        <path class="cls-25" d="M310.64,502.73c7.13-6.97,15.36-12.6,23.26-18.6,6.28-4.77,12.08-9.62,12.26-18.36-1.06,8.32,2.78,15.3,6.16,22.37,11.13,23.29,22.26,46.58,33.54,69.79,3.81,7.84.29,15.46-.39,23.08-1.13,12.79-3.29,25.49-4.96,38.24-.29,2.21-.68,4.32-2.38,5.94-6.71-6.83-10.08-15.75-14.75-23.84-5.46-9.47-10.79-19.03-16.21-28.53-1.44-2.53-2.43-5.12-2.35-8.06-10.84-19.5-21.68-39-32.51-58.5-.63-1.13-1.12-2.35-1.67-3.52Z"/>
        <path class="cls-18" d="M322.24,11.2c.24,3.06-2.57,3.41-4.28,4.5-39.15,24.9-78.37,49.7-117.54,74.58-31.04,19.72-62.01,39.54-93.04,59.28-1.06.68-2.39.94-3.59,1.4,8.96-16.49,17.94-32.96,26.86-49.47,1.26-2.34,3.47-3.2,5.63-4.23,11.21-5.33,22.43-10.66,33.65-15.98,1.24-2.93,4.08-3.87,6.6-5.01,11.92-5.4,23.69-11.13,35.63-16.51,2.41-1.09,4.92-1.7,7.6-1.28,14.58-6.79,29.48-12.91,43.58-20.71,14.51-5.59,28.46-12.38,42.25-19.53,5.55-2.34,11.11-4.69,16.66-7.03Z"/>
        <path class="cls-18" d="M364.57,212.8c-3.52-7.5-3.11-15.74-4.23-23.65-4.08-28.85-7.78-57.76-11.63-86.64-.82-3.07,1.61-4.26,3.46-5.55,7.09-4.95,14.25-9.8,21.6-14.33,1.89-1.17,4.3-3.73,6.44-.03,1.55,2.16,3.1,4.32,4.65,6.47,4.96,7.98,9.78,16.06,14.96,23.89,2.03,3.06,2.28,5.5.87,9-12.18,30.22-24.11,60.54-36.12,90.84Z"/>
        <path class="cls-18" d="M85.56,265.82c1.74,1.15,3.58,1.88,2.55,4.88-7.07,20.68-13.95,41.43-20.85,62.17-.47,1.4-1.21,2.28-2.68,2.49-19.61-26.36-39.21-52.72-60.01-80.68,28.11,3.86,54.55,7.5,80.99,11.13Z"/>
        <path class="cls-17" d="M252.92,311.9c18.32-3.11,36.65-6.21,54.97-9.32.15,4.47-2.71,8.57-1.57,13.16-3.12,20.01-8.5,39.53-13.05,59.23-.35,1.53-1.23,2.77-2.29,3.89l.1.1c-.52.39-1.1.54-1.74.44-9.93-7.78-18.33-17.17-27.32-25.95-.88-2.68-2.93-4.51-4.76-6.5-.43-.49-.77-1.02-1.08-1.59-4.68-7.64-10.82-14.22-15.72-21.69-1.76-2.68-4.66-5.47-2.6-8.82,2.16-3.53,6.37-3.25,10.05-3.39,1.67-.06,3.23,1.51,5.03.44Z"/>
        <path class="cls-10" d="M701.9,284.13c-11.69,9.61-24.76,17.23-37.22,25.71-28.64,19.49-57.51,38.64-86.26,57.95-.71.47-1.22,1.24-1.82,1.87-4.49,6-11.6,8.54-17.17,13.12-4.22,2.78-7.92,6.44-12.95,7.9-5.36,1.03-8.97,4.98-13.19,7.91-3.63-2.95-5.85-6.97-8.3-10.83,3-5.45,8.89-7.03,13.61-10.2,5.15-1.1,10.34-1.84,15.61-2.19,6.7-.45,8.85-4.44,6.11-10.75,3.12-6.52,8.88-9.33,15.45-11.03,17.02-9.97,32.68-21.98,49.16-32.77,23.62-15.47,46.28-32.38,70.25-47.33,5.63,1.96,7.46,4.86,6.71,10.65Z"/>
        <path class="cls-22" d="M263.34,352.5c7.19,6.98,14.4,13.94,21.55,20.97,1.7,1.68,3.19,3.57,4.78,5.36-2.1,2.53-5.07,2.29-7.86,2.31-11.79.11-23.58-.06-35.36.08-5.75.07-10.12-1.92-13.3-6.75-5.03-7.66-10.82-14.81-15.47-22.72-2.69-4.97-8.73-8.35-7.32-15.29,2.84-7.49,7.35-14.27,9.43-22.09.84-.9,1.67-1.8,2.51-2.7,2.6-1.29,4.13.66,5.58,2.09,10.47,10.36,21.32,20.38,30.21,32.22l-.04-.04c1.52,2.38,3.78,4.16,5.29,6.54Z"/>
        <path class="cls-28" d="M468.78,386.63c3.26-11.73,6.46-23.47,9.82-35.16.82-2.85.17-4.18-2.85-4.19-1.52,0-3.08.07-4.31-1.11,15.05.06,29.89-2.25,44.78-3.98,8.55-.99,8.54-1.03,8.07,7.51,3.13,3.44.44,7.34.91,11,.2,6.08-.98,12.04-1.71,18.03.09,4.29-.32,8.45-3.12,11.99.22,5.52-1.92,6.71-7.42,5.39-14.63-3.53-29.44-6.36-44.17-9.47Z"/>
        <path class="cls-14" d="M206.95,651.31c.77.07,1.54.14,2.31.22,13.52,2.12,25.84,8.09,38.75,12.18,2.09.66,4.13,1.53,5.36,3.57.47,1.26.57,2.59.24,3.84-4.03,15.28-7.23,30.79-12.71,45.68-5.94,6.23-22.25,10.22-28.82,7.07-1.71-24.18-3.41-48.36-5.12-72.55Z"/>
        <path class="cls-14" d="M337.19,652.81c.88,0,1.75,0,2.63,0-.09,17.59-1.52,35.12-2.63,52.66-2.26,3.25-5.93,3.08-9.22,3.78-6.09,1.29-12.15,2.74-18.32,3.63-.75-.03-1.43-.27-2.04-.68-2.41-2.46-3.01-5.74-3.93-8.86-2.71-9.2-5.02-18.52-7.7-27.73-.78-2.7-1.8-5.43-.51-8.28,1.56-2.38,4.15-3.08,6.59-4.03,11.42-4.44,23.12-7.98,35.13-10.48Z"/>
        <path class="cls-9" d="M309.16,712.3c4.85-4.56,11.56-2.84,17.17-5.03,3.34-1.31,7.22-1.25,10.86-1.8,7.85,8.32,15.69,16.63,23.54,24.95-7.49,6.92-15.83,12.56-25.19,16.66-4.88-.68-8.55-3.8-11.54-7.11-6.65-7.36-10.82-16.39-15.26-25.18-.41-.81-.07-1.71.43-2.48Z"/>
        <path class="cls-22" d="M290.98,378.86c-.22-7.78,2.93-14.94,4.38-22.4,2.38-12.17,5.78-24.15,8.64-36.23.42-1.76.71-3.42,2.32-4.49,3.31,6.96,6.62,13.92,9.92,20.88,5.02,4.6,8.81,9.77,7.98,17.09-4.11,6.43-8.24,12.86-12.32,19.31-2.06,3.25-5.52,3.17-8.69,3.75-4.07.74-8.16,1.39-12.23,2.08Z"/>
        <path class="cls-23" d="M344.81,564.76c10.61,18.72,21.23,37.44,31.79,56.19.73,1.29,1.02,2.82,1.52,4.25-11.92-2.67-23.85-5.34-35.77-8.01-.82-16.51,1.84-32.93,1.47-49.43-.02-.99.64-1.99.99-2.99Z"/>
        <path class="cls-7" d="M210.37,336.47c1.62,5.16,5.63,8.84,8.25,13.39,1.5,2.98-.81,3.99-2.76,4.69-9.88,3.56-19.53,8.02-30.31,8.33-8.11,1.35-15.27,5.95-23.51,6.85-.88-5.54,1.19-10.79,1.64-16.21.3-3.67,2.49-5.45,6.23-6.36,13.56-3.29,27.23-6.15,40.46-10.68Z"/>
        <path class="cls-9" d="M212.07,723.86c9.51-1.37,19.26-1.93,27.44-7.92,4.17,7.13,8.75,14.08,9.93,22.54-3.48,5.26-9.66,6.5-14.58,9.59-6.09,3.83-12.79,6.63-19.06,10.21-2.3,1.31-4.96,3.37-7.61.3-2.19-7.76.35-15.31,1.02-22.93.42-3.02,2.73-5.7,1.64-8.99.41-.93.82-1.86,1.23-2.79Z"/>
        <path class="cls-1" d="M210.8,734.55c-.41,8.16-.82,16.32-1.23,24.48,2.25,6.63,7.34,7.37,13.49,7.19,11.38-.34,22.77-.1,34.15-.09,3.56,0,7.01.26,9.95,2.59q.62,10.04-9.24,10.04c-13.58,0-27.19-.4-40.75.17-6.69.28-10.02-2-11.69-8.27-1.17-4.41-3.16-8.62-4.93-12.86-1.05-2.52-1.5-4.97-.45-7.56,3.13-6.54,6.26-13.08,9.39-19.62,3.15.41,1.49,2.41,1.3,3.93Z"/>
        <path class="cls-13" d="M335.67,745.94c8.34-5.21,15.83-11.77,25.06-15.53,6.95,6.72,13.56,13.8,21.17,19.81,1.36,3.27,5.5,4.31,6.4,7.95-1.64,1.43-3.63,1.3-5.59,1.22-8.5-.33-17.02-.31-25.51-.12-8.1.18-14.12-3.79-19.76-8.81-1.27-1.13-2.56-2.48-1.77-4.52Z"/>
        <path class="cls-23" d="M163.24,622.49c4.01-7.55,10.52-13.1,15.81-19.62,7.1-8.75,14.14-17.58,22.37-25.35-.33,10.42.8,20.75,2.34,31,.55,3.68-1.58,4.42-3.63,5.81-12.3,2.72-24.59,5.44-36.89,8.16Z"/>
        <path class="cls-8" d="M523,360.44c.43-3.58.86-7.17,1.29-10.75,14.06-1.4,28.14-2.64,42.18-4.26,9.01-1.04,8.98-1.3,9.3,8.15-4.93,3.61-9.86,7.22-14.79,10.83-2.63,2.59-5.69,1.39-8.6.88-9.78-1.72-19.35-4.66-29.38-4.85Z"/>
        <path class="cls-25" d="M324.23,353.71c-2.66-5.7-5.32-11.4-7.99-17.09,12.47,3.49,25.45,3.44,38.12,5.56-2.43,3.59-.89,7.75-1.69,11.57-9.48-.01-18.97-.02-28.45-.03Z"/>
        <path class="cls-4" d="M546.48,390.67c2.82-4.56,7.97-6.12,11.92-9.23,8.56-2.16,13.93-.9,17.21,4.05-1.74,1.31-3.74,2.38-5.17,3.97-7.64,8.53-15.6,8.42-23.97,1.2Z"/>
        <path class="cls-26" d="M575.61,385.49c-5.29-3.25-11.54-2.45-17.21-4.05,5.82-4.31,11.53-8.79,18.2-11.79-.36,5.28,1.79,10.71-.99,15.84Z"/>
        <path class="cls-20" d="M701.9,284.13c-1.24-4.18-4.09-7.34-6.71-10.65,1.43-2.41,2.86-4.82,4.56-7.69,4.78,4.56,7.75,9.96,11.39,15.03-2.86,2.24-6.07,2.73-9.24,3.31Z"/>
        <path class="cls-6" d="M520.37,390.72c.41-3.94.82-7.87,1.23-11.81,5.62-3.7,11.25-3.76,16.87,0-3.67,4.05-8.67,6.18-13.19,8.99-.05,1.82-1.1,2.64-2.8,2.83-.71,0-1.41,0-2.12,0Z"/>
        <path class="cls-11" d="M522.49,390.72c.24-1.63,1.38-2.36,2.8-2.83,5.21,1.66,6.49,6.26,8,10.68-1.35,1.64-2.43,4.15-4.64.62-1.85-2.95-4.09-5.66-6.16-8.48Z"/>
        <path class="cls-19" d="M210.8,734.55c-.4-1.32.11-2.94-1.3-3.93.44-1.32.89-2.65,1.33-3.97,2.04,2.64,1.33,5.27-.03,7.9Z"/>
        <path class="cls-29" d="M380.22,82.59c-.63-.17-1.49-.69-1.85-.46-10.04,6.57-20.57,12.42-29.65,20.37-12.1,6.11-22.75,14.5-34.04,21.88-17,11.11-33.73,22.64-50.58,33.98-1.25.84-2.73,1.44-3.24,3.07-3.72,4.89-9.27,6.93-14.6,9.29-8.82,5.65-17.65,11.3-26.47,16.95,8.62-13.94,17.12-27.96,25.88-41.81,28.78-45.5,57.67-90.93,86.49-136.4.62-.98,2.17-1.83.91-3.37,2.22-2.54,3.38,0,4.72,1.08,4.56,3.68,9.05,7.45,13.57,11.19,16.12,14.02,32.18,28.11,48.4,42.01,3.46,2.96,4.31,4.7-.36,7.33-5.3,2.98-10.19,6.71-15.2,10.19-1.71,1.19-4.11,1.9-3.96,4.69Z"/>
        <path class="cls-14" d="M258.09,346c-10.27-8.47-18.95-18.58-28.58-27.71-2.36-2.24-4.8-4.4-7.21-6.6-4.41-19.53-8.33-39.14-8.94-59.24,1.71-2.73,1.76-5.47.62-8.51-.94-2.5-2.36-5.15-.69-7.96,3.78-2.22,4.66-5.09,3.15-9.39-2.4-6.82-4.7-13.7-6.83-20.62-.87-2.81-2.54-5.78-.26-8.76,2.65-2.64,5.29-5.27,7.94-7.91.43-.05.86-.08,1.28-.09,7.89,30.67,15.79,61.34,23.67,92.02,2.12,8.25,4.18,16.52,6.33,24.76.65,2.52,1.08,5.29,4.36,5.91-3.08,1.95-6.75,1.59-10.08,2.1-5.55.84-4.84,2.82-2.29,6.23,4.69,6.27,9.32,12.6,13.81,19.01,1.46,2.09,3.55,3.93,3.72,6.76Z"/>
        <path class="cls-2" d="M293.53,168.25c4.03-6.13,10.32-3.38,15.74-4.01,2.62,1.38,3.12,4.05,3.76,6.53,2.47,9.65,4.43,19.43,6.98,29.06.8,3.03-.09,6.02,0,9.02.82,4.95,2.65,9.73,2.49,14.84-6.09,3.65-12.33,6.11-19.37,2.56-.47-.04-.95-.09-1.42-.13-2.5-3.18-3.71-6.76-4.27-10.82-1.76-12.81-3.65-25.61-5.44-38.41-.42-3-1.12-6.14,1.53-8.64Z"/>
        <path class="cls-14" d="M293.53,168.25c2.04,19.39,5.06,38.64,8.18,57.87-7.39-5.47-12.26-13.32-18.6-19.79-4.18-4.26-7.15-9.84-13.27-11.94-.57-1.98,1.02-3.14,1.72-4.65,2.78-5.97-.21-10.36-6.74-9.97-1.83.11-3.68,1.58-5.52.03-2.61-3-5.21-6.01-7.82-9.01,4.85-5.9,11.81-3.69,17.94-4.63,2.71-.42,5.57,1.36,8.2-.5,3.72.48,7.38,2.09,11.2.35,2.34-1.07,3.41.91,4.7,2.24Z"/>
        <path class="cls-14" d="M320.01,208.85c-3.58-14.87-7.16-29.74-10.74-44.61.24-1.64,1.11-2.63,2.84-2.7,6.89-3.39,14.21-5.46,21.68-7.04,2.46-.52,5.12-1.71,7.32.78-1.32,3.34-2.64,6.67-3.96,10.01-.56,1.33-1.86,1.64-2.99,2.21-6.19,3.09-6.99,5.29-4.26,11.64.49,1.14,1.44,2.19.6,3.55-3.68,8.65-5.85,17.9-10.49,26.16Z"/>
        <path class="cls-33" d="M332.08,261.25c-6.17,6.63-14.53,10.19-21.67,15.47-1.29.96-2.93.96-4.38.24-7.62-3.77-15.22-7.58-22.82-11.41-1.12-.56-1.29-1.66-1.21-2.81.99-.48,2.05-.48,3.11-.48,4.87-.43,9.61.88,14.32,1.55,10.38,1.46,19.76-3.05,29.7-3.91,1.14.11,2.13.55,2.95,1.35Z"/>
        <path class="cls-3" d="M341.12,155.28c-9.9,1.03-18.95,5.96-29,6.26,8.9-6.9,17.85-13.74,26.66-20.75,2.32-1.85,3.73-1.73,4.97.94.36.79.89,1.5,1.33,2.24q5.02,8.37-3.96,11.31Z"/>
        <path class="cls-15" d="M284.59,263.1c-.87-.12-1.73-.24-2.59-.36,8.37-4.7,17.35-8.05,26.16-11.76,1.28-.54,2.46-.6,3.78-.11,7.5,2.75,15.47,4.21,22.56,8.12-2.74,1.57-5.96,1.04-8.83,2.07-13.61,2.31-27.26,3.84-41.07,2.04Z"/>
        <path class="cls-36" d="M330.5,182.69c-3.71-3.15-5.87-6.85-3.87-11.83,1.92-4.78,5.98-5.68,10.53-5.57,5.43,2.24,8.05,6.37,6.25,11.95-2.03,6.26-7.3,6.68-12.9,5.45Z"/>
        <path class="cls-12" d="M259.31,179.81c6.46-3.67,11.44-3.22,14.45,1.3,2.96,4.46,1.66,8.9-3.92,13.29-4.22.89-8.06.6-10.91-3.24-2.91-3.92-1.75-7.63.38-11.34Z"/>
        <path class="cls-31" d="M277.63,165.66c-5.7,4.72-12.92,1.77-19.19,3.76-2.2.7-4.8.03-6.95,1.38-1.74-.03-3.49-.05-5.23-.08,4.24-4.08,8.88-7.54,14.6-9.29,5.59,1.41,11.19,2.82,16.78,4.23Z"/>
        <path class="cls-21" d="M303.13,226.25c6.46-.85,12.91-1.71,19.37-2.56-1.68,2.22-3.21,4.59-5.08,6.64-6.57,7.19-10.96,5.91-14.29-4.08Z"/>
        <path class="cls-30" d="M326.35,260.15c2.57-1.43,5.4-.94,8.14-1.16,1.39,3.11-2.57.5-2.42,2.26-1.04.06-2.09.13-3.14.19-.69-.76-2.12-.06-2.58-1.3Z"/>
        <path class="cls-28" d="M185.55,362.88c9.77-3.4,19.53-6.84,29.33-10.14,1.68-.56,3.46-.64,3.74-2.88,5.37,7.66,10.85,15.24,16.05,23.02,2.9,4.33,6.28,6.32,11.81,6.15,14.39-.45,28.8-.18,43.2-.19.47.04.93.08,1.4.11-.04,9.61-.09,19.21-.13,28.82-5.15,5.84-6.16,11.97-1.27,18.5,2.62,6,.76,12.33,1.36,18.48,1.23,4.68-5.57,5.05-5.02,9.02.5,3.57,5.91,4.76,5.1,9.28-.43,2.75.64,5.28,1.18,7.88-1.56,5.24-5.42,8.98-8.87,12.84-6.08,6.82-10.96,14.79-18.65,20.12-.87.48-1.75.97-2.62,1.45-.92-3.67-4.4-4.62-7.03-6.31-12.94-8.35-26.02-16.5-39-24.8-1.69-1.08-3.27-2.14-5.38-1.8-.52-13-4.76-25.3-7.31-37.91-4.38-21.62-9.26-43.15-14.16-64.66-.56-2.46.08-6.06-3.72-6.99Z"/>
        <path class="cls-25" d="M264.77,503.9c5.2-8.92,13.02-15.72,19.31-23.76,2.51-3.21,4.44-7.07,8.21-9.21,4.54,8.23,8.95,16.53,13.68,24.66,1.89,3.24,2.08,5.46-1.81,6.9-13.13.47-26.25.94-39.38,1.4Z"/>
        <path class="cls-37" d="M252.54,667.16c-14.65-4.6-29.22-9.41-43.28-15.64,15.71-.06,31.43-.11,47.14-.17,0,0,.53.29.53.29,1.6,6.04.4,11.28-4.39,15.52Z"/>
        <path class="cls-22" d="M303.08,736.71c.18-8.52,2.95-16.48,5.26-24.55.27.07.55.11.83.13,4.55,7.94,8.78,16.09,13.78,23.73,2.98,4.55,7.92,7.32,12.73,9.92,7.62,7.9,16.31,12.21,27.9,11.14,8.14-.75,16.6-1.45,24.74,1.09.06,1.97.03,3.95.22,5.9.29,3.19-1.19,4.19-4.23,4.17-12.93-.09-25.85-.11-38.78,0-3.31.03-5.07-2.07-7.17-3.99-5.63-5.13-11.36-10.16-17.03-15.21-.83,3.38-1.88,7.75-2.97,12.1-.84,3.32-1.03,6.66-6.29,6.39-5.48-.28-4.18-4.35-4.74-7.01-1.69-7.88-2.85-15.87-4.21-23.81Z"/>
        <path class="cls-28" d="M248.77,738.44c1.21,1.81,2.42,3.62,3.63,5.43,4.92,8.28,9.84,16.56,14.76,24.85-16.15-.02-32.3-.05-48.44-.07q-9.71-.01-9.15-9.62c13.07-6.87,26.13-13.73,39.2-20.59Z"/>
        <path class="cls-37" d="M296.32,667.24c-1.37-4.79-2.73-9.58-4.1-14.37,7.3-3,15.03-1.76,22.33-1.01,7.58.78,15.1.55,22.64.95-13.07,6.37-27.29,9.5-40.87,14.43Z"/>
        <path class="cls-9" d="M209.34,197.21c3.19,10.22,6.05,20.55,9.69,30.61,2.19,6.05.81,8.68-5.55,8.73-1.35-.34-2.06-1.44-2.86-2.43-1.02-1.27-2.24-1.96-3.9-1.42-1.84.6-2.74,1.86-2.74,3.83,0,1.88.51,3.89-1.22,5.38-5.44,3.3-8.45,2.26-10.54-4.27-2.98-9.31-6.98-18.31-10.82-27.32-1.48-3.47-.9-5.03,2.82-6,8.41-2.2,16.74-4.72,25.11-7.1Z"/>
        <path class="cls-32" d="M202.77,241.91c-.02-.64.09-1.33-.08-1.93-1.18-4.19-2.91-7.95,3.77-9.78,6.76-1.85,5.29,3.62,7.02,6.34,1.08,3.26,2,6.59,3.3,9.76,1.51,3.68.72,5.77-3.42,6.14-5.32,2.34-7.98.54-8.7-5.18-.22-1.78-.18-3.97-1.88-5.36Z"/>
        <path class="cls-35" d="M289.68,426.27q-9.36-9.43,1.27-18.5c.96,1.17,1.9,2.36,2.89,3.5,5.8,6.66,4.59,11.04-4.16,15Z"/>
        <path class="cls-25" d="M291.11,463.05c-2.36-3.62-7.9-5.59-8.1-9.64-.2-3.97,5.95-5.06,8.03-8.66,3.04,1.56,4.39,4.68,6.59,7,2.27,2.39,1.93,4.11-.43,5.8-2.25,1.61-2.89,4.97-6.09,5.5Z"/>
        <path class="cls-34" d="M263.34,352.5c-2.4-1.66-4.91-3.25-5.29-6.54,2.59,1.51,4.86,3.28,5.29,6.54Z"/>
        <path class="cls-9" d="M538.48,378.9c-5.62,0-11.25,0-16.87,0,.47-6.15.93-12.31,1.4-18.46,1.67-2.64,3.82-2.63,6.74-2.01,10.37,2.21,20.82,4.02,31.24,5.98.56,2.05,5.61.09,3.82,3.63-1.8,3.55-1.68,9.03-7.52,9.48-6.27.48-12.54.92-18.81,1.38Z"/>
        <path class="cls-5" d="M326.35,260.15c.86.43,1.72.86,2.58,1.3-13.6,4.67-27.42,5.97-41.55,2.87-1.03-.23-2.19-.04-2.79-1.21,13.92-.98,27.84-1.97,41.76-2.95Z"/>
        <path class="cls-16" d="M206.19,222.32c-5.87-3.69-10.75-6.76-15.93-10.02,15.97-6.51,13.44-5.97,15.93,10.02Z"/>
      </g>
    </g>
  </g>
</svg>