<?xml version="1.0" encoding="UTF-8"?>
<svg xmlns="http://www.w3.org/2000/svg" version="1.1" viewBox="0 0 636.44 799">
  <defs>
    <style>
      .cls-1 {
        fill: #ab899c;
      }

      .cls-2 {
        fill: #e2c9b7;
      }

      .cls-3 {
        fill: #735f84;
      }

      .cls-4 {
        fill: #8e8e8e;
      }

      .cls-5 {
        fill: #8d6579;
      }

      .cls-6 {
        fill: #c3a690;
      }

      .cls-7 {
        fill: #544362;
      }

      .cls-8 {
        fill: #ab889b;
      }

      .cls-9 {
        fill: #bc987e;
      }

      .cls-10 {
        fill: #d9bca6;
      }

      .cls-11 {
        fill: #735f83;
      }

      .cls-12 {
        fill: #8a779b;
      }

      .cls-13 {
        fill: #8e657a;
      }

      .cls-14 {
        fill: #bc977e;
      }

      .cls-15 {
        fill: #886a57;
      }

      .cls-16 {
        fill: #464646;
      }

      .cls-17 {
        fill: #e3dce6;
      }

      .cls-18 {
        fill: #876956;
      }

      .cls-19 {
        fill: #6e4f5e;
      }

      .cls-20 {
        fill: #cdc7d0;
      }

      .cls-21 {
        fill: #ab899b;
      }

      .cls-22 {
        fill: #a78c7b;
      }

      .cls-23 {
        fill: #4e3141;
      }

      .cls-24 {
        fill: #a088b5;
      }

      .cls-25 {
        fill: #8d657a;
      }

      .cls-26 {
        fill: #e4dee8;
      }

      .cls-27 {
        fill: #2e2d2d;
      }

      .cls-28 {
        fill: #6e7073;
      }

      .cls-29 {
        fill: #2d2d2c;
      }

      .cls-30 {
        fill: #fcfcfc;
      }

      .cls-31 {
        fill: #474646;
      }

      .cls-32 {
        fill: #4f3242;
      }

      .cls-33 {
        fill: #856755;
      }

      .cls-34 {
        fill: #856754;
      }
    </style>
  </defs>
  <!-- Generator: Adobe Illustrator 28.7.1, SVG Export Plug-In . SVG Version: 1.2.0 Build 142)  -->
  <g>
    <g id="Layer_1">
      <g id="Layer_1-2" data-name="Layer_1">
        <g>
          <path class="cls-10" d="M296.18,110.1c1.67,17.43,5.73,34.45,8.74,51.65,4.87,27.87,10.15,55.68,15.19,83.52.38,2.09,1.05,4.46-1.27,6.09-3.25-.79-6.09.71-9.03,1.67-15.99,4.67-32.61,5.71-48.93,8.31-23.33,3.72-46.64,7.63-70.11,10.54-1.97.24-3.93.64-5.93.45-6.37-.57-7.37-5.64-8.43-10.4-4.31-19.48-8.37-39.03-12.34-58.59-8.12-40-16.37-79.95-28.67-118.93-.73-2.32-1.41-4.67-1.17-7.17,1.21-3.33,4.06-2.8,6.68-2.87,11.73-.29,23.36,1.26,35.03,1.91,20.26,1.12,40.49,2.56,60.75,3.54,3.14.48,5.51-1.39,7.95-2.83,7.62-4.52,15.35-8.86,22.94-13.42,3.09-1.85,6.29-3.66,9.68-.46,7.67,15.12,14.16,30.72,18.92,47.02v-.03Z"/>
          <path class="cls-12" d="M561.64,447.52c-2.19,2.15-1.6,4.93-1.6,7.54-.02,56.46-.02,112.92-.02,169.38-.22.58-.63.84-1.25.82-7.97,5.7-14.59,12.91-20.86,20.22-9.82,11.45-20.63,21.96-31,32.84-15.59,16.34-31.19,32.69-46.88,48.93-13.99,14.48-27.83,29.13-41.52,43.91-1.5,1.63-3.08,3.2-4.87,4.51-2.81,2.05-4.9,1.73-5.97-1.89-2.06-6.09,1.47-11.66,1.46-17.67-.21-79.66-.14-159.32-.15-238.97,1.12-4.5,4.03-2.37,6.15-1.36,4.01,1.91,7.53,4.68,11.14,7.26,41.01,29.28,82.26,58.19,123.36,87.34,1.77,1.26,3.41,2.86,6.12,3.23,1.42-2.35.79-5.03.79-7.54.04-48.84.02-97.68.05-146.52,0-3.74-.55-7.57,1.18-11.15,1.04-1.38,2.24-2.04,3.85-.89h.02Z"/>
          <path class="cls-14" d="M135.26,78.3c5.84,14.16,9.28,29.05,13.14,43.79,11.78,44.96,19.46,90.83,29.65,136.14.97,4.31-.72,10.9,6.51,12.18-.37,3.09-2.96,2.92-5.01,3.21-5.24.76-10.47,1.68-15.57,2.06,23.42,9.77,46.99,19.65,70.48,29.73,2.19.93,6.91,1.6,3.45,6.2-3.22,1.71-6.74,2.31-10.28,2.31-22.99,0-45.85,2.99-68.85,3.05-9.67.02-19.35,1.43-29.07,1.04-2.62.52-4.83-.02-6.32-2.44-1.77-16.07-6.95-31.43-9.98-47.24-.91-4.75-2.25-9.41-3.38-14.11,1.54-13.97,3.86-27.84,5.5-41.79,4.72-5.5,5.67-11.76,3.65-18.6,1.23-3.88,4.56-5.91,7.49-8.2,4.37-3.42,4.93-7.11,2.54-12.18-8.12-17.23-15.95-34.58-24.01-51.84-.84-1.81-1.77-3.58-2.03-5.6-.24-2.88,1.31-5.06,2.96-7.13,7.26-9.11,14.84-17.96,22.16-27.03,1.38-1.7,2.94-3.3,5.11-4.05.67-.1,1.28.05,1.82.48h.02Z"/>
          <path class="cls-24" d="M143.01,680.68c-5.27-25.11-10.55-50.22-15.8-75.33-.59-2.81-1.05-5.66-1.56-8.49-1.3-3.49-.7-6.96.02-10.44,3.54-17.09,6.03-34.39,10.39-51.31.15-.71.43-1.36.84-1.96.44-.57,1.03-.89,1.74-.99,7.31,3.02,12.39,9.06,18.3,13.92,26.81,22.05,53.23,44.56,80.11,66.52,1.21.98,2.45,1.92,2.86,3.55-.23,9.12-3.83,17.53-5.65,26.32-.76,3.65-1.57,7.3-2.5,10.92-1.34,6.39-2.87,12.74-4.5,19.06-.77,2.96-1.44,6.03-4.86,7.23-1.48.55-3,.83-4.57.82-22.81-.14-45.56,2.29-68.38,1.49-2.24-.07-4.43-.17-6.42-1.31h-.01Z"/>
          <path class="cls-25" d="M123.43,315.57c1.53.44,3.05.89,4.59,1.33,3.1-.01,5.36,1.76,7.67,3.5,23.17,17.33,46.45,34.51,69.73,51.69,2.11,1.56,4.4,3.02,5.39,5.69.15.65.18,1.3.1,1.96-.55,2.38-2.4,3.59-4.25,4.85-32.91,22.44-65.75,44.99-97.97,68.45-2.6,1.9-5.34,4.21-9.05,2.35-2.55-2.38-3.53-5.58-4.5-8.76-8.89-29.02-18.52-57.79-27.71-86.71-1.17-3.66-1.77-7.29-1.59-11.08.08-2.97,2.8-3.15,4.6-4.15,17.64-9.76,35.33-19.43,52.99-29.13h0Z"/>
          <path class="cls-23" d="M292.23,500.41c-.47,7.08.84,14.05,1.24,21.07.19,3.3.14,6.6.2,9.9-2.44,3.03-5.97,3.74-9.48,4.24-16.04,2.34-31.97,5.33-47.94,7.97-2.88.47-5.75.8-8.34-1.09-2.18-2.44-2.81-5.45-3.15-8.57-5.27-47.91-10.24-95.86-15.02-143.82-.36-3.6-.2-7.05.97-10.47,2.46-2.83,5.62-2.09,8.61-1.52,19.72,3.76,39.25,8.39,59,11.96,6.61,1.2,8.13,5.93,9.34,11.26,1.15,15.76,2.91,31.48,2.99,47.3,1.66,14.93,2.71,29.91,3.1,44.93.06,2.4.6,4.91-1.51,6.83h0Z"/>
          <path class="cls-20" d="M410,515.21c-.09,1.76-.28,3.54-.28,5.3-.05,83.82-.08,167.64-.1,251.46,0,1.55.15,3.1.22,4.65,5.86-1.53,11.83-1.35,17.8-1.34,39.92.02,79.85.01,119.77,0,8.84,0,8.83-.03,8.83-8.77-.02-43.26-.03-86.51.04-129.78,0-4.09-.94-8.56,2.74-11.85.35-.13.68-.27,1.02-.44.08,38.62.17,77.23.25,115.86.01,7.11,0,14.2,0,21.31,0,13.56.01,13.22,14.13,13.76,13.4.51,26.76,1.88,41.33,2.96-14.46,3.08-27.99,2.3-41.36,3.44-26.4,2.27-52.86,4.04-79.33,5.24-15.46.69-30.86,2.48-46.32,2.81-25.88.56-51.61,3.39-77.47,4.45-20.5.84-41.1,1.69-61.49,3.94-22.05,2.44-43.68-1.56-65.52-2.03-20.26-.43-40.53-2.59-60.84-3.73-27.79-1.54-55.53-3.84-83.32-5.49-13.42-.8-26.95-.58-41.08-3.12,11.4-2.69,22.43-3.15,33.31-4.52,18.82-2.39,37.66-4.67,56.53-6.61,5-.51,2.66-4.94,4.73-6.82,3.1,2.45,2.57,5.82,2.33,9.11.72,7.4,4.9,11.1,12.52,11.11,15.96,0,31.91.05,47.87-.02,9.1-.04,9.18-.2,9.63-9.21-.05-2.95-1.71-5.41-2.49-8.13-.64-2.24-2.09-4.57.45-6.61,12.9-3.13,26.18-3.36,39.26-5.13,6.11-.83,12.24-1.64,18.36-2.38,3.72-.45,7.5-.96,10.93,1.26,2.57,2.64,2.01,5.91,1.95,9.14-.05,3.37-.86,7.02,2.46,9.55,2.56,1.09,5.26.77,7.89.78,25.25.03,50.5.04,75.74.01,9.91,0,9.91-.05,10.86-10.07.18-.81.57-1.51,1.13-2.1,10.55.13,15.83-5.01,15.83-15.42,0-84.04,0-168.07-.1-252.11,0-2.94,1.88-6.95-2.88-8.45,1.28-2.8,3.09-2.39,5.08-.82,2.62,9.65,3.26,19.26-.45,28.82h.01Z"/>
          <path class="cls-11" d="M229.79,652.73c2.57-12.59,5.66-25.04,9.29-37.36-.44-2.95,1.46-4.99,2.84-7.2,14.47-23,30.1-45.24,44.6-68.23,1.18-1.86,2.33-3.78,4.12-5.15,1.61-1.25,3.17-1.66,4.29.64,9.79,37.22,19.59,74.44,29.37,111.66.84,3.19,1.64,6.4,2.46,9.6-21.28,9.29-42.23,19.24-62.82,29.99-1.95,1.02-3.73,2.41-6,2.7-1.43.04-2.71-.5-3.53-1.55-8.76-11.31-18.63-21.83-24.62-35.08h0Z"/>
          <path class="cls-4" d="M135.26,78.3c-.47.02-.94.04-1.43.06-21.52-1.64-42.97-3.92-64.41-6.38-5.08-.59-10.74,1.08-15.24-2.86.83-2.26,3.08-2.28,4.84-2.95C116.38,44.52,173.73,22.88,231.11,1.33c1.64-.62,3.5-2.43,5.45-.39,1.77,7.32,2.24,14.75,2.52,22.27.58,15.62.86,31.27,2.25,46.85.38,4.23.51,8.4-2.12,12.08-21-.25-41.91-2.16-62.84-3.46-13.01-.81-26.02-1.59-39.04-2.39-1.48-.09-1.85.87-2.08,2.02h.02Z"/>
          <path class="cls-11" d="M409.56,486.13c-1.51-.07-3.01-.12-4.2,1.08-6.89,1.55-13.85,2.86-20.64,4.76-3.89,1.08-4.56-.24-4.5-3.67.14-9.07.22-18.14-.04-27.21-.12-3.95,1.43-5.11,5.1-6,26.4-6.37,52.73-13.04,79.08-19.6,1.24-1.56,2.65-3.02,4.67-3.37,8.68-1.49,16.75-6.39,26-4.68,22.93-5.62,45.86-11.25,68.78-16.85,6.65-1.63,13.36-2.98,19.97-4.79,3.26-.89,4.92-.85,4.85,3.23-.18,9.29-.14,18.58-.01,27.87.04,3.23-1.26,4.77-4.41,5.44-7.55,1.6-15.05,3.44-22.57,5.2-1.27-.14-2.23.39-2.94,1.42-2.12,2.58-5.19,3.24-8.19,3.99-43.99,10.97-87.95,21.99-131.93,32.96-2.96.73-5.97,1.9-9.03.24h0Z"/>
          <path class="cls-8" d="M65.84,348.85c7.09,21.53,14.18,43.07,21.25,64.61,4.61,14.03,9.2,28.07,13.78,42.11.26.58.33,1.18.21,1.81-2.36,5-5.94,9.23-8.74,13.95-11.35,17.51-23.45,34.52-34.41,52.28-.7,1.13-1.46,2.24-2.83,2.68-10.63-8.99-21.19-18.07-31.97-26.88-3.11-2.54-2.7-5.07-1.72-8.23,12.85-41.61,25.59-83.26,38.5-124.85,1.82-5.87,2.72-12.07,5.93-17.47h.01Z"/>
          <path class="cls-12" d="M294.92,535.42c-4.12-1.92-4.34,2.25-5.48,3.98-15.58,23.49-30.95,47.14-46.4,70.73-1.2,1.83-2.64,3.5-3.97,5.25-9.74-4.22-16.53-12.37-24.56-18.81-20.83-16.74-41.23-34.01-61.72-51.17-4.72-3.96-9.12-8.31-13.68-12.49,1.9-2.16,4.41-1.75,6.8-1.49,24.85,2.72,49.76,4.75,74.58,7.75,2.84.35,5.76.66,7.97,2.86,15-2.39,30-4.77,45.01-7.19,6.74-1.09,13.46-2.29,20.18-3.44.82,1.23,1.52,2.49,1.26,4.05h.01Z"/>
          <path class="cls-25" d="M285.58,400.99c-.63-5.76-3.76-8.05-9.6-9.11-19.88-3.62-39.64-8.01-59.45-12.03-1.69-.35-3.5-.15-5.26-.2-.46.57-.93.58-1.42.02-.03-.44-.06-.88-.09-1.31,3.73-12.8,10.5-24.31,15.48-36.59,3.65-9,7.95-17.76,12.06-26.58.85-1.83,1.69-3.62,3.52-4.7.33-.07.65-.16.97-.23,20.37,6.78,40.72,13.55,61.09,20.33,2.17,4.35.79,8.62-.44,12.8-4.29,14.64-8.68,29.27-13.16,43.85-1.4,4.56.27,9.92-3.68,13.75h-.01Z"/>
          <path class="cls-28" d="M54.2,69.12c13.92-.63,27.58,2.01,41.33,3.34,10.7,1.04,21.4,2.19,32.1,3.18,2.44.23,4.94-.05,6.2,2.72-8.99,10.94-17.95,21.9-26.96,32.83-1.13,1.38-2.39,2.65-2.44,4.58-.49,2.27-1.86,3.98-3.47,5.55-15.72,15.35-30.84,31.27-45.95,47.22-2.03,2.14-3.83,5.12-7.62,4.45.92-16.32,1.72-32.66,2.79-48.97,1.21-18.31,2.66-36.61,4-54.9h.01Z"/>
          <path class="cls-25" d="M55.1,526.28c1.03-2.43,1.7-5.09,3.14-7.25,10.91-16.36,21.95-32.62,32.96-48.9,3.97-.39,4.98,3.13,6.73,5.39,4.85,6.27,8.99,13.08,14.43,18.89,7.15,10.69,15.4,20.58,22.64,31.2,1.43,2.09,3.79,3.95,2.84,7.05-.02.44-.03.88-.03,1.32-7.05,12.82-17.54,22.97-26.72,34.13-1.24,1.5-2.93,2.74-5.2,2.17-16.94-14.67-33.88-29.33-50.82-44h.01Z"/>
          <path class="cls-7" d="M257.5,688.99c9.31-7.8,20.85-11.56,31.38-17.1,9.98-5.26,20.35-9.81,30.51-14.74,2.45-1.19,4.77-2.55,7.37-.47,5.01,19.09,10.03,38.16,15.03,57.25,1.42,2.99.37,5.44-2.37,6.55-15.46,6.27-30.1,14.62-46.46,18.62-2.98-.26-4.56-2.43-6.12-4.59-9.31-12.87-18.49-25.85-27.42-38.98-1.31-1.93-3.3-3.78-1.91-6.54h0Z"/>
          <path class="cls-3" d="M143.01,680.68c2.03-1.03,4.2-1.25,6.45-1.29,24.56-.45,49.11-.92,73.67-1.4,1.71,1.49,1.88,3.52,1.43,5.46-3.78,16.24-6.71,32.69-12.09,48.53-1.63,2.64-4.15,3.88-7.05,4.5-14.5,3.08-29.05,5.81-43.7,7.99-2.77.41-5.87,1.09-7.47-2.41-3.74-20.46-7.47-40.92-11.21-61.38h0Z"/>
          <path class="cls-16" d="M47.41,173c16.71-17.03,33.4-34.08,50.16-51.07,2.16-2.19,4.59-4.12,6.89-6.16,9.49,20.29,18.95,40.61,28.52,60.87,1.48,3.13,1.01,5.33-1.65,7.54-3.75,3.11-7.24,6.5-10.84,9.77-3.46,1.35-4.68-1.53-6.09-3.51-3.98-5.62-8.41-10.91-12.13-16.7-2.38-3.72-4.61-4.27-7.7-.72-3.95,4.51-8.71,8.22-12.95,12.44-2.17,2.16-4.36,3.84-7.6,2.41-8.7-5.25-18.58-8.41-26.61-14.88h0Z"/>
          <path class="cls-25" d="M292.08,738.17c14.63-6.05,29.27-12.06,43.88-18.14,2.78-1.15,6.08-1.97,5.82-6.1,1.03,1.66,1.75,3.63,3.13,4.92,15.81,14.84,31.71,29.58,47.59,44.35,0,.38.02.76.06,1.13-2.99,3.67-7.23,2.82-11.09,2.83-24.11.1-48.23.18-72.34-.02-6.97-.06-13.51-.43-14.13,9.05-.04.61-.76,1.06-1.2,1.55-2.98-4.17-.9-8.85-1.29-13.28-.23-2.64-.22-5.28-.33-7.93-3.41-6.11-3.51-12.23-.1-18.38h0Z"/>
          <path class="cls-34" d="M239.14,310.11c-15.37-6.63-30.73-13.3-46.11-19.9-11.31-4.85-22.64-9.63-33.82-15.64,8.45-1.39,16.91-2.78,25.36-4.17,31-4.69,62-9.4,93-14.06,11.13-1.67,22.27-3.24,33.4-4.87,1.48-.34,3.28-1.76,3.83,1.11-22.46,9.89-44.88,19.86-67.42,29.57-4.21,1.82-6.18,4.01-5.82,8.84.48,6.38.18,12.84.21,19.25l.04-.1c-.9.85-1.81.91-2.69-.03h0Z"/>
          <path class="cls-28" d="M239.23,82.15c-.94-22.62-1.92-45.25-2.81-67.88-.18-4.44-3.25-8.93.17-13.33,22.05,13.76,44.09,27.53,66.12,41.32.97.61,2.72.89,1.8,2.79-4.45,4.44-10,7.3-15.36,10.37-4.42,2.54-8.66,5.31-12.78,8.3-2.8-2.45-4.87-.03-7.01,1.18-10.07,5.7-20.08,11.48-30.12,17.24h0Z"/>
          <path class="cls-25" d="M495.02,427.43c-10.23,2.69-20.45,5.36-30.68,8.05-.08-27.04-.16-54.08-.24-81.12-1.09-10.55-.59-21.13-.33-31.69.17-6.66,8.9-14.11,14.84-13.65,5.47,39.47,10.93,78.94,16.4,118.41h0Z"/>
          <path class="cls-5" d="M154.22,742.05c6.44,2.07,12.5-.91,18.66-1.74,11.31-1.51,22.43-4.26,33.68-6.29,1.98-.36,3.11-1.43,4.29-2.71,5.78,9.99,11.6,19.98,12.64,31.86,1.57,4.06,3.14,8.14,4.71,12.2-1.81,1.95-4.2,2.41-6.67,2.44-20.36.16-40.72.2-61.08-.02-2.5-.02-4.81-.72-6.65-2.56-.06-3.12-.14-6.24-.2-9.36.2-7.94.41-15.88.61-23.82h0Z"/>
          <path class="cls-8" d="M285.58,400.99c.06-18.31,8.52-34.56,12.74-51.86,1.51-6.18,4.45-12.02,4.56-18.55,3.2,3.59,3.63,8.35,5.08,12.61,5.32,15.6,10.31,31.32,15.42,46.99-.01,1.2-.51,2.46-1.53,2.74-6.9,1.93-6.8,7.43-7.45,13.08-1.44,12.51-1.38,25.14-3.3,37.59-.3.62-.77,1.12-1.33,1.51-3.98-2.17-7.58-1.46-11.44.78-2.87,1.66-5.79,4.21-9.67,2.71-1.03-15.87-2.05-31.74-3.08-47.61h0Z"/>
          <path class="cls-25" d="M288.65,448.6c4.89-2.43,9.88-4.68,14.66-7.32,4.29-2.37,5.44-.77,5.09,3.41,2.99,3.08,1.65,6.67,1.03,10.05-1.38,7.46-.43,13.5,6.53,18.47,6.05,4.31,10.8,10.38,16.09,15.72,2.68,2.7,4.8,2.79,6.71-.72,5.71-10.46,12.4-20.36,17.7-31.06,1.1-1.36,2.26-2.6,4.26-1.77-2.38,12.82-4.85,25.62-7.11,38.45-.56,3.13-2.37,3.86-5.08,3.99-18.77.84-37.54,1.73-56.31,2.6-1.2-17.27-2.38-34.54-3.58-51.81h.01Z"/>
          <path class="cls-21" d="M478.63,309.03c-8.23,5.17-15.12,10.97-14.39,22.2.49,7.67-.04,15.42-.13,23.14-2.03-8.04-.94-16.25-.88-24.36.04-5.41-1.78-8.98-5.82-12.41-18.31-15.6-36.39-31.46-54.55-47.23.43-4.54,2.38-7.97,6.88-9.56,21.96,14.99,43.91,29.99,65.89,44.96,1.27.87,2.79,1.44,3,3.26h0Z"/>
          <path class="cls-10" d="M74.02,187.87c6.31-1.51,8.94-7.52,13.54-11.12,3.96-3.1,6.8-9.95,11.1-9.55,4.33.4,6.19,7.45,9.46,11.34,4.23,5.05,6.93,11.33,12.36,15.41.13,1.09-.14,2.48.43,3.22,5.27,6.92,1.36,10.91-4.4,14.37-2.45,6.3-7.88,9.25-13.45,12.07-8.2-10.61-16.37-21.27-24.64-31.82-1.19-1.52-2.92-2.62-4.39-3.92h-.01Z"/>
          <path class="cls-2" d="M356.05,396.63c3.58,10.28,10.37,18.76,15.79,28.01,6.87,11.71,7.15,11.6-2.49,21.09-2.49,2.45-4.5,5.46-7.77,7.07-2.92.92-4.49-1.27-6.12-2.9-7.61-7.59-15.43-14.97-22.71-22.91-.75-1.11-1.21-2.3-.99-3.66,5.95-9.51,13.94-17.33,21.31-25.68.75-.84,1.8-1.22,2.97-1.02Z"/>
          <path class="cls-9" d="M356.05,396.63c-7.87,8.99-15.75,17.98-23.62,26.97-4.58-3.2-7.33-13.44-5.39-20.06,11.22-12.22,20.36-26.09,30.9-38.84,1.45-1.75,2.57-6.72,6.09-3.04,2.86,2.98,9.57,4.69,5.54,11.42-4.65,7.77-9.03,15.69-13.52,23.56h0Z"/>
          <path class="cls-10" d="M327.05,403.54c1.8,6.69,3.59,13.37,5.38,20.05.44.82.87,1.64,1.31,2.46-1.9,8.16-4.33,16.18-6.6,24.23-.61,2.13-1.43,4.19-3.35,5.55-5.94.22-10.88-3.7-14.04-11.14-.85-15.78,2.34-31.33,2.7-47.03.06-2.79,1.09-4.56,4.16-5,2.37-.35,4.84-.78,6.77-2.48,1.23,4.45,2.45,8.9,3.67,13.35h0Z"/>
          <path class="cls-14" d="M323.05,455.77c2.25-7.83,4.43-15.68,6.8-23.47.71-2.35.4-5.54,3.88-6.25,9.28,8.91,18.56,17.83,27.84,26.74-.28.86-.57,1.72-.85,2.57-1.4.31-2.41,1.11-3.08,2.38-3.05,5.14-6.88,9.66-11.29,13.68-2.05,1.87-4.62,3.46-7.11,1.49-5.49-4.35-11.41-8.27-15.65-14.04-.67-.9-.93-1.98-.56-3.12h0Z"/>
          <path class="cls-16" d="M276.36,63.73c.16-1.29-.15-2.92,1.17-3.62,9.07-4.87,17.08-11.65,26.98-15.05-2.46,19.05-4.9,38.1-7.35,57.15-.34,2.62-.64,5.26-.97,7.89-4.27-5.2-5.67-11.75-8.22-17.74-4.03-9.47-7.75-19.09-11.6-28.63h-.01Z"/>
          <path class="cls-13" d="M409.75,260.79c-2.29,3.19-4.59,6.38-6.88,9.56-11.47-3.65-22.95-7.31-34.43-10.96-1.11-1.06-1.27-2.52-.61-3.62,5.46-9.16,10.51-18.67,19.18-25.42,8.86,9.19,15.29,20.2,22.75,30.43h-.01Z"/>
          <path class="cls-10" d="M105.91,570.27c10.55-9.56,18.12-21.71,27.82-32.01,1.35-1.44,2.73-2.86,4.09-4.28-3.61,21.05-7.47,42.04-12.18,62.87-6.58-8.86-13.15-17.72-19.74-26.58h0Z"/>
          <path class="cls-1" d="M387,230.37c-5.18,7.54-10.35,15.08-15.55,22.59-1.36,1.98-2.93,3.86-3.02,6.45-5.42-4.51-7.66-11.15-11.24-16.89-1.19-1.9,0-3.36.9-4.87,7.88-13.15,7.91-13.22,22.76-9.46,2.07.52,4.5.35,6.14,2.18h.01Z"/>
          <path class="cls-33" d="M103.05,223.61c3.44-5.18,9.11-7.88,13.45-12.07,3.36,4.49-.01,9.01-.29,13.41-.59,9.24-2.44,18.39-3.66,27.6-.23,1.73-.73,2.45-2.47,1.7-2.34-10.2-4.68-20.41-7.02-30.62h0Z"/>
          <path class="cls-22" d="M314.81,252.59c-1.03-1.23-2.52-.83-3.83-1.11,2.59-1.57,5.21-2.13,7.85-.12-1.34.41-2.69.81-4.03,1.22h.01Z"/>
          <path class="cls-2" d="M253.8,159.56c1.05,6.08,1.9,12.21,3.23,18.22.56,2.53.85,4.76-.62,6.97-5.48,4.47-11.48,6.66-18.54,4.24-.89-.91-1.77-1.83-2.67-2.73-4.66-8.1-4.68-17.32-6.23-26.17-1.25-7.17-2.56-14.34-3.38-21.58-.31-2.83-1.01-5.74,1.44-8.09,3.95-4.16,15.48-5.74,19.98-2.73,1.26.61,2.17,1.66,2.46,2.94,2.1,9.54,5.79,18.85,4.34,28.93h-.01Z"/>
          <path class="cls-14" d="M253.8,159.56c-2.26-10.62-4.52-21.25-6.78-31.87-.25-6.79,4.4-12.15,5.4-18.57,2.51-5.18,7.25-7.98,11.8-10.93,2.47-1.6,5.41-1.52,7.13.91,4.01,5.66,8.9,8.23,15.78,5.95-2.65,7.2-8.72,12.55-10.8,20.05-.57.36-1.19.59-1.86.59-10.14-.03-11.34,1.61-8.58,11.6.18.64.14,1.3-.06,1.94-3.01,7.37-7.24,14-12.03,20.32h.01Z"/>
          <path class="cls-34" d="M274.87,223.49c-9.81,2.7-19.65,5.25-29.39,8.16-4.85,1.45-9.43,1.59-14.27-.01-6.93-2.29-14.08-3.92-20.96-6.31-4.82-1.67-7.89-.98-9.53,4.18-.48,1.52-1.71,2.8-2.6,4.21-2.07-1.3-1.51-3.05-1.82-4.47-2.54-11.74,1.75-20.41,12.87-26.01.14.4.48.87.38,1.19-3.6,10.76-3.22,9.76,7.52,14,18.28,7.21,36.69,6.04,55.38,3.61,1.38-.44,2.76-.91,2.44,1.47h0Z"/>
          <path class="cls-16" d="M176.53,127.51c-2.2-2.58-9.24-.14-6.98-7.59,2.56-8.42,2.08-8.55,10.58-5.93,13.29,4.08,26.61,8.1,39.89,12.23,2.03.63,4.45.55,5.73,2.77-2.67,10.35-7.96,13.23-17.73,10.13-10.69-3.38-21.41-6.66-31.5-11.61h.01Z"/>
          <path class="cls-14" d="M176.53,127.51c10.35,3.12,20.93,5.64,30.96,9.55,6.66,2.59,11.12,2.08,14.81-4.08.89-1.49,2.3-2.68,3.46-4,.42.48.84.96,1.26,1.44,2.41,16.23,4.84,32.46,7.25,48.69.36,2.38.62,4.77.92,7.16-5.86-4.78-7.8-12.11-11.75-18.14-4.31-6.61-8.08-13.58-12.08-20.41-3.41-5.7-8.51-7.7-14.92-6.82-3.28-5.55-9.98-5.99-14.51-9.73-1.67-1.38-4.17-1.59-5.42-3.64h0Z"/>
          <path class="cls-31" d="M287.12,105.05c-.4.17-.92.22-1.19.51-4.57,5.06-8,4.4-12.25-1.04-6-7.66-6.44-7.33-13.88-.8-2.3,2.02-4.38,4.34-7.39,5.38-1.1-1.38-2.1-2.84-3.32-4.1-2.48-2.59-1.86-4.27,1.05-6.11,6.5-4.13,12.83-8.53,19.19-12.86,1.46-.99,2.75-2.36,4.48-.38,4.62,5.31,9.31,10.57,13.94,15.88,1.18,1.35.06,2.43-.64,3.51h0Z"/>
          <path class="cls-29" d="M265.82,139.23c-3.52-3.74-5.92-7.84-2.28-12.69,3.61-4.81,8.18-3.93,12.78-1.43,2.3,3.53,3.62,7.24.81,11.01-2.88,3.84-6.92,4.33-11.31,3.11h0Z"/>
          <path class="cls-27" d="M196.46,140.88c8.36-4.75,12.95-2.65,14.92,6.82-3.37,6.95-7.05,8.94-12.06,6.52-5.04-2.44-5.97-6.77-2.87-13.34h.01Z"/>
          <path class="cls-18" d="M237.86,188.99c6.18-1.42,12.36-2.82,18.54-4.24.07,5.68-4.46,9.09-6.73,13.61-.41.82-1.44,1.38-2.2.66-3.41-3.14-8.9-4.31-9.61-10.04h0Z"/>
          <path class="cls-6" d="M274.87,223.49c-.82-.48-1.63-.98-2.45-1.46,2.07-1.59,4.31-1.24,6.7-.7-.89,1.95-2.55,2.11-4.25,2.16h0Z"/>
          <path class="cls-7" d="M409.56,486.13c28.05-7.12,56.08-14.31,84.16-21.33,21.64-5.41,43.33-10.58,64.99-15.86v170.55c-11.54-8.14-22.13-15.61-32.71-23.09-37.87-26.71-75.72-53.4-113.6-80.09-.7-.49-1.6-.75-2.39-1.1-.15-9.69-.29-19.38-.44-29.08h-.01Z"/>
          <path class="cls-11" d="M559.01,624.88c.04,49.71.06,99.43.22,149.14,0,2.82-.41,3.96-3.45,3.96-47.93-.08-95.86-.07-143.79-.16-.72,0-1.44-.78-2.16-1.2,15.41-13.98,28.82-29.88,43.07-44.97.76-.81,1.45-1.67,2.23-2.47,16.49-16.98,33.21-33.74,49.42-50.97,16.96-18.03,33.72-36.25,51.21-53.77,1.2-1.2,2.89-4.93,3.25.44h0Z"/>
          <path class="cls-30" d="M239.14,310.11c.89.01,1.8.02,2.69.03-9.35,20.81-18.7,41.62-28.1,62.41-.97,2.13-1.25,4.84-3.98,5.79-26.23-19.63-52.47-39.25-78.69-58.89-1.06-.79-2.03-1.7-3.04-2.56,9.26-2.54,18.83-1.64,28.24-2.14,27.63-1.49,55.29-2.34,82.88-4.66v.02Z"/>
          <path class="cls-19" d="M137.85,532.65c-8.77-12.57-18.81-24.23-26.75-37.39-5.95-10.32-7.62-22.07-11.03-33.24-.52-1.7-.15-3.52.46-5.21.13-.41.24-.83.36-1.25,12.08-8.47,24.07-17.08,36.26-25.38,23.51-16,46.28-33.07,70.34-48.25.9-.57,1.59-1.49,2.37-2.25.47,0,.94-.01,1.42-.02,1.28,12.9,2.52,25.81,3.86,38.72,1.6,15.35,3.31,30.69,4.93,46.03,1.48,14.04,3.12,28.06,4.3,42.13,1,11.87,2.28,23.7,4.13,35.47-15.14-1.35-30.29-2.56-45.4-4.1-14.67-1.49-29.3-3.33-43.96-5.01-.42-.12-.85-.2-1.28-.24h-.01Z"/>
          <path class="cls-26" d="M223.5,763.19c-4.22-10.61-10.04-20.61-12.64-31.86,4.26-17.74,9.08-35.35,12.27-53.33,2.22-8.42,4.44-16.84,6.66-25.26,9.24,12.08,18.48,24.18,27.71,36.26,11.53,16.4,23.05,32.79,34.59,49.18.03,6.13.07,12.25.1,18.38-15.38.41-30.47,3.67-45.75,4.86-7.65.59-15.2,2.51-22.95,1.77h0Z"/>
          <path class="cls-23" d="M293.82,777.75c-.22-16.24-1.5-12.97,12.56-13.09,28.73-.26,57.47-.23,86.2-.31,2.17,3.46.88,7.29.98,10.92.09,4.16-3.42,2.58-5.43,2.59-22.8.1-45.6.08-68.42.06-8.63,0-17.26-.1-25.9-.17h.01Z"/>
          <path class="cls-32" d="M153.82,775.24c24.8.04,49.59.09,74.39.14.41,8.43-3.62,12.65-12.1,12.65-18.12,0-36.24-.33-54.34.17-6.7.18-9.47-1.56-8.24-8.35.27-1.51.2-3.08.29-4.62h0Z"/>
          <path class="cls-17" d="M100.53,456.8c3.92,12.71,8.06,25.35,10.57,38.44-7.96-7.33-12.68-17.22-19.89-25.13,2.8-4.65,5.29-9.53,9.32-13.32h0Z"/>
          <path class="cls-19" d="M323.05,455.77c4.5,6.1,11.22,9.85,16.34,15.3,2.3,2.46,3.83.65,5.45-.92,4.26-4.15,8.53-8.26,12.81-12.39-4.93,12.82-13.31,23.74-19.76,35.72-1.34,2.51-2.86,1.14-4.21-.13-8.49-8.02-16.45-16.58-25.24-24.33-4.41-3.89-1.11-10.09-.86-15.16.15-3,.76-6.08.8-9.16h1.35c4.67,3.4,8.01,8.41,13.3,11.08h.02Z"/>
          <path class="cls-15" d="M106.25,197.75c-5.21-.85-8.36-3.43-12.02-4.71-6.27-2.18-4.97-4.66-.98-8.22,2.67-2.37,4.05-2.68,5.82.72,2.01,3.86,4.4,7.53,7.18,12.21Z"/>
        </g>
      </g>
    </g>
  </g>
</svg>