<?xml version="1.0" encoding="UTF-8"?>
<svg xmlns="http://www.w3.org/2000/svg" version="1.1" viewBox="0 0 670 799">
  <defs>
    <style>
      .cls-1 {
        fill: #b6a1bd;
      }

      .cls-2 {
        fill: #cdcdcc;
      }

      .cls-3 {
        fill: #eaeaea;
      }

      .cls-4 {
        fill: #e2c9b7;
      }

      .cls-5 {
        fill: #8b779c;
      }

      .cls-6 {
        fill: #735f84;
      }

      .cls-7 {
        fill: #767676;
      }

      .cls-8 {
        fill: #64526d;
      }

      .cls-9 {
        fill: #2c2c2c;
      }

      .cls-10 {
        fill: #544362;
      }

      .cls-11 {
        fill: #997a8a;
      }

      .cls-12 {
        fill: #ab889b;
      }

      .cls-13 {
        fill: #a089b5;
      }

      .cls-14 {
        fill: #d9bca6;
      }

      .cls-15 {
        fill: #735f83;
      }

      .cls-16 {
        fill: #9c9fa0;
      }

      .cls-17 {
        fill: #8a779b;
      }

      .cls-18 {
        fill: #c3c3c3;
      }

      .cls-19 {
        fill: #bc977e;
      }

      .cls-20 {
        fill: #866855;
      }

      .cls-21 {
        fill: #b7b7b7;
      }

      .cls-22 {
        fill: #848484;
      }

      .cls-23 {
        fill: #846654;
      }

      .cls-24 {
        fill: #6e4f5e;
      }

      .cls-25 {
        fill: #cdc7d0;
      }

      .cls-26 {
        fill: #746085;
      }

      .cls-27 {
        fill: #4e3141;
      }

      .cls-28 {
        fill: #e9e9e9;
      }

      .cls-29 {
        fill: #8b779b;
      }

      .cls-30 {
        fill: #4f5252;
      }

      .cls-31 {
        fill: #8d657a;
      }

      .cls-32 {
        fill: #e4dee8;
      }

      .cls-33 {
        fill: #b3b3b3;
      }

      .cls-34 {
        fill: #554463;
      }

      .cls-35 {
        fill: #2d2d2c;
      }

      .cls-36 {
        fill: #c2c2c2;
      }

      .cls-37 {
        fill: #8c8e90;
      }

      .cls-38 {
        fill: #554462;
      }

      .cls-39 {
        fill: #564563;
      }

      .cls-40 {
        fill: #d1d1d1;
      }

      .cls-41 {
        fill: #856755;
      }

      .cls-42 {
        fill: #7b7b7b;
      }

      .cls-43 {
        fill: #856754;
      }
    </style>
  </defs>
  <!-- Generator: Adobe Illustrator 28.7.1, SVG Export Plug-In . SVG Version: 1.2.0 Build 142)  -->
  <g>
    <g id="Layer_1">
      <g id="Layer_1-2" data-name="Layer_1">
        <g>
          <path class="cls-25" d="M580.74,716.14c-1.02,7.97,2.28,11.96,10.13,14.86,21.4,7.9,42.36,16.98,63.48,25.61,1.41.57,2.7,1.4,4.92,2.55-5.03,2.14-9.69,1.67-13.96,2.17-13.16,1.56-26.44,1.97-39.65,3.07-18.48,1.55-36.94,3.35-55.41,5.01-11.45,1.03-22.89,1.95-34.34,2.96-18.91,1.69-37.81,3.45-56.74,5.1-12.11,1.05-24.22,1.97-36.34,2.89-18.06,1.36-36.07,3.15-54.09,4.86-12.96,1.23-25.99,2.04-38.98,3.18-18.04,1.58-36.04,3.41-54.08,5-12.55,1.1-25.11,1.94-37.66,3.01-7.91.67-15.82,1.54-23.72,2.37-9.42,1-18.46-1.62-27.59-3.02-29.69-4.53-59.33-9.33-88.98-14.1-27.91-4.49-55.81-9.09-83.7-13.68-.8-.13-1.51-.75-3.31-1.69,34.67-7.48,68.29-14.58,101.83-22.04,8.15-1.81,16.73-2.25,24.19-6.63,2.52,2.37,1.44,5.3,1.07,8.01-1.08,8-2.87,15.87-4.06,23.86.74,3.31-.75,7.08,2.1,9.93,2.34,1.67,5,1.68,7.68,1.67,21.1-.02,42.2-.11,63.29.05,5.76.04,9.36-1.47,9.78-7.97.35-5.37,4.79-5.82,8.89-5.93,10.43-.28,20.87-.09,31.31-.11,8-.02,15.99.01,23.99,0,6.76-.02,10.54-3.29,11.35-9.79.08-.79.14-1.58.16-2.36.05-1.55-.06-3.09.1-4.63.96-8.9,2.74-10.32,11.65-10.66,4.94-.18,10.21,1.58,14.73-1.92,2.58-3.11,2.45-7.07,3.41-10.67.85-3.24,1.45-6.58,4.96-8.21,2.76-1.15,5.69-1.31,8.54-.88,11.93,1.82,23.93,1.05,35.91,1.03,24.64-.03,49.24,1.35,73.85,1.8,14.62.26,29.27.66,43.89.94,3.79.08,7.02-.7,9.4-3.83,4.83-.57,4.05,3.35,4.44,5.93.7,4.65-.08,9.58,2.78,13.78,4.32,3.46,9.4,1.84,14.15,2.03,8.01.34,9.23,1.3,9.96,9.11.7,7.52.7,7.61,8.35,7.67,10.64.09,21.27-.05,31.91.05,4.85.05,6.74-1.89,6.69-6.71-.08-8.43-.22-16.86.11-25.27.12-3.12-.63-6.9,3.6-8.37v-.04Z"/>
          <path class="cls-14" d="M395.63,194.78c-10.86,34.64-21.76,69.28-32.58,103.94-3.9,12.46-7.62,24.97-11.43,37.47-.19,1.14-.75,2.22-1.75,2.65-10.22,4.45-19.53,10.87-30.4,13.88-1.07.09-2.14.13-3.21.32-15.81-1.67-31.34-4.91-46.85-8.31-2.1-.6-4.14-1.48-6.42-1.29-5.63-.84-11.66-.24-16.24-4.7-.29-11.89-2.7-24.01,3.74-35.18,1.03-.64,2.16-.88,3.35-.82,15.99,5.11,32.09,9.92,47.97,15.37,3.84,1.32,7.58,1.86,11.69,1.5,10.11-.88,20.19-2.03,30.23-3,2.09-2.24-.32-3.64-1.16-5.09-4.38-7.61-9.03-15.05-13.49-22.61-1.33-2.26-2.82-4.48-2.99-7.24,1.29-10.18,2.32-20.41,5.16-30.32,3.34-4.26,6.18-9.13,12.02-10.55,2.07.29,3.43,1.79,4.96,3,2.92,2.33,5.91,2.76,8.89.24,3.21-2.72,3.3-5.91,1.14-9.34-.81-1.29-1.8-2.48-2.24-3.98-.56-3.4,1.75-5.2,3.93-7.08,4.33-3.73,8.64-7.45,11.93-12.2.24-.87.62-1.68.88-2.52,2.41-7.91,1.63-9.19-6.79-10.17-29.75-3.49-59.5-6.99-89.22-10.77-6.48-.82-12.27.02-17.56,3.9-7,.68-6.9-6.18-10.13-9.51-10.41-20.8-21.24-41.37-32.08-61.95-1.24-3.09-.42-5.47,2.46-7.15,21.99-8.42,44.08-16.59,66.44-24,4.47-.15,8.05,2.22,11.65,4.35,16.22,9.58,32.75,18.6,48.91,28.25,5.97,3.57,6.47,3.3,8.56-3.4,1.64-5.29,2.65-10.77,4.28-16.06.82-2.68,1.41-5.82,5.29-5.85,2.98.76,4.87,3,6.64,5.21,9.65,12.05,19.38,24.04,29.12,36.02,1.53,1.88,2.94,3.87,3.49,6.33-.53,14.25-2.88,28.25-5.38,42.24-1.48,2.62-1.58,5.71-2.83,8.41h0Z"/>
          <path class="cls-19" d="M218.37,119.98c2.45,2.6,4.14,5.68,5.62,8.88,8.18,17.81,18.91,34.33,26.39,52.49,1.8,8.1,8.36,14.66,7.69,23.58.23,21.53-2.24,42.93-3.34,64.4-.56,10.84-1.11,21.69-2.24,32.49-.04.83-.3,1.59-.76,2.28-2.14,3.49-2.63,7.49-2.58,11.36.1,7.75-.76,15.4-1.32,23.09-2.17,2.58-4.92,1.38-7.41.97-6.77-1.13-13.54-2.29-20.31-3.39-7.56-1.22-7.98-.84-6.16,6.38,3.09,12.25,5.64,24.63,8.82,36.85.78,2.96,1.9,5.96.72,9.11-2.29,3.15-3.88.49-5.27-.87-15.04-14.69-29.13-30.31-43.51-45.63-5.14-5.49-10.62-10.66-15.47-16.42-.57-.82-.91-1.72-.81-2.74,1.74-14.24,3.49-28.48,5.23-42.72.48-3.95.85-7.91,1.29-11.86-1.02-1.22-.67-2.42.08-3.6,5.19-5.32,10.69-10.38,16.3-16.66-5.26-.44-9.43-1.8-13.86-1.72-6.79-1.32-14.12-.11-20.28-4.34-2.63-4.26-2.06-9.05-1.8-13.62.54-9.52,1.21-19.03,1.46-28.57.23-8.62,2.98-10.93,11.44-11.27,6.24-.26,12.39.51,18.57,1.27,5.07.62,8.02,3.27,9.3,8.11,1.54,5.8,2.87,11.64,4.26,17.46.77,3.2.44,7.41,5.5,7.93,6.25.64,12.37-1.77,13.97-6.39,4.54-13.21,9.47-26.3,12.92-39.87-1.47-15.77-4.09-31.39-6.19-47.08-.45-3.44-1.34-7.04,1.75-9.89v-.02Z"/>
          <path class="cls-31" d="M372.94,421.49c7.43,25.26,14.83,50.54,22.34,75.78.96,3.24-.7,4.37-3.21,5.37-21.61,8.54-43.14,17.29-64.86,25.53-5.44,2.07-8.72,4.58-7.83,10.73-5.06-6.06-11.93-5.52-18.87-5.59-6.94-.06-14.07,1.49-20.8-1.55-1.81-1.51-2.48-3.64-2.99-5.81-4.09-17.5-7.26-35.17-11.07-52.72-.24-1.08-.22-2.21-.04-3.31-.37-29.31-2.55-58.57-1.93-87.9.08-3.55-.26-7.13.92-10.57.25-.82.67-1.56,1.24-2.21,10.06-2.34,20.21-.71,30.32-.41,4.13.12,8.43.4,12.45,1.87,1.17.53,2.04,1.34,2.42,2.61,2.64,50.1,7.31,100.11,8.64,142.11.78-14.83,6.35-37.33,9.46-60.2,1.37-10.12,3.25-20.18,5.05-30.23.55-3.07,1.04-6.18,3.81-8.23,2.59-1.53,5.42-1.67,8.27-1.34,6.95.78,13.84,2.06,20.82,2.56,2.46.18,4.75.92,5.85,3.52h0Z"/>
          <path class="cls-22" d="M580.74,716.14c-2.21,11.43-1.08,22.99-1.03,34.46.03,6.77-1.82,8.77-8.6,8.47-12.63-.57-25.31-.31-37.95-.09-4.35.08-5.71-1.38-5.76-5.72-.11-11.46-.31-11.26-11.71-11.57-4.43-.12-9.19,1.75-13.32-1.43,4.43-3.72,9.75-2.1,14.71-2.34,7.64-.37,8.63-1.15,7.66-8.59-.63-4.86-1.02-9.71-1.02-14.57,0-3.62-1.68-5.18-5.26-5.24-6.65-.11-13.29-.11-19.94.37-34.84-.61-69.67-.11-104.49-.24-17.97-.06-35.94,0-53.91-.02-3.78,0-7.53.18-11.23.91-7.44-1.44-14.98-1.24-22.53-1.03-2.93.09-5.25.84-5.49,4.38-.42,6.2-1.49,12.33-1.72,18.57-.15,4.15,1.6,5.57,5.46,5.47,3.32-.08,6.65-.05,9.99.05,2.66.09,5.38.04,7.43,2.21-4.83,3.29-10.22,1.33-15.33,1.49-10.57.34-10.58.1-12.22,10.71-.13.88-.22,1.76-.31,2.65-2.76.96-4.67-.85-6.56-2.23-12.3-9-24.42-18.24-36.28-27.83-2.09-1.69-5.11-3.19-3.78-6.91,2.36-3.04,5.98-3.69,9.33-4.68,40.92-12.25,81.63-25.19,122.68-37,3.65-1.05,7.39-1.3,10.91-1.72-3.16-.48-6.99,2.49-9.83-1.5,1.08-2.7,3.42-2.89,5.83-2.94,7.7-.41,15.28,1.24,22.94,1.43,15.95-2.02,31.79.96,47.7,1.05,5.07.03,10.16.44,15.23-.02,4.76-.06,9.75-1.33,13.9,2.29.54,2.04-.79,1.82-2.35,1.9,7.69.64,14.95,2.19,22.12,4.27,19.6,5.7,39.29,11.1,59,16.4,5.47,1.47,11.41,2.24,15.67,6.74.02,3.94.04,7.89.05,11.83h-.01Z"/>
          <path class="cls-17" d="M364.98,97.22c-3.57.67-3.11,3.96-3.81,6.28-1.92,6.33-3.9,12.69-5.1,19.18-1.06,5.73-3.21,5.53-7.5,3-18.07-10.67-36.26-21.13-54.44-31.58-2.46-1.41-4.79-3.26-7.83-3.38-7.4-1.98-13.38-6.74-19.79-10.54-23.56-13.95-47.08-27.99-70.8-41.67-1.15-.66-2.35-1.27-2.91-2.58,13.75-11.15,27.56-22.23,41.22-33.5,3.24-2.66,5.72-3.3,9.89-1.17,25.58,13.16,51.37,25.9,77.09,38.78,12.38,15.47,25.01,30.74,37.4,46.2,2.65,3.31,6.73,5.93,6.59,10.97h-.01Z"/>
          <path class="cls-31" d="M103.95,538.91c-.66-3.07.6-6.48-1.58-9.3.72-26.35,3.69-52.52,6.09-78.74,1.81-8,.91-16.18,1.68-24.27,1.3-13.58,2.8-27.17,3.19-40.82.09-3.12.87-6.1,1.95-9,1.09-3.04,3.73-4.21,6.46-5.14,10.6-3.62,21.22-7.26,31.91-10.64,2.89-.91,6.02-1.93,8.48,1.16,2.61,6.56,1.9,13.6,2.34,20.34.74,11.48,1.34,22.99,1.79,34.49.65,16.81.93,33.65,2.51,50.4.58,6.21-1,12.38.13,18.53-.76,12.51-5.37,24.17-8.03,36.27-.83,3.8-.85,8.05-4.1,11.01-2.8,1.69-5.94,1.55-9.01,1.57-8.84.06-17.68.17-26.51-.03-6.19-.14-12.18-.02-17.28,4.15v.02Z"/>
          <path class="cls-17" d="M218.37,119.98c.15,12.56,3.32,24.75,4.53,37.19.66,6.75,2.43,13.39,2.1,20.25-1.73,1.66-3.85,2.09-6.15,1.89-18.06-1.54-36.13-2.89-54.19-4.1-10.35-.69-20.7-1.86-31.1-1.86-3.54,0-7.14.14-10.02-2.54-2.14-15.52-4.37-31.02-6.39-46.55-2.06-15.79-3.9-31.6-5.89-47.39-.29-2.35-1.67-4.89,1.8-6.07,6.99,1.57,13.19,5.17,19.7,7.88,24.78,10.3,49.81,19.98,74.35,30.85,4.2,1.86,9.21,1.8,12.68,5.34-2.03,1.27-2.27,3.04-1.43,5.11h0Z"/>
          <path class="cls-31" d="M125.17,672.36c-7.49-37.26-14.98-74.52-22.42-111.8-.48-2.37-.41-4.86.74-7.14,2.17,1.21,2.09,3.61,2.93,5.53.38,1.15,1,2.13,2.07,2.78,33.79,20.31,67.75,40.3,101.59,60.48,3.16,1.88,6.97,3.19,8.26,7.27.01,11.74-3.47,22.97-5.21,34.44-.91,6-.68,12.32-3.56,17.97-.56.57-1.23,1.01-1.98,1.31-9.61,1.82-18.94-1.01-28.33-2.1-15.83-1.85-31.65-3.92-47.44-6.16-2.43-.35-4.85-.66-6.66-2.59h.02Z"/>
          <path class="cls-15" d="M219.78,114.87c-9.1.31-16.43-4.9-24.34-8.09-25.44-10.27-50.7-20.94-76-31.54-2.38-1-5.11-1.75-6.39-4.45,26.58-11.62,53.17-23.24,79.75-34.86,7.48,1.2,13.12,6.13,19.37,9.77,22.75,13.23,45.39,26.65,68,40.11,2.21,1.32,4.85,2.33,6.13,4.9-22.17,8.05-44.35,16.1-66.52,24.16h0Z"/>
          <path class="cls-3" d="M567.55,618.87c7.66,8.8,15.2,17.71,23.01,26.37,10.48,11.62,21.2,23.05,31.79,34.57.85.93,2.26,1.74,1.76,3.28-.47,1.43-1.74.88-2.8.75-13.51-1.6-27.03-3.19-40.54-4.78-2.95,2.86-6.53,2.16-10.01,1.62-4.14-.65-8.37-.3-12.5-1.13-9.47-2.49-19.26-2.62-28.89-3.81-17.79-2.17-35.69-3.31-53.51-5.37-12.29-1.42-24.44-4.11-36.88-4.25-2.78-.35-5.52-.89-7.95-2.4-4.6-7-4.79-14.66-3.34-22.55.34-.65.84-1.16,1.47-1.53,5.82-.84,10.22,2.64,14.51,5.5,6.3,4.2,12.03,4.61,18.46.47,4.25-2.75,8.83-5.11,13.21-6.38-4.58.14-10.06,2.42-14.39-2.52-1.3-3.52-1.4-6.94.87-10.14,3.4-2.73,7.61-2.22,11.48-2.53,9.46-.77,18.86-2.72,28.41-1.71,10.71,4.07,21.64,7.56,32.31,11.77,3.93,1.56,6.99,1.16,10.47-1.19,7.11-4.79,13.38-10.82,21.2-14.6.67-.01,1.3.16,1.85.56h.02Z"/>
          <path class="cls-16" d="M321.1,572.31c6.34,2.72,13.05,4.06,19.79,5.25,4.23-.8,7.8,1.27,11.35,2.89,8.16,3.73,17.35,5.3,24.29,11.59,1.87,4.49.83,9.2.96,13.82.13,4.59-2.1,6.48-6.72,5.5-6.73-1.44-13.45-2.86-19.8-4.77,6.82,4.73,13.58,9.98,20.22,15.37,3.81,3.09,7.67,4,12.31,2,4.87-2.09,10.17-3.03,15.06-5.31-9.53-3.12-14.26-9.82-14.18-20.1.03-3.03-.76-6.31,1.88-8.81,11.58,2.69,23.15,5.4,34.73,8.09.63.48,1.11,1.07,1.47,1.76,2.48,7.51,3.91,15.27,5.34,23.02.7,3.79.58,7.52-3.45,9.76-7.52,2.27-15.36,1.35-23.03,2.1-15.6,1.53-31.31,1.82-46.96,2.99-19.83,1.48-39.72,2-59.54,3.52-1.77.13-3.54.17-5.25-.37-4.8-2.39-2-5.76-.7-8.45,6.71-14.02,13.73-27.9,21.22-41.54,3.3-6,5.55-12.62,10.06-17.94.31-.13.64-.25.95-.37h-.01Z"/>
          <path class="cls-24" d="M116.96,376.16c-1.81,23.93-4.76,47.77-5.38,71.79-.02,1.02-.72,2.02-1.1,3.03-5.78-1.87-11.79-2.03-17.65-1.26-13.84,1.85-27.7.77-41.55,1.05-3.31.06-6.65-.05-9.21-2.7,8.02-21.99,16.02-43.97,24.06-65.96,3.72-10.17,7.39-20.35,11.32-30.44.81-2.09.66-5.01,3.58-5.91,5.46,6.24,7.7,14.27,11.74,21.31,1.31,2.29,2.51,4.65,3.68,7.02,1.92,3.91,4.62,4.58,8.69,3.3,3.78-1.18,7.56-4.2,11.84-1.26h-.02Z"/>
          <path class="cls-15" d="M364.98,97.22c-14.5-17.78-29-35.54-43.49-53.32-.98-1.21-2.32-2.32-.5-3.85,39.87,19.93,79.74,39.87,119.64,59.73,2.89,1.44,4.72,2.69,1.64,5.65-10.95,13.09-23.88,24.22-35.83,36.31-1.05,1.06-2.47,1.96-4.19,1.11-12.43-15.21-24.85-30.42-37.28-45.64h.01Z"/>
          <path class="cls-24" d="M125.17,672.36c16.76.58,33.2,3.89,49.82,5.75,10.93,1.22,21.86,2.46,32.79,3.68,1.53,1.59,1.73,3.56,1.45,5.58-1.77,12.5-4.15,24.9-6.52,37.29-.29,1.54-1.15,2.87-2.12,4.11-1.15,1.19-2.53,1.99-4.07,2.55-17.62,2.61-35.41,3.7-53.13,5.46-2.25.23-4.41-.03-6.04-1.89-4.06-20.84-8.11-41.68-12.17-62.51v-.02Z"/>
          <path class="cls-15" d="M123.53,170.82c21.4-.14,42.66,1.89,63.93,3.83,12.49,1.14,25.01,1.87,37.52,2.78-3.52,14.92-9.36,29.1-13.87,43.71-1.24,4.05-5.09,3.13-7.84,3.72-12.86,2.78-13.04,2.54-15.59-10.49-.6-3.04-1.34-6.06-2.1-9.07-3.34-13.22-3.34-13.28-17.09-14.36-3.75-.29-7.6.21-11.31-.34-6.15-.89-8.13,2.36-7.98,7.54.4,14.43-2.32,28.77-1.41,43.21-1.34.92-2.76.44-3.61-.47-4.6-4.89-11.52-7.49-14.14-14.31-2.17-18.59-4.34-37.18-6.51-55.77h.01Z"/>
          <path class="cls-27" d="M42.06,448.08c20.61.71,41.19-.1,61.78-1.13,2.99-.15,6.62-.91,6.63,4.04-1.87,24.47-3.73,48.96-5.64,73.43-.15,1.98-.53,3.99-2.46,5.19-19.72-26.06-39.45-52.13-59.16-78.21-.71-.94-2.15-1.74-1.16-3.32Z"/>
          <path class="cls-10" d="M116.96,376.16c-5.37.5-10.12,3.08-15.22,4.46-1.7.45-3.39,1.46-4.54-.85-5.58-11.24-12.66-21.77-16.18-33.99,25.8-7.66,51.61-15.31,77.41-22.97.4.43.8.88,1.19,1.31,1.68,2.69,2.64,5.59,2.63,8.81-.02,6.65.09,13.29,1,19.92.42,3.03.47,6.29-2.5,8.49-14.8,4.35-29.5,8.99-43.81,14.83h.02Z"/>
          <path class="cls-10" d="M104.95,560.34c-2.01-1.98-.6-4.7-1.46-6.91.16-4.84.31-9.67.48-14.51.76-5.53,3.81-6.97,9.34-6.79,14.53.44,29.08.11,43.62.08,1.2-.98,2.45-1.98,4.02-2.09,10.27-.71,20.54-.98,30.78.19,1.09.13,2.04.76,2.92,1.44,1.88,2.1,2.38,4.73,2.23,7.34-.51,8.84,1.87,17.88-1.74,26.52-2.41,2.47-5.56,2.64-8.64,2.43-23.35-1.62-46.75-2.2-70.06-4.38-3.74-1.35-8-1.01-11.48-3.3h-.01Z"/>
          <path class="cls-17" d="M137.33,734.88c15.72-1.46,31.46-2.75,47.15-4.5,4.18-.47,8.33-.44,12.49-.79,3.95-1.84,5.45.84,7,3.68,4.43,8.06,7.05,16.95,11.71,24.91.7,1.15,1.28,2.36,1.64,3.64,1.77,6.08.3,8.36-6.08,8.45-16.18.23-32.34-.05-48.51.13-8.39.1-16.84-.94-25.16,1-2.21.29-4.22-.14-5.91-1.69,1.69-10.69,3.39-21.38,5.07-32.08.19-.91.39-1.82.57-2.73h.02Z"/>
          <path class="cls-10" d="M279.67,530.92c9.46,0,18.93.39,28.37-.12,6.42-.35,11.11.38,11.34,8.09.57,11.13,1.15,22.27,1.72,33.4l-.53-.11c-.96,1.36-2.08,2.51-3.85,2.7-19.13-.45-38.2-2.04-57.32-2.85-2.43-.1-4.85-.36-6.84-2.03-2.07-2.64-2.32-5.79-1.9-8.84.94-7.01.85-14.1,1.74-21.11,1.67-3.78.21-9.77,5.75-10.8,7.17-1.32,14.66-2.76,21.53,1.63v.02Z"/>
          <path class="cls-18" d="M503.55,624.35c-13.77.87-27.56,1.73-41.33,2.6-2.62-2.33-2.47-5.52-2.54-8.57-.26-11.21.48-22.44-1.17-33.62-.51-3.48-.26-7.1,2.56-9.87,2.42,2.89,1.04,6.32,1.23,9.49.19,3.28,1.55,4.23,4.63,3.48,8.69-2.1,17.41-4.11,26.11-6.16,13.12,4.88,25.83,10.65,37.66,18.22,1.16.74,1.96,1.79,2.47,3.07,1.14,6.37,2.07,12.73-1,18.89-9.21,4.67-18.8,4.99-28.63,2.46h0Z"/>
          <path class="cls-18" d="M567.55,618.87c-.43.04-.87.08-1.29.11-5.95,2.54-12.01,4.53-18.64,3.83-2.65-.28-5.36-.34-7.39-2.43-1.34-1.95-1.24-4.2-1.24-6.39-.04-12.15-.06-24.29.01-36.44.02-2.39-.22-4.94,2.08-6.66,13.62-2.72,27.25-5.43,40.89-8.11,1.86-.37,4.09-2.25,5.55-.41,1.28,1.6-.38,3.71-1.07,5.53-6.12,15.9-12.26,31.81-18.34,47.74-.39,1.01-.36,2.16-.53,3.26h-.02Z"/>
          <path class="cls-10" d="M130.05,226.58c5.92,4.92,11.84,9.86,17.75,14.78,7.07.97,14.14,1.96,21.21,2.93,3.15,1.6,2.3,4.44,1.94,6.94-.74,4.98-1.81,9.9-4.71,14.18-.43.94-.87,1.87-1.3,2.81-18.89,1.82-37.78,3.62-57.93,5.56,8-16.39,15.52-31.8,23.03-47.21Z"/>
          <path class="cls-19" d="M372.94,421.49c-11.5-1.6-22.94-3.69-34.59-3.96-.21-.25-.41-.51-.63-.76-.54-4.44,2.46-7.48,4.58-10.7,6.57-9.99,12.75-20.21,19.48-30.09,2.77-2.11,6.3-1.84,9.37-3.03,5.23-.74,10.51-.81,15.72-1.61,3.58-.55,7.01.03,9.98,2.34-7.97,15.94-15.94,31.87-23.91,47.82h.01Z"/>
          <path class="cls-4" d="M396.84,373.67c-8.89-1.03-17.59,1.89-26.46,1.28-6.51,1.5-12.32.48-18.27-3.07-8.74-5.23-18.01-9.58-26.91-14.57-2.5-1.41-6.15-2.16-5.5-6.41,10.65-4.9,21.28-9.8,31.93-14.71,13.98,11.13,27.98,22.24,41.9,33.44,1.33,1.07,2.22,2.68,3.31,4.04h0Z"/>
          <path class="cls-42" d="M558.28,677.59c7.5.49,14.98.97,22.48,1.46.77,8.42.21,16.84-.09,25.25-12.93-3.57-25.87-7.12-38.8-10.7-19.8-5.49-39.59-10.98-61.22-16.98,3.16-.22,4.44-.29,5.71-.38,4.33-3.91,9.67-2.58,14.58-2.46,19.15.49,38.2,2.63,57.32,3.79h0Z"/>
          <path class="cls-13" d="M402.26,142.85c12.13-11.54,24.26-23.1,36.41-34.62,1.1-1.05,2.4-1.88,3.61-2.81-4.07,11.76-11.1,22.04-16.68,33.03-8.89,17.53-18.27,34.82-27.45,52.2-3.22-.38-1.6-2.35-1.27-3.9,1.8-14.64,3.58-29.28,5.38-43.93v.02Z"/>
          <path class="cls-29" d="M541.06,570.88c.03,16.49.05,32.99.09,49.48,2.25,3.6,3.33,7.02-1.56,9.45-2.96-2.78-2.47-6.49-2.49-9.96-.1-14.86,0-29.71-.08-44.55-.01-2.61.47-5.29-.83-8.27-2.02,2.38-1.92,4.98-1.99,7.5-.19,6.43.05,12.86-.16,19.28-.1,2.85.09,5.85-2.52,7.92-12.64-7.03-26.66-11.41-38.47-20.03,10.52-5.71,21.02-11.45,31.55-17.15,2.14-1.16,4.28-2.37,6.53-3.3,7.05-2.91,9.64-1.2,9.77,6.3.02,1.1.11,2.22.16,3.32v.02Z"/>
          <path class="cls-29" d="M375.64,592.3c-11.59-4.91-23.16-9.83-34.75-14.75,11.85-9.08,23.5-18.43,36.12-26.44.77.79,1.67,1.63,1.74,2.73.87,12.63,2.34,25.29-.87,37.82-.58.81-1.33,1.02-2.25.64h.01Z"/>
          <path class="cls-5" d="M420.94,598.7c.05-.29.06-.58.05-.88,10.52-7.76,20.78-15.85,32.01-22.6,1.4,1.23,2.19,2.86,2.22,4.64.19,11.19,1.31,22.4-.67,33.53-1.09,2.53-3.34,3.25-5.45,2.15-9.74-5.01-20.37-8.56-28.15-16.86h-.01Z"/>
          <path class="cls-26" d="M452.72,615.25c.1-13.35.19-26.69.29-40.04,2.69-.11,5.38-.21,8.07-.31.38,17.35.77,34.7,1.15,52.05-.62,3.58-.55,7.16-.1,10.75,1.82,2.11,2.24,4.44.39,6.61-1.95,2.29-4.68,2.41-7.35,1.57-3.56-1.13-4.49-3.96-4.28-7.36-.36-3.38-.69-6.75-.06-10.14-.21-4.5-1.43-9.15,1.89-13.13h0Z"/>
          <path class="cls-37" d="M375.64,592.3c.42,0,.84.01,1.28.02,2.95,2.5,2.29,5.98,2.46,9.21.24,4.75-.34,9.56.87,15.69,3.51-5.31,1.72-9.92,2.27-14.16.6-4.63-1.51-9.79,2.69-13.72.38.05.74.18,1.06.38,0,5.78.4,11.58-.1,17.31-.42,4.9,1.72,6.73,6.06,7.54,3.86.72,7.64,1.89,12.76,3.2-9.19,5.31-18.31,6.92-26.76,10.2-1.56.61-3.13-.38-4.33-1.3-9.79-7.51-19.53-15.09-28.82-23.5,8.32,1.9,16.79,3.33,24.92,5.87,5.51,1.72,5.98-.34,5.71-4.76-.24-3.98-.05-8-.05-11.99h-.01Z"/>
          <path class="cls-15" d="M385.2,589.35c-.08,7.51.05,15.02-.35,22.5-.16,3.13,2.52,8.5-4.06,8.3-6.47-.19-3.52-5.53-3.73-8.63-.43-6.37-.15-12.8-.16-19.2.03-13.74.06-27.47.1-41.21,6.12-1.53,8.67.3,8.3,7.13-.55,10.34-.12,20.74-.11,31.11h.01Z"/>
          <path class="cls-1" d="M396.89,186.78c.14,1.38-.12,2.91,1.27,3.9-.54,1.56-1.06,3.13-2.52,4.12.25-2.69-.84-5.6,1.26-8.01h0Z"/>
          <path class="cls-32" d="M327.79,709.84c1.36-2.54,3.65-2.72,6.22-2.7,53.23.04,106.47.03,159.71.03,2.01,0,4.01-.08,5.68,1.34,2.91,2.89,2.86,5.89.31,8.96.5,5.39-1.74,7.14-7.28,7-28.81-.72-57.69-.19-86.45-1.79-20.2-1.11-40.35-.36-60.5-1.1-6.39-.24-12.72-1.77-19.18-1.24-2.81-3.97-1.79-7.39,1.49-10.49h0Z"/>
          <path class="cls-15" d="M212.95,757.73c-3.8-8.14-7.7-16.23-11.34-24.44-1-2.24-1.96-3.87-4.64-3.7.94-.44,1.87-.89,2.81-1.33,3.57-3.08,8.2-3.07,12.43-3.99,11.15-2.42,22.09-6.03,33.64-6.48.75.23,1.35.64,1.85,1.24,14.74,12.99,30.72,24.4,46.51,36.03-.01.45-.02.9-.03,1.35-1.86,1.95-4.25,2.29-6.75,2.11-24.81-1.84-49.64-.49-74.46-.78h-.02Z"/>
          <path class="cls-34" d="M212.95,757.73c.64-3.08,3.09-2.64,5.25-2.64,20.73-.02,41.47-.09,62.2.05,4.59.03,9.17.82,13.76,1.26.48,8.53-3.52,12.8-11.99,12.8-19.26,0-38.53.17-57.78-.12-5.09-.08-6.94,1.58-6.15,6.43.93,5.65-1,7.58-7.09,7.49-24.34-.38-48.7-.13-73.05-.21-2.07,0-4.45,1.01-6.2-1.09,3-3.11,6.94-2.56,10.64-2.59,21.07-.09,42.13.05,63.2-.12,2.94-.02,7.83,1.5,7.76-3.48-.08-4.38-4.68-3.08-7.51-3.11-19.51-.16-39.03-.02-58.53-.13-3.68-.02-7.65.64-10.57-2.63,2.37-1.81,5.13-1.08,7.73-1.09,21.3-.05,42.6-.03,63.9-.03,6.36,0,8.14-3,5.34-9.01-.28-.61-.61-1.19-.9-1.79h-.01Z"/>
          <path class="cls-34" d="M136.87,769.64c23.95.02,47.92.02,71.87.06,4.06,0,8.34-1.24,8.45,5.81.11,7.47-4.46,6.18-8.75,6.18-25.51.01-51.02,0-76.54,0-.08-4-.15-8.02-.23-12.02,1.73-.01,3.46-.03,5.19-.04h0Z"/>
          <path class="cls-30" d="M327.79,709.84c-.5,3.49-1,7-1.49,10.49-1.42,6.62-2.83,13.24-4.25,19.86-7.3.09-14.61.18-21.91.25-2.36.02-4.41-.11-4.04-3.57.9-8.34,1.55-16.71,2.26-25.06.17-2.09.5-4.43,2.98-4.48,8.18-.19,16.37-.11,24.55.06.65.01,1.27,1.58,1.89,2.43h.01Z"/>
          <path class="cls-30" d="M499.72,717.47c-.11-2.99-.22-5.97-.31-8.96,7.93-3.03,16.14-.85,24.21-1.27,2.32-.12,2.64,1.89,2.73,3.8.36,7.96.63,15.93,1.18,23.88.31,4.5-1.62,5.82-5.84,5.63-6.42-.3-12.85-.19-19.29-.26-.89-7.61-1.77-15.2-2.66-22.81h-.01Z"/>
          <path class="cls-15" d="M251.71,304.1c-.05-.44-.1-.89-.15-1.33.5-2.21,2.24-3.29,4.04-4.11,14.87-6.85,29.58-14.02,44.7-20.34,1.03-.43,2.12-.63,3.24-.64.65.03,1.28.18,1.88.41,5.45,8.35,12.4,9.2,20.52,4.02.64.01,1.21.22,1.72.61,6.23,10.35,12.53,20.67,18.62,31.1.72,1.24,4.01,3.29-.13,4.68-31.14-1.66-61.8-6.39-91.98-14.25-.82-.05-1.64-.11-2.47-.16h.01Z"/>
          <path class="cls-19" d="M255.68,204.2c.55-4.26-.52-8.18-2.82-11.72-2.25-3.43-2.96-7.13-2.49-11.13,3.75,2.24,2.59,8.61,7.95,9.52,10.79-.26,21.01,3.24,31.54,4.75,7.9,1.14,15.73,2.86,23.6,4.26,3.04.54,6.2,1.03,8.22,3.84,1.26,2.33.87,4.75.3,7.13-4.62,19.65-8.96,39.36-13.7,58.98-.52,2.15-1.04,4.33-2.56,6.06-4.87,1.4-5.46-2.67-6.39-5.5-2.64-7.97-5-16.06-7.28-24.15-.9-3.2-2.13-6.29-3.41-9.34-.51-2.1.92-3.21,2.29-4.3,3.02-2.37,4.79-5.27,3.13-9.07-1.58-3.61-4.94-3.83-8.36-3.56-1.09.09-2.17.08-3.25-.21-8.79-5.8-14.87-14.51-22.76-21.33-1.97,1.49.06,5.77-4,5.75h0Z"/>
          <path class="cls-4" d="M304.9,276.03c3.71-16.61,7.42-33.22,11.14-49.82,1.64-7.34,3.32-14.66,4.98-21.99,6.82-3.57,12.88-.4,19.01,2.14,1.05,1.24,1.67,2.78,1.42,4.31-2.2,13.46-1.92,27.44-8.4,39.99-1.8,10.69-3.6,21.38-5.4,32.07-.47.06-.93.13-1.4.19-7.61,1.45-14.64-.22-21.29-3.94l.13-.49c-.91-.76-.94-1.59-.18-2.47h-.01Z"/>
          <path class="cls-43" d="M222.5,389.49c-3.94-16.76-7.85-33.53-11.83-50.29-1.69-7.15-1.74-7.11,5.18-5.94,10.65,1.8,21.3,3.53,31.96,5.29,5.27,1.06,10.55,2.11,15.82,3.17,1.57,1.75.67,3.46-.45,4.78-12.63,14.75-24.55,30.13-38.86,43.38-.66.14-1.27,0-1.82-.38h0Z"/>
          <path class="cls-6" d="M339.48,207.1c-6.16-.96-12.3-1.92-18.46-2.88-13.78-3.73-28.04-5.04-41.93-8.21-6.95-1.59-14.51-.84-20.78-5.15,4.57-7,11.37-6.13,18.25-5.28,31.66,3.93,63.3,7.97,95.01,11.56,5.57.63,6.31,2.91,4.89,7.23-1.02,3.08-.62,6.75-3.49,9.13-11.65.48-23.06-.42-33.49-6.38h0Z"/>
          <path class="cls-10" d="M308.99,372.2c-14.16-1.86-28.53-.41-42.67-2.67-4-7.44-4.4-15.35-2.86-23.43.55-2.87,2.1-4.94,5.57-3.35,13.74,2.49,27.47,5,41.22,7.44,2.17.39,4.39.49,6.59.72,2.16,1.05,2.93,2.81,1.93,4.93-2.74,5.76-4.64,12.03-9.78,16.36h0Z"/>
          <path class="cls-14" d="M308.99,372.2c2.54-5.36,5.06-10.72,7.66-16.05.87-1.76,2.36-3.41.19-5.25h2.86c5.14,5.47,12.55,7.17,18.62,11.14,6.28,4.1,13.3,7.03,19.8,10.82,3.94,2.28,8.09,1.9,12.26,2.1-2.25,2.37-5.76.14-8.08,2.21-5.71,6.86-14.14,9.49-21.51,13.74-2.73,1.57-5.55.55-8.14-.97-3.42-2.01-6.53-4.47-9.9-6.57-3.91-3.57-10.25-4.18-12.26-10.05-.51-.37-1.01-.75-1.51-1.11h.01Z"/>
          <path class="cls-19" d="M339.48,207.1c11.13,2.26,22.53,3.2,33.49,6.38-3.51,4.59-7.61,8.57-12.18,12.06-1.77,1.35-3.66,2.55-3.8,5.1-6.09,1.59-10.85,4.81-13.35,10.84-3.53,3.06-7.05,6.12-10.58,9.17,1.96-12.35,3.94-24.68,5.84-37.02.34-2.15.39-4.35.58-6.53Z"/>
          <path class="cls-11" d="M269.04,342.74c-3.75-.11-4.14,2.27-3.96,5.21.44,7.19.83,14.39,1.24,21.57-.03.48-.08.94-.11,1.42-3.64,3.85-8.82,4.86-13.3,7.16-7.05,3.64-14.29,6.9-21.4,10.44-2.42,1.21-5,3.24-7.93.91,12.65-14.58,25.3-29.18,37.97-43.75,1.03-1.18,2.08-2.29,2.08-3.98,1.93-.29,3.83-.49,5.41,1.03h0Z"/>
          <path class="cls-41" d="M254.17,304.26c16.35,2.37,32.71,4.63,49.03,7.15,14.34,2.22,28.63,4.73,42.94,7.1-11.84,1.31-23.67,2.64-35.52,3.91-1.28.14-2.72.16-3.9-.27-17.38-6.38-35.44-10.75-52.57-17.88h.01Z"/>
          <path class="cls-35" d="M343.64,241.48c.76-9.58,4.33-12.47,13.35-10.84,3.83,2.49,6.04,5.92,4.89,10.54-.9,3.62-3.44,6.16-7.24,6.86-5.51,1.03-8.49-2.42-11-6.56h0Z"/>
          <path class="cls-12" d="M223.59,389.46c11.93-5.49,23.87-10.96,35.79-16.47,2.19-1.01,4.24-2.39,6.83-2.04.48,33.3.95,66.6,1.43,99.92-3.57.35-4.18-2.78-5.38-4.89-12.18-21.41-23.55-43.27-35.67-64.72-1.01-1.79-1.21-4.9-3.94-4.67-2.01.17-2.67,2.77-3.64,4.47-14.31,25.31-28.81,50.52-43.43,75.65-2.15,3.7-3.26,8.41-8.03,10.09-.4-1-1.19-2.01-1.13-2.99.65-10.87-1.1-21.63-1.53-32.45-1.15-30.01-2.74-60.02-4.17-90.03.09-12.42-1.86-24.78-1.14-37.21,13.95,11.99,25.5,26.31,38.13,39.58,8.21,8.62,17,16.72,24.73,25.79.37.01.72,0,1.09-.03h.03Z"/>
          <path class="cls-14" d="M304.9,276.03c.06.82.13,1.64.18,2.47-17.84,8.09-35.68,16.18-53.53,24.27-2.41-3.43-1.28-7.31-1.01-10.91,2.16-29.19,4.49-58.38,5.13-87.66,2.47-2.79.41-6.47,2.22-10.52,8.54,8.63,17.16,16.53,24.69,25.52-1.75,7.01.34,12.59,6.21,16.78,3.27.69,3.55,3.41,4.28,6,2.65,9.36,5.39,18.71,8.28,27.99.68,2.2.7,5,3.52,6.04h.03Z"/>
          <path class="cls-20" d="M176.99,231.19c-6.05-9.66-12.12-19.31-18.13-29-.65-1.05-1.5-2.26.35-3.24,6.85-3.6,15.92,1.38,16.54,8.86.65,7.64,1.79,15.24,2.7,22.86-.49.17-.97.35-1.46.51Z"/>
          <path class="cls-23" d="M166.24,265.42c-.48-7.23,4.3-13.76,2.77-21.12,2.38.37,4.77.67,7.14,1.13,2.67.51,6.65-1.31,7.68,1.92.76,2.38-2.82,4.13-4.66,5.91-4.26,4.1-7.71,9.07-12.92,12.17h-.01Z"/>
          <path class="cls-24" d="M167.57,486.79c18.27-31.85,36.55-63.71,55.42-96.59,7.09,12.95,13.46,24.83,20.05,36.58,8.23,14.67,15.53,29.87,24.6,44.07,3.79,18.27,7.58,36.56,11.35,54.84.36,1.71.45,3.47.67,5.21-5.49,0-10.98.36-16.43-.06-5.46-.42-8.46,1-7.73,7.07.09.74-.62,1.58-.95,2.37-3.15-6.74-8.88-7.12-15.39-6.92-12.16.37-24.34.09-36.52.12-2.89,0-5.76-.06-8.47-1.21-12.42-.03-24.85-.06-37.28-.1,2.08-15.48,6.92-30.31,10.66-45.4l.02.02Z"/>
          <path class="cls-24" d="M310.5,373.31c4.37,2.82,8.74,5.65,13.11,8.47,2.04,2.58,2.51,5.65,2.15,8.72-.85,7.31,1.59,13.25,6.73,18.35,2.49,2.47,4.5,5.34,5.76,8.68h.1c-3.6,15.28-5.5,30.86-8.05,46.33-3.54,21.34-7.05,42.66-11.28,64.01-.57-5.78-1.51-11.47-1.88-17.15-1.63-24.73-2.73-49.51-4.23-74.25-1.14-18.54-2.65-37.07-3.86-55.6-.16-2.53-.9-5.4,1.47-7.53v-.02Z"/>
          <path class="cls-2" d="M287.73,639.03c31.37-1.84,62.75-3.49,94.1-5.6,14.35-.96,28.65-2.69,43.06-2.5,1-.71,2.02-.87,3.11-.17,2.26,2.99,2.34,6.19.98,9.54-.24,7.68.84,15.21,2.67,22.66-2.91,3.22-7.09,3.41-10.86,4.54-11.5,1.53-22.89,3.81-34.49,4.64-1.9.29-3.97-.09-5.63,1.32-1.62,2.56-4.4,2.86-6.97,3.38-35.07,7.01-70.23,13.54-105.2,21.02-3.05.65-6.15,1.08-9.15-.29-3.44-2.86-.92-5.71.28-8.29,4.02-8.6,8.39-17.04,13.06-25.31,3.09-7.05,6.83-13.79,10.49-20.56,1.04-1.9,2.01-3.99,4.55-4.39h-.01Z"/>
          <path class="cls-7" d="M258.57,696.3c13.9-.08,27.01-4.78,40.5-7.22,25.51-4.6,50.87-10.03,76.3-15.08,1.73-.35,3.53-.36,5.29-.53h11.94c.08.4.15.8.23,1.2-6.21,1.89-12.42,3.79-18.63,5.67-41.57,12.6-83.15,25.21-124.72,37.84-.63.19-1.2.56-1.81.85-.45,0-.9-.01-1.35-.02-1.17-7.36,4.61-11.94,7.21-17.79.94-2.12,1.35-5.36,5.03-4.92h.01Z"/>
          <path class="cls-33" d="M558.28,677.59c-24,.95-47.92-2.07-71.91-1.34-4.3-2.41-9-.52-13.45-1.27-9.78-1.54-19.62-2.9-29-6.23-2.3-.81-5.47-.83-5.66-4.46,15.44.55,30.71,2.92,46.04,4.54,18.84,1.99,37.66,4.1,56.5,6.16,5.86.64,11.81.72,17.5,2.61h-.02Z"/>
          <path class="cls-36" d="M438.26,664.29c10,4.31,20.78,5.93,31.08,9.2,1.26.4,2.66.32,3.58,1.49-21.37.74-42.66-1.49-64.01-1.48-1.55-1.24-3.94.41-5.8-2.16,5.26-4.33,12.2-3.19,17.83-5.69,3.42-1.47,6.84-2.93,10.69-2.68,2.25.25,4.72-.62,6.62,1.32h0Z"/>
          <path class="cls-21" d="M420.95,665.66c-4.79,3.34-10.77,3.44-16.21,5.77,1.56.78,2.87,1.43,4.18,2.08-7.54-.45-15.09-.9-22.63-1.35,11.37-3.15,22.9-5.46,34.67-6.5h0Z"/>
          <path class="cls-27" d="M252.69,569.4c19.5.96,38.99,1.89,58.48,2.93,2.38.13,4.72.87,7.09,1.32.65,3.53-2.15,4.58-4.39,5.76-29.71,15.54-59.15,31.59-88.85,47.16-2.48,1.3-4.97,3.18-8.11,1.89-36.85-21.84-73.7-43.69-110.55-65.54,2.61-3.72,6.06-1.75,9.27-1.37l78.71,4.06c1.98-1.79,4.34-1.62,6.82-1.62,13.84,0,27.59,2.04,41.45,1.79,3.75-.06,7.55.13,10.11,3.61v.02Z"/>
          <path class="cls-24" d="M216.89,628.47c32.25-17.07,64.52-34.14,96.77-51.21,1.74-.92,3.73-1.54,4.59-3.6.77-.49,1.54-.97,2.3-1.46-2.82,10.77-9.36,19.79-14.08,29.67-5.98,12.52-12.47,24.8-18.75,37.18-4.48,8.43-8.96,16.86-13.45,25.29-1.47,1.41-3.27,2.17-5.2,2.74-16.9,4.97-33.83,9.82-50.79,14.57-3.03.84-6.31,2.53-9.4-.1.71-17.98,5.64-35.33,8.01-53.06h0Z"/>
          <path class="cls-27" d="M208.89,681.53c19.22-4.45,37.97-10.52,56.91-15.95,2.8-.8,5.55-1.5,8.48-1.27-5.24,10.66-10.47,21.33-15.71,31.98-4.08,7.57-8.16,15.14-12.24,22.71-15.56,2.91-30.71,7.87-46.56,9.26,2.66-15.49,5.33-30.99,8-46.48.37-.09.75-.17,1.11-.26Z"/>
          <path class="cls-8" d="M115.61,561.56c-3.08.52-6.46-.98-9.27,1.37-.47-.87-.94-1.73-1.41-2.59,3.57.35,7.35-1.23,10.68,1.22h0Z"/>
          <path class="cls-40" d="M539.67,629.8c2.48-2.83.55-6.36,1.47-9.45,8.43.6,16.74-.98,25.11-1.37-7.27,6.53-15.48,11.79-23.37,17.51-1.51,1.1-2.77,2.11-4.75,1.28-11.4-4.8-23.61-7.52-34.59-13.42,9.34-.9,18.66-1.81,28-2.7,2.46,2.96,3.04,7.81,8.13,8.16h0Z"/>
          <path class="cls-40" d="M452.79,637.6c.77,2.65-1.45,6.65,4.25,6.86,5.76.21,4.73-3.54,5.09-6.77h17.19c.14.36.28.71.42,1.07-8.15,4.17-16.32,8.3-24.44,12.51-2.37,1.22-4.27.14-6.24-.91-6.25-3.34-12.51-6.71-18.76-10.05-.11-.94.16-1.98,1.02-2.2,7.11-1.8,14.25-3.85,21.49-.51h-.01Z"/>
          <path class="cls-28" d="M452.79,637.6c-7.4,1.72-15.19.19-22.5,2.7h-1.32c-1.81-2.92-1.22-6.2-1.43-9.37.1-.64-.08-1.54.63-1.76,8.13-2.56,16.26-5.66,24.64-.81,0,3.08,0,6.16-.01,9.24h0Z"/>
          <path class="cls-18" d="M452.8,628.37c-8.55-.34-16.96.52-25.26,2.58-.89,0-1.76,0-2.65-.01,3.22-5.06,0-9.87-.74-14.71-.89-5.86-3.02-11.52-3.21-17.53,10.59,5.52,21.18,11.04,31.78,16.55.03,4.37.05,8.75.09,13.12h0Z"/>
          <path class="cls-12" d="M252.69,569.4c-13.05-.81-26.09-1.6-39.13-2.43-6.42-.41-12.82-.9-19.24-1.34-.04-11.11-.09-22.22-.13-33.33,2.11-1.77,4.65-1.17,7.02-1.18,14.41-.08,28.82-.08,43.22-.1,6.48,0,9.85,3.09,10.11,9.28-.63,9.71-1.24,19.4-1.87,29.1h.02Z"/>
          <path class="cls-26" d="M539.67,629.8c-5.01.95-7.72-1.77-8.13-8.16,0-6.64-.01-13.28-.02-19.92.78-11.91-1.22-23.92,1.23-35.79.49-2.35.66-4.45,3.8-4.22,3.3.24,3,2.69,3.01,4.88.05,21.07.08,42.13.12,63.2h-.01Z"/>
          <path class="cls-43" d="M338.26,417.53c-5.75-3.57-8.83-9.64-13.33-14.38-2.62-2.75-1.06-6.75-1.23-10.18-.19-3.72-.06-7.45-.08-11.19,9.67,9.61,19.38,8.27,29.39.41,2.74-2.14,6.18-3.38,9.29-5.03-4.18,9.6-10.65,17.8-16.12,26.61-2.79,4.5-6.12,8.69-7.92,13.76h0Z"/>
          <path class="cls-39" d="M304.97,278.99c7.24.56,14.3,2.03,21.29,3.94-8.3,5.68-15.4,4.36-21.29-3.94Z"/>
          <path class="cls-9" d="M288.81,235.99c-10.12-3.06-12.12-8.47-6.21-16.78,6.91-2.59,12.2-1.14,14.13,3.85,2.14,5.56-.38,9.68-7.92,12.93Z"/>
          <path class="cls-12" d="M234.98,452.77c-.14,1.8-11.62,10.18-13.54,9.89-1.09-.16-10.22-12.33-10.18-13.58.03-1.1,13.91-9.52,15.47-9.38,1.59.14,8.42,10.96,8.24,13.08h0Z"/>
          <path class="cls-12" d="M235.54,498.2c-.04,1.51-9.92,9.41-11.52,9.21-1.26-.16-10.58-12.05-10.51-13.41.06-1.17,11.13-8.87,12.81-8.9,1.18-.02,9.26,11.46,9.22,13.1h0Z"/>
          <path class="cls-38" d="M225.58,542.81c1.99,0,3.98.04,5.98,0,8.71-.19,8.42-.21,8.35,8.7-.03,4.77-1.79,6.11-6.29,5.92-6.85-.3-13.73-.12-20.6-.06-3.12.02-6.09-.1-5.51-4.43.51-3.73-1.99-9.2,4.77-9.67,4.4-.31,8.85-.05,13.28-.05v-.4Z"/>
        </g>
      </g>
    </g>
  </g>
</svg>