<?xml version="1.0" encoding="UTF-8"?>
<svg xmlns="http://www.w3.org/2000/svg" version="1.1" viewBox="0 0 600 800">
  <defs>
    <style>
      .cls-1 {
        fill: #866956;
      }

      .cls-2 {
        fill: #967ea9;
      }

      .cls-3 {
        fill: #eaeaea;
      }

      .cls-4 {
        fill: #e2c9b7;
      }

      .cls-5 {
        fill: #dfd8e3;
      }

      .cls-6 {
        fill: #735f84;
      }

      .cls-7 {
        fill: #bb967e;
      }

      .cls-8 {
        fill: #8e8e8e;
      }

      .cls-9 {
        fill: #8c789b;
      }

      .cls-10 {
        fill: #725360;
      }

      .cls-11 {
        fill: #544362;
      }

      .cls-12 {
        fill: #ab889b;
      }

      .cls-13 {
        fill: #dcdcdb;
      }

      .cls-14 {
        fill: #e3dde7;
      }

      .cls-15 {
        fill: #d9bca6;
      }

      .cls-16 {
        fill: #735f83;
      }

      .cls-17 {
        fill: #9c9fa0;
      }

      .cls-18 {
        fill: #8a779b;
      }

      .cls-19 {
        fill: #c3c3c3;
      }

      .cls-20 {
        fill: #bc977e;
      }

      .cls-21 {
        fill: #886a57;
      }

      .cls-22 {
        fill: #2f2f2e;
      }

      .cls-23 {
        fill: #725361;
      }

      .cls-24 {
        fill: #866855;
      }

      .cls-25 {
        fill: #6e4f5e;
      }

      .cls-26 {
        fill: #bd987e;
      }

      .cls-27 {
        fill: #2f2e2e;
      }

      .cls-28 {
        fill: #4e3141;
      }

      .cls-29 {
        fill: #d1cbd4;
      }

      .cls-30 {
        fill: #bb977e;
      }

      .cls-31 {
        fill: #8b779b;
      }

      .cls-32 {
        fill: #bb977d;
      }

      .cls-33 {
        fill: #d5ccc7;
      }

      .cls-34 {
        fill: #8d657a;
      }

      .cls-35 {
        fill: #9780ab;
      }

      .cls-36 {
        fill: #e4dee8;
      }

      .cls-37 {
        fill: #554463;
      }

      .cls-38 {
        fill: #9d85b2;
      }

      .cls-39 {
        fill: #554462;
      }

      .cls-40 {
        fill: #977fab;
      }

      .cls-41 {
        fill: #856755;
      }

      .cls-42 {
        fill: #fdfdfd;
      }

      .cls-43 {
        fill: #856754;
      }
    </style>
  </defs>
  <!-- Generator: Adobe Illustrator 28.7.1, SVG Export Plug-In . SVG Version: 1.2.0 Build 142)  -->
  <g>
    <g id="Layer_1">
      <g id="Layer_1-2" data-name="Layer_1">
        <g>
          <path class="cls-19" d="M363.54,283.73c8.28-3.29,14.83-9.28,22.08-14.17,15.88-10.72,31.6-21.68,47.37-32.54,3.18-1.79,6.5-.98,9.72-.32,14.95,3.12,30.07,5.25,45.13,7.75,3.44.57,7.18.73,9.19,4.39-17.31,22.55-34.55,45.17-51.98,67.64-9.17,11.83-17.65,24.21-27.86,35.21-8.24-5.45-13.14-14.04-19.82-20.95-1.37-1.42-2.38-3.18-3.9-4.48-.71-.63-1.36-1.3-1.98-2.02-9.35-10.86-18.96-21.51-28.43-32.67,2.77,9.43,1.91,19.04,4.04,28.23,2.34,19.57,5.45,39.04,6.74,58.7-.4,2.93.53,5.71,1.08,8.53-.42,1.18-1.32,1.82-2.45,2.22-15.47-.23-30.62-3.44-45.93-5.1-7.88-.85-15.77-1.82-23.59-3.22-3.51-.64-7.03-1.38-8.47-5.33-.64-2.44-.14-4.83.61-7.12,3.69-11.26,6.52-22.79,10.94-33.82.64-1.57,1.3-3.14,1.43-4.86,1.67-7.29,4.23-14.31,6.55-21.39,2.86-11.35,7.34-22.21,10.32-33.52.62-2.33,1.39-4.69,3.61-6.13,7.26.06,12.59,4.85,18.66,7.81,5.53,2.7,10.47,6.7,16.93,7.18h0Z"/>
          <path class="cls-13" d="M277.32,718.78c-13.03-4.73-26.78-6.38-40.18-9.55-12.4-2.93-24.96-5.15-37.32-8.24-5.96-1.49.78-4.24-.03-6.41,6.46-14.45,16.07-27.01,24.47-40.28,28.93-45.68,58.64-90.88,87.46-136.64,1.3-2.06,2.52-4.22,4.32-5.88,1.46-1.34,3.1-2.9,4.96-.4.94,2.15.74,4.5,1.29,6.73-.27,20.17-1.45,40.31-2.14,60.46-.57,16.4-1.54,32.79-1.6,49.2-.04,10.68-1.13,21.25-1.89,31.86.73,10.65.93,21.32-.11,31.93-.54,5.52,1.38,7.07,6.5,7.04,16.21-.08,32.42-.16,48.63.06,3.54.05,7.77-.9,9.76,3.66-2.63,3.23-6.38,2.66-9.83,2.69-15.48.13-30.96.17-46.44-.02-5.17-.06-8.56,1.37-9.66,6.69-2.57,4.08-.74,9.15-2.92,13.32-1.94,2.07-4.28,1.05-6.51.83-9.69-1.93-19.76-2.28-28.76-7.06h.01Z"/>
          <path class="cls-25" d="M102.43,253.05c-19.56-4.87-39.12-9.74-58.69-14.63-.42-4.48,3.38-5.31,6.13-6.79,13.5-7.25,26.91-14.69,40.83-21.08,6.26-2.87,9.47-7.21,10.97-13.84,6.33-27.71,13.08-55.32,19.5-83.01,1.9-8.22,4.23-16.31,6.26-24.49.61-1.69,2.29-2.65,2.95-4.3,1.81-7.1,3.61-14.19,5.42-21.29,2.69-1.44,5.15-.35,7.52.82,14.63,7.24,29.16,14.67,43.89,21.72,2.55,1.22,5.17,2.56,6.67,5.23,1.18,3.78-.91,6.91-2.24,10.11-4.5,10.84-9.02,21.69-14.09,32.27-2.77,5.76-3.53,10.8,1.15,15.83,1.19,1.27,2,2.95,1.61,4.88-1.29,2.71-3.98,3.36-6.44,4.32-7.24,2.8-14.38,5.9-21.67,8.56-4.92,1.79-6.61,4.56-4.65,9.65,1.83,4.76,3.17,9.7,3.97,14.77-1.34,6.69-3.65,13.01-7.32,18.79-11.2-1.15-22.46-.57-33.71-.82,20.69,10.89,41.39,21.94,62.21,32.77,1.41.73,2.85,1.19,4.42,1.31,3.43.73,5.5,3.39,7.94,5.54,7.66,7.54,15.19,15.21,21.91,23.62,1.46,1.83,4.53,3.57,1.14,6.36-2.69,1.02-5.26.1-7.83-.49-30-6.92-59.84-14.55-89.84-21.5-3.08-.71-5.99-1.64-7.99-4.32h-.01Z"/>
          <path class="cls-20" d="M315.7,308.91c-2.19,7.18-4.38,14.36-6.57,21.54-2.86,2.36-5.95,1.13-8.91.43-15.33-3.65-30.72-7.11-45.99-11.05-2.9-.75-5.32-2.09-7.5-4.04-9.68-9.87-19.34-19.74-29.07-29.57-2.31-2.33-4.8-4.48-7.21-6.72-7.15-10.77-9.23-23.58-14.21-35.23-1.03-2.39-1.97-4.92-1.3-7.66,2.1-2.88,3.93-.69,5.46.55,2.41,1.96,4.48,3.58,7.26.53,2.97-3.25-.04-4.97-1.47-7.27-3.33-5.39-9.64-8.46-11.64-14.89.57-6.47,5.75-10.32,8.86-15.33,4.44-7.17,4.65-7.31-.65-13.91-3.2-3.99-6.16-8.15-9.37-12.13-3.12-3.88-3.51-7.18,1.81-9.44,11.53-3.13,23.27-5.28,34.96-7.66,5.49-1.12,8.93.94,10.96,5.99,2.48,6.14,4.93,12.31,7.58,18.39,3.17,12.07,8.69,23.26,13.15,34.84,6.05,15.74,12.5,31.32,18.75,46.99,1.07,2.67,2.39,5.27,2.58,8.22-.53,3.24-3.38,3.86-5.74,4.89-4.26,1.88-8.61,3.56-13.69,6.37,9.67,5.06,19.17,8.94,28.45,13.21,6.45,2.96,12.71,6.33,19.3,8.97,1.89.76,3.57,1.84,4.18,3.97h.01Z"/>
          <path class="cls-29" d="M492.69,769.44c22.63,2.24,45.26,4.47,67.89,6.71.04.27.07.53.11.79-7.54.97-15.07,2.12-22.63,2.9-21.97,2.26-43.92,4.59-65.81,7.6-13.34,1.84-26.79,2.95-40.17,4.45-18.66,2.08-37.35,3.84-55.93,6.45-13.97,1.97-27.88,1.14-41.65-.36-8.14-.88-16.31-.77-24.46-1.73-16.23-1.92-32.67-1.97-49.01-3.08-23.37-1.58-46.73-3.51-70.09-5.13-17.36-1.2-34.74-2.16-52.17-3.94,15.28-1.85,30.56-3.69,45.84-5.55,21.05-2.56,42.07-5.18,63.13-7.68,5.93-.71,11.88-1.19,17.84-1.63,3.36-.25,6.65-.48,9.19-3.07,4.57,2.07,2.98,6.42,3.51,9.89.67,4.43,1.31,8.53,7.15,8.44,13.92-.65,27.85-.09,41.76-.3,7.59-.11,7.68-.59,4.35-7.37-2.5-5.09-7.76-9.49-4.97-16.26,4.59-2.69,9.87-2.01,14.8-3.04,19.59-4.06,39.14-1.74,58.67.55,3.11.37,6.15.56,9.21-.08,3.65-.47,4.22,2.45,5.25,4.84.95,2.19,1.5,4.87,4.61,4.97,2.91.09,3.27-2.53,4.31-4.39.77-1.38,1.54-2.73,3.39-2.77,3.42.78,6.98.89,10.28,2.28,3.92,4.72,9.19,5.11,14.86,5.23,13.59.31,27.25-1.44,40.77,1.27h-.01Z"/>
          <path class="cls-17" d="M295.74,374.3c2.06,6.13,7.92,4.27,11.92,4.87,21.78,3.27,43.68,5.84,65.54,8.65-1.58,5.86-7.45,5.82-11.46,8.33-12.73,5.66-25.21,11.82-37.48,18.42-27.44,12.38-54.03,26.47-80.89,40.01-1.6.8-3.15,1.64-5.03,1.36-7.18-12.76-12.19-26.52-18.31-39.78-7.79-16.89-15.24-33.95-22.83-50.93,2.62-2.17,5.6-2.06,8.73-1.59,10.81,1.62,21.76,2.21,32.48,4.49,17.78,1.39,35.37,4.43,53.1,6.32,1.39-.45,2.8-.88,4.24-.14h-.01Z"/>
          <path class="cls-19" d="M494.6,635.79c4.74,4.15,3.17,7.32-.95,11.13-19.36,17.83-38.05,36.4-57.95,53.65-.33.29-.77.44-1.15.66-3.88-.41-3.86-3.79-4.53-6.35-2.94-11.11-5.75-22.25-7.98-33.52-3.63-18.01-8.46-35.73-12.65-53.61-6.36-27.18-12.61-54.38-19.29-81.48-.64-2.56-1.46-5.14-.7-7.84,3.7-3.94,5.33.23,7.08,2.11,11.02,11.9,21.42,24.34,32.06,36.55,20.28,23.26,40.76,46.34,60.69,69.91,2.21,2.61,5.15,4.92,5.38,8.81v-.03Z"/>
          <path class="cls-28" d="M102.43,253.05c35.55,8.5,71.09,17.01,106.64,25.51.48.21.69.47.64.81-.06.37-.15.56-.29.56-13.41,14.72-26.77,29.47-40.23,44.13-17.07,18.59-34.18,37.14-51.38,55.61-2.21,2.36-3.87,5.43-7.22,6.56-4.18-5.83-3.15-12.82-3.52-19.21-.67-11.43-2.15-22.82-1.91-34.3.05-2.65-.25-5.31,1.31-7.68-.36-24.05-2.75-47.99-4.03-72h-.01Z"/>
          <path class="cls-19" d="M319.76,510.5c-6.11,5.96-9.59,13.75-14.14,20.76-19.82,30.46-39.34,61.11-58.95,91.7-13.87,21.64-27.66,43.32-41.57,64.93-1.53,2.38-2.62,5.19-5.29,6.7.07-7.17,3.32-13.56,5.32-20.19,16.85-55.69,33.95-111.3,51.06-166.91.8-2.62.9-5.21,1.15-7.85,7.31-1.35,14.39.71,21.55,1.51,11.82,1.32,23.67,2.44,35.43,4.22,2.61.39,6.73.18,5.45,5.14h.01Z"/>
          <path class="cls-12" d="M193.33,91.64c-19.18-9.33-37.93-19.55-57.53-28.02,11.95-7.18,25.08-11.86,37.69-17.62,17.28-7.9,34.63-15.64,51.95-23.46,14.14-6.29,28.29-12.58,42.43-18.87,3.81-.08,6.5-4.4,10.75-2.83.17,1.97.56,3.91.21,5.94-3.46,19.38-6.17,38.9-9.96,58.24-.75,2.09-2.55,2.92-4.44,3.62-21.11,7.73-42.23,15.45-63.43,22.92-1.88.67-3.79,1.18-5.82,1.08-.71-.15-1.32-.48-1.85-.98h-.01Z"/>
          <path class="cls-8" d="M319.76,510.5c-4-4.91-9.85-3.18-14.89-3.9-14.16-2-28.4-3.49-42.59-5.28-1.69-.22-3.29-1.11-4.93-1.68-6.33-14.56-12.66-29.13-18.99-43.69,6.52-5.95,14.81-8.82,22.52-12.58,19.5-9.53,38.45-20.13,58.43-28.68,1.42-.61,2.88-1.11,4.33-1.65,3.28,2.59,2.95,6.37,2.75,9.82-1.62,27.87-2.33,55.76-2.86,83.67-.26,1.21-.34,2.43-.34,3.66-.46,2.56.8,5.91-3.11,6.92-.1-2.21-.21-4.4-.31-6.61h0Z"/>
          <path class="cls-8" d="M361.13,394.45c3.98-2.3,8.5-3.58,12.06-6.63.47-.44.95-.88,1.43-1.32.5-1.6,1.76-2.51,3.14-3.21,10.75-5.53,21.55-10.95,32.44-16.18,2.14-1.03,4.48-2.02,6.86-.37-2.18,33.53-4.37,67.05-6.59,100.56-.13,1.96-.69,3.9-1.04,5.84-.02,7.3-14.14,38.09-19.2,41.86-.76,0-1.41-.28-1.95-.81-1.98-2.3-2.34-5.2-2.98-7.99-7.83-33.87-15.85-67.69-23.9-101.51-.8-3.34-2.59-6.76-.27-10.23h0Z"/>
          <path class="cls-12" d="M130.39,84.92c-.44,1.33-.88,2.67-1.32,4-11.27,25.17-26.87,47.91-40.34,71.85-13.16,23.38-26.85,46.47-40.56,69.54-1.36,2.3-2.23,5.34-5.79,5.36,2.26-16.42,4.43-32.85,6.8-49.25,3.64-25.17,7.58-50.29,11.02-75.48.82-6.04,3.65-8.52,9.32-9.87,18.3-4.35,36.48-9.14,54.69-13.84,2.12-.54,4.12-1.54,6.18-2.32h.01Z"/>
          <path class="cls-17" d="M497.03,248.83c-19.44-3.48-38.88-6.94-58.32-10.45-1.93-.35-3.82-.91-5.73-1.37,6.5-13.78,13.01-27.58,19.51-41.36,3.77-7.99,7.55-15.99,11.32-23.98.7-2.46,2.77-3.38,4.86-4.09,9.45-3.19,19.21-5.16,28.86-7.59,1.3-.33,2.65-.18,3.74.78,3.24.52,2.72,3.06,2.56,5.16-1.52,20.64-2.92,41.28-4.77,61.9-.63,7.01.22,14.16-2.05,21.01h.01Z"/>
          <path class="cls-3" d="M390.45,514.5c6.33-13.78,12.66-27.57,18.98-41.35,3.78,1.36,4.83,4.97,6.42,8.03,18.44,35.44,36.78,70.92,55.23,106.35,7.37,14.16,15.02,28.19,22.4,42.36.9,1.73,3.25,3.49,1.12,5.92-20.4-23.28-40.85-46.51-61.19-69.85-13.36-15.33-26.54-30.81-39.84-46.21-.86-.99-1.93-1.81-2.9-2.71-.83-.78-.95-1.62-.23-2.54h0Z"/>
          <path class="cls-3" d="M501.29,160.77c-12.24,4.5-25.41,5.78-37.47,10.89-6.53.11-12.46,2.95-18.67,4.46-4.25,1.03-6.94,1.04-10.63-2.01-13.09-10.81-13.16-10.52-8.64-26.69,5.36-19.18,10.42-38.45,15.73-57.64.98-3.55.91-6.88.19-10.46-2.91-14.51-5.57-29.07-8.35-43.61-.75-3.93.26-6.5,4.73-6.96,4.72-.48,6.27-1.71,11.78-3.27,4.05-1.15,4.4,3.07,5.34,5.44,3.44,8.64,6.53,17.39,9.7,26.13.9,2.49,1.48,5.16,4.1,6.56-.18,5.12-4.86,6.35-7.94,8.72-10.99,8.47-9.01,6.71-3.31,16.39,3.47,5.9,7.55,11.41,11.16,17.21,1.47,2.35,3.65,4.7,1.49,7.81-6.86,3.91-14.7,4.85-22.06,7.2-4.93,1.57-7.86,4.24-9.15,9.38-1.94,7.75-4.09,15.46-6.11,23.19-2.23,8.52,4.08,15.39,12.89,13.6,11.1-2.26,21.84-6,32.8-8.83,9.89-2.55,19.59-5.79,29.55-8.1,4.24-.98,7.81-2.69,9.71-7.17,1.88-4.43,1.65-7.97-1.99-11.39-6.13-5.78-11.77-12.08-18.11-17.68-1.94-1.71-4.47-3.19-3.66-6.5,6.32-2.11,10.9.46,14.61,5.41,6.38,6.14,12.72,12.32,19.16,18.4,1.89,1.78,2.17,3.54,1.24,5.92-1.95,4.94-3.73,9.95-5.43,14.98-.73,2.16-2.06,3.08-4.23,3.62-6.18,1.54-12.3,3.33-18.44,5.03h-.02Z"/>
          <path class="cls-34" d="M42.37,235.67c10.25-17.31,20.58-34.57,30.72-51.95,18.07-30.97,36.01-62.03,54.04-93.03.42-.72,1.28-1.19,1.94-1.77-4.7,20.21-9.37,40.43-14.11,60.63-4.09,17.42-8.39,34.79-12.29,52.25-.98,4.39-3.25,6.83-7.11,8.77-15.62,7.84-31.13,15.9-46.66,23.91-1.94.99-4.17,1.67-5.14,3.95-2.41.06-2.17-1.2-1.37-2.75h-.02Z"/>
          <path class="cls-6" d="M492.69,769.44c-2.52,2.11-5.53,1.02-8.29,1.05-11.71.13-23.45-.3-35.14.21-6.13.27-10.73-.9-13.27-6.85-4.52-2.76-5.92-8-9.27-11.69-4.91-9.96-11.36-19.02-16.81-28.67-.02-.72.17-1.37.57-1.97,8.31-4.44,16.96-7.28,26.56-5.63,18.54,17.86,37.09,35.7,55.63,53.56h.01Z"/>
          <path class="cls-16" d="M326.23,761.34c3.55,6.88,7.01,13.83,10.69,20.64,1.74,3.22,1.68,4.68-2.58,4.63-16.41-.21-32.82-.19-49.23-.27-2.72-2.59-2.45-6.02-2.52-9.32-.19-8.62.4-17.26-1.07-25.84-.7-4.07.69-7.87,2.27-11.56-.05-.4.03-.77.24-1.12.99-2.25,2.89-3.35,5.18-3.36,7.17-.05,14.26-1.54,21.44-1.15.72.11,1.43.35,2.08.66,5.92,8.17,11.41,16.58,13.52,26.71h0Z"/>
          <path class="cls-20" d="M437.06,715.88c-8.61,2.56-17.69,3.26-26.08,6.67-4.81-2.47-6.12-7.72-9.17-11.6-2.02-2.56-3.89-5.27-5.79-7.94-4.13-6.73-8.59-13.23-12.81-19.91-1.48-2.34-3.59-4.63-2.04-7.81,10.3-5.55,21.57-8.71,32.36-13.06,1.82-.73,3.71-1.34,5.54-2.09.99-.31,2.01-.36,3.04-.13.64.26,1.22.59,1.76,1.04,3.07,12.21,6.13,24.41,9.17,36.63.32,1.28.32,2.66,1.52,3.55-.55,5.12,1.82,9.74,2.5,14.66h.01Z"/>
          <path class="cls-34" d="M106.46,325.05c2.65,9.02,1.07,18.39,2.31,27.58,1.49,11.09,1.28,22.4,1.82,33.61-21.31-13.17-41.06-28.59-63.42-43.29,20.71-6.26,40.01-12.08,59.3-17.91h-.01Z"/>
          <path class="cls-3" d="M293.36,375.58c-1.43,2.17-3.58,1.39-5.45,1.15-16.48-2.12-32.96-4.34-49.45-6.52-2.59-.49-3.92-2.07-3.52-4.68,2.31-15.12,4.44-30.27,8.67-45.02.25-.84.9-1.52,1.57-2.12h2.58c3.69-.79,4.82,2.36,6.47,4.42,9.46,11.84,18.55,23.96,28.05,35.76,3.41,5.84,10.03,9.6,11.07,16.98v.02Z"/>
          <path class="cls-13" d="M417.07,366.73c-14.72,5.35-27.95,13.92-42.44,19.76-4.04-.99-2.4-4.27-2.71-6.76.69-1.43,1.73,2.5,2.31-.14,3.69-17.12,11.18-32.99,16.3-49.65.64-2.07,1.47-4.25,4.01-4.87,7.93,8.55,16.06,16.94,22.69,26.62-.04,5.02-.09,10.03-.13,15.05h-.02Z"/>
          <path class="cls-31" d="M281.14,359.77c-9.37-11.79-18.74-23.61-28.14-35.38-1.65-2.06-3.48-3.99-5.23-5.98-.35-.87-.7-1.75-1.05-2.63,20.8,4.88,41.6,9.77,62.4,14.66.16,1.51.02,2.91-1.21,3.99-6.44,7.32-13.44,14.1-20.36,20.95-1.86,1.84-3.46,4.14-6.43,4.38h.02Z"/>
          <path class="cls-13" d="M245.19,318.4c-2.53,14.43-5.14,28.86-7.53,43.31-.46,2.79-2.37,5.96.81,8.49-13.75-1.66-27.52-3.32-41.27-4.97,12.5-14.51,26.82-27.26,40.19-40.92,2.24-2.28,3.66-5.99,7.79-5.91Z"/>
          <path class="cls-15" d="M508.99,112.83c-4.74-1.98-9.19-4.77-14.49-5.13-1.83.45-2.97-.48-3.9-1.88-3.98-14.09-5.95-28.58-8.42-42.97-.38-2.18-.25-4.46,1.83-6.03,2.53,1.67,3.39,4.64,5.28,6.81,5.97,8.98,11.74,18.1,17.98,26.9,3.85,5.43,5.44,10.78,2.73,17.13-.67,1.58-.68,3.44-.99,5.17h-.01Z"/>
          <path class="cls-43" d="M209.41,279.93c-.11-.46-.24-.92-.35-1.37-6.47-8-13.23-15.73-20.61-22.92-1.71-1.67-3.14-3.62-4.7-5.45.57-7.24,5.35-11.78,10.37-16.17,1.12-.07,1.85.3,1.78,1.57,4.33,12.74,8.68,25.48,12.97,38.23.63,1.87,1.06,3.81,1.57,5.7-.3.27-.65.41-1.05.44v-.02Z"/>
          <path class="cls-37" d="M283.78,739.6c.49,15.57,2.08,31.11,1.32,46.72-5.45,1.21-8.48.03-8.72-6.54-.16-4.49.15-9.24-1.64-13.62-2.69-10.8,1.96-19.09,9.04-26.56h0Z"/>
          <path class="cls-20" d="M311.82,735.82c-9.21,1.46-18.65.58-27.81,2.67-.59-2.57-1.19-5.16-1.78-7.73,5.3-5.7,12.78-4.27,19.34-5.75,1.59-.36,3.46.48,4.9-.92,1.79.33,3.59.65,5.38.97,2.77,3.6,2.59,7.19-.04,10.77Z"/>
          <path class="cls-1" d="M306.48,724.08c1.06,2.49-.7,2.25-2.28,2.53-7.33,1.31-14.65,2.76-21.97,4.15-2.76-3.53-2.81-8.17-4.91-11.97,10,.17,19.37,3.86,29.15,5.29h.01Z"/>
          <path class="cls-15" d="M282.55,271.78c-6.65-11.58-10.3-24.43-15.48-36.64-6.41-15.1-12.25-30.44-18.29-45.7-.87-2.21-2.35-4.39-.95-6.93,3.2-5.05,8.45-5.57,13.66-6.21,13.91-1.81,27.65-4.67,41.53-6.68,3.25-.47,6.47-1.36,9.79-.85,4.94,1.05,5.11,6.97,9.15,8.96.88.66,1.79,1.23,2.85,1.64,8.54,3.34,10.31,2.49,13.42-6.55.93-3.23-.48-6.04-1.53-8.93-.81-2.25-2.05-4.44-1.27-6.99,6.04-5.71,14.03-8.77,19.89-14.74,4.77-2.46,9.19-6.31,15.19-3.81,9.36,26.65,19.7,52.94,28.16,79.9-.24.22-.48.44-.72.66-4.9.66-7.47-3.29-10.55-5.77-4.41-3.54-8.59-4.3-13.99-2.35-7.83,2.84-15.79,5.36-24.02,6.88-1.84.34-3.3,1.14-3.84,3.11-2.77,7.38-4.57,15.07-6.99,22.54-1.12,3.44-2.59,6.48-5.82,8.39-14.68,7.13-29.78,13.3-44.62,20.06-1.79.82-3.73,1.55-5.59,0h.01Z"/>
          <path class="cls-15" d="M194.62,91.74c23.64-8.51,47.28-17.02,70.91-25.54.8-.29,1.53-.8,2.29-1.2.97-2.27,3.11-3.06,5.15-3.83,15.65-5.9,31.5-11.25,47.19-17.05,1.69-.63,3.44-.71,5.2-.56.19.1.39.21.59.3,14.57,6.53,18.85,20.04,22.95,33.71.76,2.53,1.96,4.93,2.96,7.39.43,1.37.87,2.75,1.3,4.11-.47,4.11-4.21,4.19-6.86,5.2-27.63,10.48-55.55,20.17-83.3,30.33-7.72,2.82-15.42,5.71-23.14,8.54-3.72,1.36-7.38,3.21-11.57,2.61-2.65-.66-4.25-2.67-4.79-5.01-3.37-14.52-13.82-23.52-24.71-32.26-2.11-1.69-5.04-3.13-4.18-6.76h0Z"/>
          <path class="cls-11" d="M228.05,134.67c25.79-9.24,51.65-18.29,77.34-27.81,15.94-5.91,32.29-10.7,47.78-17.77,5.81-.72,10.96-3.44,16.34-5.46,2.77-1.05,4.24-.93,5.45,2.28,5.07,13.5,10.27,26.95,15.79,40.27,1.54,3.71.04,4.51-2.87,5.55-5.84,2.06-11.57,4.4-17.34,6.63-5.13,1.14-9.96,3.06-14.62,5.47-7.23,3.28-13.54,9.3-22.47,7.51-2.82-1.78-3.72-4.83-4.89-7.67-3.03-7.36-5.94-14.77-8.88-22.16-1.37-3.47-3.45-5.02-7.16-3.31-.8.37.23-.05-.62.25-16.08,5.75-13.65,4.42-8.45,18.01,2.13,5.57,4.56,11.04,6.42,16.71.75,2.28,1.98,4.51.87,7.04-2.02,2.57-5.04,3.42-7.9,4.5-13.73,5.22-27.58,10.12-41.92,13.49-4.37,1.45-8.74,2.88-13.1,4.33-4.67-5.75-6.15-12.99-9.03-19.58-1.59-3.66-3.13-4.92-7.37-3.95-12.22,2.8-24.56,4.99-36.86,7.43-8.33,5.59-18.3,5.76-27.53,8.38-2.51.71-5.31.55-7.41,2.49-2.05,2.91-3.04,6.34-4.57,9.49-1.05,2.13-1.94,4.53-4.83,4.89-2.01-6.03-4.04-12.04-6.01-18.08-1.05-3.22-.21-5.25,3.3-6.57,10.9-4.1,21.68-8.54,32.5-12.85.77-2.68,3.06-3.62,5.3-4.53,11.82-4.81,23.69-9.48,35.6-14.03,2.35-.9,4.7-.86,7.1-.9h.02Z"/>
          <path class="cls-20" d="M331.8,250.27c2.01-1.66,3.6-3.28,4.34-6.17,2.23-8.69,5.09-17.2,7.7-25.78,2.41-1.39,4.15-.01,5.93,1.37,11.3,8.84,22,18.41,32.95,27.66,1.65,1.39,3.32,3.06,2.45,5.67-6.85,10.49-15.41,19.78-21.64,30.71-1.6.94-2.8,2.67-5.21,1.3-9.67-5.48-19.45-10.78-29.18-16.14-3.11-3.56-.51-7.01.19-10.49.56-2.79,2.12-5.27,2.46-8.13h0Z"/>
          <path class="cls-15" d="M385.18,253.01c-12.92-12.58-26.47-24.42-41.32-34.71,1.38-.85,2.77-1.7,4.15-2.56,1.13.75,2.4,1.38,3.72,1.13,12.11-2.36,24.16.18,36.24.26,3.57.02,6.7,2.21,10.28,1.41,0,0,.44-.27.45-.27,4.1,7.89,2.77,16.84,4.91,25.13.65,2.5-1.65,3.34-3.54,4.06-4.95,1.89-9.93,3.72-14.9,5.58v-.02Z"/>
          <path class="cls-34" d="M325.37,43.56c-3.02,3.35-7.48,3.59-11.33,5.01-15.34,5.64-30.8,10.97-46.21,16.42-1.19-7.72,1.63-14.98,2.74-22.42,1.9-12.78,4.3-25.49,6.47-38.23.23-1.31.4-2.63,1.57-3.5,12.87,11.56,25.74,23.11,38.62,34.67,2.72,2.69,5.43,5.37,8.14,8.06h0Z"/>
          <path class="cls-20" d="M483.99,56.82c.8,14.32,5.06,28.05,7.01,42.17.33,2.39.63,4.78.93,7.17-6.29,5.03-13.28,7.73-21.47,6.5-5.03-10.37-12.4-19.26-18.36-29.06-2.1-3.46-2.45-5.39,1.3-7.91,5.49-3.66,10.5-8.03,15.71-12.09,3.33-2.47,6.67-4.95,10.02-7.41,1.78-1.3,3.68-3.16,4.84.61h.01Z"/>
          <path class="cls-43" d="M331.8,250.27c2.49,2.11.81,4.35.27,6.59-.97,4.01-3.2,7.71-2.91,12.02-5.04,11.54-7.66,23.87-11.86,35.68-.51,1.45-1.06,2.89-1.59,4.33-18.72-8.55-37.45-17.1-57.27-26.15,8.67-3.94,16.39-7.46,24.12-10.96,16.42-7.17,32.83-14.34,49.25-21.51h-.01Z"/>
          <path class="cls-3" d="M394.52,325.07c-6.8,19.55-13.61,39.1-20.47,58.79-.78-1.51-1.47-2.81-2.14-4.12-2.09-17.56-4.21-35.11-6.25-52.67-.33-2.86-.37-5.74-.54-8.63-.96-5.71,3.28-4.22,5.7-3.57,7.77,2.08,15.64,4.08,22.38,8.84.44.45.88.9,1.32,1.35h0Z"/>
          <path class="cls-11" d="M281.14,359.77c8.02-8.29,16.04-16.57,24.08-24.85.74-.76,1.54-1.77,2.7-.48-4.06,13.29-8.12,26.57-12.18,39.87-.79.42-1.59.85-2.38,1.27-4.07-5.27-8.14-10.54-12.22-15.81h0Z"/>
          <path class="cls-13" d="M393.2,323.72c-7.83-1.14-14.92-4.71-22.47-6.77-2.14-.58-4.69-2.55-5.61,1.5-1.35-9.72-2.71-19.45-4.06-29.16.47-.31.95-.62,1.43-.92,10.63,11.43,21.12,22.98,30.71,35.36h.01Z"/>
          <path class="cls-16" d="M422.53,660.94l-2.5.35c-16.52,2.05-33.1,1.06-49.66.91-16.11.61-32.23.24-48.34.21-2.66,0-5.33-.36-7.21-2.67.96-27.64,1.89-55.28,2.89-82.92.73-19.91,1.56-39.81,2.35-59.7,1.66-1.96.88-4.35,1.14-6.55,3.78-.76,4.86,2.43,6.38,4.64,26.92,39.13,53.81,78.28,80.26,117.72,4.92,7.34,11.1,13.92,14.11,22.48.65,1.85,2.05,3.52.57,5.55h.01Z"/>
          <path class="cls-36" d="M397.21,702.16c5.72,6.03,10.13,12.94,13.75,20.39-.04.46-.09.92-.13,1.38,1.32,2.04,1.09,4.3.32,6.33-2.69,7.1-2.35,14.07.15,21.14.78,2.22,1.28,4.71-.58,6.84-1.76,4.99-5.95,2.93-9.04,2.66-10.94-.97-21.83-3.26-32.76-3.42-10.27-.14-20.62,1.47-30.83,2.94-3.97.57-7.91.52-11.85.92-4.98-8.05-9.42-16.4-13.33-25.02-.49-8.14-.94-16.3.26-24.42,1.63-6.25,5.78-9.37,12.43-9.37,18.61-.03,37.22-.09,55.83-.13,5.21-3.64,10.48-3.06,15.79-.24h-.01Z"/>
          <path class="cls-8" d="M397.21,702.16c-5.26.08-10.53.15-15.79.24-3.13-1.72-6.53-.88-9.81-.91-17.55-.14-35.1-.22-52.66-.15-3.65.01-6.24-.5-5.53-5.02,1.92-12.13.31-24.41,1.39-36.58,18.57.06,37.15.12,55.72.19,5.74,3.96,8.7,9.74,10.67,16.18,4.86,8.97,11.81,16.67,15.99,26.05h.01Z"/>
          <path class="cls-33" d="M313.16,711.9c-.08,8.14-.16,16.28-.25,24.42-.39-.11-.75-.28-1.08-.5.01-3.59.02-7.18.04-10.77.51-4.38-1.33-8.98,1.29-13.15h-.01Z"/>
          <path class="cls-20" d="M228.05,134.67c-16,6.49-32.01,12.98-48.01,19.47-7.81-6.61-8.75-13.55-3.78-23.01,6.65-12.67,11.47-26.29,17.07-39.5.43.03.86.06,1.29.1,5.45,4.82,10.57,10.08,16.42,14.35,7.94,5.79,10.4,14.54,13.85,22.85.85,2.05,1.32,4.26,3.16,5.74h.01Z"/>
          <path class="cls-15" d="M150.24,191.65c2.85-5.06,5.19-10.35,6.93-15.89,2.96-1.49,5.16.21,6.84,2.15,9.5,10.98,19.75,21.29,28.86,32.62,1.14,1.42,1.85,2.98,2.19,4.74-4.34,6.27-4.89,12.65-.55,19.18-3.59,5.24-7.17,10.49-10.76,15.73-2.17-1.75-4.35-3.51-6.52-5.25-9.07-4.58-15.13-12.58-21.54-19.94-4.08-4.69-9.92-8.16-11.75-14.7.07-6.9,4.66-12.28,6.3-18.65h0Z"/>
          <path class="cls-28" d="M143.95,210.29c11.1,11.55,22.19,23.09,33.28,34.64-1.31,1.84-2.74.8-4.07.1-22.73-11.91-45.44-23.83-67.97-36.63,13.02.74,26.09-3.54,38.76,1.9h0Z"/>
          <path class="cls-25" d="M194.54,215.67c-11.16-12.71-22.32-25.42-33.48-38.13-1.04-1.18-2.04-2.37-3.88-1.78,3.93-3.42,9.09-2.84,13.66-4.05,7.84-2.06,15.82-3.57,23.72-5.31-2.81,1.65-2.55,3.22-.51,5.64,4.81,5.7,9.11,11.85,13.94,17.54,2.13,2.51,1.99,4.16.3,6.83-4.1,6.46-9.5,12.08-12.54,19.23-.39.58-.79.56-1.2.03h-.01Z"/>
          <path class="cls-42" d="M194.54,215.67c.4,0,.8-.02,1.2-.03,4.71,5.25,9.1,10.85,14.24,15.64,4.99,4.66-.18,6.08-1.97,8.69-2.4,3.49-4.68,3.14-7.23.03-1.37-1.68-3.22-2.96-4.85-4.43-.46-.38-.93-.75-1.39-1.13-1.73-3.89-7.81-5.62-7.23-9.68.47-3.3,4.69-6.08,7.24-9.09h0Z"/>
          <path class="cls-11" d="M410.71,758.24c-.12-.87-.03-1.85-.4-2.59-5.28-10.68-3.84-21.21.52-31.71,7.97,8.1,13.21,17.88,17.29,28.35,1.78,3.37,1.59,6.37-1.66,8.79-.67,2.06-1.58,4.07-1.96,6.18-.58,3.22-2.67,3.41-5.27,3.34-2.47-.06-4.76.13-5.57-3.07-.8-3.14-1.96-6.18-2.95-9.27v-.02Z"/>
          <path class="cls-5" d="M426.46,761.07c.55-2.93,1.11-5.86,1.66-8.79,4.28,2.73,5.76,7.35,7.88,11.56-3.22-.77-7.53,2.18-9.54-2.77Z"/>
          <path class="cls-11" d="M361.13,394.45c9.42,40.01,18.82,80.01,28.24,120.02-.9,4-4.23,3.53-6.87,3.2-18.15-2.26-36.4-3.68-54.52-6.19-2.79-.39-4.96-1.67-6.78-3.73-.54-26.08,1.09-52.09,2.33-78.12.27-5.52.08-11.05.1-16.57,11.89-7.43,24.54-13.31,37.5-18.58h.01Z"/>
          <path class="cls-18" d="M321.2,507.74c13.92,2.81,28.1,3.5,42.14,5.33,6.14.8,12.3,1.49,18.45,2.23,2.58.31,5.25,1.37,7.56-.83.36,0,.73.02,1.09.03.07.85.15,1.69.23,2.54,5.45,23.46,10.84,46.92,16.35,70.37,5.41,23.03,10.93,46.02,16.36,69.04.35,1.49.33,3.07.48,4.59h-.67s-.66-.1-.66-.11c-.66-7.11-5.89-11.77-9.52-17.18-19.98-29.75-40.25-59.32-60.45-88.93-9.6-14.07-19.28-28.08-28.97-42.09-.61-.87-1.58-1.47-2.39-2.19v-2.81.02Z"/>
          <path class="cls-6" d="M470.47,112.67c7.16-2.16,14.31-4.34,21.47-6.5.85.51,1.7,1.03,2.56,1.54,8.14,7.81,16.29,15.61,24.41,23.43,5.33,5.12,2.35,17.55-4.85,19.57-23.02,6.46-46.04,12.87-69.12,19.12-7.56,2.04-16.51-7.36-14.44-14.82,2.67-9.6,5.41-19.18,7.89-28.82.79-3.06,1.95-5.12,5.25-5.99,8.98-2.37,17.9-4.99,26.84-7.52h-.01Z"/>
          <path class="cls-41" d="M381.22,676.11c-4.64-4.69-7.39-10.61-10.67-16.18,14.4,0,28.8-.03,43.2-.01,2.16,0,4.48-.48,6.28,1.37-12.57,5.88-25.53,10.79-38.81,14.83h0Z"/>
          <path class="cls-4" d="M310.29,159.47c-4.33-10.9-8.58-21.85-13.03-32.7-1.32-3.23-1.44-5.07,2.67-6.19,6.13-1.7,12.65-7.43,17.86-5.47,5.38,2.03,5.5,10.87,8.14,16.63,2.77,6.02,4.93,12.33,7.36,18.5,2.13,1.74,4.73,3.31,2.59,6.71,1.46,5.33,6.85,9.72,3.86,16.12-5.59,3.57-10.98,7.81-18.34,5.39-6.56.84-3.94-6.1-6.97-8.24-3.31-2.84-5.51-6.11-4.14-10.76h0Z"/>
          <path class="cls-26" d="M398.24,218.53c-5.49,2.54-11.39,1.56-16.87.89-9.06-1.11-18.07-.83-27.11-1.12-2.41-.07-4.99.31-6.27-2.55,9.01-1.19,17.57-4.21,25.95-7.37,5.56-2.1,9.52-1.21,13.73,2.4,3.3,2.84,7.03,5.19,10.56,7.75h0Z"/>
          <path class="cls-20" d="M310.29,159.47c1.38,3.59,2.76,7.17,4.14,10.76-16.08,2.52-32.15,5.06-48.24,7.55-1.72.27-3.5.28-5.24.4,12.33-5.92,25.59-9.36,38.25-14.44,3.68-1.48,7.39-2.84,11.1-4.27h-.01Z"/>
          <path class="cls-39" d="M285.34,215.57c5.02-3.87,10.03-7.73,15.06-11.59.52-.4,1.05-.93,1.64-1.08.79-.19,2.13-.43,2.41-.04,4.05,5.52,12.64-2.99,15.97,5.3.99,2.48,3.64,4.31,5.68,6.61-2.35,1.91-4.24.04-6.17-.18-9.12-1.14-18.14-1.43-27.06,1.63-2.35.8-5.15,1.02-7.52-.66h-.01Z"/>
          <path class="cls-9" d="M285.34,215.57c4.45-.94,9.13-1.33,13.31-2.96,7.59-2.94,14.43-1.35,21.26,1.98-6.73,2.06-13.34,4.69-20.22,6.01-5.29,1.02-10.3-1.26-14.37-5.04h.01Z"/>
          <path class="cls-21" d="M321.4,178.46c6.4-.82,11.79-5.06,18.34-5.39-.17,4.36-1.67,9.44-5.47,10.21-4.29.86-9.86.18-12.87-4.8h0Z"/>
          <path class="cls-7" d="M335.89,156.95c-.86-2.24-1.72-4.47-2.59-6.71,8.17.08,14.75-5.47,22.63-6.41-6.05,5.32-12.09,10.68-20.03,13.13h0Z"/>
          <path class="cls-10" d="M236.81,120.73c4.58-5.7,8.44-10.46,12.25-15.26,1.23-1.56,2.74-2.18,4.65-1.75,5.52,1.26,11.03,2.57,16.39,5.14-2.91,0-5.85.17-8.75-.04-3.43-.26-6.16.69-7.77,3.78-3.32,6.36-9.2,7.36-16.76,8.13Z"/>
          <path class="cls-23" d="M314.15,96.68c3.38-6.96,6.4-13.09,9.32-19.25.96-2.04,2.02-3.27,4.57-2.33,3.44,1.26,6.97,2.22,10.71,4.08-8.73-2.21-11.45,3.34-13.17,9.56-1.49,5.39-5.15,7.26-11.44,7.93h0Z"/>
          <path class="cls-15" d="M291.71,142.31c2.99,7.25.84,12.24-6.45,14.94-9.35,3.46-18.78,6.74-28.08,10.33-3.45,1.33-5.06.53-6.29-2.93-2.23-6.26-4.94-12.35-7.37-18.53-.67-1.7-2.39-3.59.28-5.16,9.43-2.14,18.9-3.59,28.55-1.77,2.13.67,3.2,2.16,3.28,4.4.11,3.04.57,6.19,4.48,5.98,3.91-.21,3.82-3.59,4-6.48.04-.67.3-1.28.61-1.89,2.78-2.46,5.09-1.94,6.98,1.11h.01Z"/>
          <path class="cls-15" d="M347.76,103.51c2.95-1.72,6.09-2.94,9.45-3.61,5.62,8.36,10.08,17.12,9.37,27.63-7.16,2.71-14.43,5.18-21.45,8.23-4.02,1.75-6.13,1.01-7.28-3.14-.58-2.1-1.43-4.13-2.14-6.19-1.19-10.38,5.38-16.68,12.06-22.92h-.01Z"/>
          <path class="cls-32" d="M274.81,141.05c-10.34-.03-20.67-.06-31.01-.08,12.65-4.73,25.3-9.46,37.95-14.19,2.63-.98,4.12-.17,5.05,2.51,1.51,4.39,3.26,8.7,4.91,13.04-2.14-1.11-4.3-2.25-6.5-.12-3.58.63-6.98-.36-10.4-1.14h0Z"/>
          <path class="cls-14" d="M366.58,127.52c-3.13-9.21-6.25-18.42-9.37-27.63,6.8-2.69,11.53-.54,14.18,6.45.86,2.27,1.75,4.52,2.64,6.78,2.92,7.47.44,12.27-7.45,14.4h0Z"/>
          <path class="cls-30" d="M347.76,103.51c-3.48,7.93-10.78,13.84-12.06,22.92-1.31-3.02-2.26-6.27-4.01-9.01-3.94-6.16-1.5-8.98,4.69-10.53,3.84-.95,7.59-2.25,11.37-3.38h.01Z"/>
          <path class="cls-24" d="M178.39,213.29c-8.19-1.48-15.7-2.93-23.24-4.15-2.85-.46-2.58-1.72-1.44-3.55.35-.56.78-1.07,1.16-1.62,8.09-11.69,8.15-11.74,16.8-.48,2.21,2.88,5.42,5.14,6.73,9.81h-.01Z"/>
          <path class="cls-38" d="M452.75,156.27c-1.29,1.96-1.11,5.51-4.12,5.34-2.05-.11-5.48-.86-5.34-3.85.09-2.06.83-5.47,3.83-5.36,2.1.07,4.81.99,5.64,3.87h0Z"/>
          <path class="cls-2" d="M444.68,146.09c-.94-.09-1.75-.64-1.52-1.55.17-.67.97-1.48,1.64-1.63.91-.23,1.54.62,1.5,1.55-.04.92-.69,1.48-1.62,1.63Z"/>
          <path class="cls-35" d="M459.48,143.41c-.11,1.01-.78,1.52-1.68,1.37-.49-.07-1.18-.61-1.28-1.05-.22-.89.29-1.7,1.26-1.78.93-.08,1.49.56,1.71,1.47h-.01Z"/>
          <path class="cls-40" d="M457.94,152.44c.9.24,1.51.8,1.47,1.74-.04,1.11-.93,1.38-1.78,1.17-.47-.12-1.1-.75-1.14-1.2-.09-.9.55-1.5,1.47-1.71h-.01Z"/>
          <path class="cls-22" d="M274.81,141.05c3.75-2.17,7.27-2.33,10.4,1.14,1.74,3.59,1.58,6.87-2.02,9.17-2.4,1.53-5.1,1.47-7.38-.32-3.72-2.9-2.81-6.44-.99-10h0Z"/>
          <path class="cls-27" d="M358.37,119.08c-.31,3.87-2.33,6.33-6.14,6.52-4.07.21-6.85-1.96-6.89-6.21-.03-3.71,2.06-6.29,5.97-6.54,4.32-.3,6.26,2.42,7.07,6.24h0Z"/>
        </g>
      </g>
    </g>
  </g>
</svg>