<?xml version="1.0" encoding="UTF-8"?>
<svg xmlns="http://www.w3.org/2000/svg" version="1.1" viewBox="0 0 660 800">
  <defs>
    <style>
      .cls-1 {
        fill: #b6a1bd;
      }

      .cls-2 {
        fill: #cdcdcc;
      }

      .cls-3 {
        fill: #eaeaea;
      }

      .cls-4 {
        fill: #e2c9b7;
      }

      .cls-5 {
        fill: #8b779c;
      }

      .cls-6 {
        fill: #735f84;
      }

      .cls-7 {
        fill: #767676;
      }

      .cls-8 {
        fill: #64526d;
      }

      .cls-9 {
        fill: #2c2c2c;
      }

      .cls-10 {
        fill: #544362;
      }

      .cls-11 {
        fill: #997a8a;
      }

      .cls-12 {
        fill: #ab889b;
      }

      .cls-13 {
        fill: #a089b5;
      }

      .cls-14 {
        fill: #d9bca6;
      }

      .cls-15 {
        fill: #735f83;
      }

      .cls-16 {
        fill: #9c9fa0;
      }

      .cls-17 {
        fill: #8a779b;
      }

      .cls-18 {
        fill: #c3c3c3;
      }

      .cls-19 {
        fill: #bc977e;
      }

      .cls-20 {
        fill: #866855;
      }

      .cls-21 {
        fill: #b7b7b7;
      }

      .cls-22 {
        fill: #848484;
      }

      .cls-23 {
        fill: #846654;
      }

      .cls-24 {
        fill: #6e4f5e;
      }

      .cls-25 {
        fill: #cdc7d0;
      }

      .cls-26 {
        fill: #746085;
      }

      .cls-27 {
        fill: #4e3141;
      }

      .cls-28 {
        fill: #e9e9e9;
      }

      .cls-29 {
        fill: #8b779b;
      }

      .cls-30 {
        fill: #4f5252;
      }

      .cls-31 {
        fill: #8d657a;
      }

      .cls-32 {
        fill: #b3b3b3;
      }

      .cls-33 {
        fill: #554463;
      }

      .cls-34 {
        fill: #2d2d2c;
      }

      .cls-35 {
        fill: #c2c2c2;
      }

      .cls-36 {
        fill: #8c8e90;
      }

      .cls-37 {
        fill: #554462;
      }

      .cls-38 {
        fill: #564563;
      }

      .cls-39 {
        fill: #d1d1d1;
      }

      .cls-40 {
        fill: #856755;
      }

      .cls-41 {
        fill: #7b7b7b;
      }

      .cls-42 {
        fill: #856754;
      }
    </style>
  </defs>
  <!-- Generator: Adobe Illustrator 28.7.1, SVG Export Plug-In . SVG Version: 1.2.0 Build 142)  -->
  <g>
    <g id="Layer_1">
      <g>
        <path class="cls-25" d="M572.97,713.08c-1.01,7.88,2.26,11.82,10.02,14.68,21.16,7.81,41.88,16.78,62.77,25.32,1.39.57,2.68,1.38,4.87,2.52-4.97,2.12-9.59,1.65-13.8,2.15-13.01,1.54-26.14,1.94-39.21,3.04-18.27,1.53-36.52,3.31-54.79,4.95-11.31,1.01-22.64,1.93-33.95,2.93-18.7,1.66-37.39,3.42-56.1,5.04-11.97,1.04-23.95,1.95-35.94,2.85-17.85,1.35-35.66,3.11-53.48,4.8-12.81,1.22-25.7,2.02-38.54,3.15-17.83,1.56-35.64,3.37-53.47,4.94-12.4,1.09-24.83,1.91-37.24,2.97-7.83.67-15.64,1.52-23.45,2.35-9.31.99-18.25-1.6-27.28-2.98-29.35-4.48-58.67-9.22-87.98-13.94-27.59-4.44-55.17-8.98-82.75-13.53-.79-.13-1.49-.74-3.28-1.67,34.28-7.39,67.52-14.42,100.69-21.8,8.05-1.79,16.54-2.23,23.92-6.56,2.49,2.35,1.42,5.24,1.06,7.92-1.07,7.91-2.84,15.7-4.02,23.58.73,3.27-.74,7,2.07,9.82,2.31,1.65,4.94,1.65,7.6,1.65,20.86-.02,41.72-.1,62.58.05,5.69.04,9.25-1.46,9.67-7.88.34-5.31,4.74-5.76,8.79-5.86,10.32-.28,20.64-.08,30.96-.11,7.91-.02,15.81.01,23.72-.01q10.02-.03,11.23-9.68c.08-.78.14-1.56.16-2.34.06-1.52-.07-3.06.1-4.58.95-8.81,2.7-10.2,11.52-10.54,4.89-.19,10.1,1.56,14.56-1.9,2.54-3.07,2.42-6.98,3.36-10.55.85-3.2,1.44-6.51,4.9-8.12,2.73-1.13,5.62-1.29,8.44-.86,11.8,1.8,23.67,1.04,35.5,1.02,24.36-.03,48.68,1.34,73.03,1.77,14.45.26,28.93.65,43.4.93,3.74.07,6.94-.7,9.3-3.78,4.77-.57,4,3.32,4.39,5.86.69,4.6-.08,9.47,2.75,13.63,4.27,3.43,9.29,1.82,13.99,2.01,7.91.33,9.12,1.29,9.85,9,.7,7.44.7,7.52,8.26,7.58,10.52.09,21.03-.06,31.55.05,4.79.05,6.66-1.87,6.61-6.63-.08-8.33-.21-16.67.1-24.99.12-3.08-.62-6.83,3.56-8.28Z"/>
        <path class="cls-14" d="M389.95,197.6c-10.74,34.25-21.51,68.5-32.21,102.77-3.85,12.32-7.53,24.69-11.29,37.04-.2,1.13-.74,2.2-1.73,2.63-10.1,4.39-19.31,10.75-30.06,13.73-1.06.08-2.12.13-3.17.33-15.63-1.65-30.99-4.86-46.32-8.21-2.08-.59-4.1-1.47-6.34-1.28-5.56-.83-11.53-.24-16.06-4.65-.28-11.75-2.67-23.73,3.7-34.78,1.02-.63,2.14-.87,3.32-.81,15.81,5.05,31.73,9.81,47.44,15.2,3.79,1.3,7.5,1.84,11.55,1.49,9.99-.87,19.96-2.02,29.89-2.96,2.06-2.22-.32-3.6-1.14-5.03-4.33-7.52-8.93-14.89-13.34-22.36-1.32-2.23-2.79-4.43-2.96-7.16,1.27-10.07,2.29-20.17,5.1-29.97,3.31-4.22,6.1-9.03,11.89-10.44,2.05.29,3.4,1.76,4.9,2.96,2.89,2.3,5.84,2.73,8.79.23,3.18-2.69,3.26-5.84,1.12-9.23-.8-1.27-1.77-2.45-2.21-3.94-.56-3.36,1.73-5.14,3.89-7,4.27-3.69,8.55-7.38,11.8-12.07.24-.85.61-1.66.87-2.5,2.39-7.82,1.61-9.08-6.72-10.06-29.42-3.45-58.83-6.91-88.21-10.64-6.4-.81-12.14.02-17.37,3.85-6.92.67-6.83-6.11-10.02-9.41-10.29-20.56-21-40.9-31.72-61.25-1.23-3.06-.41-5.41,2.43-7.07,21.74-8.33,43.58-16.4,65.69-23.73,4.42-.15,7.96,2.19,11.52,4.3,16.03,9.47,32.38,18.39,48.37,27.93,5.91,3.53,6.4,3.27,8.46-3.36,1.63-5.24,2.62-10.64,4.23-15.88.82-2.65,1.39-5.76,5.23-5.79,2.95.75,4.81,2.96,6.57,5.15,9.54,11.92,19.16,23.77,28.79,35.61,1.51,1.86,2.91,3.83,3.45,6.26-.52,14.08-2.85,27.93-5.32,41.77-1.47,2.59-1.56,5.65-2.81,8.31Z"/>
        <path class="cls-19" d="M214.67,123.64c2.42,2.56,4.1,5.61,5.55,8.78,8.08,17.61,18.7,33.94,26.09,51.9,1.77,8.01,8.27,14.49,7.61,23.31.22,21.29-2.21,42.45-3.31,63.67-.55,10.72-1.1,21.44-2.22,32.13-.04.82-.29,1.58-.75,2.26-2.11,3.45-2.59,7.4-2.55,11.23.09,7.66-.74,15.23-1.3,22.83-2.15,2.54-4.87,1.37-7.33.96-6.69-1.12-13.38-2.27-20.08-3.35-7.48-1.21-7.89-.83-6.08,6.31,3.06,12.11,5.57,24.35,8.72,36.43.76,2.93,1.88,5.9.72,9.01-2.27,3.11-3.84.48-5.2-.85-14.87-14.53-28.8-29.96-43.01-45.12-5.08-5.42-10.5-10.54-15.29-16.24-.57-.81-.9-1.7-.8-2.71,1.72-14.08,3.46-28.16,5.16-42.24.47-3.9.85-7.82,1.27-11.72-1-1.21-.66-2.39.08-3.57,5.14-5.26,10.57-10.26,16.12-16.48-5.2-.44-9.33-1.78-13.71-1.7-6.72-1.3-13.96-.11-20.05-4.29-2.6-4.21-2.03-8.94-1.77-13.47.54-9.41,1.2-18.81,1.44-28.25.22-8.52,2.94-10.8,11.31-11.15,6.17-.25,12.25.51,18.35,1.25,5.02.61,7.93,3.23,9.2,8.02,1.52,5.73,2.84,11.51,4.22,17.27.76,3.17.44,7.32,5.43,7.84,6.18.64,12.23-1.75,13.81-6.33,4.49-13.06,9.36-26,12.78-39.42-1.45-15.59-4.05-31.03-6.11-46.54-.45-3.4-1.33-6.96,1.73-9.78Z"/>
        <path class="cls-31" d="M367.51,421.75c7.35,24.98,14.67,49.96,22.09,74.92.95,3.2-.7,4.32-3.18,5.3-21.37,8.44-42.65,17.1-64.13,25.25-5.38,2.04-8.62,4.53-7.75,10.61-5.01-5.99-11.8-5.46-18.66-5.53-6.86-.07-13.9,1.48-20.57-1.53-1.79-1.5-2.45-3.6-2.95-5.74-4.05-17.29-7.18-34.78-10.94-52.13-.23-1.07-.21-2.18-.04-3.28-.36-28.98-2.52-57.91-1.91-86.9.07-3.51-.25-7.05.91-10.45.25-.82.66-1.54,1.22-2.18,9.95-2.31,19.99-.7,29.97-.41,4.09.12,8.34.4,12.31,1.85,1.16.53,2.02,1.33,2.4,2.58,2.61,49.54,7.23,98.99,8.55,140.51.77-14.67,6.27-36.91,9.35-59.53,1.36-10.01,3.21-19.95,4.99-29.89.55-3.04,1.03-6.11,3.77-8.14,2.55-1.51,5.36-1.64,8.18-1.33,6.87.77,13.68,2.03,20.59,2.54,2.43.18,4.7.91,5.79,3.47Z"/>
        <path class="cls-22" d="M572.97,713.08c-2.18,11.29-1.07,22.73-1.02,34.07.03,6.69-1.8,8.68-8.5,8.37-12.49-.56-25.02-.31-37.52-.08-4.3.08-5.65-1.37-5.69-5.66-.11-11.33-.31-11.13-11.57-11.43-4.38-.12-9.08,1.73-13.17-1.41,4.38-3.68,9.64-2.07,14.54-2.31,7.55-.37,8.53-1.13,7.58-8.49-.62-4.8-1-9.59-1.01-14.41,0-3.58-1.66-5.12-5.2-5.18-6.57-.1-13.14-.11-19.71.37-34.44-.6-68.88-.11-103.31-.24-17.77-.07-35.53,0-53.3-.02-3.74,0-7.45.18-11.11.9-7.36-1.43-14.82-1.23-22.27-1.01-2.9.08-5.19.83-5.43,4.33-.41,6.13-1.48,12.19-1.7,18.35-.15,4.11,1.58,5.51,5.4,5.41,3.29-.08,6.58-.06,9.87.05,2.63.09,5.32.04,7.35,2.18-4.77,3.25-10.11,1.31-15.16,1.47-10.46.33-10.47.1-12.07,10.59-.13.87-.21,1.74-.31,2.62-2.73.96-4.62-.85-6.48-2.21-12.16-8.9-24.15-18.04-35.87-27.52-2.07-1.67-5.05-3.16-3.73-6.83,2.33-3.01,5.92-3.65,9.22-4.63,40.46-12.11,80.71-24.91,121.3-36.58,3.6-1.04,7.31-1.28,10.79-1.7-3.12-.47-6.91,2.46-9.73-1.48,1.07-2.68,3.38-2.86,5.77-2.91,7.62-.4,15.1,1.23,22.68,1.42,15.77-2,31.43.95,47.16,1.04,5.02.03,10.04.44,15.06-.02,4.71-.06,9.63-1.32,13.74,2.26.54,2.03-.78,1.8-2.33,1.89,7.61.64,14.78,2.17,21.86,4.23,19.38,5.64,38.84,10.98,58.33,16.22,5.41,1.46,11.29,2.21,15.49,6.66.02,3.9.04,7.8.06,11.69Z"/>
        <path class="cls-17" d="M359.64,101.13c-3.53.66-3.08,3.92-3.77,6.21-1.9,6.26-3.85,12.55-5.04,18.97-1.05,5.67-3.18,5.47-7.42,2.96-17.86-10.55-35.85-20.89-53.83-31.23-2.43-1.39-4.74-3.22-7.74-3.34-7.32-1.96-13.23-6.67-19.56-10.42-23.3-13.79-46.54-27.67-70.01-41.19-1.13-.65-2.32-1.25-2.88-2.55,13.6-11.03,27.25-21.99,40.76-33.12,3.2-2.63,5.66-3.27,9.77-1.15,25.29,13.01,50.79,25.61,76.22,38.34,12.23,15.3,24.73,30.39,36.98,45.68,2.62,3.27,6.65,5.86,6.52,10.85Z"/>
        <path class="cls-31" d="M101.55,537.84c-.65-3.04.59-6.41-1.56-9.19.72-26.05,3.65-51.93,6.03-77.86,1.78-7.9.89-15.99,1.66-23.99,1.28-13.42,2.77-26.86,3.16-40.36.09-3.08.85-6.03,1.93-8.9,1.08-3.01,3.69-4.16,6.39-5.08,10.49-3.59,20.97-7.17,31.54-10.51,2.86-.9,5.95-1.9,8.38,1.15,2.58,6.48,1.88,13.44,2.31,20.11.72,11.35,1.33,22.73,1.77,34.11.64,16.62.92,33.27,2.48,49.83.58,6.14-.98,12.24.13,18.33-.75,12.36-5.31,23.9-7.94,35.86-.83,3.76-.84,7.95-4.05,10.89-2.77,1.67-5.87,1.53-8.91,1.55-8.74.06-17.48.17-26.21-.03-6.12-.14-12.05-.02-17.09,4.11Z"/>
        <path class="cls-17" d="M214.67,123.64c.15,12.42,3.28,24.47,4.48,36.76.65,6.68,2.4,13.25,2.07,20.03-1.71,1.64-3.81,2.07-6.07,1.87-17.85-1.52-35.72-2.85-53.59-4.06-10.24-.69-20.46-1.84-30.75-1.84-3.49,0-7.07.14-9.91-2.51-2.12-15.34-4.32-30.67-6.33-46.02-2.04-15.61-3.85-31.24-5.82-46.86-.29-2.32-1.64-4.83,1.78-6,6.91,1.55,13.04,5.12,19.48,7.79,24.5,10.18,49.25,19.76,73.51,30.5,4.15,1.84,9.11,1.78,12.54,5.28-2.01,1.25-2.24,3-1.41,5.05Z"/>
        <path class="cls-31" d="M122.52,669.79c-7.4-36.84-14.82-73.68-22.16-110.54-.47-2.34-.41-4.8.73-7.06,2.15,1.2,2.06,3.58,2.9,5.47.38,1.14.98,2.11,2.04,2.75,33.41,20.08,66.99,39.85,100.45,59.8,3.12,1.86,6.88,3.15,8.17,7.19.01,11.61-3.44,22.71-5.16,34.05-.9,5.94-.67,12.18-3.52,17.77-.56.57-1.22,1-1.96,1.29-9.5,1.8-18.74-.99-28-2.07-15.65-1.83-31.29-3.87-46.9-6.09-2.41-.34-4.8-.66-6.59-2.56Z"/>
        <path class="cls-15" d="M216.08,118.59c-9,.31-16.25-4.84-24.07-8-25.14-10.15-50.13-20.7-75.14-31.18-2.36-.99-5.05-1.74-6.32-4.39,26.28-11.49,52.57-22.98,78.85-34.47,7.4,1.19,12.97,6.07,19.14,9.66,22.49,13.08,44.88,26.35,67.24,39.66,2.19,1.3,4.79,2.3,6.06,4.84-21.92,7.96-43.84,15.92-65.77,23.88Z"/>
        <path class="cls-3" d="M559.93,616.91c7.58,8.7,15.03,17.51,22.76,26.07,10.37,11.49,20.96,22.78,31.43,34.18.85.92,2.24,1.72,1.74,3.24-.46,1.41-1.72.86-2.77.74-13.36-1.58-26.73-3.15-40.09-4.73-2.92,2.82-6.46,2.14-9.89,1.6-4.1-.64-8.28-.3-12.36-1.11-9.36-2.46-19.04-2.59-28.57-3.76-17.59-2.15-35.29-3.27-52.91-5.31-12.15-1.4-24.17-4.06-36.46-4.2-2.75-.34-5.45-.88-7.86-2.37-4.54-6.92-4.74-14.49-3.3-22.3.33-.64.83-1.14,1.46-1.51,5.75-.83,10.11,2.61,14.35,5.44,6.23,4.15,11.89,4.56,18.25.46,4.21-2.72,8.73-5.04,13.07-6.32-4.53.14-9.95,2.4-14.23-2.5-1.28-3.48-1.38-6.85.86-10.02,3.36-2.7,7.52-2.19,11.35-2.5,9.35-.76,18.65-2.68,28.1-1.69,10.59,4.02,21.4,7.47,31.94,11.64,3.89,1.54,6.91,1.14,10.35-1.18,7.03-4.74,13.23-10.7,20.96-14.43.67-.01,1.28.16,1.83.55Z"/>
        <path class="cls-16" d="M316.25,570.86c6.27,2.68,12.9,4.01,19.57,5.19,4.18-.79,7.71,1.25,11.22,2.86,8.06,3.69,17.16,5.24,24.02,11.46,1.85,4.44.83,9.09.95,13.66.12,4.54-2.07,6.41-6.64,5.43-6.65-1.42-13.3-2.82-19.58-4.72,6.74,4.68,13.42,9.87,19.99,15.2,3.76,3.06,7.58,3.95,12.18,1.98,4.81-2.07,10.05-3,14.9-5.25q-14.13-4.63-14.03-19.87c.03-2.99-.75-6.23,1.87-8.7,11.45,2.67,22.89,5.33,34.34,8,.62.47,1.1,1.05,1.45,1.74,2.45,7.43,3.87,15.1,5.28,22.76.69,3.74.58,7.44-3.41,9.65-7.44,2.25-15.19,1.34-22.78,2.08-15.42,1.5-30.96,1.8-46.43,2.96-19.6,1.47-39.27,1.98-58.87,3.48-1.75.13-3.5.17-5.19-.36-4.75-2.37-1.97-5.69-.7-8.36,6.64-13.87,13.57-27.59,20.98-41.07,3.26-5.94,5.49-12.47,9.95-17.74.31-.13.63-.25.95-.37Z"/>
        <path class="cls-24" d="M114.41,376.94c-1.78,23.66-4.71,47.23-5.32,70.98-.03,1.01-.71,2-1.09,3-5.71-1.85-11.66-2.01-17.45-1.24-13.68,1.83-27.39.76-41.08,1.04-3.28.07-6.58-.05-9.11-2.68,7.93-21.74,15.84-43.48,23.79-65.21,3.68-10.05,7.31-20.12,11.19-30.09.8-2.06.65-4.95,3.54-5.84,5.4,6.18,7.62,14.11,11.6,21.08,1.3,2.27,2.49,4.6,3.63,6.95,1.89,3.86,4.57,4.52,8.59,3.27,3.73-1.17,7.47-4.15,11.71-1.24Z"/>
        <path class="cls-15" d="M359.64,101.13c-14.33-17.57-28.67-35.15-43.01-52.71-.98-1.19-2.29-2.29-.49-3.81,39.43,19.7,78.84,39.42,118.3,59.06,2.86,1.42,4.66,2.66,1.63,5.58-10.83,12.94-23.61,23.95-35.43,35.9-1.04,1.05-2.44,1.94-4.14,1.11-12.29-15.04-24.57-30.08-36.86-45.12Z"/>
        <path class="cls-24" d="M122.52,669.79c16.57.58,32.83,3.85,49.26,5.68,10.81,1.2,21.61,2.43,32.42,3.64,1.51,1.57,1.71,3.52,1.43,5.52-1.75,12.36-4.1,24.62-6.45,36.87-.29,1.51-1.13,2.84-2.09,4.06-1.13,1.18-2.5,1.96-4.02,2.52-17.43,2.58-35.02,3.66-52.54,5.4-2.22.22-4.36-.03-5.97-1.88-4.01-20.61-8.02-41.21-12.03-61.82Z"/>
        <path class="cls-15" d="M120.91,173.9c21.16-.14,42.18,1.88,63.21,3.78,12.35,1.12,24.73,1.85,37.1,2.75-3.47,14.75-9.26,28.78-13.71,43.22-1.23,4-5.03,3.09-7.76,3.68-12.72,2.75-12.89,2.52-15.41-10.37-.59-3.01-1.33-5.99-2.08-8.96-3.3-13.07-3.31-13.12-16.9-14.19-3.71-.29-7.51.2-11.18-.33-6.08-.88-8.03,2.33-7.89,7.46.4,14.28-2.29,28.44-1.4,42.72-1.33.91-2.73.44-3.57-.46-4.55-4.83-11.39-7.4-13.98-14.16-2.15-18.38-4.29-36.76-6.44-55.14Z"/>
        <path class="cls-27" d="M40.36,448.04c20.38.71,40.73-.1,61.08-1.11,2.95-.15,6.54-.9,6.56,3.99-1.85,24.2-3.69,48.4-5.58,72.6-.15,1.96-.53,3.94-2.43,5.14-19.5-25.77-39.01-51.54-58.49-77.33-.71-.93-2.12-1.72-1.14-3.28Z"/>
        <path class="cls-10" d="M114.41,376.94c-5.3.49-10,3.05-15.05,4.41-1.68.45-3.35,1.44-4.49-.84-5.52-11.11-12.52-21.52-15.99-33.61,25.51-7.57,51.03-15.14,76.54-22.71.39.43.79.87,1.18,1.3,1.66,2.66,2.61,5.53,2.6,8.7-.02,6.58.08,13.14.99,19.69.41,2.99.45,6.22-2.47,8.39-14.64,4.3-29.18,8.89-43.31,14.67Z"/>
        <path class="cls-10" d="M102.53,559.03c-1.99-1.96-.59-4.64-1.44-6.84.16-4.78.31-9.57.47-14.35.75-5.47,3.77-6.89,9.23-6.72,14.36.44,28.75.1,43.13.08,1.18-.97,2.42-1.95,3.98-2.06,10.15-.7,20.3-.97,30.43.19,1.08.12,2.02.74,2.89,1.42,1.86,2.07,2.35,4.67,2.21,7.26-.5,8.74,1.85,17.68-1.73,26.22-2.38,2.44-5.5,2.61-8.55,2.4-23.08-1.6-46.23-2.17-69.27-4.33-3.7-1.34-7.9-1-11.35-3.26Z"/>
        <path class="cls-17" d="M134.56,731.61c15.54-1.45,31.11-2.72,46.62-4.45,4.13-.46,8.24-.44,12.35-.78,3.9-1.82,5.39.83,6.93,3.64,4.37,7.97,6.97,16.76,11.58,24.63.69,1.14,1.26,2.33,1.63,3.59,1.75,6.02.3,8.27-6.01,8.36-15.99.22-31.98-.05-47.97.13-8.29.09-16.65-.94-24.87.98-2.19.29-4.17-.14-5.84-1.67,1.67-10.57,3.35-21.14,5.02-31.71.19-.9.38-1.8.57-2.7Z"/>
        <path class="cls-10" d="M275.29,529.95c9.35,0,18.72.39,28.05-.12,6.34-.34,10.99.37,11.21,8,.57,11.01,1.13,22.02,1.7,33.03,0,0-.53-.11-.53-.11-.95,1.35-2.05,2.48-3.81,2.68-18.92-.45-37.78-2.02-56.68-2.81-2.41-.1-4.8-.35-6.76-2.01-2.04-2.61-2.29-5.72-1.88-8.74.94-6.93.85-13.94,1.72-20.87,1.64-3.73.2-9.66,5.68-10.67,7.09-1.31,14.5-2.73,21.29,1.62Z"/>
        <path class="cls-18" d="M496.65,622.33c-13.62.86-27.24,1.71-40.86,2.57-2.59-2.3-2.44-5.45-2.51-8.47-.26-11.08.47-22.19-1.15-33.24-.51-3.45-.26-7.01,2.53-9.75,2.4,2.85,1.03,6.24,1.22,9.38.2,3.24,1.53,4.18,4.58,3.44,8.59-2.08,17.21-4.07,25.81-6.09,12.98,4.83,25.54,10.53,37.23,18.02,1.14.73,1.94,1.77,2.44,3.04,1.12,6.3,2.04,12.59-.98,18.68-9.11,4.62-18.59,4.94-28.31,2.43Z"/>
        <path class="cls-18" d="M559.93,616.91c-.43.04-.85.08-1.28.11-5.89,2.51-11.88,4.48-18.43,3.79-2.62-.28-5.29-.33-7.31-2.41-1.33-1.93-1.23-4.15-1.24-6.32-.05-12.01-.07-24.02.01-36.03.02-2.37-.22-4.89,2.05-6.59,13.47-2.68,26.94-5.37,40.42-8.03,1.84-.36,4.04-2.22,5.49-.41,1.26,1.58-.37,3.67-1.06,5.47-6.06,15.73-12.12,31.45-18.13,47.2-.38,1-.36,2.14-.52,3.22Z"/>
        <path class="cls-10" d="M127.35,229.04c5.85,4.87,11.7,9.74,17.55,14.61,6.99.97,13.98,1.93,20.97,2.9,3.11,1.58,2.28,4.39,1.91,6.85-.73,4.92-1.79,9.79-4.65,14.03-.43.93-.85,1.85-1.28,2.78-18.68,1.79-37.36,3.58-57.28,5.49,7.91-16.2,15.34-31.44,22.77-46.67Z"/>
        <path class="cls-19" d="M367.51,421.75c-11.37-1.59-22.68-3.65-34.2-3.92-.2-.25-.41-.5-.62-.75-.53-4.39,2.43-7.39,4.52-10.58,6.49-9.87,12.6-19.98,19.26-29.75,2.74-2.09,6.23-1.82,9.26-2.99,5.16-.72,10.39-.8,15.54-1.6,3.54-.55,6.93.03,9.87,2.31-7.88,15.76-15.76,31.52-23.64,47.28Z"/>
        <path class="cls-4" d="M391.15,374.47c-8.79-1.01-17.39,1.87-26.16,1.27-6.44,1.49-12.19.48-18.07-3.04-8.64-5.16-17.81-9.46-26.6-14.41-2.48-1.39-6.07-2.14-5.44-6.33,10.52-4.85,21.04-9.7,31.57-14.54,13.82,11.01,27.66,22,41.43,33.07,1.31,1.05,2.19,2.65,3.27,3.99Z"/>
        <path class="cls-41" d="M550.77,674.97c7.41.48,14.82.97,22.23,1.45.76,8.33.2,16.65-.08,24.97-12.79-3.53-25.58-7.04-38.36-10.58-19.58-5.42-39.15-10.86-60.53-16.79,3.12-.21,4.39-.29,5.65-.38,4.28-3.87,9.56-2.55,14.42-2.42,18.94.48,37.77,2.6,56.67,3.75Z"/>
        <path class="cls-13" d="M396.51,146.25c11.99-11.41,23.98-22.84,35.99-34.23,1.09-1.03,2.38-1.86,3.58-2.78-4.02,11.63-10.97,21.79-16.49,32.66-8.8,17.33-18.07,34.43-27.14,51.62-3.19-.38-1.59-2.32-1.25-3.85,1.77-14.48,3.54-28.95,5.32-43.43Z"/>
        <path class="cls-29" d="M533.73,569.46c.03,16.31.06,32.62.09,48.92,2.23,3.57,3.29,6.94-1.54,9.34-2.93-2.75-2.43-6.41-2.46-9.86-.1-14.69,0-29.37-.07-44.06-.01-2.58.45-5.23-.82-8.17-2,2.36-1.89,4.92-1.97,7.42-.2,6.35.05,12.71-.16,19.07-.09,2.81.08,5.78-2.49,7.84-12.5-6.95-26.36-11.29-38.04-19.8,10.4-5.65,20.79-11.32,31.19-16.95,2.12-1.15,4.23-2.34,6.46-3.26,6.98-2.87,9.53-1.19,9.66,6.22.02,1.1.11,2.19.16,3.29Z"/>
        <path class="cls-29" d="M370.17,590.64c-11.45-4.86-22.91-9.72-34.36-14.58,11.72-8.97,23.24-18.21,35.71-26.15.76.78,1.65,1.62,1.73,2.7.86,12.49,2.31,25-.85,37.4-.57.8-1.32,1.01-2.23.63Z"/>
        <path class="cls-5" d="M414.97,596.95c.05-.29.07-.58.05-.87,10.4-7.67,20.55-15.68,31.65-22.35,1.38,1.22,2.16,2.82,2.19,4.59.19,11.06,1.29,22.14-.67,33.15-1.08,2.51-3.3,3.21-5.39,2.13-9.63-4.95-20.15-8.46-27.83-16.66Z"/>
        <path class="cls-26" d="M446.39,613.33c.09-13.2.19-26.39.28-39.59,2.66-.1,5.32-.21,7.98-.31.38,17.16.75,34.31,1.13,51.47-.61,3.54-.55,7.08-.1,10.63,1.8,2.08,2.22,4.38.39,6.54-1.93,2.27-4.63,2.39-7.27,1.55-3.52-1.11-4.44-3.91-4.24-7.28-.35-3.33-.68-6.68-.06-10.02-.21-4.45-1.41-9.05,1.88-12.99Z"/>
        <path class="cls-36" d="M370.17,590.64c.42,0,.84.01,1.26.02,2.92,2.47,2.27,5.92,2.43,9.11.24,4.7-.33,9.46.86,15.52,3.47-5.26,1.71-9.81,2.24-14,.59-4.58-1.49-9.68,2.66-13.56.37.06.73.18,1.05.37,0,5.71.39,11.45-.1,17.12-.42,4.85,1.7,6.65,5.99,7.45,3.82.71,7.56,1.87,12.62,3.17-9.08,5.25-18.1,6.85-26.46,10.09-1.54.6-3.09-.38-4.27-1.28-9.69-7.42-19.31-14.92-28.5-23.23,8.23,1.88,16.6,3.29,24.63,5.81,5.45,1.7,5.91-.33,5.64-4.71-.24-3.94-.05-7.9-.06-11.85Z"/>
        <path class="cls-15" d="M379.63,587.72c-.08,7.42.05,14.85-.34,22.26-.16,3.1,2.49,8.41-4.01,8.21-6.4-.2-3.48-5.46-3.69-8.54-.42-6.3-.15-12.66-.16-18.99.03-13.58.06-27.17.1-40.75,6.05-1.51,8.56.3,8.21,7.05-.54,10.23-.12,20.5-.1,30.76Z"/>
        <path class="cls-1" d="M391.19,189.68c.14,1.37-.12,2.87,1.25,3.85-.53,1.54-1.05,3.09-2.49,4.07.25-2.67-.83-5.54,1.24-7.92Z"/>
        <path class="cls-15" d="M209.32,754.2c-3.76-8.05-7.61-16.05-11.21-24.17-.98-2.21-1.94-3.83-4.59-3.66.93-.44,1.85-.87,2.78-1.31,3.53-3.05,8.11-3.04,12.29-3.95,11.03-2.39,21.85-5.96,33.25-6.41.73.22,1.34.64,1.82,1.23,14.57,12.85,30.37,24.12,45.99,35.62-.01.45-.02.89-.04,1.34-1.84,1.93-4.2,2.26-6.67,2.08-24.53-1.82-49.08-.48-73.62-.77Z"/>
        <path class="cls-33" d="M209.32,754.2c.63-3.05,3.06-2.61,5.19-2.61,20.5-.02,41-.08,61.5.05,4.54.03,9.07.81,13.61,1.25q.71,12.66-11.86,12.66c-19.04,0-38.09.17-57.13-.11-5.02-.08-6.86,1.56-6.07,6.35.92,5.58-.98,7.5-7.01,7.41-24.07-.38-48.15-.13-72.23-.21-2.04,0-4.4,1-6.13-1.08,2.96-3.07,6.85-2.54,10.52-2.55,20.83-.08,41.65.05,62.48-.12,2.91-.02,7.75,1.48,7.67-3.45-.07-4.34-4.64-3.05-7.42-3.08-19.29-.16-38.58-.02-57.88-.12-3.64-.02-7.56.63-10.46-2.6,2.34-1.78,5.07-1.07,7.64-1.08,21.06-.06,42.12-.03,63.18-.03q9.44,0,5.29-8.91c-.28-.6-.59-1.17-.89-1.76Z"/>
        <path class="cls-33" d="M134.1,765.98c23.69.02,47.38.03,71.07.07,4.01,0,8.25-1.23,8.35,5.74.11,7.38-4.41,6.11-8.66,6.11-25.22.02-50.45,0-75.67,0-.08-3.96-.15-7.92-.23-11.88,1.71-.01,3.43-.03,5.14-.04Z"/>
        <path class="cls-30" d="M322.87,706.86c-.49,3.46-.98,6.92-1.47,10.38-1.4,6.55-2.8,13.09-4.2,19.64-7.22.09-14.44.19-21.67.25-2.33.02-4.36-.11-3.99-3.53.88-8.25,1.53-16.52,2.24-24.78.18-2.07.49-4.37,2.95-4.43,8.09-.19,16.19-.11,24.27.07.64.01,1.25,1.57,1.87,2.4Z"/>
        <path class="cls-30" d="M492.86,714.4c-.1-2.95-.21-5.91-.31-8.86,7.84-3,15.96-.85,23.94-1.25,2.29-.12,2.61,1.88,2.69,3.75.36,7.87.62,15.75,1.17,23.61.31,4.45-1.61,5.75-5.78,5.56-6.35-.3-12.71-.19-19.07-.26-.88-7.52-1.76-15.03-2.64-22.55Z"/>
        <path class="cls-15" d="M247.64,305.68c-.05-.44-.1-.88-.15-1.32.49-2.18,2.22-3.25,3.99-4.07,14.7-6.77,29.25-13.87,44.19-20.11,1.01-.42,2.1-.62,3.2-.63.64.03,1.27.18,1.86.41,5.4,8.26,12.26,9.09,20.29,3.98.63.02,1.2.22,1.71.6,6.16,10.23,12.39,20.43,18.42,30.75.72,1.23,3.97,3.25-.13,4.63-30.79-1.64-61.1-6.33-90.94-14.09-.81-.05-1.62-.11-2.43-.16Z"/>
        <path class="cls-19" d="M251.57,206.91c.55-4.22-.51-8.09-2.79-11.58-2.22-3.4-2.93-7.05-2.46-11.01,3.72,2.22,2.56,8.51,7.86,9.41,10.66-.26,20.77,3.2,31.18,4.69,7.81,1.12,15.55,2.82,23.33,4.21,3.01.54,6.13,1.02,8.13,3.8,1.24,2.3.85,4.7.3,7.06-4.57,19.42-8.86,38.91-13.54,58.31-.51,2.13-1.03,4.28-2.54,5.99-4.81,1.38-5.4-2.64-6.33-5.44-2.61-7.89-4.95-15.88-7.2-23.88-.89-3.17-2.11-6.21-3.37-9.23-.5-2.07.91-3.18,2.27-4.24,2.99-2.34,4.74-5.21,3.1-8.97-1.56-3.57-4.89-3.79-8.27-3.51-1.08.09-2.15.07-3.21-.21-8.69-5.73-14.7-14.34-22.51-21.08-1.94,1.48.06,5.7-3.95,5.68Z"/>
        <path class="cls-4" d="M300.24,277.93c3.67-16.42,7.34-32.84,11.02-49.26,1.63-7.25,3.28-14.49,4.92-21.74,6.74-3.53,12.73-.4,18.8,2.11,1.04,1.23,1.64,2.75,1.4,4.25-2.17,13.3-1.9,27.13-8.3,39.54-1.78,10.57-3.56,21.14-5.34,31.71-.46.06-.92.13-1.38.19-7.52,1.43-14.47-.21-21.05-3.89l.13-.48c-.89-.75-.93-1.57-.18-2.44Z"/>
        <path class="cls-42" d="M218.76,390.11c-3.89-16.58-7.77-33.15-11.69-49.72-1.67-7.07-1.72-7.03,5.12-5.88,10.53,1.77,21.07,3.49,31.6,5.23,5.21,1.04,10.43,2.09,15.64,3.13,1.55,1.73.67,3.42-.45,4.72-12.48,14.59-24.28,29.79-38.42,42.89-.66.14-1.25,0-1.8-.37Z"/>
        <path class="cls-6" d="M334.43,209.78c-6.08-.95-12.17-1.89-18.25-2.84-13.63-3.69-27.73-4.99-41.45-8.12-6.87-1.57-14.35-.83-20.55-5.09,4.52-6.93,11.25-6.07,18.04-5.22,31.3,3.88,62.6,7.89,93.94,11.42,5.51.62,6.24,2.88,4.83,7.14-1,3.05-.61,6.67-3.45,9.02-11.53.47-22.79-.42-33.11-6.31Z"/>
        <path class="cls-10" d="M304.28,373.01c-14-1.84-28.21-.41-42.19-2.64-3.96-7.35-4.36-15.18-2.82-23.17.54-2.84,2.07-4.88,5.51-3.32,13.58,2.46,27.16,4.94,40.76,7.36,2.15.38,4.34.48,6.51.71,2.14,1.04,2.9,2.78,1.9,4.88-2.71,5.69-4.59,11.9-9.67,16.17Z"/>
        <path class="cls-14" d="M304.28,373.01c2.52-5.29,5-10.6,7.58-15.87.85-1.75,2.33-3.37.19-5.18.94,0,1.88,0,2.83,0,5.08,5.41,12.41,7.09,18.41,11.02,6.2,4.05,13.15,6.96,19.58,10.69,3.89,2.26,8,1.88,12.12,2.07-2.22,2.35-5.69.14-8,2.19-5.65,6.78-13.98,9.38-21.27,13.59-2.69,1.55-5.48.54-8.04-.97-3.38-1.99-6.46-4.42-9.78-6.49-3.86-3.53-10.13-4.12-12.12-9.94-.5-.37-1-.74-1.49-1.11Z"/>
        <path class="cls-19" d="M334.43,209.78c11.01,2.23,22.27,3.17,33.11,6.31-3.46,4.53-7.52,8.47-12.04,11.92-1.76,1.34-3.61,2.52-3.75,5.03-6.03,1.57-10.73,4.77-13.2,10.72-3.49,3.03-6.98,6.05-10.46,9.08,1.93-12.2,3.89-24.4,5.78-36.61.33-2.13.39-4.3.57-6.46Z"/>
        <path class="cls-11" d="M264.78,343.89c-3.71-.11-4.1,2.25-3.92,5.15.44,7.11.82,14.22,1.23,21.33-.04.47-.07.94-.11,1.4-3.6,3.81-8.72,4.8-13.14,7.08-6.98,3.6-14.13,6.82-21.16,10.32-2.4,1.2-4.94,3.2-7.84.9,12.51-14.42,25.01-28.85,37.54-43.27,1.01-1.16,2.06-2.26,2.05-3.94,1.9-.28,3.78-.48,5.35,1.01Z"/>
        <path class="cls-40" d="M250.08,305.84c16.16,2.35,32.34,4.58,48.48,7.07,14.18,2.19,28.31,4.67,42.46,7.02-11.71,1.3-23.41,2.61-35.12,3.86-1.27.13-2.69.16-3.85-.26-17.18-6.32-35.05-10.63-51.97-17.69Z"/>
        <path class="cls-34" d="M338.54,243.77c.74-9.46,4.28-12.34,13.2-10.72,3.79,2.47,5.97,5.85,4.83,10.42-.89,3.58-3.4,6.09-7.16,6.79-5.44,1.01-8.4-2.39-10.88-6.49Z"/>
        <path class="cls-12" d="M219.84,390.08c11.8-5.42,23.6-10.84,35.39-16.28,2.16-1,4.2-2.36,6.75-2.02.47,32.93.94,65.86,1.42,98.79-3.53.34-4.13-2.75-5.32-4.83-12.05-21.17-23.29-42.78-35.27-63.99-1-1.77-1.19-4.85-3.9-4.62-1.99.17-2.64,2.74-3.59,4.42-14.15,25.02-28.49,49.94-42.94,74.8-2.12,3.66-3.22,8.31-7.94,9.98-.39-.99-1.17-1.99-1.12-2.95.64-10.75-1.1-21.38-1.5-32.08-1.13-29.68-2.71-59.34-4.11-89.01.09-12.28-1.84-24.49-1.12-36.79,13.79,11.85,25.22,26.02,37.7,39.13,8.12,8.53,16.81,16.53,24.46,25.51.36.01.72,0,1.08-.04Z"/>
        <path class="cls-14" d="M300.24,277.93c.06.81.12,1.63.18,2.44-17.64,8-35.29,16-52.93,23.99-2.39-3.39-1.26-7.23-1-10.79,2.14-28.87,4.44-57.72,5.07-86.68,2.44-2.76.4-6.4,2.2-10.39,8.44,8.54,16.96,16.34,24.42,25.24-1.73,6.93.34,12.46,6.15,16.59,3.24.69,3.51,3.37,4.24,5.94,2.62,9.26,5.33,18.49,8.19,27.68.68,2.17.7,4.94,3.48,5.97Z"/>
        <path class="cls-20" d="M173.77,233.6c-5.98-9.55-11.98-19.09-17.93-28.67-.64-1.03-1.49-2.24.34-3.2,6.77-3.56,15.73,1.37,16.36,8.76.64,7.56,1.76,15.07,2.67,22.6-.48.17-.97.34-1.45.51Z"/>
        <path class="cls-23" d="M163.14,267.44c-.47-7.14,4.25-13.6,2.74-20.88,2.35.37,4.72.67,7.06,1.12,2.64.51,6.58-1.3,7.59,1.89.75,2.35-2.79,4.08-4.61,5.84-4.22,4.05-7.63,8.97-12.77,12.03Z"/>
        <path class="cls-24" d="M164.45,486.32c18.07-31.49,36.14-62.99,54.79-95.5,7.01,12.81,13.3,24.55,19.82,36.17,8.14,14.51,15.36,29.53,24.33,43.57,3.75,18.07,7.5,36.14,11.22,54.22.35,1.69.45,3.44.67,5.16-5.42.01-10.86.35-16.25-.06-5.4-.41-8.37.98-7.64,6.99.09.73-.61,1.56-.94,2.35-3.11-6.67-8.78-7.04-15.21-6.84-12.02.37-24.07.08-36.1.12-2.86,0-5.69-.07-8.37-1.2-12.29-.03-24.57-.06-36.86-.1,2.06-15.3,6.85-29.96,10.54-44.88Z"/>
        <path class="cls-24" d="M305.78,374.12c4.32,2.79,8.64,5.58,12.96,8.37,2.02,2.55,2.48,5.58,2.13,8.62-.84,7.23,1.58,13.1,6.66,18.14,2.46,2.44,4.45,5.29,5.69,8.58,0,0,.09,0,.09,0-3.57,15.11-5.43,30.51-7.96,45.8-3.49,21.09-6.98,42.19-11.16,63.28-.56-5.72-1.49-11.34-1.86-16.96-1.61-24.46-2.69-48.95-4.18-73.42-1.12-18.33-2.62-36.65-3.82-54.98-.16-2.51-.89-5.34,1.45-7.45Z"/>
        <path class="cls-2" d="M283.26,636.84c31.01-1.82,62.04-3.45,93.04-5.54,14.19-.95,28.32-2.66,42.58-2.47.99-.71,2-.86,3.07-.17,2.23,2.95,2.31,6.12.97,9.44-.23,7.6.83,15.04,2.64,22.4-2.88,3.19-7,3.37-10.74,4.5-11.37,1.51-22.64,3.77-34.1,4.59-1.89.29-3.93-.09-5.56,1.3-1.61,2.53-4.36,2.83-6.89,3.33-34.67,6.93-69.44,13.38-104.01,20.78-3.01.64-6.08,1.07-9.05-.29-3.4-2.82-.91-5.64.28-8.19,3.97-8.51,8.29-16.85,12.92-25.03,3.06-6.97,6.75-13.63,10.37-20.32,1.02-1.89,1.99-3.95,4.5-4.34Z"/>
        <path class="cls-7" d="M254.43,693.46c13.75-.07,26.7-4.72,40.04-7.13,25.22-4.55,50.3-9.92,75.44-14.91,1.71-.34,3.49-.36,5.23-.52,3.94,0,7.88,0,11.81,0,.07.39.15.79.22,1.18-6.14,1.87-12.28,3.74-18.42,5.61-41.1,12.47-82.21,24.93-123.31,37.41-.62.19-1.19.56-1.79.84-.44,0-.89-.02-1.33-.02-1.16-7.28,4.55-11.81,7.13-17.58.93-2.1,1.34-5.3,4.97-4.87Z"/>
        <path class="cls-32" d="M550.77,674.97c-23.73.94-47.38-2.04-71.1-1.32-4.25-2.39-8.9-.52-13.3-1.25-9.68-1.52-19.39-2.87-28.67-6.16-2.27-.81-5.41-.82-5.6-4.41,15.27.54,30.36,2.89,45.52,4.49,18.63,1.97,37.24,4.06,55.86,6.09,5.8.63,11.68.72,17.29,2.58Z"/>
        <path class="cls-35" d="M432.1,661.81c9.88,4.26,20.55,5.86,30.74,9.1,1.24.39,2.63.32,3.54,1.48-21.12.72-42.18-1.48-63.29-1.46-1.53-1.23-3.9.41-5.74-2.13,5.2-4.28,12.07-3.15,17.63-5.63,3.38-1.46,6.76-2.9,10.57-2.65,2.22.25,4.66-.61,6.55,1.3Z"/>
        <path class="cls-21" d="M414.98,663.17c-4.74,3.31-10.64,3.41-16.02,5.7,1.55.77,2.84,1.42,4.13,2.06-7.46-.44-14.92-.89-22.38-1.33,11.24-3.12,22.64-5.4,34.28-6.43Z"/>
        <path class="cls-27" d="M248.61,567.99c19.27.95,38.55,1.87,57.82,2.9,2.35.13,4.67.86,7,1.31.64,3.49-2.13,4.53-4.34,5.69-29.38,15.36-58.49,31.24-87.85,46.63-2.45,1.29-4.91,3.15-8.02,1.88-36.43-21.6-72.87-43.2-109.3-64.8,2.58-3.68,5.99-1.73,9.17-1.35,25.94,1.34,51.88,2.68,77.82,4.01,1.96-1.76,4.29-1.6,6.74-1.6,13.69,0,27.28,2.02,40.98,1.77,3.71-.07,7.47.12,9.99,3.58Z"/>
        <path class="cls-24" d="M213.22,626.4c31.89-16.88,63.79-33.75,95.68-50.64,1.72-.91,3.69-1.52,4.53-3.56.76-.48,1.52-.96,2.28-1.45-2.79,10.65-9.26,19.57-13.92,29.33-5.91,12.38-12.34,24.52-18.54,36.76-4.43,8.33-8.86,16.66-13.29,25-1.46,1.39-3.23,2.15-5.14,2.71-16.71,4.91-33.45,9.71-50.22,14.41-2.99.84-6.23,2.51-9.29-.1.71-17.78,5.57-34.93,7.91-52.46Z"/>
        <path class="cls-27" d="M205.31,678.86c19-4.39,37.54-10.4,56.27-15.76,2.77-.8,5.49-1.49,8.39-1.25-5.18,10.54-10.35,21.08-15.53,31.62-4.03,7.48-8.07,14.97-12.1,22.45-15.38,2.88-30.36,7.77-46.03,9.15,2.64-15.32,5.27-30.64,7.9-45.95.37-.09.74-.17,1.11-.25Z"/>
        <path class="cls-8" d="M113.09,560.24c-3.05.52-6.39-.97-9.17,1.35-.46-.85-.93-1.71-1.39-2.56,3.53.34,7.27-1.22,10.56,1.21Z"/>
        <path class="cls-39" d="M532.36,627.72c2.45-2.81.55-6.29,1.46-9.34,8.33.59,16.55-.97,24.83-1.36-7.18,6.46-15.31,11.66-23.11,17.31-1.5,1.09-2.73,2.09-4.7,1.26-11.27-4.75-23.34-7.44-34.2-13.26,9.23-.89,18.45-1.78,27.68-2.67,2.43,2.93,3,7.72,8.03,8.07Z"/>
        <path class="cls-39" d="M446.46,635.43c.76,2.62-1.43,6.58,4.2,6.78,5.7.21,4.67-3.5,5.03-6.69,5.67,0,11.33,0,17,0,.14.35.28.71.42,1.06-8.06,4.12-16.13,8.2-24.16,12.36-2.34,1.21-4.23.14-6.17-.9-6.19-3.31-12.37-6.63-18.55-9.94-.1-.93.16-1.96,1.01-2.17,7.03-1.78,14.08-3.81,21.24-.5Z"/>
        <path class="cls-28" d="M446.46,635.43c-7.32,1.7-15.02.19-22.25,2.67-.44,0-.87,0-1.31,0-1.79-2.89-1.21-6.13-1.42-9.26.1-.63-.08-1.52.62-1.74,8.04-2.54,16.08-5.6,24.36-.8,0,3.04,0,6.09-.01,9.13Z"/>
        <path class="cls-18" d="M446.47,626.3c-8.45-.33-16.77.52-24.98,2.55-.87,0-1.75,0-2.62-.01,3.19-5,0-9.76-.73-14.55-.88-5.8-2.98-11.39-3.18-17.33,10.47,5.46,20.95,10.91,31.42,16.37.03,4.33.06,8.65.09,12.97Z"/>
        <path class="cls-12" d="M248.61,567.99c-12.9-.8-25.79-1.59-38.69-2.41-6.34-.41-12.68-.88-19.02-1.33-.04-10.99-.09-21.97-.13-32.96,2.08-1.76,4.59-1.16,6.95-1.17,14.25-.07,28.49-.08,42.74-.09q9.62-.01,10,9.18c-.62,9.59-1.23,19.18-1.85,28.78Z"/>
        <path class="cls-26" d="M532.36,627.72q-7.44,1.41-8.03-8.07c0-6.56-.01-13.13-.02-19.69.77-11.78-1.21-23.65,1.22-35.39.48-2.32.65-4.39,3.75-4.17,3.27.23,2.97,2.67,2.97,4.83.05,20.83.08,41.66.11,62.49Z"/>
        <path class="cls-42" d="M333.22,417.84c-5.68-3.53-8.73-9.53-13.18-14.22-2.59-2.72-1.05-6.67-1.22-10.07-.19-3.68-.06-7.37-.07-11.06,9.56,9.5,19.15,8.17,29.06.41,2.7-2.12,6.11-3.34,9.19-4.97-4.13,9.49-10.53,17.6-15.94,26.3-2.76,4.45-6.05,8.59-7.83,13.61Z"/>
        <path class="cls-38" d="M300.3,280.85c7.15.55,14.14,2.01,21.05,3.89q-12.31,8.42-21.05-3.89Z"/>
        <path class="cls-9" d="M284.33,238.34c-10-3.02-11.99-8.38-6.15-16.59,6.84-2.55,12.07-1.13,13.97,3.81,2.12,5.5-.38,9.57-7.83,12.78Z"/>
        <path class="cls-12" d="M231.11,452.68c-.14,1.77-11.49,10.07-13.38,9.78-1.08-.16-10.1-12.19-10.07-13.43.03-1.09,13.75-9.41,15.29-9.28,1.58.14,8.32,10.83,8.15,12.93Z"/>
        <path class="cls-12" d="M231.65,497.6c-.04,1.5-9.81,9.3-11.39,9.1-1.24-.16-10.46-11.92-10.39-13.26.06-1.16,11.01-8.77,12.67-8.8,1.17-.03,9.15,11.33,9.11,12.96Z"/>
        <path class="cls-37" d="M221.82,541.71c1.97,0,3.94.04,5.91,0,8.61-.2,8.32-.21,8.26,8.6-.03,4.72-1.77,6.05-6.21,5.86-6.78-.3-13.57-.11-20.36-.06-3.08.02-6.02-.1-5.44-4.38.5-3.69-1.97-9.1,4.72-9.57,4.36-.31,8.75-.06,13.13-.06,0-.13,0-.25,0-.38Z"/>
      </g>
    </g>
  </g>
</svg>