<?xml version="1.0" encoding="UTF-8"?>
<svg xmlns="http://www.w3.org/2000/svg" version="1.1" viewBox="0 0 612 792">
  <defs>
    <style>
      .cls-1 {
        fill: #b6a1bd;
      }

      .cls-2 {
        fill: #cdcdcc;
      }

      .cls-3 {
        fill: #eaeaea;
      }

      .cls-4 {
        fill: #e2c9b7;
      }

      .cls-5 {
        fill: #8b779c;
      }

      .cls-6 {
        fill: #735f84;
      }

      .cls-7 {
        fill: #767676;
      }

      .cls-8 {
        fill: #64526d;
      }

      .cls-9 {
        fill: #2c2c2c;
      }

      .cls-10 {
        fill: #544362;
      }

      .cls-11 {
        fill: #997a8a;
      }

      .cls-12 {
        fill: #ab889b;
      }

      .cls-13 {
        fill: #a089b5;
      }

      .cls-14 {
        fill: #d9bca6;
      }

      .cls-15 {
        fill: #735f83;
      }

      .cls-16 {
        fill: #9c9fa0;
      }

      .cls-17 {
        fill: #8a779b;
      }

      .cls-18 {
        fill: #c3c3c3;
      }

      .cls-19 {
        fill: #bc977e;
      }

      .cls-20 {
        fill: #866855;
      }

      .cls-21 {
        fill: #b7b7b7;
      }

      .cls-22 {
        fill: #848484;
      }

      .cls-23 {
        fill: #846654;
      }

      .cls-24 {
        fill: #6e4f5e;
      }

      .cls-25 {
        fill: #cdc7d0;
      }

      .cls-26 {
        fill: #746085;
      }

      .cls-27 {
        fill: #4e3141;
      }

      .cls-28 {
        fill: #e9e9e9;
      }

      .cls-29 {
        fill: #8b779b;
      }

      .cls-30 {
        fill: #4f5252;
      }

      .cls-31 {
        fill: #8d657a;
      }

      .cls-32 {
        fill: #b3b3b3;
      }

      .cls-33 {
        fill: #554463;
      }

      .cls-34 {
        fill: #2d2d2c;
      }

      .cls-35 {
        fill: #c2c2c2;
      }

      .cls-36 {
        fill: #8c8e90;
      }

      .cls-37 {
        fill: #554462;
      }

      .cls-38 {
        fill: #564563;
      }

      .cls-39 {
        fill: #d1d1d1;
      }

      .cls-40 {
        fill: #856755;
      }

      .cls-41 {
        fill: #7b7b7b;
      }

      .cls-42 {
        fill: #856754;
      }
    </style>
  </defs>
  <!-- Generator: Adobe Illustrator 28.7.1, SVG Export Plug-In . SVG Version: 1.2.0 Build 142)  -->
  <g>
    <g id="Layer_1">
      <g>
        <path class="cls-25" d="M534.51,694.23c-.94,7.37,2.11,11.05,9.36,13.73,19.78,7.3,39.15,15.69,58.67,23.67,1.3.53,2.5,1.29,4.55,2.36-4.65,1.98-8.96,1.54-12.9,2.01-12.16,1.44-24.44,1.82-36.65,2.84-17.08,1.43-34.14,3.1-51.21,4.63-10.58.95-21.16,1.8-31.74,2.74-17.48,1.56-34.95,3.19-52.44,4.71-11.19.97-22.39,1.82-33.59,2.67-16.69,1.26-33.34,2.91-49.99,4.49-11.98,1.14-24.02,1.89-36.03,2.94-16.67,1.46-33.31,3.15-49.98,4.62-11.6,1.02-23.21,1.79-34.81,2.78-7.31.62-14.62,1.42-21.92,2.19-8.71.92-17.06-1.5-25.5-2.79-27.44-4.19-54.84-8.62-82.24-13.03-25.8-4.15-51.58-8.4-77.36-12.64-.74-.12-1.4-.69-3.06-1.56,32.04-6.91,63.12-13.48,94.12-20.37,7.53-1.67,15.46-2.08,22.36-6.13,2.33,2.19,1.33,4.9.99,7.4-1,7.39-2.65,14.67-3.75,22.05.68,3.06-.69,6.54,1.94,9.18,2.16,1.54,4.62,1.55,7.1,1.54,19.5-.02,39-.1,58.5.05,5.32.04,8.65-1.36,9.04-7.37.32-4.96,4.43-5.38,8.22-5.48,9.64-.26,19.29-.08,28.94-.1,7.39-.02,14.78.01,22.17,0q9.37-.03,10.49-9.05c.07-.73.13-1.46.15-2.18.05-1.43-.06-2.86.09-4.28.89-8.23,2.53-9.54,10.77-9.85,4.57-.17,9.44,1.46,13.61-1.77,2.38-2.87,2.26-6.53,3.15-9.86.79-2.99,1.34-6.08,4.58-7.59,2.55-1.06,5.26-1.21,7.89-.81,11.03,1.68,22.12.97,33.19.95,22.77-.03,45.51,1.25,68.26,1.66,13.51.24,27.05.61,40.57.87,3.5.07,6.49-.65,8.69-3.54,4.46-.53,3.74,3.1,4.1,5.48.65,4.3-.07,8.85,2.57,12.74,3.99,3.2,8.69,1.7,13.08,1.88,7.4.31,8.53,1.2,9.21,8.42.65,6.95.65,7.03,7.72,7.09,9.83.08,19.66-.05,29.49.05,4.48.05,6.23-1.75,6.18-6.2-.07-7.79-.2-15.58.1-23.36.11-2.88-.58-6.38,3.33-7.74Z"/>
        <path class="cls-14" d="M363.42,212.36c-10.04,32.02-20.11,64.03-30.11,96.07-3.6,11.52-7.04,23.08-10.56,34.63-.18,1.05-.69,2.05-1.62,2.45-9.45,4.11-18.05,10.05-28.1,12.83-.99.08-1.98.12-2.97.3-14.61-1.54-28.97-4.54-43.3-7.68-1.94-.55-3.83-1.37-5.93-1.19-5.2-.78-10.78-.22-15.01-4.34-.27-10.99-2.5-22.19,3.46-32.52.95-.59,2-.81,3.1-.76,14.78,4.72,29.66,9.17,44.34,14.21,3.55,1.22,7.01,1.72,10.8,1.39,9.34-.81,18.66-1.88,27.94-2.77,1.93-2.07-.3-3.36-1.07-4.7-4.05-7.03-8.35-13.91-12.47-20.9-1.23-2.09-2.61-4.14-2.76-6.69,1.19-9.41,2.14-18.86,4.77-28.02,3.09-3.94,5.71-8.44,11.11-9.75,1.91.27,3.17,1.65,4.58,2.77,2.7,2.15,5.46,2.55,8.22.22,2.97-2.51,3.05-5.46,1.05-8.63-.75-1.19-1.66-2.29-2.07-3.68-.52-3.14,1.62-4.81,3.63-6.54,4-3.45,7.99-6.89,11.03-11.28.22-.8.57-1.55.81-2.33,2.23-7.31,1.51-8.49-6.28-9.4-27.5-3.23-54.99-6.46-82.46-9.95-5.99-.76-11.34.02-16.23,3.6-6.47.63-6.38-5.71-9.36-8.79-9.62-19.22-19.63-38.24-29.65-57.26-1.15-2.86-.39-5.06,2.27-6.61,20.32-7.78,40.74-15.33,61.41-22.18,4.13-.14,7.44,2.05,10.77,4.02,14.99,8.85,30.27,17.19,45.21,26.11,5.52,3.3,5.98,3.05,7.91-3.14,1.52-4.89,2.45-9.95,3.96-14.84.76-2.48,1.3-5.38,4.89-5.41,2.75.7,4.5,2.77,6.14,4.82,8.92,11.14,17.91,22.22,26.91,33.29,1.41,1.74,2.72,3.58,3.23,5.85-.49,13.17-2.66,26.11-4.97,39.04-1.37,2.42-1.46,5.28-2.62,7.77Z"/>
        <path class="cls-19" d="M199.58,143.22c2.26,2.4,3.83,5.25,5.19,8.21,7.56,16.46,17.48,31.73,24.39,48.51,1.66,7.49,7.73,13.55,7.11,21.79.21,19.9-2.07,39.68-3.09,59.52-.52,10.02-1.03,20.05-2.07,30.03-.04.77-.28,1.47-.7,2.11-1.98,3.23-2.43,6.92-2.38,10.5.09,7.16-.7,14.23-1.22,21.34-2.01,2.38-4.55,1.28-6.85.9-6.26-1.04-12.51-2.12-18.77-3.13-6.99-1.13-7.38-.78-5.69,5.9,2.86,11.32,5.21,22.76,8.15,34.06.72,2.74,1.76,5.51.67,8.42-2.12,2.91-3.59.45-4.87-.8-13.9-13.58-26.92-28.01-40.21-42.17-4.75-5.07-9.82-9.85-14.3-15.18-.53-.76-.84-1.59-.75-2.53,1.61-13.16,3.23-26.32,4.83-39.48.44-3.65.79-7.31,1.19-10.96-.94-1.13-.62-2.24.07-3.33,4.8-4.92,9.88-9.59,15.07-15.4-4.86-.41-8.72-1.66-12.81-1.59-6.28-1.22-13.05-.1-18.74-4.01-2.43-3.94-1.9-8.36-1.66-12.59.5-8.8,1.12-17.59,1.35-26.41.21-7.97,2.75-10.1,10.57-10.42,5.77-.24,11.45.47,17.16,1.17,4.69.57,7.41,3.02,8.6,7.5,1.42,5.36,2.65,10.76,3.94,16.14.71,2.96.41,6.85,5.08,7.33,5.78.59,11.43-1.64,12.91-5.91,4.2-12.21,8.75-24.31,11.94-36.85-1.36-14.58-3.78-29.01-5.72-43.51-.42-3.18-1.24-6.51,1.62-9.14Z"/>
        <path class="cls-31" d="M342.45,421.9c6.87,23.35,13.71,46.71,20.65,70.04.89,2.99-.65,4.04-2.97,4.96-19.97,7.89-39.87,15.98-59.95,23.6-5.03,1.91-8.06,4.23-7.24,9.92-4.68-5.6-11.03-5.1-17.44-5.17-6.41-.06-13,1.38-19.22-1.43-1.67-1.4-2.29-3.36-2.76-5.37-3.78-16.17-6.71-32.51-10.23-48.73-.22-1-.2-2.04-.04-3.06-.34-27.09-2.36-54.13-1.78-81.24.07-3.28-.24-6.59.85-9.77.23-.76.62-1.44,1.15-2.04,9.3-2.16,18.68-.66,28.02-.38,3.82.11,7.79.37,11.51,1.73,1.08.49,1.89,1.24,2.24,2.41,2.44,46.31,6.76,92.53,7.99,131.35.72-13.71,5.87-34.5,8.74-55.64,1.27-9.35,3-18.65,4.67-27.94.51-2.84.96-5.71,3.52-7.61,2.39-1.41,5.01-1.54,7.64-1.24,6.42.72,12.79,1.9,19.24,2.37,2.27.17,4.39.85,5.41,3.25Z"/>
        <path class="cls-22" d="M534.51,694.23c-2.04,10.56-1,21.25-.95,31.85.03,6.26-1.68,8.11-7.95,7.83-11.67-.53-23.39-.29-35.08-.08-4.02.07-5.28-1.28-5.32-5.29-.1-10.59-.29-10.41-10.82-10.69-4.09-.11-8.49,1.62-12.31-1.32,4.09-3.44,9.01-1.94,13.6-2.16,7.06-.34,7.98-1.06,7.08-7.94-.58-4.49-.94-8.97-.94-13.47,0-3.35-1.55-4.79-4.86-4.84-6.15-.1-12.28-.1-18.43.34-32.2-.56-64.39-.1-96.58-.22-16.61-.06-33.22,0-49.83-.02-3.49,0-6.96.17-10.38.84-6.88-1.33-13.85-1.15-20.82-.95-2.71.08-4.85.78-5.07,4.05-.39,5.73-1.38,11.4-1.59,17.16-.14,3.84,1.48,5.15,5.05,5.06,3.07-.07,6.15-.05,9.23.05,2.46.08,4.97.04,6.87,2.04-4.46,3.04-9.45,1.23-14.17,1.38-9.77.31-9.78.09-11.29,9.9-.12.81-.2,1.63-.29,2.45-2.55.89-4.32-.79-6.06-2.06-11.37-8.32-22.57-16.86-33.53-25.72-1.93-1.56-4.72-2.95-3.49-6.39,2.18-2.81,5.53-3.41,8.62-4.33,37.82-11.32,75.45-23.28,113.39-34.2,3.37-.97,6.83-1.2,10.08-1.59-2.92-.44-6.46,2.3-9.09-1.39,1-2.5,3.16-2.67,5.39-2.72,7.12-.38,14.12,1.15,21.2,1.32,14.74-1.87,29.38.89,44.09.97,4.69.03,9.39.41,14.08-.02,4.4-.06,9.01-1.23,12.85,2.12.5,1.89-.73,1.68-2.17,1.76,7.11.59,13.82,2.02,20.44,3.95,18.12,5.27,36.31,10.26,54.53,15.16,5.06,1.36,10.55,2.07,14.48,6.23.02,3.64.04,7.29.05,10.93Z"/>
        <path class="cls-17" d="M335.09,122.19c-3.3.62-2.87,3.66-3.52,5.8-1.77,5.85-3.6,11.73-4.71,17.73-.98,5.3-2.97,5.11-6.93,2.77-16.7-9.86-33.51-19.53-50.32-29.19-2.27-1.3-4.43-3.01-7.24-3.12-6.84-1.83-12.37-6.23-18.29-9.74-21.78-12.89-43.51-25.87-65.44-38.51-1.06-.61-2.17-1.17-2.69-2.38,12.71-10.31,25.47-20.55,38.1-30.96,2.99-2.46,5.29-3.05,9.14-1.08,23.64,12.16,47.48,23.94,71.25,35.84,11.44,14.3,23.12,28.41,34.57,42.7,2.45,3.06,6.22,5.48,6.09,10.14Z"/>
        <path class="cls-31" d="M93.83,530.42c-.61-2.84.55-5.99-1.46-8.6.67-24.35,3.41-48.54,5.63-72.78,1.67-7.39.84-14.95,1.55-22.43,1.2-12.55,2.59-25.11,2.95-37.73.08-2.88.8-5.64,1.8-8.32,1.01-2.81,3.45-3.89,5.97-4.75,9.8-3.35,19.61-6.71,29.49-9.83,2.67-.84,5.56-1.78,7.84,1.07,2.41,6.06,1.76,12.57,2.16,18.8.68,10.61,1.24,21.25,1.65,31.88.6,15.54.86,31.1,2.32,46.58.54,5.74-.92,11.44.12,17.13-.7,11.56-4.96,22.34-7.42,33.52-.77,3.51-.79,7.44-3.79,10.18-2.59,1.56-5.49,1.43-8.33,1.45-8.17.06-16.34.16-24.5-.03-5.72-.13-11.26-.02-15.97,3.84Z"/>
        <path class="cls-17" d="M199.58,143.22c.14,11.61,3.07,22.88,4.19,34.37.61,6.24,2.25,12.38,1.94,18.72-1.6,1.53-3.56,1.93-5.68,1.75-16.69-1.42-33.39-2.67-50.09-3.79-9.57-.64-19.13-1.72-28.74-1.72-3.27,0-6.6.13-9.26-2.35-1.98-14.34-4.04-28.67-5.91-43.02-1.9-14.59-3.6-29.21-5.44-43.8-.27-2.17-1.54-4.52,1.66-5.61,6.46,1.45,12.19,4.78,18.21,7.28,22.9,9.52,46.04,18.47,68.72,28.51,3.88,1.72,8.51,1.66,11.72,4.94-1.88,1.17-2.1,2.81-1.32,4.72Z"/>
        <path class="cls-31" d="M113.44,653.77c-6.92-34.44-13.85-68.88-20.72-103.33-.44-2.19-.38-4.49.68-6.6,2.01,1.12,1.93,3.34,2.71,5.11.35,1.06.92,1.97,1.91,2.57,31.23,18.77,62.62,37.25,93.9,55.9,2.92,1.74,6.44,2.95,7.63,6.72.01,10.85-3.21,21.23-4.82,31.83-.84,5.55-.63,11.39-3.29,16.61-.52.53-1.14.93-1.83,1.21-8.88,1.68-17.51-.93-26.18-1.94-14.63-1.71-29.25-3.62-43.85-5.69-2.25-.32-4.48-.61-6.16-2.39Z"/>
        <path class="cls-15" d="M200.89,138.5c-8.41.29-15.19-4.53-22.5-7.48-23.51-9.49-46.86-19.35-70.24-29.15-2.2-.92-4.72-1.62-5.91-4.11,24.57-10.74,49.14-21.48,73.71-32.22,6.91,1.11,12.13,5.67,17.9,9.03,21.03,12.23,41.95,24.63,62.85,37.07,2.04,1.22,4.48,2.15,5.67,4.53-20.49,7.44-40.99,14.88-61.48,22.33Z"/>
        <path class="cls-3" d="M522.32,604.33c7.08,8.13,14.05,16.37,21.27,24.37,9.69,10.74,19.59,21.3,29.38,31.95.79.86,2.09,1.61,1.63,3.03-.43,1.32-1.61.81-2.59.69-12.49-1.48-24.98-2.95-37.47-4.42-2.73,2.64-6.04,2-9.25,1.5-3.83-.6-7.74-.28-11.55-1.04-8.75-2.3-17.8-2.42-26.7-3.52-16.44-2.01-32.99-3.06-49.46-4.96-11.36-1.31-22.59-3.8-34.09-3.93-2.57-.32-5.1-.82-7.35-2.22-4.25-6.47-4.43-13.55-3.09-20.84.31-.6.78-1.07,1.36-1.41,5.38-.78,9.45,2.44,13.41,5.08,5.82,3.88,11.12,4.26,17.06.43,3.93-2.54,8.16-4.72,12.21-5.9-4.23.13-9.3,2.24-13.3-2.33-1.2-3.25-1.29-6.41.8-9.37,3.14-2.52,7.03-2.05,10.61-2.34,8.74-.71,17.43-2.51,26.26-1.58,9.9,3.76,20,6.99,29.86,10.88,3.63,1.44,6.46,1.07,9.68-1.1,6.57-4.43,12.37-10,19.59-13.49.62-.01,1.2.15,1.71.52Z"/>
        <path class="cls-16" d="M294.53,561.29c5.86,2.51,12.06,3.75,18.29,4.85,3.91-.74,7.21,1.17,10.49,2.67,7.54,3.45,16.04,4.9,22.45,10.71,1.73,4.15.77,8.5.89,12.77.12,4.24-1.94,5.99-6.21,5.08-6.22-1.33-12.43-2.64-18.3-4.41,6.3,4.37,12.55,9.22,18.69,14.21,3.52,2.86,7.09,3.7,11.38,1.85,4.5-1.93,9.4-2.8,13.92-4.91q-13.21-4.32-13.11-18.58c.03-2.8-.7-5.83,1.74-8.14,10.7,2.49,21.4,4.99,32.1,7.48.58.44,1.03.99,1.36,1.63,2.29,6.94,3.61,14.11,4.94,21.28.65,3.5.54,6.95-3.19,9.02-6.95,2.1-14.2,1.25-21.29,1.94-14.42,1.41-28.94,1.68-43.4,2.76-18.33,1.37-36.71,1.85-55.03,3.25-1.64.12-3.27.16-4.85-.34-4.44-2.21-1.85-5.32-.65-7.81,6.2-12.96,12.69-25.79,19.61-38.39,3.05-5.55,5.13-11.66,9.3-16.58.29-.12.59-.23.88-.34Z"/>
        <path class="cls-24" d="M105.85,380c-1.67,22.12-4.4,44.15-4.97,66.35-.02.94-.67,1.87-1.02,2.8-5.34-1.73-10.9-1.88-16.31-1.16-12.79,1.71-25.6.71-38.4.97-3.06.06-6.15-.05-8.51-2.5,7.41-20.32,14.81-40.64,22.24-60.96,3.44-9.4,6.83-18.81,10.46-28.13.75-1.93.61-4.63,3.31-5.46,5.05,5.77,7.12,13.19,10.85,19.7,1.21,2.12,2.32,4.3,3.4,6.49,1.77,3.61,4.27,4.23,8.03,3.05,3.49-1.09,6.99-3.88,10.94-1.16Z"/>
        <path class="cls-15" d="M335.09,122.19c-13.4-16.43-26.8-32.85-40.2-49.28-.91-1.12-2.14-2.14-.46-3.56,36.85,18.42,73.7,36.85,110.58,55.21,2.67,1.33,4.36,2.49,1.52,5.22-10.12,12.1-22.07,22.39-33.12,33.56-.97.98-2.28,1.81-3.87,1.03-11.49-14.06-22.97-28.12-34.46-42.18Z"/>
        <path class="cls-24" d="M113.44,653.77c15.49.54,30.69,3.6,46.05,5.31,10.1,1.13,20.2,2.27,30.31,3.4,1.41,1.47,1.6,3.29,1.34,5.16-1.64,11.55-3.84,23.01-6.03,34.47-.27,1.42-1.06,2.65-1.96,3.8-1.06,1.1-2.34,1.84-3.76,2.36-16.29,2.41-32.73,3.42-49.11,5.05-2.08.21-4.08-.03-5.58-1.75-3.75-19.26-7.5-38.52-11.25-57.78Z"/>
        <path class="cls-15" d="M111.93,190.21c19.78-.13,39.43,1.75,59.09,3.54,11.54,1.05,23.12,1.73,34.68,2.57-3.25,13.79-8.65,26.9-12.82,40.4-1.15,3.74-4.7,2.89-7.25,3.44-11.89,2.57-12.05,2.35-14.41-9.7-.55-2.81-1.24-5.6-1.94-8.38-3.09-12.22-3.09-12.27-15.8-13.27-3.47-.27-7.02.19-10.45-.31-5.68-.82-7.51,2.18-7.38,6.97.37,13.34-2.14,26.59-1.3,39.94-1.24.85-2.55.41-3.34-.43-4.25-4.52-10.65-6.92-13.07-13.23-2.01-17.18-4.01-34.36-6.02-51.55Z"/>
        <path class="cls-27" d="M36.63,446.47c19.05.66,38.07-.09,57.1-1.04,2.76-.14,6.12-.84,6.13,3.73-1.73,22.62-3.45,45.25-5.21,67.87-.14,1.83-.49,3.69-2.27,4.8-18.23-24.09-36.46-48.18-54.68-72.29-.66-.87-1.99-1.61-1.07-3.07Z"/>
        <path class="cls-10" d="M105.85,380c-4.96.46-9.35,2.85-14.07,4.12-1.57.42-3.13,1.35-4.2-.79-5.16-10.39-11.7-20.12-14.95-31.42,23.85-7.08,47.7-14.15,71.55-21.23.37.4.74.81,1.1,1.21,1.55,2.49,2.44,5.17,2.43,8.14-.02,6.15.08,12.28.92,18.41.39,2.8.43,5.81-2.31,7.85-13.68,4.02-27.27,8.31-40.49,13.71Z"/>
        <path class="cls-10" d="M94.75,550.23c-1.86-1.83-.55-4.34-1.35-6.39.15-4.47.29-8.94.44-13.41.7-5.11,3.52-6.44,8.63-6.28,13.43.41,26.88.1,40.32.07,1.11-.91,2.26-1.83,3.72-1.93,9.49-.66,18.98-.91,28.45.18,1.01.12,1.89.7,2.7,1.33,1.74,1.94,2.2,4.37,2.06,6.78-.47,8.17,1.73,16.53-1.61,24.51-2.23,2.28-5.14,2.44-7.99,2.25-21.58-1.5-43.21-2.03-64.75-4.05-3.46-1.25-7.39-.93-10.61-3.05Z"/>
        <path class="cls-17" d="M124.68,711.55c14.53-1.35,29.08-2.54,43.58-4.16,3.86-.43,7.7-.41,11.54-.73,3.65-1.7,5.04.78,6.47,3.4,4.09,7.45,6.52,15.67,10.82,23.02.65,1.06,1.18,2.18,1.52,3.36,1.64,5.62.28,7.73-5.62,7.81-14.95.21-29.89-.05-44.84.12-7.75.09-15.56-.87-23.25.92-2.04.27-3.9-.13-5.46-1.56,1.56-9.88,3.13-19.76,4.69-29.65.18-.84.36-1.68.53-2.52Z"/>
        <path class="cls-10" d="M256.24,523.04c8.74,0,17.5.36,26.22-.11,5.93-.32,10.27.35,10.48,7.48.53,10.29,1.06,20.58,1.59,30.87,0,0-.49-.1-.49-.1-.89,1.26-1.92,2.32-3.56,2.5-17.68-.42-35.31-1.89-52.98-2.63-2.25-.09-4.48-.33-6.32-1.88-1.91-2.44-2.14-5.35-1.76-8.17.87-6.48.79-13.03,1.61-19.51,1.54-3.49.19-9.03,5.31-9.98,6.63-1.22,13.55-2.55,19.9,1.51Z"/>
        <path class="cls-18" d="M463.16,609.39c-12.73.8-25.47,1.6-38.2,2.4-2.42-2.15-2.28-5.1-2.35-7.92-.24-10.36.44-20.74-1.08-31.07-.47-3.22-.24-6.56,2.37-9.12,2.24,2.67.96,5.84,1.14,8.77.18,3.03,1.43,3.91,4.28,3.22,8.03-1.94,16.09-3.8,24.13-5.69,12.13,4.51,23.87,9.84,34.81,16.84,1.07.68,1.81,1.65,2.28,2.84,1.05,5.89,1.91,11.77-.92,17.46-8.51,4.32-17.38,4.61-26.46,2.27Z"/>
        <path class="cls-18" d="M522.32,604.33c-.4.04-.8.07-1.19.1-5.5,2.35-11.1,4.19-17.23,3.54-2.45-.26-4.95-.31-6.83-2.25-1.24-1.8-1.15-3.88-1.15-5.91-.04-11.23-.06-22.45.01-33.68.02-2.21-.2-4.57,1.92-6.16,12.59-2.51,25.19-5.02,37.79-7.5,1.72-.34,3.78-2.08,5.13-.38,1.18,1.48-.35,3.43-.99,5.11-5.66,14.7-11.33,29.4-16.95,44.12-.36.93-.33,2-.49,3.01Z"/>
        <path class="cls-10" d="M117.95,241.75c5.47,4.55,10.94,9.11,16.41,13.66,6.53.9,13.07,1.81,19.6,2.71,2.91,1.48,2.13,4.1,1.79,6.41-.68,4.6-1.67,9.15-4.35,13.11-.4.87-.8,1.73-1.2,2.6-17.46,1.68-34.92,3.35-53.54,5.14,7.39-15.15,14.34-29.39,21.29-43.63Z"/>
        <path class="cls-19" d="M342.45,421.9c-10.63-1.48-21.2-3.41-31.97-3.66-.19-.23-.38-.47-.58-.7-.5-4.1,2.27-6.91,4.23-9.89,6.07-9.23,11.78-18.68,18-27.81,2.56-1.95,5.82-1.7,8.66-2.8,4.83-.68,9.71-.75,14.53-1.49,3.31-.51,6.48.03,9.22,2.16-7.37,14.73-14.73,29.46-22.1,44.2Z"/>
        <path class="cls-4" d="M364.54,377.7c-8.22-.95-16.26,1.75-24.46,1.18-6.02,1.39-11.39.44-16.89-2.84-8.08-4.83-16.65-8.85-24.87-13.47-2.31-1.3-5.68-2-5.08-5.92,9.84-4.53,19.67-9.06,29.51-13.6,12.92,10.29,25.86,20.56,38.73,30.91,1.23.99,2.05,2.48,3.06,3.73Z"/>
        <path class="cls-41" d="M513.75,658.6c6.93.45,13.85.9,20.78,1.35.71,7.78.19,15.56-.08,23.34-11.95-3.3-23.91-6.58-35.86-9.89-18.3-5.07-36.59-10.15-56.58-15.69,2.92-.2,4.1-.27,5.28-.35,4-3.61,8.94-2.38,13.48-2.27,17.7.45,35.31,2.43,52.98,3.5Z"/>
        <path class="cls-13" d="M369.55,164.36c11.21-10.67,22.42-21.35,33.65-32,1.02-.97,2.22-1.74,3.34-2.6-3.76,10.87-10.26,20.37-15.42,30.53-8.22,16.2-16.89,32.18-25.37,48.25-2.98-.35-1.48-2.17-1.17-3.6,1.66-13.53,3.31-27.06,4.97-40.6Z"/>
        <path class="cls-29" d="M497.83,559.97c.03,15.24.05,30.49.08,45.73,2.08,3.33,3.08,6.49-1.44,8.73-2.74-2.57-2.28-6-2.3-9.21-.09-13.73,0-27.46-.07-41.18-.01-2.41.43-4.89-.77-7.64-1.87,2.2-1.77,4.6-1.84,6.93-.18,5.94.05,11.89-.15,17.82-.09,2.63.08,5.41-2.33,7.32-11.68-6.5-24.64-10.55-35.56-18.51,9.72-5.28,19.43-10.58,29.16-15.85,1.98-1.07,3.96-2.19,6.04-3.05,6.52-2.69,8.91-1.11,9.03,5.82.02,1.02.1,2.05.15,3.07Z"/>
        <path class="cls-29" d="M344.94,579.77c-10.71-4.54-21.41-9.09-32.12-13.63,10.95-8.39,21.72-17.03,33.38-24.44.71.73,1.54,1.51,1.61,2.52.8,11.67,2.16,23.37-.8,34.96-.54.75-1.23.94-2.08.59Z"/>
        <path class="cls-5" d="M386.81,585.68c.05-.27.06-.54.05-.81,9.72-7.17,19.21-14.65,29.59-20.89,1.29,1.14,2.02,2.64,2.05,4.29.18,10.34,1.21,20.7-.62,30.99-1.01,2.34-3.09,3-5.04,1.99-9-4.63-18.83-7.91-26.02-15.58Z"/>
        <path class="cls-26" d="M416.18,600.98c.09-12.34.18-24.67.27-37.01,2.49-.1,4.97-.19,7.46-.29.35,16.04.71,32.07,1.06,48.11-.57,3.31-.51,6.62-.09,9.94,1.68,1.95,2.07,4.1.36,6.11-1.8,2.12-4.33,2.23-6.79,1.45-3.29-1.04-4.15-3.66-3.96-6.8-.33-3.12-.64-6.24-.06-9.37-.19-4.16-1.32-8.46,1.75-12.14Z"/>
        <path class="cls-36" d="M344.94,579.77c.39,0,.78.01,1.18.02,2.73,2.31,2.12,5.53,2.27,8.51.22,4.39-.31,8.84.8,14.5,3.24-4.91,1.59-9.17,2.1-13.09.55-4.28-1.4-9.05,2.49-12.68.35.05.68.17.98.35,0,5.34.37,10.7-.09,16-.39,4.53,1.59,6.22,5.6,6.97,3.57.67,7.06,1.75,11.79,2.96-8.49,4.91-16.92,6.4-24.73,9.43-1.44.56-2.89-.35-4-1.2-9.05-6.94-18.05-13.95-26.64-21.72,7.69,1.76,15.52,3.08,23.03,5.43,5.09,1.59,5.53-.31,5.28-4.4-.22-3.68-.05-7.39-.05-11.08Z"/>
        <path class="cls-15" d="M353.78,577.04c-.07,6.94.05,13.88-.32,20.8-.15,2.89,2.33,7.86-3.75,7.67-5.98-.18-3.25-5.11-3.45-7.98-.4-5.89-.14-11.83-.15-17.75.03-12.7.06-25.39.09-38.09,5.66-1.41,8.01.28,7.67,6.59-.51,9.56-.11,19.17-.1,28.75Z"/>
        <path class="cls-1" d="M364.58,204.96c.13,1.28-.11,2.69,1.17,3.6-.5,1.44-.98,2.89-2.33,3.81.23-2.49-.78-5.18,1.16-7.4Z"/>
        <path class="cls-15" d="M194.57,732.67c-3.51-7.52-7.12-15-10.48-22.59-.92-2.07-1.81-3.58-4.29-3.42.87-.41,1.73-.82,2.6-1.23,3.3-2.85,7.58-2.84,11.49-3.69,10.31-2.24,20.42-5.57,31.09-5.99.69.21,1.25.59,1.71,1.15,13.62,12.01,28.39,22.55,42.99,33.3-.01.42-.02.83-.03,1.25-1.72,1.8-3.93,2.12-6.24,1.95-22.93-1.7-45.88-.45-68.82-.72Z"/>
        <path class="cls-33" d="M194.57,732.67c.59-2.85,2.86-2.44,4.85-2.44,19.16-.02,38.33-.08,57.49.05,4.24.03,8.48.76,12.72,1.16q.66,11.83-11.08,11.83c-17.8,0-35.61.16-53.4-.11-4.7-.07-6.41,1.46-5.68,5.94.86,5.22-.92,7.01-6.55,6.92-22.5-.35-45.01-.12-67.52-.19-1.91,0-4.11.93-5.73-1.01,2.77-2.87,6.41-2.37,9.83-2.39,19.47-.08,38.94.05,58.41-.11,2.72-.02,7.24,1.39,7.17-3.22-.07-4.05-4.33-2.85-6.94-2.87-18.03-.15-36.07-.02-54.1-.12-3.4-.02-7.07.59-9.77-2.43,2.19-1.67,4.74-1,7.14-1.01,19.69-.05,39.37-.03,59.06-.03q8.82,0,4.94-8.33c-.26-.56-.56-1.1-.83-1.65Z"/>
        <path class="cls-33" d="M124.26,743.68c22.14.02,44.29.02,66.43.06,3.75,0,7.71-1.15,7.81,5.37.1,6.9-4.12,5.71-8.09,5.71-23.58.01-47.16,0-70.74,0-.07-3.7-.14-7.41-.21-11.11,1.6-.01,3.2-.03,4.8-.04Z"/>
        <path class="cls-30" d="M300.72,688.41c-.46,3.23-.92,6.47-1.38,9.7-1.31,6.12-2.62,12.24-3.93,18.36-6.75.08-13.5.17-20.25.23-2.18.02-4.08-.1-3.73-3.3.83-7.71,1.43-15.44,2.09-23.16.16-1.93.46-4.09,2.75-4.14,7.56-.18,15.13-.1,22.69.06.6.01,1.17,1.46,1.75,2.25Z"/>
        <path class="cls-30" d="M459.62,695.46c-.1-2.76-.2-5.52-.29-8.28,7.33-2.8,14.92-.79,22.38-1.17,2.14-.11,2.44,1.75,2.52,3.51.33,7.36.58,14.72,1.09,22.07.29,4.16-1.5,5.38-5.4,5.2-5.93-.28-11.88-.18-17.83-.24-.82-7.03-1.64-14.05-2.46-21.08Z"/>
        <path class="cls-15" d="M230.4,313.4c-.05-.41-.09-.82-.14-1.23.46-2.04,2.07-3.04,3.73-3.8,13.74-6.33,27.34-12.96,41.31-18.8.95-.4,1.96-.58,2.99-.59.6.03,1.18.17,1.74.38,5.04,7.72,11.46,8.5,18.97,3.72.59.01,1.12.2,1.59.56,5.76,9.57,11.58,19.1,17.21,28.74.67,1.15,3.71,3.04-.12,4.33-28.78-1.53-57.12-5.91-85.01-13.17-.76-.05-1.52-.1-2.28-.15Z"/>
        <path class="cls-19" d="M234.07,221.06c.51-3.94-.48-7.56-2.61-10.83-2.08-3.17-2.74-6.59-2.3-10.29,3.47,2.07,2.39,7.96,7.35,8.8,9.97-.24,19.42,2.99,29.15,4.39,7.3,1.05,14.54,2.64,21.81,3.94,2.81.5,5.73.95,7.6,3.55,1.16,2.15.8,4.39.28,6.59-4.27,18.16-8.28,36.38-12.66,54.51-.48,1.99-.96,4-2.37,5.6-4.5,1.29-5.05-2.47-5.91-5.08-2.44-7.37-4.62-14.84-6.73-22.32-.83-2.96-1.97-5.81-3.15-8.63-.47-1.94.85-2.97,2.12-3.97,2.79-2.19,4.43-4.87,2.89-8.38-1.46-3.34-4.57-3.54-7.73-3.29-1.01.08-2.01.07-3-.19-8.12-5.36-13.74-13.41-21.04-19.71-1.82,1.38.06,5.33-3.7,5.31Z"/>
        <path class="cls-4" d="M279.56,287.45c3.43-15.35,6.86-30.7,10.3-46.05,1.52-6.78,3.07-13.55,4.6-20.32,6.3-3.3,11.9-.37,17.57,1.98.97,1.15,1.54,2.57,1.31,3.98-2.03,12.44-1.77,25.36-7.76,36.96-1.66,9.88-3.33,19.76-4.99,29.64-.43.06-.86.12-1.29.18-7.03,1.34-13.53-.2-19.68-3.64l.12-.45c-.84-.7-.87-1.47-.17-2.28Z"/>
        <path class="cls-42" d="M203.4,392.32c-3.64-15.49-7.26-30.99-10.93-46.48-1.56-6.61-1.61-6.57,4.79-5.49,9.84,1.66,19.69,3.26,29.54,4.89,4.87.98,9.75,1.95,14.62,2.93,1.45,1.62.62,3.2-.42,4.42-11.67,13.63-22.69,27.85-35.92,40.09-.61.13-1.17,0-1.68-.35Z"/>
        <path class="cls-6" d="M311.52,223.74c-5.69-.89-11.37-1.77-17.06-2.66-12.74-3.45-25.92-4.66-38.75-7.59-6.42-1.47-13.41-.78-19.21-4.76,4.22-6.47,10.51-5.67,16.87-4.88,29.26,3.63,58.51,7.37,87.81,10.68,5.15.58,5.83,2.69,4.52,6.68-.94,2.85-.57,6.24-3.23,8.44-10.77.44-21.31-.39-30.95-5.9Z"/>
        <path class="cls-10" d="M283.34,376.34c-13.09-1.72-26.37-.38-39.44-2.47-3.7-6.88-4.07-14.19-2.64-21.66.51-2.65,1.94-4.57,5.15-3.1,12.7,2.3,25.39,4.62,38.1,6.88,2.01.36,4.06.45,6.09.67,2,.97,2.71,2.6,1.78,4.56-2.53,5.32-4.29,11.12-9.04,15.12Z"/>
        <path class="cls-14" d="M283.34,376.34c2.35-4.95,4.68-9.91,7.08-14.83.8-1.63,2.18-3.15.18-4.85.88,0,1.76,0,2.64,0,4.75,5.06,11.6,6.63,17.21,10.3,5.8,3.79,12.29,6.5,18.3,10,3.64,2.11,7.48,1.76,11.33,1.94-2.08,2.19-5.32.13-7.47,2.04-5.28,6.34-13.07,8.77-19.88,12.7-2.52,1.45-5.13.51-7.52-.9-3.16-1.86-6.04-4.13-9.15-6.07-3.61-3.3-9.47-3.86-11.33-9.29-.47-.34-.93-.69-1.4-1.03Z"/>
        <path class="cls-19" d="M311.52,223.74c10.29,2.09,20.82,2.96,30.95,5.9-3.24,4.24-7.03,7.92-11.26,11.15-1.64,1.25-3.38,2.36-3.51,4.71-5.63,1.47-10.03,4.45-12.34,10.02-3.26,2.83-6.52,5.66-9.78,8.48,1.81-11.41,3.64-22.81,5.4-34.22.31-1.99.36-4.02.54-6.04Z"/>
        <path class="cls-11" d="M246.42,349.11c-3.47-.1-3.83,2.1-3.66,4.82.41,6.65.77,13.3,1.15,19.94-.03.44-.07.87-.1,1.31-3.36,3.56-8.15,4.49-12.29,6.62-6.52,3.36-13.21,6.38-19.78,9.65-2.24,1.12-4.62,2.99-7.33.84,11.69-13.48,23.38-26.97,35.09-40.44.95-1.09,1.92-2.12,1.92-3.68,1.78-.27,3.54-.45,5,.95Z"/>
        <path class="cls-40" d="M232.67,313.55c15.11,2.19,30.23,4.28,45.32,6.61,13.25,2.05,26.46,4.37,39.69,6.56-10.94,1.21-21.88,2.44-32.83,3.61-1.18.13-2.51.15-3.6-.25-16.06-5.9-32.76-9.94-48.59-16.53Z"/>
        <path class="cls-34" d="M315.37,255.52c.7-8.85,4-11.53,12.34-10.02,3.54,2.3,5.58,5.47,4.52,9.74-.83,3.35-3.18,5.69-6.69,6.34-5.09.95-7.85-2.24-10.17-6.06Z"/>
        <path class="cls-12" d="M204.41,392.29c11.03-5.07,22.06-10.13,33.08-15.22,2.02-.93,3.92-2.21,6.31-1.89.44,30.78.88,61.56,1.32,92.35-3.3.32-3.86-2.57-4.97-4.52-11.26-19.79-21.77-39.99-32.97-59.82-.93-1.65-1.12-4.53-3.64-4.32-1.86.16-2.47,2.56-3.36,4.13-13.23,23.39-26.63,46.69-40.14,69.92-1.99,3.42-3.01,7.77-7.42,9.33-.37-.92-1.1-1.86-1.04-2.76.6-10.05-1.02-19.99-1.41-29.99-1.06-27.74-2.53-55.47-3.85-83.21.08-11.48-1.72-22.9-1.05-34.39,12.89,11.08,23.57,24.32,35.24,36.58,7.59,7.97,15.71,15.45,22.86,23.84.34.01.67,0,1.01-.03Z"/>
        <path class="cls-14" d="M279.56,287.45c.06.76.12,1.52.17,2.28-16.49,7.48-32.98,14.95-49.48,22.43-2.23-3.17-1.18-6.76-.93-10.08,2-26.98,4.15-53.96,4.74-81.02,2.28-2.58.38-5.98,2.05-9.72,7.89,7.98,15.86,15.28,22.82,23.59-1.62,6.48.31,11.64,5.74,15.51,3.02.64,3.28,3.15,3.96,5.55,2.45,8.65,4.98,17.29,7.65,25.87.63,2.03.65,4.62,3.25,5.58Z"/>
        <path class="cls-20" d="M161.34,246.01c-5.59-8.93-11.2-17.85-16.76-26.8-.6-.97-1.39-2.09.32-2.99,6.33-3.33,14.71,1.28,15.29,8.19.6,7.06,1.65,14.09,2.5,21.13-.45.16-.9.32-1.35.47Z"/>
        <path class="cls-23" d="M151.4,277.65c-.44-6.68,3.97-12.72,2.56-19.52,2.2.34,4.41.62,6.6,1.04,2.47.47,6.15-1.21,7.1,1.77.7,2.2-2.61,3.82-4.31,5.46-3.94,3.79-7.13,8.38-11.94,11.25Z"/>
        <path class="cls-24" d="M152.63,482.25c16.89-29.44,33.78-58.88,51.22-89.27,6.55,11.97,12.44,22.95,18.53,33.81,7.61,13.56,14.35,27.61,22.74,40.73,3.5,16.89,7.01,33.79,10.49,50.69.33,1.58.42,3.21.62,4.82-5.07,0-10.15.33-15.19-.06-5.05-.39-7.82.92-7.14,6.53.08.68-.57,1.46-.88,2.19-2.91-6.23-8.21-6.58-14.22-6.4-11.24.34-22.5.08-33.75.11-2.67,0-5.32-.06-7.83-1.12-11.48-.03-22.97-.06-34.46-.09,1.92-14.31,6.4-28.01,9.85-41.96Z"/>
        <path class="cls-24" d="M284.74,377.37c4.04,2.61,8.08,5.22,12.12,7.83,1.89,2.38,2.32,5.22,1.99,8.06-.79,6.76,1.47,12.25,6.22,16.96,2.3,2.28,4.16,4.94,5.32,8.02,0,0,.09,0,.09,0-3.33,14.12-5.08,28.52-7.44,42.82-3.27,19.72-6.52,39.43-10.43,59.16-.53-5.34-1.4-10.6-1.74-15.85-1.51-22.86-2.52-45.76-3.91-68.63-1.05-17.14-2.45-34.26-3.57-51.39-.15-2.34-.83-4.99,1.36-6.96Z"/>
        <path class="cls-2" d="M263.69,622.96c28.99-1.7,58-3.23,86.97-5.18,13.26-.89,26.48-2.49,39.8-2.31.92-.66,1.87-.8,2.87-.16,2.09,2.76,2.16,5.72.91,8.82-.22,7.1.78,14.06,2.47,20.94-2.69,2.98-6.55,3.15-10.04,4.2-10.63,1.41-21.16,3.52-31.88,4.29-1.76.27-3.67-.08-5.2,1.22-1.5,2.37-4.07,2.64-6.44,3.12-32.41,6.48-64.91,12.51-97.23,19.43-2.82.6-5.68,1-8.46-.27-3.18-2.64-.85-5.28.26-7.66,3.72-7.95,7.75-15.75,12.07-23.39,2.86-6.52,6.31-12.75,9.7-19,.96-1.76,1.86-3.69,4.21-4.06Z"/>
        <path class="cls-7" d="M236.74,675.89c12.85-.07,24.96-4.42,37.43-6.67,23.58-4.25,47.02-9.27,70.52-13.94,1.6-.32,3.26-.33,4.89-.49,3.68,0,7.36,0,11.04,0,.07.37.14.74.21,1.11-5.74,1.75-11.48,3.5-17.22,5.24-38.42,11.65-76.85,23.3-115.27,34.97-.58.18-1.11.52-1.67.79-.42,0-.83-.01-1.25-.02-1.08-6.8,4.26-11.04,6.66-16.44.87-1.96,1.25-4.95,4.65-4.55Z"/>
        <path class="cls-32" d="M513.75,658.6c-22.18.88-44.29-1.91-66.46-1.24-3.97-2.23-8.32-.48-12.43-1.17-9.04-1.42-18.13-2.68-26.8-5.76-2.13-.75-5.06-.77-5.23-4.12,14.27.51,28.38,2.7,42.55,4.2,17.41,1.84,34.81,3.79,52.22,5.69,5.42.59,10.92.67,16.17,2.41Z"/>
        <path class="cls-35" d="M402.82,646.31c9.24,3.98,19.21,5.48,28.73,8.5,1.16.37,2.46.3,3.31,1.38-19.75.68-39.43-1.38-59.16-1.37-1.43-1.15-3.64.38-5.36-2,4.86-4,11.28-2.95,16.48-5.26,3.16-1.36,6.32-2.71,9.88-2.48,2.08.23,4.36-.57,6.12,1.22Z"/>
        <path class="cls-21" d="M386.82,647.57c-4.43,3.09-9.95,3.18-14.98,5.33,1.44.72,2.65,1.32,3.86,1.92-6.97-.42-13.95-.83-20.92-1.25,10.51-2.91,21.17-5.05,32.04-6.01Z"/>
        <path class="cls-27" d="M231.3,558.6c18.02.89,36.04,1.75,54.05,2.71,2.2.12,4.36.8,6.55,1.22.6,3.26-1.99,4.23-4.06,5.32-27.46,14.36-54.67,29.2-82.12,43.59-2.29,1.2-4.59,2.94-7.5,1.75-34.06-20.19-68.12-40.38-102.18-60.58,2.41-3.44,5.6-1.62,8.57-1.27,24.25,1.25,48.5,2.5,72.75,3.75,1.83-1.65,4.01-1.5,6.3-1.5,12.79,0,25.5,1.89,38.31,1.65,3.47-.06,6.98.12,9.34,3.34Z"/>
        <path class="cls-24" d="M198.22,613.2c29.81-15.78,59.63-31.55,89.44-47.33,1.61-.85,3.45-1.42,4.24-3.33.71-.45,1.42-.9,2.13-1.35-2.61,9.95-8.65,18.29-13.01,27.42-5.53,11.57-11.53,22.92-17.33,34.36-4.14,7.79-8.28,15.58-12.43,23.37-1.36,1.3-3.02,2.01-4.81,2.53-15.62,4.59-31.27,9.08-46.94,13.47-2.8.78-5.83,2.34-8.69-.09.66-16.62,5.21-32.65,7.4-49.04Z"/>
        <path class="cls-27" d="M190.82,662.24c17.76-4.11,35.09-9.72,52.6-14.74,2.59-.74,5.13-1.39,7.84-1.17-4.84,9.85-9.68,19.71-14.52,29.56-3.77,7-7.54,13.99-11.31,20.99-14.38,2.69-28.38,7.27-43.03,8.56,2.46-14.32,4.93-28.64,7.39-42.96.34-.08.69-.16,1.03-.24Z"/>
        <path class="cls-8" d="M104.61,551.36c-2.85.48-5.97-.91-8.57,1.27-.43-.8-.87-1.6-1.3-2.39,3.3.32,6.79-1.14,9.87,1.13Z"/>
        <path class="cls-39" d="M496.55,614.43c2.29-2.62.51-5.88,1.36-8.73,7.79.55,15.47-.91,23.21-1.27-6.72,6.04-14.31,10.9-21.6,16.18-1.4,1.02-2.56,1.95-4.39,1.18-10.54-4.44-21.82-6.95-31.97-12.4,8.63-.83,17.25-1.67,25.88-2.5,2.27,2.74,2.81,7.22,7.51,7.54Z"/>
        <path class="cls-39" d="M416.25,621.64c.71,2.45-1.34,6.15,3.93,6.34,5.32.19,4.37-3.27,4.7-6.26,5.3,0,10.59,0,15.89,0,.13.33.26.66.39.99-7.53,3.85-15.08,7.67-22.59,11.56-2.19,1.13-3.95.13-5.77-.84-5.78-3.09-11.56-6.2-17.34-9.29-.1-.87.15-1.83.94-2.03,6.57-1.66,13.17-3.56,19.86-.47Z"/>
        <path class="cls-28" d="M416.25,621.64c-6.84,1.59-14.04.18-20.8,2.5-.41,0-.81,0-1.22,0-1.67-2.7-1.13-5.73-1.32-8.66.09-.59-.07-1.42.58-1.63,7.51-2.37,15.03-5.23,22.77-.75,0,2.85,0,5.69-.01,8.54Z"/>
        <path class="cls-18" d="M416.26,613.11c-7.9-.31-15.68.48-23.35,2.38-.82,0-1.63,0-2.45-.01,2.98-4.68,0-9.12-.68-13.6-.82-5.42-2.79-10.65-2.97-16.2,9.79,5.1,19.58,10.2,29.37,15.3.03,4.04.05,8.09.08,12.13Z"/>
        <path class="cls-12" d="M231.3,558.6c-12.06-.75-24.11-1.48-36.17-2.25-5.93-.38-11.85-.83-17.78-1.24-.04-10.27-.08-20.54-.12-30.81,1.95-1.64,4.3-1.08,6.49-1.09,13.32-.07,26.64-.07,39.95-.09q8.99,0,9.34,8.58c-.58,8.97-1.15,17.93-1.73,26.9Z"/>
        <path class="cls-26" d="M496.55,614.43q-6.95,1.32-7.51-7.54c0-6.14-.01-12.27-.02-18.41.72-11.01-1.13-22.11,1.14-33.08.45-2.17.61-4.11,3.51-3.9,3.05.22,2.77,2.49,2.78,4.51.05,19.47.07,38.94.11,58.41Z"/>
        <path class="cls-42" d="M310.39,418.24c-5.31-3.3-8.16-8.91-12.32-13.29-2.42-2.54-.98-6.24-1.14-9.41-.18-3.44-.06-6.89-.07-10.34,8.94,8.88,17.91,7.64,27.16.38,2.53-1.98,5.71-3.12,8.59-4.65-3.86,8.87-9.84,16.45-14.9,24.59-2.58,4.16-5.66,8.03-7.32,12.72Z"/>
        <path class="cls-38" d="M279.62,290.19c6.69.52,13.22,1.88,19.68,3.64q-11.51,7.87-19.68-3.64Z"/>
        <path class="cls-9" d="M264.69,250.45c-9.35-2.83-11.2-7.83-5.74-15.51,6.39-2.39,11.28-1.05,13.06,3.56,1.98,5.14-.35,8.95-7.32,11.95Z"/>
        <path class="cls-12" d="M214.94,450.81c-.13,1.66-10.74,9.41-12.51,9.14-1.01-.15-9.45-11.4-9.41-12.55.03-1.02,12.86-8.8,14.3-8.67,1.47.13,7.78,10.13,7.62,12.09Z"/>
        <path class="cls-12" d="M215.45,492.8c-.04,1.4-9.17,8.7-10.65,8.51-1.16-.15-9.78-11.14-9.71-12.39.06-1.08,10.29-8.2,11.84-8.23,1.09-.02,8.56,10.59,8.52,12.11Z"/>
        <path class="cls-37" d="M206.25,534.03c1.84,0,3.68.04,5.53,0,8.05-.18,7.78-.19,7.72,8.04-.03,4.41-1.65,5.65-5.81,5.47-6.33-.28-12.69-.11-19.04-.06-2.88.02-5.63-.09-5.09-4.09.47-3.45-1.84-8.5,4.41-8.94,4.07-.29,8.18-.05,12.27-.05,0-.12,0-.23,0-.35Z"/>
      </g>
    </g>
  </g>
</svg>