<?xml version="1.0" encoding="UTF-8"?>
<svg xmlns="http://www.w3.org/2000/svg" version="1.1" viewBox="0 0 612 800">
  <defs>
    <style>
      .cls-1 {
        fill: #866956;
      }

      .cls-2 {
        fill: #967ea9;
      }

      .cls-3 {
        fill: #eaeaea;
      }

      .cls-4 {
        fill: #e2c9b7;
      }

      .cls-5 {
        fill: #dfd8e3;
      }

      .cls-6 {
        fill: #735f84;
      }

      .cls-7 {
        fill: #bb967e;
      }

      .cls-8 {
        fill: #8e8e8e;
      }

      .cls-9 {
        fill: #8c789b;
      }

      .cls-10 {
        fill: #725360;
      }

      .cls-11 {
        fill: #544362;
      }

      .cls-12 {
        fill: #ab889b;
      }

      .cls-13 {
        fill: #dcdcdb;
      }

      .cls-14 {
        fill: #e3dde7;
      }

      .cls-15 {
        fill: #d9bca6;
      }

      .cls-16 {
        fill: #735f83;
      }

      .cls-17 {
        fill: #9c9fa0;
      }

      .cls-18 {
        fill: #8a779b;
      }

      .cls-19 {
        fill: #c3c3c3;
      }

      .cls-20 {
        fill: #bc977e;
      }

      .cls-21 {
        fill: #886a57;
      }

      .cls-22 {
        fill: #2f2f2e;
      }

      .cls-23 {
        fill: #725361;
      }

      .cls-24 {
        fill: #866855;
      }

      .cls-25 {
        fill: #6e4f5e;
      }

      .cls-26 {
        fill: #bd987e;
      }

      .cls-27 {
        fill: #2f2e2e;
      }

      .cls-28 {
        fill: #4e3141;
      }

      .cls-29 {
        fill: #d1cbd4;
      }

      .cls-30 {
        fill: #bb977e;
      }

      .cls-31 {
        fill: #8b779b;
      }

      .cls-32 {
        fill: #bb977d;
      }

      .cls-33 {
        fill: #d5ccc7;
      }

      .cls-34 {
        fill: #8d657a;
      }

      .cls-35 {
        fill: #9780ab;
      }

      .cls-36 {
        fill: #554463;
      }

      .cls-37 {
        fill: #9d85b2;
      }

      .cls-38 {
        fill: #554462;
      }

      .cls-39 {
        fill: #977fab;
      }

      .cls-40 {
        fill: #856755;
      }

      .cls-41 {
        fill: #fdfdfd;
      }

      .cls-42 {
        fill: #856754;
      }
    </style>
  </defs>
  <!-- Generator: Adobe Illustrator 28.7.1, SVG Export Plug-In . SVG Version: 1.2.0 Build 142)  -->
  <g>
    <g id="Layer_1">
      <g>
        <path class="cls-19" d="M367.59,285.03c8.19-3.25,14.67-9.18,21.83-14.02,15.7-10.6,31.24-21.43,46.85-32.17,3.15-1.77,6.43-.97,9.61-.31,14.79,3.08,29.73,5.19,44.62,7.66,3.4.56,7.1.72,9.09,4.34-17.12,22.3-34.16,44.66-51.39,66.88-9.07,11.69-17.45,23.93-27.54,34.81-8.14-5.38-12.99-13.88-19.6-20.72-1.35-1.4-2.35-3.14-3.85-4.43-.7-.62-1.35-1.29-1.96-2-9.25-10.74-18.76-21.27-28.11-32.3,2.74,9.32,1.89,18.82,3.99,27.91,2.31,19.34,5.39,38.59,6.67,58.04-.4,2.9.52,5.64,1.06,8.44-.42,1.16-1.31,1.79-2.42,2.19-15.3-.22-30.27-3.4-45.41-5.04-7.79-.84-15.59-1.79-23.32-3.19-3.47-.63-6.94-1.37-8.38-5.28-.62-2.41-.14-4.78.6-7.04,3.65-11.13,6.45-22.54,10.82-33.43.63-1.55,1.29-3.1,1.41-4.81,1.65-7.21,4.18-14.14,6.48-21.15,2.83-11.22,7.26-21.95,10.2-33.14.6-2.3,1.38-4.63,3.57-6.06,7.18.07,12.45,4.8,18.44,7.72,5.46,2.67,10.36,6.62,16.74,7.1Z"/>
        <path class="cls-13" d="M282.35,715.2c-12.88-4.67-26.48-6.3-39.73-9.44-12.26-2.9-24.68-5.1-36.9-8.14-5.89-1.47.77-4.19-.03-6.34,6.39-14.29,15.89-26.71,24.19-39.82,28.61-45.17,57.98-89.86,86.48-135.1,1.28-2.04,2.5-4.16,4.27-5.81,1.44-1.33,3.06-2.87,4.91-.39.94,2.13.74,4.46,1.28,6.66-.26,19.95-1.43,39.86-2.12,59.78-.56,16.21-1.52,32.42-1.58,48.64-.04,10.56-1.12,21.01-1.86,31.5.72,10.52.92,21.08-.12,31.57-.54,5.46,1.37,6.98,6.42,6.96,16.03-.08,32.05-.16,48.08.06,3.49.05,7.69-.89,9.65,3.62-2.6,3.19-6.31,2.62-9.71,2.65-15.31.13-30.62.18-45.92-.02-5.11-.06-8.47,1.36-9.55,6.61-2.54,4.04-.73,9.05-2.89,13.17-1.92,2.05-4.23,1.04-6.44.83-9.58-1.9-19.54-2.25-28.43-6.98Z"/>
        <path class="cls-25" d="M109.42,254.71c-19.34-4.82-38.68-9.64-58.02-14.46-.42-4.43,3.35-5.26,6.07-6.71,13.34-7.17,26.61-14.52,40.37-20.84,6.19-2.84,9.36-7.12,10.85-13.68,6.26-27.4,12.93-54.7,19.27-82.07,1.88-8.12,4.18-16.13,6.18-24.21.6-1.67,2.26-2.62,2.92-4.25,1.78-7.02,3.57-14.04,5.35-21.06,2.66-1.42,5.09-.35,7.43.81,14.46,7.16,28.83,14.5,43.39,21.47,2.52,1.21,5.12,2.53,6.59,5.17,1.17,3.75-.9,6.84-2.21,10-4.45,10.72-8.91,21.45-13.93,31.91-2.74,5.7-3.48,10.68,1.14,15.65,1.17,1.26,1.98,2.92,1.59,4.83-1.28,2.67-3.94,3.33-6.37,4.27-7.16,2.77-14.21,5.83-21.42,8.47-4.87,1.78-6.53,4.51-4.6,9.54,1.81,4.7,3.13,9.59,3.92,14.6-1.33,6.62-3.61,12.86-7.24,18.58-11.07-1.14-22.21-.57-33.34-.81,20.46,10.77,40.93,21.69,61.51,32.4,1.39.72,2.82,1.18,4.37,1.29,3.39.72,5.44,3.36,7.85,5.48,7.57,7.46,15.02,15.03,21.66,23.35,1.44,1.81,4.48,3.53,1.12,6.29-2.66,1-5.2.1-7.74-.48-29.66-6.85-59.16-14.39-88.82-21.26-3.04-.7-5.93-1.62-7.9-4.27Z"/>
        <path class="cls-20" d="M320.29,309.93c-2.17,7.1-4.33,14.2-6.5,21.3-2.83,2.33-5.88,1.12-8.81.42-15.16-3.61-30.38-7.03-45.47-10.92-2.87-.74-5.26-2.07-7.41-4-9.57-9.75-19.13-19.52-28.74-29.24-2.28-2.31-4.74-4.43-7.12-6.64-7.07-10.65-9.13-23.32-14.05-34.84-1.01-2.36-1.95-4.87-1.29-7.57,2.08-2.84,3.88-.68,5.39.55,2.39,1.94,4.43,3.54,7.18.53,2.94-3.21-.04-4.92-1.45-7.19-3.3-5.34-9.53-8.37-11.51-14.73.57-6.4,5.69-10.21,8.76-15.16,4.39-7.09,4.6-7.23-.64-13.75-3.17-3.94-6.1-8.06-9.26-12-3.08-3.83-3.47-7.1,1.78-9.33,11.4-3.09,23.01-5.22,34.57-7.57,5.42-1.1,8.83.94,10.84,5.93,2.45,6.08,4.88,12.17,7.49,18.18,3.14,11.93,8.59,23,13,34.45,5.99,15.56,12.37,30.97,18.54,46.47,1.05,2.64,2.36,5.21,2.56,8.12-.52,3.2-3.35,3.81-5.68,4.84-4.21,1.86-8.51,3.52-13.54,6.3,9.56,5,18.95,8.84,28.13,13.06,6.37,2.93,12.57,6.26,19.09,8.87,1.87.75,3.53,1.81,4.14,3.93Z"/>
        <path class="cls-29" d="M495.28,765.28c22.37,2.21,44.75,4.42,67.12,6.63.04.26.07.52.11.78-7.46.97-14.9,2.1-22.37,2.87-21.72,2.23-43.43,4.54-65.07,7.51-13.19,1.81-26.48,2.92-39.73,4.4-18.44,2.06-36.93,3.8-55.3,6.38-13.82,1.94-27.56,1.12-41.18-.35-8.05-.87-16.12-.77-24.18-1.72-16.05-1.89-32.3-1.95-48.45-3.04-23.11-1.57-46.2-3.47-69.31-5.07-17.17-1.19-34.35-2.14-51.58-3.9,15.11-1.83,30.22-3.65,45.32-5.49,20.8-2.53,41.6-5.12,62.41-7.6,5.86-.7,11.75-1.18,17.63-1.61,3.32-.24,6.57-.48,9.09-3.03,4.52,2.05,2.95,6.35,3.47,9.78.66,4.38,1.3,8.44,7.07,8.34,13.76-.64,27.53-.09,41.29-.29,7.5-.11,7.59-.59,4.3-7.29-2.47-5.03-7.68-9.38-4.92-16.08,4.54-2.65,9.76-1.99,14.63-3,19.37-4.02,38.69-1.72,58.01.55,3.07.36,6.08.56,9.1-.08,3.61-.47,4.16,2.42,5.2,4.79.95,2.17,1.48,4.82,4.56,4.92,2.88.1,3.24-2.51,4.26-4.34.76-1.37,1.52-2.7,3.36-2.74,3.38.77,6.9.88,10.16,2.25,3.88,4.66,9.08,5.05,14.7,5.18,13.44.3,26.95-1.42,40.31,1.25Z"/>
        <path class="cls-17" d="M300.55,374.6c2.04,6.07,7.83,4.22,11.78,4.82,21.54,3.24,43.19,5.77,64.8,8.55-1.57,5.79-7.36,5.75-11.33,8.23-12.58,5.6-24.93,11.68-37.05,18.22-27.13,12.24-53.42,26.18-79.98,39.56-1.58.8-3.11,1.62-4.97,1.35-7.1-12.62-12.06-26.23-18.11-39.33-7.71-16.7-15.07-33.57-22.58-50.36,2.58-2.15,5.53-2.03,8.63-1.57,10.69,1.6,21.52,2.18,32.11,4.44,17.58,1.38,34.98,4.38,52.5,6.24,1.38-.45,2.77-.87,4.19-.15Z"/>
        <path class="cls-19" d="M497.18,633.14c4.69,4.11,3.14,7.25-.94,11-19.15,17.63-37.62,35.99-57.3,53.04-.32.28-.76.43-1.14.65-3.83-.41-3.82-3.76-4.49-6.28-2.91-10.98-5.69-21.99-7.89-33.14-3.59-17.8-8.37-35.33-12.5-53.01-6.29-26.87-12.46-53.77-19.08-80.56-.63-2.54-1.44-5.08-.69-7.75,3.66-3.89,5.27.22,7,2.08,10.89,11.76,21.17,24.06,31.7,36.14,20.05,23,40.3,45.82,60,69.12,2.18,2.57,5.09,4.87,5.32,8.71Z"/>
        <path class="cls-28" d="M109.42,254.71c35.14,8.41,70.29,16.82,105.43,25.22.47.2.68.47.63.81-.06.37-.15.56-.28.56-13.25,14.55-26.46,29.14-39.77,43.63-16.88,18.38-33.8,36.72-50.8,54.99-2.18,2.34-3.83,5.36-7.14,6.49-4.14-5.76-3.11-12.68-3.48-19-.65-11.29-2.12-22.56-1.89-33.91.05-2.61-.24-5.25,1.3-7.6-.36-23.78-2.72-47.45-3.99-71.19Z"/>
        <path class="cls-19" d="M324.31,509.26c-6.04,5.89-9.48,13.6-13.99,20.52-19.59,30.12-38.9,60.42-58.29,90.67-13.71,21.4-27.36,42.83-41.11,64.2-1.51,2.35-2.58,5.13-5.23,6.63.07-7.09,3.28-13.4,5.27-19.97,16.66-55.06,33.57-110.05,50.48-165.04.79-2.58.9-5.15,1.14-7.76,7.23-1.34,14.23.7,21.3,1.49,11.69,1.3,23.4,2.41,35.03,4.16,2.58.39,6.65.18,5.39,5.08Z"/>
        <path class="cls-12" d="M199.3,95.12c-18.96-9.23-37.5-19.33-56.88-27.7,11.82-7.1,24.79-11.72,37.27-17.42,17.09-7.8,34.24-15.47,51.36-23.19,13.98-6.22,27.97-12.44,41.95-18.66,3.77-.08,6.43-4.35,10.63-2.8.17,1.95.56,3.87.2,5.87-3.41,19.17-6.1,38.46-9.85,57.58-.74,2.07-2.52,2.89-4.39,3.57-20.87,7.65-41.75,15.27-62.71,22.67-1.85.65-3.75,1.17-5.75,1.06-.7-.15-1.3-.48-1.82-.97Z"/>
        <path class="cls-8" d="M324.31,509.26c-3.96-4.85-9.74-3.15-14.73-3.85-14.01-1.98-28.08-3.45-42.12-5.22-1.67-.21-3.25-1.09-4.87-1.66-6.26-14.4-12.52-28.8-18.78-43.2,6.45-5.89,14.64-8.72,22.27-12.44,19.27-9.42,38.02-19.91,57.77-28.35,1.4-.6,2.85-1.09,4.28-1.63,3.24,2.57,2.92,6.3,2.72,9.7-1.61,27.56-2.31,55.14-2.83,82.73-.25,1.19-.34,2.41-.34,3.62-.45,2.54.79,5.84-3.07,6.84-.1-2.18-.2-4.36-.31-6.53Z"/>
        <path class="cls-8" d="M365.21,394.52c3.93-2.27,8.41-3.54,11.93-6.56.47-.44.94-.87,1.41-1.31.49-1.58,1.74-2.48,3.1-3.18,10.62-5.47,21.3-10.84,32.08-16,2.12-1.02,4.44-1.99,6.79-.37-2.16,33.15-4.32,66.29-6.52,99.44-.13,1.94-.68,3.85-1.03,5.78-.02,7.22-13.99,37.66-18.99,41.38-.76,0-1.39-.27-1.93-.8-1.96-2.27-2.31-5.14-2.95-7.9-7.74-33.49-15.67-66.93-23.63-100.37-.79-3.3-2.57-6.69-.26-10.11Z"/>
        <path class="cls-12" d="M137.06,88.47c-.44,1.32-.87,2.64-1.31,3.96-11.14,24.89-26.57,47.37-39.88,71.04-13.01,23.12-26.55,45.95-40.11,68.76-1.35,2.27-2.2,5.29-5.72,5.3,2.24-16.23,4.38-32.48,6.73-48.7,3.6-24.88,7.5-49.72,10.89-74.63.81-5.98,3.61-8.43,9.22-9.76,18.09-4.3,36.07-9.04,54.08-13.68,2.1-.54,4.08-1.52,6.11-2.29Z"/>
        <path class="cls-17" d="M499.58,250.53c-19.22-3.44-38.44-6.87-57.66-10.33-1.91-.34-3.78-.9-5.67-1.36,6.43-13.63,12.86-27.27,19.29-40.9,3.73-7.9,7.47-15.8,11.2-23.71.69-2.43,2.74-3.35,4.81-4.04,9.34-3.15,19-5.1,28.53-7.5,1.29-.32,2.61-.18,3.7.78,3.2.52,2.69,3.02,2.53,5.1-1.5,20.41-2.89,40.82-4.72,61.2-.62,6.92.21,14.01-2.02,20.77Z"/>
        <path class="cls-3" d="M394.19,513.21c6.26-13.63,12.51-27.26,18.77-40.89,3.74,1.34,4.78,4.92,6.35,7.95,18.23,35.04,36.37,70.12,54.61,105.15,7.29,14,14.84,27.88,22.14,41.88.89,1.71,3.21,3.45,1.11,5.85-20.17-23.02-40.39-45.99-60.5-69.06-13.21-15.16-26.25-30.46-39.39-45.68-.85-.98-1.91-1.79-2.87-2.67-.82-.77-.95-1.6-.22-2.51Z"/>
        <path class="cls-3" d="M503.79,163.47c-12.1,4.46-25.12,5.72-37.04,10.77-6.46.11-12.32,2.92-18.46,4.41-4.19,1.02-6.86,1.03-10.5-1.98-12.94-10.69-13.01-10.41-8.54-26.38,5.31-18.96,10.3-38.02,15.55-57,.97-3.5.9-6.8.19-10.34-2.88-14.35-5.51-28.74-8.26-43.12-.74-3.89.25-6.43,4.67-6.88,4.67-.48,6.2-1.69,11.65-3.23,4-1.13,4.35,3.03,5.28,5.37,3.39,8.53,6.46,17.2,9.6,25.83.9,2.47,1.46,5.1,4.06,6.49-.18,5.06-4.8,6.28-7.85,8.62-10.87,8.38-8.91,6.63-3.28,16.2,3.43,5.83,7.46,11.28,11.04,17.01,1.45,2.32,3.61,4.65,1.47,7.72-6.78,3.86-14.53,4.8-21.82,7.12-4.88,1.55-7.77,4.19-9.04,9.28-1.92,7.66-4.05,15.28-6.04,22.93-2.2,8.43,4.03,15.22,12.74,13.45,10.98-2.23,21.59-5.93,32.43-8.74,9.77-2.53,19.37-5.73,29.21-8.01,4.19-.97,7.72-2.65,9.6-7.09,1.86-4.38,1.63-7.88-1.96-11.27-6.07-5.72-11.64-11.95-17.91-17.48-1.91-1.69-4.42-3.15-3.63-6.43,6.25-2.09,10.78.46,14.44,5.34,6.31,6.07,12.58,12.18,18.95,18.19,1.87,1.76,2.15,3.5,1.23,5.85-1.92,4.89-3.69,9.84-5.37,14.81-.72,2.14-2.04,3.05-4.18,3.58-6.11,1.52-12.16,3.29-18.24,4.96Z"/>
        <path class="cls-34" d="M50.03,237.53c10.13-17.12,20.35-34.18,30.37-51.37,17.86-30.63,35.6-61.33,53.43-91.98.42-.71,1.27-1.17,1.92-1.75-4.65,19.98-9.27,39.97-13.96,59.95-4.04,17.22-8.3,34.4-12.15,51.66-.97,4.34-3.21,6.75-7.03,8.67-15.45,7.74-30.77,15.72-46.13,23.63-1.92.99-4.12,1.65-5.08,3.91-2.38.06-2.15-1.19-1.36-2.72Z"/>
        <path class="cls-6" d="M495.28,765.28c-2.5,2.09-5.46,1-8.19,1.03-11.58.14-23.18-.29-34.74.2-6.07.26-10.61-.89-13.12-6.77-4.48-2.73-5.85-7.91-9.16-11.56-4.86-9.84-11.23-18.8-16.63-28.35-.02-.71.18-1.36.57-1.95,8.22-4.39,16.77-7.2,26.26-5.56,18.34,17.65,36.67,35.3,55.01,52.96Z"/>
        <path class="cls-16" d="M330.71,757.27c3.51,6.81,6.93,13.67,10.57,20.4,1.72,3.19,1.66,4.62-2.56,4.57-16.23-.2-32.45-.2-48.68-.27-2.68-2.57-2.42-5.96-2.5-9.21-.19-8.52.39-17.06-1.05-25.55-.69-4.02.68-7.78,2.25-11.43-.05-.4.03-.76.24-1.11.98-2.22,2.86-3.31,5.12-3.33,7.09-.05,14.1-1.52,21.19-1.13.71.11,1.41.34,2.06.65,5.85,8.08,11.27,16.4,13.37,26.4Z"/>
        <path class="cls-20" d="M440.28,712.32c-8.51,2.53-17.49,3.23-25.79,6.59-4.75-2.44-6.06-7.64-9.06-11.47-1.99-2.54-3.84-5.22-5.73-7.85-4.08-6.65-8.5-13.08-12.67-19.68-1.46-2.31-3.55-4.57-2.01-7.72,10.19-5.49,21.33-8.61,32-12.91,1.8-.72,3.67-1.33,5.48-2.07.99-.31,1.99-.36,3-.13.63.25,1.21.59,1.74,1.02,3.03,12.07,6.07,24.14,9.07,36.22.32,1.27.31,2.63,1.5,3.51-.54,5.06,1.79,9.64,2.48,14.49Z"/>
        <path class="cls-34" d="M113.41,325.89c2.61,8.92,1.05,18.18,2.28,27.27,1.48,10.96,1.27,22.14,1.79,33.23-21.07-13.02-40.59-28.27-62.71-42.8,20.48-6.18,39.56-11.94,58.64-17.7Z"/>
        <path class="cls-3" d="M298.2,375.86c-1.41,2.15-3.53,1.37-5.38,1.14-16.3-2.1-32.59-4.29-48.89-6.45-2.56-.49-3.87-2.05-3.48-4.62,2.28-14.95,4.39-29.93,8.57-44.5.24-.84.9-1.5,1.55-2.1.85,0,1.7,0,2.55,0,3.65-.78,4.77,2.33,6.4,4.37,9.35,11.71,18.35,23.69,27.74,35.36,3.37,5.78,9.92,9.49,10.94,16.8Z"/>
        <path class="cls-13" d="M420.51,367.11c-14.55,5.3-27.64,13.76-41.96,19.54-4-.98-2.37-4.22-2.68-6.68.68-1.41,1.72,2.47,2.28-.14,3.65-16.93,11.06-32.63,16.11-49.1.63-2.05,1.45-4.19,3.96-4.82,7.84,8.46,15.88,16.75,22.43,26.31-.04,4.96-.09,9.92-.13,14.88Z"/>
        <path class="cls-31" d="M286.12,360.23c-9.27-11.67-18.53-23.34-27.82-34.98-1.63-2.04-3.44-3.94-5.17-5.91-.34-.87-.69-1.73-1.03-2.6,20.57,4.83,41.13,9.66,61.7,14.49.16,1.49.02,2.88-1.19,3.95-6.37,7.24-13.28,13.94-20.13,20.71-1.83,1.81-3.42,4.09-6.36,4.33Z"/>
        <path class="cls-13" d="M250.57,319.32c-2.5,14.27-5.08,28.53-7.44,42.83-.45,2.75-2.35,5.89.8,8.4-13.6-1.64-27.21-3.28-40.81-4.92,12.36-14.35,26.51-26.96,39.74-40.47,2.21-2.26,3.62-5.92,7.71-5.84Z"/>
        <path class="cls-15" d="M511.4,116.07c-4.68-1.95-9.08-4.71-14.33-5.07-1.8.45-2.94-.48-3.86-1.86-3.93-13.93-5.88-28.26-8.33-42.49-.37-2.16-.24-4.42,1.81-5.96,2.51,1.65,3.36,4.59,5.22,6.74,5.9,8.88,11.61,17.9,17.78,26.6,3.8,5.36,5.37,10.66,2.7,16.93-.66,1.56-.67,3.4-.98,5.11Z"/>
        <path class="cls-42" d="M215.2,281.29c-.12-.45-.23-.91-.35-1.36-6.4-7.91-13.08-15.55-20.37-22.67-1.69-1.65-3.1-3.58-4.64-5.39.57-7.16,5.3-11.65,10.26-15.99,1.1-.07,1.82.3,1.77,1.55,4.28,12.6,8.58,25.19,12.83,37.79.62,1.84,1.04,3.76,1.55,5.64-.3.26-.64.4-1.04.43Z"/>
        <path class="cls-36" d="M288.73,735.79c.49,15.4,2.06,30.76,1.3,46.19-5.38,1.2-8.38.03-8.62-6.47-.16-4.44.15-9.14-1.63-13.47-2.66-10.67,1.94-18.88,8.94-26.26Z"/>
        <path class="cls-20" d="M316.46,732.04c-9.11,1.44-18.44.58-27.49,2.64-.59-2.55-1.18-5.1-1.76-7.64,5.25-5.63,12.64-4.22,19.12-5.69,1.57-.36,3.41.48,4.84-.91,1.77.32,3.55.64,5.32.96,2.74,3.56,2.56,7.11-.04,10.65Z"/>
        <path class="cls-1" d="M311.17,720.43c1.04,2.46-.69,2.22-2.25,2.5-7.25,1.3-14.48,2.72-21.72,4.1-2.73-3.49-2.78-8.08-4.85-11.84,9.89.17,19.16,3.81,28.82,5.23Z"/>
        <path class="cls-15" d="M287.51,273.22c-6.57-11.45-10.18-24.16-15.3-36.22-6.33-14.93-12.11-30.1-18.08-45.19-.86-2.18-2.33-4.34-.94-6.86,3.17-4.99,8.36-5.51,13.51-6.13,13.76-1.79,27.34-4.62,41.06-6.61,3.21-.47,6.39-1.35,9.69-.84,4.89,1.03,5.05,6.89,9.05,8.86.88.65,1.78,1.22,2.82,1.63,8.44,3.3,10.19,2.46,13.26-6.48.93-3.19-.48-5.97-1.51-8.83-.8-2.22-2.03-4.39-1.25-6.92,5.97-5.65,13.88-8.67,19.67-14.57,4.71-2.43,9.08-6.24,15.02-3.76,9.26,26.34,19.48,52.34,27.84,79-.24.22-.47.43-.71.65-4.84.65-7.38-3.26-10.44-5.71-4.36-3.5-8.5-4.25-13.83-2.32-7.74,2.81-15.62,5.3-23.75,6.8-1.81.34-3.27,1.12-3.79,3.07-2.74,7.3-4.52,14.89-6.92,22.29-1.1,3.4-2.56,6.41-5.75,8.3-14.51,7.04-29.45,13.15-44.12,19.84-1.77.81-3.69,1.53-5.53,0Z"/>
        <path class="cls-15" d="M200.58,95.21c23.37-8.41,46.75-16.82,70.12-25.25.79-.29,1.51-.79,2.26-1.19.97-2.24,3.07-3.02,5.09-3.78,15.48-5.83,31.15-11.13,46.66-16.86,1.67-.62,3.39-.7,5.14-.55.2.1.39.2.59.29,14.41,6.46,18.64,19.82,22.69,33.34.75,2.5,1.94,4.88,2.93,7.31.43,1.36.86,2.71,1.29,4.07-.46,4.06-4.16,4.15-6.79,5.14-27.32,10.36-54.92,19.94-82.36,29.98-7.63,2.79-15.24,5.65-22.88,8.44-3.68,1.35-7.3,3.18-11.44,2.57-2.62-.65-4.2-2.63-4.74-4.95-3.34-14.36-13.66-23.26-24.43-31.89-2.09-1.68-4.98-3.09-4.13-6.69Z"/>
        <path class="cls-11" d="M233.63,137.66c25.5-9.14,51.07-18.08,76.47-27.49,15.75-5.84,31.92-10.57,47.25-17.58,5.74-.71,10.84-3.4,16.15-5.39,2.74-1.03,4.19-.92,5.38,2.25,5.01,13.35,10.16,26.65,15.62,39.81,1.52,3.67.04,4.46-2.84,5.48-5.77,2.04-11.44,4.35-17.15,6.55-5.07,1.13-9.85,3.02-14.45,5.41-7.15,3.24-13.39,9.2-22.21,7.42-2.79-1.77-3.68-4.78-4.83-7.59-2.99-7.28-5.87-14.6-8.78-21.91-1.36-3.43-3.41-4.95-7.08-3.28-.79.36.22-.05-.61.24-15.91,5.69-13.49,4.37-8.36,17.81,2.11,5.51,4.51,10.91,6.35,16.52.74,2.25,1.95,4.47.86,6.96-2,2.54-4.98,3.38-7.81,4.45-13.58,5.17-27.27,10.01-41.44,13.33-4.32,1.43-8.64,2.85-12.95,4.28-4.62-5.69-6.09-12.85-8.92-19.36-1.58-3.62-3.1-4.87-7.29-3.9-12.08,2.77-24.29,4.94-36.45,7.34-8.23,5.52-18.09,5.7-27.22,8.28-2.48.7-5.26.55-7.32,2.46-2.03,2.88-3,6.26-4.52,9.38-1.03,2.11-1.91,4.48-4.77,4.84-1.98-5.96-4-11.91-5.94-17.88-1.03-3.18-.2-5.19,3.27-6.5,10.78-4.06,21.43-8.45,32.14-12.71.77-2.64,3.02-3.58,5.24-4.48,11.68-4.75,23.42-9.37,35.2-13.88,2.32-.89,4.65-.85,7.02-.89Z"/>
        <path class="cls-20" d="M336.21,251.95c1.99-1.64,3.56-3.25,4.29-6.1,2.2-8.59,5.03-17.01,7.62-25.5,2.38-1.38,4.11-.01,5.86,1.36,11.17,8.74,21.75,18.2,32.58,27.35,1.63,1.38,3.29,3.02,2.42,5.61-6.77,10.37-15.23,19.56-21.39,30.36-1.58.93-2.77,2.64-5.15,1.29-9.57-5.41-19.23-10.65-28.85-15.96-3.08-3.51-.51-6.93.19-10.37.56-2.76,2.1-5.21,2.44-8.04Z"/>
        <path class="cls-15" d="M388.98,254.67c-12.78-12.44-26.18-24.14-40.86-34.32,1.37-.84,2.74-1.69,4.11-2.53,1.12.74,2.37,1.37,3.68,1.11,11.98-2.34,23.89.18,35.83.25,3.53.02,6.62,2.18,10.17,1.39,0,0,.44-.27.44-.27,4.05,7.8,2.74,16.65,4.86,24.85.64,2.47-1.64,3.3-3.49,4.01-4.9,1.87-9.82,3.68-14.73,5.51Z"/>
        <path class="cls-34" d="M329.85,47.58c-2.99,3.32-7.4,3.55-11.2,4.95-15.17,5.58-30.45,10.85-45.69,16.24-1.18-7.64,1.61-14.82,2.71-22.17,1.88-12.64,4.25-25.2,6.4-37.8.22-1.3.39-2.59,1.55-3.46,12.73,11.43,25.46,22.85,38.18,34.28,2.68,2.66,5.37,5.31,8.05,7.97Z"/>
        <path class="cls-20" d="M486.69,60.69c.79,14.15,5,27.74,6.93,41.7.33,2.36.62,4.72.92,7.09-6.22,4.97-13.13,7.65-21.23,6.43-4.97-10.25-12.26-19.05-18.15-28.73-2.08-3.42-2.42-5.33,1.29-7.81,5.42-3.62,10.38-7.94,15.54-11.95,3.3-2.44,6.59-4.9,9.9-7.32,1.76-1.29,3.64-3.12,4.79.6Z"/>
        <path class="cls-42" d="M336.21,251.95c2.46,2.09.8,4.3.26,6.52-.96,3.96-3.16,7.63-2.88,11.89-4.98,11.4-7.57,23.6-11.72,35.28-.51,1.43-1.05,2.86-1.57,4.28-18.51-8.45-37.02-16.91-56.63-25.86,8.57-3.89,16.21-7.37,23.85-10.85,16.23-7.09,32.47-14.18,48.7-21.27Z"/>
        <path class="cls-3" d="M398.22,325.91c-6.73,19.33-13.46,38.65-20.24,58.13-.77-1.49-1.45-2.78-2.12-4.07-2.07-17.36-4.16-34.71-6.18-52.08-.33-2.82-.36-5.68-.54-8.53-.96-5.65,3.25-4.17,5.64-3.53,7.68,2.06,15.46,4.04,22.12,8.75.43.44.87.89,1.3,1.33Z"/>
        <path class="cls-11" d="M286.12,360.23c7.93-8.19,15.86-16.39,23.81-24.57.73-.75,1.53-1.76,2.67-.48-4.01,13.14-8.03,26.28-12.05,39.42-.78.42-1.57.84-2.35,1.26-4.03-5.21-8.06-10.42-12.08-15.63Z"/>
        <path class="cls-13" d="M396.92,324.58c-7.74-1.13-14.76-4.66-22.22-6.7-2.12-.58-4.63-2.52-5.55,1.48-1.34-9.61-2.67-19.22-4.01-28.83.47-.31.94-.61,1.41-.92,10.51,11.3,20.88,22.73,30.36,34.97Z"/>
        <path class="cls-16" d="M425.92,658l-2.48.34c-16.34,2.03-32.72,1.04-49.1.9-15.93.6-31.86.23-47.79.2-2.63,0-5.27-.36-7.12-2.63.95-27.33,1.87-54.66,2.86-81.99.72-19.68,1.55-39.35,2.32-59.03,1.64-1.94.87-4.3,1.12-6.48,3.74-.75,4.81,2.41,6.31,4.58,26.62,38.68,53.2,77.39,79.35,116.4,4.87,7.26,10.98,13.76,13.96,22.23.64,1.82,2.03,3.48.57,5.49Z"/>
        <path class="cls-8" d="M400.88,698.76c-5.21.08-10.41.15-15.62.23-3.1-1.71-6.46-.87-9.7-.9-17.35-.14-34.71-.21-52.06-.16-3.61.01-6.17-.5-5.46-4.95,1.89-12,.3-24.14,1.38-36.17,18.37.06,36.73.13,55.1.19,5.68,3.91,8.6,9.64,10.55,16,4.8,8.87,11.67,16.48,15.81,25.76Z"/>
        <path class="cls-33" d="M317.77,708.39c-.08,8.05-.17,16.1-.25,24.15-.38-.11-.74-.28-1.07-.5.01-3.55.02-7.1.04-10.65.51-4.33-1.31-8.88,1.28-13Z"/>
        <path class="cls-20" d="M233.63,137.66c-15.82,6.42-31.65,12.83-47.47,19.25-7.71-6.53-8.65-13.39-3.74-22.75,6.57-12.52,11.34-25.99,16.88-39.05.43.03.85.06,1.28.1,5.39,4.77,10.46,9.97,16.24,14.19,7.85,5.73,10.29,14.38,13.69,22.59.84,2.03,1.31,4.2,3.12,5.68Z"/>
        <path class="cls-15" d="M156.7,194c2.82-5,5.13-10.23,6.86-15.71,2.93-1.47,5.1.2,6.77,2.13,9.39,10.86,19.53,21.05,28.53,32.25,1.12,1.4,1.82,2.95,2.17,4.68-4.29,6.2-4.84,12.51-.55,18.96-3.55,5.19-7.09,10.37-10.64,15.56-2.15-1.73-4.3-3.46-6.45-5.19-8.97-4.53-14.96-12.44-21.29-19.72-4.03-4.63-9.81-8.07-11.62-14.53.07-6.82,4.6-12.14,6.23-18.43Z"/>
        <path class="cls-28" d="M150.47,212.43c10.97,11.41,21.94,22.83,32.91,34.24-1.3,1.82-2.71.79-4.03.1-22.47-11.77-44.93-23.56-67.2-36.22,12.87.73,25.79-3.5,38.32,1.88Z"/>
        <path class="cls-25" d="M200.49,217.76c-11.03-12.57-22.07-25.13-33.1-37.7-1.02-1.17-2.02-2.34-3.84-1.76,3.89-3.38,8.98-2.81,13.51-4,7.74-2.04,15.63-3.53,23.46-5.25-2.78,1.63-2.52,3.19-.51,5.57,4.76,5.64,9,11.72,13.78,17.34,2.11,2.48,1.97,4.11.29,6.76-4.05,6.39-9.39,11.95-12.41,19.01-.38.57-.78.56-1.19.03Z"/>
        <path class="cls-41" d="M200.49,217.76c.4,0,.79-.02,1.19-.03,4.66,5.19,8.99,10.73,14.07,15.47,4.94,4.6-.18,6.01-1.95,8.59-2.37,3.45-4.63,3.11-7.15.03-1.36-1.66-3.18-2.94-4.8-4.38-.46-.37-.92-.74-1.38-1.11-1.71-3.84-7.72-5.56-7.15-9.57.47-3.27,4.64-6.01,7.16-8.98Z"/>
        <path class="cls-11" d="M414.22,754.21c-.12-.86-.03-1.82-.39-2.56-5.22-10.55-3.8-20.97.51-31.36,7.87,8.01,13.06,17.67,17.1,28.03,1.77,3.33,1.57,6.3-1.64,8.69-.66,2.03-1.56,4.02-1.94,6.11-.58,3.18-2.64,3.36-5.21,3.3-2.45-.06-4.71.13-5.51-3.04-.79-3.1-1.93-6.12-2.92-9.17Z"/>
        <path class="cls-5" d="M429.81,757.01c.55-2.9,1.1-5.79,1.64-8.69,4.23,2.69,5.7,7.27,7.78,11.43-3.19-.76-7.44,2.16-9.43-2.74Z"/>
        <path class="cls-11" d="M365.21,394.52c9.31,39.56,18.61,79.11,27.92,118.67-.9,3.96-4.18,3.49-6.79,3.16-17.95-2.23-35.99-3.64-53.91-6.13-2.76-.38-4.91-1.65-6.7-3.69-.54-25.79,1.08-51.51,2.3-77.25.26-5.45.08-10.93.1-16.39,11.76-7.34,24.27-13.16,37.08-18.37Z"/>
        <path class="cls-18" d="M325.72,506.53c13.76,2.78,27.79,3.46,41.67,5.28,6.07.79,12.16,1.47,18.24,2.2,2.56.31,5.19,1.36,7.48-.82.36,0,.72.02,1.08.03.07.84.15,1.68.22,2.51,5.38,23.19,10.72,46.4,16.16,69.58,5.34,22.77,10.81,45.5,16.17,68.26.35,1.47.32,3.03.47,4.54,0,0-.66,0-.66,0,0,0-.65-.11-.65-.11-.65-7.02-5.82-11.64-9.41-16.98-19.76-29.42-39.79-58.66-59.77-87.93-9.49-13.91-19.07-27.77-28.65-41.62-.59-.86-1.57-1.45-2.36-2.17,0-.93,0-1.85,0-2.78Z"/>
        <path class="cls-6" d="M473.32,115.91c7.08-2.14,14.15-4.29,21.23-6.43.84.51,1.69,1.01,2.53,1.52,8.05,7.72,16.1,15.43,24.14,23.16,5.27,5.07,2.32,17.35-4.8,19.35-22.75,6.39-45.53,12.73-68.34,18.9-7.48,2.02-16.33-7.29-14.28-14.65,2.64-9.49,5.34-18.96,7.8-28.5.78-3.02,1.92-5.06,5.19-5.92,8.88-2.34,17.69-4.94,26.53-7.43Z"/>
        <path class="cls-40" d="M385.07,673c-4.59-4.63-7.31-10.49-10.55-16,14.24,0,28.48-.03,42.72-.01,2.14,0,4.44-.47,6.2,1.36-12.44,5.81-25.24,10.67-38.37,14.66Z"/>
        <path class="cls-4" d="M314.94,162.18c-4.28-10.78-8.48-21.6-12.88-32.33-1.3-3.19-1.42-5,2.63-6.13,6.06-1.68,12.5-7.35,17.66-5.4,5.32,2,5.43,10.75,8.05,16.44,2.74,5.96,4.88,12.19,7.28,18.3,2.11,1.72,4.68,3.28,2.56,6.63,1.44,5.27,6.78,9.61,3.81,15.94-5.53,3.52-10.86,7.72-18.13,5.34-6.49.83-3.89-6.03-6.9-8.15-3.28-2.81-5.45-6.04-4.09-10.64Z"/>
        <path class="cls-26" d="M401.9,220.57c-5.43,2.52-11.27,1.54-16.68.88-8.95-1.09-17.87-.82-26.8-1.1-2.39-.07-4.94.3-6.19-2.53,8.91-1.17,17.37-4.16,25.66-7.29,5.5-2.08,9.41-1.2,13.57,2.38,3.27,2.8,6.95,5.13,10.45,7.67Z"/>
        <path class="cls-20" d="M314.94,162.18c1.37,3.55,2.73,7.09,4.09,10.64-15.9,2.49-31.79,5-47.7,7.47-1.71.26-3.45.27-5.18.39,12.19-5.85,25.3-9.26,37.81-14.28,3.64-1.46,7.32-2.81,10.97-4.21Z"/>
        <path class="cls-38" d="M290.27,217.65c4.96-3.82,9.92-7.64,14.88-11.46.52-.4,1.03-.92,1.62-1.07.78-.2,2.11-.42,2.39-.04,4.01,5.46,12.49-2.96,15.79,5.25.99,2.46,3.6,4.26,5.62,6.53-2.32,1.89-4.19.04-6.11-.18-9.02-1.13-17.94-1.41-26.75,1.61-2.32.79-5.09,1.01-7.44-.65Z"/>
        <path class="cls-9" d="M290.27,217.65c4.4-.94,9.02-1.32,13.17-2.93,7.5-2.91,14.27-1.34,21.03,1.96-6.65,2.04-13.2,4.64-19.99,5.94-5.23,1.01-10.18-1.25-14.2-4.98Z"/>
        <path class="cls-21" d="M325.93,180.96c6.33-.81,11.66-5,18.13-5.34-.17,4.31-1.65,9.33-5.4,10.09-4.24.85-9.75.18-12.73-4.75Z"/>
        <path class="cls-7" d="M340.25,159.69c-.85-2.21-1.71-4.42-2.56-6.63,8.08.08,14.58-5.41,22.37-6.34-5.99,5.26-11.96,10.56-19.81,12.98Z"/>
        <path class="cls-10" d="M242.29,123.88c4.53-5.64,8.35-10.34,12.11-15.09,1.22-1.54,2.71-2.16,4.59-1.73,5.45,1.25,10.9,2.54,16.21,5.08-2.88,0-5.78.17-8.65-.04-3.38-.25-6.09.68-7.69,3.74-3.28,6.29-9.09,7.28-16.57,8.05Z"/>
        <path class="cls-23" d="M318.76,100.1c3.34-6.89,6.33-12.94,9.22-19.03.96-2.02,1.99-3.23,4.53-2.3,3.39,1.25,6.9,2.19,10.59,4.04-8.63-2.18-11.32,3.31-13.02,9.46-1.47,5.33-5.09,7.18-11.31,7.84Z"/>
        <path class="cls-15" d="M296.58,145.21q4.44,10.76-6.37,14.77c-9.25,3.42-18.57,6.66-27.77,10.22-3.41,1.32-4.99.53-6.22-2.9-2.2-6.19-4.89-12.21-7.29-18.32-.66-1.68-2.36-3.55.28-5.1,9.32-2.12,18.69-3.55,28.24-1.76,2.11.66,3.16,2.14,3.25,4.35.12,3,.57,6.12,4.43,5.91,3.87-.21,3.77-3.55,3.96-6.41.04-.66.29-1.27.6-1.86,2.75-2.44,5.03-1.92,6.9,1.1Z"/>
        <path class="cls-15" d="M351.99,106.85c2.92-1.71,6.03-2.91,9.34-3.57,5.56,8.27,9.97,16.93,9.27,27.32-7.08,2.68-14.27,5.12-21.2,8.14-3.98,1.73-6.06,1-7.2-3.1-.58-2.08-1.41-4.08-2.12-6.12-1.18-10.27,5.32-16.49,11.92-22.66Z"/>
        <path class="cls-32" d="M279.86,143.97c-10.22-.03-20.44-.06-30.66-.09,12.51-4.68,25.02-9.35,37.52-14.04,2.59-.97,4.08-.18,4.99,2.48,1.49,4.34,3.23,8.6,4.86,12.89-2.12-1.09-4.25-2.23-6.43-.12-3.54.62-6.9-.35-10.29-1.13Z"/>
        <path class="cls-14" d="M370.6,130.6c-3.09-9.11-6.18-18.21-9.27-27.32q10.09-3.99,14.02,6.38c.85,2.24,1.74,4.47,2.61,6.7q4.33,11.07-7.37,14.24Z"/>
        <path class="cls-30" d="M351.99,106.85c-3.44,7.83-10.65,13.68-11.92,22.66-1.3-2.98-2.23-6.19-3.96-8.9-3.89-6.09-1.48-8.89,4.64-10.41,3.79-.94,7.5-2.22,11.25-3.35Z"/>
        <path class="cls-24" d="M184.53,215.4c-8.1-1.46-15.52-2.9-22.98-4.11-2.82-.46-2.55-1.71-1.42-3.51.35-.55.77-1.06,1.14-1.6,8-11.56,8.07-11.61,16.61-.47,2.18,2.85,5.35,5.08,6.66,9.69Z"/>
        <path class="cls-37" d="M455.8,159.02c-1.28,1.94-1.1,5.44-4.07,5.29-2.03-.11-5.42-.86-5.28-3.8.09-2.04.82-5.41,3.78-5.3,2.08.07,4.75.99,5.58,3.82Z"/>
        <path class="cls-2" d="M447.81,148.96c-.94-.1-1.73-.62-1.5-1.53.17-.66.96-1.46,1.62-1.62.9-.22,1.52.61,1.48,1.53-.04.91-.68,1.46-1.6,1.61Z"/>
        <path class="cls-35" d="M462.44,146.3c-.12,1-.77,1.5-1.67,1.36-.48-.07-1.16-.6-1.27-1.04-.21-.88.28-1.68,1.24-1.77.92-.08,1.47.56,1.69,1.45Z"/>
        <path class="cls-39" d="M460.92,155.24c.89.23,1.49.79,1.45,1.72-.04,1.09-.93,1.37-1.77,1.16-.47-.12-1.08-.74-1.13-1.18-.1-.9.54-1.48,1.45-1.7Z"/>
        <path class="cls-22" d="M279.86,143.97c3.71-2.15,7.19-2.3,10.29,1.13,1.72,3.55,1.57,6.8-2,9.07-2.37,1.51-5.04,1.45-7.3-.31-3.68-2.87-2.78-6.37-.99-9.88Z"/>
        <path class="cls-27" d="M362.48,122.24c-.31,3.83-2.3,6.26-6.07,6.45-4.03.2-6.78-1.94-6.82-6.14-.03-3.67,2.04-6.21,5.9-6.47,4.27-.29,6.19,2.39,6.98,6.16Z"/>
      </g>
    </g>
  </g>
</svg>