<?xml version="1.0" encoding="UTF-8"?>
<svg xmlns="http://www.w3.org/2000/svg" version="1.1" viewBox="0 0 612 792">
  <defs>
    <style>
      .cls-1 {
        fill: #866956;
      }

      .cls-2 {
        fill: #967ea9;
      }

      .cls-3 {
        fill: #eaeaea;
      }

      .cls-4 {
        fill: #e2c9b7;
      }

      .cls-5 {
        fill: #dfd8e3;
      }

      .cls-6 {
        fill: #735f84;
      }

      .cls-7 {
        fill: #bb967e;
      }

      .cls-8 {
        fill: #8e8e8e;
      }

      .cls-9 {
        fill: #8c789b;
      }

      .cls-10 {
        fill: #725360;
      }

      .cls-11 {
        fill: #544362;
      }

      .cls-12 {
        fill: #ab889b;
      }

      .cls-13 {
        fill: #dcdcdb;
      }

      .cls-14 {
        fill: #e3dde7;
      }

      .cls-15 {
        fill: #d9bca6;
      }

      .cls-16 {
        fill: #735f83;
      }

      .cls-17 {
        fill: #9c9fa0;
      }

      .cls-18 {
        fill: #8a779b;
      }

      .cls-19 {
        fill: #c3c3c3;
      }

      .cls-20 {
        fill: #bc977e;
      }

      .cls-21 {
        fill: #886a57;
      }

      .cls-22 {
        fill: #2f2f2e;
      }

      .cls-23 {
        fill: #725361;
      }

      .cls-24 {
        fill: #866855;
      }

      .cls-25 {
        fill: #6e4f5e;
      }

      .cls-26 {
        fill: #bd987e;
      }

      .cls-27 {
        fill: #2f2e2e;
      }

      .cls-28 {
        fill: #4e3141;
      }

      .cls-29 {
        fill: #d1cbd4;
      }

      .cls-30 {
        fill: #bb977e;
      }

      .cls-31 {
        fill: #8b779b;
      }

      .cls-32 {
        fill: #bb977d;
      }

      .cls-33 {
        fill: #d5ccc7;
      }

      .cls-34 {
        fill: #8d657a;
      }

      .cls-35 {
        fill: #9780ab;
      }

      .cls-36 {
        fill: #554463;
      }

      .cls-37 {
        fill: #9d85b2;
      }

      .cls-38 {
        fill: #554462;
      }

      .cls-39 {
        fill: #977fab;
      }

      .cls-40 {
        fill: #856755;
      }

      .cls-41 {
        fill: #fdfdfd;
      }

      .cls-42 {
        fill: #856754;
      }
    </style>
  </defs>
  <!-- Generator: Adobe Illustrator 28.7.1, SVG Export Plug-In . SVG Version: 1.2.0 Build 142)  -->
  <g>
    <g id="Layer_1">
      <g>
        <path class="cls-19" d="M361.98,285.59c8.07-3.21,14.46-9.05,21.53-13.82,15.48-10.45,30.81-21.14,46.19-31.73,3.1-1.75,6.34-.96,9.48-.31,14.58,3.04,29.32,5.12,44,7.56,3.35.56,7,.71,8.96,4.28-16.88,21.99-33.69,44.04-50.68,65.95-8.94,11.53-17.21,23.6-27.16,34.33-8.03-5.31-12.81-13.69-19.32-20.43-1.34-1.38-2.32-3.1-3.8-4.37-.69-.61-1.33-1.27-1.93-1.97-9.12-10.59-18.49-20.97-27.72-31.85,2.7,9.19,1.86,18.56,3.94,27.52,2.28,19.08,5.31,38.06,6.57,57.23-.39,2.86.52,5.57,1.05,8.32-.41,1.15-1.29,1.77-2.39,2.16-15.08-.22-29.85-3.35-44.78-4.97-7.68-.83-15.38-1.77-23-3.14-3.42-.62-6.85-1.35-8.26-5.2-.62-2.38-.14-4.71.59-6.94,3.6-10.98,6.36-22.22,10.67-32.97.62-1.53,1.27-3.06,1.39-4.74,1.63-7.11,4.12-13.95,6.39-20.86,2.79-11.07,7.16-21.65,10.06-32.68.6-2.27,1.36-4.57,3.52-5.98,7.08.06,12.28,4.73,18.19,7.61,5.39,2.63,10.21,6.53,16.51,7Z"/>
        <path class="cls-13" d="M277.92,709.77c-12.7-4.61-26.11-6.22-39.18-9.31-12.09-2.86-24.34-5.02-36.39-8.03-5.81-1.45.76-4.13-.03-6.25,6.3-14.09,15.67-26.33,23.86-39.27,28.21-44.54,57.17-88.61,85.27-133.22,1.27-2.01,2.46-4.11,4.21-5.73,1.42-1.31,3.02-2.83,4.84-.39.92,2.1.72,4.39,1.26,6.56-.26,19.67-1.41,39.3-2.09,58.95-.56,15.99-1.5,31.97-1.56,47.97-.04,10.41-1.1,20.72-1.84,31.06.71,10.38.91,20.79-.11,31.13-.53,5.38,1.35,6.89,6.34,6.86,15.8-.08,31.61-.16,47.41.06,3.45.05,7.58-.88,9.52,3.57-2.56,3.15-6.22,2.59-9.58,2.62-15.09.13-30.19.17-45.28-.02-5.04-.06-8.35,1.34-9.42,6.52-2.51,3.98-.72,8.92-2.85,12.99-1.89,2.02-4.17,1.02-6.35.81-9.45-1.88-19.27-2.22-28.04-6.88Z"/>
        <path class="cls-25" d="M107.4,255.68c-19.07-4.75-38.14-9.5-57.22-14.26-.41-4.37,3.3-5.18,5.98-6.62,13.16-7.07,26.24-14.32,39.81-20.55,6.1-2.8,9.23-7.03,10.7-13.49,6.17-27.02,12.75-53.94,19.01-80.93,1.85-8.01,4.12-15.9,6.1-23.88.59-1.65,2.23-2.58,2.88-4.19,1.76-6.92,3.52-13.84,5.28-20.76,2.62-1.4,5.02-.34,7.33.8,14.26,7.06,28.43,14.3,42.79,21.18,2.49,1.19,5.04,2.5,6.5,5.1,1.15,3.69-.89,6.74-2.18,9.86-4.39,10.57-8.79,21.15-13.74,31.46-2.7,5.62-3.44,10.53,1.12,15.43,1.16,1.24,1.95,2.88,1.57,4.76-1.26,2.64-3.88,3.28-6.28,4.21-7.06,2.73-14.02,5.75-21.13,8.35-4.8,1.75-6.44,4.45-4.53,9.41,1.78,4.64,3.09,9.46,3.87,14.4-1.31,6.52-3.56,12.68-7.14,18.32-10.92-1.12-21.9-.56-32.87-.8,20.17,10.62,40.36,21.39,60.65,31.95,1.37.71,2.78,1.16,4.31,1.28,3.34.71,5.36,3.31,7.74,5.4,7.47,7.35,14.81,14.83,21.36,23.03,1.42,1.78,4.42,3.48,1.11,6.2-2.62.99-5.13.1-7.63-.48-29.25-6.75-58.34-14.19-87.59-20.96-3-.69-5.84-1.6-7.79-4.21Z"/>
        <path class="cls-20" d="M315.34,310.14c-2.14,7-4.27,14-6.41,21-2.79,2.3-5.8,1.1-8.69.42-14.95-3.56-29.95-6.93-44.84-10.77-2.83-.73-5.19-2.04-7.31-3.94-9.44-9.62-18.86-19.25-28.34-28.83-2.25-2.27-4.68-4.37-7.03-6.55-6.97-10.5-9-22.99-13.85-34.35-1-2.33-1.92-4.8-1.27-7.47,2.05-2.81,3.83-.67,5.32.54,2.35,1.91,4.37,3.49,7.08.52,2.9-3.17-.04-4.85-1.43-7.09-3.25-5.26-9.4-8.25-11.35-14.52.56-6.31,5.61-10.06,8.64-14.95,4.33-6.99,4.53-7.13-.63-13.56-3.12-3.89-6.01-7.95-9.14-11.83-3.04-3.78-3.42-7,1.76-9.2,11.24-3.05,22.69-5.15,34.09-7.47,5.35-1.09,8.71.92,10.69,5.84,2.42,5.99,4.81,12,7.39,17.93,3.09,11.77,8.47,22.68,12.82,33.97,5.9,15.35,12.19,30.54,18.28,45.82,1.04,2.6,2.33,5.14,2.52,8.01-.52,3.16-3.3,3.76-5.6,4.77-4.15,1.83-8.39,3.47-13.35,6.21,9.43,4.93,18.69,8.72,27.74,12.88,6.29,2.89,12.39,6.17,18.82,8.75,1.84.74,3.48,1.79,4.08,3.87Z"/>
        <path class="cls-29" d="M487.9,759.16c22.06,2.18,44.13,4.36,66.19,6.54.04.26.07.52.11.77-7.35.95-14.69,2.07-22.06,2.83-21.42,2.2-42.82,4.48-64.16,7.41-13.01,1.79-26.12,2.88-39.17,4.34-18.19,2.03-36.42,3.74-54.53,6.29-13.62,1.92-27.18,1.11-40.61-.35-7.94-.86-15.9-.75-23.85-1.69-15.82-1.87-31.85-1.92-47.78-3-22.79-1.54-45.56-3.42-68.34-5-16.93-1.17-33.87-2.11-50.87-3.84,14.9-1.8,29.8-3.6,44.69-5.41,20.52-2.5,41.02-5.05,61.55-7.49,5.78-.69,11.58-1.16,17.39-1.59,3.28-.24,6.48-.47,8.96-2.99,4.46,2.02,2.91,6.26,3.42,9.64.65,4.32,1.28,8.32,6.97,8.23,13.57-.63,27.15-.09,40.72-.29,7.4-.11,7.49-.58,4.24-7.19-2.44-4.96-7.57-9.25-4.85-15.85,4.48-2.62,9.62-1.96,14.43-2.96,19.1-3.96,38.16-1.7,57.2.54,3.03.36,6,.55,8.98-.08,3.56-.46,4.11,2.39,5.12,4.72.93,2.14,1.46,4.75,4.49,4.85,2.84.09,3.19-2.47,4.2-4.28.75-1.35,1.5-2.66,3.31-2.7,3.33.76,6.81.87,10.02,2.22,3.82,4.6,8.96,4.98,14.49,5.1,13.25.3,26.57-1.4,39.75,1.24Z"/>
        <path class="cls-17" d="M295.88,373.9c2.01,5.98,7.72,4.16,11.62,4.75,21.24,3.19,42.59,5.69,63.9,8.43-1.54,5.71-7.26,5.67-11.17,8.12-12.41,5.52-24.58,11.52-36.54,17.96-26.75,12.07-52.68,25.81-78.87,39.01-1.56.78-3.07,1.6-4.9,1.33-7-12.44-11.89-25.86-17.85-38.79-7.6-16.47-14.86-33.1-22.26-49.66,2.55-2.12,5.46-2.01,8.51-1.55,10.54,1.58,21.22,2.15,31.67,4.38,17.34,1.36,34.49,4.32,51.77,6.16,1.36-.44,2.73-.86,4.13-.14Z"/>
        <path class="cls-19" d="M489.77,628.85c4.62,4.05,3.09,7.14-.93,10.85-18.88,17.38-37.1,35.49-56.5,52.31-.32.28-.75.43-1.12.64-3.78-.4-3.76-3.7-4.42-6.19-2.87-10.83-5.61-21.69-7.78-32.68-3.54-17.56-8.25-34.84-12.33-52.27-6.2-26.5-12.29-53.02-18.81-79.44-.62-2.5-1.42-5.01-.68-7.64,3.61-3.84,5.2.22,6.9,2.06,10.74,11.6,20.88,23.73,31.26,35.64,19.77,22.68,39.74,45.18,59.17,68.16,2.15,2.54,5.02,4.8,5.25,8.59Z"/>
        <path class="cls-28" d="M107.4,255.68c34.66,8.29,69.31,16.58,103.97,24.87.47.2.67.46.62.79-.06.36-.15.55-.28.55-13.07,14.35-26.1,28.73-39.22,43.03-16.64,18.13-33.33,36.21-50.1,54.22-2.15,2.3-3.77,5.29-7.04,6.4-4.08-5.68-3.07-12.5-3.43-18.73-.65-11.14-2.1-22.25-1.86-33.44.05-2.58-.24-5.18,1.28-7.49-.35-23.45-2.68-46.79-3.93-70.2Z"/>
        <path class="cls-19" d="M319.3,506.69c-5.96,5.81-9.35,13.41-13.79,20.24-19.32,29.7-38.36,59.58-57.48,89.41-13.52,21.1-26.97,42.24-40.53,63.31-1.49,2.32-2.55,5.06-5.16,6.53.07-6.99,3.24-13.22,5.19-19.69,16.43-54.3,33.1-108.52,49.78-162.74.78-2.55.88-5.08,1.12-7.65,7.13-1.32,14.03.69,21.01,1.47,11.52,1.29,23.08,2.38,34.54,4.11,2.54.38,6.56.18,5.31,5.01Z"/>
        <path class="cls-12" d="M196.03,98.31c-18.7-9.1-36.98-19.06-56.09-27.32,11.65-7,24.45-11.56,36.75-17.18,16.85-7.7,33.76-15.25,50.65-22.87,13.79-6.13,27.58-12.27,41.37-18.4,3.71-.08,6.34-4.29,10.48-2.76.17,1.92.55,3.81.2,5.79-3.37,18.9-6.02,37.93-9.71,56.78-.73,2.04-2.49,2.85-4.33,3.53-20.58,7.54-41.17,15.06-61.84,22.35-1.83.65-3.7,1.15-5.67,1.05-.69-.15-1.29-.47-1.8-.96Z"/>
        <path class="cls-8" d="M319.3,506.69c-3.9-4.79-9.6-3.1-14.52-3.8-13.81-1.95-27.69-3.4-41.53-5.15-1.65-.21-3.21-1.08-4.81-1.64-6.17-14.2-12.34-28.4-18.52-42.6,6.36-5.8,14.44-8.6,21.96-12.27,19.01-9.29,37.49-19.63,56.97-27.96,1.38-.59,2.81-1.08,4.22-1.61,3.2,2.53,2.88,6.21,2.68,9.57-1.58,27.17-2.27,54.37-2.79,81.58-.25,1.18-.33,2.37-.33,3.57-.45,2.5.78,5.76-3.03,6.75-.1-2.15-.2-4.29-.3-6.44Z"/>
        <path class="cls-8" d="M359.63,393.55c3.88-2.24,8.29-3.49,11.76-6.46.46-.43.93-.86,1.39-1.29.49-1.56,1.72-2.45,3.06-3.13,10.48-5.39,21.01-10.68,31.63-15.78,2.09-1,4.37-1.97,6.69-.36-2.13,32.69-4.26,65.37-6.43,98.05-.13,1.91-.67,3.8-1.01,5.69-.02,7.12-13.79,37.14-18.72,40.81-.74,0-1.37-.27-1.9-.79-1.93-2.24-2.28-5.07-2.91-7.79-7.63-33.02-15.45-66-23.3-98.97-.78-3.26-2.53-6.59-.26-9.97Z"/>
        <path class="cls-12" d="M134.66,91.75c-.43,1.3-.86,2.6-1.29,3.9-10.99,24.54-26.2,46.71-39.33,70.05-12.83,22.8-26.18,45.31-39.55,67.8-1.33,2.24-2.17,5.21-5.65,5.23,2.2-16.01,4.32-32.03,6.63-48.02,3.55-24.54,7.39-49.03,10.74-73.59.8-5.89,3.56-8.31,9.09-9.62,17.84-4.24,35.57-8.91,53.32-13.49,2.07-.53,4.02-1.5,6.03-2.26Z"/>
        <path class="cls-17" d="M492.14,251.57c-18.95-3.39-37.91-6.77-56.86-10.19-1.88-.34-3.72-.89-5.59-1.34,6.34-13.44,12.68-26.89,19.02-40.33,3.68-7.79,7.36-15.59,11.04-23.38.68-2.4,2.7-3.3,4.74-3.99,9.21-3.11,18.73-5.03,28.14-7.4,1.27-.32,2.58-.18,3.65.76,3.16.51,2.65,2.98,2.5,5.03-1.48,20.12-2.85,40.25-4.65,60.35-.61,6.83.21,13.81-2,20.48Z"/>
        <path class="cls-3" d="M388.22,510.59c6.17-13.44,12.34-26.88,18.51-40.32,3.69,1.33,4.71,4.85,6.26,7.83,17.98,34.55,35.86,69.15,53.85,103.69,7.19,13.81,14.64,27.49,21.84,41.3.88,1.69,3.17,3.4,1.09,5.77-19.89-22.7-39.83-45.35-59.66-68.1-13.03-14.95-25.88-30.04-38.84-45.05-.84-.97-1.88-1.76-2.83-2.64-.81-.76-.93-1.58-.22-2.48Z"/>
        <path class="cls-3" d="M496.29,165.71c-11.93,4.39-24.77,5.64-36.53,10.62-6.37.11-12.15,2.88-18.2,4.35-4.14,1-6.77,1.01-10.36-1.96-12.76-10.54-12.83-10.26-8.42-26.02,5.23-18.7,10.16-37.49,15.34-56.2.96-3.46.89-6.71.19-10.2-2.84-14.15-5.43-28.34-8.14-42.52-.73-3.83.25-6.34,4.61-6.79,4.6-.47,6.11-1.67,11.49-3.19,3.95-1.12,4.29,2.99,5.21,5.3,3.35,8.42,6.37,16.96,9.46,25.48.88,2.43,1.44,5.03,4,6.4-.18,4.99-4.74,6.19-7.74,8.5-10.72,8.26-8.78,6.54-3.23,15.98,3.38,5.75,7.36,11.12,10.88,16.78,1.43,2.29,3.56,4.58,1.45,7.61-6.69,3.81-14.33,4.73-21.51,7.02-4.81,1.53-7.66,4.13-8.92,9.15-1.89,7.56-3.99,15.07-5.96,22.61-2.17,8.31,3.98,15.01,12.57,13.26,10.82-2.2,21.29-5.85,31.98-8.61,9.64-2.49,19.1-5.65,28.81-7.9,4.13-.96,7.61-2.62,9.47-6.99,1.83-4.32,1.61-7.77-1.94-11.11-5.98-5.64-11.48-11.78-17.66-17.24-1.89-1.67-4.36-3.11-3.57-6.34,6.16-2.06,10.63.45,14.24,5.27,6.22,5.99,12.4,12.01,18.68,17.94,1.84,1.74,2.12,3.45,1.21,5.77-1.9,4.82-3.64,9.7-5.29,14.61-.71,2.11-2.01,3-4.12,3.53-6.03,1.5-11.99,3.25-17.98,4.9Z"/>
        <path class="cls-34" d="M48.84,238.74c9.99-16.88,20.07-33.71,29.95-50.65,17.62-30.2,35.11-60.48,52.69-90.7.41-.7,1.25-1.16,1.89-1.73-4.58,19.7-9.14,39.42-13.76,59.11-3.99,16.98-8.18,33.92-11.98,50.94-.96,4.28-3.17,6.66-6.93,8.55-15.23,7.64-30.35,15.5-45.49,23.31-1.89.97-4.07,1.63-5.01,3.85-2.35.06-2.12-1.17-1.34-2.68Z"/>
        <path class="cls-6" d="M487.9,759.16c-2.46,2.06-5.39.99-8.08,1.02-11.42.13-22.86-.29-34.26.2-5.98.26-10.46-.88-12.94-6.68-4.41-2.69-5.77-7.8-9.04-11.4-4.79-9.71-11.08-18.54-16.39-27.95-.02-.7.17-1.34.56-1.92,8.1-4.33,16.54-7.1,25.9-5.49,18.08,17.41,36.16,34.81,54.24,52.22Z"/>
        <path class="cls-16" d="M325.61,751.26c3.46,6.71,6.83,13.48,10.42,20.12,1.7,3.14,1.64,4.56-2.52,4.51-16-.2-32-.19-48-.26-2.65-2.53-2.39-5.87-2.46-9.09-.19-8.4.39-16.83-1.04-25.19-.68-3.97.67-7.67,2.21-11.27-.05-.39.03-.75.23-1.09.97-2.19,2.82-3.27,5.05-3.28,6.99-.05,13.9-1.5,20.9-1.12.7.11,1.39.34,2.03.64,5.77,7.97,11.12,16.17,13.18,26.04Z"/>
        <path class="cls-20" d="M433.66,706.94c-8.39,2.5-17.25,3.18-25.43,6.5-4.69-2.41-5.97-7.53-8.94-11.31-1.97-2.5-3.79-5.14-5.65-7.74-4.03-6.56-8.38-12.9-12.49-19.41-1.44-2.28-3.5-4.51-1.99-7.61,10.04-5.41,21.03-8.49,31.55-12.73,1.77-.71,3.62-1.31,5.4-2.04.97-.3,1.96-.35,2.96-.13.62.25,1.19.58,1.72,1.01,2.99,11.9,5.98,23.8,8.94,35.71.31,1.25.31,2.59,1.48,3.46-.54,4.99,1.77,9.5,2.44,14.29Z"/>
        <path class="cls-34" d="M111.33,325.88c2.58,8.79,1.04,17.93,2.25,26.89,1.45,10.81,1.25,21.84,1.77,32.77-20.78-12.84-40.03-27.88-61.83-42.21,20.19-6.1,39.01-11.78,57.82-17.46Z"/>
        <path class="cls-3" d="M293.56,375.15c-1.39,2.12-3.49,1.36-5.31,1.12-16.07-2.07-32.14-4.23-48.21-6.36-2.53-.48-3.82-2.02-3.43-4.56,2.25-14.74,4.33-29.51,8.45-43.89.24-.82.88-1.48,1.53-2.07.84,0,1.68,0,2.52,0,3.6-.77,4.7,2.3,6.31,4.31,9.22,11.54,18.09,23.36,27.35,34.87,3.32,5.69,9.78,9.36,10.79,16.56Z"/>
        <path class="cls-13" d="M414.17,366.52c-14.35,5.22-27.25,13.57-41.38,19.27-3.94-.97-2.34-4.16-2.64-6.59.67-1.39,1.69,2.44,2.25-.14,3.6-16.69,10.9-32.17,15.89-48.41.62-2.02,1.43-4.14,3.91-4.75,7.73,8.34,15.66,16.52,22.12,25.95-.04,4.89-.09,9.78-.13,14.67Z"/>
        <path class="cls-31" d="M281.64,359.73c-9.14-11.5-18.27-23.02-27.44-34.5-1.61-2.01-3.39-3.89-5.1-5.83-.34-.85-.68-1.71-1.02-2.56,20.28,4.76,40.56,9.53,60.84,14.29.16,1.47.02,2.84-1.18,3.89-6.28,7.14-13.1,13.75-19.85,20.43-1.81,1.79-3.37,4.04-6.27,4.27Z"/>
        <path class="cls-13" d="M246.59,319.4c-2.47,14.07-5.01,28.14-7.34,42.23-.45,2.72-2.31,5.81.79,8.28-13.41-1.62-26.83-3.24-40.24-4.85,12.19-14.15,26.15-26.58,39.19-39.9,2.18-2.22,3.57-5.84,7.6-5.76Z"/>
        <path class="cls-15" d="M503.8,118.97c-4.62-1.93-8.96-4.65-14.13-5-1.78.44-2.9-.47-3.8-1.83-3.88-13.74-5.8-27.87-8.21-41.9-.37-2.13-.24-4.35,1.78-5.88,2.47,1.63,3.31,4.52,5.15,6.64,5.82,8.76,11.45,17.65,17.53,26.23,3.75,5.29,5.3,10.51,2.66,16.7-.65,1.54-.66,3.35-.97,5.04Z"/>
        <path class="cls-42" d="M211.71,281.89c-.11-.45-.23-.9-.34-1.34-6.31-7.8-12.9-15.34-20.09-22.35-1.67-1.63-3.06-3.53-4.58-5.31.56-7.06,5.22-11.49,10.11-15.77,1.09-.07,1.8.29,1.74,1.53,4.22,12.42,8.46,24.84,12.65,37.27.61,1.82,1.03,3.71,1.53,5.56-.29.26-.63.4-1.02.43Z"/>
        <path class="cls-36" d="M284.22,730.07c.48,15.18,2.03,30.33,1.29,45.55-5.31,1.18-8.27.03-8.5-6.38-.16-4.38.15-9.01-1.6-13.28-2.62-10.53,1.91-18.61,8.81-25.9Z"/>
        <path class="cls-20" d="M311.56,726.38c-8.98,1.42-18.18.57-27.11,2.6-.58-2.51-1.16-5.03-1.74-7.54,5.17-5.56,12.46-4.16,18.86-5.61,1.55-.35,3.37.47,4.78-.9,1.75.32,3.5.63,5.25.95,2.7,3.51,2.53,7.01-.04,10.5Z"/>
        <path class="cls-1" d="M306.35,714.93c1.03,2.43-.68,2.19-2.22,2.47-7.15,1.28-14.28,2.69-21.42,4.05-2.69-3.44-2.74-7.97-4.79-11.67,9.75.17,18.89,3.76,28.42,5.16Z"/>
        <path class="cls-15" d="M283.02,273.94c-6.48-11.29-10.04-23.82-15.09-35.72-6.25-14.72-11.94-29.68-17.83-44.56-.85-2.15-2.29-4.28-.93-6.76,3.12-4.92,8.24-5.43,13.32-6.05,13.56-1.76,26.96-4.55,40.49-6.51,3.17-.46,6.31-1.33,9.55-.83,4.82,1.02,4.98,6.8,8.92,8.74.86.64,1.75,1.2,2.78,1.6,8.33,3.26,10.05,2.43,13.08-6.39.91-3.15-.47-5.89-1.49-8.71-.79-2.19-2-4.33-1.24-6.82,5.89-5.57,13.68-8.55,19.39-14.37,4.65-2.4,8.96-6.15,14.81-3.71,9.13,25.98,19.21,51.62,27.46,77.9-.23.21-.47.43-.7.64-4.78.64-7.28-3.21-10.29-5.63-4.3-3.45-8.38-4.19-13.64-2.29-7.63,2.77-15.4,5.23-23.42,6.71-1.79.33-3.22,1.11-3.74,3.03-2.7,7.2-4.46,14.69-6.82,21.98-1.09,3.35-2.53,6.32-5.67,8.18-14.31,6.95-29.04,12.97-43.5,19.56-1.75.8-3.64,1.51-5.45,0Z"/>
        <path class="cls-15" d="M197.29,98.4c23.05-8.3,46.1-16.59,69.14-24.9.78-.28,1.49-.78,2.23-1.17.95-2.21,3.03-2.98,5.02-3.73,15.26-5.75,30.71-10.97,46.01-16.62,1.65-.61,3.35-.69,5.07-.55.19.1.38.2.58.29,14.21,6.37,18.38,19.54,22.38,32.87.74,2.47,1.91,4.81,2.89,7.21.42,1.34.85,2.68,1.27,4.01-.46,4.01-4.1,4.09-6.69,5.07-26.94,10.22-54.16,19.67-81.22,29.57-7.53,2.75-15.03,5.57-22.56,8.33-3.63,1.33-7.2,3.13-11.28,2.54-2.58-.64-4.14-2.6-4.67-4.88-3.29-14.16-13.47-22.93-24.09-31.45-2.06-1.65-4.91-3.05-4.08-6.59Z"/>
        <path class="cls-11" d="M229.88,140.26c25.15-9.01,50.36-17.83,75.41-27.11,15.54-5.76,31.48-10.43,46.59-17.33,5.66-.7,10.69-3.35,15.93-5.32,2.7-1.02,4.13-.91,5.31,2.22,4.94,13.16,10.01,26.28,15.4,39.26,1.5,3.62.04,4.4-2.8,5.41-5.69,2.01-11.28,4.29-16.91,6.46-5,1.11-9.71,2.98-14.25,5.33-7.05,3.2-13.2,9.07-21.91,7.32-2.75-1.74-3.63-4.71-4.77-7.48-2.95-7.18-5.79-14.4-8.66-21.61-1.34-3.38-3.36-4.89-6.98-3.23-.78.36.22-.05-.6.24-15.68,5.61-13.31,4.31-8.24,17.56,2.08,5.43,4.45,10.76,6.26,16.29.73,2.22,1.93,4.4.85,6.86-1.97,2.51-4.91,3.33-7.7,4.39-13.39,5.09-26.89,9.87-40.87,13.15-4.26,1.41-8.52,2.81-12.77,4.22-4.55-5.61-6-12.67-8.8-19.09-1.55-3.57-3.05-4.8-7.19-3.85-11.91,2.73-23.95,4.87-35.94,7.24-8.12,5.45-17.84,5.62-26.84,8.17-2.45.69-5.18.54-7.22,2.43-2,2.84-2.96,6.18-4.46,9.25-1.02,2.08-1.89,4.42-4.71,4.77-1.96-5.88-3.94-11.74-5.86-17.63-1.02-3.14-.2-5.12,3.22-6.41,10.63-4,21.14-8.33,31.69-12.53.75-2.61,2.98-3.53,5.17-4.42,11.52-4.69,23.1-9.24,34.71-13.68,2.29-.88,4.58-.84,6.92-.88Z"/>
        <path class="cls-20" d="M331.04,252.97c1.96-1.62,3.51-3.2,4.23-6.02,2.17-8.47,4.96-16.77,7.51-25.14,2.35-1.36,4.05-.01,5.78,1.34,11.02,8.62,21.45,17.95,32.13,26.97,1.61,1.36,3.24,2.98,2.39,5.53-6.68,10.23-15.02,19.29-21.1,29.94-1.56.92-2.73,2.6-5.08,1.27-9.43-5.34-18.96-10.51-28.45-15.74-3.03-3.47-.5-6.83.19-10.23.55-2.72,2.07-5.14,2.4-7.93Z"/>
        <path class="cls-15" d="M383.08,255.64c-12.6-12.27-25.81-23.81-40.29-33.84,1.35-.83,2.7-1.66,4.05-2.5,1.1.73,2.34,1.35,3.63,1.1,11.81-2.3,23.56.18,35.33.25,3.48.02,6.53,2.15,10.02,1.37,0,0,.43-.26.44-.26,4,7.69,2.7,16.42,4.79,24.5.63,2.44-1.61,3.26-3.45,3.96-4.83,1.84-9.68,3.63-14.53,5.44Z"/>
        <path class="cls-34" d="M324.77,51.43c-2.94,3.27-7.29,3.5-11.05,4.88-14.96,5.5-30.03,10.7-45.05,16.01-1.16-7.53,1.59-14.61,2.67-21.86,1.85-12.46,4.19-24.85,6.31-37.27.22-1.28.39-2.56,1.53-3.41,12.55,11.27,25.1,22.53,37.65,33.8,2.65,2.62,5.29,5.24,7.94,7.86Z"/>
        <path class="cls-20" d="M479.42,64.36c.78,13.96,4.93,27.35,6.83,41.12.32,2.33.61,4.66.91,6.99-6.13,4.9-12.95,7.54-20.93,6.34-4.9-10.11-12.09-18.78-17.9-28.33-2.05-3.37-2.39-5.26,1.27-7.71,5.35-3.57,10.24-7.83,15.32-11.79,3.25-2.41,6.5-4.83,9.77-7.22,1.74-1.27,3.59-3.08,4.72.59Z"/>
        <path class="cls-42" d="M331.04,252.97c2.43,2.06.79,4.24.26,6.43-.95,3.91-3.12,7.52-2.84,11.72-4.91,11.25-7.47,23.27-11.56,34.79-.5,1.41-1.03,2.82-1.55,4.22-18.25-8.34-36.51-16.67-55.84-25.5,8.45-3.84,15.98-7.27,23.52-10.69,16.01-6.99,32.01-13.98,48.02-20.97Z"/>
        <path class="cls-3" d="M392.19,325.9c-6.63,19.06-13.27,38.12-19.96,57.32-.76-1.47-1.43-2.74-2.09-4.02-2.04-17.12-4.1-34.23-6.09-51.35-.32-2.79-.36-5.6-.53-8.41-.94-5.57,3.2-4.11,5.56-3.48,7.58,2.03,15.25,3.98,21.82,8.62.43.44.86.88,1.29,1.32Z"/>
        <path class="cls-11" d="M281.64,359.73c7.82-8.08,15.64-16.16,23.48-24.23.72-.74,1.5-1.73,2.63-.47-3.96,12.96-7.92,25.91-11.88,38.87-.77.41-1.55.83-2.32,1.24-3.97-5.14-7.94-10.28-11.91-15.41Z"/>
        <path class="cls-13" d="M390.9,324.58c-7.63-1.11-14.55-4.59-21.91-6.6-2.09-.57-4.57-2.49-5.47,1.46-1.32-9.48-2.64-18.96-3.96-28.43.46-.3.93-.6,1.39-.9,10.36,11.14,20.59,22.41,29.94,34.48Z"/>
        <path class="cls-16" d="M419.5,653.37l-2.44.34c-16.11,2-32.27,1.03-48.42.89-15.71.59-31.42.23-47.13.2-2.59,0-5.2-.35-7.03-2.6.94-26.95,1.84-53.9,2.82-80.85.71-19.41,1.52-38.81,2.29-58.21,1.62-1.91.86-4.24,1.11-6.39,3.69-.74,4.74,2.37,6.22,4.52,26.25,38.15,52.46,76.32,78.25,114.78,4.8,7.16,10.82,13.57,13.76,21.92.63,1.8,2,3.43.56,5.41Z"/>
        <path class="cls-8" d="M394.81,693.56c-5.13.08-10.27.15-15.4.23-3.05-1.68-6.37-.86-9.56-.89-17.11-.14-34.22-.21-51.34-.15-3.56.01-6.08-.49-5.39-4.89,1.87-11.83.3-23.8,1.36-35.67,18.11.06,36.22.12,54.33.19,5.6,3.86,8.48,9.5,10.4,15.78,4.74,8.75,11.51,16.25,15.59,25.4Z"/>
        <path class="cls-33" d="M312.86,703.06c-.08,7.94-.16,15.87-.24,23.81-.38-.11-.73-.27-1.05-.49.01-3.5.02-7,.04-10.5.5-4.27-1.3-8.76,1.26-12.82Z"/>
        <path class="cls-20" d="M229.88,140.26c-15.6,6.33-31.21,12.66-46.81,18.98-7.61-6.44-8.53-13.21-3.69-22.43,6.48-12.35,11.18-25.63,16.64-38.51.42.03.84.06,1.26.1,5.31,4.7,10.31,9.83,16.01,13.99,7.74,5.65,10.14,14.18,13.5,22.28.83,2,1.29,4.15,3.08,5.6Z"/>
        <path class="cls-15" d="M154.02,195.82c2.78-4.93,5.06-10.09,6.76-15.49,2.89-1.45,5.03.2,6.67,2.1,9.26,10.71,19.26,20.76,28.14,31.8,1.11,1.38,1.8,2.91,2.14,4.62-4.23,6.11-4.77,12.33-.54,18.7-3.5,5.11-6.99,10.23-10.49,15.34-2.12-1.71-4.24-3.42-6.36-5.12-8.84-4.47-14.75-12.27-21-19.44-3.98-4.57-9.67-7.96-11.46-14.33.07-6.73,4.54-11.97,6.14-18.18Z"/>
        <path class="cls-28" d="M147.88,213.99c10.82,11.26,21.64,22.51,32.45,33.77-1.28,1.79-2.67.78-3.97.1-22.16-11.61-44.3-23.23-66.27-35.71,12.69.72,25.44-3.45,37.79,1.85Z"/>
        <path class="cls-25" d="M197.21,219.24c-10.88-12.39-21.76-24.78-32.64-37.18-1.01-1.15-1.99-2.31-3.78-1.74,3.83-3.33,8.86-2.77,13.32-3.95,7.64-2.01,15.42-3.48,23.13-5.18-2.74,1.61-2.49,3.14-.5,5.5,4.69,5.56,8.88,11.55,13.59,17.1,2.08,2.45,1.94,4.06.29,6.66-4,6.3-9.26,11.78-12.23,18.75-.38.57-.77.55-1.17.03Z"/>
        <path class="cls-41" d="M197.21,219.24c.39,0,.78-.02,1.17-.03,4.59,5.12,8.87,10.58,13.88,15.25,4.87,4.54-.18,5.93-1.92,8.47-2.34,3.4-4.56,3.06-7.05.03-1.34-1.64-3.14-2.89-4.73-4.32-.45-.37-.91-.73-1.36-1.1-1.69-3.79-7.61-5.48-7.05-9.44.46-3.22,4.57-5.93,7.06-8.86Z"/>
        <path class="cls-11" d="M407.97,748.24c-.12-.85-.03-1.8-.39-2.53-5.15-10.41-3.74-20.68.51-30.92,7.77,7.9,12.88,17.43,16.86,27.64,1.74,3.29,1.55,6.21-1.62,8.57-.65,2.01-1.54,3.97-1.91,6.03-.57,3.14-2.6,3.32-5.14,3.26-2.41-.06-4.64.13-5.43-2.99-.78-3.06-1.91-6.03-2.88-9.04Z"/>
        <path class="cls-5" d="M423.33,751c.54-2.86,1.08-5.71,1.62-8.57,4.17,2.66,5.62,7.17,7.68,11.27-3.14-.75-7.34,2.13-9.3-2.7Z"/>
        <path class="cls-11" d="M359.63,393.55c9.18,39.01,18.35,78.01,27.53,117.02-.88,3.9-4.12,3.44-6.7,3.12-17.7-2.2-35.49-3.59-53.16-6.04-2.72-.38-4.84-1.63-6.61-3.64-.53-25.43,1.06-50.79,2.27-76.17.26-5.38.08-10.77.1-16.16,11.59-7.24,23.93-12.98,36.56-18.12Z"/>
        <path class="cls-18" d="M320.7,504c13.57,2.74,27.4,3.41,41.09,5.2,5.99.78,11.99,1.45,17.99,2.17,2.52.3,5.12,1.34,7.37-.81.35,0,.71.02,1.06.03.07.83.15,1.65.22,2.48,5.31,22.87,10.57,45.75,15.94,68.61,5.27,22.45,10.66,44.87,15.95,67.31.34,1.45.32,2.99.47,4.48,0,0-.65,0-.65,0,0,0-.64-.1-.64-.11-.64-6.93-5.74-11.48-9.28-16.75-19.48-29.01-39.24-57.84-58.94-86.71-9.36-13.72-18.8-27.38-28.25-41.04-.59-.85-1.54-1.43-2.33-2.14,0-.91,0-1.83,0-2.74Z"/>
        <path class="cls-6" d="M466.24,118.81c6.98-2.11,13.95-4.23,20.93-6.34.83.5,1.66,1,2.5,1.5,7.94,7.61,15.88,15.22,23.8,22.84,5.2,4.99,2.29,17.11-4.73,19.08-22.44,6.3-44.89,12.55-67.39,18.64-7.37,1.99-16.1-7.18-14.08-14.45,2.6-9.36,5.27-18.7,7.69-28.1.77-2.98,1.9-4.99,5.12-5.84,8.76-2.31,17.45-4.87,26.17-7.33Z"/>
        <path class="cls-40" d="M379.22,668.16c-4.52-4.57-7.21-10.34-10.4-15.78,14.04,0,28.08-.03,42.12-.01,2.11,0,4.37-.47,6.12,1.34-12.26,5.73-24.89,10.52-37.84,14.46Z"/>
        <path class="cls-4" d="M310.06,164.44c-4.22-10.63-8.37-21.3-12.7-31.88-1.29-3.15-1.4-4.94,2.6-6.04,5.98-1.66,12.33-7.24,17.41-5.33,5.25,1.98,5.36,10.6,7.94,16.21,2.7,5.87,4.81,12.02,7.18,18.04,2.08,1.7,4.61,3.23,2.53,6.54,1.42,5.2,6.68,9.48,3.76,15.72-5.45,3.48-10.71,7.61-17.88,5.26-6.4.82-3.84-5.95-6.8-8.03-3.23-2.77-5.37-5.96-4.04-10.49Z"/>
        <path class="cls-26" d="M395.82,222.02c-5.35,2.48-11.11,1.52-16.45.87-8.83-1.08-17.62-.81-26.43-1.09-2.35-.07-4.87.3-6.11-2.49,8.78-1.16,17.13-4.1,25.3-7.19,5.42-2.05,9.28-1.18,13.39,2.34,3.22,2.77,6.85,5.06,10.3,7.56Z"/>
        <path class="cls-20" d="M310.06,164.44c1.35,3.5,2.69,6.99,4.04,10.49-15.68,2.46-31.35,4.93-47.03,7.36-1.68.26-3.41.27-5.11.39,12.02-5.77,24.95-9.13,37.29-14.08,3.59-1.44,7.21-2.77,10.82-4.16Z"/>
        <path class="cls-38" d="M285.74,219.14c4.89-3.77,9.78-7.54,14.68-11.3.51-.39,1.02-.91,1.6-1.05.77-.19,2.08-.42,2.35-.04,3.95,5.38,12.32-2.92,15.57,5.17.97,2.42,3.55,4.2,5.54,6.44-2.29,1.86-4.13.04-6.02-.18-8.89-1.11-17.69-1.39-26.38,1.59-2.29.78-5.02.99-7.33-.64Z"/>
        <path class="cls-9" d="M285.74,219.14c4.34-.92,8.9-1.3,12.98-2.89,7.4-2.87,14.07-1.32,20.73,1.93-6.56,2.01-13.01,4.57-19.71,5.86-5.16.99-10.04-1.23-14.01-4.91Z"/>
        <path class="cls-21" d="M320.9,182.96c6.24-.8,11.5-4.93,17.88-5.26-.17,4.25-1.63,9.2-5.33,9.95-4.18.84-9.61.18-12.55-4.68Z"/>
        <path class="cls-7" d="M335.02,161.98c-.84-2.18-1.68-4.36-2.53-6.54,7.97.08,14.38-5.33,22.06-6.25-5.9,5.19-11.79,10.41-19.53,12.8Z"/>
        <path class="cls-10" d="M238.42,126.67c4.47-5.56,8.23-10.2,11.94-14.88,1.2-1.52,2.67-2.13,4.53-1.71,5.38,1.23,10.75,2.51,15.98,5.01-2.84,0-5.7.17-8.53-.04-3.34-.25-6.01.67-7.58,3.69-3.24,6.2-8.97,7.18-16.34,7.93Z"/>
        <path class="cls-23" d="M313.83,103.22c3.3-6.79,6.24-12.76,9.09-18.77.94-1.99,1.97-3.19,4.46-2.27,3.35,1.23,6.8,2.16,10.44,3.98-8.51-2.15-11.16,3.26-12.84,9.32-1.45,5.26-5.02,7.08-11.15,7.73Z"/>
        <path class="cls-15" d="M291.95,147.71q4.37,10.61-6.29,14.57c-9.12,3.37-18.31,6.57-27.38,10.07-3.36,1.3-4.93.52-6.13-2.86-2.17-6.1-4.82-12.04-7.19-18.07-.65-1.66-2.33-3.5.27-5.03,9.19-2.09,18.43-3.5,27.84-1.73,2.08.65,3.12,2.11,3.2,4.29.11,2.96.56,6.04,4.37,5.83,3.81-.2,3.72-3.5,3.9-6.32.04-.65.29-1.25.59-1.84,2.71-2.4,4.96-1.89,6.81,1.08Z"/>
        <path class="cls-15" d="M346.6,109.88c2.88-1.68,5.94-2.87,9.21-3.52,5.48,8.15,9.83,16.69,9.14,26.94-6.98,2.64-14.07,5.05-20.91,8.02-3.92,1.71-5.98.98-7.1-3.06-.57-2.05-1.39-4.03-2.09-6.04-1.16-10.12,5.25-16.26,11.76-22.35Z"/>
        <path class="cls-32" d="M275.47,146.48c-10.08-.03-20.15-.06-30.23-.08,12.33-4.61,24.67-9.22,37-13.84,2.56-.96,4.02-.17,4.92,2.45,1.47,4.28,3.18,8.48,4.79,12.71-2.09-1.08-4.19-2.19-6.34-.12-3.49.61-6.81-.35-10.14-1.11Z"/>
        <path class="cls-14" d="M364.95,133.29c-3.05-8.98-6.09-17.96-9.14-26.94q9.95-3.93,13.83,6.29c.84,2.21,1.71,4.41,2.57,6.61q4.27,10.92-7.26,14.04Z"/>
        <path class="cls-30" d="M346.6,109.88c-3.39,7.73-10.51,13.49-11.76,22.35-1.28-2.94-2.2-6.11-3.91-8.78-3.84-6.01-1.46-8.76,4.57-10.27,3.74-.93,7.4-2.19,11.09-3.3Z"/>
        <path class="cls-24" d="M181.46,216.92c-7.99-1.44-15.31-2.86-22.66-4.05-2.78-.45-2.52-1.68-1.4-3.46.34-.55.76-1.04,1.13-1.58,7.89-11.4,7.95-11.45,16.38-.47,2.15,2.81,5.28,5.01,6.56,9.56Z"/>
        <path class="cls-37" d="M448.96,161.32c-1.26,1.91-1.08,5.37-4.02,5.21-2-.11-5.34-.84-5.21-3.75.09-2.01.81-5.33,3.73-5.23,2.05.07,4.69.97,5.5,3.77Z"/>
        <path class="cls-2" d="M441.09,151.4c-.92-.09-1.71-.62-1.48-1.51.17-.65.95-1.44,1.6-1.59.89-.22,1.5.6,1.46,1.51-.04.9-.67,1.44-1.58,1.59Z"/>
        <path class="cls-35" d="M455.52,148.78c-.11.98-.76,1.48-1.64,1.34-.48-.07-1.15-.59-1.25-1.02-.21-.87.28-1.66,1.23-1.74.91-.08,1.45.55,1.67,1.43Z"/>
        <path class="cls-39" d="M454.02,157.59c.88.23,1.47.78,1.43,1.7-.04,1.08-.91,1.35-1.74,1.14-.46-.12-1.07-.73-1.11-1.17-.09-.88.54-1.46,1.43-1.67Z"/>
        <path class="cls-22" d="M275.47,146.48c3.66-2.12,7.09-2.27,10.14,1.11,1.7,3.5,1.54,6.7-1.97,8.94-2.34,1.49-4.97,1.43-7.2-.31-3.63-2.83-2.74-6.28-.97-9.75Z"/>
        <path class="cls-27" d="M356.94,125.06c-.3,3.77-2.27,6.17-5.99,6.36-3.97.2-6.68-1.91-6.72-6.05-.03-3.62,2.01-6.13,5.82-6.38,4.21-.29,6.1,2.36,6.89,6.08Z"/>
      </g>
    </g>
  </g>
</svg>