<?xml version="1.0" encoding="UTF-8"?>
<svg xmlns="http://www.w3.org/2000/svg" version="1.1" viewBox="0 0 600 500">
  <defs>
    <style>
      .cls-1 {
        fill: #788a5b;
      }

      .cls-2 {
        fill: #6f571a;
      }

      .cls-3 {
        fill: #2b2b2b;
      }

      .cls-4 {
        fill: #dfdfdf;
      }

      .cls-5 {
        fill: #a1be77;
      }

      .cls-6 {
        fill: #bd9980;
      }

      .cls-7 {
        fill: #d7bca6;
      }

      .cls-8 {
        fill: #e2c9b7;
      }

      .cls-9 {
        fill: #798c5c;
      }

      .cls-10 {
        fill: #474747;
      }

      .cls-11 {
        fill: #607344;
      }

      .cls-12 {
        fill: #826520;
      }

      .cls-13 {
        fill: #bd9b81;
      }

      .cls-14 {
        fill: #b5b5b5;
      }

      .cls-15 {
        fill: #937636;
      }

      .cls-16 {
        fill: #75875b;
      }

      .cls-17 {
        fill: #c7ac3d;
      }

      .cls-18 {
        fill: #987726;
      }

      .cls-19 {
        fill: #54514f;
      }

      .cls-20 {
        fill: #d9bda8;
      }

      .cls-21 {
        fill: #b5cbc1;
      }

      .cls-22 {
        fill: #b88f2f;
      }

      .cls-23 {
        fill: #343230;
      }

      .cls-24 {
        fill: #c7ad3d;
      }

      .cls-25 {
        fill: #b88e2f;
      }

      .cls-26 {
        fill: #b08b2d;
      }

      .cls-27 {
        fill: #f8f9f7;
      }

      .cls-28 {
        fill: #876a57;
      }

      .cls-29 {
        fill: #798c5d;
      }

      .cls-30 {
        fill: #fbfbfa;
      }

      .cls-31 {
        fill: #7f621d;
      }

      .cls-32 {
        fill: #767779;
      }

      .cls-33 {
        fill: #71581a;
      }

      .cls-34 {
        fill: #819166;
      }

      .cls-35 {
        fill: #637547;
      }

      .cls-36 {
        fill: #48775f;
      }

      .cls-37 {
        fill: #dcdcdb;
      }

      .cls-38 {
        fill: #627546;
      }

      .cls-39 {
        fill: #bc987e;
      }

      .cls-40 {
        fill: #b4b4b4;
      }

      .cls-41 {
        fill: #fcfbfb;
      }

      .cls-42 {
        fill: #ccc;
      }

      .cls-43 {
        fill: #6f7173;
      }

      .cls-44 {
        fill: #c3c3c3;
      }

      .cls-45 {
        fill: #c6c6c6;
      }

      .cls-46 {
        fill: #575757;
      }

      .cls-47 {
        fill: #484747;
      }

      .cls-48 {
        fill: #987626;
      }

      .cls-49 {
        fill: #548c71;
      }

      .cls-50 {
        fill: #dfc54c;
      }

      .cls-51 {
        fill: #788b5e;
      }

      .cls-52 {
        fill: #b9902f;
      }

      .cls-53 {
        fill: #bbc45b;
      }

      .cls-54 {
        fill: #69ab8b;
      }

      .cls-55 {
        fill: #fdfdfc;
      }

      .cls-56 {
        fill: #86c5a7;
      }

      .cls-57 {
        fill: #bd997f;
      }

      .cls-58 {
        fill: #846654;
      }

      .cls-59 {
        fill: #866754;
      }

      .cls-60 {
        fill: #e0c74e;
      }

      .cls-61 {
        fill: #af8a2d;
      }

      .cls-62 {
        fill: #6baa8b;
      }

      .cls-63 {
        fill: #7a9b5d;
      }

      .cls-64 {
        fill: #487861;
      }

      .cls-65 {
        fill: #8d6e5b;
      }

      .cls-66 {
        fill: #798b5c;
      }

      .cls-67 {
        fill: #c5c5c5;
      }

      .cls-68 {
        fill: #4f5253;
      }

      .cls-69 {
        fill: #474847;
      }

      .cls-70 {
        fill: #ba977e;
      }

      .cls-71 {
        fill: #8e705c;
      }

      .cls-72 {
        fill: #3a3735;
      }

      .cls-73 {
        fill: #788b5d;
      }

      .cls-74 {
        fill: #a2bf77;
      }

      .cls-75 {
        fill: #a2be77;
      }

      .cls-76 {
        fill: #ebebea;
      }

      .cls-77 {
        fill: #bc997f;
      }

      .cls-78 {
        fill: #81641e;
      }

      .cls-79 {
        fill: silver;
      }

      .cls-80 {
        fill: #4b7760;
      }

      .cls-81 {
        fill: #3a3938;
      }

      .cls-82 {
        fill: #e0c64d;
      }

      .cls-83 {
        fill: #e6e6e5;
      }

      .cls-84 {
        fill: #bb9a80;
      }

      .cls-85 {
        fill: #373534;
      }

      .cls-86 {
        fill: #846958;
      }

      .cls-87 {
        fill: #85c5a7;
      }

      .cls-88 {
        fill: #c19c37;
      }

      .cls-89 {
        fill: #bc987f;
      }

      .cls-90 {
        fill: #bc997e;
      }

      .cls-91 {
        fill: #876b27;
      }

      .cls-92 {
        fill: #8c9971;
      }

      .cls-93 {
        fill: #dbdbda;
      }

      .cls-94 {
        fill: #4e6231;
      }

      .cls-95 {
        fill: #788a5d;
      }

      .cls-96 {
        fill: #7f9e64;
      }

      .cls-97 {
        fill: #46765f;
      }

      .cls-98 {
        fill: #7c8b5f;
      }

      .cls-99 {
        fill: #876e5a;
      }

      .cls-100 {
        fill: #e7e7e6;
      }

      .cls-101 {
        fill: #785f23;
      }

      .cls-102 {
        fill: #548b71;
      }

      .cls-103 {
        fill: #5a5653;
      }

      .cls-104 {
        fill: #2d2d2d;
      }

      .cls-105 {
        fill: #7b8e5d;
      }

      .cls-106 {
        fill: #7a9a5c;
      }

      .cls-107 {
        fill: #bd9a80;
      }

      .cls-108 {
        fill: #8a9863;
      }

      .cls-109 {
        fill: #af8b2d;
      }

      .cls-110 {
        fill: #6bac8c;
      }

      .cls-111 {
        fill: #846723;
      }

      .cls-112 {
        fill: #846722;
      }

      .cls-113 {
        fill: #876855;
      }

      .cls-114 {
        fill: #a1be76;
      }

      .cls-115 {
        fill: #e3cab8;
      }

      .cls-116 {
        fill: #d3d3d3;
      }

      .cls-117 {
        fill: #484848;
      }

      .cls-118 {
        fill: #84c4a6;
      }

      .cls-119 {
        fill: #767879;
      }

      .cls-120 {
        fill: #d9bda7;
      }

      .cls-121 {
        fill: #ba9130;
      }

      .cls-122 {
        fill: #617344;
      }

      .cls-123 {
        fill: #947662;
      }

      .cls-124 {
        fill: #7d9261;
      }

      .cls-125 {
        fill: #866755;
      }

      .cls-126 {
        fill: #4a5f2d;
      }
    </style>
  </defs>
  <!-- Generator: Adobe Illustrator 28.7.1, SVG Export Plug-In . SVG Version: 1.2.0 Build 142)  -->
  <g>
    <g id="Layer_1">
      <g>
        <path class="cls-76" d="M181.03,65.86c-.25-.85-.7-1.76.84-1.79,3.36-.08,6.62-.87,10.02-.95,16.67-.41,33.35-.86,50-1.78,12.7-.71,25.4-1.23,38.11-1.8,13.14-.58,26.3-1.08,39.43-1.8,10.79-.59,21.61-.73,32.39-1.6,3.45-.28,4.77.19,3.97,4.55-5.07,27.95-9.68,55.99-14.47,83.99-.81,4.74-1.81,9.45-2.53,14.2-.35,2.31-1.82,2.76-3.68,2.93-5.73-.42-11.48-.49-17.22-.48-4,0-2.45,3.03-2.9,4.98,1.71,10.81,5.08,21.23,7.56,31.86.95,4.08,2.08,8.11,3.22,12.56-2.55-.52-2.85-2.42-3.74-3.78-1.32-2.09-2.95-3.93-4.64-5.73-9.34-12.44-17.87-25.44-26.85-38.13-1.7-2.4-3.66-3.36-6.57-3.54-20.03-1.2-40.08-2.05-60.11-3.27-7.15-.44-14.32-1.22-21.5-1.07-3.92.08-5.95-1.65-6.63-5.46-3.32-18.77-7.35-37.4-10.36-56.23-.51-3.16-.61-6.41-1.62-9.49-.16-1.88-.66-3.74-.54-5.65-.87-1.94-.91-4-.87-6.07-1.11-2.02-.48-4.38-1.29-6.46Z"/>
        <path class="cls-110" d="M452.58,374.15c6.87-.01,13.75.09,20.61-.09,2.65-.07,3.55.48,3.12,3.37-1.84,12.41-3.45,24.85-5.15,37.28,1.22,4.36.19,6.2-4.1,6.56-4.53.38-9.08.25-13.63.07-4.22.1-8.43.16-12.65,0-20.49.14-40.98.3-61.47-.07-2.12-.23-4.2-.57-5.69-2.33-.91-1.74-.39-3.45.26-5.09,3.78-9.53,7.44-19.12,11.37-28.59,2.72-4.12,3.83-9.38,8.59-12.05,7.18-.84,14.37-.31,21.56-.38,10.28-.1,20.55-.04,30.83-.01,2.19,0,4.44-.14,6.34,1.32Z"/>
        <path class="cls-82" d="M323.69,306.22c-.05-4.59-.11-9.19-.16-13.78-.04-.77-.12-1.53-.11-2.31.02-5.28,0-10.55-.02-15.83.02-8.02-.02-16.03.02-24.05,0-1.88-.19-3.83,1.23-5.39,3.77-.13,7.54-.27,11.31-.4.66.09,1.18.42,1.64.87,5.14,6.81,9.16,14.4,14.69,20.93.71,1.38,1.87,1.54,3.23,1.15,11.55-2.81,22.94-6.12,34.36-9.36,1.38-.39,2.67-1.27,4.22-.95,1.19,2.92,4.27,2.38,6.46,3.45,2.17,1.07,4.54,1.7,6.83,2.53.35,4.52-1.4,8.66-2.57,12.85-3.11,11.16-5.48,22.51-8.77,33.63-.32,1.12-.62,2.24-.86,3.38-1.53,3.86-.82,8.56-4.35,11.67-1.03.29-2.04.14-3.01-.21-10.83-3.95-21.71-7.75-32.62-11.48-4.66-1.59-4.46-5.15-4.52-8.83.02-3.83-.17-7.67.32-11.49,1.22-3.77.86-7.68.98-11.53.15-1.98,1.15-3.84.9-5.9-.07-.58.04.16.01-.43-.05.27-.05.54-.06.81-.02.56-.06,1.11-.25,1.64-1.05,1.48-1.18,3.09-.67,4.79.05.99.05,1.97,0,2.95-.44,1.89-.16,3.94-1.14,5.73-1.47,1.66-.76,3.52-.48,5.34-.1,2.62-.2,5.25-1.19,7.73-1.57,1.65-.67,3.73-.95,5.61-.15.4-.39.73-.72,1.01-.95.55-2,.62-3.06.63-2.12.04-4.3-1.25-6.34.34-.57.23-1.16.36-1.76.41-2.26-.07-4.64-1.34-6.71.64-.85.29-1.72.39-2.61.34-3.7-.44-3.48-3.14-3.34-5.79.02-.23.05-.46.08-.69Z"/>
        <path class="cls-53" d="M447.15,429.71c-11.35,1.18-22.7,2.41-34.06,3.54-20.4,2.01-40.79,3.98-61.2,5.93-16.47,1.58-32.93,3.25-49.42,4.59-9.25.75-18.39-1.27-27.57-2.04-17.07-1.43-34.1-3.26-51.15-4.91-20.4-1.98-40.8-3.97-61.19-5.94-5.66-.55-11.37-.67-16.96-1.84,2.67-1.4,4.67-3.67,7.08-5.43,17.29-.2,34.73-2.76,51.63,3.19,1.29.15,2.48.74,3.79.79,9.51-.88,19.06-.78,28.58-1.22.49-.15.99-.24,1.49-.31,2.51-.13,4.97-.58,7.44-1,5.15-.12,10.33.04,15.33-1.64,3.05-.52,6.13-.34,9.2-.34,23.11-.01,46.22.02,69.33-.03,3.83,0,7.29.53,9.8,3.74,1.63,1.42,3.58,1.73,5.68,1.73,6.83-.02,13.65-.14,20.47.05,2.92.08,4.4-.83,4.33-3.83.26-.47.64-.81,1.13-1.03,1.4-.56,2.86-.57,4.32-.57,15.49-.03,30.97.04,46.46-.05,4.22-.02,7.61,1.72,10.88,4,1.42.51,2.99.53,4.31,1.34.46.35.56.78.29,1.29Z"/>
        <path class="cls-87" d="M231.23,296.8c1.14,2.22,3.29,1.44,5.06,1.61,15.94,1.51,31.88,2.97,47.82,4.44,2.64,6.01,2,12.55,3.05,18.82.86,5.16.67,10.44,1.44,15.62,1.46,10.8,2.37,21.66,3.58,32.49.19,1.74.31,3.51-1.13,4.9-.5.31-1.04.64-1.61.66-12.4.34-24.8.9-37.18-.3-2.5-1.57-1.46-3.92-1.11-5.95,2.2-12.69,4.32-25.39,6.54-38.07,1.7-9.71,2.63-8.86-6.87-6.83-8.01,1.71-15.99,3.6-24.01,5.3-2.75.24-5.54,1.86-8.24-.16-1.68-3.76-.9-7.67-.67-11.55,1.38-4.73,2.06-9.68,4.3-14.16,1.75-1.74,3.59-3.41,5.37-5.12.99-.95,1.87-2.38,3.67-1.7Z"/>
        <path class="cls-110" d="M121.1,414.78c-1.34-12.16-2.56-24.34-4.11-36.48-.42-3.27.11-4.38,3.62-4.26,7.44.26,14.89.09,22.33.09,1.77-1.33,3.84-1.24,5.88-1.25,7.74-.05,15.47.07,23.21-.1,1.04-.1,2.01.12,2.93.58,4.52,2.38,8.91,5.01,13.46,7.37,3.8,1.98,4.22,3.31,2.46,7.02-4.56,9.65-8.89,19.4-13.59,28.99-.82,1.68-1.46,3.57-3.54,4.25-6.96.86-13.93.34-20.9.36-4.38.14-8.75.11-13.13.02-5.13.13-10.25.07-15.38-.13-.81-.04-1.56-.26-2.25-.7-1.5-1.71-1.75-3.64-1-5.75Z"/>
        <path class="cls-87" d="M452.58,374.15c-19.97.02-39.94.03-59.92.05-1.71-1.27-1.87-3.22-2.13-5.07-1.24-8.78-2.46-17.56-3.57-26.36.92-5.64,1.01-11.44,3.4-16.78,2.94-.5,2.33,2.04,2.55,3.37,1.65,10.07,2.75,20.23,4.21,30.34.7,4.86.61,4.82,5.4,3.1,5.08-1.82,10.05-3.95,15.14-5.74.51-.35,1.02-.7,1.46-1.13.17-.22.38-.43.52-.68q2.74-4.58-2.1-6.41c-2.11-2.83-2.49-6.11-2.49-9.49.6-1.46,1.96-2.09,3.19-2.84,10.16-6.22,20.1-12.79,30.26-19.01.41-.11.83-.2,1.26-.26,2.76.31,5.51.61,8.27.92,2.24.25,3.07.99,2.59,3.68-2.74,15.39-5.18,30.83-7.76,46.24-.34,2.03-.74,4.03-.27,6.08Z"/>
        <path class="cls-120" d="M211.69,192.52c2.46,12.42,4.7,24.89,7.5,37.23.89,3.91-.23,5.12-3.72,5.34-1.96.48-2.12-1.98-3.64-2.21-5.09-.09-7.8,3.1-9.86,7.17-5.77,1.85-11.26,4.86-17.64,4.15-1.31-.9-1.76-2.3-2.09-3.73-2.91-12.67-5.75-25.35-8.59-38.03-.19-.86-.25-1.74.05-2.59,3.43-2.07,6.3-.71,9.05,1.45.24,2.17-.28,5.04,3.58,3.91,2.21-.07,3.16,1.66,4.36,3.05,1.11,1.3,2.2,2.64,3.84,3.34.92.41,1.52,1.18,2.18,1.88,1.61,1.42,2.15.46,2.41-1.09,0-2.84-1.88-5.26-1.78-8.11.28-1.27.89-2.33,2-3.07,1.89-.64,5.5-.16,2.54-3.94-1.02-2.88,2.29-3.84,2.67-6.09-2.13-2.5-3.8-.32-5.6.51-1.36.88-2.9,1.36-4.41,1.89-2.12.47-3.93,1.54-5.59,2.89-2.31-.55-4.7-.42-7.03-.81-2.7-.58-4.13,1.52-5.95,2.81-.74.4-1.57.52-2.37.75-3.39-1.95-6.9-3.79-7.01-8.46,5.82-4.94,12.16-9.16,18.66-13.14,1.28-.78,2.75-.99,4.26-.85,5.61.8,11,2.57,16.55,3.64,2.29.44,4,1.64,4.68,4,.95,2.62.5,5.41.95,8.1Z"/>
        <path class="cls-17" d="M447.32,175.21c-1.95.72-2.8,2.36-3.66,4.1-4.87,9.83-9.8,19.63-14.71,29.44-3.25-2.77-4.89-6.71-7.3-10.1-2.94-4.13-5.66-8.42-8.49-12.62-1.34-3.04-3.46-5.54-5.57-8.04-4.42-7.55-9.94-14.34-14.79-21.6-.83-1.25-2.39-2.36-1.24-4.22,5.09-2.31,10.41-3.96,15.81-5.35,2.44-.72,4.15.68,5.88,2.01,8.9,6.84,17.39,14.18,26.23,21.08,1.72,1.34,3.29,2.9,5.38,3.69.96.33,1.96.59,2.45,1.62Z"/>
        <path class="cls-87" d="M173.18,373.26c-.82,1.11-2.03.96-3.18.96-9.02-.02-18.03-.06-27.05-.09.48-7.5-1.22-14.82-1.98-22.21-1.71-16.7-3.85-33.36-5.76-50.05-.4-3.48-1.27-6.92-.92-10.46,2.98.34,3.24,3.08,4.14,5.02,7.8,16.87,15.9,33.6,23.89,50.38,2.93,7.2,6.59,14.06,9.74,21.16.74,1.66,2.27,3.21,1.13,5.3Z"/>
        <path class="cls-78" d="M449.76,317.22l-.7.67c-6.89,1.44-13.65-.62-20.47-.88-5.24-.2-10.49-.79-15.72-1.38-4.6-.41-9.21-.83-13.81-1.28-1.7-.16-3.47-.44-4.75-1.83-.01-.95-.12-1.92.75-2.62,9.02-13.76,18.32-27.33,28.28-40.44.97.24,1.33,1.07,1.73,1.83,8.23,15.31,16.46,30.62,24.69,45.93Z"/>
        <path class="cls-25" d="M269.93,288.86c-.76-6.63-1.64-13.24-2.27-19.88-1.12-11.89-2.08-23.79-3.11-35.68.13-1.87,1.65-2.43,3.02-2.6,5.02-.62,10.02-1.52,15.11-1.33,1.19.04,2.28.4,3.19,1.2,3.54,12.06,7.08,24.12,10.62,36.18.48,1.86-.99,2.59-2.07,3.49-6.63,5.55-13.26,11.09-19.81,16.74-1.34,1.16-2.7,2.26-4.67,1.88Z"/>
        <path class="cls-89" d="M173.98,199.82c3.21,13.72,6.42,27.45,9.65,41.17.23.99.59,1.94.9,2.91-.17,2.45-2.37,1.51-3.39,2.23,8.51,2.94,16.37,8.03,25.21,10.86,1.42,6.54,2.73,13.08,2.89,19.8-.21.68-.56,1.26-1.23,1.58-10.57-6.14-20.71-12.96-31.02-19.53-1.02-.65-1.74-1.54-2.1-2.71-2.83-5.3-4.99-10.99-8.93-15.66-.37-3.7-.84-7.4-1.54-11.05-.93-2.41-2.62-4.45-3.48-6.9-.42-1.71-.8-3.42-.54-5.19,1.04-1.76.96-3.79,1.4-5.7.63-5.41,1.32-10.8,2.48-16.13,1.01-1.39-.28-4.2,2.68-4.4,1.18,3.64,4.45,5.41,7.01,7.8.23.2.31.4.24.6-.07.2-.15.3-.23.3Z"/>
        <path class="cls-120" d="M346.83,227.16c-.06-3.5-3.28-3.72-5.37-4.99-8.11-4.92-8.22-4.9-4.55-13.64,2.88-6.86,6-13.62,9.02-20.42,3.48-1.64,7.06-2.53,10.88-1.32,1.4.81,1.5,2.27,1.79,3.63.21,3.03-2.36,5.25-2.42,8.21.08,2.18.67,3.44,2.95,1.63.69-.67,1.3-1.46,2.23-1.85,3.16-1.09,4.14-5.61,8.22-5.25.99.42,1.69,1.16,2.33,1.99,2.3,3.48,5.03,6.62,7.64,9.86.92,1.14,1.73,2.84,3.77,2.07.35-.2.69-.38,1.04-.57,3.21-1.28,5.74-5.3,9.97-2.53.49,2.54-1.76,3.47-2.98,4.99-2.16,2.71-5.59,4.39-6.55,8.08-2.63,7.87-6.81,14.93-11.42,21.76-1.89.79-3.33-.33-4.84-1.16-5.58-3.06-11.23-6-16.81-9.07-1.55-.85-3.14-1.45-4.93-1.44Z"/>
        <path class="cls-44" d="M184.47,83.49c4.15,22.06,8.33,44.12,12.42,66.2.56,3.03,1.73,4.25,5.15,4.37,18.7.66,37.39,1.5,56.06,2.66,9.33.58,18.65,1.33,27.99,1.62,1.52.05,2.77.17,3.77,1.63,9.51,13.87,19.09,27.69,28.65,41.53.26.86-.09,1.12-.91.92-9.83-10.63-20.09-20.92-29.31-32.06-4.09-4.95-8.61-6.43-14.27-6.61-12.44-.39-24.89-.61-37.34-1.05-13.89-.49-27.78-1.16-41.67-1.69-2.1-.08-3.18-.78-3.42-3.03-1.73-16.11-3.5-32.22-5.38-48.31-.95-8.12-2.37-16.18-2.6-24.38-.43-.94-.82-1.85.85-1.8Z"/>
        <path class="cls-43" d="M166.96,191.11c-1.81.97-.19,3.24-1.64,4.35-.87-.56-.88-1.4-.83-1.66-4.38,3.88-10.05,6.77-14.96,10.66-1.26,1-2.63,1.89-4.01,2.71-2.8,1.65-4.12,3.98-3.95,7.28.08,1.68.43,3.58-1.22,4.9-1.17-9.93-.13-19.89-.44-29.83-.05-1.5.96-2.37,1.96-3.25,10.47-9.18,20.93-18.36,31.42-27.52.65-.57,1.31-1.88,2.47-.57,5.19,5.96,8.73,13.03,13.21,19.47-1.86-.14-3.3.76-4.76,1.76-5.72,3.93-11.49,7.81-17.24,11.7Z"/>
        <path class="cls-110" d="M287.49,337.25c-1.77-3.67-.61-7.67-1.26-11.53-1.27-7.53-1.47-15.24-2.11-22.87,13.24.54,26.4,2.14,39.58,3.37,0,0,.26.26.26.26.7,2.1-.5,4.61,1.37,6.46.96,3.81.94,7.63.04,11.45-1.35,2.26-3.77,2.6-5.99,3.25-8.28,2.44-16.62,4.65-24.93,6.98-2.41.67-4.65,1.73-6.96,2.63Z"/>
        <path class="cls-39" d="M373.13,238.58c3.02-5.76,6.03-11.52,9.05-17.28.81-1.54,1.71-3.04,1.62-4.88,3.06.02,3.84,2.82,5.45,4.56,2.99,3.25,3.75,3.22,7.19.37,1.54-1.28,2.46-4.46,5.55-2.5.22.43.35.87.43,1.35-.4,4.98,2.41,9.99-.18,14.94-2.49,2.61-5,5.2-7.47,7.83-.96,1.02-2.4,1.76-2.26,3.5-1.25,1.84-2.88,3.23-4.85,4.26-4.56,1.12-9.2,1.48-13.89,1.32-3.27-.11-5.75,1.14-8.02,3.62-3.83,4.19-6.51,9.36-11.13,12.84-2.17,1.32-2.76.25-2.69-1.79-2.73-5.36-4.09-11.18-5.76-16.89-.33-1.13-.43-2.29.2-3.38,2.87-1.74,6.19-1.51,9.33-1.95,6.49-.91,13-1.75,19.56-2.64-.53-1.4-2.52-1.54-2.13-3.27Z"/>
        <path class="cls-78" d="M269.93,288.86c7.64-4.95,13.96-11.53,21.02-17.2,1.9-1.52,4.34-2.56,5.52-4.92,3.47-2.74,6.94-5.49,10.41-8.23.72.24,1.35.65,1.71,1.3,4.99,8.94,9.94,17.9,14.08,27.27.22.5.35,1.13.13,1.38.19-4.36-1.09-9.1.64-13.65.39-.4.77-.39,1.14.04,0,5.46.02,10.92.03,16.38-1.31,1.14-2.78.53-4.2.39-15.64-.59-31.27-1.17-46.91-1.82-1.2-.05-2.69.5-3.58-.94Z"/>
        <path class="cls-53" d="M447.15,429.71v-.71c2.25-1.44,4-3.21,4.32-6.05.14-1.2.98-2.07,1.84-2.87,3.93-.02,7.88-.33,11.78.02,4.22.38,6.38-.94,6.08-5.38,11.12.09,22.25.19,33.37.28,4.59,3.7,9.19,4.02,13.89.14.63-.52,1.62-.57,2.5-.64,6.58-.16,13.15-.09,19.72-.06,5.47.03,5.61.21,5.8,5.55-3.45,2.03-7.37,1.16-11.02,1.54-23.14,2.41-46.32,4.42-69.49,6.56-6.26.58-12.47,1.68-18.79,1.62Z"/>
        <path class="cls-110" d="M506.09,402.45c-2.29-5.42-3.78-11.07-5.05-16.8,1.66-1.58,3.78-1.36,5.8-1.37,14.58-.04,29.16-.05,43.75,0,2.01,0,4.13-.24,5.77,1.39-1.26,5.71-2.75,11.36-4.93,16.8-1.88,1.42-4.09,1.39-6.28,1.39-10.93.02-21.87.02-32.8,0-2.18,0-4.41.12-6.25-1.42Z"/>
        <path class="cls-110" d="M98.92,385.66c-1.28,5.72-2.76,11.38-5.05,16.8-1.57,1.32-3.47,1.4-5.38,1.41-11.52.04-23.04.03-34.55,0-1.92,0-3.79-.17-5.41-1.38-2.17-5.44-3.67-11.09-4.93-16.8,1.64-1.63,3.77-1.39,5.77-1.39,14.58-.05,29.16-.05,43.75,0,2.01,0,4.13-.21,5.8,1.37Z"/>
        <path class="cls-110" d="M161.54,346.93c-5.81-9.7-9.78-20.3-14.88-30.35-4.23-8.34-7.51-17.15-12.38-25.17-1.04-2.44.33-2.19,2.06-2.02,6.88.66,13.78,1.19,20.67,1.78,1.44,2.61.37,5.28.25,7.94-1.41,5.24-2.2,10.61-3.43,15.89-.71,3.04.42,4.14,3.32,4.76,4.7,1,9.7.54,14.1,2.92.93.94,1.05,2.14.59,3.23-2.94,7.06-5.22,14.4-9.01,21.1-.44.3-.87.28-1.28-.06Z"/>
        <path class="cls-78" d="M391.56,152.16c3.42,6.37,8.22,11.81,12.11,17.85,1.63,2.52,3.83,4.7,4.68,7.7-.97.97-2.15,1.03-3.41.81-10.03-2.8-19.82-6.4-29.82-9.32-1.93-.56-4.05-1-5.13-3.07.12-7.49,2.49-14.54,4.23-21.71.26-1.09.94-2.18,2.44-2.03,4.96,3.25,9.93,6.51,14.89,9.76Z"/>
        <path class="cls-11" d="M555.55,344.35c4.62-1.95,8.5-5.14,12.86-7.53.98-.54,1.77-1.52,3.17-.94,8.89,3.69,17.8,7.32,27.91,11.47-11.95,2.42-22.6,4.58-33.26,6.75-1.27,1.67-3.23,1.77-5.04,2.21-6.17,1.47-12.45,2.27-18.72,3.19-2.87,1.9-6.27,1.54-9.43,2.19-.67.14-1.34.15-2.01,0-2.25-1.18-.66-2.08.31-2.82,2.2-1.69,4.77-2.83,6.95-4.58,4.57-2.83,9.12-5.71,13.67-8.58,1.1-.7,2.17-1.51,3.59-1.34Z"/>
        <path class="cls-11" d="M32.96,354c-10.4-2.14-20.81-4.27-32.46-6.67,9.97-4.08,18.86-7.69,27.72-11.39,1.41-.59,2.23.2,3.19.78,3.76,2.28,7.49,4.61,11.23,6.91,2.98.06,5.1,1.98,7.46,3.41,3.88,2.35,7.68,4.85,11.55,7.21,2.16,1.75,4.73,2.87,6.92,4.57.91.7,2.68,1.52.42,2.81-.67.18-1.35.17-2.02.05-3.16-.68-6.57-.27-9.45-2.17-6.5-.92-13-1.88-19.4-3.34-1.84-.42-3.82-.55-5.15-2.17Z"/>
        <path class="cls-120" d="M370.53,166.2c9.98,3.26,19.96,6.52,29.93,9.8,1.51.5,2.98,1.1,4.47,1.65.24.37.58.82.43,1.19-2.19,5.41-3.94,11.11-9.06,14.71-1.41.12-2.67-.39-3.93-.9-3.09-1.51-6.66-2.17-8.98-5.05-.5-4.16,3.71-1.97,4.98-3.71-.25-1.1-1.23-1.6-1.9-2.35-2.71-2.39-4.65-6.42-9.41-4.29-2.74.88-4.4,3.8-7.5,4.01-2-.11-3.69-1.02-5.29-2.12-.31-.28-.58-.61-.81-.96-1.46-2.45-1.5-5.48-3.22-7.82-1.25-2.28-3.04-4.25-3.88-6.77.96-1.79,1.93-3.58,2.89-5.37,5.38.39,8.13,4.48,11.29,7.99Z"/>
        <path class="cls-106" d="M538.8,354.86c-1.87,3.05-6.24,2.89-7.92,6.18-.45,2.12-1.69,1.55-2.96.87-2.31-9.32-4.03-18.7-3.12-28.38,3.44-.84,5.41-3.74,7.96-5.79,4.87-3.91,9.55-8.05,15.2-12.86-1.49,6.73-2.74,12.36-3.98,17.98-.38,7.65-2.11,14.99-5.18,22.01Z"/>
        <path class="cls-106" d="M69.08,361.04c-1.7-3.27-6.03-3.16-7.92-6.17-3.21-7.38-4.94-15.12-5.48-23.13-1.14-5.25-2.28-10.51-3.65-16.8,7.03,5.95,13.24,11.25,19.5,16.49,1.07.89,1.86,2.39,3.63,2.11.72.87.71,1.92.59,2.92-1.03,8.51-.97,17.17-3.69,25.43-1.27.71-2.51,1.29-2.98-.84Z"/>
        <path class="cls-22" d="M370.53,166.2c-4.11-2.18-6.93-6.18-11.29-7.99-3.02-10.65-6.04-21.31-9.05-31.97.24-.24.47-.48.71-.72,8.59,5.63,17.19,11.25,25.78,16.88-3.16,4.61-2.83,10.22-4.37,15.3-.83,2.76-1.2,5.66-1.78,8.5Z"/>
        <path class="cls-5" d="M219.86,246.36c7.56,10.43,15.22,20.78,21.77,31.9-4.13,3.04-8.43,5.74-13.61,6.64-4.11-2.5-6.11-6.75-8.66-10.54-.2-.37-.37-.77-.52-1.16-2.09-5.81-4.14-11.63-6.23-17.45-.5-1.25-.89-2.51-.4-3.86,2.33-2.15,4.03-5.16,7.64-5.53Z"/>
        <path class="cls-37" d="M174.88,256.14c9.49,6.09,18.98,12.16,28.44,18.28,1.53.99,3.6,1.46,4.08,3.65-.95,1.51-2.57,1.86-4.11,2.2-8.08,1.8-16.14,3.71-24.24,5.46-2.07.45-4.37,1.18-5.83-1.35-.73-2.07-.53-4.16-.18-6.26,1.19-4.29.26-8.66.46-12.99.11-2.46-.05-4.93.43-7.37.32-.54.64-1.08.96-1.62Z"/>
        <path class="cls-11" d="M174.07,278.38l-.23,5.99c2.21,6.94.48,13.84-.18,20.75-.42.69-1.16,1.12-1.84.89-5.35-1.79-10.93-3.07-15.46-6.74-.14-2.73-.12-5.44.64-8.1,1-6.38,1.99-12.76,2.99-19.14,3.15-2.41,9.59-3.07,12.65-1.13,3.03,1.92,1.52,4.87,1.44,7.48Z"/>
        <path class="cls-11" d="M524.8,333.53c1.11,9.41,2.22,18.82,3.33,28.23-.27.32-.61.45-1.02.4-1.44-.39-2.45-1.26-3-2.66-4.1-6.45-10.17-11.22-14.84-17.2-1.07-1.37-2.17-2.71-3.14-4.15-7.94-2.7-15.89-5.41-23.83-8.11.06-.27.12-.55.18-.82,9.58.46,19.16.93,28.74,1.38,3.66.17,7.31.42,10.97.47,1.77.03,2.84.46,2.62,2.45Z"/>
        <path class="cls-11" d="M71.83,361.76c1.11-9.41,2.22-18.82,3.33-28.23.04-1.19-.01-2.32,1.75-2.4,13.53-.6,27.05-1.25,40.76-1.08-7.94,2.7-15.89,5.4-23.83,8.11-4.56,6.84-10.92,12.12-15.95,18.55-.72.92-1.61,1.7-2.03,2.82-.56,1.38-1.56,2.26-3,2.65-.41.04-.75-.09-1.02-.42Z"/>
        <path class="cls-33" d="M423.34,269.46c.54,2.96-2.48,3.69-3.56,5.66-6.37,11.51-15.11,21.42-22.15,32.48-.64,1.01-1.4,1.88-2.57,2.3,3.75-15.7,7.35-31.44,12.33-46.82,5.37,1.98,10.85,3.7,15.95,6.38Z"/>
        <path class="cls-97" d="M556.36,385.69c-18.44,0-36.88-.02-55.32-.03q-2.52-8.04,6.02-8.03c4.97,0,9.94.02,14.91.04,1.39-1.1,3.02-1.19,4.69-1.13,3.47.42,7.14-.99,10.43,1.14,5.98-.02,11.96.09,17.93-.11,2.91-.1,4.09.55,2.84,3.56-.61,1.47-1.01,3.03-1.5,4.56Z"/>
        <path class="cls-97" d="M98.92,385.66c-18.44,0-36.88.02-55.32.03q-2.84-8.06,5.71-8.06c4.52,0,9.04.03,13.56.05,5.04-1.85,10.08-1.77,15.12-.01,6.29-.01,12.58.16,18.86-.11,3.69-.15,4.81.84,3.21,4.34-.54,1.18-.77,2.51-1.13,3.77Z"/>
        <path class="cls-11" d="M72.62,361.74c.78-.92,2.22-1.11,2.64-2.42,4.54-5.14,10.75-7.98,16.3-11.73,1.17-.79,2.6-.72,3.74.16,4.74,3.65,9.59,7.2,12.77,12.46,3.24,3.45,6.48,6.91,10.3,10.97-11.46-2.34-22.45-4.59-33.44-6.83-3.24.24-6.47.35-9.65-.5-1.21-.29-2.34-.69-2.66-2.1Z"/>
        <path class="cls-11" d="M524.7,359.32c.42,1.31,1.87,1.5,2.64,2.43-.54,1.21-1.64,1.63-2.79,1.98-3.12,1.06-6.33.82-9.54.62-11.22,2.29-22.43,4.59-33.65,6.88-.09-.25-.18-.51-.27-.76,3.6-3.42,7.2-6.84,10.8-10.26,3.18-5.26,8.03-8.81,12.77-12.46,1.14-.88,2.57-.95,3.74-.16,5.55,3.75,11.75,6.59,16.3,11.73Z"/>
        <path class="cls-53" d="M122.02,419.91c.53.06,1.07.13,1.6.19,6.2,1.7,11.91,4.56,17.59,7.49.23.23.32.48.29.75-.04.27-.09.41-.15.41-10.46-.91-20.92-1.76-31.36-2.73-14.66-1.37-29.32-2.83-43.98-4.25-1.15-.11-2.36.05-3.34-.79,1.36-1.46,3.19-1.3,4.92-1.34,3.81-.08,7.64-.31,11.41.04,4.87.45,8.81-.68,11.51-4.96,8.15.07,16.29.15,24.44.22,2.8,1.02,5.4,2.33,7.07,4.96Z"/>
        <path class="cls-10" d="M188.96,177.65c-6.11-5.33-9.32-12.63-13.21-19.47,12.23,5.26,24.45,10.54,36.7,15.75,1.38.59,2.3,1.24,1.98,2.88-.63,3.29-.34,6.73-1.61,9.91-.99-.5-1.23-2.31-2.88-1.66-.42-2.28-1.98-3.11-4.11-3.57-5.64-1.19-11.24-2.55-16.86-3.85Z"/>
        <path class="cls-22" d="M354.62,268.5c3.18-5.95,8.12-10.56,12.15-15.86,1.07-1.41,3.11-1.71,4.82-1.65,5.55.18,11.01-.66,16.51-1,2.41-1.59,4.83-1.4,7.26-.05.58,2.56-.95,4.76-1.26,7.17-3.02,2.88-7.13,3.02-10.81,4.02-9.53,2.57-18.88,5.84-28.67,7.39Z"/>
        <path class="cls-33" d="M323.86,274.52v15.06c-.25.05-.51.1-.76.15-5.4-10.4-10.81-20.81-16.21-31.21,5.41-4.37,10.82-8.73,16.24-13.1.63.16,1.04.57,1.04,1.21-.13,9.3.47,18.6-.3,27.89Z"/>
        <path class="cls-10" d="M140.33,219.35c-1.38-8.32,2.8-13.15,9.82-16.77,4.36-2.25,8.2-5.53,12.26-8.36,1.67-1.17,2.89-1.4,2.9,1.25-.89,5.61-1.79,11.23-2.68,16.84-1.87-1.23-3,.2-4.26,1.2-2.92,2.27-6.29,3.97-8.76,6.82-3.09,2.15-5.33,5.24-8.25,7.59-2.19-2.63-.66-5.71-1.03-8.56Z"/>
        <path class="cls-59" d="M373.13,238.58c1.82,1.15,3.63,2.29,6.45,4.07-11.58,1.38-22.19,2.65-32.8,3.92-1.62-1.44-1.37-3.42-1.39-5.26-.06-4.19.07-8.39-.56-12.55.67-.53,1.34-1.06,2.01-1.59.9-2.07,2.19-1.17,3.48-.48,6.28,3.38,12.57,6.76,18.87,10.1,1.27.67,2.63,1.2,3.94,1.79Z"/>
        <path class="cls-106" d="M108.07,360.21c-3.94-3.47-8-6.82-11.78-10.45-1.93-1.85-3.3-2.16-5.61-.52-5,3.55-10.26,6.74-15.42,10.08-.27-2.75,2.29-3.8,3.65-5.29,4.9-5.35,9.12-11.37,14.92-15.88-.24,2.27,1.89,2.39,3.09,3.12,8.35,5.08,16.8,10.01,25.19,15.03,1.18.71,2.68,1.07,3.38,2.62-5.89.43-11.66.86-17.43,1.28Z"/>
        <path class="cls-106" d="M524.7,359.32c-5.28-3.42-10.64-6.72-15.79-10.31-2.03-1.42-3.25-1.09-4.91.46-3.95,3.68-8.06,7.18-12.11,10.75-5.78-.43-11.56-.85-18.36-1.35,5.68-3.39,10.62-6.35,15.56-9.29,4.77-2.84,9.59-5.6,14.31-8.52,1.1-.68,3.03-.8,2.73-2.89,7.03,6.15,12.8,13.47,18.93,20.45.07.08-.23.47-.36.71Z"/>
        <path class="cls-82" d="M444.55,174.19c-4.27-.94-6.78-4.48-9.97-6.93-7.87-6.05-15.5-12.42-23.24-18.66-1.16-.93-2.47-1.57-3.96-1.79,6.54-.96,13.03.46,19.56.41,2.63-.02,5.25.36,7.88.56,1.65,1.03,1.79,2.95,2.65,4.45,2.77,6.07,4.63,12.49,7.08,18.69.42,1.06.91,2.18,0,3.28Z"/>
        <path class="cls-17" d="M436.55,152.21c-1.16-1.25-1.35-2.88-1.73-4.43,0,0,0,0,0,0,5.82-3.71,12.49-4.43,19.09-5.2,3.23-.37,3.99,1.64,3.05,4.47-.64,8.27-1.27,16.55-1.95,24.82-.04.47-.54.91-.83,1.36-4.53-3.41-6.9-8.62-10.61-12.72-2.43-2.69-4.17-5.97-7.02-8.31Z"/>
        <path class="cls-10" d="M159.86,237.48c-1.72,6.08-1.66,12.42-2.64,18.61-.27,1.72-.49,3.45-.87,6.17-5.14-4.91-9.74-9.29-14.31-13.69-1.4-1.35.07-2.44.5-3.53,1.8-4.58,5.11-8.51,5.88-13.54,4.63.44,8.45,2.42,11.45,5.99Z"/>
        <path class="cls-47" d="M364.19,177.97c.09.19.16.39.21.59-.15,2.01-1.24,3.74-1.67,5.67-1.06,1.47-1.64,3.42-3.76,3.86-.67.04-1.24-.18-1.73-.62-3.82-.71-7.51.85-11.3.65.68-1.68-.33-2.01-1.66-2.1-2.01-.14-4.03-.3-6.42-.47,2.23-4.98,4.38-9.71,6.45-14.47.69-1.6,1.6-1.7,3.03-.97,1.8.91,3.69,1.65,5.54,2.47,4.28.74,8.22,2.2,11.32,5.4Z"/>
        <path class="cls-36" d="M90.51,414.72c-.51,5.39-3.71,6.47-8.65,6.17-6.37-.39-12.79.02-19.19.09-1.15-.03-2.33-.25-3.44-.07-4.77.77-6.87-1.44-7-6.01-.72-2.74,1.41-3.04,3.06-3.1,10.67-.4,21.35-.37,32.03-.02,1.37.04,3.05.25,3.17,2.3,0,.21.02.43.03.64Z"/>
        <path class="cls-33" d="M344.83,228.76c2.37.39,1.85,2.25,1.87,3.78.05,4.68.06,9.36.08,14.04.73,5.06,2.64,9.78,4.09,14.64.53,1.79,1.44,3.54,1.06,5.51-6.02-5.44-9-13.04-13.83-19.33-.44-.57-.8-1.21-1.2-1.81-.56-1.37-.4-2.75-.12-4.14.06-1.17.14-2.34.18-3.52q.3-7.45,7.86-9.15Z"/>
        <path class="cls-78" d="M413.74,185.65c5.71,7.28,10.94,14.87,15.21,23.1-2.45,2.61-4.91,5.22-7.37,7.83-.16-.15-.31-.31-.47-.46-.8-1.5-.87-3.18-.38-4.66,1.31-4-.76-5.58-4-7.26-4.7-2.44-10.07-3.68-14.02-7.5,2.15-5.2,5.68-9.04,11.04-11.04Z"/>
        <path class="cls-64" d="M48.53,402.48c15.11-.01,30.23-.02,45.34-.03-.38,1.46-.76,2.92-1.14,4.39-1.17,2.21-3.3,2.23-5.34,2.25-10.84.09-21.68.06-32.52.02-1.79,0-3.51-.23-4.95-1.45-.46-1.72-.92-3.45-1.38-5.17Z"/>
        <path class="cls-64" d="M506.09,402.45c15.11.01,30.22.02,45.33.03-.46,1.72-.92,3.45-1.38,5.17-1.7,1.45-3.77,1.46-5.83,1.46-10.26.02-20.51.05-30.77-.02-2.3-.02-4.8.26-6.23-2.26l-1.13-4.38Z"/>
        <path class="cls-75" d="M32.96,354c8.28,1.64,16.65,2.86,24.79,5.18.24.37.2.69-.14.98-1.74-1.65-3.53-.7-5.34-.14-10.87,3.35-21.76,6.67-32.92,9.61,4.26-5.54,9.61-10,13.6-15.63Z"/>
        <path class="cls-74" d="M542.21,359.18c7.88-2.32,16.03-3.35,24.03-5.09,4.93,5.16,9.87,10.32,15.72,16.44-7.03-2.16-12.88-3.95-18.72-5.74-5.32-1.63-10.66-3.23-15.96-4.92-1.72-.55-3.36-1.2-4.93.28-.24-.19-.34-.39-.3-.62.04-.24.1-.36.16-.36Z"/>
        <path class="cls-77" d="M285.86,230.57c-5.69-.48-11.27,1.04-16.94,1.07-1.52,0-3.18.43-4.38,1.66-.79-5.58-1.58-11.16-2.37-16.74,3.64-2.82,4.93-2.61,7.78,1.19,1.38,1.39,3.24,1.93,4.99,2.55,4.89,1.74,8.39,5.01,10.9,9.45.1.27.1.54.01.81Z"/>
        <path class="cls-110" d="M49.91,407.66c12.87.01,25.74.02,38.6.05,1.48,0,2.93.02,4.21-.87-.3,2.55-1.09,4.95-2.25,7.24-.82-1.1-2.02-1.04-3.19-1.04-10.56,0-21.12,0-31.68,0-1.47,0-3.04-.2-3.38,1.86-1.42-2.21-1.65-4.79-2.31-7.24Z"/>
        <path class="cls-54" d="M507.22,406.84c1.28.88,2.74.87,4.21.87,12.87-.03,25.74-.04,38.61-.05-.66,2.45-.9,5.03-2.31,7.24-3.74-1.1-7.58-.57-11.38-.64-8.95-.16-17.91.2-26.86-.18-1.16-2.29-1.96-4.69-2.27-7.24Z"/>
        <path class="cls-73" d="M227.72,284.35c4.64-2.03,9.27-4.06,13.91-6.09-.1.27-.29.55-.27.81.52,8.14-3.99,13.4-10.13,17.73-3.1,1.75-4.68,5.32-8.05,6.74-1.2-1.43-.69-3-.32-4.52,1.12-4.6,2.24-9.21,3.89-13.66.23-.43.56-.76.97-1.02Z"/>
        <path class="cls-120" d="M401.32,218.98c.06-.23.06-.46.01-.69-.62-1.79.74-2.7,1.82-3.49,2.67-1.96,4.9-4.39,7.33-6.62.67-.51,1.39-.91,2.27-.81,3.56,2.27,6.2,5.48,8.84,8.7.08.16.08.33-.02.49-4.12,4.08-8.24,8.16-12.36,12.24-3.29-2.75-5.95-6-7.9-9.83Z"/>
        <path class="cls-5" d="M55.68,331.73c2.58,7.53,4.13,15.31,5.48,23.13-6.18-3.74-12.35-7.49-18.53-11.23,4.13-1.83,6.32-5.82,9.58-8.63,1.2-1.04,2.32-2.18,3.47-3.27Z"/>
        <path class="cls-115" d="M219.86,246.36c-2.5,1.66-4.16,4.43-7.17,5.42-1.65,1.18-2.67-.24-3.79-.99-1.8-1.21-3.5-2.57-5.62-3.2-1-.74-1.05-1.74-.76-2.83,3.14-4.62,5.61-9.76,10.21-13.26.91,1.2,1.83,2.4,2.74,3.6,1.46,3.76,2.93,7.51,4.39,11.27Z"/>
        <path class="cls-75" d="M538.8,354.86c1.22-7.46,2.78-14.83,5.18-22.01,4.09,3.59,8.01,7.37,11.57,11.5-5.29,3.97-10.95,7.35-16.75,10.51Z"/>
        <path class="cls-20" d="M269.17,219.08c-1.03-4.44-3.93-3.7-6.99-2.52q-1.32-11.29,10.04-12.47c1.28-.14,2.53-.63,3.8-.96,2.3,3.2,1.47,7.3,3.09,10.69-.43,2.15-2.26,2.07-3.73,2.04-2.74-.06-4.63,1.2-6.2,3.22Z"/>
        <path class="cls-3" d="M159.86,237.48c-3.82-2-7.63-3.99-11.45-5.99l-7.05-3.59c1.54-3.63,4.18-6.18,7.73-7.82,3.19.88,4.12,3.91,5.5,6.28,1.53,2.62,3.31,3.74,6.22,3.1,1.23.64,1.81,1.81,2.47,2.93.77,1.54,1.68,3.03,2.13,4.7.26.99.8,2.36-1.15,2.4l-4.41-2.01Z"/>
        <path class="cls-26" d="M436.55,152.21c.16-.65.42-1.85,1.18-.83,5.42,7.33,11.68,14.04,16.45,21.86-2.14,1.17-4.48,1.63-6.86,1.97-.92-.34-1.84-.68-2.77-1.02-2.67-7.33-5.33-14.65-8-21.98Z"/>
        <path class="cls-115" d="M269.17,219.08c-.41-2.98,1.13-4.12,3.9-4.34,1.94-.15,4.03.71,5.79-.79,1.24-1.43,2.84-1.24,4.46-1,1.45,5.51,2.06,11.15,2.53,16.82-4.67-4.95-10.1-8.72-16.68-10.68Z"/>
        <path class="cls-6" d="M283.32,212.94c-1.24,1.43-2.96.71-4.46,1-3.18-1.26-1.67-4.41-2.56-6.59-.5-1.24-.21-2.81-.28-4.22-.27-2.47-.5-4.95-.82-7.41-.27-2.08.62-2.9,2.68-3,1.87-.09,2.53.6,2.78,2.44.78,5.94,1.76,11.86,2.66,17.78Z"/>
        <path class="cls-51" d="M174.07,278.38c-.41-7.35-5.13-9.47-14.09-6.35,2.34-4.53,6.94-6.9,10.17-10.58,1.15-1.32,2.5-2.46,3.77-3.68,1.01.38,1.15,1.25,1.09,2.12-.47,6.16.57,12.39-.93,18.49Z"/>
        <path class="cls-63" d="M57.61,360.16c.05-.33.09-.65.14-.98,3.19.7,6.55.49,9.64,1.77-1.94,4.58.21,8.92.97,13.29.34,1.94,2.62,1.38,4.19,1.48,1.74.14,3.52-.46,5.22.31.07.55.14,1.09.22,1.64-5.04,0-10.08,0-15.12.01-.34-6.26-4.02-11.52-5.26-17.52Z"/>
        <path class="cls-60" d="M456.95,147.06c.28-3.98-2.05-4.11-4.99-3.39-5.71,1.39-11.44,2.74-17.16,4.11q3.11-10.07,13.05-7.64c2.11.51,4.21,1.15,6.35,1.46,3.65.54,4.25,2.42,2.75,5.46Z"/>
        <path class="cls-63" d="M542.21,359.18c.05.33.09.65.14.98-1.24,5.99-4.92,11.25-5.26,17.52-3.54,0-7.09,0-10.63-.01-.68-.74-.73-1.55-.29-2.42,5.51.14,5.54.14,6.36-5.77.39-2.83,1.89-5.68.03-8.53,3.09-1.28,6.45-1.07,9.64-1.77Z"/>
        <path class="cls-63" d="M526.47,375.1c0,.85,0,1.71,0,2.56-1.5,0-2.99,0-4.49,0-1.49-4.87-2.5-9.99-6.95-13.31,3.2-.9,6.47-1.28,9.78-1.49,2.85,3.76,3.54,7.82,1.67,12.23Z"/>
        <path class="cls-11" d="M141.34,428.75c-.03-.21-.05-.42-.07-.63-1.46-2.49-2.5-5.06-1.64-8.02,4.39,0,8.78-.01,13.17-.02,1.18,1.75.22,3.04-.92,4.28-.45,3.78-2.8,4.98-6.29,4.67-1.42-.09-2.83-.19-4.25-.28Z"/>
        <path class="cls-63" d="M77.77,376.02c-1.57,1.09-3.37.84-5.12.87-.74-4.95-.63-9.74,2.49-14,3.32.14,6.59.58,9.79,1.46-2.7.23-2.57,2.77-3.49,4.39-1.34,2.37-2.46,4.85-3.67,7.29Z"/>
        <path class="cls-67" d="M314.97,166.31c-2.93-5.81-2.73-6.24,3.36-6.17,5.63.06,11.34-.55,16.76,1.67-6.71,1.5-13.42,3-20.13,4.5Z"/>
        <path class="cls-97" d="M509.5,414.08c.82-1.1,2.02-1.03,3.19-1.03,10.55,0,21.11,0,31.66,0,1.47,0,3.04-.2,3.38,1.85-.11.53-.21,1.06-.32,1.59-1.57-1.2-3.35-1.35-5.28-1.32-7.62.09-15.23,0-22.85.06-3.31.59-6.66,2.05-9.8-.54-.02-.2-.02-.41.01-.61Z"/>
        <path class="cls-113" d="M401.32,218.98c2.97,3.01,6.15,5.84,7.9,9.83-2.33,2.11-4.66,4.22-6.99,6.32.27-5.42-1.45-10.72-.91-16.15Z"/>
        <path class="cls-13" d="M364.19,177.97c-3.79-1.77-7.83-3-11.32-5.4.8-1.73,2.03-3.32,1.77-5.4,2.86-.94,4.04,2.27,6.39,2.58,2.25,2.28,1.87,5.57,3.16,8.22Z"/>
        <path class="cls-105" d="M509.49,414.69c3.31.04,6.62.08,9.94.12.28.18.38.36.28.53-.1.17-.2.25-.3.25-.76.43-1.53.83-2.27,1.3q-6.78,4.25-12.59-1.88c1.65-.1,3.3-.21,4.95-.31Z"/>
        <path class="cls-96" d="M519.4,415.58c0-.26.01-.52.02-.78,7.97-.02,15.93,0,23.9-.11,1.73-.02,3.12.29,4.09,1.8-.32,1.16-.64,2.33-.96,3.49-.31-3.81-2.38-4.67-6.05-4.49-6.98.35-14,.09-21,.08Z"/>
        <path class="cls-86" d="M164.27,239.49c1.53-2.93-1.91-4.54-1.89-7.07-.05-2.02,1.54-2.72,2.9-3.61.66,3.87,2.68,7.66.67,11.68-.56-.33-1.12-.67-1.69-1Z"/>
        <path class="cls-82" d="M323.86,274.52c0-8.45.02-16.9,0-25.36,0-1.27.3-2.65-.74-3.74.32-.73.93-.65,1.54-.56-.02,10-.04,19.99-.07,29.99-.24-.11-.49-.22-.73-.33Z"/>
        <path class="cls-91" d="M361.03,169.75c-2.98,1.26-4.04-2.27-6.39-2.58-5.18-3.93,1.52-2.21,1.71-3.59,2.74,1.16,3.01,4.2,4.68,6.17Z"/>
        <path class="cls-124" d="M122.02,419.91c-2.44-1.54-5.15-2.68-7.07-4.96,2.05-.05,4.1-.11,6.16-.16,1,1.58.85,3.37.92,5.12Z"/>
        <path class="cls-81" d="M209.93,185.06c.29-.93.44-2.23,1.83-1.72,1.6.59.69,2.25,1.06,3.38-.38,1.93-.75,3.86-1.13,5.8-1.1-2.36-1.61-4.87-1.75-7.46Z"/>
        <path class="cls-101" d="M395.36,249.93c-2.42.02-4.84.04-7.26.05,1.17-1.55,2.2-3.28,4.41-3.52,1.04,1.08,2.33,1.96,2.85,3.47Z"/>
        <path class="cls-42" d="M317.61,202.41c.3-.31.61-.61.91-.92,1.77,1.43,3.08,3.16,3.49,5.46-1.76-1.23-3.29-2.69-4.41-4.54Z"/>
        <path class="cls-45" d="M184.47,83.49c-.69.41-.8,1.09-.85,1.8-1.54-2.21-.58-4.75-.91-7.12.31-.29.61-.29.9.02.28,1.76.57,3.53.85,5.29Z"/>
        <path class="cls-4" d="M181.03,65.86c1.4,1.82.83,4.19,1.73,6.16-.3.42-.59.41-.87-.01-1.65-1.86-.57-4.1-.85-6.14Z"/>
        <path class="cls-116" d="M181.89,72c.29,0,.58,0,.87.01-.25,2.13.45,4.14.86,6.18-.3,0-.6-.02-.9-.02-1.54-1.89-.56-4.11-.83-6.17Z"/>
        <path class="cls-82" d="M320.41,291.62c1.4-.13,2.8-.26,4.2-.39-.36.4-.72.8-1.08,1.21-1.04-.27-2.08-.55-3.12-.82Z"/>
        <path class="cls-82" d="M336.78,241.43c.04,1.38.08,2.76.12,4.14-.31-.37-.62-.74-.93-1.11.27-1.01.54-2.02.82-3.03Z"/>
        <path class="cls-97" d="M257.52,93.17c6.54-7.48,13.08-14.96,19.63-22.45.68-.78,1.36-1.58,2.58-1.21,11.11,3.01,21.07,8.8,31.62,13.16,7.31,3.03,14.46,6.46,21.72,9.61,1.51.65,2.81,1.55,4.08,2.55.19.28.38.55.58.83-4.33,2.84-9.15,1.58-13.69,1.25-5.13-.37-10.25-.67-15.38-.58-15.12.26-30.19-1.47-45.31-.96-2.15.07-4.51.16-5.82-2.21Z"/>
        <path class="cls-82" d="M328.22,100.18c-1.63,9.42-3.28,18.83-4.88,28.25-.24,1.42-.28,2.87-.42,4.31.47,2.77.24,5.3-2.4,7-2.42.86-4.94.59-7.42.6-12.76,0-25.54.39-38.24-1.29-3.21-1.62-.64-2.95.46-3.76,4.47-3.31,8.86-6.76,13.75-9.47,3.22-.77,6.42-.39,9.6.21,3.24.61,4.7-.62,4.5-3.97-.11-1.75-.11-3.52.36-5.25.46-1.49,1.56-2.44,2.76-3.3,5.84-4.15,11.71-8.25,17.61-12.31,1.24-.86,2.52-2.23,4.32-1.02Z"/>
        <path class="cls-24" d="M288.54,126.63c-4.33,4.68-10.43,7.06-14.98,11.45-.45.27-.87.22-1.26-.13-1.07-1.62-1.84-3.27-.57-5.15-.69-11.73-1.95-23.41-3.34-35.08,2-2.12,4.65-1.74,7.03-1.46,11.7,1.39,23.42.61,35.13.7,5.01.04,9.92.81,14.89,1.07,1.18.06,2.33.34,3.17,1.3-.13.28-.26.57-.39.85-6.09,2.54-10.73,7.3-16.3,10.65-2.6,1.56-4.99,3.47-7.48,5.22-1.95-2.08-1.25-4.68-1.32-7.09-.16-5.35-.13-5.13-5.25-5.81-5.67-.75-11.36-.59-17.03-.89-2.95-.16-4.35.6-4.25,3.77.14,4.95-.05,9.9.76,14.84.41,2.5,1.53,3.51,3.99,3.6,2.55.09,5.37-.41,7.21,2.16Z"/>
        <path class="cls-49" d="M337.15,94.84c-7.75-2.14-14.72-6.18-22.09-9.24-11.02-4.58-21.84-9.63-32.74-14.51-.92-.41-1.73-1.04-2.59-1.57,12.32.03,24.63.06,36.95.11,1.65,0,3.24.23,4.27,1.77,5.32,7.87,11.33,15.26,16.2,23.45Z"/>
        <path class="cls-49" d="M266.34,116.02c0,3.51,0,7.03,0,10.54-1.94.11-2.64-1.61-3.8-2.62-5.56-4.83-12.24-4.3-16.91,1.41-3.61,4.41-8.44,4.61-12.24.5-6.59-7.12-12.88-7.04-19.18.26-1.42,1.65-2.82,3.29-4.87.73-1.22-3.7.43-7.16.86-10.72,3.38-.02,6.79-.39,10.12.02,3.69.46,5.54-1.13,6.24-4.37.96-4.47,3.67-5.46,7.97-5.32,9.83.3,19.67.07,29.5.06.83,0,1.79-.39,2.26.72-4.74,1-9.54.31-14.31.41-6.42.14-12.84.03-19.26.03-.25,0-.45-.24-.59-.54,0,.12,0,.24,0,.57,9.53,0,19.05-.03,28.58.03,1.38,0,2.93-.61,4.13.67-1.09,2.53-3.44,1.81-5.31,1.85-7.61.15-15.22.04-22.83.06-1.32,0-2.64-.05-3.94.19-1.75.33-3.28,1.33-3.1,3.11.18,1.82,2.1,1.03,3.28,1.11,2.04.14,4.09-.05,6.14.07,1.31-.01,2.61-.08,3.91,0,7.05-.08,14.1-.32,21.15.13.84.14,1.58.48,2.19,1.09Z"/>
        <path class="cls-73" d="M271.72,132.8c.31,1.77.62,3.54.93,5.31-.65,3.21-3.51,4.02-5.86,5.39-8.78,1.83-17.68,2.5-25.59,2.27.2-.02,1.59-1.19,2.37.99-4.44,0-8.9.36-13.26-.83-2.63-.81-5.32-1.48-7.74-2.81-1.14-.63-2.97-1.21-1.09-3.02,5.47-.5,9.56-2.54,9.93-8.82.03-.6.53-1.01,1.07-1.3.46,0,.82.2,1.1.56.49,2.91,2.6,2.89,4.86,2.77,2.52-.14,5.02-1.4,7.57-.18,1.31.81,1.77,2.3,2.72,3.4,2.1,2.43,4.79,3.52,7.87,2.68,2.88-.78,4.77-2.75,5.24-5.87.19-1.26.07-2.72,1.59-3.36.19.09.38.18.57.28-.36,1.73.03,2.78,2.11,2.63,1.86-.13,3.73-.07,5.6-.1Z"/>
        <path class="cls-11" d="M243.58,146.76c-.81-1.26-2.56-.18-3.4-1.21,9.08-1.03,18.15-2.06,27.23-3.09,4.89-2.01,9.91-.55,14.78-.16,13.44,1.06,26.92,1.84,40.33,3.28,1.74.19,3.97-.49,4.72,2.07-10.98,4.34-22.34,2.13-33.54,1.71-16.72-.63-33.41-1.71-50.12-2.6Z"/>
        <path class="cls-106" d="M327.23,147.65c-3.69-1.69-7.73-1-11.56-1.4-13.3-1.38-26.69-1.97-40.04-2.91-2.75-.19-5.49-.58-8.23-.88,1.75-1.45,3.5-2.9,5.25-4.35.3-.01.6-.02.9-.03,15.85.93,31.72.92,47.6.94,3.13,2.23,7.08,3.79,7,8.62-.31,0-.61,0-.92,0Z"/>
        <path class="cls-56" d="M328.61,99.33c-14.06-1.04-28.15-.92-42.22-.95-6.01-.01-11.97-1.26-18-.66-2.64-.05-5.28-.21-7.91-.12-3.53.12-4.6-1.2-2.95-4.43,1.36.64,2.8.75,4.28.78,16.68.32,33.37.76,50.05.98,8.63.11,17.23,1.37,25.87.74.54,2.5-.12,3.9-3.03,3.66-2.01-.17-4.05-.01-6.08,0Z"/>
        <path class="cls-62" d="M210.06,127.5c1.48.17,2.31-.51,3.16-1.75,5.51-8.08,14.76-8.51,20.84-1.07,3.41,4.18,7.63,4.06,10.69-.3,4.02-5.71,12.77-6.59,18.16-1.74,1.28,1.16,2.3,2.61,3.44,3.92.34.78.86,1.54.96,2.35.1.92.53,2.15-.55,2.76-1.49.85-1.8-.96-2.73-1.42,0,0-.39-.14-.39-.14-.9-.6-1.25-1.59-1.81-2.43-3.93-5.81-10.59-5.69-14.29.25-.69,1.11-1.16,2.37-2.03,3.38-4.93,2.91-10.27,2.44-12.34-1.08l-.37-.13c-.24-.17-.48-.34-.64-.58-5.61-8.22-10.07-8.34-16.28-.42-.37.47-.87.74-1.41.96-1.37,2.38-3.68,2.16-5.73,1.67-2.26-.54-1.41-2.81-1.15-4.08.49-2.4-2.08-5.57,1.64-7.19,1.15,2.23-.29,4.78.85,7.01Z"/>
        <path class="cls-117" d="M214.45,130.09c2.39-5.84,5.49-8.2,10.29-7.83,4.02.31,7,3.22,8.05,7.87-1.46,2,.08,4.63-1.55,6.67-2.53,3.16-5.7,4.44-9.66,3.87-1.1-.4-2.37-.27-3.36-1.03-1.99-1.09-2.8-2.82-2.73-5.03-.34-1.5-.68-3.01-1.03-4.51Z"/>
        <path class="cls-75" d="M328.15,147.64c-1.11-3.87-5.15-5.35-7-8.62.89-2.01.31-4.43,1.77-6.28,1.12.29,2.32.42,3.33.92,2.55,1.25,7.46,1.29,7.32,3.55-.24,3.69-2.1,7.73-5.42,10.43Z"/>
        <path class="cls-38" d="M218.85,139.04c.91.54,1.82,1.09,2.72,1.63,2.05,3.19,6.44,2.49,8.74,5.26-3.23.44-6.33-.58-9.5-.78q-8.58-.54-11.46-8.79c3.69-.97,6.19,2.27,9.49,2.68Z"/>
        <path class="cls-117" d="M264.58,109.1c-1.22-1.63-2.98-.89-4.49-.9-9.63-.07-19.26-.04-28.89-.97,11.7,0,23.4,0,35.1,0,0,2.93.02,5.86.03,8.79-.57,0-1.14,0-1.72,0-1.51-2.3-1.56-4.6-.04-6.92Z"/>
        <path class="cls-16" d="M218.85,139.04c-3.79,1.31-6.15-2.43-9.49-2.68,1.56-2.26,4.54.41,6.12-1.76,1.05,1.54,1.41,3.59,3.37,4.43Z"/>
        <path class="cls-21" d="M210.06,127.5c-1.72-2.16-.46-4.69-.85-7.01.3-1.46-.76-3.24,1.01-4.36-.05,3.79-.1,7.58-.16,11.37Z"/>
        <path class="cls-18" d="M387.99,342.47c1.56,10.58,3.11,21.15,4.67,31.73-2.19,3.84-4.38,7.68-6.57,11.52-.73.47-1.51,1.11-2.36.97-5.54-.86-11.26.26-16.72-1.46-2.57-4.81-1.23-9.91-.95-14.89.16-2.89.56-5.77.43-8.68-.08-1.67-.37-3.22-2.33-3.7-1.37-.24-2.75.17-4.12.01-2.45-.65-4.77-1.72-7.25-2.28-7.46-2.02-7.52-2.09-6.63-9.85.25-2.16-.07-4.37.57-6.49.48-1.09,1.16-1.69,2.38-.97.91.53,1.73,1.26,2.15,2.16,3.37,7.16,8.82,7.14,15.41,5.09,5.3-1.65,10.86-2.51,16.3-3.71,1.72-.38,3.47-.82,5.02.53Z"/>
        <path class="cls-33" d="M366.96,384.82c6.4-.23,12.78.17,19.14.91-4.12,10.83-8.23,21.67-12.35,32.5-2.06,1.35-3.66-.21-5.18-1.07-2.79-1.57-5.37-1.89-8.2-.15-1.33.81-2.88,1.58-4.48.37-3.54-6.61-4.98-13.98-7.57-20.93-.97-2.6-1.83-5.24-2.63-7.89-.5-1.65-1.22-3.36.14-4.98,3.11-1.5,6.13-.85,9.12.4,2,2.19,4.25,4.05,7.08,5.09,1.64.93,2.94.99,3.53-1.23.29-1.08.4-2.26,1.4-3.02Z"/>
        <path class="cls-73" d="M442.79,428.7c-4.68-3.88-10.12-4.41-16.01-4.33-15.54.23-31.09.02-46.63-.02-1.87-.86-2.73-2.16-1.84-4.22,20.88-.03,41.76-.06,62.65-.09,1.7,2.65,2.84,5.43,1.83,8.65Z"/>
        <path class="cls-61" d="M378.31,420.14c.61,1.41,1.23,2.81,1.84,4.22,0,0-.05.21-.05.21-.67.61-1.48,1.06-2.36,1.07-9.22.15-18.45.83-27.65-.39-2.17-1.4-1.24-3.15-.56-4.87,1.91-1.88,3.96-3.47,6.9-2.98,6-4.46,11.68-2.27,17.32.82,1.34,1.08,2.95,1.5,4.57,1.92Z"/>
        <path class="cls-122" d="M442.79,428.7c-.7-2.87-1.9-5.62-1.83-8.65,4.12,0,8.24.02,12.36.02-.42,1.68-1.02,3.35-1.22,5.06-.37,3.06-2,4.24-4.94,3.87-1.45-.1-2.91-.2-4.36-.29Z"/>
        <path class="cls-17" d="M387.99,342.47c-9.51,1.13-18.67,3.98-28.03,5.84-2.59.52-4.15.22-5.92-2.04-2-2.55-3.1-6.04-6.49-7.39-.61.83-.89,1.83-1.53,2.65-4.23,5.4-6.15,5.4-10.28-.07-3.17-4.2-6.35-8.39-9.33-12.73-.82-1.19-1.91-2.26-1.73-3.89-.03-4.09-.07-8.18-.1-12.27.73-.85,2-.01,2.73-.88.88,0,1.76,0,2.63-.01,1.84-1.87,4.26.42,6.18-.87.58,0,1.17,0,1.75,0,1.85-1.78,4.26.4,6.18-.87,1.17,0,2.35,0,3.52,0,.84.72,1.13,1.71,1.18,2.74.34,7.03-.06,14.01-.65,18.78.38-5.64,1.17-13.46,1.7-21.31.13-2-.69-4.51,2.14-5.52-.36,3.59.22,6.23,4.43,7.58,11.55,3.71,22.96,7.87,34.43,11.85.5.57.55,1.17.11,1.79-.97,5.54-1.94,11.09-2.91,16.63Z"/>
        <path class="cls-110" d="M390.9,325.84c-.04-.6-.07-1.2-.11-1.8,1.17-3.84,2.34-7.68,3.51-11.52,6.12.63,12.23,1.26,18.35,1.89.34,4.03-2.81,6.54-4.29,9.78-1.63,3.56-4.8,6.4-4.91,10.66.54,5.87-1.08,11.63-.87,17.49.18,4.93.09,4.93,4.87,4.8,2.34-.06,4.67-.12,6.99-.47,1.58-.23,3.23-.52,4.48.93-6.36,2.54-12.72,5.08-19.08,7.64-3.31,1.33-3.54-.76-3.85-3.2-1.48-11.84-3.06-23.66-4.62-35.49-.03-.25-.32-.47-.49-.7Z"/>
        <path class="cls-52" d="M363.89,282.96c.73.22,1.29.37,1.84.55,7.21,2.32,14.43,4.61,21.63,6.98,1.48.49,3.73.39,2.75,3.28-.96,2.82-2.6,1.05-3.8.68-7.51-2.32-14.98-4.8-22.47-7.2-1.18-.38-2.37-.67-1.57-2.33.4-.82.19-2.23,1.63-1.96Z"/>
        <path class="cls-121" d="M351.94,304.62c-1.75,5.18-.4,10.67-1.65,15.95-1.09,4.58-.88,9.43-2.72,13.96,0-8.2,0-16.41,0-24.61.03-.28.03-.57.01-.85.98-1.66-.71-3.75.86-5.32.3-2.63.61-5.26.91-7.9.97-1.66-.71-3.75.85-5.32.86-1.65-.34-3.67.94-5.25,2.63,2.06.94,4.66.87,7.05-.02,4.09-.05,8.19-.07,12.28Z"/>
        <path class="cls-88" d="M352.01,292.34c-.45-2.33.83-4.88-.87-7.06,0-1.18-.02-2.36-.03-3.53.44-1.45-.37-3.13.84-4.43.01-.57.02-1.15.04-1.72,2.31,1,1.12,2.77.95,4.32-.54,4.12.8,8.39-.93,12.42Z"/>
        <path class="cls-82" d="M352.94,279.91c-.33-1.44.52-3.13-.95-4.32-.04-1.3.04-2.56,1.88-4.2-.45,3.31.64,5.94-.93,8.52Z"/>
        <path class="cls-82" d="M336.13,310.8c-1.87,1.65-4.12.55-6.18.87,1.51-4.18,4.18-.19,6.18-.87Z"/>
        <path class="cls-82" d="M344.05,309.92c-1.87,1.65-4.12.55-6.18.87,1.62-3.38,4.15-.36,6.18-.87Z"/>
        <path class="cls-82" d="M327.31,311.69c-.67,1.03-1.74.83-2.73.88-1.22-1.92-.54-4.04-.63-6.08,1.77,1.32-.95,5.53,3.36,5.2Z"/>
        <path class="cls-82" d="M348.44,303.75c-.21,1.78.62,3.74-.86,5.32-.13-1.84-2.1-3.98.86-5.32Z"/>
        <path class="cls-82" d="M350.2,290.53c-.21,1.79.62,3.74-.85,5.32-.13-1.84-2.11-3.98.85-5.32Z"/>
        <path class="cls-82" d="M351.95,277.32c-.17,1.5.53,3.16-.84,4.43-.97-1.71-1.43-3.33.84-4.43Z"/>
        <path class="cls-66" d="M350.31,420.15c-.28,1.48-.56,2.96-.83,4.44.86,1.18.85,2.3-.24,3.35-3.49-4.49-8.45-3.48-13.11-3.48-25.25,0-50.5.04-75.74.06-1.47-1.51-4.71-2.53-1.49-5.36.98-.35,2.01-.46,3.03-.46,26.99-.03,53.98-.2,80.97.07,2.54.09,5.25-.7,7.42,1.39Z"/>
        <path class="cls-68" d="M257.7,420.05c.65,1.64,2.69,2.43,2.68,4.46-4.78,2.57-9.98,1.44-15.02,1.69-2.31-1.02-3.32-3.39-5.13-4.94-3-4.53-7.08-8.31-9.22-13.43.26-.41.62-.7,1.06-.89,4.35-.82,8.71-.6,13.08-.17,5.41,3.26,9.45,7.83,12.55,13.28Z"/>
        <path class="cls-68" d="M207.35,428.72c-.85-.24-1.7-.49-2.55-.73-1.95-.93-3.93-1.8-5.96-2.47-2.78-.92-4.38-2.66-4.78-5.54-.15-1.62-.27-3.24-.44-4.86.52-3.5-.51-6.92-.59-10.38-.04-1.59-.11-3.2.69-4.67,5.26-1.48,8.43,1.94,11.75,5.03,1.82,4.74,2.06,9.83,3.21,14.73.51,3.11,1.93,6.35-1.33,8.9Z"/>
        <path class="cls-9" d="M195.13,420.05c.1,3.09,2.55,3.96,4.77,5.12,1.67.87,3.58,1.35,4.9,2.82-17.32-5.94-35.25-2.81-52.92-3.63.31-1.43.62-2.86.92-4.29,7.34-.02,14.68-.04,22.02-.06,1.57-1.33,3.5-1.51,5.37-1.32,4.98.52,10.15-1.14,14.95,1.35Z"/>
        <path class="cls-95" d="M207.35,428.72c1.45-2.86,1.04-5.75.16-8.65.78-.73,1.72-1.19,2.76-1.21,7.02-.12,14.06-.72,21.06.36,1.34.53,2.18,1.65,2.36,2.96.33,2.47,2.12,3.69,3.8,5.06-1.09.99-2.45.82-3.72.73-8.83-.59-17.6.95-26.42.75Z"/>
        <path class="cls-50" d="M349.23,427.94c.08-1.12.16-2.23.24-3.35,10.21,0,20.42-.01,30.63-.02q1.66,5.18-3.88,5.18c-7.72,0-15.44.02-23.16-.02-1.51,0-3.37.53-3.83-1.8Z"/>
        <path class="cls-10" d="M237.49,427.24c-6.23.93-3.91-4.54-5.37-7.18-1.52-3.72-3.14-7.44-.83-11.44,4.31,3.24,6.53,8.11,9.63,12.29.59,2.7-.97,4.44-2.69,6.13-.24.09-.49.16-.74.2Z"/>
        <path class="cls-1" d="M238.23,427.03c.9-2.04,1.8-4.08,2.69-6.12,2.21,1.15,3.02,3.47,4.43,5.29-2.32.74-4.69,1.09-7.12.84Z"/>
        <path class="cls-110" d="M257.7,420.05c-3.84-4.12-7.68-8.23-11.51-12.35-1.18-1.35-1.19-2.96-.92-4.58,1.4-8.25,2.59-16.53,4.21-24.73.31-1.57.63-3.2,2.12-4.2,13.22,0,26.44,0,39.66,0,.51-.22.97-.14,1.38.23.31.31.62.63.87.99,7.06,10.19,7.08,10.34,19.47,8.79,5.68-.71,11.39-.61,17.07-1.34,5.86-.76,7.26.54,8.46,6.24,1.84,8.74,3.27,17.57,5.08,26.32.32,1.55.81,3.18-.45,4.61-28.48.01-56.95.03-85.43.04Z"/>
        <path class="cls-31" d="M292.02,374.3c-.25-.06-.51-.1-.77-.1-1.26-12.31-2.51-24.62-3.77-36.94.21-2.01,1.67-2.33,3.32-2.79,11.31-3.14,22.58-6.4,33.87-9.62,4.41,5.92,8.95,11.74,13.16,17.8,1.88,2.71,3.23,2.71,5.26.35,1.31-1.52,2.96-2.75,4.45-4.11-.12,3.03.5,6.11-.49,9.08-1.2,3.59.09,5.5,3.8,6,.98.13,1.92.59,2.88.89.4,4.29-2.34,7.64-3.5,11.46-.88,2.9-2.01,5.73-2.57,8.74-.74.85-1.74,1.06-2.79,1.12-15.21-1.15-30.45-.25-45.67-.55-2.46-.05-5.03.38-7.18-1.34Z"/>
        <path class="cls-5" d="M218.97,329.27c2.71.54,5.18-1.15,7.86-.85,2.28,4.15,1.98,8.77,2.21,13.24.78,15.36,1.4,30.73,2.55,46.08.39,5.26-.12,10.56.64,15.82.47,3.23-1.85,4.3-4.38,5.06-6.17.46-12.36,1.25-18.48-.47-1.38-.99-1.95-2.51-2.43-4.04-1.92-6.12-4.28-12.09-6.38-18.14-1.21-3.85-2.4-7.71-3.96-11.45-3.82-10.86-7.59-21.74-11.42-32.59-.59-1.68-1.09-3.35.05-5.02,6.57-3.18,13.79-3.77,20.79-5.26,2.27.02,4.38-.77,6.54-1.3,2.14-.33,4.16-1.36,6.41-1.07Z"/>
        <path class="cls-95" d="M227.66,407.66c2.92-.85,3.91-2.23,3.16-5.66-1.35-6.13-.62-12.52-1.13-18.8-1.16-14.43-1.35-28.94-2.04-43.41-.18-3.79-1.11-7.53-.83-11.36,10.35-2.36,20.72-4.67,31.06-7.09,3.22-.75,2.59,1.39,2.32,2.99-1.53,9.03-3.19,18.05-4.76,27.08-1.32,7.59-2.57,15.2-3.85,22.79-2.01,11.14-4.38,22.22-5.41,33.51-4.98.01-9.95.02-14.93.04-1.22.88-2.42,1.09-3.59-.08Z"/>
        <path class="cls-126" d="M227.69,285.32c-1.36,6.11-3.67,11.98-4.51,18.22-1.4,4.56-2.81,9.13-4.21,13.69-1.76,1.13-3.54.44-5.31.04-.28-.05-.58-.07-.83-.2-5.22-2.81-10.44-3.73-15.74-.14-.57.39-1.37.4-2.09.45-7.58-2.88-15.19-5.73-21.36-11.28.44-2.01,2.07-2.71,3.72-3.34,15.27-5.85,30.58-11.61,45.85-17.46,1.47-.56,3-1.41,4.48.02Z"/>
        <path class="cls-89" d="M213.61,316.3c1.79.31,3.57.62,5.36.93,0,4.01,0,8.03,0,12.04-1.82,1.49-3.98,1.84-6.24,1.81-.87.61-1.78.45-2.7.18-1.35-5.07,1.11-9.45,2.55-14.02.33-.33.68-.64,1.04-.94Z"/>
        <path class="cls-11" d="M185.44,337.24c.73,6.31,3.77,11.91,5.58,17.9,1.95,6.43,4.37,12.71,6.59,19.05-.58.75-1.4,1.17-2.28,1.19-6.85.15-13.76,1.25-20.47-1.15-.56-.32-1.12-.64-1.69-.97-3.32-7.14-6.63-14.28-9.96-21.42-.74-1.58-1.74-3.06-1.68-4.91.27-.04.55-.08.82-.13,6.53-3.16,13.09-6.28,19.77-9.12,1.05-.45,2.1-1.08,3.31-.45Z"/>
        <path class="cls-102" d="M174.86,374.23c7.58-.01,15.17-.03,22.75-.04,1.59,3.67,3,7.41,3.75,11.36-1.06,5.04-4.01,9.14-6.65,13.39-2.34,5.16-4.89,10.22-7.41,15.3-.38.76-1.01,1.59-.31,2.43.76.91,1.81.77,2.83.44,1.48-.47,2.57-2.07,4.4-1.56,1.45,1.27.71,2.98.9,4.5-6.77-.01-13.54-.02-20.31-.04,4.87-10.59,9.52-21.29,14.73-31.72,1.96-3.93,1.15-5.5-2.57-7.2-4.21-1.92-8.09-4.55-12.12-6.86Z"/>
        <path class="cls-29" d="M139.63,420.1c.88,2.61,1.93,5.18,1.64,8.02-6.13-2.14-12.1-4.61-17.65-8.02,5.34,0,10.67,0,16.01,0Z"/>
        <path class="cls-25" d="M402.22,333.69c2.47-6.97,7.31-12.66,10.44-19.28,12.14,1.06,24.34,1.58,36.4,3.48-10.8,7.66-22.1,14.53-33.48,21.28-5.12-.2-9.5-2.22-13.36-5.49Z"/>
        <path class="cls-89" d="M402.22,333.69c4.45,1.83,8.91,3.66,13.36,5.49.83,3.24,1.66,6.48,2.49,9.72,1.88,2.3,2.15,4.96,1.76,7.77-.3.31-.6.61-.9.92-4.79.35-9.63.37-14.34,1.16-2.86.48-3.34-.39-3.24-2.79.32-7.42.58-14.85.86-22.28Z"/>
        <path class="cls-99" d="M419.84,356.67c-.97-2.5-1.75-5.05-1.76-7.77,1.68.06,4.43-1.06,4.8.46.66,2.69-1.43,5.09-3.04,7.31Z"/>
        <path class="cls-59" d="M203.22,244.8c-.15.96-.11,1.87.63,2.62,1.68,1.57,1.56,3.89,2.42,5.8.22.86.27,1.72-.11,2.56-.14.16-.29.33-.44.49-.91.56-1.51,1.45-2.98.74-7.63-3.65-15.34-7.11-23.05-10.65,1.3-2.03,3.6-1.08,4.84-2.45,5.88-1.47,11.75-2.93,17.63-4.4,1.48,1.54,1.73,3.33,1.06,5.3Z"/>
        <path class="cls-115" d="M188.93,196.26c.34-3.3,3.31-2.66,5.28-3.54,2.68,3.32,4.19,7,3.6,11.36.91,2.96,2.43,5.75,2.59,8.93-1.34.83-2.55,2.26-4.34.89-.6-.6-1.2-1.2-1.79-1.8-3.68-4.64-5.58-9.88-5.33-15.84Z"/>
        <path class="cls-77" d="M188.93,196.26c1.78,5.28,3.55,10.56,5.33,15.84-2.59.14-3.31-2.27-4.74-3.62-1.03-.97-1.47-2.57-3.26-2.57-.58-1.84-2.22-2.68-3.54-3.82-2.69-1.62-5.55-2.58-8.74-2.27,0-.3,0-.6-.01-.9.3-.65.83-.91,1.52-.89,2.08-1.17,4.32-2.05,6.3-3.41,2.25,1.13,5.31-1.26,7.15,1.64Z"/>
        <path class="cls-70" d="M197.81,204.08c-1.2-3.79-2.4-7.57-3.6-11.36,1.44-.6,2.88-1.19,4.32-1.79,2.65-.67,5.3-1.42,7.96-.06-.7,2.54-4.1,3.19-4.29,6.09-1.02,1.38-1.6,3.03-2.65,4.4-.58.91-1.17,1.81-1.75,2.72Z"/>
        <path class="cls-107" d="M203.22,244.8c-.49-1.74-1.33-3.41-1.06-5.3.13-7.15,5.84-6.93,10.57-8-3.17,4.43-6.34,8.87-9.51,13.3Z"/>
        <path class="cls-94" d="M187.3,223.69c5.73-1.81,10.93-5.8,17.47-4.37.71.86,3.36-.76,2.58,2.01-4.36,3.29-9.29,4.63-14.7,4.31-1.42-.06-2.85.04-4.24-.39-.67-.3-1.27-.66-1.11-1.56Z"/>
        <path class="cls-34" d="M187.3,223.69c.31.29.61.59.92.88.86.63,1.87.77,2.89.85,4.17,1.35,8.44,1.46,12.76,1.05.66.28,1.21.62.93,1.48-1.13,3.22-2.99,4.21-6.39,2.77-4.66-1.97-9.5-3.48-14.45-5.26,1.09-1.35,2.29-1.43,3.35-1.78Z"/>
        <path class="cls-85" d="M199.55,201.36c-.47-2.28-.45-4.27,2.65-4.4,1.86.6,2.59,1.88,1.77,3.64-1.02,2.2-2.79,1.38-4.42.77Z"/>
        <path class="cls-23" d="M182.72,202.09c3.31-.7,4.32.73,3.54,3.82-1.42,1.09-2.87,1.61-4.22-.03-1.21-1.47-.5-2.69.68-3.79Z"/>
        <path class="cls-19" d="M206.49,190.87c-2.65-.13-5.3.94-7.96.06,2.63-2.49,5.29-2.74,7.96-.06Z"/>
        <path class="cls-103" d="M181.78,194.62c-1,3.17-3.81,2.98-6.3,3.41,1.47-2.29,3.18-4.16,6.3-3.41Z"/>
        <path class="cls-92" d="M204.8,227.96c-.29-.29-.57-.58-.86-.86-.59-2.69,1.16-4.14,2.98-5.54.74,0,1.1.44,1.31,1.07-1.14,1.78-2.29,3.55-3.43,5.33Z"/>
        <path class="cls-98" d="M208.23,222.63c-.29-.33-.59-.67-.88-1,.02-.18.04-.36.06-.54-.37-1.36-1.99-.83-2.64-1.76,1.45.79,6.97-2.68,3.46,3.3Z"/>
        <path class="cls-65" d="M196.05,213.9c1.45-.3,2.89-.59,4.34-.89-1.04,2.29-1.94,5.26-4.34.89Z"/>
        <path class="cls-90" d="M413.74,185.65c-3.81,3.28-7.38,6.8-10.67,10.6-3.32.87-5.55-.66-7.28-3.29,3.89-1.54,3.8-5.9,6.05-8.66,1.5-1.84,2.64-4.17,3.1-6.65,1.14.02,2.29.05,3.43.07,2.48,2.18,4.56,4.63,5.38,7.93Z"/>
        <path class="cls-95" d="M227.69,285.32c-8.53,2.14-16.46,5.97-24.71,8.91-8.55,3.05-16.99,6.39-25.47,9.65-1.33.51-2.88.83-3.48,2.43-.77.34-1.06.06-.95-.73.25-7.07.51-14.14.76-21.21,2.75,2.02,5.33-.08,7.84-.57,8.62-1.68,17.15-3.78,25.72-5.72.31-.24.62-.47.93-.71,3.43-2.34,7.52-2.53,11.36-3.55,2.68,3.51,5.36,7.02,8.03,10.53-.01.33-.02.65-.04.98Z"/>
        <path class="cls-93" d="M219.69,273.82c-3.19,3.09-7.42,2.86-11.36,3.55-.33-7.1-2.63-13.96-2.61-21.11,0,0-.06-.18-.06-.18,1.64-.94,2.48.3,3.22,1.33,3.85,5.34,8.25,10.31,10.9,16.45l-.1-.04Z"/>
        <path class="cls-7" d="M160.66,229.54c-2.52,2.03-4.42,2.26-6.11-1.22-1.43-2.94-3.61-5.51-5.45-8.24,1.9-3.83,5.85-5.13,9.07-7.31,2.35.69,2.95,2.37,2.61,4.59.9,1.66.97,3.46.85,5.29-3.98,1.79-.25,4.65-.96,6.89Z"/>
        <path class="cls-80" d="M160.66,229.54c-1.35-2.53-3.56-5.18.96-6.89,1.58,1.84,2.71,3.94,3.65,6.16.02,1.99-1.9,2.43-2.9,3.61-.57-.96-1.15-1.92-1.72-2.87Z"/>
        <path class="cls-72" d="M160.78,217.36c-.87-1.53-1.74-3.06-2.61-4.59,1.09-1.19,1.76-3.08,3.8-2.75.33.06.44,1.49.66,2.29-.6,1.69,1.14,4.24-1.85,5.05Z"/>
        <path class="cls-10" d="M383.74,187.32c2.92,1.53,5.84,3.06,8.75,4.58.65,3.25-2.2,5.21-2.93,7.95-1.68,2.57-2.91,5.44-5.07,7.69-.23.16-.48.26-.76.28-5.29-3-8.28-8.33-12.57-12.35-.58-.59-1.17-1.17-1.75-1.76-1.35-1.21-3.24-1.89-3.85-3.85-.29-1.54.29-2.91.84-4.29,1.08-1.56,1.68-3.48,3.34-4.62,5.64-.02,9.99,2.8,13.99,6.37Z"/>
        <path class="cls-78" d="M411.15,208.63c-3.27,3.22-6.54,6.44-9.81,9.66-2.16,1.91-4.33,3.82-6.48,5.74-1.55,1.38-2.9,1.51-4.38-.25-2.13-2.54-4.44-4.92-6.68-7.36,1.04-3.76,4.61-5.45,6.8-8.28,1.06-1.38,2.34-2.6,3.52-3.89.42-.97,1.15-1.38,2.19-1.24,3.19,1.45,6.63,2.09,9.98,3.05,1.77.51,3.76.76,4.87,2.58Z"/>
        <path class="cls-6" d="M376.41,214.95c-6.93,2.93-12.53,5.39-18.2,7.68-3.91,1.58-10.56-2.55-11.7-6.63-1.19-4.29-.09-8.76-1.49-13.01-.36-1.1-.02-2.62,1.84-1.76,9.51,4.38,19,8.82,29.55,13.72Z"/>
        <path class="cls-8" d="M366.97,185.67c-.29,1.46-.57,2.91-.86,4.37.16,3.78-1.82,6.48-4.47,8.85-.58.59-1.15,1.18-1.72,1.77-1.99.57-3.52.08-4.4-1.91-.95-3.21,1.93-5.15,2.61-7.82-.88-1.48.09-2.44.96-3.42,1.72-.8,1.38-3.42,3.46-3.91,2.09-.61,3.51.19,4.42,2.09Z"/>
        <path class="cls-58" d="M396.01,203.27c-.63.33-1.27.65-1.9.98-4.02-1.27-6.45,2.09-9.62,3.29,1.19-2.82,2.01-5.85,4.56-7.88,2.95-.83,5.33.12,7.3,2.33.08.48-.04.9-.35,1.27Z"/>
        <path class="cls-28" d="M371.17,195.47c4.82,3.48,8.77,7.84,12.57,12.35-.85,1.22-1.67,2.04-2.95.35-3.2-4.24-7.02-8.01-9.62-12.7Z"/>
        <path class="cls-70" d="M361.64,198.88c1.49-2.95,2.98-5.9,4.47-8.85,1.36.99,2.59,2.1,3.31,3.67-2.21.08-2.95,2.2-4.49,3.19-1.07.69-1.27,2.87-3.29,1.99Z"/>
        <path class="cls-123" d="M355.52,198.74c1.47.64,2.93,1.27,4.4,1.91-.61,1.51-2.04,2.55-3.3,2.02-1.36-.57-1.95-2.27-1.1-3.93Z"/>
        <path class="cls-57" d="M359.09,187.5c-.32,1.14-.64,2.28-.96,3.42-1.31-.89-.72-2.27-.9-3.45.62,0,1.24.02,1.86.03Z"/>
        <path class="cls-118" d="M513.91,397.83c-1.32-.9-3.14-1.75-2.9-3.4.22-1.61,1.62-3.38,3.52-2.99,1.38.28,3.1,1.65,2.75,3.37-.29,1.45-1.64,2.64-3.36,3.02Z"/>
        <path class="cls-87" d="M531.56,394.6c-.64,1.37-1.6,3-2.94,2.79-1.25-.19-3.53-.9-3.18-2.77.26-1.38,1.74-3.05,3.31-3.02,1.31.03,2.35,1.5,2.81,2.99Z"/>
        <path class="cls-87" d="M545.68,394.64c-.72,1.32-1.56,2.91-3.03,2.76-1.32-.14-2.79-1.46-2.63-3.02.15-1.4,1.4-2.91,2.86-2.77,1.34.12,2.38,1.5,2.8,3.03Z"/>
        <path class="cls-118" d="M89.16,394.73c-.89,1.33-1.74,3.05-3.42,2.92-1.55-.12-3.12-1.54-3.03-3.12.1-1.7,1.59-3.38,3.42-3.13,1.42.19,2.63,1.62,3.03,3.34Z"/>
        <path class="cls-87" d="M71.14,391.42c1.63.56,3.06,1.78,3.37,3.14.44,1.93-1.87,2.58-3.11,2.82-1.38.27-2.69-1.33-2.85-2.72-.18-1.57,1.43-2.34,2.58-3.24Z"/>
        <path class="cls-87" d="M60.21,394.48c-.85,1.48-1.66,3.11-3.14,2.92-1.31-.16-2.8-1.47-2.62-3.03.16-1.39,1.4-2.88,2.88-2.76,1.41.11,2.19,1.67,2.88,2.87Z"/>
        <path class="cls-5" d="M173.08,305.58c.32.25.63.49.95.74,6.98,3.5,13.97,7.01,20.95,10.51.16.17.32.34.48.52.08,3.65-.93,6.92-3.3,9.75-7.07-.23-14.1-.64-20.63-3.79-5.72-.94-11.42-1.97-17.16-2.76-1.87-.26-2.82-1.02-2.36-2.76,1.63-6.13,1.73-12.61,4.33-18.51,5.58,2.1,11.15,4.21,16.73,6.31Z"/>
        <path class="cls-126" d="M171.55,323.3c6.98,1.07,13.95,2.14,20.93,3.21,5.71-.45,10.64,2.02,15.67,4.13,1.15,1.99-1.08,1.43-1.62,2.15-7.03,1.49-14.06,2.97-21.09,4.46-7.05,3.22-14.1,6.44-21.14,9.66-.67.31-1.33.68-1.94-.1,3.06-7.84,6.12-15.67,9.18-23.51Z"/>
        <path class="cls-114" d="M526.47,375.1c.04-4.16-.78-8.2-1.67-12.23.85-.37,1.7-.74,2.55-1.11.26.07.53.07.79.01,1.02.14,2.03.28,2.74-.72.57-.03,1.13-.06,1.7-.09,1.91.04,2.93.46,2.29,2.86-.76,2.9-.87,5.97-1.46,8.92-.29,1.47-.21,3.4-2.01,4-1.92.64-3.7.16-4.92-1.64Z"/>
        <path class="cls-114" d="M75.14,362.89c-.83,4.67-1.66,9.33-2.49,14-4.76.96-6.12-1.55-6.27-5.78-.08-2.44-.56-4.93-1.27-7.27-.72-2.38.31-2.88,2.27-2.9.57.03,1.13.06,1.7.09.71,1,1.73.86,2.74.72.27.06.53.05.79-.02.84.38,1.68.76,2.52,1.15Z"/>
        <path class="cls-3" d="M396.08,202.39c-2.34-.91-4.68-1.82-7.03-2.73-.07-3.13,2.62-5.03,3.44-7.76,1.1.35,2.19.71,3.29,1.06,2.31,1.36,4.67,2.61,7.28,3.29,5.32,2.64,10.55,5.51,16.01,7.83,3.02,1.29,4.06,2.93,3.05,5.95-.67,1.98-.5,4.03-.53,6.06-3.8-1.84-5.87-5.54-8.86-8.25-5.6-1.68-11.6-2.13-16.66-5.44Z"/>
        <path class="cls-39" d="M383.74,187.32c-4.8-1.8-8.98-4.95-13.99-6.26-.27-.07-.39-.19-.35-.35.04-.19.09-.28.17-.28,2.92-.59,4.47-3.44,7.18-4.36,3.19,1.99,6.79,3.26,9.81,5.54,1.15.8,2.25,1.66,3.49,2.31.95,2.48-1.14,1.46-2.04,1.74-1.47.45-3.65-.98-4.27,1.66Z"/>
        <path class="cls-104" d="M369.56,180.43c.06.21.12.42.19.63-.46,1.82-.93,3.63-2.78,4.61-1.47-.7-2.95-1.39-4.42-2.09-.87-2.22.59-3.59,1.85-5.02,1.72.62,3.44,1.25,5.16,1.87Z"/>
        <path class="cls-112" d="M386.26,182.23c-3.16-2.08-7.41-2.47-9.52-6.17,5.66-2.68,7.58,2.27,10.52,5.15.2.87-.05,1.29-1.01,1.02Z"/>
        <path class="cls-15" d="M386.26,182.23c.34-.34.67-.68,1.01-1.02.93.9,1.85,1.8,2.78,2.71-1.51,0-2.75-.62-3.79-1.68Z"/>
        <path class="cls-35" d="M219.79,273.85c-3.6-4.86-7.17-9.75-10.82-14.57-.92-1.22-1.39-2.98-3.3-3.2,0-.76,0-1.52,0-2.28,3.06-1.93,5.42.14,7.92,1.4,1.97,6.26,4.92,12.19,6.2,18.67Z"/>
        <path class="cls-30" d="M213.58,255.19c-2.64-.47-5.28-.93-7.92-1.4-1.69-1.82-1.6-4.14-1.81-6.38,2.26-1.02,3.21,1.29,4.8,1.95,1.44.59,2.22,2.38,4.04,2.41.3,1.14.59,2.27.89,3.41Z"/>
        <path class="cls-2" d="M396.08,202.39c5.64,1.55,11.46,2.56,16.66,5.44-.53.27-1.06.53-1.59.8-3.74-1-7.51-1.93-11.22-3.04-1.44-.43-3.24-.5-3.91-2.33.02-.29.05-.58.07-.87Z"/>
        <path class="cls-71" d="M408.96,217.07c1.12-1.41,1.59-3.73,3.89-2.63.72.34,1.79,1.33,1.31,2-1.33,1.88-3.41.48-5.2.63Z"/>
        <path class="cls-55" d="M288.54,126.63c-1.44-.25-2.86-.6-4.31-.72-7.91-.66-8.03-.63-8.62-8.29-.37-4.8-.29-9.64-.52-14.45-.1-2.1.55-2.78,2.76-2.61,7.72.57,15.45,1.01,23.18,1.29,2.4.09,3.39.71,3.28,3.26-.15,3.64.07,7.3.13,10.95-.05,2.47-.37,4.97-.1,7.4.43,3.75-1.31,4.53-4.52,4.01-3.73-.61-7.49-1-11.28-.82Z"/>
        <path class="cls-100" d="M264.58,109.1c.01,2.31.03,4.61.04,6.92-7.28,0-14.57,0-21.85,0-1.24-4.06-2.58-.35-3.87-.04h-11.37c1.09-6.9,1.19-7.01,7.73-6.99,9.77.03,19.55.07,29.32.11Z"/>
        <path class="cls-46" d="M238.9,115.98c.12-.41.19-.85.38-1.22.69-1.37,1.25-3.34,3.24-2.64,2.58.9-.34,2.61.25,3.91-1.29-.01-2.58-.03-3.87-.04Z"/>
        <path class="cls-69" d="M245.31,130.07c2.38-5.84,5.47-8.19,10.28-7.81,4.02.32,6.99,3.23,8.03,7.87-1.43,2.1.23,4.91-1.79,6.99-2.37,2.44-4.89,4.18-8.45,3.48-3.96-.77-6.47-3.13-7.36-7.11-.78-1.03-1.18-2.14-.72-3.42Z"/>
        <path class="cls-83" d="M245.31,130.07c.96.99.37,2.31.72,3.42-2.87.34-5.76.6-8.62,1.05-3.48.54-5.34-.37-4.26-4.28,3.1,2.44,9.42,2.35,12.16-.19Z"/>
        <path class="cls-40" d="M220.56,133.89c-1.69-2.47-.95-4.62,1.39-5.87,2.38-1.28,4.53-.55,5.62,2.2-.26.55-.48,1.14-1.25,1.11-1.92-.85-3.42-.52-4.27,1.56-.37.52-.86.86-1.49,1.01Z"/>
        <path class="cls-79" d="M220.56,133.89l.84-1.05c2.15.6,3.85-.22,5.35-1.67.27-.32.54-.63.81-.95.72,2.06.27,3.87-1.68,4.86-1.95.99-3.95,1-5.33-1.18Z"/>
        <path class="cls-109" d="M361.7,390.06c-2.18-1.6-6-1.23-6.27-5.16-3.1-3.12-3.2-7.19-3.53-11.19,2.53-5.47,3.95-11.51,8.12-16.17,1.09-.73,2.26-1.07,3.58-.79,1.17,1.31,1.21,2.94,1.16,4.53-.28,8.85-1.38,17.65-1.94,26.48-.06.87-.39,1.7-1.11,2.3Z"/>
        <path class="cls-50" d="M361.7,390.06c-.33-11.16,1.91-22.17,1.89-33.31,3.07-.65,4.41.18,4.32,3.72-.2,8.12-1.54,16.2-.96,24.35-.11,1.01-.3,2.02-.33,3.03-.11,4.21-1.94,4.48-4.93,2.21Z"/>
        <path class="cls-33" d="M360.02,357.54c-2.38,5.28-4.77,10.55-7.15,15.83-1.45,2.14-3.22,2.39-5.29.88-1.3-.94-.71-2.03-.27-3.13,2.15-5.42,4.28-10.85,6.43-16.27,2.21.62,4.58.88,6.28,2.68Z"/>
        <path class="cls-102" d="M292.02,374.3c16.06.01,32.13,0,48.19.08,1.87,0,3.74.48,5.62.74,1.83,2.95,1.84,5.89-.02,8.83,2.58,10.69,6.74,20.88,9.99,31.36.22.7.42,1.4.63,2.1-2.04.91-4.08,1.83-6.12,2.75-2.39-.04-4.79-.09-7.18-.13-2.08-11.03-4.16-22.06-6.22-33.09-.43-2.27-1.72-3.19-4.03-3.01-10.18.81-20.36,1.53-30.54,2.37-1.35.11-2.81.58-3.6-.76-2.22-3.75-5.51-6.88-6.72-11.24Z"/>
        <path class="cls-48" d="M345.81,383.95c0-2.94.01-5.89.02-8.83.72-.02,1.36-.18,1.75-.86,1.81,0,3.65.14,5.29-.88.13,4,1.54,7.73,2.57,11.53-3.15-.9-6.37-1.11-9.63-.96Z"/>
        <path class="cls-102" d="M227.66,407.66c1.2.03,2.4.05,3.59.08.01.29.03.59.04.88.28,3.81.55,7.62.83,11.44-8.2,0-16.41,0-24.61.01-.88-4.98-1.77-9.95-2.65-14.93,1.99-.89,2.9.97,4.27,1.67,4.47,1.93,9.16.42,13.73.83,1.59.14,3.2.02,4.81.01Z"/>
        <path class="cls-126" d="M209.13,406.81c-1.42-.56-2.84-1.12-4.27-1.67-3.32-2.23-6.76-4.21-10.61-5.39-.25-.19-.34-.38-.27-.59.07-.21.15-.31.23-.31,1.98-4.66,4.43-9.06,7.16-13.31,3.17,6.87,5.18,14.17,7.76,21.26Z"/>
        <path class="cls-10" d="M194.21,398.86c.01.3.03.6.04.89-.02,3.61-.14,7.2.78,10.77.42,1.65.25,3.48-.79,5.03-2.37.93-3.76,4.37-7.16,2.74-1.49-.71-2.45-1.33-1.42-3.23,2.92-5.36,5.71-10.8,8.55-16.21Z"/>
        <path class="cls-108" d="M206.53,332.79c.57-.53,1.15-1.06,1.72-1.59.54-.59,1.13-.67,1.78-.19.9.03,1.8.05,2.7.08-1.89,1.21-4.02,1.53-6.19,1.7Z"/>
        <path class="cls-84" d="M213.61,316.3c-.02.26-.04.51-.06.76-6.08.36-12.16,2.36-18.25.07-.11-.1-.21-.2-.31-.31.39-.2.8-.36,1.16-.61,5.85-4.1,11.66-3.39,17.47.09Z"/>
        <path class="cls-120" d="M195.3,317.14c6.08.25,12.16-1.85,18.25-.07-1.17,4.65-2.35,9.29-3.52,13.94-.59.06-1.19.13-1.78.19-5.26-1.56-10.51-3.13-15.77-4.69.26-3.33,1.82-6.27,2.82-9.37Z"/>
        <path class="cls-27" d="M207.41,221.09c-.06.18-.08.36-.06.54-1.14,1.82-2.27,3.64-3.41,5.46-4.85,2.03-9.43.53-14.01-1.03-.14-2.22,1.95-.52,2.54-1.44,5.39.57,10.02-2.09,14.94-3.53Z"/>
        <path class="cls-120" d="M192.47,224.62c-.85.48-1.69.96-2.54,1.44-1.01,0-1.44-.65-1.71-1.49,1.42.02,2.83.03,4.25.05Z"/>
        <path class="cls-71" d="M158.6,220.26c-.96,1.02-1.99.61-2.94.53-.68-.05-1.09-.55-.75-1.2.51-.98,1.36-1.68,2.47-1.02.55.32.82,1.12,1.22,1.69Z"/>
        <path class="cls-125" d="M365.16,216.64c-3.92,2.26-7.55,5.17-12.57,2.08-2.51-1.55-4.67-2.65-4.21-6.1.14-1.06-.49-2.22-.77-3.33,3.55-1.16,6.15,1.33,9.02,2.52,3.01,1.24,6.61,1.63,8.54,4.84Z"/>
        <path class="cls-41" d="M365.16,216.64c-5.85-2.45-11.7-4.9-17.55-7.35-.09-1.57-.18-3.13-.3-5.2,7.86,3.62,15.34,7.07,23.08,10.64-1.8,1.67-3.45,1.99-5.22,1.91Z"/>
        <path class="cls-12" d="M294.76,105.58c4.95-1.18,6.94.31,6,4.67-.3,1.39,1.17,3.76-2.14,3.68-6.98-.15-7.9-.92-7.85-6.5.04-4.49,3.43-1.02,3.99-1.85Z"/>
        <path class="cls-111" d="M291.14,119.28c.1-1.84-.84-4.73,2.65-3.77,2.32.64,6.51-2.01,6.64,2.84.05,1.8,1.74,5.38-2.71,5.42-6.02.05-6.51-.23-6.58-4.49Z"/>
        <path class="cls-12" d="M283.36,112.71c-3,.61-3.97-.76-3.99-4.49-.03-4.51,2.63-3.32,5.1-3.54,3.86-.34,4.44,1.51,4.49,4.91.07,4.46-2.77,2.99-5.61,3.11Z"/>
        <path class="cls-12" d="M284.49,115.22c3.1-.72,4.53.63,4.14,4.36-.22,2.12.15,4.16-3.08,3.52-2.83-.56-6.5.8-6.37-4.59.1-4.21,2.53-3.22,5.31-3.29Z"/>
        <path class="cls-14" d="M251.41,133.88c-1.71-2.47-.97-4.62,1.38-5.87,2.38-1.27,4.53-.53,5.64,2.2-.27.54-.48,1.14-1.25,1.12-1.92-.84-3.42-.54-4.28,1.55-.37.52-.86.87-1.48,1.01Z"/>
        <path class="cls-79" d="M251.41,133.88c.28-.35.57-.7.85-1.05,2.15.61,3.85-.23,5.35-1.68.27-.31.54-.63.81-.94.7,2.06.27,3.88-1.68,4.87-1.95.98-3.96,1.02-5.33-1.19Z"/>
        <path class="cls-119" d="M226.76,131.16c-1.02,3-2.41,4.82-5.35,1.67,1-4.26,2.07-4.6,5.35-1.67Z"/>
        <path class="cls-32" d="M257.61,131.15c-1.01,3.02-2.4,4.83-5.35,1.68.99-4.26,2.07-4.6,5.35-1.68Z"/>
      </g>
    </g>
  </g>
</svg>