<?xml version="1.0" encoding="UTF-8"?>
<svg xmlns="http://www.w3.org/2000/svg" version="1.1" viewBox="0 0 600 500">
  <defs>
    <style>
      .cls-1 {
        fill: #bfa489;
      }

      .cls-2 {
        fill: #be9c82;
      }

      .cls-3 {
        fill: #2b2b2b;
      }

      .cls-4 {
        fill: #554363;
      }

      .cls-5 {
        fill: #7f9066;
      }

      .cls-6 {
        fill: #a1be77;
      }

      .cls-7 {
        fill: #333130;
      }

      .cls-8 {
        fill: #bd9980;
      }

      .cls-9 {
        fill: #896b57;
      }

      .cls-10 {
        fill: #7c8e62;
      }

      .cls-11 {
        fill: #cdcdcc;
      }

      .cls-12 {
        fill: #8f667b;
      }

      .cls-13 {
        fill: #d7bca6;
      }

      .cls-14 {
        fill: #80708b;
      }

      .cls-15 {
        fill: #627446;
      }

      .cls-16 {
        fill: #9da378;
      }

      .cls-17 {
        fill: #7e9065;
      }

      .cls-18 {
        fill: #32302f;
      }

      .cls-19 {
        fill: #e2c9b7;
      }

      .cls-20 {
        fill: #474747;
      }

      .cls-21 {
        fill: #607344;
      }

      .cls-22 {
        fill: #565959;
      }

      .cls-23 {
        fill: #507f68;
      }

      .cls-24 {
        fill: #bfa695;
      }

      .cls-25 {
        fill: #477760;
      }

      .cls-26 {
        fill: #5d8d71;
      }

      .cls-27 {
        fill: #8b779c;
      }

      .cls-28 {
        fill: #5a4765;
      }

      .cls-29 {
        fill: #8e667b;
      }

      .cls-30 {
        fill: #5d5f5d;
      }

      .cls-31 {
        fill: #555859;
      }

      .cls-32 {
        fill: #a28439;
      }

      .cls-33 {
        fill: #f1eeec;
      }

      .cls-34 {
        fill: #735f84;
      }

      .cls-35 {
        fill: #343331;
      }

      .cls-36 {
        fill: #6a9882;
      }

      .cls-37 {
        fill: #abcc89;
      }

      .cls-38 {
        fill: #d7d4cb;
      }

      .cls-39 {
        fill: #d4baa3;
      }

      .cls-40 {
        fill: #5c4a66;
      }

      .cls-41 {
        fill: #bc9a80;
      }

      .cls-42 {
        fill: #564463;
      }

      .cls-43 {
        fill: #ac8a9b;
      }

      .cls-44 {
        fill: #ad8a9c;
      }

      .cls-45 {
        fill: #84c3a5;
      }

      .cls-46 {
        fill: #8f7229;
      }

      .cls-47 {
        fill: #5a5b57;
      }

      .cls-48 {
        fill: #76b798;
      }

      .cls-49 {
        fill: #d9bda8;
      }

      .cls-50 {
        fill: #e3e0d6;
      }

      .cls-51 {
        fill: #637546;
      }

      .cls-52 {
        fill: #866955;
      }

      .cls-53 {
        fill: #a4883d;
      }

      .cls-54 {
        fill: #aacb87;
      }

      .cls-55 {
        fill: #c6a0b5;
      }

      .cls-56 {
        fill: #896a57;
      }

      .cls-57 {
        fill: #487961;
      }

      .cls-58 {
        fill: #e1c9b6;
      }

      .cls-59 {
        fill: #c7a1b6;
      }

      .cls-60 {
        fill: #b89f83;
      }

      .cls-61 {
        fill: #a0bc76;
      }

      .cls-62 {
        fill: #a28674;
      }

      .cls-63 {
        fill: #bf9c82;
      }

      .cls-64 {
        fill: #bc987e;
      }

      .cls-65 {
        fill: #6e4f5f;
      }

      .cls-66 {
        fill: #6f7173;
      }

      .cls-67 {
        fill: #735f83;
      }

      .cls-68 {
        fill: #91697c;
      }

      .cls-69 {
        fill: #5d6060;
      }

      .cls-70 {
        fill: #d8bca6;
      }

      .cls-71 {
        fill: #e7e5de;
      }

      .cls-72 {
        fill: #8e657a;
      }

      .cls-73 {
        fill: #2e2e2d;
      }

      .cls-74 {
        fill: #7b9b5d;
      }

      .cls-75 {
        fill: #b5ab8a;
      }

      .cls-76 {
        fill: #576e3d;
      }

      .cls-77 {
        fill: #607244;
      }

      .cls-78 {
        fill: #866855;
      }

      .cls-79 {
        fill: #86c5a7;
      }

      .cls-80 {
        fill: #bd997f;
      }

      .cls-81 {
        fill: #866754;
      }

      .cls-82 {
        fill: #a189b6;
      }

      .cls-83 {
        fill: #558c71;
      }

      .cls-84 {
        fill: #8b779d;
      }

      .cls-85 {
        fill: #c7a0b5;
      }

      .cls-86 {
        fill: #7a8d60;
      }

      .cls-87 {
        fill: #c8a2b4;
      }

      .cls-88 {
        fill: #d8bca7;
      }

      .cls-89 {
        fill: #876956;
      }

      .cls-90 {
        fill: #8d6e5b;
      }

      .cls-91 {
        fill: #548b70;
      }

      .cls-92 {
        fill: #c3c4b0;
      }

      .cls-93 {
        fill: #f1f4ed;
      }

      .cls-94 {
        fill: #cececd;
      }

      .cls-95 {
        fill: #4f5253;
      }

      .cls-96 {
        fill: #96792d;
      }

      .cls-97 {
        fill: #474847;
      }

      .cls-98 {
        fill: #746085;
      }

      .cls-99 {
        fill: #8e705c;
      }

      .cls-100 {
        fill: #788b5d;
      }

      .cls-101 {
        fill: #ebebea;
      }

      .cls-102 {
        fill: #886956;
      }

      .cls-103 {
        fill: #bc997f;
      }

      .cls-104 {
        fill: #7a9b5c;
      }

      .cls-105 {
        fill: #c8a3b8;
      }

      .cls-106 {
        fill: #735f85;
      }

      .cls-107 {
        fill: #b18d94;
      }

      .cls-108 {
        fill: #f5f5f4;
      }

      .cls-109 {
        fill: #c49fb4;
      }

      .cls-110 {
        fill: #a18ab6;
      }

      .cls-111 {
        fill: #bc987f;
      }

      .cls-112 {
        fill: #907327;
      }

      .cls-113 {
        fill: #574565;
      }

      .cls-114 {
        fill: #46765f;
      }

      .cls-115 {
        fill: #819f64;
      }

      .cls-116 {
        fill: #c9a2b6;
      }

      .cls-117 {
        fill: #2d2d2c;
      }

      .cls-118 {
        fill: #957527;
      }

      .cls-119 {
        fill: #c59fb5;
      }

      .cls-120 {
        fill: #d6bba5;
      }

      .cls-121 {
        fill: #bd9981;
      }

      .cls-122 {
        fill: #548b71;
      }

      .cls-123 {
        fill: #c7a1b5;
      }

      .cls-124 {
        fill: #9d7f6b;
      }

      .cls-125 {
        fill: #f9f7f6;
      }

      .cls-126 {
        fill: #84956c;
      }

      .cls-127 {
        fill: #bd9a83;
      }

      .cls-128 {
        fill: #ededec;
      }

      .cls-129 {
        fill: #b4977c;
      }

      .cls-130 {
        fill: #7a9a5c;
      }

      .cls-131 {
        fill: #497962;
      }

      .cls-132 {
        fill: #bd9a80;
      }

      .cls-133 {
        fill: #a089b6;
      }

      .cls-134 {
        fill: #8b6c59;
      }

      .cls-135 {
        fill: #6bac8c;
      }

      .cls-136 {
        fill: #eaeae9;
      }

      .cls-137 {
        fill: #876855;
      }

      .cls-138 {
        fill: #bb997e;
      }

      .cls-139 {
        fill: #837086;
      }

      .cls-140 {
        fill: #d5bca5;
      }

      .cls-141 {
        fill: #e3cab8;
      }

      .cls-142 {
        fill: #8e9e6b;
      }

      .cls-143 {
        fill: #9b7f36;
      }

      .cls-144 {
        fill: #333131;
      }

      .cls-145 {
        fill: #d9bda7;
      }

      .cls-146 {
        fill: #85c4a7;
      }

      .cls-147 {
        fill: #8a779c;
      }

      .cls-148 {
        fill: #947662;
      }

      .cls-149 {
        fill: #8b789d;
      }

      .cls-150 {
        fill: #ececea;
      }

      .cls-151 {
        fill: #4a5f2d;
      }
    </style>
  </defs>
  <!-- Generator: Adobe Illustrator 28.7.1, SVG Export Plug-In . SVG Version: 1.2.0 Build 142)  -->
  <g>
    <g id="Layer_1">
      <g>
        <path class="cls-101" d="M11.58,69.52c.19-2.2,1.22-3.24,3.53-3.88,27.24-7.54,54.95-10.43,83.15-8.81,1.06.06,2.05.15,2.97.81,5.25,3.74,10.19,8.09,15.89,10.93,5.4,2.69,4.91,6.72,4.5,11.07-1.09,11.43-2.26,22.86-3.59,34.26-.32,2.74-.36,5.74-2.58,7.93-1.88.33-3.12,1.79-4.54,2.81-7.6,5.48-16.07,8.51-25.28,9.96-6.97,1.09-13.79,3.04-20.7,4.46-3.16.65-6.25.69-9.37-.06-8.18-1.98-16.46-3.48-24.69-5.25-3.63-.78-6.25-2.41-8.11-5.7-4.07-7.18-8.64-14.08-12.87-21.17-1.7-2.84-2.32-5.66-1.83-9,1.33-9.03,1.69-18.2,3.89-27.12.12-.47-.1-.87-.36-1.24Z"/>
        <path class="cls-122" d="M364.49,175.34c-.3-.03-.56-.13-.8-.32-1.88-2.9-.19-5.55.77-8.11,6-15.97,12.1-31.89,18.2-47.82,1.59-4.15,2.41-8.68,5.43-12.21.67-.4,1.41-.6,2.18-.67,14.19,1.38,28.21,4,42.28,6.17,35.01,5.39,70.03,10.74,105.04,16.13.89.14,1.78.26,2.66.49,1.38.97,4.85.61,2.53,3.95-10.64,1.26-20.88,4.43-31.23,6.96-47.94,11.69-95.9,23.28-143.85,34.91-.59.14-1.17.25-1.78.26-.49.04-.97.13-1.44.26Z"/>
        <path class="cls-122" d="M598.49,163.35c-2.71,10.14-5.48,20.26-8.08,30.42-.52,2.05-1.93,2.43-3.51,2.94-7.58,2.39-15.15,4.81-22.73,7.21-6.99,4.1-14.97,5.35-22.56,7.66-17.84,5.45-35.79,10.55-53.64,15.95-4.16,1.26-8.23,1.5-12.45.66-15.64-3.13-31.28-6.26-46.92-9.39-1.41-.28-3.11-.16-3.69-2.01,4.87-3.14,10.54-4.15,15.93-5.84,21.53-6.72,42.98-13.7,64.59-20.2.71-.21,1.37-.62,2.05-.93,1.09-.48,2.21-.85,3.39-1.06,11.64-3.43,23.05-7.56,34.57-11.34,15.37-5.05,30.7-10.2,46.05-15.31,1.56-.52,3.1-1.23,4.76-1.27,1.59-.04,3.23.13,2.25,2.51Z"/>
        <path class="cls-135" d="M540.65,129.93c-9.56-.51-18.9-2.6-28.35-3.94-14.9-2.11-29.76-4.57-44.63-6.9-18.56-2.9-37.1-5.85-55.67-8.7-7.37-1.13-14.77-2.07-22.15-3.1.69-2.59,3.02-2.13,4.77-2.38,16.36-2.26,32.78-4.04,49.18-5.98,24.45-2.9,48.89-5.86,73.35-8.74,5.22-.62,10.45-1.12,15.65-1.86,1.86-.27,3.59-.04,5.19.95,17.51,8.5,35.1,16.86,52.16,26.25-.84,1.12-2,1.77-3.31,2.21-12.08,4.05-24.15,8.11-36.28,12.01-.71.23-1.46.31-2.21.35-2.56-.55-5.15.31-7.71-.17Z"/>
        <path class="cls-114" d="M425.06,216.61c9.88,2.07,19.75,4.17,29.64,6.2,7.01,1.44,14.1,2.51,21.04,4.23,5.93,1.47,11.2-.52,16.6-2.12,23.21-6.88,46.41-13.83,69.61-20.74.7-.21,1.48-.18,2.22-.26-11.15,16.33-22.31,32.66-33.43,49.02-1.09,1.61-2.36,1.33-3.91,1.08-7.1-1.12-14.21-2.12-21.32-3.16-3.25,1.13-6.33-.42-9.5-.62-7.96-1.31-15.93-2.62-23.92-3.75-6.42-1.28-12.93-2.08-19.35-3.38-12.65-1.76-25.25-3.82-37.8-6.16-2.57-.23-5.11-.52-7.2-2.27-7.1-1.19-14.19-2.41-21.29-3.57-1.37-.22-2.53-.32-3.01-2.06-1.91-6.91-4.65-13.57-6.09-20.62,1.53-1.42,3.34-1.08,5.1-.74,13.8,2.67,27.69,4.87,41.41,7.94.49.21.89.54,1.19.98Z"/>
        <path class="cls-45" d="M538.01,89.28c-9.19,1.01-18.39,1.98-27.57,3.04-9.18,1.06-18.35,2.21-27.52,3.31-11.1,1.34-22.2,2.67-33.31,4.01-8.88,1.07-17.77,2.04-26.64,3.23-11.04,1.48-22.21,1.9-33.11,4.42-.59.03-1.19.06-1.78.1-3.35-4.2-5.5-9.12-8.29-13.66.61-.58,1.23-1.16,1.84-1.74,3.19-1.81,6.82-2.14,10.3-2.89,10.36-2.23,20.68-4.59,30.94-7.24,12.01-2.43,23.92-5.31,35.92-7.78.6-.12,1.13-.38,1.53-.85,10.02.75,19.46-2.73,29.19-4.09,7.11-1,14.13-2.59,21.18-3.97,1.89-.37,3.42-.17,4.88,1.34,7.43,7.64,14.95,15.19,22.44,22.76Z"/>
        <path class="cls-135" d="M425.06,216.61c-.27-.05-.55-.09-.83-.11-7.46-4.54-13.43-10.92-20.13-16.4-4.84-3.96-9.92-7.69-14.11-12.41-2.88-3.03-7.01-3.66-10.55-5.42-4.91-2.46-9.96-4.64-14.95-6.94.03-.18.09-.34.21-.48,6.64-1.32,13.2.15,19.71.87,34.66,3.83,69.34,7.37,104,11.24,4.18.47,8.37.88,12.56,1.27,2.51.23,5.15.25,7.18,2.17-5.95,3.61-12.84,4.65-19.31,6.77-19.15,6.28-38.45,12.12-57.69,18.13-1.99.62-3.94,1.46-6.1,1.32Z"/>
        <path class="cls-135" d="M540.65,129.93c2.31-1.28,4.73-1.62,7.29-.89-.5,1.53-.82,2.51,1.28,3.61,14.32,7.47,28.51,15.2,42.69,22.94,2.02,1.1,4.01,2.91,6.62,1.32,1.34,2.16,1.24,4.3-.04,6.44-.98-3.61-3.28-1.15-4.63-.71-19.22,6.27-38.39,12.72-57.58,19.11-7.11,2.37-14.21,4.74-21.33,7.06-1.34.43-2.62,1.57-4.18.63-1.05-1.65.17-2.87.86-4.12,9.31-16.84,19.05-33.43,28.4-50.25.58-1.04,1.14-2.15,2.5-2.41,1.89-2.64-1.98-1.33-1.88-2.74Z"/>
        <path class="cls-34" d="M92.05,245.4c-7.08-8.4-15.32-15.66-23.06-23.4-2.68-2.68-1.99-3.75,1.09-4.69,17.93-7.42,36.52-12.99,54.82-19.36,18.45-6.42,36.89-12.91,55.49-18.88,2.04-.66,4.14-2.13,6.38-.42-.25,1.78-2.35,2.04-2.92,3.55-.81,1.53-2.28,2.28-3.66,3.17-9.86,6.39-19.4,13.24-29.04,19.95-5.28,3.09-10.02,6.97-15.19,10.23-2.96,1.86-5.87,3.8-8.57,6.03-3.1,1.98-6.2,3.97-9.04,6.33-3.6,2.34-7.24,4.62-10.63,7.27-4.79,3.49-10.08,6.29-14.53,10.27-.39.23-.78.19-1.14-.06Z"/>
        <path class="cls-65" d="M121.64,402.51c-.62-14.09-1.25-28.17-1.87-42.26-.93-8.66-.51-9,7.56-6.41,13.67,4.39,27.19,9.22,40.75,13.91,2.54.88,5.21,1.7,5.83,4.9,1.2,8.1,2.41,16.19,3.61,24.29-5.22,3.18-11.23,2.21-16.86,3.18-7.46.81-14.92,1.54-22.37,2.44-.53.1-1.06.15-1.59.17-2.95-.06-5.83.52-8.73.85-2.18.25-4.41.41-6.32-1.08Z"/>
        <path class="cls-135" d="M379.79,93.73c4.44,3.53,6.29,8.64,8.29,13.66-6.34,16.89-12.78,33.74-18.97,50.68-2.03,5.56-5.12,10.82-5.41,16.95-1.46-.27-1.66-1.62-2.17-2.64-7.39-14.73-14.71-29.49-22.16-44.19-1.14-2.25-1.12-3.66,1.06-5.27,13.17-9.67,26.25-19.45,39.36-29.19Z"/>
        <path class="cls-133" d="M186.77,178.66c-10.69,2.4-20.83,6.54-31.18,9.98-20.46,6.81-40.83,13.9-61.22,20.9-6.52,2.24-12.98,4.61-19.51,6.82-1.52.52-3.04,1.41-4.78.95,3.76-3.26,8.47-5.01,12.52-7.8,1.83-1.26,3.66-2.54,5.48-3.81,6.08-4.94,13.13-8.32,19.85-12.21,18.02-10.43,35.89-21.1,53.99-31.38,2.21-1.25,4.62-2.05,6.74-3.45.92-1.27,2.47-.7,3.69-1.26,6.46-2.97,6.5-2.93,10.15,3.23,2.35,3.96,4.65,7.95,6.95,11.94,2.54,4.39,2.38,4.73-2.69,6.09Z"/>
        <path class="cls-101" d="M427.09,426.77c6.59-.58,13.18-1.17,19.77-1.75.58.22,1.26.6,1.27,1.15.06,6.02,4.82,8.13,8.96,10.58,3.18,1.88,5.96,4.5,9.66,5.46,5.13-2.17,9.35-5.77,13.95-8.77,1.9-1.24,1.97-3.14,1.61-5.18-.36-2.01-1.09-4.1.54-5.95,7.2,1.18,14.38,2.47,21.6,3.53,15.04,2.21,30.1,4.29,45.23,7.16-9.37,1.84-18.73,3.72-28.1,5.5-13.79,2.61-27.54,5.4-41.4,7.6-7.88,1.25-15.6,4.75-23.74,3.2-12.6-2.41-25.1-5.34-37.65-8.05-.56-.47-.77-1.09-.82-1.8,2.5-4.61,5.31-9.01,9.13-12.68Z"/>
        <path class="cls-21" d="M482.83,422.3c3.26,9.2-1.91,13.88-9.3,17.46-2.39,1.16-4.17,3.38-6.86,4.04-1-1.33-1.85-2.68-2.12-4.4-3.59-23.15-7.16-46.3-10.79-69.45-.09-.59-.07-1.2-.05-1.8.08-1.52.5-2.97,1.58-4.04,4.22-4.18,9.19-7.39,14.16-10.58.74-.48,1.7-.53,2.46.21,3.36,21.86,6.71,43.72,10.09,65.57.16,1.02.55,2,.84,2.99Z"/>
        <path class="cls-6" d="M444.82,356.58c-1.78-6.25-.15-12.4.65-18.55,1.22-9.44,2.58-18.86,3.9-28.28.16-1.12-.21-2.04-.78-2.94.65-8.43,1.88-16.8,3.07-25.17.24-1.71.28-3.66,2.44-4.36,8.04,2.32,15.44,5.9,22,11.18,1.44,7.94,1.97,15.95,1.87,24-.06,4.89.73,9.88-1.35,14.59.16.17.15.33-.04.47-3.9,4.08-8.98,6.51-13.52,9.7-4.55,3.2-9.23,6.22-13.88,9.27-1.71,1.12-3.14,2.35-2.98,4.65-.15,1.9.4,3.96-1.37,5.44Z"/>
        <path class="cls-145" d="M289.6,250.88c-6.71-.3-13.44-.97-20.14-.77-4.12.12-5.59-1.47-5.85-5.13-.64-8.77-1.32-17.55-1.96-26.32-.14-1.93.13-3.91-.87-5.7,1.24-1.29,2.78-1.1,4.33-.9,4.21,1.27,8.75,1.22,12.79,3.17,1.55,1.66.97,3.91,1.61,5.81,2.28,3.44,2.79,3.43,4.9-.08.72-1.89.1-4.17,1.69-5.81,4.83-2.33,10.19-2.27,15.3-3.36,1.3-.28,2.66-.41,3.99-.71,1.72-.18,3.41-.29,4.67,1.25.86,1.5.88,3.16.89,4.8.04,9.14.1,18.27-.02,27.41-.07,5.69-1,6.64-6.51,6.63-4.94,0-9.89.41-14.81-.29Z"/>
        <path class="cls-101" d="M198.59,436.69c4.3-.42,8.43,1.52,12.74.91,1.24,0,1.97.44,1.58,1.84-8.95,1.62-17.9,3.2-26.84,4.88-16.12,3.03-32.19,6.31-48.35,9.07-4.53.77-9.05-1.45-13.54-2.35-18.72-3.77-37.38-7.86-56.05-11.86-.84-.18-1.62-.62-3.34-1.29,12.08-1.05,23.19-1.71,34.21-3.08,7.82-.97,15.77-.79,23.5-2.59.18.15.36.3.54.45,1.37,3.01-.42,5.93-.26,8.9-.04.43-.13.86-.23,1.28-.33,1.34-.99,2.7.18,3.97,5.83.68,11.64.71,17.43-.03.98-2.51-1.5-3.7-2.12-5.59-1.42-2.45-3.17-4.68-4.66-7.07-.73-1.17-2.05-2.53.17-3.64,13.21-2.09,26.38-2.67,39.41,1.19,2.42,1.79.42,5.13,2.48,7.04,6.55.76,13.11.22,19.67.29,1.13.01,2.07-.25,2.57-1.37.27-.36.58-.68.93-.96Z"/>
        <path class="cls-145" d="M193.01,239.08c-.63,6.75,2.14,13.18,1.83,19.89-.71.3-1.22-.06-1.72-.49-.86-.83-1.59-1.79-2.46-2.6-1.55-1.46-3.09-3.11-5.41-1.36-2.05,1.55-4.16,3.09-2.96,6.26,1.1,2.88,1.34,5.61-2.11,7.21-4.71,1.65-9.71,2.25-14.35,4.14-4.92.24-9.63,1.67-14.45,2.47-1.86.31-3.76,1.11-5.58-.18-3.19-9.87-4.16-20.2-6.2-30.3-.38-1.88-.82-3.89.97-5.45.46-.29.96-.5,1.49-.62,7.63-.11,15.26-.82,22.88.14,2.39.86,2.55,3.25,3.49,5.1,1.92,2.46,3.72,2.58,5.37-.27.85-2.59-.74-5.23.18-7.82,3.29-2.27,6.73-4.28,10.35-5.99,2.55-.81,5.14-1.91,7.35.73,1.3,2.92,1.39,6.02,1.33,9.14Z"/>
        <path class="cls-11" d="M11.58,69.52c2.34,3.63-.15,7.25-.23,10.85-.15,6.21-1.43,12.4-2.29,18.59-.3,2.14-.11,3.97,1.12,5.95,4.92,7.86,9.61,15.86,14.36,23.83,1.13,1.9,2.64,2.97,4.89,3.42,9.21,1.86,18.36,4.03,27.58,5.83,7.46,1.46,14.32-2.01,21.45-3.21,6.32-1.06,12.63-2.37,18.8-4.06,5.83-1.6,10.23-6.07,15.57-8.73.91-.45,1.64-1.52,2.62-.17-2.58,3.68-5.55,7.16-7.65,11.1-2.3,4.32-5.76,5.99-10.25,6.96-12.58,2.73-25.09,5.76-37.63,8.65-2.38.55-4.72.55-7.09-.24-10.67-3.59-21.34-7.16-32.06-10.59-2.23-.71-3.52-2.14-4.56-4-4.81-8.65-9.54-17.36-14.44-25.96-1.45-2.54-1.64-4.79-.64-7.59,3.63-10.16,6.99-20.42,10.46-30.64Z"/>
        <path class="cls-101" d="M342.74,435c8.56-.06,16.84,2.17,25.28,3.04,3.99.41,7.95,1.13,12.23,2.44-4.34,1.41-8.64,2.95-13.03,4.21-11.35,3.26-22.81,6.13-34.06,9.7-5.7,1.81-10.92-.05-16.25-.75-18.31-2.4-36.57-5.21-54.84-7.92-11.2-1.66-22.37-3.47-33.57-5.14-1.92-.29-3.89-.22-5.83-.32-.64-.96-.6-1.85.28-2.66,14.01-1.91,28.01-3.81,42.02-5.74,5.3-.73,10.6-1.5,15.89-2.25.77,2.99-1.83,4.54-2.94,6.71-.75,1.47-1.87,2.73-2.59,4.22-.2.6-.26,1.19.2,1.72,9.86.76,19.71.12,29.55.34,2.53.06,5.08-.26,7.59.36,2.42.58,2.17,3.26,3.62,4.61,9.4.96,18.82.24,28.21.43,2.53-1.48.34-3.09.07-4.6-.51-2.82-3.3-5.15-1.83-8.42Z"/>
        <path class="cls-29" d="M173.91,372.66c-1.47-2.07-3.68-2.92-5.97-3.69-13.45-4.55-26.88-9.14-40.32-13.7q-7.3-2.47-7.85,4.99c-1.99-5.67.42-10.75,2.14-15.93.56-1.69,1.13-3.37,1.7-5.05.42-1.17,1.34-1.69,2.48-1.95,7.93-.36,15.86-.66,23.75.65,4.95.15,9.89-.21,14.84-.06,2.75.09,4.65.96,4.69,4.07,1.51,10.22,3.03,20.45,4.54,30.67Z"/>
        <path class="cls-66" d="M339.99,391.56c-.9,10.25-1.8,20.51-2.7,30.76-.11.44-.16.97-.48,1.24-7.05,5.77-14.01,11.64-21.45,16.92-.5.36-1.12.38-1.74.32-.48-.14-.83-.42-1.08-.85-.84-2.31-1.04-4.76-1.5-7.16-1.49-11.36-2.97-22.72-4.47-34.07-.25-1.91-.47-3.85-.14-5.79.2-.53.56-.91,1.07-1.16,4.88-1.09,9.83-.28,14.75-.51,2.68-.13,5.4.25,8.02-.63,3.29-.23,6.66-1.22,9.72.92Z"/>
        <path class="cls-114" d="M598.53,156.91c.1,2.85-1.16,2.84-3.27,1.69-13.15-7.14-26.34-14.21-39.51-21.31-3.67-1.98-7.33-3.97-10.97-5.93.38-1.85,2.49-1.05,3.15-2.32,12.75-3.28,24.97-8.21,37.53-12.07,1.57-.48,3.14-.96,4.71-1.43,3.22,13.71,5.88,27.52,8.36,41.38Z"/>
        <path class="cls-95" d="M339.99,391.56c-3.23.02-6.45.04-9.68.06-7.85.79-15.68.79-23.47-.63-3.21-7.12-4.73-14.56-4.33-22.38.76-1.46,2.19-2,3.6-2.49,11.91-4.13,23.63-8.76,35.57-12.81.5-.06.94.08,1.32.4-.2,12.68-1.87,25.24-3.01,37.85Z"/>
        <path class="cls-116" d="M178.63,308.43c-.32.05-.65.1-.97.16-7.39,5.75-15.29,10.71-23.52,15.17-5.12,1.63-10.16,3.51-15.49,4.41-.46-.07-.88-.24-1.26-.51-3.26-4.11-4.1-9.26-5.99-13.96-2.13-5.29-4.13-10.63-6.16-15.95-.26-.85-.51-1.7-.5-2.6,1.99-4.74,6.31-7.39,9.71-10.87.39-.22.81-.32,1.25-.32.65.23,1.07.71,1.4,1.3,3.46,7.62,5.85,15.67,9.57,23.73,3.76-4.86,5.52-10.51,9.14-14.99.39-.19.81-.24,1.24-.2,3.37,1.4,6.3,3.7,10.14,5.3-1.18-6.89-3.44-13.03-4.39-19.45.06-.45.27-.82.6-1.13,1.8-.53,2.34.82,2.93,2.01,4.4,8.76,8.5,17.66,12.55,26.59.1.47.02.9-.24,1.3Z"/>
        <path class="cls-130" d="M444.82,356.58c.08-2.15.15-4.29.23-6.44.46-.11,1.01-.12,1.25.23,3.55,5.26,7.83,10.16,8.54,16.87,1.31,8.86,2.59,17.73,3.94,26.59,2.3,15.05,4.63,30.09,6.97,45.14.25,1.62.61,3.23.92,4.84-5.8-3.56-11.59-7.14-17.4-10.67-3.29-2-.86-5.63-2.41-8.11-.66-21.31-1.33-42.62-1.99-63.93-.05-1.5-.03-3-.05-4.5Z"/>
        <path class="cls-64" d="M368.2,323.82c-7.09,4.94-14.2,9.86-21.26,14.84-1.44,1.02-3.24,1.64-4.12,3.35-5.03,4.73-10.97,8.15-16.86,11.64-3.25.4-6.35-.31-9.41-1.32-2.54-2.16-1.85-5.14-1.96-7.89-.08-1.93-.17-3.86-.15-5.78.12-1.97,1.52-3.17,2.74-4.48,7.38-7.87,15.66-14.79,23.42-22.25.39-.23.81-.38,1.26-.48,5.52.43,9.92,3.83,14.91,5.66,2.92,1.07,5.69,2.57,8.57,3.79,1.27.54,2.96.93,2.86,2.92Z"/>
        <path class="cls-6" d="M335.73,260.79c.82.33,1.5.82,1.8,1.7,1.4,16.01,4.01,31.88,5.14,47.92-.16.88-.78,1.35-1.51,1.72l-.15.12c-.78.46-1.6,1.05-2.47,1.03-6.73-.17-13.4,1.71-20.15.59-4.45-4.15-4.67-10.04-6.33-15.34,2.67-5.76.55-10.27-3.64-14.32-.94-.91-1.64-2.14-1.02-3.61,1.57-1.55,3.41-2.65,5.55-3.22.77,0,1.51.22,2.05.73,2.19,2.06,3.72,1.36,5.45-.81,3.6-4.52,7.53-8.78,11.14-13.31,1.09-1.36,2.2-2.85,4.13-3.19Z"/>
        <path class="cls-111" d="M289.6,250.88c4.73-2.03,9.72-.94,14.54-.84,4.38.08,5.57-1.24,5.45-5.55-.3-10.78-.09-21.58-.08-32.37-2.13-4.57-1.87-6.95,1.07-9.91,2.99-.61,5.76-.18,8.18,1.79.4.65.65,1.4.47,2.13-.8,3.36.74,5.01,3.87,5.81,1.71.43,3.5.91,4.69,2.44.37.66.6,1.43.31,2.1-1.36,3.08-.32,5.22,2.47,6.76.62,3.78,2.95,6.88,4.12,10.44-1.93,6.38-5.6,12.19-6.32,18.97-5.59,5.54-11.71,10.49-17.85,15.4-.9.72-2.1,2.05-3.39.31-.5-4.23,1.85-7.75,2.92-11.59,1.2-4.33,1.08-4.77-3.41-4.64-5.6.16-11.35-1.12-16.76,1.44-.1-.89-.2-1.78-.3-2.67Z"/>
        <path class="cls-122" d="M300.64,137.92c8.3,2.63,16.6,5.25,24.89,7.93.47.15.8.78,1.19,1.19-3.96,8.88-9.03,17.17-13.77,25.65-.47.17-.95.23-1.45.21-8.97.34-17.88,1.39-26.84,1.92-1.49.09-2.96.52-4.43-.07-.74-.36-1.04-.99-1.1-1.77,3.61-8.34,8.62-15.94,12.99-23.88,1.58-2.87,3.07-5.8,4.93-8.5.88-1.28,1.4-3.13,3.6-2.69Z"/>
        <path class="cls-4" d="M168.67,158.66c-3.45,3.93-8.38,5.62-12.7,8.16-21.61,12.7-43.34,25.19-65.01,37.77-.91.53-1.72,1.23-2.87,1.12,8.44-11.87,16.89-23.73,25.29-35.63.79-1.12,1.83-1.47,3.02-1.69,17.42-3.24,34.85-6.48,52.27-9.73Z"/>
        <path class="cls-145" d="M279.83,174c9.14-.81,18.28-1.65,27.43-2.39,1.7-.14,3.54-.81,5.12.55.72,7.08-.74,13.92-2.36,20.74-1.74,1.73-3.65,1.3-5.6.47-4.58-3.11-9.6-5.6-13.89-9.06-.65,2.15-2.29,4.24-2.38,6.87-.16,1.2-.31,2.41-1.32,3.27-2.92,1.3-5.93.9-8.94.46-1.93-.55-2.94-2.23-4.28-3.49-1.36-1.17-2.73-2.35-3.94-3.68-2.13-2.34-4.6-3.22-7.63-2.1-.93,1.84.41,3.34.73,4.98.32,1.65,1.29,3.35-.52,4.76-.95.29-1.81.25-2.48-.6-1.92-10.08-1.38-20.01,1.78-29.79,5.21,2.97,10.9,4.89,16.37,7.3.85.34,1.25,1.18,1.92,1.72Z"/>
        <path class="cls-114" d="M313.14,172.31c1.34-6.9,5.99-12.21,9.03-18.28,1.21-2.41,1.82-5.46,4.54-6.98,8.4,13.86,16.81,27.72,25.21,41.58-.1,2-1.77,2.03-2.95,1.89-8.78-1.05-17.72-.94-26.32-3.39-4.14-4.31-7.99-8.82-9.51-14.82Z"/>
        <path class="cls-20" d="M303.23,368.23c-.08,7.69,2.81,14.91,3.59,22.47.56.61.52,1.22.02,1.84h.01c-1,1.11-2.36,1.27-3.71,1.31-6.01.17-12.02.12-18.03.04-1.55-.02-2.96-.44-4.2-1.4-3.96-14.63-8.08-29.22-10.99-44.11,1.75-1.5,3.52-1.54,5.3-.06.15,1.82-.82,1.51-2.08.96,5.29,4.08,11.81,6.05,16.34,10.96,1.48,3,1.57,6.32,2.09,9.52.51,3.19,2.6,3.64,5.14,3.63,2.7,0,2.35-2.13,2.58-3.83.21-1.56-.17-3.35,1.62-4.33,1.56.39,1.9,1.72,2.31,2.99Z"/>
        <path class="cls-95" d="M280.91,392.49c8.65.02,17.29.03,25.94.05,1.19,8.23,2.43,16.46,3.54,24.7.71,5.31,1.23,10.64,1.84,15.96-1.17.85-2.34.42-3.37-.17-6.48-3.73-13.05-7.29-19.33-11.35-.77-.5-1.33-1.2-1.6-2.1-2.34-9.03-4.68-18.06-7.02-27.09Z"/>
        <path class="cls-130" d="M454.92,277.85c-3.37,2.13-2.15,5.75-2.64,8.71-.94,5.69-1.32,11.47-2.02,17.2-.14,1.16-.61,2.31-1.68,3.05-11.59-9.64-23.19-19.26-34.76-28.93-.87-.72-2.09-1.27-2.13-2.69,3.61-2.53,8.57-2.25,11.77-5.65,9.65,2.76,19.59,4.07,29.43,5.91,1.21.35,2.26.84,2.04,2.4Z"/>
        <path class="cls-79" d="M279.83,174c-.64-.26-1.27-.53-1.91-.79-4.56-2.44-8.81-5.35-12.91-8.49-1.16-.89-2.57-1.51-3.03-3.09-3.88-2.06-3.61-4.67-2.59-8.76,3.45-13.89,13.18-22.95,22.93-32.15,2.18,2.25,1.53,5.03,1.29,7.64-1.12,12.18-1.3,24.42-2.41,36.59-.23,2.55-.49,5.03-1.45,7.4.03.55.05,1.1.08,1.65Z"/>
        <path class="cls-145" d="M251.6,318.82c-7.73-10.84-15.46-21.68-23.21-32.52-2.43-3.41-4.91-6.79-7.36-10.18.04-.66.35-1.2.76-1.7,1.58-1.75,3.29-3.37,4.77-5.22.68-.85,1.36-2.08,2.85-1.27,6.21,4.61,11.55,10.19,17.29,15.33,2.21,1.98,4.29,4.09,6.9,5.56,1.08,1.01,1.38,2.4,1.17,3.7-1.21,7.54-.26,15.18-1.14,22.74-.43,1.32-.76,2.71-2.03,3.55Z"/>
        <path class="cls-130" d="M476.61,327.05c.05-11.79-.05-23.57-.9-35.33-.1-1.37-.22-2.67-.99-3.83.23-.38.53-.7.9-.95,5.52-2.89,10.48-6.66,15.86-9.77,1.41-.81,2.75-1.76,4.46-1.87,3.31.77,7.06.33,9.48,3.49-1.67,4.66-4.7,8.57-7.21,12.76-7.11,11.89-14.39,23.67-21.6,35.5Z"/>
        <path class="cls-147" d="M92.05,245.4c.26.02.53.02.79,0,1.62-.52,2.49.69,3.44,1.56,11.02,10.07,22.2,19.95,33,30.25,1.32,1.26,2.8,2.21,4.42,3,1.19,1.11,2.25,2.27,1.68,4.09l-.16-.08c-1.61,1.21-3.39.87-5.17.56-10.74-1.9-21.56-3.26-32.28-5.27-.5-.11-.94-.34-1.32-.69-1.35-9.67-2.71-19.35-4.04-29.03-.2-1.46-.25-2.94-.36-4.4Z"/>
        <path class="cls-21" d="M342.13,311.22c-2-9.16-2.29-18.55-3.66-27.8-.7-4.7-1.32-9.42-1.67-14.15-.17-2.24-1.2-4.72.74-6.79,8.44,8.45,16.88,16.9,25.32,25.35.33,1.62-.32,2.97-1.38,4.07-5.85,6-11.33,12.33-16.94,18.55-.61.67-1.39,1.15-2.39.77Z"/>
        <path class="cls-21" d="M252.36,315.92c.41-9.03.83-18.06,1.24-27.09,6-5.83,12-11.65,18.01-17.48,1.21,1.13,1.37,2.65,1.37,4.14,0,9.88.58,19.77-.88,29.6-.2,1.34-.3,2.7-1.41,3.68-5.7,3.58-11.41,7.16-17.11,10.74-2.45-.51-1.05-2.31-1.21-3.59Z"/>
        <path class="cls-48" d="M423.29,83.01c-12.55,2.93-25.1,5.89-37.66,8.77-1.28.29-2.66.15-4,.21,6.61-7.63,13.25-15.23,19.79-22.92,1.6-1.88,3.51-2.87,5.84-2.44,6.51,1.21,13.21,1.12,19.63,2.85.55,1.21-.26,2.03-.94,2.77-2.86,3.12-4.64,6.46-2.66,10.76Z"/>
        <path class="cls-100" d="M454.84,367.23c-2.72-6.01-5.95-11.73-9.79-17.1-.1-1.05-.19-2.06.91-2.77,10.23-6.57,19.88-14.04,30.61-19.85-1.55,8.74-3.11,17.48-4.66,26.22-6.33,3.69-13.09,6.83-17.07,13.5Z"/>
        <path class="cls-122" d="M390,187.7c4.66,1.91,7.75,5.85,11.46,8.95,7.72,6.46,15.75,12.59,22.77,19.86-12.4-2.26-24.79-4.54-37.19-6.75-3.21-.57-6.46-.88-9.69-1.31,3.12-7.58,8.39-13.85,12.65-20.75Z"/>
        <path class="cls-145" d="M195.9,269.73c3.51,10.49,6.94,21.01,10.6,31.44.99,2.81.47,4.24-2.23,5.57-5.66,2.79-10.6,6.91-16.63,9.03-2.58-6.1-1.05-12.39-.85-18.62,0-.51.04-1.02.13-1.53.7-6.21.16-12.43.21-18.64,2.6-2.8,5.26-5.54,8.77-7.25Z"/>
        <path class="cls-104" d="M304.17,192.14c1.6,1.39,3.52,1.02,5.39.99.91-.19,1.31.39,1.65,1.08.52,2.87.81,5.75.16,8.64-3.83,2.45-.87,6.25-1.85,9.27-1.5.01-3.01.02-4.51.04-4.41.47-8.83.84-13.25,1.16-5.6.4-6.8-.91-6.98-6.48-.07-2.19.47-4.47-.72-6.53-3.43-1.57-4.34-1.21-4.76,2.1-.28,2.22-.03,4.47-.15,6.7-.09,1.62-.03,3.33-1.6,4.44-4.15,1.08-8.19-.19-12.27-.57-1.5,0-2.99-.02-4.49-.03-1.2-.04-2.41-.2-3.59-.09-2.51.23-3.57-.77-3.46-3.32.11-2.54-.06-5.1-.09-7.65q-.09-6.45,6.12-7.13c.93.02,1.85.04,2.78.06,4.72-2.24,9.62-1.33,14.5-.87,3.28-.01,6.56-.03,9.84-.04,2.95-2.03,6.31-.99,9.49-1.24,1.62-.13,3.25.15,4.86-.18.95-.35,1.95-.28,2.94-.36Z"/>
        <path class="cls-6" d="M270.68,308.77c.9-12.46,1.16-24.94.93-37.42,2.77-3.49,6.52-5.89,9.76-8.85,5.56,5.58,11.9,10.42,16.23,17.17.1.66.03,1.3-.21,1.92-.97,1.74-2.44,3.02-3.94,4.26-3.93,3.26-4.93,3.32-8.74-.16-1.76-1.61-2.9-1.92-4.06.41-.26.53.15-.08-.23.38-4.85,5.78-4.41,11.51.16,17.21.49,2.2,1.6,4.36.44,6.66-3.37,2.35-6.78-.66-10.17.05-.06-.54-.11-1.08-.17-1.62Z"/>
        <path class="cls-29" d="M125.36,295.06c.25.62.51,1.24.76,1.85-1.87,6.5-3.15,13.15-4.58,19.75-1.11,2.24-1.67,4.86-4.09,6.25-4.26.99-8.52.76-12.72-.27-1.59-.39-3.79-.58-2.99-3.3.37-6.1.71-12.2,1.14-18.29.3-4.26,4.94-4.78,6.84-7.68,5.44-1.55,10.65-.87,15.65,1.68Z"/>
        <path class="cls-130" d="M270.85,310.39c1.21-2.15,3.09-.82,4.63-.79,1.7.04,3.4.52,5.09.81,1.82,1.04,1.94,2.91,2.26,4.67,1.18,6.5,2.1,13.04,3.34,19.53.1.53.16,1.06.19,1.6.2,3.1.2,6.19,0,9.29-.11,1.66-.58,3.2-2.06,4.22-3.08,1.01-6.13,1.57-9-.61-1.66-1.26-3.57-.63-5.39-.73-.46-12.68.85-25.32.93-37.99Z"/>
        <path class="cls-135" d="M279.75,172.35c.25-14.71,1.37-29.37,2.59-44.03.21-2.52,0-5.07-.02-7.61.36-.17.72-.34,1.08-.51,3.97,2.17,6.83,5.58,9.84,8.81,1.39,3.86,4.89,5.97,7.39,8.91-4.22,4.01-5.96,9.6-9.03,14.34-4.22,6.53-7.1,13.86-11.86,20.08Z"/>
        <path class="cls-122" d="M314.04,440.35c7.75-6.01,15.51-12.02,23.26-18.03,1.81,4.23,3.63,8.45,5.44,12.68,1.26,3.46,2.62,6.9,3.72,10.41.36,1.15,2.09,2.52.06,3.8-3.76-1.14-7.65-1.31-11.51-1.19-6.72.2-13.48-.81-20.16.63-1.37-1.34.15-3.71-1.74-4.86-.26-.29-.36-.63-.31-1.01.18-.93.48-1.79,1.23-2.42Z"/>
        <path class="cls-122" d="M287.93,419.58c8.16,4.44,15.69,9.99,24.3,13.62.75,2.31,1.09,4.68.9,7.11-1.27,1.39-2.97,1.26-4.6,1.27-9.88.05-19.76.05-29.64,0-1.63,0-3.34.12-4.61-1.25,2.19-3.57,4.39-7.14,6.58-10.71,2.36-3.35,4.71-6.69,7.07-10.04Z"/>
        <path class="cls-6" d="M342.13,311.22c6.95-7.75,14.56-14.93,20.72-23.39,2.36,8.27,3.04,16.85,4.41,25.29.57,3.51,2.12,7,.95,10.69-8.8-4.39-17.57-8.84-27.03-11.69.32-.3.64-.6.96-.91Z"/>
        <path class="cls-4" d="M193.01,239.08c-1.51-2.79-1.65-5.86-1.87-8.92,2.82-5.13,1.11-10.38.5-15.63-.36-3.13-1.3-5.77-4.49-7.05-2.18-5.1-2.31-10.54-2.7-15.94-.25-2.57-1.7-5.21.52-7.61,3.37,1.08,4.93,4.23,7.24,6.48,3.87,3.78,7.47,7.83,11.24,11.71,1.11,1.14,1.93,2.19,1.28,3.93-4.07,10.95-7.12,22.27-11.73,33.03Z"/>
        <path class="cls-106" d="M125.36,295.06c-5.22-.56-10.44-1.12-15.65-1.68-3.53-.63-7.05-1.25-10.58-1.88-3.14-3.84-3.9-8.02-1.8-12.61,7.92-.15,15.52,2.13,23.31,3.06,4.88.59,9.73,1.51,14.59,2.28-2.65,4.19-7.04,6.8-9.86,10.83Z"/>
        <path class="cls-122" d="M322.28,185.83c6.44,1.91,13.13,2.25,19.73,2.57,3.26.16,6.59,2.61,9.91.22,1.49,1.35.11,2.53-.36,3.61-1.94,4.54-4.04,9.02-6.08,13.52-2.5.71-4.66-.57-6.88-1.28-4.96-1.57-9.88-3.26-14.8-4.94-1.66-.57-3.51-.96-4.13-3,.29-3.71.53-7.43,2.61-10.7Z"/>
        <path class="cls-21" d="M423.41,269.63c.11,1.98-1,2.87-2.79,3.3-2.98.72-5.7,2.5-8.93,2.25-1.31-13.5-2.63-27-3.94-40.5,2.57.34,5.15.69,7.72,1.03,1.22,1.73,1.99,3.63,2.49,5.7,1.83,7.56,3.75,15.1,5.61,22.65.45,1.84,1.29,3.76-.16,5.57Z"/>
        <path class="cls-151" d="M307.71,268.97c5.87-4.89,11.75-9.78,17.61-14.68.91-.76,1.7-1.74,3.06-1.65,2.45,2.72,4.89,5.43,7.34,8.15-4.53,5.31-9.07,10.6-13.58,15.93q-4.2,4.96-9,1.09c-2.6-2.09-4.6-4.64-5.9-7.72.02-.43.18-.8.46-1.12Z"/>
        <path class="cls-145" d="M174.14,440.21c-2.12-2.44-.31-5.41-1.06-8.03-3.24-8.27-7.25-16.24-9.49-24.89,3.95-4.17,7.72-8.6,13.94-9.43,1.25,8.51,2.5,17.03,3.78,25.54.17,1.16.59,2.28.89,3.41-1.06,4.1-3.53,7.37-6.15,10.55-.81.83-1.06,2.04-1.91,2.85Z"/>
        <path class="cls-44" d="M154.23,323.02c7.79-4.84,15.05-10.54,23.43-14.44-2.31,8.2-4.55,16.42-6.95,24.59-.85,2.9-1.48,5.78-1.34,8.81-.81-1.95-2-2.9-4.37-2.79-5.09.23-10.2.06-15.3.06-.28-.38-.27-.76-.01-1.15,2.49-1.7,5.49-2.11,8.24-3.18,2.2-.85,3.26-2.37,3.48-4.66.22-2.28-1.48-3.01-2.99-3.92-1.38-.84-3.01-1.29-3.99-2.71-.06-.2-.12-.4-.18-.61Z"/>
        <path class="cls-151" d="M296.87,279.73c-4.27-4.42-8.56-8.83-12.8-13.27-1.11-1.16-2.69-2.04-2.71-3.96,2.77-2.4,5.53-4.79,8.3-7.19.5-.39,1.11-.65,1.65-.32,6.23,3.86,11.43,8.85,15.9,14.64-.44,3.17-3.01,5.08-4.52,7.61-.99.9-1.94,1.85-2.9,2.78-1.06,1.02-2.07,1.08-2.92-.29Z"/>
        <path class="cls-49" d="M137.07,401.56c.3,0,.6-.02.9-.03.91.98.9,2.18.65,3.36-1.6,7.56-3.07,15.14-4.78,22.68-.26,1.17-.75,2.26-1.7,3.07-2.84,1.96-5.89,2.67-9.25,1.59,0,0-.4,0-.4,0,.64-6.97-.34-13.89-.65-20.83,4.89-3.57,9.42-7.69,15.23-9.84Z"/>
        <path class="cls-48" d="M423.29,83.01c-4.09-3.45-1.82-6.69.41-9.85.93-1.32,2.12-2.46,3.19-3.68,5.72.57,11.44,1.09,17.14,1.73,5.43.61,10.85,1.35,16.28,2.03,1.02,2.48-1.45,1.98-2.24,2.16-11.57,2.64-23.19,5.11-34.79,7.62Z"/>
        <path class="cls-145" d="M125.32,338.24c-.57.34-1.14.68-1.72,1.03-3.78-2.18-7.93-.34-11.84-1.08.42-5.74,2.45-10.87,5.84-15.49,1.68-.19,2.04-2.23,3.6-2.58,2.14,2.45,4.97,3.46,8.07,4.06,3.05.58,6.04,1.43,8.61,3.29l.04.1c1.03,2.92-.28,5.53-1.17,8.16-.61,1.8-2.12,2.2-3.93,2.22-2.5.03-5.04-.43-7.52.3Z"/>
        <path class="cls-84" d="M77.25,408.81c-2.64-2.2-5.27-4.42-7.92-6.61-3.08-2.55-2.76-5.94.75-7.82,5.35-2.87,20.23-.69,24.68,3.49.97.91.54,1.5.09,2.27-2.5,4.17-5.1,8.16-10.92,7.66-1.18-.1-2.39.12-3.58.19-.95.57-1.79,1.59-3.1.82Z"/>
        <path class="cls-21" d="M505.41,278.79c-3.34-.9-6.67-1.8-10.01-2.71-1.64-1.89-1.34-4.22-1.24-6.4.26-5.64,1.11-11.25.95-16.92-.04-1.36.36-2.65,1.32-3.7,3,.71,6.19.52,9.08,1.8-.03,9.31-.07,18.62-.1,27.93Z"/>
        <path class="cls-84" d="M427.09,426.77c-2.24,4.61-4.92,8.91-8.76,12.4-1.65.14-3.07-.79-4.66-.96-5.16-.63-7.68-3.78-8.33-8.71-1.81-2.94-.41-4.48,2.04-6.38,4.22-3.27,8.08-5.17,13.7-3.02,3.57,1.37,4.08,4.42,6,6.68Z"/>
        <path class="cls-101" d="M418.83,450.25c8.7-.36,17.21,1.73,25.95,1.91-3,1.97-23.73,6.41-26.74,5.84-9.05-1.72-18.12-3.39-27.17-5.41,7.8-1.45,15.5-3.3,23.47-3.22,1.18,1.94,2.13,5.04,4.5.87Z"/>
        <path class="cls-81" d="M306.8,269.82c-5.73-4.82-10.18-11.15-17.14-14.52.08-.59.16-1.17.24-1.76.73-1.66,1.47-2.91,3.81-2.82,5.36.23,10.75.15,16.12,0,2.74-.07,3.3.7,2.45,3.36-1.58,4.94-3.91,9.66-4.57,14.87.02.29.03.57,0,.86-.3.35-.61.35-.91,0Z"/>
        <path class="cls-110" d="M118.16,322.97c-2.96,4.72-3.84,10.32-6.39,15.22-2.22.06-4.47-.09-6.67.21-4.04.54-5.88-.9-5.01-5.03.98-4.63.25-9.44,1.64-14.02,1.55,3.28,4.83,2.21,7.34,2.63,2.89.48,5.93.12,8.9.13.26.14.37.32.34.53-.03.22-.09.33-.16.33Z"/>
        <path class="cls-151" d="M320.34,196.77c8.38,2.99,16.76,5.99,25.14,8.98-.6,1.45-1.21,2.9-1.81,4.35-4.48,1.45-8.41-1.11-12.62-1.68-4.07-1.45-8.68-1.1-12.41-3.7-2.3-1.14-4.78-1.56-7.29-1.87-1.87-2.78-.64-5.89-.95-8.84,3.88-1.11,6.94.68,9.93,2.76Z"/>
        <path class="cls-101" d="M532.54,416.88c7.66-.2,14.99,2.08,23,2.86-17.56,5.91-34.64,6.57-52.15-.12,7.16-.63,13.97-1.44,20.81-1.74,2.92-.13,4.15-1.01,3.93-3.86,2.79.63,1.17,3.54,2.55,4.94,1.18-.17.94-1.67,1.86-2.07Z"/>
        <path class="cls-84" d="M527.17,403.32c-.86-.22-1.72-.56-2.59-.65q-6.15-.63-5.23-6.89c1.3-8.83,1.26-8.5,10.09-7.53,4.72.52,7.08,2.21,6.95,6.99,0,.29.16.58.22.87q1.54,7.16-5.82,7.25c-1.22.91-2.43.96-3.63-.05Z"/>
        <path class="cls-101" d="M405.34,429.49c2.53,3.24,3.6,8.1,9.03,8.13.61.96.68,1.88-.19,2.73-12.51-2.56-25.02-5.13-37.53-7.72-.17-.04-.26-.47-.62-1.15,9.94-.13,19.53-2.22,29.31-1.99Z"/>
        <path class="cls-145" d="M331.05,207.25c4.21.95,8.41,1.9,12.62,2.85-1.94,5.2-3.42,10.58-6.14,15.47-2.9,1.15-5.16.01-7.17-2.01-7.08-1.03-3.16-5.63-2.93-9.03.11-2.97-.8-6.44,3.61-7.29Z"/>
        <path class="cls-101" d="M254.39,420.4c.23,1.86,1.59,1.8,3,1.9,4.43.31,8.85.71,13.52,1.09-17.08,6.68-33.91,5.67-50.61.16,5.49-1.62,11.55-.97,17.07-3.22,3.98,3.88,8.52,4,13.37,1.95,1.34-.39,2.01-2.1,3.65-1.9Z"/>
        <path class="cls-81" d="M184.97,183.92c-.31,2.53.2,4.99.65,7.45-10.26,4.52-20.65,8.74-30.98,13.11-1.28.54-2.67,1.67-4.06.12,1.42-2.54,4.23-3.32,6.44-4.71,9.07-5.69,17.08-13,26.81-17.67.38.57.75,1.14,1.13,1.71Z"/>
        <path class="cls-101" d="M100.93,424.09c-4.27.67-8.73.78-12.78,2.12-10.17,3.38-19.31-1.17-28.88-3.42,6.62-.78,13.24-1.55,19.86-2.33,1.19.55,2.32,3.34,3.6.09,5.88-.48,11.48,1.7,17.31,1.75.49.5,1.48.75.9,1.79Z"/>
        <path class="cls-101" d="M105.45,146.15c3.04-2.49,13.22-3.94,16.14-2.09,1.77,1.12,3.54,2.53,2.26,5.14-.93,1.89.52,4.26-1.18,6.01-2.54.44-5.05.13-7.6-.15-5.5-.6-8.83-3.33-9.63-8.91Z"/>
        <path class="cls-74" d="M251.68,423.13c-3.24,1.11-6.33,2.07-10,1.33-2.75-.55-3.75-1.83-4.31-4.12-.3-2.64-.58-5.28-.89-7.92-.29-2.49-.61-4.98-.92-7.52,1.6-.09,1.89,1.28,2.64,2.08,2.29.78,3.65,2.85,5.61,4.08.71.69,1.41,1.38,1.92,2.24.56,2.31,2.72,3.41,3.96,5.19.97,1.39,2.52,2.58,1.99,4.63Z"/>
        <path class="cls-49" d="M217.64,255.18c2,2.12,4,4.25,5.99,6.37.3.32.44.69.39,1.13-3.1,3.91-7.18,6.71-11.06,9.74-3.22-4.68-7.58-8.88-6.48-15.38,1.9,1.68,3.81.91,5.78.11,1.77-.72,3.42-1.78,5.38-1.97Z"/>
        <path class="cls-78" d="M195.9,269.73c-2.42,2.45-3.98,6.02-8.11,6.25-2.79-2.37-4.47-5.41-5.37-8.92,2.49-4.73,6.41-7.66,11.52-9.08.3.33.6.66.9.99.35,3.58.7,7.17,1.06,10.75Z"/>
        <path class="cls-54" d="M251.68,423.13c-1.4-2.43-3.14-4.58-5.15-6.53-.92-.89-2.17-1.73-1.04-3.29,2.83-2.8,6.46-4.16,10.05-5.58,3.17.83,5.35-2.1,8.93-2.52-3.6,5.42-6.84,10.31-10.08,15.19-1.17.65-1.16,2.45-2.71,2.73Z"/>
        <path class="cls-149" d="M222.95,437.61c-.09.89-.18,1.77-.28,2.66-1.06,1.71-.44,3.72-.95,5.52-.69.81-1.6,1.01-2.61.92-2.07-2.43-4.14-4.85-6.2-7.28-.53-.61-1.06-1.23-1.59-1.84-.84-1.66-3.59-3.6.69-4.48,2.59-1.23,5.06-2.98,8.18-1.85,2.48-.23,4.07.22,2.95,3.31-.33.91-.14,2.02-.18,3.04Z"/>
        <path class="cls-77" d="M326.53,352.62c5.26-3.79,10.38-7.8,16.28-10.6.06,3.9.13,7.8.19,11.7-.36.02-.71.04-1.07.06-5.29,1.64-10.44,1.48-15.4-1.16Z"/>
        <path class="cls-37" d="M243.6,411.46c-2.69-.43-3.92-2.61-5.41-4.48,1.91-.62,1.61-2.29,1.79-3.73.74-5.78,1.47-11.55,3.14-17.43.76,5.59,1.52,11.18,2.27,16.78.25,1.88-.16,3.98,1.78,5.28-.06,2.33-1.87,2.9-3.58,3.58Z"/>
        <path class="cls-80" d="M223.73,262.66c-.03-.37-.07-.74-.1-1.11.32-1.61.58-3.24.98-4.83.28-1.12-.59-3.18,1.6-2.95,1.71.18,2.9,1.38,2.93,3.39.04,3.59.17,7.18.26,10.77-2.9,2.01-4.29,5.55-7.43,7.3-2.22-4.58-.38-8.6,1.76-12.57Z"/>
        <path class="cls-82" d="M187.66,296.85c0,6.31-.02,12.62-.03,18.92-3-2.45-6-4.9-9-7.34-.02-.31-.04-.62-.06-.93,1.74-4.65,4.74-8.22,9.08-10.65Z"/>
        <path class="cls-111" d="M174.87,436.88c3.48-2.6,4.28-7.16,7.33-10.07,2.71,1.78,5.41,3.55,8.12,5.33-1.49,3.14-4.34,4.75-7.18,6.39-2.87,0-6.09,1.79-8.27-1.65Z"/>
        <path class="cls-131" d="M293.25,129.02c-4.24-1.87-6.96-5.44-9.84-8.81,5.65.26,11.3.51,17.58.8-2.22,3.41-5.15,5.55-7.74,8.01Z"/>
        <path class="cls-94" d="M105.45,146.15c2.96,7.48,9.38,8.24,16.16,8.32.36,0,.71.48,1.06.74-6.11,5.77-15.21,4.01-18.46-3.64-.83-1.96.69-3.64,1.24-5.42Z"/>
        <path class="cls-111" d="M137.07,401.56c-5,3.41-9.3,7.89-15.23,9.84-.07-2.96-.13-5.92-.2-8.88,5.14-.32,10.29-.64,15.43-.95Z"/>
        <path class="cls-132" d="M217.64,255.18c-2.34,2.87-5.94,3.28-9.1,4.42-2.09.75-1.75-1.38-2.06-2.56-.72-4.27,1.84-5.69,5.4-6.61,4.32-1.11,4.03,2.95,5.76,4.74Z"/>
        <path class="cls-103" d="M177.53,397.85c-5.04,2.16-8.65,6.41-13.35,9.08-2.91-1.9-4.03-4.63-3.7-8.02,5.68-.66,11.36-1.31,17.03-1.97,0,.3,0,.61.01.91Z"/>
        <path class="cls-126" d="M414.18,440.35c.06-.91.13-1.82.19-2.73,1.56-.09,3.12-.2,3.96,1.55.15.69.3,1.38.45,2.07-.36,3.01-.33,6.01.05,9.01-.56,1.58.62,4.57-2.42,4.22-2.93-.34-1.37-3.36-2.07-5.09-.05-3.01-.1-6.02-.15-9.03Z"/>
        <path class="cls-113" d="M97.33,278.89c-.1,4.3.54,8.5,1.8,12.61-3.53-.36-7.06-.71-11.43-1.16,3.21-4.23,5.98-7.87,8.76-11.51.29,0,.58.03.87.06Z"/>
        <path class="cls-89" d="M223.73,262.66c-.41,4.21-1.93,8.28-1.76,12.57-.32.3-.63.59-.95.89-2.69-1.24-5.38-2.47-8.07-3.71,2.56-4.39,6.91-6.81,10.77-9.75Z"/>
        <path class="cls-86" d="M243.6,411.46c.65-1.74,2.56-2.21,3.58-3.58,1.95-2.39,3.91-4.78,6.13-7.51,1.88,3.25,2.01,5.32,2.22,7.36-2.63,3.15-6.48,4.12-10.05,5.58-1.17-.07-1.86-.62-1.89-1.85Z"/>
        <path class="cls-10" d="M527.17,403.32c1.21.02,2.42.03,3.63.05.58,4.5,1.17,9.01,1.75,13.51,0,.88-.03,1.77,0,2.65.04,1.16-.18,2.05-1.63,2.02-1.29-.03-1.77-.73-1.94-1.92-.26-1.87.25-3.86-.85-5.61-.32-3.56-.64-7.13-.96-10.69Z"/>
        <path class="cls-17" d="M219.11,446.71c.63-.98,1.62-.94,2.61-.92.99,5.1,1.98,10.2,2.98,15.3.73,1.21.98,2.41-.11,3.56h.04c-2.83,1.04-4.25.13-4.11-2.96.05-1.17.31-2.36-.31-3.47-.37-3.84-.73-7.68-1.1-11.52Z"/>
        <path class="cls-5" d="M82.73,420.55c-.43,1.38,1.37,3.85-1.08,4.05-2.37.2-1.72-2.68-2.52-4.14-.63-3.88-1.25-7.77-1.88-11.65,1.03-.27,2.07-.55,3.1-.82.52,4.24,1.12,8.46,2.37,12.56Z"/>
        <path class="cls-2" d="M261.98,161.63c5.7,3.32,10.86,7.4,15.94,11.58-4.58-1.82-9.17-3.63-13.74-5.49-1.25-.51-2.52-1.1-2.64-2.75.15-1.12.29-2.23.44-3.35Z"/>
        <path class="cls-67" d="M183.9,437.52c1.69-2.33,4.11-3.78,6.41-5.39,2.76,1.52,5.51,3.03,8.27,4.55.1.29.11.58.03.87-4.91,2.2-9.81,2.26-14.71-.03Z"/>
        <path class="cls-56" d="M330.37,223.57c2.39.67,4.78,1.34,7.17,2.01-.31,2.92-1.82,5.41-2.83,8.09-2.64-2.85-5.03-5.82-4.34-10.1Z"/>
        <path class="cls-128" d="M220.21,458.23c1.67,2.01-.81,6.86,4.42,6.42-2.62,1.76-5.3.94-8.01.24-2.12-.54-4.29-.93-6.59-1.42,2.01-1.49,4.2-1.67,6.37-1.44,2.97.32,4.07-1.01,3.82-3.8Z"/>
        <path class="cls-105" d="M220.18,431.26c-2.61,1.14-5.41,1.4-8.18,1.85,2.45-2.25,4.9-4.51,7.47-6.88,1.05,1.86.45,3.49.7,5.03Z"/>
        <path class="cls-150" d="M224.58,464.66c.04-1.19.07-2.38.11-3.56,2.44,1.87,5.81-.07,8.97,2.19-3.49.64-6.15,1.71-9.08,1.38Z"/>
        <path class="cls-92" d="M252.36,315.92c.52,1.16-.36,2.78,1.21,3.59-1.21,1.34-1.65.51-1.97-.69.21-.98-.08-2.09.76-2.9Z"/>
        <path class="cls-108" d="M100.93,424.09c-.3-.6-.6-1.19-.9-1.79,1.13.11,2.7-.35,2.87,1.29.07.65-1.25.44-1.97.5Z"/>
        <path class="cls-120" d="M44.97,102.89c-.35,2.36-.71,4.71-1.05,7.07-.44,3.08-1.45,5.46-5.32,4.66-1.23-.25-2.36.2-3.36.96-.49-.12-.97-.26-1.46-.4-4.94-1.08-5.77-2.1-5.26-6.9.23-2.21.45-4.46,1.69-6.43,1.97-1.45,4.15-1.2,6.34-.8,1.29.36,2.14,2.48,3.91.96,1.63-.3,3.22-.49,4.51.89Z"/>
        <path class="cls-64" d="M30.51,101.83c-.05,1.18.02,2.37-.17,3.53q-1.12,7.04,4.67,9.23c-.35.27-.69.54-1.1.72-1.5.68-3.01.35-4.52.05,1.44,1.2,1.25,2.48.18,3.8-3.67-2.44-6.35-5.58-6.99-10.11.15-1.04.08-1.99-.96-2.58-.62-1.79-1.23-3.58-1.85-5.36.84-.91,1.9-1.1,3.07-.93,2.15,1.28,3.97,1.32,5.1-1.34.66-.29,1.33-.3,2.01-.07,1.28.83,1.47,1.85.56,3.07Z"/>
        <path class="cls-31" d="M85.59,84.79c3.45,0,6.9-.03,10.35.02.95.01,2.25-.36,2.32,1.31.07,1.48-.6,2.18-2.12,2.17-7.35-.02-14.71-.01-22.06,0-1.17,0-2-.27-2.09-1.7-.11-1.86,1.1-1.8,2.34-1.8,3.75,0,7.5,0,11.25,0Z"/>
        <path class="cls-31" d="M83.2,109.19c-3.6,0-7.19.01-10.79,0-1.02,0-2.15.14-2.17-1.48-.01-1.41.77-1.81,1.97-1.82,7.49-.06,14.98-.12,22.47-.19,1.33-.01,1.85.63,1.82,1.94-.04,1.44-.9,1.68-2.07,1.68-3.75-.01-7.49,0-11.24,0,0-.04,0-.08,0-.12Z"/>
        <path class="cls-22" d="M84.44,93.68c3.44,0,6.87-.02,10.31.01,1.27.01,2.86-.36,2.75,1.85-.09,1.72-1.23,1.78-2.49,1.76-7.02-.06-14.04-.1-21.06-.19-1.15-.01-2.55.13-2.65-1.62-.13-2.3,1.68-1.64,2.84-1.67,3.43-.09,6.87-.03,10.31-.03v-.11Z"/>
        <path class="cls-83" d="M26.85,82.83c1.71-.92,3.5-1.56,5.46-1.65,2.05-1.08,3.35-.09,4.28,1.63,1.32,2.44,2.75,4.83,3.54,7.52.07.76-.09,1.45-.68,1.99-2.91.52-5.8-.04-8.69-.27-.48-.13-.91-.35-1.31-.64-1.32-2.72-3.7-5.13-2.59-8.59Z"/>
        <path class="cls-25" d="M26.85,82.83c.21,2.97,3.03,5.08,2.72,8.23.51,2.69-1.51,3.53-3.32,4.53-2.64-.02-5.78,2-7.51-1.81,2.49-3.8,4.55-7.93,8.1-10.95Z"/>
        <path class="cls-146" d="M39.44,91.88l.09-1.65c-1.6-4.22-1.66-8.54-.94-12.93.2-.52.49-.99.87-1.4,3.92,3.24,7.72,6.54,6.3,12.48-1.55,2.17-3.01,4.51-6.32,3.5Z"/>
        <path class="cls-140" d="M39.44,91.88c2.55-.37,4.04-2.64,6.32-3.5,0,1.83,0,3.67,0,5.5-1.35,1.3-3.05,2.05-4.64,2.98-.38.18-.78.31-1.19.4-.87.11-1.68,0-2.41-.52-1.29-2.34-3.1-1.26-4.83-.72-4.12-.12-3.2-2.55-2.29-4.98,3.06-.2,6.06.21,9.04.83Z"/>
        <path class="cls-69" d="M77.36,119.12c-2.11,0-4.21,0-6.32,0-1.02,0-1.71-.34-1.68-1.54.02-1.09.48-1.73,1.58-1.73,4.36-.02,8.72-.02,13.09,0,1.03,0,1.64.52,1.7,1.64.08,1.54-.93,1.64-2.05,1.64-2.11,0-4.21,0-6.32,0Z"/>
        <path class="cls-53" d="M65.68,96.92c.84,3.75-1.31,3.89-4.09,3.99-3.24.12-3.09-1.63-3.2-3.94-.15-3.12.89-4.12,4.08-4.12,3.41,0,3.8,1.55,3.2,4.07Z"/>
        <path class="cls-32" d="M65.06,107.25c.62,3.4-.75,4.57-4.34,4.52-3.7-.05-2.88-2.21-3.09-4.4-.4-4.05,2.2-3.55,4.79-3.71,2.93-.18,3.26,1.23,2.65,3.59Z"/>
        <path class="cls-135" d="M39.47,76.63c.02,4.53.04,9.07.06,13.6-1.81-1.82-2.48-4.29-3.63-6.49-.8-1.54-1.61-2.81-3.6-2.56,1.17-1.24,3.9-.9,3.64-3.58.96-1.12,2.24-1.05,3.53-.97Z"/>
        <path class="cls-91" d="M18.74,93.78c2.52,1.89,5.4.57,8.1.93.87.5,1.28,1.25,1.24,2.26-2.23,2.56-5.12,3.38-8.39,3.19-.59-2.08-3.05-3.89-.95-6.37Z"/>
        <path class="cls-30" d="M59.51,85.77c-.44-1.07-1.8-2.34.61-2.8.73.14,1.15.77,1.77,1.08.77.22,1.44-.03,2.08-.41.58-.43,1.19-.81,1.84-1.13.23-.18.45-.41.71-.54,1.04-.53,1.75-2.78,3.17-1.23,1.12,1.23-.88,1.83-1.46,2.72-.48.74-1.08,1.4-1.63,2.09-.58,1.89-1.46,3.48-3.76,3.57-2.33.09-2.73-1.74-3.32-3.36Z"/>
        <path class="cls-16" d="M44.97,102.89c-1.77-.06-3.54-.12-5.31-.18-1.54-1.36-1.27-3.02-.8-4.72.32-.71.99-1.03,1.6-1.42l-.02-.09c1.33-.71,2.54-.28,3.73.4,1.84,1.18,1.72,3.37,2.57,5.06-.25.94-1.08.8-1.76.95Z"/>
        <path class="cls-47" d="M57.27,119.16c-.71-1.26-1.87-2.54.18-3.66.72.2,1.15.8,1.73,1.19.95.54,1.6-.1,2.28-.59.72-.63,1.66-.87,2.43-1.41,1.16-.14,1.84-2.9,3.03-1.18,1.34,1.95-1.69,2.46-2.27,3.92-.57,2.31-2.21,3.55-4.32,4.32-.31,0-.62-.02-.93-.03-.98-.63-2.21-1.04-2.11-2.55Z"/>
        <path class="cls-76" d="M19.69,100.15c2.7-1.09,5.41-2.18,8.11-3.28.6-1.18,1.53-1.08,2.55-.67,1.12,1.35.64,2.25-.81,2.89-.55.09-1.1.18-1.66.27-1.08,1.82-2.89,1.53-4.58,1.57-1.18.05-2.36.11-3.54.17-.03-.32-.06-.63-.08-.95Z"/>
        <path class="cls-99" d="M29.58,119.16c-1.39-5.33,2.04-4.93,5.43-4.57.07.33.14.65.22.98-1.82,1.3-2.77,3.97-5.65,3.59Z"/>
        <path class="cls-143" d="M59.51,85.77c2.48,3.95,4.8,2.69,7.08-.21.36,2.68.53,4.71-3.47,4.73-3.81.02-4.09-1.67-3.61-4.52Z"/>
        <path class="cls-1" d="M44.08,97.45c-1.22-.33-2.44-.65-3.65-.98,1.62-1.2,2.96-2.97,5.34-2.6.06,1.15.11,2.3.17,3.45-.58.66-1.2.6-1.85.12Z"/>
        <path class="cls-118" d="M63.89,114.69c-.6.59-1.2,1.17-1.8,1.76-1.06.71-2.21,1.04-3.49.84-.38-.6-.76-1.19-1.15-1.78,1.96-1.76,4.28-.65,6.44-.81Z"/>
        <path class="cls-46" d="M65.81,82.51c-.43.51-.85,1.03-1.28,1.54-1.04.69-2.31.26-3.4.69-.34-.59-.67-1.18-1.01-1.77,1.83-1.03,3.79-.4,5.69-.46Z"/>
        <path class="cls-96" d="M60.31,121.74c1.44-1.44,2.88-2.88,4.33-4.32.14,3.02-.38,5.39-4.33,4.32Z"/>
        <path class="cls-115" d="M44.08,97.45c.62-.04,1.24-.08,1.85-.12,2.85,1.09.44,3.08.79,4.6-.88-1.49-1.76-2.99-2.64-4.48Z"/>
        <path class="cls-23" d="M39.47,76.63c-1.08.66-2.21,1.15-3.53.97q-.75-2.17,3.52-1.69c.03.24.03.48.01.72Z"/>
        <path class="cls-124" d="M21.63,106.47c.65-.27,1.52-1.1,1.97-.44.83,1.2-.29,2.13-1.01,3.02-.48-.8-1.17-1.53-.96-2.58Z"/>
        <path class="cls-112" d="M57.27,119.16c.7.85,1.41,1.7,2.11,2.55-2.21.39-2.72-.62-2.11-2.55Z"/>
        <path class="cls-114" d="M542.54,132.67c-10.3,18.24-20.6,36.48-30.88,54.73-.36.64-.58,1.36-.87,2.04-.88.32-1.76.63-2.64.95-12.91-1.44-25.82-2.93-38.73-4.31-9.81-1.05-19.63-1.9-29.44-2.95-12.62-1.34-25.23-2.79-37.85-4.17-9.5-1.03-19.02-2.01-28.52-3.03-2.97-.32-5.93-.72-8.9-1.09,9.82-3.71,20.17-5.36,30.3-7.87,28.88-7.15,57.81-14.13,86.72-21.17,18.74-4.56,37.48-9.09,56.22-13.65,1.61-.39,3.2-1,4.59.5Z"/>
        <path class="cls-21" d="M453.25,276.09c.93-11.4-.36-22.77-.43-34.15,6.38,1.15,12.76,2.31,19.14,3.46,2.05,2.49,1.95,5.61,2.17,8.5.69,8.9,1.7,17.77,2.7,26.64.28,2.49.63,5.08-1.14,7.29-.33.02-.65.04-.98.06-6.6-3.34-13.19-6.69-19.79-10.03-.56-.59-1.12-1.17-1.68-1.76Z"/>
        <path class="cls-111" d="M135.38,284.31c-.68-1.26-1.37-2.52-2.05-3.78-2.56-1.11-3.43-3.59-4.59-5.79-2.47-4.69-5.86-8.91-7.14-14.2.53-5.38,3.21-10.32,3.23-15.81.5-1.31.99-2.45-.2-3.86-.96-1.15-2.18-2.65-.76-4.4,2.26-1.86,1.85-4.46,2.01-6.93.19-2.87-.8-5.93,1.27-8.52,2.03-2.96,5.32-4.24,8.16-6.12,1.45.96,1.99,2.43,2.32,4.03.37,6.85,2.88,13.38,3.07,20.25-.4,7.05,2.08,13.67,3.08,20.52.7,4.84,1.58,9.66,2.38,14.49-2.14,1.51-2.59,2.83-.54,5.14,3.92,4.42,7.04,9.53,11.36,13.64.18.41.14.8-.15,1.15-.32.06-.64.13-.96.19-.52.33-1.12.55-1.69.3-6.22-2.77-12.56-5.31-18.03-9.5-.26-.26-.52-.53-.78-.79Z"/>
        <path class="cls-145" d="M137.08,218.43c-1.17-.89-1.59-2.15-1.77-3.53,4.96-3.62,9.89-7.3,15.28-10.3,9.43-3.2,18.38-7.6,27.62-11.25,2.35-.93,4.48-3.1,7.42-1.98.67,5.39,1.35,10.77,2.03,16.16-.47.53-1.08.72-1.75.75-3.58-.52-6.69-2.35-10.02-3.56-.97-.35-1.96-.86-2.84.2-.19.24-.36.55-.25.81.58,1.39,1.79.63,2.72.69,1.48.09,3.02-.12,4.4.46,1.21.51,3.19.74,2.03,2.98-3.82,2.11-8.2,2.04-12.26,3.19-2.84.51-5.69,1.02-8.49,1.72-6.32,1.27-12.58,2.8-18.93,3.93-1.71.3-3.51,1.09-5.17-.25Z"/>
        <path class="cls-4" d="M122.38,260.82c3.65,6.57,7.3,13.14,10.94,19.71-2.41.53-3.46-1.43-4.85-2.69-11.89-10.8-23.76-21.62-35.63-32.44.3-2.95,3.1-3.35,4.93-4.67,3.01-2.17,6.22-4.08,9.34-6.1,3.24,1.73,4.08,5.23,5.83,8.04,1.17,1.87,2.41,3.72,3.35,5.74,1.66,4.32,4.93,7.85,6.09,12.41Z"/>
        <path class="cls-88" d="M115.39,249.1c-2.76-4.82-5.52-9.64-8.28-14.46,3.31-3.02,6.91-5.61,11.06-7.4,3.78,2.25,4.94,5.93,5.43,9.97.29,2.44,4.84,3.89,1.66,7.13-2.56,3.09-5.51,5.37-9.86,4.76Z"/>
        <path class="cls-42" d="M123.59,237.22c-1.81-3.32-3.62-6.65-5.43-9.97,2.36-2.99,5.59-4.73,8.99-6.22-.02,4.14-.08,8.28-.05,12.41.02,2.44-.63,4.11-3.51,3.78Z"/>
        <path class="cls-19" d="M277.86,212.89c.03-3.24.07-6.48.09-9.72.03-5.82,1.17-6.55,7.27-4.66.81,5.71-.1,11.5.8,17.21-.34,2.11.93,4.47-1.02,6.32-1.98,1.24-3.97,1.49-5.97.05-2.06-1.86-.72-4.3-1.11-6.44-.74-.9-.72-1.82-.05-2.75Z"/>
        <path class="cls-102" d="M297.97,231.78c-1.57,1.16-3.61,2.02-4.64,3.55-3.46,5.17-7.78,7.17-14.02,5.73-3.25-.75-7.79-5.81-7.2-9.12.19-1.05.9-1.07,1.62-1.05,7.75.18,15.47-1.3,23.23-.54.33.47.67.95,1,1.42Z"/>
        <path class="cls-2" d="M286.02,215.71c-1.87-5.66-.47-11.47-.8-17.21,1.59,2.96.78,6.16.7,9.21-.08,3.25.76,4.58,4.26,4.4,4.93-.26,9.88,0,14.83.04-6.33,1.19-12.66,2.37-18.99,3.56Z"/>
        <path class="cls-63" d="M277.86,212.89c.02.92.04,1.83.05,2.75-4.31-.42-8.55-1.17-12.64-2.66,4.2-.03,8.39-.06,12.59-.09Z"/>
        <path class="cls-90" d="M279.03,222.08c1.99-.02,3.98-.03,5.97-.05-.55,1.49-1.11,3.47-2.93,3.18-1.26-.2-3.08-1.07-3.04-3.13Z"/>
        <path class="cls-103" d="M131.78,430.29c.32.32.64.64.96.96,2.07,3.28,4.14,6.56,6.21,9.84-.31.33-.68.74-1.11.66-4.92-.82-9.76-.82-14.52.93-.56.21-1.16-.16-1.64-.54-.25-3.39.88-6.61,1.21-9.93,2.97-.65,5.93-1.29,8.9-1.94Z"/>
        <path class="cls-98" d="M121.68,442.15c5.63-2.46,11.38-2.92,17.27-1.06,1.49,1.98,3.31,3.77,3.62,6.41-1.29.85-2.66.47-4.02.27-4.34-.48-8.7-.27-13.05-.17-3.68.08-5.02-1.27-3.93-4.84-.07-.22-.03-.42.1-.6Z"/>
        <path class="cls-4" d="M183.9,437.52c4.9.01,9.81.02,14.71.03.89,2.89-1.03,2.8-2.94,2.79-7.18-.05-14.35-.09-21.53-.13.13-1.14-.83-2.51.73-3.34,2.93,1.4,6.02.43,9.03.65Z"/>
        <path class="cls-4" d="M138.81,447.5c1.25,0,2.51,0,3.76.01-5.07,2.25-10.42.66-15.63,1.09-1.94.16-4.37,1.37-6.02-.99,5.96-.88,11.92-.66,17.89-.11Z"/>
        <path class="cls-14" d="M138.81,447.5c-5.96.04-11.92.07-17.89.11-.08-1.66-.42-3.35.66-4.84-.21,3.01,1.1,3.97,4.17,4,4.34.04,8.8-1.05,13.06.74Z"/>
        <path class="cls-81" d="M166.1,271.66l-2.08,4.51c-.29.91.16,2-.68,2.78,0,.26-.04.51-.11.76-1.34,4.88-2.63,9.78-6.37,13.54-5.11-2.01-6.64-7.38-10.2-10.85-.84-.82-1.39-1.94-2.16-2.85q-3.2-3.8,1.65-5.35c5.29-.99,10.59-1.97,15.88-2.97,1.41-.27,2.88-1.25,4.07.43Z"/>
        <path class="cls-141" d="M161.46,213.79c2.64-1.14,5.41-1.71,8.29-1.72,1.26.92,1.57,2.31,1.89,3.71.59,3.63,1.72,7.18,1.81,10.89.02,1.08.05,2.16.42,3.19.21.61.39,1.23.55,1.86.34,1.28.74,2.56-.3,3.72.99,2.64,1.36,5.34.87,8.14-2.2,1.4-4.47,2.29-7.06,1.03-1.58-1.54-1.28-3.77-2.06-5.6-1.29-1.48-1.52-3.35-1.89-5.17-.17-1.37-.28-2.75-.71-4.08-.86-4.88-2.22-9.67-2.34-14.67.02-.49.2-.93.52-1.3Z"/>
        <path class="cls-12" d="M161.46,213.79l.05.94c1.25,3.2-1.1,3.91-3.29,4.43-4.17.99-8.35,1.93-12.53,2.84-1.45.31-3.49.3-3.14,2.78,1.86,9.24.23,8.51,10.02,6.69,2.77-.52,5.44-1.51,8.28-1.68,1.11-.08,2.24-.32,3.29.3,1.11,1,.8,2.34.85,3.59-.88,1.95-2.78,2.03-4.5,2.48-6.21,1.61-12.63,1.91-18.93,2.94-.29.02-.58.05-.87.09-2.36-6.72-4.3-13.51-3.62-20.76,8.18-1.25,16.11-3.85,24.38-4.64Z"/>
        <path class="cls-29" d="M173.37,231.76c-.1-.56-.2-1.12-.3-1.69-.75-2.54,1.17-3.06,2.85-3.58,2.28-.71,4.67-.99,7-1.51,5.11-1.15,5.59-1.86,4.72-7.06-.2-1.17-.26-2.38-.77-3.47-1.96-1.78-3.92-.09-5.85.04-3.48.25-6.79,2.2-10.42,1.03-.28-1.15-.57-2.3-.85-3.46,4.01-1.47,8.24-1.93,12.39-2.74.65-1.75,2.29-1.44,3.64-1.73.63-.02,1.26-.05,1.88-.07,3.03-.42,4.51.36,4.69,3.94.23,4.56.98,9.2,2.31,13.55,1.17,3.82-3.57,2.65-3.51,5.14-2.37-2.19-4.73.02-7.1.01-3.54.67-6.66,4.16-10.68,1.59Z"/>
        <path class="cls-141" d="M183.08,267.09c-.89-.03-1.78-.05-2.67-.08,2.35-1.47,2.05-3.5.95-5.47-2.62-4.67,1.28-6.44,3.91-8.49,2.91-2.27,4.54.61,6.33,2.24.87.8,1.57,1.79,2.35,2.69-3.64,3.01-8.16,4.97-10.87,9.1Z"/>
        <path class="cls-121" d="M141.57,239.09c6.66-2.28,13.69-2.93,20.51-4.51.99-.23,1.95-.6,2.93-.9.4,1.76,1.22,3.45.87,5.32-8.1.03-16.2.06-24.31.09Z"/>
        <path class="cls-87" d="M183.1,250.8c-.74.91-1.42,1.88-2.24,2.71-4.62,4.69-11.88,5.02-16.78.59-1.24-1.12.33-1.2,1.07-1.41,5.89,1.37,11.3-.56,16.73-2.42.47.02.88.2,1.22.53Z"/>
        <path class="cls-68" d="M182.1,250.75c-5.39,2.92-10.86,5.16-16.95,1.94,5.29-1.41,10.45-3.56,16.11-2.85.92-.29,1.12.08.84.91Z"/>
        <path class="cls-127" d="M173.37,231.76c3.69.32,7.04-1.61,10.68-1.59-3.19,1.99-6.11,4.47-9.93,5.27-.25-1.23-.5-2.45-.75-3.68Z"/>
        <path class="cls-148" d="M167.94,244.61c2.35-.34,4.7-.69,7.06-1.03-1.86,3.72-4.28,3.59-7.06,1.03Z"/>
        <path class="cls-107" d="M182.1,250.75c-.28-.3-.56-.6-.84-.9.77-.85,1.92-1.23,2.69-.58.69.58-.71.92-.86,1.54-.33-.02-.67-.04-1-.05Z"/>
        <path class="cls-114" d="M313.15,443.02c-.02.26-.03.51-.04.77-12.27.05-24.54.09-36.81.17-1.9.01-3.38-.14-2.65-2.64,3.19-1.09,6.48-.44,9.71-.48,8.95-.11,17.9-.08,26.84.01,1.27.01,3.77-.97,2.94,2.17Z"/>
        <path class="cls-57" d="M314.85,448.65c.24-1.77,1.46-2.01,2.95-1.99,8.98.12,17.99-.47,26.93.91,1.05.16,1.63.62,1.79,1.65-9.9.05-19.79.1-29.69.15-.74,0-1.51.05-1.98-.72Z"/>
        <path class="cls-36" d="M313.15,443.02c-.32-2.24-2.08-1.77-3.49-1.77-12,0-24,.04-36,.07.21-.33.42-.66.63-.99,12.95,0,25.9-.01,38.85-.02.3.01.6.03.9.04-.04.97.18,2.03-.88,2.67Z"/>
        <path class="cls-111" d="M125.32,338.24c.83-.86,1.91-.76,2.96-.75,8.45.14,6.65.4,8.8-7.39.24-.86.57-1.7.85-2.55,5.43-1.51,10.86-3.02,16.29-4.53,0,0-.03,0-.03,0,.47,5.7-1.38,10.72-4.48,15.37,0,.29,0,.58-.02.86-8.08-1.48-16.25-.58-24.37-1.01Z"/>
        <path class="cls-95" d="M306.84,392.54c0-.61-.02-1.23-.02-1.84.99-.27,2.24-1.07,2.92-.73,6.67,3.29,13.74.88,20.57,1.64-3.68,1.83-7.59.61-11.39.83-4.02.23-8.06.08-12.09.1Z"/>
        <path class="cls-3" d="M326.53,352.62c5.13.39,10.27.77,15.4,1.16-6,3.7-12.93,5.06-19.36,7.69-6.32,2.58-12.89,4.54-19.35,6.77-1.84-.15-1.8-1.56-1.92-2.86-1-1.12-.91-2.33-.28-3.58,1.56-1.61,3.68-2.01,5.71-2.15,5.13-.37,9.03-2.09,10.01-7.72,3.26.23,6.52.47,9.79.7Z"/>
        <path class="cls-12" d="M163.34,278.94c-.1-1.01-.3-2.04.68-2.78.45,1.52,1.78,1.67,2.92,1.5,4.39-.66,6.85,1.94,9.3,4.94,3.71,4.53,7.63,8.89,11.46,13.32-.01.31-.03.62-.04.93-3.03,3.55-6.06,7.1-9.08,10.65-5.4-8.04-8.2-17.37-12.91-25.75-.59-1.05-.39-2.85-2.33-2.81Z"/>
        <path class="cls-65" d="M137.9,327.46c-4.62-1.15-9.2-2.54-13.89-3.35-2.59-.44-1.99-2.65-3.08-3.86-1.16-1.02-.64-2.17-.25-3.32.31-6.46,2.53-12.52,3.82-18.78.18-.89.83-1.16,1.62-1.25,3.92,10.18,7.85,20.37,11.77,30.55Z"/>
        <path class="cls-101" d="M136.16,285.1c6.57,3.07,13.14,6.14,19.71,9.21-1.96,6.01-5.78,11.01-9.13,17.38-4.33-9.14-7.36-17.91-10.59-26.58Z"/>
        <path class="cls-136" d="M156.86,293.24c2.27-4.44,3.34-9.45,6.37-13.54,2.72,6.75,3.79,13.89,5.81,21.92-4.72-2.88-8.99-4.28-12.21-7.5.11-.29.12-.58.03-.88Z"/>
        <path class="cls-145" d="M316.74,351.91q-.24,6.94-7.44,8.37c-2.61.52-5.21,1.11-7.81,1.67-1.65,1.07-3.28,2.29-5.18.42-1.2-9.11-1.85-18.21.81-27.21,2.31-2.37,4.95-.58,7.46-.6,3.23,1.05,6.88.34,9.88,2.34.15.19.3.38.45.58,1.55,2.79.72,5.84.9,8.78.12,1.92-.17,3.89.92,5.65Z"/>
        <path class="cls-21" d="M317.83,313.04c7.74,0,15.43-1.44,23.18-.8-8.17,8.96-17.34,16.88-26.09,25.24,0,0,.05-.18.05-.18-3.86-1.71-7.01-4.27-9.39-7.77-.12-.41-.14-.82-.09-1.24,3.25-5.55,7.2-10.57,11.71-15.16.21-.03.41-.06.62-.09Z"/>
        <path class="cls-27" d="M279.73,303.2c-4.79-4.74-6.01-9.72-1.37-15.37,1.4-1.7,2.32-3.8,3.56-5.89.56.37,1.07.62,1.47.99q5.81,5.43,11.76-.07c.55-.5,1.15-.94,1.73-1.41,2.07-1.04,2.65.64,3.3,1.92.81,1.6,1.42,3.31,1.87,5.08-.14.55.71.04.11.13.26-3.37,2.74-5.5,4.46-8.07.46-.16.81-.03,1.05.39.98,2.55,2.74,4.62,4.63,6.44,2.55,2.45,4.03,4.72,1.27,7.94-.52.6-.46,1.69-.67,2.56-.78,2.28-1.74,4.42-3.97,5.69-3.5,1.54-7.23.5-10.82,1.01-4.31.06-8.61.05-12.91.01-1.93-.02-3.89.03-5.48-1.37Z"/>
        <path class="cls-20" d="M309.5,302.28c1.24-1.39,1.64-3.43,3.4-4.42,1.64,5.06,3.29,10.12,4.93,15.19,0,0-.43.12-.43.12-2.99,2.21-6.17,3.68-10.01,2.54-1.88-3.31-.02-6.57.11-9.86.07-.46.21-.91.39-1.34.46-.79,1.16-1.41,1.6-2.22Z"/>
        <path class="cls-97" d="M307.67,280.91l-.4-.06-.41.03c-2.63-.13-3.92-1.77-4.58-4.09.73-2.82,3.04-4.62,4.52-6.96.3,0,.61,0,.91,0,1.68,2.75,4.42,4.78,5.44,7.99-1.83,1.03-3.65,2.07-5.48,3.1Z"/>
        <path class="cls-83" d="M331.05,207.25c-2.97,1.56-1.83,5.14-3.61,7.29-1.4-.5-2.8-1.02-4.21-1.49q-6.3-2.09-4.59-8.33c4.27.17,8.3,1.54,12.4,2.53Z"/>
        <path class="cls-64" d="M320.34,196.77c-3.31-.92-6.62-1.84-9.93-2.76-.29-.29-.58-.59-.87-.88.36-7.07,1.2-14.07,2.82-20.97.25.07.51.12.76.15,3.05,4.51,6.09,9.02,9.14,13.52.2,3.8-1.13,7.32-1.94,10.94Z"/>
        <path class="cls-103" d="M277.03,193.96c-4.74,1.87-9.67.58-14.5.87.04-2.75-1.46-5.08-2.09-7.65-.27-1.1-1.17-2.23.46-3.02,3.35.57,6.44,1.43,8.6,4.51.97,1.39,2.82,2.04,4.72,1.77.94,1.17,1.88,2.34,2.82,3.51Z"/>
        <path class="cls-15" d="M304.17,192.14c-.41.79-1.16.92-1.93,1-1.39.21-2.69-.15-3.87-.8-3.11-1.72-6.26-2.73-9.8-1.34-.56.22-1.14-.22-1.58-.64.02-.44-.07-.93.09-1.32q2.5-6.29,8.15-2.71c3,1.91,5.97,3.87,8.95,5.81Z"/>
        <path class="cls-138" d="M286.98,190.36c5.83-3.17,10.45.3,15.25,2.78-5.04,1.86-10.24.46-15.35.78.03-1.19.07-2.37.1-3.56Z"/>
        <path class="cls-51" d="M274.22,190.44c-1.99,1.58-4.12,1.33-5.31-.64-1.91-3.15-5.15-4.04-8-5.64,6.4-2.07,9.42,3.03,13.31,6.28Z"/>
        <path class="cls-72" d="M296.96,362.63c1.51-.23,3.03-.45,4.54-.67-.06,1.14-.12,2.28-.19,3.42-.96.96-.72,2.2-.79,3.38-.39,6.88.21,6.28-6.52,5.76-2.13-.16-3.2-.87-3.48-3.13-.46-3.83-1.23-7.62-1.88-11.43-.38-.62-.49-1.25-.04-1.88,3.96-.64,5.98,2.27,8.34,4.56Z"/>
        <path class="cls-117" d="M288.84,358.16c-.06.6-.13,1.19-.19,1.79-5.48-3.23-10.95-6.47-16.67-9.84,1.05-1.3,2.34-.67,3.32-1,2.96.07,5.92.14,8.87.21.99,3.25,3.43,5.73,4.66,8.85Z"/>
        <path class="cls-39" d="M259.77,198.68c2.68-.04,5.38-.23,8.05-.08,2.02.12,4.84-1.09,5.9.79,1.45,2.59.16,5.83.23,8.79.03,1.31-1.56,1.08-2.56,1.07-3.58-.02-7.16-.1-10.74-.16-1.06-1.18-.97-2.48-.44-3.84.5-.8,1.18-.64,1.94-.43,1.09.3,2.78.99,2.73-.82-.05-1.71-1.78-.95-2.88-.78-.61.1-1.18.1-1.73-.21-1.35-1.32-1.69-2.75-.49-4.35Z"/>
        <path class="cls-13" d="M305.84,207.54c-4.9,1.88-9.96.61-14.93.64-1.58.01-1.53-1.5-.38-2.57,3.74-.15,3.01-3.36,3.81-5.54,7.54-2.62,9.64-1.25,11.5,7.47Z"/>
        <path class="cls-41" d="M305.84,207.54c-.37-.78-.78-1.55-1.12-2.35-2.28-5.44-4.32-6.22-10.55-4.02-1.4,1.47-2.92.9-4.44.27-1.18-2.29-.79-3.75,2.08-3.82,1.49-.04,2.98-.02,4.47-.02q9.84,0,9.55,9.94Z"/>
        <path class="cls-93" d="M260.81,204.75c-.06,1.45-.11,2.9-.17,4.35-.29.03-.62.18-.88.09-4.16-1.4-1.68-4.98-2.36-7.52-.43-1.61-.26-3.45,2.36-3,.2,1.56.2,3.17,1.14,4.55.37.53.4,1.05-.1,1.53Z"/>
        <path class="cls-144" d="M289.73,201.44c1.48-.09,2.96-.18,4.44-.27,1.35,1.48,1.77,3.06.24,4.63-1.28,1.31-2.64.85-3.89-.18-1.12-1.23-.09-2.87-.8-4.17Z"/>
        <path class="cls-43" d="M308.64,304.08c-.03.32-.07.63-.1.95-6.14,10.26-14.01,19.27-21.08,28.85-.52.71-1.25,1.31-2.3.9-1.21-6.53-2.41-13.06-3.63-19.58-.3-1.6-.64-3.19-.96-4.78-.28-2.4-.57-4.81-.85-7.21,6.31,0,12.62-.01,18.93-.02,3.25,1.24,6.74-.32,9.99.89Z"/>
        <path class="cls-61" d="M302.28,276.78c1.53,1.36,3.05,2.73,4.58,4.09-.95,3.18-3.09,5.59-4.9,8.13-2.74-2.01-1.42-6.4-5.09-7.55,0-.58,0-1.15,0-1.73,3.09,1.38,2.86-3.33,5.41-2.94Z"/>
        <path class="cls-116" d="M285.16,334.78c6.88-8.96,13.78-17.91,20.61-26.91.82-1.08,1.5-2.23,2.77-2.84-.3,3.59-.6,7.18-.9,10.77,1.46,4.43-.23,8.45-1.6,12.52-.06.34-.12.68-.17,1.03.35,2.21.9,4.46-.96,6.34l-7.18-.89c-4.09,1.63-8.21,2.99-12.56.85-.04-.29-.04-.58,0-.86Z"/>
        <path class="cls-111" d="M285.16,335.64c4.23.32,8.31-1.46,12.56-.85-1.18,9.25-.87,18.55-.77,27.83-2.7-1.49-5.41-2.98-8.11-4.47-3.21-2.08-5.17-4.82-4.66-8.85,1.82-4.45.47-9.13.98-13.67Z"/>
        <path class="cls-145" d="M149.71,338.39c1.5-5.12,2.99-10.25,4.49-15.37,1.73.88,3.59,1.58,5.17,2.68,1.41.97,3.86,1.11,3.35,3.97-.51,2.87-.72,5.6-4.42,6.33-2.9.58-5.54,2.25-8.59,2.39Z"/>
        <path class="cls-55" d="M73.5,397.39c2.81-.55,5.33-2.22,8.16-.5.98.6,2.69.73,2.64,2.1-.06,1.67-1.92,2.09-3.05,3.01-1.16.95-2.14,1.03-3.04-.18-1.25-1.67-3.65-2.1-4.71-4.44Z"/>
        <path class="cls-123" d="M416.92,423.19c1.1,1.26,4.22.19,3.84,2.69-.3,2.01-1.58,4.76-3.79,4.95-1.88.16-3.99-2.03-4.08-4.01-.08-1.84,1.83-3.19,4.03-3.63Z"/>
        <path class="cls-59" d="M528.91,395.46c.16,1.87-.72,2.52-2.38,2.49-1.55-.02-2.33-.83-1.94-2.23.34-1.23-.16-3.4,1.92-3.32,1.59.06,2.59,1.37,2.4,3.05Z"/>
        <path class="cls-134" d="M338.63,211.87c-2.41,2-4.43,3.56-7.03,4.61,1.01-6.75,1.64-7.21,7.03-4.61Z"/>
        <path class="cls-142" d="M29.55,99.1c.33-.86.66-1.72.99-2.58.87-.58,1.93-.54,2.89-.84,1.57-.35,3.06-.31,4.37.79.88.03,1.77.07,2.65.1-.36.33-.72.66-1.08,1-1.27,1.15-.13,3.24-1.66,4.29-2.39,0-4.79-.01-7.18-.02-.02-1.02.01-2.05-.97-2.73Z"/>
        <path class="cls-58" d="M37.7,101.85c.51-1.45-1.15-3.74,1.66-4.29.1,1.72.19,3.43.29,5.15-.19,1.05-.57,2.21-1.86,1.7-1.47-.59-.14-1.68-.09-2.55Z"/>
        <path class="cls-24" d="M39.49,106.51c.95.15,2.63-.58,2.68.5.05,1.1-.97,2.52-1.92,3.35-1.93,1.7-4.92.41-6.02-2.4,1.48-.59,3.36,2.24,4.58-.54.19-.33.42-.64.68-.92Z"/>
        <path class="cls-33" d="M39.54,107.38c.45.79,1.05,1.62-.21,2.21-2.18,1.02-3.72-.05-5.1-1.61,0,0,.01-.29.01-.29,1.69-1.38,3.49-.86,5.3-.3Z"/>
        <path class="cls-62" d="M39.54,107.38c-1.77.1-3.53.2-5.3.3,1.26-2.59,3.55-.52,5.24-1.17.03.29.05.58.05.86Z"/>
        <path class="cls-26" d="M23.31,100.93c1.53-.52,3.05-1.05,4.58-1.57-.29,1.19.45,2.79-1.35,3.37-1.71.55-2.22-1.07-3.22-1.8Z"/>
        <path class="cls-129" d="M33.23,96.45c-.9.02-1.8.04-2.7.06-.91.12-1.82.24-2.73.36-.72-.54-.9-1.33-.97-2.17.91-1.22,1.82-2.43,2.73-3.65.28-.02.55-.02.83,0,.89,1.29-1.82,5.26,2.81,3.8.55.53.55,1.06.03,1.61Z"/>
        <path class="cls-60" d="M33.23,96.45c0-.54-.02-1.07-.03-1.61,2.11-1.09,4.29-2.4,4.59,1.62-1.52,0-3.04,0-4.56-.01Z"/>
        <path class="cls-71" d="M63.97,96.76c.05,1.37-.71,1.82-1.96,1.77-1.04-.04-1.67-.44-1.68-1.58,0-1.2.32-2,1.73-2.01,1.29,0,1.95.51,1.9,1.83Z"/>
        <path class="cls-50" d="M61.44,105.58c1.11-.04,2.11.07,2.2,1.52.08,1.4-.39,2.29-1.96,2.32-1.43.03-2.23-.46-2.18-2.05.04-1.34.67-1.87,1.94-1.8Z"/>
        <path class="cls-75" d="M61.13,84.74c.94-1.2,2.21-.77,3.4-.69-.77,2.06-2.01,1.76-3.4.69Z"/>
        <path class="cls-38" d="M58.59,117.28c.88-1.44,2.25-.87,3.49-.84-.93,1.26-1.53,3.88-3.49.84Z"/>
        <path class="cls-137" d="M115.39,249.1c3.67-.79,6.48-3.36,9.86-4.76,1.91,1.56.59,3.26.17,4.88-.98,3.87-2.02,7.73-3.04,11.59-2.99-3.51-4.88-7.68-7-11.72Z"/>
        <path class="cls-40" d="M185.77,207.6c-1.21.58-2.42,1.15-3.64,1.73-3.41-3.19-7.4-1.64-11.27-1.17q1.19-6.27,6.68-3.99c2.74,1.14,5.48,2.28,8.22,3.43Z"/>
        <path class="cls-28" d="M157.59,210.11c-3.65.4-6.04.28-8.2,1.62-1.87,1.16-3.98,1.94-6.66,2.06,3.21-2.58,6.15-5.63,9.71-7.59,2.73-1.51,2.57,2.34,5.15,3.91Z"/>
        <path class="cls-9" d="M111.33,235.03c4.85-4.22,5.99-4.08,7.87.91.24.64.93,1.3.15,1.95-.65.53-1.41.26-2.1-.04-2-.87-4.2-1.32-5.92-2.83Z"/>
        <path class="cls-125" d="M292.94,232.71c-1.55,2.45-2.24,3.74-3.81,3.68-4.18-.17-8.36-.46-12.54-.7-1.35-.08-1.87-1.04-1.8-2.11.08-1.35,1.34-.83,2.09-.84,5.02-.05,10.04-.03,16.05-.03Z"/>
        <path class="cls-70" d="M188.46,212.98c.06,1.33,0,2.68.2,3.99,1.22,8.02,1.18,7.76-6.76,9.62-2.99.7-7.1-.65-8.83,3.48-.97-.74-.78-1.79-.73-2.8,1.22-1.94.92-4.38,2.05-6.35,1.1-1.92,1.87-4.23,4.82-3.79,1.36,1,.25,4.36,1.84,3.79,2.38-.85-.19-1.88-.89-2.75-.27-.34-.57-.65-.83-1.02,2.19-3.25,5.25-4.61,9.13-4.18Z"/>
        <path class="cls-111" d="M164.15,230.09c-.95.25-1.9.5-2.85.75-1.8-1.5-4.91-1.46-5.33-4.56.4-.45.92-.77,1.34-1.18.57-.56.95-1.27.35-1.96-.65-.76-1.38-.31-1.93.23-.84.83-1.43,1.95-2.72,2.25-3.89.34-7.83,1.31-11.49-.96-1.91-2.87.1-3.22,2.26-3.63,4.67-.89,9.34-1.79,13.98-2.86,1.78-.41,4.05-.65,3.76-3.46,1.19,5.07,2.31,10.15,2.64,15.36Z"/>
        <path class="cls-8" d="M179.58,217.57c-2.88.03-3.53,2.32-4.47,4.35-.84,1.83-.55,4.24-2.77,5.35-.58-3.92-1.16-7.83-1.74-11.75,5.33-1.15,10.66-2.31,16-3.43.77-.16,1.46.12,1.86.88-3.71.14-6.23,2.55-8.92,4.64l.04-.05Z"/>
        <path class="cls-88" d="M141.51,224.67c4.15.02,8.3.04,12.45.06,1.28.06,1.95.74,2.02,2.02,2.12.92,4.3,1.77,5.33,4.1-5.08,1.01-10.2,1.82-15.21,3.1-2.78.71-3.43-.3-3.64-2.7-.19-2.2-.62-4.38-.95-6.57Z"/>
        <path class="cls-52" d="M304.9,335.68c.4-2.1-.49-4.39.96-6.34,3.04,2.65,6.08,5.31,9.12,7.96-3.36-.55-6.82-.47-10.08-1.62Z"/>
        <path class="cls-73" d="M306.03,328.32c.12-4.23.62-8.4,1.61-12.52,3.26-.88,6.52-1.76,9.77-2.64-3.18,5.52-7.51,10.16-11.38,15.16Z"/>
        <path class="cls-85" d="M287.7,293.21c-.88,1.77-1.17,4.67-2.93,4.68-1.84.02-4.71-1.36-4.61-3.9.07-1.8.88-4.69,3.16-4.78,1.99-.08,3.29,2.17,4.38,4Z"/>
        <path class="cls-109" d="M308.3,289.02c.55,2.88,3.12,5.62-.92,7.52-.99.47-2.29,1.48-2.95-.27-1.27-3.37,1-5.16,3.87-7.24Z"/>
        <path class="cls-119" d="M294.9,296.34c-1.06-2.24-4.31-4.07-.99-6.55,1.7-1.27,2.74-.21,3.66,1.03,2.53,3.43-2.11,3.4-2.67,5.52Z"/>
        <path class="cls-139" d="M308.64,304.08c-3.32-.46-6.8,1.01-9.99-.89,3.61-.36,7.35.82,10.85-.91,0,.73-.17,1.39-.86,1.8Z"/>
        <path class="cls-35" d="M260.81,204.75c.03-.51.07-1.02.1-1.53,1.2-1.02,2.16-2.68,4.17-1.66,1,.51,1.69,1.36,1.73,2.45.05,1.29-.64,2.26-1.92,2.69-1.99.68-3.03-.65-4.07-1.96Z"/>
        <path class="cls-7" d="M179.54,217.62c2.38-.32,4.35.2,4.29,3.04-.03,1.44-1.33,2.55-2.83,2.23-3.67-.8-2.93-3.01-1.42-5.31,0,0-.04.05-.04.05Z"/>
        <path class="cls-18" d="M155.97,226.75c-.67-.67-1.34-1.35-2.02-2.02.2-1.94.74-3.67,3.14-3.56,1.53.07,2.5,1.08,2.54,2.64.07,2.52-1.78,2.78-3.67,2.94Z"/>
      </g>
    </g>
  </g>
</svg>