<?xml version="1.0" encoding="UTF-8"?>
<svg xmlns="http://www.w3.org/2000/svg" version="1.1" viewBox="0 0 636.44 800">
  <defs>
    <style>
      .cls-1 {
        fill: #81641f;
      }

      .cls-2 {
        fill: #c7ab3d;
      }

      .cls-3 {
        fill: #efd470;
      }

      .cls-4 {
        fill: #b78f2f;
      }

      .cls-5 {
        fill: #474746;
      }

      .cls-6 {
        fill: #e2c9b7;
      }

      .cls-7 {
        fill: #987726;
      }

      .cls-8 {
        fill: #b88f30;
      }

      .cls-9 {
        fill: #a89154;
      }

      .cls-10 {
        fill: #773211;
      }

      .cls-11 {
        fill: #ae892d;
      }

      .cls-12 {
        fill: #856854;
      }

      .cls-13 {
        fill: #bc987e;
      }

      .cls-14 {
        fill: #d9bca6;
      }

      .cls-15 {
        fill: #bd5522;
      }

      .cls-16 {
        fill: #2d2c2c;
      }

      .cls-17 {
        fill: #bc977e;
      }

      .cls-18 {
        fill: #ebe2ce;
      }

      .cls-19 {
        fill: #987626;
      }

      .cls-20 {
        fill: #9d461a;
      }

      .cls-21 {
        fill: #a5854f;
      }

      .cls-22 {
        fill: #816420;
      }

      .cls-23 {
        fill: #dfc54d;
      }

      .cls-24 {
        fill: #464646;
      }

      .cls-25 {
        fill: #866855;
      }

      .cls-26 {
        fill: #bd997f;
      }

      .cls-27 {
        fill: #5a5957;
      }

      .cls-28 {
        fill: #977625;
      }

      .cls-29 {
        fill: #bc977d;
      }

      .cls-30 {
        fill: #80631f;
      }

      .cls-31 {
        fill: #bb977d;
      }

      .cls-32 {
        fill: #bd987f;
      }

      .cls-33 {
        fill: #ded5c2;
      }

      .cls-34 {
        fill: #c6aa3d;
      }

      .cls-35 {
        fill: #8f8e8e;
      }

      .cls-36 {
        fill: #af8a2e;
      }

      .cls-37 {
        fill: #917333;
      }

      .cls-38 {
        fill: #2d2d2c;
      }

      .cls-39 {
        fill: #715719;
      }

      .cls-40 {
        fill: #f29e39;
      }

      .cls-41 {
        fill: #de8932;
      }

      .cls-42 {
        fill: #c7ab3e;
      }

      .cls-43 {
        fill: #856753;
      }

      .cls-44 {
        fill: #856755;
      }

      .cls-45 {
        fill: #b78e2f;
      }

      .cls-46 {
        fill: #80631e;
      }

      .cls-47 {
        fill: #856754;
      }
    </style>
  </defs>
  <!-- Generator: Adobe Illustrator 28.7.1, SVG Export Plug-In . SVG Version: 1.2.0 Build 142)  -->
  <g>
    <g id="Layer_1">
      <g>
        <path class="cls-23" d="M220.87,591.77c-15.6,3.38-31.23,6.68-46.8,10.18-4.57,1.03-8.75,1.14-13.37-.53-26.17-9.45-52.44-18.61-78.74-27.71-3.16-1.09-5.13-2.92-6.83-5.64-12.91-20.65-25.91-41.24-38.94-61.82-1.47-2.33-2.22-4.31-1.1-7.25,9.5-24.77,18.87-49.6,28.06-74.49,1.42-3.84,3.43-5.24,7.48-5.83,27.95-4.03,55.86-8.32,83.75-12.72,5.62-.89,8.96-.08,10,6.46,1.21,7.55,3.53,14.91,5.37,22.36,3.03,1.71,3.53,4.83,4.19,7.77,2.71,12.1,6.57,23.91,9.12,36.06.61,2.9.89,6.11,3.74,8.03,14.22,3.06,28.35,6.6,42.98,7.22,3.5,1.97,7.43,2.55,11.23,3.53,4.73,1.22,7.76,4.09,8.24,9.04,2.27,23.52,4.63,47.02,6.78,70.55.16,1.75-.04,3.5-.6,5.19-.81,2.22-2.46,3.7-4.64,4.28-8.85,2.37-17.69,4.82-26.79,6.06-1.1.15-2.16-.22-3.14-.74Z"/>
        <path class="cls-46" d="M254.15,582.43c-2.33-25.32-4.73-50.64-6.94-75.98-.4-4.54-2.56-6.2-6.85-7.23-4.07-.97-9.69,1.04-11.82-4.85-2.98-3.62-1.96-7.82-1.6-11.86.95-10.79,1.55-21.61,2.51-32.4-.16-.78-.18-1.58-.08-2.37.65-6.02-1.94-12.38,1.86-18.07,3.61-.78,3.08,2.21,3.35,4.03.52,3.43.25,6.92-.12,10.59,9.91-7.68,18.62-16.5,28.71-23.69,34.86-1.37,69.64-4.25,104.51-5.46,5.67-.2,10.33-1.75,12.28-7.73,3.56-1.23,3.43,1.79,3.54,3.57.29,4.77,3.09,7.86,6.11,11.11,6.5,6.99,14.2,12.75,20.23,20.2.61,13.99.1,28,.27,42.01.03,2.15-.04,3.81-3.12,3.58-6.87-.51-6.88-.36-9.1,7.06,12.4-.05,11.27,9.65,12.65,17.61.04,18.04.08,36.08.12,54.12-.95,3.12-3.75,4.15-6.27,5.39-25.54,12.58-51.39,24.52-76.91,37.13-4.36,2.15-8.62,2.57-13.29.82-18.66-7.01-36.98-14.86-55.39-22.48-2.3-.95-4.19-2.42-4.63-5.12Z"/>
        <path class="cls-45" d="M254.15,582.43c5.06,4.55,11.71,5.81,17.71,8.3,14.33,5.95,28.55,12.16,43.14,17.49,4.5,1.65,7.93,1.02,11.74-.82,10.05-4.84,20.13-9.61,30.16-14.48,17.92-8.71,35.82-17.48,53.73-26.23,5.75,22.82,11.54,45.64,17.24,68.47,1.95,7.82,3.65,15.7,5.46,23.56.53,1.04.52,2.09.07,3.15-7.44,4.94-16.2,6.33-24.49,8.85-16.11,4.89-32.21,9.81-48.4,14.44-4.33,1.24-8.72,3.3-13.35.89-1.43-1.1-2.4-2.58-3.02-4.22-7.93-20.81-15.54-41.74-23.07-61.8-.91,18.51-3.47,37.81-4.56,57.22-.16,2.87-.71,5.69-3.45,7.44-3.27.95-6.59.55-9.79-.04-26.96-5-54.1-8.97-80.91-14.73-3.43-.74-8.7-.71-6.93-7.04,1.81-23.7,3.63-47.4,5.44-71.11,8.98-2.19,17.94-4.49,26.96-6.52,2.37-.53,4.65-.88,6.32-2.82Z"/>
        <path class="cls-14" d="M418.68,161.71c4.89,20.66,9.76,41.32,14.69,61.97,4.17,17.46,8.29,34.93,12.72,52.33,1.21,4.77.13,6.93-4.68,8.58-20.93,7.2-41.71,14.81-62.54,22.28-3.08,3.39-7.34,4.47-11.46,5.8-9.28,3-18.1,7.4-27.82,9.05-5.1-.02-6.35-4.04-7.74-7.7-9.17-24.16-18.26-48.35-27.31-72.55-8.67-23.17-17.53-46.28-26.08-69.5-1.11-3.02-2.92-6.02-1.16-9.42,2.19-2.47,5.31-2.97,8.24-3.77,39.33-10.79,78.79-21.08,118.11-31.89,1.91-.52,3.82-1.04,5.82-.5,4.09,2.04,3.78,6.33,4.99,9.83.77,2.21.76,4.62,1.71,6.79.91,6.22,4.16,12.14,2.51,18.71Z"/>
        <path class="cls-17" d="M277.68,163.16c8.14,21.99,16.24,43.99,24.44,65.95,10.2,27.31,20.41,54.63,30.85,81.85,1.33,3.47.86,8.8,6.69,9.2-2.26,5.39-8.45,3.4-12.29,6.86,9.82,4.02,19.65,7.76,29.36,11.78,2.96,1.23,6.38,2.02,7.14,5.95-.78,3.34-3.76,4.73-6.06,6.64-14.35,11.83-28.2,24.26-42.63,36-5.03,4.09-6.59,3.98-9.73-1.4-7.95-13.61-15.61-27.39-23.78-40.88-1.03-1.71-1.8-3.51-1.55-5.59-2.59-4.73-5.18-9.46-7.78-14.19.46-3.92,3.14-6.65,5.24-9.66,7-10.01,14-20.01,20.19-30.54.25-2.85-1.35-5.02-2.65-7.3-4.89-8.59-10.04-17.02-14.94-25.59-1.66-2.91-3.78-4.71-6.93-5.49-5.57-6.81-9.39-14.52-11.87-22.93,2.97-3.75,7.57-5.1,11.39-7.58,6.43-4.18,6.52-4.16,3.03-10.73-5.26-9.88-11.02-19.49-16.52-29.23-1.37-2.42-3.54-4.59-3.04-7.77,6.42-4.76,13.23-7.91,21.46-5.34Z"/>
        <path class="cls-24" d="M280.11,339.51c9.52,14.16,17.55,29.22,26,44.01,2.52,4.41,3.59,6.62,8.89,1.88,15.62-13.98,32.05-27.05,48.16-40.48.99-.68,2.01-.55,3.04-.14,6.07,1.97,12.14,3.94,18.21,5.91,1.99,2.57,2.55,5.53,2.21,8.67-1.49,13.68-1.25,27.46-2.53,41.15-.22,2.39-.29,4.85-2.5,6.47-2.75,9.74-3.51,10.43-14.38,10.56-29.12.36-58.08,4.11-87.22,4.23-6.01.02-12.04,2.79-18.01-.27-4.38-5.22-3.01-11.79-3.46-17.66-1.1-14.43-1.82-28.9-2.95-43.33-.3-3.88-.75-7.97,2.14-11.33,7.2-3.84,14.79-6.77,22.41-9.66Z"/>
        <path class="cls-33" d="M530.67,780.35c-23.09,1.71-46.17,3.47-69.27,5.12-14.17,1.02-28.36,1.77-42.53,2.83-21.34,1.6-42.65,3.71-64.01,4.96-23.04,1.35-46.06,3.33-69.19-.53-14.82-2.47-29.97-2.96-44.96-4.49-19.1-1.95-38.19-4.09-57.29-6.08-10.64-1.11-21.29-2.08-31.94-3.12-9.72-.96-19.45-1.93-29.17-3.38,6.72-.63,13.42-1.23,20.08-1.69,19.86-1.37,39.84-1.24,59.63-3.19,9.34-.92,18.9.64,28.03-2.34,1.16,4.56-3.32,6.14-5.25,9.61,16.25.33,32.17-.21,48.07.36.67-.02,1.35-.01,2.02,0,1.29.03,2.58-.12,3.88-.15q8.09-.22,8.08-8.38c0-2,.1-3.9,1.84-5.28,2.07-1.38,4.37-2.05,6.8-2.21,19.42-1.27,38.83-2.04,58.23.33,10.39,1.27,20.98.6,31.23,3.19,3.42,1.68,3.32,5.78,5.66,8.19,1.8,1.52,3.93,1.72,6.17,1.7,22.05-.13,44.09.22,66.12-.2,1.17-.32,2.34-.66,3.09-1.76,18.34.2,36.56,2.19,54.81,3.7,3.27.27,6.57.15,9.86.21.8.87.8,1.73,0,2.6Z"/>
        <path class="cls-46" d="M256.78,169.21c8.81,12.88,15.57,26.96,23.55,40.32.96,1.61,1.67,3.31-.53,4.47-5.96,3.14-10.99,8.03-17.84,9.49-3.77-.75-4.72-4.21-6.42-6.87-3.93-6.17-4.12-6.35-10.69-2.69-7.21,4.03-14.35,8.2-21.45,12.42-2.76,1.64-5.64,3.59-9.07,1.41-2.6-4.49-5.58-8.81-7.66-13.53-1.49-3.39-4.42-3.69-7-4.95-.12-5.83-4.45-9.77-6.6-14.7-1.03-2.36-2.98-4.32-3.09-7.11.09-.66.32-1.26.71-1.8,2.27-2.3,5.22-2.95,8.24-3.47,14.95-3.56,29.52-8.54,44.54-11.84,1.01-.29,1.96-.76,2.97-1.04,3.44-.61,6.87-2.58,10.35-.13Z"/>
        <path class="cls-17" d="M478.06,420.47c10.14-8.77,20.28-17.54,30.42-26.31,4.08-.18,4.95,3.53,6.84,5.86,2.02,2.49,3.75,5.23,5.78,7.73,2.63,4.27,6.02,7.88,9.66,11.28-6.54,3.68-9.98,10.25-14.45,15.79-8.52,10.57-16.7,21.41-24.95,32.19-1.58,2.06-2.9,3.28-5.93,2.25-15.12-5.11-30.34-9.93-45.53-14.86-.98-2.69,1.04-4.03,2.6-5.43,9.4-8.46,19.38-16.27,28.65-24.88,1.98-1.84,4.47-2.66,6.9-3.62Z"/>
        <path class="cls-23" d="M215.43,662.87c-.2,4.12,3.11,4.3,5.74,4.79,15.64,2.91,31.31,5.7,46.97,8.48,15,2.66,30.01,5.26,45.02,7.89,2.66,2.36,2.44,5.57,2.16,8.58-1.2,13.1-2.09,26.24-3.9,39.28-.88,6.34-2.98,7.92-9.39,6.69-6.24-1.2-12.44-2.62-18.68-3.83-6.68-1.54-13.21-3.69-19.96-4.99-1.67-.32-3.39-.74-4.26-2.51-14.63-3.4-29.27-6.78-43.9-10.2-1.24-.29-2.43-.82-3.65-1.24,2.57-2.89,6.06-2.17,9.25-2.19,22.84-.08,45.67-.06,68.51-.03,4.84,0,9.64-.25,13-.64-28.97-13.23-57.83-29.37-87.71-43.43-.14-2.27-.6-4.57.79-6.65Z"/>
        <path class="cls-2" d="M159.21,89.32c8.33-2.57,16.67-5.14,25-7.7,1.45.61,1.86,1.61,1.16,3.04-7.58,7.69-12.4,17.37-18.67,26.01-2.38,3.28-1.12,5.07,2.17,6.41,7.88,3.2,15.52,6.99,23.63,9.63,8.71,2.84,16.98,6.74,25.45,10.22.5.49.78,1.07.86,1.77-.1.7-.42,1.29-.93,1.77-8.28,4.21-17.38,5.84-26.24,8.16-6.57,1.72-13.14,3.37-19.59,5.5-6.4,2.23-12.75,4.61-19.36,6.16-2.16-2.58-4.41-.51-6.62-.1-5.96,1.1-11.47,4.29-18.5,4.21,10.12-14.81,19.73-29.14,29.66-43.26,2.68-3.8,2.75-5.42-2.07-7.05-10.09-3.41-19.98-7.41-31.45-11.73,12.82-4.71,24.16-8.87,35.5-13.03Z"/>
        <path class="cls-14" d="M231.45,447.75c-.03.54-.06,1.07-.09,1.61-1.24,2.58-2.72,4.92-5.03,6.76-12.13,9.68-24.22,19.43-35.98,29.56-1.53,1.32-3.55,1.7-5.02,3.03-3.49-1.49-3.11-5-3.84-7.78-4.01-15.36-7.84-30.78-11.74-46.17,8.19-3.92,11.76-12.43,18.01-18.29,2.33-2.19,3.97-5.13,6.88-6.79,2.05-.81,3.47.44,4.55,1.76,9.18,11.22,20.58,20.38,29.51,31.83,1.1,1.41,1.6,3.13,2.74,4.47Z"/>
        <path class="cls-2" d="M433.16,661.54c.06-.94.12-1.88.17-2.82,5.57,18.42,11.17,36.83,15.3,55.64-13.07,3.28-26.53,2.35-39.79,3.34-11.79.88-23.69.2-35.55.18-2.85,0-5.73.06-8.49-.8-5.13-1.61-6.08-4.72-1.65-7.81,22.48-15.67,43.55-33.39,67.68-46.64.74-.41,1.71-.36,2.32-1.09Z"/>
        <path class="cls-2" d="M214.64,669.52c2.2-1.75,4.14-.41,6.08.56,24.11,12.07,48.24,24.13,72.32,36.26,4.24,2.14,8.92,3.61,12.22,9.13-31.22.11-62.45.22-93.67.33-3.29-7.7.53-15.26.59-22.91.06-7.8,1.58-15.58,2.46-23.37Z"/>
        <path class="cls-23" d="M433.16,661.54c-19.4,13.88-38.79,27.76-58.19,41.65-4.55,3.26-9.08,6.52-13.4,10.62,29.14,4.09,58.13.04,87.07.56-12.09,5.13-24.99,7.74-37.37,11.95-2.49.85-4.95,1.77-7.42,2.66-5.9,5.3-14.02,4.83-20.74,8.01-1.89.54-3.79,1.04-5.66,1.64-9.12,2.93-10.87,2.14-14.52-6.5-5.36-12.68-10.27-25.54-14.62-38.6-.86-2.59-2.43-5.28-.58-8.12,13.19-1.05,25.23-6.51,37.8-9.93,15.96-4.34,31.77-9.25,47.65-13.92Z"/>
        <path class="cls-14" d="M478.06,420.47c-11.04,9.62-22.06,19.26-33.15,28.82-1.83,1.57-3.87,2.87-5,5.11-9.74-3.04-19.48-6.07-29.22-9.11-.83-1.15-1.18-2.42-.93-3.84,7.83-15.35,15.47-30.8,23.23-46.19,1.33-2.63,2.08-5.9,5.63-6.73,9.27,6.19,16.91,14.35,25.61,21.23,4.57,3.61,8.34,8.27,13.83,10.7Z"/>
        <path class="cls-45" d="M257.7,349.17c1.42,24.11,2.85,48.22,4.27,72.33-.7,1.32-1.1,3-2.16,3.91-8.51,7.36-17.15,14.58-27.17,23.05v-19c-1.99-1.8-2.2-4.26-2.18-6.66.07-10.72-.7-21.45.79-32.16.93-6.73.47-13.57.36-20.35-.05-3.38,1.36-6.4,1.61-9.66,7.29-5.68,16.13-8.05,24.48-11.47Z"/>
        <path class="cls-45" d="M381.58,406.98c.94-18.76,1.88-37.53,2.83-56.29,9.21,3.05,18.6,5.58,27.38,9.81,2.28,8.11,1.42,16.32.72,24.52-1.96,6.46-1,13.1-1.1,19.66-.15,9.89.08,19.78-.11,29.66-.06,3.01.95,6.72-3.17,8.31-6.15-5.9-12.03-12.1-18.51-17.61-5.74-4.88-9.2-10.32-8.04-18.06Z"/>
        <path class="cls-24" d="M233.22,360.64c2.12,9.09,1.08,18.34.48,27.41-.91,13.81-.56,27.62-1.07,41.42-2.23,5.98-.61,12.2-1.19,18.29-11.53-10.4-21.34-22.46-32.19-33.52-1.51-1.54-3.08-3.03-4.62-4.55,3.61-7.1,9.4-12.57,14.21-18.76,7.95-10.23,16.23-20.21,24.37-30.29Z"/>
        <path class="cls-14" d="M214.32,227.78c4.16.58,6.85-2.52,10.02-4.23,7.9-4.25,15.72-8.68,23.34-13.4,3.7-2.29,5.6-1.7,7.48,2.12,1.93,3.91,4.5,7.5,6.79,11.23,3.96,7.62,7.91,15.23,11.87,22.85-1.73,5.13-6.03,6.47-10.7,7.26-4.67-1.62-5.65-6.24-7.94-9.8-1.29-2-2.51-4.05-3.85-6.01q-5.82-9.88-16.13-4.63c-1.09.55-2.51.68-3.17,2.1,3.77,2.55,8.37,3.46,12.03,6.18,4.06,5.4,8.89,10.4,9.38,17.7-3.35,5.4-9.37,7.3-14.18,10.79-8.31-14.05-16.63-28.1-24.94-42.15Z"/>
        <path class="cls-46" d="M152.7,160.28c4.56-5.8,12.22-4.41,17.86-7.7.73.49.05-.41.59.25,8.44,10.18,15.42,21.22,19.5,33.92l-.14.29c-8.48,6.96-18.6,10.53-28.8,13.92-5.38.49-9.38,4.48-14.47,5.71-3.35-.36-1.82-2.51-1.54-4.2,2.34-14.06,4.67-28.13,7.01-42.19Z"/>
        <path class="cls-39" d="M263.19,252.92c3.54-2.19,7.09-4.38,10.63-6.57,2.17-.59,4.08-2.05,5.92,1.23,6.37,11.4,13.11,22.6,19.75,33.85.82,1.39,1.54,2.64.32,4.12-9.7,8.76-21.73,13.88-32.61,20.81-1.67,1.06-3.52,1.91-5.51.56-7.47-12.33-14.95-24.66-22.42-36.99.03-4.59,4.49-4.5,6.95-6.48,1.97-1.58,4.3-2.73,6.46-4.07,5.43.62,6.05,4.93,6.94,9.04-4.12,3.14-3.95,6.54-.82,10.35,2.94,3.57,3.89,8.52,7.82,11.41,4.19-2.3,8.25-4.78,12.45-7,4.14-2.19,5.22-4.54,2.33-8.65-2.47-3.52-4.66-7.29-6.46-11.44-1.31.81-1.27,2.68-2.72,3.22-6.29-2.21-9.6-7.12-9.03-13.4Z"/>
        <path class="cls-4" d="M452.84,93.09c-5.12,4.94-10.24,9.89-15.35,14.83-3.46-.77-4.6-3.87-6.08-6.42-9.1-15.69-17.86-31.58-26.79-47.36-1.14-2.01-4.66-4.57-.44-7.2,1.27.53,2.54,1.06,3.81,1.6,15.06,10.16,30.44,19.81,46.26,28.76,2.54,1.9,5.08,3.8,7.86,5.88-3.18,3.4-6.22,6.66-9.26,9.91Z"/>
        <path class="cls-14" d="M467.25,776.25c-1.39,1.99-3.5,1.43-5.39,1.44-23.1.03-46.21.04-69.31.01-1.9,0-3.99.51-5.43-1.4,4.42-2.9,8.81-2.1,12.53-.99-4.78-3.81-10.61-8.32-14.93-14.35-1-2.15-1.83-4.32-1-6.74,6.82-5.79,14.06-11.07,20.98-16.76,1.36-1.12,2.9-1.97,4.76-1.95,8.73,8.01,17.31,16.16,24.97,25.23.26,1.52-.58,2.59-1.69,3.28-6.68,4.16-13.64,7.8-21.05,10.49-.93.34-1.97.42-2.37-.11,13.74-.41,27.83-.25,41.91-.18,5.39.03,10.99-1.09,16.01,2.02Z"/>
        <path class="cls-24" d="M410.57,384.66c.8-8.03-1.1-16.2,1.22-24.16,9.22,9.08,18.44,18.16,26.84,28.04-7.79,15.37-15.56,30.74-23.39,46.09-1.27,2.5-2.14,5.27-4.4,7.17-1.64-5.15-.69-10.45-.67-15.65.07-13.83-.66-27.66.39-41.48Z"/>
        <path class="cls-14" d="M275.03,780.34c-.48,0-.95,0-1.43-.01-11.29-7.01-21.65-15.14-30.39-25.22,3.09-5.66,6.19-11.31,9.28-16.97,11.49,4.25,23.54,7.12,33.95,14.01,2.1,3.25,2.86,6.8,2.4,10.63-4.89,5.62-7.59,12.97-13.81,17.56Z"/>
        <path class="cls-47" d="M366.2,344.78c-1.01.05-2.03.09-3.04.14-5.04-5.32-12.34-5.96-18.55-8.85-6.89-3.21-14.08-5.76-21.68-8.81,5-4.71,11.6-4.24,16.75-7.1,13.07-4.43,26.14-8.86,39.21-13.29-4.25,10.51-8.54,21-12.72,31.53-.81,2.05-2.79,4.29.04,6.39Z"/>
        <path class="cls-35" d="M559.67,428.06c-5.78-3.76-9.42-9.68-14.39-14.26-8.12-3.83-12.2-11.56-17.43-18.17-.56-.71-.21-1.67.45-2.37,3.05-1.97,6.29-1.06,9.42-.44,5.86,1.16,11.16.94,14.8-4.71,1.01-.49,2.22-.85,3.15-.32,8.41,4.84,17.03,9.44,22.47,18.01.15.36.16.72.02,1.08-4.93,8.14-10.7,15.55-18.5,21.19Z"/>
        <path class="cls-14" d="M553.35,388.66c-2.42,9.02-9.4,7.07-15.61,6.21-3.25-.45-6.44-1.12-9.74-.99-2.05,5.15-2.87,10.99-8.02,14.41-5.1-3.68-6.83-10.1-11.5-14.14,2.07-4.54,5.34-8.5,6.41-13.52.89-5.96,3.16-11.19,7.87-15.16,2.94-.32,5.58.6,7.9,2.29,6.47,4.7,13.24,9.01,19.05,14.55,1.82,1.73,4.3,3.15,3.62,6.34Z"/>
        <path class="cls-13" d="M553.35,388.66c-9.08-8.94-18.54-17.36-30.45-22.47-.78-.71-.85-1.5-.25-2.35,9.03,1.47,18.13,2.33,27.26,2.42,7.65.07,13.68,2.14,17.6,9.53,3.04,5.75,6.82,11.28,11.13,16.14,4.65,5.23,4.16,9.4-.51,13.85-8.43-5.47-15.29-13.21-24.79-17.13Z"/>
        <path class="cls-24" d="M522.66,363.84c.08.78.16,1.57.25,2.35-2.67,4.81-5.34,9.63-8.01,14.44-18.94-20.59-37.87-41.17-56.81-61.76-.29-1.44.28-2.01,1.71-1.67,20.95,15.54,41.91,31.09,62.86,46.63Z"/>
        <path class="cls-17" d="M243.21,755.1c10.77,7.63,20.93,16.01,30.39,25.22-17.58,0-35.16,0-53.99,0,4.01-4.56,7.23-8.22,10.45-11.88,4.38-4.45,8.76-8.89,13.15-13.34Z"/>
        <path class="cls-13" d="M467.25,776.25h-61.89c10.59-5.65,19.83-10.58,29.08-15.52.84-.23,1.72-.36,2.5-.71q11.69-5.21,20.21,4.27c2.9,3.23,5.11,7.1,8.86,9.55.42.8.83,1.61,1.25,2.41Z"/>
        <path class="cls-47" d="M261.68,306.92c9.62-5.53,19.28-10.98,28.84-16.62,3.01-1.78,5.9-3.72,9.29-4.74-8.75,13.54-17.08,27.36-27.47,39.76-3.55-6.13-7.1-12.27-10.65-18.4Z"/>
        <path class="cls-47" d="M285.37,752.48c-9.08-3.5-18.17-6.95-27.21-10.55-2.1-.84-4.82-.99-5.66-3.8,2.21-3.63,4.43-7.25,6.64-10.88,8.08.8,15.97,2.41,23.51,5.51,3.67,6.19,6.5,12.5,2.72,19.72Z"/>
        <path class="cls-39" d="M161.7,200.96c8.95-6,18.95-9.81,28.81-13.92,3.33,5.62,6.77,11.16,9.9,16.88.9,1.64,3.83,4.24-.76,5.38-12.81-2.05-25.41-5.08-37.95-8.34Z"/>
        <path class="cls-12" d="M409.47,735.51c-7.06,5.83-14.12,11.65-21.16,17.5-1.12.93-2.32,1.1-3.67.73-3.66-5.83-4.47-11.92-1.61-18.33,6.59-3.27,13.71-4.84,20.81-6.44,1.88,2.18,3.75,4.35,5.63,6.53Z"/>
        <path class="cls-30" d="M559.67,428.06c5.62-7.54,11.39-14.95,18.5-21.19,3,8.23,4.83,16.78,6.66,25.32-3.57,6.02-7,2.05-10.45-.16-4.9-1.33-9.81-2.65-14.71-3.98Z"/>
        <path class="cls-19" d="M410.57,384.66c.09,19.04.18,38.09.27,57.13-.05,1.17-.1,2.34-.15,3.5-.06,22.42-.12,44.85-.17,67.27-1.14-3.27-2.19-6.57-3.43-9.81-1.5-3.91-3.17-6.99-8.61-5-3.82,1.4-5.41-.53-3.17-4.42,1.31-2.27,2.65-4.52,3.85-6.85,1.55-3.02,3.12-4.59,6.2-1.36.97,1.02,4.02,3.41,3.91-.68-.38-13.94,1.58-27.94-1.14-41.81,2.06-1.98,1.24-4.55,1.25-6.87.08-14.71.03-29.43.1-44.14.01-2.35-.67-4.87,1.08-6.97Z"/>
        <path class="cls-44" d="M519.98,408.29c2.72-4.78,3.49-10.64,8.02-14.41,5.76,6.64,11.52,13.28,17.28,19.91-4.84,1.74-9.68,3.49-14.52,5.23-6.67-.49-8.08-6.26-10.78-10.74Z"/>
        <path class="cls-8" d="M574.38,432.03c3.49-.25,6.92,3.34,10.45.16,1.01,1.48,2.17,2.82,4.1,2.91,9.11.42,10.49,7.53,12.97,14.91-7.54-1.02-14.43-1.98-21.32-2.85-2.55-.32-3.71-1.55-4.04-4.19-.46-3.68-1.41-7.29-2.16-10.93Z"/>
        <path class="cls-18" d="M530.67,780.35c0-.87,0-1.73,0-2.6,3.5.36,7.2-.96,10.63,2.6h-10.63Z"/>
        <path class="cls-27" d="M459.8,317.21c-.57.56-1.14,1.11-1.71,1.67-1.69-1.55-3.39-3.1-5.85-5.34,4.12-.13,5.83,1.8,7.56,3.67Z"/>
        <path class="cls-9" d="M145.69,202.47c.44,1.43-.12,3.22,1.54,4.2-.7.28-1.91.95-2.04.79-1.37-1.75-.51-3.4.5-4.99Z"/>
        <path class="cls-46" d="M185.28,83.9c-.36-.76-.71-1.52-1.07-2.28,1.25-1.91,2.49-3.82,3.74-5.73,4.98-6.51,9.97-13.01,14.95-19.52,2.19-1.18,4.3-.44,6.19.58,9.89,5.38,19.84,10.66,29.57,16.32,1.12.65,2.11,1.51,2.84,2.64.5.93.74,1.92.77,2.97-3.83,14.82-10.39,28.67-15.19,43.16-1.23,3.72-2.45,7.48-4.17,11.01-.96,1.97-1.19,4.9-4.48,4.76l-.04.05c-2.51-1.41-4.68-3.15-6.18-5.67-8.4-14.03-16.84-28.04-25.13-42.13-1.1-1.86-2.19-3.81-1.79-6.15Z"/>
        <path class="cls-4" d="M240.65,76.01c-9.64-5.13-19.37-10.09-28.87-15.48-2.89-1.64-5.91-2.79-8.87-4.17-.84-4.74-1.35-9.57-2.61-14.19-1.36-5,.45-6.19,5.08-5.77,10.03.91,20.08,1.59,30.12,2.37,6.13.61,12.26,1.21,18.39,1.82,2.12,2,1.6,4.43.82,6.68-2.87,8.22-5.85,16.4-9.16,24.44-.85,2.06-1.67,4.7-4.89,4.3Z"/>
        <path class="cls-2" d="M240.65,76.01c6.21-11.14,10.54-22.97,13.24-35.42,4.09-3.14,3.14-8.93,6.8-12.84,3.71,4.11,4.64,9.87,8.65,13.55.63.19,1.18.5,1.67.93,11.26,19.33,21.13,39.44,32.43,58.75,1.06,1.81,1.47,4.18,3.82,5.14,1.87-1.87,2.02-4.37,2.63-6.63,4.53-16.73,9.27-33.41,13.44-50.24.37-1.5.79-2.97,1.8-4.2.71-.76,1.56-1.24,2.63-1.23,11,6.43,20.94,14.39,31.41,21.6,3.05,2.1,3.35,5.49,3.6,8.83.74,8.05-1.04,16.08-.23,24.13-.33,2.09-1.98,2.81-3.68,3.27-16.48,4.44-32.87,9.25-49.35,13.67-.63.17-1.31.07-1.96.03-11.52-5.25-22.14-12.19-33.32-18.09-11.27-5.95-22.37-12.19-33.31-18.73-.09-.84-.18-1.69-.27-2.53Z"/>
        <path class="cls-2" d="M327.67,44.32c-.43.44-.86.89-1.29,1.33-1.94,1.27-4.12,1.29-6.31,1.13-14.32-1.05-28.64-2.08-43.01-2.25-2.67-.03-5.15-.83-7.19-2.7-.18-.18-.36-.36-.54-.54,20.32-10.94,40.64-21.88,60.95-32.83,2.95-.5,4.81-3.54,8.01-3.47,1.53,1.67,1.33,3.62.77,5.54-3.01,10.23-6.01,20.47-9.21,30.64-.39,1.25-1.01,2.41-2.19,3.14Z"/>
        <path class="cls-45" d="M327.67,44.32c1.33-10.81,5.85-20.75,8.44-31.22.67-2.71,1.45-5.4,2.19-8.1,9.65,4.11,17.6,10.99,26.45,16.39,7.98,4.87,15.76,10.07,23.63,15.13,1.84,2.8-.35,4.54-1.85,6.24-6.36,7.22-12,15.12-19.06,21.65-2.91,2.69-2.33,7.67-6.71,9.01.37-3.67-1.46-5.79-4.4-7.92-9.61-6.98-20.32-12.5-28.68-21.17Z"/>
        <path class="cls-46" d="M360.75,73.42c1.87-9.65,10.59-14.37,15.64-21.72,3.66-5.32,9.26-9.11,11.98-15.18,4.83-4.3,8.19-10.07,13.37-13.76v22.62c2.35,14.04,1.78,27.98-1.47,41.83-.78,1.43-2.03,2.35-3.42,3.11-9.2,3.25-18.73,5.4-28.05,8.25-2.21.68-4.57,1.72-6.83-.04-3.12-.64-2.75-3.07-2.28-5.11,1.52-6.63.69-13.34,1.06-20.01Z"/>
        <path class="cls-2" d="M398.86,87.88c.96-14.16,1.92-28.33,2.88-42.49.81.52,1.62,1.04,2.42,1.55-.56,5.81,4.06,9.36,6.42,13.74,8.59,15.95,17.88,31.52,26.9,47.24,0,0-.16-.13-.16-.13-3.64,2.02-6.25-.63-9.06-2.08-9.53-4.91-18.33-11.25-28.68-14.57-1.21-.87-1.81-1.88-.73-3.27Z"/>
        <path class="cls-14" d="M115.51,503.44c-7.61-.12-10.29-3.03-8.42-9.69,2.58-9.18,3.66-18.84,8.51-27.32,8.12-2.88,16.35-4.69,24.98-2.72.66.29,1.23.73,1.69,1.29,1.32,3.52-1.17,5.84-2.88,8.23-3.57,4.99-7.27,9.88-10.74,14.94-2.89,3.43-5.43,7.12-8.04,10.76-1.35,1.89-2.46,4.08-5.11,4.51Z"/>
        <path class="cls-47" d="M141.73,465.32c-8.8-1.57-17.37,2.06-26.14,1.11,6.84-5.32,13.85-10.44,20.43-16.06,3.35-2.86,4.61-1.47,6.24,1.47,4.22,7.62,8.55,15.18,12.89,22.73q4.65,8.11-4,13.01c-3.93-2.51-3.92-7.01-5.38-10.74-1.49-3.79-1.43-8.12-4.03-11.52Z"/>
        <path class="cls-41" d="M144.67,551.15c4.38,1.76,9.28,3.55,14.02,5.7,1.9.86,1.43,2.77,1,4.61-3.35,14.18-4.44,14.67-17.98,10.39-5.1-1.61-6.85-3.63-4.09-8.7,1.54-2.84,2.25-6.12,3.44-9.16.55-1.39,1.11-2.94,3.61-2.84Z"/>
        <path class="cls-5" d="M71.22,460.23c2.19-5.79,2.8-12.46,6.44-15.61,3.91-3.39,9.3,2.04,14.12,3.3,1.88.49,4.82.96,3.77,4.18-1.49,4.58-3.27,9.07-4.92,13.6-.08.21-.14.42-.25.61-1.49,2.64-3.43,1.18-5.08.38-4.62-2.23-10.46-2.12-14.07-6.45Z"/>
        <path class="cls-10" d="M68.59,476.67c3.78,1.45,8.69,3.33,13.59,5.21,1.95.75,1.81,2.2,1.23,3.78-1.59,4.32-3.23,8.63-4.78,12.97-.97,2.72-2.95,2.51-4.74,1.39-4.57-2.87-12.88-1.42-13.78-7.48-.71-4.75,3.27-10.2,5.19-15.33.36-.96,1.16-1.21,3.28-.54Z"/>
        <path class="cls-40" d="M183.77,552.65c3.95,1.42,9.95,1.86,13.12,5.09,5.46,5.56-2.46,10.65-2.96,16.36-.31,3.55-3.17,2.68-5.5,1.43-.57-.31-1.2-.53-1.81-.76-12.65-4.61-13.89-8.1-7.12-19.98.79-1.39,1.53-2.7,4.27-2.14Z"/>
        <path class="cls-15" d="M126.02,547.33c-.12,4.11-5.59,15.64-7.43,15.65-5.21.03-16.31-5.89-16.21-8.64.16-4.36,5.86-15.32,8-15.35,5.14-.08,15.72,5.56,15.64,8.34Z"/>
        <path class="cls-20" d="M78.65,513.2c5.75,2.21,10.88,4.06,15.9,6.18,1.89.8.98,2.55.61,4.02-3.71,14.93-8.05,16.8-21.57,9.27-.38-.21-.88-.23-1.21-.48-2.35-1.82-.36-3.65.29-5.19,1.92-4.58,2.44-9.89,5.98-13.8Z"/>
        <path class="cls-3" d="M232.54,541.62c-.17,4.6-5.67,15.57-7.76,15.5-4.39-.15-16.02-6.21-15.89-8.28.31-4.84,5.99-15.89,8.1-15.76,6.6.43,15.67,5.41,15.56,8.54Z"/>
        <path class="cls-29" d="M141.73,465.32c3.32,0,3.46,2.78,4.15,4.93,1.83,5.75,3.52,11.55,5.27,17.33-4.52,4.42-8.96,8.92-14.62,11.94-2.61-2.61-1.48-5.65-.97-8.6,1.44-8.32,3.96-16.37,6.33-24.45-.06-.38-.11-.76-.15-1.15Z"/>
        <path class="cls-25" d="M141.89,466.47c1.69,7.6-2.81,14.19-3.52,21.41-.38,3.9-2.24,7.59-1.84,11.64-.43.41-.87.83-1.3,1.24-5.58-2.61-8.31-6.98-8.15-13.15,4.94-7.05,9.87-14.09,14.81-21.14Z"/>
        <path class="cls-42" d="M127.08,487.6c2.72,4.38,5.43,8.77,8.15,13.15-6.46,1.72-12.72,4.95-19.72,2.68,3.66-5.42,7.02-11.06,11.58-15.83Z"/>
        <path class="cls-7" d="M281.69,492.93c-.04-13.82.04-27.65-.19-41.47-.08-4.38,1.03-6.26,5.85-6.22,22.8.21,45.6.16,68.4.04,4.47-.02,6.29,1.6,6.27,6.17-.12,23.48-.12,46.96,0,70.43.02,4.06-1.5,5.31-5.42,5.29-23.24-.12-46.48-.22-69.72.04-6.73.08-5.09-4.31-5.35-7.97.09-1.03.59-1.82,1.35-2.48,2.75-1.97,6.04-2.59,9.2-3.32,5.61-1.29,8.41-4.23,7.28-10.2-1.01-5.38-.47-10.04,5.52-12.41,2.34-.92,2.3-3.01,1.46-5.01-1.07-2.55-1.34-5.55-4.46-7.78-1.07,6.61-5.15,8.47-11.08,7.68-2.11-.28-3.58,1.22-4.68,3.04-1.07,1.77-1.54,4.29-4.43,4.15Z"/>
        <path class="cls-2" d="M281.69,492.93c.59-.9,1.55-1.74,1.72-2.71,1.11-6.11,5.02-7.61,10.49-6.56,3.43.66,5.5,0,4.88-4.12-.34-2.3.75-3.61,3.07-4.2,3.01-.76,3.09,1.48,3.77,3.26.7,1.83,1.41,3.67,2.26,5.44,2.21,4.57,2.4,8.11-3.8,9.44-2.04.44-3.65,1.62-3.47,4.64.85,14.78.73,14.78-13.95,18.76-1.26.34-2.5.76-3.75,1.15-1.6.06-2.6-1-2.81-2.28-1.18-6.89-2.55-13.84,1.37-20.4.07-.81.14-1.61.22-2.42Z"/>
        <path class="cls-2" d="M364.06,570.05c-6.28-2.64-11.09-6.86-15.87-10.84-4.06-3.38-3.38-11.86,1.32-14.55,3.57-2.05,5.22-8.99,11.76-5,10.2,6.23,9.6,2.91,6.53,15.48-1.18,4.85-2.42,9.68-3.73,14.91Z"/>
        <path class="cls-11" d="M281.47,495.35c.93,7.53-1.53,15.28,1.44,22.68-.46.41-.92.82-1.38,1.23-3.14-.57-7.56,1.51-9.26-1.48-3.08-5.42-5.03-11.53-7.12-17.47-.79-2.25,1.56-2.12,2.93-2.39,4.46-.9,8.93-1.72,13.39-2.57Z"/>
        <path class="cls-28" d="M322.63,548.81c.77,4.09-4.04,4.26-6.92,4.23-6.52-.07-3.79-6.49-5.59-9.89-1.02-1.92.55-3.27,2.21-2.6,3.78,1.51,9.91-.21,10.3,8.27Z"/>
        <path class="cls-2" d="M398.86,87.88c.36.87.72,1.74,1.09,2.61,4.71,4.77,11.43,30.27,9.68,36.69-38.94,10.59-77.88,21.18-116.82,31.78-5.05,1.38-10.09,2.8-15.13,4.2-7.23,1.13-14.3,2.8-20.9,6.06-3.6.65-7.19,1.29-10.79,1.94-2.9-6.17.75-10.59,4.02-15.11,48.99-21.82,96.35-47.2,146.21-67.13.88-.34,1.76-.69,2.64-1.03Z"/>
        <path class="cls-6" d="M358.25,218.82c-.49-1-.98-2-1.48-3-8.01-13.89-10.43-29.73-15.56-44.63-1.03-2.98-2.9-6.13-.42-9.35,7.68-4.83,16.81-5.39,25.11-8.4.56-.2,1.67,1.12,2.52,1.74,1.5.71,2.21,2.09,2.75,3.52,3.39,9.02,5.92,18.31,8.31,27.64.47,1.83.78,3.88-.37,5.71,1.78,6.22,4.61,12.14,5.2,18.68-7.81,5.53-16.56,8.05-26.08,8.09Z"/>
        <path class="cls-39" d="M409.63,127.18c-3.23-12.23-6.45-24.46-9.68-36.69,2.59-2.53,4.38.3,6.27,1.14,10.69,4.75,20.11,11.97,31.11,16.16-7.04,12.2-14.59,24.07-22.54,35.69-3.31-4.93-2.49-11.17-5.16-16.31Z"/>
        <path class="cls-13" d="M340.8,161.84c4.6,15.26,9.22,30.51,13.79,45.78.81,2.71,1.46,5.47,2.18,8.2-4.29-2.86-6.46-7.48-9.39-11.44-1.28-1.73-2.11-2.63-3.59-.4-2.62-3.28-4.98-6.74-7.11-10.36,1.26-5.59-2.15-7.6-6.7-7.97-5.14-.42-10.33-.18-15.5-.23-.84-3.17,1.62-4.75,3.38-6.44,4.97-4.76,9.85-9.63,15.28-13.9,1.77-1.08,3.59-2.09,5.14-3.5.98-1.3,1.7,0,2.52.25Z"/>
        <path class="cls-13" d="M379.12,192.05c-3.56-12.29-7.13-24.58-10.69-36.87.07-.48.14-.96.22-1.43,1.75-.86,3.64-1.12,5.56-1.24,8.42-.97,16.58,1.11,24.82,2.22,1.79.24,3.3,1.2,3.86,3.15-2.38,3.3-6.22,4.61-9.52,6.46-5.89,3.32-8.59,8.15-8.95,14.63,2,2.25,1.98,4.43-.21,6.54-1.61-.82-2.32-.29-2.51,1.48-.21,1.98-.86,3.81-2.57,5.07Z"/>
        <path class="cls-36" d="M404.13,238.51c1.87-.4,3.73-.81,7.38-1.6-8.91,10.04-16.79,18.92-24.68,27.81-.99,1.12-2.27,1.29-3.59.96-12.85-3.18-25.69-6.4-38.48-11.01,3.05-.22,6.1-.43,9.15-.65,4.82-2.67,10.14-2.46,15.27-2.01,8.94.79,16.66-1.73,23.7-7.06,3.46-2.62,7.23-4.77,11.25-6.45Z"/>
        <path class="cls-39" d="M404.13,238.51c-8.87,7.85-17.48,16.11-30.67,15.59-6.51-.26-13.04-.06-19.56-.07,6.88-6.49,15.35-10.73,22.93-16.23,2.48-1.8,5.56-.72,8.33-.6,6.33.28,12.65.86,18.97,1.32Z"/>
        <path class="cls-1" d="M334.38,165.77c-6.64,6.55-13.27,13.1-19.91,19.66-4.87-1.81-4.7-6.84-6.15-10.53-1.23-3.14,2.74-3.25,4.74-4.01,6.11-2.33,12.33-4.4,18.5-6.58,1.6-.79,2.89-.98,2.82,1.46Z"/>
        <path class="cls-22" d="M402.88,157.87c-9.49-2.53-19.32-2.72-28.97-4.15-.73-.59-2.07-.87-1.18-2.29,7.12-1.94,14.47-3.31,21.31-5.99,6.54-2.57,8.58-.17,8.84,5.77.09,2.21,2.47,4.45,0,6.67Z"/>
        <path class="cls-38" d="M384.2,185.5c.07-2.18.14-4.36.21-6.54,5.48-5.49,13.06-5.18,15.53.8,1.91,4.64.7,8.66-3.81,11.18-4.54,2.54-8.44.67-11.93-5.44Z"/>
        <path class="cls-16" d="M336.68,193.62c5.34,1.41,7.37,5.1,7.11,10.36-1.67,5.05-5.08,7.64-10.37,6.36-3.97-.96-6.14-3.98-6.07-8.16.09-6.04,3.93-8.19,9.32-8.55Z"/>
        <path class="cls-25" d="M358.25,218.82c8.69-2.7,17.38-5.39,26.08-8.09-.04.22-.04.45-.13.64q-8.29,17.81-25.95,7.44Z"/>
        <path class="cls-37" d="M334.38,165.77c-.62-1.11-1.7-1.32-2.82-1.46,1.98-1.54,4.27-2.31,6.71-2.72-.66,1.99-2.19,3.16-3.89,4.18Z"/>
        <path class="cls-21" d="M372.73,151.42c.39.77.79,1.53,1.18,2.29-1.76,0-3.51.02-5.27.03.89-1.6,2.42-2.08,4.09-2.32Z"/>
        <path class="cls-32" d="M287.94,763.38c.14.8.28,1.61.42,2.41-.02,4.68,3.66,10.62.95,13.49-3.03,3.21-9.39.76-14.29,1.06,3.78-6.06,6.27-13.09,12.92-16.96Z"/>
        <path class="cls-26" d="M385.66,767.16c.07-2.14.13-4.28.2-6.42,5.36,4.76,10.73,9.52,17.53,15.56-6.53,0-11.4,0-16.27,0-.49-3.05-.97-6.1-1.46-9.14Z"/>
        <path class="cls-45" d="M251.14,156.38c-2.33,4.71-4.83,9.36-5.16,14.77-.49.3-.98.6-1.47.9-3.57-1.31-5.12-4.77-7.66-7.18-4.88-6.39-10.04-12.56-15.02-18.88-1.6-2.03-3.55-3.9-3.45-6.8.02-.47.03-.93.05-1.4,7.2-15.19,11.76-31.41,18.04-46.95,1.63-4.04,2.97-8.2,4.45-12.31,8.07.49,13.68,6.29,20.46,9.56,4.67,2.25,9.08,5.03,13.61,7.58.99,2.21.21,4.28-.63,6.27-3.45,8.19-6.28,16.61-9.45,24.9-3.39,7.61-6.33,15.4-9.47,23.11-.99,2.44-1.84,4.97-4.29,6.42Z"/>
        <path class="cls-23" d="M218.38,139.2c6.85,8.15,14.01,16.07,19.67,25.16-.45,1.97-2.07,2.72-3.66,3.47-11.88,5.55-23.28,12.15-35.85,16.17-2.63.92-5.26,1.84-7.89,2.76-6.7-11.39-13.39-22.78-20.09-34.17,15.94-4.46,31.88-8.92,47.82-13.38Z"/>
        <path class="cls-34" d="M198.54,183.99c12.81-7.28,25.97-13.85,39.51-19.64,3.31,1.6,4.42,5.04,6.47,7.7-15.33,3.98-30.65,7.96-45.98,11.94Z"/>
        <path class="cls-45" d="M185.28,83.9c9.01,14.89,18,29.79,27.04,44.66,1.92,3.16,4.04,6.2,6.06,9.3-18.67-5.38-36.4-13.19-54.21-20.8-1.8-.77-2.69-1.67-1.54-3.37,6.61-9.75,12.14-20.26,20.21-28.99.51-.55,1.61-.55,2.44-.8Z"/>
        <path class="cls-11" d="M258.95,268.47c-2.34-2.86-2.98-6.89-6.27-9.08-1.96-6.3-6.42-11.23-9.33-17.01,2.23-3.39,5.33-5.28,9.41-5.5,3.48,5.35,6.96,10.7,10.43,16.05,1.9,5,4.6,9.47,8.64,13.05,1.52,1.46.2,2.49-.54,3.61-1.83,1.46-3.62,3.06-5.94,3.62-3.91.95-6.91.41-6.41-4.74Z"/>
        <path class="cls-47" d="M252.76,236.87c-2.81,2.39-5.69,4.66-9.41,5.5-5.09-2.21-10.18-4.42-16.23-7.04,5.13-2.69,9.26-4.57,13.08-6.94,4.4-2.73,7.5-2.49,9.52,2.74.78,2.01,2.01,3.83,3.04,5.74Z"/>
        <path class="cls-31" d="M271.08,268.39c.25-.81.5-1.61.75-2.41.52-2.07.58-4.33,2.84-6.22,3.67,6.21,7.28,12.34,10.92,18.45,1.28,2.15-.03,3.23-1.66,4.1-6.1,3.25-11.59,7.62-18.18,9.98-1.62-8.72,1.3-16.43,5.32-23.89Z"/>
        <path class="cls-43" d="M271.08,268.39c-.69,8.21-3.72,15.89-5.32,23.89-5.4-5.41-8.57-12.32-11.85-18.99-1.92-3.9,2.9-3.61,5.04-4.82,1.56,3.9,3.94,4.86,7.55,2.3,1.39-.99,3.05-1.6,4.59-2.38Z"/>
        <path class="cls-45" d="M269.87,41.84c18.85,1.06,37.8.59,56.51,3.82-5.8,21.68-11.6,43.35-17.57,65.66-5.13-3.02-6.35-8.14-8.65-12.25-9.91-17.73-19.48-35.65-29.13-53.53-.6-1.12-.78-2.46-1.16-3.7Z"/>
        <path class="cls-23" d="M251.14,156.38c4-10.1,7.99-20.2,11.99-30.3,12.63-6.77,26.5-9.58,40.28-12.66,1.07-.24,2.16.1,3.1.75,18.49-5.21,36.98-10.43,55.46-15.64,11.42-3.21,22.83-6.42,34.25-9.63-2.4,3.24-6.35,3.61-9.66,5.16-21.98,10.32-43.97,20.63-65.95,30.95-21.78,10.23-43.54,20.5-65.33,30.71-1.27.59-2.52,2.04-4.15.65Z"/>
        <path class="cls-39" d="M306.51,114.18c-14.46,3.97-28.92,7.94-43.38,11.91,3.95-10.13,7.9-20.27,11.85-30.4,10.44,6.29,21.97,10.7,31.53,18.5Z"/>
      </g>
    </g>
  </g>
</svg>