<?xml version="1.0" encoding="UTF-8"?>
<svg xmlns="http://www.w3.org/2000/svg" version="1.1" viewBox="0 0 636.44 800">
  <defs>
    <style>
      .cls-1 {
        fill: #bf9c83;
      }

      .cls-2 {
        fill: #81641f;
      }

      .cls-3 {
        fill: #c7ab3d;
      }

      .cls-4 {
        fill: #dadad9;
      }

      .cls-5 {
        fill: #b78f2f;
      }

      .cls-6 {
        fill: #9b9b9a;
      }

      .cls-7 {
        fill: #8f8f8f;
      }

      .cls-8 {
        fill: #e2c9b7;
      }

      .cls-9 {
        fill: #826520;
      }

      .cls-10 {
        fill: #987726;
      }

      .cls-11 {
        fill: #72581a;
      }

      .cls-12 {
        fill: #bc987e;
      }

      .cls-13 {
        fill: #d9bca6;
      }

      .cls-14 {
        fill: #9c9fa0;
      }

      .cls-15 {
        fill: #bc977e;
      }

      .cls-16 {
        fill: #866856;
      }

      .cls-17 {
        fill: #886a57;
      }

      .cls-18 {
        fill: #846754;
      }

      .cls-19 {
        fill: #dfc54d;
      }

      .cls-20 {
        fill: #464646;
      }

      .cls-21 {
        fill: #866855;
      }

      .cls-22 {
        fill: #848484;
      }

      .cls-23 {
        fill: #ae8a2d;
      }

      .cls-24 {
        fill: #bc977d;
      }

      .cls-25 {
        fill: #9d7c66;
      }

      .cls-26 {
        fill: #4f5252;
      }

      .cls-27 {
        fill: #ded5c2;
      }

      .cls-28 {
        fill: #7b6122;
      }

      .cls-29 {
        fill: #fefefe;
      }

      .cls-30 {
        fill: #979796;
      }

      .cls-31 {
        fill: #dbdbda;
      }

      .cls-32 {
        fill: #6e7073;
      }

      .cls-33 {
        fill: #d6bba5;
      }

      .cls-34 {
        fill: #715719;
      }

      .cls-35 {
        fill: #70571a;
      }

      .cls-36 {
        fill: #898989;
      }

      .cls-37 {
        fill: #b78e2f;
      }

      .cls-38 {
        fill: #80631e;
      }

      .cls-39 {
        fill: #856754;
      }
    </style>
  </defs>
  <!-- Generator: Adobe Illustrator 28.7.1, SVG Export Plug-In . SVG Version: 1.2.0 Build 142)  -->
  <g>
    <g id="Layer_1">
      <g>
        <path class="cls-19" d="M352.15,321.65c.1.34.14.69.1,1.04,4.8,7.98,6.97,17.02,9.92,25.68,11.45,33.67,23.54,67.11,34.6,100.92.09,1.11-.16,2.11-.93,2.95-.48,18.8-.97,37.61-1.45,56.41-.49,19.02-.99,38.05-1.48,57.07-.64,1.21-1.41,2.29-2.72,2.85-9.76,3.92-19.78,7.18-29.52,11.14-5.6,2.27-9.19.69-12.02-4.26-5.22-9.14-11.25-17.8-16.34-27.03-1.26-2.28-2.37-4.68-4.67-6.83-2.55,2.16-3.24,5.22-4.47,7.89-4.84,10.57-9.13,21.38-14.11,31.89-1.37,2.89-3.05,5.86-6.63,5.49-11.5-1.19-23.18-1.65-33.95-6.69-.91-.97-1.66-2.07-2-3.33-4.58-16.81-9.45-33.54-14-50.36-.57-2.12-.87-4.3.65-6.25,3.28-2.31,6.75-1.08,10.15-.46,20.88,3.79,41.83,7.18,62.72,10.84,20.59-8.25,39.84-19.3,59.8-28.86,4.44-2.13,1.33-3.6-.77-4.69-8.17-4.26-16.44-8.33-24.71-12.39-9.85-4.83-19.27-10.48-29.13-15.3-2.39-1.17-4.57-2.65-5.78-5.18-4.36-18.14-7.24-36.51-8.68-55.09-.19-2.49-1.03-5.06-.64-6.89,1.18,11.45,1.9,23.6,1.53,35.77-.26,8.74.89,17.53-.79,26.23-.9,2.47-2.98,3.63-5.18,4.68-19.93,9.41-40.32,17.77-60.47,26.68-1.6.71-3.27,1.25-5.08.73-1.73-.79-2.68-2.29-3.13-3.98-3.18-11.99-7.2-23.75-9.67-35.92-.22-1.07-.16-2.17.03-3.25,1.42-4.82,5.73-5.05,9.53-5.64,14.32-2.21,28.6-4.74,42.93-6.88,2.61-.39,5.23-.7,7.73-1.57,1.52-.53,2.88-1.27,2.61-3.23-.27-1.91-1.67-2.43-3.34-2.49-1.77-.07-3.49.33-5.23.58-15.88,2.21-31.64,5.19-47.5,7.48-3.03.44-6.07,1.23-9.07-.17-2.7-1.62-3.4-4.45-4.2-7.17-6.48-22.05-12.38-44.26-18.56-66.4-.65-2.33-1.33-4.67.07-6.99-.17-.23-.15-.43.07-.62,2.2-1.89,4.62-.96,6.86-.32,30.53,8.74,61.09,17.35,91.76,25.6,1.7.46,3.2,1.44,4.93,1.73.96.23,2.01.85,2.7-.53.73-1.55,1.45-3.08,2.24-4.58,9.38-17.26,19.26-34.25,28.38-51.65,1.68-3.21,2.15-7.75,6.92-8.63Z"/>
        <path class="cls-13" d="M364.16,168.57c5.95,27.35,11.81,54.72,17.94,82.02,1.09,4.87-1.75,5.57-5.04,6.58-13.81,4.24-27.6,8.58-41.43,12.76-1.72.52-3.43.72-4.37,2.47-.35.63-.87,1.08-1.54,1.35-19.22,5.96-38.61,11.36-57.9,17.12-3.5,1.04-7.04,2.7-10.82.87-2.68-2.28-3.31-5.58-4.23-8.72-6.98-23.74-13.96-47.48-20.8-71.27-.55-1.63-1.08-3.26-1.47-4.94-.8-4.67-2.3-9.14-3.79-13.62-.74-2.23-1.57-4.5-.57-6.9,2.65-2.43,4.36.01,5.98,1.4,3.62,3.1,6.78,6.7,10.23,9.99,6.25,6.48,6.63,6.49,13.22.89,10.99-9.35,22.25-18.38,33.23-27.74,1.18-1,2.41-1.89,3.99-2.14,4.27-.19,5.65,3.34,7.74,5.99,3.82,4.85,5.91,11.08,11.55,14.46,2.03,1.01,2.38,3.22,3.49,4.89.44.75.98,1.41,1.58,2.03,4.79,4.84,6.12,4.67,9.37-1.27.62-1.13,1.22-2.27,1.45-3.57.69-7.55-3.86-14.33-3.22-21.88,1.77-4,.9-9.89,7.44-10.5,9.73,2.07,19.5,4.02,27.97,9.72Z"/>
        <path class="cls-22" d="M228.1,677.68c-48.21-9.88-96.43-19.77-144.64-29.65-4.71-.97-9.41-2.51-14.16-2.69-8.54-.32-12.38-4.71-14.89-12.54-5.82-18.12-12.51-35.96-18.84-53.91,1.18-4.69,4.84-2.86,7.43-2.42,25.71,4.41,51.54,8.03,77.24,12.47,26.13,4.51,52.38,8.26,78.52,12.7,4.72.8,9.64.98,13.77,3.9,1.8,1.82,2.12,4.25,2.65,6.59,4.12,18.35,8.28,36.69,12.72,54.96.77,3.18,1.71,6.36.87,9.7-.22.3-.44.59-.67.88Z"/>
        <path class="cls-15" d="M237.43,210.61c5.74,19.31,11.5,38.62,17.22,57.93,2.24,7.56,4.41,15.14,6.62,22.71-2.83,5.67-8.85,4.35-13.37,6.15.08.02.2.45.2.45,0,0,.45,0,.54,0,23.03,5.13,45.62,11.66,68.44,17.28,5.05,1.24,8.28,3.88,8.33,9.45-1.47,18.25-4.49,36.3-7.08,54.41-1.5,2.63-1.85,5.65-2.87,8.45-.29.7.25,2.37-1.55,1.34-8.16-3.76-12.36-11.66-18.12-17.83-8.05-8.63-15.89-17.52-23.43-26.63-2.96-3.58-6.63-5.61-10.93-6.85-12.84-3.7-25.83-6.87-38.52-11.06-2.07-.68-4.29-1.01-6.05-2.45-4.85-6.52-10.35-12.66-12.28-20.91-8.31-13.21-16.62-26.42-24.92-39.62,5.02-14.16,7.95-29.01,14.27-42.74.42-.49.93-.87,1.52-1.14,4.79.32,6,4.59,8.18,7.65,4.85,6.81,5.7,6.95,11.86,1.01,5.33-5.14,10.15-10.82,16.24-15.12,1.72-1.21,3.15-3.16,5.71-2.48Z"/>
        <path class="cls-14" d="M212.36,606.29c-25.86-4.26-51.71-8.53-77.57-12.78-31.9-5.24-63.81-10.46-95.71-15.71-1.43-.24-2.6-.08-3.52,1.1-1.77-2.22.33-2.97,1.53-4.08,14.47-13.23,28.93-26.47,43.39-39.71,7.86-.77,15.53.77,23.23,1.97,30.85,3.48,61.71,6.81,92.37,11.78,2.17.35,4.37.18,6.55.22,1.17-.12,2.3.1,3.42.37,8.4,1.5,16.9,2.18,25.35,3.29,3.08.4,6.04.96,8.74,2.54,4.42,4.85,4.59,11.15,5.82,17.09.08,2.72-.51,5.3-2.55,7.2-9.28,8.62-18.88,16.9-28.05,25.64-.8.76-1.85,1.14-3,1.09Z"/>
        <path class="cls-37" d="M205.73,550.88c-.61.05-1.21.09-1.82.14-15.84-4.23-29.42-13.51-44.29-19.94-13.89-6-27.01-13.68-40.89-19.74-4.38-2.83-9.21-4.75-13.87-7.02-2.32-1.13-4.87-2-5.71-4.86,5.41-13.4,14.07-25.05,20.41-37.96,3.36-6.84,7.47-13.31,11.24-19.95,3.55-1.05,5.72,1.63,8.14,3.25,18.73,12.53,37.67,24.73,57.04,37.48-.1-3.8-2.31-6.91-1.57-10.34,2.23-5.84.75-10.06-5.06-14.28-1.48-1.8-2.15-3.82-1.67-6.15,2.94-4.15-1.68-5.1-3.15-7.38-4.67-10.27-8.31-20.86-10.06-32.04,3.06-4.95,1.25-8.48-3.3-11.21-.46-.85-.55-1.75-.35-2.68,2.85-5.17-1.37-7.4-4.26-10.18-2.33-2.89-3.09-6.25-2.96-9.87,1.59-4.01,5.73-3.81,8.84-5.09,5.77-2.38,11.76-4.24,17.65-6.32,5.74,4.38,4.74,11.24,6.35,17.15-3.09,4.55,1.39,6.76,3.07,9.84,2.63,9.74,5.7,19.38,7,29.44-1.86,18.51-2.52,37.09-3.72,55.64-.35,5.42,1.74,9.08,6.48,11.81,5.69,3.27,10.74,7.6,16.67,10.51,1.32.76,2.01,1.9,2.07,3.42-5.15,15.19-12.51,29.42-19.2,43.95-.77,1.11-1.73,1.99-3.07,2.38Z"/>
        <path class="cls-27" d="M464.58,759.38c5.73,2.9,12.09,1.57,18.09,2.27,18.44,2.16,37.04,2.9,55.56,4.4,9.99.81,19.94,2.05,29.97,3.53-13.08,1.44-26.17,2.87-39.25,4.32-14.97,1.66-29.93,3.44-44.91,4.99-14.78,1.53-29.59,2.75-44.37,4.27-14.99,1.54-29.94,3.35-44.93,4.89-15,1.54-30.01,2.89-45.02,4.32-5,.48-10.12.45-14.99,1.53-12.11,2.68-23.95-.29-35.89-1.14-8.51-.6-17.02-.74-25.54-1.55-27.19-2.59-54.48-3.99-81.69-6.39-13.7-1.21-27.49-1.78-41.23-2.91-19.14-1.58-38.33-2.59-57.52-4.98,14.72-1.88,29.44-3.78,44.17-5.64,27.51-3.48,55.02-6.95,82.53-10.37,5.42-.67,10.88-1.06,16.31-1.58,2.79,2.56.81,5.71,1.07,8.59.94,8.83.94,8.88,9.91,8.9,17.58.04,35.16.05,52.74,0,9.35-.03,9.62-.38,8.97-9.75-1.32-3.47-2.6-6.95-4.01-10.39-1-2.44-1.85-5,.44-7.31,13.11-4.53,26.58-3.6,40-2.38,5.24.48,10.38.77,15.59.05,3.24,1.56,2.83,4.56,2.92,7.36,1.19,9.07,1.19,9.13,10.41,9.14,26.06.04,52.12-.06,78.18.08,4.81.03,9.05-.69,12.47-4.27Z"/>
        <path class="cls-38" d="M390.51,566.92c.8-.4,1.6-.79,2.4-1.19,3.53,27.19,7.05,54.38,10.58,81.58-1.28,1.85-2.99,3.15-5.01,4.11-21.53,10.27-43.18,20.29-64.84,30.26-.8.37-1.67.5-2.56.53-2.94-.59-4.02-3.15-5.32-5.31-4.32-7.2-9.87-13.73-12.2-22.03,1.12-10.65,4.96-20.6,8.05-30.73,1.71-3.92,4.5-6.94,7.83-9.55,17.59-13.81,34.67-28.23,52.15-42.17,2.78-2.22,6.18-3.29,8.92-5.49Z"/>
        <path class="cls-38" d="M395.84,452.25c-.09-.9-.18-1.8-.28-2.7-1.94-7.71-2.23-15.4-1.45-23.41,1.32-13.49,1.11-27.12,1.47-40.67.46-17.07,1.73-34.12,1.76-51.2,0-3.21-.92-7.22,3.61-8.75,19.03,28.43,38.05,56.86,57.08,85.29,1.53,2.73.19,5.13-1.01,7.43-8.99,17.27-16.5,35.26-25.51,52.52-1.33,2.54-2.59,5.1-5.44,6.29-10.8-7.39-19.83-16.93-30.23-24.81Z"/>
        <path class="cls-26" d="M195.41,384.74c-1.78-6-3.55-12-5.33-17.99,6.02-2.2,11.76-5.22,18.23-6.09,7.56,26.52,15.11,53.04,22.67,79.56,3.9,3.72,3.86,8.51,3.62,13.35,3.68,14.14,7.19,28.34,11.97,42.17,4.93,7.59,7.06,15.95,6.86,24.96,5.39,19.8,10.78,39.6,16.17,59.4-.29.22-.58.45-.87.67-6.85.94-13.31-1.25-19.89-2.47-2.69-.5-4.02-2.34-4.46-4.93-1.53-5.75-3.06-11.5-4.59-17.26-5.11-6.96-5.21-15.62-7.95-23.38-1.63-9.19-6.08-17.87-5.05-27.55.18-1.16.06-2.23-.85-3.09-2.89-1.85-3.4-4.97-4.11-7.93-4.66-19.35-9.79-38.59-14.93-57.82-1.19-4.46-.67-9.12-2.28-13.44-2.28-10.08-4.56-20.15-6.84-30.23-2.11-2.26-2.49-5.02-2.35-7.94Z"/>
        <path class="cls-13" d="M344.24,77.4c2.19,9.71,4.39,19.43,6.58,29.14-.26.17-.52.34-.78.51-.31-.02-.62-.04-.93-.06-12.76-6.22-16.31-5.07-24.39,7.89-2.07,5.24-.7,11.5-4.75,16.15-5.13,3.29-11.01,3.9-16.85,4.62-.67-.02-1.32-.16-1.95-.39-5.45-3.88-8.22-10.22-13.28-14.46-10.43-7.91-12.24-8.01-22.62-1.07-6.01,4.02-12.16,7.87-17.5,12.75,3,4.54,8.57,3.49,12.55,5.85,2.34,1.39,5.91,2.01,3.29,6.06-9.37,5.08-20.11,5.28-30.01,8.49-3.53.65-7,1.74-10.66,1.4-2.45-.42-3.82-2.07-4.55-4.27-4.49-13.55-8.41-27.27-11.89-41.11-.32-1.26-.28-2.62.15-3.91.54-1.08,1.35-1.87,2.44-2.39,13.03-3.31,26.47-3.31,39.72-4.88,19.35-2.3,38.8-3.72,58.13-6.12,10.19-2.82,19.31-8.1,28.78-12.61,2.63-1.25,5.21-3.6,8.51-1.62Z"/>
        <path class="cls-10" d="M208.74,104.03l-1.5,1.21c-4.75,7.47-12.55,11.68-18.77,17.59-1.71,1.63-3.72,2.96-5.42,4.63-18.82,15.39-37.3,31.19-55.83,46.93-1,.85-1.85,1.89-3.19,2.24-4.94-14.99-6.84-30.67-10.36-45.99-1.11-4.85-3.03-9.65-2.43-14.81,2.35-2.29,4.91-4.24,7.89-5.73,20.1-10.08,40.33-19.88,60.59-29.62,2.17-1.05,4.34-3.37,7.15-1.23,1.8,2.98,1.48,6.32,1.31,9.51-.26,4.91,1.97,7.38,6.46,9.1,4.77,1.83,10.15,2.42,14.08,6.18Z"/>
        <path class="cls-37" d="M426.08,477.06c10.65-22.08,21.31-44.16,31.96-66.24,15.29-1.26,30.58-2.53,45.87-3.79,2.51-.56,5.04-1.17,6.6,1.79.1,15.71,3.09,31.28,2.41,47.03-.12,2.85-.13,5.75-2.54,7.86-28.04,4.82-56,10.2-84.3,13.36Z"/>
        <path class="cls-37" d="M344.24,77.4c-10.01,4.68-20.02,9.38-30.05,14.01-1.75.81-3.62,1.34-5.44,2-2.64-2.32-2.46-5.51-2.48-8.54-.12-17.54-.1-35.08-.01-52.62.02-3.05-.06-6.21,2.41-8.61,14.2-3.59,28.4-7.17,42.59-10.78,8.7-2.21,17.39-4.46,26.08-6.69,3.41.22,6.62-2.37,10.81-.49-3.67,6.39-7.29,12.66-10.9,18.94-11,17.59-22.01,35.17-33.01,52.76Z"/>
        <path class="cls-37" d="M217.82,322.99c13.84,3.91,27.59,8.17,41.55,11.61,8,1.97,13.13,6.81,18.19,12.84,11.8,14.05,24.19,27.59,36.34,41.34-14.66-2.56-28.74-7.35-43.06-11.21-20.89-5.62-41.65-11.68-62.47-17.54-5.2-14.6-11.27-28.89-15.49-43.84,9.34-1.51,17.26,2.23,24.94,6.8Z"/>
        <path class="cls-37" d="M186.21,78.98c-24.99,12.28-49.97,24.56-74.96,36.84,9.43-16,18.97-31.93,28.21-48.04,1.99-3.48,5.2-3.73,8.23-4.54,12-3.19,24.06-6.19,36.09-9.26,15.26-3.7,30.52-7.4,45.78-11.1,23.37-5.85,46.74-11.71,70.11-17.53,1.25-.31,2.58-.29,3.87-.42-.35,3.88-3.79,4.62-6.4,5.79-23.02,10.3-45.81,21.1-68.79,31.49-11.59,5.24-22.99,10.89-34.73,15.8-2.35.98-4.68,2.73-7.42.97Z"/>
        <path class="cls-37" d="M400.96,325.52c-1.05.99-1.23,2.29-1.16,3.62.66,13.35-1.04,26.61-1.41,39.92-.76,26.83-1.85,53.66-2.81,80.49-5.8-11.16-8.59-23.43-12.83-35.16-9.93-27.45-19.14-55.15-28.62-82.76-.99-2.89-2.26-5.75-1.87-8.94,12.8.18,25.6.32,38.4.59,3.54.07,7.33-.6,10.3,2.24Z"/>
        <path class="cls-38" d="M175.6,411.2c2.97,11.18,6.32,22.25,10.6,33.01,1.23,2.05,3.46,3.71,2.48,6.59.53,2.19,1.05,4.38,1.58,6.58,4.17,3.97,6.02,8.74,5.11,14.5,1.18,4.37,2.36,8.74,4.05,15.01-23.79-15.72-46.21-30.52-68.62-45.33,10.46-21.38,20.77-42.84,32.81-63.41,2.5,2.62,2.18,6.48,4.13,9.34,2.36,3.12,4.84,6.21,3.78,10.56l.25,2.61c3.65,2.65,4.91,6.17,3.83,10.54Z"/>
        <path class="cls-23" d="M361.65,754.01c-.7-2.18.17-4.67-1.28-6.71-3.99-5.75-2.74-12.27-2.73-18.61,1.26-2.92,4.08-3.71,6.67-4.72,7.66-2.99,15.32-6.03,23.04-8.87,3.55-1.31,6.63-3.1,9.2-5.84,3.29-.95,3.22,2.41,4.77,3.71,3.83,3.57,7.46,7.34,11.24,10.96,3.47,3.32,7.21,4.58,11.9,2.65,2.55-1.05,5.33-2.3,8.06-.19,10.12,8.87,20.24,17.73,30.35,26.6-.89,3.84-4.22,3.46-6.83,3.49-29.07.3-58.14.23-87.21.07-2.65-.01-5.26-.41-7.2-2.56Z"/>
        <path class="cls-34" d="M316.6,379.42c1.99-15.82,3.99-31.64,5.98-47.46.33-2.6.61-5.21.91-7.82-1.72-14.19,1.53-28.04,2.86-42.02.33-3.47.68-7,3.51-9.58.47-.04.93-.09,1.4-.13,11,5.76,21.95,11.61,33.03,17.22,3.85,1.96,5.77,3.46,2.57,8.07-5.33,7.69-9.84,15.94-14.7,23.96-11.41,20.61-22.81,41.22-34.22,61.83-3.2-.45-1.72-2.44-1.34-4.07Z"/>
        <path class="cls-26" d="M355.13,121.35c5.56-1.26,11.15-2.39,16.66-3.82,3.26-.84,5.06-.77,5.93,3.35,2.8,13.3,5.93,26.55,9.33,39.71,1.07,4.14-.37,4.49-3.7,4.04-6.74-.91-13.49-1.7-20.23-2.54-4.87,3.19-9.74.64-14.52-.19-5.56-.96-10.95-3-16.74-2.3-1.48.34-2.9.15-4.28-.45-4.83-2.91-4.06-9.03-7.33-12.84,1.58-5.43-2.38-10.92.14-16.35,3.55-4.38,9.02-4.03,13.72-5.5,3.54-1.11,7.16-2.05,10.85-2.58,3.36-.72,6.74-1.13,10.17-.52Z"/>
        <path class="cls-38" d="M232.48,698.76c-1.46-7.03-2.92-14.06-4.38-21.08,0,0,.49-.12.49-.12.47-.64,1.07-1.12,1.8-1.44,20.05-4.51,40.62-5.41,60.86-8.63,4.51-.72,9.06-1.51,13.67-1.38,2.58.07,5.41-.29,6.54,3-.41,10.96-5.03,20.84-8.08,31.12-.44,1.48-1.89,2.31-3.41,2.78-8,1.66-16.08.69-24.12.8-11.55.15-23.11.17-34.67-.04-3.72-.07-7.65-.13-8.7-5.01Z"/>
        <path class="cls-34" d="M331.14,681.65c8.19-6.1,18.03-8.9,27.02-13.39,14.89-7.43,30.2-14.02,45.33-20.96.99,7.86,1.97,15.73,2.96,23.59,1.35,4.47.63,7.95-4.01,10.27-17.15,8.58-34.79,16.11-52.02,24.53-1.38.67-2.88,1.01-4.45.78-7.84-6.54-13-14.7-14.84-24.84Z"/>
        <path class="cls-23" d="M235.12,767.15c.26-2.6.51-5.2.76-7.8,1.3-7.41,2.6-14.81,3.91-22.22,1.7-2.77,4.66-3.31,7.41-3.63,5.9-.69,8.55-3.6,7.92-9.61-.25-2.38-.16-4.87.78-7.14.55-1.33,1.11-3.1,3.26-1.92,3.15,5.85,1.61,12.08,1.47,18.18.22,3.92.66,7.82,1.12,11.73.51,4.33,2.61,6.24,6.88,5.96.87-.06,1.75.01,2.62.01,8.44,0,8.62-.35,6.1-8.59-1.18-3.86-3.75-7.59-1.89-11.97,5.39-4.33,11.76-4.73,18.28-4.57,6.02,7.2,9.51,15.5,10.68,24.81,2,5.2,4,10.39,6,15.59-.96,3.7-4.17,3.66-6.89,3.7-20.62.32-41.25.29-61.87.04-2.45-.03-4.81-.56-6.54-2.56Z"/>
        <path class="cls-38" d="M124.04,176.62c.63-5.19,5.59-6.56,8.74-9.23,16.3-13.81,32.13-28.2,49.24-41.04,1.95.19,3.09,1.59,4.05,3.01,5.36,7.92,10.71,15.84,16.11,23.74,1.18,1.72,2.53,3.72.72,5.95-2.8,2.42-6.36,2.82-9.76,3.56-13.07,2.83-25.95,6.44-39,9.32-7.58,1.67-8.82,3.46-9.27,11.31-.38,6.54-.24,13.15-2.93,19.33-.61.67-1.2.65-1.77-.05-5.37-8.63-10.74-17.26-16.11-25.9Z"/>
        <path class="cls-10" d="M293.99,726.4c-6.05,1.31-12.1,2.63-18.15,3.94-.25-.19-.49-.38-.74-.57-1.85-3.01-1.39-6.38-1.22-9.61.19-3.66-1.03-5.22-4.85-5.01-3.47.2-7.01.58-10.42-.62-2.68,4.48-.97,9.38-1.18,14.07-.16,3.52-.62,5.67-4.85,6.01-4.3.34-8.53,1.64-12.78,2.52-2.58-12.76-5.73-25.42-7.31-38.37,1.85,2.84,4.69,2.62,7.56,2.62,20.29-.03,40.59,0,60.88,0,1.72,1.55,1.78,3.64,1.11,5.48-2.39,6.63-1.74,14.53-8.05,19.55Z"/>
        <path class="cls-10" d="M345.61,705.37c7.76-3.45,15.57-6.8,23.26-10.39,10.68-4.98,21.2-10.33,31.95-15.14,4.21-1.88,6.18-4.43,5.63-8.95,1.62,6.09,2.66,12.25,2.54,18.58-6.06,4.59-9.43,10.3-10.75,18.15-.11.64-.58,1.16-1.08,1.61.21,3.03-1.23,4.92-4.03,5.94-11.41,4.17-22.81,8.37-34.21,12.56-1.23.55-2.17-.06-2.82-.94-4-5.45-7.47-11.25-10.74-17.16-.75-1.35-.97-2.91.24-4.27Z"/>
        <path class="cls-13" d="M509.35,408.57c-1.37-2.1-3.68-.85-5.44-1.55,5.65-.5,8.22-4.26,10.73-8.92,4.86-9.04,10.61-17.6,15.69-26.53,3.54-6.22,7.89-2.05,11.95-1.36,4.66.79,3.46,3.89,2.74,7.05-1.45,6.38-2.39,12.88-3.93,19.23-1.28,5.27-.25,7.93,5.75,6.83,1.05-.19,2.18.07,3.27.12.03.67-.1,1.63-.66,1.7-8.68,1-9.26,7.82-10.4,14.28-.27,1.51-.74,2.97-1.64,4.27-6.6,5.36-14.8,7.04-22.58,9.57-3.46,1.13-5.03-.83-5.05-4.57-.04-6.71.66-13.44-.43-20.12Z"/>
        <path class="cls-13" d="M140.15,202.52c.39.06.78.07,1.18,0,8.86-7.79,17.52-15.85,28.84-20.13,2.32.68,3.79,2.42,5.22,4.21,5.94,8.38,11.69,16.89,17.54,25.33,1.59,2.3,4.65,4.46,2.35,8.02l.06-.07c-8.53,9.1-18.5,16.34-29.23,22.59-8.65-13.32-17.31-26.63-25.96-39.95Z"/>
        <path class="cls-19" d="M361.65,754.01c31.86.02,63.72.05,95.58.04,1.92,0,4,.53,5.65-1.05,2.59,1.59.99,4.29,1.7,6.38.62,5.62-2.15,6.71-7.33,6.66-28.91-.25-57.83-.12-86.74-.12q-9.16,0-9.01-9.29c.01-.87.1-1.75.16-2.62Z"/>
        <path class="cls-13" d="M571.19,420.47c.43,9.82.81,19.64,1.31,29.46.19,3.6-.97,5.4-4.79,6.41-7.8,2.06-15.4,4.89-23.09,7.4-5.74-8.18-6.15-17.72-6.91-27.18,1.72-4.7-1.12-10.55,3.62-14.51,8.36-2.96,17.17-2.47,25.81-3.3,1.53-.15,3.01.42,4.05,1.73Z"/>
        <path class="cls-15" d="M539.47,436.33c.38,9.39,3.7,18.22,5.15,27.4-11.42-.01-22.83-.02-34.24-.03,1.25-18.41-2.16-36.73-1.02-55.13,2.23,5.21.86,10.68,1.05,16.02.29,8.19.1,8.17,7.57,5.41,6.3-2.33,12.61-4.6,18.92-6.9.25.22.51.44.76.65,1.52,4.06,1.31,8.37,1.81,12.58Z"/>
        <path class="cls-12" d="M571.19,420.47c-10.12.91-20.24,1.82-30.36,2.73-1.36.96-2.69.96-3.98-.14,0,0,.04.04.04.04,0-1.08-.1-2.16.01-3.22.89-8.29,1.61-16.74,13.2-16.43,14.65-.87,29.29-1.84,43.95-2.51,2.55-.12,6.93-2.3,7.09,2.88.13,4.07,2.39,9.29-5.11,10.54-8.39,1.4-16.58,4.02-24.85,6.12Z"/>
        <path class="cls-26" d="M99.13,499.46c6.63,3.67,14.16,5.62,20.18,10.48.29.59.7,1.31.45,1.85-4.46,9.78-8.91,19.58-16.69,27.34-7.39-2.1-15.5-.19-22.59-4.03,6.22-11.88,12.43-23.76,18.65-35.64Z"/>
        <path class="cls-39" d="M166.11,242.47c8.74-8.83,18.98-15.71,29.23-22.59-4.12,13.1-8.2,26.22-12.41,39.3-.55,1.69-.48,4.16-3.28,4.25-4.51-6.99-9.03-13.97-13.54-20.96Z"/>
        <path class="cls-19" d="M432.53,726.4c-.44.02-.96-.11-1.3.09-11.5,6.62-19.51,1.25-26.63-7.6-1.34-1.67-3.23-2.91-4.86-4.34,1.64-6.37,6.9-6.24,11.88-6.59,6.97,6.15,13.94,12.29,20.91,18.44Z"/>
        <path class="cls-3" d="M411.62,707.96c-3.43,3.15-9.03,2.4-11.88,6.59-.86-1.77-1.72-3.55-2.58-5.32-.06-1.08,0-2.18-.2-3.23q-2.62-14.18,12.03-16.53c1.77,6.04,2.49,12.22,2.63,18.49Z"/>
        <path class="cls-11" d="M217.82,322.99c-8.31-2.27-16.63-4.54-24.94-6.8,2.92-5.25,7.73-8.82,11.7-13.14,4.41,6.65,8.83,13.29,13.24,19.94Z"/>
        <path class="cls-16" d="M331.13,158c10.66,1.36,21.33,2.73,31.99,4.09.35,2.16.69,4.31,1.04,6.47-9.61-1.32-18.16-6.28-27.64-8.04-1.36-1.77-4.98,1.3-5.39-2.52Z"/>
        <path class="cls-33" d="M355.13,121.35c-3.01,1.33-6.15,2.07-9.43,2.23-2.59-6.67.66-11.9,4.17-17.08.32.01.64.03.95.04,1.35,4.96,1.47,10.28,4.31,14.81Z"/>
        <path class="cls-38" d="M186.21,78.98c20.15-9.05,40.33-18.03,60.44-27.16,17.13-7.78,34.19-15.71,51.26-23.63,1.96-.91,3.77-2.17,5.65-3.26,1.63-.72,3.22-1.62,5.11-1.28.03,23.25.06,46.51.09,69.76-12.69,2.56-25.63,3.09-38.46,4.48-20.5,2.21-41.03,4.11-61.55,6.14-7.2-.07-13.13-4.28-19.8-6.1-2.55-.69-2.89-2.9-2.85-5.24.09-4.57.08-9.14.12-13.7Z"/>
        <path class="cls-10" d="M390.51,566.92c-9.76,9.65-21.33,17.14-31.51,26.27-11.64,10.43-25.39,18.38-35.64,30.43-16.11-7.43-32.46-14.32-48.64-21.62-3.78-6.86-6.59-13.98-5.67-22.05,0,0,.53.15.53.15,9.7,1.56,19.45,2.87,29.08,4.8,4.72.95,7-.11,8.92-4.73,5.96-14.36,12.48-28.48,18.94-43.04,3.5,1.98,4.62,5.45,6.37,8.32,6.06,9.91,12.09,19.84,17.9,29.89,2.07,3.59,3.92,4.66,8.23,2.91,10.32-4.2,20.97-7.6,31.48-11.33Z"/>
        <path class="cls-3" d="M253.42,520.69c-2.93-8.14-5.25-16.45-6.86-24.96,22.9-10.17,45.81-20.34,68.72-30.51,1.89,1.08,2.65,2.94,2.99,4.89,3.54,20.05,7.07,40.11,9.53,60.33,0,.76-.19,1.47-.58,2.12-12.3-1.06-24.33-3.84-36.49-5.81-12.44-2.02-24.87-4.04-37.31-6.07Z"/>
        <path class="cls-3" d="M327.22,532.57c0-.46-.01-.92-.02-1.37-3.11-19.7-2.66-39.55-2.39-59.39.03-2.41.35-4.83,2.42-6.55,19.9,10.18,39.81,20.35,59.69,30.57,2.08,1.07,5.29,1.71,5.2,4.41-.08,2.54-3.43,2.19-5.29,3.11-19.84,9.81-39.73,19.5-59.61,29.22Z"/>
        <path class="cls-5" d="M327.23,465.26c0,21.98-.02,43.96-.03,65.94-3.87-10.48-4.1-21.68-6.36-32.49-2.32-11.06-3.74-22.31-5.56-33.48,0-22.32,0-44.64,0-66.96.31-.02.62-.04.94-.06,3.67,22.35,7.34,44.7,11.02,67.05Z"/>
        <path class="cls-5" d="M234.6,453.56c-1.21-4.45-2.42-8.9-3.62-13.35,15.77-2.4,31.53-4.81,47.3-7.19,4.97-.75,10.15-.79,14.88-2.29,5.54-1.75,5.04,2.24,5.92,5.03,1.22,3.87-1.25,5.16-4.41,5.66-17.05,2.71-34.12,5.28-51.14,8.14-3.17.53-7.28-.28-8.92,3.99Z"/>
        <path class="cls-28" d="M316.6,379.42c.16,1.45-.1,3.04,1.34,4.07-.41,1.58-.97,3.06-2.48,3.95,0-2.73-.66-5.55,1.15-8.02Z"/>
        <path class="cls-39" d="M329.85,272.53c-2.12,17.2-4.25,34.4-6.37,51.6.48-4.56-2.22-5.79-6.13-6.76-23.99-5.97-47.92-12.19-71.87-18.33-.74-.68-2.16-1.02-1.27-2.52,5.69-1.76,11.37-3.52,17.06-5.28,19.77-4.77,39.08-11.11,58.61-16.73,3.25-.93,6.36-2.82,9.98-1.99Z"/>
        <path class="cls-38" d="M195.28,219.95c-4.24-9.19-11.11-16.65-16.47-25.11-1.63-2.58-3.31-5.13-4.97-7.69,3.89-3.98,9.08-2.45,13.67-2.93,10.38-1.1,20.81-1.94,31.28-1.57,1.1.23,2.1.69,3,1.34,6.39,6.58,10.88,14.39,14.42,22.79.41,1.27.81,2.55,1.22,3.82-8.63,6.66-16.19,14.49-23.98,22.05-3.6,3.5-6.17,3.66-9.08-1.04-2.57-4.16-4.67-8.87-9.08-11.66Z"/>
        <path class="cls-12" d="M261.83,225.48c34.28-8.3,66.82-16.17,100.32-24.29-2.51,9.07-8.71,15.38-11.42,23.23-4.39,12.73-15.99,12.45-25.95,15.2-2.93.81-6.28.5-8.97,1.73-11.21,5.13-20.94,1.92-30.75-4.05-6.86-4.18-14.33-7.35-23.24-11.82Z"/>
        <path class="cls-8" d="M320.64,145.95c2.76-.19,3.64,1.33,4.1,3.86.5,2.72.82,5.6,2.58,7.94,3.25,3.49,3.45,7.63,2.56,12.01.94,7.58,5.45,14.58,3.73,22.6-4.97,2.36-9.93,4.76-15.65,2.55-.85-1.77-1.7-3.53-2.55-5.3-2.82-1.83-3.47-4.85-4.24-7.8-2.01-7.79-3.28-15.74-5.36-23.51-1.04-3.98-2.31-8.03,2.46-10.68,4.02-1.29,7.88-3.83,12.36-1.65Z"/>
        <path class="cls-39" d="M296.95,169.89c-12.21,10.2-24.43,20.38-36.63,30.59q-7.97,6.67-14.74-1.65c.32-.57.73-1.04,1.26-1.43,14.45-7.97,27.6-17.97,41.72-26.45,2.53-1.52,4.75-4.2,8.3-2.77.32.36.44.74.36,1.12-.08.39-.17.58-.27.58Z"/>
        <path class="cls-18" d="M246.89,198.81c-.44.02-.87.03-1.31.03-4.87-4.36-9.74-8.71-14.61-13.07-3.15,1.02-6.28.48-9.41-.12-.41-.45-.82-.9-1.22-1.34-2.68-1.87-5.86-3.53-3.19-7.65,7.42-3.15,15.24-3.08,23.09-2.8,6.36,7.21,8.15,15.64,6.66,24.95Z"/>
        <path class="cls-12" d="M296.95,169.89c.04-.43.06-.87.05-1.3,2.33-4.75,6.97-7.21,10.61-10.66,2.6,10.56,5.21,21.11,7.81,31.67-.67,3.05-1.66,1.61-2.65.19-3.71-5.32-7.44-10.63-11.12-15.97-1.21-1.76-2.03-3.94-4.71-3.93Z"/>
        <path class="cls-24" d="M221.56,185.65c3.16-1.95,6.3-2.01,9.41.12.87,7.23,4.78,13.7,5.25,21.02-4.89-7.05-9.77-14.09-14.66-21.14Z"/>
        <path class="cls-17" d="M317.97,194.9c5.21-.87,10.16-3.37,15.65-2.55-.24.6-.44,1.23-.74,1.8-5.83,11.11-7.1,11.17-14.91.74Z"/>
        <path class="cls-1" d="M329.89,169.76c-.87-4-2.66-7.8-2.56-12.01,1.27.08,2.53.17,3.8.25,1.8.84,3.59,1.68,5.39,2.52-6.33.12-3.27,6.98-6.63,9.23Z"/>
        <path class="cls-32" d="M269.06,579.95c2.24,7.06,4.47,14.12,6.71,21.17,5,8,6.5,17.1,7.99,26.15.45,2.77-1.4,5.06-3.43,6.82-15.42,13.34-30.54,27.02-45.76,40.59-1.51,1.35-3.44,1.9-5.17,2.85-.27-.01-.54,0-.81.04-4.55-14.34-7.32-29.12-10.69-43.74-2.1-9.11-5.19-18.05-5.53-27.53,8.14-9.83,18.45-17.37,27.67-26.06,2.14-2.02,4.39-3.6,4.32-6.85,4.58,5.24,11.4,3.27,17.01,5.2,2.43.84,5.12.94,7.69,1.37Z"/>
        <path class="cls-31" d="M93.97,613.36c2.06,1.49,3.38,2.57,4.82,3.46,1.96,1.21,3.92,2.49,2.78,5.14-1.14,2.66-1.2,6.25-5.14,6.88-2.16.34-4.3.82-6.46,1.1-1.96.25-3.94.56-4.42-2.37-.38-2.33.81-3.29,2.66-3.74,5.35-1.31,7.37-3.09,1.25-6.59-3.15-1.8-2.5-4.85-2-7.64.59-3.28,3.41-2.87,5.74-3.01,2.4-.15,4.81-.14,7.22-.17,1.8-.03,3.58-.04,3.87,2.42.3,2.51-1.31,2.8-3.19,3.08-2.09.3-4.15.83-7.12,1.45Z"/>
        <path class="cls-4" d="M150.51,640.76c-2.76-.97-4.45-2.2-3.23-5.76,1.34-3.91,2.32-8.04,2.73-12.15.48-4.8,2.64-5.46,6.93-4.67,8.07,1.48,8.21,1.27,5.95,9.32-.92,3.29-1.22,6.33.31,9.55.64,1.35,2.64,3.31.5,4.56-2.25,1.32-4.08-.2-5.33-2.35-.76-1.32-1.76-2.51-2.65-3.76-2.76-.68-1.8,1.5-1.88,2.63-.16,2.2-.5,3.91-3.32,2.64Z"/>
        <path class="cls-4" d="M142.5,626.56c0,1.53-.1,3.07.02,4.6.35,4.34-1.15,5.65-5.74,4.92-10.26-1.64-10.3-1.37-8.97-11.95,1.14-9.06,2.71-10.13,11.21-7.71q3.8,1.08,3.48,10.14Z"/>
        <path class="cls-31" d="M122.92,617.66c.7,5.5-.7,8.65-7.12,6.79-4.98-1.45-3.07,2.62-3.5,4.77-.32,1.6,1.22,4.49-2.54,3.79-2.67-.5-4.57-1.53-3.75-4.84.9-3.61,1.98-7.23,2.37-10.91.73-6.91,4.07-7.91,10.26-6.11,3.97,1.16,6.13,2.19,4.29,6.51Z"/>
        <path class="cls-4" d="M178.09,622.59c2.62,0,5.25-.05,7.87.02,1.79.04,2.92.89,2.7,2.86-.19,1.65-1.4,2.27-2.8,2.02-6.2-1.12-6.81,2.69-6.63,7.3.02.43,0,.97-.23,1.28-1.7,2.17,1.68,8.04-4.19,6.88-6.17-1.21-1.75-5.54-1.39-8.39.38-3.12,2.74-6.51-2.74-7.43-1.56-.26-1.88-1.65-1.55-3.09.29-1.24,1.22-1.77,2.4-1.8,2.19-.05,4.38-.02,6.56-.02,0,.12,0,.24,0,.37Z"/>
        <path class="cls-6" d="M150.51,640.76c5.14-1.02,1.05-5.58,3.36-7.89,1.33.09,1.33,1.58,1.85,2.62-1.4,1.03-1.05,2.6-1.31,4.01-.5,2.72-1.9,3-3.9,1.26Z"/>
        <path class="cls-25" d="M244.21,296.53c.42.84.84,1.68,1.27,2.52-1.15-.06-2.68.4-3.15-.97-.49-1.44.96-1.36,1.88-1.55Z"/>
        <path class="cls-19" d="M233.49,532.23c2.63,7.82,4.73,15.78,6.28,23.89-10.17-1.28-20.33-2.58-30.51-3.83-1.33-.16-2.62-.28-3.54-1.4.45-.81.9-1.62,1.34-2.43,6.26-5.36,12.97-10.12,19.92-14.53,1.94-1.23,3.82-3.12,6.5-1.69Z"/>
        <path class="cls-19" d="M204.6,422.91c1.55.82,1.81,2.44,2.17,3.86,6.42,25.1,12.78,50.22,19.15,75.33-1.95,1.66-3.23-.14-4.58-.99-5.73-3.61-11.34-7.42-17.11-10.96-3.04-1.87-3.84-4.42-3.69-7.76.86-19.86,1.88-39.7,4.07-59.47Z"/>
        <path class="cls-13" d="M233.49,532.23c-7.33,3.7-13.58,9.02-20.43,13.45-1.81,1.17-3.2,3.61-5.99,2.77,6.56-14.42,13.13-28.84,19.69-43.26,2.24,9.02,4.48,18.03,6.72,27.04Z"/>
        <path class="cls-37" d="M195.36,471.87c-1.7-4.83-3.41-9.67-5.11-14.5,6.52,1.75,9.23,9.46,5.11,14.5Z"/>
        <path class="cls-37" d="M175.6,411.2c-1.28-3.51-2.56-7.03-3.83-10.54,6.72,1.7,8.06,5.4,3.83,10.54Z"/>
        <path class="cls-37" d="M171.51,398.05c-2.13-3.21-2.88-6.91-3.79-10.56,6.42,3.66,7.61,6.97,3.79,10.56Z"/>
        <path class="cls-37" d="M195.41,384.74c1.63,2.4,1.77,5.24,2.35,7.94-3.65-1.8-7.42-3.57-2.35-7.94Z"/>
        <path class="cls-37" d="M188.67,450.8c-1.6-1.9-2.05-4.25-2.48-6.59,1.84,1.82,8.41,1.85,2.48,6.59Z"/>
        <path class="cls-19" d="M235.12,767.15c23.23.04,46.47.08,69.7.1,1.96,0,3.98.23,5.6-1.28.26.59.69,1.17.76,1.78,1.16,11.29,1.09,11.36-10.14,11.36-18.41,0-36.81,0-55.22,0q-11.46,0-10.7-11.96Z"/>
        <path class="cls-37" d="M315.08,655.67c-2.94,4.2-2.42,9.62-4.91,13.98-3.32-3.17-7.38-1.39-10.82-.97-22.47,2.7-44.89,5.86-67.32,8.84-.86.11-1.75,0-2.62,0,10.95-12.02,24.14-21.6,35.82-32.83,2.53-2.43,4.83-5.39,7.84-6.96,9.99-5.24,9.88-12.9,6.51-22.03-1.73-4.69-2.56-9.71-3.8-14.58,15.45,5.22,29.96,12.64,44.86,19.14,1.48.64,2.55,1.64,2.74,3.35-2.11,10.85-6.76,21.05-8.28,32.05Z"/>
        <path class="cls-26" d="M307.61,157.93c-1.05,6.03-6.62,7.56-10.61,10.66-10.67,5.01-19.96,12.25-29.9,18.46-6.61,4.13-12.64,9.27-20.21,11.76-2.02-7.98-2.93-16.27-6.72-23.75-3.99-7.49-5.79-15.6-6.91-23.92,10.21-2.61,20.42-5.21,30.63-7.82,1.33-1.46,2.83-2.66,4.81-3.18,9.02-2.37,18.06-4.67,27.15-6.75,1.75-.4,3.45-.16,5.06.64.43.14.85.28,1.28.41,4.11,3.95,3.4,10.2,6.88,14.45-5.41,2.22-1.19,5.98-1.45,9.03Z"/>
        <path class="cls-20" d="M233.26,151.14c4.41,7.36,6.06,15.52,6.91,23.92-7.88.91-15.75,1.83-23.63,2.74-2.27,2.56-5.5,2.65-8.47,2.97-9.58,1.03-19.17,1.98-28.74,3.13-3.1.37-6.11-.13-9.1-.87-7.79,5.5-15.56,11.04-23.39,16.49-1.71,1.19-2.99,3.27-5.52,3.01.46-7.41,1-14.82,1.36-22.24.3-6.18,3.56-9.08,9.51-10.37,15.16-3.29,30.22-7.01,45.31-10.58,1.91-.45,3.81-.99,5.71-1.49,5.68-5.45,12.87-4.95,19.9-5.04,3.38-.56,6.75-1.11,10.13-1.67Z"/>
        <path class="cls-24" d="M223.13,152.81c-6.63,1.68-13.27,3.36-19.9,5.04-7.07-10.5-14.13-21-21.2-31.5,8.06-7.46,16.2-14.81,25.22-21.12,4.28,14.39,8.57,28.77,12.8,43.18.55,1.87.51,4.01,3.08,4.4Z"/>
        <path class="cls-24" d="M300.9,134.03c-12.34,3.1-24.68,6.19-37.01,9.29-4.48-5.55-11.64-5.02-17.45-7.54-3.18-1.38-3.07-2.34-.89-4.29,11.45-4.7,23.21-8.51,35.1-11.92,2.7-.78,5.44-1.83,8.11.13,5.41,3.62,8.58,9.15,12.14,14.34Z"/>
        <path class="cls-24" d="M349.87,106.51c-.09,6.01-3.92,11.11-4.17,17.08-8.37,2.27-16.74,4.54-25.11,6.81-.55.33-1,.25-1.34-.31,2.56-5.35,1.25-11.59,3.87-16.94,5.61-3.34,11.83-5.11,18.02-6.93,2.68-.78,5.43-1.61,8.08.2l.64.09Z"/>
        <path class="cls-2" d="M288.75,119.7c-10.66,2.23-20.82,6.11-31.17,9.36-3.91,1.23-7.77,2.89-12.04,2.43,8.56-6.03,17.15-12.01,25.67-18.11,2.45-1.75,4.69-1.98,7.18-.2,3.32,2.38,7.96,2.66,10.36,6.51Z"/>
        <path class="cls-20" d="M319.25,130.08c.45.1.89.21,1.34.31.63,2.94.96,5.99,1.98,8.79,1.07,2.94.4,4.99-1.93,6.77-3.86.98-7.72,1.96-11.59,2.94-2.41-.08-4.04-.8-4.46-3.65-.54-3.64-1.59-7.21-2.42-10.8,5.69-1.46,11.39-2.91,17.08-4.37Z"/>
        <path class="cls-9" d="M349.23,106.42c-9.01,1.05-16.96,6.21-26.1,6.73,2.38-2.5,4.75-5.02,7.14-7.51,6.63-6.88,12.04-6.66,18.96.78Z"/>
        <path class="cls-19" d="M275.84,730.35c1.82,5.84,3.48,11.74,5.52,17.5,1.23,3.46.53,5.03-3.25,4.82-.22-.01-.44,0-.66,0-17.78.88-18.62.06-18.8-18.33,4.83-5.02,10.63-5.77,17.04-3.89l.15-.11Z"/>
        <path class="cls-3" d="M275.69,730.45c-5.68,1.3-11.36,2.59-17.04,3.89-.01-6.6-.03-13.21-.04-19.81,5.06-2.73,10.65-.6,15.94-1.71,2.26-.47,1.54,1.85,1.48,3.32-.18,4.77-.24,9.54-.34,14.31Z"/>
        <path class="cls-35" d="M170.24,183.03c9.88-2.49,20.1-2.33,30.11-3.86,5.34-.82,10.79-.93,16.19-1.36,1.27,2.17,2.53,4.34,3.8,6.5-15.5.95-30.99,1.9-46.49,2.85-1.2-1.37-2.41-2.75-3.61-4.12Z"/>
        <path class="cls-21" d="M180.34,216.12c-10.45-2.99-19.19-5.49-28.57-8.18,4.51-4.78,9.75-7.19,14.2-10.63,1.52-1.17,2.82-1.05,3.81.65,3.26,5.57,6.49,11.16,10.56,18.16Z"/>
        <path class="cls-13" d="M536.85,423.06c1.33.05,2.65.09,3.98.14-1.14,4.31.67,8.92-1.36,13.13-1.82-4.24-2.71-8.66-2.62-13.27Z"/>
        <path class="cls-29" d="M351.77,210.1c-4.16,7.1-7.51,12.72-10.75,18.39-1.11,1.94-2.94,2.6-4.85,3.04-10.24,2.39-20.52,4.61-30.74,7.1-2.76.67-5.05.43-7.48-1.03-5.37-3.22-10.86-6.24-17.86-10.24,24.58-5.92,47.38-11.42,71.67-17.27Z"/>
        <path class="cls-7" d="M158.1,625.64c-.29,1.17-.95,1.92-2.22,1.84-1.81-.12-2.75-1.13-2.58-2.95.1-1.11.55-2.23,1.97-1.86,1.48.38,2.84,1.08,2.83,2.97Z"/>
        <path class="cls-36" d="M135,622.36c2,.49,4.17,1.01,2.97,3.81-.75,1.74-.04,4.94-3.58,4.4-2.15-.32-3.89-1.09-2.84-3.87.69-1.82-.21-4.87,3.45-4.34Z"/>
        <path class="cls-30" d="M113.88,614.89c1.44.53,2.88,1.24,3.11,2.86.19,1.31-.36,2.65-2.1,2.34-1.57-.28-2.76-1.12-2.63-3,.08-1.08.17-2.14,1.62-2.2Z"/>
      </g>
    </g>
  </g>
</svg>