<?xml version="1.0" encoding="UTF-8"?>
<svg xmlns="http://www.w3.org/2000/svg" version="1.1" viewBox="0 0 636.44 800">
  <defs>
    <style>
      .cls-1 {
        fill: #2b2b2b;
      }

      .cls-2 {
        fill: #c7ab3d;
      }

      .cls-3 {
        fill: #fefdfd;
      }

      .cls-4 {
        fill: #e3c956;
      }

      .cls-5 {
        fill: #d8bba4;
      }

      .cls-6 {
        fill: #896b58;
      }

      .cls-7 {
        fill: #e2c9b7;
      }

      .cls-8 {
        fill: #b89576;
      }

      .cls-9 {
        fill: #8e8e8e;
      }

      .cls-10 {
        fill: #987726;
      }

      .cls-11 {
        fill: #997827;
      }

      .cls-12 {
        fill: #72581a;
      }

      .cls-13 {
        fill: #bc987e;
      }

      .cls-14 {
        fill: #bc987d;
      }

      .cls-15 {
        fill: #d9bca6;
      }

      .cls-16 {
        fill: #2d2c2c;
      }

      .cls-17 {
        fill: #bc977e;
      }

      .cls-18 {
        fill: #846754;
      }

      .cls-19 {
        fill: #dfc54d;
      }

      .cls-20 {
        fill: #464646;
      }

      .cls-21 {
        fill: #bd987e;
      }

      .cls-22 {
        fill: #997726;
      }

      .cls-23 {
        fill: #bc977d;
      }

      .cls-24 {
        fill: #80631f;
      }

      .cls-25 {
        fill: #4f5252;
      }

      .cls-26 {
        fill: #ded5c2;
      }

      .cls-27 {
        fill: #997727;
      }

      .cls-28 {
        fill: #7f631e;
      }

      .cls-29 {
        fill: #6e7073;
      }

      .cls-30 {
        fill: #836652;
      }

      .cls-31 {
        fill: #d7b9a2;
      }

      .cls-32 {
        fill: #2d2d2c;
      }

      .cls-33 {
        fill: #9a7828;
      }

      .cls-34 {
        fill: #6c6d6d;
      }

      .cls-35 {
        fill: #715719;
      }

      .cls-36 {
        fill: #967853;
      }

      .cls-37 {
        fill: #b99679;
      }

      .cls-38 {
        fill: #71571a;
      }

      .cls-39 {
        fill: #d8bba5;
      }

      .cls-40 {
        fill: #80631e;
      }

      .cls-41 {
        fill: #856754;
      }
    </style>
  </defs>
  <!-- Generator: Adobe Illustrator 28.7.1, SVG Export Plug-In . SVG Version: 1.2.0 Build 142)  -->
  <g>
    <g id="Layer_1">
      <g>
        <path class="cls-4" d="M334.21,526.03c8.67,7.41,18.42,13.32,27.71,19.85,8.41,5.92,17.01,11.57,25.53,17.34.81,1.23.38,2.27-.48,3.25-1.5,1.47-2.78,3.16-4.3,4.61-15.02,13.46-30.09,26.86-44.89,40.58-11.75,9.46-22.28,20.28-33.65,30.16-4.13,3.58-8.28,7.06-13.01,9.82l.05-.05c-3.91,1.79-5.01-1.66-6.48-3.77-7.03-10.06-13.91-20.22-20.67-30.45-17.28-26.13-35.06-51.93-52.31-78.09-1.89-2.87-2.8-6.28-5.24-8.79-1.58-1.95-.77-3.52.63-5.19,15.27-18.12,30.51-36.26,45.76-54.4,2.48-1.03,4.2.65,5.93,1.84,23.62,16.27,47.42,32.29,71.05,48.56,1.82,1.25,3.58,2.54,4.37,4.74Z"/>
        <path class="cls-35" d="M334.21,526.03c-22.09-14.92-44.18-29.84-66.26-44.78-5.06-3.42-10.07-6.9-15.1-10.36-.51-11.84-1.02-23.69-1.54-35.53-.99-4.7-.04-9.47-.53-14.18-.41-2.86,1.47-4.59,3.43-5.9,23.3-15.53,46.47-31.27,70.73-45.31.65-.14,1.31-.14,1.96-.04,12.53,6.28,23.39,15.22,35.37,22.4,8.24,4.93,16.12,10.47,23.99,15.98,2.36,1.65,5.6,3.22,3.69,7.22-14.76,29.22-29.53,58.44-44.29,87.67-3.84,7.6-7.64,15.21-11.46,22.82Z"/>
        <path class="cls-20" d="M512.35,96.44c-7.41,4.02-14.83,8.04-22.24,12.06-2.75,4.33-7.43,6.14-11.6,8.38-28.02,15.07-55.87,30.45-83.92,45.46-4.95,2.17-9.95,4.27-12.46,9.61-2.21-1.06-4.07-1.07-6.45.31-11.39,6.59-23.18,12.47-34.61,18.98-5.04,2.87-9.32,2.71-14.15-.04-3.61-2.06-7.08-4.41-11.01-5.89-.62-.19-1.2-.45-1.76-.76-16.46-9.39-33.37-17.97-49.83-27.37-2.65-1.51-5.43-2.8-7.63-4.98-13.64-7.83-27.83-14.66-41.29-22.81-2.07-1.25-5.95-1.67-4.3-5.87,2.26-1.33,4.87-1.51,7.3-2.31,29.61-3.16,59.22-6.27,88.85-9.11,30.31-2.9,60.64-5.62,90.95-8.56,29.65-2.88,59.29-5.93,88.95-8.72,6.11-.58,12.25-.68,18.35-1.43,2.59-.32,5.9-.91,6.86,3.04Z"/>
        <path class="cls-9" d="M512.35,96.44c-7.78-2.71-15.49.29-23.17.7-16.36.88-32.66,3.07-48.98,4.7-25.69,2.55-51.38,5.15-77.08,7.6-20.7,1.98-41.42,3.66-62.12,5.67-19.38,1.88-38.73,4.08-58.1,6-8.49.84-17.02,1.34-25.54,1.99-1.51.73-2.7.7-3.05-1.29,1.87-3.46,5.53-4.12,8.71-5.38,46.81-18.61,93.39-37.78,140.19-56.42,13.43-5.35,26.61-11.28,40.16-16.34,2.88-1.08,5.72-2.2,8.84-2.28,10.2-2.03,19.22-7.22,28.88-10.7,5.76-2.07,11.6-6.38,17.12-5.95,5.61.43,7.89,8.1,11.56,12.61,14.56,17.84,28.86,35.89,43.28,53.85,1.68,2.09,3.28,4-.7,5.26Z"/>
        <path class="cls-15" d="M446.66,244.42c-5.31,10.37-7.76,21.77-11.66,32.65-3.84,10.69-7.33,21.51-10.7,32.35-1.27,4.1-3.09,4.8-7.17,3.5-19.95-6.37-40.01-12.41-60.03-18.56-.87,0-1.78.41-2.6.18-13.4-3.86-26.87-7.5-39.76-12.93-.81-.34-1.34-1.09-1.81-1.85-.7-2.63-.28-5.23.34-7.78,5.43-22.34,10.56-44.74,15.84-67.11.3-1.29.82-2.49,1.38-3.68.86-1.58,2.15-2.8,3.72-3.57,15.47-7.58,30.19-16.63,45.97-23.61.6-.26,1.26-.34,1.92-.42,3.89.51,7.29,2.13,10.42,4.44,5.26,7.21,3.71,15.8,4.76,23.86.3,2.33-.37,4.78,1.05,6.95.85,1.88.72,3.85.53,5.82.14.87.42,1.7.75,2.51,2.27,5.73,3.37,6,8.32,2.13.89-.7,1.49-1.59,2.09-2.5,3.93-5.01,2.99-12.35,8.05-16.82,5.37-3.15,8.98-8.88,15.34-10.6,1.12.12,2.07.64,2.91,1.35,3.01,2.55,6.11,3.2,9.4.51,3.41-2.78,2.79-6.01,1.1-9.38-.49-.98-.83-2.01-.83-3.12,1.07-3.77,4.26-5.7,6.94-8.08,1.68-1.49,4.23-2.58,2.68-5.62-2.55-5.11-5.88-9.75-8.55-14.77-1.31-2.46-3.09-4.88-2.16-7.99,4.23-5.13,10.8-6.5,16.09-9.94,5.5-3.58,11.61-6.19,17.58-8.96,2.47-1.14,5.37-2.87,7.31,1,.63,2.73-.43,5.2-1.27,7.67-4.2,12.47-8.23,24.99-12.48,37.44-3.16,9.99-6.31,19.98-9.48,29.97-4.44,12.1-8.09,24.46-12.28,36.63-1,2.89-1.89,5.81-3.69,8.34Z"/>
        <path class="cls-25" d="M412.21,41.38c-7.19,5.25-15.89,7.16-23.93,10.43-57.77,23.47-115.67,46.62-173.53,69.88-.89,1.45-2.1,2.18-3.84,1.72-.46-.45-.69-1-.65-1.65,2.68-6.97,8.5-11.6,13.11-17.07,11.27-13.39,22.82-26.55,34.05-39.98,2.44-2.91,5.16-5.07,8.48-6.67,14.34-16.88,28.71-33.75,43-50.68,1.71-2.02,3.01-3.01,5.98-1.9,32.4,12.09,64.88,23.98,97.34,35.92Z"/>
        <path class="cls-26" d="M283.18,760.98c8.97-2.93,18.45-2.33,27.6-4.01,24.32-4.45,48.11,1.01,72.07,3.77,24.92,2.87,49.89,5.33,74.82,8.15,18.42,2.08,36.81,4.45,55.21,6.71.61.08,1.3.3,1.09,1.89-9.61,1.04-19.41,2.22-29.24,3.16-23.02,2.21-46.04,4.35-69.08,6.44-16.09,1.46-32.19,2.69-48.28,4.18-11.94,1.11-23.84,3.04-35.8,3.53-10.45.43-21.08.23-31.41-1.26-11.11-1.61-22.25-1.07-33.36-2.02-25.9-2.22-51.96-2.53-77.9-4.43-21.8-1.59-43.59-3.05-65.43-3.89-6.3-.24-12.55-1.65-18.96-1.48,7.06-3.38,14.82-2.56,22.21-3.5,30.72-3.91,61.52-7.23,92.3-10.69,2.06-.23,3.26-.99,3.73-2.96,3.28.94,3.28,3.93,3.56,6.38.65,5.76,3.81,7.51,9.31,7.5,11.37-.01,22.76-.62,34.11.38,6.87,1.87,13.86,2.04,20.73.46,3.11-.72,5.91-2.76,7.54-5.91-1.36-2.06-3.71-1.1-5.4-1.96-4.33-2.4-9.19-4.34-9.45-10.43Z"/>
        <path class="cls-20" d="M206.78,283.65c-2.24.73-3.15-.96-4.17-2.34-21.54-28.97-43.08-57.94-64.61-86.91-1.36-3.24,1.36-4.75,3.21-5.58,14.95-6.69,29.65-14.02,45.47-18.6,3.69.27,4.98,3.07,6.26,5.92,4.76,10.56,9.51,21.12,14.07,31.77,1.03,2.4,1.84,4.95,4.26,6.42,9.12-.94,17.33-5.03,26.02-7.41,4.34-1.19,8.38-3.59,13.11-3.28,4.28,1.6,8.66,2.89,13.01,4.27,2.77.88,5.21,2.23,6.52,5.02,1.46,8.22,2.41,16.51,3.01,24.84-.06.69-.24,1.36-.51,1.99-2.96,3.93-7.24,6.25-11.24,8.82-15.07,9.69-29.85,19.79-44.73,29.76-3.09,2.07-6.19,4.01-9.68,5.31Z"/>
        <path class="cls-25" d="M210.65,216.53c-6.24-3.45-6.09-10.56-8.87-15.93-4.36-8.45-7.74-17.4-11.53-26.15-.64-1.47-1.55-2.62-3.3-2.74-4.85-9.53-8.57-19.57-13.16-29.22-1.17-2.47-.01-5.23-1.13-7.68-8.84-20.21-17.69-40.43-26.53-60.64,3.02-4.21,5.13-.19,6.87,1.16,10.04,7.77,19.71,16.02,29.5,24.12,9.43,7.81,19.31,15.09,28.22,23.53l-.04-.04c.81.44.82.9.02,1.36,15.29,9.75,31.66,17.56,47.44,26.42-4.47,9.64-11.75,17.4-17.55,26.15-7.03,10.6-14.66,20.8-21.75,31.37-2.18,3.24-4.18,6.79-8.18,8.29Z"/>
        <path class="cls-17" d="M271.1,240.32c.12-.42.25-.84.37-1.26,1.16-3.21,4.11-4.26,6.78-5.69,8-4.29,16.68-7.35,23.88-13.1.95-1.29,1.76-2.66,2.62-4.01,2.74-3.92,5.04-8.1,7.49-12.19,4.63-7.73,12.17-8.95,19.76-3.27-6.11,26.23-12.22,52.47-18.33,78.7-3.46,2.56-6.59-1.11-10.08-.52-.97,2.32.74,4.06,1.51,5.93,7.57,18.37,15.46,36.61,22.95,55.02.88,2.17,2.39,4.26,1.49,6.85-2.82,2.55-5.9,1.07-8.73.29-10.17-2.79-20.37-5.47-30.63-7.82-6.18-1.41-9.82-4.04-9.49-10.72-1.39-13.68-2.77-27.35-4.16-41.03-2.42-1.95-3.1-4.68-3.4-7.59-1.09-10.7-2.33-21.39-3.52-32.08-.3-2.67-.37-5.28,1.5-7.5Z"/>
        <path class="cls-2" d="M206.46,530.49c3.08-.19,3.38,2.66,4.53,4.37,25.08,37.28,50.08,74.61,75.16,111.89,1.29,1.91,2.14,4.47,5.01,4.83-.56.86-1.13,1.73-1.69,2.59-1.46.96-2.45,2.56-4.14,3.19-15.42,5.7-30.3,12.73-45.75,18.34-1.42.51-2.92.98-4.5.64-.66-.2-1.25-.54-1.75-1.01-8.76-46.32-17.52-92.64-26.25-138.97-.36-1.93-.4-3.91-.6-5.87Z"/>
        <path class="cls-29" d="M210.71,122.97c-8.94-2.8-14.49-10.32-21.49-15.77-13.12-10.21-25.71-21.1-38.57-31.64-1.23-1-2.46-2.77-4.52-1.4-2.85-3.46-.5-3.82,2.35-4.12,20-2.06,39.99-4.21,60-6.26,19.13-1.96,38.28-3.83,57.41-5.74-18.5,21.55-37.42,42.75-55.18,64.93Z"/>
        <path class="cls-17" d="M248.9,420.82c-13.76,8.92-27.59,17.72-41.23,26.83-3.22,2.15-5.69,2.01-8.97.37-17.79-8.89-35.69-17.56-53.53-26.35-4.49-2.21-8.89-4.59-13.78-5.81,3.11-3.84,5.39-8.11,6.57-12.94,1.29-3.18,2.75-6.27,4.15-9.4,1.03-2.3,2.02-4.9,5.4-4.47,18.42,5.36,36.83,10.72,55.25,16.08,3.71-.46,7.31,0,10.88,1.13,10.17,3.23,20.45,6.08,30.6,9.33,2.3.74,6.23.75,4.66,5.24Z"/>
        <path class="cls-17" d="M500.66,418.12c-19.62,9.58-39.25,19.15-58.84,28.77-2.34,1.15-4.33,1.49-6.62-.25-14.27-10.79-28.61-21.48-42.93-32.2-.16-2.67,1.98-3.23,3.77-3.76,12.15-3.55,24.55-6.09,36.88-8.89,1.52-.34,3.03.08,4.51.53,15.62-3.62,31.23-7.25,46.85-10.86,1.9-.44,3.82-.77,5.73-1.15,4.02.3,3.94,3.97,5.12,6.47,1.19,2.49,1.73,5.27,2.83,7.83.99,4.49,4.22,8.53,2.72,13.52Z"/>
        <path class="cls-10" d="M325.38,370.86c-21.41,13.96-42.83,27.91-64.23,41.9-3.28,2.15-6.44,4.49-9.66,6.74-3.33-1.96-3.73-5.28-3.65-8.58.42-17.5-.8-34.95-1.43-52.41-.21-5.74.33-11.34,2.21-16.79.11-.38.24-.75.39-1.12,3.57-1.23,6.84.28,9.95,1.48,20.49,7.88,40.74,16.36,61.22,24.25,2.23.86,4.59,1.74,5.2,4.53Z"/>
        <path class="cls-10" d="M389.96,415.54c-.24-3.05-2.58-4.3-4.8-5.76-17.66-11.61-35.3-23.25-52.92-34.93-1.97-1.31-3.77-2.89-5.64-4.35-.94-2.71.79-4.56,2.12-6.51,8.36-12.23,17.37-23.98,26.07-35.96,1.75-2.41,3.34-5.83,7.5-4.85l.04.07c2.97,4.12,4.95,8.69,6.43,13.54,7.08,23.21,14.65,46.26,22.17,69.33.87,2.68,2.09,5.38.45,8.21-.48.4-.95.8-1.43,1.2Z"/>
        <path class="cls-15" d="M391.39,414.34c-9.68-30.36-19.37-60.72-29.05-91.08,10.06,10.37,20.2,20.66,30.17,31.12,14.36,15.06,28.6,30.24,42.88,45.38.75.79,1.35,1.71,2.03,2.57-13.68,3.47-27.36,6.95-41.05,10.39-1.47.37-3.06.36-4.1,1.73-.3,0-.58-.03-.87-.1Z"/>
        <path class="cls-17" d="M386.02,565.96c.48-.91.95-1.83,1.43-2.74,1.5,6.96-.93,13.64-1.73,20.38-3.12,26.19-6.82,52.3-10.31,78.45-4.84,4.67-16.15,5.36-23.84,1.46-2.75-10.47-6.16-20.77-7.84-31.5-1.22-2.07-.16-3.87.93-5.45,12.91-18.61,23.84-38.55,37.93-56.35,1.03-1.5,2.38-2.75,3.42-4.25Z"/>
        <path class="cls-15" d="M362.3,323.19c-4.37,1.8-6,6.13-8.51,9.55-9.19,12.5-18.14,25.17-27.18,37.77-.41.1-.82.22-1.23.35-25.46-10.09-50.91-20.18-76.37-30.27,8.63-1.69,17.21-3.86,25.92-4.9,5.08-.61,6.1-2.95,5.74-7.16.69,5.68,4.4,7.37,9.59,8.5,11.72,2.55,23.27,5.86,34.9,8.83,1.36.35,2.83,1.65,4.1-.21,2-8.13,4.48-15.99,11.94-21.02,5.81.26,11.39-1.41,17.1-2.06,1.45-.16,2.89-1.09,4,.62Z"/>
        <path class="cls-15" d="M248.62,341.71c.59,22.92,1.17,45.84,1.77,68.76.08,3.04-.27,6.14,1.11,9.03-.06,5.29-.12,10.58-.18,15.87-2.78-4.52.66-10.07-2.42-14.54-.24-2.79-2.62-2.43-4.39-2.98-13.92-4.24-27.83-8.48-41.75-12.72,15.29-21.14,30.57-42.28,45.86-63.41Z"/>
        <path class="cls-41" d="M341.2,324.62c-3.98,7.01-7.96,14.01-11.94,21.02-6.09-9.88-9.39-21.03-14.11-31.53-5.53-12.3-10.36-24.92-15.68-37.85,5.51-.63,9.59,2.52,14.19,3.24,12.74,4.15,25.5,8.27,38.22,12.47,1.81.6,3.49,1.58,5.22,2.38-5.3,10.09-10.61,20.18-15.91,30.27Z"/>
        <path class="cls-17" d="M233.31,675.33c.44.05.87.1,1.3.16,12.58,1.83,23.9,7.44,35.6,11.9,1.03.39,1.72,1.29,2.25,2.26-6.59,14.07-13.18,28.13-19.77,42.2-.55,1.19-1.13,2.5-2.41,2.93-7.39,2.47-14.97,3.93-22.79,3.7-.84-.02-1.5-.8-2.11-1.42,2.64-20.57,5.28-41.15,7.92-61.72Z"/>
        <path class="cls-1" d="M271.1,240.32c1.81,15.73,3.61,31.45,5.42,47.18-23.25-1.18-46.55-1.46-69.74-3.85,13.47-11.5,28.89-20.18,43.45-30.1,6.79-4.63,13.3-9.78,20.87-13.22Z"/>
        <path class="cls-25" d="M470.55,169.11c4.82-14.97,9.65-29.94,14.47-44.91.46-5.13-.48-10.91,6.17-13.12,10.97,18.28,21.97,36.54,32.88,54.86.69,1.17,3,2.67.19,4.16-16.08,2.84-32.28,1.04-48.43,1.21-1.97.02-3.92-.5-5.28-2.21Z"/>
        <path class="cls-22" d="M119.85,348.37c-3.19-3.58-8.47-3.45-11.86-6.68-.35-3.46,2.81-3.41,4.67-4.37,6.12-3.19,12.86-5.06,19.52-8.55-5.15-3.57-10.36-5.25-15.25-7.56-4.11-1.94-8.68-3.24-11.54-7.21.7-4.39,2.68-8.23,5.04-11.91,3.26-1.27,6.01.52,8.69,1.75,17.06,7.78,34.1,15.61,51.07,23.58,2.54,1.19,6.21,1.91,5.13,6.27-1.48,3.12-2.96,6.23-4.45,9.35-3.39,1.71-6.34.03-9.26-1.32-6.51-3.01-13.13-5.75-20.44-9.32,1.81,6.97,4.2,12.81,5.86,18.85.78,2.82,2.58,5.74.28,8.71-4.53-1.09-8.11-4.68-12.96-4.9-5.47-.85-10.43-2.81-14.5-6.7Z"/>
        <path class="cls-22" d="M459.95,280.18c13.11-5.07,26.22-10.14,39.34-15.21.6.66,1.19,1.44,1,2.33-1.96,9.68-5.81,18.61-9.21,25.66,8.68-3.58,18.42-10.46,30.65-10.54,2.49,3.54,3.72,7.62,4.96,11.69-2.78,3.78-7.17,4.98-11.16,6.6-16.44,6.72-33.2,12.61-49.55,19.57-2.02.86-4.12,1.62-6.33.5-1.41-3.48-2.82-6.95-4.23-10.43-.06-4.3,3.5-5.18,6.38-6.44,6.79-2.98,13.73-5.6,21.46-8.48-6.08-3.92-12.28-6.28-17.98-9.51-2.32-1.31-5.63-1.92-5.33-5.74Z"/>
        <path class="cls-20" d="M470.55,169.11c15.79,0,31.58-.04,47.37,0,2.14,0,4.42-.57,6.34,1-4.2,2.79-8.23,5.88-12.64,8.29-3.96,2.16-6.52,4.9-6.83,9.48-3.17-1.49-5.41.56-7.69,2.13-8.58,5.9-17.6,11.14-26.23,16.96-2.46,1.66-4.96,3.78-8.34,2.11-3.04-2.87-2.13-6.43-1.73-9.89,2.65-10.22,6.06-20.19,9.75-30.07Z"/>
        <path class="cls-15" d="M351.57,663.51c7.93-.73,16.02,1.21,23.84-1.46,3.44,11.52,6.87,23.04,10.31,34.56-4.39,4.67-9.32,8.48-15.71,10.01-7.38-2.25-13.15-7.26-19.47-11.35-1.01-1.16-1.66-2.48-1.89-4-.66-9.15-2.22-18.4,3.05-26.88-.11-.29-.15-.58-.12-.89Z"/>
        <path class="cls-29" d="M172.66,134.81c4.54,10.48,9.07,20.96,13.62,31.43.77,1.77,1.96,3.46.68,5.47-15.05,6.21-30.11,12.41-45.15,18.63-1.86.77-3.51,1.8-3.81,4.07-2.94-3.24.43-5.18,1.76-7.22,10.08-15.55,20.33-30.99,30.57-46.43,1.22-1.84,2.49-3.59,2.34-5.94Z"/>
        <path class="cls-15" d="M225.39,737.05c9.21-1.17,18.56-1.61,27.31-5.21.54,3.93,3.9,5.74,6.37,8.07,5.25,4.94,10.8,9.56,16.23,14.31-1.93,5.95-4.54,11.43-10.26,14.76-4.67.99-9.4.22-14.09.45-2.2.12-4.19-.5-6.04-1.66-8.22-8.55-14.56-18.39-19.57-29.11l.05-1.61Z"/>
        <path class="cls-13" d="M523.21,361.42c4.4,3.39,8.97.78,13.19-.15,4.23-.93,5.71.26,7.13,4.04,3.45,9.21,7.25,18.29,11.19,27.3,1.83,4.18,1.27,6.56-2.99,8.93-3.39,1.88-8.14,2.71-9.24,7.59-7.57,5.08-9.28,4.74-13.18-3.24-1.55-3.18-4.22-6.17-2.88-10.21,5.5-2.96,5.63-6.92,3.22-12.33-2.8-6.31-5.23-12.83-7.51-19.38-.05-1.01.19-1.91,1.07-2.54Z"/>
        <path class="cls-13" d="M93.51,405.07c-1.08-5.33-6.53-5.93-9.81-8.85-2.63-2.34-3.95-3.9-2.11-7.52,4.66-9.13,9.02-18.41,13.19-27.77,1.66-3.74,3.68-4.74,7.57-3.47,3.91,1.28,8.04,1.86,12.08,2.75,1.28-.43,1.64.31,1.74,1.38-3.34,6.1-5.99,12.55-8.98,18.82-3.3,6.93-3.16,7,3.43,11.01.22,6.62-3.56,11.53-7.83,15.66-3.08,2.98-6.46.08-9.29-2.01Z"/>
        <path class="cls-15" d="M523.02,364.15c5.9,8.18,8.17,17.96,11.09,27.28,1.16,3.72-4.73,3.05-7.33,4.52-4.78.26-6.1-4.82-9.74-6.28-2.87.5-2.48,3.27-3.46,5.03-3.68,6.62-9.27,10.06-16.79,10.42-3.92-4.18-3.08-10.55-6.79-14.82,4.9-5.03,9.8-10.06,14.69-15.1,1.66-1.71,3.7-3.19,3.94-5.87,4.32-3.07,8.53-6.46,14.41-5.19Z"/>
        <path class="cls-15" d="M110.68,391.97c-9.7-1.77-9.77-1.82-6.09-10.39,2.33-5.42,4.85-10.77,7.33-16.13.82-1.77,1.53-3.73,3.93-3.96,5.58-.52,9.59,2.19,12.92,6.3,6.27,7.06,11.71,14.87,18.75,21.25-4.84,3.7-4.6,10.16-7.99,14.66-7.7-1.09-13.38-4.88-16.72-12.07-.72-1.55.08-4.17-2.76-4.39-3.3,1.26-5.24,5.18-9.37,4.73Z"/>
        <path class="cls-18" d="M491.19,111.08c-4.25,3.34-3.09,9.23-6.18,13.12-2.33-2.21-4.03.18-5.7,1.02-11.4,5.73-22.71,11.65-34.05,17.5-.6,1.32-.64,3.01-2.38,3.57-8.43,3.5-16.4,7.94-24.54,12.05-.53.32-1.08.57-1.65.8-6.45,3.29-13.31,6-17.45,12.53-.31.49-1.16.37-1.77.08-1.7-3.34-3.41-6.68-3.68-10.52,9.29-7.02,20.17-11.22,30.2-16.93,21.05-11.99,42.4-23.43,63.65-35.07.73-.4,1.64-.49,2.47-.72.36.86.73,1.72,1.09,2.58Z"/>
        <path class="cls-22" d="M115.81,290.43c1.21-3.83,2.61-7.57,5.06-10.83,2.44-1.31,4.62-.23,6.84.73,8.59,3.72,17.1,7.6,25.35,12.03,1.23.4,2.29,1.18,3.55,1.49,9.69,5.05,20.7,7.53,29.17,14.97.08,4.51-2.73,7.94-4.41,11.79-2.37,1.88-4.66.48-6.74-.45-18.3-8.14-36.3-16.95-54.6-25.11-2.01-.9-3.81-2.18-4.22-4.63Z"/>
        <path class="cls-19" d="M459.65,320.79c22.34-8.89,44.69-17.78,67.03-26.68,1.7,3.86,3.72,7.6,4.47,11.82-.53,1.3-1.52,2.19-2.75,2.7-21.06,8.74-42.28,17.09-63.61,25.15-1.71-4.33-3.42-8.67-5.14-13Z"/>
        <path class="cls-22" d="M464.78,333.79c.5-2.39,2.66-2.7,4.41-3.4,20.64-8.18,41.3-16.31,61.95-24.45,1.95,2.87,3.01,6.12,3.91,9.43,1.21,4.09-2.2,4.7-4.59,5.72-8.6,3.66-17.07,7.64-26.06,10.31-1.28.35-2.48.89-3.61,1.6-8.28,4.08-17.05,6.93-25.65,10.24-2.1.81-4.24,1.15-6.37.07-1.33-3.17-2.66-6.33-3.99-9.5Z"/>
        <path class="cls-19" d="M115.81,290.43c21.63,10.55,43.31,20.99,65.56,30.18-2.02,4.36-4.03,8.72-6.05,13.08-3.02-4.91-8.65-5.57-13.21-7.75-17.12-8.18-34.44-15.94-51.68-23.85,1.8-3.89,3.59-7.77,5.39-11.66Z"/>
        <path class="cls-41" d="M272.47,689.65c-12.7-4.51-25.68-8.25-37.85-14.16,18.54-6.45,36.05-15.55,54.85-21.31-5.67,11.82-11.33,23.65-17,35.47Z"/>
        <path class="cls-1" d="M463.63,208.64c11.48-5.94,21.88-13.6,32.81-20.43,1.67-1.04,3.33-2.11,5.05-3.07,3.38-1.89,2.73,1.19,3.31,2.74-.32,7.89-.9,15.78-.85,23.67.03,4.64-2.08,5.26-5.95,5.05-10.95-.59-21.91-.9-32.86-1.33-3.13-1.61-3.54-3.84-1.5-6.63Z"/>
        <path class="cls-41" d="M383.56,569.81c-11.47,17.75-22.96,35.5-34.4,53.26-1.89,2.93-3.62,5.95-5.43,8.93-.39-.04-.78-.12-1.16-.23-3.79-6.68-5.65-13.85-5.59-21.53,14.44-14.09,29.6-27.38,44.85-40.57.63-.58,1.2-.54,1.73.14Z"/>
        <path class="cls-40" d="M336.98,610.25c2.93,6.9,5.39,13.92,5.59,21.53-15.66,6.43-31.31,12.88-47,19.24-1.35.55-2.96.43-4.45.62,10.99-10.15,21.84-20.46,33.04-30.37,4.21-3.73,7.77-8.27,12.83-11.02Z"/>
        <path class="cls-35" d="M350.12,692.69c.62.73,1.25,1.45,1.87,2.18,5.02,4.53,10.56,8.5,15.07,13.59,1.85,1.95,3.75,3.84,5.72,5.68,2.9,2.98,6.03,5.75,8.74,8.9,1.46,1.69,3.8,3.37,1.75,6.16-16.76-9.48-33.44-19.12-50.34-28.34-4.57-2.5-5.07-4.91-2.53-9.06,2.48-4.03,3.22-9.03,6.8-12.49,6,2.83,10.37,7.24,12.91,13.4Z"/>
        <path class="cls-38" d="M244.96,766.19c1.71.48,3.42.97,5.14,1.45,4.06,1.18,8.37,1.1,12.39,2.47,3.82,1.45,7.72,2.61,11.71,3.51,5.15,1.26,10.66,1.77,15.37,6.95-6.84,1.22-12.56.91-18.3.37-12.89-.22-25.79-.8-38.67-.5-5.96.14-8.07-2.08-8.44-7.58-.19-2.76.18-5.73-1.39-8.3,0-1.59-.01-3.18-.02-4.78,8.42-1.39,15.46,2,22.21,6.4Z"/>
        <path class="cls-22" d="M500.63,331.09c.86-.4,1.71-.8,2.57-1.2,9.48,2.22,17.49,7.64,26.02,11.93,1.37.69,2.23,2.1,1.78,3.86-3.92,1.79-7.84,3.57-11.76,5.36-4.14,3.91-9.3,5.54-14.71,6.61-4.89-.58-8.56,3.09-13.09,3.75-2.05-2.19-.93-4.49-.15-6.72,2.8-7.99,5.37-16.07,9.36-23.59Z"/>
        <path class="cls-22" d="M155.38,295.61c-.93-.46-1.86-.91-2.8-1.37-4.76-7.64-6.35-16.44-8.94-24.86-.61-1.99-1.21-4.91,2.42-5.47,12.32,5.75,24.64,11.5,36.95,17.24.02,4.07-3.58,4.55-6.1,5.68-7.07,3.17-14.33,5.93-21.54,8.78Z"/>
        <path class="cls-24" d="M463.63,208.64c-.1,2.34.31,4.57,1.5,6.63,1.47,5.68,2.7,11.44,4.48,17.02,1.07,3.37.82,5.14-2.97,6.17-6.7,1.81-13.03,4.9-19.97,5.97-1.46-.81-.51-1.82-.2-2.74,4.77-14.17,9.56-28.34,14.34-42.51.65,3.24,1.1,6.54,2.82,9.46Z"/>
        <path class="cls-41" d="M496.78,405.13c1.92-.97,3.77-2.13,5.77-2.89,6.12-2.34,9.87-6.5,11.07-13.05.44-2.4,1.24-5.47,4.06-1.31,3.53,6.58,6.16,13.54,8.67,20.55.85,2.36,2.37,4.86.47,7.46-8.72.74-17.44,1.49-26.16,2.23-1.6-4.24-3.75-8.31-3.88-12.99Z"/>
        <path class="cls-41" d="M119.72,384.87c1.48-2.3,3.21-1.97,3.31.49.42,10.84,9.42,13.67,16.5,18.35-1.93,4.57-1.09,11.01-8.14,12.15-7.81-.97-15.61-1.93-23.42-2.9-.15-.29-.31-.58-.47-.86,2.52-9.77,7.26-18.54,12.22-27.22Z"/>
        <path class="cls-2" d="M459.95,280.18c5.75,5.22,13.32,7.16,19.85,10.98,2.23,1.3,4.59,2.37,8.32,4.27-8.84,3.5-16.44,6.45-23.98,9.53-3.18,1.3-6.69,2.18-8.72,5.39.07-10.28.6-20.48,4.52-30.18Z"/>
        <path class="cls-2" d="M530.99,345.68c-5.2-5.11-12.33-6.76-18.45-10.23-3.16-1.79-6.59-3.09-9.34-5.56,8.82-3.5,17.67-6.93,26.43-10.57,2.03-.85,4.89-.92,5.43-3.95.51,10.36-.68,20.48-4.07,30.32Z"/>
        <path class="cls-27" d="M544.39,415.26c2.63,6.64,5.01,13.4,7.99,19.88,1.81,3.94.41,5.3-3.07,6.65-9.98,3.87-10,4.01-13.91-5.83-2.5-6.26-4.79-12.6-7.17-18.91-.05-3.52,2.71-2.84,4.6-2.75,3.86.2,7.77-.01,11.57.95Z"/>
        <path class="cls-2" d="M500.63,331.09c1.95,4.01-1.49,6.8-2.48,10.08-2.06,6.79-5.22,13.24-6.73,20.23-8.52-4.82-15.5-11.57-22.65-18.11,10.62-4.07,21.24-8.13,31.86-12.2Z"/>
        <path class="cls-2" d="M105.38,314c10.32,4.44,20.69,8.79,31.55,14.71-10.27,4.61-19.6,8.79-28.94,12.98-2.39-9.09-2.83-18.36-2.61-27.69Z"/>
        <path class="cls-2" d="M147.32,359.97c-2.93-10-5.85-20.01-9.02-30.83,11.56,4.53,21.46,10.69,32.57,13.9-7.39,6.29-15.03,12.23-23.56,16.93Z"/>
        <path class="cls-27" d="M107.97,412.95c-3.71,7.89-7.56,15.73-11.08,23.71-1.51,3.41-2.89,4.64-6.82,2.81-10.03-4.67-10.18-4.48-5.6-14.4,1.91-4.13,4.06-8.15,6.11-12.22,5.61-3.32,11.27-3.25,16.98-.27l.41.37Z"/>
        <path class="cls-2" d="M146.07,263.91c-2.35,2.16-.75,4.38-.13,6.61,2.2,7.91,5.89,15.41,6.65,23.73-10.35-5.36-20.9-10.29-31.72-14.63,7.09-5.31,14.18-10.62,21.25-15.95,1.41-1.06,2.72-1.26,3.95.24Z"/>
        <path class="cls-2" d="M521.72,282.42c-10.66,4.13-21.32,8.27-32.78,12.72,3.05-10.82,8.18-20,10.34-30.16,8.69,4.25,15.29,11.21,22.44,17.45Z"/>
        <path class="cls-2" d="M155.38,295.61c2.21-4.4,7.05-4.45,10.73-6.33,5.56-2.85,11.92-4.05,16.91-8.13,3.26,8.99,2.48,18.39,2.75,27.68-10.13-4.41-20.26-8.81-30.39-13.22Z"/>
        <path class="cls-13" d="M383.27,729.18c-1.81-6.48-8.7-8.82-11.68-14.35,1.79-2.89,4.43-4.33,7.77-4.6,4.37,2.25,8.46,4.91,11.88,8.5,3.35,2.71,6.69,5.41,10.92,8.84-6.92,1.34-12.21,7.48-18.89,1.61Z"/>
        <path class="cls-12" d="M107.56,412.58c-5.66.09-11.32.18-16.98.27.98-2.59,1.95-5.19,2.93-7.78,3.2-3.08,6.04,5.65,9.27.3,1.9-3.15,3.67-6.37,5.52-9.55.76-1.31,1.59-2.57,2.39-3.86,3.01-2.37,6.03-4.73,9.04-7.1-2.52,9.91-6.96,18.98-12.17,27.71Z"/>
        <path class="cls-12" d="M544.39,415.26c-3.61,2.91-7.68,1.55-11.57,1.08-1.7-.2-3.29-1.06-4.6.72-.47-.39-.94-.78-1.4-1.16-2.99-7.97-5.99-15.93-8.97-23.9-.5-1.34-1.85-2.67-.17-4.11,3.03,2.69,6.06,5.38,9.1,8.07.41,1,.76,2.02,1.24,2.98,3.01,5.96,4.16,14.6,14.47,10.19.63,2.04,1.26,4.09,1.89,6.13Z"/>
        <path class="cls-13" d="M244.96,766.19c-7.4-2.13-14.81-4.27-22.21-6.4-.11-7.16,1.77-14.08,2.6-21.13,7.68,8.37,12.43,18.82,19.62,27.54Z"/>
        <path class="cls-12" d="M128.77,367.79c-4.31-2.1-8.61-4.2-12.92-6.3-.47-.43-.95-.86-1.42-1.28,1.81-3.95,3.62-7.89,5.42-11.84,5.26,1.31,10.3,3.1,14.5,6.7-1.86,4.24-3.73,8.48-5.59,12.73Z"/>
        <path class="cls-12" d="M504.52,357.65c4.06-4.08,9.45-5.22,14.71-6.61,1.33,3.46,2.65,6.92,3.98,10.38-.06.91-.13,1.82-.19,2.73-5.01,1.17-8.92,5.38-14.41,5.19-1.36-3.9-2.73-7.8-4.09-11.69Z"/>
        <path class="cls-21" d="M350.12,692.69c-4.43-4.35-9.22-8.35-12.91-13.4,3.92-5.85,9.27-10.31,14.49-14.89-1.95,9.35-.92,18.87-1.58,28.29Z"/>
        <path class="cls-33" d="M379.43,710.9c-2.69,1.17-4.7,3.67-7.84,3.94-2.38-1.22-4.17-3.04-5.4-5.41-.62-3.42,2.1-3.14,4.07-3.67,5.45-2.55,9.53-7.4,15.45-9.15.57,2.1,1.15,4.2,1.72,6.29.09,5.97-1.06,7.11-8.01,8Z"/>
        <path class="cls-11" d="M272.83,775.28c-3.8-.53-7.35-1.87-10.82-3.44.21-2.5,2.44-3.11,4.02-4.33,3.44-4.18,4.74-9.86,9.27-13.29,2.34,2.08,4.94,3.91,6.58,6.7.22,2.85-1.76,4.82-2.87,7.14-1.7,2.72-3.04,5.74-6.17,7.23Z"/>
        <path class="cls-5" d="M379.43,710.9c2.47-2.86,8.22-2.44,8.01-8,1.27,5.28,2.54,10.56,3.81,15.84-4.82-1.28-8.81-3.83-11.82-7.84Z"/>
        <path class="cls-31" d="M277.62,767.37c1.42-2.15,2.84-4.3,4.25-6.45.44,0,.87.03,1.31.07,2.42,3.71,5.85,6.37,9.31,9.02-6.09,3.36-11.25,2.45-14.87-2.63Z"/>
        <path class="cls-36" d="M383.56,569.81c-.58-.04-1.15-.09-1.73-.13,1.07-1.61,2.3-3.03,4.19-3.72-.09,1.75-.9,3.04-2.46,3.85Z"/>
        <path class="cls-1" d="M210.65,216.53c14.46-20.58,28.93-41.15,43.36-61.74,1.14-1.63,2.13-3.33,4.12-4.06,10.15,7.53,21.73,12.57,32.6,18.84,8.05,4.65,16.81,8.06,24.12,13.98-2.04,4.42-6.7,4.18-10.32,5.73-2.17.93-4.46,1.61-6.7,2.37-7.16,1.89-14.05,4.63-21.15,6.69-6.18,1.88-12.27,4-18.4,6-2.65.87-5.34,1.66-8.11.37-11.13,3.62-22.25,7.26-33.39,10.83-1.97.63-3.84,2.19-6.12.99Z"/>
        <path class="cls-28" d="M250.17,204.71c8.95-2.29,17.36-6.38,26.52-7.99.73-.67,1.57-.63,2.42-.35,7.77,2.58,14.71,2.76,18.5-6.31,5.75-2.17,11.5-4.35,17.25-6.52.45.05.9.09,1.35.14,2.14,2.71.75,5.44,0,8.14-2.56,9.1-6.48,17.65-10.57,26.13-.54,1.25-1.08,2.5-1.62,3.74-1.69,1.26-3.85,1.37-5.56.98-10.29-2.4-20.59-4.88-29.94-10.1-5.35-4.39-13.09-3.23-18.34-7.86Z"/>
        <path class="cls-41" d="M305.63,217.95c2.79-8.7,5.61-17.38,8.35-26.09.85-2.69,1.49-5.45,2.23-8.17,1.24.4,2.8.45,3.65,1.26,10.4,9.8,20.14,5.85,30.39-.63,8.49-5.38,17.75-9.54,26.43-14.63,3.35-1.96,4.03.12,5.22,2.15.79.8.93,1.64.14,2.53-13.98,7.41-27.96,14.83-41.94,22.24-2.69,1.42-5.4,2.8-8.1,4.2-1.27-.22-2.57-.36-3.81-.69-6.75-1.75-12.12-1.07-15.24,6.47-1.7,4.1-4.83,7.6-7.31,11.37Z"/>
        <path class="cls-32" d="M382.04,174.36c-.05-.84-.09-1.69-.14-2.53-.3-8.32,6.86-8.27,11.89-10.61,3.93,2.51,4.37,6.43,4.28,10.57.87,5.52-2.33,6.65-6.85,6.38-3.53-.15-6.35-2-9.18-3.82Z"/>
        <path class="cls-34" d="M210.69,124.3c0-.45-.01-.91-.02-1.36,1.36-.42,2.72-.83,4.08-1.25.87.47,1.74.94,2.61,1.41-1.97,1.8-4.42.97-6.67,1.21Z"/>
        <path class="cls-40" d="M344.22,222.07c7.99-1.03,15.02,1.98,22.3,2.68,8.47.82,16.81,3.12,25.29,3.76,8.11.61,13.6,5.44,19.6,9.76,5.33,3.84,10.68,7.67,16.13,11.33,3.22,2.16,3.54,3.63-.04,5.95-14.52,9.41-28.98,18.93-43.25,28.7-3.96,2.71-4.82.03-6.2-2.41-9.94-17.53-19.87-35.06-29.8-52.6-1.27-2.25-2.52-4.51-4.02-7.18Z"/>
        <path class="cls-7" d="M416.48,157.44c.37-.15.75-.22,1.14-.21,5.11-.76,9.61.58,13.58,3.86,1.3,6.46-2.13,11.98-3.82,17.77-2.19,7.51-3.44,15.49-8.49,21.92-2.79,3.08-2.75,7.26-4.24,10.85-.97,2.34-1.01,5.31-3.98,6.42-5.35,2.36-9.65-.61-14.12-2.76.42-1.8.84-3.6,1.26-5.4-1.81-2.54-.61-5.09.21-7.46,4.43-12.74,9.15-25.38,13.72-38.07.99-2.75,2.69-4.94,4.75-6.92Z"/>
        <path class="cls-23" d="M418.89,200.79c3.99-13.2,7.98-26.4,11.96-39.6,1.33-2.83,3.66-4.38,6.59-5.17,7.72.85,13.59,5.85,20.26,9.06,2.54,1.83,1.05,3.28-.53,4.56-3.64,2.98-7.35,5.87-11.03,8.8-6.21,1.77-10.86,5.24-12.71,11.73-5.07,3.24-8.67,8.49-14.54,10.62Z"/>
        <path class="cls-13" d="M416.48,157.44c-6.23,17.48-12.45,34.97-18.68,52.45-3.9-.9-2.29-4.09-2.56-6.4-.97-8.5,0-17.3-4.03-25.32,2.72-1.65,6.08-2.63,6.85-6.38,2.57-9.36,11.61-10.42,18.41-14.35Z"/>
        <path class="cls-16" d="M433.43,190.17c-.52-10.33,2.15-12.79,12.71-11.73,5.29,5.93,5.72,10.88,1.25,14.64-4.34,3.66-8.96,2.7-13.96-2.91Z"/>
        <path class="cls-32" d="M457.7,165.07c-4.34,1.78-6.7-2.4-10.11-3.47-3.44-1.07-6.63-2.94-9.92-4.47-.97-5.09.88-8.94,5.17-11.7.81-.9,1.62-1.81,2.43-2.71,4.14,7.45,8.28,14.9,12.43,22.34Z"/>
        <path class="cls-6" d="M396.54,215.29c5.09-1.04,9.29,2.5,14.12,2.76-.87,4-4.79,4.63-7.42,6.66-1.89,1.46-2.64-.22-3.28-1.66-1.15-2.58-2.28-5.18-3.42-7.77Z"/>
        <path class="cls-14" d="M277.62,767.37c4.71,2.26,9.69,3.03,14.87,2.63,3.25.8,8.54-1.57,9.41,1.61.84,3.08-3.93,5.71-6.89,7.72-7.51,5.08-15.73,2.44-23.74,1.62,5.17,0,10.35,0,17.27,0-5.97-3.34-10.99-4.1-15.7-5.66,1.6-2.64,3.19-5.28,4.79-7.92Z"/>
        <path class="cls-41" d="M268.51,212.57c10.03.81,18.87,5.91,28.56,8,2.31.5,4.49,1.57,6.94,1.13-10.28,6.85-21.79,11.4-32.54,17.36-1.55-8.77-2.89-17.56-2.96-26.49Z"/>
        <path class="cls-37" d="M370.26,705.76c-1.36,1.22-2.72,2.45-4.07,3.67-5.18-4.42-10.14-9.05-14.2-14.56,6.09,3.63,12.18,7.26,18.28,10.89Z"/>
        <path class="cls-8" d="M266.03,767.51c-.81,1.94-1.67,3.82-4.02,4.33-3.97-1.4-7.94-2.8-11.92-4.2,5.31-.04,10.63-.09,15.94-.13Z"/>
        <path class="cls-39" d="M442.84,145.44c-1.72,3.9-3.45,7.8-5.17,11.7-2.59.82-3.78,3.98-6.81,4.05-4.7-.33-8.9-2.35-13.23-3.95,8.26-4.25,15.66-10.33,25.22-11.8Z"/>
        <path class="cls-30" d="M297.61,190.07q-4.11,11.12-15.32,8.1c-1.86-.5-3.74-.96-5.61-1.44,6.81-2.74,13.6-5.52,20.92-6.66Z"/>
        <path class="cls-3" d="M368.85,248.14c-3.59-5.11-6.77-10.44-9.86-17.76,20.34,7.37,39.25,14.21,59.11,21.4-5.22,3.86-8.79,8.36-14.98,8.5-.36.25-.8.64-1.15.55-11.51-3-23.11-5.79-33.12-12.69Z"/>
        <path class="cls-38" d="M368.85,248.14c11.42,4.05,22.85,8.09,34.27,12.14-1.88,5.48-9.25,9.4-14.12,8.68-12.28-1.8-15.83-11.58-20.16-20.82Z"/>
      </g>
    </g>
  </g>
</svg>