<?xml version="1.0" encoding="UTF-8"?>
<svg xmlns="http://www.w3.org/2000/svg" version="1.1" viewBox="0 0 636.44 792">
  <defs>
    <style>
      .cls-1 {
        fill: #bf9c83;
      }

      .cls-2 {
        fill: #81641f;
      }

      .cls-3 {
        fill: #c7ab3d;
      }

      .cls-4 {
        fill: #dadad9;
      }

      .cls-5 {
        fill: #b78f2f;
      }

      .cls-6 {
        fill: #9b9b9a;
      }

      .cls-7 {
        fill: #8f8f8f;
      }

      .cls-8 {
        fill: #e2c9b7;
      }

      .cls-9 {
        fill: #826520;
      }

      .cls-10 {
        fill: #987726;
      }

      .cls-11 {
        fill: #72581a;
      }

      .cls-12 {
        fill: #bc987e;
      }

      .cls-13 {
        fill: #d9bca6;
      }

      .cls-14 {
        fill: #9c9fa0;
      }

      .cls-15 {
        fill: #bc977e;
      }

      .cls-16 {
        fill: #866856;
      }

      .cls-17 {
        fill: #886a57;
      }

      .cls-18 {
        fill: #846754;
      }

      .cls-19 {
        fill: #dfc54d;
      }

      .cls-20 {
        fill: #464646;
      }

      .cls-21 {
        fill: #866855;
      }

      .cls-22 {
        fill: #848484;
      }

      .cls-23 {
        fill: #ae8a2d;
      }

      .cls-24 {
        fill: #bc977d;
      }

      .cls-25 {
        fill: #9d7c66;
      }

      .cls-26 {
        fill: #4f5252;
      }

      .cls-27 {
        fill: #ded5c2;
      }

      .cls-28 {
        fill: #7b6122;
      }

      .cls-29 {
        fill: #fefefe;
      }

      .cls-30 {
        fill: #979796;
      }

      .cls-31 {
        fill: #dbdbda;
      }

      .cls-32 {
        fill: #6e7073;
      }

      .cls-33 {
        fill: #d6bba5;
      }

      .cls-34 {
        fill: #715719;
      }

      .cls-35 {
        fill: #70571a;
      }

      .cls-36 {
        fill: #898989;
      }

      .cls-37 {
        fill: #b78e2f;
      }

      .cls-38 {
        fill: #80631e;
      }

      .cls-39 {
        fill: #856754;
      }
    </style>
  </defs>
  <!-- Generator: Adobe Illustrator 28.7.1, SVG Export Plug-In . SVG Version: 1.2.0 Build 142)  -->
  <g>
    <g id="Layer_1">
      <g>
        <path class="cls-19" d="M339.56,325.69c.1.31.13.63.09.95,4.4,7.31,6.38,15.58,9.08,23.52,10.49,30.83,21.56,61.46,31.69,92.41.08,1.02-.15,1.93-.85,2.7-.44,17.22-.88,34.44-1.33,51.66-.45,17.42-.9,34.84-1.36,52.26-.58,1.11-1.29,2.09-2.49,2.61-8.94,3.59-18.11,6.58-27.03,10.2-5.13,2.08-8.42.63-11.01-3.91-4.78-8.37-10.3-16.3-14.96-24.75-1.15-2.09-2.17-4.28-4.27-6.25-2.34,1.98-2.97,4.78-4.09,7.22-4.44,9.68-8.36,19.58-12.92,29.2-1.25,2.65-2.79,5.37-6.07,5.03-10.53-1.09-21.23-1.51-31.09-6.13-.84-.89-1.52-1.89-1.83-3.05-4.19-15.4-8.66-30.72-12.82-46.12-.53-1.94-.8-3.94.6-5.72,3-2.12,6.19-.99,9.29-.42,19.12,3.47,38.31,6.57,57.44,9.92,18.86-7.56,36.48-17.67,54.76-26.43,4.07-1.95,1.22-3.29-.71-4.3-7.48-3.9-15.05-7.63-22.63-11.34-9.02-4.43-17.65-9.59-26.68-14.01-2.19-1.07-4.18-2.43-5.3-4.74-3.99-16.61-6.63-33.43-7.95-50.45-.18-2.28-.94-4.63-.59-6.31,1.08,10.48,1.74,21.61,1.4,32.75-.24,8.01.81,16.05-.72,24.02-.83,2.26-2.73,3.33-4.75,4.28-18.25,8.62-36.92,16.27-55.37,24.43-1.47.65-2.99,1.15-4.65.67-1.59-.72-2.45-2.1-2.87-3.65-2.92-10.98-6.59-21.75-8.86-32.89-.2-.98-.15-1.98.02-2.98,1.3-4.42,5.24-4.63,8.72-5.16,13.12-2.02,26.19-4.34,39.31-6.3,2.39-.36,4.79-.64,7.08-1.44,1.39-.48,2.64-1.16,2.39-2.96-.25-1.74-1.53-2.22-3.06-2.28-1.62-.06-3.2.31-4.79.53-14.54,2.02-28.97,4.76-43.5,6.85-2.77.4-5.56,1.12-8.3-.16-2.47-1.49-3.11-4.08-3.85-6.57-5.94-20.19-11.34-40.53-17-60.8-.6-2.13-1.22-4.28.07-6.4-.15-.21-.13-.4.06-.57,2.01-1.73,4.23-.88,6.28-.3,27.96,8.01,55.94,15.89,84.03,23.44,1.55.42,2.93,1.32,4.51,1.58.88.21,1.84.78,2.47-.48.67-1.42,1.33-2.82,2.05-4.2,8.59-15.81,17.63-31.36,25.99-47.29,1.54-2.94,1.97-7.1,6.33-7.9Z"/>
        <path class="cls-13" d="M350.56,185.51c5.45,25.04,10.81,50.11,16.43,75.11,1,4.46-1.6,5.1-4.61,6.03-12.65,3.89-25.27,7.85-37.94,11.68-1.57.48-3.14.66-4.01,2.26-.32.58-.8.99-1.41,1.24-17.6,5.46-35.36,10.41-53.02,15.68-3.2.96-6.45,2.47-9.91.8-2.46-2.09-3.03-5.11-3.87-7.98-6.39-21.74-12.79-43.48-19.04-65.26-.51-1.49-.99-2.99-1.34-4.52-.73-4.28-2.11-8.37-3.47-12.47-.68-2.05-1.44-4.12-.52-6.32,2.43-2.23,3.99.01,5.48,1.28,3.32,2.84,6.21,6.14,9.37,9.15,5.72,5.93,6.07,5.95,12.11.81,10.06-8.56,20.37-16.83,30.43-25.41,1.08-.92,2.21-1.73,3.66-1.96,3.91-.17,5.18,3.05,7.09,5.48,3.5,4.44,5.41,10.14,10.57,13.24,1.86.93,2.18,2.95,3.19,4.48.4.69.89,1.29,1.45,1.86,4.38,4.44,5.6,4.28,8.58-1.16.57-1.03,1.12-2.08,1.33-3.27.63-6.92-3.53-13.13-2.95-20.04,1.63-3.66.82-9.05,6.81-9.62,8.91,1.89,17.86,3.68,25.61,8.9Z"/>
        <path class="cls-22" d="M225.96,651.72c-44.15-9.05-88.3-18.1-132.45-27.15-4.32-.88-8.62-2.3-12.97-2.47-7.82-.29-11.34-4.31-13.64-11.48-5.33-16.59-11.45-32.93-17.26-49.37,1.09-4.29,4.43-2.62,6.8-2.22,23.54,4.04,47.19,7.36,70.73,11.42,23.93,4.13,47.97,7.56,71.91,11.63,4.32.74,8.83.9,12.61,3.57,1.65,1.67,1.95,3.89,2.43,6.03,3.77,16.8,7.58,33.6,11.65,50.33.71,2.91,1.56,5.83.8,8.88-.2.27-.41.54-.61.81Z"/>
        <path class="cls-15" d="M234.51,224.01c5.26,17.68,10.53,35.36,15.77,53.05,2.05,6.92,4.04,13.86,6.06,20.8-2.59,5.2-8.1,3.98-12.24,5.63.07.02.18.41.18.41,0,0,.41,0,.49,0,21.09,4.7,41.78,10.68,62.67,15.82,4.63,1.14,7.58,3.56,7.62,8.66-1.34,16.71-4.11,33.24-6.49,49.82-1.37,2.41-1.7,5.18-2.63,7.74-.27.64.23,2.17-1.42,1.23-7.47-3.44-11.32-10.67-16.59-16.32-7.38-7.91-14.55-16.05-21.45-24.39-2.71-3.27-6.07-5.14-10.01-6.27-11.75-3.39-23.65-6.29-35.28-10.13-1.89-.62-3.93-.92-5.54-2.24-4.44-5.97-9.48-11.6-11.25-19.15-7.61-12.09-15.22-24.19-22.82-36.28,4.6-12.97,7.28-26.57,13.07-39.14.39-.45.85-.8,1.39-1.05,4.39.29,5.49,4.21,7.49,7.01,4.44,6.24,5.22,6.36,10.86.93,4.88-4.7,9.29-9.9,14.87-13.85,1.57-1.11,2.89-2.9,5.23-2.27Z"/>
        <path class="cls-14" d="M211.55,586.34c-23.68-3.9-47.35-7.81-71.03-11.7-29.22-4.8-58.43-9.58-87.65-14.39-1.31-.22-2.38-.07-3.22,1.01-1.62-2.03.3-2.72,1.41-3.73,13.25-12.12,26.49-24.24,39.73-36.37,7.2-.71,14.22.71,21.27,1.8,28.25,3.19,56.51,6.24,84.58,10.78,1.99.32,4,.16,6,.2,1.07-.11,2.1.09,3.13.34,7.69,1.37,15.48,2,23.21,3.01,2.82.37,5.53.88,8.01,2.33,4.05,4.44,4.2,10.21,5.33,15.65.07,2.49-.47,4.86-2.33,6.59-8.5,7.9-17.29,15.48-25.69,23.48-.73.7-1.7,1.04-2.75.99Z"/>
        <path class="cls-37" d="M205.48,535.61c-.56.04-1.11.08-1.67.13-14.51-3.88-26.94-12.37-40.56-18.26-12.72-5.5-24.73-12.53-37.45-18.07-4.01-2.59-8.44-4.35-12.71-6.43-2.13-1.04-4.46-1.83-5.23-4.45,4.96-12.27,12.89-22.94,18.69-34.76,3.07-6.26,6.84-12.19,10.29-18.26,3.25-.96,5.24,1.49,7.45,2.97,17.15,11.47,34.5,22.65,52.24,34.32-.09-3.48-2.12-6.33-1.44-9.46,2.04-5.35.68-9.21-4.63-13.08-1.36-1.65-1.97-3.5-1.53-5.64,2.69-3.8-1.54-4.67-2.89-6.76-4.28-9.4-7.61-19.1-9.21-29.34,2.8-4.53,1.14-7.76-3.02-10.26-.42-.78-.5-1.6-.32-2.46,2.61-4.73-1.25-6.77-3.9-9.32-2.14-2.64-2.83-5.72-2.71-9.04,1.46-3.67,5.24-3.49,8.09-4.66,5.29-2.18,10.77-3.88,16.16-5.78,5.26,4.01,4.34,10.3,5.81,15.7-2.83,4.16,1.27,6.19,2.81,9.01,2.41,8.92,5.22,17.75,6.41,26.96-1.71,16.95-2.3,33.97-3.41,50.95-.32,4.96,1.59,8.31,5.94,10.82,5.21,3,9.83,6.96,15.27,9.63,1.21.69,1.84,1.74,1.89,3.13-4.72,13.91-11.45,26.94-17.58,40.25-.71,1.02-1.59,1.83-2.81,2.18Z"/>
        <path class="cls-27" d="M442.52,726.53c5.24,2.66,11.08,1.44,16.56,2.08,16.89,1.97,33.92,2.66,50.88,4.03,9.15.74,18.26,1.87,27.44,3.23-11.98,1.32-23.96,2.63-35.94,3.96-13.71,1.52-27.41,3.15-41.13,4.57-13.53,1.4-27.09,2.52-40.63,3.91-13.72,1.41-27.42,3.07-41.14,4.47-13.73,1.41-27.48,2.65-41.22,3.96-4.58.44-9.27.41-13.73,1.4-11.09,2.45-21.94-.27-32.86-1.04-7.79-.55-15.59-.67-23.39-1.42-24.9-2.37-49.88-3.66-74.81-5.85-12.54-1.1-25.17-1.63-37.75-2.66-17.53-1.45-35.1-2.37-52.67-4.56,13.48-1.72,26.96-3.46,40.45-5.16,25.19-3.18,50.38-6.37,75.58-9.5,4.96-.62,9.96-.97,14.94-1.45,2.55,2.35.74,5.23.98,7.86.86,8.08.86,8.13,9.07,8.15,16.1.04,32.2.05,48.3,0,8.56-.03,8.81-.35,8.21-8.92-1.21-3.18-2.38-6.37-3.67-9.51-.91-2.24-1.7-4.58.41-6.69,12-4.15,24.34-3.3,36.63-2.18,4.79.44,9.51.71,14.27.04,2.96,1.43,2.59,4.18,2.67,6.74,1.09,8.3,1.09,8.36,9.54,8.37,23.86.04,47.73-.06,71.59.08,4.4.02,8.29-.63,11.42-3.91Z"/>
        <path class="cls-38" d="M374.69,550.29c.73-.36,1.47-.73,2.2-1.09,3.23,24.9,6.46,49.8,9.69,74.7-1.17,1.69-2.74,2.88-4.59,3.77-19.72,9.4-39.54,18.58-59.38,27.71-.73.34-1.53.45-2.34.48-2.69-.54-3.69-2.88-4.88-4.87-3.95-6.59-9.03-12.57-11.17-20.17,1.03-9.76,4.54-18.86,7.38-28.14,1.56-3.59,4.12-6.35,7.17-8.75,16.1-12.64,31.75-25.85,47.76-38.62,2.54-2.03,5.65-3.02,8.17-5.03Z"/>
        <path class="cls-38" d="M379.57,445.28c-.08-.82-.17-1.65-.25-2.47-1.77-7.06-2.05-14.1-1.33-21.43,1.21-12.35,1.02-24.84,1.35-37.24.42-15.63,1.58-31.24,1.61-46.89,0-2.94-.84-6.62,3.3-8.01,17.42,26.03,34.85,52.07,52.27,78.1,1.41,2.5.17,4.7-.93,6.81-8.24,15.81-15.11,32.29-23.36,48.09-1.22,2.33-2.37,4.67-4.98,5.76-9.89-6.77-18.16-15.5-27.68-22.72Z"/>
        <path class="cls-26" d="M196.03,383.46c-1.63-5.49-3.25-10.99-4.88-16.48,5.51-2.01,10.77-4.78,16.69-5.58,6.92,24.29,13.84,48.57,20.76,72.86,3.57,3.4,3.53,7.79,3.32,12.22,3.37,12.95,6.58,25.95,10.96,38.62,4.51,6.95,6.46,14.61,6.28,22.85,4.93,18.13,9.87,36.26,14.8,54.4-.27.2-.53.41-.8.62-6.27.86-12.19-1.14-18.22-2.26-2.46-.46-3.68-2.14-4.09-4.51-1.4-5.27-2.8-10.53-4.2-15.8-4.68-6.37-4.77-14.3-7.28-21.41-1.5-8.42-5.57-16.37-4.63-25.23.17-1.06.06-2.04-.78-2.83-2.65-1.7-3.11-4.55-3.76-7.26-4.27-17.72-8.96-35.34-13.67-52.95-1.09-4.08-.61-8.35-2.09-12.31-2.09-9.23-4.18-18.46-6.27-27.68-1.93-2.07-2.28-4.6-2.15-7.27Z"/>
        <path class="cls-13" d="M332.32,102.02c2.01,8.9,4.02,17.79,6.03,26.69-.24.16-.48.31-.72.47-.28-.02-.57-.04-.85-.05-11.68-5.69-14.94-4.65-22.33,7.23-1.9,4.8-.64,10.53-4.35,14.79-4.7,3.02-10.08,3.57-15.43,4.24-.61-.02-1.21-.14-1.79-.35-4.99-3.55-7.52-9.36-12.16-13.24-9.55-7.24-11.21-7.33-20.71-.98-5.51,3.68-11.13,7.21-16.02,11.68,2.75,4.16,7.85,3.19,11.49,5.36,2.14,1.27,5.41,1.84,3.01,5.55-8.58,4.65-18.42,4.83-27.48,7.77-3.23.6-6.41,1.59-9.76,1.28-2.25-.38-3.5-1.89-4.17-3.91-4.11-12.41-7.7-24.97-10.88-37.65-.29-1.15-.25-2.4.14-3.58.49-.99,1.24-1.71,2.23-2.18,11.93-3.03,24.24-3.03,36.37-4.47,17.72-2.1,35.53-3.41,53.23-5.61,9.33-2.59,17.69-7.41,26.35-11.54,2.41-1.15,4.77-3.3,7.8-1.48Z"/>
        <path class="cls-10" d="M208.24,126.41l-1.38,1.1c-4.35,6.84-11.49,10.7-17.18,16.11-1.57,1.49-3.4,2.71-4.96,4.24-17.23,14.09-34.16,28.56-51.12,42.97-.91.77-1.69,1.73-2.92,2.05-4.53-13.73-6.27-28.09-9.49-42.11-1.02-4.45-2.78-8.83-2.22-13.56,2.15-2.1,4.49-3.88,7.23-5.25,18.4-9.23,36.93-18.2,55.48-27.12,1.99-.96,3.97-3.09,6.55-1.12,1.65,2.72,1.35,5.78,1.2,8.71-.24,4.5,1.81,6.76,5.92,8.33,4.37,1.67,9.3,2.21,12.9,5.66Z"/>
        <path class="cls-37" d="M407.26,468c9.76-20.22,19.51-40.44,29.27-60.66,14-1.16,28-2.31,42-3.47,2.3-.52,4.62-1.07,6.04,1.64.09,14.39,2.83,28.64,2.21,43.06-.11,2.61-.12,5.26-2.33,7.2-25.68,4.42-51.28,9.34-77.2,12.23Z"/>
        <path class="cls-37" d="M332.32,102.02c-9.17,4.28-18.33,8.59-27.52,12.83-1.6.74-3.32,1.23-4.98,1.83-2.42-2.12-2.25-5.05-2.27-7.82-.11-16.06-.09-32.12-.01-48.18.01-2.8-.06-5.68,2.21-7.88,13-3.29,26.01-6.57,39-9.87,7.97-2.02,15.92-4.08,23.89-6.13,3.12.2,6.06-2.17,9.9-.45-3.37,5.85-6.67,11.6-9.98,17.35-10.08,16.11-20.15,32.21-30.23,48.32Z"/>
        <path class="cls-37" d="M216.55,326.92c12.67,3.58,25.27,7.48,38.05,10.63,7.32,1.8,12.02,6.23,16.66,11.76,10.8,12.86,22.15,25.26,33.28,37.85-13.42-2.35-26.32-6.73-39.43-10.26-19.13-5.14-38.14-10.69-57.21-16.07-4.77-13.37-10.32-26.46-14.19-40.14,8.56-1.38,15.8,2.05,22.84,6.23Z"/>
        <path class="cls-37" d="M187.61,103.47c-22.88,11.25-45.76,22.49-68.64,33.74,8.64-14.65,17.37-29.24,25.83-43.99,1.83-3.18,4.76-3.42,7.54-4.15,10.99-2.92,22.03-5.67,33.05-8.48,13.98-3.39,27.95-6.78,41.93-10.17,21.4-5.36,42.8-10.73,64.2-16.06,1.14-.28,2.36-.27,3.55-.39-.32,3.56-3.47,4.23-5.86,5.3-21.08,9.43-41.95,19.32-62.99,28.84-10.61,4.8-21.06,9.97-31.8,14.47-2.15.9-4.28,2.5-6.79.89Z"/>
        <path class="cls-37" d="M384.26,329.24c-.96.91-1.13,2.1-1.07,3.32.6,12.22-.95,24.37-1.3,36.56-.7,24.57-1.7,49.14-2.57,73.71-5.31-10.22-7.86-21.46-11.75-32.2-9.09-25.13-17.52-50.5-26.2-75.78-.91-2.65-2.07-5.27-1.71-8.19,11.72.17,23.44.29,35.17.54,3.24.07,6.71-.55,9.44,2.05Z"/>
        <path class="cls-38" d="M177.89,407.69c2.72,10.24,5.78,20.37,9.7,30.23,1.12,1.87,3.17,3.4,2.27,6.04.48,2.01.96,4.01,1.45,6.02,3.82,3.63,5.52,8.01,4.68,13.28,1.08,4,2.16,8.01,3.71,13.75-21.79-14.39-42.31-27.95-62.84-41.51,9.58-19.58,19.02-39.23,30.04-58.07,2.29,2.4,2,5.94,3.79,8.55,2.16,2.86,4.43,5.68,3.47,9.67l.23,2.39c3.35,2.43,4.5,5.65,3.51,9.65Z"/>
        <path class="cls-23" d="M348.26,721.61c-.64-2,.16-4.27-1.17-6.14-3.66-5.27-2.51-11.24-2.5-17.04,1.15-2.68,3.74-3.4,6.11-4.32,7.02-2.74,14.03-5.52,21.1-8.12,3.25-1.2,6.08-2.84,8.42-5.35,3.01-.87,2.95,2.21,4.37,3.39,3.51,3.27,6.83,6.72,10.3,10.04,3.18,3.04,6.6,4.19,10.9,2.42,2.34-.96,4.88-2.1,7.38-.17,9.27,8.12,18.53,16.24,27.8,24.36-.82,3.51-3.87,3.17-6.25,3.2-26.62.28-53.24.21-79.86.07-2.43-.01-4.81-.38-6.59-2.34Z"/>
        <path class="cls-34" d="M307,378.59c1.83-14.49,3.66-28.97,5.48-43.46.3-2.38.56-4.77.83-7.16-1.57-12.99,1.4-25.68,2.62-38.48.3-3.18.62-6.41,3.21-8.78.43-.04.85-.08,1.28-.12,10.07,5.27,20.1,10.63,30.24,15.77,3.53,1.79,5.28,3.17,2.36,7.39-4.88,7.04-9.01,14.6-13.46,21.94-10.45,18.87-20.89,37.75-31.34,56.62-2.93-.41-1.58-2.23-1.23-3.72Z"/>
        <path class="cls-26" d="M342.29,142.27c5.09-1.15,10.21-2.19,15.26-3.49,2.98-.77,4.64-.71,5.43,3.06,2.57,12.18,5.43,24.31,8.54,36.37.98,3.79-.34,4.12-3.39,3.7-6.17-.84-12.35-1.56-18.53-2.33-4.46,2.92-8.92.58-13.3-.17-5.09-.88-10.03-2.75-15.33-2.11-1.35.32-2.66.14-3.92-.41-4.42-2.67-3.71-8.27-6.71-11.76,1.45-4.98-2.18-10,.12-14.98,3.25-4.01,8.26-3.69,12.57-5.04,3.24-1.01,6.56-1.87,9.94-2.36,3.08-.66,6.17-1.03,9.31-.48Z"/>
        <path class="cls-38" d="M229.98,671.03c-1.34-6.44-2.68-12.87-4.01-19.31,0,0,.45-.11.45-.11.43-.59.98-1.03,1.65-1.32,18.36-4.13,37.2-4.95,55.73-7.9,4.13-.66,8.29-1.38,12.51-1.26,2.37.07,4.95-.26,5.99,2.75-.37,10.04-4.61,19.09-7.4,28.5-.4,1.35-1.73,2.11-3.12,2.55-7.32,1.52-14.73.63-22.09.73-10.58.14-21.16.16-31.74-.04-3.41-.06-7-.12-7.97-4.58Z"/>
        <path class="cls-34" d="M320.32,655.35c7.5-5.58,16.51-8.15,24.74-12.26,13.64-6.8,27.65-12.83,41.51-19.19.9,7.2,1.81,14.4,2.71,21.6,1.24,4.1.58,7.28-3.67,9.41-15.71,7.86-31.86,14.75-47.63,22.47-1.26.62-2.64.92-4.07.72-7.18-5.99-11.91-13.46-13.59-22.74Z"/>
        <path class="cls-23" d="M232.39,733.65c.23-2.38.47-4.76.7-7.14,1.19-6.78,2.38-13.56,3.58-20.35,1.56-2.54,4.27-3.03,6.79-3.33,5.4-.63,7.83-3.3,7.25-8.8-.23-2.18-.14-4.46.72-6.54.5-1.22,1.01-2.84,2.99-1.76,2.89,5.36,1.47,11.06,1.35,16.65.2,3.59.6,7.16,1.03,10.74.47,3.97,2.39,5.71,6.3,5.46.8-.05,1.6.01,2.4.01,7.73,0,7.89-.32,5.58-7.87-1.08-3.54-3.44-6.95-1.73-10.96,4.94-3.96,10.77-4.33,16.74-4.18,5.51,6.59,8.71,14.2,9.78,22.71,1.83,4.76,3.66,9.52,5.49,14.27-.88,3.39-3.82,3.35-6.31,3.39-18.88.3-37.77.27-56.66.04-2.25-.03-4.4-.51-5.99-2.35Z"/>
        <path class="cls-38" d="M130.68,192.89c.58-4.75,5.12-6.01,8-8.45,14.92-12.65,29.42-25.82,45.09-37.58,1.79.17,2.83,1.45,3.71,2.76,4.9,7.25,9.81,14.51,14.75,21.74,1.08,1.58,2.32,3.41.66,5.45-2.57,2.22-5.82,2.58-8.94,3.26-11.97,2.59-23.76,5.9-35.72,8.54-6.94,1.53-8.08,3.17-8.49,10.35-.34,5.99-.22,12.04-2.69,17.7-.56.62-1.1.6-1.62-.05-4.92-7.9-9.84-15.81-14.75-23.71Z"/>
        <path class="cls-10" d="M286.3,696.34c-5.54,1.2-11.08,2.41-16.62,3.61-.23-.18-.45-.35-.68-.52-1.69-2.76-1.27-5.84-1.12-8.8.18-3.36-.94-4.78-4.44-4.59-3.17.18-6.42.53-9.54-.57-2.45,4.1-.88,8.59-1.08,12.88-.15,3.22-.57,5.19-4.44,5.5-3.94.31-7.81,1.5-11.71,2.31-2.37-11.69-5.24-23.27-6.7-35.13,1.69,2.6,4.3,2.4,6.93,2.4,18.58-.03,37.16,0,55.75,0,1.57,1.42,1.63,3.33,1.02,5.01-2.19,6.07-1.6,13.31-7.37,17.9Z"/>
        <path class="cls-10" d="M333.57,677.07c7.1-3.16,14.25-6.23,21.3-9.51,9.78-4.56,19.41-9.46,29.26-13.86,3.85-1.72,5.66-4.06,5.15-8.19,1.49,5.57,2.43,11.22,2.33,17.01-5.55,4.2-8.64,9.43-9.85,16.62-.1.59-.53,1.07-.99,1.47.19,2.78-1.13,4.51-3.69,5.44-10.45,3.82-20.88,7.66-31.33,11.5-1.12.51-1.99-.05-2.58-.86-3.67-4.99-6.84-10.3-9.84-15.71-.69-1.24-.89-2.67.22-3.91Z"/>
        <path class="cls-13" d="M483.52,405.29c-1.25-1.92-3.37-.78-4.99-1.42,5.17-.46,7.53-3.9,9.82-8.17,4.45-8.28,9.72-16.12,14.37-24.29,3.24-5.7,7.23-1.88,10.95-1.25,4.26.72,3.16,3.57,2.51,6.45-1.33,5.84-2.19,11.79-3.6,17.61-1.17,4.82-.23,7.26,5.27,6.26.96-.18,2,.06,3,.11.02.62-.09,1.49-.6,1.55-7.95.92-8.48,7.16-9.52,13.08-.24,1.38-.68,2.72-1.5,3.91-6.05,4.91-13.55,6.45-20.68,8.76-3.17,1.03-4.61-.76-4.63-4.19-.03-6.14.6-12.31-.39-18.43Z"/>
        <path class="cls-13" d="M145.43,216.6c.36.06.72.06,1.08,0,8.11-7.13,16.04-14.51,26.41-18.43,2.13.62,3.47,2.22,4.78,3.85,5.43,7.67,10.7,15.46,16.06,23.19,1.46,2.11,4.26,4.08,2.15,7.34l.06-.07c-7.81,8.33-16.94,14.96-26.77,20.69-7.92-12.19-15.85-24.39-23.77-36.58Z"/>
        <path class="cls-19" d="M348.26,721.61c29.18.02,58.35.04,87.53.03,1.76,0,3.66.48,5.17-.96,2.37,1.45.91,3.93,1.55,5.84.57,5.14-1.97,6.14-6.71,6.1-26.48-.23-52.95-.11-79.43-.11q-8.39,0-8.25-8.51c.01-.8.09-1.6.14-2.4Z"/>
        <path class="cls-13" d="M540.14,416.18c.39,8.99.74,17.99,1.2,26.98.17,3.29-.89,4.94-4.39,5.87-7.15,1.89-14.11,4.47-21.14,6.77-5.26-7.49-5.63-16.23-6.33-24.89,1.57-4.31-1.02-9.66,3.32-13.29,7.66-2.71,15.73-2.26,23.63-3.03,1.4-.14,2.76.38,3.71,1.58Z"/>
        <path class="cls-15" d="M511.1,430.71c.35,8.6,3.39,16.68,4.72,25.09-10.45-.01-20.91-.02-31.36-.03,1.15-16.86-1.98-33.63-.94-50.48,2.04,4.77.79,9.78.96,14.67.27,7.5.09,7.49,6.93,4.95,5.77-2.13,11.55-4.22,17.33-6.32.23.2.46.4.7.6,1.39,3.72,1.2,7.66,1.66,11.52Z"/>
        <path class="cls-12" d="M540.14,416.18c-9.27.83-18.53,1.67-27.8,2.5-1.25.88-2.46.88-3.64-.13,0,0,.04.04.04.04,0-.98-.09-1.98.01-2.95.82-7.59,1.47-15.33,12.09-15.05,13.42-.8,26.83-1.69,40.25-2.3,2.33-.11,6.34-2.11,6.49,2.64.12,3.73,2.19,8.51-4.68,9.65-7.68,1.28-15.18,3.68-22.76,5.6Z"/>
        <path class="cls-26" d="M107.87,488.52c6.07,3.36,12.97,5.15,18.48,9.6.26.54.64,1.2.41,1.69-4.09,8.96-8.16,17.93-15.28,25.04-6.77-1.93-14.2-.18-20.69-3.69,5.69-10.88,11.39-21.76,17.08-32.64Z"/>
        <path class="cls-39" d="M169.2,253.18c8-8.09,17.38-14.39,26.77-20.68-3.77,12-7.51,24.01-11.37,35.99-.5,1.55-.44,3.81-3,3.89-4.13-6.4-8.27-12.8-12.4-19.2Z"/>
        <path class="cls-19" d="M413.17,696.34c-.4.02-.88-.1-1.19.08-10.53,6.06-17.87,1.15-24.39-6.96-1.23-1.53-2.96-2.66-4.45-3.98,1.5-5.84,6.32-5.71,10.88-6.03,6.38,5.63,12.76,11.26,19.15,16.89Z"/>
        <path class="cls-3" d="M394.02,679.45c-3.14,2.88-8.26,2.2-10.88,6.03-.79-1.62-1.58-3.25-2.36-4.87-.06-.99,0-1.99-.18-2.96q-2.4-12.99,11.02-15.14c1.62,5.53,2.28,11.19,2.41,16.93Z"/>
        <path class="cls-11" d="M216.55,326.92c-7.61-2.08-15.23-4.15-22.84-6.23,2.68-4.81,7.08-8.08,10.72-12.03,4.04,6.09,8.08,12.17,12.13,18.26Z"/>
        <path class="cls-16" d="M320.31,175.84c9.76,1.25,19.53,2.5,29.29,3.75.32,1.97.63,3.95.95,5.92-8.8-1.21-16.63-5.75-25.31-7.37-1.25-1.62-4.56,1.19-4.93-2.31Z"/>
        <path class="cls-33" d="M342.29,142.27c-2.75,1.21-5.63,1.89-8.64,2.04-2.37-6.1.6-10.9,3.82-15.64.29.01.58.02.87.03,1.23,4.54,1.34,9.42,3.94,13.56Z"/>
        <path class="cls-38" d="M187.61,103.47c18.45-8.29,36.93-16.51,55.35-24.87,15.69-7.12,31.31-14.39,46.94-21.64,1.8-.83,3.45-1.98,5.17-2.99,1.49-.66,2.95-1.48,4.68-1.17.03,21.29.05,42.59.08,63.88-11.62,2.35-23.47,2.83-35.22,4.1-18.77,2.02-37.58,3.76-56.36,5.62-6.59-.07-12.03-3.92-18.13-5.59-2.33-.64-2.65-2.65-2.61-4.8.09-4.18.08-8.37.11-12.55Z"/>
        <path class="cls-10" d="M374.69,550.29c-8.94,8.84-19.53,15.7-28.86,24.06-10.66,9.55-23.25,16.83-32.63,27.87-14.75-6.81-29.72-13.11-44.54-19.8-3.46-6.28-6.03-12.8-5.19-20.19,0,0,.48.13.49.13,8.88,1.43,17.81,2.63,26.63,4.4,4.32.87,6.41-.1,8.17-4.33,5.46-13.15,11.43-26.08,17.34-39.41,3.2,1.82,4.23,4.99,5.84,7.61,5.55,9.07,11.07,18.17,16.39,27.37,1.9,3.29,3.59,4.27,7.54,2.66,9.45-3.84,19.2-6.96,28.83-10.37Z"/>
        <path class="cls-3" d="M249.15,507.96c-2.68-7.46-4.81-15.07-6.28-22.85,20.97-9.31,41.95-18.63,62.92-27.94,1.73.99,2.43,2.69,2.74,4.48,3.24,18.36,6.47,36.73,8.73,55.25,0,.7-.17,1.35-.53,1.95-11.27-.97-22.28-3.52-33.42-5.32-11.39-1.85-22.78-3.7-34.16-5.56Z"/>
        <path class="cls-3" d="M316.73,518.84c0-.42-.01-.84-.02-1.26-2.85-18.04-2.44-36.22-2.19-54.39.03-2.2.32-4.42,2.22-5.99,18.22,9.32,36.45,18.64,54.66,27.99,1.91.98,4.84,1.57,4.77,4.04-.07,2.33-3.14,2.01-4.84,2.85-18.16,8.98-36.38,17.86-54.59,26.76Z"/>
        <path class="cls-5" d="M316.74,457.2c0,20.13-.02,40.26-.03,60.38-3.54-9.6-3.75-19.86-5.83-29.75-2.13-10.13-3.43-20.43-5.09-30.66,0-20.44,0-40.88,0-61.31.29-.02.57-.04.86-.06,3.36,20.47,6.73,40.93,10.09,61.4Z"/>
        <path class="cls-5" d="M231.92,446.49c-1.11-4.07-2.21-8.15-3.32-12.22,14.44-2.2,28.87-4.4,43.31-6.58,4.55-.69,9.29-.73,13.62-2.09,5.07-1.6,4.61,2.05,5.42,4.61,1.12,3.54-1.15,4.72-4.04,5.18-15.61,2.48-31.25,4.83-46.83,7.46-2.9.49-6.67-.26-8.17,3.65Z"/>
        <path class="cls-28" d="M307,378.59c.15,1.33-.09,2.78,1.23,3.72-.38,1.44-.89,2.81-2.28,3.62,0-2.5-.6-5.08,1.05-7.34Z"/>
        <path class="cls-39" d="M319.14,280.72c-1.94,15.75-3.89,31.5-5.83,47.26.44-4.17-2.04-5.3-5.61-6.19-21.97-5.47-43.88-11.16-65.82-16.78-.68-.62-1.98-.93-1.16-2.31,5.21-1.61,10.41-3.22,15.62-4.84,18.1-4.37,35.79-10.18,53.67-15.32,2.97-.85,5.82-2.58,9.14-1.82Z"/>
        <path class="cls-38" d="M195.91,232.57c-3.89-8.41-10.18-15.25-15.08-22.99-1.49-2.36-3.03-4.7-4.55-7.05,3.56-3.64,8.32-2.24,12.51-2.69,9.5-1,19.06-1.78,28.64-1.43,1,.21,1.92.63,2.75,1.23,5.85,6.03,9.96,13.18,13.21,20.87.37,1.17.74,2.33,1.11,3.5-7.91,6.09-14.83,13.27-21.96,20.2-3.3,3.2-5.65,3.35-8.31-.96-2.36-3.81-4.28-8.12-8.32-10.68Z"/>
        <path class="cls-12" d="M256.86,237.63c31.39-7.6,61.19-14.81,91.87-22.24-2.3,8.3-7.98,14.09-10.46,21.27-4.02,11.65-14.64,11.4-23.77,13.92-2.69.74-5.75.46-8.22,1.58-10.27,4.69-19.18,1.76-28.15-3.71-6.28-3.83-13.13-6.73-21.28-10.83Z"/>
        <path class="cls-8" d="M310.71,164.8c2.53-.17,3.33,1.22,3.76,3.53.46,2.49.75,5.12,2.37,7.27,2.97,3.2,3.16,6.99,2.34,10.99.86,6.94,4.99,13.35,3.41,20.69-4.55,2.16-9.1,4.36-14.33,2.33-.78-1.62-1.55-3.24-2.33-4.86-2.58-1.68-3.18-4.44-3.88-7.14-1.84-7.13-3-14.42-4.91-21.53-.96-3.65-2.12-7.36,2.25-9.78,3.68-1.18,7.21-3.5,11.32-1.51Z"/>
        <path class="cls-39" d="M289.01,186.72c-11.18,9.34-22.37,18.67-33.54,28.02q-7.29,6.11-13.49-1.51c.29-.52.67-.96,1.15-1.31,13.23-7.3,25.28-16.46,38.21-24.23,2.31-1.39,4.35-3.85,7.6-2.53.29.33.4.68.33,1.03-.08.36-.16.53-.25.53Z"/>
        <path class="cls-18" d="M243.17,213.2c-.4.02-.8.02-1.2.02-4.46-3.99-8.92-7.98-13.38-11.97-2.88.93-5.75.44-8.62-.11-.37-.41-.75-.82-1.12-1.23-2.46-1.71-5.37-3.23-2.93-7,6.8-2.88,13.96-2.82,21.14-2.56,5.82,6.6,7.46,14.32,6.1,22.84Z"/>
        <path class="cls-12" d="M289.01,186.72c.04-.4.05-.8.05-1.19,2.14-4.35,6.38-6.61,9.72-9.76,2.39,9.67,4.77,19.33,7.16,29-.61,2.79-1.52,1.48-2.43.17-3.4-4.87-6.81-9.74-10.18-14.63-1.11-1.61-1.86-3.61-4.31-3.6Z"/>
        <path class="cls-24" d="M219.97,201.15c2.89-1.79,5.77-1.84,8.62.11.79,6.62,4.38,12.54,4.81,19.25-4.47-6.45-8.95-12.91-13.42-19.36Z"/>
        <path class="cls-17" d="M308.26,209.62c4.77-.79,9.3-3.09,14.33-2.33-.22.55-.4,1.13-.68,1.65-5.34,10.17-6.5,10.23-13.65.68Z"/>
        <path class="cls-1" d="M319.18,186.6c-.8-3.66-2.44-7.14-2.34-10.99,1.16.08,2.32.15,3.48.23,1.64.77,3.29,1.54,4.93,2.31-5.8.11-2.99,6.39-6.07,8.46Z"/>
        <path class="cls-32" d="M263.47,562.22c2.05,6.46,4.1,12.93,6.15,19.39,4.58,7.33,5.95,15.66,7.31,23.95.42,2.53-1.28,4.63-3.14,6.24-14.12,12.22-27.97,24.74-41.91,37.17-1.39,1.24-3.15,1.74-4.73,2.61-.25-.01-.5,0-.74.03-4.16-13.13-6.7-26.67-9.79-40.06-1.92-8.34-4.75-16.53-5.07-25.21,7.46-9,16.9-15.91,25.34-23.86,1.96-1.85,4.02-3.3,3.96-6.28,4.2,4.8,10.44,2.99,15.58,4.76,2.23.77,4.68.86,7.04,1.25Z"/>
        <path class="cls-31" d="M103.14,592.82c1.89,1.36,3.1,2.35,4.42,3.16,1.79,1.11,3.59,2.28,2.55,4.71-1.05,2.44-1.1,5.72-4.71,6.3-1.98.32-3.93.75-5.92,1.01-1.8.23-3.61.51-4.05-2.17-.35-2.14.75-3.01,2.44-3.43,4.9-1.2,6.75-2.83,1.14-6.04-2.88-1.65-2.29-4.45-1.83-6.99.54-3,3.12-2.62,5.26-2.76,2.2-.14,4.41-.13,6.61-.16,1.65-.02,3.27-.04,3.54,2.22.27,2.29-1.2,2.57-2.92,2.82-1.91.28-3.8.76-6.52,1.33Z"/>
        <path class="cls-4" d="M154.91,617.91c-2.52-.89-4.08-2.02-2.96-5.28,1.23-3.58,2.12-7.36,2.5-11.12.44-4.39,2.42-5,6.35-4.28,7.39,1.36,7.52,1.17,5.45,8.53-.85,3.01-1.12,5.8.28,8.74.59,1.24,2.42,3.03.46,4.18-2.06,1.21-3.74-.19-4.88-2.16-.7-1.21-1.61-2.3-2.43-3.44-2.53-.62-1.65,1.37-1.72,2.41-.15,2.01-.45,3.58-3.04,2.42Z"/>
        <path class="cls-4" d="M147.58,604.91c0,1.4-.09,2.81.02,4.21.32,3.98-1.06,5.17-5.26,4.5-9.39-1.5-9.43-1.26-8.21-10.94,1.05-8.3,2.48-9.28,10.27-7.06q3.48.99,3.18,9.29Z"/>
        <path class="cls-31" d="M129.65,596.76c.64,5.04-.64,7.92-6.52,6.21-4.56-1.32-2.81,2.4-3.21,4.37-.3,1.47,1.12,4.11-2.32,3.47-2.45-.46-4.19-1.4-3.44-4.43.82-3.31,1.81-6.62,2.17-9.99.67-6.32,3.72-7.24,9.39-5.59,3.63,1.06,5.61,2.01,3.92,5.96Z"/>
        <path class="cls-4" d="M180.17,601.27c2.4,0,4.81-.04,7.21.02,1.64.04,2.67.82,2.47,2.62-.17,1.51-1.28,2.08-2.56,1.85-5.68-1.03-6.24,2.46-6.07,6.69.02.39,0,.89-.21,1.17-1.56,1.99,1.54,7.36-3.83,6.3-5.65-1.11-1.6-5.07-1.28-7.69.35-2.86,2.51-5.96-2.51-6.8-1.43-.24-1.72-1.52-1.42-2.83.26-1.13,1.12-1.63,2.19-1.65,2-.05,4.01-.01,6.01-.01,0,.11,0,.22,0,.34Z"/>
        <path class="cls-6" d="M154.91,617.91c4.71-.94.96-5.11,3.07-7.22,1.21.08,1.22,1.45,1.7,2.4-1.28.94-.96,2.38-1.2,3.67-.45,2.49-1.74,2.75-3.57,1.16Z"/>
        <path class="cls-25" d="M240.72,302.69c.39.77.77,1.54,1.16,2.31-1.05-.05-2.46.37-2.88-.89-.45-1.32.88-1.25,1.73-1.42Z"/>
        <path class="cls-19" d="M230.9,518.53c2.41,7.16,4.33,14.45,5.75,21.87-9.31-1.17-18.62-2.36-27.94-3.51-1.21-.15-2.4-.25-3.24-1.29.41-.74.82-1.48,1.23-2.23,5.73-4.91,11.87-9.27,18.24-13.3,1.77-1.12,3.5-2.86,5.95-1.55Z"/>
        <path class="cls-19" d="M204.45,418.42c1.42.75,1.66,2.24,1.99,3.53,5.88,22.99,11.7,45.98,17.53,68.98-1.78,1.52-2.96-.13-4.19-.91-5.25-3.31-10.38-6.8-15.67-10.04-2.79-1.71-3.51-4.05-3.38-7.11.79-18.18,1.72-36.36,3.72-54.45Z"/>
        <path class="cls-13" d="M230.9,518.53c-6.71,3.39-12.44,8.26-18.7,12.32-1.65,1.07-2.93,3.31-5.48,2.53,6.01-13.2,12.02-26.41,18.03-39.61,2.05,8.26,4.1,16.51,6.16,24.77Z"/>
        <path class="cls-37" d="M195.98,463.26c-1.56-4.43-3.12-8.85-4.68-13.28,5.97,1.6,8.45,8.67,4.68,13.28Z"/>
        <path class="cls-37" d="M177.89,407.69c-1.17-3.22-2.34-6.43-3.51-9.65,6.15,1.55,7.38,4.95,3.51,9.65Z"/>
        <path class="cls-37" d="M174.15,395.65c-1.95-2.94-2.64-6.33-3.47-9.67,5.88,3.35,6.97,6.38,3.47,9.67Z"/>
        <path class="cls-37" d="M196.03,383.46c1.5,2.19,1.62,4.8,2.15,7.27-3.34-1.65-6.79-3.27-2.15-7.27Z"/>
        <path class="cls-37" d="M189.86,443.95c-1.47-1.74-1.88-3.89-2.27-6.04,1.68,1.66,7.7,1.7,2.27,6.04Z"/>
        <path class="cls-19" d="M232.39,733.65c21.28.03,42.55.07,63.83.09,1.79,0,3.65.21,5.13-1.18.24.54.64,1.07.69,1.63,1.06,10.34,1,10.4-9.29,10.4-16.85,0-33.71,0-50.56,0q-10.49,0-9.8-10.95Z"/>
        <path class="cls-37" d="M305.61,631.56c-2.69,3.85-2.22,8.81-4.5,12.8-3.04-2.9-6.75-1.27-9.91-.89-20.58,2.47-41.1,5.36-61.65,8.1-.79.1-1.6,0-2.4,0,10.03-11.01,22.11-19.78,32.8-30.06,2.31-2.22,4.42-4.93,7.18-6.37,9.15-4.8,9.05-11.82,5.96-20.18-1.58-4.29-2.35-8.89-3.48-13.35,14.14,4.78,27.43,11.58,41.08,17.53,1.35.59,2.34,1.5,2.51,3.07-1.93,9.94-6.19,19.27-7.59,29.35Z"/>
        <path class="cls-26" d="M298.77,175.77c-.97,5.52-6.06,6.93-9.72,9.76-9.77,4.58-18.28,11.22-27.38,16.9-6.06,3.78-11.58,8.49-18.51,10.77-1.85-7.31-2.68-14.9-6.16-21.75-3.65-6.85-5.31-14.29-6.32-21.9,9.35-2.39,18.7-4.77,28.05-7.16,1.22-1.34,2.59-2.43,4.4-2.91,8.26-2.17,16.54-4.27,24.86-6.19,1.6-.37,3.16-.15,4.63.59.39.13.78.25,1.17.38,3.76,3.62,3.11,9.34,6.3,13.23-4.95,2.03-1.09,5.48-1.33,8.27Z"/>
        <path class="cls-20" d="M230.69,169.55c4.03,6.74,5.55,14.22,6.32,21.9-7.21.84-14.42,1.67-21.64,2.51-2.07,2.35-5.04,2.43-7.76,2.72-8.77.94-17.55,1.81-26.31,2.87-2.84.34-5.59-.12-8.33-.8-7.13,5.04-14.25,10.11-21.42,15.1-1.57,1.09-2.74,3-5.05,2.76.42-6.79.92-13.57,1.25-20.36.28-5.66,3.26-8.32,8.71-9.5,13.88-3.01,27.67-6.42,41.49-9.69,1.75-.41,3.49-.91,5.23-1.37,5.2-4.99,11.78-4.53,18.23-4.61,3.09-.51,6.18-1.02,9.28-1.53Z"/>
        <path class="cls-24" d="M221.41,171.08c-6.08,1.54-12.15,3.08-18.23,4.61-6.47-9.61-12.94-19.23-19.41-28.84,7.38-6.83,14.83-13.56,23.09-19.34,3.92,13.18,7.85,26.35,11.72,39.54.5,1.71.47,3.67,2.82,4.03Z"/>
        <path class="cls-24" d="M292.63,153.89c-11.3,2.84-22.6,5.67-33.89,8.51-4.1-5.08-10.66-4.6-15.98-6.9-2.91-1.26-2.81-2.14-.81-3.93,10.49-4.3,21.26-7.79,32.14-10.92,2.47-.71,4.98-1.67,7.43.12,4.96,3.32,7.85,8.38,11.12,13.13Z"/>
        <path class="cls-24" d="M337.47,128.68c-.08,5.5-3.59,10.17-3.82,15.64-7.66,2.08-15.33,4.16-22.99,6.24-.5.3-.91.23-1.22-.29,2.34-4.9,1.14-10.62,3.54-15.51,5.13-3.06,10.83-4.68,16.5-6.34,2.45-.72,4.98-1.47,7.4.18l.59.08Z"/>
        <path class="cls-2" d="M281.51,140.76c-9.76,2.04-19.06,5.6-28.55,8.57-3.58,1.12-7.12,2.65-11.02,2.23,7.84-5.52,15.71-11,23.5-16.58,2.24-1.6,4.29-1.82,6.58-.18,3.04,2.18,7.29,2.44,9.49,5.96Z"/>
        <path class="cls-20" d="M309.44,150.27c.41.1.82.19,1.22.29.58,2.69.88,5.49,1.81,8.05.98,2.7.37,4.57-1.77,6.2-3.54.9-7.07,1.8-10.61,2.7-2.21-.07-3.7-.73-4.09-3.34-.49-3.33-1.45-6.6-2.21-9.89,5.21-1.33,10.43-2.67,15.64-4Z"/>
        <path class="cls-9" d="M336.89,128.6c-8.25.96-15.53,5.69-23.9,6.16,2.18-2.29,4.35-4.6,6.54-6.87,6.07-6.3,11.02-6.09,17.36.71Z"/>
        <path class="cls-19" d="M269.68,699.95c1.67,5.35,3.19,10.75,5.06,16.03,1.12,3.17.49,4.61-2.98,4.42-.2-.01-.4,0-.6,0-16.29.8-17.05.06-17.22-16.79,4.42-4.59,9.74-5.29,15.6-3.56l.14-.1Z"/>
        <path class="cls-3" d="M269.54,700.05c-5.2,1.19-10.4,2.38-15.6,3.56-.01-6.05-.03-12.09-.04-18.14,4.63-2.5,9.76-.55,14.6-1.56,2.07-.43,1.41,1.69,1.36,3.04-.16,4.37-.22,8.74-.31,13.11Z"/>
        <path class="cls-35" d="M172.98,198.75c9.05-2.28,18.41-2.13,27.57-3.54,4.89-.75,9.88-.85,14.83-1.25,1.16,1.99,2.32,3.97,3.48,5.96-14.19.87-28.38,1.74-42.57,2.61-1.1-1.26-2.2-2.52-3.31-3.78Z"/>
        <path class="cls-21" d="M182.23,229.06c-9.57-2.74-17.57-5.03-26.16-7.49,4.13-4.38,8.93-6.59,13-9.73,1.39-1.07,2.58-.96,3.49.6,2.98,5.1,5.95,10.22,9.67,16.63Z"/>
        <path class="cls-13" d="M508.7,418.55c1.21.04,2.43.08,3.64.13-1.04,3.94.61,8.17-1.24,12.03-1.66-3.88-2.48-7.93-2.4-12.15Z"/>
        <path class="cls-29" d="M339.22,223.55c-3.81,6.5-6.87,11.65-9.84,16.84-1.02,1.78-2.69,2.38-4.44,2.79-9.38,2.19-18.79,4.22-28.15,6.5-2.53.62-4.63.39-6.85-.94-4.92-2.95-9.94-5.72-16.35-9.37,22.51-5.43,43.38-10.46,65.63-15.82Z"/>
        <path class="cls-7" d="M161.86,604.06c-.26,1.07-.87,1.76-2.04,1.68-1.65-.11-2.52-1.04-2.36-2.7.1-1.02.5-2.04,1.81-1.7,1.35.35,2.6.99,2.59,2.72Z"/>
        <path class="cls-36" d="M140.71,601.06c1.83.45,3.82.93,2.72,3.49-.69,1.59-.04,4.52-3.28,4.03-1.97-.3-3.56-1-2.6-3.54.63-1.67-.19-4.46,3.16-3.98Z"/>
        <path class="cls-30" d="M121.38,594.22c1.32.48,2.63,1.14,2.85,2.62.17,1.2-.33,2.43-1.92,2.15-1.43-.25-2.53-1.02-2.41-2.75.07-.99.16-1.96,1.48-2.02Z"/>
      </g>
    </g>
  </g>
</svg>