<?xml version="1.0" encoding="UTF-8"?>
<svg xmlns="http://www.w3.org/2000/svg" version="1.1" viewBox="0 0 636.44 799">
  <defs>
    <style>
      .cls-1 {
        fill: #2b2b2b;
      }

      .cls-2 {
        fill: #c7ab3d;
      }

      .cls-3 {
        fill: #fefdfd;
      }

      .cls-4 {
        fill: #e3c956;
      }

      .cls-5 {
        fill: #d8bba4;
      }

      .cls-6 {
        fill: #896b58;
      }

      .cls-7 {
        fill: #e2c9b7;
      }

      .cls-8 {
        fill: #b89576;
      }

      .cls-9 {
        fill: #8e8e8e;
      }

      .cls-10 {
        fill: #987726;
      }

      .cls-11 {
        fill: #997827;
      }

      .cls-12 {
        fill: #72581a;
      }

      .cls-13 {
        fill: #bc987e;
      }

      .cls-14 {
        fill: #bc987d;
      }

      .cls-15 {
        fill: #d9bca6;
      }

      .cls-16 {
        fill: #2d2c2c;
      }

      .cls-17 {
        fill: #bc977e;
      }

      .cls-18 {
        fill: #846754;
      }

      .cls-19 {
        fill: #dfc54d;
      }

      .cls-20 {
        fill: #464646;
      }

      .cls-21 {
        fill: #bd987e;
      }

      .cls-22 {
        fill: #997726;
      }

      .cls-23 {
        fill: #bc977d;
      }

      .cls-24 {
        fill: #80631f;
      }

      .cls-25 {
        fill: #4f5252;
      }

      .cls-26 {
        fill: #ded5c2;
      }

      .cls-27 {
        fill: #997727;
      }

      .cls-28 {
        fill: #7f631e;
      }

      .cls-29 {
        fill: #6e7073;
      }

      .cls-30 {
        fill: #836652;
      }

      .cls-31 {
        fill: #d7b9a2;
      }

      .cls-32 {
        fill: #2d2d2c;
      }

      .cls-33 {
        fill: #9a7828;
      }

      .cls-34 {
        fill: #6c6d6d;
      }

      .cls-35 {
        fill: #715719;
      }

      .cls-36 {
        fill: #967853;
      }

      .cls-37 {
        fill: #b99679;
      }

      .cls-38 {
        fill: #71571a;
      }

      .cls-39 {
        fill: #d8bba5;
      }

      .cls-40 {
        fill: #80631e;
      }

      .cls-41 {
        fill: #856754;
      }
    </style>
  </defs>
  <!-- Generator: Adobe Illustrator 28.7.1, SVG Export Plug-In . SVG Version: 1.2.0 Build 142)  -->
  <g>
    <g id="Layer_1">
      <g id="Layer_1-2" data-name="Layer_1">
        <g>
          <path class="cls-4" d="M334.39,526.97c8.77,7.5,18.63,13.47,28.03,20.08,8.51,5.98,17.2,11.7,25.82,17.53.82,1.24.39,2.29-.49,3.29-1.52,1.49-2.8,3.19-4.34,4.67-15.19,13.61-30.43,27.17-45.4,41.04-11.88,9.56-22.53,20.51-34.03,30.51-4.18,3.62-8.38,7.15-13.17,9.93l.04-.06c-3.96,1.81-5.06-1.68-6.55-3.81-7.1-10.17-14.06-20.46-20.91-30.8-17.48-26.43-35.46-52.52-52.91-78.98-1.92-2.9-2.83-6.35-5.3-8.89-1.61-1.97-.78-3.56.64-5.25,15.45-18.32,30.86-36.67,46.28-55.02,2.52-1.04,4.24.65,6,1.86,23.89,16.46,47.96,32.66,71.86,49.11,1.84,1.27,3.62,2.57,4.42,4.79h.01Z"/>
          <path class="cls-35" d="M334.39,526.97c-22.34-15.09-44.68-30.18-67.01-45.28-5.11-3.46-10.18-6.98-15.27-10.47-.52-11.98-1.03-23.96-1.55-35.94-1-4.75-.04-9.59-.54-14.35-.41-2.89,1.5-4.64,3.47-5.96,23.56-15.7,47-31.63,71.54-45.83.65-.14,1.32-.14,1.98-.04,12.68,6.35,23.65,15.39,35.77,22.65,8.33,4.99,16.3,10.58,24.27,16.17,2.38,1.67,5.66,3.26,3.72,7.3-14.93,29.56-29.87,59.11-44.79,88.67-3.88,7.68-7.72,15.38-11.59,23.08h.01Z"/>
          <path class="cls-20" d="M514.57,92.48c-7.5,4.07-14.99,8.13-22.5,12.2-2.78,4.38-7.51,6.21-11.74,8.48-28.34,15.24-56.51,30.8-84.88,45.98-5.01,2.19-10.06,4.32-12.6,9.73-2.23-1.07-4.11-1.07-6.53.32-11.51,6.67-23.44,12.61-35,19.19-5.1,2.9-9.42,2.75-14.31-.03-3.65-2.08-7.16-4.46-11.14-5.96-.62-.19-1.21-.45-1.78-.76-16.65-9.5-33.75-18.18-50.4-27.68-2.68-1.53-5.49-2.84-7.72-5.04-13.8-7.92-28.15-14.83-41.76-23.07-2.09-1.26-6.02-1.68-4.36-5.93,2.28-1.34,4.93-1.53,7.38-2.34,29.94-3.19,59.89-6.34,89.87-9.22,30.65-2.94,61.33-5.69,91.98-8.66,29.99-2.91,59.97-6,89.97-8.82,6.18-.59,12.39-.69,18.56-1.44,2.62-.32,5.96-.92,6.94,3.08v-.02Z"/>
          <path class="cls-9" d="M514.57,92.48c-7.87-2.74-15.67.29-23.44.71-16.55.89-33.03,3.1-49.54,4.75-25.99,2.58-51.97,5.21-77.96,7.69-20.93,1.99-41.89,3.7-62.83,5.74-19.6,1.91-39.16,4.12-58.77,6.07-8.59.85-17.22,1.35-25.83,2.02-1.53.74-2.73.71-3.09-1.31,1.88-3.5,5.59-4.17,8.81-5.44,47.34-18.83,94.45-38.21,141.79-57.06,13.58-5.41,26.92-11.41,40.62-16.52,2.91-1.09,5.78-2.23,8.94-2.31,10.31-2.05,19.44-7.3,29.21-10.83,5.82-2.09,11.74-6.45,17.31-6.02,5.67.43,7.98,8.19,11.69,12.74,14.73,18.04,29.18,36.31,43.78,54.46,1.7,2.11,3.32,4.05-.71,5.32l.02-.02Z"/>
          <path class="cls-15" d="M448.13,242.15c-5.37,10.48-7.85,22.02-11.79,33.03-3.88,10.81-7.41,21.75-10.83,32.73-1.29,4.14-3.13,4.85-7.25,3.54-20.18-6.44-40.46-12.55-60.71-18.77-.89,0-1.81.42-2.63.18-13.55-3.9-27.17-7.58-40.21-13.08-.82-.34-1.36-1.11-1.83-1.87-.71-2.66-.28-5.29.34-7.87,5.49-22.59,10.67-45.25,16.01-67.88.31-1.3.83-2.52,1.4-3.72.86-1.6,2.17-2.84,3.77-3.61,15.65-7.66,30.54-16.81,46.5-23.87.61-.27,1.27-.34,1.94-.43,3.93.51,7.38,2.15,10.54,4.49,5.32,7.29,3.76,15.98,4.81,24.13.31,2.36-.38,4.84,1.05,7.03.86,1.9.73,3.89.53,5.88.14.88.43,1.72.75,2.54,2.29,5.8,3.41,6.06,8.42,2.15.9-.71,1.51-1.61,2.11-2.54,3.98-5.06,3.03-12.49,8.15-17.01,5.43-3.19,9.08-8.98,15.52-10.72,1.13.12,2.09.64,2.94,1.36,3.05,2.57,6.17,3.24,9.51.52,3.45-2.8,2.83-6.07,1.11-9.49-.5-.99-.83-2.03-.84-3.16,1.07-3.81,4.31-5.76,7.03-8.18,1.7-1.51,4.28-2.6,2.7-5.69-2.58-5.16-5.95-9.86-8.64-14.94-1.32-2.49-3.13-4.93-2.19-8.08,4.28-5.19,10.92-6.57,16.27-10.05,5.56-3.62,11.74-6.26,17.78-9.05,2.49-1.15,5.43-2.9,7.39,1.02.64,2.76-.44,5.25-1.29,7.76-4.24,12.61-8.32,25.28-12.62,37.86-3.2,10.11-6.38,20.21-9.59,30.31-4.49,12.23-8.18,24.74-12.42,37.05-1.01,2.93-1.92,5.88-3.73,8.43v.02Z"/>
          <path class="cls-25" d="M413.29,36.79c-7.27,5.31-16.07,7.25-24.2,10.55-58.44,23.74-117,47.16-175.51,70.67-.9,1.46-2.12,2.21-3.88,1.74-.47-.45-.7-1.01-.66-1.66,2.72-7.05,8.6-11.74,13.25-17.27,11.4-13.54,23.08-26.85,34.43-40.43,2.46-2.95,5.22-5.13,8.58-6.75,14.51-17.08,29.04-34.13,43.49-51.26,1.73-2.05,3.04-3.05,6.05-1.92,32.77,12.22,65.62,24.25,98.46,36.33h0Z"/>
          <path class="cls-26" d="M282.78,764.61c9.08-2.97,18.66-2.36,27.92-4.06,24.59-4.5,48.66,1.02,72.89,3.81,25.21,2.9,50.46,5.4,75.67,8.25,18.63,2.11,37.24,4.5,55.84,6.78.62.08,1.32.3,1.1,1.92-9.72,1.05-19.64,2.24-29.58,3.19-23.28,2.24-46.57,4.4-69.86,6.51-16.27,1.47-32.56,2.72-48.83,4.22-12.08,1.12-24.12,3.07-36.21,3.57-10.57.43-21.32.23-31.76-1.27-11.24-1.63-22.5-1.07-33.73-2.04-26.2-2.25-52.55-2.56-78.78-4.48-22.04-1.61-44.09-3.08-66.17-3.93-6.37-.24-12.7-1.67-19.17-1.5,7.14-3.42,14.99-2.58,22.46-3.54,31.07-3.96,62.22-7.31,93.35-10.82,2.08-.23,3.3-1.01,3.77-2.99,3.32.95,3.32,3.97,3.6,6.45.65,5.83,3.86,7.59,9.42,7.59,11.5-.01,23.02-.63,34.5.39,6.95,1.88,14.02,2.06,20.97.47,3.15-.72,5.98-2.78,7.64-5.97-1.37-2.08-3.76-1.11-5.46-1.98-4.39-2.43-9.3-4.39-9.55-10.55h0Z"/>
          <path class="cls-20" d="M205.51,281.82c-2.26.74-3.18-.96-4.22-2.36-21.79-29.29-43.56-58.6-65.35-87.91-1.37-3.28,1.37-4.81,3.25-5.64,15.12-6.77,29.99-14.19,45.99-18.81,3.73.28,5.04,3.11,6.34,5.98,4.81,10.68,9.62,21.36,14.23,32.13,1.04,2.43,1.86,5.01,4.31,6.49,9.22-.95,17.53-5.09,26.32-7.49,4.39-1.2,8.48-3.62,13.25-3.32,4.32,1.62,8.76,2.91,13.15,4.32,2.8.89,5.26,2.25,6.59,5.08,1.49,8.31,2.44,16.7,3.05,25.12-.06.7-.24,1.37-.52,2.02-2.99,3.97-7.33,6.32-11.37,8.92-15.24,9.8-30.19,20.01-45.24,30.1-3.13,2.09-6.26,4.06-9.79,5.36h0Z"/>
          <path class="cls-25" d="M209.43,213.93c-6.31-3.48-6.16-10.67-8.97-16.11-4.41-8.54-7.82-17.6-11.66-26.44-.64-1.49-1.56-2.65-3.34-2.77-4.9-9.64-8.67-19.79-13.31-29.56-1.19-2.49-.01-5.29-1.14-7.77-8.94-20.45-17.89-40.89-26.84-61.34,3.05-4.26,5.19-.19,6.95,1.17,10.16,7.86,19.94,16.2,29.83,24.39,9.54,7.9,19.53,15.26,28.54,23.79l-.03-.04c.82.45.83.91.02,1.39,15.47,9.85,32.02,17.76,47.99,26.73-4.52,9.75-11.88,17.6-17.75,26.45-7.11,10.72-14.83,21.03-22,31.73-2.21,3.28-4.22,6.86-8.27,8.38h-.02Z"/>
          <path class="cls-17" d="M270.56,238c.12-.42.24-.85.38-1.27,1.17-3.25,4.16-4.31,6.85-5.76,8.09-4.34,16.88-7.44,24.16-13.24.96-1.31,1.78-2.69,2.65-4.06,2.77-3.97,5.1-8.19,7.57-12.32,4.69-7.82,12.31-9.05,19.99-3.3-6.18,26.53-12.37,53.06-18.54,79.59-3.5,2.58-6.66-1.12-10.2-.53-.99,2.34.74,4.11,1.52,6,7.66,18.59,15.64,37.03,23.21,55.64.9,2.19,2.42,4.31,1.51,6.93-2.86,2.58-5.97,1.07-8.83.29-10.28-2.83-20.6-5.53-30.99-7.9-6.25-1.43-9.93-4.09-9.6-10.84-1.41-13.83-2.8-27.66-4.21-41.49-2.45-1.97-3.14-4.73-3.44-7.68-1.1-10.83-2.35-21.63-3.57-32.45-.3-2.7-.38-5.34,1.52-7.59h.02Z"/>
          <path class="cls-2" d="M205.18,531.48c3.11-.2,3.41,2.68,4.59,4.42,25.37,37.7,50.66,75.46,76.01,113.17,1.3,1.94,2.17,4.52,5.06,4.89-.58.88-1.14,1.75-1.72,2.63-1.49.96-2.47,2.59-4.19,3.22-15.59,5.76-30.64,12.88-46.28,18.54-1.43.52-2.96,1-4.55.64-.66-.2-1.26-.54-1.77-1.02-8.85-46.86-17.72-93.7-26.55-140.56-.37-1.95-.41-3.96-.6-5.94h0Z"/>
          <path class="cls-29" d="M209.48,119.31c-9.04-2.84-14.66-10.44-21.73-15.95-13.27-10.33-26-21.34-39.01-32.01-1.24-1.02-2.49-2.79-4.58-1.42-2.88-3.49-.51-3.87,2.38-4.17,20.23-2.08,40.45-4.27,60.69-6.34,19.35-1.98,38.71-3.88,58.07-5.81-18.71,21.8-37.85,43.24-55.81,65.67h-.01Z"/>
          <path class="cls-17" d="M248.12,420.56c-13.92,9.02-27.91,17.92-41.7,27.13-3.25,2.17-5.75,2.03-9.08.38-17.99-9-36.1-17.76-54.14-26.65-4.53-2.24-8.99-4.64-13.94-5.88,3.15-3.89,5.45-8.2,6.65-13.09,1.31-3.21,2.78-6.34,4.2-9.5,1.04-2.33,2.05-4.95,5.46-4.52,18.63,5.42,37.25,10.85,55.88,16.27,3.76-.47,7.39,0,11,1.14,10.28,3.27,20.68,6.15,30.95,9.43,2.33.74,6.31.76,4.71,5.3h0Z"/>
          <path class="cls-17" d="M502.74,417.83c-19.84,9.7-39.7,19.36-59.51,29.1-2.36,1.16-4.38,1.51-6.69-.25-14.43-10.92-28.94-21.72-43.42-32.57-.17-2.69,2.01-3.27,3.81-3.8,12.29-3.59,24.82-6.16,37.3-8.99,1.53-.34,3.07.08,4.55.53,15.79-3.67,31.58-7.34,47.39-10.98,1.92-.44,3.87-.78,5.8-1.16,4.07.3,3.98,4.02,5.18,6.54,1.2,2.53,1.75,5.33,2.86,7.92,1.01,4.53,4.27,8.63,2.75,13.68h-.01Z"/>
          <path class="cls-10" d="M325.46,370.02c-21.65,14.12-43.32,28.23-64.96,42.38-3.32,2.17-6.52,4.54-9.76,6.82-3.37-1.98-3.78-5.34-3.69-8.68.42-17.7-.81-35.34-1.45-53.01-.21-5.81.33-11.47,2.24-16.98.11-.39.24-.76.39-1.13,3.61-1.25,6.92.29,10.06,1.5,20.72,7.97,41.2,16.55,61.92,24.53,2.26.88,4.64,1.76,5.26,4.59h0Z"/>
          <path class="cls-10" d="M390.78,415.22c-.24-3.08-2.6-4.34-4.85-5.82-17.86-11.75-35.71-23.52-53.52-35.33-1.99-1.32-3.81-2.93-5.71-4.4-.95-2.74.8-4.61,2.15-6.58,8.46-12.37,17.58-24.26,26.36-36.37,1.77-2.44,3.38-5.9,7.59-4.9l.03.08c3,4.17,5.01,8.79,6.51,13.7,7.16,23.47,14.82,46.79,22.43,70.12.89,2.7,2.12,5.44.45,8.3-.49.4-.96.81-1.45,1.21h0Z"/>
          <path class="cls-15" d="M392.23,414.01c-9.8-30.71-19.59-61.42-29.38-92.12,10.17,10.48,20.44,20.89,30.52,31.47,14.53,15.24,28.92,30.58,43.37,45.89.75.8,1.37,1.73,2.05,2.6-13.84,3.51-27.67,7.03-41.53,10.51-1.49.38-3.09.37-4.14,1.75-.3,0-.59-.03-.88-.1h-.01Z"/>
          <path class="cls-17" d="M386.8,567.36c.48-.92.96-1.85,1.44-2.77,1.52,7.04-.94,13.8-1.75,20.61-3.16,26.49-6.9,52.9-10.43,79.34-4.9,4.72-16.34,5.42-24.1,1.47-2.78-10.58-6.23-21.01-7.93-31.86-1.23-2.09-.17-3.91.94-5.51,13.05-18.82,24.1-38.99,38.37-57,1.04-1.52,2.4-2.78,3.46-4.3h.01Z"/>
          <path class="cls-15" d="M362.81,321.82c-4.42,1.82-6.07,6.2-8.61,9.65-9.29,12.64-18.34,25.46-27.48,38.2-.42.1-.83.22-1.24.35-25.74-10.21-51.5-20.4-77.24-30.61,8.73-1.72,17.41-3.9,26.22-4.96,5.13-.62,6.16-2.98,5.81-7.24.7,5.74,4.46,7.45,9.7,8.59,11.85,2.58,23.54,5.93,35.3,8.93,1.37.35,2.87,1.66,4.14-.21,2.03-8.22,4.53-16.17,12.08-21.26,5.87.27,11.53-1.43,17.29-2.08,1.46-.17,2.93-1.1,4.05.63Z"/>
          <path class="cls-15" d="M247.83,340.55c.59,23.18,1.17,46.37,1.78,69.54.08,3.07-.27,6.22,1.12,9.13-.06,5.35-.12,10.69-.18,16.05-2.81-4.58.66-10.18-2.45-14.71-.24-2.83-2.65-2.46-4.44-3.01-14.07-4.29-28.15-8.58-42.22-12.87,15.46-21.38,30.92-42.76,46.38-64.13h.01Z"/>
          <path class="cls-41" d="M341.46,323.27c-4.02,7.08-8.06,14.17-12.08,21.26-6.16-10-9.5-21.27-14.27-31.88-5.6-12.45-10.47-25.2-15.86-38.29,5.57-.63,9.7,2.55,14.35,3.28,12.89,4.2,25.79,8.37,38.66,12.61,1.83.6,3.52,1.6,5.29,2.4-5.36,10.21-10.73,20.4-16.09,30.61h.01Z"/>
          <path class="cls-17" d="M232.35,677.98c.44.04.88.1,1.32.17,12.72,1.85,24.17,7.52,36.01,12.04,1.04.4,1.74,1.31,2.28,2.29-6.66,14.23-13.33,28.45-19.99,42.68-.55,1.21-1.14,2.53-2.44,2.96-7.47,2.5-15.14,3.97-23.05,3.73-.85-.02-1.52-.81-2.13-1.44,2.67-20.81,5.34-41.61,8.01-62.43h-.01Z"/>
          <path class="cls-1" d="M270.56,238c1.83,15.9,3.66,31.81,5.47,47.72-23.52-1.2-47.08-1.49-70.53-3.89,13.62-11.63,29.22-20.41,43.95-30.44,6.87-4.68,13.45-9.9,21.1-13.38h0Z"/>
          <path class="cls-25" d="M472.29,165.98c4.88-15.14,9.76-30.28,14.64-45.42.47-5.19-.48-11.03,6.25-13.27,11.1,18.49,22.22,36.96,33.25,55.49.7,1.19,3.04,2.7.19,4.21-16.27,2.87-32.65,1.05-48.98,1.23-1.99.02-3.97-.51-5.33-2.23v-.02Z"/>
          <path class="cls-22" d="M117.59,347.28c-3.22-3.62-8.57-3.49-11.99-6.75-.35-3.5,2.84-3.45,4.72-4.42,6.18-3.22,13.01-5.12,19.74-8.64-5.21-3.61-10.47-5.31-15.43-7.65-4.16-1.96-8.78-3.28-11.67-7.29.71-4.43,2.7-8.32,5.1-12.05,3.3-1.29,6.07.53,8.8,1.76,17.26,7.87,34.49,15.78,51.65,23.85,2.57,1.21,6.28,1.94,5.19,6.34-1.5,3.15-2.99,6.31-4.5,9.45-3.44,1.73-6.41.03-9.36-1.34-6.58-3.04-13.28-5.82-20.67-9.42,1.84,7.05,4.24,12.96,5.93,19.07.79,2.85,2.6,5.81.28,8.81-4.58-1.1-8.2-4.73-13.11-4.95-5.53-.86-10.55-2.85-14.67-6.77h0Z"/>
          <path class="cls-22" d="M461.56,278.32c13.27-5.13,26.52-10.25,39.79-15.38.61.68,1.2,1.45,1.02,2.36-1.98,9.8-5.87,18.82-9.32,25.95,8.78-3.61,18.63-10.58,31-10.66,2.52,3.58,3.77,7.7,5.01,11.82-2.81,3.82-7.26,5.03-11.28,6.68-16.62,6.79-33.58,12.76-50.11,19.79-2.04.86-4.17,1.64-6.41.51-1.43-3.51-2.85-7.04-4.28-10.55-.07-4.36,3.55-5.24,6.45-6.52,6.87-3.01,13.89-5.66,21.7-8.58-6.15-3.97-12.42-6.35-18.19-9.62-2.34-1.33-5.69-1.94-5.39-5.81h.01Z"/>
          <path class="cls-20" d="M472.29,165.98c15.97,0,31.94-.03,47.92,0,2.16,0,4.47-.58,6.41,1.01-4.24,2.83-8.32,5.95-12.78,8.39-4,2.18-6.59,4.95-6.9,9.6-3.2-1.51-5.47.57-7.78,2.15-8.68,5.97-17.8,11.26-26.53,17.16-2.49,1.67-5.01,3.82-8.43,2.13-3.07-2.9-2.15-6.51-1.75-10.01,2.68-10.33,6.13-20.41,9.85-30.41h0Z"/>
          <path class="cls-15" d="M351.96,666.02c8.02-.73,16.2,1.22,24.1-1.47,3.47,11.65,6.95,23.31,10.43,34.95-4.43,4.72-9.42,8.58-15.89,10.13-7.47-2.27-13.3-7.35-19.69-11.48-1.02-1.17-1.67-2.5-1.91-4.05-.68-9.25-2.25-18.62,3.09-27.18-.11-.29-.16-.59-.12-.9h-.01Z"/>
          <path class="cls-29" d="M170.99,131.28c4.59,10.59,9.17,21.2,13.78,31.78.78,1.8,1.98,3.5.69,5.53-15.23,6.27-30.45,12.55-45.67,18.84-1.88.78-3.56,1.82-3.85,4.11-2.97-3.28.43-5.24,1.77-7.3,10.2-15.73,20.56-31.34,30.92-46.97,1.23-1.86,2.52-3.64,2.37-6.01h-.01Z"/>
          <path class="cls-15" d="M224.33,740.4c9.32-1.19,18.77-1.63,27.63-5.26.54,3.97,3.95,5.81,6.44,8.16,5.31,5,10.93,9.66,16.41,14.47-1.95,6.02-4.59,11.56-10.37,14.93-4.72,1-9.51.22-14.25.45-2.23.12-4.24-.51-6.11-1.68-8.31-8.64-14.72-18.6-19.79-29.45l.06-1.63h-.01Z"/>
          <path class="cls-13" d="M525.55,360.48c4.46,3.44,9.08.79,13.34-.16,4.28-.94,5.77.27,7.2,4.09,3.48,9.31,7.33,18.5,11.33,27.61,1.85,4.23,1.29,6.64-3.03,9.03-3.44,1.91-8.23,2.75-9.34,7.68-7.66,5.14-9.39,4.79-13.33-3.28-1.57-3.21-4.27-6.24-2.91-10.33,5.56-2.99,5.7-6.99,3.26-12.48-2.84-6.38-5.29-12.98-7.6-19.6-.04-1.03.19-1.93,1.07-2.56h.01Z"/>
          <path class="cls-13" d="M90.94,404.63c-1.09-5.39-6.61-6.01-9.92-8.95-2.66-2.36-4-3.95-2.13-7.61,4.71-9.23,9.12-18.62,13.33-28.09,1.68-3.78,3.72-4.8,7.66-3.5,3.96,1.3,8.13,1.88,12.21,2.78,1.3-.43,1.66.31,1.76,1.4-3.38,6.17-6.05,12.69-9.08,19.04-3.34,7-3.2,7.08,3.47,11.14.22,6.69-3.6,11.67-7.92,15.84-3.11,3.01-6.53.08-9.4-2.04h.01Z"/>
          <path class="cls-15" d="M525.36,363.24c5.97,8.27,8.26,18.16,11.22,27.6,1.17,3.76-4.79,3.09-7.41,4.58-4.83.25-6.17-4.88-9.85-6.35-2.9.5-2.5,3.31-3.5,5.09-3.72,6.69-9.38,10.17-16.99,10.54-3.97-4.22-3.11-10.67-6.87-14.99,4.95-5.09,9.91-10.17,14.85-15.27,1.68-1.74,3.73-3.22,3.98-5.94,4.37-3.1,8.62-6.54,14.57-5.25h.01Z"/>
          <path class="cls-15" d="M108.31,391.38c-9.81-1.8-9.89-1.84-6.16-10.51,2.36-5.49,4.91-10.89,7.41-16.31.83-1.78,1.55-3.77,3.98-4,5.64-.52,9.7,2.22,13.07,6.37,6.35,7.14,11.85,15.04,18.96,21.49-4.9,3.73-4.65,10.28-8.08,14.83-7.78-1.1-13.54-4.93-16.91-12.21-.73-1.56.08-4.21-2.79-4.44-3.34,1.27-5.3,5.24-9.48,4.79h0Z"/>
          <path class="cls-18" d="M493.17,107.28c-4.3,3.38-3.13,9.33-6.25,13.27-2.36-2.23-4.08.19-5.76,1.03-11.53,5.8-22.97,11.78-34.43,17.7-.6,1.33-.65,3.04-2.4,3.61-8.52,3.55-16.59,8.03-24.82,12.18-.53.32-1.1.58-1.67.81-6.52,3.34-13.45,6.06-17.64,12.68-.32.5-1.17.38-1.8.08-1.72-3.38-3.46-6.76-3.72-10.64,9.4-7.09,20.4-11.35,30.54-17.12,21.29-12.12,42.89-23.71,64.38-35.47.74-.41,1.66-.49,2.5-.73.37.88.73,1.74,1.1,2.62h-.01Z"/>
          <path class="cls-22" d="M113.5,288.69c1.22-3.88,2.64-7.66,5.12-10.95,2.47-1.32,4.68-.23,6.92.73,8.69,3.76,17.3,7.68,25.64,12.17,1.24.4,2.32,1.2,3.59,1.51,9.8,5.11,20.93,7.62,29.5,15.14.08,4.55-2.76,8.03-4.47,11.92-2.4,1.9-4.71.49-6.82-.45-18.51-8.23-36.72-17.14-55.22-25.4-2.04-.91-3.86-2.21-4.27-4.68h0Z"/>
          <path class="cls-19" d="M461.26,319.39c22.6-8.99,45.19-17.99,67.79-26.99,1.72,3.9,3.77,7.69,4.52,11.96-.53,1.31-1.53,2.22-2.78,2.74-21.3,8.84-42.77,17.29-64.34,25.45-1.73-4.38-3.47-8.77-5.2-13.14h.01Z"/>
          <path class="cls-22" d="M466.46,332.53c.51-2.42,2.68-2.74,4.47-3.44,20.88-8.27,41.77-16.49,62.66-24.74,1.97,2.9,3.05,6.18,3.96,9.53,1.22,4.13-2.23,4.75-4.64,5.78-8.7,3.7-17.27,7.74-26.36,10.43-1.3.35-2.5.9-3.66,1.62-8.38,4.12-17.24,7.02-25.94,10.35-2.13.82-4.29,1.16-6.45.07-1.34-3.2-2.69-6.41-4.03-9.61h.01Z"/>
          <path class="cls-19" d="M113.5,288.69c21.88,10.67,43.8,21.22,66.31,30.52-2.04,4.41-4.08,8.82-6.12,13.22-3.06-4.96-8.74-5.63-13.37-7.84-17.31-8.28-34.83-16.12-52.28-24.13,1.82-3.93,3.64-7.86,5.44-11.79h.01Z"/>
          <path class="cls-41" d="M271.94,692.45c-12.84-4.55-25.98-8.35-38.29-14.32,18.75-6.52,36.46-15.73,55.48-21.56-5.73,11.96-11.46,23.92-17.19,35.87Z"/>
          <path class="cls-1" d="M465.29,205.96c11.61-6.01,22.13-13.76,33.19-20.66,1.68-1.05,3.37-2.14,5.11-3.1,3.41-1.91,2.76,1.2,3.35,2.77-.32,7.98-.91,15.96-.86,23.94.03,4.69-2.11,5.32-6.02,5.11-11.07-.6-22.15-.92-33.24-1.34-3.17-1.63-3.58-3.89-1.52-6.7h-.01Z"/>
          <path class="cls-41" d="M384.31,571.25c-11.6,17.95-23.22,35.91-34.8,53.87-1.91,2.96-3.67,6.02-5.49,9.03-.4-.04-.79-.12-1.17-.23-3.83-6.75-5.72-14.01-5.65-21.78,14.6-14.25,29.94-27.69,45.36-41.04.63-.59,1.22-.54,1.75.13h0Z"/>
          <path class="cls-40" d="M337.2,612.15c2.96,6.98,5.45,14.07,5.65,21.78-15.84,6.51-31.67,13.03-47.54,19.46-1.36.55-2.99.43-4.5.63,11.12-10.26,22.09-20.69,33.41-30.72,4.26-3.77,7.86-8.37,12.98-11.14h0Z"/>
          <path class="cls-35" d="M350.48,695.53c.63.73,1.26,1.46,1.9,2.21,5.08,4.59,10.67,8.6,15.25,13.74,1.87,1.97,3.79,3.88,5.78,5.74,2.94,3.01,6.1,5.82,8.84,9,1.47,1.71,3.85,3.4,1.77,6.23-16.96-9.59-33.82-19.34-50.91-28.67-4.62-2.53-5.13-4.96-2.56-9.17,2.5-4.08,3.26-9.13,6.88-12.63,6.07,2.86,10.48,7.33,13.05,13.55h-.01Z"/>
          <path class="cls-38" d="M244.12,769.87c1.73.49,3.46.98,5.2,1.47,4.1,1.2,8.47,1.12,12.53,2.5,3.87,1.46,7.81,2.64,11.85,3.55,5.21,1.27,10.77,1.78,15.54,7.03-6.92,1.23-12.7.92-18.51.38-13.03-.22-26.09-.81-39.11-.51-6.03.14-8.16-2.11-8.54-7.67-.19-2.79.19-5.8-1.41-8.39,0-1.61-.01-3.22-.02-4.83,8.51-1.4,15.64,2.03,22.46,6.47h.01Z"/>
          <path class="cls-22" d="M502.72,329.81c.86-.41,1.73-.81,2.59-1.22,9.59,2.24,17.69,7.72,26.31,12.07,1.39.7,2.25,2.12,1.8,3.91-3.97,1.81-7.92,3.61-11.89,5.42-4.19,3.95-9.41,5.6-14.88,6.68-4.94-.59-8.66,3.13-13.24,3.79-2.07-2.22-.94-4.53-.16-6.79,2.84-8.08,5.43-16.26,9.46-23.86h.01Z"/>
          <path class="cls-22" d="M153.53,293.92c-.94-.47-1.88-.92-2.83-1.39-4.81-7.72-6.43-16.63-9.04-25.15-.62-2.02-1.22-4.98,2.45-5.53,12.46,5.82,24.91,11.63,37.38,17.44.02,4.12-3.61,4.6-6.16,5.74-7.16,3.21-14.5,6-21.79,8.88h-.01Z"/>
          <path class="cls-24" d="M465.29,205.96c-.1,2.37.32,4.62,1.52,6.7,1.49,5.75,2.74,11.57,4.53,17.22,1.09,3.4.83,5.2-3,6.24-6.78,1.84-13.18,4.95-20.19,6.04-1.47-.82-.51-1.84-.2-2.77,4.82-14.33,9.66-28.66,14.5-42.99.65,3.28,1.11,6.62,2.86,9.56h-.01Z"/>
          <path class="cls-41" d="M498.82,404.69c1.94-.99,3.81-2.15,5.83-2.93,6.18-2.36,9.99-6.57,11.19-13.2.44-2.43,1.25-5.53,4.11-1.33,3.57,6.66,6.23,13.7,8.77,20.78.85,2.38,2.39,4.91.47,7.55-8.82.75-17.63,1.51-26.45,2.26-1.62-4.29-3.79-8.41-3.92-13.14h.01Z"/>
          <path class="cls-41" d="M117.46,384.2c1.5-2.33,3.25-1.99,3.35.49.42,10.96,9.53,13.83,16.69,18.55-1.95,4.62-1.1,11.13-8.23,12.29-7.89-.98-15.79-1.95-23.68-2.94-.16-.29-.31-.58-.47-.88,2.55-9.89,7.35-18.75,12.36-27.53h-.01Z"/>
          <path class="cls-2" d="M461.56,278.32c5.82,5.29,13.48,7.25,20.08,11.1,2.25,1.32,4.64,2.39,8.41,4.32-8.94,3.55-16.62,6.52-24.25,9.64-3.21,1.32-6.77,2.21-8.81,5.45.07-10.4.6-20.71,4.58-30.52h-.01Z"/>
          <path class="cls-2" d="M533.42,344.56c-5.25-5.18-12.47-6.84-18.66-10.35-3.19-1.81-6.66-3.13-9.44-5.63,8.92-3.55,17.86-7,26.73-10.69,2.06-.85,4.94-.93,5.5-4,.51,10.47-.69,20.72-4.11,30.66h-.01Z"/>
          <path class="cls-27" d="M546.97,414.93c2.66,6.72,5.06,13.55,8.08,20.11,1.83,3.98.42,5.36-3.1,6.73-10.1,3.92-10.11,4.06-14.07-5.9-2.53-6.33-4.84-12.74-7.25-19.13-.04-3.56,2.74-2.88,4.64-2.78,3.9.2,7.86-.01,11.7.95h0Z"/>
          <path class="cls-2" d="M502.72,329.81c1.97,4.06-1.51,6.87-2.52,10.2-2.08,6.87-5.29,13.39-6.8,20.46-8.62-4.88-15.68-11.7-22.91-18.31,10.74-4.11,21.48-8.22,32.22-12.35h.01Z"/>
          <path class="cls-2" d="M102.95,312.53c10.44,4.5,20.93,8.89,31.91,14.87-10.38,4.65-19.83,8.89-29.27,13.13-2.42-9.19-2.86-18.56-2.64-28.01h0Z"/>
          <path class="cls-2" d="M145.37,359.01c-2.96-10.12-5.92-20.24-9.12-31.19,11.69,4.58,21.7,10.82,32.95,14.06-7.47,6.36-15.19,12.37-23.83,17.12h0Z"/>
          <path class="cls-27" d="M105.58,412.6c-3.76,7.98-7.65,15.91-11.2,23.98-1.53,3.46-2.93,4.69-6.89,2.85-10.15-4.73-10.3-4.53-5.66-14.56,1.93-4.18,4.11-8.25,6.17-12.37,5.67-3.36,11.4-3.29,17.17-.27l.42.38h0Z"/>
          <path class="cls-2" d="M144.11,261.86c-2.38,2.18-.75,4.43-.13,6.68,2.23,8,5.96,15.58,6.73,23.99-10.47-5.42-21.13-10.42-32.08-14.79,7.17-5.37,14.34-10.74,21.5-16.12,1.43-1.07,2.75-1.27,4,.24h-.01Z"/>
          <path class="cls-2" d="M524.04,280.58c-10.78,4.18-21.56,8.37-33.16,12.87,3.08-10.95,8.28-20.24,10.46-30.51,8.79,4.3,15.46,11.34,22.7,17.64Z"/>
          <path class="cls-2" d="M153.53,293.92c2.23-4.44,7.13-4.5,10.85-6.41,5.62-2.88,12.06-4.09,17.11-8.22,3.29,9.1,2.5,18.6,2.78,27.99-10.25-4.46-20.49-8.91-30.74-13.37h0Z"/>
          <path class="cls-13" d="M384.02,732.45c-1.83-6.55-8.8-8.92-11.81-14.52,1.81-2.93,4.48-4.39,7.87-4.65,4.42,2.27,8.56,4.96,12.01,8.6,3.38,2.74,6.77,5.47,11.05,8.93-6.99,1.35-12.36,7.56-19.11,1.63h-.01Z"/>
          <path class="cls-12" d="M105.15,412.23c-5.73.09-11.45.18-17.18.28.99-2.63,1.97-5.24,2.96-7.87,3.24-3.11,6.12,5.72,9.38.3,1.92-3.18,3.71-6.44,5.57-9.65.76-1.32,1.61-2.6,2.42-3.9l9.14-7.18c-2.55,10.02-7.04,19.19-12.3,28.03h.01Z"/>
          <path class="cls-12" d="M546.97,414.93c-3.65,2.95-7.77,1.56-11.7,1.1-1.72-.21-3.32-1.07-4.65.73-.48-.39-.94-.79-1.42-1.17-3.03-8.06-6.05-16.11-9.07-24.18-.51-1.35-1.86-2.7-.17-4.16,3.07,2.73,6.13,5.44,9.2,8.17.42,1.01.76,2.04,1.26,3.01,3.05,6.03,4.21,14.76,14.64,10.31.64,2.06,1.27,4.13,1.92,6.2h-.01Z"/>
          <path class="cls-13" d="M244.12,769.87c-7.49-2.16-14.97-4.32-22.46-6.47-.11-7.25,1.78-14.24,2.63-21.38,7.77,8.47,12.57,19.04,19.84,27.85Z"/>
          <path class="cls-12" d="M126.61,366.93c-4.36-2.13-8.71-4.24-13.07-6.37-.48-.43-.96-.86-1.44-1.3,1.83-3.99,3.66-7.98,5.49-11.97,5.32,1.33,10.42,3.14,14.67,6.77-1.88,4.29-3.77,8.58-5.65,12.87h0Z"/>
          <path class="cls-12" d="M506.65,356.67c4.11-4.12,9.55-5.28,14.88-6.68,1.34,3.5,2.68,7,4.02,10.51-.07.92-.12,1.84-.19,2.76-5.06,1.19-9.02,5.44-14.57,5.25-1.39-3.95-2.76-7.88-4.14-11.82h0Z"/>
          <path class="cls-21" d="M350.48,695.53c-4.48-4.4-9.32-8.44-13.05-13.55,3.97-5.91,9.38-10.43,14.65-15.06-1.97,9.45-.93,19.08-1.6,28.61Z"/>
          <path class="cls-33" d="M380.13,713.95c-2.72,1.17-4.75,3.71-7.92,3.98-2.42-1.23-4.21-3.07-5.46-5.47-.62-3.46,2.12-3.17,4.12-3.71,5.51-2.57,9.64-7.48,15.63-9.25.58,2.12,1.16,4.24,1.74,6.36.09,6.03-1.07,7.19-8.1,8.09h0Z"/>
          <path class="cls-11" d="M272.31,779.07c-3.85-.53-7.44-1.9-10.95-3.48.21-2.53,2.47-3.15,4.07-4.38,3.48-4.23,4.8-9.97,9.38-13.44,2.37,2.11,5,3.96,6.65,6.77.22,2.89-1.78,4.88-2.9,7.21-1.72,2.75-3.07,5.81-6.24,7.31h0Z"/>
          <path class="cls-5" d="M380.13,713.95c2.5-2.89,8.31-2.47,8.1-8.09,1.29,5.34,2.57,10.68,3.85,16.01-4.88-1.3-8.91-3.87-11.95-7.93h0Z"/>
          <path class="cls-31" d="M277.15,771.06c1.43-2.17,2.87-4.34,4.3-6.53.44,0,.89.03,1.33.07,2.45,3.76,5.92,6.45,9.42,9.12-6.16,3.4-11.37,2.47-15.04-2.66h-.01Z"/>
          <path class="cls-36" d="M384.31,571.25c-.59-.04-1.16-.09-1.75-.13,1.07-1.63,2.33-3.07,4.23-3.76-.09,1.77-.91,3.07-2.48,3.9h0Z"/>
          <path class="cls-1" d="M209.43,213.93c14.63-20.81,29.26-41.61,43.86-62.45,1.15-1.65,2.15-3.37,4.17-4.11,10.26,7.61,21.98,12.71,32.97,19.06,8.15,4.7,17,8.16,24.39,14.14-2.06,4.47-6.77,4.22-10.44,5.8-2.19.94-4.51,1.63-6.78,2.4-7.24,1.91-14.21,4.68-21.39,6.76-6.25,1.9-12.41,4.05-18.62,6.07-2.68.88-5.41,1.68-8.2.38-11.26,3.66-22.5,7.35-33.77,10.95-1.98.63-3.88,2.22-6.2,1h0Z"/>
          <path class="cls-28" d="M249.39,201.98c9.05-2.32,17.57-6.45,26.83-8.08.73-.68,1.58-.63,2.45-.35,7.86,2.6,14.88,2.79,18.72-6.38,5.82-2.19,11.63-4.4,17.44-6.59.45.04.91.09,1.36.14,2.16,2.75.76,5.5,0,8.23-2.59,9.2-6.55,17.85-10.69,26.42-.54,1.26-1.1,2.53-1.64,3.79-1.71,1.27-3.9,1.39-5.62.99-10.41-2.43-20.82-4.94-30.28-10.22-5.42-4.44-13.23-3.27-18.55-7.96h-.02Z"/>
          <path class="cls-41" d="M305.49,215.37c2.81-8.8,5.67-17.58,8.44-26.39.85-2.73,1.51-5.51,2.25-8.27,1.25.41,2.83.45,3.69,1.27,10.52,9.91,20.37,5.92,30.73-.64,8.59-5.44,17.95-9.65,26.73-14.79,3.39-1.98,4.08.12,5.28,2.17.8.81.94,1.65.14,2.56-14.14,7.5-28.27,15.01-42.41,22.5-2.72,1.44-5.46,2.84-8.2,4.24-1.29-.22-2.59-.37-3.86-.7-6.83-1.77-12.26-1.09-15.42,6.55-1.72,4.14-4.88,7.68-7.39,11.49h.01Z"/>
          <path class="cls-32" d="M382.77,171.28c-.04-.85-.09-1.71-.14-2.56-.31-8.41,6.94-8.36,12.02-10.73,3.98,2.54,4.42,6.51,4.33,10.69.89,5.57-2.36,6.73-6.93,6.45-3.57-.14-6.42-2.02-9.29-3.86Z"/>
          <path class="cls-34" d="M209.46,120.65c0-.47,0-.92-.02-1.39,1.37-.42,2.75-.84,4.12-1.26.89.48,1.76.94,2.64,1.42-1.99,1.83-4.47.98-6.75,1.22h.01Z"/>
          <path class="cls-40" d="M344.52,219.55c8.09-1.04,15.19,1.99,22.55,2.72,8.57.83,17,3.16,25.58,3.8,8.2.62,13.75,5.51,19.83,9.86,5.4,3.88,10.79,7.76,16.31,11.46,3.26,2.19,3.58,3.67-.04,6.02-14.68,9.52-29.3,19.14-43.74,29.04-4.01,2.75-4.88.03-6.27-2.44-10.05-17.73-20.09-35.46-30.14-53.2-1.29-2.27-2.55-4.57-4.07-7.27h0Z"/>
          <path class="cls-7" d="M417.61,154.17c.37-.16.75-.22,1.15-.21,5.16-.78,9.72.59,13.73,3.9,1.31,6.53-2.15,12.11-3.86,17.96-2.22,7.6-3.48,15.66-8.59,22.18-2.81,3.11-2.78,7.35-4.29,10.97-.99,2.37-1.02,5.37-4.03,6.49-5.41,2.39-9.76-.62-14.29-2.79.42-1.82.85-3.64,1.27-5.46-1.83-2.56-.62-5.14.22-7.55,4.48-12.89,9.25-25.67,13.88-38.5,1-2.78,2.72-5,4.8-6.99h0Z"/>
          <path class="cls-23" d="M420.04,198.02c4.03-13.35,8.07-26.7,12.1-40.05,1.34-2.87,3.7-4.42,6.66-5.23,7.8.85,13.74,5.92,20.49,9.17,2.56,1.85,1.06,3.31-.53,4.61-3.68,3.01-7.43,5.94-11.15,8.9-6.28,1.8-10.98,5.3-12.86,11.87-5.13,3.27-8.77,8.58-14.71,10.74h-.01Z"/>
          <path class="cls-13" d="M417.61,154.17c-6.29,17.69-12.59,35.36-18.88,53.05-3.95-.92-2.32-4.13-2.58-6.47-.99-8.6,0-17.5-4.07-25.61,2.75-1.67,6.15-2.66,6.93-6.45,2.6-9.46,11.75-10.54,18.62-14.52h-.01Z"/>
          <path class="cls-16" d="M434.75,187.28c-.53-10.44,2.17-12.94,12.86-11.87,5.35,6,5.78,11,1.26,14.81-4.4,3.7-9.07,2.74-14.12-2.94h0Z"/>
          <path class="cls-32" d="M459.29,161.89c-4.39,1.81-6.78-2.43-10.23-3.5-3.48-1.09-6.7-2.98-10.04-4.52-.99-5.15.89-9.04,5.23-11.84.82-.91,1.64-1.83,2.46-2.74,4.19,7.54,8.38,15.06,12.57,22.6h.01Z"/>
          <path class="cls-6" d="M397.44,212.69c5.15-1.05,9.4,2.53,14.29,2.79-.88,4.05-4.85,4.69-7.5,6.74-1.92,1.47-2.67-.22-3.32-1.68-1.16-2.62-2.31-5.23-3.46-7.86h0Z"/>
          <path class="cls-14" d="M277.15,771.06c4.77,2.28,9.8,3.07,15.04,2.66,3.28.81,8.64-1.58,9.52,1.63.85,3.11-3.97,5.77-6.97,7.8-7.6,5.13-15.9,2.47-24.02,1.64h17.47c-6.04-3.38-11.12-4.14-15.88-5.72,1.62-2.67,3.22-5.34,4.84-8h0Z"/>
          <path class="cls-41" d="M267.94,209.94c10.15.82,19.08,5.98,28.88,8.09,2.34.5,4.54,1.58,7.03,1.14-10.4,6.93-22.04,11.53-32.91,17.57-1.56-8.87-2.93-17.75-2.99-26.79h0Z"/>
          <path class="cls-37" d="M370.86,708.76c-1.37,1.24-2.75,2.47-4.12,3.71-5.24-4.47-10.26-9.15-14.36-14.73,6.16,3.67,12.32,7.35,18.49,11.02Z"/>
          <path class="cls-8" d="M265.44,771.22c-.82,1.96-1.68,3.87-4.07,4.38-4.01-1.42-8.03-2.83-12.06-4.24,5.37-.04,10.75-.09,16.12-.13h0Z"/>
          <path class="cls-39" d="M444.26,142.03c-1.74,3.95-3.49,7.89-5.23,11.84-2.62.83-3.82,4.03-6.89,4.09-4.75-.33-9-2.37-13.38-3.99,8.36-4.3,15.84-10.45,25.5-11.94h0Z"/>
          <path class="cls-30" d="M297.38,187.17c-2.77,7.5-7.93,10.23-15.49,8.19-1.88-.51-3.78-.98-5.67-1.45,6.89-2.77,13.76-5.59,21.16-6.74h.01Z"/>
          <path class="cls-3" d="M369.44,245.91c-3.62-5.18-6.85-10.55-9.97-17.96,20.58,7.45,39.7,14.37,59.79,21.64-5.28,3.9-8.89,8.46-15.15,8.6-.37.25-.81.64-1.16.55-11.65-3.03-23.37-5.86-33.5-12.83h0Z"/>
          <path class="cls-38" d="M369.44,245.91c11.56,4.09,23.11,8.19,34.67,12.28-1.91,5.54-9.35,9.51-14.27,8.79-12.42-1.82-16.01-11.71-20.39-21.07h0Z"/>
        </g>
      </g>
    </g>
  </g>
</svg>