<?xml version="1.0" encoding="UTF-8"?>
<svg xmlns="http://www.w3.org/2000/svg" version="1.1" viewBox="0 0 636.44 799">
  <defs>
    <style>
      .cls-1 {
        fill: #bf9c83;
      }

      .cls-2 {
        fill: #81641f;
      }

      .cls-3 {
        fill: #c7ab3d;
      }

      .cls-4 {
        fill: #dadad9;
      }

      .cls-5 {
        fill: #b78f2f;
      }

      .cls-6 {
        fill: #9b9b9a;
      }

      .cls-7 {
        fill: #8f8f8f;
      }

      .cls-8 {
        fill: #e2c9b7;
      }

      .cls-9 {
        fill: #826520;
      }

      .cls-10 {
        fill: #987726;
      }

      .cls-11 {
        fill: #72581a;
      }

      .cls-12 {
        fill: #bc987e;
      }

      .cls-13 {
        fill: #d9bca6;
      }

      .cls-14 {
        fill: #9c9fa0;
      }

      .cls-15 {
        fill: #bc977e;
      }

      .cls-16 {
        fill: #866856;
      }

      .cls-17 {
        fill: #886a57;
      }

      .cls-18 {
        fill: #846754;
      }

      .cls-19 {
        fill: #dfc54d;
      }

      .cls-20 {
        fill: #464646;
      }

      .cls-21 {
        fill: #866855;
      }

      .cls-22 {
        fill: #848484;
      }

      .cls-23 {
        fill: #ae8a2d;
      }

      .cls-24 {
        fill: #f6edd8;
      }

      .cls-25 {
        fill: #bc977d;
      }

      .cls-26 {
        fill: #9d7c66;
      }

      .cls-27 {
        fill: #4f5252;
      }

      .cls-28 {
        fill: #ded5c2;
      }

      .cls-29 {
        fill: #7b6122;
      }

      .cls-30 {
        fill: #fefefe;
      }

      .cls-31 {
        fill: #979796;
      }

      .cls-32 {
        fill: #dbdbda;
      }

      .cls-33 {
        fill: #6e7073;
      }

      .cls-34 {
        fill: #d6bba5;
      }

      .cls-35 {
        fill: #715719;
      }

      .cls-36 {
        fill: #70571a;
      }

      .cls-37 {
        fill: #898989;
      }

      .cls-38 {
        fill: #b78e2f;
      }

      .cls-39 {
        fill: #80631e;
      }

      .cls-40 {
        fill: #856754;
      }
    </style>
  </defs>
  <!-- Generator: Adobe Illustrator 28.7.1, SVG Export Plug-In . SVG Version: 1.2.0 Build 142)  -->
  <g>
    <g id="Layer_1">
      <g id="Layer_1-2" data-name="Layer_1">
        <g>
          <path class="cls-19" d="M352.53,320.26c.11.34.14.7.1,1.05,4.86,8.07,7.05,17.21,10.03,25.98,11.59,34.05,23.81,67.88,35,102.06.09,1.13-.17,2.13-.94,2.98-.49,19.02-.97,38.04-1.47,57.06-.5,19.24-.99,38.48-1.5,57.72-.64,1.23-1.42,2.31-2.75,2.88-9.87,3.97-20,7.27-29.85,11.27-5.67,2.3-9.3.7-12.16-4.32-5.28-9.24-11.38-18-16.52-27.34-1.27-2.31-2.4-4.73-4.72-6.9-2.58,2.19-3.28,5.28-4.52,7.97-4.9,10.69-9.23,21.63-14.27,32.25-1.38,2.93-3.08,5.93-6.7,5.56-11.63-1.2-23.45-1.67-34.34-6.77-.93-.98-1.68-2.09-2.02-3.37-4.63-17.01-9.56-33.93-14.16-50.94-.59-2.14-.88-4.35.66-6.32,3.31-2.34,6.84-1.09,10.26-.46,21.12,3.83,42.31,7.26,63.44,10.96,20.83-8.35,40.29-19.52,60.48-29.19,4.5-2.15,1.35-3.63-.78-4.75-8.26-4.31-16.62-8.43-24.99-12.52-9.96-4.89-19.49-10.59-29.47-15.47-2.42-1.18-4.62-2.68-5.85-5.24-4.41-18.35-7.32-36.92-8.78-55.72-.2-2.52-1.04-5.11-.65-6.97,1.19,11.57,1.92,23.87,1.55,36.17-.27,8.85.89,17.73-.8,26.53-.92,2.5-3.02,3.68-5.25,4.73-20.16,9.52-40.78,17.97-61.15,26.98-1.62.72-3.3,1.27-5.14.74-1.76-.8-2.71-2.32-3.17-4.03-3.23-12.13-7.28-24.02-9.79-36.33-.22-1.08-.17-2.19.02-3.29,1.44-4.88,5.79-5.11,9.63-5.7,14.49-2.23,28.93-4.79,43.42-6.96,2.64-.4,5.29-.71,7.82-1.59,1.54-.53,2.92-1.28,2.64-3.27-.28-1.92-1.69-2.45-3.38-2.52-1.79-.07-3.53.34-5.29.59-16.06,2.23-32,5.26-48.04,7.57-3.06.44-6.14,1.24-9.17-.18-2.73-1.65-3.43-4.51-4.25-7.26-6.56-22.3-12.52-44.76-18.78-67.15-.66-2.35-1.35-4.73.08-7.07-.17-.23-.14-.44.07-.63,2.22-1.91,4.67-.97,6.94-.33,30.88,8.85,61.78,17.55,92.81,25.89,1.71.46,3.24,1.46,4.98,1.75.97.23,2.03.86,2.73-.53.74-1.57,1.47-3.11,2.26-4.64,9.49-17.46,19.47-34.64,28.71-52.23,1.7-3.25,2.18-7.84,6.99-8.73l.04.03Z"/>
          <path class="cls-13" d="M364.68,165.44c6.02,27.66,11.94,55.35,18.15,82.96,1.1,4.93-1.77,5.63-5.09,6.66-13.97,4.3-27.91,8.67-41.9,12.9-1.73.53-3.47.73-4.43,2.5-.35.64-.88,1.09-1.56,1.37-19.44,6.03-39.05,11.5-58.56,17.32-3.53,1.06-7.12,2.73-10.95.88-2.72-2.31-3.35-5.64-4.27-8.81-7.06-24.01-14.13-48.02-21.03-72.08-.56-1.65-1.09-3.3-1.48-4.99-.81-4.73-2.33-9.24-3.83-13.77-.75-2.26-1.59-4.55-.57-6.98,2.68-2.46,4.41.01,6.05,1.41,3.67,3.14,6.86,6.78,10.35,10.11,6.32,6.55,6.7,6.57,13.38.89,11.11-9.45,22.5-18.59,33.61-28.06,1.19-1.02,2.44-1.91,4.04-2.16,4.32-.19,5.72,3.37,7.83,6.05,3.87,4.9,5.98,11.2,11.67,14.62,2.05,1.03,2.41,3.26,3.52,4.95.44.76.98,1.42,1.6,2.05,4.84,4.9,6.19,4.73,9.48-1.28.63-1.14,1.24-2.3,1.47-3.61.7-7.64-3.9-14.5-3.26-22.13,1.8-4.04.91-10,7.52-10.63,9.84,2.09,19.73,4.06,28.29,9.83h-.02Z"/>
          <path class="cls-22" d="M227.06,680.36c-48.76-10-97.53-19.99-146.29-29.99-4.77-.97-9.52-2.54-14.33-2.73-8.64-.32-12.52-4.76-15.07-12.68-5.89-18.32-12.65-36.37-19.06-54.53,1.2-4.74,4.89-2.89,7.51-2.45,26,4.46,52.12,8.13,78.12,12.61,26.43,4.56,52.98,8.35,79.42,12.85,4.77.82,9.75.99,13.93,3.94,1.82,1.84,2.15,4.3,2.68,6.66,4.16,18.56,8.37,37.11,12.87,55.59.78,3.21,1.72,6.44.88,9.81-.22.3-.45.6-.67.89v.02Z"/>
          <path class="cls-15" d="M236.51,207.96c5.81,19.53,11.63,39.05,17.42,58.59,2.26,7.64,4.46,15.31,6.69,22.97-2.86,5.74-8.95,4.4-13.52,6.22.08.02.2.45.2.45h.54c23.29,5.19,46.14,11.8,69.22,17.47,5.11,1.26,8.37,3.93,8.42,9.56-1.48,18.46-4.54,36.71-7.17,55.02-1.51,2.66-1.88,5.72-2.9,8.55-.3.71.25,2.4-1.57,1.36-8.25-3.8-12.5-11.78-18.32-18.03-8.15-8.74-16.07-17.73-23.69-26.94-2.99-3.61-6.7-5.68-11.06-6.93-12.98-3.74-26.12-6.95-38.97-11.19-2.09-.68-4.34-1.02-6.12-2.47-4.9-6.59-10.47-12.81-12.43-21.15-8.41-13.35-16.81-26.72-25.2-40.07,5.08-14.33,8.04-29.35,14.44-43.23.43-.5.94-.88,1.54-1.16,4.85.32,6.06,4.65,8.27,7.74,4.9,6.89,5.77,7.02,11.99,1.03,5.39-5.19,10.26-10.93,16.42-15.3,1.73-1.23,3.19-3.2,5.78-2.51h.02Z"/>
          <path class="cls-14" d="M211.15,608.15c-26.15-4.31-52.3-8.63-78.45-12.92-32.27-5.3-64.53-10.58-96.81-15.89-1.45-.24-2.63-.08-3.56,1.12-1.79-2.24.33-3,1.56-4.12,14.63-13.39,29.26-26.77,43.88-40.17,7.95-.78,15.71.78,23.49,1.99,31.2,3.52,62.41,6.89,93.42,11.91,2.2.35,4.42.18,6.63.22,1.18-.12,2.32.1,3.46.38,8.49,1.51,17.1,2.21,25.63,3.32,3.11.41,6.11.97,8.85,2.57,4.47,4.9,4.64,11.28,5.89,17.29.08,2.75-.52,5.37-2.57,7.28-9.39,8.73-19.1,17.1-28.37,25.93-.81.77-1.88,1.15-3.04,1.09h0Z"/>
          <path class="cls-38" d="M204.44,552.12c-.62.04-1.23.09-1.84.14-16.03-4.29-29.75-13.66-44.8-20.17-14.05-6.07-27.31-13.84-41.36-19.96-4.43-2.86-9.32-4.8-14.04-7.1-2.35-1.15-4.93-2.02-5.78-4.91,5.48-13.55,14.24-25.34,20.64-38.39,3.39-6.91,7.55-13.46,11.37-20.17,3.59-1.06,5.79,1.65,8.23,3.28,18.94,12.67,38.1,25.02,57.7,37.91-.1-3.84-2.34-6.99-1.59-10.45,2.25-5.91.75-10.17-5.11-14.45-1.5-1.82-2.18-3.87-1.69-6.23,2.97-4.2-1.7-5.16-3.19-7.47-4.73-10.38-8.41-21.1-10.17-32.41,3.09-5,1.26-8.57-3.34-11.33-.46-.86-.55-1.77-.35-2.72,2.88-5.22-1.38-7.48-4.31-10.29-2.36-2.92-3.13-6.32-2.99-9.98,1.61-4.05,5.79-3.85,8.94-5.15,5.84-2.41,11.9-4.29,17.85-6.38,5.81,4.43,4.79,11.38,6.42,17.34-3.13,4.59,1.4,6.84,3.1,9.95,2.66,9.85,5.77,19.6,7.08,29.78-1.89,18.72-2.54,37.52-3.77,56.27-.35,5.48,1.76,9.18,6.56,11.95,5.75,3.31,10.86,7.69,16.87,10.64,1.34.76,2.03,1.92,2.09,3.46-5.21,15.36-12.65,29.75-19.42,44.46-.78,1.13-1.76,2.02-3.1,2.41l.02-.02Z"/>
          <path class="cls-28" d="M466.25,762.98c5.79,2.94,12.24,1.59,18.29,2.3,18.65,2.18,37.46,2.94,56.2,4.45,10.11.82,20.17,2.07,30.31,3.57-13.23,1.46-26.46,2.9-39.69,4.37-15.14,1.68-30.27,3.48-45.43,5.05-14.94,1.55-29.92,2.78-44.87,4.32-15.15,1.56-30.28,3.39-45.44,4.94-15.16,1.56-30.35,2.93-45.53,4.37-5.06.49-10.24.45-15.16,1.55-12.25,2.71-24.23-.3-36.29-1.15-8.6-.61-17.22-.74-25.83-1.57-27.5-2.62-55.09-4.04-82.63-6.46-13.85-1.21-27.8-1.8-41.69-2.94-19.36-1.6-38.77-2.62-58.17-5.04,14.89-1.9,29.78-3.82,44.68-5.7,27.82-3.51,55.64-7.04,83.48-10.49,5.48-.68,11-1.07,16.5-1.6,2.82,2.6.82,5.78,1.08,8.68.95,8.92.95,8.98,10.02,9,17.78.04,35.56.06,53.35,0,9.45-.03,9.73-.39,9.07-9.85-1.34-3.51-2.63-7.04-4.05-10.5-1.01-2.47-1.88-5.06.45-7.39,13.25-4.58,26.88-3.64,40.46-2.41,5.29.49,10.5.78,15.76.04,3.27,1.58,2.86,4.62,2.95,7.44,1.2,9.17,1.2,9.23,10.54,9.24,26.35.04,52.72-.07,79.07.09,4.86.02,9.16-.7,12.61-4.32h0Z"/>
          <path class="cls-39" d="M391.33,568.33c.81-.4,1.62-.81,2.43-1.2,3.57,27.5,7.13,55,10.7,82.5-1.29,1.87-3.03,3.18-5.07,4.16-21.78,10.38-43.67,20.52-65.58,30.6-.81.38-1.69.5-2.58.53-2.97-.6-4.08-3.18-5.39-5.38-4.36-7.28-9.97-13.88-12.34-22.28,1.14-10.78,5.01-20.83,8.15-31.08,1.72-3.97,4.55-7.01,7.92-9.66,17.78-13.96,35.07-28.55,52.75-42.65,2.81-2.24,6.24-3.34,9.02-5.56h-.01Z"/>
          <path class="cls-39" d="M396.72,452.35c-.09-.91-.19-1.82-.28-2.73-1.95-7.8-2.26-15.57-1.47-23.67,1.34-13.64,1.13-27.44,1.49-41.13.46-17.26,1.75-34.5,1.78-51.79,0-3.25-.93-7.31,3.64-8.85,19.24,28.75,38.49,57.51,57.73,86.26,1.56,2.76.19,5.19-1.03,7.52-9.1,17.46-16.69,35.66-25.8,53.11-1.35,2.57-2.62,5.16-5.5,6.36-10.92-7.48-20.06-17.12-30.57-25.09h0Z"/>
          <path class="cls-27" d="M194.01,384.07c-1.8-6.06-3.59-12.14-5.39-18.2,6.09-2.22,11.9-5.28,18.43-6.16,7.64,26.83,15.29,53.64,22.93,80.47,3.94,3.76,3.9,8.6,3.67,13.5,3.72,14.3,7.27,28.66,12.11,42.65,4.98,7.68,7.13,16.14,6.94,25.24,5.45,20.02,10.9,40.05,16.35,60.08-.3.22-.59.45-.88.68-6.93.95-13.46-1.26-20.12-2.5-2.72-.51-4.06-2.36-4.52-4.98-1.55-5.82-3.09-11.63-4.64-17.45-5.17-7.04-5.27-15.79-8.04-23.65-1.66-9.3-6.15-18.08-5.11-27.87.19-1.17.07-2.25-.86-3.13-2.93-1.88-3.43-5.03-4.15-8.02-4.72-19.57-9.9-39.03-15.1-58.48-1.2-4.51-.67-9.22-2.31-13.6-2.31-10.19-4.62-20.39-6.93-30.57-2.13-2.29-2.52-5.08-2.37-8.03h.01Z"/>
          <path class="cls-13" d="M344.53,73.23c2.22,9.83,4.44,19.65,6.66,29.48-.27.18-.53.34-.8.52-.31-.02-.63-.04-.94-.06-12.9-6.28-16.5-5.14-24.66,7.99-2.1,5.3-.71,11.63-4.8,16.34-5.19,3.34-11.13,3.94-17.04,4.68-.67-.02-1.34-.15-1.98-.39-5.51-3.92-8.31-10.34-13.43-14.62-10.55-8-12.38-8.1-22.87-1.08-6.09,4.06-12.29,7.96-17.69,12.9,3.04,4.59,8.67,3.52,12.69,5.92,2.36,1.4,5.98,2.03,3.32,6.13-9.48,5.14-20.34,5.33-30.35,8.58-3.57.66-7.08,1.76-10.78,1.41-2.49-.42-3.87-2.09-4.61-4.32-4.54-13.71-8.5-27.58-12.02-41.58-.32-1.27-.28-2.65.15-3.95.54-1.09,1.37-1.89,2.46-2.41,13.18-3.35,26.77-3.35,40.17-4.94,19.57-2.32,39.24-3.77,58.79-6.2,10.3-2.86,19.54-8.18,29.1-12.75,2.66-1.27,5.27-3.64,8.61-1.63v-.02Z"/>
          <path class="cls-10" d="M207.49,100.16l-1.52,1.21c-4.8,7.55-12.69,11.82-18.97,17.79-1.73,1.65-3.76,2.99-5.48,4.68-19.03,15.56-37.73,31.54-56.46,47.46-1.01.85-1.87,1.91-3.23,2.26-5-15.16-6.93-31.02-10.48-46.51-1.13-4.91-3.07-9.75-2.45-14.98,2.37-2.32,4.96-4.29,7.99-5.8,20.32-10.19,40.79-20.1,61.28-29.95,2.2-1.06,4.38-3.41,7.23-1.24,1.82,3,1.49,6.38,1.33,9.62-.27,4.97,2,7.47,6.54,9.2,4.83,1.84,10.27,2.44,14.25,6.25h-.01Z"/>
          <path class="cls-38" d="M427.3,477.44c10.78-22.33,21.55-44.66,32.33-67,15.46-1.28,30.93-2.55,46.39-3.83,2.54-.57,5.1-1.18,6.67,1.81.1,15.89,3.13,31.63,2.44,47.56-.12,2.88-.13,5.81-2.57,7.95-28.36,4.88-56.64,10.32-85.27,13.51h.01Z"/>
          <path class="cls-38" d="M344.53,73.23c-10.13,4.73-20.24,9.49-30.4,14.17-1.77.82-3.67,1.36-5.5,2.02-2.67-2.34-2.49-5.58-2.51-8.64-.12-17.74-.1-35.48-.01-53.21.01-3.09-.07-6.27,2.44-8.7,14.36-3.63,28.73-7.26,43.07-10.9,8.8-2.23,17.58-4.51,26.39-6.77,3.45.22,6.69-2.4,10.93-.5-3.72,6.46-7.37,12.81-11.02,19.16-11.13,17.79-22.26,35.58-33.39,53.37h-.01Z"/>
          <path class="cls-38" d="M216.67,321.62c13.99,3.95,27.91,8.26,42.03,11.74,8.08,1.99,13.28,6.88,18.4,12.99,11.93,14.2,24.46,27.9,36.76,41.8-14.82-2.6-29.07-7.43-43.55-11.33-21.13-5.68-42.12-11.81-63.19-17.75-5.27-14.77-11.4-29.22-15.67-44.33,9.45-1.52,17.45,2.26,25.23,6.88h0Z"/>
          <path class="cls-38" d="M184.71,74.83c-25.27,12.43-50.54,24.84-75.81,37.26,9.54-16.18,19.18-32.29,28.53-48.59,2.02-3.51,5.26-3.78,8.33-4.58,12.14-3.23,24.33-6.26,36.5-9.37,15.44-3.74,30.87-7.49,46.31-11.23,23.64-5.92,47.27-11.85,70.91-17.74,1.26-.31,2.61-.3,3.92-.43-.35,3.93-3.83,4.67-6.47,5.85-23.28,10.42-46.33,21.34-69.57,31.85-11.72,5.3-23.26,11.01-35.12,15.98-2.37.99-4.73,2.76-7.5.98h-.02Z"/>
          <path class="cls-38" d="M401.9,324.18c-1.06,1.01-1.25,2.32-1.18,3.67.66,13.5-1.05,26.92-1.44,40.38-.77,27.14-1.88,54.27-2.84,81.41-5.86-11.29-8.68-23.7-12.98-35.56-10.04-27.76-19.35-55.78-28.94-83.7-1.01-2.93-2.29-5.82-1.89-9.05,12.94.19,25.89.32,38.84.6,3.58.08,7.41-.61,10.43,2.26h-.01Z"/>
          <path class="cls-39" d="M173.97,410.83c3,11.31,6.38,22.5,10.71,33.39,1.24,2.07,3.5,3.76,2.51,6.67.53,2.22,1.06,4.43,1.6,6.65,4.22,4.01,6.1,8.85,5.17,14.67,1.19,4.42,2.39,8.85,4.1,15.19-24.07-15.89-46.73-30.87-69.41-45.85,10.58-21.63,21.01-43.33,33.18-64.14,2.53,2.65,2.21,6.56,4.19,9.44,2.39,3.16,4.89,6.27,3.83,10.68l.25,2.64c3.7,2.68,4.97,6.24,3.88,10.66h-.01Z"/>
          <path class="cls-23" d="M362.14,757.55c-.71-2.21.18-4.72-1.29-6.78-4.04-5.82-2.77-12.41-2.76-18.82,1.27-2.96,4.13-3.76,6.75-4.77,7.75-3.03,15.5-6.1,23.3-8.97,3.59-1.33,6.72-3.14,9.3-5.91,3.32-.96,3.26,2.44,4.83,3.74,3.88,3.61,7.54,7.42,11.38,11.09,3.51,3.36,7.29,4.63,12.04,2.67,2.58-1.06,5.39-2.32,8.15-.19,10.24,8.97,20.47,17.94,30.7,26.9-.91,3.88-4.27,3.5-6.9,3.53-29.4.31-58.8.23-88.2.08-2.68-.01-5.31-.42-7.28-2.58h-.01Z"/>
          <path class="cls-35" d="M316.57,378.69c2.02-16,4.04-32,6.05-48,.33-2.63.62-5.27.92-7.91-1.73-14.35,1.55-28.36,2.89-42.5.33-3.51.68-7.08,3.55-9.7.47-.04.94-.09,1.41-.13,11.12,5.82,22.2,11.74,33.4,17.42,3.9,1.98,5.83,3.5,2.61,8.16-5.39,7.78-9.95,16.13-14.87,24.23-11.54,20.84-23.07,41.69-34.61,62.54-3.24-.45-1.75-2.46-1.36-4.11h.01Z"/>
          <path class="cls-27" d="M355.55,117.68c5.62-1.27,11.28-2.42,16.85-3.85,3.29-.85,5.12-.78,6,3.38,2.84,13.45,6,26.85,9.43,40.17,1.08,4.19-.38,4.55-3.74,4.09-6.81-.93-13.64-1.72-20.47-2.57-4.93,3.23-9.85.64-14.69-.19-5.62-.97-11.08-3.04-16.93-2.33-1.49.35-2.94.15-4.33-.45-4.88-2.95-4.1-9.13-7.41-12.99,1.6-5.5-2.41-11.04.13-16.55,3.59-4.43,9.12-4.08,13.88-5.57,3.58-1.12,7.25-2.07,10.98-2.61,3.4-.73,6.81-1.14,10.28-.53h.01Z"/>
          <path class="cls-39" d="M231.5,701.68c-1.48-7.11-2.96-14.21-4.43-21.33l.5-.12c.47-.65,1.08-1.14,1.82-1.46,20.28-4.56,41.09-5.47,61.55-8.73,4.56-.73,9.16-1.52,13.82-1.39,2.62.08,5.47-.29,6.62,3.04-.41,11.09-5.09,21.08-8.17,31.48-.44,1.49-1.91,2.33-3.45,2.82-8.08,1.68-16.27.7-24.4.81-11.69.15-23.37.18-35.06-.04-3.77-.07-7.73-.13-8.8-5.06h0Z"/>
          <path class="cls-35" d="M331.28,684.37c8.28-6.16,18.23-9,27.32-13.54,15.07-7.51,30.54-14.17,45.85-21.19.99,7.95,2,15.9,2.99,23.86,1.37,4.53.64,8.04-4.05,10.39-17.35,8.68-35.19,16.29-52.61,24.82-1.39.68-2.92,1.02-4.5.8-7.93-6.62-13.15-14.87-15.01-25.12h0Z"/>
          <path class="cls-23" d="M234.16,770.85c.25-2.63.52-5.26.77-7.89,1.31-7.49,2.63-14.98,3.95-22.48,1.72-2.81,4.72-3.35,7.5-3.68,5.96-.7,8.65-3.64,8.01-9.72-.25-2.41-.15-4.93.8-7.22.55-1.35,1.12-3.14,3.3-1.94,3.19,5.92,1.62,12.22,1.49,18.39.22,3.97.66,7.91,1.14,11.86.52,4.38,2.64,6.31,6.96,6.03.88-.06,1.77.01,2.65.01,8.54,0,8.71-.35,6.16-8.69-1.19-3.91-3.8-7.68-1.91-12.11,5.46-4.37,11.9-4.78,18.49-4.62,6.09,7.28,9.62,15.68,10.8,25.08,2.02,5.26,4.04,10.51,6.06,15.76-.97,3.74-4.22,3.7-6.97,3.74-20.85.33-41.72.3-62.58.04-2.49-.03-4.86-.56-6.62-2.6h-.01Z"/>
          <path class="cls-39" d="M121.83,173.59c.64-5.25,5.65-6.64,8.84-9.33,16.48-13.97,32.49-28.52,49.8-41.51,1.98.19,3.13,1.6,4.1,3.05,5.41,8.01,10.83,16.03,16.29,24.01,1.19,1.75,2.56,3.77.73,6.02-2.84,2.45-6.43,2.85-9.87,3.6-13.22,2.86-26.24,6.52-39.45,9.43-7.67,1.69-8.92,3.5-9.38,11.43-.38,6.62-.24,13.3-2.97,19.55-.62.68-1.21.66-1.79-.06-5.43-8.73-10.87-17.46-16.29-26.19h0Z"/>
          <path class="cls-10" d="M293.71,729.64c-6.12,1.33-12.24,2.66-18.36,3.99-.25-.2-.5-.39-.75-.57-1.87-3.05-1.4-6.45-1.24-9.72.2-3.71-1.04-5.28-4.9-5.07-3.5.2-7.09.59-10.54-.63-2.71,4.53-.97,9.49-1.19,14.23-.17,3.56-.63,5.73-4.9,6.07-4.35.34-8.63,1.66-12.93,2.55-2.62-12.91-5.79-25.7-7.4-38.8,1.87,2.87,4.75,2.65,7.65,2.65,20.52-.03,41.04,0,61.57,0,1.73,1.57,1.8,3.68,1.13,5.53-2.42,6.7-1.77,14.7-8.14,19.77Z"/>
          <path class="cls-10" d="M345.91,708.35c7.84-3.49,15.74-6.88,23.53-10.5,10.8-5.04,21.44-10.45,32.32-15.31,4.25-1.9,6.25-4.48,5.69-9.05,1.65,6.15,2.68,12.39,2.57,18.79-6.13,4.64-9.54,10.42-10.88,18.36-.11.65-.59,1.18-1.09,1.62.21,3.07-1.25,4.98-4.08,6.01-11.54,4.22-23.06,8.46-34.6,12.7-1.24.56-2.2-.06-2.85-.95-4.05-5.51-7.55-11.38-10.87-17.35-.76-1.37-.98-2.95.24-4.32h.02Z"/>
          <path class="cls-13" d="M511.53,408.18c-1.38-2.12-3.72-.86-5.51-1.57,5.71-.51,8.32-4.31,10.85-9.02,4.91-9.15,10.74-17.8,15.87-26.83,3.58-6.3,7.99-2.08,12.09-1.38,4.71.8,3.49,3.94,2.77,7.12-1.47,6.45-2.42,13.02-3.98,19.45-1.29,5.32-.25,8.02,5.82,6.91,1.06-.2,2.21.07,3.31.12.02.68-.1,1.65-.66,1.71-8.78,1.02-9.37,7.91-10.51,14.45-.27,1.52-.75,3-1.66,4.32-6.68,5.42-14.97,7.12-22.84,9.68-3.5,1.14-5.09-.84-5.11-4.63-.03-6.78.66-13.6-.43-20.36v.02Z"/>
          <path class="cls-13" d="M138.12,199.78c.4.07.8.07,1.19,0,8.96-7.87,17.72-16.03,29.17-20.36,2.35.68,3.83,2.45,5.28,4.25,6,8.47,11.82,17.08,17.74,25.61,1.61,2.33,4.71,4.51,2.37,8.11l.07-.08c-8.63,9.2-18.71,16.52-29.57,22.85-8.75-13.46-17.51-26.94-26.25-40.4h0Z"/>
          <path class="cls-19" d="M362.14,757.55c32.23.02,64.45.04,96.67.03,1.94,0,4.04.53,5.71-1.06,2.62,1.6,1.01,4.34,1.71,6.45.63,5.68-2.18,6.78-7.41,6.74-29.25-.25-58.48-.12-87.73-.12-6.18,0-9.21-3.13-9.11-9.4.01-.88.1-1.77.15-2.65h0Z"/>
          <path class="cls-13" d="M574.07,420.21c.43,9.93.82,19.87,1.33,29.8.19,3.63-.98,5.46-4.85,6.48-7.9,2.09-15.58,4.94-23.35,7.48-5.81-8.27-6.22-17.93-6.99-27.49,1.73-4.76-1.13-10.67,3.67-14.68,8.46-2.99,17.37-2.5,26.1-3.35,1.55-.15,3.05.42,4.1,1.75h0Z"/>
          <path class="cls-15" d="M541.99,436.26c.39,9.5,3.74,18.42,5.21,27.71-11.54-.01-23.09-.02-34.64-.03,1.27-18.62-2.19-37.14-1.04-55.75,2.25,5.27.87,10.8,1.06,16.2.3,8.28.1,8.27,7.65,5.47,6.37-2.35,12.76-4.66,19.14-6.98.25.22.51.44.77.66,1.54,4.11,1.33,8.46,1.83,12.72Z"/>
          <path class="cls-12" d="M574.07,420.21c-10.24.92-20.47,1.84-30.7,2.76-1.38.97-2.72.97-4.02-.14l.04.04c0-1.08-.1-2.19.01-3.26.91-8.38,1.62-16.93,13.35-16.62,14.82-.88,29.63-1.87,44.46-2.54,2.57-.12,7-2.33,7.17,2.92.13,4.12,2.42,9.4-5.17,10.66-8.48,1.41-16.77,4.06-25.14,6.19h0Z"/>
          <path class="cls-27" d="M96.63,500.11c6.7,3.71,14.33,5.69,20.41,10.6.29.6.71,1.33.45,1.87-4.52,9.9-9.01,19.8-16.88,27.66-7.48-2.13-15.68-.2-22.85-4.08,6.28-12.02,12.58-24.03,18.86-36.05h0Z"/>
          <path class="cls-40" d="M164.37,240.18c8.84-8.94,19.2-15.89,29.57-22.84-4.16,13.25-8.29,26.52-12.56,39.75-.55,1.71-.49,4.21-3.31,4.3-4.56-7.07-9.13-14.14-13.7-21.21h0Z"/>
          <path class="cls-19" d="M433.83,729.64c-.44.02-.97-.11-1.31.09-11.63,6.69-19.74,1.27-26.94-7.69-1.36-1.69-3.27-2.94-4.91-4.4,1.66-6.45,6.98-6.31,12.02-6.66,7.05,6.22,14.09,12.44,21.15,18.65Z"/>
          <path class="cls-3" d="M412.68,710.98c-3.47,3.18-9.12,2.43-12.02,6.66-.87-1.79-1.75-3.59-2.61-5.38-.07-1.09,0-2.2-.2-3.27-1.77-9.56,2.29-15.14,12.17-16.72,1.79,6.11,2.52,12.36,2.66,18.7h-.01Z"/>
          <path class="cls-11" d="M216.67,321.62c-8.41-2.3-16.82-4.58-25.23-6.88,2.96-5.31,7.82-8.92,11.84-13.29,4.46,6.73,8.92,13.44,13.4,20.17h-.01Z"/>
          <path class="cls-16" d="M331.27,154.76c10.78,1.38,21.57,2.76,32.35,4.14.35,2.18.7,4.36,1.05,6.54-9.72-1.34-18.37-6.35-27.95-8.14-1.38-1.79-5.04,1.31-5.45-2.55h0Z"/>
          <path class="cls-34" d="M355.55,117.68c-3.04,1.34-6.22,2.09-9.54,2.25-2.62-6.74.66-12.04,4.22-17.27.32.01.64.02.96.03,1.36,5.01,1.48,10.4,4.35,14.98h.01Z"/>
          <path class="cls-39" d="M184.71,74.83c20.38-9.16,40.79-18.23,61.13-27.47,17.33-7.86,34.58-15.89,51.84-23.9,1.99-.92,3.81-2.19,5.71-3.3,1.65-.73,3.26-1.63,5.17-1.29.03,23.51.06,47.04.09,70.55-12.83,2.6-25.92,3.13-38.9,4.53-20.73,2.23-41.51,4.15-62.25,6.21-7.28-.08-13.29-4.33-20.02-6.17-2.57-.71-2.93-2.93-2.88-5.3.1-4.62.09-9.24.12-13.86h-.01Z"/>
          <path class="cls-10" d="M391.33,568.33c-9.87,9.76-21.57,17.34-31.88,26.57-11.77,10.55-25.68,18.59-36.04,30.78-16.29-7.52-32.82-14.48-49.19-21.87-3.82-6.94-6.66-14.14-5.73-22.3,0,0,.53.14.54.14,9.81,1.58,19.67,2.9,29.41,4.86,4.77.96,7.08-.11,9.02-4.78,6.03-14.52,12.62-28.8,19.15-43.53,3.53,2.01,4.67,5.51,6.45,8.41,6.13,10.02,12.23,20.07,18.1,30.23,2.1,3.63,3.97,4.72,8.33,2.94,10.44-4.24,21.21-7.69,31.84-11.45h-.01Z"/>
          <path class="cls-3" d="M252.67,521.58c-2.96-8.24-5.31-16.64-6.94-25.24,23.16-10.28,46.33-20.58,69.49-30.86,1.91,1.09,2.68,2.97,3.03,4.95,3.58,20.28,7.15,40.57,9.64,61.02,0,.77-.19,1.49-.59,2.15-12.45-1.07-24.61-3.89-36.91-5.88-12.58-2.04-25.16-4.09-37.73-6.14h0Z"/>
          <path class="cls-3" d="M327.32,533.59c0-.46-.01-.93-.02-1.39-3.15-19.92-2.69-40-2.42-60.07.03-2.43.35-4.88,2.45-6.62,20.12,10.29,40.26,20.59,60.37,30.91,2.11,1.08,5.35,1.73,5.27,4.46-.08,2.57-3.47,2.22-5.35,3.15-20.06,9.92-40.18,19.73-60.29,29.56h-.01Z"/>
          <path class="cls-5" d="M327.33,465.51c0,22.23-.02,44.47-.03,66.69-3.91-10.6-4.14-21.93-6.44-32.86-2.35-11.19-3.79-22.56-5.62-33.86v-67.72c.32-.02.63-.04.95-.07,3.71,22.61,7.43,45.21,11.14,67.81Z"/>
          <path class="cls-5" d="M233.64,453.68c-1.23-4.5-2.44-9-3.67-13.5,15.95-2.43,31.89-4.86,47.83-7.27,5.03-.76,10.26-.81,15.04-2.31,5.6-1.77,5.09,2.26,5.99,5.09,1.24,3.91-1.27,5.21-4.46,5.72-17.24,2.74-34.51,5.33-51.72,8.24-3.2.54-7.37-.29-9.02,4.03h.01Z"/>
          <path class="cls-29" d="M316.57,378.69c.17,1.47-.1,3.07,1.36,4.11-.42,1.59-.98,3.1-2.52,4,0-2.76-.66-5.61,1.16-8.11Z"/>
          <path class="cls-40" d="M329.98,270.6c-2.14,17.4-4.3,34.79-6.44,52.2.49-4.61-2.25-5.85-6.2-6.84-24.27-6.04-48.46-12.33-72.7-18.53-.75-.68-2.19-1.03-1.28-2.55,5.75-1.78,11.5-3.56,17.25-5.35,19.99-4.83,39.53-11.24,59.28-16.92,3.28-.94,6.43-2.85,10.09-2.01h-.01Z"/>
          <path class="cls-39" d="M193.87,217.42c-4.3-9.29-11.24-16.84-16.66-25.39-1.65-2.61-3.35-5.19-5.03-7.79,3.93-4.02,9.19-2.47,13.82-2.97,10.49-1.1,21.05-1.97,31.63-1.58,1.1.23,2.12.7,3.04,1.36,6.46,6.66,11,14.56,14.59,23.05.41,1.29.82,2.57,1.23,3.87-8.74,6.73-16.38,14.66-24.25,22.31-3.64,3.53-6.24,3.7-9.18-1.06-2.61-4.21-4.73-8.97-9.19-11.8h0Z"/>
          <path class="cls-12" d="M261.19,223c34.67-8.39,67.58-16.36,101.47-24.56-2.54,9.17-8.81,15.56-11.55,23.49-4.44,12.87-16.17,12.59-26.25,15.37-2.97.82-6.35.51-9.08,1.75-11.34,5.18-21.18,1.94-31.09-4.1-6.94-4.23-14.5-7.43-23.5-11.96h.01Z"/>
          <path class="cls-8" d="M320.67,142.57c2.79-.19,3.68,1.35,4.15,3.9.51,2.75.83,5.65,2.62,8.03,3.28,3.53,3.49,7.72,2.58,12.14.95,7.67,5.51,14.74,3.77,22.85-5.03,2.39-10.05,4.82-15.83,2.57-.86-1.79-1.71-3.58-2.57-5.37-2.85-1.86-3.51-4.9-4.29-7.89-2.03-7.87-3.31-15.93-5.42-23.78-1.06-4.03-2.34-8.13,2.49-10.8,4.06-1.3,7.96-3.87,12.5-1.67h0Z"/>
          <path class="cls-40" d="M296.7,166.78c-12.35,10.32-24.71,20.62-37.04,30.95-5.37,4.5-10.33,3.94-14.9-1.67.32-.57.74-1.06,1.27-1.45,14.61-8.06,27.92-18.18,42.2-26.76,2.55-1.54,4.8-4.25,8.39-2.79.32.36.44.75.36,1.14-.09.4-.18.59-.28.59h-.01Z"/>
          <path class="cls-18" d="M246.07,196.02c-.44.02-.88.02-1.33.02-4.93-4.41-9.85-8.81-14.78-13.22-3.18,1.03-6.35.49-9.52-.12-.41-.45-.83-.91-1.24-1.36-2.72-1.89-5.93-3.57-3.24-7.73,7.51-3.18,15.42-3.11,23.35-2.83,6.43,7.29,8.24,15.82,6.74,25.23h.01Z"/>
          <path class="cls-12" d="M296.7,166.78c.04-.44.06-.88.06-1.31,2.36-4.8,7.05-7.3,10.74-10.78,2.64,10.68,5.27,21.35,7.91,32.03-.67,3.08-1.68,1.63-2.68.19-3.76-5.38-7.52-10.76-11.24-16.16-1.23-1.78-2.05-3.99-4.76-3.98h-.01Z"/>
          <path class="cls-25" d="M220.45,182.71c3.19-1.98,6.37-2.03,9.52.12.87,7.31,4.84,13.85,5.31,21.26-4.94-7.12-9.89-14.26-14.82-21.38h-.01Z"/>
          <path class="cls-17" d="M317.96,192.07c5.27-.87,10.27-3.41,15.83-2.57-.24.61-.44,1.25-.75,1.82-5.9,11.23-7.18,11.3-15.08.75h0Z"/>
          <path class="cls-1" d="M330.02,166.64c-.88-4.04-2.69-7.89-2.58-12.14,1.28.09,2.56.17,3.84.25,1.81.85,3.63,1.7,5.45,2.55-6.41.12-3.3,7.06-6.7,9.34h0Z"/>
          <path class="cls-33" d="M268.49,581.51c2.26,7.13,4.53,14.28,6.79,21.42,5.06,8.1,6.57,17.3,8.07,26.45.46,2.79-1.41,5.11-3.47,6.89-15.6,13.5-30.89,27.32-46.29,41.05-1.54,1.37-3.48,1.92-5.22,2.88-.28-.01-.55,0-.82.03-4.59-14.5-7.4-29.46-10.81-44.25-2.12-9.21-5.25-18.26-5.6-27.84,8.24-9.94,18.67-17.57,27.99-26.35,2.16-2.04,4.44-3.64,4.37-6.94,4.64,5.3,11.53,3.3,17.21,5.26,2.46.85,5.17.95,7.78,1.38h0Z"/>
          <path class="cls-32" d="M91.41,615.3c2.09,1.5,3.42,2.6,4.88,3.49,1.98,1.23,3.97,2.52,2.82,5.2-1.16,2.69-1.21,6.32-5.2,6.96-2.19.35-4.34.83-6.54,1.12-1.99.25-3.99.56-4.47-2.4-.39-2.36.83-3.32,2.69-3.79,5.41-1.33,7.46-3.13,1.26-6.67-3.18-1.82-2.53-4.91-2.02-7.72.6-3.31,3.45-2.89,5.81-3.05,2.43-.15,4.87-.14,7.3-.18,1.82-.02,3.61-.04,3.91,2.45.3,2.53-1.33,2.84-3.23,3.11-2.11.31-4.2.84-7.2,1.47h-.01Z"/>
          <path class="cls-4" d="M148.59,643.01c-2.78-.98-4.51-2.23-3.27-5.83,1.36-3.95,2.34-8.13,2.76-12.28.49-4.85,2.67-5.52,7.01-4.73,8.16,1.5,8.31,1.29,6.02,9.42-.94,3.32-1.24,6.41.31,9.65.65,1.37,2.67,3.35.51,4.62-2.28,1.34-4.13-.21-5.39-2.39-.77-1.34-1.78-2.54-2.68-3.8-2.79-.68-1.82,1.51-1.9,2.66-.17,2.22-.5,3.95-3.36,2.67h-.01Z"/>
          <path class="cls-4" d="M140.49,628.66c0,1.55-.1,3.1.02,4.65.35,4.4-1.17,5.71-5.81,4.97-10.37-1.66-10.42-1.39-9.07-12.08,1.16-9.17,2.74-10.25,11.34-7.8,2.56.73,3.73,4.15,3.51,10.26Z"/>
          <path class="cls-32" d="M120.69,619.65c.71,5.57-.71,8.75-7.2,6.86-5.04-1.46-3.1,2.65-3.55,4.83-.33,1.62,1.24,4.54-2.56,3.83-2.71-.51-4.63-1.55-3.8-4.89.91-3.66,2-7.31,2.4-11.03.74-6.98,4.11-8,10.37-6.17,4.01,1.17,6.2,2.22,4.33,6.58h.01Z"/>
          <path class="cls-4" d="M176.49,624.64c2.65,0,5.31-.04,7.96.02,1.81.04,2.95.91,2.73,2.89-.19,1.67-1.41,2.3-2.83,2.04-6.27-1.14-6.89,2.72-6.7,7.39.02.43,0,.98-.23,1.29-1.72,2.2,1.7,8.13-4.23,6.96-6.24-1.23-1.77-5.6-1.41-8.49.39-3.16,2.77-6.58-2.77-7.51-1.58-.27-1.9-1.68-1.57-3.13.29-1.25,1.24-1.8,2.42-1.82,2.21-.06,4.43-.01,6.64-.01v.38h0Z"/>
          <path class="cls-6" d="M148.59,643.01c5.2-1.04,1.06-5.64,3.39-7.97,1.34.09,1.35,1.6,1.88,2.65-1.41,1.04-1.06,2.63-1.33,4.05-.5,2.75-1.92,3.04-3.94,1.28h0Z"/>
          <path class="cls-26" d="M243.36,294.86c.43.85.85,1.7,1.28,2.55-1.16-.06-2.72.41-3.18-.98-.5-1.46.97-1.38,1.91-1.57h-.01Z"/>
          <path class="cls-24" d="M100.61,540.23c5.47-9.84,10.95-19.68,16.41-29.52,12.14,4.16,23.18,10.68,34.65,16.27,17.02,8.32,34.42,15.88,50.92,25.27-17.46-.77-34.66-4.03-52-5.9-16.69-1.8-33.32-4.06-49.98-6.12h0Z"/>
          <path class="cls-19" d="M232.52,533.25c2.66,7.91,4.78,15.96,6.35,24.15-10.28-1.29-20.57-2.61-30.86-3.88-1.34-.17-2.65-.28-3.58-1.42.45-.82.91-1.63,1.36-2.46,6.33-5.42,13.11-10.24,20.15-14.69,1.95-1.24,3.87-3.16,6.57-1.71h.01Z"/>
          <path class="cls-19" d="M203.3,422.68c1.57.83,1.83,2.47,2.2,3.9,6.49,25.39,12.92,50.78,19.36,76.19-1.97,1.68-3.27-.14-4.63-1.01-5.8-3.66-11.46-7.51-17.31-11.09-3.08-1.89-3.88-4.47-3.73-7.85.87-20.08,1.9-40.16,4.11-60.14Z"/>
          <path class="cls-13" d="M232.52,533.25c-7.41,3.74-13.74,9.12-20.65,13.61-1.82,1.18-3.24,3.66-6.05,2.79,6.64-14.58,13.28-29.17,19.91-43.75,2.26,9.12,4.53,18.23,6.8,27.36h-.01Z"/>
          <path class="cls-38" d="M193.95,472.21c-1.72-4.89-3.45-9.77-5.17-14.67,6.59,1.77,9.33,9.58,5.17,14.67Z"/>
          <path class="cls-38" d="M173.97,410.83c-1.29-3.56-2.58-7.1-3.88-10.66,6.79,1.71,8.15,5.47,3.88,10.66Z"/>
          <path class="cls-38" d="M169.84,397.53c-2.15-3.25-2.92-6.99-3.83-10.68,6.49,3.7,7.7,7.05,3.83,10.68Z"/>
          <path class="cls-38" d="M194.01,384.07c1.66,2.42,1.79,5.3,2.37,8.03-3.69-1.82-7.5-3.61-2.37-8.03Z"/>
          <path class="cls-38" d="M187.19,450.88c-1.62-1.92-2.08-4.3-2.51-6.67,1.86,1.83,8.5,1.88,2.51,6.67Z"/>
          <path class="cls-24" d="M345.91,708.35c3.45,8.16,8.59,15.31,13.47,22.62.49,6.59.97,13.2,1.46,19.79-1.73,4.98-6.12,3.17-9.01,2.72-15.93-2.54-31.73-1.61-47.58.4-3.52-8.08-7.04-16.17-10.55-24.25,2.74-8.33,5.67-16.6,7.01-25.3,3.11-10.7,6.23-21.39,9.34-32.1.67-3.3-.59-6.81,1.08-10,.91-1.72.74-4.5,3.89-4.14,5.41,8.76,10.83,17.52,16.25,26.28,4.45,8.25,9.22,16.31,14.63,23.99h0Z"/>
          <path class="cls-19" d="M234.16,770.85c23.5.03,47,.08,70.5.1,1.98,0,4.03.23,5.67-1.3.27.6.71,1.18.76,1.8,1.17,11.42,1.1,11.49-10.26,11.49h-55.84c-7.72,0-11.33-4.03-10.82-12.09h0Z"/>
          <path class="cls-38" d="M315.03,658.09c-2.97,4.25-2.45,9.73-4.97,14.14-3.36-3.2-7.46-1.4-10.95-.98-22.73,2.73-45.39,5.92-68.09,8.95-.87.11-1.77,0-2.65,0,11.08-12.16,24.42-21.85,36.23-33.2,2.55-2.45,4.88-5.45,7.93-7.04,10.11-5.3,10-13.05,6.58-22.29-1.75-4.74-2.6-9.82-3.84-14.74,15.62,5.28,30.3,12.79,45.37,19.36,1.49.65,2.58,1.66,2.77,3.39-2.13,10.98-6.84,21.28-8.38,32.42h0Z"/>
          <path class="cls-27" d="M307.48,154.68c-1.07,6.1-6.69,7.65-10.74,10.78-10.79,5.06-20.19,12.39-30.24,18.67-6.69,4.17-12.79,9.38-20.44,11.9-2.04-8.07-2.96-16.46-6.8-24.02-4.03-7.57-5.86-15.78-6.98-24.19,10.33-2.64,20.65-5.27,30.98-7.91,1.35-1.48,2.86-2.68,4.86-3.21,9.12-2.4,18.27-4.72,27.46-6.84,1.77-.41,3.49-.17,5.11.65.43.14.86.28,1.29.42,4.15,4,3.43,10.32,6.96,14.61-5.47,2.24-1.2,6.05-1.47,9.13h.01Z"/>
          <path class="cls-20" d="M232.29,147.81c4.45,7.44,6.13,15.71,6.98,24.19-7.96.93-15.93,1.84-23.9,2.77-2.29,2.6-5.57,2.68-8.57,3-9.69,1.04-19.38,2-29.06,3.17-3.14.38-6.17-.13-9.2-.88-7.87,5.57-15.74,11.17-23.66,16.68-1.73,1.2-3.03,3.31-5.58,3.05.46-7.5,1.02-14.99,1.38-22.49.31-6.25,3.6-9.19,9.62-10.49,15.33-3.32,30.56-7.09,45.82-10.7,1.93-.45,3.85-1.01,5.78-1.51,5.74-5.51,13.01-5,20.13-5.09,3.41-.56,6.83-1.13,10.25-1.69h0Z"/>
          <path class="cls-25" d="M222.04,149.5c-6.72,1.7-13.42,3.4-20.13,5.09-7.15-10.61-14.29-21.24-21.44-31.85,8.15-7.54,16.38-14.98,25.5-21.36,4.33,14.56,8.67,29.1,12.94,43.67.55,1.89.52,4.05,3.11,4.45h.01Z"/>
          <path class="cls-25" d="M300.7,130.52c-12.48,3.14-24.96,6.26-37.43,9.4-4.53-5.61-11.77-5.08-17.65-7.62-3.21-1.39-3.1-2.36-.89-4.34,11.59-4.75,23.48-8.6,35.5-12.06,2.73-.78,5.5-1.84,8.21.13,5.48,3.67,8.67,9.26,12.28,14.5h-.01Z"/>
          <path class="cls-25" d="M350.22,102.67c-.09,6.07-3.97,11.23-4.22,17.27-8.46,2.3-16.93,4.59-25.39,6.89-.55.33-1.01.25-1.35-.32,2.58-5.41,1.26-11.73,3.91-17.13,5.67-3.38,11.96-5.17,18.22-7,2.71-.8,5.5-1.62,8.17.2l.65.09h0Z"/>
          <path class="cls-2" d="M288.42,116.01c-10.78,2.25-21.05,6.19-31.53,9.47-3.95,1.24-7.86,2.93-12.17,2.46,8.66-6.1,17.35-12.15,25.96-18.31,2.47-1.77,4.74-2.01,7.27-.2,3.36,2.41,8.05,2.69,10.48,6.58h0Z"/>
          <path class="cls-20" d="M319.26,126.52c.45.11.91.21,1.35.32.64,2.97.97,6.06,2,8.89,1.08,2.98.41,5.05-1.95,6.85-3.91.99-7.81,1.99-11.72,2.98-2.44-.08-4.09-.81-4.52-3.69-.54-3.68-1.6-7.29-2.44-10.92,5.75-1.47,11.52-2.95,17.27-4.42h.01Z"/>
          <path class="cls-9" d="M349.58,102.58c-9.11,1.06-17.15,6.28-26.4,6.8,2.41-2.53,4.8-5.08,7.22-7.59,6.7-6.96,12.17-6.73,19.17.78Z"/>
          <path class="cls-19" d="M275.35,733.62c1.84,5.91,3.52,11.87,5.59,17.7,1.24,3.5.54,5.09-3.29,4.88-.22-.01-.44,0-.66,0-17.99.88-18.83.07-19.02-18.54,4.88-5.07,10.76-5.84,17.23-3.93l.15-.11h0Z"/>
          <path class="cls-3" d="M275.19,733.74c-5.74,1.31-11.49,2.63-17.23,3.93-.01-6.68-.03-13.35-.04-20.04,5.11-2.76,10.78-.61,16.13-1.72,2.29-.47,1.56,1.87,1.5,3.36-.18,4.83-.24,9.65-.34,14.48h-.01Z"/>
          <path class="cls-36" d="M168.55,180.06c10-2.52,20.33-2.35,30.45-3.91,5.4-.83,10.91-.94,16.38-1.38,1.28,2.2,2.56,4.38,3.84,6.58-15.67.96-31.34,1.92-47.02,2.88-1.21-1.39-2.43-2.78-3.66-4.17h0Z"/>
          <path class="cls-21" d="M178.76,213.54c-10.57-3.03-19.41-5.56-28.89-8.27,4.56-4.84,9.86-7.28,14.36-10.75,1.54-1.18,2.85-1.06,3.85.66,3.29,5.63,6.57,11.29,10.68,18.37h0Z"/>
          <path class="cls-13" d="M539.34,422.83c1.34.04,2.68.09,4.02.14-1.15,4.35.67,9.02-1.37,13.29-1.83-4.29-2.74-8.76-2.65-13.42h0Z"/>
          <path class="cls-30" d="M352.15,207.45c-4.21,7.18-7.59,12.87-10.87,18.6-1.13,1.97-2.97,2.63-4.9,3.08-10.36,2.42-20.75,4.66-31.09,7.18-2.79.68-5.11.43-7.57-1.04-5.43-3.26-10.98-6.32-18.06-10.35,24.86-6,47.91-11.55,72.49-17.47h0Z"/>
          <path class="cls-7" d="M156.27,627.72c-.29,1.18-.96,1.94-2.25,1.86-1.82-.12-2.78-1.15-2.61-2.98.11-1.13.55-2.25,2-1.88,1.49.39,2.87,1.09,2.86,3h0Z"/>
          <path class="cls-37" d="M132.91,624.4c2.02.5,4.22,1.03,3,3.85-.76,1.76-.04,4.99-3.62,4.45-2.18-.33-3.93-1.1-2.87-3.91.7-1.84-.21-4.93,3.49-4.4h0Z"/>
          <path class="cls-31" d="M111.56,616.85c1.46.53,2.9,1.26,3.15,2.89.19,1.33-.36,2.68-2.12,2.37-1.58-.28-2.79-1.13-2.66-3.04.08-1.09.18-2.16,1.63-2.23Z"/>
        </g>
      </g>
    </g>
  </g>
</svg>