<?xml version="1.0" encoding="UTF-8"?>
<svg xmlns="http://www.w3.org/2000/svg" version="1.1" viewBox="0 0 636.44 792">
  <defs>
    <style>
      .cls-1 {
        fill: #81641f;
      }

      .cls-2 {
        fill: #c7ab3d;
      }

      .cls-3 {
        fill: #efd470;
      }

      .cls-4 {
        fill: #b78f2f;
      }

      .cls-5 {
        fill: #474746;
      }

      .cls-6 {
        fill: #e2c9b7;
      }

      .cls-7 {
        fill: #987726;
      }

      .cls-8 {
        fill: #b88f30;
      }

      .cls-9 {
        fill: #a89154;
      }

      .cls-10 {
        fill: #773211;
      }

      .cls-11 {
        fill: #ae892d;
      }

      .cls-12 {
        fill: #856854;
      }

      .cls-13 {
        fill: #bc987e;
      }

      .cls-14 {
        fill: #d9bca6;
      }

      .cls-15 {
        fill: #bd5522;
      }

      .cls-16 {
        fill: #2d2c2c;
      }

      .cls-17 {
        fill: #bc977e;
      }

      .cls-18 {
        fill: #ebe2ce;
      }

      .cls-19 {
        fill: #987626;
      }

      .cls-20 {
        fill: #9d461a;
      }

      .cls-21 {
        fill: #a5854f;
      }

      .cls-22 {
        fill: #816420;
      }

      .cls-23 {
        fill: #dfc54d;
      }

      .cls-24 {
        fill: #464646;
      }

      .cls-25 {
        fill: #866855;
      }

      .cls-26 {
        fill: #bd997f;
      }

      .cls-27 {
        fill: #5a5957;
      }

      .cls-28 {
        fill: #977625;
      }

      .cls-29 {
        fill: #bc977d;
      }

      .cls-30 {
        fill: #80631f;
      }

      .cls-31 {
        fill: #bb977d;
      }

      .cls-32 {
        fill: #bd987f;
      }

      .cls-33 {
        fill: #ded5c2;
      }

      .cls-34 {
        fill: #c6aa3d;
      }

      .cls-35 {
        fill: #8f8e8e;
      }

      .cls-36 {
        fill: #af8a2e;
      }

      .cls-37 {
        fill: #917333;
      }

      .cls-38 {
        fill: #2d2d2c;
      }

      .cls-39 {
        fill: #715719;
      }

      .cls-40 {
        fill: #f29e39;
      }

      .cls-41 {
        fill: #de8932;
      }

      .cls-42 {
        fill: #c7ab3e;
      }

      .cls-43 {
        fill: #856753;
      }

      .cls-44 {
        fill: #856755;
      }

      .cls-45 {
        fill: #b78e2f;
      }

      .cls-46 {
        fill: #80631e;
      }

      .cls-47 {
        fill: #856754;
      }
    </style>
  </defs>
  <!-- Generator: Adobe Illustrator 28.7.1, SVG Export Plug-In . SVG Version: 1.2.0 Build 142)  -->
  <g>
    <g id="Layer_1">
      <g>
        <path class="cls-23" d="M217.75,584.89c-14.78,3.2-29.58,6.33-44.34,9.65-4.33.97-8.29,1.08-12.67-.5-24.79-8.95-49.69-17.63-74.6-26.25-3-1.04-4.86-2.76-6.48-5.35-12.23-19.56-24.55-39.07-36.89-58.57-1.4-2.21-2.11-4.09-1.04-6.87,9-23.47,17.88-46.99,26.59-70.57,1.34-3.63,3.25-4.97,7.09-5.52,26.48-3.82,52.92-7.88,79.34-12.05,5.32-.84,8.48-.08,9.48,6.12,1.15,7.15,3.35,14.13,5.09,21.18,2.87,1.62,3.35,4.57,3.97,7.36,2.57,11.47,6.23,22.65,8.64,34.16.58,2.74.84,5.79,3.54,7.61,13.47,2.89,26.86,6.25,40.72,6.84,3.31,1.86,7.04,2.41,10.64,3.34,4.48,1.16,7.35,3.88,7.81,8.57,2.15,22.28,4.39,44.55,6.43,66.84.15,1.65-.04,3.32-.56,4.92-.77,2.1-2.33,3.5-4.39,4.06-8.38,2.25-16.76,4.57-25.38,5.74-1.04.14-2.04-.21-2.98-.7Z"/>
        <path class="cls-46" d="M249.27,576.04c-2.21-23.99-4.48-47.98-6.57-71.98-.38-4.3-2.43-5.88-6.49-6.85-3.85-.92-9.18.98-11.2-4.59-2.82-3.43-1.85-7.41-1.52-11.24.9-10.23,1.47-20.48,2.38-30.7-.15-.74-.17-1.49-.08-2.24.61-5.7-1.84-11.73,1.76-17.12,3.42-.74,2.91,2.09,3.17,3.82.49,3.25.24,6.56-.12,10.04,9.39-7.28,17.64-15.64,27.2-22.44,33.03-1.3,65.98-4.03,99.01-5.18,5.38-.19,9.78-1.66,11.63-7.32,3.38-1.16,3.25,1.7,3.35,3.38.27,4.52,2.93,7.45,5.79,10.53,6.15,6.62,13.46,12.08,19.17,19.14.58,13.26.09,26.53.26,39.8.03,2.03-.04,3.61-2.95,3.39-6.51-.48-6.52-.34-8.63,6.69,11.74-.04,10.68,9.14,11.99,16.69.04,17.09.07,34.18.11,51.28-.9,2.96-3.55,3.93-5.94,5.1-24.19,11.92-48.68,23.23-72.86,35.18-4.13,2.04-8.17,2.44-12.59.78-17.68-6.64-35.04-14.08-52.48-21.3-2.18-.9-3.97-2.29-4.39-4.85Z"/>
        <path class="cls-45" d="M249.27,576.04c4.79,4.31,11.09,5.5,16.78,7.86,13.57,5.64,27.05,11.52,40.87,16.57,4.27,1.56,7.51.96,11.13-.78,9.52-4.58,19.07-9.1,28.57-13.72,16.98-8.25,33.94-16.56,50.9-24.85,5.45,21.62,10.94,43.24,16.33,64.87,1.85,7.41,3.46,14.88,5.17,22.32.5.99.5,1.98.06,2.99-7.05,4.68-15.35,6-23.2,8.38-15.26,4.63-30.52,9.29-45.85,13.68-4.1,1.17-8.26,3.12-12.65.84-1.36-1.04-2.27-2.45-2.86-4-7.51-19.72-14.73-39.54-21.86-58.55-.86,17.54-3.29,35.82-4.32,54.21-.15,2.72-.67,5.39-3.26,7.05-3.1.9-6.24.52-9.28-.04-25.54-4.73-51.25-8.5-76.65-13.95-3.25-.7-8.24-.67-6.56-6.67,1.72-22.46,3.44-44.91,5.15-67.37,8.51-2.08,17-4.25,25.54-6.18,2.24-.51,4.41-.83,5.98-2.67Z"/>
        <path class="cls-14" d="M405.16,177.45c4.64,19.57,9.24,39.15,13.92,58.71,3.95,16.54,7.86,33.09,12.05,49.57,1.15,4.52.12,6.56-4.43,8.13-19.83,6.82-39.51,14.04-59.25,21.11-2.92,3.21-6.96,4.23-10.86,5.49-8.79,2.84-17.15,7.01-26.35,8.58-4.83-.02-6.02-3.83-7.33-7.29-8.69-22.89-17.3-45.81-25.88-68.73-8.22-21.96-16.61-43.85-24.71-65.84-1.06-2.86-2.77-5.7-1.1-8.93,2.08-2.34,5.03-2.81,7.81-3.58,37.26-10.23,74.65-19.97,111.9-30.21,1.8-.5,3.62-.99,5.52-.47,3.87,1.93,3.58,5.99,4.73,9.31.73,2.09.72,4.38,1.62,6.43.86,5.9,3.94,11.5,2.38,17.73Z"/>
        <path class="cls-17" d="M271.57,178.82c7.72,20.83,15.39,41.68,23.16,62.48,9.67,25.88,19.33,51.75,29.23,77.54,1.26,3.29.81,8.34,6.34,8.72-2.14,5.11-8.01,3.22-11.65,6.5,9.3,3.8,18.61,7.35,27.81,11.16,2.8,1.16,6.04,1.91,6.76,5.64-.74,3.16-3.56,4.49-5.74,6.29-13.6,11.21-26.72,22.99-40.38,34.11-4.77,3.88-6.25,3.77-9.22-1.33-7.53-12.9-14.79-25.95-22.53-38.73-.98-1.62-1.7-3.33-1.47-5.3-2.46-4.48-4.91-8.96-7.37-13.44.44-3.71,2.97-6.3,4.97-9.15,6.63-9.48,13.27-18.96,19.13-28.93.24-2.7-1.28-4.76-2.51-6.92-4.63-8.13-9.52-16.12-14.16-24.24-1.57-2.75-3.58-4.47-6.57-5.2-5.27-6.45-8.89-13.76-11.25-21.73,2.81-3.55,7.17-4.83,10.79-7.18,6.09-3.96,6.18-3.95,2.87-10.17-4.99-9.36-10.44-18.46-15.66-27.69-1.29-2.29-3.35-4.34-2.88-7.36,6.08-4.51,12.54-7.5,20.34-5.06Z"/>
        <path class="cls-24" d="M273.87,345.9c9.02,13.42,16.62,27.68,24.63,41.69,2.39,4.18,3.4,6.27,8.42,1.78,14.8-13.24,30.36-25.63,45.63-38.35.93-.64,1.9-.52,2.88-.13,5.75,1.87,11.5,3.73,17.25,5.6,1.89,2.43,2.42,5.24,2.09,8.21-1.41,12.96-1.18,26.02-2.4,38.99-.21,2.26-.27,4.6-2.37,6.13-2.61,9.23-3.33,9.88-13.62,10.01-27.59.34-55.02,3.89-82.63,4-5.7.02-11.4,2.64-17.06-.25-4.15-4.95-2.85-11.17-3.28-16.73-1.04-13.67-1.73-27.38-2.8-41.05-.29-3.67-.71-7.55,2.03-10.74,6.82-3.64,14.02-6.42,21.23-9.15Z"/>
        <path class="cls-33" d="M511.26,763.56c-21.87,1.62-43.75,3.29-65.63,4.86-13.43.96-26.87,1.68-40.29,2.69-20.22,1.52-40.4,3.51-60.64,4.7-21.83,1.28-43.64,3.15-65.55-.5-14.04-2.34-28.4-2.8-42.6-4.25-18.1-1.85-36.18-3.87-54.27-5.76-10.08-1.05-20.17-1.97-30.26-2.96-9.21-.91-18.42-1.83-27.64-3.2,6.37-.59,12.71-1.17,19.03-1.6,18.81-1.3,37.74-1.18,56.49-3.02,8.85-.87,17.9.6,26.56-2.22,1.1,4.32-3.14,5.82-4.97,9.1,15.4.32,30.48-.2,45.54.34.64-.02,1.28-.01,1.91,0,1.22.03,2.45-.11,3.67-.14q7.67-.21,7.65-7.94c0-1.89.09-3.7,1.75-5,1.96-1.31,4.14-1.94,6.45-2.09,18.39-1.2,36.79-1.94,55.16.31,9.84,1.2,19.88.56,29.59,3.02,3.24,1.59,3.14,5.47,5.36,7.76,1.71,1.44,3.72,1.62,5.84,1.61,20.89-.13,41.78.2,62.64-.19,1.11-.3,2.22-.63,2.93-1.67,17.38.19,34.64,2.07,51.93,3.51,3.1.26,6.22.14,9.34.2.75.82.75,1.64,0,2.46Z"/>
        <path class="cls-46" d="M251.77,184.56c8.35,12.2,14.75,25.54,22.31,38.2.91,1.53,1.58,3.14-.5,4.24-5.65,2.97-10.41,7.6-16.9,8.99-3.58-.71-4.48-3.99-6.08-6.51-3.72-5.85-3.91-6.02-10.13-2.54-6.83,3.81-13.59,7.77-20.32,11.77-2.62,1.56-5.35,3.4-8.6,1.34-2.46-4.25-5.29-8.35-7.26-12.82-1.41-3.22-4.18-3.49-6.64-4.69-.11-5.52-4.22-9.26-6.25-13.93-.98-2.24-2.82-4.1-2.92-6.73.08-.63.3-1.19.67-1.7,2.15-2.18,4.95-2.8,7.8-3.29,14.16-3.37,27.97-8.09,42.2-11.22.96-.27,1.85-.72,2.81-.99,3.26-.58,6.51-2.44,9.81-.13Z"/>
        <path class="cls-17" d="M461.42,422.6c9.61-8.31,19.21-16.62,28.82-24.93,3.87-.17,4.69,3.34,6.48,5.55,1.92,2.36,3.55,4.96,5.48,7.33,2.49,4.04,5.7,7.47,9.15,10.69-6.19,3.49-9.45,9.71-13.69,14.96-8.07,10.01-15.82,20.28-23.64,30.5-1.5,1.95-2.75,3.1-5.61,2.13-14.33-4.84-28.75-9.41-43.13-14.08-.93-2.55.98-3.82,2.46-5.14,8.91-8.02,18.36-15.41,27.14-23.57,1.88-1.74,4.24-2.52,6.54-3.43Z"/>
        <path class="cls-23" d="M212.6,652.25c-.19,3.9,2.95,4.08,5.44,4.54,14.82,2.76,29.66,5.4,44.5,8.04,14.21,2.52,28.43,4.99,42.65,7.48,2.52,2.24,2.31,5.28,2.05,8.13-1.13,12.41-1.98,24.86-3.7,37.21-.83,6-2.82,7.5-8.9,6.33-5.91-1.14-11.79-2.48-17.7-3.63-6.33-1.46-12.52-3.5-18.91-4.73-1.58-.31-3.21-.7-4.03-2.38-13.87-3.22-27.73-6.43-41.59-9.67-1.18-.28-2.31-.78-3.46-1.17,2.43-2.74,5.74-2.06,8.77-2.07,21.63-.08,43.27-.06,64.9-.03,4.58,0,9.14-.23,12.32-.61-27.44-12.53-54.79-27.83-83.09-41.14-.13-2.15-.57-4.33.75-6.3Z"/>
        <path class="cls-2" d="M159.33,108.86c7.9-2.43,15.79-4.87,23.69-7.3,1.38.58,1.77,1.53,1.1,2.88-7.18,7.29-11.75,16.46-17.69,24.64-2.26,3.11-1.06,4.81,2.06,6.08,7.47,3.04,14.71,6.62,22.39,9.12,8.25,2.69,16.09,6.39,24.11,9.68.48.46.74,1.02.81,1.67-.1.66-.4,1.22-.88,1.68-7.84,3.99-16.46,5.53-24.86,7.73-6.22,1.63-12.45,3.2-18.56,5.21-6.06,2.11-12.08,4.37-18.34,5.84-2.05-2.44-4.18-.48-6.27-.1-5.65,1.04-10.87,4.07-17.53,3.99,9.58-14.03,18.7-27.61,28.1-40.98,2.53-3.6,2.61-5.13-1.96-6.68-9.56-3.23-18.93-7.02-29.8-11.12,12.15-4.46,22.89-8.4,33.63-12.35Z"/>
        <path class="cls-14" d="M227.78,448.45c-.03.51-.06,1.02-.09,1.53-1.18,2.44-2.58,4.66-4.77,6.41-11.5,9.17-22.95,18.41-34.09,28.01-1.45,1.25-3.36,1.61-4.76,2.88-3.31-1.41-2.95-4.74-3.63-7.37-3.8-14.56-7.43-29.16-11.12-43.74,7.76-3.71,11.14-11.78,17.07-17.33,2.21-2.07,3.76-4.86,6.52-6.43,1.94-.77,3.29.42,4.31,1.67,8.7,10.63,19.5,19.31,27.96,30.16,1.04,1.33,1.51,2.96,2.6,4.24Z"/>
        <path class="cls-2" d="M418.87,651c.06-.89.11-1.78.17-2.67,5.27,17.45,10.58,34.89,14.5,52.72-12.38,3.11-25.13,2.23-37.7,3.16-11.17.83-22.45.19-33.68.17-2.7,0-5.43.06-8.04-.76-4.86-1.52-5.76-4.47-1.56-7.4,21.3-14.84,41.26-31.63,64.12-44.19.7-.39,1.62-.35,2.2-1.03Z"/>
        <path class="cls-2" d="M211.85,658.56c2.09-1.66,3.93-.39,5.76.53,22.85,11.44,45.7,22.86,68.51,34.36,4.02,2.02,8.45,3.42,11.58,8.65-29.58.1-59.16.21-88.74.31-3.12-7.29.5-14.46.56-21.71.05-7.39,1.5-14.76,2.34-22.14Z"/>
        <path class="cls-23" d="M418.87,651c-18.38,13.15-36.75,26.3-55.13,39.46-4.31,3.08-8.61,6.18-12.7,10.06,27.61,3.87,55.07.04,82.49.53-11.46,4.86-23.67,7.34-35.41,11.33-2.36.8-4.69,1.68-7.03,2.52-5.59,5.02-13.28,4.57-19.64,7.58-1.79.51-3.59.98-5.37,1.55-8.64,2.77-10.3,2.02-13.76-6.16-5.08-12.02-9.73-24.19-13.85-36.57-.82-2.46-2.3-5-.55-7.7,12.49-1,23.9-6.17,35.81-9.41,15.12-4.11,30.1-8.77,45.14-13.19Z"/>
        <path class="cls-14" d="M461.42,422.6c-10.46,9.11-20.9,18.25-31.41,27.31-1.73,1.49-3.67,2.72-4.74,4.84-9.23-2.88-18.46-5.75-27.69-8.63-.79-1.09-1.12-2.29-.88-3.63,7.42-14.54,14.65-29.18,22.01-43.76,1.26-2.49,1.97-5.59,5.34-6.38,8.78,5.87,16.02,13.6,24.26,20.11,4.33,3.42,7.9,7.84,13.1,10.14Z"/>
        <path class="cls-45" d="M252.65,355.05c1.35,22.84,2.7,45.68,4.04,68.53-.67,1.25-1.04,2.84-2.04,3.71-8.07,6.98-16.25,13.82-25.75,21.84v-18c-1.89-1.71-2.08-4.04-2.07-6.31.06-10.16-.66-20.32.75-30.46.88-6.38.44-12.86.35-19.28-.05-3.2,1.29-6.06,1.53-9.15,6.91-5.38,15.28-7.63,23.19-10.86Z"/>
        <path class="cls-45" d="M370,409.82c.89-17.78,1.78-35.55,2.68-53.33,8.72,2.89,17.62,5.28,25.94,9.29,2.16,7.69,1.35,15.46.68,23.23-1.86,6.12-.95,12.41-1.04,18.62-.14,9.37.08,18.74-.11,28.1-.06,2.85.9,6.37-3,7.87-5.82-5.59-11.4-11.46-17.54-16.68-5.44-4.62-8.72-9.78-7.62-17.11Z"/>
        <path class="cls-24" d="M229.45,365.91c2.01,8.62,1.02,17.38.46,25.97-.86,13.09-.53,26.17-1.01,39.24-2.12,5.66-.58,11.56-1.12,17.33-10.92-9.86-20.21-21.28-30.49-31.75-1.43-1.46-2.92-2.87-4.38-4.31,3.42-6.73,8.91-11.91,13.46-17.77,7.53-9.7,15.37-19.14,23.09-28.7Z"/>
        <path class="cls-14" d="M211.54,240.04c3.94.55,6.49-2.39,9.5-4.01,7.48-4.03,14.89-8.22,22.11-12.69,3.51-2.17,5.31-1.61,7.09,2.01,1.83,3.7,4.26,7.11,6.43,10.64,3.75,7.22,7.5,14.43,11.24,21.65-1.64,4.86-5.71,6.13-10.14,6.88-4.42-1.53-5.35-5.92-7.52-9.28-1.22-1.9-2.37-3.84-3.65-5.7q-5.51-9.36-15.28-4.39c-1.03.53-2.38.64-3,1.99,3.57,2.41,7.93,3.28,11.4,5.85,3.84,5.12,8.42,9.85,8.89,16.77-3.18,5.12-8.88,6.91-13.44,10.22-7.88-13.31-15.75-26.62-23.63-39.94Z"/>
        <path class="cls-46" d="M153.16,176.09c4.32-5.5,11.58-4.17,16.92-7.29.69.46.04-.38.56.24,8,9.65,14.61,20.1,18.47,32.13l-.13.28c-8.04,6.6-17.62,9.98-27.29,13.19-5.1.46-8.89,4.25-13.71,5.41-3.18-.34-1.72-2.38-1.46-3.98,2.21-13.32,4.42-26.65,6.64-39.97Z"/>
        <path class="cls-39" d="M257.84,263.86c3.36-2.07,6.71-4.15,10.07-6.22,2.05-.56,3.87-1.94,5.6,1.16,6.04,10.8,12.42,21.41,18.71,32.07.78,1.32,1.46,2.5.3,3.91-9.19,8.3-20.59,13.15-30.89,19.72-1.58,1.01-3.34,1.81-5.22.53-7.08-11.68-14.16-23.36-21.24-35.04.03-4.35,4.25-4.27,6.59-6.14,1.87-1.5,4.07-2.58,6.12-3.85,5.14.59,5.73,4.67,6.58,8.56-3.9,2.98-3.75,6.2-.78,9.81,2.78,3.39,3.69,8.08,7.41,10.81,3.97-2.18,7.82-4.53,11.79-6.63,3.92-2.08,4.95-4.3,2.21-8.2-2.34-3.34-4.41-6.91-6.12-10.84-1.25.76-1.21,2.54-2.58,3.05-5.96-2.09-9.1-6.75-8.55-12.69Z"/>
        <path class="cls-4" d="M437.52,112.44c-4.85,4.68-9.7,9.37-14.55,14.05-3.28-.73-4.36-3.67-5.76-6.09-8.62-14.87-16.92-29.92-25.39-44.87-1.08-1.9-4.42-4.33-.42-6.82,1.2.5,2.41,1.01,3.61,1.51,14.27,9.63,28.84,18.77,43.82,27.25,2.41,1.8,4.82,3.6,7.45,5.57-3.01,3.22-5.89,6.31-8.77,9.39Z"/>
        <path class="cls-14" d="M451.17,759.67c-1.32,1.89-3.32,1.36-5.11,1.36-21.89.03-43.78.04-65.67.01-1.8,0-3.78.48-5.14-1.33,4.19-2.75,8.35-1.99,11.87-.94-4.53-3.61-10.05-7.88-14.15-13.6-.95-2.03-1.73-4.1-.95-6.39,6.46-5.49,13.33-10.49,19.88-15.88,1.29-1.06,2.75-1.87,4.51-1.85,8.27,7.59,16.4,15.31,23.66,23.9.25,1.44-.55,2.46-1.6,3.11-6.33,3.95-12.92,7.39-19.94,9.94-.88.32-1.87.4-2.24-.1,13.02-.39,26.36-.23,39.71-.17,5.11.02,10.41-1.03,15.17,1.92Z"/>
        <path class="cls-24" d="M397.47,388.67c.75-7.61-1.04-15.35,1.16-22.89,8.74,8.6,17.47,17.21,25.43,26.56-7.38,14.56-14.74,29.12-22.16,43.66-1.21,2.37-2.03,4.99-4.17,6.79-1.56-4.88-.65-9.9-.63-14.83.06-13.1-.62-26.21.37-39.3Z"/>
        <path class="cls-14" d="M269.06,763.54c-.45,0-.9,0-1.35,0-10.7-6.64-20.51-14.34-28.79-23.89,2.93-5.36,5.86-10.72,8.79-16.08,10.88,4.03,22.3,6.75,32.16,13.28,1.99,3.08,2.71,6.45,2.27,10.07-4.64,5.32-7.19,12.29-13.08,16.63Z"/>
        <path class="cls-47" d="M355.43,350.89c-.96.04-1.92.09-2.88.13-4.78-5.04-11.7-5.65-17.58-8.39-6.52-3.04-13.34-5.45-20.54-8.35,4.73-4.46,10.99-4.02,15.87-6.73,12.38-4.2,24.76-8.4,37.15-12.59-4.03,9.95-8.09,19.89-12.05,29.87-.77,1.94-2.64,4.06.04,6.05Z"/>
        <path class="cls-35" d="M538.73,429.79c-5.47-3.56-8.93-9.17-13.63-13.51-7.7-3.63-11.56-10.95-16.51-17.21-.53-.67-.2-1.59.43-2.25,2.89-1.86,5.96-1.01,8.93-.42,5.55,1.1,10.57.89,14.03-4.47.96-.47,2.1-.81,2.98-.3,7.97,4.59,16.14,8.94,21.28,17.06.14.34.15.68.02,1.02-4.67,7.71-10.14,14.73-17.53,20.07Z"/>
        <path class="cls-14" d="M532.75,392.47c-2.29,8.54-8.9,6.7-14.79,5.89-3.08-.42-6.1-1.06-9.22-.94-1.94,4.88-2.72,10.41-7.6,13.65-4.83-3.49-6.48-9.57-10.89-13.39,1.96-4.3,5.06-8.06,6.07-12.81.84-5.64,2.99-10.6,7.46-14.36,2.79-.3,5.29.57,7.49,2.17,6.13,4.45,12.54,8.53,18.05,13.79,1.72,1.64,4.08,2.99,3.43,6.01Z"/>
        <path class="cls-13" d="M532.75,392.47c-8.6-8.47-17.56-16.45-28.84-21.29-.74-.67-.8-1.42-.23-2.23,8.55,1.39,17.17,2.21,25.83,2.29,7.25.07,12.96,2.02,16.67,9.03,2.88,5.45,6.46,10.69,10.55,15.29,4.4,4.96,3.94,8.91-.48,13.13-7.98-5.19-14.49-12.51-23.49-16.23Z"/>
        <path class="cls-24" d="M503.67,368.95c.08.74.15,1.49.23,2.23-2.53,4.56-5.06,9.12-7.59,13.68-17.94-19.5-35.88-39.01-53.82-58.51-.27-1.36.26-1.9,1.62-1.58,19.85,14.73,39.7,29.45,59.56,44.18Z"/>
        <path class="cls-17" d="M238.91,739.64c10.21,7.23,19.83,15.16,28.79,23.9-16.65,0-33.31,0-51.15,0,3.8-4.32,6.85-7.79,9.9-11.26,4.15-4.21,8.3-8.43,12.45-12.64Z"/>
        <path class="cls-13" d="M451.17,759.67h-58.64c10.03-5.35,18.79-10.03,27.55-14.7.79-.22,1.63-.34,2.37-.67q11.07-4.94,19.15,4.05c2.75,3.06,4.84,6.73,8.39,9.04.39.76.79,1.52,1.18,2.28Z"/>
        <path class="cls-47" d="M256.42,315.02c9.11-5.24,18.27-10.4,27.32-15.75,2.85-1.69,5.59-3.52,8.8-4.49-8.29,12.83-16.18,25.92-26.03,37.67-3.36-5.81-6.73-11.62-10.09-17.43Z"/>
        <path class="cls-47" d="M278.85,737.15c-8.6-3.32-17.22-6.58-25.78-9.99-1.99-.79-4.56-.94-5.37-3.6,2.1-3.44,4.2-6.87,6.3-10.31,7.65.76,15.13,2.29,22.27,5.22,3.48,5.87,6.15,11.84,2.58,18.68Z"/>
        <path class="cls-39" d="M161.69,214.64c8.48-5.68,17.95-9.29,27.29-13.19,3.15,5.32,6.42,10.58,9.38,16,.85,1.56,3.63,4.01-.72,5.1-12.14-1.94-24.07-4.82-35.96-7.9Z"/>
        <path class="cls-12" d="M396.43,721.07c-6.68,5.52-13.37,11.04-20.05,16.58-1.06.88-2.2,1.05-3.48.69-3.47-5.53-4.23-11.29-1.53-17.36,6.24-3.1,12.99-4.58,19.72-6.1,1.78,2.06,3.55,4.13,5.33,6.19Z"/>
        <path class="cls-30" d="M538.73,429.79c5.32-7.15,10.79-14.16,17.53-20.07,2.85,7.8,4.58,15.9,6.31,23.99-3.39,5.7-6.63,1.94-9.9-.15-4.65-1.26-9.29-2.51-13.94-3.77Z"/>
        <path class="cls-19" d="M397.47,388.67c.09,18.04.17,36.08.26,54.13-.05,1.11-.09,2.21-.14,3.32-.05,21.24-.11,42.49-.16,63.73-1.08-3.1-2.07-6.23-3.25-9.29-1.42-3.7-3-6.63-8.16-4.73-3.62,1.33-5.12-.51-3-4.18,1.24-2.15,2.51-4.28,3.64-6.49,1.47-2.86,2.96-4.35,5.88-1.29.92.96,3.81,3.23,3.7-.65-.36-13.2,1.5-26.47-1.08-39.61,1.95-1.88,1.17-4.31,1.19-6.51.08-13.94.03-27.88.1-41.82.01-2.23-.63-4.61,1.03-6.61Z"/>
        <path class="cls-44" d="M501.13,411.06c2.58-4.53,3.31-10.08,7.6-13.65,5.46,6.29,10.91,12.58,16.37,18.87-4.58,1.65-9.17,3.3-13.75,4.96-6.32-.46-7.66-5.93-10.21-10.17Z"/>
        <path class="cls-8" d="M552.67,433.56c3.3-.24,6.55,3.16,9.9.15.95,1.4,2.06,2.68,3.89,2.76,8.63.39,9.94,7.14,12.29,14.12-7.15-.96-13.67-1.88-20.2-2.7-2.42-.31-3.52-1.47-3.83-3.97-.44-3.48-1.34-6.91-2.04-10.36Z"/>
        <path class="cls-18" d="M511.26,763.56c0-.82,0-1.64,0-2.46,3.32.34,6.82-.91,10.07,2.46h-10.07Z"/>
        <path class="cls-27" d="M444.11,324.77c-.54.53-1.08,1.06-1.62,1.58-1.61-1.47-3.21-2.93-5.54-5.06,3.91-.12,5.52,1.71,7.16,3.48Z"/>
        <path class="cls-9" d="M146.52,216.06c.41,1.35-.11,3.05,1.46,3.98-.67.27-1.81.9-1.93.75-1.29-1.66-.48-3.22.47-4.73Z"/>
        <path class="cls-46" d="M184.03,103.73c-.34-.72-.67-1.44-1.01-2.16,1.18-1.81,2.36-3.62,3.54-5.43,4.72-6.16,9.44-12.33,14.16-18.49,2.08-1.12,4.07-.42,5.87.55,9.37,5.09,18.79,10.1,28.01,15.46,1.06.62,2,1.44,2.69,2.5.48.88.7,1.82.73,2.81-3.63,14.04-9.84,27.17-14.39,40.89-1.17,3.52-2.32,7.09-3.95,10.43-.91,1.86-1.12,4.64-4.25,4.51l-.04.05c-2.37-1.33-4.43-2.99-5.86-5.37-7.95-13.3-15.95-26.56-23.81-39.92-1.04-1.76-2.08-3.61-1.7-5.83Z"/>
        <path class="cls-4" d="M236.49,96.25c-9.14-4.86-18.36-9.56-27.35-14.66-2.74-1.55-5.6-2.65-8.41-3.95-.8-4.49-1.28-9.07-2.47-13.45-1.29-4.74.43-5.87,4.81-5.47,9.5.87,19.02,1.51,28.54,2.24,5.81.57,11.62,1.15,17.42,1.72,2.01,1.89,1.52,4.2.77,6.33-2.72,7.78-5.54,15.54-8.68,23.16-.8,1.95-1.58,4.45-4.64,4.07Z"/>
        <path class="cls-2" d="M236.49,96.25c5.88-10.55,9.99-21.77,12.54-33.56,3.87-2.97,2.98-8.46,6.44-12.16,3.52,3.89,4.4,9.35,8.19,12.84.59.18,1.12.48,1.58.88,10.66,18.32,20.02,37.36,30.73,55.66,1,1.71,1.39,3.96,3.62,4.87,1.77-1.77,1.91-4.14,2.49-6.28,4.29-15.85,8.78-31.66,12.73-47.6.35-1.42.74-2.82,1.7-3.98.67-.72,1.47-1.17,2.49-1.16,10.42,6.09,19.84,13.63,29.75,20.46,2.89,1.99,3.17,5.2,3.41,8.36.7,7.63-.98,15.23-.21,22.86-.31,1.98-1.87,2.66-3.48,3.1-15.62,4.21-31.14,8.76-46.76,12.95-.6.16-1.24.07-1.85.03-10.91-4.98-20.97-11.55-31.57-17.14-10.67-5.64-21.2-11.55-31.56-17.75-.08-.8-.17-1.6-.25-2.4Z"/>
        <path class="cls-2" d="M318.93,66.24c-.41.42-.81.84-1.22,1.26-1.84,1.21-3.9,1.22-5.98,1.07-13.57-1-27.14-1.97-40.75-2.13-2.53-.03-4.88-.79-6.81-2.56-.17-.17-.34-.34-.51-.51,19.25-10.37,38.5-20.73,57.75-31.1,2.8-.48,4.56-3.35,7.59-3.29,1.45,1.58,1.26,3.43.73,5.25-2.85,9.69-5.7,19.39-8.72,29.03-.37,1.19-.96,2.28-2.08,2.98Z"/>
        <path class="cls-45" d="M318.93,66.24c1.26-10.24,5.54-19.66,8-29.58.64-2.57,1.38-5.12,2.07-7.68,9.14,3.9,16.67,10.41,25.06,15.53,7.56,4.61,14.93,9.54,22.38,14.33,1.74,2.65-.33,4.3-1.75,5.91-6.02,6.84-11.37,14.33-18.06,20.51-2.76,2.55-2.21,7.26-6.36,8.53.35-3.48-1.38-5.48-4.17-7.5-9.11-6.61-19.25-11.84-27.17-20.06Z"/>
        <path class="cls-46" d="M350.27,93.8c1.77-9.14,10.03-13.61,14.82-20.58,3.46-5.04,8.77-8.63,11.35-14.38,4.57-4.07,7.76-9.54,12.67-13.03v21.43c2.22,13.3,1.69,26.51-1.39,39.63-.74,1.35-1.92,2.22-3.24,2.94-8.71,3.08-17.74,5.12-26.58,7.82-2.1.64-4.33,1.63-6.47-.03-2.96-.6-2.61-2.91-2.16-4.84,1.44-6.28.65-12.64,1-18.96Z"/>
        <path class="cls-2" d="M386.38,107.5c.91-13.42,1.82-26.84,2.73-40.25.77.49,1.53.98,2.3,1.47-.53,5.5,3.84,8.86,6.08,13.02,8.14,15.11,16.94,29.87,25.49,44.75,0,0-.15-.12-.15-.12-3.44,1.91-5.92-.6-8.58-1.97-9.03-4.65-17.37-10.66-27.17-13.8-1.14-.83-1.71-1.79-.69-3.1Z"/>
        <path class="cls-14" d="M117.93,501.2c-7.21-.11-9.75-2.87-7.98-9.18,2.44-8.7,3.47-17.85,8.07-25.88,7.69-2.73,15.49-4.44,23.67-2.58.63.27,1.17.69,1.6,1.22,1.25,3.33-1.1,5.54-2.72,7.8-3.38,4.72-6.89,9.36-10.18,14.15-2.73,3.25-5.15,6.74-7.62,10.19-1.28,1.79-2.34,3.86-4.84,4.27Z"/>
        <path class="cls-47" d="M142.77,465.09c-8.33-1.49-16.46,1.95-24.76,1.05,6.48-5.04,13.13-9.89,19.36-15.22,3.17-2.71,4.37-1.39,5.91,1.39,4,7.22,8.1,14.38,12.21,21.54q4.41,7.68-3.79,12.33c-3.73-2.37-3.71-6.64-5.1-10.18-1.41-3.59-1.36-7.69-3.82-10.91Z"/>
        <path class="cls-41" d="M145.55,546.41c4.15,1.66,8.79,3.37,13.28,5.4,1.8.81,1.36,2.63.94,4.37-3.18,13.43-4.2,13.9-17.03,9.85-4.84-1.53-6.49-3.44-3.88-8.25,1.46-2.69,2.13-5.8,3.26-8.68.52-1.32,1.05-2.79,3.42-2.69Z"/>
        <path class="cls-5" d="M75.97,460.27c2.08-5.48,2.65-11.8,6.1-14.79,3.71-3.21,8.81,1.93,13.37,3.12,1.78.47,4.56.91,3.57,3.96-1.42,4.34-3.09,8.59-4.66,12.88-.07.2-.14.4-.24.58-1.41,2.5-3.25,1.12-4.81.36-4.38-2.11-9.91-2.01-13.33-6.12Z"/>
        <path class="cls-10" d="M73.48,475.85c3.58,1.37,8.23,3.15,12.88,4.94,1.85.71,1.72,2.09,1.17,3.58-1.51,4.09-3.06,8.17-4.53,12.28-.92,2.58-2.79,2.38-4.49,1.32-4.33-2.72-12.2-1.35-13.05-7.08-.67-4.5,3.09-9.67,4.92-14.53.34-.91,1.09-1.15,3.1-.51Z"/>
        <path class="cls-40" d="M182.6,547.83c3.74,1.34,9.43,1.76,12.43,4.82,5.17,5.27-2.33,10.09-2.81,15.5-.3,3.37-3,2.54-5.21,1.36-.54-.29-1.13-.51-1.72-.72-11.99-4.37-13.16-7.67-6.75-18.93.75-1.32,1.45-2.56,4.05-2.03Z"/>
        <path class="cls-15" d="M127.89,542.79c-.12,3.9-5.3,14.81-7.03,14.82-4.93.03-15.45-5.58-15.36-8.18.15-4.13,5.56-14.51,7.58-14.54,4.87-.07,14.89,5.27,14.82,7.9Z"/>
        <path class="cls-20" d="M83.01,510.45c5.45,2.1,10.31,3.85,15.06,5.86,1.79.76.93,2.41.58,3.81-3.52,14.15-7.63,15.92-20.44,8.78-.36-.2-.84-.21-1.15-.46-2.23-1.73-.34-3.45.27-4.92,1.82-4.34,2.31-9.37,5.67-13.08Z"/>
        <path class="cls-3" d="M228.81,537.37c-.16,4.36-5.37,14.75-7.35,14.68-4.16-.14-15.18-5.89-15.06-7.84.29-4.58,5.68-15.06,7.67-14.93,6.26.41,14.85,5.12,14.74,8.09Z"/>
        <path class="cls-29" d="M142.77,465.09c3.15,0,3.28,2.63,3.93,4.67,1.73,5.45,3.34,10.94,4.99,16.42-4.28,4.19-8.49,8.46-13.85,11.31-2.47-2.47-1.41-5.35-.92-8.15,1.37-7.88,3.75-15.5,6-23.16-.05-.36-.1-.72-.15-1.09Z"/>
        <path class="cls-25" d="M142.92,466.18c1.6,7.2-2.66,13.44-3.33,20.28-.36,3.69-2.12,7.19-1.75,11.03-.41.39-.82.78-1.23,1.17-5.28-2.47-7.88-6.61-7.72-12.46,4.68-6.67,9.35-13.35,14.03-20.02Z"/>
        <path class="cls-42" d="M128.89,486.2c2.57,4.15,5.15,8.31,7.72,12.46-6.12,1.63-12.05,4.69-18.68,2.54,3.47-5.14,6.66-10.48,10.97-15Z"/>
        <path class="cls-7" d="M275.37,491.25c-.04-13.1.04-26.19-.18-39.29-.07-4.15.98-5.93,5.54-5.89,21.6.2,43.21.15,64.81.04,4.24-.02,5.96,1.52,5.94,5.84-.11,22.24-.12,44.49,0,66.73.02,3.85-1.42,5.03-5.13,5.01-22.02-.11-44.04-.21-66.05.04-6.38.07-4.82-4.08-5.07-7.55.08-.97.56-1.73,1.28-2.35,2.6-1.87,5.72-2.46,8.71-3.14,5.32-1.22,7.96-4.01,6.9-9.66-.96-5.1-.44-9.51,5.23-11.75,2.22-.88,2.18-2.85,1.38-4.75-1.01-2.41-1.27-5.26-4.22-7.37-1.01,6.26-4.88,8.02-10.5,7.27-2-.27-3.39,1.16-4.44,2.88-1.02,1.67-1.46,4.07-4.2,3.93Z"/>
        <path class="cls-2" d="M275.37,491.25c.56-.85,1.46-1.65,1.63-2.57,1.05-5.79,4.76-7.21,9.94-6.21,3.25.62,5.21,0,4.62-3.91-.33-2.18.71-3.42,2.91-3.98,2.85-.72,2.93,1.4,3.57,3.09.66,1.74,1.33,3.48,2.14,5.15,2.09,4.33,2.27,7.68-3.6,8.94-1.93.41-3.46,1.54-3.29,4.4.81,14,.69,14-13.21,17.78-1.19.32-2.37.72-3.55,1.09-1.52.05-2.46-.95-2.67-2.16-1.11-6.53-2.41-13.11,1.3-19.32.07-.76.14-1.53.2-2.29Z"/>
        <path class="cls-2" d="M353.4,564.32c-5.95-2.5-10.51-6.5-15.04-10.27-3.85-3.21-3.2-11.23,1.25-13.78,3.38-1.94,4.95-8.51,11.14-4.74,9.66,5.9,9.09,2.76,6.18,14.66-1.12,4.59-2.29,9.17-3.53,14.13Z"/>
        <path class="cls-11" d="M275.17,493.54c.89,7.13-1.45,14.47,1.37,21.48-.44.39-.87.78-1.31,1.16-2.98-.54-7.17,1.43-8.77-1.4-2.92-5.14-4.76-10.92-6.75-16.55-.75-2.13,1.48-2.01,2.77-2.27,4.22-.85,8.46-1.63,12.69-2.43Z"/>
        <path class="cls-28" d="M314.15,544.19c.73,3.87-3.82,4.03-6.55,4-6.18-.07-3.59-6.15-5.3-9.37-.96-1.82.52-3.1,2.1-2.47,3.58,1.43,9.39-.19,9.75,7.84Z"/>
        <path class="cls-2" d="M386.38,107.5c.34.82.69,1.65,1.03,2.47,4.46,4.52,10.83,28.68,9.17,34.76-36.89,10.04-73.78,20.07-110.67,30.11-4.79,1.3-9.56,2.65-14.34,3.98-6.85,1.07-13.54,2.65-19.8,5.74-3.41.61-6.82,1.22-10.22,1.84-2.75-5.85.71-10.03,3.81-14.32,46.41-20.68,91.29-44.71,138.52-63.6.83-.33,1.67-.65,2.5-.98Z"/>
        <path class="cls-6" d="M347.9,231.56c-.47-.95-.93-1.9-1.4-2.84-7.59-13.16-9.88-28.17-14.74-42.28-.97-2.82-2.75-5.81-.4-8.86,7.28-4.58,15.92-5.11,23.79-7.96.53-.19,1.58,1.07,2.39,1.65,1.43.68,2.1,1.98,2.61,3.34,3.21,8.55,5.61,17.35,7.87,26.18.44,1.74.74,3.67-.35,5.41,1.68,5.89,4.37,11.5,4.93,17.7-7.4,5.24-15.69,7.62-24.7,7.66Z"/>
        <path class="cls-39" d="M396.58,144.73c-3.06-11.59-6.11-23.17-9.17-34.76,2.46-2.4,4.15.28,5.94,1.08,10.13,4.5,19.05,11.34,29.47,15.31-6.67,11.56-13.83,22.8-21.35,33.81-3.13-4.67-2.36-10.58-4.89-15.45Z"/>
        <path class="cls-13" d="M331.37,177.57c4.36,14.46,8.73,28.91,13.07,43.37.77,2.57,1.38,5.18,2.07,7.77-4.06-2.71-6.12-7.09-8.9-10.84-1.21-1.64-2-2.49-3.4-.38-2.48-3.11-4.72-6.39-6.74-9.81,1.19-5.3-2.03-7.2-6.35-7.55-4.87-.39-9.79-.17-14.68-.22-.79-3,1.53-4.5,3.2-6.1,4.71-4.51,9.34-9.13,14.48-13.17,1.68-1.02,3.4-1.98,4.87-3.32.92-1.23,1.61,0,2.39.23Z"/>
        <path class="cls-13" d="M367.68,206.19c-3.38-11.64-6.75-23.29-10.13-34.93.07-.45.14-.91.21-1.36,1.66-.81,3.45-1.06,5.27-1.18,7.98-.91,15.71,1.05,23.51,2.11,1.69.23,3.13,1.14,3.65,2.98-2.25,3.13-5.9,4.36-9.02,6.12-5.58,3.14-8.13,7.72-8.48,13.86,1.89,2.13,1.87,4.2-.2,6.2-1.53-.78-2.2-.27-2.38,1.4-.2,1.87-.82,3.61-2.43,4.8Z"/>
        <path class="cls-36" d="M391.37,250.21c1.77-.38,3.54-.77,6.99-1.51-8.44,9.51-15.91,17.93-23.38,26.35-.94,1.06-2.15,1.22-3.41.91-12.17-3.02-24.34-6.06-36.45-10.43,2.89-.2,5.78-.41,8.67-.61,4.57-2.53,9.6-2.33,14.47-1.9,8.47.75,15.79-1.64,22.46-6.69,3.28-2.48,6.85-4.52,10.66-6.11Z"/>
        <path class="cls-39" d="M391.37,250.21c-8.4,7.44-16.56,15.27-29.06,14.77-6.17-.25-12.35-.06-18.53-.07,6.51-6.15,14.54-10.17,21.72-15.38,2.35-1.71,5.27-.69,7.89-.57,6,.26,11.98.82,17.97,1.25Z"/>
        <path class="cls-1" d="M325.29,181.29c-6.29,6.21-12.57,12.42-18.86,18.62-4.61-1.71-4.46-6.48-5.83-9.98-1.17-2.98,2.6-3.07,4.49-3.8,5.79-2.21,11.68-4.17,17.53-6.23,1.52-.75,2.74-.93,2.67,1.38Z"/>
        <path class="cls-22" d="M390.19,173.81c-8.99-2.39-18.3-2.57-27.44-3.93-.7-.56-1.96-.82-1.12-2.17,6.75-1.84,13.71-3.14,20.19-5.68,6.2-2.43,8.13-.16,8.37,5.47.09,2.1,2.34,4.22,0,6.32Z"/>
        <path class="cls-38" d="M372.49,199.98c.07-2.07.13-4.13.2-6.2,5.19-5.2,12.37-4.91,14.71.76,1.81,4.4.67,8.2-3.61,10.59-4.31,2.4-7.99.63-11.3-5.16Z"/>
        <path class="cls-16" d="M327.47,207.68c5.06,1.34,6.98,4.83,6.74,9.81-1.58,4.78-4.81,7.24-9.82,6.02-3.76-.91-5.81-3.77-5.75-7.74.09-5.72,3.73-7.76,8.83-8.1Z"/>
        <path class="cls-25" d="M347.9,231.56c8.23-2.55,16.47-5.11,24.7-7.66-.04.2-.04.43-.12.61q-7.85,16.88-24.58,7.05Z"/>
        <path class="cls-37" d="M325.29,181.29c-.59-1.05-1.61-1.25-2.67-1.38,1.87-1.46,4.05-2.18,6.35-2.57-.62,1.88-2.07,2.99-3.68,3.96Z"/>
        <path class="cls-21" d="M361.62,167.7c.37.72.75,1.45,1.12,2.17-1.66,0-3.33.02-4.99.03.85-1.52,2.29-1.97,3.87-2.2Z"/>
        <path class="cls-32" d="M281.29,747.47c.13.76.27,1.52.4,2.28-.02,4.43,3.47,10.06.9,12.78-2.87,3.04-8.9.72-13.54,1,3.58-5.74,5.94-12.41,12.24-16.07Z"/>
        <path class="cls-26" d="M373.88,751.06c.06-2.03.13-4.05.19-6.08,5.08,4.51,10.16,9.02,16.61,14.74-6.19,0-10.8,0-15.41,0-.46-2.89-.92-5.78-1.38-8.66Z"/>
        <path class="cls-45" d="M246.43,172.4c-2.21,4.46-4.58,8.87-4.88,14-.46.28-.93.57-1.39.85-3.38-1.24-4.85-4.52-7.26-6.8-4.63-6.06-9.51-11.9-14.23-17.88-1.51-1.92-3.36-3.69-3.27-6.44.01-.44.03-.88.04-1.32,6.83-14.39,11.14-29.75,17.09-44.49,1.55-3.83,2.82-7.77,4.21-11.66,7.65.46,12.96,5.96,19.38,9.06,4.42,2.14,8.6,4.77,12.89,7.18.94,2.09.2,4.06-.59,5.94-3.27,7.76-5.95,15.73-8.96,23.59-3.21,7.21-5.99,14.59-8.98,21.9-.94,2.31-1.74,4.71-4.06,6.09Z"/>
        <path class="cls-23" d="M215.39,156.12c6.49,7.73,13.27,15.23,18.63,23.84-.43,1.87-1.96,2.58-3.47,3.28-11.25,5.26-22.06,11.51-33.97,15.32-2.49.87-4.98,1.74-7.47,2.61-6.34-10.79-12.69-21.58-19.03-32.37,15.1-4.23,30.21-8.45,45.31-12.68Z"/>
        <path class="cls-34" d="M196.59,198.56c12.13-6.9,24.6-13.12,37.43-18.6,3.13,1.51,4.19,4.77,6.13,7.29-14.52,3.77-29.04,7.54-43.56,11.31Z"/>
        <path class="cls-45" d="M184.03,103.73c8.54,14.11,17.05,28.22,25.62,42.31,1.82,2.99,3.82,5.88,5.74,8.81-17.69-5.09-34.48-12.5-51.36-19.7-1.7-.73-2.55-1.58-1.46-3.19,6.26-9.24,11.5-19.2,19.14-27.46.48-.52,1.53-.52,2.31-.76Z"/>
        <path class="cls-11" d="M253.82,278.59c-2.22-2.71-2.82-6.52-5.94-8.61-1.86-5.97-6.08-10.64-8.84-16.11,2.11-3.21,5.05-5,8.91-5.22,3.29,5.07,6.59,10.14,9.88,15.2,1.8,4.74,4.35,8.97,8.18,12.37,1.44,1.38.19,2.36-.51,3.42-1.73,1.38-3.43,2.9-5.63,3.43-3.7.9-6.55.39-6.07-4.49Z"/>
        <path class="cls-47" d="M247.96,248.66c-2.67,2.26-5.39,4.42-8.91,5.21-4.82-2.09-9.65-4.18-15.38-6.67,4.86-2.55,8.77-4.33,12.4-6.58,4.17-2.59,7.1-2.36,9.02,2.59.74,1.9,1.91,3.63,2.88,5.44Z"/>
        <path class="cls-31" d="M265.32,278.51c.24-.76.47-1.53.71-2.29.49-1.96.55-4.1,2.69-5.89,3.48,5.89,6.9,11.69,10.35,17.48,1.21,2.04-.03,3.06-1.57,3.88-5.78,3.08-10.98,7.22-17.22,9.46-1.53-8.26,1.23-15.57,5.04-22.64Z"/>
        <path class="cls-43" d="M265.32,278.51c-.66,7.77-3.53,15.05-5.04,22.64-5.12-5.13-8.12-11.67-11.23-17.99-1.82-3.69,2.75-3.42,4.77-4.57,1.48,3.7,3.73,4.6,7.15,2.17,1.32-.94,2.89-1.51,4.34-2.25Z"/>
        <path class="cls-45" d="M264.18,63.88c17.86,1.01,35.82.56,53.54,3.62-5.5,20.54-10.99,41.07-16.65,62.2-4.86-2.86-6.02-7.71-8.19-11.6-9.39-16.8-18.46-33.78-27.6-50.72-.57-1.06-.74-2.33-1.1-3.5Z"/>
        <path class="cls-23" d="M246.43,172.4c3.79-9.57,7.57-19.14,11.36-28.7,11.96-6.42,25.11-9.08,38.17-11.99,1.02-.23,2.05.09,2.93.71,17.52-4.94,35.03-9.88,52.55-14.82,10.81-3.04,21.63-6.08,32.44-9.12-2.28,3.07-6.01,3.42-9.15,4.89-20.83,9.78-41.66,19.54-62.48,29.33-20.63,9.7-41.25,19.42-61.9,29.1-1.2.56-2.39,1.93-3.93.62Z"/>
        <path class="cls-39" d="M298.89,132.42c-13.7,3.76-27.4,7.52-41.1,11.28,3.74-9.6,7.49-19.2,11.23-28.81,9.89,5.96,20.82,10.14,29.87,17.53Z"/>
      </g>
    </g>
  </g>
</svg>