<?xml version="1.0" encoding="UTF-8"?>
<svg xmlns="http://www.w3.org/2000/svg" version="1.1" viewBox="0 0 636.44 800">
  <defs>
    <style>
      .cls-1 {
        fill: #c7ab3d;
      }

      .cls-2 {
        fill: #9e7b28;
      }

      .cls-3 {
        fill: #474746;
      }

      .cls-4 {
        fill: #e2c9b7;
      }

      .cls-5 {
        fill: #ac9146;
      }

      .cls-6 {
        fill: #858584;
      }

      .cls-7 {
        fill: #987726;
      }

      .cls-8 {
        fill: #d9bca6;
      }

      .cls-9 {
        fill: #2d2c2c;
      }

      .cls-10 {
        fill: #bc977e;
      }

      .cls-11 {
        fill: #505353;
      }

      .cls-12 {
        fill: #dfc54d;
      }

      .cls-13 {
        fill: #464646;
      }

      .cls-14 {
        fill: #a68670;
      }

      .cls-15 {
        fill: #866855;
      }

      .cls-16 {
        fill: #848484;
      }

      .cls-17 {
        fill: #ae8a2d;
      }

      .cls-18 {
        fill: #9a7a29;
      }

      .cls-19 {
        fill: #a4873b;
      }

      .cls-20 {
        fill: #bc977d;
      }

      .cls-21 {
        fill: #4f5252;
      }

      .cls-22 {
        fill: #ded5c2;
      }

      .cls-23 {
        fill: #2e2d2d;
      }

      .cls-24 {
        fill: #6e7073;
      }

      .cls-25 {
        fill: #b58f41;
      }

      .cls-26 {
        fill: #715719;
      }

      .cls-27 {
        fill: #b78e2f;
      }

      .cls-28 {
        fill: #80631e;
      }

      .cls-29 {
        fill: #856754;
      }
    </style>
  </defs>
  <!-- Generator: Adobe Illustrator 28.7.1, SVG Export Plug-In . SVG Version: 1.2.0 Build 142)  -->
  <g>
    <g id="Layer_1">
      <g>
        <path class="cls-12" d="M227.2,710.02c-15.2-2.02-30.54-1.77-45.82-2.57-4.85-.25-6.91-1.4-7.27-6.49-1.3-18.54-3.05-37.05-4.52-55.57-2.17-27.47-4.26-54.94-6.33-82.41-.21-2.83-.08-5.68-.1-8.53,3.71-.54,5.34,2.49,7.45,4.5,12.16,11.59,22.64,24.8,34.94,36.27,4.84,4.52,4.73,4.6,8.25-1.14,2.06-3.35,3.83-6.85,5.52-10.41,2.07-3.78,4.31-7.47,6.19-11.36,5.83-11.56,12.41-22.7,18.26-34.24.2-.39.42-.77.67-1.13,1.86-2.66,3.46-6.66,7.05-6.05,4.1.69,3.22,5.24,3.51,8.27,1.79,18.97,3.33,37.97,4.9,56.96,1.89,22.93,4.16,45.82,6.08,68.75,1.09,13.1,1.78,26.23,3.03,39.32.27,2.82.13,5.75-2.29,7.92-4.48,2.42-9.42,1.99-14.05,1.46-8.51-.98-17.41.57-25.48-3.54Z"/>
        <path class="cls-10" d="M411.82,201.3c1.73,21.39,3.47,42.79,5.2,64.18.09,1.09.06,2.19.11,3.29.7,14.45.68,14.16-14.03,15.68-14.79,1.53-29.52,3.62-44.26,5.67-2.5.35-5.32.3-7.38,2.33-13.42,3.28-27.25,3.72-40.85,5.73-10.59,1.57-21.27,2.5-31.92,3.68-2.84.32-5.69.62-8.18-1.3-1.82-2.15-1.81-4.85-2.14-7.43-2.84-21.89-5.56-43.79-8.25-65.7-.37-3.05-.85-6.09.68-8.99,1.27-2.01,3.23-2.95,5.46-3.25,19.29-2.63,38.64-4.77,58.03-6.54.86-.08,1.75.08,2.61.18,5.74,1.61,10.8,4.68,15.81,7.78,4.2,2.61,7.64,2.31,11.06-1.36,3.27-3.52,6.71-6.89,10.29-10.13.89-.67,1.86-1.14,2.92-1.46,11.84-1.71,23.76-2.68,35.6-4.3,3.25-.44,6.55-.5,9.27,1.93Z"/>
        <path class="cls-12" d="M393.35,49.66c11.28-1.23,22.6-2.25,33.84-3.78,5.39-.74,7.46,1.3,7.9,6.39,1.32,15.23,2.84,30.45,4.23,45.68.62,6.75.86,13.54,1.8,20.24.52,3.68-.15,5.16-4.06,5.46-9.79.76-19.55,1.89-29.32,2.88-2.96,1.64-5.81,3.65-9.5,3.02-12.5,1.21-24.92,3.16-37.48,3.69-6.35-1.42-8.71-7.55-13.15-11.25-2.17-1.81-3.92-4.08-5.72-6.27-4.3-5.21-4.65-5.17-8.09.41-3.43,5.57-6.63,11.27-9.96,16.9-1.33,2.25-2.83,4.42-5.31,5.65-8.65,2.84-17.73,2.46-26.61,3.48-10.87,1.26-21.74,2.62-32.69,3.17-1.87-.09-3.58.67-5.36,1.05-.73.12-1.46.19-2.2.24-6.26-.27-12.47,2.88-18.77.25-.66-.47-1.16-1.07-1.52-1.79-3.14-9.71-2.31-19.89-3.41-29.84-1.56-14.08-2.36-28.25-3.48-42.39-.21-2.63-.51-5.25,1.23-7.55,4.66-2.96,10.03-2.74,15.2-3.25,33.05-3.28,66.11-6.48,99.14-9.9,14.78-1.53,29.6-2.57,44.37-4.26,3.19-.36,5.98,1.03,8.92,1.76Z"/>
        <path class="cls-24" d="M336.56,334.53c14.03-4.13,27.29-10.28,40.9-15.52,26.88-10.36,53.59-21.18,80.4-31.72,2.48-.97,5.02-3.14,7.95-.9,4.29,9.05,8.98,17.97,9.7,28.25-9.28,6.16-19.44,10.76-29.56,15.2-8.54,3.75-12.85,9.34-14.14,18.5-1.1,7.73-3.19,15.37-5.38,22.92-.71,1.53-1.21,3.18-2.3,4.52-7.65,4.91-16.34,7.38-24.7,10.65-12.52,5.11-25.17,9.91-37.6,15.28-11.73,4.1-23.3,8.62-34.74,13.49-3.56,1.52-7.24,3.58-10.95.19-6.47-11.72-10.01-24.64-14.86-37.02-3.09-7.88-7.12-15.51-8.19-24.1.25-2.74,1.99-4.38,4.33-5.3,12.22-4.8,24.39-9.73,36.61-14.56.84-.33,1.71-.27,2.54.12Z"/>
        <path class="cls-22" d="M406.06,757.58c20.56-.23,40.99,1.8,61.45,3.47,10.67.87,21.4,1,32.09,1.6,15.82.88,31.63,1.88,47.5,3.86-18.34,2.23-36.69,4.36-55.01,6.71-18.16,2.33-36.29,4.93-54.45,7.32-18.59,2.44-37.2,4.77-55.8,7.11-15.15,1.9-30.39,3.21-45.42,5.77-12.66,2.15-25.15,1.86-37.76.59-7.81-.79-15.6-1.81-23.42-2.33-20.68-1.39-41.32-3.14-61.96-5.14-17.81-1.72-35.69-2.72-53.52-4.17-17.61-1.43-35.21-3.02-54.1-4.65,7.7-2.88,14.94-3.15,21.87-4.36,18.47-3.24,37.02-5.97,55.55-8.86,12.71-1.98,25.42-3.98,38.16-5.76,2.72-.38,5.02-1.4,7.31-2.71,3.13,2.56,2.37,6.06,2.27,9.39.08,1.09.45,2.18.36,3.26-.51,5.96,2.66,7.42,8,7.37,15.35-.15,30.7-.05,46.04-.05,8.11,0,16.22.07,24.34-.05,3.04-.04,5.77-.45,6.27-4.25.78-5.87,4.62-7.12,9.88-7.09,22.58.11,45.17.06,67.75.04,2.83,0,5.72.35,8.38-.96,2.79-1.06,2.4-4.35,4.21-6.1Z"/>
        <path class="cls-28" d="M393.35,49.66c-26.12,2.53-52.24,5.05-78.36,7.59-24.38,2.37-48.76,4.76-73.13,7.14-5.22.51-10.44.99-15.67,1.48-.59.45-1.21.86-1.86,1.21-12.59,4.24-25.88,4.1-38.83,6.04-2.96.44-6.23.79-8.31-2.38-.04-3.7,3.11-4.47,5.52-5.63,35.32-17.06,70.49-34.41,106.04-50.97,4.95-2.3,9.51-5.42,14.82-6.98,3.16-.93,6.26-2.06,9.61-1.05,25.89,13.84,51.79,27.67,77.67,41.54.93.5,1.67,1.33,2.49,2.01Z"/>
        <path class="cls-2" d="M227.2,710.02c13.28-.56,26.45,2.18,39.74,1.27,4.07-3.86,9.19-5.94,14.23-8,4.95-2.02,6.9-4.84,6.33-10.51-2.23-22-4.48-44.01-6.56-66.02-.31-3.28-.47-6.56-.63-9.84-.12-2.49-.02-4.94,3.12-5.67,3.17-.35,5.98,1.02,8.87,1.93,9.77,3.1,19.3,6.98,29.49,8.68,2.55.42,5.09,1.29,7.07,3.2,1.72,3.28.24,6.43-.54,9.54-4.27,16.95-7.95,34.05-12.3,50.98-.64,2.5-1.54,5.02-1.06,8.16,4.81-.41,9.17-2.28,13.53-3.91,11.46-4.28,23.22-7.68,34.68-11.97,1.99-.75,4.05-1.79,6.31-.84-1.88,8.71-6.32,16.49-8.99,24.92-1.35,2.31-3.84,2.73-6.04,3.59-16.26,6.32-32.88,11.66-49.05,18.25-20.33,5.29-40.96,9.24-61.35,14.3-6.3,1.56-12.86,1.94-12.73,10.82.01,1.01-1.01,1.9-2.32,1.85.57-13.63-1.15-27.15-1.82-40.72Z"/>
        <path class="cls-1" d="M179.88,437.29c-10.79-21.91-21.54-43.85-32.43-65.72-1.76-3.53-.37-4.8,2.64-6.32,10.5-5.3,20.85-10.89,31.26-16.36,5.38-6,13.33-7.51,19.91-11.42,1.03-.15,1.99.01,2.87.58,5.61,9.91,9.88,20.47,14.78,30.72,6.42,13.43,12.77,26.89,19.13,40.36,3.16,6.7,6.32,13.44,10.8,19.42-.53,1.58-1.82,2.16-3.28,2.53-18.55,3.23-37.29,5.17-55.89,8.12-3.31.53-7.06,1.41-9.79-1.92Z"/>
        <path class="cls-27" d="M402.75,509.41c2.14,4.27,3.86,8.69,4.96,13.35-1.3,1.74-3.24,2.29-5.2,2.29-13.48-.04-26.93.85-40.39,1.19-9.21-.06-18.36,1.34-27.57,1.29-20.24.49-40.43,2.33-60.68,2.59-6.94.24-13.88.57-20.82.41-1.87-.04-3.33.54-4.93,1.21-8.67,3.62-17.85,5.44-26.93,7.61-2.21.53-4.38.59-5.53-2-1.85-7.33-1.06-14.85-1.59-22.28-.61-3.67-1.68-7.51,3.37-9.08,19.39-3.49,38.37-8.85,57.6-13.11,11.33-2.51,22.65-5.07,33.93-7.8,5.21-1.26,9.74-.54,14.45,2.09,9.56,5.34,18.41,11.85,28.16,16.87,1.04.34,2.03.79,3.01,1.26,7.48,1.81,15.15,1.4,22.73,2.03,8.48.7,16.97,1.21,25.44,2.09Z"/>
        <path class="cls-1" d="M215.65,537.34c6.61.79,12.69-1.7,18.72-3.58,12.82-4.01,25.75-6.52,39.22-5.63,2.28,2.03,3.22,4.67,3.35,7.62.61,14.03,2.81,27.92,3.78,41.91.81,11.59,2.77,23.07,3.22,34.69-3.98,4.6-1.07,9.8-.74,14.5,1.15,16.53,3.12,33.01,4.8,49.5.66,6.51,1.26,13.03,2.17,19.51.36,2.6.56,5.32-1.96,6.35-7.13,2.94-13.4,7.91-21.28,9.08-1.19-21.36-2.85-42.68-5.03-63.98-1.76-17.16-2.76-34.39-4.21-51.58-1.79-21.25-3.7-42.49-5.75-65.91-10.51,15.12-16.56,30.64-25.46,44.45-4.57-2.73-6.17-7.78-9.05-11.8-3.57-4.98-6.41-10.45-9.59-15.69-.97-1.6-2.45-3.24-1.17-5.4,2.99-1.37,7-.46,8.99-4.05Z"/>
        <path class="cls-27" d="M283.94,612.34c-4.25-3.36-2.68-8.53-3.49-12.77-1.35-6.98-1.18-14.26-1.66-21.41,2-2.29,4.72-2.95,7.56-3.45,13.75-2.43,27.37-5.48,41.08-8.09,3.68-.7,7.22-1.64,10.02-4.34,9.81,2.61,18.89-1.74,28.29-3.04,12.94-2.73,26.02-4.73,38.91-7.72,4.24-.98,8.28-2.47,12.45-3.61,1.79,2.18,1.85,4.35,0,6.53-27.13,23.4-54.78,46.19-82.54,68.84-1.62,1.32-3.13,3.23-5.72,2.37-15.43-2.89-30.26-7.77-44.9-13.32Z"/>
        <path class="cls-16" d="M154.1,240.54c2.26,1.92,4.05.07,5.88-.82,8.81-4.29,17.63-8.54,26.34-13.02,3.11-1.6,6.23-1.71,9.51-1.39-1.86,3.6-1.99,7.13-.8,11.14,2.11,7.15,5.14,13.95,7.36,21.05,2.76,8.82,1.99,10.91-6.3,15.09-29.65,14.93-59.12,30.21-88.4,45.87-2.76.46-3.92-.71-4.14-3.51-1.11-14.33-2.3-28.66-3.57-42.98-.28-3.11,1.68-3.9,3.92-5.13,9.89-5.43,20.8-8.87,30.11-15.41,5.64-5.59,13.62-6.84,20.09-10.88Z"/>
        <path class="cls-10" d="M423.49,375.48c.1-1.52-.03-3.09,1.2-4.29.94.32,1.55,1.01,2.03,1.84,5.49,6.05,12.94,9.38,19.43,14.05,5.6,4.03,11.86,7.11,16.91,11.9-6.66,21.1-11.31,42.74-16.83,64.14-1.39,5.37-3.12,6.84-8.72,5.52-17.66-4.15-35.46-7.7-53.2-11.47-2.53-2.84-.33-5.33.79-7.7,3.89-8.21,8.07-16.28,12.03-24.45,5.94-10.64,10.73-21.84,15.83-32.89,3.72-5.41,4.6-12.63,10.53-16.64Z"/>
        <path class="cls-12" d="M218.38,507.2c-4.72.82-3.98,4.64-4.31,7.87-3.19-15.4-11.88-28.48-17.98-42.65-5.09-11.84-10.79-23.42-16.22-35.12,10.35.86,20.25-2.26,30.38-3.4,11.89-1.34,23.74-3.04,35.6-4.58,1.9,1.52,3.29,3.41,4.36,5.61,6.64,13.7,12.62,27.71,19.28,41.39.86,1.77,1.51,3.64.82,5.66-1.88,3.34-5.49,4.31-8.55,5.7-14.43,6.58-27.92,15.25-43.38,19.53Z"/>
        <path class="cls-24" d="M220.71,584.72c-2.46,4.63-5.18,9.14-7.32,13.91-1.84,4.09-3.19,4.08-6.23.88-13.7-14.45-27.65-28.67-41.52-42.96-.75-.78-1.65-1.41-2.48-2.11q-14.33-22.63-40.95-27.52c-1.5-.28-3.01-.58-4.52-.78-3.34-.45-4.76-1.58-3.77-5.54,2.27-9.13,3.82-18.44,5.83-27.64.4-1.84.35-5,3.97-3.3,3.88,8.4,9.9,15.45,14.57,23.35,1.77,3,3.91,2.89,6.6,1.22,1.95-1.21,3.76-3.25,6.51-2.02,4.58-3.57,12.67-5.38,13.22-10.5.48-4.44-5.27-9.57-8.3-14.37-2.9-4.61-5.85-9.19-9.59-15.05,12.9,2.91,24.8,3.91,36.03,8.15,1.55,2.79.32,5.51-.26,8.23-1.8,8.48-4.12,16.86-4.68,25.56.84,3.97,3.14,7.21,5.32,10.5,11.36,17.21,23.08,34.18,34.02,51.67,1.63,2.6,3.48,5.07,3.56,8.32Z"/>
        <path class="cls-28" d="M328.85,625.66c27.24-22.65,54.46-45.32,81.74-67.92,1.87-1.55,3.5-3.88,6.52-3.29-6.53,16.74-13.05,33.47-19.58,50.21-3.56,3.69-8.41,4.49-13.02,5.82-8.4,2.43-16.98,4.27-25.07,7.67-4.72,14.51-8.13,29.37-11.92,44.12-.85,3.3.24,4.41,3.59,3.85,5.38-.9,10.88-.14,16.29-.96,2.16-.33,4.37-.55,6.1,1.32-1.33,3.51-2.66,7.03-3.99,10.54-4.96,3.35-10.81,4.54-16.31,6.51-12.13,4.35-24.33,8.51-36.54,12.62-2.06.69-5.91,3.03-4.57-2.46,5.56-22.68,10.2-45.59,16.77-68.02Z"/>
        <path class="cls-26" d="M305.23,721.93c18.11-7.55,36.5-14.32,55.28-19.99,14.96,17,30.59,33.41,44.43,51.38-1.93,2.19-4.56,2.51-7.2,2.52-25.78.13-51.57.23-77.35-.04-1.09-.01-2.17-.2-3.22-.49-2.54-.58-4.23-2.24-5.08-4.6-3.04-8.37-5.41-16.95-7.42-25.62-.25-1.07.16-2.15.57-3.16Z"/>
        <path class="cls-27" d="M313.18,6.11c-5.91.18-10.87,3.29-15.91,5.7-39.98,19.16-79.83,38.56-119.72,57.89-.81,1.7-2.06,2.86-3.98,3.15-.61-.01-1.14-.23-1.58-.66,6.92-18.21,13.86-36.41,20.73-54.63.79-2.09,1.91-3.1,4.24-3.29,26.63-2.12,53.25-4.33,79.87-6.51,8.73-.72,17.45-1.53,26.19-2.09,3.37-.22,6.87-1.61,10.17.44Z"/>
        <path class="cls-29" d="M336.56,334.53c-11.4,6.64-24.05,10.31-36.14,15.33-2.37.98-5.3,1.07-5.93,4.37-2.07.4-2.88-1.2-3.91-2.46-8.21-13.18-16.57-26.27-24.89-39.38-.7-1.11-1.51-2.16-2.1-3.33-1.25-2.47-3.76-5.21-1.54-7.77,2.21-2.55,5.58-3.38,8.9-1.21,14.04-1.51,28.09-2.93,42.12-4.54,11.87-1.36,23.71-2.97,35.57-4.35.88-.1,1.88.83,2.82,1.28-4.96,14.02-9.93,28.05-14.89,42.07Z"/>
        <path class="cls-1" d="M224.9,65.75c.43-.02.86.02,1.29.12,1.65,18.44,3.38,36.88,4.93,55.33.69,8.26,1.04,16.55,1.54,24.83-2.1,2.04-4.49,1.22-6.79.62-22.86-5.94-45.59-12.35-68.48-18.17-1.69-.43-3.31-1.15-4.73-2.21-.45-.51-.9-1.01-1.35-1.52-.47-1.03.03-1.81.64-2.56,22.45-17.35,44.58-35.11,66.81-52.74,1.91-1.52,4.04-2.56,6.15-3.69Z"/>
        <path class="cls-26" d="M152.33,123.49c-.35.42-.69.83-1.04,1.25-34.82,4.66-69.63,9.34-104.46,13.98-6.05.81-12.13,1.43-18.19,2.13-.48-.59-.49-1.18-.03-1.78,5.42-4.63,11.98-7.26,18.3-10.22,36.69-17.18,73.22-34.69,110.2-51.23,3.57-1.6,7.09-3.47,11.14-3.64.69.15,1.27.49,1.74,1.02,1.46,5.3-1.24,9.9-2.98,14.42-3.53,9.15-7.24,18.24-10.47,27.51-.89,2.54-2.66,4.48-4.22,6.57Z"/>
        <path class="cls-13" d="M152.64,126.26c11.39-.1,21.68,4.76,32.45,7.36,15.92,3.84,31.71,8.24,47.56,12.4,0,0,.03.11.03.11,2.73,2.72,2.69,6.39,3.15,9.81,1.03,7.59.75,15.28,1.59,22.92,1.37,12.44-1.9,15.41-14.87,14.89-5.45-1.84-5.28-7.03-6.46-11.27-2.45-8.83-2.53-9-10.91-5.26-5.79,2.58-11.77,4.67-17.52,7.34-1.97.91-3.97,1.96-6.23.82-8.88-15.74-15.56-32.55-23.7-48.65-1.75-3.46-3.4-6.97-5.1-10.46Z"/>
        <path class="cls-28" d="M305.23,721.93c4.47,10.17,5.23,21.56,10.42,31.49,2.53,4.06,6.05,7.99,1.64,12.94-2.6,1.51-5.48,1.41-8.32,1.42-23.65.05-47.3.06-70.95,0-3.28,0-6.63.06-9.3-2.4-.06-3.12-.11-6.23-.17-9.35.16-1.76.31-3.52.47-5.28.23-.37.61-.71.68-1.1,2.02-11.31,2.09-10.98,13.24-13.42,20.81-4.54,41.54-9.5,62.3-14.29Z"/>
        <path class="cls-24" d="M107.68,318.45c2.34-6.08,8.66-7.05,13.36-9.54,25.72-13.6,51.73-26.65,77.68-39.79,3.4-1.72,4.2-3.9,2.96-7.45-3.32-9.49-6.08-19.19-9.73-28.55-1.86-4.77-.37-6.67,3.86-7.81,1.3-.17,2.61-.34,3.91-.51.3.1.61.21.91.31,5.29,7.62,8.35,16.41,12.81,24.48,2.95,7.8,7.06,15.04,10.66,22.53,1.45,3.01,2.81,6.07.12,9.16-13.21,6.93-26.3,14.15-41,17.62-.73-.48.14.04-.63-.12-3.22-.66-3.16-6.11-6.75-5.24-4.4,1.06-8.23,3.83-12.31,5.87-4.3,2.14-.22,6.08-1.95,8.75-6.79,2.93-13.99,5.19-20.29,8.96-9.35,5.59-18.82,3.84-28.49,2.37-1.72-.26-3.42-.68-5.13-1.03Z"/>
        <path class="cls-21" d="M352.5,507.04c-.38-.47-.76-.93-1.14-1.4-.49-.44-1.08-.84-1.34-1.43-7.3-16.19-13.41-32.85-19.31-49.59-.57-1.63-.62-3.5,1.14-4.77,5.74-1.42,11.33.3,16.94.94,10.65,1.23,21.36,2.05,31.83,4.6,1.54.51,2.4,1.79,3.37,2.95,4.04,11.01,8.07,22.02,12.11,33.03,0,2.53-2.04,3.32-3.81,3.94-11.75,4.12-23.03,9.64-35.39,11.98-1.5.28-2.98.82-4.39-.25Z"/>
        <path class="cls-27" d="M168.19,74.57c-21.85,10.17-43.72,20.29-65.55,30.51-23.03,10.78-46.02,21.64-69.03,32.45-1.57.74-3.23,1.31-4.85,1.96-.61.5-1.17.45-1.69-.13,16.25-15.3,32.46-30.62,48.75-45.87,5.26-4.92,10.72-9.64,16.08-14.45,19.27-4.53,39.08-4.24,58.62-6.45,5.55-.63,11.22-2.69,16.83-.02.75.47,1.03,1.15.84,2.01Z"/>
        <path class="cls-8" d="M398.84,127.67c2.96-.38,5.93-.76,8.89-1.14-2.31,4.14-1.26,8.57-.92,12.85,1.09,13.68,2.42,27.34,3.57,41.02.58,6.95.96,13.92,1.43,20.89-15.49-.04-30.61,4.16-46.11,4.09-3.17-3.7-2.69-8.17-2.65-12.54,3.31-5.57,3.36-12.45,7.05-17.88,1.46-1.26,3.21-1.04,4.93-.94,4.06.24,7.54-.96,8.69-5.12,1.17-4.21-1.37-6.93-4.95-8.77-.96-.49-1.91-1.02-2.66-1.83-1.13-3.87,1.75-6.07,3.72-8.53,5.34-6.65,11.04-13,15.87-20.06.85-.97,2.01-1.49,3.12-2.06Z"/>
        <path class="cls-8" d="M424.93,374.08c-.08-.96-.16-1.93-.24-2.89,2.41-10.66,4.88-21.3,7.19-31.98.75-3.48,2.42-5.75,5.8-7.22,12.59-5.48,24.06-13.36,37.31-17.45,1.9.49,2.99,1.92,3.56,3.59,3.38,9.94,8.52,19.23,10.86,29.55-.02,8.48,0,16.95-.08,25.43-.02,2.12.52,4.39-1.11,6.24-3.56-3.51-2.07-8.05-2.48-12.2-.4-4.07.81-8.13.06-12.17-2.51-2.8-4.9-.41-7.03.44-15.01,5.96-30.16,11.55-45.1,17.68-2.77,1.14-5.58,2.79-8.72.99Z"/>
        <path class="cls-28" d="M417.1,547.92c-.26,2.18-1.34,3.43-3.63,3.91-15.84,3.37-31.62,7.02-47.69,9.18-2.37-2-2.66-4.89-3.05-7.64-1.07-7.48-1.91-15-2.66-22.53-.24-2.43-.17-4.76,1.61-6.7,15.31-1.47,30.67-1.4,46.02-1.4,3.13,8.39,6.26,16.78,9.39,25.16Z"/>
        <path class="cls-29" d="M383.97,458.34l-2.57-1.16c-6.54-16.44-12.56-33.07-18.73-49.65-.88-2.36-2.51-4.75-.93-7.47,11.9-6.29,24.83-10.12,37.11-15.49.53.66.95,1.38,1.29,2.16,1.2,12.89,2.16,25.77-1.33,38.49-4.03,8.44-8.08,16.86-12.05,25.33-1,2.13-2.68,4.04-2.46,6.63-.03.41-.14.8-.33,1.17Z"/>
        <path class="cls-7" d="M168.2,73.62c-13.93.14-27.69,2.35-41.53,3.48-10.82.88-21.61,2-32.43,2.91-.74.06-1.55-.64-2.33-.98,13.32-12.28,26.66-24.53,39.91-36.89,2.2-2.05,3.76-3.03,6.43-.41,10.42,10.24,21.06,20.26,31.62,30.37-.22.87-.78,1.38-1.67,1.51Z"/>
        <path class="cls-8" d="M181.44,185.37c9.94-4.32,19.94-8.48,29.77-13.03,3.51-1.62,4.43-.34,5.19,2.75,1.38,5.68,3.01,11.31,4.53,16.95,5.59,8.92,8.06,18.62,7.23,29.14-.91,1.31-2.19,2.12-3.66,2.66-8.2.97-16.31,3.56-24.7,1.55,0,0-.06-.61-.06-.61-6.1-13.14-12.2-26.28-18.3-39.42Z"/>
        <path class="cls-29" d="M424.93,374.08c19.05-7.43,38.08-14.89,57.17-22.21,1.73-.66,3.65-3.06,5.77-.46-5.16,16.77-14.25,31.53-23.54,46.19-.42.46-.85.92-1.27,1.38-9.29-2.66-16-9.66-24.02-14.45-4.98-2.98-10.52-5.46-14.1-10.45Z"/>
        <path class="cls-21" d="M161.6,308.14q-3.86-8,4.29-12.06c.78-.39,1.56-.78,2.34-1.17q8.93-4.44,14.85,2.74c3.08,2.72,4.53,6.44,5.98,10.08,3.1,7.76,7.28,14.99,10.79,22.54,1.16,2.49,3.21,4.9,1.6,7.98-5.85,5.15-13.21,7.46-20.1,10.64-6.58-13.58-13.17-27.17-19.75-40.75Z"/>
        <path class="cls-7" d="M373.49,666.48c-8.31,2.27-17.03.24-25.37,2.42-3.29.86-4.36-.61-3.51-3.87,4.28-16.25,7.9-32.67,13.14-48.66,4.81,1.27,7.3,5.47,10.46,8.67,5.35,5.42,10.91,10.75,14.43,17.69-2.5,8.12-5.59,16.02-9.16,23.73Z"/>
        <path class="cls-25" d="M318.15,765.21c-.44-4.01-3.04-7.57-2.5-11.79,29.76-.03,59.53-.06,89.29-.1.38,1.42.75,2.84,1.12,4.27-.22,2.58,1.04,5.37-1.07,7.68-.59.26-1.12.63-1.83.63-27.74.05-55.48.06-83.21,0-.72,0-1.22-.4-1.8-.68Z"/>
        <path class="cls-21" d="M489.41,347.67c-4.46-4.73-5.37-11.14-7.89-16.78-2.39-5.35-4.37-10.89-6.53-16.35-2.98-9.41-8.25-18.07-9.18-28.15,6.94,3.59,13.88,7.19,20.84,10.75,2.1,1.07,4.11,2.54,6.7,1.95,2.96,7.48,4.94,15.38,9.37,22.24-6.52,7.73-8.9,17.55-13.31,26.35Z"/>
        <path class="cls-6" d="M220.71,584.72c-13.96-21.02-27.95-42.02-41.83-63.09-1.28-1.95-1.84-4.37-2.73-6.57,3-3.79,6.92-5.01,11.58-4.14,6.31,10.16,12.62,20.31,18.93,30.47,6.61,10.96,13.21,21.93,19.81,32.89-1.92,3.48-3.84,6.96-5.77,10.43Z"/>
        <path class="cls-17" d="M382.65,642.74c-9.02-8.11-16.48-17.69-24.89-26.37,12.98-4.84,26.53-7.77,39.77-11.72-4.52,12.87-9.36,25.61-14.88,38.08Z"/>
        <path class="cls-24" d="M514.4,290.77c7.07-2.87,14.14-5.73,21.22-8.6,1.45,1.34,1.57,3.12,1.26,4.84-1.31,7.49-1.57,15.17-3.91,22.48-6.91,2.95-13.59,6.54-21.07,8-1.14-.82-1.84-2.05-1.73-3.34.64-7.93.4-16.03,4.23-23.38Z"/>
        <path class="cls-24" d="M572.34,293.59c-6.97,2.72-13.63,6.23-20.93,8.1-1.15-.82-1.73-2.06-1.57-3.34.96-7.83,1.08-15.81,3.95-23.32,6.84-3.55,14.04-6.25,21.29-8.83,1.04.98,1.44,2.3,1.16,3.59-1.7,7.87-1.04,16.13-3.89,23.81Z"/>
        <path class="cls-13" d="M553.78,275.03c1.42,7.13-.96,13.94-1.78,20.89-.22,1.92-.4,3.85-.6,5.77-5.68,3.71-12.14,5.55-18.44,7.81-2.35-7.63,1.46-14.77,1.79-22.18.08-1.72.56-3.43.86-5.14,6.06-2.38,12.11-4.76,18.17-7.15Z"/>
        <path class="cls-18" d="M352.5,507.04c14.93-4.11,29.32-9.73,43.59-15.67,2.7,5.84,5.06,11.8,6.67,18.04-3.63,3-7.98,1.74-11.86,1.41-11.83-1.01-23.63-2.25-35.52-2.57-.97-.03-1.92-.79-2.88-1.21Z"/>
        <path class="cls-13" d="M572.34,293.59c-1.8-8.05.78-15.75,1.93-23.56.19-1.29.53-2.56.8-3.84,6.15-2.23,11.79-5.82,18.35-6.98,1.46,9.89,1.52,19.51-5.24,27.85-5.28,2.17-10.56,4.35-15.85,6.52Z"/>
        <path class="cls-24" d="M588.18,287.06c2.39-6.77,3.45-13.79,3.88-20.91.15-2.4.24-4.75,1.35-6.94,5.2-3.13,10.9-4.96,17.68-7.43-1.54,9.31-2.94,17.62-4.26,25.93-.33,2.1-1.89,2.78-3.52,3.42-5.04,1.99-10.09,3.95-15.13,5.93Z"/>
        <path class="cls-13" d="M514.4,290.77c.86,9.06-2.64,17.72-2.49,26.72-2.81,1.88-5.81,3.3-9.18,3.83-7.5-5.57-9.19-13.58-9.37-22.24,7.02-2.77,14.03-5.54,21.05-8.31Z"/>
        <path class="cls-21" d="M187.73,510.92c-3.86,1.38-7.72,2.76-11.58,4.13-1.26-6.14,1.48-11.73,2.39-17.57.9-5.81,2.21-11.51,4.22-17.04q12.55,4.45,9.11,16.81c-1.29,4.58-2.76,9.12-4.14,13.67Z"/>
        <path class="cls-21" d="M151.39,512.21q-10.92,7.11-18.27-3.88c-2.91-4.35-5.92-8.62-8.7-13.05-1.03-1.64-3.29-3.41-.71-5.63,9.02-1.56,15.17,1.88,19.26,10.15,2.19,4.44,5.57,8.29,8.42,12.4Z"/>
        <path class="cls-10" d="M464.33,397.61c6.52-16.07,15.56-30.86,23.54-46.19.11,9.31.23,18.62.34,27.92-7.47,6.73-15.4,12.86-23.88,18.26Z"/>
        <path class="cls-11" d="M154.1,240.54c-4.94,6.88-13.04,7.91-20.09,10.88q-4.03-7.77,3.3-11.57c2.32-1.19,4.97-1.9,7.04-3.42,5.76-4.21,8.36-1.67,9.75,4.11Z"/>
        <path class="cls-5" d="M168.2,73.62c.56-.5,1.11-1.01,1.67-1.51.7.03,1.41.05,2.11.08.5,0,1.01.01,1.51.02.03,2.93-1.63,3.36-4.02,2.71-.43-.11-.86-.23-1.29-.35,0-.32,0-.64,0-.95Z"/>
        <path class="cls-19" d="M27.08,139.36c.56.04,1.12.09,1.69.13-.04.45-.08.91-.12,1.36-.92,1.05-2.36,1.47-3.15.57-.57-.65.57-1.69,1.58-2.07Z"/>
        <path class="cls-14" d="M224.67,222.32c.9-.41,1.81-.82,2.71-1.23,10.88-3.91,22-5.57,33.51-3.53.28.29.55.58.83.87,1.51,13.17,3.09,26.34,4.51,39.52,1.52,14.05,4.25,27.96,4.72,42.13-2.74.6-5.49,1.19-9.08,1.97,10.24,16.72,20.21,32.99,30.18,49.26-3.17,1.47-4.75-1.27-6.66-2.7-14.49-10.83-28.95-21.7-43.45-32.53-.52-.36-.99-.78-1.43-1.24-6.1-11.32-11.36-23.06-16.96-34.63,1.84-2.47.13-4.48-.86-6.58-3.67-7.84-7.34-15.67-11.01-23.51,1.13-5.95,4.77-10.73,7.51-15.92,2.05-3.86,4.66-7.45,5.48-11.87Z"/>
        <path class="cls-4" d="M364.41,192.03c.55,4.44,1.74,8.82,1.3,13.36-.44.41-.89.82-1.33,1.23-9.99,4.07-20.48,4.72-31.09,4.54-1.9-.37-3.75-.95-5.62-1.43-1.05-.64-1.57-1.64-1.83-2.8-.22-2.97-.41-5.94-1.41-8.79-2.47-14.6-3.5-29.36-5.12-44.05-.31-5.62-3.71-11.26.04-16.88,4.84-8.35,10.02-16.52,14.39-25.1,2.69-5.28,4.53-3.62,7.32-.47,5.95,6.73,12.04,13.32,18.08,19.97,4.29,5.5,3.42,12,3.52,18.31,1.75,10.58,2.31,21.28,3.41,31.92.36,3.53-.07,6.97-1.66,10.2Z"/>
        <path class="cls-8" d="M327.37,209.22l5.56.14c-.43,2.82-2.24,1.87-3.86,1.41-9.65-.56-19.04,1.85-28.58,2.61-11.92.94-23.79,2.58-35.68,3.98-1.06.12-2.06.7-3.09,1.06,0,0,0,.02,0,.02-2.78-1.94-3.41-4.89-3.83-7.98-2.62-19.23-4.8-38.52-7.28-57.77-.37-2.87-.34-5.69,1.85-7.99.42-.03.85-.03,1.27,0,2.54.51,5.05.97,7.42,2.21,10.22,5.37,20.46,10.7,30.53,16.36,1.81,1.02,4.46,2.09,4.08,4.56-.41,2.71-3.34,2.16-5.36,2.61-3.56.46-7.23-.73-10.82.8,8.4,3.73,17.83,2.02,26.3,5.12,8.69,9.95,16.28,20.62,21.49,32.86Z"/>
        <path class="cls-29" d="M361.88,257.02c-19.65-2.53-38.66-4.99-57.68-7.43-5.84-.75-11.67-1.58-17.52-2.12-3.25-.3-5.72-1.08-5.2-5,.56-4.27,3.41-2.06,5.51-1.79,24.64,3.14,49.27,6.31,73.92,9.41,2.5.31,4.95.18,4.74,3.8-.17,3.04-1.72,3.76-3.76,3.13Z"/>
        <path class="cls-29" d="M329.06,210.78c1.29-.47,2.58-.94,3.86-1.41,10.49-.92,20.97-1.83,31.46-2.75-3.31,4.89-8.11,8.34-12.07,12.6-2.08,2.24-4.44,2.38-7.02.89-5.4-3.12-10.81-6.22-16.22-9.32Z"/>
        <path class="cls-13" d="M341.59,72.97c16.51-1.62,31.7-3.11,46.88-4.6,8.06-.79,16.13-1.46,24.17-2.44,3.72-.45,5.52.14,5.81,4.52.67,10.05,1.77,20.08,3.12,30.05.5,3.66-.17,5.22-4,5.58-13.95,1.3-27.89,2.8-41.83,4.23-2.27.23-4.2.04-5.82-2.01-9.11-11.48-18.32-22.88-28.33-35.34Z"/>
        <path class="cls-13" d="M326.25,74.9c-7.46,14.03-14.36,26.91-21.13,39.86-1.37,2.62-3.68,2.91-6.05,3.13-13.93,1.3-27.86,2.49-41.79,3.81-2.37.23-3.85-.28-4.09-2.85-1.04-11.1-2.08-22.21-3.14-33.31-.27-2.83,1.75-3.3,3.72-3.49,23.67-2.37,47.36-4.67,72.48-7.14Z"/>
        <path class="cls-10" d="M252.46,144.71c2.27,24.68,5.28,49.27,9.26,73.74-11.55-.51-22.78,3.15-34.34,2.64-.87-9.96-4.66-19.28-6.45-29.04,17.72-2.05,14.78,1.53,13.86-16.49-.51-9.82-1.39-19.62-2.1-29.43,6.59-.47,13.18-.95,19.77-1.42Z"/>
        <path class="cls-10" d="M290.47,168.57c1.29-.15,2.57-.3,5.42-.63-14.81-8.16-28.49-15.7-42.16-23.24,1.34-.4,2.68-.8,4.02-1.2,5.83,2.07,12.04,1.69,18.05,2.75,15.09,2.66,30.23,5.01,45.33,7.61,1.24,10.02,2.51,20.04,3.69,30.06.58,4.93.97,9.88,1.45,14.82,1.44,2.5-.36,5.48,1.17,7.97-.02.84-.05,1.68-.07,2.52-7.51-10.09-14.61-20.46-21-31.3-.87-4.75-4.21-5.84-8.45-6.18-2.7-.21-6.29.94-7.44-3.18Z"/>
        <path class="cls-13" d="M321.13,153.86c-.75,3.18-3.07,1.68-4.72,1.41-18.18-3.03-36.34-6.18-54.52-9.21-1.85-.31-3.36-.72-4.14-2.55,20.53-2.1,41.07-4.2,61.6-6.3.59,5.55,1.19,11.1,1.78,16.66Z"/>
        <path class="cls-3" d="M360.61,149.83c-.49-6.08-.98-12.15-1.46-18.23,13.23-1.31,26.46-2.62,39.7-3.93-.57.76-1.13,1.52-1.7,2.28-9.17,9.26-20.67,15.2-31.5,22.09-2.54,1.62-4.55,1.24-5.04-2.21Z"/>
        <path class="cls-12" d="M241.76,314.49c10.84,6.03,19.94,14.5,30,21.62,6.9,4.87,13.53,10.12,20.29,15.19.82.97,1.63,1.95,2.44,2.92,7.53,20.23,15.06,40.46,22.58,60.69.64,1.11.7,2.17-.26,3.15-10.9,4.15-22.58,4.51-33.86,6.79-5.22,1.05-10.54,3.18-16.05,1.1-2.3-2.06-2.58-4.98-3.22-7.73-7.14-30.94-14.01-61.95-21.33-92.85-.84-3.55-2.41-7.14-.6-10.88Z"/>
        <path class="cls-20" d="M316.85,417.18c.07-.76.15-1.52.22-2.27,3.75,2.01,6.71-.59,9.8-1.83,11.52-4.64,22.83-9.8,34.88-13.02,6.79,17.68,13.58,35.36,20.39,53.04.6,1.55.8,2.95-.73,4.08-16.63-2.14-33.25-4.29-49.88-6.43-.68.27-1.32.22-1.94-.16-6.01-10.45-10.42-21.53-12.73-33.4Z"/>
        <path class="cls-21" d="M330.13,391.76c-2.62.25-3.08-1.42-3.51-2.82-.89-2.88,1.08-3.77,3.32-4.6,9.23-3.45,18.42-7,27.63-10.51,2.25-.86,4.5-1.72,6.72-2.62,1.91-.78,2.88.22,3.53,1.81.55,1.35,1.85,3.02-.33,3.9-12.58,5.08-25.22,10.04-37.37,14.85Z"/>
        <path class="cls-21" d="M364.05,363.27c.32,2.15-1.11,2.89-2.54,3.45-11.38,4.42-22.79,8.77-34.17,13.17-2.21.86-3.93.45-4.78-1.84-.83-2.24.15-3.84,2.31-4.68,11.59-4.48,23.17-8.98,34.8-13.37,3.03-1.14,3.65,1.35,4.38,3.26Z"/>
        <path class="cls-21" d="M321.65,369.25c-2.09.41-2.89-.76-3.32-2.42-.38-1.46-1.13-3.07.97-3.87,12.23-4.66,24.44-9.36,36.72-13.86,1.98-.73,3.15,1.02,3.77,2.81.53,1.52-.17,2.63-1.51,3.16-12.2,4.76-24.41,9.46-36.62,14.18Z"/>
        <path class="cls-1" d="M318.15,765.21c28.95.02,57.9.04,86.84.06-2.08,1.86-4.61,1.02-6.92,1.02-24.08.07-48.16.18-72.23-.07-5.37-.05-8.53.84-7.49,7.06.66,3.99-1.17,5.26-5.17,5.24-26.49-.14-52.97-.14-79.46,0-3.99.02-5.64-1.26-5.26-5.27.25-2.61.18-5.25.26-7.87,29.81-.05,59.62-.11,89.43-.17Z"/>
        <path class="cls-7" d="M169.49,74.92c1.34-.9,2.68-1.81,4.02-2.71,1.35-.84,2.7-1.68,4.05-2.52,4.4,3.49,9.23,1.13,13.74.65,11.24-1.21,22.41-3.02,33.61-4.6-6.4,7.58-14.77,12.86-22.46,18.9-16.61,13.07-32.59,26.94-50.11,38.84,4.55-16.6,12.85-31.88,17.15-48.57Z"/>
        <path class="cls-27" d="M241.76,314.49c4.26,17.77,8.61,35.52,12.76,53.31,4.16,17.81,8.13,35.66,12.13,53.5.28,1.26.21,2.6.3,3.91-5.55,4.47-11.61,5.74-18.32,2.89-2.89.19-4.25-1.56-5.37-3.93-12.85-27.16-25.76-54.28-38.59-81.45-.63-1.34-.67-2.95-.99-4.44-.32-2.77,1.91-3.8,3.64-4.93,9.33-6.11,18.94-11.79,28.25-17.95,1.85-1.23,3.86-2.13,6.17-1.13v.22Z"/>
        <path class="cls-8" d="M248.64,428.1c6.11-.96,12.21-1.92,18.32-2.89,16.63-2.67,33.27-5.35,49.9-8.02,5.57,10.65,9.06,22.13,13.34,33.3.17,3.17-2.5,3.87-4.51,4.87-16.18,8.04-32.04,16.67-48.17,24.79-2.38,1.19-4.78,3.35-7.83,1.49-7.94-17.44-15.88-34.88-23.83-52.32.93-.4,1.85-.81,2.78-1.21Z"/>
        <path class="cls-28" d="M338.15,562.37c-.03,2.94-.97,4.71-4.36,5.33-18.36,3.35-36.67,6.95-55,10.47-1.73-16.68-3.47-33.36-5.2-50.04,20.14-.88,40.28-1.76,60.42-2.64,2.35,2.26,2.99,5.25,3.28,8.29.67,7.12,1.68,14.2,2.47,21.31.29,2.58.59,5.23-1.61,7.29Z"/>
        <path class="cls-18" d="M269.68,481.63c20.39-9.96,40.67-20.13,60.51-31.14.44.09.89.17,1.33.26,5.72,15.38,11.48,30.75,17.15,46.15,1.05,2.86,1.79,5.83,2.68,8.75-6.64-1.39-11.24-6.47-16.98-9.49-5-2.64-9.73-5.81-14.58-8.75-2.83-1.71-5.65-1.37-8.8-.63-29.23,6.86-58.5,13.57-87.78,20.23-1.52.35-3.18,1.96-4.85.2,17.1-8.52,34.21-17.05,51.31-25.57Z"/>
        <path class="cls-1" d="M338.15,562.37c-1.38-12.29-2.76-24.59-4.14-36.88,9.23-.23,18.39-2.12,27.67-1.33,1.37,12.29,2.73,24.57,4.1,36.86-7.51,1.68-15.05,3.27-22.53,5.1-3.45.84-3.66-2.16-5.11-3.75Z"/>
        <path class="cls-1" d="M398.7,385.46c5.22,2.39,10.44,4.79,15.66,7.18-4.28,11.29-9.4,22.18-15.54,32.58-.04-13.26-.08-26.51-.12-39.76Z"/>
        <path class="cls-29" d="M224.67,222.32c2.3.32,2.15,1.61,1.27,3.2-4.58,8.3-8.44,17.02-14.26,24.59-3.96-8.23-7.92-16.47-11.87-24.7,8.15-2.11,16.51-2.64,24.87-3.09Z"/>
        <path class="cls-10" d="M360.61,149.83c2.01,3.82,4.01.8,5.65-.22,10.35-6.47,20.6-13.09,30.88-19.66-3.14,7.25-9.36,12.22-13.71,18.59-2.17,3.19-4.76,6.09-7.16,9.12-6.2,4.39-7.21,10.38-5.32,17.26-2,5.77-1.68,12.43-6.54,17.1-1.27-14.07-2.54-28.13-3.8-42.2Z"/>
        <path class="cls-9" d="M370.96,174.93c-5.84-8.75-4.34-13.63,5.32-17.26,7.86,1.8,11.38,6.14,9.66,11.92-1.82,6.12-6.95,7.95-14.98,5.35Z"/>
        <path class="cls-15" d="M193.32,191.76c12.95-5.79,13.04-5.82,17.01,6.21.98,2.97,4.41,7.27,1.91,8.83-3.12,1.94-5.17-3.22-7.71-5.22-3.7-2.92-7.12-6.21-11.2-9.82Z"/>
        <path class="cls-8" d="M327.44,206.7c-2.05-2.41-1.04-5.27-1.17-7.97,2.1,2.4.95,5.29,1.17,7.97Z"/>
        <path class="cls-23" d="M290.47,168.57c3.89,1.98,8.17,1,12.25,1.6,5.4.8,6.74,3.14,3.65,7.75-8.65-.98-17.3-2.06-25.96-2.9-3.13-.3-4.81-1.13-4.38-4.77.43-3.63,2.5-2.54,4.67-2.3,3.24.37,6.52.42,9.78.61Z"/>
      </g>
    </g>
  </g>
</svg>