<?xml version="1.0" encoding="UTF-8"?>
<svg xmlns="http://www.w3.org/2000/svg" version="1.1" viewBox="0 0 636.44 792">
  <defs>
    <style>
      .cls-1 {
        fill: #c7ab3d;
      }

      .cls-2 {
        fill: #9e7b28;
      }

      .cls-3 {
        fill: #474746;
      }

      .cls-4 {
        fill: #e2c9b7;
      }

      .cls-5 {
        fill: #ac9146;
      }

      .cls-6 {
        fill: #858584;
      }

      .cls-7 {
        fill: #987726;
      }

      .cls-8 {
        fill: #d9bca6;
      }

      .cls-9 {
        fill: #2d2c2c;
      }

      .cls-10 {
        fill: #bc977e;
      }

      .cls-11 {
        fill: #505353;
      }

      .cls-12 {
        fill: #dfc54d;
      }

      .cls-13 {
        fill: #464646;
      }

      .cls-14 {
        fill: #a68670;
      }

      .cls-15 {
        fill: #866855;
      }

      .cls-16 {
        fill: #848484;
      }

      .cls-17 {
        fill: #ae8a2d;
      }

      .cls-18 {
        fill: #9a7a29;
      }

      .cls-19 {
        fill: #a4873b;
      }

      .cls-20 {
        fill: #bc977d;
      }

      .cls-21 {
        fill: #4f5252;
      }

      .cls-22 {
        fill: #ded5c2;
      }

      .cls-23 {
        fill: #2e2d2d;
      }

      .cls-24 {
        fill: #6e7073;
      }

      .cls-25 {
        fill: #b58f41;
      }

      .cls-26 {
        fill: #715719;
      }

      .cls-27 {
        fill: #b78e2f;
      }

      .cls-28 {
        fill: #80631e;
      }

      .cls-29 {
        fill: #856754;
      }
    </style>
  </defs>
  <!-- Generator: Adobe Illustrator 28.7.1, SVG Export Plug-In . SVG Version: 1.2.0 Build 142)  -->
  <g>
    <g id="Layer_1">
      <g>
        <path class="cls-12" d="M238.18,689c-13.95-1.85-28.03-1.63-42.05-2.36-4.45-.23-6.34-1.28-6.67-5.96-1.19-17.01-2.8-34-4.14-51-1.99-25.2-3.91-50.41-5.81-75.62-.2-2.6-.07-5.22-.09-7.83,3.4-.5,4.9,2.29,6.84,4.13,11.16,10.63,20.78,22.76,32.07,33.28,4.44,4.14,4.34,4.22,7.57-1.05,1.89-3.08,3.52-6.29,5.07-9.55,1.9-3.47,3.95-6.85,5.68-10.42,5.35-10.61,11.39-20.83,16.76-31.42.18-.36.38-.71.61-1.04,1.7-2.45,3.17-6.11,6.47-5.56,3.76.63,2.96,4.81,3.22,7.59,1.65,17.41,3.06,34.84,4.5,52.27,1.73,21.04,3.82,42.05,5.58,63.09,1,12.02,1.63,24.07,2.78,36.08.25,2.59.12,5.28-2.1,7.27-4.11,2.22-8.64,1.83-12.89,1.34-7.81-.9-15.97.53-23.38-3.25Z"/>
        <path class="cls-10" d="M407.59,222.17c1.59,19.63,3.19,39.26,4.77,58.9.08,1,.06,2.01.1,3.02.65,13.26.62,13-12.88,14.39-13.57,1.4-27.09,3.33-40.61,5.21-2.3.32-4.89.28-6.77,2.14-12.32,3.01-25,3.41-37.48,5.26-9.72,1.44-19.52,2.29-29.29,3.38-2.61.29-5.22.57-7.51-1.19-1.67-1.98-1.66-4.45-1.97-6.82-2.61-20.09-5.1-40.19-7.57-60.29-.34-2.8-.78-5.59.62-8.25,1.16-1.84,2.96-2.7,5.01-2.98,17.7-2.41,35.46-4.38,53.25-6,.79-.07,1.6.08,2.39.16,5.27,1.48,9.91,4.29,14.51,7.14,3.85,2.39,7.01,2.12,10.15-1.25,3-3.23,6.16-6.33,9.44-9.3.81-.61,1.7-1.04,2.68-1.34,10.86-1.57,21.8-2.46,32.67-3.95,2.98-.41,6.01-.46,8.5,1.77Z"/>
        <path class="cls-12" d="M390.64,83.02c10.35-1.13,20.74-2.06,31.05-3.47,4.95-.68,6.85,1.19,7.25,5.87,1.21,13.98,2.6,27.94,3.88,41.92.57,6.19.79,12.43,1.65,18.57.47,3.37-.14,4.73-3.72,5.01-8.98.7-17.94,1.74-26.91,2.64-2.72,1.51-5.34,3.35-8.72,2.78-11.47,1.11-22.87,2.9-34.4,3.38-5.83-1.3-8-6.93-12.07-10.32-1.99-1.66-3.59-3.74-5.25-5.75-3.94-4.78-4.27-4.74-7.43.38-3.15,5.11-6.08,10.34-9.14,15.51-1.22,2.06-2.59,4.06-4.87,5.19-7.94,2.61-16.27,2.25-24.42,3.19-9.98,1.15-19.95,2.41-29.99,2.91-1.72-.08-3.28.62-4.92.96-.67.11-1.34.17-2.02.22-5.74-.25-11.45,2.64-17.22.23-.6-.43-1.06-.98-1.4-1.64-2.88-8.91-2.12-18.25-3.13-27.38-1.43-12.92-2.17-25.93-3.19-38.9-.19-2.41-.47-4.81,1.13-6.93,4.28-2.72,9.2-2.51,13.94-2.98,30.33-3.01,60.66-5.94,90.98-9.08,13.56-1.4,27.17-2.36,40.72-3.91,2.93-.33,5.49.95,8.19,1.62Z"/>
        <path class="cls-24" d="M338.54,344.43c12.87-3.79,25.05-9.43,37.53-14.24,24.67-9.51,49.17-19.44,73.78-29.11,2.28-.89,4.61-2.88,7.29-.83,3.93,8.31,8.24,16.49,8.9,25.93-8.52,5.66-17.84,9.87-27.12,13.95-7.84,3.44-11.79,8.57-12.98,16.97-1.01,7.1-2.93,14.1-4.93,21.04-.65,1.41-1.11,2.91-2.11,4.15-7.02,4.5-15,6.78-22.67,9.77-11.49,4.69-23.1,9.09-34.5,14.02-10.77,3.76-21.38,7.91-31.88,12.38-3.27,1.39-6.65,3.28-10.05.17-5.94-10.76-9.19-22.61-13.64-33.97-2.83-7.23-6.53-14.23-7.52-22.12.23-2.52,1.83-4.02,3.97-4.86,11.22-4.4,22.38-8.93,33.59-13.36.77-.3,1.57-.25,2.33.11Z"/>
        <path class="cls-22" d="M402.31,732.65c18.87-.21,37.61,1.65,56.39,3.18,9.79.8,19.64.92,29.45,1.47,14.52.81,29.03,1.73,43.59,3.55-16.83,2.04-33.67,4-50.48,6.15-16.67,2.14-33.3,4.53-49.96,6.71-17.06,2.24-34.13,4.38-51.2,6.53-13.9,1.75-27.89,2.95-41.68,5.29-11.62,1.97-23.08,1.71-34.65.54-7.16-.72-14.31-1.66-21.49-2.14-18.98-1.28-37.92-2.88-56.85-4.72-16.34-1.58-32.75-2.5-49.12-3.83-16.16-1.31-32.31-2.77-49.65-4.26,7.07-2.64,13.71-2.89,20.07-4,16.95-2.97,33.98-5.48,50.98-8.13,11.66-1.82,23.33-3.65,35.02-5.29,2.5-.35,4.61-1.28,6.71-2.49,2.87,2.35,2.18,5.56,2.08,8.62.07,1,.41,2,.33,2.99-.47,5.47,2.44,6.81,7.34,6.76,14.08-.14,28.17-.05,42.25-.05,7.44,0,14.89.06,22.33-.04,2.79-.04,5.29-.41,5.75-3.9.71-5.38,4.24-6.53,9.07-6.51,20.72.1,41.45.06,62.17.03,2.6,0,5.25.32,7.69-.88,2.56-.97,2.21-3.99,3.86-5.6Z"/>
        <path class="cls-28" d="M390.64,83.02c-23.97,2.32-47.94,4.63-71.91,6.96-22.37,2.17-44.74,4.37-67.11,6.55-4.79.47-9.58.91-14.38,1.36-.54.42-1.11.79-1.71,1.11-11.56,3.89-23.74,3.76-35.63,5.54-2.72.41-5.72.73-7.62-2.18-.04-3.4,2.85-4.1,5.07-5.17,32.41-15.65,64.68-31.58,97.31-46.78,4.54-2.12,8.73-4.97,13.6-6.4,2.9-.85,5.74-1.89,8.82-.96,23.76,12.7,47.53,25.39,71.28,38.12.85.45,1.53,1.22,2.29,1.85Z"/>
        <path class="cls-2" d="M238.18,689c12.18-.51,24.27,2,36.47,1.17,3.73-3.54,8.43-5.45,13.06-7.34,4.54-1.85,6.33-4.44,5.8-9.64-2.04-20.19-4.11-40.38-6.02-60.59-.28-3.01-.43-6.02-.57-9.03-.11-2.28-.02-4.54,2.87-5.2,2.91-.32,5.49.93,8.14,1.78,8.97,2.84,17.71,6.41,27.07,7.96,2.34.39,4.67,1.19,6.49,2.93,1.57,3.01.22,5.9-.49,8.75-3.92,15.56-7.3,31.24-11.28,46.79-.59,2.29-1.42,4.6-.97,7.49,4.41-.38,8.42-2.09,12.42-3.59,10.52-3.92,21.31-7.05,31.82-10.99,1.82-.68,3.72-1.65,5.79-.77-1.73,7.99-5.8,15.14-8.25,22.87-1.24,2.12-3.53,2.51-5.54,3.29-14.92,5.8-30.18,10.7-45.01,16.74-18.65,4.85-37.59,8.48-56.3,13.12-5.79,1.43-11.8,1.78-11.68,9.93.01.93-.93,1.74-2.13,1.7.52-12.5-1.05-24.91-1.67-37.37Z"/>
        <path class="cls-1" d="M194.75,438.73c-9.91-20.11-19.76-40.24-29.76-60.31-1.62-3.24-.34-4.4,2.43-5.8,9.63-4.86,19.14-9.99,28.69-15.01,4.94-5.5,12.23-6.89,18.27-10.48.94-.14,1.82.01,2.63.53,5.14,9.09,9.07,18.78,13.57,28.19,5.9,12.32,11.72,24.68,17.55,37.03,2.9,6.15,5.8,12.33,9.91,17.82-.48,1.45-1.67,1.98-3.01,2.33-17.03,2.96-34.22,4.74-51.28,7.45-3.04.48-6.48,1.29-8.98-1.76Z"/>
        <path class="cls-27" d="M399.27,504.91c1.96,3.92,3.54,7.98,4.55,12.25-1.19,1.6-2.97,2.1-4.77,2.1-12.37-.03-24.71.78-37.06,1.1-8.45-.06-16.85,1.23-25.3,1.18-18.57.45-37.1,2.14-55.69,2.38-6.37.22-12.74.52-19.1.38-1.71-.04-3.06.49-4.53,1.11-7.95,3.32-16.38,4.99-24.72,6.98-2.02.48-4.02.54-5.07-1.83-1.7-6.73-.98-13.63-1.45-20.44-.56-3.37-1.54-6.89,3.09-8.33,17.8-3.21,35.21-8.13,52.85-12.03,10.4-2.3,20.79-4.65,31.14-7.16,4.79-1.16,8.94-.5,13.26,1.92,8.77,4.9,16.9,10.88,25.84,15.48.95.31,1.86.73,2.76,1.16,6.86,1.66,13.91,1.29,20.86,1.86,7.78.64,15.58,1.11,23.35,1.91Z"/>
        <path class="cls-1" d="M227.58,530.54c6.07.73,11.65-1.56,17.18-3.29,11.76-3.68,23.63-5.99,35.99-5.17,2.09,1.86,2.95,4.29,3.07,6.99.56,12.87,2.58,25.62,3.47,38.46.74,10.63,2.54,21.17,2.95,31.84-3.65,4.22-.98,8.99-.68,13.31,1.06,15.17,2.86,30.29,4.41,45.43.61,5.97,1.16,11.96,1.99,17.9.33,2.39.51,4.88-1.8,5.83-6.54,2.7-12.3,7.26-19.52,8.33-1.09-19.6-2.62-39.17-4.62-58.71-1.61-15.74-2.53-31.56-3.86-47.33-1.65-19.5-3.4-38.99-5.28-60.48-9.65,13.88-15.2,28.12-23.37,40.79-4.2-2.5-5.67-7.14-8.31-10.83-3.27-4.57-5.89-9.59-8.8-14.4-.89-1.47-2.25-2.97-1.07-4.95,2.74-1.25,6.42-.42,8.25-3.72Z"/>
        <path class="cls-27" d="M290.25,599.37c-3.9-3.08-2.46-7.83-3.21-11.72-1.24-6.41-1.09-13.08-1.52-19.64,1.84-2.1,4.33-2.7,6.94-3.16,12.61-2.23,25.11-5.03,37.69-7.42,3.38-.64,6.63-1.5,9.19-3.98,9,2.39,17.33-1.59,25.96-2.79,11.88-2.5,23.88-4.34,35.71-7.09,3.89-.9,7.6-2.27,11.43-3.31,1.64,2,1.7,3.99,0,5.99-24.9,21.48-50.27,42.39-75.74,63.17-1.48,1.21-2.88,2.96-5.25,2.18-14.16-2.65-27.77-7.13-41.21-12.22Z"/>
        <path class="cls-16" d="M171.1,258.18c2.07,1.76,3.71.06,5.39-.76,8.08-3.93,16.18-7.83,24.17-11.95,2.85-1.47,5.71-1.57,8.73-1.28-1.71,3.3-1.82,6.54-.74,10.22,1.94,6.56,4.72,12.8,6.75,19.32,2.53,8.1,1.82,10.01-5.78,13.84-27.21,13.7-54.26,27.72-81.12,42.09-2.54.42-3.6-.65-3.8-3.22-1.02-13.15-2.11-26.3-3.27-39.45-.25-2.86,1.54-3.58,3.59-4.71,9.08-4.98,19.09-8.14,27.63-14.14,5.17-5.13,12.5-6.28,18.44-9.98Z"/>
        <path class="cls-10" d="M418.31,382.01c.09-1.39-.03-2.84,1.1-3.94.87.29,1.42.93,1.86,1.69,5.04,5.55,11.88,8.61,17.83,12.89,5.13,3.7,10.88,6.52,15.52,10.92-6.11,19.37-10.38,39.22-15.45,58.86-1.27,4.93-2.87,6.28-8,5.07-16.2-3.81-32.54-7.06-48.82-10.53-2.32-2.61-.31-4.89.73-7.07,3.57-7.53,7.41-14.94,11.04-22.44,5.45-9.77,9.85-20.05,14.53-30.19,3.42-4.96,4.23-11.59,9.66-15.27Z"/>
        <path class="cls-12" d="M230.08,502.88c-4.33.76-3.65,4.26-3.95,7.22-2.92-14.13-10.9-26.14-16.5-39.14-4.67-10.87-9.9-21.49-14.88-32.23,9.49.79,18.59-2.07,27.88-3.12,10.91-1.23,21.78-2.79,32.67-4.21,1.75,1.39,3.02,3.13,4,5.15,6.1,12.57,11.58,25.42,17.7,37.98.79,1.62,1.38,3.34.75,5.2-1.72,3.06-5.04,3.95-7.85,5.23-13.24,6.04-25.62,14-39.81,17.92Z"/>
        <path class="cls-24" d="M232.22,574.02c-2.26,4.25-4.75,8.39-6.72,12.77-1.69,3.75-2.93,3.75-5.72.81-12.58-13.26-25.37-26.31-38.1-39.42-.69-.71-1.51-1.3-2.27-1.94q-13.15-20.76-37.58-25.25c-1.38-.25-2.76-.53-4.15-.72-3.06-.42-4.36-1.45-3.46-5.08,2.08-8.38,3.5-16.92,5.35-25.36.37-1.69.32-4.59,3.64-3.03,3.56,7.71,9.08,14.18,13.37,21.43,1.63,2.75,3.59,2.65,6.05,1.12,1.79-1.11,3.45-2.99,5.98-1.86,4.2-3.28,11.63-4.93,12.13-9.64.44-4.08-4.84-8.78-7.62-13.19-2.66-4.23-5.37-8.43-8.8-13.81,11.84,2.67,22.76,3.59,33.06,7.48,1.42,2.56.29,5.06-.24,7.55-1.65,7.78-3.78,15.47-4.29,23.45.78,3.64,2.88,6.61,4.88,9.63,10.43,15.79,21.18,31.37,31.21,47.42,1.49,2.39,3.2,4.65,3.26,7.64Z"/>
        <path class="cls-28" d="M331.46,611.59c24.99-20.79,49.98-41.59,75.01-62.33,1.71-1.42,3.21-3.56,5.98-3.02-5.99,15.36-11.98,30.72-17.96,46.07-3.27,3.39-7.72,4.12-11.95,5.34-7.71,2.23-15.58,3.92-23.01,7.04-4.33,13.32-7.46,26.95-10.94,40.49-.78,3.03.22,4.05,3.29,3.53,4.94-.83,9.99-.13,14.95-.88,1.98-.3,4.01-.5,5.6,1.21-1.22,3.22-2.44,6.45-3.66,9.67-4.55,3.08-9.92,4.16-14.97,5.98-11.13,4-22.32,7.81-33.53,11.58-1.89.64-5.43,2.78-4.19-2.26,5.1-20.81,9.36-41.83,15.39-62.42Z"/>
        <path class="cls-26" d="M309.78,699.93c16.62-6.93,33.49-13.14,50.73-18.35,13.72,15.6,28.07,30.66,40.77,47.15-1.77,2.01-4.18,2.3-6.6,2.31-23.66.12-47.32.21-70.99-.04-1-.01-2-.18-2.96-.45-2.33-.53-3.88-2.06-4.66-4.22-2.79-7.68-4.97-15.55-6.81-23.51-.23-.98.15-1.97.53-2.9Z"/>
        <path class="cls-27" d="M317.08,43.05c-5.42.17-9.98,3.02-14.6,5.23-36.68,17.58-73.26,35.39-109.86,53.12-.75,1.56-1.89,2.62-3.66,2.89-.56-.01-1.04-.21-1.45-.6,6.35-16.71,12.72-33.41,19.02-50.13.72-1.92,1.75-2.85,3.89-3.02,24.43-1.94,48.86-3.97,73.29-5.98,8.01-.66,16.02-1.4,24.04-1.92,3.1-.2,6.3-1.48,9.33.41Z"/>
        <path class="cls-29" d="M338.54,344.43c-10.46,6.1-22.07,9.46-33.16,14.07-2.17.9-4.87.98-5.45,4.01-1.9.37-2.65-1.1-3.59-2.25-7.53-12.1-15.21-24.11-22.84-36.14-.65-1.02-1.39-1.98-1.93-3.05-1.15-2.27-3.45-4.78-1.41-7.13,2.02-2.34,5.12-3.1,8.17-1.11,12.88-1.38,25.78-2.69,38.65-4.17,10.89-1.25,21.75-2.73,32.64-3.99.81-.09,1.72.76,2.59,1.17-4.56,12.87-9.11,25.74-13.67,38.61Z"/>
        <path class="cls-1" d="M236.07,97.78c.4-.02.79.01,1.18.11,1.52,16.92,3.1,33.84,4.52,50.77.64,7.58.95,15.19,1.41,22.78-1.92,1.87-4.12,1.12-6.23.57-20.98-5.45-41.84-11.33-62.84-16.67-1.55-.39-3.03-1.05-4.34-2.03-.41-.47-.82-.93-1.24-1.4-.43-.94.02-1.66.59-2.35,20.6-15.92,40.91-32.22,61.31-48.39,1.75-1.39,3.71-2.35,5.64-3.39Z"/>
        <path class="cls-26" d="M169.47,150.77c-.32.38-.64.77-.95,1.15-31.95,4.28-63.9,8.57-95.86,12.83-5.55.74-11.13,1.31-16.69,1.96-.44-.54-.45-1.08-.03-1.64,4.97-4.25,10.99-6.67,16.79-9.38,33.67-15.76,67.19-31.83,101.13-47.01,3.28-1.46,6.5-3.18,10.22-3.34.64.13,1.17.45,1.6.94,1.34,4.86-1.13,9.09-2.73,13.23-3.24,8.4-6.65,16.74-9.61,25.24-.81,2.33-2.44,4.11-3.87,6.03Z"/>
        <path class="cls-13" d="M169.76,153.31c10.45-.09,19.89,4.37,29.78,6.75,14.61,3.53,29.1,7.56,43.64,11.38,0,0,.03.1.03.1,2.5,2.5,2.47,5.87,2.89,9,.95,6.97.69,14.02,1.46,21.04,1.26,11.42-1.74,14.14-13.64,13.66-5-1.69-4.84-6.45-5.92-10.34-2.25-8.1-2.32-8.26-10.01-4.83-5.31,2.36-10.8,4.28-16.08,6.73-1.8.84-3.64,1.8-5.72.75-8.15-14.44-14.28-29.87-21.75-44.64-1.61-3.18-3.12-6.4-4.68-9.6Z"/>
        <path class="cls-28" d="M309.78,699.93c4.1,9.33,4.8,19.78,9.56,28.9,2.32,3.73,5.56,7.33,1.5,11.88-2.39,1.38-5.03,1.3-7.63,1.3-21.7.05-43.41.05-65.11,0-3.01,0-6.08.05-8.53-2.21-.05-2.86-.1-5.72-.15-8.58.14-1.62.29-3.23.43-4.85.21-.34.56-.65.62-1.01,1.86-10.38,1.92-10.08,12.15-12.31,19.1-4.17,38.12-8.72,57.17-13.11Z"/>
        <path class="cls-24" d="M128.5,329.67c2.15-5.58,7.94-6.47,12.26-8.75,23.6-12.48,47.47-24.45,71.29-36.52,3.12-1.58,3.85-3.58,2.71-6.84-3.04-8.71-5.58-17.61-8.93-26.2-1.71-4.37-.34-6.12,3.55-7.17,1.2-.16,2.39-.31,3.59-.47.28.09.56.19.84.28,4.86,6.99,7.67,15.06,11.75,22.46,2.71,7.16,6.48,13.81,9.79,20.68,1.33,2.76,2.58,5.57.11,8.41-12.12,6.36-24.13,12.99-37.62,16.17-.67-.44.13.04-.58-.11-2.95-.61-2.9-5.61-6.2-4.81-4.04.97-7.55,3.52-11.29,5.38-3.94,1.97-.2,5.58-1.79,8.03-6.23,2.69-12.84,4.77-18.62,8.22-8.58,5.13-17.27,3.52-26.15,2.18-1.58-.24-3.14-.62-4.71-.94Z"/>
        <path class="cls-21" d="M353.16,502.73c-.35-.43-.69-.86-1.04-1.29-.45-.4-.99-.77-1.23-1.31-6.7-14.86-12.31-30.15-17.72-45.51-.53-1.5-.57-3.22,1.04-4.37,5.27-1.31,10.4.27,15.54.87,9.77,1.13,19.6,1.88,29.21,4.22,1.41.47,2.2,1.64,3.09,2.71,3.7,10.1,7.41,20.21,11.11,30.31,0,2.32-1.88,3.05-3.5,3.62-10.78,3.78-21.14,8.85-32.47,10.99-1.37.26-2.74.76-4.03-.23Z"/>
        <path class="cls-27" d="M184.03,105.88c-20.05,9.33-40.12,18.62-60.15,27.99-21.13,9.89-42.23,19.86-63.35,29.78-1.45.68-2.96,1.2-4.45,1.8-.56.46-1.07.42-1.55-.12,14.91-14.04,29.79-28.1,44.74-42.09,4.83-4.52,9.83-8.84,14.76-13.26,17.69-4.16,35.87-3.89,53.79-5.92,5.09-.58,10.3-2.46,15.44-.02.69.44.94,1.05.77,1.85Z"/>
        <path class="cls-8" d="M395.69,154.6c2.72-.35,5.44-.7,8.16-1.04-2.12,3.8-1.15,7.86-.84,11.8,1,12.56,2.22,25.09,3.27,37.64.53,6.38.88,12.78,1.31,19.17-14.22-.03-28.09,3.82-42.31,3.76-2.91-3.39-2.46-7.5-2.43-11.51,3.04-5.11,3.08-11.42,6.47-16.41,1.34-1.16,2.94-.96,4.52-.86,3.72.22,6.92-.88,7.98-4.7,1.07-3.87-1.25-6.36-4.54-8.05-.88-.45-1.75-.93-2.44-1.68-1.04-3.55,1.6-5.57,3.42-7.83,4.9-6.1,10.13-11.93,14.56-18.4.78-.89,1.84-1.36,2.87-1.89Z"/>
        <path class="cls-8" d="M419.63,380.73c-.07-.89-.15-1.77-.22-2.66,2.21-9.78,4.48-19.55,6.6-29.35.69-3.19,2.22-5.28,5.32-6.63,11.55-5.03,22.08-12.26,34.24-16.02,1.74.45,2.75,1.76,3.27,3.29,3.1,9.12,7.82,17.64,9.96,27.11-.02,7.78,0,15.56-.07,23.34-.02,1.95.48,4.03-1.02,5.73-3.26-3.22-1.9-7.38-2.28-11.19-.37-3.73.74-7.46.05-11.17-2.3-2.57-4.49-.38-6.45.4-13.77,5.47-27.68,10.6-41.39,16.23-2.54,1.04-5.12,2.56-8,.91Z"/>
        <path class="cls-28" d="M412.45,540.25c-.24,2-1.23,3.15-3.33,3.59-14.53,3.09-29.02,6.44-43.76,8.42-2.17-1.84-2.44-4.48-2.8-7.01-.99-6.87-1.75-13.77-2.44-20.67-.22-2.23-.16-4.37,1.48-6.14,14.05-1.35,28.14-1.28,42.23-1.28,2.87,7.7,5.75,15.39,8.62,23.09Z"/>
        <path class="cls-29" d="M382.04,458.05l-2.36-1.07c-6-15.09-11.52-30.35-17.18-45.56-.8-2.16-2.31-4.36-.85-6.86,10.92-5.77,22.78-9.28,34.05-14.21.48.61.88,1.27,1.18,1.98,1.1,11.82,1.98,23.64-1.22,35.32-3.69,7.74-7.42,15.47-11.06,23.24-.92,1.95-2.46,3.7-2.26,6.08-.03.38-.13.73-.3,1.07Z"/>
        <path class="cls-7" d="M184.04,105c-12.78.13-25.41,2.16-38.11,3.2-9.93.81-19.84,1.83-29.76,2.67-.68.06-1.42-.58-2.13-.9,12.22-11.27,24.47-22.51,36.63-33.85,2.02-1.88,3.45-2.78,5.9-.38,9.57,9.4,19.33,18.6,29.02,27.87-.21.8-.72,1.26-1.53,1.39Z"/>
        <path class="cls-8" d="M196.19,207.55c9.12-3.96,18.3-7.78,27.32-11.95,3.22-1.49,4.07-.32,4.76,2.52,1.27,5.21,2.76,10.37,4.16,15.56,5.13,8.19,7.39,17.08,6.63,26.74-.84,1.2-2.01,1.95-3.36,2.44-7.52.89-14.96,3.27-22.66,1.42,0,0-.06-.56-.06-.56-5.6-12.06-11.19-24.12-16.79-36.18Z"/>
        <path class="cls-29" d="M419.63,380.73c17.48-6.81,34.94-13.67,52.46-20.38,1.59-.61,3.35-2.81,5.29-.42-4.73,15.39-13.08,28.93-21.6,42.38-.39.42-.78.84-1.17,1.26-8.52-2.44-14.69-8.86-22.05-13.26-4.57-2.73-9.66-5.01-12.94-9.59Z"/>
        <path class="cls-21" d="M177.98,320.22q-3.54-7.34,3.94-11.07c.72-.36,1.43-.71,2.15-1.07q8.2-4.08,13.62,2.51c2.82,2.49,4.15,5.91,5.49,9.25,2.84,7.12,6.68,13.75,9.91,20.68,1.06,2.28,2.94,4.49,1.46,7.32-5.37,4.72-12.12,6.85-18.45,9.76-6.04-12.47-12.08-24.93-18.12-37.4Z"/>
        <path class="cls-7" d="M372.43,649.04c-7.63,2.08-15.63.22-23.28,2.22-3.02.79-4-.56-3.22-3.55,3.93-14.91,7.25-29.98,12.06-44.65,4.42,1.17,6.7,5.02,9.6,7.96,4.91,4.98,10.01,9.86,13.24,16.24-2.29,7.46-5.13,14.7-8.4,21.78Z"/>
        <path class="cls-25" d="M321.64,739.64c-.4-3.68-2.79-6.95-2.3-10.82,27.31-.03,54.63-.06,81.94-.09.34,1.3.69,2.61,1.03,3.92-.2,2.37.96,4.92-.99,7.05-.54.24-1.03.57-1.68.58-25.45.05-50.91.05-76.36,0-.66,0-1.12-.37-1.65-.63Z"/>
        <path class="cls-21" d="M478.79,356.49c-4.09-4.34-4.93-10.23-7.24-15.4-2.2-4.91-4.01-10-5.99-15-2.74-8.63-7.57-16.58-8.42-25.83,6.37,3.29,12.74,6.6,19.12,9.86,1.92.98,3.77,2.33,6.14,1.79,2.72,6.87,4.53,14.11,8.6,20.41-5.99,7.09-8.17,16.11-12.22,24.18Z"/>
        <path class="cls-6" d="M232.22,574.02c-12.81-19.29-25.65-38.56-38.38-57.89-1.18-1.79-1.69-4.01-2.51-6.03,2.75-3.48,6.35-4.59,10.63-3.79,5.79,9.32,11.58,18.64,17.37,27.96,6.06,10.06,12.12,20.12,18.18,30.19-1.76,3.19-3.53,6.38-5.29,9.58Z"/>
        <path class="cls-17" d="M380.83,627.26c-8.27-7.44-15.12-16.23-22.84-24.19,11.91-4.44,24.34-7.13,36.5-10.75-4.15,11.81-8.59,23.5-13.65,34.95Z"/>
        <path class="cls-24" d="M501.73,304.28l19.47-7.89c1.33,1.23,1.44,2.86,1.16,4.44-1.21,6.88-1.44,13.92-3.58,20.63-6.34,2.71-12.47,6-19.33,7.34-1.04-.76-1.69-1.88-1.59-3.06.59-7.27.37-14.71,3.88-21.46Z"/>
        <path class="cls-24" d="M554.9,306.86c-6.4,2.49-12.51,5.72-19.21,7.43-1.05-.75-1.59-1.89-1.44-3.07.88-7.18.99-14.51,3.62-21.4,6.28-3.26,12.88-5.74,19.53-8.11.96.9,1.32,2.11,1.06,3.29-1.56,7.22-.96,14.8-3.57,21.85Z"/>
        <path class="cls-13" d="M537.87,289.82c1.3,6.55-.89,12.8-1.63,19.17-.21,1.76-.37,3.53-.55,5.3-5.21,3.41-11.14,5.1-16.92,7.17-2.16-7,1.34-13.55,1.64-20.36.07-1.58.51-3.15.79-4.72,5.56-2.19,11.11-4.37,16.67-6.56Z"/>
        <path class="cls-18" d="M353.16,502.73c13.7-3.77,26.9-8.93,40-14.38,2.48,5.36,4.64,10.83,6.12,16.56-3.34,2.75-7.33,1.6-10.89,1.3-10.86-.92-21.69-2.07-32.59-2.36-.89-.02-1.76-.73-2.64-1.11Z"/>
        <path class="cls-13" d="M554.9,306.86c-1.65-7.39.71-14.45,1.78-21.62.18-1.18.48-2.35.73-3.52,5.65-2.05,10.82-5.35,16.84-6.41,1.34,9.07,1.4,17.91-4.8,25.56-4.85,2-9.69,3.99-14.54,5.99Z"/>
        <path class="cls-24" d="M569.44,300.87c2.19-6.21,3.16-12.66,3.56-19.19.14-2.21.22-4.36,1.24-6.37,4.77-2.87,10.01-4.55,16.22-6.81-1.41,8.55-2.7,16.17-3.91,23.79-.31,1.93-1.73,2.55-3.23,3.14-4.62,1.83-9.26,3.63-13.89,5.44Z"/>
        <path class="cls-13" d="M501.73,304.28c.79,8.32-2.42,16.26-2.29,24.52-2.58,1.73-5.33,3.03-8.43,3.51-6.88-5.11-8.43-12.47-8.6-20.41,6.44-2.54,12.88-5.09,19.32-7.63Z"/>
        <path class="cls-21" d="M201.96,506.3c-3.54,1.26-7.08,2.53-10.63,3.79-1.15-5.63,1.36-10.76,2.19-16.13.83-5.33,2.02-10.56,3.87-15.64q11.51,4.09,8.36,15.43c-1.18,4.21-2.53,8.37-3.8,12.55Z"/>
        <path class="cls-21" d="M168.61,507.48q-10.02,6.52-16.76-3.56c-2.67-3.99-5.43-7.91-7.98-11.97-.95-1.51-3.02-3.13-.65-5.17,8.28-1.43,13.92,1.73,17.67,9.32,2.01,4.07,5.12,7.6,7.73,11.38Z"/>
        <path class="cls-10" d="M455.79,402.31c5.98-14.75,14.28-28.32,21.6-42.38.1,8.54.21,17.08.32,25.62-6.86,6.17-14.13,11.8-21.92,16.76Z"/>
        <path class="cls-11" d="M171.1,258.18c-4.54,6.31-11.97,7.26-18.44,9.98q-3.7-7.13,3.03-10.62c2.13-1.1,4.56-1.75,6.46-3.14,5.29-3.87,7.67-1.53,8.95,3.77Z"/>
        <path class="cls-5" d="M184.04,105c.51-.46,1.02-.93,1.53-1.39.65.02,1.29.05,1.94.08.46,0,.93.01,1.39.02.02,2.69-1.5,3.08-3.69,2.49-.39-.11-.79-.21-1.18-.32,0-.29,0-.58,0-.88Z"/>
        <path class="cls-19" d="M54.53,165.33c.52.04,1.03.08,1.55.12-.04.42-.07.83-.11,1.25-.84.96-2.17,1.34-2.89.52-.52-.59.52-1.55,1.45-1.9Z"/>
        <path class="cls-14" d="M235.86,241.45c.83-.38,1.66-.75,2.49-1.13,9.99-3.58,20.19-5.11,30.75-3.24.26.26.51.53.76.79,1.39,12.09,2.83,24.17,4.14,36.26,1.4,12.89,3.9,25.66,4.33,38.66-2.52.55-5.04,1.09-8.33,1.81,9.4,15.35,18.55,30.28,27.69,45.21-2.9,1.35-4.36-1.16-6.11-2.48-13.3-9.94-26.57-19.92-39.87-29.85-.48-.33-.91-.72-1.31-1.14-5.6-10.39-10.42-21.16-15.56-31.78,1.69-2.27.12-4.11-.79-6.04-3.37-7.19-6.74-14.38-10.11-21.58,1.04-5.46,4.37-9.85,6.89-14.61,1.88-3.55,4.28-6.83,5.03-10.9Z"/>
        <path class="cls-4" d="M364.09,213.66c.5,4.08,1.59,8.1,1.19,12.26-.41.38-.81.75-1.22,1.13-9.17,3.73-18.8,4.33-28.53,4.17-1.74-.34-3.44-.87-5.16-1.32-.97-.59-1.44-1.5-1.68-2.57-.2-2.72-.38-5.46-1.29-8.07-2.27-13.39-3.22-26.94-4.7-40.43-.29-5.16-3.4-10.34.04-15.49,4.44-7.66,9.2-15.16,13.21-23.03,2.47-4.84,4.16-3.33,6.72-.43,5.46,6.17,11.05,12.22,16.59,18.32,3.94,5.05,3.14,11.01,3.23,16.8,1.61,9.7,2.12,19.53,3.13,29.29.33,3.24-.07,6.4-1.53,9.36Z"/>
        <path class="cls-8" d="M330.1,229.44l5.1.13c-.4,2.59-2.05,1.72-3.55,1.29-8.86-.51-17.47,1.7-26.23,2.39-10.94.86-21.83,2.37-32.74,3.65-.97.11-1.89.64-2.83.97,0,0,0,.02,0,.02-2.55-1.78-3.13-4.49-3.51-7.32-2.41-17.65-4.4-35.35-6.68-53.01-.34-2.63-.31-5.22,1.7-7.33.39-.03.78-.03,1.16,0,2.33.47,4.64.89,6.81,2.03,9.38,4.93,18.78,9.82,28.02,15.01,1.66.94,4.09,1.92,3.75,4.19-.38,2.49-3.06,1.98-4.92,2.39-3.27.42-6.64-.67-9.93.73,7.71,3.42,16.36,1.85,24.14,4.7,7.98,9.13,14.94,18.93,19.72,30.16Z"/>
        <path class="cls-29" d="M361.77,273.3c-18.03-2.32-35.48-4.58-52.93-6.81-5.35-.69-10.7-1.45-16.08-1.95-2.98-.28-5.25-.99-4.77-4.59.52-3.92,3.13-1.89,5.05-1.65,22.61,2.88,45.22,5.79,67.83,8.63,2.29.29,4.54.17,4.35,3.49-.16,2.79-1.57,3.45-3.45,2.88Z"/>
        <path class="cls-29" d="M331.65,230.87c1.18-.43,2.36-.86,3.55-1.3,9.62-.84,19.24-1.68,28.87-2.52-3.03,4.49-7.44,7.65-11.08,11.56-1.91,2.06-4.07,2.19-6.45.82-4.95-2.87-9.92-5.7-14.89-8.55Z"/>
        <path class="cls-13" d="M343.15,104.41c15.15-1.49,29.09-2.85,43.02-4.22,7.4-.73,14.81-1.34,22.18-2.24,3.42-.42,5.07.13,5.33,4.15.62,9.22,1.62,18.42,2.86,27.58.46,3.36-.16,4.79-3.67,5.12-12.8,1.19-25.59,2.57-38.38,3.89-2.08.21-3.85.03-5.34-1.85-8.36-10.54-16.82-21-26-32.43Z"/>
        <path class="cls-13" d="M329.07,106.18c-6.84,12.88-13.18,24.69-19.39,36.57-1.26,2.41-3.38,2.67-5.55,2.87-12.78,1.19-25.57,2.28-38.35,3.5-2.17.21-3.53-.26-3.75-2.62-.96-10.19-1.9-20.38-2.88-30.57-.25-2.59,1.6-3.02,3.42-3.21,21.73-2.17,43.46-4.29,66.51-6.55Z"/>
        <path class="cls-10" d="M261.36,170.24c2.08,22.65,4.85,45.21,8.5,67.66-10.6-.46-20.91,2.89-31.51,2.42-.8-9.14-4.28-17.69-5.92-26.65,16.26-1.88,13.57,1.41,12.71-15.13-.46-9.01-1.27-18-1.93-27,6.05-.43,12.1-.87,18.14-1.3Z"/>
        <path class="cls-10" d="M296.24,192.13c1.18-.14,2.36-.28,4.97-.58-13.59-7.49-26.14-14.41-38.69-21.33,1.23-.37,2.46-.74,3.69-1.1,5.35,1.9,11.05,1.55,16.56,2.53,13.84,2.44,27.74,4.59,41.6,6.98,1.13,9.2,2.31,18.39,3.39,27.59.53,4.52.89,9.06,1.33,13.6,1.33,2.29-.33,5.03,1.08,7.31-.02.77-.04,1.54-.06,2.31-6.89-9.26-13.41-18.77-19.27-28.72-.8-4.36-3.87-5.36-7.76-5.67-2.48-.2-5.77.86-6.83-2.92Z"/>
        <path class="cls-13" d="M324.37,178.63c-.68,2.92-2.82,1.54-4.33,1.29-16.68-2.78-33.35-5.68-50.03-8.45-1.69-.28-3.09-.66-3.8-2.34,18.84-1.93,37.69-3.85,56.53-5.78.54,5.09,1.09,10.19,1.63,15.28Z"/>
        <path class="cls-3" d="M360.6,174.94c-.45-5.58-.9-11.15-1.34-16.73,12.14-1.2,24.29-2.41,36.43-3.61-.52.7-1.04,1.39-1.56,2.09-8.42,8.49-18.97,13.95-28.9,20.27-2.33,1.49-4.17,1.14-4.62-2.03Z"/>
        <path class="cls-12" d="M251.54,326.04c9.95,5.54,18.3,13.31,27.53,19.84,6.33,4.47,12.42,9.28,18.62,13.94.75.89,1.5,1.79,2.24,2.68,6.91,18.56,13.82,37.13,20.72,55.69.58,1.02.64,1.99-.24,2.89-10,3.81-20.72,4.14-31.07,6.23-4.79.97-9.67,2.92-14.73,1.01-2.11-1.89-2.37-4.57-2.95-7.09-6.55-28.4-12.86-56.85-19.57-85.2-.77-3.25-2.21-6.56-.55-9.98Z"/>
        <path class="cls-20" d="M320.45,420.28c.07-.7.13-1.39.2-2.09,3.44,1.85,6.16-.54,8.99-1.68,10.57-4.26,20.95-8.99,32.01-11.95,6.23,16.22,12.46,32.45,18.71,48.67.55,1.42.74,2.71-.67,3.74-15.26-1.97-30.51-3.94-45.77-5.9-.62.25-1.21.2-1.78-.15-5.51-9.59-9.56-19.75-11.68-30.65Z"/>
        <path class="cls-21" d="M332.64,396.95c-2.41.23-2.83-1.3-3.22-2.58-.82-2.64.99-3.46,3.05-4.22,8.47-3.16,16.91-6.42,25.35-9.65,2.06-.79,4.13-1.57,6.17-2.41,1.75-.71,2.64.21,3.24,1.66.51,1.24,1.69,2.77-.3,3.58-11.55,4.66-23.14,9.21-34.29,13.63Z"/>
        <path class="cls-21" d="M363.76,370.81c.29,1.97-1.02,2.65-2.33,3.16-10.44,4.05-20.91,8.05-31.36,12.09-2.03.79-3.61.41-4.38-1.69-.76-2.05.14-3.53,2.12-4.29,10.64-4.11,21.27-8.24,31.93-12.27,2.78-1.05,3.35,1.24,4.01,2.99Z"/>
        <path class="cls-21" d="M324.85,376.29c-1.91.38-2.65-.7-3.05-2.22-.35-1.34-1.03-2.82.89-3.55,11.22-4.27,22.42-8.59,33.7-12.72,1.82-.67,2.89.94,3.46,2.58.49,1.4-.16,2.42-1.39,2.9-11.19,4.37-22.4,8.68-33.61,13.01Z"/>
        <path class="cls-1" d="M321.64,739.64c26.56.02,53.13.04,79.69.05-1.91,1.7-4.23.93-6.35.94-22.1.06-44.19.16-66.29-.06-4.93-.05-7.82.77-6.88,6.48.61,3.66-1.08,4.83-4.75,4.81-24.31-.13-48.61-.13-72.92,0-3.66.02-5.18-1.16-4.82-4.84.23-2.39.17-4.81.24-7.22,27.36-.05,54.71-.1,82.07-.15Z"/>
        <path class="cls-7" d="M185.22,106.2c1.23-.83,2.46-1.66,3.69-2.49,1.24-.77,2.47-1.54,3.71-2.31,4.04,3.2,8.47,1.04,12.61.6,10.31-1.11,20.57-2.78,30.84-4.22-5.88,6.96-13.56,11.8-20.61,17.35-15.24,11.99-29.91,24.72-45.98,35.64,4.18-15.24,11.8-29.25,15.74-44.57Z"/>
        <path class="cls-27" d="M251.54,326.04c3.91,16.31,7.9,32.59,11.71,48.92,3.81,16.34,7.46,32.72,11.13,49.09.26,1.16.19,2.39.28,3.59-5.1,4.11-10.66,5.27-16.81,2.65-2.65.18-3.9-1.43-4.93-3.61-11.79-24.92-23.64-49.81-35.41-74.74-.58-1.23-.62-2.71-.91-4.07-.29-2.54,1.75-3.49,3.34-4.53,8.56-5.61,17.38-10.82,25.92-16.47,1.7-1.13,3.54-1.96,5.66-1.03v.2Z"/>
        <path class="cls-8" d="M257.85,430.29c5.6-.88,11.21-1.77,16.81-2.65,15.26-2.45,30.53-4.91,45.79-7.36,5.11,9.77,8.31,20.31,12.24,30.56.16,2.91-2.3,3.55-4.14,4.47-14.84,7.37-29.4,15.3-44.21,22.75-2.18,1.1-4.39,3.08-7.18,1.37-7.29-16-14.58-32.01-21.86-48.01.85-.37,1.7-.74,2.55-1.11Z"/>
        <path class="cls-28" d="M339.99,553.51c-.03,2.7-.89,4.32-4,4.89-16.85,3.07-33.65,6.38-50.47,9.61-1.59-15.31-3.18-30.61-4.77-45.92,18.48-.81,36.97-1.61,55.45-2.42,2.16,2.07,2.74,4.82,3.01,7.6.62,6.54,1.54,13.03,2.27,19.55.26,2.37.54,4.8-1.48,6.69Z"/>
        <path class="cls-18" d="M277.16,479.42c18.71-9.14,37.32-18.47,55.53-28.58.41.08.82.16,1.22.24,5.25,14.11,10.53,28.22,15.74,42.35.97,2.62,1.65,5.35,2.46,8.03-6.09-1.28-10.31-5.93-15.58-8.71-4.59-2.42-8.93-5.33-13.37-8.03-2.6-1.57-5.19-1.26-8.07-.58-26.83,6.3-53.68,12.45-80.55,18.56-1.4.32-2.92,1.8-4.45.19,15.7-7.82,31.39-15.64,47.08-23.46Z"/>
        <path class="cls-1" d="M339.99,553.51c-1.26-11.28-2.53-22.56-3.79-33.85,8.47-.21,16.88-1.94,25.4-1.22,1.25,11.27,2.51,22.55,3.76,33.82-6.89,1.55-13.81,3-20.68,4.68-3.17.77-3.36-1.99-4.69-3.44Z"/>
        <path class="cls-1" d="M395.55,391.16c4.79,2.2,9.58,4.39,14.37,6.59-3.93,10.36-8.63,20.35-14.26,29.9-.03-12.16-.07-24.33-.11-36.49Z"/>
        <path class="cls-29" d="M235.86,241.45c2.11.29,1.97,1.48,1.17,2.94-4.21,7.61-7.74,15.62-13.09,22.57-3.63-7.56-7.26-15.11-10.9-22.67,7.48-1.94,15.15-2.43,22.82-2.83Z"/>
        <path class="cls-10" d="M360.6,174.94c1.84,3.5,3.68.74,5.18-.2,9.5-5.94,18.9-12.01,28.34-18.04-2.88,6.65-8.59,11.22-12.58,17.06-2,2.92-4.37,5.59-6.57,8.37-5.69,4.03-6.62,9.52-4.88,15.84-1.83,5.3-1.54,11.41-6.01,15.69-1.16-12.91-2.33-25.82-3.49-38.72Z"/>
        <path class="cls-9" d="M370.1,197.97c-5.36-8.03-3.98-12.51,4.88-15.84,7.21,1.65,10.45,5.64,8.87,10.94-1.67,5.61-6.38,7.29-13.75,4.91Z"/>
        <path class="cls-15" d="M207.09,213.41c11.88-5.31,11.97-5.34,15.61,5.7.9,2.73,4.05,6.67,1.75,8.1-2.86,1.78-4.75-2.95-7.08-4.79-3.4-2.68-6.53-5.7-10.28-9.01Z"/>
        <path class="cls-8" d="M330.16,227.13c-1.88-2.21-.96-4.84-1.08-7.31,1.93,2.21.88,4.85,1.08,7.31Z"/>
        <path class="cls-23" d="M296.24,192.13c3.57,1.81,7.5.91,11.24,1.47,4.95.73,6.18,2.88,3.35,7.11-7.94-.9-15.87-1.89-23.83-2.66-2.87-.28-4.42-1.04-4.02-4.38.4-3.33,2.29-2.34,4.28-2.11,2.98.34,5.98.39,8.98.56Z"/>
      </g>
    </g>
  </g>
</svg>