<?xml version="1.0" encoding="UTF-8"?>
<svg xmlns="http://www.w3.org/2000/svg" version="1.1" viewBox="0 0 636.44 799">
  <defs>
    <style>
      .cls-1 {
        fill: #81641f;
      }

      .cls-2 {
        fill: #c7ab3d;
      }

      .cls-3 {
        fill: #efd470;
      }

      .cls-4 {
        fill: #b78f2f;
      }

      .cls-5 {
        fill: #474746;
      }

      .cls-6 {
        fill: #e2c9b7;
      }

      .cls-7 {
        fill: #987726;
      }

      .cls-8 {
        fill: #b88f30;
      }

      .cls-9 {
        fill: #a89154;
      }

      .cls-10 {
        fill: #773211;
      }

      .cls-11 {
        fill: #ae892d;
      }

      .cls-12 {
        fill: #856854;
      }

      .cls-13 {
        fill: #bc987e;
      }

      .cls-14 {
        fill: #d9bca6;
      }

      .cls-15 {
        fill: #bd5522;
      }

      .cls-16 {
        fill: #2d2c2c;
      }

      .cls-17 {
        fill: #bc977e;
      }

      .cls-18 {
        fill: #ebe2ce;
      }

      .cls-19 {
        fill: #987626;
      }

      .cls-20 {
        fill: #9d461a;
      }

      .cls-21 {
        fill: #a5854f;
      }

      .cls-22 {
        fill: #816420;
      }

      .cls-23 {
        fill: #dfc54d;
      }

      .cls-24 {
        fill: #464646;
      }

      .cls-25 {
        fill: #866855;
      }

      .cls-26 {
        fill: #bd997f;
      }

      .cls-27 {
        fill: #5a5957;
      }

      .cls-28 {
        fill: #f6edd8;
      }

      .cls-29 {
        fill: #977625;
      }

      .cls-30 {
        fill: #bc977d;
      }

      .cls-31 {
        fill: #80631f;
      }

      .cls-32 {
        fill: #bb977d;
      }

      .cls-33 {
        fill: #bd987f;
      }

      .cls-34 {
        fill: #ded5c2;
      }

      .cls-35 {
        fill: #c6aa3d;
      }

      .cls-36 {
        fill: #8f8e8e;
      }

      .cls-37 {
        fill: #af8a2e;
      }

      .cls-38 {
        fill: #917333;
      }

      .cls-39 {
        fill: #2d2d2c;
      }

      .cls-40 {
        fill: #715719;
      }

      .cls-41 {
        fill: #f29e39;
      }

      .cls-42 {
        fill: #de8932;
      }

      .cls-43 {
        fill: #c7ab3e;
      }

      .cls-44 {
        fill: #856753;
      }

      .cls-45 {
        fill: #856755;
      }

      .cls-46 {
        fill: #b78e2f;
      }

      .cls-47 {
        fill: #80631e;
      }

      .cls-48 {
        fill: #856754;
      }
    </style>
  </defs>
  <!-- Generator: Adobe Illustrator 28.7.1, SVG Export Plug-In . SVG Version: 1.2.0 Build 142)  -->
  <g>
    <g id="Layer_1">
      <g id="Layer_1-2" data-name="Layer_1">
        <g>
          <path class="cls-23" d="M219.76,593.45c-15.78,3.42-31.58,6.76-47.33,10.3-4.62,1.04-8.85,1.15-13.53-.53-26.46-9.55-53.05-18.82-79.64-28.02-3.2-1.11-5.19-2.95-6.92-5.71-13.06-20.88-26.21-41.71-39.38-62.52-1.49-2.36-2.25-4.37-1.11-7.33,9.61-25.05,19.09-50.16,28.39-75.33,1.43-3.88,3.47-5.31,7.57-5.89,28.27-4.08,56.49-8.41,84.7-12.86,5.68-.9,9.05-.09,10.12,6.53,1.23,7.63,3.58,15.08,5.43,22.61,3.06,1.73,3.58,4.88,4.24,7.86,2.74,12.24,6.65,24.18,9.22,36.47.62,2.92.9,6.18,3.78,8.12,14.38,3.09,28.67,6.67,43.47,7.3,3.53,1.99,7.52,2.57,11.36,3.57,4.78,1.24,7.85,4.14,8.34,9.15,2.3,23.78,4.69,47.56,6.86,71.35.16,1.76-.04,3.54-.6,5.25-.82,2.24-2.49,3.74-4.69,4.33-8.95,2.4-17.89,4.88-27.09,6.13-1.11.15-2.18-.22-3.18-.75h-.01Z"/>
          <path class="cls-47" d="M253.41,584c-2.36-25.61-4.78-51.22-7.01-76.84-.41-4.59-2.59-6.28-6.93-7.31-4.11-.98-9.8,1.05-11.96-4.9-3.01-3.66-1.97-7.91-1.62-12,.96-10.92,1.57-21.86,2.54-32.77-.16-.79-.18-1.59-.09-2.39.65-6.08-1.96-12.52,1.88-18.28,3.65-.79,3.11,2.23,3.38,4.08.52,3.47.26,7-.13,10.72,10.02-7.77,18.83-16.7,29.04-23.96,35.26-1.39,70.43-4.3,105.7-5.53,5.74-.2,10.44-1.77,12.42-7.81,3.61-1.24,3.47,1.81,3.58,3.61.29,4.83,3.13,7.95,6.18,11.24,6.57,7.07,14.37,12.9,20.46,20.43.62,14.16.1,28.32.28,42.49.03,2.17-.04,3.85-3.15,3.62-6.95-.51-6.96-.36-9.21,7.14,12.53-.04,11.4,9.76,12.8,17.82.04,18.24.07,36.49.12,54.74-.96,3.16-3.79,4.2-6.34,5.44-25.82,12.72-51.97,24.8-77.78,37.56-4.41,2.18-8.72,2.6-13.44.83-18.87-7.09-37.41-15.03-56.02-22.74-2.33-.96-4.24-2.44-4.69-5.18h0Z"/>
          <path class="cls-46" d="M253.41,584c5.11,4.6,11.84,5.87,17.91,8.39,14.49,6.02,28.88,12.3,43.63,17.69,4.56,1.67,8.02,1.02,11.88-.83,10.16-4.89,20.36-9.71,30.5-14.65,18.13-8.81,36.23-17.68,54.34-26.53,5.82,23.08,11.68,46.16,17.43,69.25,1.97,7.91,3.69,15.88,5.52,23.83.53,1.06.53,2.11.06,3.19-7.53,5-16.39,6.41-24.77,8.95-16.29,4.94-32.58,9.92-48.95,14.6-4.38,1.25-8.82,3.33-13.5.9-1.45-1.11-2.42-2.62-3.05-4.27-8.02-21.05-15.72-42.21-23.34-62.5-.92,18.72-3.51,38.24-4.61,57.87-.16,2.9-.72,5.75-3.48,7.53-3.31.96-6.66.56-9.91-.04-27.26-5.05-54.71-9.07-81.83-14.89-3.47-.75-8.8-.72-7-7.12,1.84-23.98,3.67-47.94,5.5-71.92,9.08-2.22,18.15-4.54,27.26-6.6,2.39-.54,4.71-.89,6.38-2.85h.01Z"/>
          <path class="cls-14" d="M419.83,158.5c4.95,20.89,9.86,41.79,14.86,62.67,4.22,17.66,8.39,35.32,12.86,52.92,1.23,4.83.13,7-4.73,8.68-21.17,7.28-42.18,14.99-63.25,22.54-3.12,3.43-7.43,4.52-11.59,5.86-9.38,3.03-18.31,7.48-28.13,9.16-5.16-.02-6.43-4.09-7.82-7.78-9.28-24.44-18.47-48.9-27.63-73.37-8.78-23.44-17.73-46.81-26.38-70.29-1.13-3.05-2.96-6.08-1.17-9.53,2.22-2.5,5.37-3,8.34-3.82,39.78-10.92,79.69-21.32,119.46-32.25,1.92-.53,3.86-1.06,5.89-.5,4.13,2.06,3.82,6.39,5.05,9.94.78,2.23.77,4.68,1.73,6.86.92,6.3,4.21,12.28,2.54,18.93h-.02Z"/>
          <path class="cls-17" d="M277.21,159.96c8.24,22.24,16.43,44.49,24.72,66.7,10.32,27.63,20.64,55.24,31.2,82.78,1.35,3.51.86,8.9,6.77,9.31-2.28,5.46-8.55,3.44-12.44,6.94,9.93,4.06,19.87,7.85,29.69,11.91,2.99,1.24,6.45,2.04,7.22,6.02-.79,3.37-3.8,4.79-6.13,6.71-14.52,11.97-28.52,24.54-43.11,36.41-5.09,4.14-6.67,4.02-9.84-1.42-8.04-13.77-15.79-27.7-24.05-41.35-1.05-1.73-1.81-3.55-1.57-5.66-2.63-4.78-5.24-9.56-7.87-14.35.47-3.96,3.17-6.73,5.31-9.77,7.08-10.12,14.17-20.24,20.42-30.88.26-2.88-1.37-5.08-2.68-7.39-4.94-8.68-10.16-17.21-15.12-25.88-1.68-2.94-3.82-4.77-7.01-5.55-5.63-6.89-9.49-14.69-12.01-23.2,3-3.79,7.65-5.16,11.52-7.66,6.5-4.23,6.6-4.22,3.06-10.86-5.33-9.99-11.14-19.71-16.72-29.56-1.38-2.44-3.58-4.63-3.07-7.86,6.49-4.81,13.39-8.01,21.71-5.4h-.01Z"/>
          <path class="cls-24" d="M279.67,338.32c9.63,14.33,17.74,29.55,26.29,44.5,2.55,4.46,3.63,6.69,8.99,1.9,15.8-14.13,32.41-27.36,48.71-40.94.99-.68,2.03-.56,3.07-.14,6.14,2,12.28,3.98,18.41,5.98,2.02,2.59,2.58,5.59,2.23,8.76-1.51,13.84-1.26,27.78-2.56,41.62-.22,2.41-.29,4.91-2.53,6.54-2.79,9.85-3.55,10.55-14.54,10.69-29.45.36-58.73,4.15-88.21,4.27-6.08.02-12.17,2.82-18.21-.27-4.43-5.28-3.04-11.92-3.5-17.86-1.11-14.59-1.85-29.23-2.99-43.82-.31-3.92-.76-8.06,2.17-11.47,7.28-3.89,14.97-6.85,22.66-9.77h0Z"/>
          <path class="cls-34" d="M533.09,784.18c-23.35,1.73-46.7,3.51-70.06,5.19-14.34,1.02-28.68,1.79-43.01,2.87-21.59,1.62-43.13,3.75-64.73,5.02-23.3,1.37-46.59,3.36-69.98-.53-14.99-2.5-30.32-2.99-45.48-4.54-19.32-1.97-38.62-4.13-57.93-6.15-10.76-1.12-21.53-2.1-32.3-3.16-9.83-.97-19.66-1.95-29.51-3.42,6.8-.63,13.57-1.25,20.31-1.71,20.08-1.39,40.29-1.26,60.3-3.22,9.45-.93,19.11.64,28.35-2.37,1.17,4.61-3.35,6.21-5.31,9.71,16.44.34,32.54-.21,48.61.36.68-.02,1.37-.01,2.04,0,1.3.03,2.62-.12,3.92-.15,5.46-.15,8.18-2.97,8.17-8.48,0-2.02.1-3.95,1.87-5.34,2.09-1.4,4.42-2.07,6.89-2.23,19.63-1.28,39.27-2.07,58.88.33,10.5,1.28,21.22.6,31.59,3.22,3.46,1.7,3.35,5.84,5.72,8.28,1.83,1.54,3.97,1.73,6.23,1.72,22.3-.14,44.6.21,66.87-.2,1.18-.32,2.37-.67,3.13-1.78,18.55.2,36.98,2.21,55.44,3.75,3.31.28,6.64.15,9.97.21.8.88.8,1.75,0,2.63v-.02Z"/>
          <path class="cls-47" d="M256.08,166.09c8.91,13.02,15.75,27.26,23.82,40.78.97,1.63,1.69,3.35-.53,4.53-6.03,3.17-11.11,8.11-18.04,9.6-3.82-.76-4.78-4.26-6.49-6.95-3.97-6.24-4.17-6.43-10.81-2.71-7.29,4.07-14.51,8.29-21.69,12.56-2.8,1.67-5.71,3.63-9.18,1.43-2.63-4.54-5.65-8.91-7.75-13.69-1.51-3.44-4.46-3.73-7.09-5.01-.12-5.89-4.5-9.89-6.67-14.87-1.05-2.39-3.01-4.38-3.12-7.18.09-.67.32-1.27.72-1.81,2.3-2.33,5.28-2.99,8.33-3.51,15.12-3.6,29.86-8.64,45.05-11.98,1.02-.29,1.97-.77,3-1.06,3.48-.62,6.95-2.6,10.47-.14h0Z"/>
          <path class="cls-17" d="M479.88,420.2c10.26-8.87,20.51-17.74,30.77-26.61,4.13-.18,5.01,3.57,6.92,5.92,2.05,2.52,3.79,5.29,5.85,7.82,2.66,4.31,6.08,7.97,9.77,11.41-6.61,3.73-10.09,10.37-14.61,15.97-8.61,10.69-16.89,21.65-25.24,32.56-1.6,2.08-2.94,3.31-5.99,2.27-15.3-5.17-30.69-10.05-46.04-15.03-.99-2.72,1.05-4.08,2.63-5.49,9.51-8.56,19.6-16.45,28.97-25.16,2.01-1.86,4.53-2.69,6.98-3.66h0Z"/>
          <path class="cls-23" d="M214.26,665.35c-.2,4.16,3.15,4.36,5.81,4.85,15.82,2.95,31.66,5.76,47.5,8.58,15.17,2.69,30.35,5.33,45.53,7.99,2.69,2.39,2.47,5.64,2.19,8.68-1.21,13.25-2.11,26.54-3.95,39.72-.89,6.41-3.01,8.01-9.5,6.76-6.31-1.22-12.59-2.65-18.9-3.88-6.76-1.56-13.37-3.74-20.19-5.05-1.69-.33-3.43-.75-4.3-2.54-14.81-3.44-29.6-6.86-44.4-10.32-1.26-.3-2.47-.83-3.69-1.25,2.59-2.92,6.13-2.2,9.36-2.21,23.09-.09,46.19-.06,69.28-.03,4.89,0,9.76-.25,13.15-.65-29.29-13.38-58.49-29.71-88.7-43.92-.14-2.3-.61-4.62.8-6.73h0Z"/>
          <path class="cls-2" d="M157.4,85.27c8.43-2.59,16.86-5.2,25.29-7.79,1.47.62,1.89,1.63,1.17,3.07-7.66,7.78-12.54,17.57-18.88,26.3-2.41,3.32-1.13,5.13,2.2,6.49,7.97,3.25,15.7,7.07,23.9,9.74,8.81,2.87,17.18,6.82,25.74,10.33.51.49.79,1.09.86,1.78-.11.7-.43,1.3-.94,1.79-8.37,4.26-17.57,5.9-26.54,8.25-6.64,1.74-13.29,3.42-19.81,5.56-6.47,2.25-12.9,4.67-19.58,6.23-2.19-2.6-4.46-.51-6.69-.11-6.03,1.11-11.6,4.34-18.71,4.26,10.23-14.98,19.96-29.47,30-43.75,2.7-3.84,2.79-5.48-2.09-7.13-10.21-3.45-20.21-7.49-31.81-11.87,12.97-4.76,24.44-8.97,35.9-13.18h0Z"/>
          <path class="cls-14" d="M230.47,447.79c-.03.54-.06,1.09-.1,1.63-1.26,2.6-2.75,4.97-5.09,6.84-12.28,9.79-24.5,19.65-36.39,29.9-1.55,1.33-3.59,1.72-5.08,3.07-3.53-1.51-3.15-5.06-3.88-7.87-4.06-15.54-7.93-31.13-11.87-46.69,8.28-3.96,11.89-12.58,18.22-18.5,2.36-2.21,4.01-5.19,6.96-6.86,2.07-.82,3.51.45,4.6,1.78,9.29,11.35,20.82,20.61,29.85,32.2,1.11,1.42,1.61,3.16,2.78,4.53v-.03Z"/>
          <path class="cls-2" d="M434.46,664.02c.06-.95.12-1.9.18-2.85,5.63,18.63,11.29,37.25,15.48,56.28-13.22,3.32-26.83,2.38-40.25,3.37-11.92.89-23.97.2-35.95.18-2.88,0-5.8.06-8.58-.81-5.19-1.62-6.15-4.77-1.67-7.9,22.74-15.84,44.05-33.77,68.45-47.17.75-.42,1.73-.37,2.35-1.1h-.01Z"/>
          <path class="cls-2" d="M213.46,672.09c2.23-1.77,4.2-.42,6.15.57,24.39,12.21,48.79,24.4,73.14,36.68,4.29,2.16,9.02,3.65,12.36,9.23-31.58.11-63.15.22-94.73.33-3.33-7.78.53-15.44.6-23.18.05-7.89,1.6-15.76,2.5-23.63h-.01Z"/>
          <path class="cls-23" d="M434.46,664.02c-19.62,14.04-39.23,28.08-58.85,42.12-4.6,3.29-9.19,6.6-13.56,10.74,29.47,4.13,58.79.04,88.06.57-12.23,5.19-25.27,7.84-37.8,12.1-2.52.85-5.01,1.79-7.5,2.69-5.97,5.36-14.18,4.88-20.97,8.09-1.91.54-3.83,1.05-5.73,1.65-9.22,2.96-11,2.16-14.69-6.58-5.42-12.83-10.39-25.82-14.79-39.04-.88-2.63-2.46-5.34-.59-8.22,13.33-1.07,25.51-6.59,38.23-10.05,16.14-4.39,32.13-9.36,48.19-14.08h0Z"/>
          <path class="cls-14" d="M479.88,420.2c-11.17,9.73-22.31,19.48-33.53,29.15-1.85,1.59-3.92,2.9-5.06,5.17-9.85-3.07-19.71-6.14-29.56-9.21-.84-1.16-1.2-2.44-.94-3.88,7.92-15.52,15.64-31.15,23.5-46.71,1.35-2.66,2.1-5.97,5.7-6.81,9.37,6.27,17.1,14.52,25.9,21.47,4.62,3.65,8.43,8.37,13.98,10.82h.01Z"/>
          <path class="cls-46" d="M257.02,348.09c1.44,24.38,2.88,48.76,4.31,73.16-.72,1.33-1.11,3.03-2.18,3.96-8.61,7.45-17.35,14.75-27.49,23.31v-19.22c-2.02-1.83-2.22-4.31-2.21-6.74.06-10.85-.7-21.69.8-32.52.94-6.81.47-13.73.37-20.58-.05-3.42,1.38-6.47,1.63-9.77,7.38-5.74,16.31-8.15,24.76-11.59v-.02Z"/>
          <path class="cls-46" d="M382.29,406.56c.95-18.98,1.9-37.95,2.86-56.93,9.31,3.09,18.81,5.64,27.69,9.92,2.31,8.21,1.44,16.5.73,24.8-1.99,6.53-1.01,13.25-1.11,19.88-.15,10,.09,20.01-.12,30-.06,3.04.96,6.8-3.2,8.4-6.21-5.97-12.17-12.23-18.72-17.81-5.81-4.93-9.31-10.44-8.13-18.27h.01Z"/>
          <path class="cls-24" d="M232.25,359.68c2.15,9.2,1.09,18.55.49,27.72-.92,13.97-.57,27.94-1.08,41.89-2.26,6.04-.62,12.34-1.2,18.5-11.66-10.53-21.57-22.72-32.55-33.89-1.53-1.56-3.12-3.06-4.68-4.6,3.65-7.18,9.51-12.71,14.37-18.97,8.04-10.35,16.41-20.43,24.65-30.64h-.01Z"/>
          <path class="cls-14" d="M213.13,225.31c4.21.59,6.93-2.55,10.14-4.28,7.99-4.3,15.9-8.78,23.6-13.55,3.75-2.32,5.67-1.72,7.57,2.15,1.95,3.95,4.55,7.59,6.86,11.36,4,7.71,8.01,15.4,12,23.11-1.75,5.19-6.1,6.54-10.82,7.34-4.72-1.63-5.71-6.32-8.03-9.91-1.3-2.03-2.53-4.1-3.9-6.08-3.92-6.66-9.36-8.22-16.31-4.69-1.1.57-2.54.68-3.2,2.12,3.81,2.57,8.47,3.5,12.17,6.24,4.1,5.47,8.99,10.52,9.49,17.9-3.39,5.47-9.48,7.38-14.35,10.91-8.41-14.21-16.81-28.42-25.23-42.64h0Z"/>
          <path class="cls-47" d="M150.81,157.04c4.61-5.87,12.36-4.45,18.06-7.78.74.49.04-.41.6.26,8.54,10.3,15.6,21.46,19.72,34.3l-.14.3c-8.58,7.05-18.81,10.65-29.13,14.08-5.44.49-9.49,4.54-14.64,5.78-3.39-.36-1.84-2.54-1.56-4.25,2.36-14.22,4.72-28.45,7.09-42.67h0Z"/>
          <path class="cls-40" d="M262.56,250.74c3.59-2.21,7.16-4.43,10.75-6.64,2.19-.6,4.13-2.07,5.98,1.24,6.45,11.53,13.26,22.86,19.97,34.24.83,1.41,1.56,2.67.32,4.17-9.81,8.86-21.98,14.04-32.98,21.05-1.69,1.08-3.57,1.93-5.57.57-7.56-12.47-15.12-24.94-22.67-37.41.03-4.64,4.54-4.56,7.03-6.55,2-1.6,4.34-2.75,6.53-4.11,5.49.63,6.12,4.99,7.02,9.14-4.16,3.18-4,6.62-.83,10.47,2.97,3.62,3.94,8.63,7.91,11.54,4.24-2.33,8.35-4.84,12.59-7.08,4.18-2.22,5.28-4.59,2.36-8.75-2.5-3.57-4.71-7.38-6.53-11.57-1.33.81-1.29,2.71-2.75,3.26-6.36-2.23-9.71-7.21-9.13-13.55h0Z"/>
          <path class="cls-4" d="M454.37,89.1c-5.18,5-10.35,10-15.53,15-3.5-.78-4.65-3.92-6.15-6.5-9.2-15.87-18.06-31.94-27.1-47.9-1.15-2.03-4.72-4.62-.45-7.28,1.28.53,2.57,1.08,3.85,1.61,15.23,10.28,30.79,20.04,46.78,29.09,2.57,1.92,5.15,3.84,7.95,5.95-3.21,3.44-6.29,6.74-9.36,10.02h.01Z"/>
          <path class="cls-14" d="M468.94,780.03c-1.41,2.02-3.54,1.45-5.46,1.45-23.37.03-46.74.04-70.1.01-1.92,0-4.04.51-5.49-1.42,4.47-2.94,8.91-2.12,12.67-1-4.84-3.85-10.73-8.41-15.11-14.52-1.01-2.17-1.85-4.38-1.01-6.82,6.9-5.86,14.23-11.2,21.22-16.95,1.38-1.13,2.94-2,4.81-1.97,8.83,8.1,17.51,16.34,25.26,25.51.27,1.54-.59,2.63-1.71,3.32-6.76,4.22-13.79,7.89-21.29,10.61-.94.34-2,.43-2.39-.11,13.9-.42,28.14-.25,42.39-.18,5.46.02,11.11-1.1,16.19,2.05v.02Z"/>
          <path class="cls-24" d="M411.62,383.98c.8-8.12-1.11-16.39,1.24-24.44,9.33,9.18,18.65,18.37,27.15,28.35-7.88,15.54-15.74,31.09-23.66,46.61-1.29,2.53-2.17,5.33-4.45,7.25-1.67-5.21-.69-10.57-.67-15.83.06-13.98-.66-27.98.39-41.95h0Z"/>
          <path class="cls-14" d="M274.54,784.16h-1.44c-11.42-7.09-21.89-15.31-30.73-25.5,3.13-5.72,6.26-11.44,9.38-17.17,11.61,4.3,23.81,7.21,34.33,14.18,2.12,3.29,2.89,6.89,2.42,10.75-4.95,5.68-7.68,13.12-13.96,17.75h0Z"/>
          <path class="cls-48" d="M366.74,343.65c-1.02.04-2.05.1-3.07.14-5.1-5.38-12.49-6.03-18.77-8.96-6.96-3.25-14.24-5.82-21.93-8.91,5.05-4.76,11.73-4.29,16.94-7.18,13.22-4.48,26.43-8.97,39.66-13.44-4.3,10.62-8.64,21.23-12.86,31.89-.82,2.07-2.82,4.33.04,6.46h-.01Z"/>
          <path class="cls-36" d="M562.41,427.87c-5.84-3.8-9.53-9.79-14.55-14.42-8.22-3.88-12.34-11.69-17.62-18.37-.57-.72-.21-1.7.46-2.4,3.09-1.99,6.36-1.08,9.53-.45,5.92,1.17,11.28.95,14.98-4.77,1.02-.5,2.24-.86,3.18-.32,8.51,4.9,17.23,9.54,22.72,18.21.15.36.16.73.02,1.09-4.99,8.23-10.82,15.72-18.71,21.43h0Z"/>
          <path class="cls-14" d="M556.03,388.03c-2.44,9.12-9.5,7.15-15.79,6.29-3.29-.45-6.51-1.13-9.84-1-2.07,5.21-2.9,11.11-8.11,14.57-5.16-3.73-6.92-10.22-11.63-14.29,2.09-4.59,5.4-8.6,6.48-13.67.9-6.02,3.19-11.32,7.96-15.33,2.98-.32,5.65.61,8,2.32,6.54,4.75,13.39,9.11,19.27,14.72,1.84,1.75,4.36,3.19,3.66,6.42h0Z"/>
          <path class="cls-13" d="M556.03,388.03c-9.18-9.04-18.75-17.56-30.79-22.73-.79-.72-.85-1.52-.25-2.38,9.13,1.48,18.33,2.36,27.57,2.44,7.74.07,13.84,2.16,17.8,9.64,3.07,5.82,6.9,11.41,11.26,16.32,4.7,5.29,4.21,9.51-.51,14.02-8.52-5.54-15.47-13.35-25.08-17.33h-.01Z"/>
          <path class="cls-24" d="M524.99,362.93c.09.79.16,1.59.25,2.38l-8.1,14.6c-19.15-20.82-38.3-41.64-57.45-62.46-.29-1.45.28-2.03,1.73-1.69,21.19,15.72,42.38,31.44,63.58,47.16Z"/>
          <path class="cls-17" d="M242.35,758.64c10.9,7.72,21.17,16.18,30.73,25.51h-54.6c4.06-4.61,7.31-8.32,10.57-12.02,4.43-4.49,8.86-9,13.29-13.49h.01Z"/>
          <path class="cls-13" d="M468.94,780.03h-62.6c10.71-5.71,20.06-10.71,29.41-15.69.84-.23,1.74-.36,2.53-.72,7.88-3.52,14.69-2.07,20.44,4.32,2.94,3.27,5.17,7.18,8.96,9.65.42.81.84,1.62,1.26,2.43Z"/>
          <path class="cls-48" d="M261.04,305.35c9.73-5.59,19.5-11.1,29.16-16.81,3.04-1.8,5.97-3.76,9.39-4.79-8.85,13.7-17.27,27.67-27.79,40.21-3.59-6.2-7.18-12.4-10.77-18.61h0Z"/>
          <path class="cls-48" d="M284.99,755.99c-9.18-3.54-18.38-7.02-27.52-10.66-2.12-.84-4.87-1-5.73-3.84,2.24-3.67,4.48-7.33,6.73-11.01,8.17.81,16.15,2.44,23.77,5.57,3.71,6.27,6.57,12.64,2.75,19.94Z"/>
          <path class="cls-40" d="M159.92,198.2c9.05-6.06,19.16-9.92,29.13-14.08,3.36,5.68,6.85,11.29,10.01,17.08.91,1.67,3.88,4.28-.77,5.44-12.96-2.07-25.7-5.15-38.39-8.43h.01Z"/>
          <path class="cls-12" d="M410.51,738.82c-7.13,5.89-14.27,11.79-21.4,17.7-1.13.94-2.35,1.12-3.71.74-3.7-5.9-4.52-12.05-1.63-18.53,6.66-3.31,13.87-4.89,21.05-6.51,1.9,2.2,3.79,4.41,5.69,6.61h.01Z"/>
          <path class="cls-31" d="M562.41,427.87c5.68-7.63,11.52-15.12,18.71-21.43,3.04,8.33,4.89,16.97,6.74,25.61-3.62,6.08-7.08,2.07-10.57-.16-4.96-1.35-9.92-2.68-14.88-4.02Z"/>
          <path class="cls-19" d="M411.62,383.98c.1,19.26.18,38.52.28,57.78-.05,1.18-.1,2.36-.15,3.54-.05,22.67-.12,45.36-.17,68.03-1.15-3.31-2.21-6.65-3.47-9.92-1.52-3.95-3.2-7.08-8.71-5.05-3.86,1.42-5.47-.54-3.2-4.46,1.32-2.3,2.68-4.57,3.89-6.93,1.57-3.05,3.16-4.64,6.28-1.38.98,1.02,4.07,3.45,3.95-.69-.38-14.09,1.6-28.26-1.15-42.28,2.08-2.01,1.25-4.6,1.27-6.95.09-14.88.03-29.76.11-44.64.01-2.38-.67-4.92,1.1-7.06h-.01Z"/>
          <path class="cls-45" d="M522.27,407.88c2.75-4.84,3.53-10.76,8.11-14.57,5.83,6.71,11.65,13.43,17.48,20.14-4.89,1.76-9.79,3.52-14.68,5.29-6.75-.49-8.18-6.33-10.9-10.86h-.01Z"/>
          <path class="cls-8" d="M577.29,431.9c3.52-.26,6.99,3.37,10.57.16,1.01,1.49,2.2,2.86,4.15,2.95,9.21.42,10.61,7.62,13.12,15.07-7.63-1.02-14.59-2.01-21.56-2.88-2.58-.33-3.76-1.57-4.09-4.24-.47-3.71-1.43-7.38-2.18-11.06h-.01Z"/>
          <path class="cls-18" d="M533.09,784.18v-2.63c3.54.36,7.28-.97,10.75,2.63h-10.75Z"/>
          <path class="cls-27" d="M461.4,315.76c-.58.57-1.15,1.13-1.73,1.69-1.72-1.57-3.43-3.13-5.91-5.4,4.17-.13,5.89,1.83,7.64,3.71Z"/>
          <path class="cls-9" d="M143.72,199.71c.44,1.44-.12,3.26,1.56,4.25-.72.29-1.93.96-2.06.8-1.38-1.77-.51-3.44.5-5.05h0Z"/>
          <path class="cls-47" d="M183.76,79.8c-.36-.77-.72-1.54-1.08-2.31,1.26-1.93,2.52-3.86,3.78-5.8,5.04-6.58,10.08-13.16,15.12-19.74,2.22-1.2,4.34-.45,6.27.59,10,5.43,20.06,10.78,29.9,16.5,1.13.66,2.14,1.54,2.87,2.67.51.94.75,1.94.78,3-3.88,14.99-10.5,29-15.36,43.65-1.25,3.76-2.48,7.57-4.22,11.13-.97,1.99-1.2,4.95-4.54,4.81l-.04.05c-2.53-1.42-4.73-3.19-6.26-5.73-8.49-14.2-17.03-28.35-25.42-42.62-1.11-1.88-2.22-3.85-1.81-6.22h.01Z"/>
          <path class="cls-4" d="M239.77,71.81c-9.76-5.19-19.6-10.21-29.2-15.65-2.93-1.65-5.98-2.83-8.98-4.22-.85-4.79-1.37-9.68-2.64-14.36-1.38-5.06.46-6.27,5.13-5.84,10.14.93,20.3,1.61,30.47,2.39,6.2.61,12.4,1.23,18.6,1.84,2.15,2.02,1.62,4.48.82,6.76-2.9,8.31-5.91,16.59-9.27,24.72-.85,2.08-1.69,4.75-4.95,4.34h.01Z"/>
          <path class="cls-2" d="M239.77,71.81c6.28-11.26,10.66-23.24,13.39-35.83,4.13-3.17,3.18-9.03,6.87-12.98,3.76,4.15,4.7,9.98,8.74,13.71.63.19,1.2.51,1.69.94,11.38,19.56,21.37,39.88,32.8,59.42,1.07,1.83,1.48,4.23,3.86,5.2,1.89-1.89,2.04-4.42,2.66-6.7,4.58-16.92,9.37-33.8,13.59-50.81.37-1.52.79-3.01,1.81-4.25.72-.77,1.57-1.25,2.66-1.24,11.12,6.5,21.18,14.55,31.76,21.84,3.09,2.12,3.38,5.55,3.64,8.92.75,8.15-1.05,16.26-.22,24.4-.33,2.11-2,2.84-3.71,3.31-16.67,4.49-33.24,9.35-49.92,13.82-.64.17-1.32.07-1.97.03-11.65-5.32-22.39-12.33-33.7-18.3-11.39-6.02-22.63-12.33-33.69-18.95-.09-.85-.18-1.71-.27-2.56v.02Z"/>
          <path class="cls-2" d="M327.77,39.78c-.44.45-.86.9-1.3,1.35-1.96,1.29-4.16,1.3-6.38,1.14-14.49-1.07-28.97-2.1-43.5-2.27-2.7-.03-5.21-.84-7.27-2.73-.18-.18-.36-.36-.54-.54,20.55-11.07,41.1-22.13,61.65-33.2,2.99-.51,4.87-3.58,8.1-3.51,1.55,1.69,1.35,3.66.78,5.6-3.04,10.34-6.08,20.7-9.31,30.99-.39,1.27-1.02,2.43-2.22,3.18Z"/>
          <path class="cls-46" d="M327.77,39.78c1.35-10.93,5.91-20.99,8.54-31.58.68-2.74,1.47-5.47,2.21-8.2,9.76,4.16,17.8,11.11,26.75,16.58,8.07,4.92,15.94,10.18,23.89,15.3,1.86,2.83-.35,4.59-1.87,6.31-6.43,7.3-12.14,15.3-19.28,21.89-2.95,2.72-2.36,7.75-6.79,9.11.37-3.71-1.47-5.85-4.45-8.01-9.73-7.06-20.55-12.64-29-21.41h0Z"/>
          <path class="cls-47" d="M361.23,69.2c1.89-9.76,10.71-14.53,15.82-21.97,3.69-5.38,9.36-9.21,12.12-15.35,4.88-4.34,8.28-10.18,13.53-13.91v22.88c2.37,14.2,1.8,28.3-1.48,42.31-.79,1.44-2.05,2.37-3.46,3.14-9.3,3.29-18.94,5.47-28.37,8.35-2.24.68-4.62,1.74-6.91-.03-3.16-.64-2.79-3.11-2.31-5.17,1.54-6.7.69-13.49,1.07-20.24h0Z"/>
          <path class="cls-2" d="M399.78,83.82c.97-14.33,1.94-28.65,2.91-42.97.82.52,1.63,1.05,2.46,1.57-.57,5.87,4.1,9.46,6.49,13.9,8.69,16.13,18.08,31.89,27.21,47.77l-.16-.13c-3.67,2.04-6.32-.64-9.16-2.1-9.64-4.96-18.54-11.38-29-14.73-1.22-.89-1.83-1.91-.74-3.31h-.01Z"/>
          <path class="cls-28" d="M183.81,489.23c5.78-7.96,14.32-12.86,21.54-19.2,8.11-7.12,16.66-13.75,25.02-20.6-.95,15.17-1.9,30.34-2.86,45.52-1.27,2.44-3.12,2.25-5.54,1.75-12.69-2.63-25.44-5-38.16-7.46h0Z"/>
          <path class="cls-14" d="M113.2,504.11c-7.7-.12-10.41-3.06-8.52-9.8,2.6-9.29,3.7-19.06,8.61-27.63,8.21-2.91,16.54-4.74,25.27-2.75.67.29,1.25.74,1.71,1.3,1.33,3.55-1.17,5.91-2.9,8.33-3.61,5.04-7.36,9.99-10.87,15.11-2.91,3.47-5.5,7.2-8.13,10.88-1.37,1.91-2.5,4.12-5.17,4.56h0Z"/>
          <path class="cls-48" d="M139.72,465.56c-8.89-1.59-17.57,2.08-26.43,1.12,6.92-5.38,14.02-10.56,20.67-16.25,3.38-2.89,4.67-1.48,6.31,1.48,4.27,7.71,8.65,15.35,13.03,22.99,3.14,5.47,1.79,9.85-4.05,13.16-3.98-2.53-3.96-7.09-5.44-10.87-1.51-3.83-1.45-8.21-4.08-11.65h-.01Z"/>
          <path class="cls-42" d="M142.69,552.37c4.43,1.77,9.38,3.6,14.18,5.76,1.92.86,1.45,2.81,1,4.67-3.39,14.34-4.48,14.84-18.18,10.52-5.17-1.63-6.93-3.67-4.14-8.81,1.56-2.87,2.27-6.19,3.48-9.27.56-1.41,1.12-2.98,3.65-2.87h.01Z"/>
          <path class="cls-5" d="M68.41,460.41c2.22-5.85,2.83-12.6,6.51-15.79,3.96-3.43,9.4,2.06,14.27,3.33,1.9.5,4.87.97,3.81,4.23-1.52,4.63-3.3,9.17-4.97,13.75-.07.21-.15.43-.26.62-1.51,2.67-3.47,1.2-5.13.38-4.68-2.25-10.58-2.15-14.23-6.53h0Z"/>
          <path class="cls-10" d="M65.75,477.04c3.82,1.46,8.79,3.36,13.75,5.27,1.97.76,1.84,2.23,1.25,3.82-1.61,4.37-3.27,8.72-4.84,13.11-.98,2.75-2.98,2.54-4.79,1.41-4.62-2.9-13.02-1.44-13.93-7.56-.72-4.8,3.3-10.32,5.25-15.51.36-.97,1.16-1.23,3.31-.54Z"/>
          <path class="cls-41" d="M182.24,553.88c3.99,1.43,10.07,1.88,13.27,5.15,5.52,5.63-2.49,10.77-3,16.55-.32,3.6-3.2,2.71-5.56,1.45-.58-.31-1.21-.54-1.84-.77-12.8-4.67-14.05-8.19-7.21-20.21.8-1.41,1.55-2.73,4.32-2.17h.01Z"/>
          <path class="cls-15" d="M123.83,548.5c-.13,4.16-5.66,15.81-7.5,15.82-5.26.03-16.49-5.96-16.4-8.73.16-4.41,5.94-15.49,8.09-15.52,5.2-.07,15.9,5.63,15.82,8.43h-.01Z"/>
          <path class="cls-20" d="M75.92,513.98c5.82,2.24,11.01,4.11,16.08,6.26,1.91.81.99,2.57.62,4.07-3.76,15.11-8.15,16.99-21.82,9.37-.38-.21-.9-.22-1.23-.49-2.38-1.85-.36-3.68.29-5.25,1.94-4.63,2.47-10,6.05-13.96h.01Z"/>
          <path class="cls-3" d="M231.57,542.72c-.17,4.65-5.73,15.75-7.85,15.67-4.44-.15-16.2-6.29-16.08-8.37.31-4.89,6.06-16.08,8.19-15.94,6.68.44,15.85,5.47,15.74,8.64Z"/>
          <path class="cls-30" d="M139.72,465.56c3.36,0,3.5,2.81,4.2,4.99,1.85,5.82,3.57,11.68,5.33,17.53-4.57,4.47-9.06,9.03-14.79,12.07-2.64-2.64-1.51-5.71-.98-8.7,1.46-8.41,4-16.55,6.41-24.72-.05-.38-.11-.77-.16-1.16h0Z"/>
          <path class="cls-25" d="M139.88,466.72c1.71,7.69-2.84,14.35-3.55,21.65-.38,3.94-2.26,7.68-1.87,11.77-.44.42-.88.83-1.31,1.25-5.64-2.64-8.41-7.06-8.24-13.3,5-7.12,9.98-14.25,14.98-21.37h0Z"/>
          <path class="cls-43" d="M124.9,488.09c2.74,4.43,5.5,8.87,8.24,13.3-6.53,1.74-12.86,5.01-19.94,2.71,3.7-5.49,7.11-11.19,11.71-16.01h-.01Z"/>
          <path class="cls-7" d="M281.27,493.48c-.04-13.98.04-27.96-.19-41.94-.07-4.43,1.05-6.33,5.91-6.29,23.06.21,46.13.16,69.19.04,4.53-.02,6.36,1.62,6.34,6.23-.12,23.74-.13,47.49,0,71.24.02,4.11-1.52,5.37-5.48,5.35-23.51-.12-47.01-.22-70.51.04-6.81.07-5.15-4.36-5.41-8.06.09-1.04.6-1.85,1.37-2.51,2.78-2,6.11-2.63,9.3-3.35,5.68-1.3,8.5-4.28,7.37-10.31-1.02-5.44-.47-10.15,5.58-12.54,2.37-.94,2.33-3.04,1.47-5.07-1.08-2.57-1.36-5.62-4.5-7.87-1.08,6.68-5.21,8.56-11.21,7.76-2.14-.29-3.62,1.24-4.74,3.07-1.09,1.78-1.56,4.34-4.48,4.2h0Z"/>
          <path class="cls-2" d="M281.27,493.48c.6-.91,1.56-1.76,1.74-2.74,1.12-6.18,5.08-7.7,10.61-6.63,3.47.66,5.56,0,4.93-4.17-.35-2.33.76-3.65,3.11-4.25,3.04-.77,3.13,1.49,3.81,3.3.7,1.86,1.42,3.71,2.28,5.5,2.23,4.62,2.42,8.2-3.84,9.54-2.06.44-3.69,1.64-3.51,4.7.86,14.95.74,14.95-14.1,18.98-1.27.34-2.53.77-3.79,1.16-1.62.05-2.63-1.01-2.85-2.31-1.18-6.97-2.57-14,1.39-20.62.07-.81.15-1.63.21-2.44h.01Z"/>
          <path class="cls-2" d="M364.57,571.49c-6.35-2.67-11.22-6.94-16.06-10.96-4.11-3.43-3.42-11.99,1.33-14.71,3.61-2.07,5.28-9.08,11.89-5.06,10.31,6.3,9.7,2.95,6.6,15.65-1.2,4.9-2.44,9.79-3.77,15.08h0Z"/>
          <path class="cls-11" d="M281.06,495.93c.95,7.61-1.55,15.45,1.46,22.93-.47.42-.93.83-1.4,1.24-3.18-.58-7.65,1.53-9.36-1.49-3.12-5.49-5.08-11.66-7.21-17.67-.8-2.27,1.58-2.15,2.96-2.42,4.5-.91,9.03-1.74,13.55-2.59h0Z"/>
          <path class="cls-29" d="M322.67,550c.78,4.13-4.08,4.3-6.99,4.27-6.6-.07-3.83-6.57-5.66-10-1.02-1.94.56-3.31,2.24-2.64,3.82,1.53,10.02-.2,10.41,8.37h0Z"/>
          <path class="cls-28" d="M383.76,738.72c.54,6.18,1.09,12.36,1.63,18.53.42,2.36.83,4.73,1.24,7.09,1.12,2.2,2.03,4.4-.2,6.49-17.64-.79-35.21-2.4-52.81-3.69-15.21-1.12-30.42.97-45.59,2.3-.88-.68-1.01-1.49-.43-2.43-.86-3.67-1.74-7.34-2.6-11.02-.92-6.65-1.84-13.29-2.75-19.94,7.39.06,14.29,2.62,21.43,4.06,2.79.57,5.15,1.12,5.46-3.14,1.21-16.74,3.86-33.36,3.99-50.19,1.33-13.91,2.7-27.82,4-41.73.91-9.71,1.72-19.43,3.79-29.42,9.05,24.18,18.09,48.35,27.15,72.53,5.31,16.23,11.43,32.14,17.74,48.01,2.28,5.74,5.1,6.89,10.3,4.48,2.41-1.11,4.92-2.08,7.68-1.9h-.01Z"/>
          <path class="cls-2" d="M399.78,83.82c.36.88.74,1.76,1.1,2.64,4.76,4.83,11.56,30.62,9.79,37.11-39.38,10.72-78.76,21.43-118.14,32.14-5.11,1.39-10.21,2.83-15.31,4.25-7.31,1.14-14.45,2.83-21.14,6.13-3.64.65-7.28,1.3-10.91,1.96-2.94-6.24.76-10.71,4.07-15.29,49.54-22.08,97.45-47.73,147.87-67.89.89-.35,1.78-.69,2.67-1.05h0Z"/>
          <path class="cls-6" d="M358.7,216.26c-.5-1.01-.99-2.03-1.49-3.03-8.1-14.05-10.55-30.07-15.74-45.13-1.04-3.01-2.94-6.2-.43-9.46,7.77-4.89,16.99-5.46,25.4-8.5.57-.2,1.69,1.14,2.55,1.76,1.53.73,2.24,2.11,2.79,3.57,3.43,9.13,5.99,18.52,8.4,27.95.47,1.86.79,3.92-.37,5.78,1.79,6.29,4.67,12.28,5.26,18.9-7.9,5.59-16.75,8.13-26.37,8.18h0Z"/>
          <path class="cls-40" d="M410.67,123.57c-3.27-12.37-6.52-24.73-9.79-37.11,2.63-2.56,4.43.3,6.34,1.15,10.81,4.8,20.34,12.11,31.46,16.34-7.12,12.34-14.76,24.34-22.79,36.09-3.34-4.99-2.52-11.29-5.22-16.49h0Z"/>
          <path class="cls-13" d="M341.05,158.62c4.65,15.44,9.32,30.86,13.95,46.3.82,2.74,1.47,5.53,2.21,8.29-4.33-2.89-6.53-7.57-9.5-11.57-1.29-1.75-2.14-2.66-3.63-.41-2.65-3.32-5.04-6.82-7.2-10.47,1.27-5.66-2.17-7.69-6.78-8.06-5.2-.42-10.45-.18-15.67-.23-.84-3.2,1.63-4.8,3.42-6.51,5.03-4.81,9.97-9.75,15.46-14.06,1.79-1.09,3.63-2.11,5.2-3.54.98-1.31,1.72,0,2.55.25v.02Z"/>
          <path class="cls-13" d="M379.81,189.18c-3.61-12.43-7.21-24.86-10.81-37.29.07-.48.15-.97.22-1.45,1.77-.86,3.68-1.13,5.63-1.26,8.52-.97,16.77,1.12,25.1,2.25,1.8.25,3.34,1.22,3.9,3.18-2.4,3.34-6.3,4.65-9.63,6.53-5.96,3.35-8.68,8.24-9.05,14.8,2.02,2.27,2,4.48-.21,6.62-1.63-.83-2.35-.29-2.54,1.49-.21,2-.88,3.85-2.59,5.12h0Z"/>
          <path class="cls-37" d="M405.1,236.17c1.89-.41,3.78-.82,7.46-1.61-9.01,10.15-16.98,19.14-24.96,28.13-1,1.13-2.3,1.3-3.64.97-12.99-3.22-25.98-6.47-38.91-11.13,3.09-.21,6.17-.44,9.26-.65,4.88-2.7,10.25-2.49,15.45-2.03,9.04.8,16.86-1.75,23.98-7.14,3.5-2.65,7.31-4.83,11.38-6.52h-.01Z"/>
          <path class="cls-40" d="M405.1,236.17c-8.97,7.94-17.68,16.3-31.02,15.77-6.59-.27-13.18-.06-19.78-.07,6.95-6.57,15.52-10.86,23.19-16.42,2.51-1.83,5.63-.74,8.42-.61,6.41.28,12.79.88,19.18,1.33h.01Z"/>
          <path class="cls-1" d="M334.56,162.59c-6.71,6.63-13.42,13.26-20.13,19.88-4.92-1.83-4.76-6.92-6.22-10.65-1.25-3.18,2.78-3.28,4.79-4.06,6.18-2.36,12.47-4.45,18.71-6.65,1.62-.8,2.92-.99,2.85,1.47h0Z"/>
          <path class="cls-22" d="M403.84,154.61c-9.6-2.55-19.54-2.74-29.29-4.2-.75-.6-2.09-.88-1.2-2.32,7.21-1.96,14.64-3.35,21.55-6.06,6.62-2.59,8.68-.17,8.94,5.84.1,2.24,2.5,4.5,0,6.75h0Z"/>
          <path class="cls-39" d="M384.95,182.55c.07-2.21.14-4.41.21-6.62,5.54-5.55,13.21-5.24,15.7.81,1.93,4.7.72,8.75-3.85,11.31-4.6,2.56-8.53.67-12.06-5.51h0Z"/>
          <path class="cls-16" d="M336.89,190.77c5.4,1.43,7.45,5.16,7.2,10.47-1.69,5.1-5.13,7.73-10.48,6.43-4.01-.97-6.2-4.02-6.14-8.26.1-6.11,3.98-8.28,9.43-8.65h0Z"/>
          <path class="cls-25" d="M358.7,216.26c8.79-2.72,17.58-5.46,26.37-8.18-.04.21-.04.46-.13.65-5.59,12.01-14.33,14.52-26.24,7.53h0Z"/>
          <path class="cls-38" d="M334.56,162.59c-.63-1.12-1.72-1.33-2.85-1.47,2-1.56,4.32-2.33,6.78-2.74-.66,2.01-2.21,3.19-3.93,4.23h0Z"/>
          <path class="cls-21" d="M373.35,148.09c.39.77.8,1.55,1.2,2.32-1.77,0-3.55.02-5.33.03.91-1.62,2.44-2.1,4.13-2.35Z"/>
          <path class="cls-33" d="M287.59,767c.14.81.29,1.62.43,2.43-.02,4.73,3.7,10.74.96,13.64-3.06,3.25-9.5.77-14.45,1.07,3.82-6.13,6.34-13.25,13.07-17.16h0Z"/>
          <path class="cls-26" d="M386.43,770.84c.06-2.17.14-4.32.2-6.49,5.42,4.81,10.85,9.63,17.73,15.74h-16.45c-.49-3.09-.98-6.17-1.47-9.24h-.01Z"/>
          <path class="cls-46" d="M250.38,153.1c-2.36,4.76-4.89,9.47-5.21,14.95-.49.3-.99.61-1.48.91-3.61-1.32-5.18-4.83-7.75-7.26-4.94-6.47-10.15-12.7-15.19-19.09-1.61-2.05-3.59-3.94-3.49-6.87.01-.47.03-.94.04-1.41,7.29-15.36,11.89-31.76,18.24-47.49,1.65-4.09,3.01-8.29,4.49-12.45,8.17.49,13.84,6.36,20.69,9.67,4.72,2.28,9.18,5.09,13.76,7.66,1,2.23.21,4.33-.63,6.34-3.49,8.28-6.35,16.79-9.56,25.18-3.43,7.7-6.39,15.58-9.59,23.38-1,2.47-1.86,5.03-4.33,6.5v-.02Z"/>
          <path class="cls-23" d="M217.24,135.73c6.93,8.25,14.17,16.26,19.89,25.45-.46,2-2.09,2.75-3.7,3.5-12.01,5.62-23.55,12.29-36.26,16.35-2.66.93-5.32,1.86-7.97,2.79-6.77-11.52-13.55-23.04-20.31-34.56,16.12-4.52,32.25-9.02,48.37-13.54Z"/>
          <path class="cls-35" d="M197.17,181.03c12.95-7.37,26.26-14.01,39.96-19.86,3.34,1.61,4.47,5.09,6.54,7.78-15.5,4.02-31,8.05-46.5,12.07h0Z"/>
          <path class="cls-46" d="M183.76,79.8c9.12,15.06,18.2,30.13,27.35,45.17,1.94,3.19,4.08,6.28,6.13,9.4-18.88-5.43-36.81-13.34-54.83-21.03-1.81-.78-2.72-1.69-1.56-3.41,6.68-9.86,12.28-20.5,20.43-29.31.51-.56,1.63-.56,2.47-.81h.01Z"/>
          <path class="cls-11" d="M258.27,266.46c-2.37-2.89-3.01-6.96-6.34-9.19-1.99-6.37-6.49-11.36-9.44-17.2,2.25-3.43,5.39-5.34,9.51-5.57,3.51,5.41,7.03,10.82,10.55,16.23,1.92,5.06,4.64,9.58,8.73,13.21,1.54,1.47.2,2.52-.54,3.65-1.85,1.47-3.66,3.1-6.01,3.66-3.95.96-6.99.42-6.48-4.79h.02Z"/>
          <path class="cls-48" d="M252.01,234.51c-2.85,2.41-5.75,4.72-9.51,5.56-5.15-2.23-10.3-4.46-16.42-7.12,5.19-2.72,9.36-4.62,13.24-7.02,4.45-2.76,7.58-2.52,9.63,2.76.79,2.03,2.04,3.88,3.07,5.81h-.01Z"/>
          <path class="cls-32" d="M270.54,266.38c.26-.81.5-1.63.76-2.44.52-2.09.59-4.38,2.87-6.29,3.71,6.29,7.37,12.48,11.05,18.66,1.29,2.18-.03,3.27-1.68,4.14-6.17,3.29-11.72,7.71-18.38,10.1-1.63-8.82,1.31-16.62,5.38-24.17Z"/>
          <path class="cls-44" d="M270.54,266.38c-.7,8.29-3.77,16.07-5.38,24.17-5.47-5.48-8.67-12.46-11.99-19.2-1.94-3.94,2.94-3.65,5.09-4.88,1.58,3.95,3.98,4.91,7.63,2.32,1.41-1,3.09-1.61,4.63-2.4h.01Z"/>
          <path class="cls-46" d="M269.33,37.26c19.07,1.08,38.24.6,57.16,3.86-5.87,21.93-11.73,43.84-17.77,66.4-5.19-3.05-6.43-8.23-8.74-12.38-10.02-17.93-19.71-36.06-29.46-54.14-.61-1.13-.79-2.49-1.17-3.74Z"/>
          <path class="cls-23" d="M250.38,153.1c4.05-10.22,8.08-20.43,12.13-30.64,12.77-6.85,26.81-9.69,40.75-12.8,1.09-.25,2.19.1,3.13.76,18.7-5.27,37.4-10.55,56.1-15.82,11.54-3.25,23.09-6.49,34.63-9.74-2.43,3.28-6.42,3.65-9.77,5.22-22.24,10.44-44.47,20.86-66.7,31.31-22.02,10.35-44.04,20.73-66.08,31.06-1.28.6-2.55,2.06-4.2.66v-.02Z"/>
          <path class="cls-40" d="M306.38,110.43c-14.63,4.01-29.25,8.03-43.88,12.04,3.99-10.25,8-20.5,11.99-30.76,10.56,6.36,22.23,10.82,31.89,18.71Z"/>
        </g>
      </g>
    </g>
  </g>
</svg>