<?xml version="1.0" encoding="UTF-8"?>
<svg xmlns="http://www.w3.org/2000/svg" version="1.1" viewBox="0 0 636.44 799">
  <defs>
    <style>
      .cls-1 {
        fill: #c7ab3d;
      }

      .cls-2 {
        fill: #9e7b28;
      }

      .cls-3 {
        fill: #474746;
      }

      .cls-4 {
        fill: #e2c9b7;
      }

      .cls-5 {
        fill: #ac9146;
      }

      .cls-6 {
        fill: #f4ebd5;
      }

      .cls-7 {
        fill: #858584;
      }

      .cls-8 {
        fill: #987726;
      }

      .cls-9 {
        fill: #d9bca6;
      }

      .cls-10 {
        fill: #2d2c2c;
      }

      .cls-11 {
        fill: #bc977e;
      }

      .cls-12 {
        fill: #505353;
      }

      .cls-13 {
        fill: #dfc54d;
      }

      .cls-14 {
        fill: #464646;
      }

      .cls-15 {
        fill: #a68670;
      }

      .cls-16 {
        fill: #866855;
      }

      .cls-17 {
        fill: #848484;
      }

      .cls-18 {
        fill: #ae8a2d;
      }

      .cls-19 {
        fill: #9a7a29;
      }

      .cls-20 {
        fill: #f6edd8;
      }

      .cls-21 {
        fill: #a4873b;
      }

      .cls-22 {
        fill: #bc977d;
      }

      .cls-23 {
        fill: #4f5252;
      }

      .cls-24 {
        fill: #ded5c2;
      }

      .cls-25 {
        fill: #2e2d2d;
      }

      .cls-26 {
        fill: #6e7073;
      }

      .cls-27 {
        fill: #b58f41;
      }

      .cls-28 {
        fill: #715719;
      }

      .cls-29 {
        fill: #b78e2f;
      }

      .cls-30 {
        fill: #80631e;
      }

      .cls-31 {
        fill: #856754;
      }
    </style>
  </defs>
  <!-- Generator: Adobe Illustrator 28.7.1, SVG Export Plug-In . SVG Version: 1.2.0 Build 142)  -->
  <g>
    <g id="Layer_1">
      <g id="Layer_1-2" data-name="Layer_1">
        <g>
          <path class="cls-13" d="M226.17,713.05c-15.37-2.04-30.89-1.8-46.35-2.6-4.9-.25-6.99-1.41-7.35-6.57-1.31-18.75-3.09-37.47-4.56-56.21-2.19-27.77-4.31-55.56-6.4-83.34-.22-2.87-.08-5.75-.1-8.63,3.75-.55,5.4,2.52,7.54,4.55,12.3,11.72,22.9,25.08,35.35,36.68,4.89,4.56,4.78,4.65,8.34-1.16,2.08-3.39,3.88-6.93,5.59-10.53,2.09-3.82,4.35-7.55,6.26-11.48,5.9-11.69,12.55-22.96,18.47-34.63.2-.4.42-.78.67-1.15,1.87-2.7,3.49-6.73,7.13-6.13,4.14.69,3.26,5.3,3.55,8.37,1.82,19.19,3.37,38.4,4.96,57.61,1.91,23.19,4.21,46.35,6.15,69.53,1.1,13.25,1.8,26.53,3.06,39.77.28,2.85.13,5.82-2.31,8.01-4.53,2.45-9.52,2.02-14.21,1.48-8.61-.99-17.6.58-25.77-3.58h-.02Z"/>
          <path class="cls-11" d="M412.88,198.54c1.75,21.64,3.52,43.27,5.26,64.92.09,1.1.07,2.22.11,3.33.72,14.61.68,14.33-14.2,15.86-14.96,1.54-29.86,3.67-44.76,5.74-2.53.35-5.39.31-7.46,2.36-13.58,3.32-27.55,3.76-41.31,5.8-10.71,1.59-21.51,2.52-32.28,3.73-2.88.32-5.75.63-8.28-1.31-1.84-2.18-1.83-4.9-2.17-7.52-2.88-22.14-5.62-44.3-8.34-66.45-.37-3.09-.86-6.16.68-9.09,1.28-2.03,3.26-2.98,5.52-3.28,19.51-2.66,39.08-4.83,58.69-6.61.87-.08,1.76.09,2.63.18,5.81,1.63,10.92,4.73,15.99,7.87,4.24,2.63,7.73,2.34,11.19-1.38,3.31-3.56,6.79-6.98,10.4-10.25.89-.67,1.87-1.15,2.95-1.48,11.97-1.73,24.03-2.71,36.01-4.35,3.28-.45,6.62-.51,9.37,1.95h-.01Z"/>
          <path class="cls-13" d="M394.2,45.18c11.41-1.25,22.86-2.27,34.22-3.82,5.46-.75,7.55,1.31,7.99,6.47,1.33,15.41,2.87,30.79,4.28,46.2.63,6.82.87,13.7,1.82,20.47.52,3.71-.15,5.21-4.1,5.52-9.9.77-19.77,1.92-29.66,2.91-3,1.66-5.89,3.69-9.61,3.06-12.64,1.22-25.21,3.2-37.91,3.73-6.43-1.43-8.82-7.64-13.3-11.37-2.19-1.83-3.96-4.12-5.79-6.34-4.34-5.27-4.71-5.22-8.19.42-3.47,5.63-6.7,11.4-10.07,17.09-1.34,2.27-2.85,4.47-5.37,5.72-8.75,2.88-17.93,2.48-26.91,3.52-11,1.27-21.99,2.66-33.05,3.21-1.9-.09-3.62.68-5.42,1.06-.74.12-1.48.19-2.23.24-6.33-.28-12.62,2.91-18.98.25-.66-.47-1.17-1.08-1.54-1.81-3.17-9.82-2.34-20.11-3.45-30.18-1.58-14.24-2.39-28.58-3.52-42.87-.21-2.66-.52-5.3,1.25-7.64,4.72-3,10.14-2.77,15.36-3.28,33.43-3.32,66.86-6.55,100.27-10.01,14.95-1.54,29.95-2.6,44.88-4.31,3.23-.36,6.05,1.05,9.03,1.79v-.02Z"/>
          <path class="cls-26" d="M336.78,333.29c14.18-4.18,27.61-10.39,41.36-15.69,27.19-10.48,54.19-21.43,81.32-32.08,2.51-.98,5.08-3.17,8.03-.91,4.33,9.16,9.08,18.17,9.81,28.58-9.39,6.24-19.66,10.88-29.89,15.37-8.64,3.79-12.99,9.45-14.31,18.7-1.11,7.83-3.23,15.54-5.43,23.19-.72,1.55-1.22,3.21-2.33,4.57-7.74,4.96-16.53,7.47-24.99,10.77-12.66,5.17-25.46,10.02-38.02,15.45-11.87,4.14-23.56,8.72-35.14,13.64-3.6,1.53-7.33,3.62-11.08.19-6.55-11.86-10.13-24.92-15.03-37.44-3.12-7.97-7.2-15.68-8.29-24.38.25-2.78,2.02-4.43,4.38-5.36,12.37-4.85,24.67-9.84,37.02-14.72.85-.33,1.73-.28,2.57.12h.01Z"/>
          <path class="cls-24" d="M407.06,761.16c20.8-.23,41.45,1.82,62.15,3.5,10.79.88,21.65,1.01,32.46,1.62,16,.89,32,1.91,48.04,3.91-18.55,2.25-37.11,4.41-55.64,6.78-18.37,2.36-36.7,4.99-55.06,7.4-18.8,2.47-37.62,4.83-56.43,7.2-15.32,1.93-30.74,3.25-45.94,5.83-12.81,2.17-25.44,1.88-38.19.6-7.89-.79-15.77-1.83-23.69-2.36-20.92-1.41-41.79-3.17-62.66-5.2-18.01-1.74-36.1-2.76-54.14-4.22-17.81-1.44-35.61-3.05-54.72-4.7,7.79-2.91,15.11-3.19,22.12-4.41,18.68-3.27,37.45-6.04,56.19-8.96,12.85-2.01,25.71-4.02,38.6-5.83,2.76-.39,5.08-1.41,7.4-2.74,3.16,2.59,2.4,6.13,2.29,9.5.08,1.1.45,2.2.36,3.3-.52,6.03,2.69,7.51,8.09,7.45,15.52-.15,31.05-.06,46.57-.06,8.2,0,16.41.07,24.61-.04,3.07-.04,5.83-.45,6.34-4.3.78-5.93,4.67-7.2,10-7.17,22.84.11,45.68.07,68.52.03,2.87,0,5.79.35,8.48-.97,2.82-1.07,2.44-4.4,4.25-6.17v.02Z"/>
          <path class="cls-30" d="M394.2,45.18c-26.42,2.56-52.84,5.1-79.26,7.67-24.66,2.39-49.31,4.82-73.97,7.22-5.28.52-10.56,1-15.85,1.5-.6.46-1.22.87-1.88,1.22-12.74,4.29-26.16,4.14-39.27,6.11-3,.45-6.3.8-8.4-2.4-.04-3.75,3.14-4.52,5.59-5.7,35.72-17.25,71.29-34.81,107.25-51.56,5-2.34,9.62-5.48,14.99-7.05,3.2-.94,6.33-2.08,9.72-1.06,26.19,14,52.39,27.98,78.56,42.01.94.5,1.69,1.34,2.52,2.04h-.01Z"/>
          <path class="cls-2" d="M226.17,713.05c13.42-.56,26.75,2.2,40.2,1.29,4.11-3.9,9.29-6.01,14.39-8.09,5-2.04,6.98-4.89,6.39-10.62-2.25-22.25-4.53-44.5-6.63-66.78-.31-3.32-.47-6.63-.63-9.95-.12-2.51-.02-5,3.16-5.73,3.21-.35,6.05,1.02,8.97,1.96,9.89,3.13,19.52,7.06,29.84,8.77,2.58.43,5.15,1.31,7.15,3.23,1.73,3.32.24,6.5-.54,9.64-4.32,17.15-8.05,34.43-12.43,51.57-.65,2.52-1.57,5.07-1.07,8.26,4.86-.42,9.28-2.3,13.69-3.96,11.59-4.32,23.49-7.77,35.07-12.11,2.01-.75,4.1-1.82,6.38-.85-1.91,8.81-6.39,16.69-9.09,25.21-1.37,2.34-3.89,2.77-6.11,3.63-16.44,6.39-33.26,11.79-49.61,18.45-20.56,5.35-41.43,9.35-62.05,14.46-6.38,1.58-13.01,1.96-12.87,10.94.01,1.02-1.02,1.92-2.35,1.87.57-13.78-1.16-27.45-1.84-41.19h-.02Z"/>
          <path class="cls-1" d="M178.3,437.22c-10.92-22.16-21.78-44.35-32.8-66.47-1.79-3.57-.37-4.85,2.68-6.39,10.61-5.36,21.1-11.01,31.62-16.54,5.44-6.06,13.48-7.59,20.14-11.55,1.04-.15,2.01.01,2.9.58,5.67,10.02,10,20.7,14.96,31.07,6.5,13.58,12.92,27.2,19.34,40.81,3.2,6.78,6.39,13.59,10.92,19.64-.53,1.6-1.84,2.18-3.32,2.57-18.77,3.26-37.72,5.22-56.52,8.21-3.35.53-7.14,1.42-9.9-1.94h-.02Z"/>
          <path class="cls-29" d="M403.71,510.16c2.16,4.32,3.9,8.8,5.01,13.5-1.31,1.76-3.27,2.31-5.26,2.31-13.63-.03-27.23.86-40.85,1.21-9.31-.07-18.57,1.36-27.88,1.3-20.47.5-40.89,2.36-61.38,2.62-7.02.24-14.04.57-21.05.42-1.88-.04-3.37.54-4.99,1.22-8.76,3.66-18.05,5.5-27.25,7.69-2.23.53-4.43.6-5.59-2.02-1.87-7.42-1.08-15.02-1.6-22.53-.62-3.71-1.7-7.59,3.41-9.18,19.62-3.54,38.81-8.96,58.25-13.26,11.46-2.53,22.91-5.12,34.32-7.89,5.28-1.28,9.85-.55,14.61,2.12,9.67,5.4,18.63,11.99,28.48,17.06,1.05.34,2.05.8,3.04,1.28,7.56,1.83,15.33,1.42,22.99,2.05,8.57.71,17.17,1.22,25.74,2.11v-.02Z"/>
          <path class="cls-1" d="M214.49,538.41c6.69.8,12.84-1.72,18.93-3.63,12.96-4.06,26.04-6.6,39.67-5.7,2.3,2.05,3.25,4.73,3.38,7.7.62,14.18,2.84,28.24,3.82,42.39.82,11.72,2.8,23.33,3.25,35.09-4.02,4.65-1.08,9.91-.75,14.67,1.17,16.72,3.15,33.38,4.86,50.07.67,6.58,1.28,13.18,2.19,19.73.36,2.63.56,5.38-1.98,6.43-7.21,2.98-13.56,8-21.51,9.18-1.2-21.6-2.89-43.17-5.09-64.71-1.77-17.35-2.79-34.78-4.25-52.16-1.82-21.49-3.75-42.97-5.82-66.66-10.64,15.3-16.75,30.99-25.76,44.96-4.63-2.76-6.25-7.87-9.16-11.94-3.6-5.04-6.49-10.57-9.7-15.87-.98-1.62-2.48-3.27-1.18-5.46,3.02-1.38,7.08-.46,9.09-4.1h0Z"/>
          <path class="cls-29" d="M283.56,614.27c-4.3-3.39-2.71-8.63-3.54-12.92-1.37-7.06-1.2-14.42-1.68-21.65,2.03-2.31,4.77-2.98,7.65-3.48,13.9-2.46,27.67-5.54,41.54-8.18,3.73-.71,7.31-1.65,10.13-4.39,9.92,2.63,19.1-1.75,28.61-3.07,13.09-2.76,26.32-4.78,39.36-7.81,4.29-.99,8.38-2.5,12.6-3.65,1.81,2.2,1.87,4.4,0,6.6-27.44,23.67-55.4,46.72-83.48,69.62-1.63,1.33-3.17,3.26-5.79,2.4-15.61-2.92-30.61-7.86-45.42-13.47h.01Z"/>
          <path class="cls-17" d="M152.24,238.23c2.28,1.94,4.09.07,5.94-.84,8.91-4.33,17.83-8.63,26.64-13.17,3.14-1.62,6.29-1.73,9.62-1.41-1.88,3.64-2.01,7.21-.82,11.26,2.14,7.23,5.2,14.11,7.44,21.29,2.79,8.93,2.01,11.03-6.37,15.25-29.99,15.1-59.8,30.55-89.41,46.39-2.8.46-3.97-.72-4.19-3.55-1.12-14.49-2.33-28.99-3.6-43.48-.28-3.15,1.7-3.95,3.96-5.19,10.01-5.49,21.04-8.97,30.45-15.58,5.7-5.65,13.78-6.92,20.32-11v.02Z"/>
          <path class="cls-11" d="M424.7,374.71c.1-1.53-.03-3.13,1.21-4.34.96.32,1.57,1.02,2.05,1.86,5.55,6.12,13.09,9.49,19.65,14.21,5.65,4.08,11.99,7.19,17.11,12.04-6.73,21.35-11.44,43.23-17.03,64.87-1.4,5.43-3.16,6.92-8.82,5.59-17.85-4.2-35.86-7.78-53.81-11.61-2.56-2.88-.34-5.39.8-7.79,3.93-8.3,8.17-16.47,12.17-24.73,6.01-10.77,10.86-22.1,16.01-33.27,3.77-5.47,4.66-12.77,10.65-16.83h0Z"/>
          <path class="cls-13" d="M217.24,507.92c-4.77.84-4.02,4.7-4.35,7.96-3.22-15.57-12.01-28.81-18.19-43.14-5.15-11.98-10.91-23.69-16.4-35.52,10.46.87,20.49-2.28,30.73-3.44,12.02-1.36,24-3.07,36.01-4.64,1.93,1.53,3.33,3.45,4.41,5.68,6.72,13.85,12.76,28.02,19.51,41.86.87,1.79,1.52,3.68.83,5.73-1.9,3.37-5.55,4.35-8.65,5.76-14.59,6.66-28.24,15.43-43.88,19.75h-.01Z"/>
          <path class="cls-26" d="M219.6,586.33c-2.49,4.68-5.24,9.25-7.41,14.07-1.86,4.13-3.23,4.13-6.3.89-13.87-14.61-27.96-29-41.99-43.45-.76-.78-1.66-1.43-2.5-2.14-9.66-15.25-23.47-24.53-41.42-27.83-1.52-.28-3.04-.58-4.57-.79-3.37-.46-4.81-1.6-3.81-5.6,2.29-9.24,3.86-18.65,5.9-27.95.41-1.86.35-5.06,4.01-3.34,3.92,8.5,10.01,15.63,14.74,23.62,1.8,3.03,3.96,2.92,6.67,1.23,1.97-1.22,3.8-3.3,6.59-2.05,4.63-3.62,12.82-5.43,13.37-10.62.48-4.5-5.33-9.68-8.4-14.54-2.93-4.66-5.92-9.29-9.7-15.22,13.05,2.94,25.08,3.96,36.44,8.24,1.57,2.82.32,5.58-.26,8.32-1.82,8.57-4.17,17.05-4.73,25.85.86,4.01,3.17,7.29,5.38,10.61,11.5,17.4,23.34,34.57,34.4,52.26,1.64,2.63,3.53,5.13,3.59,8.42h.02Z"/>
          <path class="cls-30" d="M328.98,627.74c27.54-22.91,55.09-45.84,82.67-68.7,1.88-1.57,3.54-3.92,6.59-3.33-6.6,16.93-13.2,33.86-19.79,50.78-3.6,3.74-8.51,4.54-13.17,5.89-8.5,2.46-17.17,4.32-25.36,7.76-4.77,14.68-8.22,29.7-12.06,44.63-.86,3.34.24,4.46,3.63,3.89,5.44-.91,11.01-.14,16.48-.97,2.18-.33,4.42-.55,6.17,1.33-1.34,3.55-2.69,7.11-4.03,10.66-5.01,3.39-10.93,4.58-16.5,6.59-12.27,4.41-24.6,8.61-36.95,12.76-2.08.71-5.98,3.06-4.62-2.49,5.62-22.94,10.32-46.1,16.96-68.8h-.01Z"/>
          <path class="cls-28" d="M305.08,725.1c18.32-7.64,36.91-14.48,55.91-20.22,15.12,17.19,30.94,33.79,44.93,51.97-1.95,2.22-4.61,2.53-7.27,2.55-26.08.13-52.15.23-78.24-.04-1.1-.01-2.2-.2-3.26-.5-2.57-.58-4.28-2.27-5.14-4.65-3.07-8.46-5.48-17.14-7.51-25.91-.25-1.08.17-2.17.58-3.2h-.01Z"/>
          <path class="cls-29" d="M313.13,1.12c-5.97.19-11,3.33-16.09,5.76-40.43,19.38-80.74,39-121.08,58.55-.83,1.72-2.08,2.89-4.03,3.19-.62-.01-1.15-.23-1.6-.66,7-18.42,14.02-36.82,20.96-55.25.79-2.12,1.93-3.14,4.29-3.33,26.93-2.14,53.85-4.38,80.78-6.59,8.83-.73,17.66-1.54,26.5-2.12,3.42-.22,6.94-1.63,10.28.45Z"/>
          <path class="cls-31" d="M336.78,333.29c-11.53,6.72-24.32,10.43-36.55,15.51-2.39.99-5.37,1.08-6.01,4.42-2.09.41-2.92-1.21-3.96-2.48-8.3-13.34-16.76-26.57-25.17-39.83-.72-1.12-1.53-2.18-2.13-3.36-1.27-2.5-3.8-5.27-1.55-7.86,2.23-2.58,5.64-3.42,9-1.22,14.2-1.52,28.41-2.96,42.6-4.6,12-1.38,23.97-3.01,35.97-4.4.89-.1,1.9.84,2.85,1.29-5.03,14.18-10.04,28.37-15.07,42.55v-.02Z"/>
          <path class="cls-1" d="M223.84,61.44c.44-.02.87.01,1.3.12,1.68,18.65,3.42,37.3,4.98,55.96.71,8.35,1.05,16.74,1.55,25.11-2.12,2.06-4.54,1.23-6.87.63-23.12-6.01-46.11-12.49-69.26-18.37-1.71-.43-3.34-1.16-4.78-2.24-.45-.52-.9-1.02-1.37-1.54-.47-1.04.02-1.83.65-2.59,22.7-17.55,45.09-35.51,67.57-53.33,1.93-1.53,4.09-2.59,6.22-3.74h0Z"/>
          <path class="cls-28" d="M150.44,119.85c-.35.42-.71.85-1.05,1.27-35.21,4.72-70.43,9.45-105.65,14.14-6.12.82-12.27,1.44-18.39,2.16-.48-.6-.5-1.19-.03-1.81,5.48-4.68,12.11-7.35,18.51-10.34,37.11-17.37,74.05-35.08,111.46-51.81,3.62-1.61,7.16-3.5,11.26-3.68.71.14,1.29.5,1.76,1.04,1.48,5.36-1.25,10.02-3.01,14.58-3.57,9.26-7.33,18.45-10.59,27.82-.89,2.57-2.69,4.53-4.27,6.65h0Z"/>
          <path class="cls-14" d="M150.76,122.65c11.52-.1,21.92,4.82,32.82,7.44,16.1,3.89,32.07,8.33,48.1,12.54l.03.11c2.76,2.76,2.72,6.47,3.19,9.92,1.05,7.68.76,15.45,1.61,23.19,1.39,12.59-1.92,15.58-15.03,15.06-5.51-1.86-5.33-7.11-6.52-11.4-2.48-8.93-2.56-9.1-11.03-5.32-5.85,2.6-11.9,4.72-17.72,7.42-1.98.93-4.01,1.98-6.3.83-8.98-15.92-15.74-32.92-23.97-49.2-1.77-3.5-3.44-7.05-5.16-10.58h0Z"/>
          <path class="cls-30" d="M305.08,725.1c4.52,10.28,5.29,21.8,10.54,31.85,2.56,4.11,6.13,8.08,1.65,13.09-2.63,1.52-5.54,1.43-8.41,1.43-23.92.06-47.84.06-71.76,0-3.32,0-6.7.06-9.4-2.44-.06-3.15-.11-6.3-.17-9.46.15-1.79.32-3.56.47-5.35.23-.37.62-.72.68-1.11,2.05-11.44,2.12-11.11,13.39-13.57,21.05-4.6,42.01-9.61,63.01-14.45h-.01Z"/>
          <path class="cls-26" d="M105.28,317.02c2.37-6.15,8.75-7.13,13.51-9.64,26.01-13.75,52.32-26.95,78.57-40.25,3.44-1.74,4.24-3.95,2.99-7.54-3.35-9.6-6.15-19.41-9.84-28.88-1.88-4.82-.37-6.75,3.91-7.9,1.32-.18,2.63-.34,3.96-.52.31.1.62.21.93.31,5.36,7.7,8.45,16.6,12.95,24.75,2.99,7.89,7.14,15.22,10.79,22.79,1.47,3.04,2.84,6.14.12,9.27-13.36,7.01-26.59,14.32-41.46,17.82-.74-.48.14.04-.64-.12-3.25-.67-3.2-6.18-6.83-5.3-4.45,1.07-8.32,3.88-12.44,5.93-4.34,2.17-.22,6.15-1.97,8.85-6.87,2.96-14.15,5.26-20.52,9.06-9.46,5.65-19.03,3.88-28.82,2.4-1.74-.26-3.46-.68-5.19-1.04h0Z"/>
          <path class="cls-23" d="M352.89,507.76c-.39-.47-.76-.95-1.15-1.42-.5-.44-1.09-.85-1.36-1.44-7.38-16.38-13.57-33.23-19.53-50.16-.58-1.65-.63-3.55,1.15-4.82,5.81-1.44,11.46.3,17.13.96,10.77,1.25,21.6,2.07,32.19,4.65,1.55.52,2.42,1.81,3.41,2.99,4.08,11.13,8.17,22.27,12.24,33.41,0,2.56-2.07,3.36-3.86,3.99-11.88,4.17-23.3,9.75-35.79,12.11-1.51.29-3.02.84-4.44-.25h0Z"/>
          <path class="cls-29" d="M166.49,70.37c-22.1,10.28-44.22,20.52-66.29,30.85-23.29,10.9-46.54,21.89-69.82,32.82-1.6.75-3.26,1.32-4.9,1.98-.62.51-1.18.46-1.71-.13,16.43-15.47,32.83-30.97,49.31-46.39,5.32-4.98,10.83-9.74,16.27-14.61,19.5-4.58,39.53-4.29,59.28-6.52,5.61-.64,11.35-2.71,17.02-.02.76.48,1.04,1.16.85,2.04h0Z"/>
          <path class="cls-9" d="M399.77,124.07c3-.39,6-.77,8.99-1.15-2.34,4.19-1.27,8.66-.93,13.01,1.1,13.84,2.45,27.65,3.6,41.48.58,7.03.97,14.09,1.44,21.13-15.67-.03-30.96,4.21-46.63,4.14-3.21-3.74-2.71-8.27-2.68-12.69,3.35-5.63,3.39-12.59,7.13-18.09,1.48-1.28,3.24-1.06,4.98-.95,4.1.24,7.63-.97,8.8-5.18,1.18-4.27-1.38-7.01-5-8.87-.97-.5-1.93-1.02-2.69-1.85-1.15-3.91,1.76-6.14,3.77-8.63,5.4-6.72,11.16-13.15,16.05-20.28.86-.98,2.03-1.5,3.16-2.08h0Z"/>
          <path class="cls-9" d="M426.15,373.3c-.08-.98-.17-1.95-.24-2.93,2.44-10.78,4.94-21.55,7.27-32.35.76-3.52,2.45-5.82,5.86-7.31,12.73-5.54,24.34-13.51,37.74-17.66,1.92.5,3.03,1.94,3.6,3.63,3.42,10.05,8.62,19.44,10.98,29.88-.02,8.57,0,17.15-.08,25.72-.02,2.15.53,4.44-1.12,6.32-3.59-3.55-2.09-8.13-2.51-12.33-.41-4.11.82-8.22.06-12.31-2.53-2.83-4.95-.42-7.11.44-15.18,6.03-30.51,11.68-45.62,17.89-2.8,1.15-5.64,2.82-8.82,1h-.01Z"/>
          <path class="cls-30" d="M418.24,549.11c-.26,2.2-1.36,3.47-3.67,3.96-16.01,3.41-31.98,7.1-48.23,9.28-2.39-2.03-2.69-4.94-3.09-7.73-1.09-7.57-1.93-15.18-2.69-22.78-.24-2.46-.18-4.82,1.63-6.77,15.49-1.49,31.01-1.41,46.54-1.41,3.16,8.49,6.34,16.96,9.5,25.45h0Z"/>
          <path class="cls-31" d="M384.72,458.51l-2.6-1.18c-6.61-16.63-12.7-33.45-18.93-50.21-.88-2.38-2.55-4.81-.94-7.56,12.04-6.36,25.11-10.23,37.53-15.66.53.67.97,1.4,1.3,2.18,1.21,13.03,2.18,26.05-1.34,38.93-4.07,8.53-8.18,17.05-12.19,25.61-1.01,2.15-2.71,4.08-2.49,6.7-.03.42-.14.8-.33,1.18h0Z"/>
          <path class="cls-8" d="M166.5,69.4c-14.09.14-28.01,2.38-42,3.53-10.94.89-21.87,2.02-32.8,2.94-.75.07-1.57-.64-2.35-.99,13.47-12.42,26.97-24.81,40.37-37.31,2.23-2.07,3.8-3.06,6.5-.42,10.55,10.36,21.3,20.5,31.98,30.72-.23.88-.79,1.39-1.69,1.53h-.02Z"/>
          <path class="cls-9" d="M179.89,182.43c10.05-4.36,20.17-8.57,30.11-13.17,3.55-1.64,4.49-.35,5.25,2.78,1.4,5.74,3.04,11.43,4.58,17.15,5.65,9.03,8.14,18.82,7.31,29.47-.93,1.32-2.22,2.15-3.7,2.69-8.29.98-16.49,3.6-24.97,1.57l-.07-.62c-6.17-13.29-12.33-26.58-18.51-39.88h0Z"/>
          <path class="cls-31" d="M426.15,373.3c19.27-7.51,38.51-15.07,57.82-22.46,1.75-.67,3.69-3.1,5.83-.46-5.21,16.96-14.42,31.89-23.81,46.71-.43.46-.86.93-1.29,1.39-9.39-2.69-16.19-9.77-24.3-14.61-5.04-3.01-10.65-5.52-14.26-10.57h.01Z"/>
          <path class="cls-23" d="M159.82,306.61c-2.6-5.39-1.15-9.46,4.34-12.2.79-.4,1.58-.78,2.37-1.18,6.03-3,11.03-2.08,15.01,2.77,3.11,2.74,4.57,6.51,6.05,10.19,3.13,7.85,7.36,15.15,10.92,22.79,1.17,2.51,3.24,4.95,1.61,8.07-5.92,5.2-13.36,7.55-20.33,10.76-6.66-13.74-13.31-27.48-19.97-41.22v.02Z"/>
          <path class="cls-8" d="M374.13,669.01c-8.41,2.29-17.23.24-25.66,2.45-3.33.87-4.41-.62-3.55-3.91,4.33-16.43,7.99-33.04,13.29-49.21,4.87,1.29,7.38,5.53,10.58,8.77,5.41,5.49,11.03,10.87,14.59,17.9-2.52,8.22-5.65,16.2-9.26,24Z"/>
          <path class="cls-27" d="M318.15,768.87c-.44-4.06-3.07-7.66-2.53-11.93,30.1-.03,60.21-.07,90.31-.1.37,1.43.76,2.88,1.14,4.32-.22,2.61,1.06,5.42-1.09,7.77-.6.26-1.14.63-1.85.64-28.05.06-56.11.06-84.16,0-.73,0-1.23-.41-1.82-.69h.01Z"/>
          <path class="cls-23" d="M491.36,346.58c-4.51-4.78-5.43-11.27-7.98-16.97-2.42-5.41-4.42-11.02-6.6-16.53-3.02-9.51-8.34-18.27-9.28-28.47,7.02,3.63,14.04,7.27,21.07,10.87,2.12,1.08,4.16,2.57,6.77,1.97,3,7.57,4.99,15.55,9.48,22.49-6.6,7.81-9,17.76-13.47,26.65h.01Z"/>
          <path class="cls-7" d="M219.6,586.33c-14.12-21.26-28.27-42.5-42.3-63.8-1.3-1.97-1.86-4.42-2.77-6.65,3.03-3.84,7-5.06,11.72-4.18,6.38,10.27,12.76,20.54,19.14,30.82,6.68,11.09,13.36,22.18,20.04,33.27-1.94,3.52-3.89,7.03-5.83,10.56v-.02Z"/>
          <path class="cls-18" d="M383.39,645.01c-9.11-8.2-16.66-17.89-25.17-26.66,13.13-4.89,26.83-7.86,40.23-11.85-4.57,13.02-9.47,25.9-15.04,38.52h-.01Z"/>
          <path class="cls-26" d="M516.64,289.04l21.46-8.7c1.47,1.36,1.59,3.15,1.28,4.89-1.33,7.58-1.59,15.34-3.95,22.74-6.99,2.99-13.74,6.61-21.3,8.09-1.15-.84-1.86-2.07-1.75-3.37.65-8.01.41-16.21,4.28-23.65h-.01Z"/>
          <path class="cls-26" d="M575.24,291.88c-7.05,2.74-13.79,6.3-21.17,8.19-1.16-.83-1.75-2.08-1.59-3.38.97-7.91,1.09-15.99,3.99-23.59,6.92-3.59,14.2-6.33,21.52-8.94,1.06.99,1.45,2.33,1.17,3.63-1.72,7.96-1.06,16.31-3.93,24.08h.01Z"/>
          <path class="cls-14" d="M556.47,273.1c1.43,7.22-.98,14.11-1.8,21.13-.23,1.94-.41,3.89-.61,5.84-5.74,3.76-12.28,5.62-18.65,7.9-2.38-7.72,1.48-14.93,1.81-22.44.08-1.74.56-3.47.87-5.2,6.13-2.41,12.24-4.82,18.37-7.23h0Z"/>
          <path class="cls-19" d="M352.89,507.76c15.1-4.16,29.65-9.84,44.09-15.85,2.73,5.91,5.11,11.94,6.75,18.25-3.68,3.03-8.08,1.76-12,1.43-11.97-1.01-23.91-2.28-35.92-2.6-.98-.02-1.94-.8-2.91-1.22h0Z"/>
          <path class="cls-14" d="M575.24,291.88c-1.82-8.14.78-15.93,1.96-23.83.2-1.3.53-2.59.8-3.88,6.23-2.26,11.93-5.9,18.56-7.06,1.48,10,1.54,19.74-5.29,28.17-5.35,2.2-10.68,4.4-16.03,6.6h-.01Z"/>
          <path class="cls-26" d="M591.27,285.28c2.41-6.84,3.48-13.95,3.92-21.15.15-2.44.24-4.81,1.37-7.02,5.26-3.16,11.03-5.01,17.88-7.51-1.55,9.42-2.98,17.82-4.31,26.22-.34,2.13-1.91,2.81-3.56,3.46-5.09,2.02-10.21,4-15.31,6h.01Z"/>
          <path class="cls-14" d="M516.64,289.04c.87,9.17-2.67,17.92-2.52,27.02-2.84,1.91-5.87,3.34-9.29,3.87-7.58-5.63-9.29-13.74-9.48-22.49,7.1-2.8,14.2-5.61,21.29-8.41h0Z"/>
          <path class="cls-23" d="M186.25,511.69c-3.9,1.39-7.8,2.79-11.72,4.18-1.27-6.21,1.5-11.86,2.41-17.78.91-5.87,2.23-11.64,4.27-17.24,8.46,3.01,11.53,8.67,9.21,17.01-1.3,4.64-2.79,9.22-4.19,13.83h.01Z"/>
          <path class="cls-23" d="M149.49,512.99c-7.36,4.79-13.52,3.48-18.47-3.92-2.94-4.4-5.98-8.72-8.8-13.19-1.05-1.66-3.33-3.45-.72-5.7,9.13-1.58,15.34,1.91,19.47,10.27,2.22,4.49,5.64,8.38,8.52,12.54h-.01Z"/>
          <path class="cls-11" d="M466.01,397.08c6.59-16.26,15.74-31.21,23.81-46.71.11,9.41.23,18.82.35,28.24-7.56,6.8-15.57,13.01-24.16,18.47Z"/>
          <path class="cls-12" d="M152.24,238.23c-5,6.95-13.19,8-20.32,11-2.72-5.24-1.61-9.14,3.34-11.7,2.35-1.21,5.03-1.93,7.12-3.46,5.83-4.27,8.45-1.69,9.86,4.16h0Z"/>
          <path class="cls-5" d="M166.5,69.4c.56-.51,1.12-1.02,1.69-1.53.72.02,1.42.06,2.14.09.51,0,1.02.01,1.53.02.02,2.96-1.65,3.39-4.07,2.74-.43-.12-.87-.23-1.3-.35v-.97h.01Z"/>
          <path class="cls-21" d="M23.76,135.89c.57.04,1.14.09,1.71.13-.04.46-.08.91-.12,1.38-.93,1.06-2.39,1.48-3.19.57-.57-.65.57-1.71,1.6-2.09h0Z"/>
          <path class="cls-15" d="M223.61,219.79c.91-.42,1.83-.83,2.74-1.25,11.01-3.95,22.25-5.63,33.89-3.57.29.29.56.58.84.87,1.53,13.32,3.12,26.64,4.56,39.96,1.54,14.21,4.3,28.28,4.77,42.61-2.78.61-5.55,1.2-9.18,1.99,10.36,16.92,20.44,33.37,30.52,49.83-3.2,1.49-4.81-1.28-6.73-2.73-14.66-10.96-29.28-21.95-43.94-32.9-.53-.36-1-.79-1.44-1.26-6.17-11.45-11.48-23.32-17.15-35.03,1.86-2.5.13-4.53-.87-6.66-3.71-7.92-7.43-15.85-11.14-23.78,1.15-6.02,4.82-10.86,7.59-16.1,2.07-3.91,4.72-7.53,5.54-12.01v.02Z"/>
          <path class="cls-4" d="M364.94,189.16c.55,4.5,1.75,8.93,1.31,13.51-.45.42-.89.83-1.34,1.25-10.11,4.11-20.72,4.77-31.44,4.6-1.92-.37-3.79-.96-5.69-1.45-1.07-.65-1.59-1.65-1.85-2.83-.22-3-.42-6.02-1.42-8.89-2.5-14.76-3.55-29.69-5.18-44.56-.32-5.69-3.75-11.4.04-17.07,4.89-8.44,10.14-16.71,14.56-25.38,2.72-5.33,4.58-3.67,7.41-.47,6.02,6.8,12.18,13.47,18.28,20.19,4.34,5.57,3.46,12.13,3.56,18.52,1.77,10.69,2.34,21.52,3.45,32.28.36,3.57-.08,7.05-1.69,10.32h0Z"/>
          <path class="cls-9" d="M327.48,206.55l5.62.14c-.44,2.85-2.26,1.9-3.91,1.42-9.77-.56-19.25,1.87-28.91,2.63-12.06.95-24.06,2.61-36.08,4.02-1.07.12-2.08.71-3.12,1.07v.02c-2.81-1.96-3.45-4.95-3.87-8.07-2.66-19.45-4.85-38.96-7.36-58.42-.37-2.9-.34-5.75,1.87-8.08.43-.03.86-.03,1.28,0,2.57.52,5.11.98,7.51,2.24,10.34,5.43,20.7,10.82,30.88,16.54,1.83,1.04,4.51,2.12,4.13,4.62-.42,2.74-3.37,2.18-5.42,2.63-3.6.46-7.32-.74-10.94.8,8.5,3.77,18.03,2.04,26.61,5.18,8.8,10.06,16.47,20.86,21.73,33.24h-.01Z"/>
          <path class="cls-31" d="M362.38,254.89c-19.87-2.56-39.1-5.05-58.34-7.51-5.9-.76-11.79-1.6-17.72-2.15-3.28-.31-5.79-1.09-5.26-5.06.57-4.32,3.45-2.08,5.57-1.82,24.92,3.17,49.84,6.38,74.76,9.51,2.52.32,5,.19,4.79,3.85-.18,3.07-1.73,3.8-3.8,3.17Z"/>
          <path class="cls-31" d="M329.19,208.13c1.3-.47,2.6-.95,3.91-1.43,10.6-.93,21.21-1.85,31.82-2.78-3.34,4.95-8.2,8.43-12.21,12.74-2.11,2.27-4.49,2.41-7.11.9-5.46-3.16-10.93-6.28-16.41-9.42h0Z"/>
          <path class="cls-14" d="M341.86,68.75c16.7-1.64,32.06-3.14,47.41-4.65,8.16-.8,16.32-1.48,24.45-2.47,3.77-.46,5.59.14,5.87,4.57.68,10.16,1.79,20.3,3.15,30.4.51,3.7-.18,5.28-4.04,5.64-14.11,1.31-28.2,2.83-42.3,4.29-2.29.23-4.24.03-5.89-2.04-9.21-11.62-18.54-23.15-28.66-35.74h0Z"/>
          <path class="cls-14" d="M326.34,70.7c-7.54,14.2-14.53,27.21-21.37,40.31-1.39,2.66-3.73,2.94-6.12,3.16-14.09,1.31-28.18,2.51-42.27,3.86-2.39.23-3.89-.29-4.13-2.89-1.06-11.23-2.09-22.46-3.17-33.69-.28-2.85,1.76-3.33,3.77-3.54,23.95-2.39,47.9-4.73,73.3-7.22h-.01Z"/>
          <path class="cls-11" d="M251.72,141.31c2.29,24.96,5.35,49.83,9.37,74.57-11.68-.51-23.05,3.19-34.73,2.67-.88-10.07-4.72-19.5-6.52-29.37,17.92-2.07,14.96,1.55,14.01-16.68-.51-9.93-1.4-19.84-2.13-29.76,6.67-.47,13.34-.96,19.99-1.43h.01Z"/>
          <path class="cls-11" d="M290.16,165.43c1.3-.15,2.6-.31,5.48-.64-14.98-8.26-28.81-15.88-42.64-23.51,1.36-.41,2.71-.82,4.07-1.21,5.9,2.09,12.18,1.71,18.25,2.79,15.25,2.69,30.57,5.06,45.85,7.69,1.25,10.14,2.55,20.27,3.74,30.41.58,4.98.98,9.99,1.47,14.99,1.47,2.52-.36,5.54,1.19,8.06-.02.85-.04,1.7-.07,2.55-7.59-10.21-14.78-20.69-21.24-31.65-.88-4.81-4.27-5.91-8.55-6.25-2.73-.22-6.36.95-7.53-3.22h-.01Z"/>
          <path class="cls-14" d="M321.16,150.55c-.75,3.22-3.11,1.7-4.77,1.42-18.38-3.06-36.76-6.26-55.14-9.31-1.86-.31-3.41-.73-4.19-2.58,20.76-2.13,41.54-4.24,62.3-6.37.6,5.61,1.2,11.23,1.8,16.84h0Z"/>
          <path class="cls-3" d="M361.09,146.49c-.5-6.15-.99-12.29-1.48-18.44,13.38-1.32,26.77-2.66,40.15-3.98-.57.77-1.15,1.53-1.72,2.3-9.28,9.36-20.91,15.37-31.85,22.34-2.57,1.64-4.6,1.26-5.09-2.24h-.01Z"/>
          <path class="cls-13" d="M240.89,313.02c10.97,6.11,20.17,14.67,30.34,21.87,6.98,4.93,13.69,10.23,20.52,15.36.83.98,1.65,1.97,2.47,2.95,7.62,20.46,15.23,40.92,22.84,61.38.64,1.12.71,2.19-.26,3.19-11.02,4.2-22.84,4.56-34.24,6.87-5.28,1.07-10.66,3.22-16.23,1.11-2.33-2.08-2.61-5.04-3.25-7.81-7.22-31.3-14.17-62.66-21.57-93.9-.85-3.58-2.44-7.23-.61-11h0Z"/>
          <path class="cls-22" d="M316.84,416.89c.08-.77.14-1.53.22-2.3,3.79,2.04,6.79-.6,9.91-1.85,11.65-4.7,23.09-9.91,35.28-13.17,6.87,17.88,13.73,35.76,20.62,53.64.61,1.57.82,2.99-.74,4.12-16.82-2.17-33.63-4.34-50.45-6.5-.68.28-1.33.22-1.96-.17-6.07-10.57-10.54-21.77-12.87-33.78h-.01Z"/>
          <path class="cls-23" d="M330.28,391.17c-2.66.25-3.12-1.43-3.55-2.84-.9-2.91,1.09-3.81,3.36-4.65,9.34-3.48,18.64-7.08,27.94-10.64,2.27-.87,4.55-1.73,6.8-2.66,1.93-.78,2.91.23,3.57,1.83.56,1.37,1.86,3.05-.33,3.95-12.73,5.14-25.5,10.15-37.79,15.02h0Z"/>
          <path class="cls-23" d="M364.58,362.36c.32,2.17-1.12,2.92-2.57,3.48-11.51,4.46-23.05,8.87-34.56,13.32-2.24.87-3.98.45-4.83-1.86-.84-2.26.15-3.89,2.34-4.73,11.73-4.53,23.44-9.08,35.19-13.52,3.06-1.16,3.69,1.37,4.42,3.3h.01Z"/>
          <path class="cls-23" d="M321.69,368.4c-2.11.42-2.92-.77-3.36-2.45-.39-1.48-1.14-3.11.98-3.91,12.37-4.71,24.71-9.47,37.14-14.02,2.01-.74,3.19,1.04,3.81,2.84.54,1.54-.18,2.67-1.53,3.2-12.33,4.82-24.69,9.57-37.04,14.34h0Z"/>
          <path class="cls-6" d="M399.61,384.79c.07-.3.12-.6.17-.89,8.31-3.06,16.61-6.13,24.91-9.19-3.07,5.79-6.16,11.57-9.24,17.35-6.61.48-11.69-2.37-15.84-7.26Z"/>
          <path class="cls-1" d="M318.15,768.87c29.27.02,58.56.04,87.83.06-2.11,1.87-4.66,1.02-7,1.04-24.36.07-48.7.18-73.06-.07-5.43-.06-8.62.85-7.58,7.14.67,4.03-1.19,5.32-5.24,5.3-26.79-.14-53.58-.14-80.37,0-4.03.02-5.71-1.28-5.31-5.33.25-2.63.19-5.3.26-7.96,30.15-.06,60.3-.11,90.45-.17h.01Z"/>
          <path class="cls-8" d="M167.8,70.72c1.36-.91,2.71-1.83,4.07-2.74,1.37-.85,2.72-1.7,4.09-2.55,4.45,3.53,9.34,1.15,13.9.66,11.36-1.22,22.67-3.06,33.99-4.65-6.48,7.67-14.95,13.01-22.72,19.12-16.8,13.21-32.97,27.25-50.68,39.28,4.61-16.8,13.01-32.24,17.35-49.12h0Z"/>
          <path class="cls-29" d="M240.89,313.02c4.31,17.98,8.71,35.92,12.91,53.92,4.2,18.01,8.22,36.06,12.27,54.1.29,1.28.21,2.63.31,3.96-5.62,4.53-11.75,5.81-18.53,2.92-2.92.2-4.3-1.58-5.43-3.98-12.99-27.47-26.05-54.9-39.03-82.37-.64-1.36-.68-2.99-1-4.49-.32-2.8,1.93-3.85,3.68-4.99,9.43-6.18,19.16-11.93,28.57-18.15,1.87-1.25,3.9-2.16,6.24-1.14v.22h.02Z"/>
          <path class="cls-9" d="M247.85,427.92c6.17-.97,12.36-1.95,18.53-2.92,16.82-2.7,33.65-5.41,50.47-8.11,5.63,10.77,9.16,22.38,13.49,33.68.18,3.21-2.53,3.91-4.56,4.93-16.36,8.12-32.4,16.86-48.73,25.07-2.4,1.21-4.84,3.39-7.91,1.51-8.03-17.63-16.07-35.28-24.09-52.91.94-.41,1.87-.82,2.81-1.22v-.02Z"/>
          <path class="cls-20" d="M240.88,312.8c-13.13,7.62-26.03,15.6-38.5,24.28-.76,0-1.51-.02-2.27-.02-5.57-11.66-11.14-23.31-16.68-34.98-.91-1.93-2.58-3.65-1.92-6.07,14.07-4.87,27.39-11.54,40.93-17.65,2.98-.02,3.31,2.53,4.21,4.43,4.77,9.99,9.47,20.01,14.2,30.02h.02Z"/>
          <path class="cls-30" d="M338.38,563.72c-.03,2.98-.98,4.76-4.41,5.39-18.57,3.38-37.09,7.03-55.63,10.59-1.75-16.87-3.5-33.74-5.26-50.61,20.37-.89,40.75-1.77,61.11-2.67,2.38,2.28,3.02,5.31,3.32,8.38.68,7.21,1.7,14.36,2.5,21.55.29,2.61.6,5.29-1.63,7.37h-.01Z"/>
          <path class="cls-19" d="M269.13,482.07c20.62-10.07,41.13-20.36,61.2-31.5.45.09.9.18,1.34.26,5.79,15.55,11.61,31.1,17.35,46.68,1.07,2.89,1.82,5.9,2.71,8.85-6.71-1.41-11.36-6.54-17.17-9.6-5.06-2.67-9.84-5.87-14.74-8.85-2.87-1.73-5.72-1.39-8.89-.64-29.57,6.94-59.16,13.72-88.78,20.46-1.54.35-3.22,1.98-4.9.21,17.3-8.62,34.6-17.24,51.89-25.86h-.01Z"/>
          <path class="cls-1" d="M338.38,563.72c-1.39-12.43-2.79-24.86-4.18-37.31,9.34-.23,18.6-2.14,27.99-1.34,1.38,12.42,2.77,24.85,4.14,37.27-7.59,1.71-15.22,3.31-22.79,5.16-3.49.85-3.7-2.19-5.17-3.79h0Z"/>
          <path class="cls-1" d="M399.61,384.79c5.28,2.42,10.56,4.84,15.84,7.26-4.33,11.42-9.51,22.43-15.72,32.95-.03-13.4-.08-26.82-.12-40.22Z"/>
          <path class="cls-31" d="M223.61,219.79c2.33.32,2.17,1.63,1.29,3.24-4.64,8.39-8.53,17.22-14.43,24.88-4-8.33-8-16.65-12.01-24.99,8.24-2.14,16.7-2.68,25.15-3.12h0Z"/>
          <path class="cls-11" d="M361.09,146.49c2.03,3.86,4.06.82,5.71-.22,10.47-6.55,20.83-13.24,31.23-19.88-3.17,7.33-9.47,12.37-13.86,18.8-2.2,3.22-4.82,6.16-7.24,9.22-6.27,4.44-7.3,10.49-5.38,17.46-2.02,5.84-1.7,12.58-6.62,17.29-1.28-14.23-2.57-28.46-3.85-42.68h.01Z"/>
          <path class="cls-10" d="M371.56,171.87c-5.91-8.85-4.39-13.79,5.38-17.46,7.95,1.82,11.52,6.22,9.78,12.06-1.84,6.18-7.03,8.03-15.15,5.41h0Z"/>
          <path class="cls-16" d="M191.9,188.88c13.09-5.85,13.19-5.89,17.2,6.28.99,3.01,4.46,7.35,1.93,8.93-3.15,1.96-5.24-3.25-7.8-5.28-3.75-2.95-7.2-6.28-11.33-9.93h0Z"/>
          <path class="cls-9" d="M327.54,204.01c-2.07-2.44-1.06-5.33-1.19-8.06,2.13,2.44.97,5.35,1.19,8.06Z"/>
          <path class="cls-25" d="M290.16,165.43c3.93,1.99,8.27,1,12.39,1.62,5.46.8,6.81,3.17,3.69,7.84-8.75-.99-17.49-2.08-26.26-2.93-3.16-.31-4.87-1.15-4.43-4.83.44-3.67,2.52-2.58,4.72-2.33,3.28.37,6.59.43,9.9.62h0Z"/>
        </g>
      </g>
    </g>
  </g>
</svg>